<?xml version="1.0" encoding="UTF-8"?>
<svg xmlns="http://www.w3.org/2000/svg" xmlns:xlink="http://www.w3.org/1999/xlink" width="400pt" height="400pt" viewBox="0 0 400 400" version="1.1">
<g id="surface93875">
<rect x="0" y="0" width="400" height="400" style="fill:rgb(100%,100%,100%);fill-opacity:1;stroke:none;"/>
<path style="fill:none;stroke-width:2;stroke-linecap:butt;stroke-linejoin:miter;stroke:rgb(88.0722%,61.1041%,14.2051%);stroke-opacity:0.2;stroke-miterlimit:10;" d="M 0 0 L 0 400 "/>
<path style="fill:none;stroke-width:2;stroke-linecap:butt;stroke-linejoin:miter;stroke:rgb(88.0722%,61.1041%,14.2051%);stroke-opacity:0.2;stroke-miterlimit:10;" d="M 14.140625 0 L 14.140625 400 "/>
<path style="fill:none;stroke-width:2;stroke-linecap:butt;stroke-linejoin:miter;stroke:rgb(88.0722%,61.1041%,14.2051%);stroke-opacity:0.2;stroke-miterlimit:10;" d="M 28.285156 0 L 28.285156 400 "/>
<path style="fill:none;stroke-width:2;stroke-linecap:butt;stroke-linejoin:miter;stroke:rgb(88.0722%,61.1041%,14.2051%);stroke-opacity:0.2;stroke-miterlimit:10;" d="M 42.425781 0 L 42.425781 400 "/>
<path style="fill:none;stroke-width:2;stroke-linecap:butt;stroke-linejoin:miter;stroke:rgb(88.0722%,61.1041%,14.2051%);stroke-opacity:0.2;stroke-miterlimit:10;" d="M 56.570312 0 L 56.570312 400 "/>
<path style="fill:none;stroke-width:2;stroke-linecap:butt;stroke-linejoin:miter;stroke:rgb(88.0722%,61.1041%,14.2051%);stroke-opacity:0.2;stroke-miterlimit:10;" d="M 70.710938 0 L 70.710938 400 "/>
<path style="fill:none;stroke-width:2;stroke-linecap:butt;stroke-linejoin:miter;stroke:rgb(88.0722%,61.1041%,14.2051%);stroke-opacity:0.2;stroke-miterlimit:10;" d="M 84.851562 0 L 84.851562 400 "/>
<path style="fill:none;stroke-width:2;stroke-linecap:butt;stroke-linejoin:miter;stroke:rgb(88.0722%,61.1041%,14.2051%);stroke-opacity:0.2;stroke-miterlimit:10;" d="M 98.996094 0 L 98.996094 400 "/>
<path style="fill:none;stroke-width:2;stroke-linecap:butt;stroke-linejoin:miter;stroke:rgb(88.0722%,61.1041%,14.2051%);stroke-opacity:0.2;stroke-miterlimit:10;" d="M 113.136719 0 L 113.136719 400 "/>
<path style="fill:none;stroke-width:2;stroke-linecap:butt;stroke-linejoin:miter;stroke:rgb(88.0722%,61.1041%,14.2051%);stroke-opacity:0.2;stroke-miterlimit:10;" d="M 127.277344 0 L 127.277344 400 "/>
<path style="fill:none;stroke-width:2;stroke-linecap:butt;stroke-linejoin:miter;stroke:rgb(88.0722%,61.1041%,14.2051%);stroke-opacity:0.2;stroke-miterlimit:10;" d="M 141.421875 0 L 141.421875 400 "/>
<path style="fill:none;stroke-width:2;stroke-linecap:butt;stroke-linejoin:miter;stroke:rgb(88.0722%,61.1041%,14.2051%);stroke-opacity:0.2;stroke-miterlimit:10;" d="M 155.5625 0 L 155.5625 400 "/>
<path style="fill:none;stroke-width:2;stroke-linecap:butt;stroke-linejoin:miter;stroke:rgb(88.0722%,61.1041%,14.2051%);stroke-opacity:0.2;stroke-miterlimit:10;" d="M 169.707031 0 L 169.707031 400 "/>
<path style="fill:none;stroke-width:2;stroke-linecap:butt;stroke-linejoin:miter;stroke:rgb(88.0722%,61.1041%,14.2051%);stroke-opacity:0.2;stroke-miterlimit:10;" d="M 183.847656 0 L 183.847656 400 "/>
<path style="fill:none;stroke-width:2;stroke-linecap:butt;stroke-linejoin:miter;stroke:rgb(88.0722%,61.1041%,14.2051%);stroke-opacity:0.2;stroke-miterlimit:10;" d="M 197.988281 0 L 197.988281 400 "/>
<path style="fill:none;stroke-width:2;stroke-linecap:butt;stroke-linejoin:miter;stroke:rgb(88.0722%,61.1041%,14.2051%);stroke-opacity:0.2;stroke-miterlimit:10;" d="M 212.132812 0 L 212.132812 400 "/>
<path style="fill:none;stroke-width:2;stroke-linecap:butt;stroke-linejoin:miter;stroke:rgb(88.0722%,61.1041%,14.2051%);stroke-opacity:0.2;stroke-miterlimit:10;" d="M 226.273438 0 L 226.273438 400 "/>
<path style="fill:none;stroke-width:2;stroke-linecap:butt;stroke-linejoin:miter;stroke:rgb(88.0722%,61.1041%,14.2051%);stroke-opacity:0.2;stroke-miterlimit:10;" d="M 240.417969 0 L 240.417969 400 "/>
<path style="fill:none;stroke-width:2;stroke-linecap:butt;stroke-linejoin:miter;stroke:rgb(88.0722%,61.1041%,14.2051%);stroke-opacity:0.2;stroke-miterlimit:10;" d="M 254.558594 0 L 254.558594 400 "/>
<path style="fill:none;stroke-width:2;stroke-linecap:butt;stroke-linejoin:miter;stroke:rgb(88.0722%,61.1041%,14.2051%);stroke-opacity:0.2;stroke-miterlimit:10;" d="M 268.699219 0 L 268.699219 400 "/>
<path style="fill:none;stroke-width:2;stroke-linecap:butt;stroke-linejoin:miter;stroke:rgb(88.0722%,61.1041%,14.2051%);stroke-opacity:0.2;stroke-miterlimit:10;" d="M 282.84375 0 L 282.84375 400 "/>
<path style="fill:none;stroke-width:2;stroke-linecap:butt;stroke-linejoin:miter;stroke:rgb(88.0722%,61.1041%,14.2051%);stroke-opacity:0.2;stroke-miterlimit:10;" d="M 296.984375 0 L 296.984375 400 "/>
<path style="fill:none;stroke-width:2;stroke-linecap:butt;stroke-linejoin:miter;stroke:rgb(88.0722%,61.1041%,14.2051%);stroke-opacity:0.2;stroke-miterlimit:10;" d="M 311.128906 0 L 311.128906 400 "/>
<path style="fill:none;stroke-width:2;stroke-linecap:butt;stroke-linejoin:miter;stroke:rgb(88.0722%,61.1041%,14.2051%);stroke-opacity:0.2;stroke-miterlimit:10;" d="M 325.269531 0 L 325.269531 400 "/>
<path style="fill:none;stroke-width:2;stroke-linecap:butt;stroke-linejoin:miter;stroke:rgb(88.0722%,61.1041%,14.2051%);stroke-opacity:0.2;stroke-miterlimit:10;" d="M 339.410156 0 L 339.410156 400 "/>
<path style="fill:none;stroke-width:2;stroke-linecap:butt;stroke-linejoin:miter;stroke:rgb(88.0722%,61.1041%,14.2051%);stroke-opacity:0.2;stroke-miterlimit:10;" d="M 353.554688 0 L 353.554688 400 "/>
<path style="fill:none;stroke-width:2;stroke-linecap:butt;stroke-linejoin:miter;stroke:rgb(88.0722%,61.1041%,14.2051%);stroke-opacity:0.2;stroke-miterlimit:10;" d="M 367.695312 0 L 367.695312 400 "/>
<path style="fill:none;stroke-width:2;stroke-linecap:butt;stroke-linejoin:miter;stroke:rgb(88.0722%,61.1041%,14.2051%);stroke-opacity:0.2;stroke-miterlimit:10;" d="M 381.835938 0 L 381.835938 400 "/>
<path style="fill:none;stroke-width:2;stroke-linecap:butt;stroke-linejoin:miter;stroke:rgb(88.0722%,61.1041%,14.2051%);stroke-opacity:0.2;stroke-miterlimit:10;" d="M 395.980469 0 L 395.980469 400 "/>
<path style="fill:none;stroke-width:2;stroke-linecap:butt;stroke-linejoin:miter;stroke:rgb(88.0722%,61.1041%,14.2051%);stroke-opacity:0.2;stroke-miterlimit:10;" d="M 0 0 L 400 0 "/>
<path style="fill:none;stroke-width:2;stroke-linecap:butt;stroke-linejoin:miter;stroke:rgb(88.0722%,61.1041%,14.2051%);stroke-opacity:0.2;stroke-miterlimit:10;" d="M 0 14.140625 L 400 14.140625 "/>
<path style="fill:none;stroke-width:2;stroke-linecap:butt;stroke-linejoin:miter;stroke:rgb(88.0722%,61.1041%,14.2051%);stroke-opacity:0.2;stroke-miterlimit:10;" d="M 0 28.285156 L 400 28.285156 "/>
<path style="fill:none;stroke-width:2;stroke-linecap:butt;stroke-linejoin:miter;stroke:rgb(88.0722%,61.1041%,14.2051%);stroke-opacity:0.2;stroke-miterlimit:10;" d="M 0 42.425781 L 400 42.425781 "/>
<path style="fill:none;stroke-width:2;stroke-linecap:butt;stroke-linejoin:miter;stroke:rgb(88.0722%,61.1041%,14.2051%);stroke-opacity:0.2;stroke-miterlimit:10;" d="M 0 56.570312 L 400 56.570312 "/>
<path style="fill:none;stroke-width:2;stroke-linecap:butt;stroke-linejoin:miter;stroke:rgb(88.0722%,61.1041%,14.2051%);stroke-opacity:0.2;stroke-miterlimit:10;" d="M 0 70.710938 L 400 70.710938 "/>
<path style="fill:none;stroke-width:2;stroke-linecap:butt;stroke-linejoin:miter;stroke:rgb(88.0722%,61.1041%,14.2051%);stroke-opacity:0.2;stroke-miterlimit:10;" d="M 0 84.851562 L 400 84.851562 "/>
<path style="fill:none;stroke-width:2;stroke-linecap:butt;stroke-linejoin:miter;stroke:rgb(88.0722%,61.1041%,14.2051%);stroke-opacity:0.2;stroke-miterlimit:10;" d="M 0 98.996094 L 400 98.996094 "/>
<path style="fill:none;stroke-width:2;stroke-linecap:butt;stroke-linejoin:miter;stroke:rgb(88.0722%,61.1041%,14.2051%);stroke-opacity:0.2;stroke-miterlimit:10;" d="M 0 113.136719 L 400 113.136719 "/>
<path style="fill:none;stroke-width:2;stroke-linecap:butt;stroke-linejoin:miter;stroke:rgb(88.0722%,61.1041%,14.2051%);stroke-opacity:0.2;stroke-miterlimit:10;" d="M 0 127.277344 L 400 127.277344 "/>
<path style="fill:none;stroke-width:2;stroke-linecap:butt;stroke-linejoin:miter;stroke:rgb(88.0722%,61.1041%,14.2051%);stroke-opacity:0.2;stroke-miterlimit:10;" d="M 0 141.421875 L 400 141.421875 "/>
<path style="fill:none;stroke-width:2;stroke-linecap:butt;stroke-linejoin:miter;stroke:rgb(88.0722%,61.1041%,14.2051%);stroke-opacity:0.2;stroke-miterlimit:10;" d="M 0 155.5625 L 400 155.5625 "/>
<path style="fill:none;stroke-width:2;stroke-linecap:butt;stroke-linejoin:miter;stroke:rgb(88.0722%,61.1041%,14.2051%);stroke-opacity:0.2;stroke-miterlimit:10;" d="M 0 169.707031 L 400 169.707031 "/>
<path style="fill:none;stroke-width:2;stroke-linecap:butt;stroke-linejoin:miter;stroke:rgb(88.0722%,61.1041%,14.2051%);stroke-opacity:0.2;stroke-miterlimit:10;" d="M 0 183.847656 L 400 183.847656 "/>
<path style="fill:none;stroke-width:2;stroke-linecap:butt;stroke-linejoin:miter;stroke:rgb(88.0722%,61.1041%,14.2051%);stroke-opacity:0.2;stroke-miterlimit:10;" d="M 0 197.988281 L 400 197.988281 "/>
<path style="fill:none;stroke-width:2;stroke-linecap:butt;stroke-linejoin:miter;stroke:rgb(88.0722%,61.1041%,14.2051%);stroke-opacity:0.2;stroke-miterlimit:10;" d="M 0 212.132812 L 400 212.132812 "/>
<path style="fill:none;stroke-width:2;stroke-linecap:butt;stroke-linejoin:miter;stroke:rgb(88.0722%,61.1041%,14.2051%);stroke-opacity:0.2;stroke-miterlimit:10;" d="M 0 226.273438 L 400 226.273438 "/>
<path style="fill:none;stroke-width:2;stroke-linecap:butt;stroke-linejoin:miter;stroke:rgb(88.0722%,61.1041%,14.2051%);stroke-opacity:0.2;stroke-miterlimit:10;" d="M 0 240.417969 L 400 240.417969 "/>
<path style="fill:none;stroke-width:2;stroke-linecap:butt;stroke-linejoin:miter;stroke:rgb(88.0722%,61.1041%,14.2051%);stroke-opacity:0.2;stroke-miterlimit:10;" d="M 0 254.558594 L 400 254.558594 "/>
<path style="fill:none;stroke-width:2;stroke-linecap:butt;stroke-linejoin:miter;stroke:rgb(88.0722%,61.1041%,14.2051%);stroke-opacity:0.2;stroke-miterlimit:10;" d="M 0 268.699219 L 400 268.699219 "/>
<path style="fill:none;stroke-width:2;stroke-linecap:butt;stroke-linejoin:miter;stroke:rgb(88.0722%,61.1041%,14.2051%);stroke-opacity:0.2;stroke-miterlimit:10;" d="M 0 282.84375 L 400 282.84375 "/>
<path style="fill:none;stroke-width:2;stroke-linecap:butt;stroke-linejoin:miter;stroke:rgb(88.0722%,61.1041%,14.2051%);stroke-opacity:0.2;stroke-miterlimit:10;" d="M 0 296.984375 L 400 296.984375 "/>
<path style="fill:none;stroke-width:2;stroke-linecap:butt;stroke-linejoin:miter;stroke:rgb(88.0722%,61.1041%,14.2051%);stroke-opacity:0.2;stroke-miterlimit:10;" d="M 0 311.128906 L 400 311.128906 "/>
<path style="fill:none;stroke-width:2;stroke-linecap:butt;stroke-linejoin:miter;stroke:rgb(88.0722%,61.1041%,14.2051%);stroke-opacity:0.2;stroke-miterlimit:10;" d="M 0 325.269531 L 400 325.269531 "/>
<path style="fill:none;stroke-width:2;stroke-linecap:butt;stroke-linejoin:miter;stroke:rgb(88.0722%,61.1041%,14.2051%);stroke-opacity:0.2;stroke-miterlimit:10;" d="M 0 339.410156 L 400 339.410156 "/>
<path style="fill:none;stroke-width:2;stroke-linecap:butt;stroke-linejoin:miter;stroke:rgb(88.0722%,61.1041%,14.2051%);stroke-opacity:0.2;stroke-miterlimit:10;" d="M 0 353.554688 L 400 353.554688 "/>
<path style="fill:none;stroke-width:2;stroke-linecap:butt;stroke-linejoin:miter;stroke:rgb(88.0722%,61.1041%,14.2051%);stroke-opacity:0.2;stroke-miterlimit:10;" d="M 0 367.695312 L 400 367.695312 "/>
<path style="fill:none;stroke-width:2;stroke-linecap:butt;stroke-linejoin:miter;stroke:rgb(88.0722%,61.1041%,14.2051%);stroke-opacity:0.2;stroke-miterlimit:10;" d="M 0 381.835938 L 400 381.835938 "/>
<path style="fill:none;stroke-width:2;stroke-linecap:butt;stroke-linejoin:miter;stroke:rgb(88.0722%,61.1041%,14.2051%);stroke-opacity:0.2;stroke-miterlimit:10;" d="M 0 395.980469 L 400 395.980469 "/>
<path style=" stroke:none;fill-rule:nonzero;fill:rgb(36.8417%,50.6779%,70.9798%);fill-opacity:1;" d="M 226.386719 5.242188 C 226.386719 7.910156 222.386719 7.910156 222.386719 5.242188 C 222.386719 2.574219 226.386719 2.574219 226.386719 5.242188 "/>
<path style=" stroke:none;fill-rule:nonzero;fill:rgb(36.8417%,50.6779%,70.9798%);fill-opacity:1;" d="M 302.761719 5.269531 C 302.761719 7.933594 298.761719 7.933594 298.761719 5.269531 C 298.761719 2.601562 302.761719 2.601562 302.761719 5.269531 "/>
<path style=" stroke:none;fill-rule:nonzero;fill:rgb(36.8417%,50.6779%,70.9798%);fill-opacity:1;" d="M 388.902344 45.304688 C 388.902344 47.972656 384.902344 47.972656 384.902344 45.304688 C 384.902344 42.636719 388.902344 42.636719 388.902344 45.304688 "/>
<path style=" stroke:none;fill-rule:nonzero;fill:rgb(36.8417%,50.6779%,70.9798%);fill-opacity:1;" d="M 332.402344 10.347656 C 332.402344 13.011719 328.402344 13.011719 328.402344 10.347656 C 328.402344 7.679688 332.402344 7.679688 332.402344 10.347656 "/>
<path style=" stroke:none;fill-rule:nonzero;fill:rgb(36.8417%,50.6779%,70.9798%);fill-opacity:1;" d="M 379.761719 371.074219 C 379.761719 373.738281 375.761719 373.738281 375.761719 371.074219 C 375.761719 368.40625 379.761719 368.40625 379.761719 371.074219 "/>
<path style=" stroke:none;fill-rule:nonzero;fill:rgb(36.8417%,50.6779%,70.9798%);fill-opacity:1;" d="M 379.453125 391.070312 C 379.453125 393.738281 375.453125 393.738281 375.453125 391.070312 C 375.453125 388.402344 379.453125 388.402344 379.453125 391.070312 "/>
<path style=" stroke:none;fill-rule:nonzero;fill:rgb(36.8417%,50.6779%,70.9798%);fill-opacity:1;" d="M 55.136719 15.730469 C 55.136719 18.394531 51.136719 18.394531 51.136719 15.730469 C 51.136719 13.0625 55.136719 13.0625 55.136719 15.730469 "/>
<path style=" stroke:none;fill-rule:nonzero;fill:rgb(36.8417%,50.6779%,70.9798%);fill-opacity:1;" d="M 394.761719 26 C 394.761719 28.664062 390.761719 28.664062 390.761719 26 C 390.761719 23.332031 394.761719 23.332031 394.761719 26 "/>
<path style=" stroke:none;fill-rule:nonzero;fill:rgb(36.8417%,50.6779%,70.9798%);fill-opacity:1;" d="M 4.445312 24.234375 C 4.445312 26.902344 0.445312 26.902344 0.445312 24.234375 C 0.445312 21.570312 4.445312 21.570312 4.445312 24.234375 "/>
<path style=" stroke:none;fill-rule:nonzero;fill:rgb(36.8417%,50.6779%,70.9798%);fill-opacity:1;" d="M 381.320312 11.191406 C 381.320312 13.855469 377.320312 13.855469 377.320312 11.191406 C 377.320312 8.523438 381.320312 8.523438 381.320312 11.191406 "/>
<path style=" stroke:none;fill-rule:nonzero;fill:rgb(36.8417%,50.6779%,70.9798%);fill-opacity:1;" d="M 400.714844 6.304688 C 400.714844 8.972656 396.714844 8.972656 396.714844 6.304688 C 396.714844 3.640625 400.714844 3.640625 400.714844 6.304688 "/>
<path style=" stroke:none;fill-rule:nonzero;fill:rgb(36.8417%,50.6779%,70.9798%);fill-opacity:1;" d="M 220.167969 58.257812 C 220.167969 60.925781 216.167969 60.925781 216.167969 58.257812 C 216.167969 55.589844 220.167969 55.589844 220.167969 58.257812 "/>
<path style=" stroke:none;fill-rule:nonzero;fill:rgb(36.8417%,50.6779%,70.9798%);fill-opacity:1;" d="M 14.960938 7.222656 C 14.960938 9.890625 10.960938 9.890625 10.960938 7.222656 C 10.960938 4.558594 14.960938 4.558594 14.960938 7.222656 "/>
<path style=" stroke:none;fill-rule:nonzero;fill:rgb(36.8417%,50.6779%,70.9798%);fill-opacity:1;" d="M 108.769531 29.535156 C 108.769531 32.203125 104.769531 32.203125 104.769531 29.535156 C 104.769531 26.871094 108.769531 26.871094 108.769531 29.535156 "/>
<path style=" stroke:none;fill-rule:nonzero;fill:rgb(36.8417%,50.6779%,70.9798%);fill-opacity:1;" d="M 310.640625 28.238281 C 310.640625 30.90625 306.640625 30.90625 306.640625 28.238281 C 306.640625 25.570312 310.640625 25.570312 310.640625 28.238281 "/>
<path style=" stroke:none;fill-rule:nonzero;fill:rgb(36.8417%,50.6779%,70.9798%);fill-opacity:1;" d="M 350.261719 1.339844 C 350.261719 4.007812 346.261719 4.007812 346.261719 1.339844 C 346.261719 -1.328125 350.261719 -1.328125 350.261719 1.339844 "/>
<path style=" stroke:none;fill-rule:nonzero;fill:rgb(36.8417%,50.6779%,70.9798%);fill-opacity:1;" d="M 399.042969 387.042969 C 399.042969 389.710938 395.042969 389.710938 395.042969 387.042969 C 395.042969 384.378906 399.042969 384.378906 399.042969 387.042969 "/>
<path style=" stroke:none;fill-rule:nonzero;fill:rgb(36.8417%,50.6779%,70.9798%);fill-opacity:1;" d="M 393.308594 198.300781 C 393.308594 200.964844 389.308594 200.964844 389.308594 198.300781 C 389.308594 195.632812 393.308594 195.632812 393.308594 198.300781 "/>
<path style=" stroke:none;fill-rule:nonzero;fill:rgb(36.8417%,50.6779%,70.9798%);fill-opacity:1;" d="M 388.804688 65.304688 C 388.804688 67.972656 384.804688 67.972656 384.804688 65.304688 C 384.804688 62.636719 388.804688 62.636719 388.804688 65.304688 "/>
<path style=" stroke:none;fill-rule:nonzero;fill:rgb(36.8417%,50.6779%,70.9798%);fill-opacity:1;" d="M 204.300781 38.589844 C 204.300781 41.257812 200.300781 41.257812 200.300781 38.589844 C 200.300781 35.921875 204.300781 35.921875 204.300781 38.589844 "/>
<path style=" stroke:none;fill-rule:nonzero;fill:rgb(36.8417%,50.6779%,70.9798%);fill-opacity:1;" d="M 33.933594 13.554688 C 33.933594 16.222656 29.933594 16.222656 29.933594 13.554688 C 29.933594 10.890625 33.933594 10.890625 33.933594 13.554688 "/>
<path style=" stroke:none;fill-rule:nonzero;fill:rgb(36.8417%,50.6779%,70.9798%);fill-opacity:1;" d="M 81.382812 22.5 C 81.382812 25.167969 77.382812 25.167969 77.382812 22.5 C 77.382812 19.835938 81.382812 19.835938 81.382812 22.5 "/>
<path style=" stroke:none;fill-rule:nonzero;fill:rgb(36.8417%,50.6779%,70.9798%);fill-opacity:1;" d="M 132.429688 10.085938 C 132.429688 12.753906 128.429688 12.753906 128.429688 10.085938 C 128.429688 7.421875 132.429688 7.421875 132.429688 10.085938 "/>
<path style=" stroke:none;fill-rule:nonzero;fill:rgb(36.8417%,50.6779%,70.9798%);fill-opacity:1;" d="M 236.226562 33.335938 C 236.226562 36.003906 232.226562 36.003906 232.226562 33.335938 C 232.226562 30.671875 236.226562 30.671875 236.226562 33.335938 "/>
<path style=" stroke:none;fill-rule:nonzero;fill:rgb(36.8417%,50.6779%,70.9798%);fill-opacity:1;" d="M 16.265625 47.9375 C 16.265625 50.601562 12.265625 50.601562 12.265625 47.9375 C 12.265625 45.269531 16.265625 45.269531 16.265625 47.9375 "/>
<path style=" stroke:none;fill-rule:nonzero;fill:rgb(36.8417%,50.6779%,70.9798%);fill-opacity:1;" d="M 125.703125 40.179688 C 125.703125 42.847656 121.703125 42.847656 121.703125 40.179688 C 121.703125 37.511719 125.703125 37.511719 125.703125 40.179688 "/>
<path style=" stroke:none;fill-rule:nonzero;fill:rgb(36.8417%,50.6779%,70.9798%);fill-opacity:1;" d="M 39.566406 32.746094 C 39.566406 35.414062 35.566406 35.414062 35.566406 32.746094 C 35.566406 30.078125 39.566406 30.078125 39.566406 32.746094 "/>
<path style=" stroke:none;fill-rule:nonzero;fill:rgb(36.8417%,50.6779%,70.9798%);fill-opacity:1;" d="M 332.246094 51.902344 C 332.246094 54.570312 328.246094 54.570312 328.246094 51.902344 C 328.246094 49.238281 332.246094 49.238281 332.246094 51.902344 "/>
<path style=" stroke:none;fill-rule:nonzero;fill:rgb(36.8417%,50.6779%,70.9798%);fill-opacity:1;" d="M 285.898438 16.019531 C 285.898438 18.6875 281.898438 18.6875 281.898438 16.019531 C 281.898438 13.355469 285.898438 13.355469 285.898438 16.019531 "/>
<path style=" stroke:none;fill-rule:nonzero;fill:rgb(36.8417%,50.6779%,70.9798%);fill-opacity:1;" d="M 267.34375 8.558594 C 267.34375 11.226562 263.34375 11.226562 263.34375 8.558594 C 263.34375 5.894531 267.34375 5.894531 267.34375 8.558594 "/>
<path style=" stroke:none;fill-rule:nonzero;fill:rgb(36.8417%,50.6779%,70.9798%);fill-opacity:1;" d="M 348.695312 21.945312 C 348.695312 24.613281 344.695312 24.613281 344.695312 21.945312 C 344.695312 19.28125 348.695312 19.28125 348.695312 21.945312 "/>
<path style=" stroke:none;fill-rule:nonzero;fill:rgb(36.8417%,50.6779%,70.9798%);fill-opacity:1;" d="M 47.230469 51.21875 C 47.230469 53.886719 43.230469 53.886719 43.230469 51.21875 C 43.230469 48.554688 47.230469 48.554688 47.230469 51.21875 "/>
<path style=" stroke:none;fill-rule:nonzero;fill:rgb(36.8417%,50.6779%,70.9798%);fill-opacity:1;" d="M 379.507812 332.898438 C 379.507812 335.566406 375.507812 335.566406 375.507812 332.898438 C 375.507812 330.230469 379.507812 330.230469 379.507812 332.898438 "/>
<path style=" stroke:none;fill-rule:nonzero;fill:rgb(36.8417%,50.6779%,70.9798%);fill-opacity:1;" d="M 373.398438 196.433594 C 373.398438 199.101562 369.398438 199.101562 369.398438 196.433594 C 369.398438 193.769531 373.398438 193.769531 373.398438 196.433594 "/>
<path style=" stroke:none;fill-rule:nonzero;fill:rgb(36.8417%,50.6779%,70.9798%);fill-opacity:1;" d="M 2.53125 62.472656 C 2.53125 65.140625 -1.46875 65.140625 -1.46875 62.472656 C -1.46875 59.804688 2.53125 59.804688 2.53125 62.472656 "/>
<path style=" stroke:none;fill-rule:nonzero;fill:rgb(36.8417%,50.6779%,70.9798%);fill-opacity:1;" d="M 331.359375 31.921875 C 331.359375 34.589844 327.359375 34.589844 327.359375 31.921875 C 327.359375 29.257812 331.359375 29.257812 331.359375 31.921875 "/>
<path style=" stroke:none;fill-rule:nonzero;fill:rgb(36.8417%,50.6779%,70.9798%);fill-opacity:1;" d="M 71.933594 4.875 C 71.933594 7.542969 67.933594 7.542969 67.933594 4.875 C 67.933594 2.207031 71.933594 2.207031 71.933594 4.875 "/>
<path style=" stroke:none;fill-rule:nonzero;fill:rgb(36.8417%,50.6779%,70.9798%);fill-opacity:1;" d="M 388.367188 98.210938 C 388.367188 100.878906 384.367188 100.878906 384.367188 98.210938 C 384.367188 95.546875 388.367188 95.546875 388.367188 98.210938 "/>
<path style=" stroke:none;fill-rule:nonzero;fill:rgb(36.8417%,50.6779%,70.9798%);fill-opacity:1;" d="M 112.429688 9.875 C 112.429688 12.539062 108.429688 12.539062 108.429688 9.875 C 108.429688 7.207031 112.429688 7.207031 112.429688 9.875 "/>
<path style=" stroke:none;fill-rule:nonzero;fill:rgb(36.8417%,50.6779%,70.9798%);fill-opacity:1;" d="M 43.726562 108.421875 C 43.726562 111.089844 39.726562 111.089844 39.726562 108.421875 C 39.726562 105.753906 43.726562 105.753906 43.726562 108.421875 "/>
<path style=" stroke:none;fill-rule:nonzero;fill:rgb(36.8417%,50.6779%,70.9798%);fill-opacity:1;" d="M 143.300781 26.875 C 143.300781 29.542969 139.300781 29.542969 139.300781 26.875 C 139.300781 24.207031 143.300781 24.207031 143.300781 26.875 "/>
<path style=" stroke:none;fill-rule:nonzero;fill:rgb(36.8417%,50.6779%,70.9798%);fill-opacity:1;" d="M 269.425781 28.453125 C 269.425781 31.117188 265.425781 31.117188 265.425781 28.453125 C 265.425781 25.785156 269.425781 25.785156 269.425781 28.453125 "/>
<path style=" stroke:none;fill-rule:nonzero;fill:rgb(36.8417%,50.6779%,70.9798%);fill-opacity:1;" d="M 215.207031 21.824219 C 215.207031 24.492188 211.207031 24.492188 211.207031 21.824219 C 211.207031 19.160156 215.207031 19.160156 215.207031 21.824219 "/>
<path style=" stroke:none;fill-rule:nonzero;fill:rgb(36.8417%,50.6779%,70.9798%);fill-opacity:1;" d="M 99.914062 54.066406 C 99.914062 56.734375 95.914062 56.734375 95.914062 54.066406 C 95.914062 51.402344 99.914062 51.402344 99.914062 54.066406 "/>
<path style=" stroke:none;fill-rule:nonzero;fill:rgb(36.8417%,50.6779%,70.9798%);fill-opacity:1;" d="M 368.414062 47.988281 C 368.414062 50.65625 364.414062 50.65625 364.414062 47.988281 C 364.414062 45.324219 368.414062 45.324219 368.414062 47.988281 "/>
<path style=" stroke:none;fill-rule:nonzero;fill:rgb(36.8417%,50.6779%,70.9798%);fill-opacity:1;" d="M 370.667969 28.117188 C 370.667969 30.78125 366.667969 30.78125 366.667969 28.117188 C 366.667969 25.449219 370.667969 25.449219 370.667969 28.117188 "/>
<path style=" stroke:none;fill-rule:nonzero;fill:rgb(36.8417%,50.6779%,70.9798%);fill-opacity:1;" d="M 174.664062 22.570312 C 174.664062 25.234375 170.664062 25.234375 170.664062 22.570312 C 170.664062 19.902344 174.664062 19.902344 174.664062 22.570312 "/>
<path style=" stroke:none;fill-rule:nonzero;fill:rgb(36.8417%,50.6779%,70.9798%);fill-opacity:1;" d="M 319.015625 66.902344 C 319.015625 69.570312 315.015625 69.570312 315.015625 66.902344 C 315.015625 64.234375 319.015625 64.234375 319.015625 66.902344 "/>
<path style=" stroke:none;fill-rule:nonzero;fill:rgb(36.8417%,50.6779%,70.9798%);fill-opacity:1;" d="M 351.222656 58.210938 C 351.222656 60.875 347.222656 60.875 347.222656 58.210938 C 347.222656 55.542969 351.222656 55.542969 351.222656 58.210938 "/>
<path style=" stroke:none;fill-rule:nonzero;fill:rgb(36.8417%,50.6779%,70.9798%);fill-opacity:1;" d="M 250.464844 19.292969 C 250.464844 21.957031 246.464844 21.957031 246.464844 19.292969 C 246.464844 16.625 250.464844 16.625 250.464844 19.292969 "/>
<path style=" stroke:none;fill-rule:nonzero;fill:rgb(36.8417%,50.6779%,70.9798%);fill-opacity:1;" d="M 375.09375 269.0625 C 375.09375 271.730469 371.09375 271.730469 371.09375 269.0625 C 371.09375 266.398438 375.09375 266.398438 375.09375 269.0625 "/>
<path style=" stroke:none;fill-rule:nonzero;fill:rgb(36.8417%,50.6779%,70.9798%);fill-opacity:1;" d="M 166.410156 4.351562 C 166.410156 7.019531 162.410156 7.019531 162.410156 4.351562 C 162.410156 1.683594 166.410156 1.683594 166.410156 4.351562 "/>
<path style=" stroke:none;fill-rule:nonzero;fill:rgb(36.8417%,50.6779%,70.9798%);fill-opacity:1;" d="M 400.265625 367.082031 C 400.265625 369.746094 396.265625 369.746094 396.265625 367.082031 C 396.265625 364.414062 400.265625 364.414062 400.265625 367.082031 "/>
<path style=" stroke:none;fill-rule:nonzero;fill:rgb(36.8417%,50.6779%,70.9798%);fill-opacity:1;" d="M 305.429688 47.546875 C 305.429688 50.214844 301.429688 50.214844 301.429688 47.546875 C 301.429688 44.882812 305.429688 44.882812 305.429688 47.546875 "/>
<path style=" stroke:none;fill-rule:nonzero;fill:rgb(36.8417%,50.6779%,70.9798%);fill-opacity:1;" d="M 77.957031 62.046875 C 77.957031 64.710938 73.957031 64.710938 73.957031 62.046875 C 73.957031 59.378906 77.957031 59.378906 77.957031 62.046875 "/>
<path style=" stroke:none;fill-rule:nonzero;fill:rgb(36.8417%,50.6779%,70.9798%);fill-opacity:1;" d="M 149.460938 45.902344 C 149.460938 48.570312 145.460938 48.570312 145.460938 45.902344 C 145.460938 43.234375 149.460938 43.234375 149.460938 45.902344 "/>
<path style=" stroke:none;fill-rule:nonzero;fill:rgb(36.8417%,50.6779%,70.9798%);fill-opacity:1;" d="M 304.082031 381.933594 C 304.082031 384.601562 300.082031 384.601562 300.082031 381.933594 C 300.082031 379.269531 304.082031 379.269531 304.082031 381.933594 "/>
<path style=" stroke:none;fill-rule:nonzero;fill:rgb(36.8417%,50.6779%,70.9798%);fill-opacity:1;" d="M 21.347656 69.242188 C 21.347656 71.910156 17.347656 71.910156 17.347656 69.242188 C 17.347656 66.578125 21.347656 66.578125 21.347656 69.242188 "/>
<path style=" stroke:none;fill-rule:nonzero;fill:rgb(36.8417%,50.6779%,70.9798%);fill-opacity:1;" d="M 92.402344 5.8125 C 92.402344 8.476562 88.402344 8.476562 88.402344 5.8125 C 88.402344 3.144531 92.402344 3.144531 92.402344 5.8125 "/>
<path style=" stroke:none;fill-rule:nonzero;fill:rgb(36.8417%,50.6779%,70.9798%);fill-opacity:1;" d="M 77.207031 42.058594 C 77.207031 44.726562 73.207031 44.726562 73.207031 42.058594 C 73.207031 39.394531 77.207031 39.394531 77.207031 42.058594 "/>
<path style=" stroke:none;fill-rule:nonzero;fill:rgb(36.8417%,50.6779%,70.9798%);fill-opacity:1;" d="M 202.84375 6.105469 C 202.84375 8.769531 198.84375 8.769531 198.84375 6.105469 C 198.84375 3.4375 202.84375 3.4375 202.84375 6.105469 "/>
<path style=" stroke:none;fill-rule:nonzero;fill:rgb(36.8417%,50.6779%,70.9798%);fill-opacity:1;" d="M 377.21875 81.605469 C 377.21875 84.273438 373.21875 84.273438 373.21875 81.605469 C 373.21875 78.941406 377.21875 78.941406 377.21875 81.605469 "/>
<path style=" stroke:none;fill-rule:nonzero;fill:rgb(36.8417%,50.6779%,70.9798%);fill-opacity:1;" d="M 185.808594 69.363281 C 185.808594 72.03125 181.808594 72.03125 181.808594 69.363281 C 181.808594 66.695312 185.808594 66.695312 185.808594 69.363281 "/>
<path style=" stroke:none;fill-rule:nonzero;fill:rgb(36.8417%,50.6779%,70.9798%);fill-opacity:1;" d="M 358.316406 381.773438 C 358.316406 384.441406 354.316406 384.441406 354.316406 381.773438 C 354.316406 379.109375 358.316406 379.109375 358.316406 381.773438 "/>
<path style=" stroke:none;fill-rule:nonzero;fill:rgb(36.8417%,50.6779%,70.9798%);fill-opacity:1;" d="M 305.300781 83.378906 C 305.300781 86.042969 301.300781 86.042969 301.300781 83.378906 C 301.300781 80.710938 305.300781 80.710938 305.300781 83.378906 "/>
<path style=" stroke:none;fill-rule:nonzero;fill:rgb(36.8417%,50.6779%,70.9798%);fill-opacity:1;" d="M 240.382812 52.898438 C 240.382812 55.566406 236.382812 55.566406 236.382812 52.898438 C 236.382812 50.234375 240.382812 50.234375 240.382812 52.898438 "/>
<path style=" stroke:none;fill-rule:nonzero;fill:rgb(36.8417%,50.6779%,70.9798%);fill-opacity:1;" d="M 401.695312 127.027344 C 401.695312 129.691406 397.695312 129.691406 397.695312 127.027344 C 397.695312 124.359375 401.695312 124.359375 401.695312 127.027344 "/>
<path style=" stroke:none;fill-rule:nonzero;fill:rgb(36.8417%,50.6779%,70.9798%);fill-opacity:1;" d="M 64 76.371094 C 64 79.035156 60 79.035156 60 76.371094 C 60 73.703125 64 73.703125 64 76.371094 "/>
<path style=" stroke:none;fill-rule:nonzero;fill:rgb(36.8417%,50.6779%,70.9798%);fill-opacity:1;" d="M 17.703125 88.910156 C 17.703125 91.574219 13.703125 91.574219 13.703125 88.910156 C 13.703125 86.242188 17.703125 86.242188 17.703125 88.910156 "/>
<path style=" stroke:none;fill-rule:nonzero;fill:rgb(36.8417%,50.6779%,70.9798%);fill-opacity:1;" d="M 117.476562 63.640625 C 117.476562 66.308594 113.476562 66.308594 113.476562 63.640625 C 113.476562 60.976562 117.476562 60.976562 117.476562 63.640625 "/>
<path style=" stroke:none;fill-rule:nonzero;fill:rgb(36.8417%,50.6779%,70.9798%);fill-opacity:1;" d="M 96.601562 73.792969 C 96.601562 76.457031 92.601562 76.457031 92.601562 73.792969 C 92.601562 71.125 96.601562 71.125 96.601562 73.792969 "/>
<path style=" stroke:none;fill-rule:nonzero;fill:rgb(36.8417%,50.6779%,70.9798%);fill-opacity:1;" d="M 142.371094 64.601562 C 142.371094 67.269531 138.371094 67.269531 138.371094 64.601562 C 138.371094 61.9375 142.371094 61.9375 142.371094 64.601562 "/>
<path style=" stroke:none;fill-rule:nonzero;fill:rgb(36.8417%,50.6779%,70.9798%);fill-opacity:1;" d="M 41.320312 70.328125 C 41.320312 72.992188 37.320312 72.992188 37.320312 70.328125 C 37.320312 67.660156 41.320312 67.660156 41.320312 70.328125 "/>
<path style=" stroke:none;fill-rule:nonzero;fill:rgb(36.8417%,50.6779%,70.9798%);fill-opacity:1;" d="M 399.660156 146.921875 C 399.660156 149.589844 395.660156 149.589844 395.660156 146.921875 C 395.660156 144.257812 399.660156 144.257812 399.660156 146.921875 "/>
<path style=" stroke:none;fill-rule:nonzero;fill:rgb(36.8417%,50.6779%,70.9798%);fill-opacity:1;" d="M 400.371094 174.648438 C 400.371094 177.316406 396.371094 177.316406 396.371094 174.648438 C 396.371094 171.980469 400.371094 171.980469 400.371094 174.648438 "/>
<path style=" stroke:none;fill-rule:nonzero;fill:rgb(36.8417%,50.6779%,70.9798%);fill-opacity:1;" d="M 258.535156 75.953125 C 258.535156 78.617188 254.535156 78.617188 254.535156 75.953125 C 254.535156 73.285156 258.535156 73.285156 258.535156 75.953125 "/>
<path style=" stroke:none;fill-rule:nonzero;fill:rgb(36.8417%,50.6779%,70.9798%);fill-opacity:1;" d="M 129.152344 88.867188 C 129.152344 91.53125 125.152344 91.53125 125.152344 88.867188 C 125.152344 86.199219 129.152344 86.199219 129.152344 88.867188 "/>
<path style=" stroke:none;fill-rule:nonzero;fill:rgb(36.8417%,50.6779%,70.9798%);fill-opacity:1;" d="M 323.789062 385.332031 C 323.789062 388 319.789062 388 319.789062 385.332031 C 319.789062 382.667969 323.789062 382.667969 323.789062 385.332031 "/>
<path style=" stroke:none;fill-rule:nonzero;fill:rgb(36.8417%,50.6779%,70.9798%);fill-opacity:1;" d="M 280.070312 45.925781 C 280.070312 48.589844 276.070312 48.589844 276.070312 45.925781 C 276.070312 43.257812 280.070312 43.257812 280.070312 45.925781 "/>
<path style=" stroke:none;fill-rule:nonzero;fill:rgb(36.8417%,50.6779%,70.9798%);fill-opacity:1;" d="M 234.640625 72.058594 C 234.640625 74.726562 230.640625 74.726562 230.640625 72.058594 C 230.640625 69.390625 234.640625 69.390625 234.640625 72.058594 "/>
<path style=" stroke:none;fill-rule:nonzero;fill:rgb(36.8417%,50.6779%,70.9798%);fill-opacity:1;" d="M 345.484375 77.367188 C 345.484375 80.035156 341.484375 80.035156 341.484375 77.367188 C 341.484375 74.699219 345.484375 74.699219 345.484375 77.367188 "/>
<path style=" stroke:none;fill-rule:nonzero;fill:rgb(36.8417%,50.6779%,70.9798%);fill-opacity:1;" d="M 253.066406 95.191406 C 253.066406 97.855469 249.066406 97.855469 249.066406 95.191406 C 249.066406 92.523438 253.066406 92.523438 253.066406 95.191406 "/>
<path style=" stroke:none;fill-rule:nonzero;fill:rgb(36.8417%,50.6779%,70.9798%);fill-opacity:1;" d="M 105.625 91.640625 C 105.625 94.304688 101.625 94.304688 101.625 91.640625 C 101.625 88.972656 105.625 88.972656 105.625 91.640625 "/>
<path style=" stroke:none;fill-rule:nonzero;fill:rgb(36.8417%,50.6779%,70.9798%);fill-opacity:1;" d="M 338.164062 115.742188 C 338.164062 118.40625 334.164062 118.40625 334.164062 115.742188 C 334.164062 113.074219 338.164062 113.074219 338.164062 115.742188 "/>
<path style=" stroke:none;fill-rule:nonzero;fill:rgb(36.8417%,50.6779%,70.9798%);fill-opacity:1;" d="M 372.054688 109.785156 C 372.054688 112.453125 368.054688 112.453125 368.054688 109.785156 C 368.054688 107.117188 372.054688 107.117188 372.054688 109.785156 "/>
<path style=" stroke:none;fill-rule:nonzero;fill:rgb(36.8417%,50.6779%,70.9798%);fill-opacity:1;" d="M 369.683594 352.304688 C 369.683594 354.972656 365.683594 354.972656 365.683594 352.304688 C 365.683594 349.636719 369.683594 349.636719 369.683594 352.304688 "/>
<path style=" stroke:none;fill-rule:nonzero;fill:rgb(36.8417%,50.6779%,70.9798%);fill-opacity:1;" d="M 169.027344 41.757812 C 169.027344 44.425781 165.027344 44.425781 165.027344 41.757812 C 165.027344 39.089844 169.027344 39.089844 169.027344 41.757812 "/>
<path style=" stroke:none;fill-rule:nonzero;fill:rgb(36.8417%,50.6779%,70.9798%);fill-opacity:1;" d="M 389.570312 350.183594 C 389.570312 352.847656 385.570312 352.847656 385.570312 350.183594 C 385.570312 347.515625 389.570312 347.515625 389.570312 350.183594 "/>
<path style=" stroke:none;fill-rule:nonzero;fill:rgb(36.8417%,50.6779%,70.9798%);fill-opacity:1;" d="M 368.410156 150.949219 C 368.410156 153.617188 364.410156 153.617188 364.410156 150.949219 C 364.410156 148.28125 368.410156 148.28125 368.410156 150.949219 "/>
<path style=" stroke:none;fill-rule:nonzero;fill:rgb(36.8417%,50.6779%,70.9798%);fill-opacity:1;" d="M 85.835938 94.558594 C 85.835938 97.222656 81.835938 97.222656 81.835938 94.558594 C 81.835938 91.890625 85.835938 91.890625 85.835938 94.558594 "/>
<path style=" stroke:none;fill-rule:nonzero;fill:rgb(36.8417%,50.6779%,70.9798%);fill-opacity:1;" d="M 34.117188 304.699219 C 34.117188 307.363281 30.117188 307.363281 30.117188 304.699219 C 30.117188 302.03125 34.117188 302.03125 34.117188 304.699219 "/>
<path style=" stroke:none;fill-rule:nonzero;fill:rgb(36.8417%,50.6779%,70.9798%);fill-opacity:1;" d="M 335.132812 164.6875 C 335.132812 167.355469 331.132812 167.355469 331.132812 164.6875 C 331.132812 162.023438 335.132812 162.023438 335.132812 164.6875 "/>
<path style=" stroke:none;fill-rule:nonzero;fill:rgb(36.8417%,50.6779%,70.9798%);fill-opacity:1;" d="M 281.523438 79.328125 C 281.523438 81.996094 277.523438 81.996094 277.523438 79.328125 C 277.523438 76.664062 281.523438 76.664062 281.523438 79.328125 "/>
<path style=" stroke:none;fill-rule:nonzero;fill:rgb(36.8417%,50.6779%,70.9798%);fill-opacity:1;" d="M 327.78125 86.675781 C 327.78125 89.339844 323.78125 89.339844 323.78125 86.675781 C 323.78125 84.007812 327.78125 84.007812 327.78125 86.675781 "/>
<path style=" stroke:none;fill-rule:nonzero;fill:rgb(36.8417%,50.6779%,70.9798%);fill-opacity:1;" d="M 349.429688 350.84375 C 349.429688 353.511719 345.429688 353.511719 345.429688 350.84375 C 345.429688 348.179688 349.429688 348.179688 349.429688 350.84375 "/>
<path style=" stroke:none;fill-rule:nonzero;fill:rgb(36.8417%,50.6779%,70.9798%);fill-opacity:1;" d="M 104.121094 121.757812 C 104.121094 124.425781 100.121094 124.425781 100.121094 121.757812 C 100.121094 119.089844 104.121094 119.089844 104.121094 121.757812 "/>
<path style=" stroke:none;fill-rule:nonzero;fill:rgb(36.8417%,50.6779%,70.9798%);fill-opacity:1;" d="M 320.992188 105.488281 C 320.992188 108.152344 316.992188 108.152344 316.992188 105.488281 C 316.992188 102.820312 320.992188 102.820312 320.992188 105.488281 "/>
<path style=" stroke:none;fill-rule:nonzero;fill:rgb(36.8417%,50.6779%,70.9798%);fill-opacity:1;" d="M 291.765625 62.152344 C 291.765625 64.816406 287.765625 64.816406 287.765625 62.152344 C 287.765625 59.484375 291.765625 59.484375 291.765625 62.152344 "/>
<path style=" stroke:none;fill-rule:nonzero;fill:rgb(36.8417%,50.6779%,70.9798%);fill-opacity:1;" d="M 328.726562 183.636719 C 328.726562 186.300781 324.726562 186.300781 324.726562 183.636719 C 324.726562 180.96875 328.726562 180.96875 328.726562 183.636719 "/>
<path style=" stroke:none;fill-rule:nonzero;fill:rgb(36.8417%,50.6779%,70.9798%);fill-opacity:1;" d="M 332.8125 137.28125 C 332.8125 139.949219 328.8125 139.949219 328.8125 137.28125 C 328.8125 134.617188 332.8125 134.617188 332.8125 137.28125 "/>
<path style=" stroke:none;fill-rule:nonzero;fill:rgb(36.8417%,50.6779%,70.9798%);fill-opacity:1;" d="M 44.0625 223.082031 C 44.0625 225.75 40.0625 225.75 40.0625 223.082031 C 40.0625 220.414062 44.0625 220.414062 44.0625 223.082031 "/>
<path style=" stroke:none;fill-rule:nonzero;fill:rgb(36.8417%,50.6779%,70.9798%);fill-opacity:1;" d="M 348.445312 149.761719 C 348.445312 152.429688 344.445312 152.429688 344.445312 149.761719 C 344.445312 147.09375 348.445312 147.09375 348.445312 149.761719 "/>
<path style=" stroke:none;fill-rule:nonzero;fill:rgb(36.8417%,50.6779%,70.9798%);fill-opacity:1;" d="M 385.609375 161.152344 C 385.609375 163.820312 381.609375 163.820312 381.609375 161.152344 C 381.609375 158.488281 385.609375 158.488281 385.609375 161.152344 "/>
<path style=" stroke:none;fill-rule:nonzero;fill:rgb(36.8417%,50.6779%,70.9798%);fill-opacity:1;" d="M 48.488281 88.996094 C 48.488281 91.664062 44.488281 91.664062 44.488281 88.996094 C 44.488281 86.332031 48.488281 86.332031 48.488281 88.996094 "/>
<path style=" stroke:none;fill-rule:nonzero;fill:rgb(36.8417%,50.6779%,70.9798%);fill-opacity:1;" d="M 353.34375 102.71875 C 353.34375 105.386719 349.34375 105.386719 349.34375 102.71875 C 349.34375 100.054688 353.34375 100.054688 353.34375 102.71875 "/>
<path style=" stroke:none;fill-rule:nonzero;fill:rgb(36.8417%,50.6779%,70.9798%);fill-opacity:1;" d="M 357.503906 167.714844 C 357.503906 170.382812 353.503906 170.382812 353.503906 167.714844 C 353.503906 165.050781 357.503906 165.050781 357.503906 167.714844 "/>
<path style=" stroke:none;fill-rule:nonzero;fill:rgb(36.8417%,50.6779%,70.9798%);fill-opacity:1;" d="M 187.496094 49.433594 C 187.496094 52.101562 183.496094 52.101562 183.496094 49.433594 C 183.496094 46.765625 187.496094 46.765625 187.496094 49.433594 "/>
<path style=" stroke:none;fill-rule:nonzero;fill:rgb(36.8417%,50.6779%,70.9798%);fill-opacity:1;" d="M 146.632812 98.585938 C 146.632812 101.25 142.632812 101.25 142.632812 98.585938 C 142.632812 95.917969 146.632812 95.917969 146.632812 98.585938 "/>
<path style=" stroke:none;fill-rule:nonzero;fill:rgb(36.8417%,50.6779%,70.9798%);fill-opacity:1;" d="M 342.074219 393.441406 C 342.074219 396.109375 338.074219 396.109375 338.074219 393.441406 C 338.074219 390.773438 342.074219 390.773438 342.074219 393.441406 "/>
<path style=" stroke:none;fill-rule:nonzero;fill:rgb(36.8417%,50.6779%,70.9798%);fill-opacity:1;" d="M 361.445312 132.203125 C 361.445312 134.867188 357.445312 134.867188 357.445312 132.203125 C 357.445312 129.535156 361.445312 129.535156 361.445312 132.203125 "/>
<path style=" stroke:none;fill-rule:nonzero;fill:rgb(36.8417%,50.6779%,70.9798%);fill-opacity:1;" d="M 87.140625 137.460938 C 87.140625 140.128906 83.140625 140.128906 83.140625 137.460938 C 83.140625 134.792969 87.140625 134.792969 87.140625 137.460938 "/>
<path style=" stroke:none;fill-rule:nonzero;fill:rgb(36.8417%,50.6779%,70.9798%);fill-opacity:1;" d="M 388.105469 247.738281 C 388.105469 250.40625 384.105469 250.40625 384.105469 247.738281 C 384.105469 245.070312 388.105469 245.070312 388.105469 247.738281 "/>
<path style=" stroke:none;fill-rule:nonzero;fill:rgb(36.8417%,50.6779%,70.9798%);fill-opacity:1;" d="M 290.734375 97.082031 C 290.734375 99.75 286.734375 99.75 286.734375 97.082031 C 286.734375 94.414062 290.734375 94.414062 290.734375 97.082031 "/>
<path style=" stroke:none;fill-rule:nonzero;fill:rgb(36.8417%,50.6779%,70.9798%);fill-opacity:1;" d="M 166.988281 76.140625 C 166.988281 78.804688 162.988281 78.804688 162.988281 76.140625 C 162.988281 73.472656 166.988281 73.472656 166.988281 76.140625 "/>
<path style=" stroke:none;fill-rule:nonzero;fill:rgb(36.8417%,50.6779%,70.9798%);fill-opacity:1;" d="M 356.675781 207.40625 C 356.675781 210.070312 352.675781 210.070312 352.675781 207.40625 C 352.675781 204.738281 356.675781 204.738281 356.675781 207.40625 "/>
<path style=" stroke:none;fill-rule:nonzero;fill:rgb(36.8417%,50.6779%,70.9798%);fill-opacity:1;" d="M 76.035156 120.824219 C 76.035156 123.492188 72.035156 123.492188 72.035156 120.824219 C 72.035156 118.160156 76.035156 118.160156 76.035156 120.824219 "/>
<path style=" stroke:none;fill-rule:nonzero;fill:rgb(36.8417%,50.6779%,70.9798%);fill-opacity:1;" d="M 174.574219 106.382812 C 174.574219 109.050781 170.574219 109.050781 170.574219 106.382812 C 170.574219 103.714844 174.574219 103.714844 174.574219 106.382812 "/>
<path style=" stroke:none;fill-rule:nonzero;fill:rgb(36.8417%,50.6779%,70.9798%);fill-opacity:1;" d="M 352.984375 187.75 C 352.984375 190.414062 348.984375 190.414062 348.984375 187.75 C 348.984375 185.082031 352.984375 185.082031 352.984375 187.75 "/>
<path style=" stroke:none;fill-rule:nonzero;fill:rgb(36.8417%,50.6779%,70.9798%);fill-opacity:1;" d="M 117.996094 107.355469 C 117.996094 110.019531 113.996094 110.019531 113.996094 107.355469 C 113.996094 104.6875 117.996094 104.6875 117.996094 107.355469 "/>
<path style=" stroke:none;fill-rule:nonzero;fill:rgb(36.8417%,50.6779%,70.9798%);fill-opacity:1;" d="M 187.621094 89.28125 C 187.621094 91.945312 183.621094 91.945312 183.621094 89.28125 C 183.621094 86.613281 187.621094 86.613281 187.621094 89.28125 "/>
<path style=" stroke:none;fill-rule:nonzero;fill:rgb(36.8417%,50.6779%,70.9798%);fill-opacity:1;" d="M 26.394531 118.40625 C 26.394531 121.074219 22.394531 121.074219 22.394531 118.40625 C 22.394531 115.738281 26.394531 115.738281 26.394531 118.40625 "/>
<path style=" stroke:none;fill-rule:nonzero;fill:rgb(36.8417%,50.6779%,70.9798%);fill-opacity:1;" d="M 136.195312 115.644531 C 136.195312 118.3125 132.195312 118.3125 132.195312 115.644531 C 132.195312 112.980469 136.195312 112.980469 136.195312 115.644531 "/>
<path style=" stroke:none;fill-rule:nonzero;fill:rgb(36.8417%,50.6779%,70.9798%);fill-opacity:1;" d="M 12.808594 133.082031 C 12.808594 135.75 8.808594 135.75 8.808594 133.082031 C 8.808594 130.417969 12.808594 130.417969 12.808594 133.082031 "/>
<path style=" stroke:none;fill-rule:nonzero;fill:rgb(36.8417%,50.6779%,70.9798%);fill-opacity:1;" d="M 307.714844 163.675781 C 307.714844 166.339844 303.714844 166.339844 303.714844 163.675781 C 303.714844 161.007812 307.714844 161.007812 307.714844 163.675781 "/>
<path style=" stroke:none;fill-rule:nonzero;fill:rgb(36.8417%,50.6779%,70.9798%);fill-opacity:1;" d="M 393.039062 295.5625 C 393.039062 298.230469 389.039062 298.230469 389.039062 295.5625 C 389.039062 292.894531 393.039062 292.894531 393.039062 295.5625 "/>
<path style=" stroke:none;fill-rule:nonzero;fill:rgb(36.8417%,50.6779%,70.9798%);fill-opacity:1;" d="M 226.5625 90.355469 C 226.5625 93.019531 222.5625 93.019531 222.5625 90.355469 C 222.5625 87.6875 226.5625 87.6875 226.5625 90.355469 "/>
<path style=" stroke:none;fill-rule:nonzero;fill:rgb(36.8417%,50.6779%,70.9798%);fill-opacity:1;" d="M 370.476562 238.292969 C 370.476562 240.957031 366.476562 240.957031 366.476562 238.292969 C 366.476562 235.625 370.476562 235.625 370.476562 238.292969 "/>
<path style=" stroke:none;fill-rule:nonzero;fill:rgb(36.8417%,50.6779%,70.9798%);fill-opacity:1;" d="M 308.652344 132.265625 C 308.652344 134.933594 304.652344 134.933594 304.652344 132.265625 C 304.652344 129.601562 308.652344 129.601562 308.652344 132.265625 "/>
<path style=" stroke:none;fill-rule:nonzero;fill:rgb(36.8417%,50.6779%,70.9798%);fill-opacity:1;" d="M 222.738281 109.984375 C 222.738281 112.652344 218.738281 112.652344 218.738281 109.984375 C 218.738281 107.320312 222.738281 107.320312 222.738281 109.984375 "/>
<path style=" stroke:none;fill-rule:nonzero;fill:rgb(36.8417%,50.6779%,70.9798%);fill-opacity:1;" d="M 51.464844 193.183594 C 51.464844 195.851562 47.464844 195.851562 47.464844 193.183594 C 47.464844 190.515625 51.464844 190.515625 51.464844 193.183594 "/>
<path style=" stroke:none;fill-rule:nonzero;fill:rgb(36.8417%,50.6779%,70.9798%);fill-opacity:1;" d="M 15.917969 192.292969 C 15.917969 194.960938 11.917969 194.960938 11.917969 192.292969 C 11.917969 189.628906 15.917969 189.628906 15.917969 192.292969 "/>
<path style=" stroke:none;fill-rule:nonzero;fill:rgb(36.8417%,50.6779%,70.9798%);fill-opacity:1;" d="M 302.546875 113.222656 C 302.546875 115.886719 298.546875 115.886719 298.546875 113.222656 C 298.546875 110.554688 302.546875 110.554688 302.546875 113.222656 "/>
<path style=" stroke:none;fill-rule:nonzero;fill:rgb(36.8417%,50.6779%,70.9798%);fill-opacity:1;" d="M 394.1875 275.023438 C 394.1875 277.6875 390.1875 277.6875 390.1875 275.023438 C 390.1875 272.355469 394.1875 272.355469 394.1875 275.023438 "/>
<path style=" stroke:none;fill-rule:nonzero;fill:rgb(36.8417%,50.6779%,70.9798%);fill-opacity:1;" d="M 384.808594 224.34375 C 384.808594 227.011719 380.808594 227.011719 380.808594 224.34375 C 380.808594 221.675781 384.808594 221.675781 384.808594 224.34375 "/>
<path style=" stroke:none;fill-rule:nonzero;fill:rgb(36.8417%,50.6779%,70.9798%);fill-opacity:1;" d="M 38.402344 161.195312 C 38.402344 163.863281 34.402344 163.863281 34.402344 161.195312 C 34.402344 158.53125 38.402344 158.53125 38.402344 161.195312 "/>
<path style=" stroke:none;fill-rule:nonzero;fill:rgb(36.8417%,50.6779%,70.9798%);fill-opacity:1;" d="M 295.8125 147.601562 C 295.8125 150.265625 291.8125 150.265625 291.8125 147.601562 C 291.8125 144.933594 295.8125 144.933594 295.8125 147.601562 "/>
<path style=" stroke:none;fill-rule:nonzero;fill:rgb(36.8417%,50.6779%,70.9798%);fill-opacity:1;" d="M 271.007812 178.097656 C 271.007812 180.765625 267.007812 180.765625 267.007812 178.097656 C 267.007812 175.433594 271.007812 175.433594 271.007812 178.097656 "/>
<path style=" stroke:none;fill-rule:nonzero;fill:rgb(36.8417%,50.6779%,70.9798%);fill-opacity:1;" d="M 21.007812 151.324219 C 21.007812 153.992188 17.007812 153.992188 17.007812 151.324219 C 17.007812 148.660156 21.007812 148.660156 21.007812 151.324219 "/>
<path style=" stroke:none;fill-rule:nonzero;fill:rgb(36.8417%,50.6779%,70.9798%);fill-opacity:1;" d="M 203.933594 116.796875 C 203.933594 119.464844 199.933594 119.464844 199.933594 116.796875 C 199.933594 114.132812 203.933594 114.132812 203.933594 116.796875 "/>
<path style=" stroke:none;fill-rule:nonzero;fill:rgb(36.8417%,50.6779%,70.9798%);fill-opacity:1;" d="M 248.304688 114.613281 C 248.304688 117.28125 244.304688 117.28125 244.304688 114.613281 C 244.304688 111.949219 248.304688 111.949219 248.304688 114.613281 "/>
<path style=" stroke:none;fill-rule:nonzero;fill:rgb(36.8417%,50.6779%,70.9798%);fill-opacity:1;" d="M 261.660156 224.292969 C 261.660156 226.960938 257.660156 226.960938 257.660156 224.292969 C 257.660156 221.628906 261.660156 221.628906 261.660156 224.292969 "/>
<path style=" stroke:none;fill-rule:nonzero;fill:rgb(36.8417%,50.6779%,70.9798%);fill-opacity:1;" d="M 384.019531 313.414062 C 384.019531 316.082031 380.019531 316.082031 380.019531 313.414062 C 380.019531 310.746094 384.019531 310.746094 384.019531 313.414062 "/>
<path style=" stroke:none;fill-rule:nonzero;fill:rgb(36.8417%,50.6779%,70.9798%);fill-opacity:1;" d="M 282.585938 118.703125 C 282.585938 121.371094 278.585938 121.371094 278.585938 118.703125 C 278.585938 116.035156 282.585938 116.035156 282.585938 118.703125 "/>
<path style=" stroke:none;fill-rule:nonzero;fill:rgb(36.8417%,50.6779%,70.9798%);fill-opacity:1;" d="M 206.105469 96.917969 C 206.105469 99.582031 202.105469 99.582031 202.105469 96.917969 C 202.105469 94.25 206.105469 94.25 206.105469 96.917969 "/>
<path style=" stroke:none;fill-rule:nonzero;fill:rgb(36.8417%,50.6779%,70.9798%);fill-opacity:1;" d="M 246.316406 384 C 246.316406 386.664062 242.316406 386.664062 242.316406 384 C 242.316406 381.332031 246.316406 381.332031 246.316406 384 "/>
<path style=" stroke:none;fill-rule:nonzero;fill:rgb(36.8417%,50.6779%,70.9798%);fill-opacity:1;" d="M 266.136719 130.078125 C 266.136719 132.742188 262.136719 132.742188 262.136719 130.078125 C 262.136719 127.410156 266.136719 127.410156 266.136719 130.078125 "/>
<path style=" stroke:none;fill-rule:nonzero;fill:rgb(36.8417%,50.6779%,70.9798%);fill-opacity:1;" d="M 10.144531 173.144531 C 10.144531 175.8125 6.144531 175.8125 6.144531 173.144531 C 6.144531 170.480469 10.144531 170.480469 10.144531 173.144531 "/>
<path style=" stroke:none;fill-rule:nonzero;fill:rgb(36.8417%,50.6779%,70.9798%);fill-opacity:1;" d="M 280.277344 209.0625 C 280.277344 211.730469 276.277344 211.730469 276.277344 209.0625 C 276.277344 206.398438 280.277344 206.398438 280.277344 209.0625 "/>
<path style=" stroke:none;fill-rule:nonzero;fill:rgb(36.8417%,50.6779%,70.9798%);fill-opacity:1;" d="M 320.125 201.691406 C 320.125 204.355469 316.125 204.355469 316.125 201.691406 C 316.125 199.023438 320.125 199.023438 320.125 201.691406 "/>
<path style=" stroke:none;fill-rule:nonzero;fill:rgb(36.8417%,50.6779%,70.9798%);fill-opacity:1;" d="M 145.46875 133.363281 C 145.46875 136.03125 141.46875 136.03125 141.46875 133.363281 C 141.46875 130.699219 145.46875 130.699219 145.46875 133.363281 "/>
<path style=" stroke:none;fill-rule:nonzero;fill:rgb(36.8417%,50.6779%,70.9798%);fill-opacity:1;" d="M 229.640625 395.042969 C 229.640625 397.707031 225.640625 397.707031 225.640625 395.042969 C 225.640625 392.375 229.640625 392.375 229.640625 395.042969 "/>
<path style=" stroke:none;fill-rule:nonzero;fill:rgb(36.8417%,50.6779%,70.9798%);fill-opacity:1;" d="M 311.863281 327.246094 C 311.863281 329.910156 307.863281 329.910156 307.863281 327.246094 C 307.863281 324.578125 311.863281 324.578125 311.863281 327.246094 "/>
<path style=" stroke:none;fill-rule:nonzero;fill:rgb(36.8417%,50.6779%,70.9798%);fill-opacity:1;" d="M 364.679688 308.320312 C 364.679688 310.988281 360.679688 310.988281 360.679688 308.320312 C 360.679688 305.65625 364.679688 305.65625 364.679688 308.320312 "/>
<path style=" stroke:none;fill-rule:nonzero;fill:rgb(36.8417%,50.6779%,70.9798%);fill-opacity:1;" d="M 7.84375 283.660156 C 7.84375 286.328125 3.84375 286.328125 3.84375 283.660156 C 3.84375 280.996094 7.84375 280.996094 7.84375 283.660156 "/>
<path style=" stroke:none;fill-rule:nonzero;fill:rgb(36.8417%,50.6779%,70.9798%);fill-opacity:1;" d="M 337.222656 212.0625 C 337.222656 214.726562 333.222656 214.726562 333.222656 212.0625 C 333.222656 209.394531 337.222656 209.394531 337.222656 212.0625 "/>
<path style=" stroke:none;fill-rule:nonzero;fill:rgb(36.8417%,50.6779%,70.9798%);fill-opacity:1;" d="M 275.75 329.164062 C 275.75 331.832031 271.75 331.832031 271.75 329.164062 C 271.75 326.5 275.75 326.5 275.75 329.164062 "/>
<path style=" stroke:none;fill-rule:nonzero;fill:rgb(36.8417%,50.6779%,70.9798%);fill-opacity:1;" d="M 314.527344 268.664062 C 314.527344 271.332031 310.527344 271.332031 310.527344 268.664062 C 310.527344 265.996094 314.527344 265.996094 314.527344 268.664062 "/>
<path style=" stroke:none;fill-rule:nonzero;fill:rgb(36.8417%,50.6779%,70.9798%);fill-opacity:1;" d="M 331.0625 358.757812 C 331.0625 361.425781 327.0625 361.425781 327.0625 358.757812 C 327.0625 356.089844 331.0625 356.089844 331.0625 358.757812 "/>
<path style=" stroke:none;fill-rule:nonzero;fill:rgb(36.8417%,50.6779%,70.9798%);fill-opacity:1;" d="M 57.292969 167.765625 C 57.292969 170.433594 53.292969 170.433594 53.292969 167.765625 C 53.292969 165.101562 57.292969 165.101562 57.292969 167.765625 "/>
<path style=" stroke:none;fill-rule:nonzero;fill:rgb(36.8417%,50.6779%,70.9798%);fill-opacity:1;" d="M 24.417969 210.398438 C 24.417969 213.066406 20.417969 213.066406 20.417969 210.398438 C 20.417969 207.734375 24.417969 207.734375 24.417969 210.398438 "/>
<path style=" stroke:none;fill-rule:nonzero;fill:rgb(36.8417%,50.6779%,70.9798%);fill-opacity:1;" d="M 317.15625 298.5 C 317.15625 301.164062 313.15625 301.164062 313.15625 298.5 C 313.15625 295.832031 317.15625 295.832031 317.15625 298.5 "/>
<path style=" stroke:none;fill-rule:nonzero;fill:rgb(36.8417%,50.6779%,70.9798%);fill-opacity:1;" d="M 264.355469 196.960938 C 264.355469 199.628906 260.355469 199.628906 260.355469 196.960938 C 260.355469 194.292969 264.355469 194.292969 264.355469 196.960938 "/>
<path style=" stroke:none;fill-rule:nonzero;fill:rgb(36.8417%,50.6779%,70.9798%);fill-opacity:1;" d="M 240.691406 133.109375 C 240.691406 135.777344 236.691406 135.777344 236.691406 133.109375 C 236.691406 130.441406 240.691406 130.441406 240.691406 133.109375 "/>
<path style=" stroke:none;fill-rule:nonzero;fill:rgb(36.8417%,50.6779%,70.9798%);fill-opacity:1;" d="M 101.398438 173.855469 C 101.398438 176.523438 97.398438 176.523438 97.398438 173.855469 C 97.398438 171.1875 101.398438 171.1875 101.398438 173.855469 "/>
<path style=" stroke:none;fill-rule:nonzero;fill:rgb(36.8417%,50.6779%,70.9798%);fill-opacity:1;" d="M 42.621094 243.03125 C 42.621094 245.695312 38.621094 245.695312 38.621094 243.03125 C 38.621094 240.363281 42.621094 240.363281 42.621094 243.03125 "/>
<path style=" stroke:none;fill-rule:nonzero;fill:rgb(36.8417%,50.6779%,70.9798%);fill-opacity:1;" d="M 330.535156 313.363281 C 330.535156 316.027344 326.535156 316.027344 326.535156 313.363281 C 326.535156 310.695312 330.535156 310.695312 330.535156 313.363281 "/>
<path style=" stroke:none;fill-rule:nonzero;fill:rgb(36.8417%,50.6779%,70.9798%);fill-opacity:1;" d="M 48.269531 277.289062 C 48.269531 279.953125 44.269531 279.953125 44.269531 277.289062 C 44.269531 274.621094 48.269531 274.621094 48.269531 277.289062 "/>
<path style=" stroke:none;fill-rule:nonzero;fill:rgb(36.8417%,50.6779%,70.9798%);fill-opacity:1;" d="M 263.769531 393.765625 C 263.769531 396.429688 259.769531 396.429688 259.769531 393.765625 C 259.769531 391.097656 263.769531 391.097656 263.769531 393.765625 "/>
<path style=" stroke:none;fill-rule:nonzero;fill:rgb(36.8417%,50.6779%,70.9798%);fill-opacity:1;" d="M 158.320312 118.039062 C 158.320312 120.707031 154.320312 120.707031 154.320312 118.039062 C 154.320312 115.371094 158.320312 115.371094 158.320312 118.039062 "/>
<path style=" stroke:none;fill-rule:nonzero;fill:rgb(36.8417%,50.6779%,70.9798%);fill-opacity:1;" d="M 353.109375 292.007812 C 353.109375 294.671875 349.109375 294.671875 349.109375 292.007812 C 349.109375 289.339844 353.109375 289.339844 353.109375 292.007812 "/>
<path style=" stroke:none;fill-rule:nonzero;fill:rgb(36.8417%,50.6779%,70.9798%);fill-opacity:1;" d="M 355.332031 272.128906 C 355.332031 274.796875 351.332031 274.796875 351.332031 272.128906 C 351.332031 269.464844 355.332031 269.464844 355.332031 272.128906 "/>
<path style=" stroke:none;fill-rule:nonzero;fill:rgb(36.8417%,50.6779%,70.9798%);fill-opacity:1;" d="M 296.707031 355.390625 C 296.707031 358.058594 292.707031 358.058594 292.707031 355.390625 C 292.707031 352.726562 296.707031 352.726562 296.707031 355.390625 "/>
<path style=" stroke:none;fill-rule:nonzero;fill:rgb(36.8417%,50.6779%,70.9798%);fill-opacity:1;" d="M 284.113281 383.0625 C 284.113281 385.730469 280.113281 385.730469 280.113281 383.0625 C 280.113281 380.394531 284.113281 380.394531 284.113281 383.0625 "/>
<path style=" stroke:none;fill-rule:nonzero;fill:rgb(36.8417%,50.6779%,70.9798%);fill-opacity:1;" d="M 255.230469 146.839844 C 255.230469 149.507812 251.230469 149.507812 251.230469 146.839844 C 251.230469 144.175781 255.230469 144.175781 255.230469 146.839844 "/>
<path style=" stroke:none;fill-rule:nonzero;fill:rgb(36.8417%,50.6779%,70.9798%);fill-opacity:1;" d="M 118.238281 144.195312 C 118.238281 146.863281 114.238281 146.863281 114.238281 144.195312 C 114.238281 141.53125 118.238281 141.53125 118.238281 144.195312 "/>
<path style=" stroke:none;fill-rule:nonzero;fill:rgb(36.8417%,50.6779%,70.9798%);fill-opacity:1;" d="M 300.839844 286.929688 C 300.839844 289.597656 296.839844 289.597656 296.839844 286.929688 C 296.839844 284.261719 300.839844 284.261719 300.839844 286.929688 "/>
<path style=" stroke:none;fill-rule:nonzero;fill:rgb(36.8417%,50.6779%,70.9798%);fill-opacity:1;" d="M 48.269531 318.832031 C 48.269531 321.5 44.269531 321.5 44.269531 318.832031 C 44.269531 316.167969 48.269531 316.167969 48.269531 318.832031 "/>
<path style=" stroke:none;fill-rule:nonzero;fill:rgb(36.8417%,50.6779%,70.9798%);fill-opacity:1;" d="M 341.351562 330.1875 C 341.351562 332.851562 337.351562 332.851562 337.351562 330.1875 C 337.351562 327.519531 341.351562 327.519531 341.351562 330.1875 "/>
<path style=" stroke:none;fill-rule:nonzero;fill:rgb(36.8417%,50.6779%,70.9798%);fill-opacity:1;" d="M 68.109375 279.839844 C 68.109375 282.503906 64.109375 282.503906 64.109375 279.839844 C 64.109375 277.171875 68.109375 277.171875 68.109375 279.839844 "/>
<path style=" stroke:none;fill-rule:nonzero;fill:rgb(36.8417%,50.6779%,70.9798%);fill-opacity:1;" d="M 21.574219 230.195312 C 21.574219 232.863281 17.574219 232.863281 17.574219 230.195312 C 17.574219 227.53125 21.574219 227.53125 21.574219 230.195312 "/>
<path style=" stroke:none;fill-rule:nonzero;fill:rgb(36.8417%,50.6779%,70.9798%);fill-opacity:1;" d="M 314.867188 347.019531 C 314.867188 349.683594 310.867188 349.683594 310.867188 347.019531 C 310.867188 344.351562 314.867188 344.351562 314.867188 347.019531 "/>
<path style=" stroke:none;fill-rule:nonzero;fill:rgb(36.8417%,50.6779%,70.9798%);fill-opacity:1;" d="M 274.230469 158.359375 C 274.230469 161.027344 270.230469 161.027344 270.230469 158.359375 C 270.230469 155.691406 274.230469 155.691406 274.230469 158.359375 "/>
<path style=" stroke:none;fill-rule:nonzero;fill:rgb(36.8417%,50.6779%,70.9798%);fill-opacity:1;" d="M 278.578125 363.84375 C 278.578125 366.511719 274.578125 366.511719 274.578125 363.84375 C 274.578125 361.175781 278.578125 361.175781 278.578125 363.84375 "/>
<path style=" stroke:none;fill-rule:nonzero;fill:rgb(36.8417%,50.6779%,70.9798%);fill-opacity:1;" d="M 100.125 152.671875 C 100.125 155.339844 96.125 155.339844 96.125 152.671875 C 96.125 150.007812 100.125 150.007812 100.125 152.671875 "/>
<path style=" stroke:none;fill-rule:nonzero;fill:rgb(36.8417%,50.6779%,70.9798%);fill-opacity:1;" d="M 198.117188 155.589844 C 198.117188 158.257812 194.117188 158.257812 194.117188 155.589844 C 194.117188 152.925781 198.117188 152.925781 198.117188 155.589844 "/>
<path style=" stroke:none;fill-rule:nonzero;fill:rgb(36.8417%,50.6779%,70.9798%);fill-opacity:1;" d="M 167.136719 215.960938 C 167.136719 218.628906 163.136719 218.628906 163.136719 215.960938 C 163.136719 213.296875 167.136719 213.296875 167.136719 215.960938 "/>
<path style=" stroke:none;fill-rule:nonzero;fill:rgb(36.8417%,50.6779%,70.9798%);fill-opacity:1;" d="M 32.335938 330.921875 C 32.335938 333.589844 28.335938 333.589844 28.335938 330.921875 C 28.335938 328.257812 32.335938 328.257812 32.335938 330.921875 "/>
<path style=" stroke:none;fill-rule:nonzero;fill:rgb(36.8417%,50.6779%,70.9798%);fill-opacity:1;" d="M 321.585938 224.527344 C 321.585938 227.195312 317.585938 227.195312 317.585938 224.527344 C 317.585938 221.863281 321.585938 221.863281 321.585938 224.527344 "/>
<path style=" stroke:none;fill-rule:nonzero;fill:rgb(36.8417%,50.6779%,70.9798%);fill-opacity:1;" d="M 73.199219 152.484375 C 73.199219 155.148438 69.199219 155.148438 69.199219 152.484375 C 69.199219 149.816406 73.199219 149.816406 73.199219 152.484375 "/>
<path style=" stroke:none;fill-rule:nonzero;fill:rgb(36.8417%,50.6779%,70.9798%);fill-opacity:1;" d="M 76.804688 172.15625 C 76.804688 174.824219 72.804688 174.824219 72.804688 172.15625 C 72.804688 169.488281 76.804688 169.488281 76.804688 172.15625 "/>
<path style=" stroke:none;fill-rule:nonzero;fill:rgb(36.8417%,50.6779%,70.9798%);fill-opacity:1;" d="M 9.28125 263.710938 C 9.28125 266.378906 5.28125 266.378906 5.28125 263.710938 C 5.28125 261.046875 9.28125 261.046875 9.28125 263.710938 "/>
<path style=" stroke:none;fill-rule:nonzero;fill:rgb(36.8417%,50.6779%,70.9798%);fill-opacity:1;" d="M 333.640625 287.171875 C 333.640625 289.839844 329.640625 289.839844 329.640625 287.171875 C 329.640625 284.507812 333.640625 284.507812 333.640625 287.171875 "/>
<path style=" stroke:none;fill-rule:nonzero;fill:rgb(36.8417%,50.6779%,70.9798%);fill-opacity:1;" d="M 300.261719 208.269531 C 300.261719 210.9375 296.261719 210.9375 296.261719 208.269531 C 296.261719 205.605469 300.261719 205.605469 300.261719 208.269531 "/>
<path style=" stroke:none;fill-rule:nonzero;fill:rgb(36.8417%,50.6779%,70.9798%);fill-opacity:1;" d="M 248.234375 208.796875 C 248.234375 211.464844 244.234375 211.464844 244.234375 208.796875 C 244.234375 206.132812 248.234375 206.132812 248.234375 208.796875 "/>
<path style=" stroke:none;fill-rule:nonzero;fill:rgb(36.8417%,50.6779%,70.9798%);fill-opacity:1;" d="M 339.304688 260.167969 C 339.304688 262.835938 335.304688 262.835938 335.304688 260.167969 C 335.304688 257.5 339.304688 257.5 339.304688 260.167969 "/>
<path style=" stroke:none;fill-rule:nonzero;fill:rgb(36.8417%,50.6779%,70.9798%);fill-opacity:1;" d="M 280.949219 284.84375 C 280.949219 287.511719 276.949219 287.511719 276.949219 284.84375 C 276.949219 282.179688 280.949219 282.179688 280.949219 284.84375 "/>
<path style=" stroke:none;fill-rule:nonzero;fill:rgb(36.8417%,50.6779%,70.9798%);fill-opacity:1;" d="M 217.753906 159.394531 C 217.753906 162.0625 213.753906 162.0625 213.753906 159.394531 C 213.753906 156.730469 217.753906 156.730469 217.753906 159.394531 "/>
<path style=" stroke:none;fill-rule:nonzero;fill:rgb(36.8417%,50.6779%,70.9798%);fill-opacity:1;" d="M 167.117188 136 C 167.117188 138.667969 163.117188 138.667969 163.117188 136 C 163.117188 133.335938 167.117188 133.335938 167.117188 136 "/>
<path style=" stroke:none;fill-rule:nonzero;fill:rgb(36.8417%,50.6779%,70.9798%);fill-opacity:1;" d="M 246.945312 364.007812 C 246.945312 366.675781 242.945312 366.675781 242.945312 364.007812 C 242.945312 361.34375 246.945312 361.34375 246.945312 364.007812 "/>
<path style=" stroke:none;fill-rule:nonzero;fill:rgb(36.8417%,50.6779%,70.9798%);fill-opacity:1;" d="M 120.910156 169.449219 C 120.910156 172.117188 116.910156 172.117188 116.910156 169.449219 C 116.910156 166.785156 120.910156 166.785156 120.910156 169.449219 "/>
<path style=" stroke:none;fill-rule:nonzero;fill:rgb(36.8417%,50.6779%,70.9798%);fill-opacity:1;" d="M 4.574219 343.953125 C 4.574219 346.617188 0.574219 346.617188 0.574219 343.953125 C 0.574219 341.285156 4.574219 341.285156 4.574219 343.953125 "/>
<path style=" stroke:none;fill-rule:nonzero;fill:rgb(36.8417%,50.6779%,70.9798%);fill-opacity:1;" d="M 178.136719 154.765625 C 178.136719 157.433594 174.136719 157.433594 174.136719 154.765625 C 174.136719 152.101562 178.136719 152.101562 178.136719 154.765625 "/>
<path style=" stroke:none;fill-rule:nonzero;fill:rgb(36.8417%,50.6779%,70.9798%);fill-opacity:1;" d="M 204.898438 136.777344 C 204.898438 139.441406 200.898438 139.441406 200.898438 136.777344 C 200.898438 134.109375 204.898438 134.109375 204.898438 136.777344 "/>
<path style=" stroke:none;fill-rule:nonzero;fill:rgb(36.8417%,50.6779%,70.9798%);fill-opacity:1;" d="M 51.890625 338.503906 C 51.890625 341.167969 47.890625 341.167969 47.890625 338.503906 C 47.890625 335.835938 51.890625 335.835938 51.890625 338.503906 "/>
<path style=" stroke:none;fill-rule:nonzero;fill:rgb(36.8417%,50.6779%,70.9798%);fill-opacity:1;" d="M 18.488281 393.789062 C 18.488281 396.457031 14.488281 396.457031 14.488281 393.789062 C 14.488281 391.125 18.488281 391.125 18.488281 393.789062 "/>
<path style=" stroke:none;fill-rule:nonzero;fill:rgb(36.8417%,50.6779%,70.9798%);fill-opacity:1;" d="M 350.886719 234.25 C 350.886719 236.917969 346.886719 236.917969 346.886719 234.25 C 346.886719 231.585938 350.886719 231.585938 350.886719 234.25 "/>
<path style=" stroke:none;fill-rule:nonzero;fill:rgb(36.8417%,50.6779%,70.9798%);fill-opacity:1;" d="M 23.898438 250.0625 C 23.898438 252.726562 19.898438 252.726562 19.898438 250.0625 C 19.898438 247.394531 23.898438 247.394531 23.898438 250.0625 "/>
<path style=" stroke:none;fill-rule:nonzero;fill:rgb(36.8417%,50.6779%,70.9798%);fill-opacity:1;" d="M 245.203125 164.148438 C 245.203125 166.8125 241.203125 166.8125 241.203125 164.148438 C 241.203125 161.480469 245.203125 161.480469 245.203125 164.148438 "/>
<path style=" stroke:none;fill-rule:nonzero;fill:rgb(36.8417%,50.6779%,70.9798%);fill-opacity:1;" d="M 102.625 210.957031 C 102.625 213.625 98.625 213.625 98.625 210.957031 C 98.625 208.292969 102.625 208.292969 102.625 210.957031 "/>
<path style=" stroke:none;fill-rule:nonzero;fill:rgb(36.8417%,50.6779%,70.9798%);fill-opacity:1;" d="M 229.03125 175.914062 C 229.03125 178.578125 225.03125 178.578125 225.03125 175.914062 C 225.03125 173.246094 229.03125 173.246094 229.03125 175.914062 "/>
<path style=" stroke:none;fill-rule:nonzero;fill:rgb(36.8417%,50.6779%,70.9798%);fill-opacity:1;" d="M 184.269531 125.714844 C 184.269531 128.382812 180.269531 128.382812 180.269531 125.714844 C 180.269531 123.050781 184.269531 123.050781 184.269531 125.714844 "/>
<path style=" stroke:none;fill-rule:nonzero;fill:rgb(36.8417%,50.6779%,70.9798%);fill-opacity:1;" d="M 66.890625 299.800781 C 66.890625 302.46875 62.890625 302.46875 62.890625 299.800781 C 62.890625 297.132812 66.890625 297.132812 66.890625 299.800781 "/>
<path style=" stroke:none;fill-rule:nonzero;fill:rgb(36.8417%,50.6779%,70.9798%);fill-opacity:1;" d="M 313.582031 248.6875 C 313.582031 251.351562 309.582031 251.351562 309.582031 248.6875 C 309.582031 246.019531 313.582031 246.019531 313.582031 248.6875 "/>
<path style=" stroke:none;fill-rule:nonzero;fill:rgb(36.8417%,50.6779%,70.9798%);fill-opacity:1;" d="M 290.582031 173.992188 C 290.582031 176.660156 286.582031 176.660156 286.582031 173.992188 C 286.582031 171.328125 290.582031 171.328125 290.582031 173.992188 "/>
<path style=" stroke:none;fill-rule:nonzero;fill:rgb(36.8417%,50.6779%,70.9798%);fill-opacity:1;" d="M 285.363281 306.828125 C 285.363281 309.496094 281.363281 309.496094 281.363281 306.828125 C 281.363281 304.160156 285.363281 304.160156 285.363281 306.828125 "/>
<path style=" stroke:none;fill-rule:nonzero;fill:rgb(36.8417%,50.6779%,70.9798%);fill-opacity:1;" d="M 71.386719 191.40625 C 71.386719 194.074219 67.386719 194.074219 67.386719 191.40625 C 67.386719 188.742188 71.386719 188.742188 71.386719 191.40625 "/>
<path style=" stroke:none;fill-rule:nonzero;fill:rgb(36.8417%,50.6779%,70.9798%);fill-opacity:1;" d="M 266.246094 348.097656 C 266.246094 350.765625 262.246094 350.765625 262.246094 348.097656 C 262.246094 345.433594 266.246094 345.433594 266.246094 348.097656 "/>
<path style=" stroke:none;fill-rule:nonzero;fill:rgb(36.8417%,50.6779%,70.9798%);fill-opacity:1;" d="M 5.253906 242.824219 C 5.253906 245.488281 1.253906 245.488281 1.253906 242.824219 C 1.253906 240.15625 5.253906 240.15625 5.253906 242.824219 "/>
<path style=" stroke:none;fill-rule:nonzero;fill:rgb(36.8417%,50.6779%,70.9798%);fill-opacity:1;" d="M 134.941406 155.199219 C 134.941406 157.867188 130.941406 157.867188 130.941406 155.199219 C 130.941406 152.53125 134.941406 152.53125 134.941406 155.199219 "/>
<path style=" stroke:none;fill-rule:nonzero;fill:rgb(36.8417%,50.6779%,70.9798%);fill-opacity:1;" d="M 246.058594 313.585938 C 246.058594 316.253906 242.058594 316.253906 242.058594 313.585938 C 242.058594 310.917969 246.058594 310.917969 246.058594 313.585938 "/>
<path style=" stroke:none;fill-rule:nonzero;fill:rgb(36.8417%,50.6779%,70.9798%);fill-opacity:1;" d="M 200.820312 182.617188 C 200.820312 185.285156 196.820312 185.285156 196.820312 182.617188 C 196.820312 179.949219 200.820312 179.949219 200.820312 182.617188 "/>
<path style=" stroke:none;fill-rule:nonzero;fill:rgb(36.8417%,50.6779%,70.9798%);fill-opacity:1;" d="M 144.011719 189.996094 C 144.011719 192.660156 140.011719 192.660156 140.011719 189.996094 C 140.011719 187.328125 144.011719 187.328125 144.011719 189.996094 "/>
<path style=" stroke:none;fill-rule:nonzero;fill:rgb(36.8417%,50.6779%,70.9798%);fill-opacity:1;" d="M 71.558594 381.492188 C 71.558594 384.160156 67.558594 384.160156 67.558594 381.492188 C 67.558594 378.828125 71.558594 378.828125 71.558594 381.492188 "/>
<path style=" stroke:none;fill-rule:nonzero;fill:rgb(36.8417%,50.6779%,70.9798%);fill-opacity:1;" d="M 69.226562 348.472656 C 69.226562 351.136719 65.226562 351.136719 65.226562 348.472656 C 65.226562 345.804688 69.226562 345.804688 69.226562 348.472656 "/>
<path style=" stroke:none;fill-rule:nonzero;fill:rgb(36.8417%,50.6779%,70.9798%);fill-opacity:1;" d="M 20.351562 356.246094 C 20.351562 358.914062 16.351562 358.914062 16.351562 356.246094 C 16.351562 353.578125 20.351562 353.578125 20.351562 356.246094 "/>
<path style=" stroke:none;fill-rule:nonzero;fill:rgb(36.8417%,50.6779%,70.9798%);fill-opacity:1;" d="M 280.160156 264.859375 C 280.160156 267.527344 276.160156 267.527344 276.160156 264.859375 C 276.160156 262.195312 280.160156 262.195312 280.160156 264.859375 "/>
<path style=" stroke:none;fill-rule:nonzero;fill:rgb(36.8417%,50.6779%,70.9798%);fill-opacity:1;" d="M 154.617188 151.613281 C 154.617188 154.28125 150.617188 154.28125 150.617188 151.613281 C 150.617188 148.949219 154.617188 148.949219 154.617188 151.613281 "/>
<path style=" stroke:none;fill-rule:nonzero;fill:rgb(36.8417%,50.6779%,70.9798%);fill-opacity:1;" d="M 255.65625 331.132812 C 255.65625 333.800781 251.65625 333.800781 251.65625 331.132812 C 251.65625 328.464844 255.65625 328.464844 255.65625 331.132812 "/>
<path style=" stroke:none;fill-rule:nonzero;fill:rgb(36.8417%,50.6779%,70.9798%);fill-opacity:1;" d="M 91.132812 194.589844 C 91.132812 197.257812 87.132812 197.257812 87.132812 194.589844 C 87.132812 191.921875 91.132812 191.921875 91.132812 194.589844 "/>
<path style=" stroke:none;fill-rule:nonzero;fill:rgb(36.8417%,50.6779%,70.9798%);fill-opacity:1;" d="M 12.59375 374.679688 C 12.59375 377.347656 8.59375 377.347656 8.59375 374.679688 C 8.59375 372.011719 12.59375 372.011719 12.59375 374.679688 "/>
<path style=" stroke:none;fill-rule:nonzero;fill:rgb(36.8417%,50.6779%,70.9798%);fill-opacity:1;" d="M 170.949219 184.726562 C 170.949219 187.394531 166.949219 187.394531 166.949219 184.726562 C 166.949219 182.0625 170.949219 182.0625 170.949219 184.726562 "/>
<path style=" stroke:none;fill-rule:nonzero;fill:rgb(36.8417%,50.6779%,70.9798%);fill-opacity:1;" d="M 112.667969 193.664062 C 112.667969 196.328125 108.667969 196.328125 108.667969 193.664062 C 108.667969 190.996094 112.667969 190.996094 112.667969 193.664062 "/>
<path style=" stroke:none;fill-rule:nonzero;fill:rgb(36.8417%,50.6779%,70.9798%);fill-opacity:1;" d="M 265.972656 311.71875 C 265.972656 314.386719 261.972656 314.386719 261.972656 311.71875 C 261.972656 309.050781 265.972656 309.050781 265.972656 311.71875 "/>
<path style=" stroke:none;fill-rule:nonzero;fill:rgb(36.8417%,50.6779%,70.9798%);fill-opacity:1;" d="M 204.796875 202.21875 C 204.796875 204.882812 200.796875 204.882812 200.796875 202.21875 C 200.796875 199.550781 204.796875 199.550781 204.796875 202.21875 "/>
<path style=" stroke:none;fill-rule:nonzero;fill:rgb(36.8417%,50.6779%,70.9798%);fill-opacity:1;" d="M 59.195312 365.773438 C 59.195312 368.441406 55.195312 368.441406 55.195312 365.773438 C 55.195312 363.105469 59.195312 363.105469 59.195312 365.773438 "/>
<path style=" stroke:none;fill-rule:nonzero;fill:rgb(36.8417%,50.6779%,70.9798%);fill-opacity:1;" d="M 67.878906 246.046875 C 67.878906 248.710938 63.878906 248.710938 63.878906 246.046875 C 63.878906 243.378906 67.878906 243.378906 67.878906 246.046875 "/>
<path style=" stroke:none;fill-rule:nonzero;fill:rgb(36.8417%,50.6779%,70.9798%);fill-opacity:1;" d="M 242.070312 271.199219 C 242.070312 273.863281 238.070312 273.863281 238.070312 271.199219 C 238.070312 268.53125 242.070312 268.53125 242.070312 271.199219 "/>
<path style=" stroke:none;fill-rule:nonzero;fill:rgb(36.8417%,50.6779%,70.9798%);fill-opacity:1;" d="M 63.980469 221.277344 C 63.980469 223.945312 59.980469 223.945312 59.980469 221.277344 C 59.980469 218.609375 63.980469 218.609375 63.980469 221.277344 "/>
<path style=" stroke:none;fill-rule:nonzero;fill:rgb(36.8417%,50.6779%,70.9798%);fill-opacity:1;" d="M 254.394531 295.40625 C 254.394531 298.074219 250.394531 298.074219 250.394531 295.40625 C 250.394531 292.738281 254.394531 292.738281 254.394531 295.40625 "/>
<path style=" stroke:none;fill-rule:nonzero;fill:rgb(36.8417%,50.6779%,70.9798%);fill-opacity:1;" d="M 103.449219 230.941406 C 103.449219 233.609375 99.449219 233.609375 99.449219 230.941406 C 99.449219 228.273438 103.449219 228.273438 103.449219 230.941406 "/>
<path style=" stroke:none;fill-rule:nonzero;fill:rgb(36.8417%,50.6779%,70.9798%);fill-opacity:1;" d="M 332.230469 241.460938 C 332.230469 244.125 328.230469 244.125 328.230469 241.460938 C 328.230469 238.792969 332.230469 238.792969 332.230469 241.460938 "/>
<path style=" stroke:none;fill-rule:nonzero;fill:rgb(36.8417%,50.6779%,70.9798%);fill-opacity:1;" d="M 281.085938 229.046875 C 281.085938 231.714844 277.085938 231.714844 277.085938 229.046875 C 277.085938 226.378906 281.085938 226.378906 281.085938 229.046875 "/>
<path style=" stroke:none;fill-rule:nonzero;fill:rgb(36.8417%,50.6779%,70.9798%);fill-opacity:1;" d="M 228.808594 374.328125 C 228.808594 376.996094 224.808594 376.996094 224.808594 374.328125 C 224.808594 371.664062 228.808594 371.664062 228.808594 374.328125 "/>
<path style=" stroke:none;fill-rule:nonzero;fill:rgb(36.8417%,50.6779%,70.9798%);fill-opacity:1;" d="M 181.511719 201.710938 C 181.511719 204.378906 177.511719 204.378906 177.511719 201.710938 C 177.511719 199.046875 181.511719 199.046875 181.511719 201.710938 "/>
<path style=" stroke:none;fill-rule:nonzero;fill:rgb(36.8417%,50.6779%,70.9798%);fill-opacity:1;" d="M 59.78125 397.660156 C 59.78125 400.324219 55.78125 400.324219 55.78125 397.660156 C 55.78125 394.992188 59.78125 394.992188 59.78125 397.660156 "/>
<path style=" stroke:none;fill-rule:nonzero;fill:rgb(36.8417%,50.6779%,70.9798%);fill-opacity:1;" d="M 264.539062 249.078125 C 264.539062 251.746094 260.539062 251.746094 260.539062 249.078125 C 260.539062 246.410156 264.539062 246.410156 264.539062 249.078125 "/>
<path style=" stroke:none;fill-rule:nonzero;fill:rgb(36.8417%,50.6779%,70.9798%);fill-opacity:1;" d="M 83.253906 215.933594 C 83.253906 218.601562 79.253906 218.601562 79.253906 215.933594 C 79.253906 213.269531 83.253906 213.269531 83.253906 215.933594 "/>
<path style=" stroke:none;fill-rule:nonzero;fill:rgb(36.8417%,50.6779%,70.9798%);fill-opacity:1;" d="M 192.800781 218.222656 C 192.800781 220.886719 188.800781 220.886719 188.800781 218.222656 C 188.800781 215.554688 192.800781 215.554688 192.800781 218.222656 "/>
<path style=" stroke:none;fill-rule:nonzero;fill:rgb(36.8417%,50.6779%,70.9798%);fill-opacity:1;" d="M 126.632812 395.015625 C 126.632812 397.683594 122.632812 397.683594 122.632812 395.015625 C 122.632812 392.351562 126.632812 392.351562 126.632812 395.015625 "/>
<path style=" stroke:none;fill-rule:nonzero;fill:rgb(36.8417%,50.6779%,70.9798%);fill-opacity:1;" d="M 247.574219 238.492188 C 247.574219 241.15625 243.574219 241.15625 243.574219 238.492188 C 243.574219 235.824219 247.574219 235.824219 247.574219 238.492188 "/>
<path style=" stroke:none;fill-rule:nonzero;fill:rgb(36.8417%,50.6779%,70.9798%);fill-opacity:1;" d="M 169.996094 253.242188 C 169.996094 255.90625 165.996094 255.90625 165.996094 253.242188 C 165.996094 250.574219 169.996094 250.574219 169.996094 253.242188 "/>
<path style=" stroke:none;fill-rule:nonzero;fill:rgb(36.8417%,50.6779%,70.9798%);fill-opacity:1;" d="M 88.105469 279.609375 C 88.105469 282.277344 84.105469 282.277344 84.105469 279.609375 C 84.105469 276.945312 88.105469 276.945312 88.105469 279.609375 "/>
<path style=" stroke:none;fill-rule:nonzero;fill:rgb(36.8417%,50.6779%,70.9798%);fill-opacity:1;" d="M 261.972656 273.179688 C 261.972656 275.847656 257.972656 275.847656 257.972656 273.179688 C 257.972656 270.511719 261.972656 270.511719 261.972656 273.179688 "/>
<path style=" stroke:none;fill-rule:nonzero;fill:rgb(36.8417%,50.6779%,70.9798%);fill-opacity:1;" d="M 39.710938 361.265625 C 39.710938 363.933594 35.710938 363.933594 35.710938 361.265625 C 35.710938 358.597656 39.710938 358.597656 39.710938 361.265625 "/>
<path style=" stroke:none;fill-rule:nonzero;fill:rgb(36.8417%,50.6779%,70.9798%);fill-opacity:1;" d="M 151.148438 171.3125 C 151.148438 173.976562 147.148438 173.976562 147.148438 171.3125 C 147.148438 168.644531 151.148438 168.644531 151.148438 171.3125 "/>
<path style=" stroke:none;fill-rule:nonzero;fill:rgb(36.8417%,50.6779%,70.9798%);fill-opacity:1;" d="M 294.082031 244.25 C 294.082031 246.917969 290.082031 246.917969 290.082031 244.25 C 290.082031 241.582031 294.082031 241.582031 294.082031 244.25 "/>
<path style=" stroke:none;fill-rule:nonzero;fill:rgb(36.8417%,50.6779%,70.9798%);fill-opacity:1;" d="M 139.089844 227.363281 C 139.089844 230.03125 135.089844 230.03125 135.089844 227.363281 C 135.089844 224.699219 139.089844 224.699219 139.089844 227.363281 "/>
<path style=" stroke:none;fill-rule:nonzero;fill:rgb(36.8417%,50.6779%,70.9798%);fill-opacity:1;" d="M 82.574219 259.613281 C 82.574219 262.28125 78.574219 262.28125 78.574219 259.613281 C 78.574219 256.945312 82.574219 256.945312 82.574219 259.613281 "/>
<path style=" stroke:none;fill-rule:nonzero;fill:rgb(36.8417%,50.6779%,70.9798%);fill-opacity:1;" d="M 82.210938 363.683594 C 82.210938 366.351562 78.210938 366.351562 78.210938 363.683594 C 78.210938 361.015625 82.210938 361.015625 82.210938 363.683594 "/>
<path style=" stroke:none;fill-rule:nonzero;fill:rgb(36.8417%,50.6779%,70.9798%);fill-opacity:1;" d="M 99.953125 332.292969 C 99.953125 334.957031 95.953125 334.957031 95.953125 332.292969 C 95.953125 329.625 99.953125 329.625 99.953125 332.292969 "/>
<path style=" stroke:none;fill-rule:nonzero;fill:rgb(36.8417%,50.6779%,70.9798%);fill-opacity:1;" d="M 226.539062 195.757812 C 226.539062 198.421875 222.539062 198.421875 222.539062 195.757812 C 222.539062 193.089844 226.539062 193.089844 226.539062 195.757812 "/>
<path style=" stroke:none;fill-rule:nonzero;fill:rgb(36.8417%,50.6779%,70.9798%);fill-opacity:1;" d="M 107.019531 398.925781 C 107.019531 401.589844 103.019531 401.589844 103.019531 398.925781 C 103.019531 396.257812 107.019531 396.257812 107.019531 398.925781 "/>
<path style=" stroke:none;fill-rule:nonzero;fill:rgb(36.8417%,50.6779%,70.9798%);fill-opacity:1;" d="M 121.074219 218.679688 C 121.074219 221.34375 117.074219 221.34375 117.074219 218.679688 C 117.074219 216.011719 121.074219 216.011719 121.074219 218.679688 "/>
<path style=" stroke:none;fill-rule:nonzero;fill:rgb(36.8417%,50.6779%,70.9798%);fill-opacity:1;" d="M 185.671875 236.90625 C 185.671875 239.574219 181.671875 239.574219 181.671875 236.90625 C 181.671875 234.242188 185.671875 234.242188 185.671875 236.90625 "/>
<path style=" stroke:none;fill-rule:nonzero;fill:rgb(36.8417%,50.6779%,70.9798%);fill-opacity:1;" d="M 230.539062 340.96875 C 230.539062 343.632812 226.539062 343.632812 226.539062 340.96875 C 226.539062 338.300781 230.539062 338.300781 230.539062 340.96875 "/>
<path style=" stroke:none;fill-rule:nonzero;fill:rgb(36.8417%,50.6779%,70.9798%);fill-opacity:1;" d="M 185.90625 395.238281 C 185.90625 397.902344 181.90625 397.902344 181.90625 395.238281 C 181.90625 392.570312 185.90625 392.570312 185.90625 395.238281 "/>
<path style=" stroke:none;fill-rule:nonzero;fill:rgb(36.8417%,50.6779%,70.9798%);fill-opacity:1;" d="M 227.5625 321.191406 C 227.5625 323.859375 223.5625 323.859375 223.5625 321.191406 C 223.5625 318.523438 227.5625 318.523438 227.5625 321.191406 "/>
<path style=" stroke:none;fill-rule:nonzero;fill:rgb(36.8417%,50.6779%,70.9798%);fill-opacity:1;" d="M 101.683594 253.703125 C 101.683594 256.371094 97.683594 256.371094 97.683594 253.703125 C 97.683594 251.039062 101.683594 251.039062 101.683594 253.703125 "/>
<path style=" stroke:none;fill-rule:nonzero;fill:rgb(36.8417%,50.6779%,70.9798%);fill-opacity:1;" d="M 149.824219 392.507812 C 149.824219 395.175781 145.824219 395.175781 145.824219 392.507812 C 145.824219 389.84375 149.824219 389.84375 149.824219 392.507812 "/>
<path style=" stroke:none;fill-rule:nonzero;fill:rgb(36.8417%,50.6779%,70.9798%);fill-opacity:1;" d="M 122.183594 238.648438 C 122.183594 241.316406 118.183594 241.316406 118.183594 238.648438 C 118.183594 235.980469 122.183594 235.980469 122.183594 238.648438 "/>
<path style=" stroke:none;fill-rule:nonzero;fill:rgb(36.8417%,50.6779%,70.9798%);fill-opacity:1;" d="M 225.839844 215.742188 C 225.839844 218.410156 221.839844 218.410156 221.839844 215.742188 C 221.839844 213.078125 225.839844 213.078125 225.839844 215.742188 "/>
<path style=" stroke:none;fill-rule:nonzero;fill:rgb(36.8417%,50.6779%,70.9798%);fill-opacity:1;" d="M 87.914062 393.003906 C 87.914062 395.671875 83.914062 395.671875 83.914062 393.003906 C 83.914062 390.335938 87.914062 390.335938 87.914062 393.003906 "/>
<path style=" stroke:none;fill-rule:nonzero;fill:rgb(36.8417%,50.6779%,70.9798%);fill-opacity:1;" d="M 114.367188 376.773438 C 114.367188 379.4375 110.367188 379.4375 110.367188 376.773438 C 110.367188 374.105469 114.367188 374.105469 114.367188 376.773438 "/>
<path style=" stroke:none;fill-rule:nonzero;fill:rgb(36.8417%,50.6779%,70.9798%);fill-opacity:1;" d="M 232.394531 288.703125 C 232.394531 291.367188 228.394531 291.367188 228.394531 288.703125 C 228.394531 286.035156 232.394531 286.035156 232.394531 288.703125 "/>
<path style=" stroke:none;fill-rule:nonzero;fill:rgb(36.8417%,50.6779%,70.9798%);fill-opacity:1;" d="M 148.191406 209.554688 C 148.191406 212.21875 144.191406 212.21875 144.191406 209.554688 C 144.191406 206.886719 148.191406 206.886719 148.191406 209.554688 "/>
<path style=" stroke:none;fill-rule:nonzero;fill:rgb(36.8417%,50.6779%,70.9798%);fill-opacity:1;" d="M 208.382812 230.757812 C 208.382812 233.425781 204.382812 233.425781 204.382812 230.757812 C 204.382812 228.089844 208.382812 228.089844 208.382812 230.757812 "/>
<path style=" stroke:none;fill-rule:nonzero;fill:rgb(36.8417%,50.6779%,70.9798%);fill-opacity:1;" d="M 227.773438 235.648438 C 227.773438 238.316406 223.773438 238.316406 223.773438 235.648438 C 223.773438 232.984375 227.773438 232.984375 227.773438 235.648438 "/>
<path style=" stroke:none;fill-rule:nonzero;fill:rgb(36.8417%,50.6779%,70.9798%);fill-opacity:1;" d="M 212.824219 292.835938 C 212.824219 295.5 208.824219 295.5 208.824219 292.835938 C 208.824219 290.167969 212.824219 290.167969 212.824219 292.835938 "/>
<path style=" stroke:none;fill-rule:nonzero;fill:rgb(36.8417%,50.6779%,70.9798%);fill-opacity:1;" d="M 208.542969 315.007812 C 208.542969 317.675781 204.542969 317.675781 204.542969 315.007812 C 204.542969 312.339844 208.542969 312.339844 208.542969 315.007812 "/>
<path style=" stroke:none;fill-rule:nonzero;fill:rgb(36.8417%,50.6779%,70.9798%);fill-opacity:1;" d="M 216.566406 358.515625 C 216.566406 361.179688 212.566406 361.179688 212.566406 358.515625 C 212.566406 355.847656 216.566406 355.847656 216.566406 358.515625 "/>
<path style=" stroke:none;fill-rule:nonzero;fill:rgb(36.8417%,50.6779%,70.9798%);fill-opacity:1;" d="M 207.765625 250.75 C 207.765625 253.414062 203.765625 253.414062 203.765625 250.75 C 203.765625 248.082031 207.765625 248.082031 207.765625 250.75 "/>
<path style=" stroke:none;fill-rule:nonzero;fill:rgb(36.8417%,50.6779%,70.9798%);fill-opacity:1;" d="M 216.242188 273.128906 C 216.242188 275.796875 212.242188 275.796875 212.242188 273.128906 C 212.242188 270.460938 216.242188 270.460938 216.242188 273.128906 "/>
<path style=" stroke:none;fill-rule:nonzero;fill:rgb(36.8417%,50.6779%,70.9798%);fill-opacity:1;" d="M 175.761719 378 C 175.761719 380.664062 171.761719 380.664062 171.761719 378 C 171.761719 375.332031 175.761719 375.332031 175.761719 378 "/>
<path style=" stroke:none;fill-rule:nonzero;fill:rgb(36.8417%,50.6779%,70.9798%);fill-opacity:1;" d="M 205.863281 396.53125 C 205.863281 399.199219 201.863281 399.199219 201.863281 396.53125 C 201.863281 393.863281 205.863281 393.863281 205.863281 396.53125 "/>
<path style=" stroke:none;fill-rule:nonzero;fill:rgb(36.8417%,50.6779%,70.9798%);fill-opacity:1;" d="M 143.367188 246.902344 C 143.367188 249.570312 139.367188 249.570312 139.367188 246.902344 C 139.367188 244.234375 143.367188 244.234375 143.367188 246.902344 "/>
<path style=" stroke:none;fill-rule:nonzero;fill:rgb(36.8417%,50.6779%,70.9798%);fill-opacity:1;" d="M 194.949219 283.863281 C 194.949219 286.527344 190.949219 286.527344 190.949219 283.863281 C 190.949219 281.195312 194.949219 281.195312 194.949219 283.863281 "/>
<path style=" stroke:none;fill-rule:nonzero;fill:rgb(36.8417%,50.6779%,70.9798%);fill-opacity:1;" d="M 171.03125 350.910156 C 171.03125 353.578125 167.03125 353.578125 167.03125 350.910156 C 167.03125 348.246094 171.03125 348.246094 171.03125 350.910156 "/>
<path style=" stroke:none;fill-rule:nonzero;fill:rgb(36.8417%,50.6779%,70.9798%);fill-opacity:1;" d="M 102.429688 352.136719 C 102.429688 354.804688 98.429688 354.804688 98.429688 352.136719 C 98.429688 349.472656 102.429688 349.472656 102.429688 352.136719 "/>
<path style=" stroke:none;fill-rule:nonzero;fill:rgb(36.8417%,50.6779%,70.9798%);fill-opacity:1;" d="M 127.480469 361.667969 C 127.480469 364.335938 123.480469 364.335938 123.480469 361.667969 C 123.480469 359.003906 127.480469 359.003906 127.480469 361.667969 "/>
<path style=" stroke:none;fill-rule:nonzero;fill:rgb(36.8417%,50.6779%,70.9798%);fill-opacity:1;" d="M 121.066406 280.496094 C 121.066406 283.164062 117.066406 283.164062 117.066406 280.496094 C 117.066406 277.828125 121.066406 277.828125 121.066406 280.496094 "/>
<path style=" stroke:none;fill-rule:nonzero;fill:rgb(36.8417%,50.6779%,70.9798%);fill-opacity:1;" d="M 146.664062 356.023438 C 146.664062 358.691406 142.664062 358.691406 142.664062 356.023438 C 142.664062 353.355469 146.664062 353.355469 146.664062 356.023438 "/>
<path style=" stroke:none;fill-rule:nonzero;fill:rgb(36.8417%,50.6779%,70.9798%);fill-opacity:1;" d="M 209.125 339.949219 C 209.125 342.617188 205.125 342.617188 205.125 339.949219 C 205.125 337.285156 209.125 337.285156 209.125 339.949219 "/>
<path style=" stroke:none;fill-rule:nonzero;fill:rgb(36.8417%,50.6779%,70.9798%);fill-opacity:1;" d="M 104.28125 291.375 C 104.28125 294.039062 100.28125 294.039062 100.28125 291.375 C 100.28125 288.707031 104.28125 288.707031 104.28125 291.375 "/>
<path style=" stroke:none;fill-rule:nonzero;fill:rgb(36.8417%,50.6779%,70.9798%);fill-opacity:1;" d="M 151.792969 265.039062 C 151.792969 267.707031 147.792969 267.707031 147.792969 265.039062 C 147.792969 262.371094 151.792969 262.371094 151.792969 265.039062 "/>
<path style=" stroke:none;fill-rule:nonzero;fill:rgb(36.8417%,50.6779%,70.9798%);fill-opacity:1;" d="M 194.277344 370.429688 C 194.277344 373.097656 190.277344 373.097656 190.277344 370.429688 C 190.277344 367.761719 194.277344 367.761719 194.277344 370.429688 "/>
<path style=" stroke:none;fill-rule:nonzero;fill:rgb(36.8417%,50.6779%,70.9798%);fill-opacity:1;" d="M 156.257812 373.574219 C 156.257812 376.238281 152.257812 376.238281 152.257812 373.574219 C 152.257812 370.90625 156.257812 370.90625 156.257812 373.574219 "/>
<path style=" stroke:none;fill-rule:nonzero;fill:rgb(36.8417%,50.6779%,70.9798%);fill-opacity:1;" d="M 190.820312 348.011719 C 190.820312 350.675781 186.820312 350.675781 186.820312 348.011719 C 186.820312 345.34375 190.820312 345.34375 190.820312 348.011719 "/>
<path style=" stroke:none;fill-rule:nonzero;fill:rgb(36.8417%,50.6779%,70.9798%);fill-opacity:1;" d="M 79.964844 331.597656 C 79.964844 334.265625 75.964844 334.265625 75.964844 331.597656 C 75.964844 328.933594 79.964844 328.933594 79.964844 331.597656 "/>
<path style=" stroke:none;fill-rule:nonzero;fill:rgb(36.8417%,50.6779%,70.9798%);fill-opacity:1;" d="M 120.492188 260.503906 C 120.492188 263.171875 116.492188 263.171875 116.492188 260.503906 C 116.492188 257.835938 120.492188 257.835938 120.492188 260.503906 "/>
<path style=" stroke:none;fill-rule:nonzero;fill:rgb(36.8417%,50.6779%,70.9798%);fill-opacity:1;" d="M 86.933594 301.324219 C 86.933594 303.992188 82.933594 303.992188 82.933594 301.324219 C 82.933594 298.65625 86.933594 298.65625 86.933594 301.324219 "/>
<path style=" stroke:none;fill-rule:nonzero;fill:rgb(36.8417%,50.6779%,70.9798%);fill-opacity:1;" d="M 168.679688 331.050781 C 168.679688 333.71875 164.679688 333.71875 164.679688 331.050781 C 164.679688 328.382812 168.679688 328.382812 168.679688 331.050781 "/>
<path style=" stroke:none;fill-rule:nonzero;fill:rgb(36.8417%,50.6779%,70.9798%);fill-opacity:1;" d="M 155.8125 315.738281 C 155.8125 318.40625 151.8125 318.40625 151.8125 315.738281 C 151.8125 313.074219 155.8125 313.074219 155.8125 315.738281 "/>
<path style=" stroke:none;fill-rule:nonzero;fill:rgb(36.8417%,50.6779%,70.9798%);fill-opacity:1;" d="M 187.367188 323.09375 C 187.367188 325.757812 183.367188 325.757812 183.367188 323.09375 C 183.367188 320.425781 187.367188 320.425781 187.367188 323.09375 "/>
<path style=" stroke:none;fill-rule:nonzero;fill:rgb(36.8417%,50.6779%,70.9798%);fill-opacity:1;" d="M 192.769531 263.980469 C 192.769531 266.648438 188.769531 266.648438 188.769531 263.980469 C 188.769531 261.316406 192.769531 261.316406 192.769531 263.980469 "/>
<path style=" stroke:none;fill-rule:nonzero;fill:rgb(36.8417%,50.6779%,70.9798%);fill-opacity:1;" d="M 122.890625 300.414062 C 122.890625 303.078125 118.890625 303.078125 118.890625 300.414062 C 118.890625 297.746094 122.890625 297.746094 122.890625 300.414062 "/>
<path style=" stroke:none;fill-rule:nonzero;fill:rgb(36.8417%,50.6779%,70.9798%);fill-opacity:1;" d="M 171.90625 273.148438 C 171.90625 275.816406 167.90625 275.816406 167.90625 273.148438 C 167.90625 270.480469 171.90625 270.480469 171.90625 273.148438 "/>
<path style=" stroke:none;fill-rule:nonzero;fill:rgb(36.8417%,50.6779%,70.9798%);fill-opacity:1;" d="M 141.015625 281.886719 C 141.015625 284.554688 137.015625 284.554688 137.015625 281.886719 C 137.015625 279.222656 141.015625 279.222656 141.015625 281.886719 "/>
<path style=" stroke:none;fill-rule:nonzero;fill:rgb(36.8417%,50.6779%,70.9798%);fill-opacity:1;" d="M 192.074219 303.65625 C 192.074219 306.320312 188.074219 306.320312 188.074219 303.65625 C 188.074219 300.988281 192.074219 300.988281 192.074219 303.65625 "/>
<path style=" stroke:none;fill-rule:nonzero;fill:rgb(36.8417%,50.6779%,70.9798%);fill-opacity:1;" d="M 116.09375 320.480469 C 116.09375 323.144531 112.09375 323.144531 112.09375 320.480469 C 112.09375 317.8125 116.09375 317.8125 116.09375 320.480469 "/>
<path style=" stroke:none;fill-rule:nonzero;fill:rgb(36.8417%,50.6779%,70.9798%);fill-opacity:1;" d="M 138.261719 337.875 C 138.261719 340.539062 134.261719 340.539062 134.261719 337.875 C 134.261719 335.207031 138.261719 335.207031 138.261719 337.875 "/>
<path style=" stroke:none;fill-rule:nonzero;fill:rgb(36.8417%,50.6779%,70.9798%);fill-opacity:1;" d="M 155.441406 295.742188 C 155.441406 298.410156 151.441406 298.410156 151.441406 295.742188 C 151.441406 293.078125 155.441406 293.078125 155.441406 295.742188 "/>
<path style=" stroke:none;fill-rule:nonzero;fill:rgb(36.8417%,50.6779%,70.9798%);fill-opacity:1;" d="M 135.941406 318.007812 C 135.941406 320.675781 131.941406 320.675781 131.941406 318.007812 C 131.941406 315.34375 135.941406 315.34375 135.941406 318.007812 "/>
<path style=" stroke:none;fill-rule:nonzero;fill:rgb(36.8417%,50.6779%,70.9798%);fill-opacity:1;" d="M 175.230469 292.871094 C 175.230469 295.535156 171.230469 295.535156 171.230469 292.871094 C 171.230469 290.203125 175.230469 290.203125 175.230469 292.871094 "/>
</g>
</svg>
