<?xml version="1.0" encoding="UTF-8"?>
<svg xmlns="http://www.w3.org/2000/svg" xmlns:xlink="http://www.w3.org/1999/xlink" width="400pt" height="400pt" viewBox="0 0 400 400" version="1.1">
<g id="surface79841">
<rect x="0" y="0" width="400" height="400" style="fill:rgb(100%,100%,100%);fill-opacity:1;stroke:none;"/>
<path style="fill:none;stroke-width:2;stroke-linecap:butt;stroke-linejoin:miter;stroke:rgb(88.0722%,61.1041%,14.2051%);stroke-opacity:1;stroke-miterlimit:10;" d="M 0 0 L 0 400 "/>
<path style="fill:none;stroke-width:2;stroke-linecap:butt;stroke-linejoin:miter;stroke:rgb(88.0722%,61.1041%,14.2051%);stroke-opacity:1;stroke-miterlimit:10;" d="M 14.140625 0 L 14.140625 400 "/>
<path style="fill:none;stroke-width:2;stroke-linecap:butt;stroke-linejoin:miter;stroke:rgb(88.0722%,61.1041%,14.2051%);stroke-opacity:1;stroke-miterlimit:10;" d="M 28.285156 0 L 28.285156 400 "/>
<path style="fill:none;stroke-width:2;stroke-linecap:butt;stroke-linejoin:miter;stroke:rgb(88.0722%,61.1041%,14.2051%);stroke-opacity:1;stroke-miterlimit:10;" d="M 42.425781 0 L 42.425781 400 "/>
<path style="fill:none;stroke-width:2;stroke-linecap:butt;stroke-linejoin:miter;stroke:rgb(88.0722%,61.1041%,14.2051%);stroke-opacity:1;stroke-miterlimit:10;" d="M 56.570312 0 L 56.570312 400 "/>
<path style="fill:none;stroke-width:2;stroke-linecap:butt;stroke-linejoin:miter;stroke:rgb(88.0722%,61.1041%,14.2051%);stroke-opacity:1;stroke-miterlimit:10;" d="M 70.710938 0 L 70.710938 400 "/>
<path style="fill:none;stroke-width:2;stroke-linecap:butt;stroke-linejoin:miter;stroke:rgb(88.0722%,61.1041%,14.2051%);stroke-opacity:1;stroke-miterlimit:10;" d="M 84.851562 0 L 84.851562 400 "/>
<path style="fill:none;stroke-width:2;stroke-linecap:butt;stroke-linejoin:miter;stroke:rgb(88.0722%,61.1041%,14.2051%);stroke-opacity:1;stroke-miterlimit:10;" d="M 98.996094 0 L 98.996094 400 "/>
<path style="fill:none;stroke-width:2;stroke-linecap:butt;stroke-linejoin:miter;stroke:rgb(88.0722%,61.1041%,14.2051%);stroke-opacity:1;stroke-miterlimit:10;" d="M 113.136719 0 L 113.136719 400 "/>
<path style="fill:none;stroke-width:2;stroke-linecap:butt;stroke-linejoin:miter;stroke:rgb(88.0722%,61.1041%,14.2051%);stroke-opacity:1;stroke-miterlimit:10;" d="M 127.277344 0 L 127.277344 400 "/>
<path style="fill:none;stroke-width:2;stroke-linecap:butt;stroke-linejoin:miter;stroke:rgb(88.0722%,61.1041%,14.2051%);stroke-opacity:1;stroke-miterlimit:10;" d="M 141.421875 0 L 141.421875 400 "/>
<path style="fill:none;stroke-width:2;stroke-linecap:butt;stroke-linejoin:miter;stroke:rgb(88.0722%,61.1041%,14.2051%);stroke-opacity:1;stroke-miterlimit:10;" d="M 155.5625 0 L 155.5625 400 "/>
<path style="fill:none;stroke-width:2;stroke-linecap:butt;stroke-linejoin:miter;stroke:rgb(88.0722%,61.1041%,14.2051%);stroke-opacity:1;stroke-miterlimit:10;" d="M 169.707031 0 L 169.707031 400 "/>
<path style="fill:none;stroke-width:2;stroke-linecap:butt;stroke-linejoin:miter;stroke:rgb(88.0722%,61.1041%,14.2051%);stroke-opacity:1;stroke-miterlimit:10;" d="M 183.847656 0 L 183.847656 400 "/>
<path style="fill:none;stroke-width:2;stroke-linecap:butt;stroke-linejoin:miter;stroke:rgb(88.0722%,61.1041%,14.2051%);stroke-opacity:1;stroke-miterlimit:10;" d="M 197.988281 0 L 197.988281 400 "/>
<path style="fill:none;stroke-width:2;stroke-linecap:butt;stroke-linejoin:miter;stroke:rgb(88.0722%,61.1041%,14.2051%);stroke-opacity:1;stroke-miterlimit:10;" d="M 212.132812 0 L 212.132812 400 "/>
<path style="fill:none;stroke-width:2;stroke-linecap:butt;stroke-linejoin:miter;stroke:rgb(88.0722%,61.1041%,14.2051%);stroke-opacity:1;stroke-miterlimit:10;" d="M 226.273438 0 L 226.273438 400 "/>
<path style="fill:none;stroke-width:2;stroke-linecap:butt;stroke-linejoin:miter;stroke:rgb(88.0722%,61.1041%,14.2051%);stroke-opacity:1;stroke-miterlimit:10;" d="M 240.417969 0 L 240.417969 400 "/>
<path style="fill:none;stroke-width:2;stroke-linecap:butt;stroke-linejoin:miter;stroke:rgb(88.0722%,61.1041%,14.2051%);stroke-opacity:1;stroke-miterlimit:10;" d="M 254.558594 0 L 254.558594 400 "/>
<path style="fill:none;stroke-width:2;stroke-linecap:butt;stroke-linejoin:miter;stroke:rgb(88.0722%,61.1041%,14.2051%);stroke-opacity:1;stroke-miterlimit:10;" d="M 268.699219 0 L 268.699219 400 "/>
<path style="fill:none;stroke-width:2;stroke-linecap:butt;stroke-linejoin:miter;stroke:rgb(88.0722%,61.1041%,14.2051%);stroke-opacity:1;stroke-miterlimit:10;" d="M 282.84375 0 L 282.84375 400 "/>
<path style="fill:none;stroke-width:2;stroke-linecap:butt;stroke-linejoin:miter;stroke:rgb(88.0722%,61.1041%,14.2051%);stroke-opacity:1;stroke-miterlimit:10;" d="M 296.984375 0 L 296.984375 400 "/>
<path style="fill:none;stroke-width:2;stroke-linecap:butt;stroke-linejoin:miter;stroke:rgb(88.0722%,61.1041%,14.2051%);stroke-opacity:1;stroke-miterlimit:10;" d="M 311.128906 0 L 311.128906 400 "/>
<path style="fill:none;stroke-width:2;stroke-linecap:butt;stroke-linejoin:miter;stroke:rgb(88.0722%,61.1041%,14.2051%);stroke-opacity:1;stroke-miterlimit:10;" d="M 325.269531 0 L 325.269531 400 "/>
<path style="fill:none;stroke-width:2;stroke-linecap:butt;stroke-linejoin:miter;stroke:rgb(88.0722%,61.1041%,14.2051%);stroke-opacity:1;stroke-miterlimit:10;" d="M 339.410156 0 L 339.410156 400 "/>
<path style="fill:none;stroke-width:2;stroke-linecap:butt;stroke-linejoin:miter;stroke:rgb(88.0722%,61.1041%,14.2051%);stroke-opacity:1;stroke-miterlimit:10;" d="M 353.554688 0 L 353.554688 400 "/>
<path style="fill:none;stroke-width:2;stroke-linecap:butt;stroke-linejoin:miter;stroke:rgb(88.0722%,61.1041%,14.2051%);stroke-opacity:1;stroke-miterlimit:10;" d="M 367.695312 0 L 367.695312 400 "/>
<path style="fill:none;stroke-width:2;stroke-linecap:butt;stroke-linejoin:miter;stroke:rgb(88.0722%,61.1041%,14.2051%);stroke-opacity:1;stroke-miterlimit:10;" d="M 381.835938 0 L 381.835938 400 "/>
<path style="fill:none;stroke-width:2;stroke-linecap:butt;stroke-linejoin:miter;stroke:rgb(88.0722%,61.1041%,14.2051%);stroke-opacity:1;stroke-miterlimit:10;" d="M 395.980469 0 L 395.980469 400 "/>
<path style="fill:none;stroke-width:2;stroke-linecap:butt;stroke-linejoin:miter;stroke:rgb(88.0722%,61.1041%,14.2051%);stroke-opacity:1;stroke-miterlimit:10;" d="M 0 0 L 400 0 "/>
<path style="fill:none;stroke-width:2;stroke-linecap:butt;stroke-linejoin:miter;stroke:rgb(88.0722%,61.1041%,14.2051%);stroke-opacity:1;stroke-miterlimit:10;" d="M 0 14.140625 L 400 14.140625 "/>
<path style="fill:none;stroke-width:2;stroke-linecap:butt;stroke-linejoin:miter;stroke:rgb(88.0722%,61.1041%,14.2051%);stroke-opacity:1;stroke-miterlimit:10;" d="M 0 28.285156 L 400 28.285156 "/>
<path style="fill:none;stroke-width:2;stroke-linecap:butt;stroke-linejoin:miter;stroke:rgb(88.0722%,61.1041%,14.2051%);stroke-opacity:1;stroke-miterlimit:10;" d="M 0 42.425781 L 400 42.425781 "/>
<path style="fill:none;stroke-width:2;stroke-linecap:butt;stroke-linejoin:miter;stroke:rgb(88.0722%,61.1041%,14.2051%);stroke-opacity:1;stroke-miterlimit:10;" d="M 0 56.570312 L 400 56.570312 "/>
<path style="fill:none;stroke-width:2;stroke-linecap:butt;stroke-linejoin:miter;stroke:rgb(88.0722%,61.1041%,14.2051%);stroke-opacity:1;stroke-miterlimit:10;" d="M 0 70.710938 L 400 70.710938 "/>
<path style="fill:none;stroke-width:2;stroke-linecap:butt;stroke-linejoin:miter;stroke:rgb(88.0722%,61.1041%,14.2051%);stroke-opacity:1;stroke-miterlimit:10;" d="M 0 84.851562 L 400 84.851562 "/>
<path style="fill:none;stroke-width:2;stroke-linecap:butt;stroke-linejoin:miter;stroke:rgb(88.0722%,61.1041%,14.2051%);stroke-opacity:1;stroke-miterlimit:10;" d="M 0 98.996094 L 400 98.996094 "/>
<path style="fill:none;stroke-width:2;stroke-linecap:butt;stroke-linejoin:miter;stroke:rgb(88.0722%,61.1041%,14.2051%);stroke-opacity:1;stroke-miterlimit:10;" d="M 0 113.136719 L 400 113.136719 "/>
<path style="fill:none;stroke-width:2;stroke-linecap:butt;stroke-linejoin:miter;stroke:rgb(88.0722%,61.1041%,14.2051%);stroke-opacity:1;stroke-miterlimit:10;" d="M 0 127.277344 L 400 127.277344 "/>
<path style="fill:none;stroke-width:2;stroke-linecap:butt;stroke-linejoin:miter;stroke:rgb(88.0722%,61.1041%,14.2051%);stroke-opacity:1;stroke-miterlimit:10;" d="M 0 141.421875 L 400 141.421875 "/>
<path style="fill:none;stroke-width:2;stroke-linecap:butt;stroke-linejoin:miter;stroke:rgb(88.0722%,61.1041%,14.2051%);stroke-opacity:1;stroke-miterlimit:10;" d="M 0 155.5625 L 400 155.5625 "/>
<path style="fill:none;stroke-width:2;stroke-linecap:butt;stroke-linejoin:miter;stroke:rgb(88.0722%,61.1041%,14.2051%);stroke-opacity:1;stroke-miterlimit:10;" d="M 0 169.707031 L 400 169.707031 "/>
<path style="fill:none;stroke-width:2;stroke-linecap:butt;stroke-linejoin:miter;stroke:rgb(88.0722%,61.1041%,14.2051%);stroke-opacity:1;stroke-miterlimit:10;" d="M 0 183.847656 L 400 183.847656 "/>
<path style="fill:none;stroke-width:2;stroke-linecap:butt;stroke-linejoin:miter;stroke:rgb(88.0722%,61.1041%,14.2051%);stroke-opacity:1;stroke-miterlimit:10;" d="M 0 197.988281 L 400 197.988281 "/>
<path style="fill:none;stroke-width:2;stroke-linecap:butt;stroke-linejoin:miter;stroke:rgb(88.0722%,61.1041%,14.2051%);stroke-opacity:1;stroke-miterlimit:10;" d="M 0 212.132812 L 400 212.132812 "/>
<path style="fill:none;stroke-width:2;stroke-linecap:butt;stroke-linejoin:miter;stroke:rgb(88.0722%,61.1041%,14.2051%);stroke-opacity:1;stroke-miterlimit:10;" d="M 0 226.273438 L 400 226.273438 "/>
<path style="fill:none;stroke-width:2;stroke-linecap:butt;stroke-linejoin:miter;stroke:rgb(88.0722%,61.1041%,14.2051%);stroke-opacity:1;stroke-miterlimit:10;" d="M 0 240.417969 L 400 240.417969 "/>
<path style="fill:none;stroke-width:2;stroke-linecap:butt;stroke-linejoin:miter;stroke:rgb(88.0722%,61.1041%,14.2051%);stroke-opacity:1;stroke-miterlimit:10;" d="M 0 254.558594 L 400 254.558594 "/>
<path style="fill:none;stroke-width:2;stroke-linecap:butt;stroke-linejoin:miter;stroke:rgb(88.0722%,61.1041%,14.2051%);stroke-opacity:1;stroke-miterlimit:10;" d="M 0 268.699219 L 400 268.699219 "/>
<path style="fill:none;stroke-width:2;stroke-linecap:butt;stroke-linejoin:miter;stroke:rgb(88.0722%,61.1041%,14.2051%);stroke-opacity:1;stroke-miterlimit:10;" d="M 0 282.84375 L 400 282.84375 "/>
<path style="fill:none;stroke-width:2;stroke-linecap:butt;stroke-linejoin:miter;stroke:rgb(88.0722%,61.1041%,14.2051%);stroke-opacity:1;stroke-miterlimit:10;" d="M 0 296.984375 L 400 296.984375 "/>
<path style="fill:none;stroke-width:2;stroke-linecap:butt;stroke-linejoin:miter;stroke:rgb(88.0722%,61.1041%,14.2051%);stroke-opacity:1;stroke-miterlimit:10;" d="M 0 311.128906 L 400 311.128906 "/>
<path style="fill:none;stroke-width:2;stroke-linecap:butt;stroke-linejoin:miter;stroke:rgb(88.0722%,61.1041%,14.2051%);stroke-opacity:1;stroke-miterlimit:10;" d="M 0 325.269531 L 400 325.269531 "/>
<path style="fill:none;stroke-width:2;stroke-linecap:butt;stroke-linejoin:miter;stroke:rgb(88.0722%,61.1041%,14.2051%);stroke-opacity:1;stroke-miterlimit:10;" d="M 0 339.410156 L 400 339.410156 "/>
<path style="fill:none;stroke-width:2;stroke-linecap:butt;stroke-linejoin:miter;stroke:rgb(88.0722%,61.1041%,14.2051%);stroke-opacity:1;stroke-miterlimit:10;" d="M 0 353.554688 L 400 353.554688 "/>
<path style="fill:none;stroke-width:2;stroke-linecap:butt;stroke-linejoin:miter;stroke:rgb(88.0722%,61.1041%,14.2051%);stroke-opacity:1;stroke-miterlimit:10;" d="M 0 367.695312 L 400 367.695312 "/>
<path style="fill:none;stroke-width:2;stroke-linecap:butt;stroke-linejoin:miter;stroke:rgb(88.0722%,61.1041%,14.2051%);stroke-opacity:1;stroke-miterlimit:10;" d="M 0 381.835938 L 400 381.835938 "/>
<path style="fill:none;stroke-width:2;stroke-linecap:butt;stroke-linejoin:miter;stroke:rgb(88.0722%,61.1041%,14.2051%);stroke-opacity:1;stroke-miterlimit:10;" d="M 0 395.980469 L 400 395.980469 "/>
<path style=" stroke:none;fill-rule:nonzero;fill:rgb(36.8417%,50.6779%,70.9798%);fill-opacity:1;" d="M 229.386719 5.242188 C 229.386719 11.910156 219.386719 11.910156 219.386719 5.242188 C 219.386719 -1.425781 229.386719 -1.425781 229.386719 5.242188 "/>
<path style=" stroke:none;fill-rule:nonzero;fill:rgb(36.8417%,50.6779%,70.9798%);fill-opacity:1;" d="M 305.761719 5.269531 C 305.761719 11.933594 295.761719 11.933594 295.761719 5.269531 C 295.761719 -1.398438 305.761719 -1.398438 305.761719 5.269531 "/>
<path style=" stroke:none;fill-rule:nonzero;fill:rgb(36.8417%,50.6779%,70.9798%);fill-opacity:1;" d="M 391.902344 45.304688 C 391.902344 51.972656 381.902344 51.972656 381.902344 45.304688 C 381.902344 38.636719 391.902344 38.636719 391.902344 45.304688 "/>
<path style=" stroke:none;fill-rule:nonzero;fill:rgb(36.8417%,50.6779%,70.9798%);fill-opacity:1;" d="M 335.402344 10.347656 C 335.402344 17.011719 325.402344 17.011719 325.402344 10.347656 C 325.402344 3.679688 335.402344 3.679688 335.402344 10.347656 "/>
<path style=" stroke:none;fill-rule:nonzero;fill:rgb(36.8417%,50.6779%,70.9798%);fill-opacity:1;" d="M 382.761719 371.074219 C 382.761719 377.738281 372.761719 377.738281 372.761719 371.074219 C 372.761719 364.40625 382.761719 364.40625 382.761719 371.074219 "/>
<path style=" stroke:none;fill-rule:nonzero;fill:rgb(36.8417%,50.6779%,70.9798%);fill-opacity:1;" d="M 382.453125 391.070312 C 382.453125 397.738281 372.453125 397.738281 372.453125 391.070312 C 372.453125 384.402344 382.453125 384.402344 382.453125 391.070312 "/>
<path style=" stroke:none;fill-rule:nonzero;fill:rgb(36.8417%,50.6779%,70.9798%);fill-opacity:1;" d="M 58.136719 15.730469 C 58.136719 22.394531 48.136719 22.394531 48.136719 15.730469 C 48.136719 9.0625 58.136719 9.0625 58.136719 15.730469 "/>
<path style=" stroke:none;fill-rule:nonzero;fill:rgb(36.8417%,50.6779%,70.9798%);fill-opacity:1;" d="M 397.761719 26 C 397.761719 32.664062 387.761719 32.664062 387.761719 26 C 387.761719 19.332031 397.761719 19.332031 397.761719 26 "/>
<path style=" stroke:none;fill-rule:nonzero;fill:rgb(36.8417%,50.6779%,70.9798%);fill-opacity:1;" d="M 7.445312 24.234375 C 7.445312 30.902344 -2.554688 30.902344 -2.554688 24.234375 C -2.554688 17.570312 7.445312 17.570312 7.445312 24.234375 "/>
<path style=" stroke:none;fill-rule:nonzero;fill:rgb(36.8417%,50.6779%,70.9798%);fill-opacity:1;" d="M 384.320312 11.191406 C 384.320312 17.855469 374.320312 17.855469 374.320312 11.191406 C 374.320312 4.523438 384.320312 4.523438 384.320312 11.191406 "/>
<path style=" stroke:none;fill-rule:nonzero;fill:rgb(36.8417%,50.6779%,70.9798%);fill-opacity:1;" d="M 403.714844 6.304688 C 403.714844 12.972656 393.714844 12.972656 393.714844 6.304688 C 393.714844 -0.359375 403.714844 -0.359375 403.714844 6.304688 "/>
<path style=" stroke:none;fill-rule:nonzero;fill:rgb(36.8417%,50.6779%,70.9798%);fill-opacity:1;" d="M 223.167969 58.257812 C 223.167969 64.925781 213.167969 64.925781 213.167969 58.257812 C 213.167969 51.589844 223.167969 51.589844 223.167969 58.257812 "/>
<path style=" stroke:none;fill-rule:nonzero;fill:rgb(36.8417%,50.6779%,70.9798%);fill-opacity:1;" d="M 17.960938 7.222656 C 17.960938 13.890625 7.960938 13.890625 7.960938 7.222656 C 7.960938 0.558594 17.960938 0.558594 17.960938 7.222656 "/>
<path style=" stroke:none;fill-rule:nonzero;fill:rgb(36.8417%,50.6779%,70.9798%);fill-opacity:1;" d="M 111.769531 29.535156 C 111.769531 36.203125 101.769531 36.203125 101.769531 29.535156 C 101.769531 22.871094 111.769531 22.871094 111.769531 29.535156 "/>
<path style=" stroke:none;fill-rule:nonzero;fill:rgb(36.8417%,50.6779%,70.9798%);fill-opacity:1;" d="M 313.640625 28.238281 C 313.640625 34.90625 303.640625 34.90625 303.640625 28.238281 C 303.640625 21.570312 313.640625 21.570312 313.640625 28.238281 "/>
<path style=" stroke:none;fill-rule:nonzero;fill:rgb(36.8417%,50.6779%,70.9798%);fill-opacity:1;" d="M 353.261719 1.339844 C 353.261719 8.007812 343.261719 8.007812 343.261719 1.339844 C 343.261719 -5.328125 353.261719 -5.328125 353.261719 1.339844 "/>
<path style=" stroke:none;fill-rule:nonzero;fill:rgb(36.8417%,50.6779%,70.9798%);fill-opacity:1;" d="M 402.042969 387.042969 C 402.042969 393.710938 392.042969 393.710938 392.042969 387.042969 C 392.042969 380.378906 402.042969 380.378906 402.042969 387.042969 "/>
<path style=" stroke:none;fill-rule:nonzero;fill:rgb(36.8417%,50.6779%,70.9798%);fill-opacity:1;" d="M 396.308594 198.300781 C 396.308594 204.964844 386.308594 204.964844 386.308594 198.300781 C 386.308594 191.632812 396.308594 191.632812 396.308594 198.300781 "/>
<path style=" stroke:none;fill-rule:nonzero;fill:rgb(36.8417%,50.6779%,70.9798%);fill-opacity:1;" d="M 391.804688 65.304688 C 391.804688 71.972656 381.804688 71.972656 381.804688 65.304688 C 381.804688 58.636719 391.804688 58.636719 391.804688 65.304688 "/>
<path style=" stroke:none;fill-rule:nonzero;fill:rgb(36.8417%,50.6779%,70.9798%);fill-opacity:1;" d="M 207.300781 38.589844 C 207.300781 45.257812 197.300781 45.257812 197.300781 38.589844 C 197.300781 31.921875 207.300781 31.921875 207.300781 38.589844 "/>
<path style=" stroke:none;fill-rule:nonzero;fill:rgb(36.8417%,50.6779%,70.9798%);fill-opacity:1;" d="M 36.933594 13.554688 C 36.933594 20.222656 26.933594 20.222656 26.933594 13.554688 C 26.933594 6.890625 36.933594 6.890625 36.933594 13.554688 "/>
<path style=" stroke:none;fill-rule:nonzero;fill:rgb(36.8417%,50.6779%,70.9798%);fill-opacity:1;" d="M 84.382812 22.5 C 84.382812 29.167969 74.382812 29.167969 74.382812 22.5 C 74.382812 15.835938 84.382812 15.835938 84.382812 22.5 "/>
<path style=" stroke:none;fill-rule:nonzero;fill:rgb(36.8417%,50.6779%,70.9798%);fill-opacity:1;" d="M 135.429688 10.085938 C 135.429688 16.753906 125.429688 16.753906 125.429688 10.085938 C 125.429688 3.421875 135.429688 3.421875 135.429688 10.085938 "/>
<path style=" stroke:none;fill-rule:nonzero;fill:rgb(36.8417%,50.6779%,70.9798%);fill-opacity:1;" d="M 239.226562 33.335938 C 239.226562 40.003906 229.226562 40.003906 229.226562 33.335938 C 229.226562 26.671875 239.226562 26.671875 239.226562 33.335938 "/>
<path style=" stroke:none;fill-rule:nonzero;fill:rgb(36.8417%,50.6779%,70.9798%);fill-opacity:1;" d="M 19.265625 47.9375 C 19.265625 54.601562 9.265625 54.601562 9.265625 47.9375 C 9.265625 41.269531 19.265625 41.269531 19.265625 47.9375 "/>
<path style=" stroke:none;fill-rule:nonzero;fill:rgb(36.8417%,50.6779%,70.9798%);fill-opacity:1;" d="M 128.703125 40.179688 C 128.703125 46.847656 118.703125 46.847656 118.703125 40.179688 C 118.703125 33.511719 128.703125 33.511719 128.703125 40.179688 "/>
<path style=" stroke:none;fill-rule:nonzero;fill:rgb(36.8417%,50.6779%,70.9798%);fill-opacity:1;" d="M 42.566406 32.746094 C 42.566406 39.414062 32.566406 39.414062 32.566406 32.746094 C 32.566406 26.078125 42.566406 26.078125 42.566406 32.746094 "/>
<path style=" stroke:none;fill-rule:nonzero;fill:rgb(36.8417%,50.6779%,70.9798%);fill-opacity:1;" d="M 335.246094 51.902344 C 335.246094 58.570312 325.246094 58.570312 325.246094 51.902344 C 325.246094 45.238281 335.246094 45.238281 335.246094 51.902344 "/>
<path style=" stroke:none;fill-rule:nonzero;fill:rgb(36.8417%,50.6779%,70.9798%);fill-opacity:1;" d="M 288.898438 16.019531 C 288.898438 22.6875 278.898438 22.6875 278.898438 16.019531 C 278.898438 9.355469 288.898438 9.355469 288.898438 16.019531 "/>
<path style=" stroke:none;fill-rule:nonzero;fill:rgb(36.8417%,50.6779%,70.9798%);fill-opacity:1;" d="M 270.34375 8.558594 C 270.34375 15.226562 260.34375 15.226562 260.34375 8.558594 C 260.34375 1.894531 270.34375 1.894531 270.34375 8.558594 "/>
<path style=" stroke:none;fill-rule:nonzero;fill:rgb(36.8417%,50.6779%,70.9798%);fill-opacity:1;" d="M 351.695312 21.945312 C 351.695312 28.613281 341.695312 28.613281 341.695312 21.945312 C 341.695312 15.28125 351.695312 15.28125 351.695312 21.945312 "/>
<path style=" stroke:none;fill-rule:nonzero;fill:rgb(36.8417%,50.6779%,70.9798%);fill-opacity:1;" d="M 50.230469 51.21875 C 50.230469 57.886719 40.230469 57.886719 40.230469 51.21875 C 40.230469 44.554688 50.230469 44.554688 50.230469 51.21875 "/>
<path style=" stroke:none;fill-rule:nonzero;fill:rgb(36.8417%,50.6779%,70.9798%);fill-opacity:1;" d="M 382.507812 332.898438 C 382.507812 339.566406 372.507812 339.566406 372.507812 332.898438 C 372.507812 326.230469 382.507812 326.230469 382.507812 332.898438 "/>
<path style=" stroke:none;fill-rule:nonzero;fill:rgb(36.8417%,50.6779%,70.9798%);fill-opacity:1;" d="M 376.398438 196.433594 C 376.398438 203.101562 366.398438 203.101562 366.398438 196.433594 C 366.398438 189.769531 376.398438 189.769531 376.398438 196.433594 "/>
<path style=" stroke:none;fill-rule:nonzero;fill:rgb(36.8417%,50.6779%,70.9798%);fill-opacity:1;" d="M 5.53125 62.472656 C 5.53125 69.140625 -4.46875 69.140625 -4.46875 62.472656 C -4.46875 55.804688 5.53125 55.804688 5.53125 62.472656 "/>
<path style=" stroke:none;fill-rule:nonzero;fill:rgb(36.8417%,50.6779%,70.9798%);fill-opacity:1;" d="M 334.359375 31.921875 C 334.359375 38.589844 324.359375 38.589844 324.359375 31.921875 C 324.359375 25.257812 334.359375 25.257812 334.359375 31.921875 "/>
<path style=" stroke:none;fill-rule:nonzero;fill:rgb(36.8417%,50.6779%,70.9798%);fill-opacity:1;" d="M 74.933594 4.875 C 74.933594 11.542969 64.933594 11.542969 64.933594 4.875 C 64.933594 -1.792969 74.933594 -1.792969 74.933594 4.875 "/>
<path style=" stroke:none;fill-rule:nonzero;fill:rgb(36.8417%,50.6779%,70.9798%);fill-opacity:1;" d="M 391.367188 98.210938 C 391.367188 104.878906 381.367188 104.878906 381.367188 98.210938 C 381.367188 91.546875 391.367188 91.546875 391.367188 98.210938 "/>
<path style=" stroke:none;fill-rule:nonzero;fill:rgb(36.8417%,50.6779%,70.9798%);fill-opacity:1;" d="M 115.429688 9.875 C 115.429688 16.539062 105.429688 16.539062 105.429688 9.875 C 105.429688 3.207031 115.429688 3.207031 115.429688 9.875 "/>
<path style=" stroke:none;fill-rule:nonzero;fill:rgb(36.8417%,50.6779%,70.9798%);fill-opacity:1;" d="M 46.726562 108.421875 C 46.726562 115.089844 36.726562 115.089844 36.726562 108.421875 C 36.726562 101.753906 46.726562 101.753906 46.726562 108.421875 "/>
<path style=" stroke:none;fill-rule:nonzero;fill:rgb(36.8417%,50.6779%,70.9798%);fill-opacity:1;" d="M 146.300781 26.875 C 146.300781 33.542969 136.300781 33.542969 136.300781 26.875 C 136.300781 20.207031 146.300781 20.207031 146.300781 26.875 "/>
<path style=" stroke:none;fill-rule:nonzero;fill:rgb(36.8417%,50.6779%,70.9798%);fill-opacity:1;" d="M 272.425781 28.453125 C 272.425781 35.117188 262.425781 35.117188 262.425781 28.453125 C 262.425781 21.785156 272.425781 21.785156 272.425781 28.453125 "/>
<path style=" stroke:none;fill-rule:nonzero;fill:rgb(36.8417%,50.6779%,70.9798%);fill-opacity:1;" d="M 218.207031 21.824219 C 218.207031 28.492188 208.207031 28.492188 208.207031 21.824219 C 208.207031 15.160156 218.207031 15.160156 218.207031 21.824219 "/>
<path style=" stroke:none;fill-rule:nonzero;fill:rgb(36.8417%,50.6779%,70.9798%);fill-opacity:1;" d="M 102.914062 54.066406 C 102.914062 60.734375 92.914062 60.734375 92.914062 54.066406 C 92.914062 47.402344 102.914062 47.402344 102.914062 54.066406 "/>
<path style=" stroke:none;fill-rule:nonzero;fill:rgb(36.8417%,50.6779%,70.9798%);fill-opacity:1;" d="M 371.414062 47.988281 C 371.414062 54.65625 361.414062 54.65625 361.414062 47.988281 C 361.414062 41.324219 371.414062 41.324219 371.414062 47.988281 "/>
<path style=" stroke:none;fill-rule:nonzero;fill:rgb(36.8417%,50.6779%,70.9798%);fill-opacity:1;" d="M 373.667969 28.117188 C 373.667969 34.78125 363.667969 34.78125 363.667969 28.117188 C 363.667969 21.449219 373.667969 21.449219 373.667969 28.117188 "/>
<path style=" stroke:none;fill-rule:nonzero;fill:rgb(36.8417%,50.6779%,70.9798%);fill-opacity:1;" d="M 177.664062 22.570312 C 177.664062 29.234375 167.664062 29.234375 167.664062 22.570312 C 167.664062 15.902344 177.664062 15.902344 177.664062 22.570312 "/>
<path style=" stroke:none;fill-rule:nonzero;fill:rgb(36.8417%,50.6779%,70.9798%);fill-opacity:1;" d="M 322.015625 66.902344 C 322.015625 73.570312 312.015625 73.570312 312.015625 66.902344 C 312.015625 60.234375 322.015625 60.234375 322.015625 66.902344 "/>
<path style=" stroke:none;fill-rule:nonzero;fill:rgb(36.8417%,50.6779%,70.9798%);fill-opacity:1;" d="M 354.222656 58.210938 C 354.222656 64.875 344.222656 64.875 344.222656 58.210938 C 344.222656 51.542969 354.222656 51.542969 354.222656 58.210938 "/>
<path style=" stroke:none;fill-rule:nonzero;fill:rgb(36.8417%,50.6779%,70.9798%);fill-opacity:1;" d="M 253.464844 19.292969 C 253.464844 25.957031 243.464844 25.957031 243.464844 19.292969 C 243.464844 12.625 253.464844 12.625 253.464844 19.292969 "/>
<path style=" stroke:none;fill-rule:nonzero;fill:rgb(36.8417%,50.6779%,70.9798%);fill-opacity:1;" d="M 378.09375 269.0625 C 378.09375 275.730469 368.09375 275.730469 368.09375 269.0625 C 368.09375 262.398438 378.09375 262.398438 378.09375 269.0625 "/>
<path style=" stroke:none;fill-rule:nonzero;fill:rgb(36.8417%,50.6779%,70.9798%);fill-opacity:1;" d="M 169.410156 4.351562 C 169.410156 11.019531 159.410156 11.019531 159.410156 4.351562 C 159.410156 -2.316406 169.410156 -2.316406 169.410156 4.351562 "/>
<path style=" stroke:none;fill-rule:nonzero;fill:rgb(36.8417%,50.6779%,70.9798%);fill-opacity:1;" d="M 403.265625 367.082031 C 403.265625 373.746094 393.265625 373.746094 393.265625 367.082031 C 393.265625 360.414062 403.265625 360.414062 403.265625 367.082031 "/>
<path style=" stroke:none;fill-rule:nonzero;fill:rgb(36.8417%,50.6779%,70.9798%);fill-opacity:1;" d="M 308.429688 47.546875 C 308.429688 54.214844 298.429688 54.214844 298.429688 47.546875 C 298.429688 40.882812 308.429688 40.882812 308.429688 47.546875 "/>
<path style=" stroke:none;fill-rule:nonzero;fill:rgb(36.8417%,50.6779%,70.9798%);fill-opacity:1;" d="M 80.957031 62.046875 C 80.957031 68.710938 70.957031 68.710938 70.957031 62.046875 C 70.957031 55.378906 80.957031 55.378906 80.957031 62.046875 "/>
<path style=" stroke:none;fill-rule:nonzero;fill:rgb(36.8417%,50.6779%,70.9798%);fill-opacity:1;" d="M 152.460938 45.902344 C 152.460938 52.570312 142.460938 52.570312 142.460938 45.902344 C 142.460938 39.234375 152.460938 39.234375 152.460938 45.902344 "/>
<path style=" stroke:none;fill-rule:nonzero;fill:rgb(36.8417%,50.6779%,70.9798%);fill-opacity:1;" d="M 307.082031 381.933594 C 307.082031 388.601562 297.082031 388.601562 297.082031 381.933594 C 297.082031 375.269531 307.082031 375.269531 307.082031 381.933594 "/>
<path style=" stroke:none;fill-rule:nonzero;fill:rgb(36.8417%,50.6779%,70.9798%);fill-opacity:1;" d="M 24.347656 69.242188 C 24.347656 75.910156 14.347656 75.910156 14.347656 69.242188 C 14.347656 62.578125 24.347656 62.578125 24.347656 69.242188 "/>
<path style=" stroke:none;fill-rule:nonzero;fill:rgb(36.8417%,50.6779%,70.9798%);fill-opacity:1;" d="M 95.402344 5.8125 C 95.402344 12.476562 85.402344 12.476562 85.402344 5.8125 C 85.402344 -0.855469 95.402344 -0.855469 95.402344 5.8125 "/>
<path style=" stroke:none;fill-rule:nonzero;fill:rgb(36.8417%,50.6779%,70.9798%);fill-opacity:1;" d="M 80.207031 42.058594 C 80.207031 48.726562 70.207031 48.726562 70.207031 42.058594 C 70.207031 35.394531 80.207031 35.394531 80.207031 42.058594 "/>
<path style=" stroke:none;fill-rule:nonzero;fill:rgb(36.8417%,50.6779%,70.9798%);fill-opacity:1;" d="M 205.84375 6.105469 C 205.84375 12.769531 195.84375 12.769531 195.84375 6.105469 C 195.84375 -0.5625 205.84375 -0.5625 205.84375 6.105469 "/>
<path style=" stroke:none;fill-rule:nonzero;fill:rgb(36.8417%,50.6779%,70.9798%);fill-opacity:1;" d="M 380.21875 81.605469 C 380.21875 88.273438 370.21875 88.273438 370.21875 81.605469 C 370.21875 74.941406 380.21875 74.941406 380.21875 81.605469 "/>
<path style=" stroke:none;fill-rule:nonzero;fill:rgb(36.8417%,50.6779%,70.9798%);fill-opacity:1;" d="M 188.808594 69.363281 C 188.808594 76.03125 178.808594 76.03125 178.808594 69.363281 C 178.808594 62.695312 188.808594 62.695312 188.808594 69.363281 "/>
<path style=" stroke:none;fill-rule:nonzero;fill:rgb(36.8417%,50.6779%,70.9798%);fill-opacity:1;" d="M 361.316406 381.773438 C 361.316406 388.441406 351.316406 388.441406 351.316406 381.773438 C 351.316406 375.109375 361.316406 375.109375 361.316406 381.773438 "/>
<path style=" stroke:none;fill-rule:nonzero;fill:rgb(36.8417%,50.6779%,70.9798%);fill-opacity:1;" d="M 308.300781 83.378906 C 308.300781 90.042969 298.300781 90.042969 298.300781 83.378906 C 298.300781 76.710938 308.300781 76.710938 308.300781 83.378906 "/>
<path style=" stroke:none;fill-rule:nonzero;fill:rgb(36.8417%,50.6779%,70.9798%);fill-opacity:1;" d="M 243.382812 52.898438 C 243.382812 59.566406 233.382812 59.566406 233.382812 52.898438 C 233.382812 46.234375 243.382812 46.234375 243.382812 52.898438 "/>
<path style=" stroke:none;fill-rule:nonzero;fill:rgb(36.8417%,50.6779%,70.9798%);fill-opacity:1;" d="M 404.695312 127.027344 C 404.695312 133.691406 394.695312 133.691406 394.695312 127.027344 C 394.695312 120.359375 404.695312 120.359375 404.695312 127.027344 "/>
<path style=" stroke:none;fill-rule:nonzero;fill:rgb(36.8417%,50.6779%,70.9798%);fill-opacity:1;" d="M 67 76.371094 C 67 83.035156 57 83.035156 57 76.371094 C 57 69.703125 67 69.703125 67 76.371094 "/>
<path style=" stroke:none;fill-rule:nonzero;fill:rgb(36.8417%,50.6779%,70.9798%);fill-opacity:1;" d="M 20.703125 88.910156 C 20.703125 95.574219 10.703125 95.574219 10.703125 88.910156 C 10.703125 82.242188 20.703125 82.242188 20.703125 88.910156 "/>
<path style=" stroke:none;fill-rule:nonzero;fill:rgb(36.8417%,50.6779%,70.9798%);fill-opacity:1;" d="M 120.476562 63.640625 C 120.476562 70.308594 110.476562 70.308594 110.476562 63.640625 C 110.476562 56.976562 120.476562 56.976562 120.476562 63.640625 "/>
<path style=" stroke:none;fill-rule:nonzero;fill:rgb(36.8417%,50.6779%,70.9798%);fill-opacity:1;" d="M 99.601562 73.792969 C 99.601562 80.457031 89.601562 80.457031 89.601562 73.792969 C 89.601562 67.125 99.601562 67.125 99.601562 73.792969 "/>
<path style=" stroke:none;fill-rule:nonzero;fill:rgb(36.8417%,50.6779%,70.9798%);fill-opacity:1;" d="M 145.371094 64.601562 C 145.371094 71.269531 135.371094 71.269531 135.371094 64.601562 C 135.371094 57.9375 145.371094 57.9375 145.371094 64.601562 "/>
<path style=" stroke:none;fill-rule:nonzero;fill:rgb(36.8417%,50.6779%,70.9798%);fill-opacity:1;" d="M 44.320312 70.328125 C 44.320312 76.992188 34.320312 76.992188 34.320312 70.328125 C 34.320312 63.660156 44.320312 63.660156 44.320312 70.328125 "/>
<path style=" stroke:none;fill-rule:nonzero;fill:rgb(36.8417%,50.6779%,70.9798%);fill-opacity:1;" d="M 402.660156 146.921875 C 402.660156 153.589844 392.660156 153.589844 392.660156 146.921875 C 392.660156 140.257812 402.660156 140.257812 402.660156 146.921875 "/>
<path style=" stroke:none;fill-rule:nonzero;fill:rgb(36.8417%,50.6779%,70.9798%);fill-opacity:1;" d="M 403.371094 174.648438 C 403.371094 181.316406 393.371094 181.316406 393.371094 174.648438 C 393.371094 167.980469 403.371094 167.980469 403.371094 174.648438 "/>
<path style=" stroke:none;fill-rule:nonzero;fill:rgb(36.8417%,50.6779%,70.9798%);fill-opacity:1;" d="M 261.535156 75.953125 C 261.535156 82.617188 251.535156 82.617188 251.535156 75.953125 C 251.535156 69.285156 261.535156 69.285156 261.535156 75.953125 "/>
<path style=" stroke:none;fill-rule:nonzero;fill:rgb(36.8417%,50.6779%,70.9798%);fill-opacity:1;" d="M 132.152344 88.867188 C 132.152344 95.53125 122.152344 95.53125 122.152344 88.867188 C 122.152344 82.199219 132.152344 82.199219 132.152344 88.867188 "/>
<path style=" stroke:none;fill-rule:nonzero;fill:rgb(36.8417%,50.6779%,70.9798%);fill-opacity:1;" d="M 326.789062 385.332031 C 326.789062 392 316.789062 392 316.789062 385.332031 C 316.789062 378.667969 326.789062 378.667969 326.789062 385.332031 "/>
<path style=" stroke:none;fill-rule:nonzero;fill:rgb(36.8417%,50.6779%,70.9798%);fill-opacity:1;" d="M 283.070312 45.925781 C 283.070312 52.589844 273.070312 52.589844 273.070312 45.925781 C 273.070312 39.257812 283.070312 39.257812 283.070312 45.925781 "/>
<path style=" stroke:none;fill-rule:nonzero;fill:rgb(36.8417%,50.6779%,70.9798%);fill-opacity:1;" d="M 237.640625 72.058594 C 237.640625 78.726562 227.640625 78.726562 227.640625 72.058594 C 227.640625 65.390625 237.640625 65.390625 237.640625 72.058594 "/>
<path style=" stroke:none;fill-rule:nonzero;fill:rgb(36.8417%,50.6779%,70.9798%);fill-opacity:1;" d="M 348.484375 77.367188 C 348.484375 84.035156 338.484375 84.035156 338.484375 77.367188 C 338.484375 70.699219 348.484375 70.699219 348.484375 77.367188 "/>
<path style=" stroke:none;fill-rule:nonzero;fill:rgb(36.8417%,50.6779%,70.9798%);fill-opacity:1;" d="M 256.066406 95.191406 C 256.066406 101.855469 246.066406 101.855469 246.066406 95.191406 C 246.066406 88.523438 256.066406 88.523438 256.066406 95.191406 "/>
<path style=" stroke:none;fill-rule:nonzero;fill:rgb(36.8417%,50.6779%,70.9798%);fill-opacity:1;" d="M 108.625 91.640625 C 108.625 98.304688 98.625 98.304688 98.625 91.640625 C 98.625 84.972656 108.625 84.972656 108.625 91.640625 "/>
<path style=" stroke:none;fill-rule:nonzero;fill:rgb(36.8417%,50.6779%,70.9798%);fill-opacity:1;" d="M 341.164062 115.742188 C 341.164062 122.40625 331.164062 122.40625 331.164062 115.742188 C 331.164062 109.074219 341.164062 109.074219 341.164062 115.742188 "/>
<path style=" stroke:none;fill-rule:nonzero;fill:rgb(36.8417%,50.6779%,70.9798%);fill-opacity:1;" d="M 375.054688 109.785156 C 375.054688 116.453125 365.054688 116.453125 365.054688 109.785156 C 365.054688 103.117188 375.054688 103.117188 375.054688 109.785156 "/>
<path style=" stroke:none;fill-rule:nonzero;fill:rgb(36.8417%,50.6779%,70.9798%);fill-opacity:1;" d="M 372.683594 352.304688 C 372.683594 358.972656 362.683594 358.972656 362.683594 352.304688 C 362.683594 345.636719 372.683594 345.636719 372.683594 352.304688 "/>
<path style=" stroke:none;fill-rule:nonzero;fill:rgb(36.8417%,50.6779%,70.9798%);fill-opacity:1;" d="M 172.027344 41.757812 C 172.027344 48.425781 162.027344 48.425781 162.027344 41.757812 C 162.027344 35.089844 172.027344 35.089844 172.027344 41.757812 "/>
<path style=" stroke:none;fill-rule:nonzero;fill:rgb(36.8417%,50.6779%,70.9798%);fill-opacity:1;" d="M 392.570312 350.183594 C 392.570312 356.847656 382.570312 356.847656 382.570312 350.183594 C 382.570312 343.515625 392.570312 343.515625 392.570312 350.183594 "/>
<path style=" stroke:none;fill-rule:nonzero;fill:rgb(36.8417%,50.6779%,70.9798%);fill-opacity:1;" d="M 371.410156 150.949219 C 371.410156 157.617188 361.410156 157.617188 361.410156 150.949219 C 361.410156 144.28125 371.410156 144.28125 371.410156 150.949219 "/>
<path style=" stroke:none;fill-rule:nonzero;fill:rgb(36.8417%,50.6779%,70.9798%);fill-opacity:1;" d="M 88.835938 94.558594 C 88.835938 101.222656 78.835938 101.222656 78.835938 94.558594 C 78.835938 87.890625 88.835938 87.890625 88.835938 94.558594 "/>
<path style=" stroke:none;fill-rule:nonzero;fill:rgb(36.8417%,50.6779%,70.9798%);fill-opacity:1;" d="M 37.117188 304.699219 C 37.117188 311.363281 27.117188 311.363281 27.117188 304.699219 C 27.117188 298.03125 37.117188 298.03125 37.117188 304.699219 "/>
<path style=" stroke:none;fill-rule:nonzero;fill:rgb(36.8417%,50.6779%,70.9798%);fill-opacity:1;" d="M 338.132812 164.6875 C 338.132812 171.355469 328.132812 171.355469 328.132812 164.6875 C 328.132812 158.023438 338.132812 158.023438 338.132812 164.6875 "/>
<path style=" stroke:none;fill-rule:nonzero;fill:rgb(36.8417%,50.6779%,70.9798%);fill-opacity:1;" d="M 284.523438 79.328125 C 284.523438 85.996094 274.523438 85.996094 274.523438 79.328125 C 274.523438 72.664062 284.523438 72.664062 284.523438 79.328125 "/>
<path style=" stroke:none;fill-rule:nonzero;fill:rgb(36.8417%,50.6779%,70.9798%);fill-opacity:1;" d="M 330.78125 86.675781 C 330.78125 93.339844 320.78125 93.339844 320.78125 86.675781 C 320.78125 80.007812 330.78125 80.007812 330.78125 86.675781 "/>
<path style=" stroke:none;fill-rule:nonzero;fill:rgb(36.8417%,50.6779%,70.9798%);fill-opacity:1;" d="M 352.429688 350.84375 C 352.429688 357.511719 342.429688 357.511719 342.429688 350.84375 C 342.429688 344.179688 352.429688 344.179688 352.429688 350.84375 "/>
<path style=" stroke:none;fill-rule:nonzero;fill:rgb(36.8417%,50.6779%,70.9798%);fill-opacity:1;" d="M 107.121094 121.757812 C 107.121094 128.425781 97.121094 128.425781 97.121094 121.757812 C 97.121094 115.089844 107.121094 115.089844 107.121094 121.757812 "/>
<path style=" stroke:none;fill-rule:nonzero;fill:rgb(36.8417%,50.6779%,70.9798%);fill-opacity:1;" d="M 323.992188 105.488281 C 323.992188 112.152344 313.992188 112.152344 313.992188 105.488281 C 313.992188 98.820312 323.992188 98.820312 323.992188 105.488281 "/>
<path style=" stroke:none;fill-rule:nonzero;fill:rgb(36.8417%,50.6779%,70.9798%);fill-opacity:1;" d="M 294.765625 62.152344 C 294.765625 68.816406 284.765625 68.816406 284.765625 62.152344 C 284.765625 55.484375 294.765625 55.484375 294.765625 62.152344 "/>
<path style=" stroke:none;fill-rule:nonzero;fill:rgb(36.8417%,50.6779%,70.9798%);fill-opacity:1;" d="M 331.726562 183.636719 C 331.726562 190.300781 321.726562 190.300781 321.726562 183.636719 C 321.726562 176.96875 331.726562 176.96875 331.726562 183.636719 "/>
<path style=" stroke:none;fill-rule:nonzero;fill:rgb(36.8417%,50.6779%,70.9798%);fill-opacity:1;" d="M 335.8125 137.28125 C 335.8125 143.949219 325.8125 143.949219 325.8125 137.28125 C 325.8125 130.617188 335.8125 130.617188 335.8125 137.28125 "/>
<path style=" stroke:none;fill-rule:nonzero;fill:rgb(36.8417%,50.6779%,70.9798%);fill-opacity:1;" d="M 47.0625 223.082031 C 47.0625 229.75 37.0625 229.75 37.0625 223.082031 C 37.0625 216.414062 47.0625 216.414062 47.0625 223.082031 "/>
<path style=" stroke:none;fill-rule:nonzero;fill:rgb(36.8417%,50.6779%,70.9798%);fill-opacity:1;" d="M 351.445312 149.761719 C 351.445312 156.429688 341.445312 156.429688 341.445312 149.761719 C 341.445312 143.09375 351.445312 143.09375 351.445312 149.761719 "/>
<path style=" stroke:none;fill-rule:nonzero;fill:rgb(36.8417%,50.6779%,70.9798%);fill-opacity:1;" d="M 388.609375 161.152344 C 388.609375 167.820312 378.609375 167.820312 378.609375 161.152344 C 378.609375 154.488281 388.609375 154.488281 388.609375 161.152344 "/>
<path style=" stroke:none;fill-rule:nonzero;fill:rgb(36.8417%,50.6779%,70.9798%);fill-opacity:1;" d="M 51.488281 88.996094 C 51.488281 95.664062 41.488281 95.664062 41.488281 88.996094 C 41.488281 82.332031 51.488281 82.332031 51.488281 88.996094 "/>
<path style=" stroke:none;fill-rule:nonzero;fill:rgb(36.8417%,50.6779%,70.9798%);fill-opacity:1;" d="M 356.34375 102.71875 C 356.34375 109.386719 346.34375 109.386719 346.34375 102.71875 C 346.34375 96.054688 356.34375 96.054688 356.34375 102.71875 "/>
<path style=" stroke:none;fill-rule:nonzero;fill:rgb(36.8417%,50.6779%,70.9798%);fill-opacity:1;" d="M 360.503906 167.714844 C 360.503906 174.382812 350.503906 174.382812 350.503906 167.714844 C 350.503906 161.050781 360.503906 161.050781 360.503906 167.714844 "/>
<path style=" stroke:none;fill-rule:nonzero;fill:rgb(36.8417%,50.6779%,70.9798%);fill-opacity:1;" d="M 190.496094 49.433594 C 190.496094 56.101562 180.496094 56.101562 180.496094 49.433594 C 180.496094 42.765625 190.496094 42.765625 190.496094 49.433594 "/>
<path style=" stroke:none;fill-rule:nonzero;fill:rgb(36.8417%,50.6779%,70.9798%);fill-opacity:1;" d="M 149.632812 98.585938 C 149.632812 105.25 139.632812 105.25 139.632812 98.585938 C 139.632812 91.917969 149.632812 91.917969 149.632812 98.585938 "/>
<path style=" stroke:none;fill-rule:nonzero;fill:rgb(36.8417%,50.6779%,70.9798%);fill-opacity:1;" d="M 345.074219 393.441406 C 345.074219 400.109375 335.074219 400.109375 335.074219 393.441406 C 335.074219 386.773438 345.074219 386.773438 345.074219 393.441406 "/>
<path style=" stroke:none;fill-rule:nonzero;fill:rgb(36.8417%,50.6779%,70.9798%);fill-opacity:1;" d="M 364.445312 132.203125 C 364.445312 138.867188 354.445312 138.867188 354.445312 132.203125 C 354.445312 125.535156 364.445312 125.535156 364.445312 132.203125 "/>
<path style=" stroke:none;fill-rule:nonzero;fill:rgb(36.8417%,50.6779%,70.9798%);fill-opacity:1;" d="M 90.140625 137.460938 C 90.140625 144.128906 80.140625 144.128906 80.140625 137.460938 C 80.140625 130.792969 90.140625 130.792969 90.140625 137.460938 "/>
<path style=" stroke:none;fill-rule:nonzero;fill:rgb(36.8417%,50.6779%,70.9798%);fill-opacity:1;" d="M 391.105469 247.738281 C 391.105469 254.40625 381.105469 254.40625 381.105469 247.738281 C 381.105469 241.070312 391.105469 241.070312 391.105469 247.738281 "/>
<path style=" stroke:none;fill-rule:nonzero;fill:rgb(36.8417%,50.6779%,70.9798%);fill-opacity:1;" d="M 293.734375 97.082031 C 293.734375 103.75 283.734375 103.75 283.734375 97.082031 C 283.734375 90.414062 293.734375 90.414062 293.734375 97.082031 "/>
<path style=" stroke:none;fill-rule:nonzero;fill:rgb(36.8417%,50.6779%,70.9798%);fill-opacity:1;" d="M 169.988281 76.140625 C 169.988281 82.804688 159.988281 82.804688 159.988281 76.140625 C 159.988281 69.472656 169.988281 69.472656 169.988281 76.140625 "/>
<path style=" stroke:none;fill-rule:nonzero;fill:rgb(36.8417%,50.6779%,70.9798%);fill-opacity:1;" d="M 359.675781 207.40625 C 359.675781 214.070312 349.675781 214.070312 349.675781 207.40625 C 349.675781 200.738281 359.675781 200.738281 359.675781 207.40625 "/>
<path style=" stroke:none;fill-rule:nonzero;fill:rgb(36.8417%,50.6779%,70.9798%);fill-opacity:1;" d="M 79.035156 120.824219 C 79.035156 127.492188 69.035156 127.492188 69.035156 120.824219 C 69.035156 114.160156 79.035156 114.160156 79.035156 120.824219 "/>
<path style=" stroke:none;fill-rule:nonzero;fill:rgb(36.8417%,50.6779%,70.9798%);fill-opacity:1;" d="M 177.574219 106.382812 C 177.574219 113.050781 167.574219 113.050781 167.574219 106.382812 C 167.574219 99.714844 177.574219 99.714844 177.574219 106.382812 "/>
<path style=" stroke:none;fill-rule:nonzero;fill:rgb(36.8417%,50.6779%,70.9798%);fill-opacity:1;" d="M 355.984375 187.75 C 355.984375 194.414062 345.984375 194.414062 345.984375 187.75 C 345.984375 181.082031 355.984375 181.082031 355.984375 187.75 "/>
<path style=" stroke:none;fill-rule:nonzero;fill:rgb(36.8417%,50.6779%,70.9798%);fill-opacity:1;" d="M 120.996094 107.355469 C 120.996094 114.019531 110.996094 114.019531 110.996094 107.355469 C 110.996094 100.6875 120.996094 100.6875 120.996094 107.355469 "/>
<path style=" stroke:none;fill-rule:nonzero;fill:rgb(36.8417%,50.6779%,70.9798%);fill-opacity:1;" d="M 190.621094 89.28125 C 190.621094 95.945312 180.621094 95.945312 180.621094 89.28125 C 180.621094 82.613281 190.621094 82.613281 190.621094 89.28125 "/>
<path style=" stroke:none;fill-rule:nonzero;fill:rgb(36.8417%,50.6779%,70.9798%);fill-opacity:1;" d="M 29.394531 118.40625 C 29.394531 125.074219 19.394531 125.074219 19.394531 118.40625 C 19.394531 111.738281 29.394531 111.738281 29.394531 118.40625 "/>
<path style=" stroke:none;fill-rule:nonzero;fill:rgb(36.8417%,50.6779%,70.9798%);fill-opacity:1;" d="M 139.195312 115.644531 C 139.195312 122.3125 129.195312 122.3125 129.195312 115.644531 C 129.195312 108.980469 139.195312 108.980469 139.195312 115.644531 "/>
<path style=" stroke:none;fill-rule:nonzero;fill:rgb(36.8417%,50.6779%,70.9798%);fill-opacity:1;" d="M 15.808594 133.082031 C 15.808594 139.75 5.808594 139.75 5.808594 133.082031 C 5.808594 126.417969 15.808594 126.417969 15.808594 133.082031 "/>
<path style=" stroke:none;fill-rule:nonzero;fill:rgb(36.8417%,50.6779%,70.9798%);fill-opacity:1;" d="M 310.714844 163.675781 C 310.714844 170.339844 300.714844 170.339844 300.714844 163.675781 C 300.714844 157.007812 310.714844 157.007812 310.714844 163.675781 "/>
<path style=" stroke:none;fill-rule:nonzero;fill:rgb(36.8417%,50.6779%,70.9798%);fill-opacity:1;" d="M 396.039062 295.5625 C 396.039062 302.230469 386.039062 302.230469 386.039062 295.5625 C 386.039062 288.894531 396.039062 288.894531 396.039062 295.5625 "/>
<path style=" stroke:none;fill-rule:nonzero;fill:rgb(36.8417%,50.6779%,70.9798%);fill-opacity:1;" d="M 229.5625 90.355469 C 229.5625 97.019531 219.5625 97.019531 219.5625 90.355469 C 219.5625 83.6875 229.5625 83.6875 229.5625 90.355469 "/>
<path style=" stroke:none;fill-rule:nonzero;fill:rgb(36.8417%,50.6779%,70.9798%);fill-opacity:1;" d="M 373.476562 238.292969 C 373.476562 244.957031 363.476562 244.957031 363.476562 238.292969 C 363.476562 231.625 373.476562 231.625 373.476562 238.292969 "/>
<path style=" stroke:none;fill-rule:nonzero;fill:rgb(36.8417%,50.6779%,70.9798%);fill-opacity:1;" d="M 311.652344 132.265625 C 311.652344 138.933594 301.652344 138.933594 301.652344 132.265625 C 301.652344 125.601562 311.652344 125.601562 311.652344 132.265625 "/>
<path style=" stroke:none;fill-rule:nonzero;fill:rgb(36.8417%,50.6779%,70.9798%);fill-opacity:1;" d="M 225.738281 109.984375 C 225.738281 116.652344 215.738281 116.652344 215.738281 109.984375 C 215.738281 103.320312 225.738281 103.320312 225.738281 109.984375 "/>
<path style=" stroke:none;fill-rule:nonzero;fill:rgb(36.8417%,50.6779%,70.9798%);fill-opacity:1;" d="M 54.464844 193.183594 C 54.464844 199.851562 44.464844 199.851562 44.464844 193.183594 C 44.464844 186.515625 54.464844 186.515625 54.464844 193.183594 "/>
<path style=" stroke:none;fill-rule:nonzero;fill:rgb(36.8417%,50.6779%,70.9798%);fill-opacity:1;" d="M 18.917969 192.292969 C 18.917969 198.960938 8.917969 198.960938 8.917969 192.292969 C 8.917969 185.628906 18.917969 185.628906 18.917969 192.292969 "/>
<path style=" stroke:none;fill-rule:nonzero;fill:rgb(36.8417%,50.6779%,70.9798%);fill-opacity:1;" d="M 305.546875 113.222656 C 305.546875 119.886719 295.546875 119.886719 295.546875 113.222656 C 295.546875 106.554688 305.546875 106.554688 305.546875 113.222656 "/>
<path style=" stroke:none;fill-rule:nonzero;fill:rgb(36.8417%,50.6779%,70.9798%);fill-opacity:1;" d="M 397.1875 275.023438 C 397.1875 281.6875 387.1875 281.6875 387.1875 275.023438 C 387.1875 268.355469 397.1875 268.355469 397.1875 275.023438 "/>
<path style=" stroke:none;fill-rule:nonzero;fill:rgb(36.8417%,50.6779%,70.9798%);fill-opacity:1;" d="M 387.808594 224.34375 C 387.808594 231.011719 377.808594 231.011719 377.808594 224.34375 C 377.808594 217.675781 387.808594 217.675781 387.808594 224.34375 "/>
<path style=" stroke:none;fill-rule:nonzero;fill:rgb(36.8417%,50.6779%,70.9798%);fill-opacity:1;" d="M 41.402344 161.195312 C 41.402344 167.863281 31.402344 167.863281 31.402344 161.195312 C 31.402344 154.53125 41.402344 154.53125 41.402344 161.195312 "/>
<path style=" stroke:none;fill-rule:nonzero;fill:rgb(36.8417%,50.6779%,70.9798%);fill-opacity:1;" d="M 298.8125 147.601562 C 298.8125 154.265625 288.8125 154.265625 288.8125 147.601562 C 288.8125 140.933594 298.8125 140.933594 298.8125 147.601562 "/>
<path style=" stroke:none;fill-rule:nonzero;fill:rgb(36.8417%,50.6779%,70.9798%);fill-opacity:1;" d="M 274.007812 178.097656 C 274.007812 184.765625 264.007812 184.765625 264.007812 178.097656 C 264.007812 171.433594 274.007812 171.433594 274.007812 178.097656 "/>
<path style=" stroke:none;fill-rule:nonzero;fill:rgb(36.8417%,50.6779%,70.9798%);fill-opacity:1;" d="M 24.007812 151.324219 C 24.007812 157.992188 14.007812 157.992188 14.007812 151.324219 C 14.007812 144.660156 24.007812 144.660156 24.007812 151.324219 "/>
<path style=" stroke:none;fill-rule:nonzero;fill:rgb(36.8417%,50.6779%,70.9798%);fill-opacity:1;" d="M 206.933594 116.796875 C 206.933594 123.464844 196.933594 123.464844 196.933594 116.796875 C 196.933594 110.132812 206.933594 110.132812 206.933594 116.796875 "/>
<path style=" stroke:none;fill-rule:nonzero;fill:rgb(36.8417%,50.6779%,70.9798%);fill-opacity:1;" d="M 251.304688 114.613281 C 251.304688 121.28125 241.304688 121.28125 241.304688 114.613281 C 241.304688 107.949219 251.304688 107.949219 251.304688 114.613281 "/>
<path style=" stroke:none;fill-rule:nonzero;fill:rgb(36.8417%,50.6779%,70.9798%);fill-opacity:1;" d="M 264.660156 224.292969 C 264.660156 230.960938 254.660156 230.960938 254.660156 224.292969 C 254.660156 217.628906 264.660156 217.628906 264.660156 224.292969 "/>
<path style=" stroke:none;fill-rule:nonzero;fill:rgb(36.8417%,50.6779%,70.9798%);fill-opacity:1;" d="M 387.019531 313.414062 C 387.019531 320.082031 377.019531 320.082031 377.019531 313.414062 C 377.019531 306.746094 387.019531 306.746094 387.019531 313.414062 "/>
<path style=" stroke:none;fill-rule:nonzero;fill:rgb(36.8417%,50.6779%,70.9798%);fill-opacity:1;" d="M 285.585938 118.703125 C 285.585938 125.371094 275.585938 125.371094 275.585938 118.703125 C 275.585938 112.035156 285.585938 112.035156 285.585938 118.703125 "/>
<path style=" stroke:none;fill-rule:nonzero;fill:rgb(36.8417%,50.6779%,70.9798%);fill-opacity:1;" d="M 209.105469 96.917969 C 209.105469 103.582031 199.105469 103.582031 199.105469 96.917969 C 199.105469 90.25 209.105469 90.25 209.105469 96.917969 "/>
<path style=" stroke:none;fill-rule:nonzero;fill:rgb(36.8417%,50.6779%,70.9798%);fill-opacity:1;" d="M 249.316406 384 C 249.316406 390.664062 239.316406 390.664062 239.316406 384 C 239.316406 377.332031 249.316406 377.332031 249.316406 384 "/>
<path style=" stroke:none;fill-rule:nonzero;fill:rgb(36.8417%,50.6779%,70.9798%);fill-opacity:1;" d="M 269.136719 130.078125 C 269.136719 136.742188 259.136719 136.742188 259.136719 130.078125 C 259.136719 123.410156 269.136719 123.410156 269.136719 130.078125 "/>
<path style=" stroke:none;fill-rule:nonzero;fill:rgb(36.8417%,50.6779%,70.9798%);fill-opacity:1;" d="M 13.144531 173.144531 C 13.144531 179.8125 3.144531 179.8125 3.144531 173.144531 C 3.144531 166.480469 13.144531 166.480469 13.144531 173.144531 "/>
<path style=" stroke:none;fill-rule:nonzero;fill:rgb(36.8417%,50.6779%,70.9798%);fill-opacity:1;" d="M 283.277344 209.0625 C 283.277344 215.730469 273.277344 215.730469 273.277344 209.0625 C 273.277344 202.398438 283.277344 202.398438 283.277344 209.0625 "/>
<path style=" stroke:none;fill-rule:nonzero;fill:rgb(36.8417%,50.6779%,70.9798%);fill-opacity:1;" d="M 323.125 201.691406 C 323.125 208.355469 313.125 208.355469 313.125 201.691406 C 313.125 195.023438 323.125 195.023438 323.125 201.691406 "/>
<path style=" stroke:none;fill-rule:nonzero;fill:rgb(36.8417%,50.6779%,70.9798%);fill-opacity:1;" d="M 148.46875 133.363281 C 148.46875 140.03125 138.46875 140.03125 138.46875 133.363281 C 138.46875 126.699219 148.46875 126.699219 148.46875 133.363281 "/>
<path style=" stroke:none;fill-rule:nonzero;fill:rgb(36.8417%,50.6779%,70.9798%);fill-opacity:1;" d="M 232.640625 395.042969 C 232.640625 401.707031 222.640625 401.707031 222.640625 395.042969 C 222.640625 388.375 232.640625 388.375 232.640625 395.042969 "/>
<path style=" stroke:none;fill-rule:nonzero;fill:rgb(36.8417%,50.6779%,70.9798%);fill-opacity:1;" d="M 314.863281 327.246094 C 314.863281 333.910156 304.863281 333.910156 304.863281 327.246094 C 304.863281 320.578125 314.863281 320.578125 314.863281 327.246094 "/>
<path style=" stroke:none;fill-rule:nonzero;fill:rgb(36.8417%,50.6779%,70.9798%);fill-opacity:1;" d="M 367.679688 308.320312 C 367.679688 314.988281 357.679688 314.988281 357.679688 308.320312 C 357.679688 301.65625 367.679688 301.65625 367.679688 308.320312 "/>
<path style=" stroke:none;fill-rule:nonzero;fill:rgb(36.8417%,50.6779%,70.9798%);fill-opacity:1;" d="M 10.84375 283.660156 C 10.84375 290.328125 0.84375 290.328125 0.84375 283.660156 C 0.84375 276.996094 10.84375 276.996094 10.84375 283.660156 "/>
<path style=" stroke:none;fill-rule:nonzero;fill:rgb(36.8417%,50.6779%,70.9798%);fill-opacity:1;" d="M 340.222656 212.0625 C 340.222656 218.726562 330.222656 218.726562 330.222656 212.0625 C 330.222656 205.394531 340.222656 205.394531 340.222656 212.0625 "/>
<path style=" stroke:none;fill-rule:nonzero;fill:rgb(36.8417%,50.6779%,70.9798%);fill-opacity:1;" d="M 278.75 329.164062 C 278.75 335.832031 268.75 335.832031 268.75 329.164062 C 268.75 322.5 278.75 322.5 278.75 329.164062 "/>
<path style=" stroke:none;fill-rule:nonzero;fill:rgb(36.8417%,50.6779%,70.9798%);fill-opacity:1;" d="M 317.527344 268.664062 C 317.527344 275.332031 307.527344 275.332031 307.527344 268.664062 C 307.527344 261.996094 317.527344 261.996094 317.527344 268.664062 "/>
<path style=" stroke:none;fill-rule:nonzero;fill:rgb(36.8417%,50.6779%,70.9798%);fill-opacity:1;" d="M 334.0625 358.757812 C 334.0625 365.425781 324.0625 365.425781 324.0625 358.757812 C 324.0625 352.089844 334.0625 352.089844 334.0625 358.757812 "/>
<path style=" stroke:none;fill-rule:nonzero;fill:rgb(36.8417%,50.6779%,70.9798%);fill-opacity:1;" d="M 60.292969 167.765625 C 60.292969 174.433594 50.292969 174.433594 50.292969 167.765625 C 50.292969 161.101562 60.292969 161.101562 60.292969 167.765625 "/>
<path style=" stroke:none;fill-rule:nonzero;fill:rgb(36.8417%,50.6779%,70.9798%);fill-opacity:1;" d="M 27.417969 210.398438 C 27.417969 217.066406 17.417969 217.066406 17.417969 210.398438 C 17.417969 203.734375 27.417969 203.734375 27.417969 210.398438 "/>
<path style=" stroke:none;fill-rule:nonzero;fill:rgb(36.8417%,50.6779%,70.9798%);fill-opacity:1;" d="M 320.15625 298.5 C 320.15625 305.164062 310.15625 305.164062 310.15625 298.5 C 310.15625 291.832031 320.15625 291.832031 320.15625 298.5 "/>
<path style=" stroke:none;fill-rule:nonzero;fill:rgb(36.8417%,50.6779%,70.9798%);fill-opacity:1;" d="M 267.355469 196.960938 C 267.355469 203.628906 257.355469 203.628906 257.355469 196.960938 C 257.355469 190.292969 267.355469 190.292969 267.355469 196.960938 "/>
<path style=" stroke:none;fill-rule:nonzero;fill:rgb(36.8417%,50.6779%,70.9798%);fill-opacity:1;" d="M 243.691406 133.109375 C 243.691406 139.777344 233.691406 139.777344 233.691406 133.109375 C 233.691406 126.441406 243.691406 126.441406 243.691406 133.109375 "/>
<path style=" stroke:none;fill-rule:nonzero;fill:rgb(36.8417%,50.6779%,70.9798%);fill-opacity:1;" d="M 104.398438 173.855469 C 104.398438 180.523438 94.398438 180.523438 94.398438 173.855469 C 94.398438 167.1875 104.398438 167.1875 104.398438 173.855469 "/>
<path style=" stroke:none;fill-rule:nonzero;fill:rgb(36.8417%,50.6779%,70.9798%);fill-opacity:1;" d="M 45.621094 243.03125 C 45.621094 249.695312 35.621094 249.695312 35.621094 243.03125 C 35.621094 236.363281 45.621094 236.363281 45.621094 243.03125 "/>
<path style=" stroke:none;fill-rule:nonzero;fill:rgb(36.8417%,50.6779%,70.9798%);fill-opacity:1;" d="M 333.535156 313.363281 C 333.535156 320.027344 323.535156 320.027344 323.535156 313.363281 C 323.535156 306.695312 333.535156 306.695312 333.535156 313.363281 "/>
<path style=" stroke:none;fill-rule:nonzero;fill:rgb(36.8417%,50.6779%,70.9798%);fill-opacity:1;" d="M 51.269531 277.289062 C 51.269531 283.953125 41.269531 283.953125 41.269531 277.289062 C 41.269531 270.621094 51.269531 270.621094 51.269531 277.289062 "/>
<path style=" stroke:none;fill-rule:nonzero;fill:rgb(36.8417%,50.6779%,70.9798%);fill-opacity:1;" d="M 266.769531 393.765625 C 266.769531 400.429688 256.769531 400.429688 256.769531 393.765625 C 256.769531 387.097656 266.769531 387.097656 266.769531 393.765625 "/>
<path style=" stroke:none;fill-rule:nonzero;fill:rgb(36.8417%,50.6779%,70.9798%);fill-opacity:1;" d="M 161.320312 118.039062 C 161.320312 124.707031 151.320312 124.707031 151.320312 118.039062 C 151.320312 111.371094 161.320312 111.371094 161.320312 118.039062 "/>
<path style=" stroke:none;fill-rule:nonzero;fill:rgb(36.8417%,50.6779%,70.9798%);fill-opacity:1;" d="M 356.109375 292.007812 C 356.109375 298.671875 346.109375 298.671875 346.109375 292.007812 C 346.109375 285.339844 356.109375 285.339844 356.109375 292.007812 "/>
<path style=" stroke:none;fill-rule:nonzero;fill:rgb(36.8417%,50.6779%,70.9798%);fill-opacity:1;" d="M 358.332031 272.128906 C 358.332031 278.796875 348.332031 278.796875 348.332031 272.128906 C 348.332031 265.464844 358.332031 265.464844 358.332031 272.128906 "/>
<path style=" stroke:none;fill-rule:nonzero;fill:rgb(36.8417%,50.6779%,70.9798%);fill-opacity:1;" d="M 299.707031 355.390625 C 299.707031 362.058594 289.707031 362.058594 289.707031 355.390625 C 289.707031 348.726562 299.707031 348.726562 299.707031 355.390625 "/>
<path style=" stroke:none;fill-rule:nonzero;fill:rgb(36.8417%,50.6779%,70.9798%);fill-opacity:1;" d="M 287.113281 383.0625 C 287.113281 389.730469 277.113281 389.730469 277.113281 383.0625 C 277.113281 376.394531 287.113281 376.394531 287.113281 383.0625 "/>
<path style=" stroke:none;fill-rule:nonzero;fill:rgb(36.8417%,50.6779%,70.9798%);fill-opacity:1;" d="M 258.230469 146.839844 C 258.230469 153.507812 248.230469 153.507812 248.230469 146.839844 C 248.230469 140.175781 258.230469 140.175781 258.230469 146.839844 "/>
<path style=" stroke:none;fill-rule:nonzero;fill:rgb(36.8417%,50.6779%,70.9798%);fill-opacity:1;" d="M 121.238281 144.195312 C 121.238281 150.863281 111.238281 150.863281 111.238281 144.195312 C 111.238281 137.53125 121.238281 137.53125 121.238281 144.195312 "/>
<path style=" stroke:none;fill-rule:nonzero;fill:rgb(36.8417%,50.6779%,70.9798%);fill-opacity:1;" d="M 303.839844 286.929688 C 303.839844 293.597656 293.839844 293.597656 293.839844 286.929688 C 293.839844 280.261719 303.839844 280.261719 303.839844 286.929688 "/>
<path style=" stroke:none;fill-rule:nonzero;fill:rgb(36.8417%,50.6779%,70.9798%);fill-opacity:1;" d="M 51.269531 318.832031 C 51.269531 325.5 41.269531 325.5 41.269531 318.832031 C 41.269531 312.167969 51.269531 312.167969 51.269531 318.832031 "/>
<path style=" stroke:none;fill-rule:nonzero;fill:rgb(36.8417%,50.6779%,70.9798%);fill-opacity:1;" d="M 344.351562 330.1875 C 344.351562 336.851562 334.351562 336.851562 334.351562 330.1875 C 334.351562 323.519531 344.351562 323.519531 344.351562 330.1875 "/>
<path style=" stroke:none;fill-rule:nonzero;fill:rgb(36.8417%,50.6779%,70.9798%);fill-opacity:1;" d="M 71.109375 279.839844 C 71.109375 286.503906 61.109375 286.503906 61.109375 279.839844 C 61.109375 273.171875 71.109375 273.171875 71.109375 279.839844 "/>
<path style=" stroke:none;fill-rule:nonzero;fill:rgb(36.8417%,50.6779%,70.9798%);fill-opacity:1;" d="M 24.574219 230.195312 C 24.574219 236.863281 14.574219 236.863281 14.574219 230.195312 C 14.574219 223.53125 24.574219 223.53125 24.574219 230.195312 "/>
<path style=" stroke:none;fill-rule:nonzero;fill:rgb(36.8417%,50.6779%,70.9798%);fill-opacity:1;" d="M 317.867188 347.019531 C 317.867188 353.683594 307.867188 353.683594 307.867188 347.019531 C 307.867188 340.351562 317.867188 340.351562 317.867188 347.019531 "/>
<path style=" stroke:none;fill-rule:nonzero;fill:rgb(36.8417%,50.6779%,70.9798%);fill-opacity:1;" d="M 277.230469 158.359375 C 277.230469 165.027344 267.230469 165.027344 267.230469 158.359375 C 267.230469 151.691406 277.230469 151.691406 277.230469 158.359375 "/>
<path style=" stroke:none;fill-rule:nonzero;fill:rgb(36.8417%,50.6779%,70.9798%);fill-opacity:1;" d="M 281.578125 363.84375 C 281.578125 370.511719 271.578125 370.511719 271.578125 363.84375 C 271.578125 357.175781 281.578125 357.175781 281.578125 363.84375 "/>
<path style=" stroke:none;fill-rule:nonzero;fill:rgb(36.8417%,50.6779%,70.9798%);fill-opacity:1;" d="M 103.125 152.671875 C 103.125 159.339844 93.125 159.339844 93.125 152.671875 C 93.125 146.007812 103.125 146.007812 103.125 152.671875 "/>
<path style=" stroke:none;fill-rule:nonzero;fill:rgb(36.8417%,50.6779%,70.9798%);fill-opacity:1;" d="M 201.117188 155.589844 C 201.117188 162.257812 191.117188 162.257812 191.117188 155.589844 C 191.117188 148.925781 201.117188 148.925781 201.117188 155.589844 "/>
<path style=" stroke:none;fill-rule:nonzero;fill:rgb(36.8417%,50.6779%,70.9798%);fill-opacity:1;" d="M 170.136719 215.960938 C 170.136719 222.628906 160.136719 222.628906 160.136719 215.960938 C 160.136719 209.296875 170.136719 209.296875 170.136719 215.960938 "/>
<path style=" stroke:none;fill-rule:nonzero;fill:rgb(36.8417%,50.6779%,70.9798%);fill-opacity:1;" d="M 35.335938 330.921875 C 35.335938 337.589844 25.335938 337.589844 25.335938 330.921875 C 25.335938 324.257812 35.335938 324.257812 35.335938 330.921875 "/>
<path style=" stroke:none;fill-rule:nonzero;fill:rgb(36.8417%,50.6779%,70.9798%);fill-opacity:1;" d="M 324.585938 224.527344 C 324.585938 231.195312 314.585938 231.195312 314.585938 224.527344 C 314.585938 217.863281 324.585938 217.863281 324.585938 224.527344 "/>
<path style=" stroke:none;fill-rule:nonzero;fill:rgb(36.8417%,50.6779%,70.9798%);fill-opacity:1;" d="M 76.199219 152.484375 C 76.199219 159.148438 66.199219 159.148438 66.199219 152.484375 C 66.199219 145.816406 76.199219 145.816406 76.199219 152.484375 "/>
<path style=" stroke:none;fill-rule:nonzero;fill:rgb(36.8417%,50.6779%,70.9798%);fill-opacity:1;" d="M 79.804688 172.15625 C 79.804688 178.824219 69.804688 178.824219 69.804688 172.15625 C 69.804688 165.488281 79.804688 165.488281 79.804688 172.15625 "/>
<path style=" stroke:none;fill-rule:nonzero;fill:rgb(36.8417%,50.6779%,70.9798%);fill-opacity:1;" d="M 12.28125 263.710938 C 12.28125 270.378906 2.28125 270.378906 2.28125 263.710938 C 2.28125 257.046875 12.28125 257.046875 12.28125 263.710938 "/>
<path style=" stroke:none;fill-rule:nonzero;fill:rgb(36.8417%,50.6779%,70.9798%);fill-opacity:1;" d="M 336.640625 287.171875 C 336.640625 293.839844 326.640625 293.839844 326.640625 287.171875 C 326.640625 280.507812 336.640625 280.507812 336.640625 287.171875 "/>
<path style=" stroke:none;fill-rule:nonzero;fill:rgb(36.8417%,50.6779%,70.9798%);fill-opacity:1;" d="M 303.261719 208.269531 C 303.261719 214.9375 293.261719 214.9375 293.261719 208.269531 C 293.261719 201.605469 303.261719 201.605469 303.261719 208.269531 "/>
<path style=" stroke:none;fill-rule:nonzero;fill:rgb(36.8417%,50.6779%,70.9798%);fill-opacity:1;" d="M 251.234375 208.796875 C 251.234375 215.464844 241.234375 215.464844 241.234375 208.796875 C 241.234375 202.132812 251.234375 202.132812 251.234375 208.796875 "/>
<path style=" stroke:none;fill-rule:nonzero;fill:rgb(36.8417%,50.6779%,70.9798%);fill-opacity:1;" d="M 342.304688 260.167969 C 342.304688 266.835938 332.304688 266.835938 332.304688 260.167969 C 332.304688 253.5 342.304688 253.5 342.304688 260.167969 "/>
<path style=" stroke:none;fill-rule:nonzero;fill:rgb(36.8417%,50.6779%,70.9798%);fill-opacity:1;" d="M 283.949219 284.84375 C 283.949219 291.511719 273.949219 291.511719 273.949219 284.84375 C 273.949219 278.179688 283.949219 278.179688 283.949219 284.84375 "/>
<path style=" stroke:none;fill-rule:nonzero;fill:rgb(36.8417%,50.6779%,70.9798%);fill-opacity:1;" d="M 220.753906 159.394531 C 220.753906 166.0625 210.753906 166.0625 210.753906 159.394531 C 210.753906 152.730469 220.753906 152.730469 220.753906 159.394531 "/>
<path style=" stroke:none;fill-rule:nonzero;fill:rgb(36.8417%,50.6779%,70.9798%);fill-opacity:1;" d="M 170.117188 136 C 170.117188 142.667969 160.117188 142.667969 160.117188 136 C 160.117188 129.335938 170.117188 129.335938 170.117188 136 "/>
<path style=" stroke:none;fill-rule:nonzero;fill:rgb(36.8417%,50.6779%,70.9798%);fill-opacity:1;" d="M 249.945312 364.007812 C 249.945312 370.675781 239.945312 370.675781 239.945312 364.007812 C 239.945312 357.34375 249.945312 357.34375 249.945312 364.007812 "/>
<path style=" stroke:none;fill-rule:nonzero;fill:rgb(36.8417%,50.6779%,70.9798%);fill-opacity:1;" d="M 123.910156 169.449219 C 123.910156 176.117188 113.910156 176.117188 113.910156 169.449219 C 113.910156 162.785156 123.910156 162.785156 123.910156 169.449219 "/>
<path style=" stroke:none;fill-rule:nonzero;fill:rgb(36.8417%,50.6779%,70.9798%);fill-opacity:1;" d="M 7.574219 343.953125 C 7.574219 350.617188 -2.425781 350.617188 -2.425781 343.953125 C -2.425781 337.285156 7.574219 337.285156 7.574219 343.953125 "/>
<path style=" stroke:none;fill-rule:nonzero;fill:rgb(36.8417%,50.6779%,70.9798%);fill-opacity:1;" d="M 181.136719 154.765625 C 181.136719 161.433594 171.136719 161.433594 171.136719 154.765625 C 171.136719 148.101562 181.136719 148.101562 181.136719 154.765625 "/>
<path style=" stroke:none;fill-rule:nonzero;fill:rgb(36.8417%,50.6779%,70.9798%);fill-opacity:1;" d="M 207.898438 136.777344 C 207.898438 143.441406 197.898438 143.441406 197.898438 136.777344 C 197.898438 130.109375 207.898438 130.109375 207.898438 136.777344 "/>
<path style=" stroke:none;fill-rule:nonzero;fill:rgb(36.8417%,50.6779%,70.9798%);fill-opacity:1;" d="M 54.890625 338.503906 C 54.890625 345.167969 44.890625 345.167969 44.890625 338.503906 C 44.890625 331.835938 54.890625 331.835938 54.890625 338.503906 "/>
<path style=" stroke:none;fill-rule:nonzero;fill:rgb(36.8417%,50.6779%,70.9798%);fill-opacity:1;" d="M 21.488281 393.789062 C 21.488281 400.457031 11.488281 400.457031 11.488281 393.789062 C 11.488281 387.125 21.488281 387.125 21.488281 393.789062 "/>
<path style=" stroke:none;fill-rule:nonzero;fill:rgb(36.8417%,50.6779%,70.9798%);fill-opacity:1;" d="M 353.886719 234.25 C 353.886719 240.917969 343.886719 240.917969 343.886719 234.25 C 343.886719 227.585938 353.886719 227.585938 353.886719 234.25 "/>
<path style=" stroke:none;fill-rule:nonzero;fill:rgb(36.8417%,50.6779%,70.9798%);fill-opacity:1;" d="M 26.898438 250.0625 C 26.898438 256.726562 16.898438 256.726562 16.898438 250.0625 C 16.898438 243.394531 26.898438 243.394531 26.898438 250.0625 "/>
<path style=" stroke:none;fill-rule:nonzero;fill:rgb(36.8417%,50.6779%,70.9798%);fill-opacity:1;" d="M 248.203125 164.148438 C 248.203125 170.8125 238.203125 170.8125 238.203125 164.148438 C 238.203125 157.480469 248.203125 157.480469 248.203125 164.148438 "/>
<path style=" stroke:none;fill-rule:nonzero;fill:rgb(36.8417%,50.6779%,70.9798%);fill-opacity:1;" d="M 105.625 210.957031 C 105.625 217.625 95.625 217.625 95.625 210.957031 C 95.625 204.292969 105.625 204.292969 105.625 210.957031 "/>
<path style=" stroke:none;fill-rule:nonzero;fill:rgb(36.8417%,50.6779%,70.9798%);fill-opacity:1;" d="M 232.03125 175.914062 C 232.03125 182.578125 222.03125 182.578125 222.03125 175.914062 C 222.03125 169.246094 232.03125 169.246094 232.03125 175.914062 "/>
<path style=" stroke:none;fill-rule:nonzero;fill:rgb(36.8417%,50.6779%,70.9798%);fill-opacity:1;" d="M 187.269531 125.714844 C 187.269531 132.382812 177.269531 132.382812 177.269531 125.714844 C 177.269531 119.050781 187.269531 119.050781 187.269531 125.714844 "/>
<path style=" stroke:none;fill-rule:nonzero;fill:rgb(36.8417%,50.6779%,70.9798%);fill-opacity:1;" d="M 69.890625 299.800781 C 69.890625 306.46875 59.890625 306.46875 59.890625 299.800781 C 59.890625 293.132812 69.890625 293.132812 69.890625 299.800781 "/>
<path style=" stroke:none;fill-rule:nonzero;fill:rgb(36.8417%,50.6779%,70.9798%);fill-opacity:1;" d="M 316.582031 248.6875 C 316.582031 255.351562 306.582031 255.351562 306.582031 248.6875 C 306.582031 242.019531 316.582031 242.019531 316.582031 248.6875 "/>
<path style=" stroke:none;fill-rule:nonzero;fill:rgb(36.8417%,50.6779%,70.9798%);fill-opacity:1;" d="M 293.582031 173.992188 C 293.582031 180.660156 283.582031 180.660156 283.582031 173.992188 C 283.582031 167.328125 293.582031 167.328125 293.582031 173.992188 "/>
<path style=" stroke:none;fill-rule:nonzero;fill:rgb(36.8417%,50.6779%,70.9798%);fill-opacity:1;" d="M 288.363281 306.828125 C 288.363281 313.496094 278.363281 313.496094 278.363281 306.828125 C 278.363281 300.160156 288.363281 300.160156 288.363281 306.828125 "/>
<path style=" stroke:none;fill-rule:nonzero;fill:rgb(36.8417%,50.6779%,70.9798%);fill-opacity:1;" d="M 74.386719 191.40625 C 74.386719 198.074219 64.386719 198.074219 64.386719 191.40625 C 64.386719 184.742188 74.386719 184.742188 74.386719 191.40625 "/>
<path style=" stroke:none;fill-rule:nonzero;fill:rgb(36.8417%,50.6779%,70.9798%);fill-opacity:1;" d="M 269.246094 348.097656 C 269.246094 354.765625 259.246094 354.765625 259.246094 348.097656 C 259.246094 341.433594 269.246094 341.433594 269.246094 348.097656 "/>
<path style=" stroke:none;fill-rule:nonzero;fill:rgb(36.8417%,50.6779%,70.9798%);fill-opacity:1;" d="M 8.253906 242.824219 C 8.253906 249.488281 -1.746094 249.488281 -1.746094 242.824219 C -1.746094 236.15625 8.253906 236.15625 8.253906 242.824219 "/>
<path style=" stroke:none;fill-rule:nonzero;fill:rgb(36.8417%,50.6779%,70.9798%);fill-opacity:1;" d="M 137.941406 155.199219 C 137.941406 161.867188 127.941406 161.867188 127.941406 155.199219 C 127.941406 148.53125 137.941406 148.53125 137.941406 155.199219 "/>
<path style=" stroke:none;fill-rule:nonzero;fill:rgb(36.8417%,50.6779%,70.9798%);fill-opacity:1;" d="M 249.058594 313.585938 C 249.058594 320.253906 239.058594 320.253906 239.058594 313.585938 C 239.058594 306.917969 249.058594 306.917969 249.058594 313.585938 "/>
<path style=" stroke:none;fill-rule:nonzero;fill:rgb(36.8417%,50.6779%,70.9798%);fill-opacity:1;" d="M 203.820312 182.617188 C 203.820312 189.285156 193.820312 189.285156 193.820312 182.617188 C 193.820312 175.949219 203.820312 175.949219 203.820312 182.617188 "/>
<path style=" stroke:none;fill-rule:nonzero;fill:rgb(36.8417%,50.6779%,70.9798%);fill-opacity:1;" d="M 147.011719 189.996094 C 147.011719 196.660156 137.011719 196.660156 137.011719 189.996094 C 137.011719 183.328125 147.011719 183.328125 147.011719 189.996094 "/>
<path style=" stroke:none;fill-rule:nonzero;fill:rgb(36.8417%,50.6779%,70.9798%);fill-opacity:1;" d="M 74.558594 381.492188 C 74.558594 388.160156 64.558594 388.160156 64.558594 381.492188 C 64.558594 374.828125 74.558594 374.828125 74.558594 381.492188 "/>
<path style=" stroke:none;fill-rule:nonzero;fill:rgb(36.8417%,50.6779%,70.9798%);fill-opacity:1;" d="M 72.226562 348.472656 C 72.226562 355.136719 62.226562 355.136719 62.226562 348.472656 C 62.226562 341.804688 72.226562 341.804688 72.226562 348.472656 "/>
<path style=" stroke:none;fill-rule:nonzero;fill:rgb(36.8417%,50.6779%,70.9798%);fill-opacity:1;" d="M 23.351562 356.246094 C 23.351562 362.914062 13.351562 362.914062 13.351562 356.246094 C 13.351562 349.578125 23.351562 349.578125 23.351562 356.246094 "/>
<path style=" stroke:none;fill-rule:nonzero;fill:rgb(36.8417%,50.6779%,70.9798%);fill-opacity:1;" d="M 283.160156 264.859375 C 283.160156 271.527344 273.160156 271.527344 273.160156 264.859375 C 273.160156 258.195312 283.160156 258.195312 283.160156 264.859375 "/>
<path style=" stroke:none;fill-rule:nonzero;fill:rgb(36.8417%,50.6779%,70.9798%);fill-opacity:1;" d="M 157.617188 151.613281 C 157.617188 158.28125 147.617188 158.28125 147.617188 151.613281 C 147.617188 144.949219 157.617188 144.949219 157.617188 151.613281 "/>
<path style=" stroke:none;fill-rule:nonzero;fill:rgb(36.8417%,50.6779%,70.9798%);fill-opacity:1;" d="M 258.65625 331.132812 C 258.65625 337.800781 248.65625 337.800781 248.65625 331.132812 C 248.65625 324.464844 258.65625 324.464844 258.65625 331.132812 "/>
<path style=" stroke:none;fill-rule:nonzero;fill:rgb(36.8417%,50.6779%,70.9798%);fill-opacity:1;" d="M 94.132812 194.589844 C 94.132812 201.257812 84.132812 201.257812 84.132812 194.589844 C 84.132812 187.921875 94.132812 187.921875 94.132812 194.589844 "/>
<path style=" stroke:none;fill-rule:nonzero;fill:rgb(36.8417%,50.6779%,70.9798%);fill-opacity:1;" d="M 15.59375 374.679688 C 15.59375 381.347656 5.59375 381.347656 5.59375 374.679688 C 5.59375 368.011719 15.59375 368.011719 15.59375 374.679688 "/>
<path style=" stroke:none;fill-rule:nonzero;fill:rgb(36.8417%,50.6779%,70.9798%);fill-opacity:1;" d="M 173.949219 184.726562 C 173.949219 191.394531 163.949219 191.394531 163.949219 184.726562 C 163.949219 178.0625 173.949219 178.0625 173.949219 184.726562 "/>
<path style=" stroke:none;fill-rule:nonzero;fill:rgb(36.8417%,50.6779%,70.9798%);fill-opacity:1;" d="M 115.667969 193.664062 C 115.667969 200.328125 105.667969 200.328125 105.667969 193.664062 C 105.667969 186.996094 115.667969 186.996094 115.667969 193.664062 "/>
<path style=" stroke:none;fill-rule:nonzero;fill:rgb(36.8417%,50.6779%,70.9798%);fill-opacity:1;" d="M 268.972656 311.71875 C 268.972656 318.386719 258.972656 318.386719 258.972656 311.71875 C 258.972656 305.050781 268.972656 305.050781 268.972656 311.71875 "/>
<path style=" stroke:none;fill-rule:nonzero;fill:rgb(36.8417%,50.6779%,70.9798%);fill-opacity:1;" d="M 207.796875 202.21875 C 207.796875 208.882812 197.796875 208.882812 197.796875 202.21875 C 197.796875 195.550781 207.796875 195.550781 207.796875 202.21875 "/>
<path style=" stroke:none;fill-rule:nonzero;fill:rgb(36.8417%,50.6779%,70.9798%);fill-opacity:1;" d="M 62.195312 365.773438 C 62.195312 372.441406 52.195312 372.441406 52.195312 365.773438 C 52.195312 359.105469 62.195312 359.105469 62.195312 365.773438 "/>
<path style=" stroke:none;fill-rule:nonzero;fill:rgb(36.8417%,50.6779%,70.9798%);fill-opacity:1;" d="M 70.878906 246.046875 C 70.878906 252.710938 60.878906 252.710938 60.878906 246.046875 C 60.878906 239.378906 70.878906 239.378906 70.878906 246.046875 "/>
<path style=" stroke:none;fill-rule:nonzero;fill:rgb(36.8417%,50.6779%,70.9798%);fill-opacity:1;" d="M 245.070312 271.199219 C 245.070312 277.863281 235.070312 277.863281 235.070312 271.199219 C 235.070312 264.53125 245.070312 264.53125 245.070312 271.199219 "/>
<path style=" stroke:none;fill-rule:nonzero;fill:rgb(36.8417%,50.6779%,70.9798%);fill-opacity:1;" d="M 66.980469 221.277344 C 66.980469 227.945312 56.980469 227.945312 56.980469 221.277344 C 56.980469 214.609375 66.980469 214.609375 66.980469 221.277344 "/>
<path style=" stroke:none;fill-rule:nonzero;fill:rgb(36.8417%,50.6779%,70.9798%);fill-opacity:1;" d="M 257.394531 295.40625 C 257.394531 302.074219 247.394531 302.074219 247.394531 295.40625 C 247.394531 288.738281 257.394531 288.738281 257.394531 295.40625 "/>
<path style=" stroke:none;fill-rule:nonzero;fill:rgb(36.8417%,50.6779%,70.9798%);fill-opacity:1;" d="M 106.449219 230.941406 C 106.449219 237.609375 96.449219 237.609375 96.449219 230.941406 C 96.449219 224.273438 106.449219 224.273438 106.449219 230.941406 "/>
<path style=" stroke:none;fill-rule:nonzero;fill:rgb(36.8417%,50.6779%,70.9798%);fill-opacity:1;" d="M 335.230469 241.460938 C 335.230469 248.125 325.230469 248.125 325.230469 241.460938 C 325.230469 234.792969 335.230469 234.792969 335.230469 241.460938 "/>
<path style=" stroke:none;fill-rule:nonzero;fill:rgb(36.8417%,50.6779%,70.9798%);fill-opacity:1;" d="M 284.085938 229.046875 C 284.085938 235.714844 274.085938 235.714844 274.085938 229.046875 C 274.085938 222.378906 284.085938 222.378906 284.085938 229.046875 "/>
<path style=" stroke:none;fill-rule:nonzero;fill:rgb(36.8417%,50.6779%,70.9798%);fill-opacity:1;" d="M 231.808594 374.328125 C 231.808594 380.996094 221.808594 380.996094 221.808594 374.328125 C 221.808594 367.664062 231.808594 367.664062 231.808594 374.328125 "/>
<path style=" stroke:none;fill-rule:nonzero;fill:rgb(36.8417%,50.6779%,70.9798%);fill-opacity:1;" d="M 184.511719 201.710938 C 184.511719 208.378906 174.511719 208.378906 174.511719 201.710938 C 174.511719 195.046875 184.511719 195.046875 184.511719 201.710938 "/>
<path style=" stroke:none;fill-rule:nonzero;fill:rgb(36.8417%,50.6779%,70.9798%);fill-opacity:1;" d="M 62.78125 397.660156 C 62.78125 404.324219 52.78125 404.324219 52.78125 397.660156 C 52.78125 390.992188 62.78125 390.992188 62.78125 397.660156 "/>
<path style=" stroke:none;fill-rule:nonzero;fill:rgb(36.8417%,50.6779%,70.9798%);fill-opacity:1;" d="M 267.539062 249.078125 C 267.539062 255.746094 257.539062 255.746094 257.539062 249.078125 C 257.539062 242.410156 267.539062 242.410156 267.539062 249.078125 "/>
<path style=" stroke:none;fill-rule:nonzero;fill:rgb(36.8417%,50.6779%,70.9798%);fill-opacity:1;" d="M 86.253906 215.933594 C 86.253906 222.601562 76.253906 222.601562 76.253906 215.933594 C 76.253906 209.269531 86.253906 209.269531 86.253906 215.933594 "/>
<path style=" stroke:none;fill-rule:nonzero;fill:rgb(36.8417%,50.6779%,70.9798%);fill-opacity:1;" d="M 195.800781 218.222656 C 195.800781 224.886719 185.800781 224.886719 185.800781 218.222656 C 185.800781 211.554688 195.800781 211.554688 195.800781 218.222656 "/>
<path style=" stroke:none;fill-rule:nonzero;fill:rgb(36.8417%,50.6779%,70.9798%);fill-opacity:1;" d="M 129.632812 395.015625 C 129.632812 401.683594 119.632812 401.683594 119.632812 395.015625 C 119.632812 388.351562 129.632812 388.351562 129.632812 395.015625 "/>
<path style=" stroke:none;fill-rule:nonzero;fill:rgb(36.8417%,50.6779%,70.9798%);fill-opacity:1;" d="M 250.574219 238.492188 C 250.574219 245.15625 240.574219 245.15625 240.574219 238.492188 C 240.574219 231.824219 250.574219 231.824219 250.574219 238.492188 "/>
<path style=" stroke:none;fill-rule:nonzero;fill:rgb(36.8417%,50.6779%,70.9798%);fill-opacity:1;" d="M 172.996094 253.242188 C 172.996094 259.90625 162.996094 259.90625 162.996094 253.242188 C 162.996094 246.574219 172.996094 246.574219 172.996094 253.242188 "/>
<path style=" stroke:none;fill-rule:nonzero;fill:rgb(36.8417%,50.6779%,70.9798%);fill-opacity:1;" d="M 91.105469 279.609375 C 91.105469 286.277344 81.105469 286.277344 81.105469 279.609375 C 81.105469 272.945312 91.105469 272.945312 91.105469 279.609375 "/>
<path style=" stroke:none;fill-rule:nonzero;fill:rgb(36.8417%,50.6779%,70.9798%);fill-opacity:1;" d="M 264.972656 273.179688 C 264.972656 279.847656 254.972656 279.847656 254.972656 273.179688 C 254.972656 266.511719 264.972656 266.511719 264.972656 273.179688 "/>
<path style=" stroke:none;fill-rule:nonzero;fill:rgb(36.8417%,50.6779%,70.9798%);fill-opacity:1;" d="M 42.710938 361.265625 C 42.710938 367.933594 32.710938 367.933594 32.710938 361.265625 C 32.710938 354.597656 42.710938 354.597656 42.710938 361.265625 "/>
<path style=" stroke:none;fill-rule:nonzero;fill:rgb(36.8417%,50.6779%,70.9798%);fill-opacity:1;" d="M 154.148438 171.3125 C 154.148438 177.976562 144.148438 177.976562 144.148438 171.3125 C 144.148438 164.644531 154.148438 164.644531 154.148438 171.3125 "/>
<path style=" stroke:none;fill-rule:nonzero;fill:rgb(36.8417%,50.6779%,70.9798%);fill-opacity:1;" d="M 297.082031 244.25 C 297.082031 250.917969 287.082031 250.917969 287.082031 244.25 C 287.082031 237.582031 297.082031 237.582031 297.082031 244.25 "/>
<path style=" stroke:none;fill-rule:nonzero;fill:rgb(36.8417%,50.6779%,70.9798%);fill-opacity:1;" d="M 142.089844 227.363281 C 142.089844 234.03125 132.089844 234.03125 132.089844 227.363281 C 132.089844 220.699219 142.089844 220.699219 142.089844 227.363281 "/>
<path style=" stroke:none;fill-rule:nonzero;fill:rgb(36.8417%,50.6779%,70.9798%);fill-opacity:1;" d="M 85.574219 259.613281 C 85.574219 266.28125 75.574219 266.28125 75.574219 259.613281 C 75.574219 252.945312 85.574219 252.945312 85.574219 259.613281 "/>
<path style=" stroke:none;fill-rule:nonzero;fill:rgb(36.8417%,50.6779%,70.9798%);fill-opacity:1;" d="M 85.210938 363.683594 C 85.210938 370.351562 75.210938 370.351562 75.210938 363.683594 C 75.210938 357.015625 85.210938 357.015625 85.210938 363.683594 "/>
<path style=" stroke:none;fill-rule:nonzero;fill:rgb(36.8417%,50.6779%,70.9798%);fill-opacity:1;" d="M 102.953125 332.292969 C 102.953125 338.957031 92.953125 338.957031 92.953125 332.292969 C 92.953125 325.625 102.953125 325.625 102.953125 332.292969 "/>
<path style=" stroke:none;fill-rule:nonzero;fill:rgb(36.8417%,50.6779%,70.9798%);fill-opacity:1;" d="M 229.539062 195.757812 C 229.539062 202.421875 219.539062 202.421875 219.539062 195.757812 C 219.539062 189.089844 229.539062 189.089844 229.539062 195.757812 "/>
<path style=" stroke:none;fill-rule:nonzero;fill:rgb(36.8417%,50.6779%,70.9798%);fill-opacity:1;" d="M 110.019531 398.925781 C 110.019531 405.589844 100.019531 405.589844 100.019531 398.925781 C 100.019531 392.257812 110.019531 392.257812 110.019531 398.925781 "/>
<path style=" stroke:none;fill-rule:nonzero;fill:rgb(36.8417%,50.6779%,70.9798%);fill-opacity:1;" d="M 124.074219 218.679688 C 124.074219 225.34375 114.074219 225.34375 114.074219 218.679688 C 114.074219 212.011719 124.074219 212.011719 124.074219 218.679688 "/>
<path style=" stroke:none;fill-rule:nonzero;fill:rgb(36.8417%,50.6779%,70.9798%);fill-opacity:1;" d="M 188.671875 236.90625 C 188.671875 243.574219 178.671875 243.574219 178.671875 236.90625 C 178.671875 230.242188 188.671875 230.242188 188.671875 236.90625 "/>
<path style=" stroke:none;fill-rule:nonzero;fill:rgb(36.8417%,50.6779%,70.9798%);fill-opacity:1;" d="M 233.539062 340.96875 C 233.539062 347.632812 223.539062 347.632812 223.539062 340.96875 C 223.539062 334.300781 233.539062 334.300781 233.539062 340.96875 "/>
<path style=" stroke:none;fill-rule:nonzero;fill:rgb(36.8417%,50.6779%,70.9798%);fill-opacity:1;" d="M 188.90625 395.238281 C 188.90625 401.902344 178.90625 401.902344 178.90625 395.238281 C 178.90625 388.570312 188.90625 388.570312 188.90625 395.238281 "/>
<path style=" stroke:none;fill-rule:nonzero;fill:rgb(36.8417%,50.6779%,70.9798%);fill-opacity:1;" d="M 230.5625 321.191406 C 230.5625 327.859375 220.5625 327.859375 220.5625 321.191406 C 220.5625 314.523438 230.5625 314.523438 230.5625 321.191406 "/>
<path style=" stroke:none;fill-rule:nonzero;fill:rgb(36.8417%,50.6779%,70.9798%);fill-opacity:1;" d="M 104.683594 253.703125 C 104.683594 260.371094 94.683594 260.371094 94.683594 253.703125 C 94.683594 247.039062 104.683594 247.039062 104.683594 253.703125 "/>
<path style=" stroke:none;fill-rule:nonzero;fill:rgb(36.8417%,50.6779%,70.9798%);fill-opacity:1;" d="M 152.824219 392.507812 C 152.824219 399.175781 142.824219 399.175781 142.824219 392.507812 C 142.824219 385.84375 152.824219 385.84375 152.824219 392.507812 "/>
<path style=" stroke:none;fill-rule:nonzero;fill:rgb(36.8417%,50.6779%,70.9798%);fill-opacity:1;" d="M 125.183594 238.648438 C 125.183594 245.316406 115.183594 245.316406 115.183594 238.648438 C 115.183594 231.980469 125.183594 231.980469 125.183594 238.648438 "/>
<path style=" stroke:none;fill-rule:nonzero;fill:rgb(36.8417%,50.6779%,70.9798%);fill-opacity:1;" d="M 228.839844 215.742188 C 228.839844 222.410156 218.839844 222.410156 218.839844 215.742188 C 218.839844 209.078125 228.839844 209.078125 228.839844 215.742188 "/>
<path style=" stroke:none;fill-rule:nonzero;fill:rgb(36.8417%,50.6779%,70.9798%);fill-opacity:1;" d="M 90.914062 393.003906 C 90.914062 399.671875 80.914062 399.671875 80.914062 393.003906 C 80.914062 386.335938 90.914062 386.335938 90.914062 393.003906 "/>
<path style=" stroke:none;fill-rule:nonzero;fill:rgb(36.8417%,50.6779%,70.9798%);fill-opacity:1;" d="M 117.367188 376.773438 C 117.367188 383.4375 107.367188 383.4375 107.367188 376.773438 C 107.367188 370.105469 117.367188 370.105469 117.367188 376.773438 "/>
<path style=" stroke:none;fill-rule:nonzero;fill:rgb(36.8417%,50.6779%,70.9798%);fill-opacity:1;" d="M 235.394531 288.703125 C 235.394531 295.367188 225.394531 295.367188 225.394531 288.703125 C 225.394531 282.035156 235.394531 282.035156 235.394531 288.703125 "/>
<path style=" stroke:none;fill-rule:nonzero;fill:rgb(36.8417%,50.6779%,70.9798%);fill-opacity:1;" d="M 151.191406 209.554688 C 151.191406 216.21875 141.191406 216.21875 141.191406 209.554688 C 141.191406 202.886719 151.191406 202.886719 151.191406 209.554688 "/>
<path style=" stroke:none;fill-rule:nonzero;fill:rgb(36.8417%,50.6779%,70.9798%);fill-opacity:1;" d="M 211.382812 230.757812 C 211.382812 237.425781 201.382812 237.425781 201.382812 230.757812 C 201.382812 224.089844 211.382812 224.089844 211.382812 230.757812 "/>
<path style=" stroke:none;fill-rule:nonzero;fill:rgb(36.8417%,50.6779%,70.9798%);fill-opacity:1;" d="M 230.773438 235.648438 C 230.773438 242.316406 220.773438 242.316406 220.773438 235.648438 C 220.773438 228.984375 230.773438 228.984375 230.773438 235.648438 "/>
<path style=" stroke:none;fill-rule:nonzero;fill:rgb(36.8417%,50.6779%,70.9798%);fill-opacity:1;" d="M 215.824219 292.835938 C 215.824219 299.5 205.824219 299.5 205.824219 292.835938 C 205.824219 286.167969 215.824219 286.167969 215.824219 292.835938 "/>
<path style=" stroke:none;fill-rule:nonzero;fill:rgb(36.8417%,50.6779%,70.9798%);fill-opacity:1;" d="M 211.542969 315.007812 C 211.542969 321.675781 201.542969 321.675781 201.542969 315.007812 C 201.542969 308.339844 211.542969 308.339844 211.542969 315.007812 "/>
<path style=" stroke:none;fill-rule:nonzero;fill:rgb(36.8417%,50.6779%,70.9798%);fill-opacity:1;" d="M 219.566406 358.515625 C 219.566406 365.179688 209.566406 365.179688 209.566406 358.515625 C 209.566406 351.847656 219.566406 351.847656 219.566406 358.515625 "/>
<path style=" stroke:none;fill-rule:nonzero;fill:rgb(36.8417%,50.6779%,70.9798%);fill-opacity:1;" d="M 210.765625 250.75 C 210.765625 257.414062 200.765625 257.414062 200.765625 250.75 C 200.765625 244.082031 210.765625 244.082031 210.765625 250.75 "/>
<path style=" stroke:none;fill-rule:nonzero;fill:rgb(36.8417%,50.6779%,70.9798%);fill-opacity:1;" d="M 219.242188 273.128906 C 219.242188 279.796875 209.242188 279.796875 209.242188 273.128906 C 209.242188 266.460938 219.242188 266.460938 219.242188 273.128906 "/>
<path style=" stroke:none;fill-rule:nonzero;fill:rgb(36.8417%,50.6779%,70.9798%);fill-opacity:1;" d="M 178.761719 378 C 178.761719 384.664062 168.761719 384.664062 168.761719 378 C 168.761719 371.332031 178.761719 371.332031 178.761719 378 "/>
<path style=" stroke:none;fill-rule:nonzero;fill:rgb(36.8417%,50.6779%,70.9798%);fill-opacity:1;" d="M 208.863281 396.53125 C 208.863281 403.199219 198.863281 403.199219 198.863281 396.53125 C 198.863281 389.863281 208.863281 389.863281 208.863281 396.53125 "/>
<path style=" stroke:none;fill-rule:nonzero;fill:rgb(36.8417%,50.6779%,70.9798%);fill-opacity:1;" d="M 146.367188 246.902344 C 146.367188 253.570312 136.367188 253.570312 136.367188 246.902344 C 136.367188 240.234375 146.367188 240.234375 146.367188 246.902344 "/>
<path style=" stroke:none;fill-rule:nonzero;fill:rgb(36.8417%,50.6779%,70.9798%);fill-opacity:1;" d="M 197.949219 283.863281 C 197.949219 290.527344 187.949219 290.527344 187.949219 283.863281 C 187.949219 277.195312 197.949219 277.195312 197.949219 283.863281 "/>
<path style=" stroke:none;fill-rule:nonzero;fill:rgb(36.8417%,50.6779%,70.9798%);fill-opacity:1;" d="M 174.03125 350.910156 C 174.03125 357.578125 164.03125 357.578125 164.03125 350.910156 C 164.03125 344.246094 174.03125 344.246094 174.03125 350.910156 "/>
<path style=" stroke:none;fill-rule:nonzero;fill:rgb(36.8417%,50.6779%,70.9798%);fill-opacity:1;" d="M 105.429688 352.136719 C 105.429688 358.804688 95.429688 358.804688 95.429688 352.136719 C 95.429688 345.472656 105.429688 345.472656 105.429688 352.136719 "/>
<path style=" stroke:none;fill-rule:nonzero;fill:rgb(36.8417%,50.6779%,70.9798%);fill-opacity:1;" d="M 130.480469 361.667969 C 130.480469 368.335938 120.480469 368.335938 120.480469 361.667969 C 120.480469 355.003906 130.480469 355.003906 130.480469 361.667969 "/>
<path style=" stroke:none;fill-rule:nonzero;fill:rgb(36.8417%,50.6779%,70.9798%);fill-opacity:1;" d="M 124.066406 280.496094 C 124.066406 287.164062 114.066406 287.164062 114.066406 280.496094 C 114.066406 273.828125 124.066406 273.828125 124.066406 280.496094 "/>
<path style=" stroke:none;fill-rule:nonzero;fill:rgb(36.8417%,50.6779%,70.9798%);fill-opacity:1;" d="M 149.664062 356.023438 C 149.664062 362.691406 139.664062 362.691406 139.664062 356.023438 C 139.664062 349.355469 149.664062 349.355469 149.664062 356.023438 "/>
<path style=" stroke:none;fill-rule:nonzero;fill:rgb(36.8417%,50.6779%,70.9798%);fill-opacity:1;" d="M 212.125 339.949219 C 212.125 346.617188 202.125 346.617188 202.125 339.949219 C 202.125 333.285156 212.125 333.285156 212.125 339.949219 "/>
<path style=" stroke:none;fill-rule:nonzero;fill:rgb(36.8417%,50.6779%,70.9798%);fill-opacity:1;" d="M 107.28125 291.375 C 107.28125 298.039062 97.28125 298.039062 97.28125 291.375 C 97.28125 284.707031 107.28125 284.707031 107.28125 291.375 "/>
<path style=" stroke:none;fill-rule:nonzero;fill:rgb(36.8417%,50.6779%,70.9798%);fill-opacity:1;" d="M 154.792969 265.039062 C 154.792969 271.707031 144.792969 271.707031 144.792969 265.039062 C 144.792969 258.371094 154.792969 258.371094 154.792969 265.039062 "/>
<path style=" stroke:none;fill-rule:nonzero;fill:rgb(36.8417%,50.6779%,70.9798%);fill-opacity:1;" d="M 197.277344 370.429688 C 197.277344 377.097656 187.277344 377.097656 187.277344 370.429688 C 187.277344 363.761719 197.277344 363.761719 197.277344 370.429688 "/>
<path style=" stroke:none;fill-rule:nonzero;fill:rgb(36.8417%,50.6779%,70.9798%);fill-opacity:1;" d="M 159.257812 373.574219 C 159.257812 380.238281 149.257812 380.238281 149.257812 373.574219 C 149.257812 366.90625 159.257812 366.90625 159.257812 373.574219 "/>
<path style=" stroke:none;fill-rule:nonzero;fill:rgb(36.8417%,50.6779%,70.9798%);fill-opacity:1;" d="M 193.820312 348.011719 C 193.820312 354.675781 183.820312 354.675781 183.820312 348.011719 C 183.820312 341.34375 193.820312 341.34375 193.820312 348.011719 "/>
<path style=" stroke:none;fill-rule:nonzero;fill:rgb(36.8417%,50.6779%,70.9798%);fill-opacity:1;" d="M 82.964844 331.597656 C 82.964844 338.265625 72.964844 338.265625 72.964844 331.597656 C 72.964844 324.933594 82.964844 324.933594 82.964844 331.597656 "/>
<path style=" stroke:none;fill-rule:nonzero;fill:rgb(36.8417%,50.6779%,70.9798%);fill-opacity:1;" d="M 123.492188 260.503906 C 123.492188 267.171875 113.492188 267.171875 113.492188 260.503906 C 113.492188 253.835938 123.492188 253.835938 123.492188 260.503906 "/>
<path style=" stroke:none;fill-rule:nonzero;fill:rgb(36.8417%,50.6779%,70.9798%);fill-opacity:1;" d="M 89.933594 301.324219 C 89.933594 307.992188 79.933594 307.992188 79.933594 301.324219 C 79.933594 294.65625 89.933594 294.65625 89.933594 301.324219 "/>
<path style=" stroke:none;fill-rule:nonzero;fill:rgb(36.8417%,50.6779%,70.9798%);fill-opacity:1;" d="M 171.679688 331.050781 C 171.679688 337.71875 161.679688 337.71875 161.679688 331.050781 C 161.679688 324.382812 171.679688 324.382812 171.679688 331.050781 "/>
<path style=" stroke:none;fill-rule:nonzero;fill:rgb(36.8417%,50.6779%,70.9798%);fill-opacity:1;" d="M 158.8125 315.738281 C 158.8125 322.40625 148.8125 322.40625 148.8125 315.738281 C 148.8125 309.074219 158.8125 309.074219 158.8125 315.738281 "/>
<path style=" stroke:none;fill-rule:nonzero;fill:rgb(36.8417%,50.6779%,70.9798%);fill-opacity:1;" d="M 190.367188 323.09375 C 190.367188 329.757812 180.367188 329.757812 180.367188 323.09375 C 180.367188 316.425781 190.367188 316.425781 190.367188 323.09375 "/>
<path style=" stroke:none;fill-rule:nonzero;fill:rgb(36.8417%,50.6779%,70.9798%);fill-opacity:1;" d="M 195.769531 263.980469 C 195.769531 270.648438 185.769531 270.648438 185.769531 263.980469 C 185.769531 257.316406 195.769531 257.316406 195.769531 263.980469 "/>
<path style=" stroke:none;fill-rule:nonzero;fill:rgb(36.8417%,50.6779%,70.9798%);fill-opacity:1;" d="M 125.890625 300.414062 C 125.890625 307.078125 115.890625 307.078125 115.890625 300.414062 C 115.890625 293.746094 125.890625 293.746094 125.890625 300.414062 "/>
<path style=" stroke:none;fill-rule:nonzero;fill:rgb(36.8417%,50.6779%,70.9798%);fill-opacity:1;" d="M 174.90625 273.148438 C 174.90625 279.816406 164.90625 279.816406 164.90625 273.148438 C 164.90625 266.480469 174.90625 266.480469 174.90625 273.148438 "/>
<path style=" stroke:none;fill-rule:nonzero;fill:rgb(36.8417%,50.6779%,70.9798%);fill-opacity:1;" d="M 144.015625 281.886719 C 144.015625 288.554688 134.015625 288.554688 134.015625 281.886719 C 134.015625 275.222656 144.015625 275.222656 144.015625 281.886719 "/>
<path style=" stroke:none;fill-rule:nonzero;fill:rgb(36.8417%,50.6779%,70.9798%);fill-opacity:1;" d="M 195.074219 303.65625 C 195.074219 310.320312 185.074219 310.320312 185.074219 303.65625 C 185.074219 296.988281 195.074219 296.988281 195.074219 303.65625 "/>
<path style=" stroke:none;fill-rule:nonzero;fill:rgb(36.8417%,50.6779%,70.9798%);fill-opacity:1;" d="M 119.09375 320.480469 C 119.09375 327.144531 109.09375 327.144531 109.09375 320.480469 C 109.09375 313.8125 119.09375 313.8125 119.09375 320.480469 "/>
<path style=" stroke:none;fill-rule:nonzero;fill:rgb(36.8417%,50.6779%,70.9798%);fill-opacity:1;" d="M 141.261719 337.875 C 141.261719 344.539062 131.261719 344.539062 131.261719 337.875 C 131.261719 331.207031 141.261719 331.207031 141.261719 337.875 "/>
<path style=" stroke:none;fill-rule:nonzero;fill:rgb(36.8417%,50.6779%,70.9798%);fill-opacity:1;" d="M 158.441406 295.742188 C 158.441406 302.410156 148.441406 302.410156 148.441406 295.742188 C 148.441406 289.078125 158.441406 289.078125 158.441406 295.742188 "/>
<path style=" stroke:none;fill-rule:nonzero;fill:rgb(36.8417%,50.6779%,70.9798%);fill-opacity:1;" d="M 138.941406 318.007812 C 138.941406 324.675781 128.941406 324.675781 128.941406 318.007812 C 128.941406 311.34375 138.941406 311.34375 138.941406 318.007812 "/>
<path style=" stroke:none;fill-rule:nonzero;fill:rgb(36.8417%,50.6779%,70.9798%);fill-opacity:1;" d="M 178.230469 292.871094 C 178.230469 299.535156 168.230469 299.535156 168.230469 292.871094 C 168.230469 286.203125 178.230469 286.203125 178.230469 292.871094 "/>
</g>
</svg>
