<?xml version="1.0" encoding="UTF-8"?>
<svg xmlns="http://www.w3.org/2000/svg" xmlns:xlink="http://www.w3.org/1999/xlink" width="400pt" height="400pt" viewBox="0 0 400 400" version="1.1">
<g id="surface15496">
<rect x="0" y="0" width="400" height="400" style="fill:rgb(100%,100%,100%);fill-opacity:1;stroke:none;"/>
<path style=" stroke:none;fill-rule:nonzero;fill:rgb(88.0722%,61.1041%,14.2051%);fill-opacity:1;" d="M 237.839844 373.863281 C 237.839844 380.53125 227.839844 380.53125 227.839844 373.863281 C 227.839844 367.199219 237.839844 367.199219 237.839844 373.863281 "/>
<path style=" stroke:none;fill-rule:nonzero;fill:rgb(88.0722%,61.1041%,14.2051%);fill-opacity:1;" d="M 404.390625 207.605469 C 404.390625 214.273438 394.390625 214.273438 394.390625 207.605469 C 394.390625 200.941406 404.390625 200.941406 404.390625 207.605469 "/>
<path style=" stroke:none;fill-rule:nonzero;fill:rgb(88.0722%,61.1041%,14.2051%);fill-opacity:1;" d="M 384.421875 136.496094 C 384.421875 143.160156 374.421875 143.160156 374.421875 136.496094 C 374.421875 129.828125 384.421875 129.828125 384.421875 136.496094 "/>
<path style=" stroke:none;fill-rule:nonzero;fill:rgb(88.0722%,61.1041%,14.2051%);fill-opacity:1;" d="M 393.265625 80.039062 C 393.265625 86.707031 383.265625 86.707031 383.265625 80.039062 C 383.265625 73.375 393.265625 73.375 393.265625 80.039062 "/>
<path style=" stroke:none;fill-rule:nonzero;fill:rgb(88.0722%,61.1041%,14.2051%);fill-opacity:1;" d="M 280.304688 13.816406 C 280.304688 20.480469 270.304688 20.480469 270.304688 13.816406 C 270.304688 7.148438 280.304688 7.148438 280.304688 13.816406 "/>
<path style=" stroke:none;fill-rule:nonzero;fill:rgb(88.0722%,61.1041%,14.2051%);fill-opacity:1;" d="M 386.050781 2.324219 C 386.050781 8.992188 376.050781 8.992188 376.050781 2.324219 C 376.050781 -4.339844 386.050781 -4.339844 386.050781 2.324219 "/>
<path style=" stroke:none;fill-rule:nonzero;fill:rgb(88.0722%,61.1041%,14.2051%);fill-opacity:1;" d="M 323.460938 178.542969 C 323.460938 185.210938 313.460938 185.210938 313.460938 178.542969 C 313.460938 171.875 323.460938 171.875 323.460938 178.542969 "/>
<path style=" stroke:none;fill-rule:nonzero;fill:rgb(88.0722%,61.1041%,14.2051%);fill-opacity:1;" d="M 211.472656 358.359375 C 211.472656 365.023438 201.472656 365.023438 201.472656 358.359375 C 201.472656 351.691406 211.472656 351.691406 211.472656 358.359375 "/>
<path style=" stroke:none;fill-rule:nonzero;fill:rgb(88.0722%,61.1041%,14.2051%);fill-opacity:1;" d="M 15.492188 59.546875 C 15.492188 66.214844 5.492188 66.214844 5.492188 59.546875 C 5.492188 52.882812 15.492188 52.882812 15.492188 59.546875 "/>
<path style=" stroke:none;fill-rule:nonzero;fill:rgb(88.0722%,61.1041%,14.2051%);fill-opacity:1;" d="M 289.882812 66.878906 C 289.882812 73.546875 279.882812 73.546875 279.882812 66.878906 C 279.882812 60.210938 289.882812 60.210938 289.882812 66.878906 "/>
<path style=" stroke:none;fill-rule:nonzero;fill:rgb(88.0722%,61.1041%,14.2051%);fill-opacity:1;" d="M 13.125 104.722656 C 13.125 111.386719 3.125 111.386719 3.125 104.722656 C 3.125 98.054688 13.125 98.054688 13.125 104.722656 "/>
<path style=" stroke:none;fill-rule:nonzero;fill:rgb(88.0722%,61.1041%,14.2051%);fill-opacity:1;" d="M 380.769531 362.898438 C 380.769531 369.566406 370.769531 369.566406 370.769531 362.898438 C 370.769531 356.234375 380.769531 356.234375 380.769531 362.898438 "/>
<path style=" stroke:none;fill-rule:nonzero;fill:rgb(88.0722%,61.1041%,14.2051%);fill-opacity:1;" d="M 401.042969 398.433594 C 401.042969 405.097656 391.042969 405.097656 391.042969 398.433594 C 391.042969 391.765625 401.042969 391.765625 401.042969 398.433594 "/>
<path style=" stroke:none;fill-rule:nonzero;fill:rgb(88.0722%,61.1041%,14.2051%);fill-opacity:1;" d="M 247.816406 1.242188 C 247.816406 7.90625 237.816406 7.90625 237.816406 1.242188 C 237.816406 -5.425781 247.816406 -5.425781 247.816406 1.242188 "/>
<path style=" stroke:none;fill-rule:nonzero;fill:rgb(88.0722%,61.1041%,14.2051%);fill-opacity:1;" d="M 196.21875 118.753906 C 196.21875 125.421875 186.21875 125.421875 186.21875 118.753906 C 186.21875 112.085938 196.21875 112.085938 196.21875 118.753906 "/>
<path style=" stroke:none;fill-rule:nonzero;fill:rgb(88.0722%,61.1041%,14.2051%);fill-opacity:1;" d="M 349.84375 0.53125 C 349.84375 7.199219 339.84375 7.199219 339.84375 0.53125 C 339.84375 -6.136719 349.84375 -6.136719 349.84375 0.53125 "/>
<path style=" stroke:none;fill-rule:nonzero;fill:rgb(88.0722%,61.1041%,14.2051%);fill-opacity:1;" d="M 122.722656 112.335938 C 122.722656 119.003906 112.722656 119.003906 112.722656 112.335938 C 112.722656 105.671875 122.722656 105.671875 122.722656 112.335938 "/>
<path style=" stroke:none;fill-rule:nonzero;fill:rgb(88.0722%,61.1041%,14.2051%);fill-opacity:1;" d="M 311.804688 29.039062 C 311.804688 35.707031 301.804688 35.707031 301.804688 29.039062 C 301.804688 22.375 311.804688 22.375 311.804688 29.039062 "/>
<path style=" stroke:none;fill-rule:nonzero;fill:rgb(88.0722%,61.1041%,14.2051%);fill-opacity:1;" d="M 272.957031 19.332031 C 272.957031 26 262.957031 26 262.957031 19.332031 C 262.957031 12.664062 272.957031 12.664062 272.957031 19.332031 "/>
<path style=" stroke:none;fill-rule:nonzero;fill:rgb(88.0722%,61.1041%,14.2051%);fill-opacity:1;" d="M 231.707031 82.042969 C 231.707031 88.707031 221.707031 88.707031 221.707031 82.042969 C 221.707031 75.375 231.707031 75.375 231.707031 82.042969 "/>
<path style=" stroke:none;fill-rule:nonzero;fill:rgb(88.0722%,61.1041%,14.2051%);fill-opacity:1;" d="M 242.332031 33.554688 C 242.332031 40.222656 232.332031 40.222656 232.332031 33.554688 C 232.332031 26.886719 242.332031 26.886719 242.332031 33.554688 "/>
<path style=" stroke:none;fill-rule:nonzero;fill:rgb(88.0722%,61.1041%,14.2051%);fill-opacity:1;" d="M 323.34375 347.210938 C 323.34375 353.878906 313.34375 353.878906 313.34375 347.210938 C 313.34375 340.546875 323.34375 340.546875 323.34375 347.210938 "/>
<path style=" stroke:none;fill-rule:nonzero;fill:rgb(88.0722%,61.1041%,14.2051%);fill-opacity:1;" d="M 353.714844 45.855469 C 353.714844 52.519531 343.714844 52.519531 343.714844 45.855469 C 343.714844 39.1875 353.714844 39.1875 353.714844 45.855469 "/>
<path style=" stroke:none;fill-rule:nonzero;fill:rgb(88.0722%,61.1041%,14.2051%);fill-opacity:1;" d="M 284.929688 345.128906 C 284.929688 351.796875 274.929688 351.796875 274.929688 345.128906 C 274.929688 338.464844 284.929688 338.464844 284.929688 345.128906 "/>
<path style=" stroke:none;fill-rule:nonzero;fill:rgb(88.0722%,61.1041%,14.2051%);fill-opacity:1;" d="M 361.621094 398.796875 C 361.621094 405.460938 351.621094 405.460938 351.621094 398.796875 C 351.621094 392.128906 361.621094 392.128906 361.621094 398.796875 "/>
<path style=" stroke:none;fill-rule:nonzero;fill:rgb(88.0722%,61.1041%,14.2051%);fill-opacity:1;" d="M 387.507812 40.132812 C 387.507812 46.800781 377.507812 46.800781 377.507812 40.132812 C 377.507812 33.46875 387.507812 33.46875 387.507812 40.132812 "/>
<path style=" stroke:none;fill-rule:nonzero;fill:rgb(88.0722%,61.1041%,14.2051%);fill-opacity:1;" d="M 402.792969 166.320312 C 402.792969 172.988281 392.792969 172.988281 392.792969 166.320312 C 392.792969 159.65625 402.792969 159.65625 402.792969 166.320312 "/>
<path style=" stroke:none;fill-rule:nonzero;fill:rgb(88.0722%,61.1041%,14.2051%);fill-opacity:1;" d="M 208.535156 36.125 C 208.535156 42.789062 198.535156 42.789062 198.535156 36.125 C 198.535156 29.457031 208.535156 29.457031 208.535156 36.125 "/>
<path style=" stroke:none;fill-rule:nonzero;fill:rgb(88.0722%,61.1041%,14.2051%);fill-opacity:1;" d="M 200.730469 2.890625 C 200.730469 9.558594 190.730469 9.558594 190.730469 2.890625 C 190.730469 -3.773438 200.730469 -3.773438 200.730469 2.890625 "/>
<path style=" stroke:none;fill-rule:nonzero;fill:rgb(88.0722%,61.1041%,14.2051%);fill-opacity:1;" d="M 60.957031 36.542969 C 60.957031 43.210938 50.957031 43.210938 50.957031 36.542969 C 50.957031 29.878906 60.957031 29.878906 60.957031 36.542969 "/>
<path style=" stroke:none;fill-rule:nonzero;fill:rgb(88.0722%,61.1041%,14.2051%);fill-opacity:1;" d="M 355.898438 254.988281 C 355.898438 261.652344 345.898438 261.652344 345.898438 254.988281 C 345.898438 248.320312 355.898438 248.320312 355.898438 254.988281 "/>
<path style=" stroke:none;fill-rule:nonzero;fill:rgb(88.0722%,61.1041%,14.2051%);fill-opacity:1;" d="M 353.695312 349.566406 C 353.695312 356.234375 343.695312 356.234375 343.695312 349.566406 C 343.695312 342.898438 353.695312 342.898438 353.695312 349.566406 "/>
<path style=" stroke:none;fill-rule:nonzero;fill:rgb(88.0722%,61.1041%,14.2051%);fill-opacity:1;" d="M 156.265625 103.628906 C 156.265625 110.296875 146.265625 110.296875 146.265625 103.628906 C 146.265625 96.964844 156.265625 96.964844 156.265625 103.628906 "/>
<path style=" stroke:none;fill-rule:nonzero;fill:rgb(88.0722%,61.1041%,14.2051%);fill-opacity:1;" d="M 382.558594 272.8125 C 382.558594 279.480469 372.558594 279.480469 372.558594 272.8125 C 372.558594 266.148438 382.558594 266.148438 382.558594 272.8125 "/>
<path style=" stroke:none;fill-rule:nonzero;fill:rgb(88.0722%,61.1041%,14.2051%);fill-opacity:1;" d="M 44.683594 117.175781 C 44.683594 123.84375 34.683594 123.84375 34.683594 117.175781 C 34.683594 110.511719 44.683594 110.511719 44.683594 117.175781 "/>
<path style=" stroke:none;fill-rule:nonzero;fill:rgb(88.0722%,61.1041%,14.2051%);fill-opacity:1;" d="M 380.121094 318.96875 C 380.121094 325.636719 370.121094 325.636719 370.121094 318.96875 C 370.121094 312.304688 380.121094 312.304688 380.121094 318.96875 "/>
<path style=" stroke:none;fill-rule:nonzero;fill:rgb(88.0722%,61.1041%,14.2051%);fill-opacity:1;" d="M 364.496094 101.980469 C 364.496094 108.648438 354.496094 108.648438 354.496094 101.980469 C 354.496094 95.3125 364.496094 95.3125 364.496094 101.980469 "/>
<path style=" stroke:none;fill-rule:nonzero;fill:rgb(88.0722%,61.1041%,14.2051%);fill-opacity:1;" d="M 297.585938 207.882812 C 297.585938 214.546875 287.585938 214.546875 287.585938 207.882812 C 287.585938 201.214844 297.585938 201.214844 297.585938 207.882812 "/>
<path style=" stroke:none;fill-rule:nonzero;fill:rgb(88.0722%,61.1041%,14.2051%);fill-opacity:1;" d="M 320.597656 232.046875 C 320.597656 238.714844 310.597656 238.714844 310.597656 232.046875 C 310.597656 225.382812 320.597656 225.382812 320.597656 232.046875 "/>
<path style=" stroke:none;fill-rule:nonzero;fill:rgb(88.0722%,61.1041%,14.2051%);fill-opacity:1;" d="M 374.484375 182.148438 C 374.484375 188.816406 364.484375 188.816406 364.484375 182.148438 C 364.484375 175.484375 374.484375 175.484375 374.484375 182.148438 "/>
<path style=" stroke:none;fill-rule:nonzero;fill:rgb(88.0722%,61.1041%,14.2051%);fill-opacity:1;" d="M 338.054688 298.960938 C 338.054688 305.628906 328.054688 305.628906 328.054688 298.960938 C 328.054688 292.292969 338.054688 292.292969 338.054688 298.960938 "/>
<path style=" stroke:none;fill-rule:nonzero;fill:rgb(88.0722%,61.1041%,14.2051%);fill-opacity:1;" d="M 347.8125 209.304688 C 347.8125 215.972656 337.8125 215.972656 337.8125 209.304688 C 337.8125 202.636719 347.8125 202.636719 347.8125 209.304688 "/>
<path style=" stroke:none;fill-rule:nonzero;fill:rgb(88.0722%,61.1041%,14.2051%);fill-opacity:1;" d="M 108.15625 138.914062 C 108.15625 145.582031 98.15625 145.582031 98.15625 138.914062 C 98.15625 132.246094 108.15625 132.246094 108.15625 138.914062 "/>
<path style=" stroke:none;fill-rule:nonzero;fill:rgb(88.0722%,61.1041%,14.2051%);fill-opacity:1;" d="M 271.203125 107.351562 C 271.203125 114.019531 261.203125 114.019531 261.203125 107.351562 C 261.203125 100.683594 271.203125 100.683594 271.203125 107.351562 "/>
<path style=" stroke:none;fill-rule:nonzero;fill:rgb(88.0722%,61.1041%,14.2051%);fill-opacity:1;" d="M 379.941406 233.253906 C 379.941406 239.921875 369.941406 239.921875 369.941406 233.253906 C 369.941406 226.585938 379.941406 226.585938 379.941406 233.253906 "/>
<path style=" stroke:none;fill-rule:nonzero;fill:rgb(88.0722%,61.1041%,14.2051%);fill-opacity:1;" d="M 332.28125 378.019531 C 332.28125 384.6875 322.28125 384.6875 322.28125 378.019531 C 322.28125 371.351562 332.28125 371.351562 332.28125 378.019531 "/>
<path style=" stroke:none;fill-rule:nonzero;fill:rgb(88.0722%,61.1041%,14.2051%);fill-opacity:1;" d="M 32.214844 288.542969 C 32.214844 295.210938 22.214844 295.210938 22.214844 288.542969 C 22.214844 281.878906 32.214844 281.878906 32.214844 288.542969 "/>
<path style=" stroke:none;fill-rule:nonzero;fill:rgb(88.0722%,61.1041%,14.2051%);fill-opacity:1;" d="M 10.054688 315.34375 C 10.054688 322.007812 0.0546875 322.007812 0.0546875 315.34375 C 0.0546875 308.675781 10.054688 308.675781 10.054688 315.34375 "/>
<path style=" stroke:none;fill-rule:nonzero;fill:rgb(88.0722%,61.1041%,14.2051%);fill-opacity:1;" d="M 178.878906 25.597656 C 178.878906 32.261719 168.878906 32.261719 168.878906 25.597656 C 168.878906 18.929688 178.878906 18.929688 178.878906 25.597656 "/>
<path style=" stroke:none;fill-rule:nonzero;fill:rgb(88.0722%,61.1041%,14.2051%);fill-opacity:1;" d="M 93.058594 82.972656 C 93.058594 89.636719 83.058594 89.636719 83.058594 82.972656 C 83.058594 76.304688 93.058594 76.304688 93.058594 82.972656 "/>
<path style=" stroke:none;fill-rule:nonzero;fill:rgb(88.0722%,61.1041%,14.2051%);fill-opacity:1;" d="M 93.460938 24.707031 C 93.460938 31.375 83.460938 31.375 83.460938 24.707031 C 83.460938 18.039062 93.460938 18.039062 93.460938 24.707031 "/>
<path style=" stroke:none;fill-rule:nonzero;fill:rgb(88.0722%,61.1041%,14.2051%);fill-opacity:1;" d="M 322.664062 72.570312 C 322.664062 79.238281 312.664062 79.238281 312.664062 72.570312 C 312.664062 65.90625 322.664062 65.90625 322.664062 72.570312 "/>
<path style=" stroke:none;fill-rule:nonzero;fill:rgb(88.0722%,61.1041%,14.2051%);fill-opacity:1;" d="M 139.269531 21.234375 C 139.269531 27.898438 129.269531 27.898438 129.269531 21.234375 C 129.269531 14.566406 139.269531 14.566406 139.269531 21.234375 "/>
<path style=" stroke:none;fill-rule:nonzero;fill:rgb(88.0722%,61.1041%,14.2051%);fill-opacity:1;" d="M 259.191406 147.707031 C 259.191406 154.371094 249.191406 154.371094 249.191406 147.707031 C 249.191406 141.039062 259.191406 141.039062 259.191406 147.707031 "/>
<path style=" stroke:none;fill-rule:nonzero;fill:rgb(88.0722%,61.1041%,14.2051%);fill-opacity:1;" d="M 156.644531 50.769531 C 156.644531 57.4375 146.644531 57.4375 146.644531 50.769531 C 146.644531 44.101562 156.644531 44.101562 156.644531 50.769531 "/>
<path style=" stroke:none;fill-rule:nonzero;fill:rgb(88.0722%,61.1041%,14.2051%);fill-opacity:1;" d="M 129.976562 70.367188 C 129.976562 77.03125 119.976562 77.03125 119.976562 70.367188 C 119.976562 63.699219 129.976562 63.699219 129.976562 70.367188 "/>
<path style=" stroke:none;fill-rule:nonzero;fill:rgb(88.0722%,61.1041%,14.2051%);fill-opacity:1;" d="M 81.328125 318.613281 C 81.328125 325.28125 71.328125 325.28125 71.328125 318.613281 C 71.328125 311.945312 81.328125 311.945312 81.328125 318.613281 "/>
<path style=" stroke:none;fill-rule:nonzero;fill:rgb(88.0722%,61.1041%,14.2051%);fill-opacity:1;" d="M 35.453125 253.199219 C 35.453125 259.863281 25.453125 259.863281 25.453125 253.199219 C 25.453125 246.53125 35.453125 246.53125 35.453125 253.199219 "/>
<path style=" stroke:none;fill-rule:nonzero;fill:rgb(88.0722%,61.1041%,14.2051%);fill-opacity:1;" d="M 39.308594 8.480469 C 39.308594 15.144531 29.308594 15.144531 29.308594 8.480469 C 29.308594 1.8125 39.308594 1.8125 39.308594 8.480469 "/>
<path style=" stroke:none;fill-rule:nonzero;fill:rgb(88.0722%,61.1041%,14.2051%);fill-opacity:1;" d="M 76.84375 164.480469 C 76.84375 171.148438 66.84375 171.148438 66.84375 164.480469 C 66.84375 157.8125 76.84375 157.8125 76.84375 164.480469 "/>
<path style=" stroke:none;fill-rule:nonzero;fill:rgb(88.0722%,61.1041%,14.2051%);fill-opacity:1;" d="M 32.011719 290.015625 C 32.011719 296.683594 22.011719 296.683594 22.011719 290.015625 C 22.011719 283.351562 32.011719 283.351562 32.011719 290.015625 "/>
<path style=" stroke:none;fill-rule:nonzero;fill:rgb(88.0722%,61.1041%,14.2051%);fill-opacity:1;" d="M 59.671875 69.234375 C 59.671875 75.902344 49.671875 75.902344 49.671875 69.234375 C 49.671875 62.566406 59.671875 62.566406 59.671875 69.234375 "/>
<path style=" stroke:none;fill-rule:nonzero;fill:rgb(88.0722%,61.1041%,14.2051%);fill-opacity:1;" d="M 302.226562 288.570312 C 302.226562 295.238281 292.226562 295.238281 292.226562 288.570312 C 292.226562 281.90625 302.226562 281.90625 302.226562 288.570312 "/>
<path style=" stroke:none;fill-rule:nonzero;fill:rgb(88.0722%,61.1041%,14.2051%);fill-opacity:1;" d="M 214.648438 91.394531 C 214.648438 98.058594 204.648438 98.058594 204.648438 91.394531 C 204.648438 84.726562 214.648438 84.726562 214.648438 91.394531 "/>
<path style=" stroke:none;fill-rule:nonzero;fill:rgb(88.0722%,61.1041%,14.2051%);fill-opacity:1;" d="M 181.722656 76.179688 C 181.722656 82.84375 171.722656 82.84375 171.722656 76.179688 C 171.722656 69.511719 181.722656 69.511719 181.722656 76.179688 "/>
<path style=" stroke:none;fill-rule:nonzero;fill:rgb(88.0722%,61.1041%,14.2051%);fill-opacity:1;" d="M 300.164062 123.4375 C 300.164062 130.101562 290.164062 130.101562 290.164062 123.4375 C 290.164062 116.769531 300.164062 116.769531 300.164062 123.4375 "/>
<path style=" stroke:none;fill-rule:nonzero;fill:rgb(88.0722%,61.1041%,14.2051%);fill-opacity:1;" d="M 152.859375 140.273438 C 152.859375 146.9375 142.859375 146.9375 142.859375 140.273438 C 142.859375 133.605469 152.859375 133.605469 152.859375 140.273438 "/>
<path style=" stroke:none;fill-rule:nonzero;fill:rgb(88.0722%,61.1041%,14.2051%);fill-opacity:1;" d="M 5.589844 185.640625 C 5.589844 192.304688 -4.410156 192.304688 -4.410156 185.640625 C -4.410156 178.972656 5.589844 178.972656 5.589844 185.640625 "/>
<path style=" stroke:none;fill-rule:nonzero;fill:rgb(88.0722%,61.1041%,14.2051%);fill-opacity:1;" d="M 172.847656 384.699219 C 172.847656 391.363281 162.847656 391.363281 162.847656 384.699219 C 162.847656 378.03125 172.847656 378.03125 172.847656 384.699219 "/>
<path style=" stroke:none;fill-rule:nonzero;fill:rgb(88.0722%,61.1041%,14.2051%);fill-opacity:1;" d="M 188.6875 231.550781 C 188.6875 238.21875 178.6875 238.21875 178.6875 231.550781 C 178.6875 224.886719 188.6875 224.886719 188.6875 231.550781 "/>
<path style=" stroke:none;fill-rule:nonzero;fill:rgb(88.0722%,61.1041%,14.2051%);fill-opacity:1;" d="M 349.191406 145.410156 C 349.191406 152.078125 339.191406 152.078125 339.191406 145.410156 C 339.191406 138.746094 349.191406 138.746094 349.191406 145.410156 "/>
<path style=" stroke:none;fill-rule:nonzero;fill:rgb(88.0722%,61.1041%,14.2051%);fill-opacity:1;" d="M 50.796875 315.757812 C 50.796875 322.421875 40.796875 322.421875 40.796875 315.757812 C 40.796875 309.089844 50.796875 309.089844 50.796875 315.757812 "/>
<path style=" stroke:none;fill-rule:nonzero;fill:rgb(88.0722%,61.1041%,14.2051%);fill-opacity:1;" d="M 5.027344 271.824219 C 5.027344 278.492188 -4.972656 278.492188 -4.972656 271.824219 C -4.972656 265.15625 5.027344 265.15625 5.027344 271.824219 "/>
<path style=" stroke:none;fill-rule:nonzero;fill:rgb(88.0722%,61.1041%,14.2051%);fill-opacity:1;" d="M 72.382812 134.066406 C 72.382812 140.734375 62.382812 140.734375 62.382812 134.066406 C 62.382812 127.398438 72.382812 127.398438 72.382812 134.066406 "/>
<path style=" stroke:none;fill-rule:nonzero;fill:rgb(88.0722%,61.1041%,14.2051%);fill-opacity:1;" d="M 240.464844 328.472656 C 240.464844 335.140625 230.464844 335.140625 230.464844 328.472656 C 230.464844 321.808594 240.464844 321.808594 240.464844 328.472656 "/>
<path style=" stroke:none;fill-rule:nonzero;fill:rgb(88.0722%,61.1041%,14.2051%);fill-opacity:1;" d="M 289.164062 383.585938 C 289.164062 390.253906 279.164062 390.253906 279.164062 383.585938 C 279.164062 376.917969 289.164062 376.917969 289.164062 383.585938 "/>
<path style=" stroke:none;fill-rule:nonzero;fill:rgb(88.0722%,61.1041%,14.2051%);fill-opacity:1;" d="M 13.40625 379.042969 C 13.40625 385.710938 3.40625 385.710938 3.40625 379.042969 C 3.40625 372.378906 13.40625 372.378906 13.40625 379.042969 "/>
<path style=" stroke:none;fill-rule:nonzero;fill:rgb(88.0722%,61.1041%,14.2051%);fill-opacity:1;" d="M 58.132812 393.078125 C 58.132812 399.742188 48.132812 399.742188 48.132812 393.078125 C 48.132812 386.410156 58.132812 386.410156 58.132812 393.078125 "/>
<path style=" stroke:none;fill-rule:nonzero;fill:rgb(88.0722%,61.1041%,14.2051%);fill-opacity:1;" d="M 32.578125 340.085938 C 32.578125 346.75 22.578125 346.75 22.578125 340.085938 C 22.578125 333.417969 32.578125 333.417969 32.578125 340.085938 "/>
<path style=" stroke:none;fill-rule:nonzero;fill:rgb(88.0722%,61.1041%,14.2051%);fill-opacity:1;" d="M 156.605469 186.144531 C 156.605469 192.8125 146.605469 192.8125 146.605469 186.144531 C 146.605469 179.480469 156.605469 179.480469 156.605469 186.144531 "/>
<path style=" stroke:none;fill-rule:nonzero;fill:rgb(88.0722%,61.1041%,14.2051%);fill-opacity:1;" d="M 261.726562 300.222656 C 261.726562 306.886719 251.726562 306.886719 251.726562 300.222656 C 251.726562 293.554688 261.726562 293.554688 261.726562 300.222656 "/>
<path style=" stroke:none;fill-rule:nonzero;fill:rgb(88.0722%,61.1041%,14.2051%);fill-opacity:1;" d="M 237.414062 175.273438 C 237.414062 181.9375 227.414062 181.9375 227.414062 175.273438 C 227.414062 168.605469 237.414062 168.605469 237.414062 175.273438 "/>
<path style=" stroke:none;fill-rule:nonzero;fill:rgb(88.0722%,61.1041%,14.2051%);fill-opacity:1;" d="M 329.589844 109.136719 C 329.589844 115.804688 319.589844 115.804688 319.589844 109.136719 C 319.589844 102.46875 329.589844 102.46875 329.589844 109.136719 "/>
<path style=" stroke:none;fill-rule:nonzero;fill:rgb(88.0722%,61.1041%,14.2051%);fill-opacity:1;" d="M 75.644531 209.402344 C 75.644531 216.066406 65.644531 216.066406 65.644531 209.402344 C 65.644531 202.734375 75.644531 202.734375 75.644531 209.402344 "/>
<path style=" stroke:none;fill-rule:nonzero;fill:rgb(88.0722%,61.1041%,14.2051%);fill-opacity:1;" d="M 227.5625 136.222656 C 227.5625 142.886719 217.5625 142.886719 217.5625 136.222656 C 217.5625 129.554688 227.5625 129.554688 227.5625 136.222656 "/>
<path style=" stroke:none;fill-rule:nonzero;fill:rgb(88.0722%,61.1041%,14.2051%);fill-opacity:1;" d="M 122.105469 189.242188 C 122.105469 195.910156 112.105469 195.910156 112.105469 189.242188 C 112.105469 182.578125 122.105469 182.578125 122.105469 189.242188 "/>
<path style=" stroke:none;fill-rule:nonzero;fill:rgb(88.0722%,61.1041%,14.2051%);fill-opacity:1;" d="M 6.515625 238.8125 C 6.515625 245.480469 -3.484375 245.480469 -3.484375 238.8125 C -3.484375 232.144531 6.515625 232.144531 6.515625 238.8125 "/>
<path style=" stroke:none;fill-rule:nonzero;fill:rgb(88.0722%,61.1041%,14.2051%);fill-opacity:1;" d="M 205.285156 202.53125 C 205.285156 209.199219 195.285156 209.199219 195.285156 202.53125 C 195.285156 195.867188 205.285156 195.867188 205.285156 202.53125 "/>
<path style=" stroke:none;fill-rule:nonzero;fill:rgb(88.0722%,61.1041%,14.2051%);fill-opacity:1;" d="M 271.019531 190.585938 C 271.019531 197.253906 261.019531 197.253906 261.019531 190.585938 C 261.019531 183.917969 271.019531 183.917969 271.019531 190.585938 "/>
<path style=" stroke:none;fill-rule:nonzero;fill:rgb(88.0722%,61.1041%,14.2051%);fill-opacity:1;" d="M 22.71875 150.476562 C 22.71875 157.140625 12.71875 157.140625 12.71875 150.476562 C 12.71875 143.808594 22.71875 143.808594 22.71875 150.476562 "/>
<path style=" stroke:none;fill-rule:nonzero;fill:rgb(88.0722%,61.1041%,14.2051%);fill-opacity:1;" d="M 288.558594 154.082031 C 288.558594 160.746094 278.558594 160.746094 278.558594 154.082031 C 278.558594 147.414062 288.558594 147.414062 288.558594 154.082031 "/>
<path style=" stroke:none;fill-rule:nonzero;fill:rgb(88.0722%,61.1041%,14.2051%);fill-opacity:1;" d="M 81.699219 354.054688 C 81.699219 360.722656 71.699219 360.722656 71.699219 354.054688 C 71.699219 347.386719 81.699219 347.386719 81.699219 354.054688 "/>
<path style=" stroke:none;fill-rule:nonzero;fill:rgb(88.0722%,61.1041%,14.2051%);fill-opacity:1;" d="M 199.101562 168.28125 C 199.101562 174.949219 189.101562 174.949219 189.101562 168.28125 C 189.101562 161.613281 199.101562 161.613281 199.101562 168.28125 "/>
<path style=" stroke:none;fill-rule:nonzero;fill:rgb(88.0722%,61.1041%,14.2051%);fill-opacity:1;" d="M 260.820312 260.308594 C 260.820312 266.972656 250.820312 266.972656 250.820312 260.308594 C 250.820312 253.640625 260.820312 253.640625 260.820312 260.308594 "/>
<path style=" stroke:none;fill-rule:nonzero;fill:rgb(88.0722%,61.1041%,14.2051%);fill-opacity:1;" d="M 35.621094 194.984375 C 35.621094 201.652344 25.621094 201.652344 25.621094 194.984375 C 25.621094 188.316406 35.621094 188.316406 35.621094 194.984375 "/>
<path style=" stroke:none;fill-rule:nonzero;fill:rgb(88.0722%,61.1041%,14.2051%);fill-opacity:1;" d="M 115.007812 398.671875 C 115.007812 405.339844 105.007812 405.339844 105.007812 398.671875 C 105.007812 392.007812 115.007812 392.007812 115.007812 398.671875 "/>
<path style=" stroke:none;fill-rule:nonzero;fill:rgb(88.0722%,61.1041%,14.2051%);fill-opacity:1;" d="M 148.539062 336.757812 C 148.539062 343.425781 138.539062 343.425781 138.539062 336.757812 C 138.539062 330.089844 148.539062 330.089844 148.539062 336.757812 "/>
<path style=" stroke:none;fill-rule:nonzero;fill:rgb(88.0722%,61.1041%,14.2051%);fill-opacity:1;" d="M 281.320312 235.863281 C 281.320312 242.53125 271.320312 242.53125 271.320312 235.863281 C 271.320312 229.195312 281.320312 229.195312 281.320312 235.863281 "/>
<path style=" stroke:none;fill-rule:nonzero;fill:rgb(88.0722%,61.1041%,14.2051%);fill-opacity:1;" d="M 118.441406 348.035156 C 118.441406 354.703125 108.441406 354.703125 108.441406 348.035156 C 108.441406 341.371094 118.441406 341.371094 118.441406 348.035156 "/>
<path style=" stroke:none;fill-rule:nonzero;fill:rgb(88.0722%,61.1041%,14.2051%);fill-opacity:1;" d="M 31.039062 210.683594 C 31.039062 217.347656 21.039062 217.347656 21.039062 210.683594 C 21.039062 204.015625 31.039062 204.015625 31.039062 210.683594 "/>
<path style=" stroke:none;fill-rule:nonzero;fill:rgb(88.0722%,61.1041%,14.2051%);fill-opacity:1;" d="M 153.097656 286.296875 C 153.097656 292.960938 143.097656 292.960938 143.097656 286.296875 C 143.097656 279.628906 153.097656 279.628906 153.097656 286.296875 "/>
<path style=" stroke:none;fill-rule:nonzero;fill:rgb(88.0722%,61.1041%,14.2051%);fill-opacity:1;" d="M 138.402344 371.867188 C 138.402344 378.535156 128.402344 378.535156 128.402344 371.867188 C 128.402344 365.199219 138.402344 365.199219 138.402344 371.867188 "/>
<path style=" stroke:none;fill-rule:nonzero;fill:rgb(88.0722%,61.1041%,14.2051%);fill-opacity:1;" d="M 230.183594 228.304688 C 230.183594 234.972656 220.183594 234.972656 220.183594 228.304688 C 220.183594 221.640625 230.183594 221.640625 230.183594 228.304688 "/>
<path style=" stroke:none;fill-rule:nonzero;fill:rgb(88.0722%,61.1041%,14.2051%);fill-opacity:1;" d="M 107.148438 300.222656 C 107.148438 306.890625 97.148438 306.890625 97.148438 300.222656 C 97.148438 293.554688 107.148438 293.554688 107.148438 300.222656 "/>
<path style=" stroke:none;fill-rule:nonzero;fill:rgb(88.0722%,61.1041%,14.2051%);fill-opacity:1;" d="M 195.074219 303.65625 C 195.074219 310.320312 185.074219 310.320312 185.074219 303.65625 C 185.074219 296.988281 195.074219 296.988281 195.074219 303.65625 "/>
<path style=" stroke:none;fill-rule:nonzero;fill:rgb(88.0722%,61.1041%,14.2051%);fill-opacity:1;" d="M 179.214844 341.160156 C 179.214844 347.824219 169.214844 347.824219 169.214844 341.160156 C 169.214844 334.492188 179.214844 334.492188 179.214844 341.160156 "/>
<path style=" stroke:none;fill-rule:nonzero;fill:rgb(88.0722%,61.1041%,14.2051%);fill-opacity:1;" d="M 113.621094 248.371094 C 113.621094 255.035156 103.621094 255.035156 103.621094 248.371094 C 103.621094 241.703125 113.621094 241.703125 113.621094 248.371094 "/>
<path style=" stroke:none;fill-rule:nonzero;fill:rgb(88.0722%,61.1041%,14.2051%);fill-opacity:1;" d="M 146.113281 234.351562 C 146.113281 241.019531 136.113281 241.019531 136.113281 234.351562 C 136.113281 227.683594 146.113281 227.683594 146.113281 234.351562 "/>
<path style=" stroke:none;fill-rule:nonzero;fill:rgb(88.0722%,61.1041%,14.2051%);fill-opacity:1;" d="M 226.253906 299.128906 C 226.253906 305.796875 216.253906 305.796875 216.253906 299.128906 C 216.253906 292.460938 226.253906 292.460938 226.253906 299.128906 "/>
<path style=" stroke:none;fill-rule:nonzero;fill:rgb(88.0722%,61.1041%,14.2051%);fill-opacity:1;" d="M 208.636719 265.789062 C 208.636719 272.457031 198.636719 272.457031 198.636719 265.789062 C 198.636719 259.125 208.636719 259.125 208.636719 265.789062 "/>
<path style=" stroke:none;fill-rule:nonzero;fill:rgb(88.0722%,61.1041%,14.2051%);fill-opacity:1;" d="M 80.453125 264.566406 C 80.453125 271.230469 70.453125 271.230469 70.453125 264.566406 C 70.453125 257.898438 80.453125 257.898438 80.453125 264.566406 "/>
</g>
</svg>
