<?xml version="1.0" encoding="UTF-8"?>
<svg xmlns="http://www.w3.org/2000/svg" xmlns:xlink="http://www.w3.org/1999/xlink" width="210pt" height="180pt" viewBox="0 0 210 180" version="1.1">
<defs>
<g>
<symbol overflow="visible" id="id1">
<path style="stroke:none;" d="M 0.59375 2.125 L 0.59375 -8.46875 L 6.59375 -8.46875 L 6.59375 2.125 Z M 1.265625 1.453125 L 5.9375 1.453125 L 5.9375 -7.78125 L 1.265625 -7.78125 Z M 1.265625 1.453125 "/>
</symbol>
<symbol overflow="visible" id="id2">
<path style="stroke:none;" d="M 7.734375 -8.078125 L 7.734375 -6.828125 C 7.328125 -7.203125 6.898438 -7.476562 6.453125 -7.65625 C 6.003906 -7.84375 5.523438 -7.9375 5.015625 -7.9375 C 4.015625 -7.9375 3.25 -7.628906 2.71875 -7.015625 C 2.1875 -6.398438 1.921875 -5.515625 1.921875 -4.359375 C 1.921875 -3.210938 2.1875 -2.332031 2.71875 -1.71875 C 3.25 -1.101562 4.015625 -0.796875 5.015625 -0.796875 C 5.523438 -0.796875 6.003906 -0.890625 6.453125 -1.078125 C 6.898438 -1.265625 7.328125 -1.539062 7.734375 -1.90625 L 7.734375 -0.671875 C 7.316406 -0.390625 6.875 -0.175781 6.40625 -0.03125 C 5.945312 0.101562 5.460938 0.171875 4.953125 0.171875 C 3.617188 0.171875 2.570312 -0.234375 1.8125 -1.046875 C 1.050781 -1.859375 0.671875 -2.960938 0.671875 -4.359375 C 0.671875 -5.765625 1.050781 -6.875 1.8125 -7.6875 C 2.570312 -8.5 3.617188 -8.90625 4.953125 -8.90625 C 5.472656 -8.90625 5.960938 -8.832031 6.421875 -8.6875 C 6.890625 -8.550781 7.328125 -8.347656 7.734375 -8.078125 Z M 7.734375 -8.078125 "/>
</symbol>
<symbol overflow="visible" id="id3">
<path style="stroke:none;" d="M 3.671875 -5.8125 C 3.097656 -5.8125 2.640625 -5.582031 2.296875 -5.125 C 1.960938 -4.675781 1.796875 -4.0625 1.796875 -3.28125 C 1.796875 -2.488281 1.960938 -1.867188 2.296875 -1.421875 C 2.628906 -0.972656 3.085938 -0.75 3.671875 -0.75 C 4.242188 -0.75 4.695312 -0.972656 5.03125 -1.421875 C 5.375 -1.878906 5.546875 -2.5 5.546875 -3.28125 C 5.546875 -4.050781 5.375 -4.664062 5.03125 -5.125 C 4.695312 -5.582031 4.242188 -5.8125 3.671875 -5.8125 Z M 3.671875 -6.71875 C 4.609375 -6.71875 5.34375 -6.410156 5.875 -5.796875 C 6.414062 -5.191406 6.6875 -4.351562 6.6875 -3.28125 C 6.6875 -2.207031 6.414062 -1.363281 5.875 -0.75 C 5.34375 -0.132812 4.609375 0.171875 3.671875 0.171875 C 2.734375 0.171875 1.992188 -0.132812 1.453125 -0.75 C 0.921875 -1.363281 0.65625 -2.207031 0.65625 -3.28125 C 0.65625 -4.351562 0.921875 -5.191406 1.453125 -5.796875 C 1.992188 -6.410156 2.734375 -6.71875 3.671875 -6.71875 Z M 3.671875 -6.71875 "/>
</symbol>
<symbol overflow="visible" id="id4">
<path style="stroke:none;" d="M 6.59375 -3.96875 L 6.59375 0 L 5.515625 0 L 5.515625 -3.921875 C 5.515625 -4.546875 5.390625 -5.007812 5.140625 -5.3125 C 4.898438 -5.625 4.539062 -5.78125 4.0625 -5.78125 C 3.476562 -5.78125 3.015625 -5.59375 2.671875 -5.21875 C 2.335938 -4.851562 2.171875 -4.347656 2.171875 -3.703125 L 2.171875 0 L 1.09375 0 L 1.09375 -6.5625 L 2.171875 -6.5625 L 2.171875 -5.546875 C 2.429688 -5.941406 2.734375 -6.234375 3.078125 -6.421875 C 3.429688 -6.617188 3.835938 -6.71875 4.296875 -6.71875 C 5.046875 -6.71875 5.613281 -6.484375 6 -6.015625 C 6.394531 -5.554688 6.59375 -4.875 6.59375 -3.96875 Z M 6.59375 -3.96875 "/>
</symbol>
<symbol overflow="visible" id="id5">
<path style="stroke:none;" d="M 0.359375 -6.5625 L 1.5 -6.5625 L 3.546875 -1.0625 L 5.609375 -6.5625 L 6.75 -6.5625 L 4.28125 0 L 2.8125 0 Z M 0.359375 -6.5625 "/>
</symbol>
<symbol overflow="visible" id="id6">
<path style="stroke:none;" d="M 6.75 -3.546875 L 6.75 -3.03125 L 1.78125 -3.03125 C 1.832031 -2.28125 2.054688 -1.710938 2.453125 -1.328125 C 2.859375 -0.941406 3.414062 -0.75 4.125 -0.75 C 4.539062 -0.75 4.941406 -0.796875 5.328125 -0.890625 C 5.722656 -0.992188 6.113281 -1.148438 6.5 -1.359375 L 6.5 -0.328125 C 6.101562 -0.171875 5.703125 -0.0507812 5.296875 0.03125 C 4.890625 0.125 4.476562 0.171875 4.0625 0.171875 C 3.019531 0.171875 2.191406 -0.128906 1.578125 -0.734375 C 0.960938 -1.347656 0.65625 -2.175781 0.65625 -3.21875 C 0.65625 -4.289062 0.945312 -5.140625 1.53125 -5.765625 C 2.113281 -6.398438 2.894531 -6.71875 3.875 -6.71875 C 4.757812 -6.71875 5.457031 -6.429688 5.96875 -5.859375 C 6.488281 -5.296875 6.75 -4.523438 6.75 -3.546875 Z M 5.671875 -3.875 C 5.660156 -4.457031 5.492188 -4.925781 5.171875 -5.28125 C 4.847656 -5.632812 4.421875 -5.8125 3.890625 -5.8125 C 3.285156 -5.8125 2.800781 -5.640625 2.4375 -5.296875 C 2.082031 -4.953125 1.878906 -4.472656 1.828125 -3.859375 Z M 5.671875 -3.875 "/>
</symbol>
<symbol overflow="visible" id="id7">
<path style="stroke:none;" d="M 6.59375 -6.5625 L 4.21875 -3.375 L 6.703125 0 L 5.4375 0 L 3.53125 -2.578125 L 1.625 0 L 0.34375 0 L 2.890625 -3.4375 L 0.5625 -6.5625 L 1.828125 -6.5625 L 3.578125 -4.21875 L 5.3125 -6.5625 Z M 6.59375 -6.5625 "/>
</symbol>
<symbol overflow="visible" id="id8">
<path style="stroke:none;" d=""/>
</symbol>
<symbol overflow="visible" id="id9">
<path style="stroke:none;" d="M 6.59375 -3.96875 L 6.59375 0 L 5.515625 0 L 5.515625 -3.921875 C 5.515625 -4.546875 5.390625 -5.007812 5.140625 -5.3125 C 4.898438 -5.625 4.539062 -5.78125 4.0625 -5.78125 C 3.476562 -5.78125 3.015625 -5.59375 2.671875 -5.21875 C 2.335938 -4.851562 2.171875 -4.347656 2.171875 -3.703125 L 2.171875 0 L 1.09375 0 L 1.09375 -9.125 L 2.171875 -9.125 L 2.171875 -5.546875 C 2.429688 -5.941406 2.734375 -6.234375 3.078125 -6.421875 C 3.429688 -6.617188 3.835938 -6.71875 4.296875 -6.71875 C 5.046875 -6.71875 5.613281 -6.484375 6 -6.015625 C 6.394531 -5.554688 6.59375 -4.875 6.59375 -3.96875 Z M 6.59375 -3.96875 "/>
</symbol>
<symbol overflow="visible" id="id10">
<path style="stroke:none;" d="M 1.015625 -2.59375 L 1.015625 -6.5625 L 2.09375 -6.5625 L 2.09375 -2.625 C 2.09375 -2.007812 2.210938 -1.546875 2.453125 -1.234375 C 2.703125 -0.921875 3.066406 -0.765625 3.546875 -0.765625 C 4.128906 -0.765625 4.585938 -0.945312 4.921875 -1.3125 C 5.265625 -1.6875 5.4375 -2.195312 5.4375 -2.84375 L 5.4375 -6.5625 L 6.515625 -6.5625 L 6.515625 0 L 5.4375 0 L 5.4375 -1.015625 C 5.175781 -0.609375 4.875 -0.304688 4.53125 -0.109375 C 4.1875 0.078125 3.785156 0.171875 3.328125 0.171875 C 2.566406 0.171875 1.988281 -0.0625 1.59375 -0.53125 C 1.207031 -1 1.015625 -1.6875 1.015625 -2.59375 Z M 3.734375 -6.71875 Z M 3.734375 -6.71875 "/>
</symbol>
<symbol overflow="visible" id="id11">
<path style="stroke:none;" d="M 1.125 -9.125 L 2.203125 -9.125 L 2.203125 0 L 1.125 0 Z M 1.125 -9.125 "/>
</symbol>
</g>
</defs>
<g id="id12">
<path style="fill:none;stroke-width:1;stroke-linecap:butt;stroke-linejoin:miter;stroke:rgb(88.0722%,61.1041%,14.2051%);stroke-opacity:1;stroke-miterlimit:10;" d="M 42.828125 45.539062 L 28.347656 56.867188 M 40.523438 50.386719 L 35.589844 51.203125 L 37.566406 46.609375 " transform="matrix(1,0,0,1,110,90)"/>
<path style=" stroke:none;fill-rule:nonzero;fill:rgb(92.2526%,38.5626%,20.9179%);fill-opacity:1;" d="M 154.828125 135.539062 C 154.828125 138.207031 150.828125 138.207031 150.828125 135.539062 C 150.828125 132.871094 154.828125 132.871094 154.828125 135.539062 "/>
<path style="fill:none;stroke-width:1;stroke-linecap:butt;stroke-linejoin:miter;stroke:rgb(88.0722%,61.1041%,14.2051%);stroke-opacity:1;stroke-miterlimit:10;" d="M 28.347656 56.867188 L -52.667969 79.703125 M -7.285156 69.402344 L -12.160156 68.285156 L -8.585938 64.789062 " transform="matrix(1,0,0,1,110,90)"/>
<path style=" stroke:none;fill-rule:nonzero;fill:rgb(92.2526%,38.5626%,20.9179%);fill-opacity:1;" d="M 140.347656 146.867188 C 140.347656 149.53125 136.347656 149.53125 136.347656 146.867188 C 136.347656 144.199219 140.347656 144.199219 140.347656 146.867188 "/>
<path style="fill:none;stroke-width:1;stroke-linecap:butt;stroke-linejoin:miter;stroke:rgb(88.0722%,61.1041%,14.2051%);stroke-opacity:1;stroke-miterlimit:10;" d="M -52.667969 79.703125 L -89.972656 34.113281 M -70.394531 61.824219 L -71.320312 56.910156 L -66.6875 58.789062 " transform="matrix(1,0,0,1,110,90)"/>
<path style=" stroke:none;fill-rule:nonzero;fill:rgb(92.2526%,38.5626%,20.9179%);fill-opacity:1;" d="M 59.332031 169.703125 C 59.332031 172.371094 55.332031 172.371094 55.332031 169.703125 C 55.332031 167.039062 59.332031 167.039062 59.332031 169.703125 "/>
<path style="fill:none;stroke-width:1;stroke-linecap:butt;stroke-linejoin:miter;stroke:rgb(88.0722%,61.1041%,14.2051%);stroke-opacity:1;stroke-miterlimit:10;" d="M -89.972656 34.113281 L -94.917969 -22.710938 M -94.453125 10.28125 L -92.445312 5.703125 L -89.679688 9.867188 " transform="matrix(1,0,0,1,110,90)"/>
<path style=" stroke:none;fill-rule:nonzero;fill:rgb(92.2526%,38.5626%,20.9179%);fill-opacity:1;" d="M 22.027344 124.113281 C 22.027344 126.78125 18.027344 126.78125 18.027344 124.113281 C 18.027344 121.449219 22.027344 121.449219 22.027344 124.113281 "/>
<path style="fill:none;stroke-width:1;stroke-linecap:butt;stroke-linejoin:miter;stroke:rgb(88.0722%,61.1041%,14.2051%);stroke-opacity:1;stroke-miterlimit:10;" d="M -94.917969 -22.710938 L -55.855469 -48.503906 M -80.371094 -35.191406 L -75.386719 -35.605469 L -77.726562 -31.1875 " transform="matrix(1,0,0,1,110,90)"/>
<path style=" stroke:none;fill-rule:nonzero;fill:rgb(92.2526%,38.5626%,20.9179%);fill-opacity:1;" d="M 17.082031 67.289062 C 17.082031 69.957031 13.082031 69.957031 13.082031 67.289062 C 13.082031 64.625 17.082031 64.625 17.082031 67.289062 "/>
<path style="fill:none;stroke-width:1;stroke-linecap:butt;stroke-linejoin:miter;stroke:rgb(88.0722%,61.1041%,14.2051%);stroke-opacity:1;stroke-miterlimit:10;" d="M -55.855469 -48.503906 L 7.949219 -73.414062 M -28.910156 -61.597656 L -23.953125 -60.960938 L -27.167969 -57.128906 " transform="matrix(1,0,0,1,110,90)"/>
<path style=" stroke:none;fill-rule:nonzero;fill:rgb(92.2526%,38.5626%,20.9179%);fill-opacity:1;" d="M 56.144531 41.496094 C 56.144531 44.160156 52.144531 44.160156 52.144531 41.496094 C 52.144531 38.828125 56.144531 38.828125 56.144531 41.496094 "/>
<path style="fill:none;stroke-width:1;stroke-linecap:butt;stroke-linejoin:miter;stroke:rgb(88.0722%,61.1041%,14.2051%);stroke-opacity:1;stroke-miterlimit:10;" d="M 7.949219 -73.414062 L 40.804688 -47.578125 M 22.410156 -65.09375 L 24.375 -60.496094 L 19.445312 -61.324219 " transform="matrix(1,0,0,1,110,90)"/>
<path style=" stroke:none;fill-rule:nonzero;fill:rgb(92.2526%,38.5626%,20.9179%);fill-opacity:1;" d="M 119.949219 16.585938 C 119.949219 19.253906 115.949219 19.253906 115.949219 16.585938 C 115.949219 13.921875 119.949219 13.921875 119.949219 16.585938 "/>
<path style="fill:none;stroke-width:1;stroke-linecap:butt;stroke-linejoin:miter;stroke:rgb(88.0722%,61.1041%,14.2051%);stroke-opacity:1;stroke-miterlimit:10;" d="M 40.804688 -47.578125 L 70.070312 -4.226562 M 54.96875 -30.878906 L 55.4375 -25.902344 L 50.992188 -28.199219 " transform="matrix(1,0,0,1,110,90)"/>
<path style=" stroke:none;fill-rule:nonzero;fill:rgb(92.2526%,38.5626%,20.9179%);fill-opacity:1;" d="M 152.804688 42.421875 C 152.804688 45.085938 148.804688 45.085938 148.804688 42.421875 C 148.804688 39.753906 152.804688 39.753906 152.804688 42.421875 "/>
<path style="fill:none;stroke-width:1;stroke-linecap:butt;stroke-linejoin:miter;stroke:rgb(88.0722%,61.1041%,14.2051%);stroke-opacity:1;stroke-miterlimit:10;" d="M 70.070312 -4.226562 L 70.648438 13.765625 M 72.613281 0.308594 L 70.359375 4.769531 L 67.820312 0.460938 " transform="matrix(1,0,0,1,110,90)"/>
<path style=" stroke:none;fill-rule:nonzero;fill:rgb(92.2526%,38.5626%,20.9179%);fill-opacity:1;" d="M 182.070312 85.773438 C 182.070312 88.441406 178.070312 88.441406 178.070312 85.773438 C 178.070312 83.109375 182.070312 83.109375 182.070312 85.773438 "/>
<path style="fill:none;stroke-width:1;stroke-linecap:butt;stroke-linejoin:miter;stroke:rgb(88.0722%,61.1041%,14.2051%);stroke-opacity:1;stroke-miterlimit:10;" d="M 70.648438 13.765625 L 42.828125 45.539062 M 61.433594 27.929688 L 56.738281 29.652344 L 57.824219 24.769531 " transform="matrix(1,0,0,1,110,90)"/>
<path style=" stroke:none;fill-rule:nonzero;fill:rgb(92.2526%,38.5626%,20.9179%);fill-opacity:1;" d="M 182.648438 103.765625 C 182.648438 106.429688 178.648438 106.429688 178.648438 103.765625 C 178.648438 101.097656 182.648438 101.097656 182.648438 103.765625 "/>
<g style="fill:rgb(88.0722%,61.1041%,14.2051%);fill-opacity:1;">
  <use xlink:href="#id2" x="110" y="175"/>
  <use xlink:href="#id3" x="118.378906" y="175"/>
  <use xlink:href="#id4" x="125.720703" y="175"/>
  <use xlink:href="#id5" x="133.326172" y="175"/>
  <use xlink:href="#id6" x="140.427734" y="175"/>
  <use xlink:href="#id7" x="147.810547" y="175"/>
  <use xlink:href="#id8" x="154.912109" y="175"/>
  <use xlink:href="#id9" x="158.726562" y="175"/>
  <use xlink:href="#id10" x="166.332031" y="175"/>
  <use xlink:href="#id11" x="173.9375" y="175"/>
  <use xlink:href="#id11" x="177.271484" y="175"/>
</g>
<path style=" stroke:none;fill-rule:nonzero;fill:rgb(36.8417%,50.6779%,70.9798%);fill-opacity:0.5;" d="M 180.605469 175 L 112.539062 100.933594 C 112.539062 103.601562 108.539062 103.601562 108.539062 100.933594 C 108.539062 98.265625 112.539062 98.265625 112.539062 100.933594 "/>
<path style=" stroke:none;fill-rule:nonzero;fill:rgb(36.8417%,50.6779%,70.9798%);fill-opacity:0.5;" d="M 73.179688 92.816406 C 73.179688 95.484375 69.179688 95.484375 69.179688 92.816406 C 69.179688 90.148438 73.179688 90.148438 73.179688 92.816406 "/>
<path style=" stroke:none;fill-rule:nonzero;fill:rgb(36.8417%,50.6779%,70.9798%);fill-opacity:0.5;" d="M 62.054688 109.5625 C 62.054688 112.230469 58.054688 112.230469 58.054688 109.5625 C 58.054688 106.894531 62.054688 106.894531 62.054688 109.5625 "/>
<path style=" stroke:none;fill-rule:nonzero;fill:rgb(36.8417%,50.6779%,70.9798%);fill-opacity:0.5;" d="M 116.40625 77.46875 C 116.40625 80.136719 112.40625 80.136719 112.40625 77.46875 C 112.40625 74.804688 116.40625 74.804688 116.40625 77.46875 "/>
<path style=" stroke:none;fill-rule:nonzero;fill:rgb(36.8417%,50.6779%,70.9798%);fill-opacity:0.5;" d="M 103.652344 51.734375 C 103.652344 54.402344 99.652344 54.402344 99.652344 51.734375 C 99.652344 49.070312 103.652344 49.070312 103.652344 51.734375 "/>
<path style=" stroke:none;fill-rule:nonzero;fill:rgb(36.8417%,50.6779%,70.9798%);fill-opacity:0.5;" d="M 129.058594 66.445312 C 129.058594 69.109375 125.058594 69.109375 125.058594 66.445312 C 125.058594 63.777344 129.058594 63.777344 129.058594 66.445312 "/>
<path style=" stroke:none;fill-rule:nonzero;fill:rgb(36.8417%,50.6779%,70.9798%);fill-opacity:0.5;" d="M 114.214844 100.527344 C 114.214844 103.191406 110.214844 103.191406 110.214844 100.527344 C 110.214844 97.859375 114.214844 97.859375 114.214844 100.527344 "/>
<path style=" stroke:none;fill-rule:nonzero;fill:rgb(36.8417%,50.6779%,70.9798%);fill-opacity:0.5;" d="M 133.964844 98.859375 C 133.964844 101.527344 129.964844 101.527344 129.964844 98.859375 C 129.964844 96.195312 133.964844 96.195312 133.964844 98.859375 "/>
<path style=" stroke:none;fill-rule:nonzero;fill:rgb(36.8417%,50.6779%,70.9798%);fill-opacity:0.5;" d="M 125.847656 64.988281 C 125.847656 67.65625 121.847656 67.65625 121.847656 64.988281 C 121.847656 62.320312 125.847656 62.320312 125.847656 64.988281 "/>
<path style=" stroke:none;fill-rule:nonzero;fill:rgb(36.8417%,50.6779%,70.9798%);fill-opacity:0.5;" d="M 83.089844 74.960938 C 83.089844 77.628906 79.089844 77.628906 79.089844 74.960938 C 79.089844 72.296875 83.089844 72.296875 83.089844 74.960938 "/>
<path style=" stroke:none;fill-rule:nonzero;fill:rgb(36.8417%,50.6779%,70.9798%);fill-opacity:0.5;" d="M 97.34375 54.835938 C 97.34375 57.503906 93.34375 57.503906 93.34375 54.835938 C 93.34375 52.171875 97.34375 52.171875 97.34375 54.835938 "/>
<path style=" stroke:none;fill-rule:nonzero;fill:rgb(36.8417%,50.6779%,70.9798%);fill-opacity:0.5;" d="M 122.335938 85.109375 C 122.335938 87.773438 118.335938 87.773438 118.335938 85.109375 C 118.335938 82.441406 122.335938 82.441406 122.335938 85.109375 "/>
<path style=" stroke:none;fill-rule:nonzero;fill:rgb(36.8417%,50.6779%,70.9798%);fill-opacity:0.5;" d="M 99.160156 79.960938 C 99.160156 82.628906 95.160156 82.628906 95.160156 79.960938 C 95.160156 77.292969 99.160156 77.292969 99.160156 79.960938 "/>
<path style=" stroke:none;fill-rule:nonzero;fill:rgb(36.8417%,50.6779%,70.9798%);fill-opacity:0.5;" d="M 132.644531 147.613281 C 132.644531 150.277344 128.644531 150.277344 128.644531 147.613281 C 128.644531 144.945312 132.644531 144.945312 132.644531 147.613281 "/>
<path style=" stroke:none;fill-rule:nonzero;fill:rgb(36.8417%,50.6779%,70.9798%);fill-opacity:0.5;" d="M 106.238281 90.332031 C 106.238281 93 102.238281 93 102.238281 90.332031 C 102.238281 87.664062 106.238281 87.664062 106.238281 90.332031 "/>
<path style=" stroke:none;fill-rule:nonzero;fill:rgb(36.8417%,50.6779%,70.9798%);fill-opacity:0.5;" d="M 108.25 120.542969 C 108.25 123.210938 104.25 123.210938 104.25 120.542969 C 104.25 117.875 108.25 117.875 108.25 120.542969 "/>
<path style=" stroke:none;fill-rule:nonzero;fill:rgb(36.8417%,50.6779%,70.9798%);fill-opacity:0.5;" d="M 122.042969 104.679688 C 122.042969 107.347656 118.042969 107.347656 118.042969 104.679688 C 118.042969 102.011719 122.042969 102.011719 122.042969 104.679688 "/>
<path style=" stroke:none;fill-rule:nonzero;fill:rgb(36.8417%,50.6779%,70.9798%);fill-opacity:0.5;" d="M 123.699219 37.921875 C 123.699219 40.585938 119.699219 40.585938 119.699219 37.921875 C 119.699219 35.253906 123.699219 35.253906 123.699219 37.921875 "/>
<path style=" stroke:none;fill-rule:nonzero;fill:rgb(36.8417%,50.6779%,70.9798%);fill-opacity:0.5;" d="M 94.191406 55.351562 C 94.191406 58.019531 90.191406 58.019531 90.191406 55.351562 C 90.191406 52.683594 94.191406 52.683594 94.191406 55.351562 "/>
<path style=" stroke:none;fill-rule:nonzero;fill:rgb(36.8417%,50.6779%,70.9798%);fill-opacity:0.5;" d="M 114.71875 67.625 C 114.71875 70.289062 110.71875 70.289062 110.71875 67.625 C 110.71875 64.957031 114.71875 64.957031 114.71875 67.625 "/>
<path style=" stroke:none;fill-rule:nonzero;fill:rgb(36.8417%,50.6779%,70.9798%);fill-opacity:0.5;" d="M 98.382812 81.582031 C 98.382812 84.25 94.382812 84.25 94.382812 81.582031 C 94.382812 78.914062 98.382812 78.914062 98.382812 81.582031 "/>
<path style=" stroke:none;fill-rule:nonzero;fill:rgb(36.8417%,50.6779%,70.9798%);fill-opacity:0.5;" d="M 146.304688 80.703125 C 146.304688 83.371094 142.304688 83.371094 142.304688 80.703125 C 142.304688 78.039062 146.304688 78.039062 146.304688 80.703125 "/>
<path style=" stroke:none;fill-rule:nonzero;fill:rgb(36.8417%,50.6779%,70.9798%);fill-opacity:0.5;" d="M 92.894531 39.359375 C 92.894531 42.023438 88.894531 42.023438 88.894531 39.359375 C 88.894531 36.691406 92.894531 36.691406 92.894531 39.359375 "/>
<path style=" stroke:none;fill-rule:nonzero;fill:rgb(36.8417%,50.6779%,70.9798%);fill-opacity:0.5;" d="M 156.699219 48.964844 C 156.699219 51.628906 152.699219 51.628906 152.699219 48.964844 C 152.699219 46.296875 156.699219 46.296875 156.699219 48.964844 "/>
<path style=" stroke:none;fill-rule:nonzero;fill:rgb(36.8417%,50.6779%,70.9798%);fill-opacity:0.5;" d="M 81.519531 127.050781 C 81.519531 129.71875 77.519531 129.71875 77.519531 127.050781 C 77.519531 124.386719 81.519531 124.386719 81.519531 127.050781 "/>
<path style=" stroke:none;fill-rule:nonzero;fill:rgb(36.8417%,50.6779%,70.9798%);fill-opacity:0.5;" d="M 116.523438 92.324219 C 116.523438 94.992188 112.523438 94.992188 112.523438 92.324219 C 112.523438 89.65625 116.523438 89.65625 116.523438 92.324219 "/>
<path style=" stroke:none;fill-rule:nonzero;fill:rgb(36.8417%,50.6779%,70.9798%);fill-opacity:0.5;" d="M 119.535156 102.945312 C 119.535156 105.609375 115.535156 105.609375 115.535156 102.945312 C 115.535156 100.277344 119.535156 100.277344 119.535156 102.945312 "/>
<path style=" stroke:none;fill-rule:nonzero;fill:rgb(36.8417%,50.6779%,70.9798%);fill-opacity:0.5;" d="M 120.925781 55.792969 C 120.925781 58.457031 116.925781 58.457031 116.925781 55.792969 C 116.925781 53.125 120.925781 53.125 120.925781 55.792969 "/>
<path style=" stroke:none;fill-rule:nonzero;fill:rgb(36.8417%,50.6779%,70.9798%);fill-opacity:0.5;" d="M 97.253906 145.046875 C 97.253906 147.714844 93.253906 147.714844 93.253906 145.046875 C 93.253906 142.378906 97.253906 142.378906 97.253906 145.046875 "/>
<path style=" stroke:none;fill-rule:nonzero;fill:rgb(36.8417%,50.6779%,70.9798%);fill-opacity:0.5;" d="M 141.609375 108.292969 C 141.609375 110.960938 137.609375 110.960938 137.609375 108.292969 C 137.609375 105.625 141.609375 105.625 141.609375 108.292969 "/>
<path style=" stroke:none;fill-rule:nonzero;fill:rgb(36.8417%,50.6779%,70.9798%);fill-opacity:0.5;" d="M 72.359375 76.304688 C 72.359375 78.96875 68.359375 78.96875 68.359375 76.304688 C 68.359375 73.636719 72.359375 73.636719 72.359375 76.304688 "/>
<path style=" stroke:none;fill-rule:nonzero;fill:rgb(36.8417%,50.6779%,70.9798%);fill-opacity:0.5;" d="M 98.613281 103.265625 C 98.613281 105.933594 94.613281 105.933594 94.613281 103.265625 C 94.613281 100.597656 98.613281 100.597656 98.613281 103.265625 "/>
<path style=" stroke:none;fill-rule:nonzero;fill:rgb(36.8417%,50.6779%,70.9798%);fill-opacity:0.5;" d="M 104.035156 110.265625 C 104.035156 112.933594 100.035156 112.933594 100.035156 110.265625 C 100.035156 107.597656 104.035156 107.597656 104.035156 110.265625 "/>
<path style=" stroke:none;fill-rule:nonzero;fill:rgb(36.8417%,50.6779%,70.9798%);fill-opacity:0.5;" d="M 82.96875 139.0625 C 82.96875 141.730469 78.96875 141.730469 78.96875 139.0625 C 78.96875 136.398438 82.96875 136.398438 82.96875 139.0625 "/>
<path style=" stroke:none;fill-rule:nonzero;fill:rgb(36.8417%,50.6779%,70.9798%);fill-opacity:0.5;" d="M 138.933594 63.339844 C 138.933594 66.007812 134.933594 66.007812 134.933594 63.339844 C 134.933594 60.671875 138.933594 60.671875 138.933594 63.339844 "/>
<path style=" stroke:none;fill-rule:nonzero;fill:rgb(36.8417%,50.6779%,70.9798%);fill-opacity:0.5;" d="M 97.785156 45.257812 C 97.785156 47.921875 93.785156 47.921875 93.785156 45.257812 C 93.785156 42.589844 97.785156 42.589844 97.785156 45.257812 "/>
<path style=" stroke:none;fill-rule:nonzero;fill:rgb(36.8417%,50.6779%,70.9798%);fill-opacity:0.5;" d="M 89.265625 82.949219 C 89.265625 85.617188 85.265625 85.617188 85.265625 82.949219 C 85.265625 80.28125 89.265625 80.28125 89.265625 82.949219 "/>
<path style=" stroke:none;fill-rule:nonzero;fill:rgb(36.8417%,50.6779%,70.9798%);fill-opacity:0.5;" d="M 159.710938 94.261719 C 159.710938 96.925781 155.710938 96.925781 155.710938 94.261719 C 155.710938 91.59375 159.710938 91.59375 159.710938 94.261719 "/>
<path style=" stroke:none;fill-rule:nonzero;fill:rgb(36.8417%,50.6779%,70.9798%);fill-opacity:0.5;" d="M 148.203125 85.355469 C 148.203125 88.019531 144.203125 88.019531 144.203125 85.355469 C 144.203125 82.6875 148.203125 82.6875 148.203125 85.355469 "/>
<path style=" stroke:none;fill-rule:nonzero;fill:rgb(36.8417%,50.6779%,70.9798%);fill-opacity:0.5;" d="M 167.558594 100.742188 C 167.558594 103.410156 163.558594 103.410156 163.558594 100.742188 C 163.558594 98.078125 167.558594 98.078125 167.558594 100.742188 "/>
<path style=" stroke:none;fill-rule:nonzero;fill:rgb(36.8417%,50.6779%,70.9798%);fill-opacity:0.5;" d="M 124.324219 94.664062 C 124.324219 97.328125 120.324219 97.328125 120.324219 94.664062 C 120.324219 91.996094 124.324219 91.996094 124.324219 94.664062 "/>
<path style=" stroke:none;fill-rule:nonzero;fill:rgb(36.8417%,50.6779%,70.9798%);fill-opacity:0.5;" d="M 86.496094 136.476562 C 86.496094 139.140625 82.496094 139.140625 82.496094 136.476562 C 82.496094 133.808594 86.496094 133.808594 86.496094 136.476562 "/>
<path style=" stroke:none;fill-rule:nonzero;fill:rgb(36.8417%,50.6779%,70.9798%);fill-opacity:0.5;" d="M 86.332031 49.574219 C 86.332031 52.242188 82.332031 52.242188 82.332031 49.574219 C 82.332031 46.90625 86.332031 46.90625 86.332031 49.574219 "/>
<path style=" stroke:none;fill-rule:nonzero;fill:rgb(36.8417%,50.6779%,70.9798%);fill-opacity:0.5;" d="M 106.421875 140.953125 C 106.421875 143.621094 102.421875 143.621094 102.421875 140.953125 C 102.421875 138.289062 106.421875 138.289062 106.421875 140.953125 "/>
<path style=" stroke:none;fill-rule:nonzero;fill:rgb(36.8417%,50.6779%,70.9798%);fill-opacity:0.5;" d="M 178.445312 103.007812 C 178.445312 105.671875 174.445312 105.671875 174.445312 103.007812 C 174.445312 100.339844 178.445312 100.339844 178.445312 103.007812 "/>
<path style=" stroke:none;fill-rule:nonzero;fill:rgb(36.8417%,50.6779%,70.9798%);fill-opacity:0.5;" d="M 165.542969 61.8125 C 165.542969 64.480469 161.542969 64.480469 161.542969 61.8125 C 161.542969 59.148438 165.542969 59.148438 165.542969 61.8125 "/>
<path style=" stroke:none;fill-rule:nonzero;fill:rgb(36.8417%,50.6779%,70.9798%);fill-opacity:0.5;" d="M 154.066406 114.503906 C 154.066406 117.171875 150.066406 117.171875 150.066406 114.503906 C 150.066406 111.839844 154.066406 111.839844 154.066406 114.503906 "/>
<path style=" stroke:none;fill-rule:nonzero;fill:rgb(36.8417%,50.6779%,70.9798%);fill-opacity:0.5;" d="M 136.453125 114.589844 C 136.453125 117.257812 132.453125 117.257812 132.453125 114.589844 C 132.453125 111.925781 136.453125 111.925781 136.453125 114.589844 "/>
<path style=" stroke:none;fill-rule:nonzero;fill:rgb(36.8417%,50.6779%,70.9798%);fill-opacity:0.5;" d="M 146.449219 39.011719 C 146.449219 41.679688 142.449219 41.679688 142.449219 39.011719 C 142.449219 36.347656 146.449219 36.347656 146.449219 39.011719 "/>
<path style=" stroke:none;fill-rule:nonzero;fill:rgb(36.8417%,50.6779%,70.9798%);fill-opacity:0.5;" d="M 95.386719 86.515625 C 95.386719 89.179688 91.386719 89.179688 91.386719 86.515625 C 91.386719 83.847656 95.386719 83.847656 95.386719 86.515625 "/>
<path style=" stroke:none;fill-rule:nonzero;fill:rgb(36.8417%,50.6779%,70.9798%);fill-opacity:0.5;" d="M 126.164062 113.171875 C 126.164062 115.835938 122.164062 115.835938 122.164062 113.171875 C 122.164062 110.503906 126.164062 110.503906 126.164062 113.171875 "/>
<path style=" stroke:none;fill-rule:nonzero;fill:rgb(36.8417%,50.6779%,70.9798%);fill-opacity:0.5;" d="M 173.777344 109.417969 C 173.777344 112.085938 169.777344 112.085938 169.777344 109.417969 C 169.777344 106.75 173.777344 106.75 173.777344 109.417969 "/>
<path style=" stroke:none;fill-rule:nonzero;fill:rgb(36.8417%,50.6779%,70.9798%);fill-opacity:0.5;" d="M 120.433594 102.574219 C 120.433594 105.242188 116.433594 105.242188 116.433594 102.574219 C 116.433594 99.910156 120.433594 99.910156 120.433594 102.574219 "/>
<path style=" stroke:none;fill-rule:nonzero;fill:rgb(36.8417%,50.6779%,70.9798%);fill-opacity:0.5;" d="M 163.707031 97.117188 C 163.707031 99.785156 159.707031 99.785156 159.707031 97.117188 C 159.707031 94.449219 163.707031 94.449219 163.707031 97.117188 "/>
<path style=" stroke:none;fill-rule:nonzero;fill:rgb(36.8417%,50.6779%,70.9798%);fill-opacity:0.5;" d="M 31.964844 124.496094 C 31.964844 127.160156 27.964844 127.160156 27.964844 124.496094 C 27.964844 121.828125 31.964844 121.828125 31.964844 124.496094 "/>
<path style=" stroke:none;fill-rule:nonzero;fill:rgb(36.8417%,50.6779%,70.9798%);fill-opacity:0.5;" d="M 81.246094 66.046875 C 81.246094 68.714844 77.246094 68.714844 77.246094 66.046875 C 77.246094 63.382812 81.246094 63.382812 81.246094 66.046875 "/>
<path style=" stroke:none;fill-rule:nonzero;fill:rgb(36.8417%,50.6779%,70.9798%);fill-opacity:0.5;" d="M 112.628906 106.484375 C 112.628906 109.148438 108.628906 109.148438 108.628906 106.484375 C 108.628906 103.816406 112.628906 103.816406 112.628906 106.484375 "/>
<path style=" stroke:none;fill-rule:nonzero;fill:rgb(36.8417%,50.6779%,70.9798%);fill-opacity:0.5;" d="M 110.183594 24.402344 C 110.183594 27.066406 106.183594 27.066406 106.183594 24.402344 C 106.183594 21.734375 110.183594 21.734375 110.183594 24.402344 "/>
<path style=" stroke:none;fill-rule:nonzero;fill:rgb(36.8417%,50.6779%,70.9798%);fill-opacity:0.5;" d="M 132.539062 115.871094 C 132.539062 118.539062 128.539062 118.539062 128.539062 115.871094 C 128.539062 113.203125 132.539062 113.203125 132.539062 115.871094 "/>
<path style=" stroke:none;fill-rule:nonzero;fill:rgb(36.8417%,50.6779%,70.9798%);fill-opacity:0.5;" d="M 102.847656 85.933594 C 102.847656 88.601562 98.847656 88.601562 98.847656 85.933594 C 98.847656 83.265625 102.847656 83.265625 102.847656 85.933594 "/>
<path style=" stroke:none;fill-rule:nonzero;fill:rgb(36.8417%,50.6779%,70.9798%);fill-opacity:0.5;" d="M 125.28125 35.835938 C 125.28125 38.503906 121.28125 38.503906 121.28125 35.835938 C 121.28125 33.167969 125.28125 33.167969 125.28125 35.835938 "/>
<path style=" stroke:none;fill-rule:nonzero;fill:rgb(36.8417%,50.6779%,70.9798%);fill-opacity:0.5;" d="M 149.664062 99.804688 C 149.664062 102.472656 145.664062 102.472656 145.664062 99.804688 C 145.664062 97.140625 149.664062 97.140625 149.664062 99.804688 "/>
<path style=" stroke:none;fill-rule:nonzero;fill:rgb(36.8417%,50.6779%,70.9798%);fill-opacity:0.5;" d="M 115.777344 118.410156 C 115.777344 121.078125 111.777344 121.078125 111.777344 118.410156 C 111.777344 115.746094 115.777344 115.746094 115.777344 118.410156 "/>
<path style=" stroke:none;fill-rule:nonzero;fill:rgb(36.8417%,50.6779%,70.9798%);fill-opacity:0.5;" d="M 155.957031 66.738281 C 155.957031 69.40625 151.957031 69.40625 151.957031 66.738281 C 151.957031 64.070312 155.957031 64.070312 155.957031 66.738281 "/>
<path style=" stroke:none;fill-rule:nonzero;fill:rgb(36.8417%,50.6779%,70.9798%);fill-opacity:0.5;" d="M 121.636719 59.953125 C 121.636719 62.621094 117.636719 62.621094 117.636719 59.953125 C 117.636719 57.289062 121.636719 57.289062 121.636719 59.953125 "/>
<path style=" stroke:none;fill-rule:nonzero;fill:rgb(36.8417%,50.6779%,70.9798%);fill-opacity:0.5;" d="M 113.628906 78.984375 C 113.628906 81.652344 109.628906 81.652344 109.628906 78.984375 C 109.628906 76.316406 113.628906 76.316406 113.628906 78.984375 "/>
<path style=" stroke:none;fill-rule:nonzero;fill:rgb(36.8417%,50.6779%,70.9798%);fill-opacity:0.5;" d="M 110.953125 49.664062 C 110.953125 52.328125 106.953125 52.328125 106.953125 49.664062 C 106.953125 46.996094 110.953125 46.996094 110.953125 49.664062 "/>
<path style=" stroke:none;fill-rule:nonzero;fill:rgb(36.8417%,50.6779%,70.9798%);fill-opacity:0.5;" d="M 114.972656 66.417969 C 114.972656 69.085938 110.972656 69.085938 110.972656 66.417969 C 110.972656 63.75 114.972656 63.75 114.972656 66.417969 "/>
<path style=" stroke:none;fill-rule:nonzero;fill:rgb(36.8417%,50.6779%,70.9798%);fill-opacity:0.5;" d="M 88.21875 105.515625 C 88.21875 108.183594 84.21875 108.183594 84.21875 105.515625 C 84.21875 102.847656 88.21875 102.847656 88.21875 105.515625 "/>
<path style=" stroke:none;fill-rule:nonzero;fill:rgb(36.8417%,50.6779%,70.9798%);fill-opacity:0.5;" d="M 114.851562 69 C 114.851562 71.667969 110.851562 71.667969 110.851562 69 C 110.851562 66.335938 114.851562 66.335938 114.851562 69 "/>
<path style=" stroke:none;fill-rule:nonzero;fill:rgb(36.8417%,50.6779%,70.9798%);fill-opacity:0.5;" d="M 78 97.453125 C 78 100.117188 74 100.117188 74 97.453125 C 74 94.785156 78 94.785156 78 97.453125 "/>
<path style=" stroke:none;fill-rule:nonzero;fill:rgb(36.8417%,50.6779%,70.9798%);fill-opacity:0.5;" d="M 150.832031 83.601562 C 150.832031 86.269531 146.832031 86.269531 146.832031 83.601562 C 146.832031 80.9375 150.832031 80.9375 150.832031 83.601562 "/>
<path style=" stroke:none;fill-rule:nonzero;fill:rgb(36.8417%,50.6779%,70.9798%);fill-opacity:0.5;" d="M 158.34375 78.621094 C 158.34375 81.285156 154.34375 81.285156 154.34375 78.621094 C 154.34375 75.953125 158.34375 75.953125 158.34375 78.621094 "/>
<path style=" stroke:none;fill-rule:nonzero;fill:rgb(36.8417%,50.6779%,70.9798%);fill-opacity:0.5;" d="M 97.605469 108.46875 C 97.605469 111.136719 93.605469 111.136719 93.605469 108.46875 C 93.605469 105.804688 97.605469 105.804688 97.605469 108.46875 "/>
<path style=" stroke:none;fill-rule:nonzero;fill:rgb(36.8417%,50.6779%,70.9798%);fill-opacity:0.5;" d="M 58.554688 84.820312 C 58.554688 87.488281 54.554688 87.488281 54.554688 84.820312 C 54.554688 82.152344 58.554688 82.152344 58.554688 84.820312 "/>
<path style=" stroke:none;fill-rule:nonzero;fill:rgb(36.8417%,50.6779%,70.9798%);fill-opacity:0.5;" d="M 143.25 77.234375 C 143.25 79.902344 139.25 79.902344 139.25 77.234375 C 139.25 74.566406 143.25 74.566406 143.25 77.234375 "/>
<path style=" stroke:none;fill-rule:nonzero;fill:rgb(36.8417%,50.6779%,70.9798%);fill-opacity:0.5;" d="M 139.714844 119.839844 C 139.714844 122.507812 135.714844 122.507812 135.714844 119.839844 C 135.714844 117.175781 139.714844 117.175781 139.714844 119.839844 "/>
<path style=" stroke:none;fill-rule:nonzero;fill:rgb(36.8417%,50.6779%,70.9798%);fill-opacity:0.5;" d="M 94.339844 81.601562 C 94.339844 84.265625 90.339844 84.265625 90.339844 81.601562 C 90.339844 78.933594 94.339844 78.933594 94.339844 81.601562 "/>
<path style=" stroke:none;fill-rule:nonzero;fill:rgb(36.8417%,50.6779%,70.9798%);fill-opacity:0.5;" d="M 49.882812 101.707031 C 49.882812 104.371094 45.882812 104.371094 45.882812 101.707031 C 45.882812 99.039062 49.882812 99.039062 49.882812 101.707031 "/>
<path style=" stroke:none;fill-rule:nonzero;fill:rgb(36.8417%,50.6779%,70.9798%);fill-opacity:0.5;" d="M 142.109375 113.851562 C 142.109375 116.519531 138.109375 116.519531 138.109375 113.851562 C 138.109375 111.183594 142.109375 111.183594 142.109375 113.851562 "/>
<path style=" stroke:none;fill-rule:nonzero;fill:rgb(36.8417%,50.6779%,70.9798%);fill-opacity:0.5;" d="M 104.167969 32.820312 C 104.167969 35.488281 100.167969 35.488281 100.167969 32.820312 C 100.167969 30.152344 104.167969 30.152344 104.167969 32.820312 "/>
<path style=" stroke:none;fill-rule:nonzero;fill:rgb(36.8417%,50.6779%,70.9798%);fill-opacity:0.5;" d="M 119.070312 74.167969 C 119.070312 76.832031 115.070312 76.832031 115.070312 74.167969 C 115.070312 71.5 119.070312 71.5 119.070312 74.167969 "/>
<path style=" stroke:none;fill-rule:nonzero;fill:rgb(36.8417%,50.6779%,70.9798%);fill-opacity:0.5;" d="M 111.164062 98.257812 C 111.164062 100.925781 107.164062 100.925781 107.164062 98.257812 C 107.164062 95.589844 111.164062 95.589844 111.164062 98.257812 "/>
<path style=" stroke:none;fill-rule:nonzero;fill:rgb(36.8417%,50.6779%,70.9798%);fill-opacity:0.5;" d="M 126.351562 79.882812 C 126.351562 82.550781 122.351562 82.550781 122.351562 79.882812 C 122.351562 77.214844 126.351562 77.214844 126.351562 79.882812 "/>
<path style=" stroke:none;fill-rule:nonzero;fill:rgb(36.8417%,50.6779%,70.9798%);fill-opacity:0.5;" d="M 99.460938 43.25 C 99.460938 45.917969 95.460938 45.917969 95.460938 43.25 C 95.460938 40.582031 99.460938 40.582031 99.460938 43.25 "/>
<path style=" stroke:none;fill-rule:nonzero;fill:rgb(36.8417%,50.6779%,70.9798%);fill-opacity:0.5;" d="M 66.480469 107.695312 C 66.480469 110.363281 62.480469 110.363281 62.480469 107.695312 C 62.480469 105.03125 66.480469 105.03125 66.480469 107.695312 "/>
<path style=" stroke:none;fill-rule:nonzero;fill:rgb(36.8417%,50.6779%,70.9798%);fill-opacity:0.5;" d="M 142.652344 127.226562 C 142.652344 129.890625 138.652344 129.890625 138.652344 127.226562 C 138.652344 124.558594 142.652344 124.558594 142.652344 127.226562 "/>
<path style=" stroke:none;fill-rule:nonzero;fill:rgb(36.8417%,50.6779%,70.9798%);fill-opacity:0.5;" d="M 89.5625 98.039062 C 89.5625 100.707031 85.5625 100.707031 85.5625 98.039062 C 85.5625 95.371094 89.5625 95.371094 89.5625 98.039062 "/>
<path style=" stroke:none;fill-rule:nonzero;fill:rgb(36.8417%,50.6779%,70.9798%);fill-opacity:0.5;" d="M 153.457031 47.375 C 153.457031 50.042969 149.457031 50.042969 149.457031 47.375 C 149.457031 44.710938 153.457031 44.710938 153.457031 47.375 "/>
<path style=" stroke:none;fill-rule:nonzero;fill:rgb(36.8417%,50.6779%,70.9798%);fill-opacity:0.5;" d="M 159.597656 88.378906 C 159.597656 91.046875 155.597656 91.046875 155.597656 88.378906 C 155.597656 85.714844 159.597656 85.714844 159.597656 88.378906 "/>
<path style=" stroke:none;fill-rule:nonzero;fill:rgb(36.8417%,50.6779%,70.9798%);fill-opacity:0.5;" d="M 144.640625 91.027344 C 144.640625 93.695312 140.640625 93.695312 140.640625 91.027344 C 140.640625 88.359375 144.640625 88.359375 144.640625 91.027344 "/>
<path style=" stroke:none;fill-rule:nonzero;fill:rgb(36.8417%,50.6779%,70.9798%);fill-opacity:0.5;" d="M 133.761719 113.460938 C 133.761719 116.125 129.761719 116.125 129.761719 113.460938 C 129.761719 110.792969 133.761719 110.792969 133.761719 113.460938 "/>
<path style=" stroke:none;fill-rule:nonzero;fill:rgb(36.8417%,50.6779%,70.9798%);fill-opacity:0.5;" d="M 149.828125 96.746094 C 149.828125 99.414062 145.828125 99.414062 145.828125 96.746094 C 145.828125 94.078125 149.828125 94.078125 149.828125 96.746094 "/>
<path style=" stroke:none;fill-rule:nonzero;fill:rgb(36.8417%,50.6779%,70.9798%);fill-opacity:0.5;" d="M 94.515625 64.144531 C 94.515625 66.8125 90.515625 66.8125 90.515625 64.144531 C 90.515625 61.476562 94.515625 61.476562 94.515625 64.144531 "/>
<path style=" stroke:none;fill-rule:nonzero;fill:rgb(36.8417%,50.6779%,70.9798%);fill-opacity:0.5;" d="M 126.203125 122.179688 C 126.203125 124.847656 122.203125 124.847656 122.203125 122.179688 C 122.203125 119.511719 126.203125 119.511719 126.203125 122.179688 "/>
<path style=" stroke:none;fill-rule:nonzero;fill:rgb(36.8417%,50.6779%,70.9798%);fill-opacity:0.5;" d="M 141.824219 104.777344 C 141.824219 107.445312 137.824219 107.445312 137.824219 104.777344 C 137.824219 102.109375 141.824219 102.109375 141.824219 104.777344 "/>
<path style=" stroke:none;fill-rule:nonzero;fill:rgb(36.8417%,50.6779%,70.9798%);fill-opacity:0.5;" d="M 96.585938 102.109375 C 96.585938 104.777344 92.585938 104.777344 92.585938 102.109375 C 92.585938 99.441406 96.585938 99.441406 96.585938 102.109375 "/>
<path style=" stroke:none;fill-rule:nonzero;fill:rgb(36.8417%,50.6779%,70.9798%);fill-opacity:0.5;" d="M 84.191406 46.050781 C 84.191406 48.71875 80.191406 48.71875 80.191406 46.050781 C 80.191406 43.382812 84.191406 43.382812 84.191406 46.050781 "/>
<path style=" stroke:none;fill-rule:nonzero;fill:rgb(36.8417%,50.6779%,70.9798%);fill-opacity:0.5;" d="M 110.820312 70.640625 C 110.820312 73.308594 106.820312 73.308594 106.820312 70.640625 C 106.820312 67.976562 110.820312 67.976562 110.820312 70.640625 "/>
<path style=" stroke:none;fill-rule:nonzero;fill:rgb(36.8417%,50.6779%,70.9798%);fill-opacity:0.5;" d="M 88.269531 110.980469 C 88.269531 113.648438 84.269531 113.648438 84.269531 110.980469 C 84.269531 108.3125 88.269531 108.3125 88.269531 110.980469 "/>
<path style=" stroke:none;fill-rule:nonzero;fill:rgb(36.8417%,50.6779%,70.9798%);fill-opacity:0.5;" d="M 38.617188 109.234375 C 38.617188 111.902344 34.617188 111.902344 34.617188 109.234375 C 34.617188 106.566406 38.617188 106.566406 38.617188 109.234375 "/>
<path style=" stroke:none;fill-rule:nonzero;fill:rgb(36.8417%,50.6779%,70.9798%);fill-opacity:0.5;" d="M 109.632812 103.203125 C 109.632812 105.871094 105.632812 105.871094 105.632812 103.203125 C 105.632812 100.535156 109.632812 100.535156 109.632812 103.203125 "/>
<path style=" stroke:none;fill-rule:nonzero;fill:rgb(36.8417%,50.6779%,70.9798%);fill-opacity:0.5;" d="M 130.230469 87.355469 C 130.230469 90.023438 126.230469 90.023438 126.230469 87.355469 C 126.230469 84.6875 130.230469 84.6875 130.230469 87.355469 "/>
<path style=" stroke:none;fill-rule:nonzero;fill:rgb(36.8417%,50.6779%,70.9798%);fill-opacity:0.5;" d="M 84.078125 65.628906 C 84.078125 68.292969 80.078125 68.292969 80.078125 65.628906 C 80.078125 62.960938 84.078125 62.960938 84.078125 65.628906 "/>
<path style=" stroke:none;fill-rule:nonzero;fill:rgb(36.8417%,50.6779%,70.9798%);fill-opacity:0.5;" d="M 106.917969 155.023438 C 106.917969 157.6875 102.917969 157.6875 102.917969 155.023438 C 102.917969 152.355469 106.917969 152.355469 106.917969 155.023438 "/>
<path style=" stroke:none;fill-rule:nonzero;fill:rgb(36.8417%,50.6779%,70.9798%);fill-opacity:0.5;" d="M 151.683594 78.460938 C 151.683594 81.128906 147.683594 81.128906 147.683594 78.460938 C 147.683594 75.792969 151.683594 75.792969 151.683594 78.460938 "/>
<path style=" stroke:none;fill-rule:nonzero;fill:rgb(36.8417%,50.6779%,70.9798%);fill-opacity:0.5;" d="M 88.519531 102.265625 C 88.519531 104.929688 84.519531 104.929688 84.519531 102.265625 C 84.519531 99.597656 88.519531 99.597656 88.519531 102.265625 "/>
<path style=" stroke:none;fill-rule:nonzero;fill:rgb(36.8417%,50.6779%,70.9798%);fill-opacity:0.5;" d="M 87.476562 40.816406 C 87.476562 43.480469 83.476562 43.480469 83.476562 40.816406 C 83.476562 38.148438 87.476562 38.148438 87.476562 40.816406 "/>
<path style=" stroke:none;fill-rule:nonzero;fill:rgb(36.8417%,50.6779%,70.9798%);fill-opacity:0.5;" d="M 121.871094 59.980469 C 121.871094 62.644531 117.871094 62.644531 117.871094 59.980469 C 117.871094 57.3125 121.871094 57.3125 121.871094 59.980469 "/>
<path style=" stroke:none;fill-rule:nonzero;fill:rgb(36.8417%,50.6779%,70.9798%);fill-opacity:0.5;" d="M 105.761719 104.589844 C 105.761719 107.257812 101.761719 107.257812 101.761719 104.589844 C 101.761719 101.925781 105.761719 101.925781 105.761719 104.589844 "/>
<path style=" stroke:none;fill-rule:nonzero;fill:rgb(36.8417%,50.6779%,70.9798%);fill-opacity:0.5;" d="M 78.703125 123.3125 C 78.703125 125.980469 74.703125 125.980469 74.703125 123.3125 C 74.703125 120.644531 78.703125 120.644531 78.703125 123.3125 "/>
<path style=" stroke:none;fill-rule:nonzero;fill:rgb(36.8417%,50.6779%,70.9798%);fill-opacity:0.5;" d="M 157.285156 94.476562 C 157.285156 97.144531 153.285156 97.144531 153.285156 94.476562 C 153.285156 91.8125 157.285156 91.8125 157.285156 94.476562 "/>
<path style=" stroke:none;fill-rule:nonzero;fill:rgb(36.8417%,50.6779%,70.9798%);fill-opacity:0.5;" d="M 105.582031 87.496094 C 105.582031 90.164062 101.582031 90.164062 101.582031 87.496094 C 101.582031 84.828125 105.582031 84.828125 105.582031 87.496094 "/>
<path style=" stroke:none;fill-rule:nonzero;fill:rgb(36.8417%,50.6779%,70.9798%);fill-opacity:0.5;" d="M 111.894531 94.300781 C 111.894531 96.96875 107.894531 96.96875 107.894531 94.300781 C 107.894531 91.636719 111.894531 91.636719 111.894531 94.300781 "/>
<path style=" stroke:none;fill-rule:nonzero;fill:rgb(36.8417%,50.6779%,70.9798%);fill-opacity:0.5;" d="M 127.816406 106.570312 C 127.816406 109.234375 123.816406 109.234375 123.816406 106.570312 C 123.816406 103.902344 127.816406 103.902344 127.816406 106.570312 "/>
<path style=" stroke:none;fill-rule:nonzero;fill:rgb(36.8417%,50.6779%,70.9798%);fill-opacity:0.5;" d="M 59.699219 134.4375 C 59.699219 137.105469 55.699219 137.105469 55.699219 134.4375 C 55.699219 131.769531 59.699219 131.769531 59.699219 134.4375 "/>
<path style=" stroke:none;fill-rule:nonzero;fill:rgb(36.8417%,50.6779%,70.9798%);fill-opacity:0.5;" d="M 88.277344 123.476562 C 88.277344 126.140625 84.277344 126.140625 84.277344 123.476562 C 84.277344 120.808594 88.277344 120.808594 88.277344 123.476562 "/>
<path style=" stroke:none;fill-rule:nonzero;fill:rgb(36.8417%,50.6779%,70.9798%);fill-opacity:0.5;" d="M 147.980469 77.316406 C 147.980469 79.984375 143.980469 79.984375 143.980469 77.316406 C 143.980469 74.648438 147.980469 74.648438 147.980469 77.316406 "/>
</g>
</svg>
