<?xml version="1.0" encoding="UTF-8"?>
<svg xmlns="http://www.w3.org/2000/svg" xmlns:xlink="http://www.w3.org/1999/xlink" width="300pt" height="300pt" viewBox="0 0 300 300" version="1.1">
<g id="id1">
<path style="fill:none;stroke-width:1;stroke-linecap:butt;stroke-linejoin:miter;stroke:rgb(36.8417%,50.6779%,70.9798%);stroke-opacity:1;stroke-miterlimit:10;" d="M 4.5 0 C 4.5 6 -4.5 6 -4.5 0 C -4.5 -6 4.5 -6 4.5 0 " transform="matrix(1,0,0,1,50,50)"/>
<path style="fill:none;stroke-width:1;stroke-linecap:butt;stroke-linejoin:miter;stroke:rgb(36.8417%,50.6779%,70.9798%);stroke-opacity:1;stroke-miterlimit:10;" d="M 9 0 C 9 4.96875 4.96875 9 0 9 C -4.96875 9 -9 4.96875 -9 0 C -9 -4.96875 -4.96875 -9 0 -9 C 4.96875 -9 9 -4.96875 9 0 " transform="matrix(1,0,0,1,50,50)"/>
<path style="fill:none;stroke-width:1;stroke-linecap:butt;stroke-linejoin:miter;stroke:rgb(36.8417%,50.6779%,70.9798%);stroke-opacity:1;stroke-miterlimit:10;" d="M 13.5 0 C 13.5 7.457031 7.457031 13.5 0 13.5 C -7.457031 13.5 -13.5 7.457031 -13.5 0 C -13.5 -7.457031 -7.457031 -13.5 0 -13.5 C 7.457031 -13.5 13.5 -7.457031 13.5 0 " transform="matrix(1,0,0,1,50,50)"/>
<path style="fill:none;stroke-width:1;stroke-linecap:butt;stroke-linejoin:miter;stroke:rgb(36.8417%,50.6779%,70.9798%);stroke-opacity:1;stroke-miterlimit:10;" d="M 18 0 C 18 9.941406 9.941406 18 0 18 C -9.941406 18 -18 9.941406 -18 0 C -18 -9.941406 -9.941406 -18 0 -18 C 9.941406 -18 18 -9.941406 18 0 " transform="matrix(1,0,0,1,50,50)"/>
<path style="fill:none;stroke-width:1;stroke-linecap:butt;stroke-linejoin:miter;stroke:rgb(36.8417%,50.6779%,70.9798%);stroke-opacity:1;stroke-miterlimit:10;" d="M 22.5 0 C 22.5 12.425781 12.425781 22.5 0 22.5 C -12.425781 22.5 -22.5 12.425781 -22.5 0 C -22.5 -12.425781 -12.425781 -22.5 0 -22.5 C 12.425781 -22.5 22.5 -12.425781 22.5 0 " transform="matrix(1,0,0,1,50,50)"/>
<path style="fill:none;stroke-width:1;stroke-linecap:butt;stroke-linejoin:miter;stroke:rgb(36.8417%,50.6779%,70.9798%);stroke-opacity:1;stroke-miterlimit:10;" d="M 27 0 C 27 14.910156 14.910156 27 0 27 C -14.910156 27 -27 14.910156 -27 0 C -27 -14.910156 -14.910156 -27 0 -27 C 14.910156 -27 27 -14.910156 27 0 " transform="matrix(1,0,0,1,50,50)"/>
<path style="fill:none;stroke-width:1;stroke-linecap:butt;stroke-linejoin:miter;stroke:rgb(36.8417%,50.6779%,70.9798%);stroke-opacity:1;stroke-miterlimit:10;" d="M 31.5 0 C 31.5 17.398438 17.398438 31.5 0 31.5 C -17.398438 31.5 -31.5 17.398438 -31.5 0 C -31.5 -17.398438 -17.398438 -31.5 0 -31.5 C 17.398438 -31.5 31.5 -17.398438 31.5 0 " transform="matrix(1,0,0,1,50,50)"/>
<path style="fill:none;stroke-width:1;stroke-linecap:butt;stroke-linejoin:miter;stroke:rgb(36.8417%,50.6779%,70.9798%);stroke-opacity:1;stroke-miterlimit:10;" d="M 36 0 C 36 19.882812 19.882812 36 0 36 C -19.882812 36 -36 19.882812 -36 0 C -36 -19.882812 -19.882812 -36 0 -36 C 19.882812 -36 36 -19.882812 36 0 " transform="matrix(1,0,0,1,50,50)"/>
<path style="fill:none;stroke-width:1;stroke-linecap:butt;stroke-linejoin:miter;stroke:rgb(36.8417%,50.6779%,70.9798%);stroke-opacity:1;stroke-miterlimit:10;" d="M 40.5 0 C 40.5 22.367188 22.367188 40.5 0 40.5 C -22.367188 40.5 -40.5 22.367188 -40.5 0 C -40.5 -22.367188 -22.367188 -40.5 0 -40.5 C 22.367188 -40.5 40.5 -22.367188 40.5 0 " transform="matrix(1,0,0,1,50,50)"/>
<path style="fill:none;stroke-width:1;stroke-linecap:butt;stroke-linejoin:miter;stroke:rgb(36.8417%,50.6779%,70.9798%);stroke-opacity:1;stroke-miterlimit:10;" d="M 45 0 C 45 24.851562 24.851562 45 0 45 C -24.851562 45 -45 24.851562 -45 0 C -45 -24.851562 -24.851562 -45 0 -45 C 24.851562 -45 45 -24.851562 45 0 " transform="matrix(1,0,0,1,50,50)"/>
<path style="fill:none;stroke-width:1;stroke-linecap:butt;stroke-linejoin:miter;stroke:rgb(88.0722%,61.1041%,14.2051%);stroke-opacity:1;stroke-miterlimit:10;" d="M 4.5 0 C 4.5 24.851562 2.484375 45 0 45 C -2.484375 45 -4.5 24.851562 -4.5 0 C -4.5 -24.851562 -2.484375 -45 0 -45 C 2.484375 -45 4.5 -24.851562 4.5 0 " transform="matrix(1,0,0,1,150,50)"/>
<path style="fill:none;stroke-width:1;stroke-linecap:butt;stroke-linejoin:miter;stroke:rgb(88.0722%,61.1041%,14.2051%);stroke-opacity:1;stroke-miterlimit:10;" d="M 9 0 C 9 24.851562 4.96875 45 0 45 C -4.96875 45 -9 24.851562 -9 0 C -9 -24.851562 -4.96875 -45 0 -45 C 4.96875 -45 9 -24.851562 9 0 " transform="matrix(1,0,0,1,150,50)"/>
<path style="fill:none;stroke-width:1;stroke-linecap:butt;stroke-linejoin:miter;stroke:rgb(88.0722%,61.1041%,14.2051%);stroke-opacity:1;stroke-miterlimit:10;" d="M 13.5 0 C 13.5 24.851562 7.457031 45 0 45 C -7.457031 45 -13.5 24.851562 -13.5 0 C -13.5 -24.851562 -7.457031 -45 0 -45 C 7.457031 -45 13.5 -24.851562 13.5 0 " transform="matrix(1,0,0,1,150,50)"/>
<path style="fill:none;stroke-width:1;stroke-linecap:butt;stroke-linejoin:miter;stroke:rgb(88.0722%,61.1041%,14.2051%);stroke-opacity:1;stroke-miterlimit:10;" d="M 18 0 C 18 24.851562 9.941406 45 0 45 C -9.941406 45 -18 24.851562 -18 0 C -18 -24.851562 -9.941406 -45 0 -45 C 9.941406 -45 18 -24.851562 18 0 " transform="matrix(1,0,0,1,150,50)"/>
<path style="fill:none;stroke-width:1;stroke-linecap:butt;stroke-linejoin:miter;stroke:rgb(88.0722%,61.1041%,14.2051%);stroke-opacity:1;stroke-miterlimit:10;" d="M 22.5 0 C 22.5 24.851562 12.425781 45 0 45 C -12.425781 45 -22.5 24.851562 -22.5 0 C -22.5 -24.851562 -12.425781 -45 0 -45 C 12.425781 -45 22.5 -24.851562 22.5 0 " transform="matrix(1,0,0,1,150,50)"/>
<path style="fill:none;stroke-width:1;stroke-linecap:butt;stroke-linejoin:miter;stroke:rgb(88.0722%,61.1041%,14.2051%);stroke-opacity:1;stroke-miterlimit:10;" d="M 27 0 C 27 24.851562 14.910156 45 0 45 C -14.910156 45 -27 24.851562 -27 0 C -27 -24.851562 -14.910156 -45 0 -45 C 14.910156 -45 27 -24.851562 27 0 " transform="matrix(1,0,0,1,150,50)"/>
<path style="fill:none;stroke-width:1;stroke-linecap:butt;stroke-linejoin:miter;stroke:rgb(88.0722%,61.1041%,14.2051%);stroke-opacity:1;stroke-miterlimit:10;" d="M 31.5 0 C 31.5 24.851562 17.398438 45 0 45 C -17.398438 45 -31.5 24.851562 -31.5 0 C -31.5 -24.851562 -17.398438 -45 0 -45 C 17.398438 -45 31.5 -24.851562 31.5 0 " transform="matrix(1,0,0,1,150,50)"/>
<path style="fill:none;stroke-width:1;stroke-linecap:butt;stroke-linejoin:miter;stroke:rgb(88.0722%,61.1041%,14.2051%);stroke-opacity:1;stroke-miterlimit:10;" d="M 36 0 C 36 24.851562 19.882812 45 0 45 C -19.882812 45 -36 24.851562 -36 0 C -36 -24.851562 -19.882812 -45 0 -45 C 19.882812 -45 36 -24.851562 36 0 " transform="matrix(1,0,0,1,150,50)"/>
<path style="fill:none;stroke-width:1;stroke-linecap:butt;stroke-linejoin:miter;stroke:rgb(88.0722%,61.1041%,14.2051%);stroke-opacity:1;stroke-miterlimit:10;" d="M 40.5 0 C 40.5 24.851562 22.367188 45 0 45 C -22.367188 45 -40.5 24.851562 -40.5 0 C -40.5 -24.851562 -22.367188 -45 0 -45 C 22.367188 -45 40.5 -24.851562 40.5 0 " transform="matrix(1,0,0,1,150,50)"/>
<path style="fill:none;stroke-width:1;stroke-linecap:butt;stroke-linejoin:miter;stroke:rgb(88.0722%,61.1041%,14.2051%);stroke-opacity:1;stroke-miterlimit:10;" d="M 45 0 C 45 24.851562 24.851562 45 0 45 C -24.851562 45 -45 24.851562 -45 0 C -45 -24.851562 -24.851562 -45 0 -45 C 24.851562 -45 45 -24.851562 45 0 " transform="matrix(1,0,0,1,150,50)"/>
<path style="fill:none;stroke-width:1;stroke-linecap:butt;stroke-linejoin:miter;stroke:rgb(56.0181%,69.1569%,19.4885%);stroke-opacity:1;stroke-miterlimit:10;" d="M 45 0 C 45 2.484375 24.851562 4.5 0 4.5 C -24.851562 4.5 -45 2.484375 -45 0 C -45 -2.484375 -24.851562 -4.5 0 -4.5 C 24.851562 -4.5 45 -2.484375 45 0 " transform="matrix(1,0,0,1,250,50)"/>
<path style="fill:none;stroke-width:1;stroke-linecap:butt;stroke-linejoin:miter;stroke:rgb(56.0181%,69.1569%,19.4885%);stroke-opacity:1;stroke-miterlimit:10;" d="M 40.5 0 C 40.5 4.96875 22.367188 9 0 9 C -22.367188 9 -40.5 4.96875 -40.5 0 C -40.5 -4.96875 -22.367188 -9 0 -9 C 22.367188 -9 40.5 -4.96875 40.5 0 " transform="matrix(1,0,0,1,250,50)"/>
<path style="fill:none;stroke-width:1;stroke-linecap:butt;stroke-linejoin:miter;stroke:rgb(56.0181%,69.1569%,19.4885%);stroke-opacity:1;stroke-miterlimit:10;" d="M 36 0 C 36 7.457031 19.882812 13.5 0 13.5 C -19.882812 13.5 -36 7.457031 -36 0 C -36 -7.457031 -19.882812 -13.5 0 -13.5 C 19.882812 -13.5 36 -7.457031 36 0 " transform="matrix(1,0,0,1,250,50)"/>
<path style="fill:none;stroke-width:1;stroke-linecap:butt;stroke-linejoin:miter;stroke:rgb(56.0181%,69.1569%,19.4885%);stroke-opacity:1;stroke-miterlimit:10;" d="M 31.5 0 C 31.5 9.941406 17.398438 18 0 18 C -17.398438 18 -31.5 9.941406 -31.5 0 C -31.5 -9.941406 -17.398438 -18 0 -18 C 17.398438 -18 31.5 -9.941406 31.5 0 " transform="matrix(1,0,0,1,250,50)"/>
<path style="fill:none;stroke-width:1;stroke-linecap:butt;stroke-linejoin:miter;stroke:rgb(56.0181%,69.1569%,19.4885%);stroke-opacity:1;stroke-miterlimit:10;" d="M 27 0 C 27 12.425781 14.910156 22.5 0 22.5 C -14.910156 22.5 -27 12.425781 -27 0 C -27 -12.425781 -14.910156 -22.5 0 -22.5 C 14.910156 -22.5 27 -12.425781 27 0 " transform="matrix(1,0,0,1,250,50)"/>
<path style="fill:none;stroke-width:1;stroke-linecap:butt;stroke-linejoin:miter;stroke:rgb(56.0181%,69.1569%,19.4885%);stroke-opacity:1;stroke-miterlimit:10;" d="M 22.5 0 C 22.5 14.910156 12.425781 27 0 27 C -12.425781 27 -22.5 14.910156 -22.5 0 C -22.5 -14.910156 -12.425781 -27 0 -27 C 12.425781 -27 22.5 -14.910156 22.5 0 " transform="matrix(1,0,0,1,250,50)"/>
<path style="fill:none;stroke-width:1;stroke-linecap:butt;stroke-linejoin:miter;stroke:rgb(56.0181%,69.1569%,19.4885%);stroke-opacity:1;stroke-miterlimit:10;" d="M 18 0 C 18 17.398438 9.941406 31.5 0 31.5 C -9.941406 31.5 -18 17.398438 -18 0 C -18 -17.398438 -9.941406 -31.5 0 -31.5 C 9.941406 -31.5 18 -17.398438 18 0 " transform="matrix(1,0,0,1,250,50)"/>
<path style="fill:none;stroke-width:1;stroke-linecap:butt;stroke-linejoin:miter;stroke:rgb(56.0181%,69.1569%,19.4885%);stroke-opacity:1;stroke-miterlimit:10;" d="M 13.5 0 C 13.5 19.882812 7.457031 36 0 36 C -7.457031 36 -13.5 19.882812 -13.5 0 C -13.5 -19.882812 -7.457031 -36 0 -36 C 7.457031 -36 13.5 -19.882812 13.5 0 " transform="matrix(1,0,0,1,250,50)"/>
<path style="fill:none;stroke-width:1;stroke-linecap:butt;stroke-linejoin:miter;stroke:rgb(56.0181%,69.1569%,19.4885%);stroke-opacity:1;stroke-miterlimit:10;" d="M 9 0 C 9 22.367188 4.96875 40.5 0 40.5 C -4.96875 40.5 -9 22.367188 -9 0 C -9 -22.367188 -4.96875 -40.5 0 -40.5 C 4.96875 -40.5 9 -22.367188 9 0 " transform="matrix(1,0,0,1,250,50)"/>
<path style="fill:none;stroke-width:1;stroke-linecap:butt;stroke-linejoin:miter;stroke:rgb(56.0181%,69.1569%,19.4885%);stroke-opacity:1;stroke-miterlimit:10;" d="M 4.5 0 C 4.5 24.851562 2.484375 45 0 45 C -2.484375 45 -4.5 24.851562 -4.5 0 C -4.5 -24.851562 -2.484375 -45 0 -45 C 2.484375 -45 4.5 -24.851562 4.5 0 " transform="matrix(1,0,0,1,250,50)"/>
<path style="fill:none;stroke-width:1;stroke-linecap:butt;stroke-linejoin:miter;stroke:rgb(92.2526%,38.5626%,20.9179%);stroke-opacity:1;stroke-miterlimit:10;" d="M 22.5 0 C 22.5 2.484375 12.425781 4.5 0 4.5 C -12.425781 4.5 -22.5 2.484375 -22.5 0 C -22.5 -2.484375 -12.425781 -4.5 0 -4.5 C 12.425781 -4.5 22.5 -2.484375 22.5 0 " transform="matrix(1,0,0,1,50,150)"/>
<path style="fill:none;stroke-width:1;stroke-linecap:butt;stroke-linejoin:miter;stroke:rgb(92.2526%,38.5626%,20.9179%);stroke-opacity:1;stroke-miterlimit:10;" d="M 25 0 C 25 4.96875 13.808594 9 0 9 C -13.808594 9 -25 4.96875 -25 0 C -25 -4.96875 -13.808594 -9 0 -9 C 13.808594 -9 25 -4.96875 25 0 " transform="matrix(1,0,0,1,50,150)"/>
<path style="fill:none;stroke-width:1;stroke-linecap:butt;stroke-linejoin:miter;stroke:rgb(92.2526%,38.5626%,20.9179%);stroke-opacity:1;stroke-miterlimit:10;" d="M 27.5 0 C 27.5 7.457031 15.1875 13.5 0 13.5 C -15.1875 13.5 -27.5 7.457031 -27.5 0 C -27.5 -7.457031 -15.1875 -13.5 0 -13.5 C 15.1875 -13.5 27.5 -7.457031 27.5 0 " transform="matrix(1,0,0,1,50,150)"/>
<path style="fill:none;stroke-width:1;stroke-linecap:butt;stroke-linejoin:miter;stroke:rgb(92.2526%,38.5626%,20.9179%);stroke-opacity:1;stroke-miterlimit:10;" d="M 30 0 C 30 9.941406 16.570312 18 0 18 C -16.570312 18 -30 9.941406 -30 0 C -30 -9.941406 -16.570312 -18 0 -18 C 16.570312 -18 30 -9.941406 30 0 " transform="matrix(1,0,0,1,50,150)"/>
<path style="fill:none;stroke-width:1;stroke-linecap:butt;stroke-linejoin:miter;stroke:rgb(92.2526%,38.5626%,20.9179%);stroke-opacity:1;stroke-miterlimit:10;" d="M 32.5 0 C 32.5 12.425781 17.949219 22.5 0 22.5 C -17.949219 22.5 -32.5 12.425781 -32.5 0 C -32.5 -12.425781 -17.949219 -22.5 0 -22.5 C 17.949219 -22.5 32.5 -12.425781 32.5 0 " transform="matrix(1,0,0,1,50,150)"/>
<path style="fill:none;stroke-width:1;stroke-linecap:butt;stroke-linejoin:miter;stroke:rgb(92.2526%,38.5626%,20.9179%);stroke-opacity:1;stroke-miterlimit:10;" d="M 35 0 C 35 14.910156 19.328125 27 0 27 C -19.328125 27 -35 14.910156 -35 0 C -35 -14.910156 -19.328125 -27 0 -27 C 19.328125 -27 35 -14.910156 35 0 " transform="matrix(1,0,0,1,50,150)"/>
<path style="fill:none;stroke-width:1;stroke-linecap:butt;stroke-linejoin:miter;stroke:rgb(92.2526%,38.5626%,20.9179%);stroke-opacity:1;stroke-miterlimit:10;" d="M 37.5 0 C 37.5 17.398438 20.710938 31.5 0 31.5 C -20.710938 31.5 -37.5 17.398438 -37.5 0 C -37.5 -17.398438 -20.710938 -31.5 0 -31.5 C 20.710938 -31.5 37.5 -17.398438 37.5 0 " transform="matrix(1,0,0,1,50,150)"/>
<path style="fill:none;stroke-width:1;stroke-linecap:butt;stroke-linejoin:miter;stroke:rgb(92.2526%,38.5626%,20.9179%);stroke-opacity:1;stroke-miterlimit:10;" d="M 40 0 C 40 19.882812 22.089844 36 0 36 C -22.089844 36 -40 19.882812 -40 0 C -40 -19.882812 -22.089844 -36 0 -36 C 22.089844 -36 40 -19.882812 40 0 " transform="matrix(1,0,0,1,50,150)"/>
<path style="fill:none;stroke-width:1;stroke-linecap:butt;stroke-linejoin:miter;stroke:rgb(92.2526%,38.5626%,20.9179%);stroke-opacity:1;stroke-miterlimit:10;" d="M 42.5 0 C 42.5 22.367188 23.472656 40.5 0 40.5 C -23.472656 40.5 -42.5 22.367188 -42.5 0 C -42.5 -22.367188 -23.472656 -40.5 0 -40.5 C 23.472656 -40.5 42.5 -22.367188 42.5 0 " transform="matrix(1,0,0,1,50,150)"/>
<path style="fill:none;stroke-width:1;stroke-linecap:butt;stroke-linejoin:miter;stroke:rgb(92.2526%,38.5626%,20.9179%);stroke-opacity:1;stroke-miterlimit:10;" d="M 45 0 C 45 24.851562 24.851562 45 0 45 C -24.851562 45 -45 24.851562 -45 0 C -45 -24.851562 -24.851562 -45 0 -45 C 24.851562 -45 45 -24.851562 45 0 " transform="matrix(1,0,0,1,50,150)"/>
<path style="fill:none;stroke-width:1;stroke-linecap:butt;stroke-linejoin:miter;stroke:rgb(52.8488%,47.0624%,70.1351%);stroke-opacity:1;stroke-miterlimit:10;" d="M 45 0 C 45 12.425781 24.851562 22.5 0 22.5 C -24.851562 22.5 -45 12.425781 -45 0 C -45 -12.425781 -24.851562 -22.5 0 -22.5 C 24.851562 -22.5 45 -12.425781 45 0 " transform="matrix(1,0,0,1,150,150)"/>
<path style="fill:none;stroke-width:1;stroke-linecap:butt;stroke-linejoin:miter;stroke:rgb(52.8488%,47.0624%,70.1351%);stroke-opacity:1;stroke-miterlimit:10;" d="M 44.316406 7.8125 C 42.160156 20.050781 20.566406 26.472656 -3.90625 22.15625 C -28.382812 17.84375 -46.472656 4.421875 -44.316406 -7.8125 C -42.160156 -20.050781 -20.566406 -26.472656 3.90625 -22.15625 C 28.382812 -17.84375 46.472656 -4.421875 44.316406 7.8125 " transform="matrix(1,0,0,1,150,150)"/>
<path style="fill:none;stroke-width:1;stroke-linecap:butt;stroke-linejoin:miter;stroke:rgb(52.8488%,47.0624%,70.1351%);stroke-opacity:1;stroke-miterlimit:10;" d="M 42.285156 15.390625 C 38.035156 27.066406 15.660156 29.644531 -7.695312 21.144531 C -31.050781 12.644531 -46.535156 -3.714844 -42.285156 -15.390625 C -38.035156 -27.066406 -15.660156 -29.644531 7.695312 -21.144531 C 31.050781 -12.644531 46.535156 3.714844 42.285156 15.390625 " transform="matrix(1,0,0,1,150,150)"/>
<path style="fill:none;stroke-width:1;stroke-linecap:butt;stroke-linejoin:miter;stroke:rgb(52.8488%,47.0624%,70.1351%);stroke-opacity:1;stroke-miterlimit:10;" d="M 38.972656 22.5 C 32.757812 33.261719 10.273438 31.910156 -11.25 19.484375 C -32.773438 7.058594 -45.183594 -11.738281 -38.972656 -22.5 C -32.757812 -33.261719 -10.273438 -31.910156 11.25 -19.484375 C 32.773438 -7.058594 45.183594 11.738281 38.972656 22.5 " transform="matrix(1,0,0,1,150,150)"/>
<path style="fill:none;stroke-width:1;stroke-linecap:butt;stroke-linejoin:miter;stroke:rgb(52.8488%,47.0624%,70.1351%);stroke-opacity:1;stroke-miterlimit:10;" d="M 34.472656 28.925781 C 26.484375 38.445312 4.574219 33.210938 -14.460938 17.234375 C -33.5 1.261719 -42.460938 -19.40625 -34.472656 -28.925781 C -26.484375 -38.445312 -4.574219 -33.210938 14.460938 -17.234375 C 33.5 -1.261719 42.460938 19.40625 34.472656 28.925781 " transform="matrix(1,0,0,1,150,150)"/>
<path style="fill:none;stroke-width:1;stroke-linecap:butt;stroke-linejoin:miter;stroke:rgb(52.8488%,47.0624%,70.1351%);stroke-opacity:1;stroke-miterlimit:10;" d="M 28.925781 34.472656 C 19.40625 42.460938 -1.261719 33.5 -17.234375 14.460938 C -33.210938 -4.574219 -38.445312 -26.484375 -28.925781 -34.472656 C -19.40625 -42.460938 1.261719 -33.5 17.234375 -14.460938 C 33.210938 4.574219 38.445312 26.484375 28.925781 34.472656 " transform="matrix(1,0,0,1,150,150)"/>
<path style="fill:none;stroke-width:1;stroke-linecap:butt;stroke-linejoin:miter;stroke:rgb(52.8488%,47.0624%,70.1351%);stroke-opacity:1;stroke-miterlimit:10;" d="M 22.5 38.972656 C 11.738281 45.183594 -7.058594 32.773438 -19.484375 11.25 C -31.910156 -10.273438 -33.261719 -32.757812 -22.5 -38.972656 C -11.738281 -45.183594 7.058594 -32.773438 19.484375 -11.25 C 31.910156 10.273438 33.261719 32.757812 22.5 38.972656 " transform="matrix(1,0,0,1,150,150)"/>
<path style="fill:none;stroke-width:1;stroke-linecap:butt;stroke-linejoin:miter;stroke:rgb(52.8488%,47.0624%,70.1351%);stroke-opacity:1;stroke-miterlimit:10;" d="M 15.390625 42.285156 C 3.714844 46.535156 -12.644531 31.050781 -21.144531 7.695312 C -29.644531 -15.660156 -27.066406 -38.035156 -15.390625 -42.285156 C -3.714844 -46.535156 12.644531 -31.050781 21.144531 -7.695312 C 29.644531 15.660156 27.066406 38.035156 15.390625 42.285156 " transform="matrix(1,0,0,1,150,150)"/>
<path style="fill:none;stroke-width:1;stroke-linecap:butt;stroke-linejoin:miter;stroke:rgb(52.8488%,47.0624%,70.1351%);stroke-opacity:1;stroke-miterlimit:10;" d="M 7.8125 44.316406 C -4.421875 46.472656 -17.84375 28.382812 -22.15625 3.90625 C -26.472656 -20.566406 -20.050781 -42.160156 -7.8125 -44.316406 C 4.421875 -46.472656 17.84375 -28.382812 22.15625 -3.90625 C 26.472656 20.566406 20.050781 42.160156 7.8125 44.316406 " transform="matrix(1,0,0,1,150,150)"/>
<path style="fill:none;stroke-width:1;stroke-linecap:butt;stroke-linejoin:miter;stroke:rgb(52.8488%,47.0624%,70.1351%);stroke-opacity:1;stroke-miterlimit:10;" d="M 0 45 C -12.425781 45 -22.5 24.851562 -22.5 0 C -22.5 -24.851562 -12.425781 -45 0 -45 C 12.425781 -45 22.5 -24.851562 22.5 0 C 22.5 24.851562 12.425781 45 0 45 " transform="matrix(1,0,0,1,150,150)"/>
<path style="fill:none;stroke-width:1;stroke-linecap:butt;stroke-linejoin:miter;stroke:rgb(77.2079%,43.1554%,10.2387%);stroke-opacity:1;stroke-miterlimit:10;" d="M 45 0 C 45 12.425781 24.851562 22.5 0 22.5 C -24.851562 22.5 -45 12.425781 -45 0 C -45 -12.425781 -24.851562 -22.5 0 -22.5 C 24.851562 -22.5 45 -12.425781 45 0 " transform="matrix(1,0,0,1,250,150)"/>
<path style="fill:none;stroke-width:1;stroke-linecap:butt;stroke-linejoin:miter;stroke:rgb(77.2079%,43.1554%,10.2387%);stroke-opacity:1;stroke-miterlimit:10;" d="M 44.386719 7.40625 C 42.339844 19.664062 20.808594 26.285156 -3.703125 22.191406 C -28.21875 18.101562 -46.429688 4.851562 -44.386719 -7.40625 C -42.339844 -19.664062 -20.808594 -26.285156 3.703125 -22.191406 C 28.21875 -18.101562 46.429688 -4.851562 44.386719 7.40625 " transform="matrix(1,0,0,1,250,150)"/>
<path style="fill:none;stroke-width:1;stroke-linecap:butt;stroke-linejoin:miter;stroke:rgb(77.2079%,43.1554%,10.2387%);stroke-opacity:1;stroke-miterlimit:10;" d="M 42.5625 14.613281 C 38.527344 26.363281 16.199219 29.351562 -7.304688 21.28125 C -30.8125 13.210938 -46.597656 -2.859375 -42.5625 -14.613281 C -38.527344 -26.363281 -16.199219 -29.351562 7.304688 -21.28125 C 30.8125 -13.210938 46.597656 2.859375 42.5625 14.613281 " transform="matrix(1,0,0,1,250,150)"/>
<path style="fill:none;stroke-width:1;stroke-linecap:butt;stroke-linejoin:miter;stroke:rgb(77.2079%,43.1554%,10.2387%);stroke-opacity:1;stroke-miterlimit:10;" d="M 39.578125 21.417969 C 33.660156 32.347656 11.148438 31.617188 -10.707031 19.789062 C -32.566406 7.960938 -45.492188 -10.488281 -39.578125 -21.417969 C -33.660156 -32.347656 -11.148438 -31.617188 10.707031 -19.789062 C 32.566406 -7.960938 45.492188 10.488281 39.578125 21.417969 " transform="matrix(1,0,0,1,250,150)"/>
<path style="fill:none;stroke-width:1;stroke-linecap:butt;stroke-linejoin:miter;stroke:rgb(77.2079%,43.1554%,10.2387%);stroke-opacity:1;stroke-miterlimit:10;" d="M 35.511719 27.640625 C 27.878906 37.445312 5.792969 33.019531 -13.820312 17.753906 C -33.433594 2.492188 -43.144531 -17.832031 -35.511719 -27.640625 C -27.878906 -37.445312 -5.792969 -33.019531 13.820312 -17.753906 C 33.433594 -2.492188 43.144531 17.832031 35.511719 27.640625 " transform="matrix(1,0,0,1,250,150)"/>
<path style="fill:none;stroke-width:1;stroke-linecap:butt;stroke-linejoin:miter;stroke:rgb(77.2079%,43.1554%,10.2387%);stroke-opacity:1;stroke-miterlimit:10;" d="M 30.476562 33.109375 C 21.335938 41.523438 0.277344 33.523438 -16.554688 15.238281 C -33.386719 -3.046875 -39.621094 -24.691406 -30.476562 -33.109375 C -21.335938 -41.523438 -0.277344 -33.523438 16.554688 -15.238281 C 33.386719 3.046875 39.621094 24.691406 30.476562 33.109375 " transform="matrix(1,0,0,1,250,150)"/>
<path style="fill:none;stroke-width:1;stroke-linecap:butt;stroke-linejoin:miter;stroke:rgb(77.2079%,43.1554%,10.2387%);stroke-opacity:1;stroke-miterlimit:10;" d="M 24.613281 37.671875 C 14.210938 44.46875 -5.242188 33.113281 -18.835938 12.304688 C -32.429688 -8.5 -35.015625 -30.875 -24.613281 -37.671875 C -14.210938 -44.46875 5.242188 -33.113281 18.835938 -12.304688 C 32.429688 8.5 35.015625 30.875 24.613281 37.671875 " transform="matrix(1,0,0,1,250,150)"/>
<path style="fill:none;stroke-width:1;stroke-linecap:butt;stroke-linejoin:miter;stroke:rgb(77.2079%,43.1554%,10.2387%);stroke-opacity:1;stroke-miterlimit:10;" d="M 18.078125 41.210938 C 6.695312 46.203125 -10.621094 31.796875 -20.605469 9.039062 C -30.589844 -13.722656 -29.457031 -36.21875 -18.078125 -41.210938 C -6.695312 -46.203125 10.621094 -31.796875 20.605469 -9.039062 C 30.589844 13.722656 29.457031 36.21875 18.078125 41.210938 " transform="matrix(1,0,0,1,250,150)"/>
<path style="fill:none;stroke-width:1;stroke-linecap:butt;stroke-linejoin:miter;stroke:rgb(77.2079%,43.1554%,10.2387%);stroke-opacity:1;stroke-miterlimit:10;" d="M 11.046875 43.621094 C -1 46.671875 -15.710938 29.617188 -21.8125 5.523438 C -27.914062 -18.570312 -23.09375 -40.574219 -11.046875 -43.621094 C 1 -46.671875 15.710938 -29.617188 21.8125 -5.523438 C 27.914062 18.570312 23.09375 40.574219 11.046875 43.621094 " transform="matrix(1,0,0,1,250,150)"/>
<path style="fill:none;stroke-width:1;stroke-linecap:butt;stroke-linejoin:miter;stroke:rgb(77.2079%,43.1554%,10.2387%);stroke-opacity:1;stroke-miterlimit:10;" d="M 3.714844 44.847656 C -8.667969 45.871094 -20.371094 26.625 -22.421875 1.859375 C -24.476562 -22.910156 -16.101562 -43.820312 -3.714844 -44.847656 C 8.667969 -45.871094 20.371094 -26.625 22.421875 -1.859375 C 24.476562 22.910156 16.101562 43.820312 3.714844 44.847656 " transform="matrix(1,0,0,1,250,150)"/>
<path style="fill:none;stroke-width:1;stroke-linecap:butt;stroke-linejoin:miter;stroke:rgb(77.2079%,43.1554%,10.2387%);stroke-opacity:1;stroke-miterlimit:10;" d="M -3.714844 44.847656 C -16.101562 43.820312 -24.476562 22.910156 -22.421875 -1.859375 C -20.371094 -26.625 -8.667969 -45.871094 3.714844 -44.847656 C 16.101562 -43.820312 24.476562 -22.910156 22.421875 1.859375 C 20.371094 26.625 8.667969 45.871094 -3.714844 44.847656 " transform="matrix(1,0,0,1,250,150)"/>
<path style="fill:none;stroke-width:1;stroke-linecap:butt;stroke-linejoin:miter;stroke:rgb(77.2079%,43.1554%,10.2387%);stroke-opacity:1;stroke-miterlimit:10;" d="M -11.046875 43.621094 C -23.09375 40.574219 -27.914062 18.570312 -21.8125 -5.523438 C -15.710938 -29.617188 -1 -46.671875 11.046875 -43.621094 C 23.09375 -40.574219 27.914062 -18.570312 21.8125 5.523438 C 15.710938 29.617188 1 46.671875 -11.046875 43.621094 " transform="matrix(1,0,0,1,250,150)"/>
<path style="fill:none;stroke-width:1;stroke-linecap:butt;stroke-linejoin:miter;stroke:rgb(77.2079%,43.1554%,10.2387%);stroke-opacity:1;stroke-miterlimit:10;" d="M -18.078125 41.210938 C -29.457031 36.21875 -30.589844 13.722656 -20.605469 -9.039062 C -10.621094 -31.796875 6.695312 -46.203125 18.078125 -41.210938 C 29.457031 -36.21875 30.589844 -13.722656 20.605469 9.039062 C 10.621094 31.796875 -6.695312 46.203125 -18.078125 41.210938 " transform="matrix(1,0,0,1,250,150)"/>
<path style="fill:none;stroke-width:1;stroke-linecap:butt;stroke-linejoin:miter;stroke:rgb(77.2079%,43.1554%,10.2387%);stroke-opacity:1;stroke-miterlimit:10;" d="M -24.613281 37.671875 C -35.015625 30.875 -32.429688 8.5 -18.835938 -12.304688 C -5.242188 -33.113281 14.210938 -44.46875 24.613281 -37.671875 C 35.015625 -30.875 32.429688 -8.5 18.835938 12.304688 C 5.242188 33.113281 -14.210938 44.46875 -24.613281 37.671875 " transform="matrix(1,0,0,1,250,150)"/>
<path style="fill:none;stroke-width:1;stroke-linecap:butt;stroke-linejoin:miter;stroke:rgb(77.2079%,43.1554%,10.2387%);stroke-opacity:1;stroke-miterlimit:10;" d="M -30.476562 33.109375 C -39.621094 24.691406 -33.386719 3.046875 -16.554688 -15.238281 C 0.277344 -33.523438 21.335938 -41.523438 30.476562 -33.109375 C 39.621094 -24.691406 33.386719 -3.046875 16.554688 15.238281 C -0.277344 33.523438 -21.335938 41.523438 -30.476562 33.109375 " transform="matrix(1,0,0,1,250,150)"/>
<path style="fill:none;stroke-width:1;stroke-linecap:butt;stroke-linejoin:miter;stroke:rgb(77.2079%,43.1554%,10.2387%);stroke-opacity:1;stroke-miterlimit:10;" d="M -35.511719 27.640625 C -43.144531 17.832031 -33.433594 -2.492188 -13.820312 -17.753906 C 5.792969 -33.019531 27.878906 -37.445312 35.511719 -27.640625 C 43.144531 -17.832031 33.433594 2.492188 13.820312 17.753906 C -5.792969 33.019531 -27.878906 37.445312 -35.511719 27.640625 " transform="matrix(1,0,0,1,250,150)"/>
<path style="fill:none;stroke-width:1;stroke-linecap:butt;stroke-linejoin:miter;stroke:rgb(77.2079%,43.1554%,10.2387%);stroke-opacity:1;stroke-miterlimit:10;" d="M -39.578125 21.417969 C -45.492188 10.488281 -32.566406 -7.960938 -10.707031 -19.789062 C 11.148438 -31.617188 33.660156 -32.347656 39.578125 -21.417969 C 45.492188 -10.488281 32.566406 7.960938 10.707031 19.789062 C -11.148438 31.617188 -33.660156 32.347656 -39.578125 21.417969 " transform="matrix(1,0,0,1,250,150)"/>
<path style="fill:none;stroke-width:1;stroke-linecap:butt;stroke-linejoin:miter;stroke:rgb(77.2079%,43.1554%,10.2387%);stroke-opacity:1;stroke-miterlimit:10;" d="M -42.5625 14.613281 C -46.597656 2.859375 -30.8125 -13.210938 -7.304688 -21.28125 C 16.199219 -29.351562 38.527344 -26.363281 42.5625 -14.613281 C 46.597656 -2.859375 30.8125 13.210938 7.304688 21.28125 C -16.199219 29.351562 -38.527344 26.363281 -42.5625 14.613281 " transform="matrix(1,0,0,1,250,150)"/>
<path style="fill:none;stroke-width:1;stroke-linecap:butt;stroke-linejoin:miter;stroke:rgb(77.2079%,43.1554%,10.2387%);stroke-opacity:1;stroke-miterlimit:10;" d="M -44.386719 7.40625 C -46.429688 -4.851562 -28.21875 -18.101562 -3.703125 -22.191406 C 20.808594 -26.285156 42.339844 -19.664062 44.386719 -7.40625 C 46.429688 4.851562 28.21875 18.101562 3.703125 22.191406 C -20.808594 26.285156 -42.339844 19.664062 -44.386719 7.40625 " transform="matrix(1,0,0,1,250,150)"/>
<path style="fill:none;stroke-width:1;stroke-linecap:butt;stroke-linejoin:miter;stroke:rgb(36.3898%,61.8501%,78.2349%);stroke-opacity:1;stroke-miterlimit:10;" d="M 0 45 C -24.851562 45 -45 24.851562 -45 0 C -45 -24.851562 -24.851562 -45 0 -45 C 24.851562 -45 45 -24.851562 45 0 C 45 24.851562 24.851562 45 0 45 " transform="matrix(1,0,0,1,50,250)"/>
<path style="fill:none;stroke-width:1;stroke-linecap:butt;stroke-linejoin:miter;stroke:rgb(36.3898%,61.8501%,78.2349%);stroke-opacity:1;stroke-miterlimit:10;" d="M 7.8125 44.316406 C -14.214844 48.199219 -35.570312 31.507812 -39.882812 7.03125 C -44.199219 -17.441406 -29.84375 -40.433594 -7.8125 -44.316406 C 14.214844 -48.199219 35.570312 -31.507812 39.882812 -7.03125 C 44.199219 17.441406 29.84375 40.433594 7.8125 44.316406 " transform="matrix(1,0,0,1,50,250)"/>
<path style="fill:none;stroke-width:1;stroke-linecap:butt;stroke-linejoin:miter;stroke:rgb(36.3898%,61.8501%,78.2349%);stroke-opacity:1;stroke-miterlimit:10;" d="M 15.390625 42.285156 C -3.292969 49.085938 -25.328125 35.667969 -33.828125 12.3125 C -42.328125 -11.042969 -34.074219 -35.484375 -15.390625 -42.285156 C 3.292969 -49.085938 25.328125 -35.667969 33.828125 -12.3125 C 42.328125 11.042969 34.074219 35.484375 15.390625 42.285156 " transform="matrix(1,0,0,1,50,250)"/>
<path style="fill:none;stroke-width:1;stroke-linecap:butt;stroke-linejoin:miter;stroke:rgb(36.3898%,61.8501%,78.2349%);stroke-opacity:1;stroke-miterlimit:10;" d="M 22.5 38.972656 C 7.433594 47.667969 -14.851562 37.273438 -27.28125 15.75 C -39.707031 -5.773438 -37.566406 -30.273438 -22.5 -38.972656 C -7.433594 -47.667969 14.851562 -37.273438 27.28125 -15.75 C 39.707031 5.773438 37.566406 30.273438 22.5 38.972656 " transform="matrix(1,0,0,1,50,250)"/>
<path style="fill:none;stroke-width:1;stroke-linecap:butt;stroke-linejoin:miter;stroke:rgb(36.3898%,61.8501%,78.2349%);stroke-opacity:1;stroke-miterlimit:10;" d="M 28.925781 34.472656 C 17.503906 44.058594 -4.707031 36.394531 -20.683594 17.355469 C -36.660156 -1.683594 -40.347656 -24.886719 -28.925781 -34.472656 C -17.503906 -44.058594 4.707031 -36.394531 20.683594 -17.355469 C 36.660156 1.683594 40.347656 24.886719 28.925781 34.472656 " transform="matrix(1,0,0,1,50,250)"/>
<path style="fill:none;stroke-width:1;stroke-linecap:butt;stroke-linejoin:miter;stroke:rgb(36.3898%,61.8501%,78.2349%);stroke-opacity:1;stroke-miterlimit:10;" d="M 34.472656 28.925781 C 26.484375 38.445312 4.574219 33.210938 -14.460938 17.234375 C -33.5 1.261719 -42.460938 -19.40625 -34.472656 -28.925781 C -26.484375 -38.445312 -4.574219 -33.210938 14.460938 -17.234375 C 33.5 -1.261719 42.460938 19.40625 34.472656 28.925781 " transform="matrix(1,0,0,1,50,250)"/>
<path style="fill:none;stroke-width:1;stroke-linecap:butt;stroke-linejoin:miter;stroke:rgb(36.3898%,61.8501%,78.2349%);stroke-opacity:1;stroke-miterlimit:10;" d="M 38.972656 22.5 C 34 31.109375 12.523438 28.015625 -9 15.589844 C -30.523438 3.160156 -43.941406 -13.890625 -38.972656 -22.5 C -34 -31.109375 -12.523438 -28.015625 9 -15.589844 C 30.523438 -3.160156 43.941406 13.890625 38.972656 22.5 " transform="matrix(1,0,0,1,50,250)"/>
<path style="fill:none;stroke-width:1;stroke-linecap:butt;stroke-linejoin:miter;stroke:rgb(36.3898%,61.8501%,78.2349%);stroke-opacity:1;stroke-miterlimit:10;" d="M 42.285156 15.390625 C 39.734375 22.398438 18.738281 21.1875 -4.617188 12.6875 C -27.972656 4.1875 -44.835938 -8.382812 -42.285156 -15.390625 C -39.734375 -22.398438 -18.738281 -21.1875 4.617188 -12.6875 C 27.972656 -4.1875 44.835938 8.382812 42.285156 15.390625 " transform="matrix(1,0,0,1,50,250)"/>
<path style="fill:none;stroke-width:1;stroke-linecap:butt;stroke-linejoin:miter;stroke:rgb(36.3898%,61.8501%,78.2349%);stroke-opacity:1;stroke-miterlimit:10;" d="M 44.316406 7.8125 C 43.453125 12.710938 22.914062 13.179688 -1.5625 8.863281 C -26.039062 4.546875 -45.179688 -2.917969 -44.316406 -7.8125 C -43.453125 -12.710938 -22.914062 -13.179688 1.5625 -8.863281 C 26.039062 -4.546875 45.179688 2.917969 44.316406 7.8125 " transform="matrix(1,0,0,1,50,250)"/>
<path style="fill:none;stroke-width:1;stroke-linecap:butt;stroke-linejoin:miter;stroke:rgb(100%,75%,0%);stroke-opacity:1;stroke-miterlimit:10;" d="M 45 0 C 45 24.851562 24.851562 45 0 45 C -24.851562 45 -45 24.851562 -45 0 C -45 -24.851562 -24.851562 -45 0 -45 C 24.851562 -45 45 -24.851562 45 0 " transform="matrix(1,0,0,1,150,250)"/>
<path style="fill:none;stroke-width:1;stroke-linecap:butt;stroke-linejoin:miter;stroke:rgb(100%,75%,0%);stroke-opacity:1;stroke-miterlimit:10;" d="M 39.882812 7.03125 C 36.390625 26.859375 15.699219 39.78125 -6.328125 35.894531 C -28.355469 32.011719 -43.378906 12.792969 -39.882812 -7.03125 C -36.390625 -26.859375 -15.699219 -39.78125 6.328125 -35.894531 C 28.355469 -32.011719 43.378906 -12.792969 39.882812 7.03125 " transform="matrix(1,0,0,1,150,250)"/>
<path style="fill:none;stroke-width:1;stroke-linecap:butt;stroke-linejoin:miter;stroke:rgb(100%,75%,0%);stroke-opacity:1;stroke-miterlimit:10;" d="M 33.828125 12.3125 C 28.390625 27.257812 8.832031 33.863281 -9.851562 27.0625 C -28.535156 20.261719 -39.269531 2.632812 -33.828125 -12.3125 C -28.390625 -27.257812 -8.832031 -33.863281 9.851562 -27.0625 C 28.535156 -20.261719 39.269531 -2.632812 33.828125 12.3125 " transform="matrix(1,0,0,1,150,250)"/>
<path style="fill:none;stroke-width:1;stroke-linecap:butt;stroke-linejoin:miter;stroke:rgb(100%,75%,0%);stroke-opacity:1;stroke-miterlimit:10;" d="M 27.28125 15.75 C 21.191406 26.296875 4.042969 27.792969 -11.023438 19.097656 C -26.089844 10.398438 -33.367188 -5.203125 -27.28125 -15.75 C -21.191406 -26.296875 -4.042969 -27.792969 11.023438 -19.097656 C 26.089844 -10.398438 33.367188 5.203125 27.28125 15.75 " transform="matrix(1,0,0,1,150,250)"/>
<path style="fill:none;stroke-width:1;stroke-linecap:butt;stroke-linejoin:miter;stroke:rgb(100%,75%,0%);stroke-opacity:1;stroke-miterlimit:10;" d="M 20.683594 17.355469 C 14.933594 24.210938 1.011719 21.996094 -10.414062 12.410156 C -21.835938 2.824219 -26.433594 -10.5 -20.683594 -17.355469 C -14.933594 -24.210938 -1.011719 -21.996094 10.414062 -12.410156 C 21.835938 -2.824219 26.433594 10.5 20.683594 17.355469 " transform="matrix(1,0,0,1,150,250)"/>
<path style="fill:none;stroke-width:1;stroke-linecap:butt;stroke-linejoin:miter;stroke:rgb(100%,75%,0%);stroke-opacity:1;stroke-miterlimit:10;" d="M 14.460938 17.234375 C 9.703125 21.230469 -0.628906 16.75 -8.617188 7.230469 C -16.605469 -2.289062 -19.222656 -13.242188 -14.460938 -17.234375 C -9.703125 -21.230469 0.628906 -16.75 8.617188 -7.230469 C 16.605469 2.289062 19.222656 13.242188 14.460938 17.234375 " transform="matrix(1,0,0,1,150,250)"/>
<path style="fill:none;stroke-width:1;stroke-linecap:butt;stroke-linejoin:miter;stroke:rgb(100%,75%,0%);stroke-opacity:1;stroke-miterlimit:10;" d="M 9 15.589844 C 5.554688 17.578125 -1.265625 12.210938 -6.234375 3.601562 C -11.207031 -5.007812 -12.445312 -13.601562 -9 -15.589844 C -5.554688 -17.578125 1.265625 -12.210938 6.234375 -3.601562 C 11.207031 5.007812 12.445312 13.601562 9 15.589844 " transform="matrix(1,0,0,1,150,250)"/>
<path style="fill:none;stroke-width:1;stroke-linecap:butt;stroke-linejoin:miter;stroke:rgb(100%,75%,0%);stroke-opacity:1;stroke-miterlimit:10;" d="M 4.617188 12.6875 C 2.515625 13.449219 -1.253906 8.390625 -3.804688 1.386719 C -6.355469 -5.621094 -6.71875 -11.921875 -4.617188 -12.6875 C -2.515625 -13.449219 1.253906 -8.390625 3.804688 -1.386719 C 6.355469 5.621094 6.71875 11.921875 4.617188 12.6875 " transform="matrix(1,0,0,1,150,250)"/>
<path style="fill:none;stroke-width:1;stroke-linecap:butt;stroke-linejoin:miter;stroke:rgb(100%,75%,0%);stroke-opacity:1;stroke-miterlimit:10;" d="M 1.5625 8.863281 C 0.582031 9.035156 -0.910156 5.207031 -1.773438 0.3125 C -2.636719 -4.582031 -2.542969 -8.691406 -1.5625 -8.863281 C -0.582031 -9.035156 0.910156 -5.207031 1.773438 -0.3125 C 2.636719 4.582031 2.542969 8.691406 1.5625 8.863281 " transform="matrix(1,0,0,1,150,250)"/>
<path style="fill:none;stroke-width:1;stroke-linecap:butt;stroke-linejoin:miter;stroke:rgb(64.7624%,37.816%,61.4037%);stroke-opacity:1;stroke-miterlimit:10;" d="M 45 0 C 45 24.851562 24.851562 45 0 45 C -24.851562 45 -45 24.851562 -45 0 C -45 -24.851562 -24.851562 -45 0 -45 C 24.851562 -45 45 -24.851562 45 0 " transform="matrix(1,0,0,1,250,250)"/>
<path style="fill:none;stroke-width:1;stroke-linecap:butt;stroke-linejoin:miter;stroke:rgb(64.7624%,37.816%,61.4037%);stroke-opacity:1;stroke-miterlimit:10;" d="M 38.058594 4.425781 C 34.175781 26.453125 13.167969 41.164062 -8.859375 37.277344 C -30.886719 33.394531 -45.59375 12.386719 -41.710938 -9.640625 C -37.824219 -31.667969 -16.820312 -46.375 5.207031 -42.492188 C 27.234375 -38.605469 41.945312 -17.601562 38.058594 4.425781 " transform="matrix(1,0,0,1,250,250)"/>
<path style="fill:none;stroke-width:1;stroke-linecap:butt;stroke-linejoin:miter;stroke:rgb(64.7624%,37.816%,61.4037%);stroke-opacity:1;stroke-miterlimit:10;" d="M 31.140625 6.546875 C 24.339844 25.226562 3.679688 34.863281 -15.003906 28.0625 C -33.683594 21.261719 -43.320312 0.601562 -36.519531 -18.082031 C -29.71875 -36.761719 -9.058594 -46.398438 9.625 -39.597656 C 28.304688 -32.796875 37.941406 -12.136719 31.140625 6.546875 " transform="matrix(1,0,0,1,250,250)"/>
<path style="fill:none;stroke-width:1;stroke-linecap:butt;stroke-linejoin:miter;stroke:rgb(64.7624%,37.816%,61.4037%);stroke-opacity:1;stroke-miterlimit:10;" d="M 24.808594 6.53125 C 16.109375 21.59375 -3.15625 26.757812 -18.21875 18.058594 C -33.285156 9.359375 -38.449219 -9.90625 -29.75 -24.96875 C -21.050781 -40.035156 -1.785156 -45.199219 13.28125 -36.5 C 28.34375 -27.800781 33.507812 -8.535156 24.808594 6.53125 " transform="matrix(1,0,0,1,250,250)"/>
<path style="fill:none;stroke-width:1;stroke-linecap:butt;stroke-linejoin:miter;stroke:rgb(64.7624%,37.816%,61.4037%);stroke-opacity:1;stroke-miterlimit:10;" d="M 19.574219 4.675781 C 9.988281 16.097656 -7.042969 17.589844 -18.464844 8.003906 C -29.886719 -1.582031 -31.378906 -18.613281 -21.792969 -30.035156 C -12.207031 -41.457031 4.824219 -42.949219 16.246094 -33.363281 C 27.667969 -23.777344 29.160156 -6.746094 19.574219 4.675781 " transform="matrix(1,0,0,1,250,250)"/>
<path style="fill:none;stroke-width:1;stroke-linecap:butt;stroke-linejoin:miter;stroke:rgb(64.7624%,37.816%,61.4037%);stroke-opacity:1;stroke-miterlimit:10;" d="M 15.847656 1.386719 C 6.332031 9.375 -7.863281 8.132812 -15.847656 -1.386719 C -23.835938 -10.90625 -22.59375 -25.097656 -13.074219 -33.085938 C -3.558594 -41.074219 10.636719 -39.832031 18.621094 -30.3125 C 26.609375 -20.792969 25.367188 -6.601562 15.847656 1.386719 " transform="matrix(1,0,0,1,250,250)"/>
<path style="fill:none;stroke-width:1;stroke-linecap:butt;stroke-linejoin:miter;stroke:rgb(64.7624%,37.816%,61.4037%);stroke-opacity:1;stroke-miterlimit:10;" d="M 13.941406 -2.851562 C 5.332031 2.117188 -5.675781 -0.832031 -10.648438 -9.441406 C -15.617188 -18.050781 -12.667969 -29.058594 -4.058594 -34.03125 C 4.550781 -39 15.558594 -36.050781 20.53125 -27.441406 C 25.5 -18.832031 22.550781 -7.824219 13.941406 -2.851562 " transform="matrix(1,0,0,1,250,250)"/>
<path style="fill:none;stroke-width:1;stroke-linecap:butt;stroke-linejoin:miter;stroke:rgb(64.7624%,37.816%,61.4037%);stroke-opacity:1;stroke-miterlimit:10;" d="M 14.03125 -7.5 C 7.023438 -4.949219 -0.722656 -8.5625 -3.273438 -15.570312 C -5.824219 -22.574219 -2.210938 -30.324219 4.796875 -32.871094 C 11.800781 -35.421875 19.550781 -31.808594 22.097656 -24.804688 C 24.648438 -17.796875 21.035156 -10.050781 14.03125 -7.5 " transform="matrix(1,0,0,1,250,250)"/>
<path style="fill:none;stroke-width:1;stroke-linecap:butt;stroke-linejoin:miter;stroke:rgb(64.7624%,37.816%,61.4037%);stroke-opacity:1;stroke-miterlimit:10;" d="M 16.164062 -11.988281 C 11.269531 -11.125 6.601562 -14.394531 5.738281 -19.289062 C 4.875 -24.183594 8.144531 -28.851562 13.039062 -29.714844 C 17.933594 -30.578125 22.601562 -27.308594 23.464844 -22.414062 C 24.328125 -17.519531 21.058594 -12.851562 16.164062 -11.988281 " transform="matrix(1,0,0,1,250,250)"/>
</g>
</svg>
