<?xml version="1.0" encoding="UTF-8"?>
<svg xmlns="http://www.w3.org/2000/svg" xmlns:xlink="http://www.w3.org/1999/xlink" width="300pt" height="300pt" viewBox="0 0 300 300" version="1.1">
<g id="id1">
<path style="fill:none;stroke-width:1;stroke-linecap:butt;stroke-linejoin:miter;stroke:rgb(36.8417%,50.6779%,70.9798%);stroke-opacity:1;stroke-miterlimit:10;" d="M 45 0 C 45 24.851562 24.851562 45 0 45 C -24.851562 45 -45 24.851562 -45 0 C -45 -24.851562 -24.851562 -45 0 -45 C 24.851562 -45 45 -24.851562 45 0 " transform="matrix(1,0,0,1,50,50)"/>
<path style="fill:none;stroke-width:1;stroke-linecap:butt;stroke-linejoin:miter;stroke:rgb(36.8417%,50.6779%,70.9798%);stroke-opacity:1;stroke-dasharray:1,2;stroke-miterlimit:10;" d="M -45 -45 L 45 -45 L 45 45 L -45 45 Z M -45 -45 L 45 45 M 45 -45 L -45 45 " transform="matrix(1,0,0,1,50,50)"/>
<path style="fill:none;stroke-width:1;stroke-linecap:butt;stroke-linejoin:miter;stroke:rgb(92.2526%,38.5626%,20.9179%);stroke-opacity:1;stroke-miterlimit:10;" d="M 33.75 0 C 33.75 18.640625 18.640625 33.75 0 33.75 C -18.640625 33.75 -33.75 18.640625 -33.75 0 C -33.75 -18.640625 -18.640625 -33.75 0 -33.75 C 18.640625 -33.75 33.75 -18.640625 33.75 0 " transform="matrix(1,0,0,1,150,50)"/>
<path style="fill:none;stroke-width:1;stroke-linecap:butt;stroke-linejoin:miter;stroke:rgb(92.2526%,38.5626%,20.9179%);stroke-opacity:1;stroke-dasharray:1,2;stroke-miterlimit:10;" d="M -33.75 -33.75 L 33.75 -33.75 L 33.75 33.75 L -33.75 33.75 Z M -33.75 -33.75 L 33.75 33.75 M 33.75 -33.75 L -33.75 33.75 " transform="matrix(1,0,0,1,150,50)"/>
<path style="fill:none;stroke-width:1;stroke-linecap:butt;stroke-linejoin:miter;stroke:rgb(36.3898%,61.8501%,78.2349%);stroke-opacity:1;stroke-miterlimit:10;" d="M 22.5 0 C 22.5 12.425781 12.425781 22.5 0 22.5 C -12.425781 22.5 -22.5 12.425781 -22.5 0 C -22.5 -12.425781 -12.425781 -22.5 0 -22.5 C 12.425781 -22.5 22.5 -12.425781 22.5 0 " transform="matrix(1,0,0,1,250,50)"/>
<path style="fill:none;stroke-width:1;stroke-linecap:butt;stroke-linejoin:miter;stroke:rgb(36.3898%,61.8501%,78.2349%);stroke-opacity:1;stroke-dasharray:1,2;stroke-miterlimit:10;" d="M -22.5 -22.5 L 22.5 -22.5 L 22.5 22.5 L -22.5 22.5 Z M -22.5 -22.5 L 22.5 22.5 M 22.5 -22.5 L -22.5 22.5 " transform="matrix(1,0,0,1,250,50)"/>
<path style="fill:none;stroke-width:1;stroke-linecap:butt;stroke-linejoin:miter;stroke:rgb(88.0722%,61.1041%,14.2051%);stroke-opacity:1;stroke-miterlimit:10;" d="M 22.5 0 C 22.5 24.851562 12.425781 45 0 45 C -12.425781 45 -22.5 24.851562 -22.5 0 C -22.5 -24.851562 -12.425781 -45 0 -45 C 12.425781 -45 22.5 -24.851562 22.5 0 " transform="matrix(1,0,0,1,50,150)"/>
<path style="fill:none;stroke-width:1;stroke-linecap:butt;stroke-linejoin:miter;stroke:rgb(88.0722%,61.1041%,14.2051%);stroke-opacity:1;stroke-dasharray:1,2;stroke-miterlimit:10;" d="M -22.5 -45 L 22.5 -45 L 22.5 45 L -22.5 45 Z M -22.5 -45 L 22.5 45 M 22.5 -45 L -22.5 45 " transform="matrix(1,0,0,1,50,150)"/>
<path style="fill:none;stroke-width:1;stroke-linecap:butt;stroke-linejoin:miter;stroke:rgb(52.8488%,47.0624%,70.1351%);stroke-opacity:1;stroke-miterlimit:10;" d="M 45 0 C 45 12.425781 24.851562 22.5 0 22.5 C -24.851562 22.5 -45 12.425781 -45 0 C -45 -12.425781 -24.851562 -22.5 0 -22.5 C 24.851562 -22.5 45 -12.425781 45 0 " transform="matrix(1,0,0,1,150,150)"/>
<path style="fill:none;stroke-width:1;stroke-linecap:butt;stroke-linejoin:miter;stroke:rgb(52.8488%,47.0624%,70.1351%);stroke-opacity:1;stroke-dasharray:1,2;stroke-miterlimit:10;" d="M -45 -22.5 L 45 -22.5 L 45 22.5 L -45 22.5 Z M -45 -22.5 L 45 22.5 M 45 -22.5 L -45 22.5 " transform="matrix(1,0,0,1,150,150)"/>
<path style="fill:none;stroke-width:1;stroke-linecap:butt;stroke-linejoin:miter;stroke:rgb(100%,75%,0%);stroke-opacity:1;stroke-miterlimit:10;" d="M 19.484375 11.25 C 7.058594 32.773438 -11.738281 45.183594 -22.5 38.972656 C -33.261719 32.757812 -31.910156 10.273438 -19.484375 -11.25 C -7.058594 -32.773438 11.738281 -45.183594 22.5 -38.972656 C 33.261719 -32.757812 31.910156 -10.273438 19.484375 11.25 " transform="matrix(1,0,0,1,250,150)"/>
<path style="fill:none;stroke-width:1;stroke-linecap:butt;stroke-linejoin:miter;stroke:rgb(100%,75%,0%);stroke-opacity:1;stroke-dasharray:1,2;stroke-miterlimit:10;" d="M -29.765625 -40.5625 L 29.765625 -40.5625 L 29.765625 40.5625 L -29.765625 40.5625 Z M -29.765625 -40.5625 L 29.765625 40.5625 M 29.765625 -40.5625 L -29.765625 40.5625 " transform="matrix(1,0,0,1,250,150)"/>
<path style="fill:none;stroke-width:1;stroke-linecap:butt;stroke-linejoin:miter;stroke:rgb(56.0181%,69.1569%,19.4885%);stroke-opacity:1;stroke-miterlimit:10;" d="M 22.5 0 C 29.957031 24.851562 25.925781 45 13.5 45 C 1.074219 45 -15.042969 24.851562 -22.5 0 C -29.957031 -24.851562 -25.925781 -45 -13.5 -45 C -1.074219 -45 15.042969 -24.851562 22.5 0 " transform="matrix(1,0,0,1,50,250)"/>
<path style="fill:none;stroke-width:1;stroke-linecap:butt;stroke-linejoin:miter;stroke:rgb(56.0181%,69.1569%,19.4885%);stroke-opacity:1;stroke-dasharray:1,2;stroke-miterlimit:10;" d="M -26.238281 -45 L 26.242188 -45 L 26.242188 45 L -26.238281 45 Z M -26.238281 -45 L 26.238281 45 M 26.238281 -45 L -26.238281 45 " transform="matrix(1,0,0,1,50,250)"/>
<path style="fill:none;stroke-width:1;stroke-linecap:butt;stroke-linejoin:miter;stroke:rgb(77.2079%,43.1554%,10.2387%);stroke-opacity:1;stroke-miterlimit:10;" d="M 45 13.5 C 45 25.925781 24.851562 29.957031 0 22.5 C -24.851562 15.042969 -45 -1.074219 -45 -13.5 C -45 -25.925781 -24.851562 -29.957031 0 -22.5 C 24.851562 -15.042969 45 1.074219 45 13.5 " transform="matrix(1,0,0,1,150,250)"/>
<path style="fill:none;stroke-width:1;stroke-linecap:butt;stroke-linejoin:miter;stroke:rgb(77.2079%,43.1554%,10.2387%);stroke-opacity:1;stroke-dasharray:1,2;stroke-miterlimit:10;" d="M -45 -26.238281 L 45 -26.238281 L 45 26.242188 L -45 26.242188 Z M -45 -26.238281 L 45 26.238281 M 45 -26.238281 L -45 26.238281 " transform="matrix(1,0,0,1,150,250)"/>
<path style="fill:none;stroke-width:1;stroke-linecap:butt;stroke-linejoin:miter;stroke:rgb(64.7624%,37.816%,61.4037%);stroke-opacity:1;stroke-miterlimit:10;" d="M 0 31.820312 C -8.785156 36.214844 -15.910156 25.527344 -15.910156 7.953125 C -15.910156 -9.617188 -8.785156 -27.425781 0 -31.820312 C 8.785156 -36.214844 15.910156 -25.527344 15.910156 -7.953125 C 15.910156 9.617188 8.785156 27.425781 0 31.820312 " transform="matrix(1,0,0,1,250,250)"/>
<path style="fill:none;stroke-width:1;stroke-linecap:butt;stroke-linejoin:miter;stroke:rgb(64.7624%,37.816%,61.4037%);stroke-opacity:1;stroke-dasharray:1,2;stroke-miterlimit:10;" d="M -15.910156 -32.800781 L 15.910156 -32.800781 L 15.910156 32.796875 L -15.910156 32.796875 Z M -15.910156 -32.800781 L 15.910156 32.800781 M 15.910156 -32.800781 L -15.910156 32.800781 " transform="matrix(1,0,0,1,250,250)"/>
</g>
</svg>
