<?xml version="1.0" encoding="UTF-8"?>
<svg xmlns="http://www.w3.org/2000/svg" xmlns:xlink="http://www.w3.org/1999/xlink" width="170pt" height="120pt" viewBox="0 0 170 120" version="1.1">
<g id="id1">
<path style="fill:none;stroke-width:1;stroke-linecap:butt;stroke-linejoin:miter;stroke:rgb(88.0722%,61.1041%,14.2051%);stroke-opacity:1;stroke-miterlimit:10;" d="M 2 0 C 2 2.667969 -2 2.667969 -2 0 C -2 -2.667969 2 -2.667969 2 0 " transform="matrix(1,0,0,1,30,50)"/>
<path style="fill:none;stroke-width:1;stroke-linecap:butt;stroke-linejoin:miter;stroke:rgb(88.0722%,61.1041%,14.2051%);stroke-opacity:1;stroke-miterlimit:10;" d="M 52 0 C 52 2.667969 48 2.667969 48 0 C 48 -2.667969 52 -2.667969 52 0 " transform="matrix(1,0,0,1,30,50)"/>
<path style="fill:none;stroke-width:1;stroke-linecap:butt;stroke-linejoin:miter;stroke:rgb(88.0722%,61.1041%,14.2051%);stroke-opacity:1;stroke-miterlimit:10;" d="M 52 50 C 52 52.667969 48 52.667969 48 50 C 48 47.332031 52 47.332031 52 50 " transform="matrix(1,0,0,1,30,50)"/>
<path style="fill:none;stroke-width:1;stroke-linecap:butt;stroke-linejoin:miter;stroke:rgb(88.0722%,61.1041%,14.2051%);stroke-opacity:1;stroke-miterlimit:10;" d="M 2 50 C 2 52.667969 -2 52.667969 -2 50 C -2 47.332031 2 47.332031 2 50 " transform="matrix(1,0,0,1,30,50)"/>
<path style=" stroke:none;fill-rule:nonzero;fill:rgb(36.8417%,50.6779%,70.9798%);fill-opacity:1;" d="M 31 60 C 31 62.667969 27 62.667969 27 60 C 27 57.332031 31 57.332031 31 60 "/>
<path style="fill:none;stroke-width:1;stroke-linecap:butt;stroke-linejoin:miter;stroke:rgb(36.8417%,50.6779%,70.9798%);stroke-opacity:1;stroke-miterlimit:10;" d="M -1 10 L 48.964844 11.867188 M 40.375 6.746094 L 48.964844 11.867188 L 40.015625 16.328125 " transform="matrix(1,0,0,1,30,50)"/>
<path style=" stroke:none;fill-rule:nonzero;fill:rgb(36.8417%,50.6779%,70.9798%);fill-opacity:1;" d="M 57 75 C 57 77.667969 53 77.667969 53 75 C 53 72.332031 57 72.332031 57 75 "/>
<path style="fill:none;stroke-width:1;stroke-linecap:butt;stroke-linejoin:miter;stroke:rgb(36.8417%,50.6779%,70.9798%);stroke-opacity:1;stroke-miterlimit:10;" d="M 25 25 L 75 25 M 66.222656 20.207031 L 75 25 L 66.222656 29.792969 " transform="matrix(1,0,0,1,30,50)"/>
<path style=" stroke:none;fill-rule:nonzero;fill:rgb(36.8417%,50.6779%,70.9798%);fill-opacity:1;" d="M 42 60 C 42 62.667969 38 62.667969 38 60 C 38 57.332031 42 57.332031 42 60 "/>
<path style="fill:none;stroke-width:1;stroke-linecap:butt;stroke-linejoin:miter;stroke:rgb(36.8417%,50.6779%,70.9798%);stroke-opacity:1;stroke-miterlimit:10;" d="M 10 10 L 23.347656 -38.1875 M 16.382812 -31.007812 L 23.347656 -38.1875 L 25.625 -28.449219 " transform="matrix(1,0,0,1,30,50)"/>
<path style=" stroke:none;fill-rule:nonzero;fill:rgb(36.8417%,50.6779%,70.9798%);fill-opacity:1;" d="M 107 75 C 107 77.667969 103 77.667969 103 75 C 103 72.332031 107 72.332031 107 75 "/>
<path style="fill:none;stroke-width:1;stroke-linecap:butt;stroke-linejoin:miter;stroke:rgb(36.8417%,50.6779%,70.9798%);stroke-opacity:1;stroke-miterlimit:10;" d="M 75 25 L 125 25 M 116.222656 20.207031 L 125 25 L 116.222656 29.792969 " transform="matrix(1,0,0,1,30,50)"/>
</g>
</svg>
