<?xml version="1.0" encoding="UTF-8"?>
<svg xmlns="http://www.w3.org/2000/svg" xmlns:xlink="http://www.w3.org/1999/xlink" width="200pt" height="70pt" viewBox="0 0 200 70" version="1.1">
<defs>
<g>
<symbol overflow="visible" id="id1">
<path style="stroke:none;" d="M 0.59375 2.125 L 0.59375 -8.46875 L 6.59375 -8.46875 L 6.59375 2.125 Z M 1.265625 1.453125 L 5.9375 1.453125 L 5.9375 -7.78125 L 1.265625 -7.78125 Z M 1.265625 1.453125 "/>
</symbol>
<symbol overflow="visible" id="id2">
<path style="stroke:none;" d="M 2.359375 -7.78125 L 2.359375 -4.484375 L 3.84375 -4.484375 C 4.394531 -4.484375 4.820312 -4.625 5.125 -4.90625 C 5.425781 -5.195312 5.578125 -5.609375 5.578125 -6.140625 C 5.578125 -6.660156 5.425781 -7.0625 5.125 -7.34375 C 4.820312 -7.632812 4.394531 -7.78125 3.84375 -7.78125 Z M 1.171875 -8.75 L 3.84375 -8.75 C 4.832031 -8.75 5.578125 -8.523438 6.078125 -8.078125 C 6.578125 -7.640625 6.828125 -6.992188 6.828125 -6.140625 C 6.828125 -5.273438 6.578125 -4.617188 6.078125 -4.171875 C 5.578125 -3.734375 4.832031 -3.515625 3.84375 -3.515625 L 2.359375 -3.515625 L 2.359375 0 L 1.171875 0 Z M 1.171875 -8.75 "/>
</symbol>
<symbol overflow="visible" id="id3">
<path style="stroke:none;" d="M 3.671875 -5.8125 C 3.097656 -5.8125 2.640625 -5.582031 2.296875 -5.125 C 1.960938 -4.675781 1.796875 -4.0625 1.796875 -3.28125 C 1.796875 -2.488281 1.960938 -1.867188 2.296875 -1.421875 C 2.628906 -0.972656 3.085938 -0.75 3.671875 -0.75 C 4.242188 -0.75 4.695312 -0.972656 5.03125 -1.421875 C 5.375 -1.878906 5.546875 -2.5 5.546875 -3.28125 C 5.546875 -4.050781 5.375 -4.664062 5.03125 -5.125 C 4.695312 -5.582031 4.242188 -5.8125 3.671875 -5.8125 Z M 3.671875 -6.71875 C 4.609375 -6.71875 5.34375 -6.410156 5.875 -5.796875 C 6.414062 -5.191406 6.6875 -4.351562 6.6875 -3.28125 C 6.6875 -2.207031 6.414062 -1.363281 5.875 -0.75 C 5.34375 -0.132812 4.609375 0.171875 3.671875 0.171875 C 2.734375 0.171875 1.992188 -0.132812 1.453125 -0.75 C 0.921875 -1.363281 0.65625 -2.207031 0.65625 -3.28125 C 0.65625 -4.351562 0.921875 -5.191406 1.453125 -5.796875 C 1.992188 -6.410156 2.734375 -6.71875 3.671875 -6.71875 Z M 3.671875 -6.71875 "/>
</symbol>
<symbol overflow="visible" id="id4">
<path style="stroke:none;" d="M 1.125 -6.5625 L 2.203125 -6.5625 L 2.203125 0 L 1.125 0 Z M 1.125 -9.125 L 2.203125 -9.125 L 2.203125 -7.75 L 1.125 -7.75 Z M 1.125 -9.125 "/>
</symbol>
<symbol overflow="visible" id="id5">
<path style="stroke:none;" d="M 6.59375 -3.96875 L 6.59375 0 L 5.515625 0 L 5.515625 -3.921875 C 5.515625 -4.546875 5.390625 -5.007812 5.140625 -5.3125 C 4.898438 -5.625 4.539062 -5.78125 4.0625 -5.78125 C 3.476562 -5.78125 3.015625 -5.59375 2.671875 -5.21875 C 2.335938 -4.851562 2.171875 -4.347656 2.171875 -3.703125 L 2.171875 0 L 1.09375 0 L 1.09375 -6.5625 L 2.171875 -6.5625 L 2.171875 -5.546875 C 2.429688 -5.941406 2.734375 -6.234375 3.078125 -6.421875 C 3.429688 -6.617188 3.835938 -6.71875 4.296875 -6.71875 C 5.046875 -6.71875 5.613281 -6.484375 6 -6.015625 C 6.394531 -5.554688 6.59375 -4.875 6.59375 -3.96875 Z M 6.59375 -3.96875 "/>
</symbol>
<symbol overflow="visible" id="id6">
<path style="stroke:none;" d="M 2.203125 -8.421875 L 2.203125 -6.5625 L 4.421875 -6.5625 L 4.421875 -5.71875 L 2.203125 -5.71875 L 2.203125 -2.15625 C 2.203125 -1.625 2.273438 -1.28125 2.421875 -1.125 C 2.566406 -0.976562 2.863281 -0.90625 3.3125 -0.90625 L 4.421875 -0.90625 L 4.421875 0 L 3.3125 0 C 2.476562 0 1.898438 -0.15625 1.578125 -0.46875 C 1.265625 -0.78125 1.109375 -1.34375 1.109375 -2.15625 L 1.109375 -5.71875 L 0.328125 -5.71875 L 0.328125 -6.5625 L 1.109375 -6.5625 L 1.109375 -8.421875 Z M 2.203125 -8.421875 "/>
</symbol>
<symbol overflow="visible" id="id7">
<path style="stroke:none;" d=""/>
</symbol>
<symbol overflow="visible" id="id8">
<path style="stroke:none;" d="M 2.171875 -0.984375 L 2.171875 2.5 L 1.09375 2.5 L 1.09375 -6.5625 L 2.171875 -6.5625 L 2.171875 -5.5625 C 2.398438 -5.957031 2.6875 -6.25 3.03125 -6.4375 C 3.375 -6.625 3.785156 -6.71875 4.265625 -6.71875 C 5.066406 -6.71875 5.71875 -6.398438 6.21875 -5.765625 C 6.71875 -5.140625 6.96875 -4.3125 6.96875 -3.28125 C 6.96875 -2.25 6.71875 -1.414062 6.21875 -0.78125 C 5.71875 -0.144531 5.066406 0.171875 4.265625 0.171875 C 3.785156 0.171875 3.375 0.078125 3.03125 -0.109375 C 2.6875 -0.304688 2.398438 -0.597656 2.171875 -0.984375 Z M 5.84375 -3.28125 C 5.84375 -4.070312 5.675781 -4.691406 5.34375 -5.140625 C 5.019531 -5.585938 4.578125 -5.8125 4.015625 -5.8125 C 3.441406 -5.8125 2.988281 -5.585938 2.65625 -5.140625 C 2.332031 -4.691406 2.171875 -4.070312 2.171875 -3.28125 C 2.171875 -2.488281 2.332031 -1.863281 2.65625 -1.40625 C 2.988281 -0.957031 3.441406 -0.734375 4.015625 -0.734375 C 4.578125 -0.734375 5.019531 -0.957031 5.34375 -1.40625 C 5.675781 -1.863281 5.84375 -2.488281 5.84375 -3.28125 Z M 5.84375 -3.28125 "/>
</symbol>
<symbol overflow="visible" id="id9">
<path style="stroke:none;" d="M 1.125 -9.125 L 2.203125 -9.125 L 2.203125 0 L 1.125 0 Z M 1.125 -9.125 "/>
</symbol>
<symbol overflow="visible" id="id10">
<path style="stroke:none;" d="M 3.859375 0.609375 C 3.554688 1.390625 3.257812 1.898438 2.96875 2.140625 C 2.675781 2.378906 2.289062 2.5 1.8125 2.5 L 0.953125 2.5 L 0.953125 1.59375 L 1.578125 1.59375 C 1.878906 1.59375 2.109375 1.519531 2.265625 1.375 C 2.429688 1.238281 2.613281 0.910156 2.8125 0.390625 L 3.015625 -0.109375 L 0.359375 -6.5625 L 1.5 -6.5625 L 3.546875 -1.4375 L 5.609375 -6.5625 L 6.75 -6.5625 Z M 3.859375 0.609375 "/>
</symbol>
<symbol overflow="visible" id="id11">
<path style="stroke:none;" d="M 5.453125 -3.359375 C 5.453125 -4.140625 5.289062 -4.742188 4.96875 -5.171875 C 4.644531 -5.597656 4.191406 -5.8125 3.609375 -5.8125 C 3.035156 -5.8125 2.585938 -5.597656 2.265625 -5.171875 C 1.941406 -4.742188 1.78125 -4.140625 1.78125 -3.359375 C 1.78125 -2.578125 1.941406 -1.972656 2.265625 -1.546875 C 2.585938 -1.117188 3.035156 -0.90625 3.609375 -0.90625 C 4.191406 -0.90625 4.644531 -1.117188 4.96875 -1.546875 C 5.289062 -1.972656 5.453125 -2.578125 5.453125 -3.359375 Z M 6.53125 -0.8125 C 6.53125 0.300781 6.28125 1.128906 5.78125 1.671875 C 5.289062 2.222656 4.53125 2.5 3.5 2.5 C 3.125 2.5 2.765625 2.46875 2.421875 2.40625 C 2.085938 2.351562 1.765625 2.269531 1.453125 2.15625 L 1.453125 1.109375 C 1.765625 1.273438 2.078125 1.398438 2.390625 1.484375 C 2.703125 1.566406 3.015625 1.609375 3.328125 1.609375 C 4.035156 1.609375 4.566406 1.421875 4.921875 1.046875 C 5.273438 0.679688 5.453125 0.125 5.453125 -0.625 L 5.453125 -1.15625 C 5.222656 -0.769531 4.9375 -0.476562 4.59375 -0.28125 C 4.25 -0.09375 3.832031 0 3.34375 0 C 2.539062 0 1.890625 -0.304688 1.390625 -0.921875 C 0.898438 -1.535156 0.65625 -2.347656 0.65625 -3.359375 C 0.65625 -4.367188 0.898438 -5.179688 1.390625 -5.796875 C 1.890625 -6.410156 2.539062 -6.71875 3.34375 -6.71875 C 3.832031 -6.71875 4.25 -6.617188 4.59375 -6.421875 C 4.9375 -6.234375 5.222656 -5.945312 5.453125 -5.5625 L 5.453125 -6.5625 L 6.53125 -6.5625 Z M 6.53125 -0.8125 "/>
</symbol>
<symbol overflow="visible" id="id12">
<path style="stroke:none;" d="M 2.296875 -1.484375 L 3.484375 -1.484375 L 3.484375 0 L 2.296875 0 Z M 3.453125 -2.34375 L 2.328125 -2.34375 L 2.328125 -3.25 C 2.328125 -3.644531 2.378906 -3.96875 2.484375 -4.21875 C 2.597656 -4.476562 2.832031 -4.773438 3.1875 -5.109375 L 3.703125 -5.625 C 3.929688 -5.832031 4.09375 -6.03125 4.1875 -6.21875 C 4.289062 -6.40625 4.34375 -6.59375 4.34375 -6.78125 C 4.34375 -7.125 4.210938 -7.40625 3.953125 -7.625 C 3.703125 -7.84375 3.363281 -7.953125 2.9375 -7.953125 C 2.632812 -7.953125 2.304688 -7.878906 1.953125 -7.734375 C 1.609375 -7.597656 1.242188 -7.398438 0.859375 -7.140625 L 0.859375 -8.25 C 1.222656 -8.46875 1.59375 -8.628906 1.96875 -8.734375 C 2.351562 -8.847656 2.742188 -8.90625 3.140625 -8.90625 C 3.859375 -8.90625 4.4375 -8.710938 4.875 -8.328125 C 5.3125 -7.953125 5.53125 -7.457031 5.53125 -6.84375 C 5.53125 -6.539062 5.457031 -6.253906 5.3125 -5.984375 C 5.175781 -5.722656 4.929688 -5.425781 4.578125 -5.09375 L 4.0625 -4.578125 C 3.882812 -4.398438 3.753906 -4.257812 3.671875 -4.15625 C 3.597656 -4.050781 3.546875 -3.945312 3.515625 -3.84375 C 3.492188 -3.769531 3.476562 -3.671875 3.46875 -3.546875 C 3.457031 -3.429688 3.453125 -3.273438 3.453125 -3.078125 Z M 3.453125 -2.34375 "/>
</symbol>
</g>
</defs>
<g id="id13">
<path style="fill:none;stroke-width:1;stroke-linecap:butt;stroke-linejoin:miter;stroke:rgb(36.8417%,50.6779%,70.9798%);stroke-opacity:1;stroke-miterlimit:10;" d="M 0 0 L 50 0 L 50 50 L 0 50 Z M 0 0 " transform="matrix(1,0,0,1,30,10)"/>
<path style=" stroke:none;fill-rule:nonzero;fill:rgb(36.8417%,50.6779%,70.9798%);fill-opacity:0.1;" d="M 30 10 L 80 10 L 80 60 L 30 60 Z M 30 10 "/>
<path style="fill:none;stroke-width:1;stroke-linecap:butt;stroke-linejoin:miter;stroke:rgb(88.0722%,61.1041%,14.2051%);stroke-opacity:1;stroke-miterlimit:10;" d="M -12 16.25 C -12 20.25 -18 20.25 -18 16.25 C -18 12.25 -12 12.25 -12 16.25 " transform="matrix(1,0,0,1,30,10)"/>
<path style="fill:none;stroke-width:1;stroke-linecap:butt;stroke-linejoin:miter;stroke:rgb(88.0722%,61.1041%,14.2051%);stroke-opacity:1;stroke-miterlimit:10;" d="M -2 18.75 C -2 22.75 -8 22.75 -8 18.75 C -8 14.75 -2 14.75 -2 18.75 " transform="matrix(1,0,0,1,30,10)"/>
<path style=" stroke:none;fill-rule:nonzero;fill:rgb(88.0722%,61.1041%,14.2051%);fill-opacity:1;" d="M 38 31.25 C 38 35.25 32 35.25 32 31.25 C 32 27.25 38 27.25 38 31.25 "/>
<path style=" stroke:none;fill-rule:nonzero;fill:rgb(88.0722%,61.1041%,14.2051%);fill-opacity:1;" d="M 48 33.75 C 48 37.75 42 37.75 42 33.75 C 42 29.75 48 29.75 48 33.75 "/>
<path style=" stroke:none;fill-rule:nonzero;fill:rgb(88.0722%,61.1041%,14.2051%);fill-opacity:1;" d="M 58 36.25 C 58 40.25 52 40.25 52 36.25 C 52 32.25 58 32.25 58 36.25 "/>
<path style=" stroke:none;fill-rule:nonzero;fill:rgb(88.0722%,61.1041%,14.2051%);fill-opacity:1;" d="M 68 38.75 C 68 42.75 62 42.75 62 38.75 C 62 34.75 68 34.75 68 38.75 "/>
<path style=" stroke:none;fill-rule:nonzero;fill:rgb(88.0722%,61.1041%,14.2051%);fill-opacity:1;" d="M 78 41.25 C 78 45.25 72 45.25 72 41.25 C 72 37.25 78 37.25 78 41.25 "/>
<path style="fill:none;stroke-width:1;stroke-linecap:butt;stroke-linejoin:miter;stroke:rgb(88.0722%,61.1041%,14.2051%);stroke-opacity:1;stroke-miterlimit:10;" d="M 58 33.75 C 58 37.75 52 37.75 52 33.75 C 52 29.75 58 29.75 58 33.75 " transform="matrix(1,0,0,1,30,10)"/>
<path style="fill:none;stroke-width:1;stroke-linecap:butt;stroke-linejoin:miter;stroke:rgb(88.0722%,61.1041%,14.2051%);stroke-opacity:1;stroke-miterlimit:10;" d="M 68 36.25 C 68 40.25 62 40.25 62 36.25 C 62 32.25 68 32.25 68 36.25 " transform="matrix(1,0,0,1,30,10)"/>
<g style="fill:rgb(88.0722%,61.1041%,14.2051%);fill-opacity:1;">
  <use xlink:href="#id2" x="90" y="30"/>
  <use xlink:href="#id3" x="97.236328" y="30"/>
  <use xlink:href="#id4" x="104.578125" y="30"/>
  <use xlink:href="#id5" x="107.912109" y="30"/>
  <use xlink:href="#id6" x="115.517578" y="30"/>
  <use xlink:href="#id7" x="120.222656" y="30"/>
  <use xlink:href="#id4" x="124.037109" y="30"/>
  <use xlink:href="#id5" x="127.371094" y="30"/>
  <use xlink:href="#id7" x="134.976562" y="30"/>
  <use xlink:href="#id8" x="138.791016" y="30"/>
  <use xlink:href="#id3" x="146.408203" y="30"/>
  <use xlink:href="#id9" x="153.75" y="30"/>
  <use xlink:href="#id10" x="157.083984" y="30"/>
  <use xlink:href="#id11" x="164.185547" y="30"/>
  <use xlink:href="#id3" x="171.802734" y="30"/>
  <use xlink:href="#id5" x="179.144531" y="30"/>
  <use xlink:href="#id12" x="186.75" y="30"/>
</g>
</g>
</svg>
