<?xml version="1.0" encoding="UTF-8"?>
<svg xmlns="http://www.w3.org/2000/svg" xmlns:xlink="http://www.w3.org/1999/xlink" width="520pt" height="300pt" viewBox="0 0 520 300" version="1.1">
<g id="surface-0">
<path style="fill:none;stroke-width:2;stroke-linecap:butt;stroke-linejoin:miter;stroke:rgb(0%,0%,0%);stroke-opacity:0.5;stroke-miterlimit:10;" d="M 10 100 L 512.253906 188.5625 "/>
<path style="fill:none;stroke-width:1;stroke-linecap:butt;stroke-linejoin:miter;stroke:rgb(70%,0%,0%);stroke-opacity:1;stroke-miterlimit:10;" d="M 185 250 C 185 256.667969 175 256.667969 175 250 C 175 243.332031 185 243.332031 185 250 "/>
<path style="fill:none;stroke-width:1;stroke-linecap:butt;stroke-linejoin:miter;stroke:rgb(70%,0%,0%);stroke-opacity:0.7;stroke-miterlimit:10;" d="M 180 250 L 34.28125 104.28125 M 34.28125 104.28125 L -152.488281 191.375 "/>
<path style="fill:none;stroke-width:1;stroke-linecap:butt;stroke-linejoin:miter;stroke:rgb(70%,7%,0%);stroke-opacity:0.7;stroke-miterlimit:10;" d="M 180 250 L 102.851562 116.371094 M 102.851562 116.371094 L -15.351562 215.554688 "/>
<path style="fill:none;stroke-width:1;stroke-linecap:butt;stroke-linejoin:miter;stroke:rgb(70%,14%,0%);stroke-opacity:0.7;stroke-miterlimit:10;" d="M 180 250 L 146.246094 124.023438 M 146.246094 124.023438 L 71.4375 230.859375 "/>
<path style="fill:none;stroke-width:1;stroke-linecap:butt;stroke-linejoin:miter;stroke:rgb(70%,21%,0%);stroke-opacity:0.7;stroke-miterlimit:10;" d="M 180 250 L 180 129.976562 M 180 129.976562 L 138.949219 242.761719 "/>
<path style="fill:none;stroke-width:1;stroke-linecap:butt;stroke-linejoin:miter;stroke:rgb(70%,28%,0%);stroke-opacity:0.7;stroke-miterlimit:10;" d="M 180 250 L 210.710938 135.390625 M 210.710938 135.390625 L 200.367188 253.589844 "/>
<path style="fill:none;stroke-width:1;stroke-linecap:butt;stroke-linejoin:miter;stroke:rgb(70%,35%,0%);stroke-opacity:0.7;stroke-miterlimit:10;" d="M 180 250 L 242.894531 141.066406 M 242.894531 141.066406 L 264.734375 264.941406 "/>
<path style="fill:none;stroke-width:1;stroke-linecap:butt;stroke-linejoin:miter;stroke:rgb(70%,42%,0%);stroke-opacity:0.7;stroke-miterlimit:10;" d="M 180 250 L 282.035156 147.964844 M 282.035156 147.964844 L 343.015625 278.742188 "/>
<path style="fill:none;stroke-width:1;stroke-linecap:butt;stroke-linejoin:miter;stroke:rgb(70%,49%,0%);stroke-opacity:0.7;stroke-miterlimit:10;" d="M 180 250 L 339.25 158.054688 M 339.25 158.054688 L 457.453125 298.921875 "/>
<path style="fill:none;stroke-width:1;stroke-linecap:butt;stroke-linejoin:miter;stroke:rgb(70%,56%,0%);stroke-opacity:0.7;stroke-miterlimit:10;" d="M 180 250 L 450.15625 177.613281 M 450.15625 177.613281 L 679.261719 338.035156 "/>
<path style="fill:none;stroke-width:1;stroke-linecap:butt;stroke-linejoin:miter;stroke:rgb(0%,70%,70%);stroke-opacity:1;stroke-miterlimit:10;" d="M 355 30 C 355 36.667969 345 36.667969 345 30 C 345 23.332031 355 23.332031 355 30 "/>
<path style="fill:none;stroke-width:1;stroke-linecap:butt;stroke-linejoin:miter;stroke:rgb(0%,70%,70%);stroke-opacity:0.7;stroke-miterlimit:10;" d="M 350 30 L 507.769531 187.769531 M 507.769531 187.769531 L 709.988281 93.476562 "/>
<path style="fill:none;stroke-width:1;stroke-linecap:butt;stroke-linejoin:miter;stroke:rgb(0%,63%,70%);stroke-opacity:0.7;stroke-miterlimit:10;" d="M 350 30 L 433.53125 174.679688 M 433.53125 174.679688 L 561.507812 67.292969 "/>
<path style="fill:none;stroke-width:1;stroke-linecap:butt;stroke-linejoin:miter;stroke:rgb(0%,56%,70%);stroke-opacity:0.7;stroke-miterlimit:10;" d="M 350 30 L 386.546875 166.394531 M 386.546875 166.394531 L 467.539062 50.726562 "/>
<path style="fill:none;stroke-width:1;stroke-linecap:butt;stroke-linejoin:miter;stroke:rgb(0%,49%,70%);stroke-opacity:0.7;stroke-miterlimit:10;" d="M 350 30 L 350 159.953125 M 350 159.953125 L 394.445312 37.835938 "/>
<path style="fill:none;stroke-width:1;stroke-linecap:butt;stroke-linejoin:miter;stroke:rgb(0%,42%,70%);stroke-opacity:0.7;stroke-miterlimit:10;" d="M 350 30 L 316.75 154.089844 M 316.75 154.089844 L 327.945312 26.113281 "/>
<path style="fill:none;stroke-width:1;stroke-linecap:butt;stroke-linejoin:miter;stroke:rgb(0%,35%,70%);stroke-opacity:0.7;stroke-miterlimit:10;" d="M 350 30 L 281.90625 147.945312 M 281.90625 147.945312 L 258.253906 13.824219 "/>
<path style="fill:none;stroke-width:1;stroke-linecap:butt;stroke-linejoin:miter;stroke:rgb(0%,28%,70%);stroke-opacity:0.7;stroke-miterlimit:10;" d="M 350 30 L 239.527344 140.472656 M 239.527344 140.472656 L 173.503906 -1.121094 "/>
<path style="fill:none;stroke-width:1;stroke-linecap:butt;stroke-linejoin:miter;stroke:rgb(0%,21%,70%);stroke-opacity:0.7;stroke-miterlimit:10;" d="M 350 30 L 177.578125 129.546875 M 177.578125 129.546875 L 49.601562 -22.96875 "/>
<path style="fill:none;stroke-width:1;stroke-linecap:butt;stroke-linejoin:miter;stroke:rgb(0%,14%,70%);stroke-opacity:0.7;stroke-miterlimit:10;" d="M 350 30 L 57.5 108.375 M 57.5 108.375 L -190.554688 -65.316406 "/>
</g>
</svg>
