<?xml version="1.0" encoding="UTF-8"?>
<svg xmlns="http://www.w3.org/2000/svg" xmlns:xlink="http://www.w3.org/1999/xlink" width="700pt" height="500pt" viewBox="0 0 700 500" version="1.1">
<g id="surface2">
<rect x="0" y="0" width="700" height="500" style="fill:rgb(100%,100%,100%);fill-opacity:1;stroke:none;"/>
<path style="fill:none;stroke-width:6;stroke-linecap:butt;stroke-linejoin:miter;stroke:rgb(27.058824%,22.745098%,38.431373%);stroke-opacity:1;stroke-miterlimit:10;" d="M 36.769531 371.65625 L 40.097656 376.710938 L 42.042969 379.996094 L 42.597656 381.515625 L 42.503906 383.296875 L 41.757812 385.332031 L 40.3125 386.882812 L 38.167969 387.949219 L 32.460938 389.945312 L 23.195312 392.871094 L 18.28125 393.578125 L 17.730469 392.054688 L 20.792969 386.285156 L 27.472656 376.265625 L 31.886719 370.722656 L 34.03125 369.660156 Z M 36.769531 371.65625 "/>
<path style="fill:none;stroke-width:6;stroke-linecap:butt;stroke-linejoin:miter;stroke:rgb(27.058824%,22.745098%,38.431373%);stroke-opacity:1;stroke-miterlimit:10;" d="M 46.152344 86.578125 L 49.050781 90.488281 L 50.597656 93.636719 L 50.789062 96.023438 L 49.878906 100.835938 L 47.871094 108.070312 L 45.886719 112.695312 L 43.929688 114.714844 L 39.390625 116.808594 L 32.269531 118.984375 L 27.152344 119.125 L 24.050781 117.222656 L 18.816406 110.75 L 11.453125 99.707031 L 6.980469 92.757812 L 5.40625 89.902344 L 4.617188 87.335938 L 4.617188 85.0625 L 6.070312 83.679688 L 8.984375 83.191406 L 17.238281 82.949219 L 30.832031 82.949219 L 39.398438 83.367188 L 42.933594 84.207031 Z M 46.152344 86.578125 "/>
<path style="fill:none;stroke-width:6;stroke-linecap:butt;stroke-linejoin:miter;stroke:rgb(27.058824%,22.745098%,38.431373%);stroke-opacity:1;stroke-miterlimit:10;" d="M 18.183594 404.136719 L 30.859375 400.128906 L 39.050781 398.472656 L 42.75 399.160156 L 46.894531 403.117188 L 51.488281 410.34375 L 52.355469 414.730469 L 49.503906 416.277344 L 39.132812 417.050781 L 21.234375 417.050781 L 10.367188 416.808594 L 6.53125 416.320312 L 4.617188 414.9375 L 4.617188 412.664062 L 4.683594 411.179688 L 4.816406 410.492188 L 5.199219 409.675781 L 5.828125 408.730469 L 7.566406 407.730469 L 10.417969 406.667969 Z M 18.183594 404.136719 "/>
<path style="fill:none;stroke-width:6;stroke-linecap:butt;stroke-linejoin:miter;stroke:rgb(27.058824%,22.745098%,38.431373%);stroke-opacity:1;stroke-miterlimit:10;" d="M 56.355469 132.28125 L 64.960938 141.5 L 70.011719 147.675781 L 71.503906 150.808594 L 71.429688 155.070312 L 69.792969 160.460938 L 68.40625 163.882812 L 67.277344 165.328125 L 64.898438 166.734375 L 61.265625 168.097656 L 58.050781 167.414062 L 55.253906 164.679688 L 49.152344 156.253906 L 39.738281 142.136719 L 34.675781 133.363281 L 33.960938 129.941406 L 36.644531 127.300781 L 42.722656 125.445312 L 47.335938 125.304688 L 50.480469 126.882812 Z M 56.355469 132.28125 "/>
<path style="fill:none;stroke-width:6;stroke-linecap:butt;stroke-linejoin:miter;stroke:rgb(27.058824%,22.745098%,38.431373%);stroke-opacity:1;stroke-miterlimit:10;" d="M 67.164062 335.78125 L 73.023438 347.5 L 75.507812 355.226562 L 74.617188 358.957031 L 69.152344 363.671875 L 59.117188 369.367188 L 52.632812 372.226562 L 49.6875 372.242188 L 46.367188 369.445312 L 42.667969 363.832031 L 41.265625 359.160156 L 42.160156 355.429688 L 46.542969 347.660156 L 54.410156 335.855469 L 59.816406 329.945312 L 62.757812 329.929688 Z M 67.164062 335.78125 "/>
<path style="fill:none;stroke-width:6;stroke-linecap:butt;stroke-linejoin:miter;stroke:rgb(27.058824%,22.745098%,38.431373%);stroke-opacity:1;stroke-miterlimit:10;" d="M 75.738281 183.421875 L 81.761719 192.898438 L 85.316406 198.933594 L 86.390625 201.53125 L 86.425781 204.152344 L 85.421875 206.800781 L 84.011719 207.210938 L 82.195312 205.375 L 77.554688 198.855469 L 70.085938 187.652344 L 65.8125 180.753906 L 64.734375 178.15625 L 65.421875 176.398438 L 67.867188 175.480469 L 70 175.9375 L 71.816406 177.769531 Z M 75.738281 183.421875 "/>
<path style="fill:none;stroke-width:6;stroke-linecap:butt;stroke-linejoin:miter;stroke:rgb(27.058824%,22.745098%,38.431373%);stroke-opacity:1;stroke-miterlimit:10;" d="M 69.261719 84.527344 L 63.714844 86.230469 L 60.207031 87.082031 L 58.75 87.082031 L 57.386719 86.230469 L 56.125 84.527344 L 56.085938 83.496094 L 57.277344 83.132812 L 61.277344 82.949219 L 68.089844 82.949219 L 71.632812 83.132812 L 71.902344 83.496094 Z M 69.261719 84.527344 "/>
<path style="fill:none;stroke-width:6;stroke-linecap:butt;stroke-linejoin:miter;stroke:rgb(27.058824%,22.745098%,38.431373%);stroke-opacity:1;stroke-miterlimit:10;" d="M 62.855469 377.863281 L 74.457031 371.273438 L 81.550781 367.285156 L 84.125 365.894531 L 85.625 365.253906 L 86.046875 365.359375 L 86.839844 366.410156 L 88 368.410156 L 91.085938 374.023438 L 96.089844 383.25 L 99.074219 388.96875 L 100.039062 391.179688 L 100.265625 392.828125 L 99.757812 393.917969 L 98.953125 395.324219 L 97.847656 397.054688 L 94.972656 401.402344 L 90.320312 408.378906 L 87.136719 412.695312 L 85.410156 414.351562 L 82.847656 415.566406 L 79.453125 416.335938 L 77.027344 416.804688 L 75.578125 416.96875 L 73.171875 417.050781 L 69.808594 417.050781 L 67.132812 416.050781 L 65.140625 414.050781 L 61.179688 408.386719 L 55.25 399.050781 L 51.734375 393.144531 L 50.640625 390.664062 L 50.5 388.304688 L 51.320312 386.0625 L 53.058594 383.996094 L 55.722656 382.101562 Z M 62.855469 377.863281 "/>
<path style="fill:none;stroke-width:6;stroke-linecap:butt;stroke-linejoin:miter;stroke:rgb(27.058824%,22.745098%,38.431373%);stroke-opacity:1;stroke-miterlimit:10;" d="M 69.535156 94.101562 L 79.195312 91.136719 L 85.816406 90.472656 L 89.402344 92.109375 L 94.722656 98.226562 L 101.789062 108.824219 L 105.835938 115.855469 L 106.863281 119.328125 L 106.242188 123.863281 L 103.976562 129.464844 L 101.757812 133.195312 L 99.582031 135.050781 L 94.5625 137.511719 L 86.691406 140.578125 L 80.992188 141.453125 L 77.472656 140.144531 L 71.429688 134.902344 L 62.867188 125.726562 L 57.878906 119.390625 L 56.46875 115.898438 L 56.75 110.589844 L 58.730469 103.464844 L 60.964844 98.824219 L 63.460938 96.664062 Z M 69.535156 94.101562 "/>
<path style="fill:none;stroke-width:6;stroke-linecap:butt;stroke-linejoin:miter;stroke:rgb(27.058824%,22.745098%,38.431373%);stroke-opacity:1;stroke-miterlimit:10;" d="M 87.234375 302.574219 L 97.21875 304.765625 L 103.777344 307.175781 L 106.910156 309.800781 L 110.792969 316.136719 L 115.429688 326.191406 L 117.074219 333.078125 L 115.738281 336.804688 L 109.625 342.339844 L 98.746094 349.675781 L 92.105469 354.125 L 89.707031 355.679688 L 88.347656 356.417969 L 88.027344 356.339844 L 87.078125 354.78125 L 85.5 351.75 L 81.191406 343.195312 L 74.152344 329.121094 L 70.265625 319.992188 L 69.535156 315.8125 L 70.976562 311.007812 L 74.597656 305.578125 L 77.867188 302.515625 L 80.78125 301.820312 Z M 87.234375 302.574219 "/>
<path style="fill:none;stroke-width:6;stroke-linecap:butt;stroke-linejoin:miter;stroke:rgb(27.058824%,22.745098%,38.431373%);stroke-opacity:1;stroke-miterlimit:10;" d="M 116.207031 254.472656 L 123.378906 255.890625 L 127.8125 257.40625 L 129.503906 259.019531 L 130.71875 262.886719 L 131.453125 269.007812 L 131.007812 273.585938 L 129.375 276.628906 L 124.386719 282.183594 L 116.042969 290.253906 L 110.046875 294.949219 L 106.394531 296.269531 L 100.222656 295.976562 L 91.527344 294.066406 L 87.226562 291.4375 L 87.320312 288.09375 L 91.933594 279.574219 L 101.066406 265.875 L 107.378906 257.710938 L 110.871094 255.078125 Z M 116.207031 254.472656 "/>
<path style="fill:none;stroke-width:6;stroke-linecap:butt;stroke-linejoin:miter;stroke:rgb(27.058824%,22.745098%,38.431373%);stroke-opacity:1;stroke-miterlimit:10;" d="M 89.253906 149.484375 L 97.164062 146.40625 L 103.027344 145.433594 L 106.839844 146.570312 L 113.6875 151.335938 L 123.566406 159.726562 L 129.40625 165.667969 L 131.203125 169.160156 L 131.351562 174.863281 L 129.851562 182.773438 L 127.675781 187.800781 L 124.824219 189.945312 L 117.496094 192.058594 L 105.695312 194.148438 L 97.863281 194.371094 L 94.007812 192.734375 L 88.988281 187.054688 L 82.800781 177.332031 L 79.226562 170.828125 L 78.265625 167.550781 L 78.632812 163.117188 L 80.328125 157.53125 L 82.207031 153.808594 L 84.265625 151.953125 Z M 89.253906 149.484375 "/>
<path style="fill:none;stroke-width:6;stroke-linecap:butt;stroke-linejoin:miter;stroke:rgb(27.058824%,22.745098%,38.431373%);stroke-opacity:1;stroke-miterlimit:10;" d="M 107.164062 203.261719 L 119.316406 201.109375 L 126.957031 200.113281 L 130.089844 200.273438 L 132.882812 201.792969 L 135.335938 204.675781 L 136.777344 207.796875 L 137.203125 211.15625 L 137.179688 219.238281 L 136.707031 232.035156 L 136.277344 239.972656 L 135.890625 243.039062 L 135.039062 245.335938 L 133.714844 246.863281 L 131.964844 247.601562 L 129.78125 247.554688 L 124.257812 246.65625 L 115.398438 244.902344 L 109.402344 242.917969 L 106.273438 240.699219 L 101.84375 235.289062 L 96.109375 226.6875 L 92.816406 220.960938 L 91.972656 218.109375 L 92.441406 214.332031 L 94.222656 209.625 L 96.609375 206.539062 L 99.597656 205.070312 Z M 107.164062 203.261719 "/>
<path style="fill:none;stroke-width:6;stroke-linecap:butt;stroke-linejoin:miter;stroke:rgb(36.862745%,31.372549%,52.54902%);stroke-opacity:1;stroke-miterlimit:10;" d="M 138.03125 89.132812 L 137.46875 95.789062 L 136.730469 99.96875 L 135.824219 101.664062 L 133.539062 103.136719 L 129.867188 104.386719 L 127.074219 104.300781 L 125.160156 102.875 L 121.566406 98.203125 L 116.289062 90.292969 L 114.105469 85.492188 L 115.015625 83.796875 L 120.222656 82.949219 L 129.726562 82.949219 L 135.4375 83.664062 L 137.355469 85.089844 Z M 138.03125 89.132812 "/>
<path style="fill:none;stroke-width:6;stroke-linecap:butt;stroke-linejoin:miter;stroke:rgb(36.862745%,31.372549%,52.54902%);stroke-opacity:1;stroke-miterlimit:10;" d="M 129.886719 396.785156 L 135.171875 396.898438 L 138.574219 397.71875 L 140.089844 399.246094 L 141.742188 403.519531 L 143.527344 410.535156 L 143.34375 414.796875 L 141.191406 416.300781 L 134.203125 417.050781 L 122.375 417.050781 L 115.703125 416.289062 L 114.1875 414.757812 L 115.808594 410.429688 L 120.5625 403.300781 L 124.011719 398.984375 L 126.164062 397.480469 Z M 129.886719 396.785156 "/>
<path style="fill:none;stroke-width:6;stroke-linecap:butt;stroke-linejoin:miter;stroke:rgb(27.058824%,22.745098%,38.431373%);stroke-opacity:1;stroke-miterlimit:10;" d="M 128.3125 342.578125 L 130.316406 343.070312 L 131.550781 343.414062 L 132.023438 343.613281 L 132.351562 343.933594 L 132.542969 344.371094 L 131.6875 346.09375 L 129.785156 349.101562 L 124.300781 357.410156 L 115.230469 371.015625 L 109.300781 378.5 L 106.515625 379.863281 L 103.160156 376.921875 L 99.226562 369.675781 L 98 364.496094 L 99.472656 361.378906 L 105.613281 356.179688 L 116.417969 348.890625 L 123.191406 344.519531 L 125.9375 343.0625 Z M 128.3125 342.578125 "/>
<path style="fill:none;stroke-width:6;stroke-linecap:butt;stroke-linejoin:miter;stroke:rgb(36.862745%,31.372549%,52.54902%);stroke-opacity:1;stroke-miterlimit:10;" d="M 144.648438 372.03125 L 146.035156 375.191406 L 146.644531 377.476562 L 146.480469 378.878906 L 145.324219 381.269531 L 143.179688 384.652344 L 141.496094 386.695312 L 140.277344 387.40625 L 137.890625 387.722656 L 134.339844 387.648438 L 132.648438 386.90625 L 132.808594 385.503906 L 135.046875 381.570312 L 139.359375 375.101562 L 142.125 371.511719 L 143.347656 370.804688 Z M 144.648438 372.03125 "/>
<path style="fill:none;stroke-width:6;stroke-linecap:butt;stroke-linejoin:miter;stroke:rgb(27.058824%,22.745098%,38.431373%);stroke-opacity:1;stroke-miterlimit:10;" d="M 145.238281 287.765625 L 153.597656 293.574219 L 158.660156 297.230469 L 160.425781 298.730469 L 161.246094 300.070312 L 161.121094 301.253906 L 160.371094 302.980469 L 158.996094 305.257812 L 155.164062 311.117188 L 148.871094 320.554688 L 144.738281 326.484375 L 142.761719 328.90625 L 140.3125 331.046875 L 137.390625 332.90625 L 135.394531 333.984375 L 134.328125 334.273438 L 132.773438 334.167969 L 130.726562 333.667969 L 128.976562 332.261719 L 127.519531 329.953125 L 124.425781 323.65625 L 119.683594 313.375 L 117.640625 306.332031 L 118.289062 302.519531 L 122.496094 296.855469 L 130.261719 289.34375 L 135.875 285.40625 L 139.328125 285.042969 Z M 145.238281 287.765625 "/>
<path style="fill:none;stroke-width:6;stroke-linecap:butt;stroke-linejoin:miter;stroke:rgb(27.058824%,22.745098%,38.431373%);stroke-opacity:1;stroke-miterlimit:10;" d="M 120.535156 136.941406 L 126.988281 146.621094 L 130.078125 151.792969 L 129.804688 152.460938 L 125.8125 149.519531 L 118.097656 142.96875 L 113.546875 138.65625 L 112.164062 136.582031 L 112.105469 133.984375 L 113.371094 130.859375 L 114.828125 130 L 116.484375 131.402344 Z M 120.535156 136.941406 "/>
<path style="fill:none;stroke-width:6;stroke-linecap:butt;stroke-linejoin:miter;stroke:rgb(36.862745%,31.372549%,52.54902%);stroke-opacity:1;stroke-miterlimit:10;" d="M 147.679688 114.007812 L 155 117.90625 L 159.289062 121.355469 L 160.546875 124.347656 L 160.457031 130.878906 L 159.015625 140.945312 L 158.097656 147.078125 L 157.714844 149.273438 L 157.339844 150.464844 L 156.980469 150.652344 L 155.828125 149.363281 L 153.882812 146.605469 L 148.558594 138.691406 L 139.847656 125.628906 L 134.902344 117.578125 L 133.71875 114.546875 L 134.726562 112.484375 L 137.917969 111.394531 L 140.640625 111.152344 L 142.894531 111.753906 Z M 147.679688 114.007812 "/>
<path style="fill:none;stroke-width:6;stroke-linecap:butt;stroke-linejoin:miter;stroke:rgb(27.058824%,22.745098%,38.431373%);stroke-opacity:1;stroke-miterlimit:10;" d="M 148.53125 178.933594 L 155.703125 189.691406 L 159.378906 196.273438 L 159.5625 198.675781 L 156.492188 200.097656 L 150.167969 200.546875 L 146.070312 200.511719 L 144.195312 199.992188 L 142.039062 198.308594 L 139.605469 195.449219 L 138.296875 192.820312 L 138.117188 190.421875 L 138.816406 185.046875 L 140.398438 176.695312 L 142.128906 172.777344 L 144.003906 173.292969 Z M 148.53125 178.933594 "/>
<path style="fill:none;stroke-width:6;stroke-linecap:butt;stroke-linejoin:miter;stroke:rgb(36.862745%,31.372549%,52.54902%);stroke-opacity:1;stroke-miterlimit:10;" d="M 191.523438 179.882812 L 192.464844 183.757812 L 192.789062 186.433594 L 192.492188 187.90625 L 191.183594 190.136719 L 188.859375 193.128906 L 186.519531 193.550781 L 184.160156 191.402344 L 178.640625 183.820312 L 169.964844 170.804688 L 165.773438 163.558594 L 166.070312 162.085938 L 171.246094 164.425781 L 181.308594 170.574219 L 187.515625 174.71875 L 189.875 176.867188 Z M 191.523438 179.882812 "/>
<path style="fill:none;stroke-width:6;stroke-linecap:butt;stroke-linejoin:miter;stroke:rgb(36.862745%,31.372549%,52.54902%);stroke-opacity:1;stroke-miterlimit:10;" d="M 159.015625 82.949219 L 171.070312 82.949219 L 178.421875 83.832031 L 181.066406 85.59375 L 182.527344 90.59375 L 182.804688 98.828125 L 182.371094 104.101562 L 181.222656 106.417969 L 177.835938 108.863281 L 172.207031 111.441406 L 168.007812 112.589844 L 165.238281 112.308594 L 160.207031 110.222656 L 152.914062 106.335938 L 148.550781 103.234375 L 147.113281 100.917969 L 146.6875 96.296875 L 147.273438 89.375 L 148.921875 85.171875 L 151.632812 83.691406 Z M 159.015625 82.949219 "/>
<path style="fill:none;stroke-width:6;stroke-linecap:butt;stroke-linejoin:miter;stroke:rgb(36.862745%,31.372549%,52.54902%);stroke-opacity:1;stroke-miterlimit:10;" d="M 177.757812 336.691406 L 187.285156 343.0625 L 192.742188 347.679688 L 194.132812 350.539062 L 193.300781 355.457031 L 190.253906 362.425781 L 187.203125 366.832031 L 184.144531 368.667969 L 177 370.382812 L 165.777344 371.980469 L 158.738281 372.445312 L 155.890625 371.777344 L 153.433594 369.078125 L 151.367188 364.355469 L 150.84375 360.394531 L 151.859375 357.191406 L 155.773438 350.480469 L 162.585938 340.261719 L 167.746094 334.738281 L 171.246094 333.914062 Z M 177.757812 336.691406 "/>
<path style="fill:none;stroke-width:6;stroke-linecap:butt;stroke-linejoin:miter;stroke:rgb(27.058824%,22.745098%,38.431373%);stroke-opacity:1;stroke-miterlimit:10;" d="M 158.304688 250.605469 L 174.898438 250.867188 L 185.082031 251.132812 L 188.859375 251.40625 L 191.257812 252.046875 L 192.285156 253.0625 L 192.015625 255.019531 L 190.449219 257.914062 L 185.496094 265.617188 L 177.160156 278.125 L 171.988281 285.777344 L 169.984375 288.574219 L 168.476562 290.25 L 167.464844 290.804688 L 165.90625 290.484375 L 163.796875 289.289062 L 158.335938 285.628906 L 149.515625 279.496094 L 144.078125 275.0625 L 142.015625 272.324219 L 140.585938 267.632812 L 139.789062 260.980469 L 139.449219 256.777344 L 139.566406 255.019531 L 140.296875 253.363281 L 141.644531 251.808594 L 144.242188 250.890625 L 148.085938 250.613281 Z M 158.304688 250.605469 "/>
<path style="fill:none;stroke-width:6;stroke-linecap:butt;stroke-linejoin:miter;stroke:rgb(27.058824%,22.745098%,38.431373%);stroke-opacity:1;stroke-miterlimit:10;" d="M 153.742188 209.546875 L 161.269531 209.015625 L 166.515625 209.714844 L 169.492188 211.640625 L 174.152344 217.367188 L 180.503906 226.894531 L 184.386719 232.90625 L 185.796875 235.40625 L 186.621094 237.71875 L 186.855469 239.847656 L 185.441406 241.113281 L 182.382812 241.523438 L 173.59375 241.613281 L 159.082031 241.386719 L 150.3125 240.082031 L 147.289062 237.695312 L 145.980469 231.054688 L 146.382812 220.160156 L 147.433594 213.484375 L 149.132812 211.035156 Z M 153.742188 209.546875 "/>
<path style="fill:none;stroke-width:6;stroke-linecap:butt;stroke-linejoin:miter;stroke:rgb(36.862745%,31.372549%,52.54902%);stroke-opacity:1;stroke-miterlimit:10;" d="M 165.917969 381.285156 L 177.363281 379.65625 L 184.851562 379.746094 L 188.390625 381.550781 L 192.6875 387.480469 L 197.742188 397.535156 L 200.558594 404.023438 L 201.132812 406.941406 L 200.230469 410.179688 L 197.855469 413.742188 L 194.878906 415.90625 L 191.300781 416.667969 L 182.34375 417.050781 L 168.015625 417.050781 L 159.085938 416.160156 L 155.5625 414.375 L 152.742188 409.316406 L 150.621094 400.988281 L 149.585938 395.539062 L 149.628906 392.96875 L 150.8125 389.855469 L 153.132812 386.195312 L 155.769531 383.800781 L 158.71875 382.667969 Z M 165.917969 381.285156 "/>
<path style="fill:none;stroke-width:6;stroke-linecap:butt;stroke-linejoin:miter;stroke:rgb(36.862745%,31.372549%,52.54902%);stroke-opacity:1;stroke-miterlimit:10;" d="M 176.539062 119.609375 L 182.464844 116.898438 L 186.714844 115.492188 L 189.285156 115.390625 L 193.613281 116.464844 L 199.691406 118.710938 L 203.667969 120.765625 L 205.539062 122.625 L 207.804688 126.769531 L 210.460938 133.203125 L 211.34375 138.160156 L 210.445312 141.632812 L 206.578125 148.265625 L 199.738281 158.050781 L 194.59375 163.382812 L 191.140625 164.269531 L 184.78125 161.875 L 175.511719 156.210938 L 170.039062 151.691406 L 168.363281 148.316406 L 168.246094 141.585938 L 169.691406 131.496094 L 171.207031 125.082031 L 172.785156 122.335938 Z M 176.539062 119.609375 "/>
<path style="fill:none;stroke-width:6;stroke-linecap:butt;stroke-linejoin:miter;stroke:rgb(36.862745%,31.372549%,52.54902%);stroke-opacity:1;stroke-miterlimit:10;" d="M 203.273438 293.074219 L 209.023438 299.355469 L 212.121094 304.515625 L 212.566406 308.554688 L 210.964844 316.855469 L 207.304688 329.417969 L 205.019531 337.082031 L 204.109375 339.835938 L 203.359375 341.367188 L 202.769531 341.667969 L 201.351562 341.144531 L 199.113281 339.796875 L 193.058594 335.820312 L 183.195312 329.21875 L 178.101562 323.867188 L 177.78125 319.765625 L 181.800781 311.441406 L 190.167969 298.890625 L 195.863281 291.945312 L 198.886719 290.605469 Z M 203.273438 293.074219 "/>
<path style="fill:none;stroke-width:6;stroke-linecap:butt;stroke-linejoin:miter;stroke:rgb(36.862745%,31.372549%,52.54902%);stroke-opacity:1;stroke-miterlimit:10;" d="M 201.078125 91.089844 L 206.921875 99.855469 L 210.304688 105.324219 L 211.21875 107.496094 L 210.894531 109.261719 L 209.324219 110.625 L 207.785156 111.238281 L 206.28125 111.097656 L 202.804688 110.019531 L 197.351562 108.003906 L 194.011719 105.914062 L 192.785156 103.742188 L 192.03125 98.597656 L 191.757812 90.484375 L 191.746094 85.558594 L 192 83.816406 L 192.851562 82.949219 L 194.304688 82.949219 L 195.8125 83.886719 L 197.375 85.765625 Z M 201.078125 91.089844 "/>
<path style="fill:none;stroke-width:6;stroke-linecap:butt;stroke-linejoin:miter;stroke:rgb(27.058824%,22.745098%,38.431373%);stroke-opacity:1;stroke-miterlimit:10;" d="M 197.546875 245.285156 Z M 197.546875 245.285156 "/>
<path style="fill:none;stroke-width:6;stroke-linecap:butt;stroke-linejoin:miter;stroke:rgb(36.862745%,31.372549%,52.54902%);stroke-opacity:1;stroke-miterlimit:10;" d="M 209.089844 196.074219 L 218.753906 198.648438 L 224.972656 201.148438 L 227.753906 203.566406 L 230.796875 209.132812 L 234.101562 217.84375 L 235.789062 223.714844 L 235.859375 226.738281 L 234.402344 230.953125 L 231.421875 236.359375 L 229.253906 239.757812 L 227.898438 241.152344 L 225.546875 242.394531 L 222.203125 243.488281 L 219.167969 242.640625 L 216.433594 239.851562 L 210.363281 231.398438 L 200.953125 217.285156 L 195.238281 208.707031 L 193.21875 205.660156 L 192.203125 204.085938 L 192.195312 203.988281 L 192.484375 203.546875 L 193.078125 202.757812 L 194.761719 200.578125 L 197.539062 197 L 200.261719 195.105469 L 202.925781 194.890625 Z M 209.089844 196.074219 "/>
<path style="fill:none;stroke-width:6;stroke-linecap:butt;stroke-linejoin:miter;stroke:rgb(36.862745%,31.372549%,52.54902%);stroke-opacity:1;stroke-miterlimit:10;" d="M 206.375 350.191406 L 207.339844 349.699219 L 208.945312 349.703125 L 211.195312 350.207031 L 217.082031 351.878906 L 226.605469 354.714844 L 231.375 357.964844 L 231.378906 361.625 L 226.636719 370.574219 L 217.144531 384.816406 L 210.90625 392.523438 L 207.925781 393.691406 L 204.230469 389.890625 L 199.816406 381.117188 L 197.503906 374.953125 L 197.292969 371.398438 L 198.890625 365.714844 L 202.304688 357.90625 L 204.480469 353.109375 L 205.421875 351.332031 Z M 206.375 350.191406 "/>
<path style="fill:none;stroke-width:6;stroke-linecap:butt;stroke-linejoin:miter;stroke:rgb(36.862745%,31.372549%,52.54902%);stroke-opacity:1;stroke-miterlimit:10;" d="M 226.925781 147.121094 L 234.335938 149.285156 L 239.0625 150.941406 L 241.109375 152.09375 L 243.203125 154.277344 L 245.347656 157.492188 L 246.726562 159.886719 L 247.347656 161.464844 L 248.03125 164.332031 L 248.78125 168.484375 L 248.5 171.742188 L 247.1875 174.113281 L 243.089844 178.746094 L 236.207031 185.640625 L 230.992188 189.554688 L 227.445312 190.480469 L 220.835938 189.652344 L 211.167969 187.074219 L 205.203125 185.117188 L 202.941406 183.785156 L 201.367188 181.296875 L 200.480469 177.65625 L 200.710938 174.351562 L 202.046875 171.382812 L 206.285156 164.796875 L 213.417969 154.589844 L 218.546875 148.625 L 221.660156 146.898438 Z M 226.925781 147.121094 "/>
<path style="fill:none;stroke-width:6;stroke-linecap:butt;stroke-linejoin:miter;stroke:rgb(36.862745%,31.372549%,52.54902%);stroke-opacity:1;stroke-miterlimit:10;" d="M 223.488281 252.78125 L 227.046875 251.617188 L 230.429688 252.316406 L 233.644531 254.882812 L 240.972656 262.730469 L 252.414062 275.859375 L 259.324219 284.003906 L 261.710938 287.164062 L 262.746094 289.550781 L 262.4375 291.164062 L 260.714844 292.382812 L 257.578125 293.207031 L 248.855469 294.738281 L 234.542969 296.972656 L 225.175781 297.585938 L 220.753906 296.589844 L 215.386719 292.636719 L 209.070312 285.738281 L 205.875 280.59375 L 205.796875 277.203125 L 208.726562 271.054688 L 214.667969 262.140625 L 218.660156 256.601562 L 220.695312 254.441406 Z M 223.488281 252.78125 "/>
<path style="fill:none;stroke-width:6;stroke-linecap:butt;stroke-linejoin:miter;stroke:rgb(36.862745%,31.372549%,52.54902%);stroke-opacity:1;stroke-miterlimit:10;" d="M 235.089844 306.226562 L 247.96875 304.21875 L 255.707031 303.804688 L 258.304688 304.992188 L 259.222656 309.355469 L 258.457031 316.902344 L 257.359375 322.4375 L 255.925781 325.957031 L 252.242188 332.167969 L 246.316406 341.058594 L 241.691406 346.152344 L 238.371094 347.449219 L 231.933594 346.671875 L 222.371094 343.820312 L 216.929688 340.851562 L 215.605469 337.761719 L 216.625 330.425781 L 219.996094 318.847656 L 223.425781 311.601562 L 226.90625 308.6875 Z M 235.089844 306.226562 "/>
<path style="fill:none;stroke-width:6;stroke-linecap:butt;stroke-linejoin:miter;stroke:rgb(36.862745%,31.372549%,52.54902%);stroke-opacity:1;stroke-miterlimit:10;" d="M 222.628906 123.414062 L 228.136719 131.679688 L 231.042969 136.566406 L 231.351562 138.082031 L 229.460938 138.242188 L 225.375 137.050781 L 222.621094 135.671875 L 221.207031 134.105469 L 219.234375 130.265625 L 216.707031 124.152344 L 215.292969 120.335938 L 214.988281 118.820312 L 215.386719 117.585938 L 216.488281 116.628906 L 217.75 116.933594 L 219.164062 118.5 Z M 222.628906 123.414062 "/>
<path style="fill:none;stroke-width:6;stroke-linecap:butt;stroke-linejoin:miter;stroke:rgb(36.862745%,31.372549%,52.54902%);stroke-opacity:1;stroke-miterlimit:10;" d="M 257.492188 180.121094 L 259.589844 180.980469 L 261.703125 182.761719 L 263.832031 185.46875 L 268.824219 192.707031 L 276.667969 204.476562 L 281.292969 211.78125 L 282.695312 214.617188 L 282.742188 216.773438 L 281.4375 218.246094 L 279.335938 219.210938 L 276.441406 219.667969 L 268.894531 220.226562 L 256.691406 220.890625 L 248.953125 220.421875 L 245.679688 218.828125 L 242.503906 213.976562 L 239.429688 205.871094 L 238.273438 200.234375 L 239.039062 197.070312 L 242.738281 192.164062 L 249.378906 185.507812 L 253.636719 181.558594 L 255.507812 180.316406 Z M 257.492188 180.121094 "/>
<path style="fill:none;stroke-width:6;stroke-linecap:butt;stroke-linejoin:miter;stroke:rgb(36.862745%,31.372549%,52.54902%);stroke-opacity:1;stroke-miterlimit:10;" d="M 255.875 230.179688 L 267.53125 229.546875 L 274.777344 230.523438 L 277.617188 233.109375 L 279.828125 240.746094 L 281.417969 253.4375 L 281.832031 261.695312 L 281.070312 265.519531 L 278.121094 270.011719 L 272.988281 275.164062 L 268.714844 276.964844 L 265.304688 275.417969 L 258.210938 268.460938 L 247.429688 256.089844 L 241.167969 248.058594 L 239.429688 244.371094 L 239.898438 240.105469 L 242.570312 235.261719 L 245.4375 232.253906 L 248.507812 231.082031 Z M 255.875 230.179688 "/>
<path style="fill:none;stroke-width:6;stroke-linecap:butt;stroke-linejoin:miter;stroke:rgb(36.862745%,31.372549%,52.54902%);stroke-opacity:1;stroke-miterlimit:10;" d="M 282.378906 309.441406 L 296.582031 316.917969 L 305.121094 322.207031 L 307.996094 325.3125 L 309.046875 330.367188 L 308.273438 337.378906 L 307.082031 341.800781 L 305.472656 343.640625 L 301.304688 345.335938 L 294.574219 346.898438 L 289.714844 346.683594 L 286.726562 344.695312 L 281.617188 338.285156 L 274.394531 327.449219 L 270.066406 320.3125 L 268.628906 316.875 L 268.175781 312.546875 L 268.703125 307.335938 L 270.546875 304.972656 L 273.699219 305.460938 Z M 282.378906 309.441406 "/>
<path style="fill:none;stroke-width:6;stroke-linecap:butt;stroke-linejoin:miter;stroke:rgb(36.862745%,31.372549%,52.54902%);stroke-opacity:1;stroke-miterlimit:10;" d="M 312.535156 356 L 315.28125 359.445312 L 316.796875 362.4375 L 317.085938 364.972656 L 316.53125 370.433594 L 315.132812 378.820312 L 313.53125 382.789062 L 311.730469 382.332031 L 307.320312 376.84375 L 300.308594 366.324219 L 296.65625 359.792969 L 296.371094 357.257812 L 299.058594 355.335938 L 304.726562 354.019531 L 308.460938 353.59375 L 310.261719 354.046875 Z M 312.535156 356 "/>
<path style="fill:none;stroke-width:6;stroke-linecap:butt;stroke-linejoin:miter;stroke:rgb(36.862745%,31.372549%,52.54902%);stroke-opacity:1;stroke-miterlimit:10;" d="M 277.90625 283.304688 L 283.992188 277.199219 L 288.886719 273.511719 L 292.59375 272.238281 L 300.054688 271.679688 L 311.269531 271.84375 L 318.625 272.765625 L 322.125 274.445312 L 326.4375 279.125 L 331.554688 286.804688 L 334.625 291.6875 L 335.648438 293.773438 L 335.984375 295.839844 L 335.632812 297.890625 L 334.632812 299.734375 L 332.976562 301.375 L 328.464844 304.992188 L 321.09375 310.589844 L 315.011719 313.144531 L 310.222656 312.652344 L 300.335938 308.460938 L 285.351562 300.570312 L 276.28125 295.621094 L 273.132812 293.609375 L 271.703125 291.859375 L 271.992188 290.363281 L 272.820312 288.800781 L 274.183594 287.171875 Z M 277.90625 283.304688 "/>
<path style="fill:none;stroke-width:6;stroke-linecap:butt;stroke-linejoin:miter;stroke:rgb(36.862745%,31.372549%,52.54902%);stroke-opacity:1;stroke-miterlimit:10;" d="M 297.769531 236.128906 L 306.945312 249.894531 L 311.632812 258.238281 L 311.824219 261.160156 L 307.785156 262.5625 L 299.511719 262.441406 L 294.316406 260.992188 L 292.199219 258.214844 L 290.339844 250.398438 L 288.730469 237.550781 L 287.832031 229.664062 L 287.636719 226.738281 L 287.894531 224.878906 L 288.597656 224.085938 L 290.007812 225.078125 L 292.125 227.859375 Z M 297.769531 236.128906 "/>
<path style="fill:none;stroke-width:6;stroke-linecap:butt;stroke-linejoin:miter;stroke:rgb(56.078431%,30.588235%,54.509804%);stroke-opacity:1;stroke-miterlimit:10;" d="M 324.359375 227.761719 L 327.609375 232.246094 L 329.582031 234.96875 L 330.277344 235.9375 L 330.617188 236.4375 L 330.605469 236.46875 L 330.386719 236.488281 L 329.953125 236.492188 L 328.738281 236.496094 L 326.734375 236.496094 L 325.179688 235.992188 L 324.074219 234.980469 L 321.953125 232.117188 L 318.808594 227.402344 L 317.101562 224.558594 L 316.839844 223.59375 L 317.660156 223.210938 L 319.566406 223.410156 L 321.074219 224.011719 L 322.179688 225.015625 Z M 324.359375 227.761719 "/>
<path style="fill:none;stroke-width:6;stroke-linecap:butt;stroke-linejoin:miter;stroke:rgb(56.078431%,30.588235%,54.509804%);stroke-opacity:1;stroke-miterlimit:10;" d="M 309.988281 180.171875 L 323.84375 180.171875 L 331.671875 181.453125 L 333.464844 184.011719 L 331.625 191.257812 L 326.144531 203.199219 L 322.375 210.402344 L 320.3125 212.867188 L 317.214844 213.882812 L 313.074219 213.445312 L 309.886719 212.167969 L 307.648438 210.046875 L 303.375 204.253906 L 297.0625 194.789062 L 293.453125 188.824219 L 292.546875 186.359375 L 293.128906 184.105469 L 295.199219 182.066406 L 297.941406 180.828125 L 301.355469 180.390625 Z M 309.988281 180.171875 "/>
<path style="fill:none;stroke-width:6;stroke-linecap:butt;stroke-linejoin:miter;stroke:rgb(36.862745%,31.372549%,52.54902%);stroke-opacity:1;stroke-miterlimit:10;" d="M 339.914062 414.953125 L 339.839844 416.039062 L 339.585938 416.703125 L 339.148438 416.933594 L 337.941406 417.050781 L 335.964844 417.050781 L 334.433594 416.554688 L 333.347656 415.566406 L 331.265625 412.757812 L 328.179688 408.132812 L 326.859375 405.703125 L 327.296875 405.46875 L 330.082031 407.121094 L 335.214844 410.660156 L 338.320312 412.921875 L 339.40625 413.914062 Z M 339.914062 414.953125 "/>
<path style="fill:none;stroke-width:6;stroke-linecap:butt;stroke-linejoin:miter;stroke:rgb(36.862745%,31.372549%,52.54902%);stroke-opacity:1;stroke-miterlimit:10;" d="M 325.605469 318.753906 L 332.644531 313.40625 L 337.640625 310.859375 L 340.59375 311.117188 L 345.441406 314.515625 L 352.179688 321.054688 L 356.589844 325.503906 L 358.671875 327.867188 L 361.210938 331.285156 L 364.195312 335.769531 L 365.953125 339 L 366.476562 340.980469 L 366.464844 344.351562 L 365.917969 349.113281 L 364.0625 352.117188 L 360.898438 353.367188 L 352.214844 354.527344 L 338.003906 355.597656 L 329.066406 355.859375 L 325.40625 355.316406 L 322.132812 353.234375 L 319.253906 349.617188 L 317.597656 346.578125 L 317.167969 344.113281 L 317.390625 338.933594 L 318.261719 331.042969 L 319.542969 325.679688 L 321.238281 322.84375 Z M 325.605469 318.753906 "/>
<path style="fill:none;stroke-width:6;stroke-linecap:butt;stroke-linejoin:miter;stroke:rgb(36.862745%,31.372549%,52.54902%);stroke-opacity:1;stroke-miterlimit:10;" d="M 339.851562 364.714844 L 354.035156 363.648438 L 362.652344 363.003906 L 365.703125 362.789062 L 367.246094 362.710938 L 367.285156 362.769531 L 367.21875 363.976562 L 367.046875 366.332031 L 366.539062 372.980469 L 365.699219 383.921875 L 364.4375 391.015625 L 362.757812 394.265625 L 358.417969 398 L 351.417969 402.21875 L 346.332031 404.203125 L 343.148438 403.949219 L 337.636719 401.117188 L 329.792969 395.710938 L 325.1875 391.492188 L 323.820312 388.460938 L 323.867188 382.570312 L 325.324219 373.828125 L 327.730469 368.402344 L 331.082031 366.300781 Z M 339.851562 364.714844 "/>
<path style="fill:none;stroke-width:6;stroke-linecap:butt;stroke-linejoin:miter;stroke:rgb(56.078431%,30.588235%,54.509804%);stroke-opacity:1;stroke-miterlimit:10;" d="M 353.503906 191.488281 L 363.566406 197.3125 L 369.519531 201.84375 L 371.355469 205.085938 L 371.527344 211.351562 L 370.03125 220.648438 L 367.976562 226.351562 L 365.359375 228.464844 L 358.691406 229.800781 L 347.976562 230.363281 L 341.136719 230.246094 L 338.179688 229.453125 L 335.152344 226.921875 L 332.058594 222.65625 L 330.742188 218.84375 L 331.203125 215.484375 L 334.054688 208.097656 L 339.292969 196.679688 L 343.550781 190.375 L 346.832031 189.175781 Z M 353.503906 191.488281 "/>
<path style="fill:none;stroke-width:6;stroke-linecap:butt;stroke-linejoin:miter;stroke:rgb(56.078431%,30.588235%,54.509804%);stroke-opacity:1;stroke-miterlimit:10;" d="M 407.238281 236.496094 Z M 407.238281 236.496094 "/>
<path style="fill:none;stroke-width:6;stroke-linecap:butt;stroke-linejoin:miter;stroke:rgb(56.078431%,30.588235%,54.509804%);stroke-opacity:1;stroke-miterlimit:10;" d="M 379.667969 265.238281 L 379.667969 267.105469 L 378.71875 268.675781 L 376.8125 269.957031 L 371.410156 272.648438 L 362.511719 276.757812 L 356.6875 278.609375 L 353.925781 278.210938 L 350.554688 275.023438 L 346.574219 269.050781 L 345.539062 265.425781 L 347.445312 264.148438 L 354.835938 263.507812 L 367.710938 263.507812 L 375.527344 263.707031 L 378.289062 264.105469 Z M 379.667969 265.238281 "/>
<path style="fill:none;stroke-width:6;stroke-linecap:butt;stroke-linejoin:miter;stroke:rgb(36.862745%,31.372549%,52.54902%);stroke-opacity:1;stroke-miterlimit:10;" d="M 355.71875 410.40625 L 362.734375 406.175781 L 367.851562 404.160156 L 371.070312 404.363281 L 376.683594 407.058594 L 384.6875 412.238281 L 387.933594 415.386719 L 386.417969 416.496094 L 378.117188 417.050781 L 363.03125 417.050781 L 353.882812 416.949219 L 350.664062 416.746094 L 349.082031 416.167969 L 349.144531 415.21875 L 349.933594 414.1875 L 351.453125 413.078125 Z M 355.71875 410.40625 "/>
<path style="fill:none;stroke-width:6;stroke-linecap:butt;stroke-linejoin:miter;stroke:rgb(56.078431%,30.588235%,54.509804%);stroke-opacity:1;stroke-miterlimit:10;" d="M 394.546875 182.050781 L 394.253906 184.074219 L 393.476562 185.640625 L 392.214844 186.753906 L 388.789062 188.894531 L 383.195312 192.058594 L 378.835938 193.425781 L 375.71875 192.992188 L 369.671875 190.179688 L 360.703125 184.992188 L 356.851562 181.839844 L 358.113281 180.726562 L 366.171875 180.171875 L 381.023438 180.171875 L 390.011719 180.386719 L 393.132812 180.820312 Z M 394.546875 182.050781 "/>
<path style="fill:none;stroke-width:6;stroke-linecap:butt;stroke-linejoin:miter;stroke:rgb(56.078431%,30.588235%,54.509804%);stroke-opacity:1;stroke-miterlimit:10;" d="M 388.066406 281.386719 L 393.019531 285.835938 L 396.054688 289.34375 L 397.179688 291.90625 L 397.878906 296.945312 L 398.160156 304.460938 L 397.851562 309.335938 L 396.953125 311.578125 L 394.269531 314.164062 L 389.796875 317.101562 L 386.886719 318.886719 L 385.539062 319.515625 L 383.949219 319.832031 L 382.121094 319.832031 L 380.226562 318.648438 L 378.261719 316.289062 L 373.605469 309.597656 L 366.257812 298.578125 L 362.699219 291.46875 L 362.925781 288.277344 L 367.246094 284.738281 L 375.65625 280.855469 L 381.292969 278.976562 L 384.15625 279.097656 Z M 388.066406 281.386719 "/>
<path style="fill:none;stroke-width:6;stroke-linecap:butt;stroke-linejoin:miter;stroke:rgb(36.862745%,31.372549%,52.54902%);stroke-opacity:1;stroke-miterlimit:10;" d="M 379.363281 367.265625 L 382.695312 367.726562 L 385.675781 369.441406 L 388.300781 372.410156 L 394.082031 380.59375 L 403.011719 393.992188 L 408.246094 402.453125 L 409.785156 405.984375 L 409.675781 409.289062 L 407.917969 412.367188 L 405.644531 413.453125 L 402.859375 412.550781 L 395.839844 408.460938 L 384.59375 401.179688 L 377.84375 395.726562 L 375.589844 392.097656 L 374.835938 385.457031 L 375.582031 375.800781 L 376.390625 369.992188 L 377.261719 368.019531 Z M 379.363281 367.265625 "/>
<path style="fill:none;stroke-width:6;stroke-linecap:butt;stroke-linejoin:miter;stroke:rgb(56.078431%,30.588235%,54.509804%);stroke-opacity:1;stroke-miterlimit:10;" d="M 387.3125 200.335938 L 392.839844 197.207031 L 397.199219 196.007812 L 400.390625 196.738281 L 406.671875 200.371094 L 416.046875 206.90625 L 421.71875 211.414062 L 423.683594 213.902344 L 424.574219 217.679688 L 424.382812 222.75 L 423.324219 226.164062 L 421.398438 227.929688 L 416.039062 230.394531 L 407.246094 233.558594 L 401.242188 235.480469 L 398.023438 236.15625 L 393.304688 236.496094 L 387.082031 236.496094 L 383.164062 236.339844 L 381.546875 236.019531 L 380.074219 235.117188 L 378.746094 233.632812 L 378.113281 231.644531 L 378.179688 229.148438 L 379.03125 222.824219 L 380.664062 212.671875 L 382.246094 206.171875 L 383.78125 203.324219 Z M 387.3125 200.335938 "/>
<path style="fill:none;stroke-width:6;stroke-linecap:butt;stroke-linejoin:miter;stroke:rgb(36.862745%,31.372549%,52.54902%);stroke-opacity:1;stroke-miterlimit:10;" d="M 376.210938 353.792969 L 377.628906 355.914062 L 378.332031 357.183594 L 378.320312 357.597656 L 377.578125 357.699219 L 376.105469 357.496094 L 375.195312 357.351562 L 374.851562 357.261719 L 374.609375 357.109375 L 374.464844 356.898438 L 374.402344 356.585938 L 374.414062 356.175781 L 374.519531 355.113281 L 374.714844 353.40625 L 374.984375 352.59375 L 375.332031 352.683594 Z M 376.210938 353.792969 "/>
<path style="fill:none;stroke-width:6;stroke-linecap:butt;stroke-linejoin:miter;stroke:rgb(56.078431%,30.588235%,54.509804%);stroke-opacity:1;stroke-miterlimit:10;" d="M 403.320312 319.542969 L 403.542969 319.691406 L 403.632812 319.78125 L 403.582031 319.8125 L 403.332031 319.832031 L 402.878906 319.832031 L 402.628906 319.8125 L 402.582031 319.78125 L 402.671875 319.691406 L 402.898438 319.542969 L 403.0625 319.464844 L 403.160156 319.464844 Z M 403.320312 319.542969 "/>
<path style="fill:none;stroke-width:6;stroke-linecap:butt;stroke-linejoin:miter;stroke:rgb(56.078431%,30.588235%,54.509804%);stroke-opacity:1;stroke-miterlimit:10;" d="M 427.378906 236.269531 L 427.480469 236.386719 L 427.496094 236.457031 L 427.425781 236.484375 L 427.175781 236.496094 L 426.742188 236.496094 L 426.515625 236.484375 L 426.492188 236.457031 L 426.648438 236.386719 L 426.976562 236.269531 L 427.1875 236.210938 L 427.28125 236.210938 Z M 427.378906 236.269531 "/>
<path style="fill:none;stroke-width:6;stroke-linecap:butt;stroke-linejoin:miter;stroke:rgb(56.078431%,30.588235%,54.509804%);stroke-opacity:1;stroke-miterlimit:10;" d="M 442.433594 264.816406 L 441.902344 266.226562 L 440.144531 267.644531 L 437.15625 269.070312 L 428.964844 272.402344 L 415.566406 277.640625 L 406.898438 280.34375 L 402.960938 280.507812 L 398.503906 278.355469 L 393.527344 273.882812 L 390.503906 270.933594 L 389.4375 269.507812 L 388.902344 267.707031 L 388.898438 265.527344 L 390.925781 264.207031 L 394.976562 263.738281 L 406.457031 263.503906 L 425.367188 263.503906 L 436.792969 263.65625 L 440.730469 263.957031 Z M 442.433594 264.816406 "/>
<path style="fill:none;stroke-width:6;stroke-linecap:butt;stroke-linejoin:miter;stroke:rgb(56.078431%,30.588235%,54.509804%);stroke-opacity:1;stroke-miterlimit:10;" d="M 418.894531 180.171875 L 434.777344 180.171875 L 444.539062 180.398438 L 448.179688 180.851562 L 450.550781 182.132812 L 451.65625 184.25 L 451.453125 186.234375 L 449.933594 188.085938 L 445.074219 192.277344 L 436.882812 198.808594 L 430.929688 202.09375 L 427.21875 202.128906 L 420.800781 198.964844 L 411.675781 192.601562 L 406.167969 188.496094 L 404.285156 186.644531 L 403.507812 184.574219 L 403.839844 182.292969 L 405.742188 180.90625 L 409.214844 180.414062 Z M 418.894531 180.171875 "/>
<path style="fill:none;stroke-width:6;stroke-linecap:butt;stroke-linejoin:miter;stroke:rgb(56.078431%,30.588235%,54.509804%);stroke-opacity:1;stroke-miterlimit:10;" d="M 447.195312 288.460938 L 452.285156 300.769531 L 454.601562 308.527344 L 454.136719 311.738281 L 450.285156 314.679688 L 443.035156 317.351562 L 438.039062 318.972656 L 435.289062 319.542969 L 431.128906 319.832031 L 425.554688 319.832031 L 421.695312 319.511719 L 419.546875 318.875 L 416.246094 317.070312 L 411.789062 314.097656 L 409.058594 311.527344 L 408.046875 309.363281 L 407.40625 304.710938 L 407.140625 297.574219 L 408.3125 292.71875 L 410.921875 290.144531 L 418.453125 286.425781 L 430.90625 281.554688 L 439.011719 279.917969 L 442.769531 281.511719 Z M 447.195312 288.460938 "/>
<path style="fill:none;stroke-width:6;stroke-linecap:butt;stroke-linejoin:miter;stroke:rgb(36.862745%,31.372549%,52.54902%);stroke-opacity:1;stroke-miterlimit:10;" d="M 417.472656 415.679688 L 417.945312 416.390625 L 418.136719 416.824219 L 418.050781 416.976562 L 417.566406 417.050781 L 416.6875 417.050781 L 416.195312 416.976562 L 416.09375 416.824219 L 416.246094 416.390625 L 416.652344 415.679688 L 416.953125 415.324219 L 417.140625 415.324219 Z M 417.472656 415.679688 "/>
<path style="fill:none;stroke-width:6;stroke-linecap:butt;stroke-linejoin:miter;stroke:rgb(56.078431%,30.588235%,54.509804%);stroke-opacity:1;stroke-miterlimit:10;" d="M 462.316406 319.6875 Z M 462.316406 319.6875 "/>
<path style="fill:none;stroke-width:6;stroke-linecap:butt;stroke-linejoin:miter;stroke:rgb(56.078431%,30.588235%,54.509804%);stroke-opacity:1;stroke-miterlimit:10;" d="M 442.363281 206.246094 L 451.378906 199.058594 L 457.082031 194.738281 L 459.472656 193.285156 L 461.734375 192.765625 L 463.867188 193.179688 L 465.457031 193.851562 L 466.496094 194.78125 L 468.371094 197.210938 L 471.085938 201.144531 L 472.738281 204.71875 L 473.320312 207.941406 L 473.609375 215.097656 L 473.609375 226.195312 L 472.339844 232.929688 L 469.804688 235.308594 L 462.617188 236.496094 L 450.78125 236.496094 L 443.355469 236.21875 L 440.339844 235.664062 L 437.707031 234.09375 L 435.464844 231.503906 L 434.125 229.324219 L 433.6875 227.554688 L 433.578125 223.839844 L 433.792969 218.175781 L 434.886719 213.96875 L 436.863281 211.214844 Z M 442.363281 206.246094 "/>
<path style="fill:none;stroke-width:6;stroke-linecap:butt;stroke-linejoin:miter;stroke:rgb(56.078431%,30.588235%,54.509804%);stroke-opacity:1;stroke-miterlimit:10;" d="M 470.453125 181.550781 L 468.773438 183.039062 L 467.542969 183.902344 L 466.765625 184.140625 L 465.390625 184.070312 L 463.425781 183.691406 L 462.167969 183.34375 L 461.621094 183.023438 L 461.058594 182.308594 L 460.480469 181.199219 L 460.582031 180.527344 L 461.359375 180.289062 L 463.863281 180.167969 L 468.089844 180.167969 L 470.472656 180.328125 L 471.019531 180.648438 Z M 470.453125 181.550781 "/>
<path style="fill:none;stroke-width:6;stroke-linecap:butt;stroke-linejoin:miter;stroke:rgb(56.078431%,30.588235%,54.509804%);stroke-opacity:1;stroke-miterlimit:10;" d="M 459.558594 263.503906 L 466.84375 263.503906 L 471.265625 265.164062 L 472.828125 268.484375 L 473.609375 277.898438 L 473.609375 293.398438 L 473.34375 302.929688 L 472.808594 306.492188 L 471.296875 308.824219 L 468.804688 309.933594 L 466.671875 309.109375 L 464.898438 306.351562 L 461.121094 297.980469 L 455.335938 283.996094 L 451.929688 275.222656 L 450.902344 271.664062 L 450.882812 268.570312 L 451.871094 265.941406 L 453.253906 264.347656 L 455.027344 263.785156 Z M 459.558594 263.503906 "/>
<path style="fill:none;stroke-width:6;stroke-linecap:butt;stroke-linejoin:miter;stroke:rgb(56.078431%,30.588235%,54.509804%);stroke-opacity:1;stroke-miterlimit:10;" d="M 473.609375 318.527344 L 473.609375 319.203125 L 473.546875 319.613281 L 473.425781 319.757812 L 473.082031 319.832031 L 472.511719 319.832031 L 472.15625 319.789062 L 472.011719 319.710938 L 471.882812 319.484375 L 471.773438 319.109375 L 471.777344 318.851562 L 471.898438 318.707031 L 472.300781 318.484375 L 472.980469 318.179688 L 473.390625 318.070312 L 473.535156 318.148438 Z M 473.609375 318.527344 "/>
</g>
</svg>
