<?xml version="1.0" encoding="UTF-8" standalone="no"?>
<svg
   width="1200pt"
   height="720pt"
   viewBox="0 0 1200 720"
   version="1.1"
   id="svg3956"
   sodipodi:docname="munihac-2023-logo-idea3.svg"
   inkscape:version="1.1.2 (0a00cf5339, 2022-02-04)"
   inkscape:export-filename="/home/thomaf/projects/generative-art/munihac-2023-logo-idea3.png"
   inkscape:export-xdpi="96"
   inkscape:export-ydpi="96"
   xmlns:inkscape="http://www.inkscape.org/namespaces/inkscape"
   xmlns:sodipodi="http://sodipodi.sourceforge.net/DTD/sodipodi-0.dtd"
   xmlns="http://www.w3.org/2000/svg"
   xmlns:svg="http://www.w3.org/2000/svg">
  <defs
     id="defs3960" />
  <sodipodi:namedview
     id="namedview3958"
     pagecolor="#ffffff"
     bordercolor="#666666"
     borderopacity="1.0"
     inkscape:pageshadow="2"
     inkscape:pageopacity="0.0"
     inkscape:pagecheckerboard="0"
     inkscape:document-units="pt"
     showgrid="false"
     inkscape:zoom="0.2738443"
     inkscape:cx="1042.5632"
     inkscape:cy="586.09948"
     inkscape:window-width="1914"
     inkscape:window-height="1138"
     inkscape:window-x="0"
     inkscape:window-y="26"
     inkscape:window-maximized="1"
     inkscape:current-layer="svg3956"
     width="1400pt" />
  <rect
     style="fill:#ffffff;stroke-width:0;stroke-linecap:round;stroke-linejoin:round;stroke-miterlimit:10;paint-order:markers stroke fill"
     id="rect93275"
     width="2004.093"
     height="1117.9155"
     x="-450.61249"
     y="-275.26764" />
  <g
     id="surface320">
    <path
       style="fill:none;stroke:#453861;stroke-width:6;stroke-linecap:butt;stroke-linejoin:miter;stroke-miterlimit:10;stroke-opacity:1"
       d="M 71.261719,34.265625 59.851562,49.625 51.828125,57.304688 H 47.191406 L 39.75,49.625 29.507812,34.265625 25.609375,24.9375 28.054688,21.644531 40.101562,20 H 61.75 l 11.921875,1.644531 2.195313,3.292969 z m 0,0"
       id="path3791" />
    <path
       style="fill:none;stroke:#453861;stroke-width:6;stroke-linecap:butt;stroke-linejoin:miter;stroke-miterlimit:10;stroke-opacity:1"
       d="m 68.171875,634.71484 4.464844,0.82032 3.058593,1.20703 1.660157,1.60156 2.476562,4.125 3.289063,6.64844 1.488281,5.71484 -0.304687,4.77734 -2.519532,10.21094 -4.726562,15.64844 -4.847656,9.5 L 67.25,698.32422 55.550781,700 H 37.117188 l -9.539063,-2.47656 -0.648437,-4.95313 7.378906,-14.03515 15.410156,-23.11329 9.835938,-13.94921 4.257812,-4.77735 z m 0,0"
       id="path3793" />
    <path
       style="fill:none;stroke:#453861;stroke-width:6;stroke-linecap:butt;stroke-linejoin:miter;stroke-miterlimit:10;stroke-opacity:1"
       d="m 106.35156,35.867188 15.20313,14.074218 8.77734,9.933594 2.35156,5.785156 -0.9375,9.359375 -4.22265,12.929688 -4.35938,7.988281 -4.49218,3.050781 -10.61329,2.175779 -16.734371,1.30469 -10.933594,-0.37109 -5.132813,-2.04297 -6.179687,-6.437502 -7.21875,-10.832032 -2.996094,-8.449218 1.234375,-6.066407 L 67.203125,56.5 80.183594,39.023438 l 9.507812,-9.101563 6.039063,-0.730469 z m 0,0"
       id="path3795" />
    <path
       style="fill:none;stroke:#453861;stroke-width:6;stroke-linecap:butt;stroke-linejoin:miter;stroke-miterlimit:10;stroke-opacity:1"
       d="m 131.05078,118.83594 6.6875,9.63672 3.21875,7.16015 -0.24219,4.6875 -4.03125,8.46875 -7.82031,12.24219 -6.23047,5.21094 -4.63281,-1.81641 -9.22266,-11.26172 -13.812496,-20.71484 -6.78125,-12.70313 0.242187,-4.6875 7.59375,-2.92578 14.945309,-1.16406 9.79297,0.32422 4.63282,1.81641 z m 0,0"
       id="path3797" />
    <path
       style="fill:none;stroke:#453861;stroke-width:6;stroke-linecap:butt;stroke-linejoin:miter;stroke-miterlimit:10;stroke-opacity:1"
       d="m 164.21094,491.76172 3.03515,4.14453 0.375,3.78516 -2.28515,3.42968 -7.9961,7.64063 -13.69922,11.85156 -7.17578,5.48438 -0.64843,-0.88672 5.00781,-8.44532 10.66406,-15.99609 6.80078,-9.26953 2.9375,-2.53906 z m 0,0"
       id="path3799" />
    <path
       style="fill:none;stroke:#453861;stroke-width:6;stroke-linecap:butt;stroke-linejoin:miter;stroke-miterlimit:10;stroke-opacity:1"
       d="m 108.32422,567.51562 0.69531,-1.04687 3.07813,1.12109 5.45312,3.28907 15.10156,9.83984 24.75,16.38672 14.32813,11.25 3.91015,6.10156 -1.30468,9.10156 -6.51563,12.09766 -6.47656,7.45312 -6.4375,2.80469 -14.97656,1.89453 -23.51953,0.98828 -14.61719,-0.082 -5.714845,-1.15625 -4.433594,-3.76562 -3.152343,-6.375 -1.085938,-6.23438 0.980469,-6.08984 4.363281,-14.07422 7.73828,-22.05078 4.77344,-13.50391 1.80859,-4.94922 z m 0,0"
       id="path3801" />
    <path
       style="fill:none;stroke:#453861;stroke-width:6;stroke-linecap:butt;stroke-linejoin:miter;stroke-miterlimit:10;stroke-opacity:1"
       d="m 116.74219,658.79297 23.10156,-0.97266 14.57422,1.02735 6.05078,3.02343 5.59375,9.05078 5.13281,15.07813 -0.36328,9.15234 -5.86328,3.23047 L 145.78906,700 h -32.5 l -19.273435,-1.51172 -6.050781,-3.02344 -0.894532,-8.5664 4.265626,-14.10547 5.0625,-8.67188 5.863282,-3.23047 z m 0,0"
       id="path3803" />
    <path
       style="fill:none;stroke:#453861;stroke-width:6;stroke-linecap:butt;stroke-linejoin:miter;stroke-miterlimit:10;stroke-opacity:1"
       d="m 176.00391,28.632812 -2.6836,9.296876 -2.68359,5.992187 -2.6875,2.691406 -6.27344,2.96875 -9.86328,3.25 -7.44141,0.628907 -5.01953,-1.992188 -9.28125,-7.269531 -13.55078,-12.546875 -5.43359,-7.621094 2.6875,-2.6875 L 128.16406,20 h 26.09766 l 15.55469,0.996094 5.01953,1.992187 z m 0,0"
       id="path3805" />
    <path
       style="fill:none;stroke:#453861;stroke-width:6;stroke-linecap:butt;stroke-linejoin:miter;stroke-miterlimit:10;stroke-opacity:1"
       d="m 166.57422,143.875 15.1289,1.41016 9.20313,3.10937 3.27734,4.80469 1.71094,12.91797 0.14844,21.02343 -0.88672,13.31641 -1.92578,5.61719 -5.52735,5.39062 -9.13281,5.17578 -6.42969,2.70313 -3.72656,0.23047 -5.98828,-1.92969 -8.25391,-4.08984 -5.71875,-3.54297 -3.18359,-3 -4.89062,-6.44531 -6.59375,-9.89063 -3.07422,-7.46875 0.45312,-5.03906 4.57422,-9.33203 8.70313,-13.6211 6.90625,-8.11718 5.10546,-2.61719 z m 0,0"
       id="path3807" />
    <path
       style="fill:none;stroke:#453861;stroke-width:6;stroke-linecap:butt;stroke-linejoin:miter;stroke-miterlimit:10;stroke-opacity:1"
       d="m 193.73437,529.75 17.9336,24.60156 10.50781,15.50781 3.07813,6.41016 -0.23829,5.86328 -3.55859,5.31641 -3.30859,3.70312 -3.0625,2.08594 -6.89453,3.26172 -10.73047,4.42969 -9.14453,0.94531 -7.5586,-2.53125 -16.05859,-9.39844 -24.55078,-16.25781 -12.66797,-11.8125 -0.78125,-7.35938 10.0625,-12.72656 20.91015,-18.08984 14.61329,-8.34766 8.32421,1.39844 z m 0,0"
       id="path3809" />
    <path
       style="fill:none;stroke:#453861;stroke-width:6;stroke-linecap:butt;stroke-linejoin:miter;stroke-miterlimit:10;stroke-opacity:1"
       d="M 154.67187,62.417969 164.67578,59.121094 172,58.078125 l 4.65234,1.214844 8.17578,5.085937 11.70313,8.960938 6.89453,7.4375 2.08984,5.921875 0.0625,12.296875 -1.96093,18.667966 -1.28516,11.40625 -0.60937,4.14453 -0.7461,2.39844 -0.8789,0.65625 -2.28125,0.23438 -3.67969,-0.1836 -9.98828,-0.85156 -16.28907,-1.51563 -10.63671,-1.99609 -4.98438,-2.47656 -5.97266,-6.25781 -6.96093,-10.03125 -3.75782,-7.53516 -0.55078,-5.02734 1.92188,-9.234379 4.39062,-13.4375 3.73828,-8.511719 3.08204,-3.585937 z m 0,0"
       id="path3811" />
    <path
       style="fill:none;stroke:#453861;stroke-width:6;stroke-linecap:butt;stroke-linejoin:miter;stroke-miterlimit:10;stroke-opacity:1"
       d="m 219.23437,425.76172 5.46094,18.3164 1.41016,12.39063 -2.64063,6.46875 -10.21484,9.16016 -17.78516,11.85546 -11.23437,6.60157 -4.6875,1.34765 -4.37891,-2.10937 -4.07812,-5.57031 -0.71875,-6.01563 2.64062,-6.46484 9.52344,-15.53516 16.40234,-24.60547 10.54297,-12.97656 4.6875,-1.34766 z m 0,0"
       id="path3813" />
    <path
       style="fill:none;stroke:#453861;stroke-width:6;stroke-linecap:butt;stroke-linejoin:miter;stroke-miterlimit:10;stroke-opacity:1"
       d="m 183.60937,225.27734 9.25391,-5.23828 7.03125,-2.53906 4.8125,0.16406 9.01172,3.08985 13.20703,6.00781 8.01563,6.0664 2.82812,6.125 1.39844,14.33985 -0.0273,22.55859 -0.60937,14.07813 -1.18359,5.60156 -3.34375,4.59375 -5.50391,3.58203 -4.18359,1.58203 -2.8711,-0.41406 -5.3789,-2.96484 -7.89063,-5.51954 -5.82031,-4.89062 -3.7461,-4.26953 -6.67578,-9.33203 -9.59765,-14.39844 -5.76953,-9.48828 -1.9375,-4.58594 -0.6875,-5.78906 0.55859,-6.9961 1.33203,-4.80859 2.10156,-2.62109 z m 0,0"
       id="path3815" />
    <path
       style="fill:none;stroke:#453861;stroke-width:6;stroke-linecap:butt;stroke-linejoin:miter;stroke-miterlimit:10;stroke-opacity:1"
       d="m 199.80859,610.78125 10.01172,-4.13672 6.66406,-1.375 3.3086,1.37891 4.375,5.98047 5.43359,10.57812 1.625,8.93359 -2.18359,7.28907 -8.90625,15.36718 -15.625,23.4375 -9.6211,14.23047 -3.60546,5.02344 L 188.87109,700 h -1.21484 l -1.34766,-1.79297 -1.48047,-3.58203 -3.58984,-10.15234 -5.69531,-16.72657 -2.69531,-11.5625 0.29687,-6.40234 3.69531,-9.78125 7.08594,-13.16016 5.37891,-8.43359 3.66406,-3.70703 z m 0,0"
       id="path3817" />
    <path
       style="fill:none;stroke:#453861;stroke-width:6;stroke-linecap:butt;stroke-linejoin:miter;stroke-miterlimit:10;stroke-opacity:1"
       d="m 189.25781,20 h 0.38281 l 1.46094,1.839844 2.53906,3.679687 6.99219,10.429688 11.44922,17.171875 6.59766,10.597656 1.74609,4.015625 -0.77734,2.796875 -3.30469,1.570312 -3.23047,0.01953 -3.15234,-1.535156 -7.28516,-5.140626 -11.41797,-8.738281 -6.625,-6.378906 -1.82812,-4.019531 0.53125,-7.011719 2.88281,-10.003906 1.79297,-6.078125 0.70312,-2.144532 z m 0,0"
       id="path3819" />
    <path
       style="fill:none;stroke:#453861;stroke-width:6;stroke-linecap:butt;stroke-linejoin:miter;stroke-miterlimit:10;stroke-opacity:1"
       d="m 244.57812,471.75391 8.92969,3.22265 6.35156,4.59766 3.77344,5.96875 6.22656,15.29687 8.67579,24.625 5.125,15.13282 1.57421,5.64062 0.1211,3.67188 -1.33203,1.69921 -2.55469,1.70313 -3.78125,1.70312 -10.03906,3.97266 -16.30469,6.25 -11.78125,1.21094 -7.25391,-3.82031 -12.40234,-13.94922 -17.54688,-24.07813 -8.77343,-15.875 0.008,-7.67187 8.79297,-9.69532 17.57812,-11.71875 11.62891,-6.76953 5.67969,-1.82031 z m 0,0"
       id="path3821" />
    <path
       style="fill:none;stroke:#453861;stroke-width:6;stroke-linecap:butt;stroke-linejoin:miter;stroke-miterlimit:10;stroke-opacity:1"
       d="m 228.50781,145.77734 22.20703,3.0625 13.36328,3.97266 4.51563,4.89062 1.68359,12.32422 -1.14062,19.75391 -1.60547,12.57031 -2.0625,5.38672 -5.28125,5.37109 -8.49219,5.36719 -6.5664,2.61719 -4.64454,-0.13672 -8.90625,-3.0625 -13.16796,-5.99219 -8.01172,-5.95703 -2.85547,-5.92187 -1.50391,-13.77344 -0.15625,-21.63281 -0.0117,-13.19141 0.12891,-4.75391 0.4375,-2.65625 0.75,-0.55859 2.83594,-0.0117 4.91797,0.53516 z m 0,0"
       id="path3823" />
    <path
       style="fill:none;stroke:#453861;stroke-width:6;stroke-linecap:butt;stroke-linejoin:miter;stroke-miterlimit:10;stroke-opacity:1"
       d="m 220.91016,81.003906 3.83984,-1.828125 3.9375,1.292969 4.02344,4.414062 9.48828,13.417969 14.94922,22.421879 6.86328,13.30859 -1.22266,4.19531 -10.9375,0.67578 -20.65234,-2.84765 -12.33985,-3.62891 -4.02734,-4.41406 -1.08203,-11.08203 1.86328,-17.746096 1.54297,-10.972656 1.22266,-4.195313 z m 0,0"
       id="path3825" />
    <path
       style="fill:none;stroke:#453861;stroke-width:6;stroke-linecap:butt;stroke-linejoin:miter;stroke-miterlimit:10;stroke-opacity:1"
       d="m 250.57422,393.8125 26.99609,2.22266 16.60938,2.47656 6.22656,2.73047 4.13672,6.61718 2.05078,10.51172 -0.40234,7.89063 -2.85547,5.26953 -9.10938,9.67187 -15.37109,14.07422 -10.26563,8.20703 -5.16015,2.33985 -6.9375,-0.40235 -8.71875,-3.14843 -5.97657,-4.21094 -3.23828,-5.28125 -4.82422,-13.38672 -6.41015,-21.49609 -3.73438,-13.28125 -1.0625,-5.07032 0.19141,-3.62109 1.44531,-2.16797 3.76953,-1.07422 6.09375,0.0117 z m 0,0"
       id="path3827" />
    <path
       style="fill:none;stroke:#453861;stroke-width:6;stroke-linecap:butt;stroke-linejoin:miter;stroke-miterlimit:10;stroke-opacity:1"
       d="m 233.23047,312.55859 6.23828,-4.05859 5.53516,-2.21094 4.83984,-0.35937 10.59766,1.00781 16.34765,2.37891 10.53516,4.0664 4.71875,5.75391 5.19531,15.11328 5.66797,24.47266 3.28906,15.11328 0.91016,5.75 -0.25,4.05468 -1.41016,2.35938 -3.57031,1.20703 -5.72266,0.0586 -15.51562,-1.01171 -25.29688,-2.08204 -14.80468,-2.10156 -4.3125,-2.11328 0.4414,-4.94922 5.1875,-7.78125 2.30078,-6 -0.58593,-4.21484 -4.25782,-8.05469 -7.92578,-11.88672 -4.6875,-7.58594 -1.4414,-3.27343 -0.1211,-3.33594 1.19922,-3.39453 1.39453,-2.4961 1.58985,-1.59765 z m 0,0"
       id="path3829" />
    <path
       style="fill:none;stroke:#5c4f85;stroke-width:6;stroke-linecap:butt;stroke-linejoin:miter;stroke-miterlimit:10;stroke-opacity:1"
       d="m 289.59766,670.82812 24.48046,1.20704 14.86329,1.73828 5.23828,2.27343 2.60547,5.83204 -0.0312,9.39453 -3.39454,5.70703 -6.76171,2.01172 L 307.45703,700 H 275.9375 l -18.37891,-1.13672 -5.23828,-2.26953 0.91406,-6.4375 7.06641,-10.60547 6.91406,-6.30859 6.76172,-2.01172 z m 0,0"
       id="path3831" />
    <path
       style="fill:none;stroke:#453861;stroke-width:6;stroke-linecap:butt;stroke-linejoin:miter;stroke-miterlimit:10;stroke-opacity:1"
       d="m 251.45312,575.90234 14.81641,-5.67578 7.53516,-1.2539 0.25,3.17578 -6.70703,11.83203 -13.66407,20.49609 -8.80859,11.4375 -3.96094,2.38672 -4.38281,-3.48828 -4.80859,-9.35938 -2.52735,-6.26562 -0.24609,-3.17578 1.69922,-4.31641 3.65234,-5.45312 3.80469,-3.92188 3.95703,-2.38281 z m 0,0"
       id="path3833" />
    <path
       style="fill:none;stroke:#5c4f85;stroke-width:6;stroke-linecap:butt;stroke-linejoin:miter;stroke-miterlimit:10;stroke-opacity:1"
       d="m 314.14453,627.8125 8.72266,18.16797 3.13672,10.92578 -2.45704,3.68359 -11.3125,1.33985 -20.17187,-0.99219 -11.02344,-2.44531 -1.87109,-3.89453 4.79297,-10.53516 11.44922,-17.17578 7.88671,-8.48047 4.32422,0.21484 z m 0,0"
       id="path3835" />
    <path
       style="fill:none;stroke:#453861;stroke-width:6;stroke-linecap:butt;stroke-linejoin:miter;stroke-miterlimit:10;stroke-opacity:1"
       d="m 257.06641,226.91406 8.47656,-5.35937 6.94922,-2.51563 5.42187,0.31641 11.125,3.57812 16.82422,6.84375 9.91797,6.1211 3.01953,5.40625 0.14453,11.89843 -2.73047,18.39063 -2.36718,11.66016 -1.9961,4.92968 -4.29687,4.76563 -6.59766,4.60937 -5.71875,2.54688 -4.83984,0.48828 -10.42188,-0.91797 -16.0039,-2.32812 -9.71094,-3.78907 -3.42188,-5.24609 -1.69922,-13.69922 0.0273,-22.15625 0.92578,-14.02344 1.82031,-5.89453 z m 0,0"
       id="path3837" />
    <path
       style="fill:none;stroke:#5c4f85;stroke-width:6;stroke-linecap:butt;stroke-linejoin:miter;stroke-miterlimit:10;stroke-opacity:1"
       d="m 298.58984,20 h 24.85938 l 14.67187,2.960938 4.47657,5.921874 0.25781,16.773438 -3.96094,27.632812 -3.30469,17.445313 -2.65234,7.261719 -5.52734,6.753906 -8.40235,6.24609 -6.74609,1.33204 -5.08594,-3.58985 -10.20703,-13.292968 -15.33203,-22.992187 -9.00391,-15.128906 -2.67578,-7.257813 0.0781,-9.074218 2.83593,-10.886719 4.38672,-6.605469 5.9336,-2.332031 z m 0,0"
       id="path3839" />
    <path
       style="fill:none;stroke:#453861;stroke-width:6;stroke-linecap:butt;stroke-linejoin:miter;stroke-miterlimit:10;stroke-opacity:1"
       d="m 296.23047,179.34766 16.32812,24.48828 9.86719,14.89843 3.40625,5.3086 1.48828,2.79297 -0.43359,0.27343 -2.07422,-0.5664 -3.71875,-1.41797 -10.32813,-4.14844 -16.92578,-6.88672 -10.16797,-6.09375 -3.40625,-5.30859 -1.1875,-11.59375 1.03125,-17.88281 2.37891,-8.23438 3.71875,1.41797 z m 0,0"
       id="path3841" />
    <path
       style="fill:none;stroke:#453861;stroke-width:6;stroke-linecap:butt;stroke-linejoin:miter;stroke-miterlimit:10;stroke-opacity:1"
       d="m 324.85547,442.92578 11.18359,7.21875 6.81641,4.66016 2.45312,2.10156 1.35547,2.35156 0.25781,2.59375 -1.79687,4.50781 -3.85156,6.41407 -11.03516,16.87109 -18.22266,27.33594 -11.94921,14.08984 -5.67188,0.84375 -6.95312,-11.27344 -8.2461,-23.39062 -3.39453,-15.67578 1.45703,-7.96094 8.23828,-10.85937 15.02344,-13.75782 10.32031,-7.57812 5.61719,-1.40235 z m 0,0"
       id="path3843" />
    <path
       style="fill:none;stroke:#453861;stroke-width:6;stroke-linecap:butt;stroke-linejoin:miter;stroke-miterlimit:10;stroke-opacity:1"
       d="m 338.51172,302.98828 20.83203,6.41406 12.30469,5.64063 3.77734,4.86719 0.29297,10.58984 -3.19531,16.30859 -3.90235,10.42969 -4.61328,4.55859 -11.46875,4.75391 -18.32422,4.95313 -11.71093,0.5 -5.08594,-3.95313 -5.25781,-13.67969 -5.41797,-23.40234 -2.63672,-14.66797 0.14844,-5.93359 3.1289,-5.09766 6.10938,-4.26953 5.94531,-1.90625 5.77344,0.45703 z m 0,0"
       id="path3845" />
    <path
       style="fill:none;stroke:#5c4f85;stroke-width:6;stroke-linecap:butt;stroke-linejoin:miter;stroke-miterlimit:10;stroke-opacity:1"
       d="m 356.60156,536.21094 0.98047,-0.27735 1.54688,0.20313 2.11718,0.6875 5.5,2.08984 8.89063,3.48828 4.92187,5.91797 0.95703,8.34375 -1.73828,21.89453 -4.42578,35.44532 -3.76562,22.15625 -3.10157,8.86328 -6.57421,7.39453 -10.04688,5.92187 -7.22656,1.25 -4.40625,-3.42578 -7.46094,-12.66015 -10.51562,-21.90235 -4.76172,-15.72656 0.98828,-9.55078 8.05078,-16.11719 15.12109,-22.67969 9.28516,-13.80078 3.44922,-4.91797 z m 0,0"
       id="path3847" />
    <path
       style="fill:none;stroke:#453861;stroke-width:6;stroke-linecap:butt;stroke-linejoin:miter;stroke-miterlimit:10;stroke-opacity:1"
       d="m 334.83203,381.69531 19.47656,-5.26172 12.64844,-2.3789 5.82813,0.50781 6.76953,4.07031 7.71484,7.63672 3.44531,6.49219 -0.82422,5.35156 -6.1914,11.34375 -11.5586,17.33594 -7.39062,10.72265 -3.22656,4.10938 -3.36328,2.98047 -3.5,1.84765 -3.35938,0.32032 -3.22266,-1.19922 -7.3789,-4.32422 -11.54297,-7.44922 -7.24219,-5.74609 -2.94922,-4.03516 -2.58593,-7.71094 -2.21875,-11.38281 -1.17579,-7.20703 -0.125,-3.01953 0.75,-2.8711 1.62891,-2.71875 3.07422,-2.21484 4.51953,-1.71094 z m 0,0"
       id="path3849" />
    <path
       style="fill:none;stroke:#453861;stroke-width:6;stroke-linecap:butt;stroke-linejoin:miter;stroke-miterlimit:10;stroke-opacity:1"
       d="m 332.15234,235.61328 0.57813,-0.37109 2.11328,2.41797 3.64844,5.20703 10.04687,14.9375 16.44531,24.66797 7.86719,14.32421 -0.70312,3.98438 -10.21485,-1.04688 -19.73047,-6.07421 -11.6875,-5.63672 -3.64843,-5.20703 -0.46875,-11.71485 2.70703,-18.22265 1.70312,-11.10157 0.70703,-3.98437 z m 0,0"
       id="path3851" />
    <path
       style="fill:none;stroke:#5c4f85;stroke-width:6;stroke-linecap:butt;stroke-linejoin:miter;stroke-miterlimit:10;stroke-opacity:1"
       d="m 362.30078,110.16016 22.74609,3.43359 13.76563,3.73047 4.78516,4.01953 2.1875,9.67578 -0.41016,15.33203 -1.88672,10.21875 -3.35937,5.10938 -9.3125,6.80468 -15.26563,8.5 -10.91797,2.90235 -6.57031,-2.69531 -10.98828,-11.88282 -15.39844,-21.07031 -8.45703,-13.45703 -1.51563,-5.84375 3.41016,-6.01953 8.33203,-6.19141 7.4961,-3.39453 6.66015,-0.58984 z m 0,0"
       id="path3853" />
    <path
       style="fill:none;stroke:#5c4f85;stroke-width:6;stroke-linecap:butt;stroke-linejoin:miter;stroke-miterlimit:10;stroke-opacity:1"
       d="m 372.81641,20 h 17.42187 l 11.16406,0.742188 4.90625,1.480468 5.1836,4.203125 5.46484,6.917969 3.21875,6.390625 0.98047,5.863281 0.0352,13.152344 -0.90625,20.441406 -0.91407,12.746094 -0.92968,5.058594 -2.17579,4.109376 -3.42578,3.16016 -4.48437,1.55468 -5.54688,-0.0508 -13.99218,-1.71875 -22.44922,-3.39062 -13.21094,-4.960941 -3.97656,-6.542969 -0.043,-16.832031 3.89062,-27.132813 4.22657,-16.472656 4.5664,-5.8125 z m 0,0"
       id="path3855" />
    <path
       style="fill:none;stroke:#5c4f85;stroke-width:6;stroke-linecap:butt;stroke-linejoin:miter;stroke-miterlimit:10;stroke-opacity:1"
       d="m 436.41016,422.8125 4.76562,0.83984 3.11719,1.1836 1.46094,1.53125 1.76562,3.91015 2.06641,6.29297 0.54687,6.72266 -0.96875,7.15234 -3.78515,17.11719 -6.59375,27.08594 -4.50391,16.89453 -2.40234,6.70703 -3.51954,5.46094 -4.63281,4.21484 -3.92187,2.75781 -3.21094,1.3086 -6.78516,1.59765 -10.35547,1.89063 -7.27734,0.75781 -4.20312,-0.37109 -6.71875,-2 -9.2461,-3.62891 -5.61719,-2.26953 -1.99609,-0.91016 -1.02734,-0.75781 -0.0586,-0.60937 2.53907,-4.23438 5.14453,-7.86328 14.59765,-21.97266 24.05469,-36.08203 15.11719,-21.82031 6.17578,-7.55078 z m 0,0"
       id="path3857" />
    <path
       style="fill:none;stroke:#5c4f85;stroke-width:6;stroke-linecap:butt;stroke-linejoin:miter;stroke-miterlimit:10;stroke-opacity:1"
       d="m 379.05078,186.48047 15.83203,-8.81641 10.73047,-4.55859 5.62109,-0.30469 8.00782,3.55078 10.39453,7.40625 6.16406,6.47266 1.93359,5.53515 0.28516,11.98829 -1.36328,18.43359 -1.52734,11.63672 -1.69141,4.83594 -4.10938,4.48437 -6.52734,4.13672 -4.95703,1.76953 -3.37891,-0.58984 -6.32031,-3.74219 -9.25781,-6.89063 -6.60547,-5.66015 -3.95313,-4.42969 -6.57031,-9.10547 -9.18359,-13.78125 -5.56641,-8.41797 -1.94531,-3.05468 -0.92188,-1.77344 0.10938,-0.48828 1.75781,-1.23828 3.41797,-1.99219 z m 0,0"
       id="path3859" />
    <path
       style="fill:none;stroke:#5c4f85;stroke-width:6;stroke-linecap:butt;stroke-linejoin:miter;stroke-miterlimit:10;stroke-opacity:1"
       d="m 356.625,667.14062 10.56641,-6.22656 8.41406,-3.5625 6.26172,-0.89062 12.46093,0.58203 18.66016,2.0625 11.45313,1.75781 4.25,1.45703 2.70312,3.09375 1.16406,4.73438 0.0703,3.83203 -1.02344,2.92187 -3.48047,5.91797 -5.94141,8.90625 -6.22656,5.41016 -6.51953,1.91015 -15.5,0.95313 h -24.48047 l -14.85937,-1.01563 -5.23829,-2.03125 -2.60546,-5.7539 0.0312,-9.47656 1.14843,-6.41797 2.27344,-3.36719 z m 0,0"
       id="path3861" />
    <path
       style="fill:none;stroke:#453861;stroke-width:6;stroke-linecap:butt;stroke-linejoin:miter;stroke-miterlimit:10;stroke-opacity:1"
       d="m 397.60547,331.40625 9.88672,14.82422 5.3789,9.9375 0.8711,5.04297 -2.46485,6.875 -5.80468,8.70703 -4.30469,4.51562 -2.80469,0.32422 -5.03906,-3.4414 -7.28125,-7.20313 -4.07422,-6.125 -0.875,-5.04297 1.16406,-10.6875 3.19922,-16.33203 3,-8.32422 2.80469,-0.32422 z m 0,0"
       id="path3863" />
    <path
       style="fill:none;stroke:#5c4f85;stroke-width:6;stroke-linecap:butt;stroke-linejoin:miter;stroke-miterlimit:10;stroke-opacity:1"
       d="m 471.56641,357.34375 -1.90625,-2.85938 -0.89844,-1.53515 0.11328,-0.21485 1.26562,0.83204 2.42579,1.87109 1.42968,1.89453 0.4336,1.92188 0.0156,4.50781 -0.40234,7.09765 -1.23828,5.69922 -2.07422,4.30469 -5.67188,8.64844 -9.26953,12.98437 -5.96875,7.82813 -2.67187,2.66015 -2.9375,1.05079 -3.19922,-0.56641 -0.61719,-2.32813 1.96094,-4.08984 7.15625,-11.3125 12.35547,-18.53125 7.29687,-11.55859 2.23828,-4.58203 z m 0,0"
       id="path3865" />
    <path
       style="fill:none;stroke:#5c4f85;stroke-width:6;stroke-linecap:butt;stroke-linejoin:miter;stroke-miterlimit:10;stroke-opacity:1"
       d="m 402.05469,545.17187 8.84765,-1.61328 7.12891,2.16016 5.41016,5.93359 10.91015,17.6211 16.40625,29.30468 8.72266,18.75 1.03125,8.1875 -5.27735,8.54688 -11.58984,8.90625 -8.96094,5.19531 -6.33984,1.48438 -12.16406,-0.25391 -17.98828,-1.98437 -10.45704,-4.91407 -2.92968,-7.84375 0.69531,-21.23047 4.32422,-34.60937 3.57422,-21.19141 2.82031,-7.76172 z m 0,0"
       id="path3867" />
    <path
       style="fill:none;stroke:#5c4f85;stroke-width:6;stroke-linecap:butt;stroke-linejoin:miter;stroke-miterlimit:10;stroke-opacity:1"
       d="m 419.30859,111.90234 3.31641,-3.05859 4.22656,-1.25391 5.14063,0.55079 12.89843,3.09375 20.66016,5.63281 12.98828,4.08984 5.32422,2.55078 4.75,4.41016 4.18359,6.26953 2.26954,4.68359 0.35546,3.09375 -1.07031,5.62891 -2.50781,8.16797 -3.18359,5.67578 -3.8711,3.1875 -9.71094,4.94141 -15.54687,6.69921 -10.57031,3.26563 -5.58985,-0.17188 -8.0664,-3.83984 -10.53516,-7.50391 -6.35156,-6.29687 -2.16406,-5.07813 -0.86719,-10.64453 0.4375,-16.20312 0.61719,-10.16797 0.80468,-4.12891 z m 0,0"
       id="path3869" />
    <path
       style="fill:none;stroke:#5c4f85;stroke-width:6;stroke-linecap:butt;stroke-linejoin:miter;stroke-miterlimit:10;stroke-opacity:1"
       d="m 427.41016,260.19922 7.08984,-4.49219 6.10937,-2.30078 5.13282,-0.10547 10.98828,1.94531 16.85156,3.99219 10.47656,4.80859 4.10157,5.61329 3.19921,13.91796 2.29297,22.21875 0.76953,14.29297 -0.76171,6.36719 -3.30469,6.92578 -5.84766,7.49219 -4.62109,3.71875 -3.39453,-0.043 -6.6875,-3.87891 -9.98828,-7.70703 -7.29688,-6.53125 -4.61328,-5.36328 -8.07813,-11.33594 -11.54296,-17.3164 -6.88672,-10.96094 -2.23047,-4.60937 -0.54297,-4.39844 1.14062,-4.19141 1.45313,-3.02344 1.76172,-1.85937 z m 0,0"
       id="path3871" />
    <path
       style="fill:none;stroke:#5c4f85;stroke-width:6;stroke-linecap:butt;stroke-linejoin:miter;stroke-miterlimit:10;stroke-opacity:1"
       d="m 431.95312,43.113281 h 0.0664 l 1.69531,2.488281 3.33203,4.972657 9.39844,14.09375 15.47656,23.207031 7.64063,13.61328 -0.19531,4.01953 -8.27735,-0.22265 -16.36718,-4.46485 -9.85157,-4.714841 -3.32812,-4.976563 -1.25,-11.859375 0.82812,-18.746093 0.51172,-11.382813 0.19141,-4.015625 z m 0,0"
       id="path3873" />
    <path
       style="fill:none;stroke:#5c4f85;stroke-width:6;stroke-linecap:butt;stroke-linejoin:miter;stroke-miterlimit:10;stroke-opacity:1"
       d="m 463.04297,185.64453 14.85547,-6.40234 10.3164,-1.85938 5.77735,2.67969 8.93359,10.80078 12.08984,18.92188 7.33204,11.53906 2.57031,4.16015 1.24219,2.32422 -0.0937,0.49219 -1.30079,1.22656 -2.51562,1.96094 -7.07813,5.30859 -11.64062,8.66016 -8.83984,4.83984 -6.03516,1.01563 -11.28516,-1.45313 -16.53125,-3.91796 -9.89453,-4.28125 -3.26172,-4.64063 -0.97265,-11.19922 1.3125,-17.75 2.39062,-11.46484 3.46485,-5.17578 z m 0,0"
       id="path3875" />
    <path
       style="fill:none;stroke:#5c4f85;stroke-width:6;stroke-linecap:butt;stroke-linejoin:miter;stroke-miterlimit:10;stroke-opacity:1"
       d="m 464.95703,533.625 28.36719,6.16406 15.44531,6.40625 2.52734,6.64844 -7.02734,15.76172 -16.58203,24.87109 -11.72656,12.13672 -6.8711,-0.60156 -11.17968,-14.13281 -15.49219,-27.66407 -9.00391,-17.16015 -2.52734,-6.64844 0.58594,-5.01172 3.70312,-3.36719 5.28516,-1.38672 6.875,0.60157 z m 0,0"
       id="path3877" />
    <path
       style="fill:none;stroke:#5c4f85;stroke-width:6;stroke-linecap:butt;stroke-linejoin:miter;stroke-miterlimit:10;stroke-opacity:1"
       d="m 488.49609,460.16406 30.47657,12.05469 18.45703,8.16406 6.4414,4.26953 3.00782,6.07422 -0.42188,7.875 -1.02344,5.9336 -1.625,3.98437 -4.38672,7.35938 -7.15625,10.73046 -7.43359,5.84375 -7.71094,0.95704 -18.27734,-2.65625 -28.83984,-6.26563 -16.8711,-6.41797 -4.90625,-6.57031 0.51563,-15.48438 5.9414,-24.39453 6.8711,-13.51953 7.80468,-2.64453 z m 0,0"
       id="path3879" />
    <path
       style="fill:none;stroke:#5c4f85;stroke-width:6;stroke-linecap:butt;stroke-linejoin:miter;stroke-miterlimit:10;stroke-opacity:1"
       d="m 507.51953,392.15234 28.95313,7.80078 17.55859,6.78125 6.16797,5.75391 2.98828,12.40625 -0.1875,19.05859 -0.55469,12.04297 -0.91797,5.02344 -2.5039,4.70313 -4.09375,4.38671 -5.87891,1.32422 -7.65625,-1.74218 -19.65234,-7.12891 -31.64063,-12.51953 -19.42578,-8.25391 -7.21484,-4 -4.61328,-5.07031 -2.01563,-6.14063 -0.26172,-5.07812 1.49219,-4.01172 5.23828,-8.30078 8.98828,-12.58984 8.55469,-6.8086 8.13281,-1.02344 z m 0,0"
       id="path3881" />
    <path
       style="fill:none;stroke:#5c4f85;stroke-width:6;stroke-linecap:butt;stroke-linejoin:miter;stroke-miterlimit:10;stroke-opacity:1"
       d="m 543.39453,251 14.30078,13.83984 8.12891,9.78907 1.95703,5.74609 -1.60938,9.35156 -5.17968,12.96485 -5.04688,8.15234 -4.91797,3.33594 -11.34375,2.98047 -17.77734,2.61718 -11.02734,-0.69531 -4.28125,-4.01562 -3.24219,-12.67969 -2.20703,-21.34766 -0.17578,-13.82422 1.85546,-6.30468 6.35157,-7.19141 10.85547,-8.07422 8.12109,-3.41797 5.39062,1.23438 z m 0,0"
       id="path3883" />
    <path
       style="fill:none;stroke:#5c4f85;stroke-width:6;stroke-linecap:butt;stroke-linejoin:miter;stroke-miterlimit:10;stroke-opacity:1"
       d="m 516.89062,170.33594 14.05469,21.08203 8.11719,13.10547 2.17578,5.1289 -0.85937,3.98828 -3.89454,2.85547 -3.63281,-0.25 -3.36719,-3.35547 -7.59765,-10.92578 -11.82813,-18.5039 -7,-11.81641 -2.17578,-5.12891 -0.25781,-5.28125 1.66797,-5.43359 2.51953,-1.03906 3.36719,3.35547 z m 0,0"
       id="path3885" />
    <path
       style="fill:none;stroke:#5c4f85;stroke-width:6;stroke-linecap:butt;stroke-linejoin:miter;stroke-miterlimit:10;stroke-opacity:1"
       d="m 490.97656,348.83594 6.58594,-8.4336 6.01953,-5.41797 5.46094,-2.40234 12.17187,-2.59375 18.89063,-2.78125 12.875,0.0742 6.85547,2.93359 9.99218,9.70703 13.11719,16.47657 6.91016,10.98437 0.70312,5.48828 -4.5664,7.32032 -9.83594,9.14453 -9.09375,4.71093 -8.34766,0.28125 -18.73828,-3.78515 -29.1289,-7.84766 -17.64454,-5.46875 -6.16406,-3.08594 -2.89453,-4.82421 0.37109,-6.5586 0.9336,-4.88281 1.48828,-3.21484 z m 0,0"
       id="path3887" />
    <path
       style="fill:none;stroke:#5c4f85;stroke-width:6;stroke-linecap:butt;stroke-linejoin:miter;stroke-miterlimit:10;stroke-opacity:1"
       d="m 540.45312,225.98437 4.71875,-3.45703 4.12891,-0.19531 3.53906,3.05469 7.67969,10.39062 11.81641,17.72266 6.98828,10.79687 2.16797,3.875 0.23047,2.11719 -1.70704,0.36328 -2.6289,-1.32422 -3.55469,-3.0039 -9.21094,-8.69922 -14.86718,-14.38672 -9.02344,-8.76172 -3.17578,-3.13672 -1.56641,-1.6875 0.043,-0.23828 0.53516,-0.51562 1.01953,-0.79297 z m 0,0"
       id="path3889" />
    <path
       style="fill:none;stroke:#5c4f85;stroke-width:6;stroke-linecap:butt;stroke-linejoin:miter;stroke-miterlimit:10;stroke-opacity:1"
       d="m 583.36328,280.16406 3.06641,-0.64844 3.64453,2.27735 4.21875,5.20703 10.42969,15.08203 16.63281,24.94922 9.4414,15.73437 2.2461,6.51563 -1.94922,5.99609 -6.14453,5.46875 -4.29688,3.36328 -2.44531,1.26172 -3.85937,0.83985 -5.27344,0.41406 -4.65235,-1.57031 L 600.39062,361.5 591.60156,351.21875 578.05859,334.20703 570.40234,322.46875 568.625,316 570.37109,306.17969 575.62891,293 l 3.52343,-8.06641 1.78516,-2.96484 z m 0,0"
       id="path3891" />
    <path
       style="fill:none;stroke:#5c4f85;stroke-width:6;stroke-linecap:butt;stroke-linejoin:miter;stroke-miterlimit:10;stroke-opacity:1"
       d="m 561.39453,477.83594 4.35547,-4.66407 5.50391,-2.57421 6.65234,-0.48829 16.66797,0.95704 26.6914,2.39453 16.35938,2.33984 6.02734,2.28516 3.73438,5.28125 1.4414,8.27343 -0.27734,6.60157 -2,4.92968 -6.37891,9.83594 -10.76562,14.74219 -7.46875,8.96094 -4.17188,3.1875 -6.4375,1.66015 -8.70312,0.13282 -6.64063,-1.95704 -4.57812,-4.04296 -8.62891,-11.52735 -12.67187,-19.00781 -7.7461,-11.46484 -2.82031,-3.91797 -1.65234,-1.59375 -0.48438,0.72656 -0.27734,0.16406 -0.0742,-0.40234 0.0312,-1.4961 0.14063,-2.59375 0.55078,-2.07421 0.96093,-1.55469 z m 0,0"
       id="path3893" />
    <path
       style="fill:none;stroke:#5c4f85;stroke-width:6;stroke-linecap:butt;stroke-linejoin:miter;stroke-miterlimit:10;stroke-opacity:1"
       d="m 627.26172,564.04687 8.625,13.57422 4.97265,8.8125 1.32422,4.04688 -0.55468,4.67578 -2.4375,5.30469 -2.82422,1.20703 -3.20703,-2.88672 -7.86329,-10.83594 -12.52343,-18.78515 -6.92188,-11.41797 -1.32812,-4.04297 2.50781,-2.07422 6.33984,-0.0937 4.77344,1.39453 3.20313,2.88672 z m 0,0"
       id="path3895" />
    <path
       style="fill:none;stroke:#5c4f85;stroke-width:6;stroke-linecap:butt;stroke-linejoin:miter;stroke-miterlimit:10;stroke-opacity:1"
       d="m 583.34766,396.30469 10.73437,-9.98047 7.05859,-6.10547 3.375,-2.22266 4.19922,-1.3125 5.02344,-0.39453 4.5,2.54297 3.96875,5.48047 8.73438,15.72266 13.5039,25.96875 7.84375,16.35546 2.19531,6.74219 -0.54296,6.10938 -3.26954,5.48437 -4.79296,3.07422 -6.3086,0.67188 -16.24219,-0.83594 -26.17578,-2.34766 -15.87109,-3.43359 -5.56641,-4.51563 -2.69531,-11.62109 0.1875,-18.72266 1.26172,-12.4375 2.33984,-6.15234 z m 0,0"
       id="path3897" />
    <path
       style="fill:none;stroke:#5c4f85;stroke-width:6;stroke-linecap:butt;stroke-linejoin:miter;stroke-miterlimit:10;stroke-opacity:1"
       d="m 674.89062,517.51172 19.42969,11.1875 11.64844,8.1875 3.86719,5.1875 1.23828,9.10547 -1.38281,13.02734 -2.95313,8.21094 -4.52344,3.40234 -12.12109,3.125 -19.72266,2.84766 -12.875,0.30859 -6.02734,-2.23047 -7.22266,-7.73437 -8.41015,-13.2461 -4.02735,-9.51953 0.35938,-5.79687 5.22656,-9.8086 10.08594,-13.8125 8.20703,-7.1875 6.32812,-0.5625 z m 0,0"
       id="path3901" />
    <path
       style="fill:none;stroke:#5c4f85;stroke-width:6;stroke-linecap:butt;stroke-linejoin:miter;stroke-miterlimit:10;stroke-opacity:1"
       d="m 659.02734,383.53906 17.90235,26.85547 9.80859,16.64063 1.70703,6.42187 -4.10547,4.77734 -9.92187,3.125 -7.4375,-0.82031 -4.94922,-4.76562 -9.06641,-15.05469 -13.17968,-25.35547 -7.44532,-15.88672 -1.71093,-6.42578 1.74218,-5.52734 5.20313,-4.625 5.07422,0.0664 4.94922,4.76172 z m 0,0"
       id="path3903" />
    <path
       style="fill:none;stroke:#5c4f85;stroke-width:6;stroke-linecap:butt;stroke-linejoin:miter;stroke-miterlimit:10;stroke-opacity:1"
       d="m 671.74219,591.69531 20.20703,-2.91406 12.52734,-1.42188 4.84766,0.082 3.6289,1.67968 2.41016,3.28125 1.17578,4.14453 -0.0625,5.00391 -1.3789,12.53906 -2.69532,20.07422 -3.125,12.28516 -3.55078,4.49609 -8.71094,2.69922 -13.87109,0.91016 -9.42578,-0.95703 -4.98438,-2.82422 -7.1875,-8.45313 -9.38671,-14.08203 -5.34375,-9.33203 -1.29688,-4.57422 1.01953,-5.91797 3.33985,-7.26562 4.1914,-4.72266 5.04688,-2.17969 z m 0,0"
       id="path3905" />
    <path
       style="fill:none;stroke:#5c4f85;stroke-width:6;stroke-linecap:butt;stroke-linejoin:miter;stroke-miterlimit:10;stroke-opacity:1"
       d="m 722.3125,674.80859 10.99219,13.0625 6.67187,7.92969 2.35547,2.79688 1.17578,1.40234 h -29.36719 l -10.12109,-1.3125 -5.01172,-2.625 -6.58984,-7.4375 -8.16797,-12.25 -3.62891,-7.52344 0.90625,-2.80078 6.66016,-1.80469 12.40234,-0.8125 8.71094,0.90625 5.01172,2.625 z m 0,0"
       id="path3907" />
    <path
       style="fill:none;stroke:#5c4f85;stroke-width:6;stroke-linecap:butt;stroke-linejoin:miter;stroke-miterlimit:10;stroke-opacity:1"
       d="m 676.84766,451.07812 11.65625,-3.67187 8.72265,0.23047 5.78125,4.14062 10.55078,13.5586 15.32032,22.98437 8.33203,14.72656 1.34375,6.47657 -3.86328,6.85937 -9.0586,7.23828 -7.64844,3.16016 -6.23437,-0.92188 -13.13281,-6.22656 -20.03516,-11.53125 -12.32812,-7.95703 -4.625,-4.37109 -3.08594,-6.62891 -1.54688,-8.88281 -0.54687,-6.05078 0.45312,-3.21485 2.0586,-4.67968 3.66015,-6.13282 3.47266,-4.11718 3.28125,-2.10157 z m 0,0"
       id="path3909" />
    <path
       style="fill:none;stroke:#5c4f85;stroke-width:6;stroke-linecap:butt;stroke-linejoin:miter;stroke-miterlimit:10;stroke-opacity:1"
       d="m 747.20312,600.91016 21.58594,1.57812 13.76563,1.875 5.94531,2.16406 6.04687,5.35157 6.14844,8.53906 1.5625,7.50781 -3.02344,6.48438 -11.64453,14.10937 -20.25781,21.72656 -13.38672,11.90235 -6.51172,2.07422 -8.32812,-4.98829 -10.13672,-12.04687 -5.86719,-9.4375 -1.60156,-6.82422 0.52734,-13.30469 2.66016,-19.79297 3.92578,-11.85156 5.19531,-3.90234 z m 0,0"
       id="path3917" />
    <path
       style="fill:none;stroke:#5c4f85;stroke-width:6;stroke-linecap:butt;stroke-linejoin:miter;stroke-miterlimit:10;stroke-opacity:1"
       d="m 730.95703,532.16406 9.1875,-7.33984 7.16016,-2.07813 5.13672,3.17578 9.95703,12.67188 14.77734,22.16797 8.85156,13.92969 2.92969,5.6875 0.90625,5.03125 -1.11328,4.375 -3.00781,2.48437 -4.90625,0.59766 -13.34375,-0.5 -21.77735,-1.58985 -13.5,-1.34375 -5.21484,-1.08984 -3.89453,-2.29688 -2.57422,-3.5 -1.39844,-3.63671 -0.23047,-3.77344 0.63282,-8.94141 1.5,-14.11328 1.89453,-9.35156 2.28906,-4.59766 z m 0,0"
       id="path3921" />
    <path
       style="fill:none;stroke:#5c4f85;stroke-width:6;stroke-linecap:butt;stroke-linejoin:miter;stroke-miterlimit:10;stroke-opacity:1"
       d="m 818.97656,635.19141 4.73828,1.02734 4.15625,2.54297 3.57032,4.05078 7.75,10.97266 11.92578,17.88671 7.08593,11.30079 2.25391,4.71484 0.41406,4.40625 -1.41797,4.09766 -4.78515,2.49218 -8.14844,0.87891 L 824.14844,700 h -36.60157 l -22.22265,-0.0117 -7.84766,-0.0195 -3.92578,-0.0625 -0.0117,-0.0977 2.28516,-2.51953 4.57422,-4.92969 12.97265,-13.92578 21.36719,-22.91406 13.48047,-13.80469 5.59375,-4.6914 z m 0,0"
       id="path3927" />
    <path
       style="fill:none;stroke:#8f4c8a;stroke-width:6;stroke-linecap:butt;stroke-linejoin:miter;stroke-miterlimit:10;stroke-opacity:1"
       d="m 681.11719,331.66797 -75.5586,-113.32813 107.22152,-0.008 v 113.33594 z"
       id="path3951"
       sodipodi:nodetypes="ccccc" />
    <path
       style="fill:none;stroke:#8f4c8a;stroke-width:6;stroke-linecap:butt;stroke-linejoin:miter;stroke-miterlimit:10;stroke-opacity:1"
       d="m 794.44922,501.66797 -75.55078,-113.32813 82.09513,-0.008 v 113.33594 z"
       id="path3953"
       sodipodi:nodetypes="ccccc" />
    <text
       xml:space="preserve"
       style="font-size:159px;line-height:1.07;font-family:DINComp-Medium;-inkscape-font-specification:DINComp-Medium;fill:#8f4c8a;fill-opacity:1;stroke:#8f4c8a;stroke-width:6;stroke-linecap:round;stroke-linejoin:round;stroke-miterlimit:10;stroke-dasharray:none;stroke-opacity:1"
       x="1113.1805"
       y="331.41791"
       id="text8500"><tspan
         sodipodi:role="line"
         id="tspan8498"
         style="font-size:159px;text-align:end;text-anchor:end;fill:#8f4c8a;fill-opacity:1;stroke:#8f4c8a;stroke-width:6;stroke-linecap:round;stroke-linejoin:round;stroke-miterlimit:10;stroke-dasharray:none;stroke-opacity:1"
         x="1113.1805"
         y="331.41791">MUNI</tspan><tspan
         sodipodi:role="line"
         style="font-size:159px;text-align:end;text-anchor:end;fill:#8f4c8a;fill-opacity:1;stroke:#8f4c8a;stroke-width:6;stroke-linecap:round;stroke-linejoin:round;stroke-miterlimit:10;stroke-dasharray:none;stroke-opacity:1"
         x="1113.1805"
         y="501.54791"
         id="tspan36556">HAC</tspan></text>
  </g>
</svg>
