<?xml version="1.0" encoding="UTF-8" standalone="no"?>
<svg
   width="1280pt"
   height="720pt"
   viewBox="0 0 1280 720"
   version="1.1"
   id="svg45741"
   sodipodi:docname="munihac-2023-logo-idea4.svg"
   inkscape:version="1.1.2 (0a00cf5339, 2022-02-04)"
   inkscape:export-filename="/home/thomaf/projects/generative-art/munihac-2023-logo-idea4.png"
   inkscape:export-xdpi="96"
   inkscape:export-ydpi="96"
   xmlns:inkscape="http://www.inkscape.org/namespaces/inkscape"
   xmlns:sodipodi="http://sodipodi.sourceforge.net/DTD/sodipodi-0.dtd"
   xmlns="http://www.w3.org/2000/svg"
   xmlns:svg="http://www.w3.org/2000/svg">
  <defs
     id="defs45745" />
  <sodipodi:namedview
     id="namedview45743"
     pagecolor="#ffffff"
     bordercolor="#666666"
     borderopacity="1.0"
     inkscape:pageshadow="2"
     inkscape:pageopacity="0.0"
     inkscape:pagecheckerboard="0"
     inkscape:document-units="pt"
     showgrid="false"
     inkscape:zoom="0.18832117"
     inkscape:cx="53.100775"
     inkscape:cy="-379.67054"
     inkscape:window-width="1914"
     inkscape:window-height="1138"
     inkscape:window-x="0"
     inkscape:window-y="26"
     inkscape:window-maximized="1"
     inkscape:current-layer="svg45741"
     width="1300pt"
     scale-x="1" />
  <rect
     style="fill:#ffffff;fill-opacity:1;stroke:none;stroke-width:0;stroke-linecap:round;stroke-linejoin:round;stroke-miterlimit:10;stroke-dasharray:none;stroke-opacity:1;paint-order:markers stroke fill"
     id="rect91666"
     width="1746.4838"
     height="1054.2281"
     x="-198.06129"
     y="-104.66441" />
  <g
     id="surface554"
     transform="translate(0.86719,1.74609)">
    <path
       style="fill:none;stroke:#453861;stroke-width:6;stroke-linecap:butt;stroke-linejoin:miter;stroke-miterlimit:10;stroke-opacity:1"
       d="m 43.050781,46.078125 -0.3125,3.941406 L 42.0625,51.679688 41.023438,51.0625 38.226562,47.339844 33.675781,40.515625 31.4375,36.679688 l 0.06641,-0.84375 2.460938,1.023437 4.863281,2.882813 2.917969,2.171874 0.972656,1.464844 z m 0,0"
       id="path89365" />
    <path
       style="fill:none;stroke:#453861;stroke-width:6;stroke-linecap:butt;stroke-linejoin:miter;stroke-miterlimit:10;stroke-opacity:1"
       d="m 58.578125,24.410156 -5.476563,4.75 -4.179687,2.375 H 46.03125 l -5.441406,-2.375 -8.003906,-4.75 L 29.171875,21.527344 30.34375,20.507812 37.671875,20 h 13.476563 l 7.59375,0.507812 1.714843,1.019532 z m 0,0"
       id="path89367" />
    <path
       style="fill:none;stroke:#453861;stroke-width:6;stroke-linecap:butt;stroke-linejoin:miter;stroke-miterlimit:10;stroke-opacity:1"
       d="m 53.054688,662.99609 5.523437,5.26563 2.714844,4.16015 -0.09766,3.05079 -3.03125,6.01953 -5.964843,8.98047 -4.214844,4.88671 -2.460937,0.78907 -3.992188,-2.25391 -5.523438,-5.29687 -2.710937,-4.17579 0.09375,-3.05078 3.03125,-6.0039 5.964844,-8.94922 4.214843,-4.86719 2.460938,-0.78906 z m 0,0"
       id="path89369" />
    <path
       style="fill:none;stroke:#453861;stroke-width:6;stroke-linecap:butt;stroke-linejoin:miter;stroke-miterlimit:10;stroke-opacity:1"
       d="m 80.292969,619.71484 5.816406,2.20313 3.871094,2.32031 1.925781,2.42969 2.550781,5.78515 3.175781,9.13672 1.644532,6.16407 0.117187,3.1875 -1.257812,4.46875 -2.632813,5.75 -2.386718,3.51953 -2.132813,1.29687 -4.734375,0.79688 -7.335938,0.29687 -5.144531,-0.48437 -2.964843,-1.26172 -4.726563,-3.72656 -6.492187,-6.1875 -3.140626,-4.96094 0.210938,-3.72266 3.835938,-7.46484 7.464843,-11.19922 5.15625,-6.5625 2.847657,-1.92578 z m 0,0"
       id="path89371" />
    <path
       style="fill:none;stroke:#453861;stroke-width:6;stroke-linecap:butt;stroke-linejoin:miter;stroke-miterlimit:10;stroke-opacity:1"
       d="M 61.691406,34.949219 70.625,27.195312 76.136719,22.492188 78.21875,20.832031 79.65625,20 h 0.785156 l 1.113282,2.253906 1.4375,4.511719 3.683593,12.785156 5.921875,21.054688 2.777344,13.039062 -0.378906,5.027344 -4.03125,3.71875 -7.6875,2.40625 -5.582032,0.578125 -3.480468,-1.261719 -6.011719,-4.765625 -8.550781,-8.28125 -5.125,-5.820312 -1.707032,-3.367188 -0.558593,-5.398437 0.585937,-7.433594 1.3125,-5.34375 2.042969,-3.253906 z m 0,0"
       id="path89373" />
    <path
       style="fill:none;stroke:#453861;stroke-width:6;stroke-linecap:butt;stroke-linejoin:miter;stroke-miterlimit:10;stroke-opacity:1"
       d="m 79.597656,677.05078 7.167969,-0.29297 4.640625,0.35547 2.113281,0.99609 2.402344,2.96485 2.691406,4.93359 1.601559,3.34766 0.51954,1.76172 0.1289,2.53125 -0.26562,3.29297 -1.75391,2 -3.242188,0.70703 L 86.546875,700 H 71.679688 l -8.460938,-0.85156 -2.054688,-1.69922 1.609376,-4.82031 5.273437,-7.9375 3.96875,-4.85157 2.667969,-1.76562 z m 0,0"
       id="path89375" />
    <path
       style="fill:none;stroke:#453861;stroke-width:6;stroke-linecap:butt;stroke-linejoin:miter;stroke-miterlimit:10;stroke-opacity:1"
       d="m 111.01172,577.95312 6.08984,6.45313 2.63672,4.81641 -0.8164,3.18359 -5.35547,5.79297 -9.89844,8.39844 -6.527345,4.90234 -3.164063,1.40625 -4.015624,-0.21875 -4.863282,-1.84766 -2.023437,-2.51172 0.816406,-3.18359 4.742187,-8.09375 8.671876,-13.00781 5.917972,-7.20703 3.16406,-1.40625 z m 0,0"
       id="path89377" />
    <path
       style="fill:none;stroke:#453861;stroke-width:6;stroke-linecap:butt;stroke-linejoin:miter;stroke-miterlimit:10;stroke-opacity:1"
       d="m 85.523438,94.574219 7.796874,-2.441407 5.980469,-0.167968 4.156249,2.105468 7.88672,7.191408 11.60547,12.27344 7.07031,7.60156 2.52344,2.93359 1.35547,2.16407 0.17968,1.40234 -0.20703,1.45703 -0.58984,1.50391 -1.75781,3.57031 -2.9336,5.625 -2.49609,3.60937 -2.0625,1.58985 -4.375,1.6875 -6.69141,1.78906 -5.24609,-0.69141 -3.79687,-3.16406 -7.42188,-9.86719 -11.042969,-16.5625 -6.589843,-10.28125 -2.136719,-3.99609 -0.527344,-3.03906 1.078125,-2.08594 1.488281,-1.53125 1.902344,-0.96875 z m 0,0"
       id="path89379" />
    <path
       style="fill:none;stroke:#453861;stroke-width:6;stroke-linecap:butt;stroke-linejoin:miter;stroke-miterlimit:10;stroke-opacity:1"
       d="m 129.8125,29.59375 3.40625,10.332031 0.94141,7.132813 -1.52344,3.9375 -6.02344,5.988281 -10.51562,8.039063 -6.9375,2.910156 L 105.79688,65.71875 101.53125,55.429688 96.359375,37.058594 94.539062,25.90625 96.0625,21.96875 102.96484,20 h 12.28125 l 7.82032,1.105469 3.36328,2.214843 z m 0,0"
       id="path89381" />
    <path
       style="fill:none;stroke:#453861;stroke-width:6;stroke-linecap:butt;stroke-linejoin:miter;stroke-miterlimit:10;stroke-opacity:1"
       d="m 130.82031,165.95703 4.8086,11.54297 2.74218,7.18359 0.67188,2.82813 -0.50781,2.23828 -1.6836,1.65234 -1.87109,-0.27343 -2.0625,-2.19922 -5,-7.05078 -7.9375,-11.91016 -4.30469,-7.36719 -0.66797,-2.82422 2.07032,-2.05859 4.80859,-1.28516 3.43359,0.45703 2.0625,2.19532 z m 0,0"
       id="path89383" />
    <path
       style="fill:none;stroke:#453861;stroke-width:6;stroke-linecap:butt;stroke-linejoin:miter;stroke-miterlimit:10;stroke-opacity:1"
       d="m 131.77734,595.85937 h 0.004 l 2.88281,3.8086 5.44531,7.19531 8.96485,11.85156 5.23437,7.60547 1.50782,3.35547 -0.21485,3.58594 -1.9375,3.8125 -2.76953,2.47656 -3.60156,1.14063 -9.23047,1.33203 -14.86719,1.51953 -9.33203,0.0508 -3.78906,-1.41797 -3.30859,-4.77344 -2.82813,-8.13281 -0.57422,-5.91016 1.67969,-3.67968 6.17187,-6.36719 10.66016,-9.05078 6.47266,-5.49219 2.28515,-1.94141 z m 0,0"
       id="path89385" />
    <path
       style="fill:none;stroke:#453861;stroke-width:6;stroke-linecap:butt;stroke-linejoin:miter;stroke-miterlimit:10;stroke-opacity:1"
       d="m 136.42969,537.9375 8.29297,1.10547 5.19921,1.39453 2.10938,1.68359 1.82031,4.21875 1.53906,6.75 0.0117,5.09375 -1.51562,3.4336 -5.0625,6.35547 -8.60547,9.27343 -6.02344,4.78907 -3.43359,0.30468 -5.41797,-3.77343 -7.41016,-7.85157 -3.83593,-5.76172 -0.26563,-3.66796 2.96485,-6.47657 6.1875,-9.28125 4.64453,-5.51562 3.10156,-1.75 z m 0,0"
       id="path89387" />
    <path
       style="fill:none;stroke:#453861;stroke-width:6;stroke-linecap:butt;stroke-linejoin:miter;stroke-miterlimit:10;stroke-opacity:1"
       d="m 122.96094,653.61719 14.6914,-1.5 9.20313,0.22265 3.71484,1.94922 3.19141,6.26953 2.65625,10.59375 -0.25391,6.55469 -3.16406,2.51953 -10.30078,1.83985 -17.4375,1.16015 -10.85547,0.21094 -4.26953,-0.73438 -3.39063,-2.66796 -2.5039,-4.59375 -1.2461,-3.39454 0.0195,-2.19921 1.30468,-3.92579 2.59375,-5.65625 3.14453,-3.59375 3.70313,-1.53515 z m 0,0"
       id="path89389" />
    <path
       style="fill:none;stroke:#453861;stroke-width:6;stroke-linecap:butt;stroke-linejoin:miter;stroke-miterlimit:10;stroke-opacity:1"
       d="m 127.19922,693.11719 17.60547,-1.17188 10.70312,-0.36719 3.80078,0.4336 1.95703,1.8164 0.1211,3.19922 -1.84375,1.94532 -3.8086,0.68359 L 144.88281,700 h -17.88672 l -10.84765,-0.21875 -3.79688,-0.43359 -1.8164,-1.23047 0.16406,-2.02735 1.98437,-1.35547 3.8086,-0.6875 z m 0,0"
       id="path89391" />
    <path
       style="fill:none;stroke:#453861;stroke-width:6;stroke-linecap:butt;stroke-linejoin:miter;stroke-miterlimit:10;stroke-opacity:1"
       d="m 160.54297,498.88672 1.82422,7.70703 0.73047,5.29687 -0.36719,2.88282 -1.94922,4.32031 -3.53125,5.75 -2.86328,3.39844 -2.1836,1.04297 -4.42968,0.0781 -6.67188,-0.89062 -3.15625,-1.88672 0.36719,-2.88672 4.375,-7.72656 8.37891,-12.57032 5.28515,-6.80859 2.1875,-1.04297 z m 0,0"
       id="path89393" />
    <path
       style="fill:none;stroke:#453861;stroke-width:6;stroke-linecap:butt;stroke-linejoin:miter;stroke-miterlimit:10;stroke-opacity:1"
       d="m 153.44141,59.085938 10.8125,2.527343 6.78515,1.835938 2.76563,1.140625 2.42578,1.976562 2.08984,2.800782 1.24219,1.867187 0.39453,0.929687 0.0742,1.234376 -0.24609,1.53125 -1.6836,2.40625 -3.12109,3.269531 -8.71875,8.5 -14.3125,13.730471 -9.82813,7.13672 -5.34375,0.53515 -7.97265,-5.33593 -10.60938,-11.218755 -5.1289,-7.816406 0.35937,-4.414063 6.3125,-6.894531 12.26953,-9.378906 8.60938,-5.425781 4.94531,-1.46875 z m 0,0"
       id="path89395" />
    <path
       style="fill:none;stroke:#453861;stroke-width:6;stroke-linecap:butt;stroke-linejoin:miter;stroke-miterlimit:10;stroke-opacity:1"
       d="m 157.53516,197.125 10.72656,2.41016 6.57422,1.55468 2.42578,0.70313 1.5039,0.78906 0.58204,0.87109 -0.23047,1.73438 -1.04688,2.59375 -3.26172,6.91797 -5.47265,11.23828 -4.19922,5.51172 -2.92188,-0.21485 -5.53906,-6.22656 -8.16016,-12.23828 -4.70703,-7.67578 -1.25,-3.10938 0.53516,-2.69531 2.32422,-2.28125 2.55859,-1.125 2.79688,0.0273 z m 0,0"
       id="path89397" />
    <path
       style="fill:none;stroke:#453861;stroke-width:6;stroke-linecap:butt;stroke-linejoin:miter;stroke-miterlimit:10;stroke-opacity:1"
       d="m 178.69922,30.886719 -2.71094,11.726562 -2.67187,6.875 -2.63282,2.035157 -6.10547,-0.105469 -9.57421,-2.238281 -6.14844,-2.375 -2.72266,-2.511719 -2.92187,-6 -3.12891,-9.484375 -0.24609,-5.757813 2.63281,-2.035156 L 151.49219,20 h 15.41406 l 9.07031,1.257812 2.71875,2.511719 z m 0,0"
       id="path89399" />
    <path
       style="fill:none;stroke:#453861;stroke-width:6;stroke-linecap:butt;stroke-linejoin:miter;stroke-miterlimit:10;stroke-opacity:1"
       d="m 158.01953,140.76562 17.33984,5.28907 10.02344,4.72656 2.70313,4.17187 -1.01563,9.17188 -4.72656,14.17578 -3.93359,8.36719 -3.13672,2.55859 -6.52344,0.16797 -9.91016,-2.22266 -6.57422,-2.6875 -3.23828,-3.14453 -4.21484,-7.80078 -5.19141,-12.45703 -2.88672,-8.07422 -0.57812,-3.69531 0.95703,-4.23828 2.49219,-4.78125 3.37109,-2.33594 4.25,0.10938 z m 0,0"
       id="path89401" />
    <path
       style="fill:none;stroke:#453861;stroke-width:6;stroke-linecap:butt;stroke-linejoin:miter;stroke-miterlimit:10;stroke-opacity:1"
       d="m 173.47266,570.63281 10.60937,4.19922 6.09766,4.01953 1.58984,3.83203 -0.80469,8.76172 -3.19531,13.69141 -2.67578,8.52344 -2.15625,3.35156 -4.50781,2.65625 -6.86328,1.96094 -5.08204,-0.0156 -3.29687,-1.99219 -5.90625,-6.6289 -8.52344,-11.26563 -4.3164,-7.75781 -0.1211,-4.25391 3.92969,-6.42187 7.96875,-8.58594 5.97656,-4.76562 L 166.17578,569 Z m 0,0"
       id="path89403" />
    <path
       style="fill:none;stroke:#453861;stroke-width:6;stroke-linecap:butt;stroke-linejoin:miter;stroke-miterlimit:10;stroke-opacity:1"
       d="m 191.45703,102.58594 9.15234,16.83984 5.10938,10.49219 1.0625,4.14844 -1.55859,3.33203 -4.17969,2.51562 -4.53516,0.91797 -4.88672,-0.67969 -11.7539,-3.17968 -18.6211,-5.67969 -11.3164,-3.50391 -4.00391,-1.32812 -2.03516,-0.92188 -0.0664,-0.51562 1.42969,-1.72266 2.92578,-2.92969 8.32031,-8.04687 13.72266,-13.160158 9.30859,-6.183593 4.90234,0.789062 z m 0,0"
       id="path89405" />
    <path
       style="fill:none;stroke:#453861;stroke-width:6;stroke-linecap:butt;stroke-linejoin:miter;stroke-miterlimit:10;stroke-opacity:1"
       d="m 173.73828,631.41016 7.53125,-2.15235 5.78125,-0.57031 4.02734,1.01562 7.64454,3.94922 11.26171,6.88282 6.86329,4.30468 2.46093,1.72266 1.35157,1.44531 0.24218,1.16797 -0.14062,1.25 -0.51953,1.33594 -1.59375,3.20312 -2.66797,5.07032 -1.75391,3.28125 -0.83984,1.49218 -1.05469,1.69532 -1.26953,1.90234 -2.30078,1.54297 -3.33203,1.18359 -8.80469,2.40235 -14.28516,3.61718 -8.99609,0.90235 -3.71094,-1.82032 -3.375,-6.96484 -3.04297,-12.11328 -1.60547,-7.82422 -0.17578,-3.53516 1.02344,-3.95312 2.22266,-4.375 2.15625,-2.88672 2.08984,-1.39844 z m 0,0"
       id="path89407" />
    <path
       style="fill:none;stroke:#453861;stroke-width:6;stroke-linecap:butt;stroke-linejoin:miter;stroke-miterlimit:10;stroke-opacity:1"
       d="m 185.98437,522.13281 15.13282,2.25391 9.37109,1.66406 3.61328,1.07422 2.67578,1.91406 1.73828,2.75781 0.74219,2.8086 -0.25781,2.85937 -1.59375,6.72657 -2.93359,10.58593 -2.23829,6.64063 -1.53515,2.6875 -2.89063,2.33203 -4.24218,1.96875 -3.81641,0.70312 -3.38672,-0.55859 -7.48047,-2.57031 -11.57031,-4.58203 -7.19922,-3.5586 -2.83203,-2.53125 -2.24219,-4.89062 -1.65234,-7.24219 -0.6211,-5.01172 0.40235,-2.78125 1.96484,-4.26562 3.52735,-5.74219 3.76171,-3.24609 3.9961,-0.75 z m 0,0"
       id="path89409" />
    <path
       style="fill:none;stroke:#453861;stroke-width:6;stroke-linecap:butt;stroke-linejoin:miter;stroke-miterlimit:10;stroke-opacity:1"
       d="m 194.75,212.53516 7.09375,2.60156 4.67969,3.22656 2.26953,3.84766 2.88281,9.59765 3.5,15.35547 0.85156,9.51953 -1.79297,3.6875 -6.83593,2.77735 -11.875,1.86328 -7.72657,0.35547 -3.58203,-1.15625 -4.20703,-4.20313 -4.83984,-7.25781 -2.27735,-5.75 0.27344,-4.24609 3.19531,-8.40625 6.1211,-12.5625 4.47656,-7.35157 2.82813,-2.13281 z m 0,0"
       id="path89411" />
    <path
       style="fill:none;stroke:#453861;stroke-width:6;stroke-linecap:butt;stroke-linejoin:miter;stroke-miterlimit:10;stroke-opacity:1"
       d="m 190.82422,473.40234 15.41406,6.67969 9.12109,5.17578 2.83204,3.67578 0.3125,7.08203 -2.20704,10.48438 -2.86718,6.13672 -3.52735,1.78906 -8.89843,-0.16797 -14.26954,-2.125 -8.8789,-2.20703 -3.48828,-2.28906 -2.76172,-5.42969 -2.02735,-8.56641 -0.89843,-5.89453 0.22656,-3.22265 1.65625,-4.84766 3.08203,-6.46875 3.52734,-3.21094 3.96485,0.043 z m 0,0"
       id="path89413" />
    <path
       style="fill:none;stroke:#453861;stroke-width:6;stroke-linecap:butt;stroke-linejoin:miter;stroke-miterlimit:10;stroke-opacity:1"
       d="m 197.83594,688.24609 -4.0625,6.09375 -3.16016,3.69922 -2.25781,1.3086 L 183.98828,700 h -6.47266 l -3.94531,-0.36328 -1.41406,-0.72656 -0.76953,-2.0586 -0.12891,-3.39062 1.06641,-2.35157 2.25781,-1.30468 6.46094,-2.00391 10.66406,-2.70312 6.03906,-0.98829 1.41407,0.72657 z m 0,0"
       id="path89415" />
    <path
       style="fill:none;stroke:#453861;stroke-width:6;stroke-linecap:butt;stroke-linejoin:miter;stroke-miterlimit:10;stroke-opacity:1"
       d="m 224.87891,277.90625 2.03515,7.625 0.75391,5.42578 -0.52735,3.23438 -2.51171,5.35156 -4.49219,7.46484 -3.67969,3.10547 -2.86719,-1.25391 -5.86718,-7.28125 -8.875,-13.3125 -4.17579,-8.26953 0.52735,-3.23437 5.93359,-2.50781 11.33203,-1.77735 7.10157,-0.26172 2.86328,1.25 z m 0,0"
       id="path89417" />
    <path
       style="fill:none;stroke:#453861;stroke-width:6;stroke-linecap:butt;stroke-linejoin:miter;stroke-miterlimit:10;stroke-opacity:1"
       d="m 199.38281,34.074219 8.91406,13.371093 4.33204,8.320313 -0.25782,3.265625 -5.18359,2.566406 -10.11328,1.867188 -6.33203,0.878906 -2.54688,-0.113281 -2.16406,-1.25 -1.77734,-2.386719 -0.76172,-2.824219 0.25781,-3.265625 1.61719,-8.0625 2.97265,-12.851562 2.76172,-6.371094 2.54688,0.109375 z m 0,0"
       id="path89419" />
    <path
       style="fill:none;stroke:#453861;stroke-width:6;stroke-linecap:butt;stroke-linejoin:miter;stroke-miterlimit:10;stroke-opacity:1"
       d="m 193.88281,443.53125 8.15625,-7.54297 6.3711,-3.56641 4.59375,0.41016 8.9414,4.92969 13.28125,9.45703 8.05078,6.00781 2.81641,2.55469 1.33984,2.51953 -0.14453,2.47656 -0.88672,2.05078 -1.63672,1.625 -4.5664,3.35938 -7.49219,5.09375 -6.22266,2.36719 -4.95312,-0.35938 -10.28516,-3.5625 -15.61328,-6.76562 -9.28515,-4.39844 -2.96094,-2.03125 -0.57031,-2.37891 1.8125,-2.71875 1.97265,-2.45703 2.13672,-2.19922 z m 0,0"
       id="path89421" />
    <path
       style="fill:none;stroke:#453861;stroke-width:6;stroke-linecap:butt;stroke-linejoin:miter;stroke-miterlimit:10;stroke-opacity:1"
       d="m 205.27344,149.03906 3.53515,-2.1289 3.53516,0.34765 3.52734,2.82031 8.23438,9.05469 12.93359,15.28906 6.47656,10.02344 0.0156,4.75391 -6.42188,5.82812 -12.85546,6.89453 -8.6836,3.86719 -4.51172,0.83203 -6.35547,-1.08593 -8.19531,-3.00782 -5.05859,-1.94531 -1.91406,-0.87891 -1.32813,-0.99218 -0.73828,-1.10157 0.125,-2.3789 0.98047,-3.65235 3.15234,-9.80468 5.32031,-15.94922 3.60938,-9.91406 1.89844,-3.8711 z m 0,0"
       id="path89423" />
    <path
       style="fill:none;stroke:#453861;stroke-width:6;stroke-linecap:butt;stroke-linejoin:miter;stroke-miterlimit:10;stroke-opacity:1"
       d="m 207.77344,577.47656 3.95703,-1.83594 3.51172,-0.32421 3.0625,1.1914 6.69531,4.29688 10.32812,7.39843 6.32813,4.9961 2.32422,2.59765 1.42969,3.65625 0.52734,4.71875 -0.53125,3.94141 -1.58594,3.16016 -4.76953,6.59375 -7.94141,10.03515 -5.91406,5.42578 -3.8789,0.81641 -7.02344,-2.69531 -10.16406,-6.21094 -5.81641,-5.28516 -1.47266,-4.35156 0.91016,-9.22656 3.29297,-14.10156 2.42187,-8.75782 1.55469,-3.41406 z m 0,0"
       id="path89425" />
    <path
       style="fill:none;stroke:#453861;stroke-width:6;stroke-linecap:butt;stroke-linejoin:miter;stroke-miterlimit:10;stroke-opacity:1"
       d="m 200.53906,72.996094 11.44531,-2.113282 7.85938,0.08203 4.27344,2.277344 6.38281,7.503906 8.48828,12.734375 5.20703,7.828123 1.91797,2.91407 1.19141,1.89062 0.46875,0.86719 -0.90625,1.27734 -2.27735,1.67969 -6.6875,4.33203 -11.09375,6.98047 -7.7539,2.37109 -4.40625,-2.24218 -6.94141,-9.83985 -9.47656,-17.433593 -5.73438,-10.695313 -1.99218,-3.960937 -0.91407,-2.496094 0.16407,-1.035156 1.32812,-0.855469 2.48828,-0.671875 z m 0,0"
       id="path89427" />
    <path
       style="fill:none;stroke:#453861;stroke-width:6;stroke-linecap:butt;stroke-linejoin:miter;stroke-miterlimit:10;stroke-opacity:1"
       d="m 216.82812,404.76172 2.37891,-3.57031 1.91406,-2.46094 1.44532,-1.35547 2.90234,-2.05469 4.36328,-2.7539 4.01563,-0.76172 3.66406,1.23047 8.20312,4.86718 12.73828,8.50782 7.79297,5.49218 2.84766,2.48438 1.69141,2.78515 0.54296,3.08204 -0.42187,2.76171 -1.37891,2.4375 -4.1875,5.35938 -6.98828,8.28125 -5.65234,4.02344 -4.31641,-0.23047 -8.73828,-4.80078 -13.15625,-9.36328 -7.97266,-6.13282 -2.79687,-2.90234 -1.33594,-3.54297 0.1211,-4.18359 0.32812,-2.92188 0.53906,-1.66015 z m 0,0"
       id="path89429" />
    <path
       style="fill:none;stroke:#453861;stroke-width:6;stroke-linecap:butt;stroke-linejoin:miter;stroke-miterlimit:10;stroke-opacity:1"
       d="m 259.80078,208.17187 7.10547,11.23438 4.13281,7.34375 1.15625,3.45703 -0.27344,4.17578 -1.70312,4.89063 -2.53516,3.625 -3.36718,2.34765 -8.6836,4.21485 -14.0039,6.07422 -8.88672,2.00781 -3.76563,-2.05469 -3.66797,-8.86328 -3.57031,-15.67188 -0.86328,-10.21484 1.84375,-4.75781 7.00781,-5.64453 12.17188,-6.53125 8.15234,-2.76172 4.12891,1.00781 z m 0,0"
       id="path89431" />
    <path
       style="fill:none;stroke:#5c4f85;stroke-width:6;stroke-linecap:butt;stroke-linejoin:miter;stroke-miterlimit:10;stroke-opacity:1"
       d="m 264.62109,673.44141 0.20313,0.0898 0.0117,1.04297 -0.17969,2 -0.61328,5.61719 -1.04297,9.23437 -1.20703,5.60547 -1.375,1.98047 L 257.03906,700 h -5.375 l -2.60156,-1 0.17969,-1.99609 3.19922,-5.66407 6.21875,-9.32422 3.79296,-5.65234 1.37891,-1.97656 z m 0,0"
       id="path89433" />
    <path
       style="fill:none;stroke:#453861;stroke-width:6;stroke-linecap:butt;stroke-linejoin:miter;stroke-miterlimit:10;stroke-opacity:1"
       d="m 246.97266,304.35156 11.59375,5.01172 6.72656,4.17188 1.85937,3.32812 -0.52734,6.92969 -2.91406,10.52734 -2.5,6.67969 -2.08594,2.82812 -4.44141,2.75782 -6.80468,2.68359 -4.17579,1.58594 -1.54296,0.49219 -0.96875,0.0508 -0.39063,-0.38672 -0.92578,-1.26953 -1.46094,-2.14453 -3.9375,-5.89063 -6.42187,-9.62891 -3.36719,-6.72265 -0.31641,-3.82422 2.3125,-6.01172 4.9375,-8.20312 4.24219,-4.44532 3.54297,-0.68359 z m 0,0"
       id="path89435" />
    <path
       style="fill:none;stroke:#453861;stroke-width:6;stroke-linecap:butt;stroke-linejoin:miter;stroke-miterlimit:10;stroke-opacity:1"
       d="m 237.51953,481.72266 7.27734,-4.94532 5.32032,-2.18359 3.36328,0.58594 5.88672,4.125 8.41406,7.67187 4.61328,5.875 0.80859,4.07031 -1.91015,7.70704 -4.62891,11.33984 -4.09375,6.95312 -3.55469,2.57422 -7.75781,1.6211 -11.95703,0.66797 -7.4375,0.125 -2.91406,-0.41797 -2.28516,-1.51953 -1.64844,-2.61719 -0.73046,-2.89063 0.19531,-3.15625 1.36719,-7.63281 2.55078,-12.11328 2.32422,-7.88281 2.10546,-3.65235 z m 0,0"
       id="path89437" />
    <path
       style="fill:none;stroke:#453861;stroke-width:6;stroke-linecap:butt;stroke-linejoin:miter;stroke-miterlimit:10;stroke-opacity:1"
       d="m 240.46484,537.73437 11.92188,-0.66406 7.92969,0.48828 3.9414,1.64453 5.20313,4.98829 6.46875,8.33984 2.71093,6.02734 -1.05078,3.71875 -6.19922,6.3711 -11.35937,9.01953 -7.9375,4.73047 -4.51953,0.4375 -7.1211,-3.26172 -9.72265,-6.96485 -5.61719,-5.27343 -1.50781,-3.57422 0.59765,-6.65235 2.69141,-9.72265 2.91406,-5.97656 3.13282,-2.22657 z m 0,0"
       id="path89439" />
    <path
       style="fill:none;stroke:#453861;stroke-width:6;stroke-linecap:butt;stroke-linejoin:miter;stroke-miterlimit:10;stroke-opacity:1"
       d="m 254.35937,117.04688 0.78907,0.91796 1.47656,2.05469 2.16797,3.19531 5.74609,8.59375 9.32813,13.99219 4.67187,9.34766 0.0195,4.69922 -4.61718,6.3164 -9.25,7.9375 -7,3.1836 -4.75,-1.57032 -8.83594,-8.41797 -12.91406,-15.26953 -6.55079,-10.08203 -0.18359,-4.89453 5.92969,-6.23828 12.05078,-7.58203 7.40234,-4.50391 2.75,-1.42578 z m 0,0"
       id="path89441" />
    <path
       style="fill:none;stroke:#5c4f85;stroke-width:6;stroke-linecap:butt;stroke-linejoin:miter;stroke-miterlimit:10;stroke-opacity:1"
       d="m 285.64844,22.804688 0.16797,3.019531 -0.23047,2.28125 -0.63282,1.542969 -1.875,2.863281 -3.11718,4.179687 -2.5,2.566406 -1.88672,0.945313 -3.78516,0.589844 -5.68359,0.230469 -3.98047,-0.65625 -2.28125,-1.542969 -3.61719,-4.488281 -4.95703,-7.433594 -1.55078,-4.511719 1.84766,-1.59375 L 259.28906,20 H 272.875 l 8.26953,0.324219 2.94922,0.644531 z m 0,0"
       id="path89443" />
    <path
       style="fill:none;stroke:#5c4f85;stroke-width:6;stroke-linecap:butt;stroke-linejoin:miter;stroke-miterlimit:10;stroke-opacity:1"
       d="m 278.60937,58.855469 2.77735,8.859375 1.0625,4.445312 -0.65235,0.02734 -3.23828,-4.355469 -5.82422,-8.738281 -3.21093,-5.316406 -0.59766,-1.898438 1.22656,-1.011718 3.04688,-0.125 2.14844,0.875 1.25,1.871093 z m 0,0"
       id="path89445" />
    <path
       style="fill:none;stroke:#5c4f85;stroke-width:6;stroke-linecap:butt;stroke-linejoin:miter;stroke-miterlimit:10;stroke-opacity:1"
       d="m 291.69141,632.47266 0.16015,0.67578 0.31641,1.35156 0.89062,3.82812 1.46875,6.30079 -0.0742,4.37109 -1.61718,2.43359 -5.31641,3.75 -9.01562,5.0625 -5.47657,3.07032 -1.9375,1.08203 -0.98437,0.53515 -0.0234,-0.008 0.79688,-1.22656 1.61718,-2.4336 4.59375,-6.89453 7.57032,-11.35547 4.59375,-6.89453 1.625,-2.43359 z m 0,0"
       id="path89447" />
    <path
       style="fill:none;stroke:#453861;stroke-width:6;stroke-linecap:butt;stroke-linejoin:miter;stroke-miterlimit:10;stroke-opacity:1"
       d="m 279.47266,266.48047 9.30859,13.69531 5.59766,8.39844 1.88281,3.10937 0.67969,1.96094 -0.51954,0.8125 -1.09765,0.88281 -1.67188,0.95703 -4.46875,2.30469 -7.27343,3.64844 -5.79688,1.62109 -4.31641,-0.41015 -8.58984,-2.98828 -12.87109,-5.5625 -8.00782,-4.11329 -3.15234,-2.66796 -2.48828,-4.76563 -1.83594,-6.87109 0.30078,-4.78516 2.4336,-2.69922 7.8125,-4.20703 13.18359,-5.72266 9.00391,-2.0039 4.82031,1.70703 z m 0,0"
       id="path89449" />
    <path
       style="fill:none;stroke:#453861;stroke-width:6;stroke-linecap:butt;stroke-linejoin:miter;stroke-miterlimit:10;stroke-opacity:1"
       d="m 244.82031,362.77344 0.96094,-1.4375 0.58984,-0.85938 0.22657,-0.27734 0.15625,-0.0742 0.0898,0.13672 0.71875,-0.17578 1.33984,-0.49219 3.75782,-1.46094 6.17187,-2.43359 4.84766,-0.75 3.52343,0.9375 6.89844,3.87109 10.27344,6.80469 5.46484,5.3125 0.66407,3.82031 -3.25391,7.42188 -7.17578,11.01953 -5.625,5.84375 -4.07031,0.67187 -7.94532,-3.60937 -11.8164,-7.89063 -7.01563,-5.45312 -2.21094,-3.01953 -0.35546,-4.61328 1.5,-6.19922 1.01562,-3.92188 0.52734,-1.63672 z m 0,0"
       id="path89451" />
    <path
       style="fill:none;stroke:#453861;stroke-width:6;stroke-linecap:butt;stroke-linejoin:miter;stroke-miterlimit:10;stroke-opacity:1"
       d="m 264.49609,447.31641 7.41797,-8.79297 6.14063,-4.79688 4.86328,-0.80859 10.0664,2.10547 15.27735,5.01953 9.33594,3.64062 3.40625,2.25782 2.00781,3.88281 0.60937,5.51172 -0.49609,4.30859 -1.60156,3.10547 -4.83985,6.03516 -8.08203,8.97265 -5.57422,5.50391 -3.0664,2.03515 -4.64844,1.28125 -6.23047,0.52735 -4.76172,-0.57813 -3.29687,-1.67578 -6.22657,-5.01172 -9.15625,-8.34765 -5.54296,-5.37891 -1.92579,-2.41016 -0.88281,-2.64843 0.16797,-2.89063 0.89453,-2.69922 1.625,-2.5039 z m 0,0"
       id="path89453" />
    <path
       style="fill:none;stroke:#5c4f85;stroke-width:6;stroke-linecap:butt;stroke-linejoin:miter;stroke-miterlimit:10;stroke-opacity:1"
       d="m 301.33984,90.8125 9.81641,2.957031 5.99219,2.273438 2.17187,1.59375 1.24219,3.035161 0.3125,4.48437 -0.14453,3.05469 -0.60547,1.63672 -1.87109,2.38672 -3.13672,3.14453 -2.66016,0.78125 -2.17969,-1.58985 -4.60547,-6.0664 -7.03515,-10.550785 -4.26563,-6.410156 -1.5,-2.269531 -0.72656,-1.148438 0.0391,-0.02734 1.07813,0.296875 2.11328,0.628907 z m 0,0"
       id="path89455" />
    <path
       style="fill:none;stroke:#5c4f85;stroke-width:6;stroke-linecap:butt;stroke-linejoin:miter;stroke-miterlimit:10;stroke-opacity:1"
       d="m 283.04687,669.16016 8.58985,-4.82032 5.83984,-1.68359 3.08985,1.46094 4.46484,6.53906 5.83984,11.62109 3.47266,7.32032 1.10937,3.00781 0.21485,2.71875 L 315,697.75 l -1.99219,1.46875 -3.3164,0.51953 L 300.63672,700 h -14.80078 l -8.8711,-0.98828 -2.94922,-1.97656 -0.95312,-5.60157 1.04297,-9.22656 1.55469,-6.12109 2.0625,-3.00782 z m 0,0"
       id="path89457" />
    <path
       style="fill:none;stroke:#453861;stroke-width:6;stroke-linecap:butt;stroke-linejoin:miter;stroke-miterlimit:10;stroke-opacity:1"
       d="m 285.15234,311.8125 6.04297,-3.03516 4.45703,0.0937 2.8711,3.22657 5.11328,10.64843 7.35156,18.07422 4.38672,11.17578 1.42187,4.27735 0.35157,3.08984 -0.71485,1.89844 -0.95703,1.26562 -1.19922,0.64063 -3.04687,0.85937 -4.89063,1.08203 -4.125,-0.10937 -3.36328,-1.30078 -7.07812,-4.23047 -10.80078,-7.15625 -6.23829,-5.50781 -1.66796,-3.85938 0.66796,-7.36328 3.01172,-10.86328 2.47266,-6.92188 1.94141,-2.98046 z m 0,0"
       id="path89459" />
    <path
       style="fill:none;stroke:#453861;stroke-width:6;stroke-linecap:butt;stroke-linejoin:miter;stroke-miterlimit:10;stroke-opacity:1"
       d="m 298.71484,183.07031 11.41407,17.1211 5.45312,10.67578 -0.5,4.23437 -7.12891,3.44141 -13.75781,2.64844 -9.1289,0.375 -4.50782,-1.89844 -5.89453,-6.70313 -7.28125,-11.51172 -3.38672,-7.87109 0.5,-4.23437 5.0625,-6.2461 9.625,-8.25781 7.0625,-3.17969 4.50782,1.89844 z m 0,0"
       id="path89461" />
    <path
       style="fill:none;stroke:#453861;stroke-width:6;stroke-linecap:butt;stroke-linejoin:miter;stroke-miterlimit:10;stroke-opacity:1"
       d="m 290.15234,497.05078 5.53125,-0.46875 3.8086,0.45313 2.08203,1.3789 3.1289,4.13672 4.1836,6.89453 1.625,5.55469 -0.92969,4.21484 -4.71875,8.4961 -8.51562,12.76953 -5.80469,6.9375 -3.09375,1.10156 -4.50781,-3.26562 -5.92579,-7.63672 -3.08593,-5.875 -0.25782,-4.11328 2.23047,-7.83985 4.72657,-11.5664 3.46093,-7.07032 2.19532,-2.57812 z m 0,0"
       id="path89463" />
    <path
       style="fill:none;stroke:#453861;stroke-width:6;stroke-linecap:butt;stroke-linejoin:miter;stroke-miterlimit:10;stroke-opacity:1"
       d="m 296.86719,230.85937 15.15234,-2.91406 9.44922,-0.76953 3.75,1.375 3.03906,5.36328 2.33594,9.34375 0.60937,6.90625 -1.11718,4.46875 -4.33594,7.99219 -7.55469,11.51172 -4.80469,7.0664 -2.05078,2.61719 -2.03906,1.66016 -2.01953,0.70312 -2.25,-1.07812 -2.47266,-2.85156 -6.0039,-8.42969 -9.52344,-14.01172 -5.61328,-9.00391 -1.69531,-3.99218 -0.0391,-4.31641 1.61328,-4.62891 2.60157,-3.125 3.59375,-1.61718 z m 0,0"
       id="path89465" />
    <path
       style="fill:none;stroke:#453861;stroke-width:6;stroke-linecap:butt;stroke-linejoin:miter;stroke-miterlimit:10;stroke-opacity:1"
       d="m 308.35937,374.90625 4.82032,-1.06641 3.29297,-0.21875 1.77343,0.63282 2.61328,2.32421 3.44922,4.01954 2.00391,4.33984 0.55469,4.66406 -0.14844,11.20703 -0.85938,17.75 -2.15234,10.24219 -3.44531,2.73047 -9.33594,-1.13672 -15.22266,-5.00391 -9.30078,-3.35156 -3.37109,-1.69531 -1.94141,-2.30859 -0.51172,-2.91407 0.58204,-3.14062 1.67578,-3.36328 4.99609,-8.07422 8.32422,-12.78125 5.57031,-7.875 2.81641,-2.96485 z m 0,0"
       id="path89467" />
    <path
       style="fill:none;stroke:#5c4f85;stroke-width:6;stroke-linecap:butt;stroke-linejoin:miter;stroke-miterlimit:10;stroke-opacity:1"
       d="m 306.48047,39.816406 14.51172,4.191406 8.72656,3.695313 2.9375,3.203125 1.07422,6.980469 -0.79297,10.753906 -0.80469,6.847656 -0.8125,2.9375 -1.90625,2.949219 -3.0039,2.957031 -2.88672,1.476563 -2.76953,-0.0078 -6.34766,-1.5 -9.92969,-2.988281 -6.40234,-3.015625 -2.88281,-3.050781 -3.20313,-7.148438 -3.52734,-11.242187 -1.84766,-7.21875 -0.16797,-3.195313 1.28516,-3.433594 2.73437,-3.671874 3.21485,-1.78125 3.69531,0.109374 z m 0,0"
       id="path89469" />
    <path
       style="fill:none;stroke:#5c4f85;stroke-width:6;stroke-linecap:butt;stroke-linejoin:miter;stroke-miterlimit:10;stroke-opacity:1"
       d="m 344.39844,24.097656 -0.26563,4.410156 -0.375,2.902344 -0.48047,1.394532 -1.23437,1.738281 -1.98047,2.089843 -2.79297,0.808594 -3.60156,-0.46875 -9.21485,-2.375 -14.82421,-4.28125 -9.01563,-2.835937 -3.20312,-1.394531 -1.66407,-1.804688 -0.12109,-2.21875 1.76562,-1.347656 3.66016,-0.476563 L 311.48047,20 h 17.19531 l 10.41406,0.472656 3.62891,0.945313 z m 0,0"
       id="path89471" />
    <path
       style="fill:none;stroke:#5c4f85;stroke-width:6;stroke-linecap:butt;stroke-linejoin:miter;stroke-miterlimit:10;stroke-opacity:1"
       d="m 334.42578,126.42969 8.73828,8.73828 4.80078,5.8125 0.8711,2.89062 -1.91016,3.81641 -4.6875,4.73828 -3.59375,1.75391 -2.50781,-1.23828 -4.75781,-5.875 -7.00782,-10.51563 -3.9414,-6.70312 -0.86719,-2.88672 1.04687,-2.92969 2.95704,-2.96484 2.73437,-0.86328 2.50391,1.23828 z m 0,0"
       id="path89473" />
    <path
       style="fill:none;stroke:#5c4f85;stroke-width:6;stroke-linecap:butt;stroke-linejoin:miter;stroke-miterlimit:10;stroke-opacity:1"
       d="m 342.11719,567.16406 -0.5625,11.98047 -1.19532,7.35547 -1.8164,2.72656 -4.86719,1.73438 -7.91797,0.74218 -3.89453,-0.91406 0.12109,-2.5664 4.30079,-7.64454 8.48437,-12.72265 5.08594,-6.44531 1.69922,-0.15625 z m 0,0"
       id="path89475" />
    <path
       style="fill:none;stroke:#5c4f85;stroke-width:6;stroke-linecap:butt;stroke-linejoin:miter;stroke-miterlimit:10;stroke-opacity:1"
       d="m 325.91797,601.73047 9.58984,-0.89844 6.32031,-0.1875 3.05079,0.52734 3.84765,1.94141 4.64453,3.35938 2.70703,3.10156 0.76563,2.84375 -0.14453,6.38672 -1.0625,9.92187 -2.49219,6.375 -3.91797,2.83203 -10.57422,3.0625 -17.22656,3.28907 -10.61719,1.33593 -4,-0.62109 -2.71875,-3.40625 -1.44531,-6.1875 -0.28516,-4.77344 0.86719,-3.35937 3.1836,-6.41797 5.5,-9.48438 4.36328,-5.85156 3.23437,-2.22656 z m 0,0"
       id="path89477" />
    <path
       style="fill:none;stroke:#453861;stroke-width:6;stroke-linecap:butt;stroke-linejoin:miter;stroke-miterlimit:10;stroke-opacity:1"
       d="m 309.08594,296.14062 2.57812,-0.89453 3.10156,0.23438 3.61719,1.35937 8.96485,4.3086 14.3125,7.25 8.68359,4.91797 3.06641,2.58984 1.52343,3.71484 -0.0156,4.83985 -1.11328,3.72265 -2.21485,2.59766 -6.26172,4.95312 -10.3125,7.29688 -7.02734,2.54687 -3.74219,-2.19921 -5.44531,-9.89063 -7.15234,-17.57812 -4.27735,-10.77344 -1.40625,-3.96094 -0.40625,-2.44141 0.58594,-0.91406 0.63281,-0.65234 0.67969,-0.38672 z m 0,0"
       id="path89479" />
    <path
       style="fill:none;stroke:#453861;stroke-width:6;stroke-linecap:butt;stroke-linejoin:miter;stroke-miterlimit:10;stroke-opacity:1"
       d="m 333.60547,470.47266 3.48828,2.08984 1.31641,2.47266 -0.85938,2.85937 -4.18359,7.05859 -7.50391,11.25782 -4.90234,6.26562 -2.30078,1.27344 -2.75782,-2.01953 -3.21875,-5.3086 -1.17968,-4.08593 0.85937,-2.85938 4.04688,-5.44531 7.23828,-8.03516 4.76562,-4.65234 2.29688,-1.27344 z m 0,0"
       id="path89481" />
    <path
       style="fill:none;stroke:#5c4f85;stroke-width:6;stroke-linecap:butt;stroke-linejoin:miter;stroke-miterlimit:10;stroke-opacity:1"
       d="m 359.32422,651.13672 2.55469,3.72656 1.28125,3.03516 0.004,2.34765 -1.26562,4.79688 -2.53516,7.23828 -2.76172,4.6875 -2.99609,2.13281 -7.21875,2.42578 -11.44531,2.71875 -7.51172,0.52735 -3.58203,-1.66797 -4.42579,-6.07813 -5.26953,-10.49609 -1.41015,-6.71094 2.44531,-2.93359 9.57031,-3.0586 16.69531,-3.1875 10.40625,-1.53515 4.125,0.11328 z m 0,0"
       id="path89483" />
    <path
       style="fill:none;stroke:#5c4f85;stroke-width:6;stroke-linecap:butt;stroke-linejoin:miter;stroke-miterlimit:10;stroke-opacity:1"
       d="m 336.21094,694.22266 11.36718,-2.69922 7.10938,-1.22657 2.84766,0.2461 2.39062,2.04297 1.92578,3.84375 -0.28515,2.33593 -2.50391,0.82422 L 351.00391,700 h -13.61329 l -8.23046,-0.12109 -2.84766,-0.2461 -1.26563,-0.69531 0.31641,-1.14453 1.41016,-0.98438 2.5039,-0.82422 z m 0,0"
       id="path89485" />
    <path
       style="fill:none;stroke:#453861;stroke-width:6;stroke-linecap:butt;stroke-linejoin:miter;stroke-miterlimit:10;stroke-opacity:1"
       d="m 343.98437,260.08984 4.06641,1.375 3.24219,1.98828 2.41406,2.60938 4.80859,6.71094 7.20704,10.80468 3.875,7.02735 0.54296,3.24609 -2.05468,3.79688 -4.66016,4.34375 -4.23047,1.92578 -3.80469,-0.49219 -8.45312,-3.5625 -13.09766,-6.63672 -7.25781,-5.08984 -1.41797,-3.53906 2.53516,-6.71485 6.48437,-9.88672 4.375,-5.85547 2.26172,-1.82421 z m 0,0"
       id="path89487" />
    <path
       style="fill:none;stroke:#453861;stroke-width:6;stroke-linecap:butt;stroke-linejoin:miter;stroke-miterlimit:10;stroke-opacity:1"
       d="m 348.35156,389.00391 11.85156,1.05859 7.53516,1.52344 3.22266,1.98437 3.20703,5.10156 3.1914,8.21875 1.82422,5.15625 0.45703,2.10157 -0.29687,1.83984 -1.05469,1.57813 -2.21484,1.39453 -3.375,1.20703 -9.04297,2.6289 -14.71094,4.05469 -8.85156,0.86719 -3,-2.32813 -1.13672,-8.61718 0.71875,-14.90625 1.70703,-8.9375 2.69531,-2.96875 z m 0,0"
       id="path89489" />
    <path
       style="fill:none;stroke:#5c4f85;stroke-width:6;stroke-linecap:butt;stroke-linejoin:miter;stroke-miterlimit:10;stroke-opacity:1"
       d="m 365.73047,148.64062 5.83984,0.29297 3.85156,1.04688 1.86329,1.80469 2.36328,4.96484 2.85937,8.125 1.06641,6.00391 -0.73047,3.875 -3.49219,6.92578 -6.26172,9.97265 -4.6914,4.71875 -3.11719,-0.53125 -5.71484,-6.49609 -8.30469,-12.45313 -4.41016,-8.19921 -0.52344,-3.94141 2.67188,-4.9375 5.86328,-5.93359 4.1875,-3.57032 2.50781,-1.21093 z m 0,0"
       id="path89491" />
    <path
       style="fill:none;stroke:#453861;stroke-width:6;stroke-linecap:butt;stroke-linejoin:miter;stroke-miterlimit:10;stroke-opacity:1"
       d="m 337.85547,353.27344 11.34765,-8.03125 7.84375,-4.125 4.34375,-0.21485 6.63282,3.40235 8.92187,7.02343 4.92188,5.13282 0.91797,3.24609 -1.85938,5.6875 -4.63281,8.12891 -4.19922,4.8125 -3.76172,1.49609 -8.33984,0.17188 -12.92188,-1.15235 -8.21484,-1.1289 -3.50781,-1.10938 -3.47657,-2.5625 -3.44922,-4.01172 -2.01562,-2.64844 -0.58203,-1.28125 0.0781,-1.61328 0.73438,-1.95312 1.66406,-2.04688 2.58984,-2.14062 z m 0,0"
       id="path89493" />
    <path
       style="fill:none;stroke:#5c4f85;stroke-width:6;stroke-linecap:butt;stroke-linejoin:miter;stroke-miterlimit:10;stroke-opacity:1"
       d="m 354.33203,88.730469 16.77734,2.710937 10.15235,2.984375 3.52344,3.253907 1.60156,7.867192 -0.32813,12.48046 -0.48047,7.9375 -0.63281,3.39844 -1.63281,3.38672 -2.625,3.37109 -2.26172,2.01563 -1.89453,0.65625 -4.05078,0.17187 -6.21094,-0.30859 -4.87109,-1.28906 -3.53125,-2.26953 -6.89844,-6.26954 -10.26563,-10.26953 -6.27343,-6.77343 -2.27344,-3.27735 -1.3125,-4.14843 -0.35156,-5.027349 0.10937,-3.367187 0.57031,-1.710938 1.78516,-2.335937 3.00391,-2.957031 3.625,-1.507813 4.23828,-0.05078 z m 0,0"
       id="path89495" />
    <path
       style="fill:none;stroke:#453861;stroke-width:6;stroke-linecap:butt;stroke-linejoin:miter;stroke-miterlimit:10;stroke-opacity:1"
       d="m 344.5625,438.43359 12.58984,-3.46875 6.78125,-0.8164 0.97657,1.83984 -3.52735,6.94141 -8.03515,12.05078 -5.31641,7.05078 -2.60547,2.05469 -3.36719,-0.21094 -4.1289,-2.46484 -2.57422,-2.125 -1.02344,-1.77735 -0.83203,-3.80859 -0.64453,-5.83594 -0.3711,-3.57422 -0.0898,-1.30859 0.0625,-0.79297 0.21484,-0.27344 1.48047,-0.53906 2.74219,-0.80469 z m 0,0"
       id="path89497" />
    <path
       style="fill:none;stroke:#5c4f85;stroke-width:6;stroke-linecap:butt;stroke-linejoin:miter;stroke-miterlimit:10;stroke-opacity:1"
       d="m 346.48047,44.394531 2.01562,-2.121093 2.92578,-0.851563 3.83204,0.417969 9.85546,2.253906 15.875,4.082031 9.50782,3.597657 3.14062,3.113281 0.95703,6.769531 -1.22656,10.433594 -0.82812,6.429687 -0.4375,2.429688 -0.6211,1.664062 -0.8125,0.902344 -2.27344,0.257813 -3.74218,-0.382813 -10.1875,-1.535156 -16.63672,-2.691407 -10.01953,-2.769531 -3.39844,-2.847656 -1.30859,-6.726563 0.78125,-10.605468 0.6914,-6.667969 0.60156,-2.726563 z m 0,0"
       id="path89499" />
    <path
       style="fill:none;stroke:#5c4f85;stroke-width:6;stroke-linecap:butt;stroke-linejoin:miter;stroke-miterlimit:10;stroke-opacity:1"
       d="m 355.07422,539.74219 1.8164,-0.86328 2.10938,-0.23829 2.39844,0.37891 5.89062,1.5 9.37891,2.62891 5.92969,3.32422 2.48828,4.02734 2.35156,10.09375 2.22266,16.16406 0.30078,10.1836 -1.6211,4.20703 -5.70312,3.83203 -9.78125,3.45703 -6.42188,1.75391 -3.05859,0.043 -3.77344,-1.59765 -4.49219,-3.2461 -2.63671,-3.91406 -0.77735,-4.58594 0.0391,-11.36328 0.85938,-18.14062 0.71484,-11.10938 0.57032,-4.07031 z m 0,0"
       id="path89501" />
    <path
       style="fill:none;stroke:#5c4f85;stroke-width:6;stroke-linecap:butt;stroke-linejoin:miter;stroke-miterlimit:10;stroke-opacity:1"
       d="m 369.96094,20 h 16.46875 l 10.01172,0.753906 3.54687,1.503906 1.8125,4.265626 0.0781,7.027343 -0.043,4.359375 -0.16016,1.699219 -0.5,1.296875 -0.83203,0.894531 -2.21484,0.105469 -3.59766,-0.6875 -9.76953,-2.394531 -15.94922,-4.105469 -9.65625,-2.898438 -3.36719,-1.699218 -1.57031,-2.757813 0.23047,-3.816406 1.90625,-2.320313 3.57812,-0.816406 z m 0,0"
       id="path89503" />
    <path
       style="fill:none;stroke:#5c4f85;stroke-width:6;stroke-linecap:butt;stroke-linejoin:miter;stroke-miterlimit:10;stroke-opacity:1"
       d="m 373.88672,509.17969 10.1875,-15.28125 7.13672,-7.73828 4.08984,-0.19141 6.49609,7.10156 8.90235,14.38672 4.29297,9.31641 -0.3125,4.24609 -5.34766,4.83203 -10.375,5.42188 -7.26172,3.02343 -4.14844,0.6211 -6.5664,-0.94531 -8.98047,-2.51563 -5.42578,-1.74219 -1.86719,-0.97265 -0.79687,-1.49219 0.26562,-2.01172 1.25391,-2.85937 2.24218,-3.70704 z m 0,0"
       id="path89505" />
    <path
       style="fill:none;stroke:#5c4f85;stroke-width:6;stroke-linecap:butt;stroke-linejoin:miter;stroke-miterlimit:10;stroke-opacity:1"
       d="m 385.25781,663.69922 12.91797,0.92187 7.55469,1.85547 2.1875,2.78906 -0.25391,7.4336 -2.69922,12.08203 -2.67578,7.33594 -2.65234,2.58984 L 393.47656,700 h -9.66797 l -6.1914,-0.64063 -2.71485,-1.28515 -2.85937,-3.63672 -3.00781,-5.98828 -1.5586,-4.38672 -0.11719,-2.78516 1.16797,-4.90234 2.45703,-7.01953 2.875,-4.16016 3.29297,-1.30469 z m 0,0"
       id="path89507" />
    <path
       style="fill:none;stroke:#453861;stroke-width:6;stroke-linecap:butt;stroke-linejoin:miter;stroke-miterlimit:10;stroke-opacity:1"
       d="m 369.20312,310.27734 4.57813,-4.26562 3.83594,-1.01172 3.09375,2.25391 6.47265,8.51953 9.85547,14.78125 5.96875,9.125 2.08203,3.46875 0.98047,2.4375 -0.1289,1.41015 -0.5586,0.96094 -0.99609,0.51953 -2.75391,0.76172 -4.51172,1.00781 -3.78906,-0.21484 -3.07031,-1.4375 -6.4375,-4.57813 -9.8125,-7.72265 -5.95313,-5.24219 -2.09765,-2.77344 -1.04297,-3.98828 0.0156,-5.20703 0.5,-3.62109 0.98438,-2.03125 z m 0,0"
       id="path89509" />
    <path
       style="fill:none;stroke:#5c4f85;stroke-width:6;stroke-linecap:butt;stroke-linejoin:miter;stroke-miterlimit:10;stroke-opacity:1"
       d="m 377.21875,607.50391 10.35547,-3.66407 6.75,-2.05078 3.14062,-0.4414 3.72266,0.57812 4.30469,1.59375 2.90234,2.82813 1.5,4.05078 2.09375,10.68359 2.69141,17.3125 1.55468,10.5625 0.41797,3.8125 -0.16406,2.13672 -0.74609,0.46484 -2.04297,0.16797 -3.34766,-0.1289 -9.10937,-0.59375 -14.86719,-1.0625 -9.33594,-1.09375 -3.79687,-1.1211 -3.33203,-2.64453 -2.85938,-4.17187 -1.61719,-3.65235 -0.37109,-3.14062 0.375,-6.8125 1.12109,-10.48047 1.79297,-6.75781 2.45703,-3.03125 z m 0,0"
       id="path89511" />
    <path
       style="fill:none;stroke:#5c4f85;stroke-width:6;stroke-linecap:butt;stroke-linejoin:miter;stroke-miterlimit:10;stroke-opacity:1"
       d="m 402.37891,182.73828 10.36718,3.86719 6.50391,3.60156 2.63281,3.33203 2.27735,7.5 1.92578,11.67188 1.04297,7.33203 0.16796,2.99219 -0.49218,2.64062 -1.14844,2.28906 -1.48047,1.60938 -1.81641,0.92969 -4.57812,1.48437 -7.33594,2.04688 -5.48828,0.10937 -3.63672,-1.82812 -6.64453,-6.20313 -9.64844,-10.57812 -5.23047,-7.41797 -0.8164,-4.25782 2.50781,-6.78125 5.83984,-9.29687 4.65625,-5.23047 3.47266,-1.16406 z m 0,0"
       id="path89513" />
    <path
       style="fill:none;stroke:#453861;stroke-width:6;stroke-linecap:butt;stroke-linejoin:miter;stroke-miterlimit:10;stroke-opacity:1"
       d="m 399.76172,359.90234 5.17969,-1.15625 3.375,-0.57812 1.57812,0.004 1.87891,0.58985 2.18359,1.17578 0.24219,2.33594 -1.69922,3.5 -5.90234,9.33203 -10.10938,15.16406 -6.39453,8.54688 -2.67969,1.92968 -2.53515,-2.11718 -2.39063,-6.16016 -0.90234,-4.70703 0.58984,-3.25391 2.86328,-6.13672 5.14063,-9.01953 3.67968,-5.59765 2.21094,-2.17969 z m 0,0"
       id="path89515" />
    <path
       style="fill:none;stroke:#5c4f85;stroke-width:6;stroke-linecap:butt;stroke-linejoin:miter;stroke-miterlimit:10;stroke-opacity:1"
       d="m 430.35937,538.4375 6.52344,9.82422 3.48828,7.125 0.44922,4.42578 -1.98437,7.62891 -4.41407,10.82812 -3.30078,6.85938 -2.1875,2.89062 -3.99218,2.77734 -5.78907,2.66016 -3.96484,1.44922 -2.14063,0.23437 -3.17187,-0.66015 -4.19922,-1.5586 -2.79297,-2.70703 -1.38281,-3.85937 -1.82422,-10.16016 -2.26172,-16.45703 -0.28515,-10.55859 1.6875,-4.66016 5.92187,-4.98437 10.14453,-5.30079 6.85938,-2.16406 3.57031,0.96875 z m 0,0"
       id="path89517" />
    <path
       style="fill:none;stroke:#5c4f85;stroke-width:6;stroke-linecap:butt;stroke-linejoin:miter;stroke-miterlimit:10;stroke-opacity:1"
       d="m 409.24219,137.36719 17.43359,0.91015 10.80469,1.33203 4.17578,1.75391 3.10937,4.50391 2.04688,7.26562 0.37891,5.19141 -1.28516,3.125 -4.66406,5.21875 -8.04297,7.3164 -6.05078,4.00782 -4.0586,0.69531 -7.47265,-1.68359 -10.88672,-4.0625 -6.92578,-3.35938 -2.96485,-2.66406 -2.94922,-5.50781 -2.9414,-8.35547 -1.52735,-5.40235 -0.12109,-2.44922 1.13672,-2.76171 2.39453,-3.07032 3.32031,-1.76562 4.2461,-0.46485 z m 0,0"
       id="path89519" />
    <path
       style="fill:none;stroke:#5c4f85;stroke-width:6;stroke-linecap:butt;stroke-linejoin:miter;stroke-miterlimit:10;stroke-opacity:1"
       d="m 411.95703,243.99609 7.31641,-2.03906 5.39062,0.0664 3.46094,2.17187 6.15234,7.17188 8.84375,12.17578 5.33203,7.89062 1.82032,3.60157 0.73828,4.11328 -0.35156,4.6289 -0.98829,3.04688 -1.63281,1.46484 -4.44531,1.83594 -7.25781,2.21094 -5.46875,-0.25 -3.67969,-2.71875 -6.80469,-8.79688 -9.92187,-14.88281 -5.875,-9.26172 -1.83203,-3.63672 -0.23438,-2.86719 1.375,-2.08984 1.61328,-1.48828 1.86328,-0.88672 z m 0,0"
       id="path89521" />
    <path
       style="fill:none;stroke:#5c4f85;stroke-width:6;stroke-linecap:butt;stroke-linejoin:miter;stroke-miterlimit:10;stroke-opacity:1"
       d="m 397.42578,90.949219 0.72656,-0.804688 2.62891,-0.05859 4.52734,0.6875 12.46875,2.351562 20.41016,4.019531 11.88672,3.499996 3.35937,2.98047 -0.68359,6.44141 -4.72656,9.89453 -4.66016,5.91406 -4.59766,1.93359 -10.66406,0.53125 -16.73047,-0.875 -10.125,-1.84375 -3.51562,-2.80859 -1.59766,-7.51953 0.32031,-12.23438 0.27344,-7.515618 0.22656,-2.792969 z m 0,0"
       id="path89523" />
    <path
       style="fill:none;stroke:#5c4f85;stroke-width:6;stroke-linecap:butt;stroke-linejoin:miter;stroke-miterlimit:10;stroke-opacity:1"
       d="m 406.58984,460.12109 2.07813,-3.11328 2.27734,-1.80859 2.48047,-0.50391 5.99609,0.13281 9.50782,0.76563 6.59765,1.74609 3.69141,2.71485 5.71094,7.3164 7.72265,11.91797 3.46875,8.17188 -0.78125,4.42968 -6.07422,6.58985 -11.36328,8.75 -7.91406,3.67969 -4.45703,-1.39063 -6.94531,-8.32031 -9.4336,-15.25 -5.5664,-9.58985 -1.70313,-3.92578 -0.10156,-3.5 1.49609,-3.07031 1.12891,-2.19922 0.76562,-1.32422 z m 0,0"
       id="path89525" />
    <path
       style="fill:none;stroke:#5c4f85;stroke-width:6;stroke-linecap:butt;stroke-linejoin:miter;stroke-miterlimit:10;stroke-opacity:1"
       d="m 406.94531,49.382812 1.04688,-1.121093 1.66406,-0.585938 2.28906,-0.05469 5.96094,0.414062 9.63672,0.878906 6.55859,1.601563 3.48828,2.320313 5.0625,6.140624 6.63672,9.957032 4.21875,6.539062 1.79688,3.117188 1.77343,3.863281 1.7461,4.605469 -1.11328,2.367187 -3.96875,0.132813 -12.125,-1.929688 -20.27735,-3.992187 -12.17968,-3.53125 -4.08594,-3.066407 -1.4375,-6.699218 1.21484,-10.328125 0.84766,-6.386719 0.48047,-2.453125 z m 0,0"
       id="path89527" />
    <path
       style="fill:none;stroke:#5c4f85;stroke-width:6;stroke-linecap:butt;stroke-linejoin:miter;stroke-miterlimit:10;stroke-opacity:1"
       d="m 421.67969,663.45312 1.01562,-0.63281 0.65235,-0.3789 0.28906,-0.1211 0.3125,-0.0312 0.33594,0.0625 0.58593,0.4336 0.82813,0.80468 2.17578,2.25391 3.52734,3.70312 1.46875,3.26172 -0.59765,2.82032 -3.44922,6.13671 -6.30078,9.45313 -3.97657,5.74219 -1.64843,2.02734 L 415.37891,700 h -1.38672 l -0.54297,-1.34766 0.30469,-2.69922 1.5625,-7.64062 2.8125,-12.58594 1.8164,-7.71094 0.82031,-2.83203 z m 0,0"
       id="path89529" />
    <path
       style="fill:none;stroke:#5c4f85;stroke-width:6;stroke-linecap:butt;stroke-linejoin:miter;stroke-miterlimit:10;stroke-opacity:1"
       d="m 451.53906,400.64062 4.14844,2.33594 2.66797,1.85547 1.19531,1.37891 1.30859,2.73437 1.42969,4.09766 -0.0781,3.58984 -1.57813,3.08985 -5.1914,6.70703 -8.80079,10.32031 -6.15234,6.19922 -3.5,2.08203 -5.51562,0.73828 -7.53516,-0.60937 -3.42188,-2.09766 0.69141,-3.58984 5.72656,-9.86719 10.76172,-16.14453 6.98047,-9.55078 3.19531,-2.95704 z m 0,0"
       id="path89531" />
    <path
       style="fill:none;stroke:#5c4f85;stroke-width:6;stroke-linecap:butt;stroke-linejoin:miter;stroke-miterlimit:10;stroke-opacity:1"
       d="m 420.79297,26.1875 4.44531,6.664062 2.04297,3.984376 -0.35938,1.308593 -3.22656,0.378907 -6.10547,-0.558594 -3.71484,-0.992188 -1.32031,-1.425781 -0.69532,-3.769531 -0.0664,-6.105469 0.14062,-3.707031 0.35938,-1.308594 L 413.33203,20 h 1.73047 l 1.52734,0.714844 1.32032,1.425781 z m 0,0"
       id="path89533" />
    <path
       style="fill:none;stroke:#5c4f85;stroke-width:6;stroke-linecap:butt;stroke-linejoin:miter;stroke-miterlimit:10;stroke-opacity:1"
       d="m 454.01562,298.26172 0.63282,0.72656 0.47656,1.79297 0.31641,2.86328 0.58203,7.75 0.84375,12.63672 0.5,7.67969 0.15625,2.72265 0.0234,1.40235 -0.11328,0.0781 -0.89062,-1.1875 -1.66797,-2.44922 -4.67578,-6.98437 -7.67969,-11.51953 -3.98437,-7.19922 -0.29297,-2.87891 3.01172,-2.40234 6.3125,-1.92188 3.89843,-1.08984 1.48828,-0.25391 z m 0,0"
       id="path89535" />
    <path
       style="fill:none;stroke:#5c4f85;stroke-width:6;stroke-linecap:butt;stroke-linejoin:miter;stroke-miterlimit:10;stroke-opacity:1"
       d="m 446.13281,604.26953 13.05469,7.14063 7.48047,5.00781 1.90234,2.86719 -1.1289,4.5625 -4.16797,6.25 -3.7461,4.40625 -3.32812,2.5664 -7.33985,4.14453 -11.35937,5.72266 -7.17188,1.67578 -2.99609,-2.36719 -2.80078,-9.57812 -2.60938,-16.78125 -1.03906,-10.44141 0.53125,-4.09375 2.80078,-3.21484 5.07813,-2.33203 4.48047,-0.65235 3.88672,1.03125 z m 0,0"
       id="path89537" />
    <path
       style="fill:none;stroke:#5c4f85;stroke-width:6;stroke-linecap:butt;stroke-linejoin:miter;stroke-miterlimit:10;stroke-opacity:1"
       d="m 467.12891,172.03516 12.6289,5.09375 7.79297,3.40625 2.94922,1.71093 2.04297,2.30078 1.13672,2.89063 0.42187,2.35937 -0.29297,1.83204 -1.40625,3.74609 -2.51172,5.65625 -3.41796,3.88672 -4.32032,2.10937 -10.98437,3.14453 -17.64844,4.1836 -10.90234,1.41797 -4.14844,-1.33985 -2.9375,-5.89453 -1.71875,-10.4414 -0.17578,-7.13282 1.37109,-3.82031 4.74219,-5.60156 8.11719,-7.38281 6.28125,-3.9336 4.44531,-0.49219 z m 0,0"
       id="path89539" />
    <path
       style="fill:none;stroke:#5c4f85;stroke-width:6;stroke-linecap:butt;stroke-linejoin:miter;stroke-miterlimit:10;stroke-opacity:1"
       d="m 469.9375,354.90234 -3.66016,-5.49218 -2.21093,-3.34375 -0.76172,-1.19141 -0.32813,-0.63281 0.10547,-0.0742 1.23047,0.58594 2.36328,1.23828 6.63672,3.55468 10.91406,5.86329 5.4336,4.85937 -0.0391,3.84766 -5.57422,7.97265 -11.10156,12.08985 -7.09375,7.14453 -3.08203,2.19531 -3.18359,0.17578 -3.28516,-1.85156 -1.23828,-2.25 0.80078,-2.65625 3.91797,-6.60156 7.03125,-10.54297 3.875,-6.99219 0.72266,-3.4375 z m 0,0"
       id="path89541" />
    <path
       style="fill:none;stroke:#5c4f85;stroke-width:6;stroke-linecap:butt;stroke-linejoin:miter;stroke-miterlimit:10;stroke-opacity:1"
       d="m 461.35937,561.96094 10.17579,0.10937 6.46875,1.17969 2.76171,2.25391 2.73438,6.33203 2.71484,10.41015 1.19922,6.98438 -0.30469,3.5664 -2.23046,4.89063 -4.14844,6.22266 -3.88281,3.03515 -3.61719,-0.16015 -8.16797,-3.5586 -12.72656,-6.96094 -7.30078,-5.27734 -1.8711,-3.58594 1.0586,-6.68359 3.98828,-9.77734 3.51172,-5.92579 3.03515,-2.07031 z m 0,0"
       id="path89543" />
    <path
       style="fill:none;stroke:#5c4f85;stroke-width:6;stroke-linecap:butt;stroke-linejoin:miter;stroke-miterlimit:10;stroke-opacity:1"
       d="m 476.03906,510.46875 10.81641,13.1875 6.03125,8.61719 1.24609,4.05078 -1.8789,4.87109 -4.9961,5.69922 -4.21094,3.44922 -3.42187,1.19531 -7.19922,0.53906 -10.96875,-0.11718 -7.35937,-1.1211 -3.74219,-2.12109 -5.125,-5.96094 -6.50391,-9.79687 -2.69531,-6.91016 1.10156,-4.01953 6.38281,-6.5 11.65625,-8.97656 8.23829,-4.03516 4.8125,0.90234 z m 0,0"
       id="path89545" />
    <path
       style="fill:none;stroke:#5c4f85;stroke-width:6;stroke-linecap:butt;stroke-linejoin:miter;stroke-miterlimit:10;stroke-opacity:1"
       d="m 453.00781,224.75391 17.78516,-4.21485 11.01953,-1.53515 4.25391,1.14843 3.15625,5.35938 2.0625,9.57422 -0.0742,6.66406 -2.21875,3.75 -7.31641,5.84375 -12.41406,7.93359 -8.42969,3.58985 -4.44922,-0.76172 -6.39453,-6.1211 -8.33984,-11.48828 -4.96875,-7.16406 -1.59375,-2.84766 -0.34375,-2.33203 0.90625,-1.80859 2.45703,-1.54688 4.00781,-1.29296 z m 0,0"
       id="path89547" />
    <path
       style="fill:none;stroke:#5c4f85;stroke-width:6;stroke-linecap:butt;stroke-linejoin:miter;stroke-miterlimit:10;stroke-opacity:1"
       d="m 476.91406,427.07812 6.8086,3.23829 4.3789,3.1289 1.94922,3.02344 2.125,6.94531 2.29297,10.86719 0.32422,7.35937 -1.65235,3.84766 -5.82421,5.47266 -9.99219,7.09765 -6.86719,3.08203 -3.73047,-0.93359 -5.57812,-6.19141 -7.42188,-11.45312 -3.61328,-7.99609 0.19141,-4.54297 4.2539,-7.14844 8.3125,-9.75 5.78125,-5.57422 3.23828,-1.39453 z m 0,0"
       id="path89549" />
    <path
       style="fill:none;stroke:#5c4f85;stroke-width:6;stroke-linecap:butt;stroke-linejoin:miter;stroke-miterlimit:10;stroke-opacity:1"
       d="m 468.57031,100.39453 0.19531,-0.14062 0.16016,-0.0859 0.125,-0.0352 0.25781,-0.0234 0.38672,-0.0156 1.48828,1.87109 2.58594,3.75 7.13281,10.63672 11.6836,17.52344 6.69922,11.44531 1.71093,5.36719 -0.98437,6.44922 -3.6836,7.52344 -3.52734,4.05078 -3.36719,0.57422 -7.70703,-2.14454 -12.03906,-4.85546 -7.55078,-3.8086 -3.06641,-2.76562 -2.66797,-5.41016 -2.26562,-8.05078 -0.76172,-6.17188 0.73828,-4.29296 3.23438,-8.14063 5.72656,-11.98828 3.49609,-7.29297 1.26953,-2.60156 z m 0,0"
       id="path89551" />
    <path
       style="fill:none;stroke:#5c4f85;stroke-width:6;stroke-linecap:butt;stroke-linejoin:miter;stroke-miterlimit:10;stroke-opacity:1"
       d="m 504.91797,322.45703 -2.78516,15.47266 -2.88672,8.75 -2.99218,2.02734 -7.07813,-1.98828 -11.17187,-6.00391 -6.86329,-4.83984 -2.55468,-3.67578 -1.64844,-7.41016 -0.74219,-11.14844 1.1211,-6.58593 2.99218,-2.02735 8.84375,-0.17578 14.69922,1.67969 8.625,2.67969 2.55469,3.67578 z m 0,0"
       id="path89553" />
    <path
       style="fill:none;stroke:#5c4f85;stroke-width:6;stroke-linecap:butt;stroke-linejoin:miter;stroke-miterlimit:10;stroke-opacity:1"
       d="m 473.48437,268.44922 13.16797,-8.41797 8.6875,-4.68359 4.21094,-0.95313 5.34766,1.50781 6.48047,3.96875 3.97656,3.54688 1.47265,3.125 0.94141,6.86719 0.40234,10.61328 -0.004,6.61718 -0.40235,2.6211 -1.34375,2.1289 -2.28125,1.63672 -3.23828,0.78125 -4.19531,-0.0742 -10.74609,-1.02734 -17.29297,-1.97656 -10.59375,-1.30078 -3.88672,-0.63282 -2.35938,-0.79296 -0.83984,-0.96094 -0.47266,-1.10547 -0.10156,-1.24609 0.13281,-3.05469 0.36719,-4.85938 1.63672,-3.85156 2.89844,-2.84766 z m 0,0"
       id="path89555" />
    <path
       style="fill:none;stroke:#5c4f85;stroke-width:6;stroke-linecap:butt;stroke-linejoin:miter;stroke-miterlimit:10;stroke-opacity:1"
       d="m 508.66406,367.48828 5.07422,2.46484 3.54688,2.64844 2.01953,2.83594 3.1875,6.79687 4.34765,10.76563 1.26172,7.33203 -1.8164,3.89844 -7.32813,5.66406 -12.83984,7.42969 -8.57813,4.14062 -4.3164,0.84375 -5.8125,-1.3125 -7.3086,-3.47656 -4.58984,-2.53906 -1.86328,-1.60156 -1.625,-2.79297 -1.39063,-3.98828 0.45313,-3.83594 2.29687,-3.6836 7.20703,-8.4375 12.10938,-13.1914 7.89844,-7.7461 3.68359,-2.29687 z m 0,0"
       id="path89557" />
    <path
       style="fill:none;stroke:#5c4f85;stroke-width:6;stroke-linecap:butt;stroke-linejoin:miter;stroke-miterlimit:10;stroke-opacity:1"
       d="m 509.28906,474.20703 6.78516,2.26953 4.44531,2.86719 2.10938,3.46484 2.59375,8.67969 3.07031,13.90234 1.47265,8.83594 -0.12109,3.76953 -1.875,3.73047 -3.63281,3.69531 -2.77344,2.3125 -1.91797,0.92969 -3.61719,0.79297 -5.3164,0.65234 -4.40235,-1.03515 -3.48828,-2.72656 -7.23047,-8.05079 -10.96484,-13.37109 -5.57812,-8.88281 -0.19141,-4.39844 4.93359,-5.76953 10.0586,-7.14453 6.83593,-4.09375 3.60938,-1.04297 z m 0,0"
       id="path89559" />
    <path
       style="fill:none;stroke:#5c4f85;stroke-width:6;stroke-linecap:butt;stroke-linejoin:miter;stroke-miterlimit:10;stroke-opacity:1"
       d="m 510.54687,540.17969 4.94922,-0.60547 3.0625,-0.24219 1.17969,0.13281 0.87109,0.67188 0.5586,1.21484 -0.61719,2.17188 -1.79297,3.13281 -5.36719,8.26562 -8.93359,13.39844 -5.64062,7.30469 -2.34766,1.20312 -2.19141,-3.29296 -2.02734,-7.78907 -0.64844,-5.39453 0.73438,-3 3.09375,-4.60937 5.45703,-6.22266 3.84375,-3.83984 2.23047,-1.46485 z m 0,0"
       id="path89561" />
    <path
       style="fill:none;stroke:#5c4f85;stroke-width:6;stroke-linecap:butt;stroke-linejoin:miter;stroke-miterlimit:10;stroke-opacity:1"
       d="m 540.21484,424.79687 6.26172,13.23047 2.8086,8.74219 -0.64454,4.25 -4.95312,5.42969 -9.26953,6.60547 -6.35156,3.76953 -3.4375,0.92969 -5.10157,-0.66797 -6.76953,-2.26563 -4.35156,-2.51172 -1.92969,-2.76172 -2.08594,-6.6875 -2.24218,-10.62109 -0.0742,-7.1875 2.09375,-3.76562 7.05469,-5.36329 12.01562,-6.95312 7.96875,-2.80469 3.91797,1.34375 z m 0,0"
       id="path89563" />
    <path
       style="fill:none;stroke:#5c4f85;stroke-width:6;stroke-linecap:butt;stroke-linejoin:miter;stroke-miterlimit:10;stroke-opacity:1"
       d="m 514.54687,197.99609 12.30079,2.28516 7.60546,1.59375 2.91016,0.90234 2.09766,1.41016 1.28125,1.92187 1.3125,2.19141 1.34765,2.46875 3.17969,6.02344 5.00391,9.58984 1.77343,6.55469 -1.46875,3.52344 -6.66015,5.1875 -11.85938,6.85937 -7.91406,3.72266 -3.97266,0.58984 -5.32812,-1.75 -6.6875,-4.09765 -4.32031,-3.6875 -1.94922,-3.28125 -2.1836,-7.25 -2.41796,-11.21485 -1.21485,-7.38281 -0.0117,-3.54688 1.17969,-4.44531 2.37109,-5.33594 2.75782,-2.99218 3.14453,-0.65625 z m 0,0"
       id="path89565" />
    <path
       style="fill:none;stroke:#5c4f85;stroke-width:6;stroke-linecap:butt;stroke-linejoin:miter;stroke-miterlimit:10;stroke-opacity:1"
       d="m 520.00391,305.12891 2.23437,-1.60157 2.25781,-0.60547 2.27735,0.38282 5.33984,1.89453 8.39844,3.40234 5.25,3.17578 2.10547,2.94922 1.7539,6.65625 1.41407,10.36719 -0.28516,7.09766 -1.98047,3.82812 -6.32031,5.66016 -10.65235,7.5 -6.95703,4.3164 -3.2539,1.13282 -3.89453,-0.53125 -4.53125,-2.19922 -2.41797,-3.20703 -0.29688,-4.21485 1.42188,-10.83594 3.14062,-17.46484 2.14844,-10.77734 1.15234,-4.08203 z m 0,0"
       id="path89567" />
    <path
       style="fill:none;stroke:#5c4f85;stroke-width:6;stroke-linecap:butt;stroke-linejoin:miter;stroke-miterlimit:10;stroke-opacity:1"
       d="m 516.57422,169.85937 7.23828,10.85547 3.39062,6.40625 -0.45312,1.95313 -4.90625,0.10547 -9.35938,-1.73828 -5.79296,-1.33985 -2.23047,-0.9414 -1.63672,-1.79688 -1.04297,-2.65234 -0.29297,-2.30469 0.45313,-1.95313 1.80859,-4.20703 3.16406,-6.46484 2.69922,-2.76172 2.22656,0.9375 z m 0,0"
       id="path89569" />
    <path
       style="fill:none;stroke:#5c4f85;stroke-width:6;stroke-linecap:butt;stroke-linejoin:miter;stroke-miterlimit:10;stroke-opacity:1"
       d="m 568.23437,252.23828 6.56641,9.49219 3.8125,6.47265 1.0625,3.45313 -0.28125,5.03516 -1.61719,6.61718 -1.87109,4.51563 -2.12891,2.40625 -5.21875,3.52344 -8.30859,4.6289 -5.94531,2.44531 -3.58203,0.26172 -5.9961,-1.57031 -8.40625,-3.40625 -5.14453,-3.16797 -1.88672,-2.9375 -1.13672,-6.62109 -0.39062,-10.30469 1.0664,-7.01172 2.52344,-3.71484 7.33985,-5.3711 12.15625,-7.03125 8.08593,-3.2539 4.01172,0.52734 z m 0,0"
       id="path89571" />
    <path
       style="fill:none;stroke:#5c4f85;stroke-width:6;stroke-linecap:butt;stroke-linejoin:miter;stroke-miterlimit:10;stroke-opacity:1"
       d="m 561.55078,457.80078 2.04688,0.48828 1.9414,1.71485 1.83203,2.94531 4.16797,8.10156 6.50391,13.25781 3.57422,8.59375 0.64453,3.92969 -1.42578,4.50391 -3.5,5.07422 -2.71485,2.19531 -1.93359,-0.6836 -3.71875,-4.47265 -5.51172,-8.26953 -4.01562,-4.01563 -2.51954,0.23828 -4.38281,4.80078 -6.24609,9.36719 -4.10156,4.28906 -1.95704,-0.79687 -2.42578,-6.94141 -2.88672,-13.08203 -0.72656,-8.67578 1.4375,-4.26953 5.51563,-5.55469 9.59375,-6.83984 6.04687,-4.09766 2.49219,-1.36328 z m 0,0"
       id="path89573" />
    <path
       style="fill:none;stroke:#5c4f85;stroke-width:6;stroke-linecap:butt;stroke-linejoin:miter;stroke-miterlimit:10;stroke-opacity:1"
       d="m 567.60547,353.33594 10.0039,4.23828 6.29297,3.16015 2.58594,2.08204 2.32813,3.78515 2.07031,5.48828 1.15625,3.59375 0.25,1.70313 -0.33203,2.08594 -0.91407,2.46484 -2.4414,2.03125 -3.97266,1.59375 -10.80469,3.28906 -17.6289,4.97656 -11.12891,1.97266 -4.6289,-1.03906 -4.30079,-5.42969 -3.96484,-9.82422 -1.29297,-6.75 1.38672,-3.67969 5.91406,-5.51171 10.44141,-7.34375 7.41016,-4.00782 4.3789,-0.66406 z m 0,0"
       id="path89575" />
    <path
       style="fill:none;stroke:#5c4f85;stroke-width:6;stroke-linecap:butt;stroke-linejoin:miter;stroke-miterlimit:10;stroke-opacity:1"
       d="m 594.57031,404.92969 4,11.30078 1.14453,7.70312 -1.71484,4.09766 -6.85156,5.95703 -11.99219,7.81641 -7.50391,4.6914 -3.01562,1.57032 -2.54297,0.53515 -2.07422,-0.49219 -1.96484,-1.79296 -1.85547,-3.08594 -4.22656,-8.50781 -6.58594,-13.92188 -2.21875,-8.95703 2.16015,-3.99219 9.40625,-4.34765 16.65625,-4.70313 10.54297,-1.64453 4.42578,1.41406 z m 0,0"
       id="path89577" />
    <path
       style="fill:none;stroke:#5c4f85;stroke-width:6;stroke-linecap:butt;stroke-linejoin:miter;stroke-miterlimit:10;stroke-opacity:1"
       d="m 587.94531,306.47656 8.70703,8.15235 4.6836,6.04687 0.65625,3.93359 -2.49219,7.07422 -5.64063,10.21094 -4.41406,5.78125 -3.18359,1.35156 -6.20313,-1.27343 -9.21875,-3.90625 -5.74609,-3.47266 -2.27344,-3.03125 -1.83594,-6.64453 -1.39843,-10.25781 -0.0391,-6.67579 1.32032,-3.09765 4.43359,-3.65235 7.55078,-4.20703 5.51563,-1.67968 3.48437,0.84765 z m 0,0"
       id="path89579" />
    <path
       style="fill:none;stroke:#5c4f85;stroke-width:6;stroke-linecap:butt;stroke-linejoin:miter;stroke-miterlimit:10;stroke-opacity:1"
       d="m 614.94531,436.85547 6.56641,2.66406 3.5625,3.36719 0.55859,4.07422 -1.6875,10.21484 -3.94531,16.35547 -3.27734,10.03906 -2.60938,3.72266 -5.42969,2.375 -8.24609,1.02734 -5.65625,-0.70703 -3.07031,-2.44141 -4.58203,-7.42187 -6.08985,-12.40625 -2.4414,-8.35156 1.20703,-4.29688 6.46093,-5.96484 11.71094,-7.63281 7.81641,-4.34766 3.91406,-1.06641 z m 0,0"
       id="path89581" />
    <path
       style="fill:none;stroke:#5c4f85;stroke-width:6;stroke-linecap:butt;stroke-linejoin:miter;stroke-miterlimit:10;stroke-opacity:1"
       d="m 601.23047,500.67187 9.17969,-1.14062 6.55078,0.0742 3.92187,1.29687 6.51563,4.24219 9.11718,7.18359 5.53516,4.3711 1.95313,1.55859 0.98046,0.81641 0.008,0.0781 -1.4961,1.48438 -3,2.88672 -8.5,8.13672 -14,13.39062 -9.33593,6.87891 -4.67188,0.36328 -6.23437,-5.66406 -7.79688,-11.69922 -4.82031,-7.26953 -1.83985,-2.84766 -1.32031,-2.21875 -0.79687,-1.59375 -0.0234,-1.63281 0.75,-1.67578 2.52344,-3.95313 4.29297,-6.22266 3.58984,-3.90234 2.88672,-1.58203 z m 0,0"
       id="path89585" />
    <path
       style="fill:none;stroke:#5c4f85;stroke-width:6;stroke-linecap:butt;stroke-linejoin:miter;stroke-miterlimit:10;stroke-opacity:1"
       d="m 597.15625,290.73437 8.58984,12.88282 5.16797,7.82812 1.75391,2.77735 0.66797,1.42968 -0.41016,0.082 -1.23828,-0.875 -2.06641,-1.83593 -5.65234,-5.24219 -9.23047,-8.64453 -5.49219,-5.71094 -1.75,-2.77734 -0.35156,-3.55078 1.05859,-4.31641 1.5586,-1.24219 2.0664,1.83594 z m 0,0"
       id="path89587" />
    <path
       style="fill:none;stroke:#5c4f85;stroke-width:6;stroke-linecap:butt;stroke-linejoin:miter;stroke-miterlimit:10;stroke-opacity:1"
       d="m 616.02734,325.31641 1.91797,-0.37891 2.21485,1.34766 2.51562,3.07421 6.16406,8.89454 9.8125,14.72265 4.22266,9.13281 -1.37109,3.53907 -8.78907,2.66406 -16.21093,1.79297 -10.03516,0.57812 -3.85938,-0.63672 -2.82812,-2.70703 -1.79688,-4.77343 -0.42187,-4.11329 0.96094,-3.45703 3.61718,-7.41406 6.27735,-11.36328 4.01953,-6.94141 1.75391,-2.51562 z m 0,0"
       id="path89589" />
    <path
       style="fill:none;stroke:#5c4f85;stroke-width:6;stroke-linecap:butt;stroke-linejoin:miter;stroke-miterlimit:10;stroke-opacity:1"
       d="m 617.86719,380.01562 17.33984,-1.91796 10.78125,-0.57032 4.21875,0.77344 3.28125,3.15234 2.33984,5.52735 0.4336,4.88281 -1.48047,4.23828 -5.36719,9.23828 -9.25,14.24219 -6.33984,8.35547 -3.42969,2.46484 -5.09375,-0.13672 -6.75391,-2.74218 -4.58593,-3.03516 -2.41797,-3.33203 -3.47656,-8.07031 -4.53125,-12.8086 -2.66016,-8.02343 -0.78906,-3.23829 0.0312,-2.77343 0.85156,-2.30469 2.37891,-1.60547 3.89843,-0.90234 z m 0,0"
       id="path89591" />
    <path
       style="fill:none;stroke:#5c4f85;stroke-width:6;stroke-linecap:butt;stroke-linejoin:miter;stroke-miterlimit:10;stroke-opacity:1"
       d="m 658.22656,536.98047 8.85547,9.37109 4.82422,6.72266 0.80078,4.07031 -2.16797,6.84375 -5.13281,9.61719 -4.48047,5.875 -3.82422,2.13281 -8.27734,1.23438 -12.72656,0.33593 -8.19141,-0.5 -3.65625,-1.33984 -3.98828,-3.95703 -4.32813,-6.57813 -1.19922,-5.35547 1.92969,-4.14453 7.63281,-8.44531 13.33204,-12.75 9.04296,-6.73437 4.75391,-0.72657 z m 0,0"
       id="path89593" />
    <path
       style="fill:none;stroke:#5c4f85;stroke-width:6;stroke-linecap:butt;stroke-linejoin:miter;stroke-miterlimit:10;stroke-opacity:1"
       d="m 666.51562,603.4375 6.23829,11.73828 3.48046,7.46484 0.72266,3.19532 -1.07422,3.1914 -2.87109,3.17969 -2.28906,1.87109 -1.71094,0.56641 -3.41406,0.008 -5.11329,-0.54687 -4.11328,-1.83985 -3.10547,-3.13281 -6.24609,-8.60547 -9.38672,-14.07812 -4.5039,-8.57813 0.37109,-3.08203 5.75391,-1.68359 11.13281,-0.29297 7.42578,1.07812 3.72266,2.45313 z m 0,0"
       id="path89595" />
    <path
       style="fill:none;stroke:#5c4f85;stroke-width:6;stroke-linecap:butt;stroke-linejoin:miter;stroke-miterlimit:10;stroke-opacity:1"
       d="m 647.61328,450.89453 11.51172,5.26563 7.17969,4.08203 2.84375,2.90234 2.30468,5.58594 1.76563,8.26953 0.11719,5.96484 -1.53125,3.65235 -5.21875,6.21484 -8.90625,8.77734 -6.28516,4.63672 -3.66406,0.4961 -5.92969,-2.98047 -8.19141,-6.45703 -4.5625,-5.6211 -0.9375,-4.78125 1.44141,-10.32031 3.82422,-15.85547 3.55469,-9.0625 3.28515,-2.26953 z m 0,0"
       id="path89597" />
    <path
       style="fill:none;stroke:#5c4f85;stroke-width:6;stroke-linecap:butt;stroke-linejoin:miter;stroke-miterlimit:10;stroke-opacity:1"
       d="m 667.16406,399.28125 1.63281,0.61719 1.84375,1.64843 2.04688,2.67969 4.98437,7.27735 7.91797,11.8789 4.07422,7.85938 0.22266,3.83984 -3.32422,4.93359 -6.86719,6.03516 -5.39062,3.10547 -3.90235,0.18359 -7.625,-2.50781 -11.35156,-5.19141 -5.96094,-4.57812 -0.57422,-3.97266 4.04297,-8.65625 8.66407,-13.33593 5.4375,-8.03516 2.20703,-2.72656 z m 0,0"
       id="path89605" />
    <path
       style="fill:none;stroke:#5c4f85;stroke-width:6;stroke-linecap:butt;stroke-linejoin:miter;stroke-miterlimit:10;stroke-opacity:1"
       d="m 693.28906,495.08594 12.40235,3.42187 7.82421,2.47656 3.24219,1.53125 2.99219,2.6211 2.73828,3.71094 0.82031,3.5664 -1.10156,3.42578 -4.48437,7.83985 -7.8711,12.25781 -5.49609,7.50781 -3.125,2.75781 -4.91797,1.67969 -6.70703,0.60156 -5.13672,-0.76171 -3.5625,-2.1211 -6.74609,-6.3164 -9.92579,-10.51172 -6.02734,-6.40625 -2.13281,-2.30078 -1.07422,-1.27344 -0.0234,-0.24219 0.9961,-1.13672 2.0039,-2.03515 5.69531,-5.63672 9.38672,-9.2461 7.02735,-5.25 L 684.75391,494 Z m 0,0"
       id="path89607" />
    <path
       style="fill:none;stroke:#5c4f85;stroke-width:6;stroke-linecap:butt;stroke-linejoin:miter;stroke-miterlimit:10;stroke-opacity:1"
       d="m 690.60156,558.43359 6.51953,-0.58203 4.82422,0.7461 3.125,2.07812 5.60547,6.17969 8.08203,10.28125 4.82422,6.74219 1.5625,3.19531 0.38281,3.91406 -0.79297,4.63672 -1.39843,3.60547 -2.01172,2.57812 -5.29297,4.98438 -8.58203,7.39453 -5.66016,4.51172 -2.73437,1.6289 -3.45703,0.92188 -4.1836,0.21484 -3.22265,-1.15234 -2.26172,-2.51953 -4.3086,-7.2461 -6.36328,-11.96875 -3.29297,-8.33593 -0.22656,-4.69922 2.55078,-7.33594 5.31641,-9.97266 3.92969,-6.11328 2.53515,-2.26172 z m 0,0"
       id="path89609" />
    <path
       style="fill:none;stroke:#5c4f85;stroke-width:6;stroke-linecap:butt;stroke-linejoin:miter;stroke-miterlimit:10;stroke-opacity:1"
       d="m 680.375,638.97656 3.39844,-3.76953 2.51562,-2.3125 1.63281,-0.85156 2.92969,-0.53516 4.22266,-0.21875 3.52734,1.19531 2.83203,2.60938 5.91016,7.49219 8.99609,12.38281 4.8125,8.45312 0.62891,4.52344 -2.70313,6.62891 -6.04687,8.73437 -4.67188,4.53907 -3.29687,0.34375 -6.32813,-3.39844 -9.35937,-7.13281 -5.86719,-4.61329 -2.3789,-2.09375 -2.0625,-2.35546 -1.7461,-2.61719 -1.0039,-2.38281 -0.26172,-2.14063 0.13672,-4.75781 0.53125,-7.375 0.6875,-4.88281 0.83984,-2.38672 z m 0,0"
       id="path89613" />
    <path
       style="fill:none;stroke:#5c4f85;stroke-width:6;stroke-linecap:butt;stroke-linejoin:miter;stroke-miterlimit:10;stroke-opacity:1"
       d="m 705.61328,453.41797 7.61328,11.42187 4.48438,7.52344 1.35156,3.625 0.0156,4.55469 -1.3125,5.49219 -1.99609,3 -2.67969,0.51562 -6.93359,-1.28906 -11.1875,-3.08594 -6.98047,-2.73437 -2.76172,-2.38282 -2.24219,-5.20703 -1.71093,-8.02734 -0.33594,-5.4961 1.04687,-2.96093 3.82422,-4.37891 6.60157,-5.79687 4.82421,-2.29688 3.04688,1.20703 z m 0,0"
       id="path89615" />
    <path
       style="fill:none;stroke:#5c4f85;stroke-width:6;stroke-linecap:butt;stroke-linejoin:miter;stroke-miterlimit:10;stroke-opacity:1"
       d="m 741.58594,617.81641 13.6289,9.6289 7.9961,6.66016 2.36718,3.70312 -0.10156,5.67188 -2.57812,7.64844 -2.58985,4.75 -2.60156,1.85546 -6.08594,1.4336 -9.57031,1.01172 -6.74609,-0.67578 -3.92188,-2.35938 -6.33203,-7.19922 -8.73828,-12.03125 -4.53125,-7.97265 -0.31641,-3.91797 3.46875,-5.08594 7.25782,-6.25391 5.86718,-2.76172 4.47266,0.72266 z m 0,0"
       id="path89621" />
    <path
       style="fill:none;stroke:#5c4f85;stroke-width:6;stroke-linecap:butt;stroke-linejoin:miter;stroke-miterlimit:10;stroke-opacity:1"
       d="m 743.66406,526.84766 11.60156,8.92187 7.26954,5.75781 2.93359,2.58594 2.51562,2.86328 2.09375,3.14063 1.23047,2.26953 0.36719,1.40234 -0.0117,2.39844 -0.38672,3.39844 -1.64843,2.67968 -2.92188,1.96485 -8.07422,3.86328 -13.23437,5.76562 -8.84375,2.47266 -4.44922,-0.82031 -6,-5.21094 -7.54297,-9.59766 -3.78125,-7.07421 -0.0156,-4.54688 3.72657,-8.08984 7.46484,-11.63282 5.77734,-6.10546 4.08594,-0.58204 z m 0,0"
       id="path89625" />
    <path
       style="fill:none;stroke:#5c4f85;stroke-width:6;stroke-linecap:butt;stroke-linejoin:miter;stroke-miterlimit:10;stroke-opacity:1"
       d="m 742.73828,670.16406 9.8125,-1.03906 6.13281,-0.35547 2.44922,0.32813 2.03906,1.44531 1.62891,2.5664 0.83203,2.47657 0.0391,2.38672 -0.69921,5.48437 -1.44141,8.57813 -2.69531,5.20703 -3.94532,1.83984 L 746.42578,700 h -27.28906 l -3.63672,-0.004 -1.82031,-0.0117 v -0.0156 l 0.74609,-1.08984 1.49609,-2.16797 4.23829,-6.125 6.98046,-10.08985 5.29297,-6.23828 3.59766,-2.38281 z m 0,0"
       id="path89627" />
    <path
       style="fill:none;stroke:#5c4f85;stroke-width:6;stroke-linecap:butt;stroke-linejoin:miter;stroke-miterlimit:10;stroke-opacity:1"
       d="m 748.43359,583.44531 13.34766,-5.8164 8.58203,-2.97657 3.80859,-0.14062 4.125,2.51172 4.4375,5.16406 2.46094,4.52734 0.48047,3.89063 -0.85547,8.44531 -2.1914,12.99609 -1.57813,8.05079 -0.96875,3.10546 -1.65625,2.3086 -2.33203,1.5039 -2.91406,-0.14062 -3.48828,-1.78516 -8.71485,-5.82031 -13.94531,-9.84766 -8.39063,-6.40625 -2.84375,-2.96875 -1.07812,-3.48437 0.6875,-4 1.84375,-3.05469 3.00781,-2.10156 z m 0,0"
       id="path89633" />
    <path
       style="fill:none;stroke:#5c4f85;stroke-width:6;stroke-linecap:butt;stroke-linejoin:miter;stroke-miterlimit:10;stroke-opacity:1"
       d="m 786.39844,682.88672 11.61328,2.60547 7.11719,2.03906 2.62109,1.46484 1.62891,2.84766 0.63281,4.23047 -1.05469,2.5664 -2.73437,0.90625 -8.0625,0.45313 h -13.39063 l -8.00781,-0.73438 -2.625,-1.46484 -0.73828,-4.14844 1.14843,-6.83984 1.94141,-3.87109 2.73828,-0.90625 z m 0,0"
       id="path89639" />
    <path
       style="fill:none;stroke:#5c4f85;stroke-width:6;stroke-linecap:butt;stroke-linejoin:miter;stroke-miterlimit:10;stroke-opacity:1"
       d="m 780.58594,636.01562 2.8125,-1.8125 3.22265,-0.69921 3.625,0.41796 8.875,2.09375 14.1211,3.76172 8.80468,2.78516 3.48047,1.80469 2.8086,3.22656 2.13281,4.65234 0.51172,3.63672 -1.10547,2.62891 -4.20703,5.11328 -7.30469,7.60547 -5.82031,4.30469 -4.33203,1.00781 -8.625,-0.94531 -12.91797,-2.89844 -8.02735,-2.05469 -3.14062,-1.20703 -2.4375,-1.96875 -1.73047,-2.73438 -0.74219,-2.57421 0.2461,-2.42579 1.5664,-5.49609 2.89063,-8.57422 2.05469,-5.40234 1.22265,-2.22656 z m 0,0"
       id="path89647" />
    <path
       style="fill:none;stroke:#5c4f85;stroke-width:6;stroke-linecap:butt;stroke-linejoin:miter;stroke-miterlimit:10;stroke-opacity:1"
       d="m 796.5625,590.19141 0.11328,-0.0117 1.12891,1.58593 2.14453,3.17969 6.01953,9.00781 9.89453,14.84375 4.72656,8.66797 -0.44531,2.4961 -6.21094,-0.34766 -11.96875,-3.19141 -7.05859,-3.18359 -2.14453,-3.17969 -0.0937,-7.41015 1.96484,-11.64063 1.20313,-7.07031 0.44531,-2.49609 z m 0,0"
       id="path89651" />
    <path
       style="fill:none;stroke:#5c4f85;stroke-width:6;stroke-linecap:butt;stroke-linejoin:miter;stroke-miterlimit:10;stroke-opacity:1"
       d="m 842.25391,664.25391 2.66406,0.94921 1.80078,0.85547 0.94141,0.75782 1.33203,1.67578 1.73047,2.58984 1.28515,2.56641 0.85156,2.54297 1.53907,5.91015 2.23828,9.28125 -0.0703,5.63281 -2.3711,1.98829 L 846.35937,700 h -13.30078 l -8.15625,-0.54297 -3.01562,-1.08984 -1.88281,-3.08594 -0.75782,-5.08203 0.33594,-3.91406 1.42969,-2.75 4.42969,-5.24219 7.43359,-7.73828 4.80078,-4.59766 2.16406,-1.45312 z m 0,0"
       id="path89657" />
  </g>
  <text
     xml:space="preserve"
     style="font-size:252.703px;line-height:1;font-family:DINComp-Medium;-inkscape-font-specification:DINComp-Medium;display:none;fill:#8f4c8a;fill-opacity:1;stroke-width:6.31754"
     x="141.89313"
     y="197.89062"
     id="text47016"><tspan
       sodipodi:role="line"
       id="tspan47014"
       style="fill:#8f4c8a;fill-opacity:1;stroke-width:6.31754"
       x="0"
       y="0">MUNI</tspan><tspan
       sodipodi:role="line"
       style="fill:#8f4c8a;fill-opacity:1;stroke-width:6.31754"
       x="0"
       y="0"
       id="tspan47018">HAC</tspan><tspan
       sodipodi:role="line"
       style="fill:#8f4c8a;fill-opacity:1;stroke-width:6.31754"
       x="0"
       y="0"
       id="tspan47020">23</tspan></text>
  <g
     aria-label="MUNI
HAC
23"
     id="text47016-3"
     style="font-size:252.703px;line-height:1;font-family:DINComp-Medium;-inkscape-font-specification:DINComp-Medium;display:inline;fill:#8f4c8a;stroke:#8f4c8a;stroke-width:15.3324;stroke-linejoin:round;stroke-miterlimit:10;stroke-dasharray:none;stroke-opacity:1"
     transform="matrix(0.94831314,0,0.47372633,0.71123662,436.93202,195.69121)">
    <path
       d="M 296.80007,197.89062 V 77.603996 L 255.35678,165.29194 H 235.14054 L 192.68643,77.603996 V 197.89062 H 165.39451 V 17.966087 h 27.29192 L 245.24866,129.91352 296.80007,17.966087 h 27.29192 V 197.89062 Z"
       id="path88485"
       style="stroke:#8f4c8a;stroke-width:15.3324;stroke-linejoin:round;stroke-miterlimit:10;stroke-dasharray:none;stroke-opacity:1" />
    <path
       d="m 494.02997,137.2419 q 0,13.89867 -5.05406,25.52301 -4.80136,11.37163 -13.64596,19.45813 -8.59191,8.08649 -20.46895,12.63515 -11.87704,4.54865 -25.523,4.54865 -13.64596,0 -25.523,-4.54865 -11.87705,-4.54866 -20.46895,-12.63515 -8.5919,-8.0865 -13.64596,-19.45813 -4.80136,-11.62434 -4.80136,-25.52301 V 17.966087 h 27.29193 V 135.97839 q 0,18.19462 10.10812,28.55544 10.10812,10.36082 27.03922,10.36082 16.9311,0 27.03922,-10.36082 10.36082,-10.36082 10.36082,-28.55544 V 17.966087 h 27.29193 z"
       id="path88487"
       style="stroke:#8f4c8a;stroke-width:15.3324;stroke-linejoin:round;stroke-miterlimit:10;stroke-dasharray:none;stroke-opacity:1" />
    <path
       d="M 645.5205,197.89062 562.38121,71.286421 V 197.89062 H 535.08929 V 17.966087 h 25.01759 L 643.24617,144.31759 V 17.966087 H 670.5381 V 197.89062 Z"
       id="path88489"
       style="stroke:#8f4c8a;stroke-width:15.3324;stroke-linejoin:round;stroke-miterlimit:10;stroke-dasharray:none;stroke-opacity:1" />
    <path
       d="M 714.37685,197.89062 V 17.966087 h 27.29192 V 197.89062 Z"
       id="path88491"
       style="stroke:#8f4c8a;stroke-width:15.3324;stroke-linejoin:round;stroke-miterlimit:10;stroke-dasharray:none;stroke-opacity:1" />
    <path
       d="m 265.7176,450.59363 v -78.59064 h -73.03117 v 78.59064 H 165.39451 V 270.66909 h 27.29192 v 76.82171 h 73.03117 v -76.82171 h 27.29192 v 179.92454 z"
       id="path88493"
       style="stroke:#8f4c8a;stroke-width:15.3324;stroke-linejoin:round;stroke-miterlimit:10;stroke-dasharray:none;stroke-opacity:1" />
    <path
       d="M 452.85836,450.59363 440.47592,414.4571 h -71.00955 l -12.38245,36.13653 h -29.06084 l 65.95548,-179.92454 h 21.98516 l 65.95549,179.92454 z M 405.6029,311.35427 377.55287,391.20842 h 55.34196 z"
       id="path88495"
       style="stroke:#8f4c8a;stroke-width:15.3324;stroke-linejoin:round;stroke-miterlimit:10;stroke-dasharray:none;stroke-opacity:1" />
    <path
       d="m 639.24052,396.76789 q -4.80136,26.78652 -22.23786,41.19059 -17.18381,14.15137 -41.9487,14.15137 -14.90948,0 -26.28111,-4.54866 -11.37164,-4.80136 -20.21624,-13.64596 -6.57028,-6.57028 -10.36083,-13.64596 -3.53784,-7.07569 -5.30676,-15.41489 -1.76892,-8.5919 -2.27433,-19.20542 -0.2527,-10.86623 -0.2527,-25.0176 0,-14.15137 0.2527,-24.7649 0.50541,-10.86622 2.27433,-19.20542 1.76892,-8.59191 5.30676,-15.66759 3.79055,-7.07568 10.36083,-13.64596 8.8446,-8.84461 20.21624,-13.39326 11.37163,-4.80136 26.28111,-4.80136 25.0176,0 42.2014,14.40407 17.1838,14.15137 21.98516,40.93789 h -27.79733 q -3.03244,-13.89867 -12.12974,-22.49057 -9.09731,-8.5919 -24.25949,-8.5919 -16.17299,0 -26.53382,11.11893 -3.53784,3.53784 -5.55946,7.8338 -2.02163,4.29595 -3.28514,10.61352 -1.26352,6.06487 -1.76892,15.16218 -0.25271,9.09731 -0.25271,22.49057 0,13.39326 0.25271,22.49057 0.5054,9.0973 1.76892,15.41488 1.26351,6.06487 3.28514,10.36082 2.02162,4.29595 5.55946,7.8338 10.36083,11.11893 26.53382,11.11893 15.16218,0 24.25949,-8.5919 9.35001,-8.59191 12.63515,-22.49057 z"
       id="path88497"
       style="stroke:#8f4c8a;stroke-width:15.3324;stroke-linejoin:round;stroke-miterlimit:10;stroke-dasharray:none;stroke-opacity:1" />
    <path
       d="m 265.3731,703.29663 v -22.99597 l 69.24062,-84.1501 q 5.05406,-6.31758 7.32839,-11.62434 2.27432,-5.55947 2.27432,-12.38245 0,-12.12974 -6.82298,-19.71083 -6.82298,-7.58109 -19.45813,-7.58109 -5.05406,0 -9.85542,1.51622 -4.80135,1.51621 -8.5919,4.80135 -3.53784,3.28514 -5.81217,8.59191 -2.27432,5.30676 -2.27432,12.88785 H 265.6258 q 0,-11.37164 3.79054,-20.72165 4.04325,-9.60271 10.86623,-16.17299 7.07569,-6.57028 16.6784,-10.10812 9.60272,-3.79055 20.97435,-3.79055 11.62434,0 21.22705,3.53785 9.60272,3.53784 16.4257,10.10812 6.82298,6.57027 10.61352,15.92029 3.79055,9.35001 3.79055,20.97435 0,11.87704 -4.29595,20.46894 -4.29595,8.3392 -12.63515,18.44732 l -56.35277,68.98792 h 73.28387 v 22.99597 z"
       id="path88499"
       style="fill:#ffffff;fill-opacity:1;stroke:#8f4c8a;stroke-width:15.3325;stroke-linejoin:round;stroke-miterlimit:10;stroke-dasharray:none;stroke-opacity:1;paint-order:markers stroke fill" />
    <path
       d="m 504.9353,652.75603 q 0,12.88785 -4.54865,22.74327 -4.29595,9.85542 -11.87704,16.4257 -7.32839,6.57027 -17.43651,9.85541 -9.85542,3.28514 -21.22705,3.28514 -10.86623,0 -20.72165,-2.77973 -9.60271,-3.03244 -17.1838,-9.09731 -7.58109,-6.31757 -12.38245,-15.92029 -4.54865,-9.60271 -4.80136,-22.74327 h 25.77571 q 0.2527,7.32839 2.77973,12.38245 2.77974,5.05406 6.57028,8.5919 4.04325,3.28514 9.09731,4.80136 5.30676,1.51622 10.86623,1.51622 12.63515,0 20.97435,-7.58109 8.3392,-7.8338 8.3392,-22.23787 0,-13.64596 -7.58109,-21.47975 -7.32839,-8.0865 -22.49057,-8.0865 h -4.29595 V 599.9411 h 4.29595 q 14.15137,0 20.72165,-7.32838 6.57027,-7.58109 6.57027,-19.96354 0,-13.64596 -7.83379,-20.72165 -7.58109,-7.07568 -18.70002,-7.07568 -11.87704,0 -18.95273,6.82298 -7.07568,6.82298 -8.08649,18.95272 h -25.77571 q 0.50541,-11.37163 4.80136,-20.46894 4.29595,-9.09731 11.37163,-15.41488 7.07569,-6.31758 16.4257,-9.60272 9.35001,-3.53784 20.21624,-3.53784 11.37163,0 20.97435,3.79055 9.60271,3.53784 16.42569,10.36082 7.07569,6.57028 10.86623,15.92029 4.04325,9.09731 4.04325,20.21624 0,14.40407 -6.06487,24.00678 -5.81217,9.35002 -16.4257,14.40408 11.62434,5.05406 18.44732,15.41488 6.82298,10.36082 6.82298,27.03922 z"
       id="path88501"
       style="fill:#ffffff;fill-opacity:1;stroke:#8f4c8a;stroke-width:15.3325;stroke-linejoin:round;stroke-miterlimit:10;stroke-dasharray:none;stroke-opacity:1;paint-order:markers stroke fill" />
  </g>
</svg>
