<?xml version="1.0" encoding="UTF-8"?>
<svg xmlns="http://www.w3.org/2000/svg" xmlns:xlink="http://www.w3.org/1999/xlink" width="30pt" height="21pt" viewBox="0 0 30 21" version="1.1">
<g id="surface401">
<rect x="0" y="0" width="30" height="21" style="fill:rgb(100%,100%,100%);fill-opacity:1;stroke:none;"/>
<path style="fill:none;stroke-width:1;stroke-linecap:butt;stroke-linejoin:miter;stroke:rgb(27.058824%,22.745098%,38.431373%);stroke-opacity:1;stroke-miterlimit:10;" d="M 7.078125 2.003906 L 7.964844 3.332031 L 8.503906 4.15625 L 8.691406 4.472656 L 8.785156 4.714844 L 8.78125 4.871094 L 8.636719 5.027344 L 8.351562 5.179688 L 7.550781 5.535156 L 6.226562 6.09375 L 5.273438 6.210938 L 4.699219 5.890625 L 3.730469 4.710938 L 2.367188 2.667969 L 1.734375 1.425781 L 1.828125 0.988281 L 2.777344 0.769531 L 4.582031 0.769531 L 5.773438 0.910156 L 6.347656 1.195312 Z M 7.078125 2.003906 "/>
<path style="fill:none;stroke-width:1;stroke-linecap:butt;stroke-linejoin:miter;stroke:rgb(36.862745%,31.372549%,52.54902%);stroke-opacity:1;stroke-miterlimit:10;" d="M 8.851562 1.285156 L 8.839844 1.84375 L 8.792969 2.121094 L 8.710938 2.121094 L 8.484375 1.84375 L 8.113281 1.285156 L 7.929688 0.949219 L 7.933594 0.828125 L 8.125 0.769531 L 8.503906 0.769531 L 8.738281 0.828125 L 8.816406 0.949219 Z M 8.851562 1.285156 "/>
<path style="fill:none;stroke-width:1;stroke-linecap:butt;stroke-linejoin:miter;stroke:rgb(27.058824%,22.745098%,38.431373%);stroke-opacity:1;stroke-miterlimit:10;" d="M 6.371094 14.84375 L 8.078125 14.988281 L 8.984375 15.265625 L 9.097656 15.683594 L 8.554688 16.78125 L 7.363281 18.570312 L 6.445312 19.65625 L 5.804688 20.039062 L 4.582031 20.230469 L 2.777344 20.230469 L 1.820312 20.023438 L 1.710938 19.609375 L 2.300781 18.4375 L 3.585938 16.503906 L 4.550781 15.34375 L 5.195312 14.960938 Z M 6.371094 14.84375 "/>
<path style="fill:none;stroke-width:1;stroke-linecap:butt;stroke-linejoin:miter;stroke:rgb(36.862745%,31.372549%,52.54902%);stroke-opacity:1;stroke-miterlimit:10;" d="M 11.308594 17.09375 L 11.785156 18.722656 L 11.90625 19.707031 L 11.671875 20.054688 L 10.777344 20.230469 L 9.21875 20.230469 L 8.386719 20.054688 L 8.285156 19.707031 L 8.777344 18.722656 L 9.859375 17.09375 L 10.566406 16.28125 L 10.902344 16.28125 Z M 11.308594 17.09375 "/>
<path style="fill:none;stroke-width:1;stroke-linecap:butt;stroke-linejoin:miter;stroke:rgb(27.058824%,22.745098%,38.431373%);stroke-opacity:1;stroke-miterlimit:10;" d="M 7.027344 9.660156 L 6.425781 8.753906 L 6.1875 8.148438 L 6.316406 7.847656 L 6.980469 7.445312 L 8.183594 6.9375 L 9.023438 6.765625 L 9.496094 6.929688 L 10.242188 7.644531 L 11.257812 8.910156 L 11.832031 9.785156 L 11.96875 10.273438 L 11.84375 11.015625 L 11.464844 12.019531 L 11.214844 12.652344 L 11.097656 12.921875 L 10.957031 13.179688 L 10.789062 13.429688 L 10.507812 13.566406 L 10.105469 13.589844 L 9.050781 13.527344 L 7.34375 13.382812 L 6.375 13.191406 L 6.148438 12.953125 L 6.351562 12.355469 L 6.996094 11.394531 L 7.320312 10.710938 L 7.328125 10.3125 Z M 7.027344 9.660156 "/>
<path style="fill:none;stroke-width:1;stroke-linecap:butt;stroke-linejoin:miter;stroke:rgb(36.862745%,31.372549%,52.54902%);stroke-opacity:1;stroke-miterlimit:10;" d="M 11.21875 0.769531 L 12.101562 0.769531 L 12.824219 1.042969 L 13.378906 1.59375 L 14.515625 3.15625 L 16.226562 5.726562 L 17.101562 7.324219 L 17.136719 7.949219 L 16.375 8.433594 L 14.820312 8.773438 L 13.863281 8.96875 L 13.503906 9.011719 L 13.265625 8.960938 L 13.152344 8.8125 L 12.976562 8.574219 L 12.75 8.238281 L 12.160156 7.355469 L 11.207031 5.929688 L 10.632812 4.917969 L 10.433594 4.324219 L 10.347656 3.355469 L 10.375 2.015625 L 10.484375 1.199219 L 10.679688 0.914062 Z M 11.21875 0.769531 "/>
<path style="fill:none;stroke-width:1;stroke-linecap:butt;stroke-linejoin:miter;stroke:rgb(56.078431%,30.588235%,54.509804%);stroke-opacity:1;stroke-miterlimit:10;" d="M 19.089844 6.699219 L 19.035156 7.160156 L 18.96875 7.390625 L 18.890625 7.390625 L 18.695312 7.160156 L 18.390625 6.699219 L 18.242188 6.417969 L 18.253906 6.320312 L 18.4375 6.269531 L 18.800781 6.269531 L 19.015625 6.320312 L 19.082031 6.417969 Z M 19.089844 6.699219 "/>
<path style="fill:none;stroke-width:1;stroke-linecap:butt;stroke-linejoin:miter;stroke:rgb(36.862745%,31.372549%,52.54902%);stroke-opacity:1;stroke-miterlimit:10;" d="M 13.363281 11.839844 L 13.824219 11.144531 L 14.207031 10.570312 L 14.25 10.492188 L 14.246094 10.484375 L 14.410156 10.445312 L 14.746094 10.367188 L 15.703125 10.15625 L 17.273438 9.808594 L 18.320312 9.734375 L 18.839844 9.933594 L 19.523438 10.671875 L 20.375 11.949219 L 20.847656 12.941406 L 20.933594 13.65625 L 20.761719 15.039062 L 20.328125 17.09375 L 19.949219 18.167969 L 19.625 18.261719 L 18.917969 17.496094 L 17.839844 15.871094 L 17.058594 15.070312 L 16.582031 15.09375 L 15.765625 15.964844 L 14.617188 17.6875 L 13.871094 18.554688 L 13.519531 18.566406 L 13.097656 17.738281 L 12.609375 16.074219 L 12.34375 14.984375 L 12.296875 14.472656 L 12.410156 13.863281 L 12.679688 13.148438 L 12.894531 12.640625 L 13.050781 12.339844 Z M 13.363281 11.839844 "/>
<path style="fill:none;stroke-width:1;stroke-linecap:butt;stroke-linejoin:miter;stroke:rgb(56.078431%,30.588235%,54.509804%);stroke-opacity:1;stroke-miterlimit:10;" d="M 21.113281 10.785156 Z M 21.113281 10.785156 "/>
<path style="fill:none;stroke-width:1;stroke-linecap:butt;stroke-linejoin:miter;stroke:rgb(56.078431%,30.588235%,54.509804%);stroke-opacity:1;stroke-miterlimit:10;" d="M 21.550781 11.316406 L 21.539062 11.363281 L 21.53125 11.390625 L 21.519531 11.390625 L 21.5 11.363281 L 21.464844 11.316406 L 21.453125 11.285156 L 21.453125 11.273438 L 21.476562 11.269531 L 21.519531 11.269531 L 21.546875 11.273438 L 21.550781 11.285156 Z M 21.550781 11.316406 "/>
<path style="fill:none;stroke-width:1;stroke-linecap:butt;stroke-linejoin:miter;stroke:rgb(56.078431%,30.588235%,54.509804%);stroke-opacity:1;stroke-miterlimit:10;" d="M 23.464844 6.269531 L 26.453125 6.269531 L 28.269531 6.398438 L 28.910156 6.660156 L 29.230469 7.394531 L 29.230469 8.605469 L 28.96875 9.339844 L 28.445312 9.601562 L 26.960938 9.730469 L 24.515625 9.730469 L 22.964844 9.671875 L 22.308594 9.558594 L 21.667969 9.226562 L 21.042969 8.6875 L 20.671875 8.285156 L 20.554688 8.027344 L 20.535156 7.5625 L 20.613281 6.890625 L 20.984375 6.484375 L 21.640625 6.339844 Z M 23.464844 6.269531 "/>
<path style="fill:none;stroke-width:1;stroke-linecap:butt;stroke-linejoin:miter;stroke:rgb(36.862745%,31.372549%,52.54902%);stroke-opacity:1;stroke-miterlimit:10;" d="M 23.507812 16.648438 L 24.746094 18.507812 L 25.324219 19.632812 L 25.242188 20.03125 L 24.382812 20.230469 L 22.75 20.230469 L 21.804688 20.03125 L 21.539062 19.632812 L 21.601562 18.507812 L 21.996094 16.648438 L 22.367188 15.71875 L 22.714844 15.71875 Z M 23.507812 16.648438 "/>
<path style="fill:none;stroke-width:1;stroke-linecap:butt;stroke-linejoin:miter;stroke:rgb(56.078431%,30.588235%,54.509804%);stroke-opacity:1;stroke-miterlimit:10;" d="M 25.0625 11.558594 L 27.222656 11.460938 L 28.535156 11.527344 L 29 11.757812 L 29.230469 12.464844 L 29.230469 13.640625 L 29.023438 14.351562 L 28.613281 14.605469 L 27.449219 14.730469 L 25.527344 14.730469 L 24.324219 14.671875 L 23.835938 14.558594 L 23.414062 14.234375 L 23.054688 13.699219 L 22.851562 13.316406 L 22.800781 13.082031 L 22.832031 12.695312 L 22.945312 12.152344 L 23.246094 11.8125 L 23.734375 11.671875 Z M 25.0625 11.558594 "/>
</g>
</svg>
