<?xml version="1.0" encoding="UTF-8" standalone="no"?>
<svg
   width="1000pt"
   height="720pt"
   viewBox="0 0 1000 720"
   version="1.1"
   id="svg10674"
   sodipodi:docname="munihac-2023-logo-idea1.svg"
   inkscape:version="1.1.2 (0a00cf5339, 2022-02-04)"
   xmlns:inkscape="http://www.inkscape.org/namespaces/inkscape"
   xmlns:sodipodi="http://sodipodi.sourceforge.net/DTD/sodipodi-0.dtd"
   xmlns="http://www.w3.org/2000/svg"
   xmlns:svg="http://www.w3.org/2000/svg">
  <defs
     id="defs10678" />
  <sodipodi:namedview
     id="namedview10676"
     pagecolor="#ffffff"
     bordercolor="#666666"
     borderopacity="1.0"
     inkscape:pageshadow="2"
     inkscape:pageopacity="0.0"
     inkscape:pagecheckerboard="0"
     inkscape:document-units="pt"
     showgrid="false"
     inkscape:zoom="0.3865603"
     inkscape:cx="1104.6142"
     inkscape:cy="404.85275"
     inkscape:window-width="1914"
     inkscape:window-height="1138"
     inkscape:window-x="0"
     inkscape:window-y="26"
     inkscape:window-maximized="1"
     inkscape:current-layer="svg10674" />
  <g
     id="surface55"
     style="display:inline">
    <rect
       x="0"
       y="0"
       width="1000"
       height="720"
       style="display:inline;fill:#ffffff;fill-opacity:1;stroke:none"
       id="rect10361" />
    <path
       style="fill:none;stroke:#77457d;stroke-width:6;stroke-linecap:butt;stroke-linejoin:miter;stroke-miterlimit:10;stroke-opacity:0.501961"
       d="m 45.351562,684.76562 7.300782,5.82422 3.234375,3.53907 L 55.054688,695.375 49.042969,696 H 37.859375 l -6.375,-0.625 -1.5625,-1.24609 1.160156,-3.53907 3.882813,-5.82422 3.140625,-2.91406 H 40.5 Z m 0,0"
       id="path10363" />
    <path
       style="fill:none;stroke:#77457d;stroke-width:6;stroke-linecap:butt;stroke-linejoin:miter;stroke-miterlimit:10;stroke-opacity:0.501961"
       d="m 72.578125,60.988281 0.386719,1.988281 -0.203125,1.601563 -0.789063,1.210937 -2.433594,2.441407 -4.074218,3.667969 -3.316406,0.96875 -2.554688,-1.738282 -5.207031,-6.757812 -7.851563,-11.777344 -3.527344,-6.496094 0.789063,-1.210937 6.164063,2.453125 11.542968,6.121094 7.046875,3.929687 2.554688,1.734375 z m 0,0"
       id="path10365" />
    <path
       style="fill:none;stroke:#77457d;stroke-width:6;stroke-linecap:butt;stroke-linejoin:miter;stroke-miterlimit:10;stroke-opacity:0.501961"
       d="m 79.4375,636.02344 7.914062,7.47656 3.796876,6.11719 -0.328126,4.75 -4.875,9.71875 -9.429687,14.6875 -6.652344,8.17578 -3.878906,1.66797 -6.265625,-2.6211 -8.65625,-6.90625 -4.164062,-5.82812 0.324218,-4.75 5.246094,-10.00781 10.175781,-15.25782 7.023438,-8.46484 3.875,-1.66797 z m 0,0"
       id="path10367" />
    <path
       style="fill:none;stroke:#77457d;stroke-width:6;stroke-linecap:butt;stroke-linejoin:miter;stroke-miterlimit:10;stroke-opacity:0.501961"
       d="m 85.75,32.847656 -5.910156,9.523438 -5.253906,4.902344 -4.601563,0.273437 -10.074219,-3.988281 -15.558594,-8.25 L 34.816406,30.164062 31.300781,28.125 29.117188,26.464844 28.265625,25.1875 l 1.875,-0.777344 4.597656,-0.273437 L 48.195312,24 h 22.316407 l 12.917969,1.019531 3.515624,2.042969 z m 0,0"
       id="path10369" />
    <path
       style="fill:none;stroke:#77457d;stroke-width:6;stroke-linecap:butt;stroke-linejoin:miter;stroke-miterlimit:10;stroke-opacity:0.501961"
       d="m 87.019531,78.347656 9.820313,7.414063 5.390626,5.492187 0.97266,3.570313 -2.16407,6.402341 -5.292966,9.23438 -4.136719,4.22265 -2.984375,-0.79687 -5.808594,-6.875 -8.636718,-12.953126 -4.800782,-8.257813 -0.96875,-3.570312 1.570313,-3.632813 4.109375,-3.699218 3.542968,-1.449219 2.984376,0.796875 z m 0,0"
       id="path10371" />
    <path
       style="fill:none;stroke:#77457d;stroke-width:6;stroke-linecap:butt;stroke-linejoin:miter;stroke-miterlimit:10;stroke-opacity:0.501961"
       d="m 104.8125,653.91797 3.00781,0.0586 2.94141,1.10547 2.875,2.14844 6.63281,6.0625 10.40234,9.97656 6.34766,6.55859 2.29688,3.14844 1.30859,3.9336 0.32422,4.71093 -2.29297,2.86328 -4.90234,1.01172 L 119.70313,696 H 96.503906 l -13.070312,-1.58203 -2.945313,-3.16016 3.265625,-8.95312 9.46875,-14.75 6.070313,-8.94532 2.675781,-3.14843 z m 0,0"
       id="path10373" />
    <path
       style="fill:none;stroke:#77457d;stroke-width:6;stroke-linecap:butt;stroke-linejoin:miter;stroke-miterlimit:10;stroke-opacity:0.501961"
       d="m 112.72266,590.58594 13.86718,3.3789 8.53125,2.22266 3.19922,1.05859 2.12891,1.30469 1.0625,1.55859 -0.56641,2.61329 -2.1914,3.66796 -6.73829,9.61719 -11.28906,15.5625 -7.17968,9.44141 -3.07813,3.32422 -3.07031,1.6289 -3.06641,-0.0586 -2.79687,-0.91797 -2.523441,-1.77734 -5.617188,-5.00782 -8.710937,-8.23437 -4.417969,-6.30859 -0.125,-4.37891 4.007813,-8.29297 8.140624,-12.20703 6.425782,-7.05078 4.714846,-1.89063 z m 0,0"
       id="path10375" />
    <path
       style="fill:none;stroke:#77457d;stroke-width:6;stroke-linecap:butt;stroke-linejoin:miter;stroke-miterlimit:10;stroke-opacity:0.501961"
       d="m 106.44922,24 h 6.24219 l 4.73437,1.0625 3.21875,2.125 6.00391,6.015625 8.78125,9.914063 4.11328,7.296874 -0.5625,4.683594 -5.97656,8.3125 -11.40235,11.945313 -8.03515,6.410156 -4.66797,0.878906 -7.53516,-3.488281 -10.39453,-7.851562 -6.363281,-5.019532 -2.324219,-2.1875 -1.390625,-2.269531 -0.457031,-2.359375 0.496094,-2.679688 1.449218,-3 4.335938,-7.324218 7.226562,-11.648438 5.054688,-7.074218 2.886716,-2.496094 z m 0,0"
       id="path10377" />
    <path
       style="fill:none;stroke:#77457d;stroke-width:6;stroke-linecap:butt;stroke-linejoin:miter;stroke-miterlimit:10;stroke-opacity:0.501961"
       d="m 122.08984,104.45313 10.27735,7.77734 6.10156,6.07422 1.92578,4.37109 0.32813,8.48828 -1.27344,12.60938 -1.35156,8.09375 -1.42188,3.57812 -3.39453,3.83985 -5.36328,4.09765 -4.27734,0.96485 -3.1836,-2.17579 -6.34375,-8.21484 -9.5,-14.25 -5.140624,-9.74609 -0.777344,-5.25 2.542968,-7.74219 5.86719,-10.23437 4.66016,-5.38282 3.46093,-0.52734 z m 0,0"
       id="path10379" />
    <path
       style="fill:none;stroke:#77457d;stroke-width:6;stroke-linecap:butt;stroke-linejoin:miter;stroke-miterlimit:10;stroke-opacity:0.501961"
       d="m 135.15625,544.01562 4.42969,3.6211 2.5,3.60937 0.5625,3.59766 -0.6211,8.39062 -1.80468,13.17579 -2.3711,7.6914 -2.93359,2.20313 -7.41406,-0.35157 -11.89453,-2.89843 -6.22657,-3.25 -0.5625,-3.59766 4.35157,-8.75 9.26171,-13.89844 6.10157,-8.04687 2.93359,-2.20313 z m 0,0"
       id="path10381" />
    <path
       style="fill:none;stroke:#77457d;stroke-width:6;stroke-linecap:butt;stroke-linejoin:miter;stroke-miterlimit:10;stroke-opacity:0.501961"
       d="m 158.25,608.99219 10,2.9375 6.60937,2.5 3.21485,2.0625 4.12109,4.375 5.01563,6.6875 3.03906,4.16797 1.05469,1.65234 0.48047,1.33594 -0.0937,1.01953 -1.82813,2.07031 -3.55859,3.12109 -10.03516,8.33204 -16.51562,13.54296 -11.03516,7.25391 -5.55469,0.96875 -7.48047,-4.02734 -9.40625,-9.02344 -4.53515,-7.10547 0.34375,-5.18359 5.66797,-10.17188 10.99609,-15.16406 7.75,-8.89063 4.5,-2.62109 z m 0,0"
       id="path10383" />
    <path
       style="fill:none;stroke:#77457d;stroke-width:6;stroke-linecap:butt;stroke-linejoin:miter;stroke-miterlimit:10;stroke-opacity:0.501961"
       d="m 157.44531,56.578125 7.25781,0.132813 5.8086,1.277343 4.35156,2.410157 8.71094,6.773437 13.0625,11.128906 5.60156,7.671875 -1.85156,4.21875 -11.78125,6.386719 -21.71094,8.554685 -14.26953,4.36719 -6.83203,0.18359 -8.50391,-3.76171 -10.17578,-7.70313 -4.9375,-5.972656 0.29688,-4.25 5.92968,-8.179688 11.5625,-12.113281 7.80078,-7.339844 4.03125,-2.570312 z m 0,0"
       id="path10385" />
    <path
       style="fill:none;stroke:#77457d;stroke-width:6;stroke-linecap:butt;stroke-linejoin:miter;stroke-miterlimit:10;stroke-opacity:0.501961"
       d="M 172.41406,32.058594 170.94531,40.742188 169.35156,46 l -1.72265,1.832031 -4.13672,0.855469 -6.55469,-0.121094 -4.79297,-0.988281 -3.03125,-1.863281 -5.30469,-5.207032 -7.58593,-8.558593 L 133.28906,26.75 135.01172,24.917969 143.67578,24 h 15.60938 l 9.32031,0.929688 3.02734,1.859374 z m 0,0"
       id="path10387" />
    <path
       style="fill:none;stroke:#77457d;stroke-width:6;stroke-linecap:butt;stroke-linejoin:miter;stroke-miterlimit:10;stroke-opacity:0.501961"
       d="m 162.9375,492.98828 0.17187,-0.0664 1.07813,0.59375 1.98047,1.24219 5.52344,3.5586 9.0664,5.86718 5.2461,4.44141 1.42578,3.01172 -0.49219,5.60156 -2.41797,8.19141 -2.72266,5.41406 -3.03125,2.63672 -7.3789,3.3789 -11.73047,4.11719 -7.62109,2.09375 -3.50782,0.0703 -4.07422,-1.86328 -4.64453,-3.78906 -1.79687,-3.83594 1.05078,-3.88281 5.30078,-9.10156 9.55078,-14.32422 5.8125,-8.70313 2.08594,-3.08203 z m 0,0"
       id="path10389" />
    <path
       style="fill:none;stroke:#77457d;stroke-width:6;stroke-linecap:butt;stroke-linejoin:miter;stroke-miterlimit:10;stroke-opacity:0.501961"
       d="m 157.24219,164.19531 15.20703,2.53516 9.61328,2.52344 4.02344,2.51562 3.79297,5.85156 3.5625,9.1875 0.58203,6.3086 -2.39453,3.42187 -8.56641,5.10938 -14.73438,6.79687 -9.96875,2.58985 -5.20312,-1.60938 -7.37109,-7.96094 -9.54297,-14.3125 -5.20313,-9.14062 -0.86328,-3.96875 2.32031,-4.08985 5.50782,-4.20703 4.97656,-2.28515 4.4375,-0.35547 z m 0,0"
       id="path10391" />
    <path
       style="fill:none;stroke:#77457d;stroke-width:6;stroke-linecap:butt;stroke-linejoin:miter;stroke-miterlimit:10;stroke-opacity:0.501961"
       d="m 201.875,274.45703 0.12109,2.76953 -0.0117,1.78125 -0.14453,0.79688 -0.47656,0.87109 -0.80859,0.94531 -0.83594,0.0508 -0.87109,-0.84765 -2.06641,-2.8711 -3.26172,-4.89062 -1.55859,-2.84375 0.14453,-0.79688 2.04687,0.19141 3.94532,1.17969 2.41015,1.01172 0.8711,0.84375 z m 0,0"
       id="path10393" />
    <path
       style="fill:none;stroke:#77457d;stroke-width:6;stroke-linecap:butt;stroke-linejoin:miter;stroke-miterlimit:10;stroke-opacity:0.501961"
       d="m 171.09375,112.07813 22.87891,-9.01563 13.89062,-5.476562 4.90234,-1.933594 2.45313,-0.964844 0.0625,0.25 0.12891,0.5 0.36328,1.40625 0.59375,2.324219 -0.75391,3.648441 -2.10156,4.98047 -6.2461,12.94921 -10.39843,20.91407 -7.84375,12.44531 -5.28516,3.97265 -9.78125,0.79297 -14.27734,-2.38281 -8.53516,-2.71094 -2.80469,-3.05078 -0.80078,-7.4414 1.19531,-11.83985 3.17969,-8.15625 5.16016,-4.46875 z m 0,0"
       id="path10395" />
    <path
       style="fill:none;stroke:#77457d;stroke-width:6;stroke-linecap:butt;stroke-linejoin:miter;stroke-miterlimit:10;stroke-opacity:0.501961"
       d="m 162.05859,548.60937 11.26172,-3.95312 7.36719,-1.51563 3.47266,0.91797 4.19921,4.57813 4.9336,8.23828 2.24219,6.57031 -0.44922,4.90625 -3.73438,9.78125 -7.02734,14.65625 -5.3125,8.58985 -3.60156,2.52734 -6.6836,-0.17578 -9.76953,-2.8711 -6.07422,-1.95312 -2.3789,-1.03125 -1.85547,-1.49609 -1.33203,-1.95704 -0.60157,-2.69921 0.12891,-3.44532 1.03125,-8.77734 1.93359,-14.11328 2.37891,-8.99219 2.82812,-3.87109 z m 0,0"
       id="path10397" />
    <path
       style="fill:none;stroke:#77457d;stroke-width:6;stroke-linecap:butt;stroke-linejoin:miter;stroke-miterlimit:10;stroke-opacity:0.501961"
       d="m 198.39062,652.16406 4.42969,7.89453 1.97266,5.86719 -0.48047,3.83984 -3.57813,6.92579 -6.67578,10.01171 -5.5,6.07813 -4.32422,2.14453 L 175.31641,696 h -13.50782 l -8.23437,-0.50781 -2.96485,-1.01172 -1.64453,-2.86719 -0.32031,-4.72656 1.52344,-4.28125 3.3789,-3.83594 9.72266,-8.51172 16.07813,-13.18359 10.23437,-7.16016 4.39453,-1.13281 z m 0,0"
       id="path10399" />
    <path
       style="fill:none;stroke:#77457d;stroke-width:6;stroke-linecap:butt;stroke-linejoin:miter;stroke-miterlimit:10;stroke-opacity:0.501961"
       d="m 202.25781,202.25 0.66797,0.38672 0.54688,2.3789 0.42578,4.38282 0.86718,12.21875 1.3086,20.05859 0.67969,12.32422 0.0469,4.59375 -0.52344,2.99219 -1.08984,1.38672 -1.4375,0.60937 -1.78125,-0.16797 -4.5,-1.16015 -7.22266,-2.15625 -5.30078,-2.6836 -3.3789,-3.20703 -5.95704,-8.00781 -8.54296,-12.8125 -3.58985,-8.51172 1.35547,-4.21484 8.11719,-5.53516 14.875,-6.85938 9.10156,-4.125 3.33203,-1.38671 z m 0,0"
       id="path10401" />
    <path
       style="fill:none;stroke:#77457d;stroke-width:6;stroke-linecap:butt;stroke-linejoin:miter;stroke-miterlimit:10;stroke-opacity:0.501961"
       d="m 201.73437,449.25781 7.84766,4 4.96094,3.28516 2.0664,2.57422 1.9375,5.28906 1.8086,8 0.8125,5.39844 -0.17188,2.79297 -1.39843,3.91015 -2.61719,5.02735 -2.35547,3.39453 -2.08594,1.76562 -4.60156,2.48047 -7.12109,3.20703 -5.32032,1.30078 -3.51953,-0.60547 -6.41015,-3.3125 -9.3086,-6.02343 -5.64844,-3.66797 -1.99609,-1.31641 -1.00391,-0.71484 -0.008,-0.11328 1.00391,-1.58203 2.01172,-3.04297 5.70312,-8.57422 9.39844,-14.09766 6.55078,-8.1289 3.69531,-2.16407 z m 0,0"
       id="path10403" />
    <path
       style="fill:none;stroke:#77457d;stroke-width:6;stroke-linecap:butt;stroke-linejoin:miter;stroke-miterlimit:10;stroke-opacity:0.501961"
       d="m 183.83203,24 h 2.08984 l 2.47266,1.808594 2.86328,3.621094 7.0625,10.257812 11.26172,16.898438 6.65234,10.679687 2.04297,4.460937 0.15235,4.199219 -1.73438,3.929688 -2.47265,1.179687 -3.20704,-1.574218 -8.22265,-6.425782 -13.23438,-11.273437 -7.85937,-7.867188 -2.48828,-4.464843 -0.4375,-7.007813 1.61718,-9.550781 1.20704,-5.800782 0.79296,-2.046874 z m 0,0"
       id="path10405" />
    <path
       style="fill:none;stroke:#77457d;stroke-width:6;stroke-linecap:butt;stroke-linejoin:miter;stroke-miterlimit:10;stroke-opacity:0.501961"
       d="m 218.94141,299.36719 13.47265,13.25781 8.21094,8.32031 2.94922,3.38672 1.60937,2.96484 0.28125,2.55079 -0.24218,1.65234 -0.75391,0.75781 -2.28906,0.8711 -3.8125,0.98046 -3.45703,-1.11328 -3.09766,-3.20703 -6.86719,-9.58594 -10.64062,-15.96484 -6.38672,-9.77734 -2.12891,-3.59766 -0.71484,-2.21094 0.70312,-0.82812 1.8711,0.92187 3.03906,2.66407 z m 0,0"
       id="path10407" />
    <path
       style="fill:none;stroke:#77457d;stroke-width:6;stroke-linecap:butt;stroke-linejoin:miter;stroke-miterlimit:10;stroke-opacity:0.501961"
       d="m 229.25391,401.5 5.2539,0.91406 3.4336,0.90235 1.60937,0.89062 1.93359,2.06641 2.25391,3.24218 0.37109,3.33985 -1.51953,3.4414 -5.43359,8.13282 -9.34375,12.8164 -6.42969,7.39453 -3.51953,1.97657 -5.29687,-0.82032 -7.07813,-3.60546 -3.34375,-3.625 0.39453,-3.63672 4.65235,-8.5 8.91015,-13.36719 5.97266,-8.01953 3.03515,-2.66797 z m 0,0"
       id="path10409" />
    <path
       style="fill:none;stroke:#77457d;stroke-width:6;stroke-linecap:butt;stroke-linejoin:miter;stroke-miterlimit:10;stroke-opacity:0.501961"
       d="m 216.31641,568.9375 12.32031,0.55078 7.5039,1.92969 2.6875,3.30859 1.45704,9.10156 0.22656,14.89063 -1.48438,9.61328 -3.19922,4.33984 -9.17578,4.84766 -15.14843,5.35547 -9.67969,2.60937 -4.21094,-0.13671 -4.35156,-3.0625 -4.4961,-5.98829 -1.96875,-5.22265 0.5586,-4.45703 3.82812,-9.63282 7.09766,-14.80859 5.63281,-8.92969 4.16016,-3.05468 z m 0,0"
       id="path10411" />
    <path
       style="fill:none;stroke:#77457d;stroke-width:6;stroke-linecap:butt;stroke-linejoin:miter;stroke-miterlimit:10;stroke-opacity:0.501961"
       d="m 203.44531,507.97266 6.75391,-3.03907 5.65625,-0.16015 4.55859,2.71875 9.54297,9.22265 14.52734,15.73047 8.23829,10.11328 1.94921,4.5 -1.73828,4.88282 -5.42578,5.26562 -4.70703,3.13672 -3.99219,1 -8.60156,0.20703 L 217,560.96094 l -8.57422,-1.28907 -3.94531,-1.98828 -4.57422,-5.33984 -5.20703,-8.69141 -2.88672,-6.20703 -0.56641,-3.72265 0.9961,-6.19922 2.55859,-8.67578 2.27734,-5.58985 1.9961,-2.51172 z m 0,0"
       id="path10413" />
    <path
       style="fill:none;stroke:#77457d;stroke-width:6;stroke-linecap:butt;stroke-linejoin:miter;stroke-miterlimit:10;stroke-opacity:0.501961"
       d="m 247.59375,354.17578 -4.18359,-6.27734 -2.19532,-3.89453 -0.21093,-1.52344 1.49218,-1.17188 3.19922,-0.82812 1.5625,1.57422 -0.0781,3.96875 -1.81641,11.65625 -3.55859,19.34765 -2.50782,11.6836 -1.46093,4.02343 -2.35157,1.73047 -3.24218,-0.5664 -1.13672,-1.59375 0.97265,-2.625 4.37891,-7.15235 7.78906,-11.67968 4.28125,-7.76563 0.76953,-3.84766 z m 0,0"
       id="path10415" />
    <path
       style="fill:none;stroke:#77457d;stroke-width:6;stroke-linecap:butt;stroke-linejoin:miter;stroke-miterlimit:10;stroke-opacity:0.501961"
       d="m 234.55078,121.41016 13.28125,13.76171 6.99219,10.03516 0.70703,6.30078 -4.63281,10.97656 -9.97657,15.64844 -6.9375,9.64453 -3.90234,3.63282 -6.0625,2.47265 -8.22266,1.3125 -5.10546,0.73047 -1.9961,0.14844 -1.54297,-0.23828 -1.08984,-0.625 -1.07813,-1.46094 -1.07421,-2.30469 -2.5,-6.21094 -3.92188,-10.12109 -1.32031,-8.28516 1.28906,-6.44921 5.60938,-13.21485 9.93359,-19.98047 7.45312,-10.65625 4.97266,-1.33593 z m 0,0"
       id="path10417" />
    <path
       style="fill:none;stroke:#77457d;stroke-width:6;stroke-linecap:butt;stroke-linejoin:miter;stroke-miterlimit:10;stroke-opacity:0.501961"
       d="m 256.49219,693.29297 -0.34375,1.40234 -0.27735,0.85547 -0.19922,0.30078 L 255.27734,696 h -0.58593 l -0.25782,-0.14844 0.0742,-0.30078 0.50391,-0.85547 0.9375,-1.40234 0.52734,-0.69922 h 0.12891 z m 0,0"
       id="path10419" />
    <path
       style="fill:none;stroke:#77457d;stroke-width:6;stroke-linecap:butt;stroke-linejoin:miter;stroke-miterlimit:10;stroke-opacity:0.501961"
       d="m 244.15234,209.77344 12.10157,9.92187 6.97265,6.79297 1.84766,3.67188 -0.82031,5.44531 -3.48438,7.21875 -3.70703,4.65625 -3.93359,2.09765 -9.39063,2.33204 -14.85937,2.57031 -9.14844,-0.42188 -3.44141,-3.41797 -2.32812,-10.96484 -1.21094,-18.51953 0.0664,-11.36719 1.33593,-4.22265 4.39453,-2.70704 7.45313,-1.1914 5.82031,0.34375 4.1875,1.86719 z m 0,0"
       id="path10421" />
    <path
       style="fill:none;stroke:#77457d;stroke-width:6;stroke-linecap:butt;stroke-linejoin:miter;stroke-miterlimit:10;stroke-opacity:0.501961"
       d="m 211.83594,631.24219 13.02343,-4.60547 6.96485,-1.38281 0.91406,1.82812 -3.92578,7.48828 -8.76172,13.14453 -5.78516,7.15235 -2.80859,1.16015 -3.57031,-3.28125 -4.33203,-7.73047 -2.625,-4.77734 -0.91407,-1.83203 -0.41796,-1.32031 0.0781,-0.81641 1.44141,-0.98437 2.80468,-1.16407 z m 0,0"
       id="path10423" />
    <path
       style="fill:none;stroke:#77457d;stroke-width:6;stroke-linecap:butt;stroke-linejoin:miter;stroke-miterlimit:10;stroke-opacity:0.501961"
       d="m 227.99609,262.75391 15.53125,-2.6875 9.88282,-0.6836 4.23828,1.32031 4.25,5.08204 4.2539,8.84375 1.75782,6.64453 -0.74219,4.4414 -4.22656,8.16016 -7.71485,11.88281 -6.10937,5.81641 -4.5,-0.25781 -8.89453,-6.66016 -13.28516,-13.07031 -8.07813,-8.28516 -2.8789,-3.49609 -1.51172,-3.3711 -0.14063,-3.24218 0.0586,-2.15625 0.26172,-1.06641 0.80859,-1.39453 1.35938,-1.72266 2.48828,-1.33594 3.61718,-0.94531 z m 0,0"
       id="path10425" />
    <path
       style="fill:none;stroke:#77457d;stroke-width:6;stroke-linecap:butt;stroke-linejoin:miter;stroke-miterlimit:10;stroke-opacity:0.501961"
       d="m 266.30469,420.33203 14.95703,3.5 9.09375,2.57031 3.23047,1.63672 1.67578,2.89063 0.11719,4.14453 -0.73047,3.77734 -1.58203,3.41406 -4.53907,7.60157 -7.5,11.78906 -6.23047,7.28906 -4.95703,2.78906 -10.29687,2.01172 -15.63281,1.23438 -9.66797,-0.0352 -3.70703,-1.30859 -2.67969,-4.32813 -1.65625,-7.33984 0.0352,-5.88672 1.72657,-4.42578 5.71875,-8.87891 9.71484,-13.32422 7.5,-7.71484 5.28906,-2.10547 z m 0,0"
       id="path10427" />
    <path
       style="fill:none;stroke:#77457d;stroke-width:6;stroke-linecap:butt;stroke-linejoin:miter;stroke-miterlimit:10;stroke-opacity:0.501961"
       d="m 243.37109,483.04687 15.71485,-1.23828 10.17578,0.94141 4.64062,3.12891 5.28907,9.48828 5.9375,15.83984 3.4375,10.15234 0.93359,4.46485 -0.32031,4.72656 -1.57422,4.98828 -1.7461,3.13281 -1.91796,1.27735 -4.64454,1.1289 -7.36718,0.97657 -6.07813,-1.14063 -4.78906,-3.26562 -9.87891,-9.74219 -14.97656,-16.21484 -8.85156,-10.3125 -2.72266,-4.40625 -0.22656,-4.37891 2.26562,-4.35156 3.0625,-2.77735 3.85157,-1.19531 z m 0,0"
       id="path10429" />
    <path
       style="fill:none;stroke:#77457d;stroke-width:6;stroke-linecap:butt;stroke-linejoin:miter;stroke-miterlimit:10;stroke-opacity:0.501961"
       d="m 269.33594,152.17578 2.3164,0.38281 1.73438,0.72657 1.15625,1.07031 2.11719,2.84375 3.07812,4.61719 2.53125,4.58203 1.98438,4.54297 4.08593,10.5664 6.1836,16.58594 2.73828,10.4375 -0.69922,4.28516 -5.08203,3.85546 -9.45703,3.42188 -7.01563,1.03516 -4.57031,-1.34766 -8.21484,-5.53906 -11.86329,-9.72266 -6.15625,-7.54297 -0.45703,-5.35937 4.64453,-10.32032 9.7461,-15.28515 6.16406,-9.23828 2.58203,-3.19141 z m 0,0"
       id="path10431" />
    <path
       style="fill:none;stroke:#77457d;stroke-width:6;stroke-linecap:butt;stroke-linejoin:miter;stroke-miterlimit:10;stroke-opacity:0.501961"
       d="m 272.21875,550.08984 7.34766,-0.97656 3.04296,1.53125 -1.25781,4.04297 -7.24219,11.9375 -13.22265,19.83594 -8.05078,10.65625 -2.875,1.47265 -1.53516,-5.74609 -0.19922,-12.96484 0.53125,-8.50391 1.26172,-4.04297 3.66406,-4.96875 6.07422,-5.89453 4.47266,-3.68359 2.875,-1.47266 z m 0,0"
       id="path10433" />
    <path
       style="fill:none;stroke:#77457d;stroke-width:6;stroke-linecap:butt;stroke-linejoin:miter;stroke-miterlimit:10;stroke-opacity:0.501961"
       d="m 300.48437,24.394531 -0.44921,0.425781 -1.90625,0.324219 -3.35938,0.21875 -9.29687,0.410157 -15.23047,0.601562 -9.32032,0.253906 -3.41015,-0.08984 -2.04688,-0.558593 -0.6875,-1.027344 1.33985,-0.625 3.35937,-0.21875 L 269.33984,24 h 16.36719 l 9.89063,0.04687 3.41015,0.08984 z m 0,0"
       id="path10435" />
    <path
       style="fill:none;stroke:#77457d;stroke-width:6;stroke-linecap:butt;stroke-linejoin:miter;stroke-miterlimit:10;stroke-opacity:0.501961"
       d="m 273.34766,347.35156 18.53515,4.31641 11.34766,2.86719 4.16015,1.42187 2.51563,1.87109 0.875,2.32032 0.0469,3.51562 -0.77734,4.71094 -2.64453,12.1875 -4.50391,19.66406 -2.77343,11.97656 -1.03516,4.28907 -0.6875,2.3164 -0.33594,0.34766 -1.8789,-0.17969 -3.41407,-0.71094 -9.51562,-2.17968 -15.61328,-3.65625 -9.75,-2.60938 -3.88282,-1.55859 -3.20312,-2.58985 -2.51953,-3.61718 -1.14844,-4.27344 0.22266,-4.92578 1.89453,-12.15235 3.5625,-19.37109 4.15234,-11.30078 4.73438,-3.22656 z m 0,0"
       id="path10437" />
    <path
       style="fill:none;stroke:#77457d;stroke-width:6;stroke-linecap:butt;stroke-linejoin:miter;stroke-miterlimit:10;stroke-opacity:0.501961"
       d="m 226.73437,82.308594 1.53907,2.3125 0.63672,1.460937 -0.26954,0.605469 -1.53125,0.570312 -2.79296,0.53125 -1.5625,0.01563 -0.33204,-0.496094 0.46094,-1.667969 1.25391,-2.839844 0.92969,-1.476562 0.59765,-0.113281 z m 0,0"
       id="path10439" />
    <path
       style="fill:none;stroke:#77457d;stroke-width:6;stroke-linecap:butt;stroke-linejoin:miter;stroke-miterlimit:10;stroke-opacity:0.501961"
       d="m 295.50391,46.816406 -1.4336,14.523438 -1.02734,8.847656 -0.6211,3.171875 -1.04296,1.722656 -1.46485,0.277344 -1.91015,-1.363281 -2.35938,-3.007813 -5.94531,-8.65625 -9.54297,-14.3125 -4.45703,-8.738281 0.62109,-3.171875 6.52735,-1.832031 12.4414,-0.488282 7.39844,1.257813 2.35547,3.003906 z m 0,0"
       id="path10441" />
    <path
       style="fill:none;stroke:#77457d;stroke-width:6;stroke-linecap:butt;stroke-linejoin:miter;stroke-miterlimit:10;stroke-opacity:0.501961"
       d="m 245.31641,110.18359 11.62109,17.42969 7.03516,10.58203 2.44921,3.73047 1.13282,1.84766 -0.19141,-0.0312 -1.70312,-1.66797 -3.22266,-3.30469 -9.03125,-9.34375 -14.84766,-15.38672 -9.04687,-9.48047 -3.25391,-3.57421 -1.79297,-2.441411 -0.33593,-1.308594 0.19921,-0.867187 0.73047,-0.433594 2.23828,-0.570313 3.7461,-0.707031 3.52344,1.433594 3.29296,3.585937 z m 0,0"
       id="path10443" />
    <path
       style="fill:none;stroke:#77457d;stroke-width:6;stroke-linecap:butt;stroke-linejoin:miter;stroke-miterlimit:10;stroke-opacity:0.501961"
       d="m 299.6875,86.605469 4.83203,4.421875 2.84766,2.96875 0.85547,1.515625 0.0117,2.089843 -0.83203,2.660158 -1,0.86719 -1.17578,-0.92188 -2.90625,-3.941405 -4.63672,-6.957031 -2.75,-4.238282 -0.85547,-1.515624 -0.10937,-0.820313 0.64062,-0.121094 0.90625,0.398438 1.17188,0.921875 z m 0,0"
       id="path10445" />
    <path
       style="fill:none;stroke:#77457d;stroke-width:6;stroke-linecap:butt;stroke-linejoin:miter;stroke-miterlimit:10;stroke-opacity:0.501961"
       d="m 278.71484,692.13281 14.2461,2.00781 7.07031,1.21485 -0.10547,0.42969 L 292.5,696 h -14.74219 l -8.89844,-0.21484 -3.05468,-0.42969 -1.27735,-1.21485 0.4961,-2.00781 1.82812,-1 h 3.15625 z m 0,0"
       id="path10447" />
    <path
       style="fill:none;stroke:#77457d;stroke-width:6;stroke-linecap:butt;stroke-linejoin:miter;stroke-miterlimit:10;stroke-opacity:0.501961"
       d="m 292.55078,288.91016 17.05469,1.67968 10.59375,1.42188 4.13281,1.16797 3.18359,2.46484 2.23438,3.76953 0.53125,3.96485 -1.16406,4.16015 -4.42188,9.91016 -7.67578,15.65625 -6.71484,9.03125 -5.75391,2.39844 -12.46094,-1.03516 -19.17187,-4.46484 -11.6875,-2.76172 -4.19922,-1.0586 -2.30859,-0.76562 -0.41797,-0.47656 -0.29297,-0.64454 -0.16797,-0.8125 -0.26563,-2.0625 -0.36328,-3.3125 0.67578,-3.39062 1.70704,-3.46094 5.02734,-8.15625 8.33984,-12.84765 6.89453,-7.6211 5.44141,-2.39453 z m 0,0"
       id="path10449" />
    <path
       style="fill:none;stroke:#77457d;stroke-width:6;stroke-linecap:butt;stroke-linejoin:miter;stroke-miterlimit:10;stroke-opacity:0.501961"
       d="m 301.05078,630.28516 2.55469,1.17187 1.91406,2.44922 1.27344,3.72266 2.32422,9.96875 3.375,16.21484 1.78125,10.19531 0.17968,4.17578 -1.17968,3.72657 -2.53516,3.27734 -3.17578,1.75781 -3.80859,0.24219 -9.53125,-0.94922 -15.2461,-2.14453 -9.28125,-1.34375 -3.32031,-0.53906 -1.78516,-0.45703 -0.24218,-0.3711 1.14843,-2.17187 2.53907,-3.96875 7.3164,-11.05469 12.09375,-18.14063 7.61719,-10.89062 3.14062,-3.63672 z m 0,0"
       id="path10451" />
    <path
       style="fill:none;stroke:#77457d;stroke-width:6;stroke-linecap:butt;stroke-linejoin:miter;stroke-miterlimit:10;stroke-opacity:0.501961"
       d="m 284.93359,227.55078 10.3125,-3.73437 7.08203,-1.25 3.85157,1.23437 5.74609,5.35938 7.64844,9.48828 4.55078,7.1289 1.44531,4.77344 0.28125,8.77734 -0.88281,12.78516 -2.29688,7.58594 -3.70312,2.39453 -10.04688,0.39062 -16.39062,-1.61328 -10.42578,-1.96484 -4.45703,-2.3125 -4.44141,-5.75391 -4.42187,-9.1875 -2.28516,-6.41015 -0.14453,-3.625 1.79297,-5.6836 3.73828,-7.73437 3.37109,-5.09766 3.01172,-2.45703 z m 0,0"
       id="path10453" />
    <path
       style="fill:none;stroke:#77457d;stroke-width:6;stroke-linecap:butt;stroke-linejoin:miter;stroke-miterlimit:10;stroke-opacity:0.501961"
       d="m 310.58984,457.1875 11.21094,11.55469 6.07422,8.11718 0.9375,4.67188 -2.94922,7.46484 -6.83203,10.25 -4.74609,6.62891 -2.65235,3.01172 -4.10156,3.40625 -5.55078,3.80078 -3.97266,0.70312 -2.39062,-2.39062 -3.9961,-8.67188 -5.60547,-14.95312 -2.67578,-10.22266 0.25,-5.48437 3.51563,-8.07422 6.78125,-10.65234 5.3164,-5.23047 3.85547,0.1914 z m 0,0"
       id="path10455" />
    <path
       style="fill:none;stroke:#77457d;stroke-width:6;stroke-linecap:butt;stroke-linejoin:miter;stroke-miterlimit:10;stroke-opacity:0.501961"
       d="m 309.42187,208.48828 -0.97265,0.84766 -0.80078,-0.0469 -0.62891,-0.9414 -1.28906,-3.08985 -1.95313,-5.23828 -0.87109,-2.70703 0.21094,-0.18359 1.5664,2.10546 2.92578,4.39063 1.67188,2.75391 0.41797,1.125 z m 0,0"
       id="path10457" />
    <path
       style="fill:none;stroke:#77457d;stroke-width:6;stroke-linecap:butt;stroke-linejoin:miter;stroke-miterlimit:10;stroke-opacity:0.501961"
       d="m 360.20703,163.22656 -0.19531,0.71875 -0.40235,0.67969 -0.60546,0.64844 -1.62891,1.47656 -2.64453,2.30078 -1.94922,0.88672 -1.25391,-0.53516 -2.22656,-2.66797 -3.20312,-4.80078 -1.29297,-2.72656 0.60547,-0.64844 3.32812,0.56641 6.03906,1.78125 3.64844,1.16016 1.25,0.53515 z m 0,0"
       id="path10459" />
    <path
       style="fill:none;stroke:#77457d;stroke-width:6;stroke-linecap:butt;stroke-linejoin:miter;stroke-miterlimit:10;stroke-opacity:0.501961"
       d="m 342.61328,567.80078 2.80469,0.64063 2.20312,1.07421 1.59375,1.50782 3.10938,3.95703 4.6289,6.40234 2.28125,4.88281 -0.0586,3.36329 -2.48437,6.32031 -4.91016,9.28515 -4.38672,6.07422 -3.86328,2.85938 -8.48438,3.46484 -13.11328,4.06641 -8.20703,2.35547 -3.30469,0.64843 -2.80468,-0.20703 -2.30469,-1.05859 -0.0195,-2.71094 2.26953,-4.37109 7.57812,-11.85156 12.89454,-19.33985 8.125,-11.67187 3.36718,-4.00391 z m 0,0"
       id="path10461" />
    <path
       style="fill:none;stroke:#77457d;stroke-width:6;stroke-linecap:butt;stroke-linejoin:miter;stroke-miterlimit:10;stroke-opacity:0.501961"
       d="m 307.53125,28.75 2.60937,-2.464844 2.36719,-1.492187 2.11328,-0.527344 L 319.30859,24 h 7.26172 l 5.48047,1.78125 3.70313,3.5625 6.86328,10.097656 10.02343,16.625 6.07422,10.191406 2.12891,3.75 1.01562,2.320313 -0.0976,0.882813 -0.44531,0.957031 -0.79297,1.027343 -2.20313,2.472657 -3.60937,3.921875 -3.55469,2.542968 -3.50781,1.175782 -8.12891,1.371094 -12.75391,1.570312 -8.27734,0.457031 -3.80859,-0.644531 -4.41016,-2.617188 -5.01172,-4.589843 -2.875,-4.492188 -0.73828,-4.398437 0.42188,-10.175782 1.57421,-15.945312 1.23438,-9.945312 0.89844,-3.945313 z m 0,0"
       id="path10463" />
    <path
       style="fill:none;stroke:#77457d;stroke-width:6;stroke-linecap:butt;stroke-linejoin:miter;stroke-miterlimit:10;stroke-opacity:0.501961"
       d="m 327.4375,96.226562 11.64062,-1.429687 7.375,1.382813 3.11329,4.203122 3.00781,12.61719 2.89844,21.03125 0.93359,12.53125 -1.02344,4.01953 -4.35547,0.87891 -7.68359,-2.26563 -5.5625,-2.71484 -3.4375,-3.17188 -5.89453,-7.85156 -8.35547,-12.53515 -4.91406,-8.1211 -1.46485,-3.71875 0.0156,-4.25781 1.5039,-4.80859 2.16016,-3.070318 2.81641,-1.335937 z m 0,0"
       id="path10465" />
    <path
       style="fill:none;stroke:#77457d;stroke-width:6;stroke-linecap:butt;stroke-linejoin:miter;stroke-miterlimit:10;stroke-opacity:0.501961"
       d="m 299.08984,527.76562 0.88282,-0.60546 0.39843,-0.15625 -0.0937,0.29296 -0.70312,1.13282 -1.31641,1.97265 -0.7539,1.05469 -0.1875,0.12891 0.12109,-0.6211 0.43359,-1.36718 0.35547,-0.89454 0.28125,-0.42578 z m 0,0"
       id="path10467" />
    <path
       style="fill:none;stroke:#77457d;stroke-width:6;stroke-linecap:butt;stroke-linejoin:miter;stroke-miterlimit:10;stroke-opacity:0.501961"
       d="m 351.37109,551.92969 -1.79297,4.60156 -1.20703,2.76562 -0.62109,0.9336 -0.86328,0.33984 -1.10547,-0.25 -0.36328,-0.62109 0.38672,-0.98438 1.64062,-2.66797 2.90235,-4.34765 1.5664,-2.14844 0.23828,0.0547 z m 0,0"
       id="path10469" />
    <path
       style="fill:none;stroke:#77457d;stroke-width:6;stroke-linecap:butt;stroke-linejoin:miter;stroke-miterlimit:10;stroke-opacity:0.501961"
       d="m 357.92578,638.55469 10.53906,17.89062 4.32813,10.96094 -1.875,4.03125 -10.57813,2.47656 -19.28906,0.92578 -12.04687,-1.05859 -4.8086,-3.04297 -3.98047,-9.08203 -3.14843,-15.12109 -0.63672,-9.57813 1.875,-4.03125 6.88672,-3.85937 11.90234,-3.69141 8.35547,-0.32813 4.80469,3.04297 z m 0,0"
       id="path10471" />
    <path
       style="fill:none;stroke:#77457d;stroke-width:6;stroke-linecap:butt;stroke-linejoin:miter;stroke-miterlimit:10;stroke-opacity:0.501961"
       d="m 342.16406,682.79687 21.76172,-1.04296 13.37891,-0.54688 4.99609,-0.043 3.26953,0.39453 1.54297,0.83594 1.05859,0.80859 0.57422,0.78516 0.85157,1.8125 1.13281,2.83594 0.66797,1.89844 0.19922,0.96093 0.004,1.3086 -0.19922,1.65625 -2.98437,1.00781 -5.77735,0.35547 L 366.37109,696 h -26.75781 l -16.26562,-0.0898 -5.76172,-0.1836 -2.95313,-0.51172 -0.14453,-0.84765 0.19922,-0.88282 0.53906,-0.91796 1.60156,-2.17579 2.65625,-3.4375 3.94922,-2.19531 5.23047,-0.96094 z m 0,0"
       id="path10473" />
    <path
       style="fill:none;stroke:#77457d;stroke-width:6;stroke-linecap:butt;stroke-linejoin:miter;stroke-miterlimit:10;stroke-opacity:0.501961"
       d="m 323.07812,425.62891 20.57422,1.15234 12.5625,0.80469 4.55469,0.46484 2.61328,0.74219 0.67969,1.01562 -0.63672,2.19141 -1.94922,3.35937 -5.86719,9.01563 -9.77734,14.67187 -7.1875,7.61719 -4.58984,0.57031 -8.11719,-5.71484 -11.64453,-12.00781 -7.08594,-7.77344 -2.52344,-3.53906 -1.32812,-4.03125 -0.12891,-4.51563 -0.0469,-2.77343 0.0351,-1.03516 0.17188,-0.67578 0.30469,-0.31641 2.38671,-0.0664 4.47657,0.17968 z m 0,0"
       id="path10475" />
    <path
       style="fill:none;stroke:#77457d;stroke-width:6;stroke-linecap:butt;stroke-linejoin:miter;stroke-miterlimit:10;stroke-opacity:0.501961"
       d="m 337.83203,371.40625 20.54688,4.90625 11.90234,4.4375 3.26562,3.97266 -1.01953,8.80078 -5.30078,13.6289 -5.28125,8.16016 -5.26172,2.69141 -12.25,0.80859 -19.24218,-1.07813 -11.25391,-2.52343 -3.26563,-3.97266 0.36719,-10.71484 4.00391,-17.46094 4.6289,-10.07422 5.25782,-2.69141 z m 0,0"
       id="path10477" />
    <path
       style="fill:none;stroke:#77457d;stroke-width:6;stroke-linecap:butt;stroke-linejoin:miter;stroke-miterlimit:10;stroke-opacity:0.501961"
       d="m 320.64844,223.18359 6.30078,9.44922 3.80078,5.74219 1.30859,2.03906 0.54688,1.04688 -0.20313,0.0625 -0.8789,-0.89844 -1.54688,-1.85156 -4.28125,-5.27735 -7.01562,-8.70703 -4.16407,-5.36719 -1.30468,-2.03906 -0.19141,-1.42187 0.92578,-0.80469 1.23438,0.52734 1.54687,1.85157 z m 0,0"
       id="path10479" />
    <path
       style="fill:none;stroke:#77457d;stroke-width:6;stroke-linecap:butt;stroke-linejoin:miter;stroke-miterlimit:10;stroke-opacity:0.501961"
       d="m 364,181.17969 2.69141,7.98437 1.17187,4.14453 -0.35547,0.3125 -2.35937,-3.11328 -4.35547,-6.53515 -2.46875,-4.125 -0.57813,-1.71094 0.54297,-1.57813 1.66406,-1.44531 1.29688,-0.0234 0.93359,1.39844 z m 0,0"
       id="path10481" />
    <path
       style="fill:none;stroke:#77457d;stroke-width:6;stroke-linecap:butt;stroke-linejoin:miter;stroke-miterlimit:10;stroke-opacity:0.501961"
       d="m 342.70312,307.25391 4.24219,0.33984 4.19922,1.68359 4.14844,3.02344 9.63281,8.39844 15.12109,13.77344 8.96485,9.23437 2.8125,4.70703 0.40625,6.44141 -2,8.17969 -1.44141,5.08593 -0.88281,1.98828 -1.5,1.55079 -2.12109,1.11328 -3.67188,0.10547 -5.21875,-0.90235 -13.73437,-3.10547 -22.25,-5.3125 -13.59375,-3.45703 L 320.875,358.5 318,356.625 l -0.8125,-2.15625 0.34766,-3.01172 1.5,-3.87891 4.65625,-9.90625 7.8125,-15.9375 5.19921,-9.64062 2.58204,-3.33984 z m 0,0"
       id="path10483" />
    <path
       style="fill:none;stroke:#77457d;stroke-width:6;stroke-linecap:butt;stroke-linejoin:miter;stroke-miterlimit:10;stroke-opacity:0.501961"
       d="m 335.50781,248.94531 1.00391,-0.29297 1.66797,1.40625 2.33203,3.11328 6.10547,8.96094 9.8789,14.81641 5.46485,9.34375 1.05859,3.86719 -1.94922,3.54687 -4.94531,3.23047 -3.48438,1.92187 -2.01953,0.61719 -3.24609,0.125 -4.47266,-0.35937 -2.96875,-0.64844 -1.47265,-0.94141 -1.92578,-2.48437 -2.39063,-4.02735 -1.35156,-3.8789 -0.3125,-3.72656 0.30469,-8.54297 0.92968,-13.36328 0.66797,-8.14454 0.41406,-2.92578 z m 0,0"
       id="path10485" />
    <path
       style="fill:none;stroke:#77457d;stroke-width:6;stroke-linecap:butt;stroke-linejoin:miter;stroke-miterlimit:10;stroke-opacity:0.501961"
       d="m 399.85937,28.636719 1.09766,4.992187 -0.64062,4.023438 -2.3711,3.050781 -7.27344,6.15625 -12.17187,9.261719 -8.3125,4.09375 -4.44922,-1.070313 -6.51953,-7.660156 -8.58984,-14.25 -3.10938,-8.652344 2.375,-3.054687 L 360.91406,24 h 19.66406 l 12.0586,0.535156 4.44922,1.070313 z m 0,0"
       id="path10487" />
    <path
       style="fill:none;stroke:#77457d;stroke-width:6;stroke-linecap:butt;stroke-linejoin:miter;stroke-miterlimit:10;stroke-opacity:0.501961"
       d="m 386.47266,92.324219 21.73046,12.386721 12.42579,8.71094 3.125,5.03125 -2.01954,8.07421 -7.15625,11.10547 -5.89062,7.07813 -4.62891,3.05078 -9.53125,3.08203 -14.43359,3.12109 -9.10547,-0.60156 -3.78125,-4.32031 -3.49219,-13.80078 -3.20703,-23.28125 -1.62109,-14.496096 -0.0274,-5.699219 1.51563,-4.519531 3.07031,-3.328125 4.19141,-0.695313 5.3125,1.941406 z m 0,0"
       id="path10489" />
    <path
       style="fill:none;stroke:#77457d;stroke-width:6;stroke-linecap:butt;stroke-linejoin:miter;stroke-miterlimit:10;stroke-opacity:0.501961"
       d="m 375.14844,514.49219 1.52343,-2.28125 2.17188,-1.25782 2.82422,-0.22656 7.23437,0.49219 11.64844,1.21875 7.55859,1.41797 3.47266,1.61328 4.00781,3.95703 4.54297,6.30859 2.76953,4.08204 0.98828,1.86328 0.52735,2.12109 0.0703,2.38281 -1.57031,3.11719 -3.21094,3.85156 -9.12891,9.72266 -15.04687,15.59375 -9.64453,9.46875 -4.24219,3.34375 -4.49609,1.67969 -4.75,0.0195 -3.375,-0.66797 -2,-1.35547 -3.28907,-3.84375 -4.57812,-6.33984 -2.07422,-5.65625 0.42969,-4.97657 3.51172,-10.9375 6.58984,-16.89843 4.16406,-10.50391 1.74219,-4.10937 z m 0,0"
       id="path10491" />
    <path
       style="fill:none;stroke:#77457d;stroke-width:6;stroke-linecap:butt;stroke-linejoin:miter;stroke-miterlimit:10;stroke-opacity:0.501961"
       d="m 372.72266,590.98047 4.69921,-0.0195 4.3086,1.24609 3.91797,2.51172 8.75,7.11719 13.58984,11.72265 8.26563,7.26953 2.95312,2.8125 1.56641,2.10157 0.17968,1.39453 -1.04296,2.59765 -2.26563,3.79688 -6.50781,10.0625 -10.75,16.32422 -6.6211,9.85937 -2.48828,3.39844 -1.67578,1.46875 -0.86328,-0.46484 -1.77344,-2.41016 -2.6875,-4.34766 -7.1875,-12.09375 -11.67968,-19.83203 -6.57422,-13.01953 -1.46875,-6.20312 1.67968,-7.67188 4.83204,-9.1289 3.43359,-5.54688 2.04297,-1.95703 z m 0,0"
       id="path10493" />
    <path
       style="fill:none;stroke:#77457d;stroke-width:6;stroke-linecap:butt;stroke-linejoin:miter;stroke-miterlimit:10;stroke-opacity:0.501961"
       d="m 416.42578,464.01562 3.30859,7.35157 1.56641,5.48437 -0.17187,3.625 -2.14063,6.58985 -4.11328,9.55468 -3.54688,5.69141 -2.97656,1.82812 -6.38281,0.40235 -9.78516,-1.02344 -4.80468,-2.32422 0.17187,-3.62109 5.37891,-9.75391 10.58984,-15.88281 6.78125,-8.85547 2.98047,-1.82812 z m 0,0"
       id="path10495" />
    <path
       style="fill:none;stroke:#77457d;stroke-width:6;stroke-linecap:butt;stroke-linejoin:miter;stroke-miterlimit:10;stroke-opacity:0.501961"
       d="m 379.50391,311.46484 10.12109,15.1836 6.14062,9.21875 2.16016,3.26172 1.0625,1.64453 -0.043,0.0273 -1.51953,-1.34375 -2.99609,-2.71484 -8.46485,-7.70313 -13.9375,-12.69531 -8.05078,-7.97656 -2.15625,-3.25782 0.84766,-2.89062 3.85547,-2.51563 3.42578,0.0977 2.99609,2.71484 z m 0,0"
       id="path10497" />
    <path
       style="fill:none;stroke:#77457d;stroke-width:6;stroke-linecap:butt;stroke-linejoin:miter;stroke-miterlimit:10;stroke-opacity:0.501961"
       d="m 387.8125,379.95703 1.92187,-1.00781 1.375,-0.46094 0.83594,0.0859 1.41016,0.74609 1.98047,1.40625 0.16406,2.41016 -1.65234,3.41406 -5.66797,8.97266 -9.6875,14.52734 -5.87891,8.82031 -2.08203,3.10938 -1.04688,1.54297 -0.0117,-0.0234 0.60937,-1.60938 1.24219,-3.19921 3.51953,-9.05469 5.80078,-14.90625 3.72656,-9.15625 1.65235,-3.41016 z m 0,0"
       id="path10499" />
    <path
       style="fill:none;stroke:#77457d;stroke-width:6;stroke-linecap:butt;stroke-linejoin:miter;stroke-miterlimit:10;stroke-opacity:0.501961"
       d="m 381.21875,161.90625 14.14844,-3.05859 9.71875,-0.0547 5.29297,2.94531 7.92578,9.87109 10.55859,16.80079 6.01172,10.85546 1.46484,4.90235 -1.13281,5.49609 -3.72266,6.08594 -3.375,4.11328 -3.01953,2.13672 -6.69922,3.01562 -10.375,3.89063 -6.59375,2.21875 -2.80468,0.54297 -2.76953,-0.39844 -2.72266,-1.34766 -1.81641,-1.05859 -0.90625,-0.76953 -1.20312,-1.51563 -1.50391,-2.2539 -1.61328,-3.44922 -1.73047,-4.64844 -4.14453,-12.04297 -6.55859,-19.43359 -3.96485,-11.875 -1.36718,-4.3125 -0.58985,-2.49609 0.1836,-0.6875 1.6289,-0.74219 3.07031,-0.80078 z m 0,0"
       id="path10501" />
    <path
       style="fill:none;stroke:#77457d;stroke-width:6;stroke-linecap:butt;stroke-linejoin:miter;stroke-miterlimit:10;stroke-opacity:0.501961"
       d="m 381.96484,63.535156 13.03907,-9.917968 8.71093,-5.726563 4.39063,-1.539063 5.91797,0.601563 7.44922,2.734375 4.84375,3.785156 2.24218,4.835938 2.625,12.332031 3.01172,19.832031 1.71875,12.093754 0.4336,4.35547 -0.27735,2.42187 -0.99219,0.49609 -3.01562,-1.07812 -5.04297,-2.64844 -13.78906,-7.746092 -22.53516,-12.84375 -13.67969,-7.828126 -4.82421,-2.816406 -2.39454,-1.558594 0.0352,-0.300781 1.41406,-1.246093 2.80078,-2.1875 z m 0,0"
       id="path10503" />
    <path
       style="fill:none;stroke:#77457d;stroke-width:6;stroke-linecap:butt;stroke-linejoin:miter;stroke-miterlimit:10;stroke-opacity:0.501961"
       d="m 436.75391,556.94141 9.13281,11.72265 4.39844,8.51172 -0.32813,5.29688 -5.5,9.15234 -10.66797,13.00781 -7.78515,6.76953 -4.89454,0.53516 -8.53906,-4.98828 -12.17969,-10.51172 -5.92578,-7.90625 0.32813,-5.30078 7.02344,-9.75781 13.71875,-14.21485 9.30859,-7.375 4.89453,-0.53515 z m 0,0"
       id="path10505" />
    <path
       style="fill:none;stroke:#77457d;stroke-width:6;stroke-linecap:butt;stroke-linejoin:miter;stroke-miterlimit:10;stroke-opacity:0.501961"
       d="m 410.83984,236.39062 9.48047,-3.55468 6.80469,-0.55469 4.13281,2.44922 6.96485,8.71484 9.80078,14.97656 5.21875,10.10547 0.64453,5.23438 -3.07813,7.34375 -6.79687,9.44922 -5.47266,3.71875 -4.15234,-2.01953 -8.36328,-10.4375 -12.57813,-18.86329 -7.625,-11.66796 -2.67578,-4.47657 -1.28906,-3.23828 0.0937,-2.01172 1.07031,-1.60156 2.05469,-1.19141 z m 0,0"
       id="path10507" />
    <path
       style="fill:none;stroke:#77457d;stroke-width:6;stroke-linecap:butt;stroke-linejoin:miter;stroke-miterlimit:10;stroke-opacity:0.501961"
       d="m 418.72266,30.289062 4.51562,6.773438 2.08203,3.871094 -0.34765,0.96875 -3.25,-0.644532 L 415.57422,39 l -3.83985,-1.855469 -1.52734,-1.453125 -1.26172,-2.984375 -0.99219,-4.515625 -0.32421,-2.738281 0.35156,-0.96875 L 409.46875,24 h 2.62109 l 2.07813,0.726562 1.53125,1.449219 z m 0,0"
       id="path10509" />
    <path
       style="fill:none;stroke:#77457d;stroke-width:6;stroke-linecap:butt;stroke-linejoin:miter;stroke-miterlimit:10;stroke-opacity:0.501961"
       d="m 402.51172,348.04297 0.49219,-0.33203 0.61718,0.26953 0.73438,0.875 1.83594,2.64062 2.9414,4.41016 1.39844,3.25391 -0.13672,2.09765 -1.86328,3.73828 -3.58594,5.37891 -2.375,3.12891 -1.16406,0.87109 -1.5,-0.21484 -1.83594,-1.30469 -0.90234,-1.66406 0.0312,-2.02735 1.01172,-5.08984 1.99609,-8.15235 1.26172,-4.98437 0.5313,-1.82031 z m 0,0"
       id="path10511" />
    <path
       style="fill:none;stroke:#77457d;stroke-width:6;stroke-linecap:butt;stroke-linejoin:miter;stroke-miterlimit:10;stroke-opacity:0.501961"
       d="m 452.32031,426.46094 12.65625,10.875 7.48047,7.01953 2.30859,3.16797 0.21094,3.52734 -1.88672,3.89063 -2.72265,2.91406 -3.55469,1.92969 -9.13281,3.52343 -14.70313,5.11719 -9.33203,2.21094 -3.95703,-0.69141 -3.85547,-4.51953 -3.75391,-8.34375 -1.45703,-6.30078 0.84375,-4.26172 4.26953,-7.90234 7.69141,-11.53907 6.02734,-5.84375 4.35938,-0.14062 z m 0,0"
       id="path10513" />
    <path
       style="fill:none;stroke:#77457d;stroke-width:6;stroke-linecap:butt;stroke-linejoin:miter;stroke-miterlimit:10;stroke-opacity:0.501961"
       d="m 434.22656,637.26953 7.96875,3.17969 3.75391,3.55469 -0.45703,3.92968 -5.27735,9.53907 -10.10547,15.15625 -6.96093,9.19921 -3.82813,3.25 -5.78906,1.62891 -7.75,0.008 -4.79688,-0.21484 -1.83593,-0.44531 -1.33594,-1.25782 -0.82813,-2.07421 0.64454,-3.00391 2.11718,-3.92969 6.41797,-10.10156 10.71485,-16.26563 7.35546,-9.53515 4.00391,-2.80469 z m 0,0"
       id="path10515" />
    <path
       style="fill:none;stroke:#77457d;stroke-width:6;stroke-linecap:butt;stroke-linejoin:miter;stroke-miterlimit:10;stroke-opacity:0.501961"
       d="m 404.61719,694.71875 5.58593,-0.008 3.35938,0.043 1.13281,0.0976 0.41797,0.27344 -0.30469,0.45312 -0.7539,0.27735 -1.21094,0.0977 -3.27344,0.0469 h -5.33594 L 401,695.95312 l -1.13281,-0.0977 -0.53907,-0.26953 0.0508,-0.44922 0.63281,-0.26953 1.20703,-0.0977 z m 0,0"
       id="path10517" />
    <path
       style="fill:none;stroke:#77457d;stroke-width:6;stroke-linecap:butt;stroke-linejoin:miter;stroke-miterlimit:10;stroke-opacity:0.501961"
       d="m 438.03516,117.30078 1.33593,-0.66015 2.39844,1.23046 3.46484,3.125 9.15235,9.1875 14.83594,15.25391 7.94921,10.67969 1.06641,6.10547 -4.41016,9.67578 -9.8789,13.24609 -6.35547,8.11719 -2.82813,2.99219 -3.07812,1.85156 -3.32813,0.71484 -3.14843,-1.36328 -2.97266,-3.44141 -6.76172,-10.11328 -10.54297,-16.78125 -5.59375,-11.45312 -0.63281,-6.11719 3.47266,-8.94141 7.57812,-11.76562 4.7461,-7.21484 1.91015,-2.66407 z m 0,0"
       id="path10519" />
    <path
       style="fill:none;stroke:#77457d;stroke-width:6;stroke-linecap:butt;stroke-linejoin:miter;stroke-miterlimit:10;stroke-opacity:0.501961"
       d="m 443.67187,476.65234 14.55469,-5.0625 9.39453,-1.46875 4.23438,2.12891 4.71094,8.5625 5.19531,14.99609 1.02734,9.70313 -3.13672,4.40625 -11.48047,4.98437 -19.83203,5.57032 -12.48047,2.76562 -5.13281,-0.0352 -4.6289,-2.8789 -4.12891,-5.72656 -2.05469,-4.52344 0.0156,-3.32422 2.11328,-6.54688 4.20703,-9.77343 4.11328,-6.47657 4.01953,-3.17968 z m 0,0"
       id="path10521" />
    <path
       style="fill:none;stroke:#77457d;stroke-width:6;stroke-linecap:butt;stroke-linejoin:miter;stroke-miterlimit:10;stroke-opacity:0.501961"
       d="m 456.75,99.097656 -6.34375,3.156254 -4.11719,0.16015 -1.89062,-2.839841 -2.19141,-9.621094 -2.49219,-16.40625 -0.5664,-8.542969 1.35937,-0.675781 5.09766,6.285156 8.83203,13.25 4.67969,8.378907 0.53515,3.515624 z m 0,0"
       id="path10523" />
    <path
       style="fill:none;stroke:#77457d;stroke-width:6;stroke-linecap:butt;stroke-linejoin:miter;stroke-miterlimit:10;stroke-opacity:0.501961"
       d="m 469.57422,584.96484 9.05469,1.17969 4.26171,2.57031 -0.52734,3.95313 -6.02344,10.61719 -11.51562,17.27343 -7.9375,10.11328 -4.35547,2.94532 -6.58594,-0.28516 -8.8164,-3.51562 -5.36719,-2.2461 -1.91797,-0.97656 -1.02344,-1 -0.13281,-1.02344 1.14062,-2.11328 2.41797,-3.20312 6.91407,-8.55469 11.41015,-13.91406 7.90235,-8.32032 4.38281,-2.72656 z m 0,0"
       id="path10525" />
    <path
       style="fill:none;stroke:#77457d;stroke-width:6;stroke-linecap:butt;stroke-linejoin:miter;stroke-miterlimit:10;stroke-opacity:0.501961"
       d="M 449.32812,206.79687 453.02734,206 l 4.1875,0.58203 4.67188,1.96484 11.38281,5.95313 18.09766,9.94922 10.80468,7.16015 3.50391,4.36719 0.88672,7.40235 -1.73047,10.4414 -2.52734,6.51172 -3.3125,2.58594 -8.53125,2.10937 -13.73828,1.63282 -9.41407,-0.64454 -5.08203,-2.91796 -7.53125,-9.08594 -9.98047,-15.25391 -5.66406,-9.90234 -1.35547,-4.54688 1.14844,-5.25781 3.65234,-5.97266 2.61719,-3.71093 1.57422,-1.44922 z m 0,0"
       id="path10527" />
    <path
       style="fill:none;stroke:#77457d;stroke-width:6;stroke-linecap:butt;stroke-linejoin:miter;stroke-miterlimit:10;stroke-opacity:0.501961"
       d="m 501.39453,521.99219 10.86328,5.68359 6.57813,3.52344 2.29297,1.37109 1.05859,1.04688 -0.16797,0.71875 -1.22266,2.11718 -2.27734,3.51563 -6.36719,9.60156 -10.45703,15.6836 -7.48828,9.3789 -4.51562,3.0625 -7.57032,0.83985 -10.625,-1.38672 -7.53906,-2.24219 -4.45703,-3.09766 -7.31641,-8.07812 -10.17578,-13.0625 -6.18359,-8.12891 -2.19531,-3.19531 -1.1211,-2.52344 -0.0508,-1.84765 2.17578,-1.74219 4.40625,-1.63672 12.50781,-3.71484 20.61719,-5.78516 13.67969,-2.90625 6.74609,-0.0234 z m 0,0"
       id="path10529" />
    <path
       style="fill:none;stroke:#77457d;stroke-width:6;stroke-linecap:butt;stroke-linejoin:miter;stroke-miterlimit:10;stroke-opacity:0.501961"
       d="m 472.89844,383.69531 10.15234,1.81641 6.62109,2.76562 3.09375,3.71875 3.69141,9.62891 4.28906,15.54297 1.76563,9.8125 -0.76172,4.08984 -4.29688,3.81641 -7.83203,3.53906 -6.15625,0.94922 -4.47656,-1.64453 -8.76562,-6.4336 -13.0586,-11.22265 -7.23437,-7.84766 -1.41407,-4.48047 2.51563,-7.07422 6.44922,-9.67578 5.0039,-5.67968 3.5586,-1.6836 z m 0,0"
       id="path10531" />
    <path
       style="fill:none;stroke:#77457d;stroke-width:6;stroke-linecap:butt;stroke-linejoin:miter;stroke-miterlimit:10;stroke-opacity:0.501961"
       d="m 477.39453,274.63281 14.22266,-1.6875 9.18359,-0.26953 4.14844,1.15234 4.64062,4.10157 5.13282,7.05859 3.15234,5.03516 1.16406,3.01953 0.73438,5.01953 0.30078,7.02734 -0.0469,4.64844 -0.39843,2.26563 -1.27735,2.91406 -2.15625,3.55469 -3.45703,2.39453 -4.76172,1.23828 -12.41406,1.71875 -20.06641,2.20703 -12.72265,0.52734 -5.37891,-1.14843 -5.21875,-4.36329 -5.04687,-7.57421 -2.25,-5.73047 0.55078,-3.89063 4.07812,-7.23828 7.61328,-10.58203 6.14844,-6.60938 4.67578,-2.6289 z m 0,0"
       id="path10533" />
    <path
       style="fill:none;stroke:#77457d;stroke-width:6;stroke-linecap:butt;stroke-linejoin:miter;stroke-miterlimit:10;stroke-opacity:0.501961"
       d="m 513.70312,338.51562 0.79688,9.21094 -0.30469,6.46094 -1.40625,3.70703 -4.38672,5.89453 -7.36718,8.08203 -5.44532,4.73438 -3.51953,1.38281 -6.28906,-0.11719 -9.05859,-1.61718 -5.12891,-1.53516 -1.20313,-1.45313 1.11719,-3.30859 3.44141,-5.16406 1.48047,-4.05078 -0.48438,-2.9375 -3.08984,-5.74219 -5.69922,-8.54688 -1.54297,-5.40234 2.60938,-2.25 10.25,-2.10937 17.88281,-1.96875 10.9414,-0.20704 4.00391,1.55469 z m 0,0"
       id="path10535" />
    <path
       style="fill:none;stroke:#77457d;stroke-width:6;stroke-linecap:butt;stroke-linejoin:miter;stroke-miterlimit:10;stroke-opacity:0.501961"
       d="m 478.26953,119.61328 12.01953,18.02734 6.86328,10.97657 1.70313,3.91797 -1.1836,2.09375 -4.0664,0.26562 -4.03125,-1.44141 -4,-3.15625 -9.28906,-9.07421 -14.58204,-14.98828 -8.14453,-9.45704 -1.70703,-3.92187 2.46485,-3.60938 6.63281,-3.30468 5.3164,-0.0742 3.9961,3.15625 z m 0,0"
       id="path10537" />
    <path
       style="fill:none;stroke:#77457d;stroke-width:6;stroke-linecap:butt;stroke-linejoin:miter;stroke-miterlimit:10;stroke-opacity:0.501961"
       d="m 495.62109,162.78125 5.67969,-0.37109 3.76172,0.25 1.85156,0.87109 2.40625,2.66016 2.96094,4.4414 2.07812,4.28125 1.1875,4.12891 1.88282,9.46484 2.58203,14.8086 1.17578,9.35156 -0.22656,3.89062 -1.9375,3.625 -3.64844,3.35547 -4.04688,1.03125 -4.45312,-1.30078 -10.79297,-5.35937 -17.13281,-9.41797 -9.37891,-7.08985 -1.625,-4.76562 3.96875,-8.79297 9.5586,-12.81641 6.41406,-7.82031 3.26562,-2.82812 z m 0,0"
       id="path10539" />
    <path
       style="fill:none;stroke:#77457d;stroke-width:6;stroke-linecap:butt;stroke-linejoin:miter;stroke-miterlimit:10;stroke-opacity:0.501961"
       d="m 492.51953,445.89453 8.48828,-3.83594 6.54297,-0.0664 4.59766,3.70703 8.78906,12.41406 12.97656,21.125 7.23047,13.80078 1.48438,6.46875 -2.27735,7.76563 -6.04687,9.0664 -3.7461,5.5586 -1.44531,2.04687 -1.08203,1.27344 -0.71484,0.49609 -1.61719,-0.32031 -2.52735,-1.13281 -6.80078,-3.46485 -11.07422,-5.78906 -7.34375,-5.30078 -3.60546,-4.8125 -4.69141,-10.73047 -5.76563,-16.65234 -3.27343,-10.58594 -0.77735,-4.51172 0.67969,-4.45703 2.13281,-4.40625 2.20703,-3.08594 2.27735,-1.76953 z m 0,0"
       id="path10541" />
    <path
       style="fill:none;stroke:#77457d;stroke-width:6;stroke-linecap:butt;stroke-linejoin:miter;stroke-miterlimit:10;stroke-opacity:0.501961"
       d="m 535.07812,372.84375 16.20313,10.70312 9.61719,7.00782 3.03515,3.3164 0.5,4.04297 -2.03906,4.76953 -3.04297,3.71875 -4.05078,2.66797 -10.45312,5.17969 -16.85938,7.6875 -10.69531,3.00391 -4.53125,-1.67579 -4.40235,-8.59375 -4.28125,-15.50781 -1.85156,-10.23437 0.57813,-4.96094 3.77734,-6.30859 6.97266,-7.64844 5.96875,-3.5 4.96875,0.65625 z m 0,0"
       id="path10543" />
    <path
       style="fill:none;stroke:#77457d;stroke-width:6;stroke-linecap:butt;stroke-linejoin:miter;stroke-miterlimit:10;stroke-opacity:0.501961"
       d="m 537.52344,214.04297 -3.8711,0.17187 -2.5,-0.76172 -1.1289,-1.69531 -1.27344,-4.89844 -1.41016,-8.08984 -0.28906,-4.06641 0.82813,-0.0391 3.05468,3.94141 5.27735,7.92187 2.79297,4.82422 0.30078,1.73438 z m 0,0"
       id="path10545" />
    <path
       style="fill:none;stroke:#77457d;stroke-width:6;stroke-linecap:butt;stroke-linejoin:miter;stroke-miterlimit:10;stroke-opacity:0.501961"
       d="m 520.22266,229.95312 4.21875,-3.88671 3.23828,-2.38672 2.24609,-0.89453 4.26563,-0.58594 6.27734,-0.28125 4.89453,1.45703 3.51563,3.19141 6.82031,9.1914 10.125,15.19141 4.26172,9.98047 -1.60938,4.76953 -9.625,5.92969 -17.63672,7.08203 -11.23047,3.58203 -4.82421,0.082 -4.85157,-3.3125 -4.88281,-6.70313 -2.75781,-5.29296 -0.64063,-3.88282 0.625,-7.63672 1.89453,-11.40234 1.60157,-7.33594 1.30859,-3.27734 z m 0,0"
       id="path10547" />
    <path
       style="fill:none;stroke:#77457d;stroke-width:6;stroke-linecap:butt;stroke-linejoin:miter;stroke-miterlimit:10;stroke-opacity:0.501961"
       d="m 567,426.36328 5.73437,11.83984 2.76172,8.38672 -0.20703,4.9336 -3.44922,8.0664 -6.69531,11.19141 -4.08984,6.76172 -1.47657,2.33203 -0.84375,1.01172 -0.20703,-0.3086 -0.40234,0.23438 -0.60547,0.77734 -1.61328,2.35547 -2.625,3.92969 -2.87109,0.30078 -3.125,-3.32812 -7.54297,-11.40235 -11.96094,-19.47656 -5.57813,-12.58984 0.8125,-5.71485 8.28125,-6.44531 15.75,-7.17969 10.17969,-3.09375 4.60156,1 z m 0,0"
       id="path10549" />
    <path
       style="fill:none;stroke:#77457d;stroke-width:6;stroke-linecap:butt;stroke-linejoin:miter;stroke-miterlimit:10;stroke-opacity:0.501961"
       d="m 541.6875,322.33984 16.6875,5.29688 10.35156,5.0664 4.01172,4.83594 3.01953,11.04688 2.02735,17.26172 0.92187,10.67968 -0.19141,4.10157 -1.55078,2.98437 -2.91015,1.86719 -3.57422,-0.0586 -4.23438,-1.98437 -10.54687,-6.55859 -16.85156,-11.13282 -10.32813,-7.83984 -3.79687,-4.55469 -2.33985,-7.33984 -0.8789,-10.1211 -0.32422,-6.48437 0.22265,-2.85156 1.07813,-3.01172 1.92187,-3.17578 2.95703,-1.35938 3.98829,0.45313 z m 0,0"
       id="path10551" />
    <path
       style="fill:none;stroke:#77457d;stroke-width:6;stroke-linecap:butt;stroke-linejoin:miter;stroke-miterlimit:10;stroke-opacity:0.501961"
       d="m 586.08984,281.34375 6.81641,10.22266 4.12891,6.41406 1.44531,2.60547 0.6914,2.26953 -0.0664,1.9375 -0.87891,1.86719 -1.6914,1.80078 -4.76172,4.1289 -7.82813,6.46485 -6.5664,3.34765 -5.3086,0.23047 -11.12109,-2.57031 -16.94141,-5.37891 -10.3125,-3.89843 -3.68359,-2.41797 -1.96875,-4.16407 -0.25391,-5.90234 1.80469,-4.37109 3.86328,-2.83594 11.06641,-5.08984 18.26953,-7.33594 11.82422,-3.36328 5.3789,0.62109 z m 0,0"
       id="path10553" />
    <path
       style="fill:none;stroke:#77457d;stroke-width:6;stroke-linecap:butt;stroke-linejoin:miter;stroke-miterlimit:10;stroke-opacity:0.501961"
       d="m 596.39062,537.37109 z m 0,0"
       id="path10555" />
    <path
       style="fill:none;stroke:#77457d;stroke-width:6;stroke-linecap:butt;stroke-linejoin:miter;stroke-miterlimit:10;stroke-opacity:0.501961"
       d="m 593.54687,454.85547 9.54297,1.24219 6.14453,1.66015 2.74219,2.07422 2.9961,5.25781 3.25,8.44141 0.78515,6.58203 -1.6875,4.73047 -6.40234,9.17578 -11.11719,13.62891 -6.96094,8.21093 -2.79687,2.80079 -2.3711,1.11328 -1.9414,-0.56641 -1.92969,-1.47266 -1.92187,-2.38281 -4.48047,-6.46484 -7.03125,-10.55078 -3.48828,-7.71094 0.0586,-4.87109 3.67578,-8.53516 7.29688,-12.19531 5.45312,-7.26953 3.60547,-2.34766 z m 0,0"
       id="path10557" />
    <path
       style="fill:none;stroke:#77457d;stroke-width:6;stroke-linecap:butt;stroke-linejoin:miter;stroke-miterlimit:10;stroke-opacity:0.501961"
       d="m 577.9375,392.49219 3.69141,-2.36719 3.05859,-1.41406 2.43359,-0.45703 5.04297,-0.11719 7.65625,0.23047 5.4961,1.6289 3.33984,3.03125 5.63672,8.47657 7.92969,13.92187 4.19531,9.23828 0.46094,4.5586 -2.65625,5.94921 -5.77344,7.34375 -4.54688,4.32032 -3.32422,1.30078 -6.53125,0.0195 -9.74218,-1.26953 -6.5625,-2.10938 -3.38672,-2.94922 -4.71875,-7.72265 -6.05078,-12.4961 -3.42969,-8.16015 -0.80859,-3.82813 0.74609,-4.59375 2.28906,-5.35937 1.78906,-3.50781 1.28125,-1.65625 z m 0,0"
       id="path10559" />
    <path
       style="fill:none;stroke:#77457d;stroke-width:6;stroke-linecap:butt;stroke-linejoin:miter;stroke-miterlimit:10;stroke-opacity:0.501961"
       d="m 606.11719,316.00391 3.29297,2.54296 2.9375,2.94922 2.58203,3.36328 5.67968,8.26172 8.76954,13.15235 4.21484,8.8164 -0.33203,4.48047 -5.33203,6.10547 -10.32422,7.74219 -7.03906,4.67578 -3.75391,1.61328 -5.46484,0.69922 -7.17579,-0.21094 -4.57421,-1.96094 -1.96875,-3.70312 -1.98829,-10.38672 -2.00781,-17.07031 -0.41797,-11.02344 1.16797,-4.97266 4.3086,-5.5664 7.44921,-6.15235 4.87891,-3.46484 2.30078,-0.77344 z m 0,0"
       id="path10561" />
    <path
       style="fill:none;stroke:#77457d;stroke-width:6;stroke-linecap:butt;stroke-linejoin:miter;stroke-miterlimit:10;stroke-opacity:0.501961"
       d="m 615.61328,542.17969 14.26953,3.42578 8.92188,2.76172 3.57812,2.09375 3,4.22265 2.42578,6.35157 0.87891,4.87109 -0.66797,3.40234 -3.10547,6.46094 -5.53906,9.51953 -4.58203,3.95313 -3.6211,-1.60938 -7.48828,-9.32031 -11.35156,-17.02734 -6.87109,-10.58204 -2.39063,-4.13671 -1.09375,-3.19922 0.19922,-2.26563 1.65234,-1.00781 3.09766,0.25 z m 0,0"
       id="path10563" />
    <path
       style="fill:none;stroke:#77457d;stroke-width:6;stroke-linecap:butt;stroke-linejoin:miter;stroke-miterlimit:10;stroke-opacity:0.501961"
       d="m 631.83594,222.33984 11.46093,-0.004 6.71485,1.74218 1.96875,3.48438 -0.15625,9.86719 -2.27344,16.2539 -1.49609,9.89063 -0.71875,3.51953 -0.90235,1.85547 -1.08203,0.17969 -1.69531,-1.44141 -2.30469,-3.07031 -5.99219,-8.79297 -9.67578,-14.51172 -5.70703,-9.01563 -1.73437,-3.52343 -0.082,-2.72266 1.57421,-1.92578 2.1836,-1.16797 2.79297,-0.41406 z m 0,0"
       id="path10565" />
    <path
       style="fill:none;stroke:#77457d;stroke-width:6;stroke-linecap:butt;stroke-linejoin:miter;stroke-miterlimit:10;stroke-opacity:0.501961"
       d="m 637.42187,488 10.73438,1.71484 6.73047,2.05078 2.72265,2.39063 2.35157,5.91016 1.97656,9.4375 0.48047,6.57812 -1.00781,3.71875 -3.85157,5.82813 -6.6914,7.93359 -5.70313,4.42187 -4.71094,0.91016 -9.99609,-1.37891 -15.28906,-3.67187 -9.46485,-2.4375 -3.64062,-1.21094 -2.66797,-1.58594 -1.69922,-1.96875 0.14453,-2.63671 1.98438,-3.30079 6.47656,-8.37109 10.96875,-13.44141 7.80859,-7.97656 4.65235,-2.51172 z m 0,0"
       id="path10567" />
    <path
       style="fill:none;stroke:#77457d;stroke-width:6;stroke-linecap:butt;stroke-linejoin:miter;stroke-miterlimit:10;stroke-opacity:0.501961"
       d="m 655.33594,281.66406 6.03515,5.55469 3.54688,3.60156 1.05469,1.64453 -0.0352,1.88672 -1.11719,2.125 -1.22656,0.47266 -1.33594,-1.1836 -3.21484,-4.41796 -5.10156,-7.65235 -3.07813,-4.64844 -1.05078,-1.64453 -0.4375,-0.83984 0.18359,-0.0273 0.75782,0.57421 1.33203,1.1836 z m 0,0"
       id="path10569" />
    <path
       style="fill:none;stroke:#77457d;stroke-width:6;stroke-linecap:butt;stroke-linejoin:miter;stroke-miterlimit:10;stroke-opacity:0.501961"
       d="m 648.5,433.53125 13.19922,0.76172 8.1914,1.40625 3.1836,2.05078 2.42578,5.4375 1.66016,8.82031 0.30468,6.22656 -1.0625,3.63672 -3.83203,5.89063 -6.60937,8.14844 -5.17969,4.76171 -3.75,1.375 -7.31641,-0.18359 -10.89062,-1.73828 -6.95703,-1.96484 -3.03516,-2.19141 -3.15234,-5.33594 -3.26563,-8.48047 -1.35156,-5.95312 0.56641,-3.42578 3.23046,-5.46875 5.90625,-7.50782 4.9961,-4.47656 4.09375,-1.44531 z m 0,0"
       id="path10571" />
    <path
       style="fill:none;stroke:#77457d;stroke-width:6;stroke-linecap:butt;stroke-linejoin:miter;stroke-miterlimit:10;stroke-opacity:0.501961"
       d="m 654.04687,383.28125 13.01172,19.51562 7.75391,12.08204 2.49219,4.64062 0.55859,3.39453 -1.37891,2.14844 -2.27734,1.21875 -3.17578,0.29687 -8.3125,-0.24218 -13.44531,-0.77344 -8.9961,-1.9375 -4.55078,-3.09766 -6.17578,-8.39453 -7.79687,-13.6914 -3.70313,-9.08204 0.38672,-4.47656 5,-5.83984 9.60547,-7.19922 7.22656,-2.28125 4.84766,2.64062 z m 0,0"
       id="path10573" />
    <path
       style="fill:none;stroke:#77457d;stroke-width:6;stroke-linecap:butt;stroke-linejoin:miter;stroke-miterlimit:10;stroke-opacity:0.501961"
       d="m 666.47266,575.38672 10.9375,3.54687 6.70312,3.37891 2.46875,3.19922 1.52734,7.29687 0.58594,11.39453 -0.9414,7.28907 -2.47266,3.1875 -7.29297,3.32812 -12.11719,3.47656 -7.9375,1.24219 -3.75781,-0.99219 -4.57812,-4.55078 -5.41016,-8.11328 -2.63672,-6.02734 0.125,-3.94531 3.06641,-7.12891 6,-10.30859 4.8164,-5.87891 3.62891,-1.44531 z m 0,0"
       id="path10575" />
    <path
       style="fill:none;stroke:#77457d;stroke-width:6;stroke-linecap:butt;stroke-linejoin:miter;stroke-miterlimit:10;stroke-opacity:0.501961"
       d="m 662.60547,222.33594 h 0.63281 l 2.18359,0.98047 3.73438,1.95312 10.26172,5.53906 16.79687,9.1211 9.67578,6.95312 2.5625,4.79297 -1.13671,9.01172 -4.83594,13.23437 L 698.625,282 l -2.87891,2.92969 -5.73828,1.67968 -8.59765,0.42969 -5.90235,-0.36719 -3.20703,-1.16015 -4.78516,-3.50781 -6.35937,-5.85547 -3.60938,-5.3711 -0.85546,-4.8789 0.7539,-10.91016 2.3711,-16.92969 1.5039,-10.27734 0.64453,-3.62891 z m 0,0"
       id="path10577" />
    <path
       style="fill:none;stroke:#77457d;stroke-width:6;stroke-linecap:butt;stroke-linejoin:miter;stroke-miterlimit:10;stroke-opacity:0.501961"
       d="m 696.70312,625.02344 4.3711,3.125 2.60156,3.48437 0.82813,3.84766 0.16015,9.33984 -0.5039,14.83203 -0.83594,9.15235 -1.16016,3.46484 -3.03906,2.39844 -4.91797,1.33594 -4.125,-0.89454 -3.33203,-3.1289 -6.98047,-9.53516 -10.625,-15.9414 -5.20312,-10.03907 0.22656,-4.13281 5.95312,-3.74219 11.67969,-3.35156 7.55859,-1.69922 3.4375,-0.0508 z m 0,0"
       id="path10579" />
    <path
       style="fill:none;stroke:#77457d;stroke-width:6;stroke-linecap:butt;stroke-linejoin:miter;stroke-miterlimit:10;stroke-opacity:0.501961"
       d="m 684.87109,527.08203 16.45703,3.56641 10.10547,2.3125 3.75782,1.05468 2.41796,1.21094 1.07813,1.36328 0.66797,1.36719 0.25781,1.37891 0.1875,3.21484 0.11719,5.05469 -1.03125,3.91406 -2.17969,2.77344 -6.22656,5.32812 -10.28125,7.88282 -7.48047,4.38281 -4.6875,0.88281 -8.14063,-1.44141 -11.58984,-3.76171 -7.29687,-2.95313 -2.9961,-2.15234 -2.69531,-4.20703 -2.39453,-6.26563 -0.7461,-4.64453 0.90625,-3.02344 3.75782,-5.42969 6.61328,-7.83984 5.78125,-4.37891 4.9414,-0.91406 z m 0,0"
       id="path10581" />
    <path
       style="fill:none;stroke:#77457d;stroke-width:6;stroke-linecap:butt;stroke-linejoin:miter;stroke-miterlimit:10;stroke-opacity:0.501961"
       d="m 682.44141,294.99609 8.63281,-0.42968 5.51953,0.0586 2.40625,0.55469 2.50781,1.78125 2.60156,3.00781 1.51954,2.76172 0.4414,2.51172 -0.0508,5.61718 -0.54297,8.71485 -1.14453,5.29297 -1.74609,1.86718 -4.67188,0.9336 h -7.59765 l -5.15625,-0.8086 -2.71094,-1.625 -3.87891,-4.59765 -5.05078,-7.57422 -2.85547,-4.99609 -0.66406,-2.42188 0.64844,-3.07031 1.96093,-3.72266 2.11329,-2.30469 2.26953,-0.89062 z m 0,0"
       id="path10583" />
    <path
       style="fill:none;stroke:#77457d;stroke-width:6;stroke-linecap:butt;stroke-linejoin:miter;stroke-miterlimit:10;stroke-opacity:0.501961"
       d="m 694.40625,470.87891 11.05859,5.03515 6.6875,4.74219 2.3086,4.44141 1.01562,10.0625 -0.27734,15.6875 -1.80078,9.17187 -3.31641,2.65234 -9.26953,-0.32031 -15.21484,-3.29687 -9.44922,-3.01953 -3.6875,-2.7461 -2.83985,-6.125 -1.99218,-9.5039 -0.51954,-6.6211 0.94922,-3.73437 3.6875,-5.82813 6.42578,-7.92187 5.08594,-4.26953 3.7461,-0.61719 z m 0,0"
       id="path10585" />
    <path
       style="fill:none;stroke:#77457d;stroke-width:6;stroke-linecap:butt;stroke-linejoin:miter;stroke-miterlimit:10;stroke-opacity:0.501961"
       d="m 711.30859,683.34375 4.62891,2.72266 2.81641,1.93359 1,1.13672 0.51953,1.86719 0.0391,2.58984 -0.66016,1.57422 -1.35547,0.55469 L 714.42969,696 h -6.3711 l -4.16406,-0.44141 -1.94922,-0.8789 -2.34765,-2.49219 -2.73829,-4.10938 -1.18359,-2.62109 0.36328,-1.14062 2.40235,-1.17188 4.44531,-1.20703 3.1914,-0.44141 1.94532,0.32422 z m 0,0"
       id="path10587" />
    <path
       style="fill:none;stroke:#77457d;stroke-width:6;stroke-linecap:butt;stroke-linejoin:miter;stroke-miterlimit:10;stroke-opacity:0.501961"
       d="m 730.92578,226.85547 -1.55078,4.87109 -1.35938,3.17188 -1.16796,1.47656 -2.53125,1.74219 -3.89844,2.01562 -3.72656,0.48438 -3.55079,-1.04297 -8.11328,-3.96094 -12.67187,-6.88281 -5.75391,-4.17969 1.16797,-1.47656 9.64453,-0.73828 h 18.1211 l 10.83984,0.52343 3.55078,1.04297 z m 0,0"
       id="path10589" />
    <path
       style="fill:none;stroke:#77457d;stroke-width:6;stroke-linecap:butt;stroke-linejoin:miter;stroke-miterlimit:10;stroke-opacity:0.501961"
       d="m 745.17578,395.94922 0.84375,3.88672 0.0469,2.39843 -0.73829,0.91797 -2.51953,0.65235 -4.30078,0.39062 -2.91406,-0.22265 -1.53125,-0.83204 -2.19141,-2.55468 -2.85156,-4.27735 -1.05469,-2.59765 0.73828,-0.91407 3.52735,-0.45703 h 6.30859 l 3.92188,0.41407 1.53125,0.83203 z m 0,0"
       id="path10591" />
    <path
       style="fill:none;stroke:#77457d;stroke-width:6;stroke-linecap:butt;stroke-linejoin:miter;stroke-miterlimit:10;stroke-opacity:0.501961"
       d="m 693.05469,441.79297 9.76953,14.65234 4.98047,8.46485 0.1914,2.27343 -4.34375,-0.88672 -8.88281,-4.04296 -5.57812,-3.44922 -2.27735,-2.85547 -2.01172,-6.0625 -1.74609,-9.26953 -0.96875,-5.77344 -0.19141,-2.27344 0.33203,-1.80469 0.85938,-1.33984 1.56641,0.76172 2.27734,2.85156 z m 0,0"
       id="path10593" />
    <path
       style="fill:none;stroke:#77457d;stroke-width:6;stroke-linecap:butt;stroke-linejoin:miter;stroke-miterlimit:10;stroke-opacity:0.501961"
       d="m 744.84375,413.98437 -0.40234,2.54297 -0.41016,1.29297 -0.42188,0.0391 -1,-1.16406 -1.57812,-2.36719 -0.74609,-1.45312 0.0859,-0.54688 1.03125,-0.36328 1.97657,-0.17968 1.15625,0.16406 0.33593,0.50781 z m 0,0"
       id="path10595" />
    <path
       style="fill:none;stroke:#77457d;stroke-width:6;stroke-linecap:butt;stroke-linejoin:miter;stroke-miterlimit:10;stroke-opacity:0.501961"
       d="m 730.75781,566.28516 7.52735,7.28906 4.20703,5.76953 0.88281,4.24609 -1.26563,8.38282 -3.41015,12.51953 -3.03516,7.92187 -2.65234,3.32031 -5.81641,3.14063 -8.98047,2.96875 -5.92187,1.46484 -2.8711,-0.0351 -3.63281,-1.59375 -4.40625,-3.14453 -2.74219,-3.19922 -1.07421,-3.25782 -0.84766,-7.65625 -0.62109,-12.05468 0.68359,-8.13282 1.98437,-4.20703 5.9375,-5.89453 9.88282,-7.58203 6.80859,-3.82031 3.73438,-0.0625 z m 0,0"
       id="path10597" />
    <path
       style="fill:none;stroke:#77457d;stroke-width:6;stroke-linecap:butt;stroke-linejoin:miter;stroke-miterlimit:10;stroke-opacity:0.501961"
       d="m 732.89062,307.24219 19.96094,1.65234 12.22656,1.19531 4.4961,0.74219 2.75781,1.26953 1.01563,1.80469 0.2539,1.54687 -0.51172,1.29297 -1.96093,2.76172 -3.40625,4.23047 -4,2.57031 -4.60157,0.90625 -11.32422,0.45313 h -18.05078 l -10.90625,-0.82422 -3.76562,-1.64453 -1.64453,-4.66797 0.48047,-7.6875 2.42968,-4.49219 4.37891,-1.29297 z m 0,0"
       id="path10599" />
    <path
       style="fill:none;stroke:#77457d;stroke-width:6;stroke-linecap:butt;stroke-linejoin:miter;stroke-miterlimit:10;stroke-opacity:0.501961"
       d="m 721.21094,629.28125 8.72656,-2.88672 6.26562,-0.99219 3.80469,0.90235 6.41016,3.99609 9.01953,7.08984 4.87891,5.53907 0.73437,3.98437 -2.42187,7.7461 -5.58594,11.5039 -4.25391,7.17969 -2.92187,2.85547 -5.48047,2.33594 -8.04688,1.8164 -5.38281,0.8125 -2.71094,-0.19531 -3.66797,-1.45313 -4.62109,-2.71875 -2.75391,-3.23828 -0.8789,-3.7539 -0.19141,-9.28516 0.50781,-14.80859 1.23829,-9.30078 1.98046,-3.79297 z m 0,0"
       id="path10601" />
    <path
       style="fill:none;stroke:#77457d;stroke-width:6;stroke-linecap:butt;stroke-linejoin:miter;stroke-miterlimit:10;stroke-opacity:0.501961"
       d="m 723.55469,247.51562 3.85937,-1.99609 3.92969,-0.16406 4,1.66406 9.40234,5.70703 14.8086,9.75781 8.87109,7.07422 2.94531,4.39844 0.9336,7.58203 -1.07032,10.76953 -2.8164,6.35547 -4.55469,1.94922 -12.36719,0.14063 -20.17968,-1.67188 -12.52344,-1.32422 -4.86328,-0.98047 -3.6836,-1.9414 -2.51172,-2.90625 -0.97656,-3.25782 0.55469,-3.60937 2.82422,-8.78516 5.10156,-13.95312 3.50781,-8.6836 1.92188,-3.41796 z m 0,0"
       id="path10603" />
    <path
       style="fill:none;stroke:#77457d;stroke-width:6;stroke-linecap:butt;stroke-linejoin:miter;stroke-miterlimit:10;stroke-opacity:0.501961"
       d="m 731.14844,498.93359 8.11718,12.17578 4.10938,7.73438 0.0977,3.29687 -3.78516,3.2461 -7.66016,3.20312 -4.72656,1.84766 -1.79687,0.49219 -1.25,-0.20313 -0.71485,-0.89844 -0.40234,-2.09765 -0.0977,-3.29297 0.0781,-8.88672 0.25781,-14.48047 1.02344,-7.48437 1.79297,-0.49219 z m 0,0"
       id="path10605" />
    <path
       style="fill:none;stroke:#77457d;stroke-width:6;stroke-linecap:butt;stroke-linejoin:miter;stroke-miterlimit:10;stroke-opacity:0.501961"
       d="m 754.23047,688.33984 4.96484,3.97266 1.6875,2.41016 -1.59765,0.85156 -7,0.42578 h -12.41407 l -7.53906,-0.24609 -2.66406,-0.48829 -1.35156,-1.38671 -0.0352,-2.28125 0.78125,-1.57032 1.59766,-0.85156 4.53515,-1.26953 7.48047,-1.6875 5.07031,-0.60156 2.66797,0.49218 z m 0,0"
       id="path10607" />
    <path
       style="fill:none;stroke:#77457d;stroke-width:6;stroke-linecap:butt;stroke-linejoin:miter;stroke-miterlimit:10;stroke-opacity:0.501961"
       d="m 760.94922,543.63281 10.36328,15.54688 5.17969,9.49218 v 3.4375 l -5.1875,1.96875 -10.375,0.4961 -7.17188,-0.53906 -3.96875,-1.58594 -6.05469,-4.73438 -8.14062,-7.88281 -4.95703,-5.29297 -1.76563,-2.69922 -0.9414,-3.70312 -0.10547,-4.70703 0.8164,-3.22657 1.7461,-1.75 5.0039,-2.59765 8.26172,-3.45313 6.125,-0.42968 3.99219,2.58984 z m 0,0"
       id="path10609" />
    <path
       style="fill:none;stroke:#77457d;stroke-width:6;stroke-linecap:butt;stroke-linejoin:miter;stroke-miterlimit:10;stroke-opacity:0.501961"
       d="m 763.66016,582.45312 11.64062,-0.55859 8.01563,1.08594 4.39062,2.72265 6.62109,8.00391 8.85157,13.27734 5,8.50782 1.14062,3.73828 -1.1914,3.95312 -3.52344,4.17188 -3.32031,2.80469 -3.1211,1.4414 -7.08203,1.98828 -11.04297,2.54297 -7.69531,0.76563 L 768,635.88672 761.20312,631.75 l -9.23828,-7.26563 -5.25781,-5.71484 -1.26953,-4.16406 1.02344,-8.16797 3.3125,-12.16797 3.26172,-7.44531 3.20312,-2.72656 z m 0,0"
       id="path10611" />
    <path
       style="fill:none;stroke:#77457d;stroke-width:6;stroke-linecap:butt;stroke-linejoin:miter;stroke-miterlimit:10;stroke-opacity:0.501961"
       d="m 754.38672,410.26953 0.91797,0.0625 2.22265,1.61719 3.52735,3.17187 9.53515,8.95313 15.54297,14.73828 9.13281,10.29687 2.71485,5.86329 -0.0664,9.24218 -2.85547,12.625 -1.76953,7.6836 -0.68359,2.74609 -0.50781,1.46484 -0.32813,0.19141 -0.23437,0.0977 -0.13672,0.008 -0.22266,-0.0781 -0.3125,-0.16015 -1.6875,-2.34375 -3.0625,-4.52735 -8.51953,-12.75 -13.98047,-20.97265 -8.38281,-13.42578 -2.77735,-5.88282 -0.8789,-6.18359 1.01562,-6.48047 0.71485,-3.92969 0.41406,-1.375 z m 0,0"
       id="path10613" />
    <path
       style="fill:none;stroke:#77457d;stroke-width:6;stroke-linecap:butt;stroke-linejoin:miter;stroke-miterlimit:10;stroke-opacity:0.501961"
       d="m 757.11719,222.33594 h 17.60937 l 11.07422,0.46875 4.53906,0.9375 4.04688,2.66406 3.55859,4.38281 2.10156,3.10156 0.64454,1.8086 0.0469,2.9414 -0.55078,4.07032 -1.17578,3.15234 -1.79688,2.22656 -4.8164,4.28125 -7.83985,6.33203 -6.30859,2.82422 -4.77734,-0.68359 -9.61719,-5.10547 -14.45703,-9.52734 -8.59766,-6.34766 -2.73828,-3.16797 -0.53125,-4.21484 1.67578,-5.25781 2.90234,-3.19532 4.13282,-1.1289 z m 0,0"
       id="path10615" />
    <path
       style="fill:none;stroke:#77457d;stroke-width:6;stroke-linecap:butt;stroke-linejoin:miter;stroke-miterlimit:10;stroke-opacity:0.501961"
       d="m 779.45703,324.50781 0.92188,1.64063 0.32031,0.99218 -0.28125,0.35157 -1.26172,0.17578 h -2.24219 l -1.22265,-0.17578 -0.19532,-0.35157 0.5586,-0.99218 1.32031,-1.64063 0.89844,-0.82031 h 0.48047 z m 0,0"
       id="path10617" />
    <path
       style="fill:none;stroke:#77457d;stroke-width:6;stroke-linecap:butt;stroke-linejoin:miter;stroke-miterlimit:10;stroke-opacity:0.501961"
       d="m 769.25781,395.61719 -6.375,3.53125 -3.95312,2.13672 -1.53516,0.74609 -1.15625,0.34375 -0.78125,-0.0508 -0.55469,-0.40625 -0.33203,-0.75781 -0.53906,-2.11719 -0.75,-3.47656 0.39062,-2.10938 1.53125,-0.74609 4.72266,-0.375 h 7.90625 l 4.12109,0.3789 0.32813,0.75782 z m 0,0"
       id="path10619" />
    <path
       style="fill:none;stroke:#77457d;stroke-width:6;stroke-linecap:butt;stroke-linejoin:miter;stroke-miterlimit:10;stroke-opacity:0.501961"
       d="m 780.89062,644.14844 10.02735,-2.3086 6.35937,0.39063 2.69141,3.09375 2.61719,9.92187 2.54297,16.7461 1.23437,10.48437 -0.082,4.22266 -1.49609,3.59375 -2.91797,2.95703 -2.61719,1.79687 -2.3125,0.63672 -5.1055,0.31641 h -7.89062 l -5.57813,-0.62891 -3.26562,-1.26172 -5.3086,-3.57031 -7.35156,-5.88281 -3.86719,-4.80469 -0.375,-3.72656 2.60547,-7.62109 5.58984,-11.51954 4.46875,-7.23828 3.34766,-2.96484 z m 0,0"
       id="path10621" />
    <path
       style="fill:none;stroke:#77457d;stroke-width:6;stroke-linecap:butt;stroke-linejoin:miter;stroke-miterlimit:10;stroke-opacity:0.501961"
       d="m 803.28125,392.33594 h 12.48828 l 7.58594,1.52343 2.6875,3.05079 1.36719,8.63671 0.0469,14.23047 -0.79297,9.13282 -1.64062,4.03906 -4.66797,4.32422 -7.69141,4.60937 -6.20703,1.34766 -4.71875,-1.92578 -9.52344,-7.75391 -14.32812,-13.58203 -7.6836,-8.8125 -1.03515,-4.03906 4.22265,-4.64453 9.48829,-5.25782 7.09765,-3.1875 4.70703,-1.1289 z m 0,0"
       id="path10623" />
    <path
       style="fill:none;stroke:#77457d;stroke-width:6;stroke-linecap:butt;stroke-linejoin:miter;stroke-miterlimit:10;stroke-opacity:0.501961"
       d="m 811.76953,224.25391 -2.89844,2.07031 -1.9375,1.03515 h -0.98047 l -1.33203,-1.03515 -1.67578,-2.07031 -0.53125,-1.25391 0.6211,-0.44531 2.59765,-0.21875 h 4.57813 l 2.46875,0.21875 0.35937,0.44531 z m 0,0"
       id="path10625" />
    <path
       style="fill:none;stroke:#77457d;stroke-width:6;stroke-linecap:butt;stroke-linejoin:miter;stroke-miterlimit:10;stroke-opacity:0.501961"
       d="m 788.62109,265.70703 7.84766,-6.33984 6.57812,-2.75 5.3086,0.83984 11.12109,5.54688 16.92969,10.2539 10.16406,6.96094 3.39844,3.66406 1.16406,5.25391 -1.0664,6.83984 -3.1875,4.50781 -5.3125,2.17188 -14.51172,2.73437 -23.71875,3.29297 -14.52344,1.77735 -5.33594,0.2539 -3.26172,-0.91797 -1.18359,-2.09765 -0.58984,-2.55469 v -3.01172 l 0.59765,-7.48047 1.19141,-11.95703 1.5625,-7.9375 1.9375,-3.92187 z m 0,0"
       id="path10627" />
    <path
       style="fill:none;stroke:#77457d;stroke-width:6;stroke-linecap:butt;stroke-linejoin:miter;stroke-miterlimit:10;stroke-opacity:0.501961"
       d="m 798.57031,496.20703 2.35938,0.75781 1.1875,0.46094 0.0156,0.16406 -1.13672,0.0781 h -2.28515 l -1.42969,-0.0625 -0.57031,-0.1211 -0.48047,-0.35156 -0.38281,-0.57812 -0.20313,-0.3711 -0.0156,-0.16406 0.14843,-0.17187 0.31641,-0.17969 0.44141,-0.0274 0.57031,0.125 z m 0,0"
       id="path10629" />
    <path
       style="fill:none;stroke:#77457d;stroke-width:6;stroke-linecap:butt;stroke-linejoin:miter;stroke-miterlimit:10;stroke-opacity:0.501961"
       d="m 845.81641,316.24609 -0.86329,5.92188 -2.53906,3.59765 -4.21484,1.26954 -11.51172,0.63281 h -18.80469 l -11.59765,-0.31641 -4.38672,-0.63281 -3.02735,-1.79688 -1.66406,-2.95703 1.27344,-2.11328 4.21484,-1.26953 12.77344,-2.11719 21.33594,-2.96484 12.86328,-1.16406 4.38672,0.63281 z m 0,0"
       id="path10631" />
    <path
       style="fill:none;stroke:#77457d;stroke-width:6;stroke-linecap:butt;stroke-linejoin:miter;stroke-miterlimit:10;stroke-opacity:0.501961"
       d="m 820.89844,694.0625 8.27734,1.00391 4.03125,0.60937 -0.21484,0.21484 L 828.25781,696 h -9.26562 l -5.51953,-0.10938 -1.76954,-0.21484 -0.39453,-0.60937 0.98828,-1.00391 1.48829,-0.5 h 1.98437 z m 0,0"
       id="path10633" />
    <path
       style="fill:none;stroke:#77457d;stroke-width:6;stroke-linecap:butt;stroke-linejoin:miter;stroke-miterlimit:10;stroke-opacity:0.501961"
       d="m 827.50391,643.46875 12.36718,18.55078 7.23438,11.62109 2.10547,4.69141 -0.22657,4.02344 -2.55078,3.34765 -2.6289,1.90625 -2.71094,0.45313 -6.39453,-0.38281 -10.08594,-1.22266 -6.40625,-2.59375 -2.72266,-3.95703 -2.67187,-10.60938 -2.62109,-17.2539 -1.28125,-10.83985 0.0586,-4.43359 1.47656,-3.92578 2.89063,-3.42188 3.07812,-0.0937 3.27344,3.24219 z m 0,0"
       id="path10635" />
    <path
       style="fill:none;stroke:#77457d;stroke-width:6;stroke-linecap:butt;stroke-linejoin:miter;stroke-miterlimit:10;stroke-opacity:0.501961"
       d="m 816.08594,449.16016 8.17968,-4.90235 5.83594,-2.625 3.5,-0.34375 5.82031,1.46875 8.14844,3.28906 5.17188,3.1211 2.20703,2.95312 2.16797,6.72657 2.13672,10.5 0.1289,7.07031 -1.875,3.64062 -6.3789,5.07422 -10.88282,6.5 -6.64062,3.94531 -2.40235,1.39454 -1.35937,0.69531 h -0.32031 l -1.26563,-0.34375 -2.21484,-0.69141 -6.10938,-1.95703 -10.01172,-3.22266 -5.78125,-3.25781 -1.55468,-3.29687 0.59765,-7.73047 2.75391,-12.16406 2.54687,-7.91016 2.34375,-3.65625 z m 0,0"
       id="path10637" />
    <path
       style="fill:none;stroke:#77457d;stroke-width:6;stroke-linecap:butt;stroke-linejoin:miter;stroke-miterlimit:10;stroke-opacity:0.501961"
       d="m 815.36719,231.51562 6.66797,-4.76171 5.08593,-2.89063 3.50391,-1.01953 6.58594,-0.51172 h 9.67578 l 6.54687,1.35156 3.41797,2.70703 4.83985,7.66016 6.26171,12.62109 3.13282,8.3125 0.004,4.00391 -3.12109,5.03516 -6.24609,6.07031 -5.60157,2.58984 -4.94922,-0.89062 -10.91015,-5.55078 -16.86328,-10.21485 -10.1836,-6.60156 -3.5039,-2.98437 -1.50391,-3.34766 0.50391,-3.71094 1.01953,-2.76562 1.53515,-1.8125 z m 0,0"
       id="path10639" />
    <path
       style="fill:none;stroke:#77457d;stroke-width:6;stroke-linecap:butt;stroke-linejoin:miter;stroke-miterlimit:10;stroke-opacity:0.501961"
       d="m 880.83594,400.66797 6.08203,8.97265 2.40625,6.33594 -1.28125,3.70313 -6.66797,5.99609 -12.05469,8.30078 -8.16797,4.69531 -4.27734,1.09375 -6.10156,-1.05078 -7.91797,-3.19922 -4.8125,-3.44531 -1.71094,-3.70312 -0.875,-8.88672 -0.0469,-14.07422 1.46484,-8.54688 2.97656,-3.01562 8.45313,-1.50781 h 13.9375 l 9.11328,0.96093 4.29297,1.92188 z m 0,0"
       id="path10641" />
    <path
       style="fill:none;stroke:#77457d;stroke-width:6;stroke-linecap:butt;stroke-linejoin:miter;stroke-miterlimit:10;stroke-opacity:0.501961"
       d="m 874.90234,489.5 9.59375,4.23828 4.03516,2.57031 -1.51953,0.90625 -9.10156,0.45313 h -16.67969 l -9.36719,-0.45313 -2.05469,-0.90625 2.51563,-2.57031 7.08984,-4.23828 5.33203,-2.11719 h 3.57422 z m 0,0"
       id="path10643" />
    <path
       style="fill:none;stroke:#77457d;stroke-width:6;stroke-linecap:butt;stroke-linejoin:miter;stroke-miterlimit:10;stroke-opacity:0.501961"
       d="m 865.64453,315.88281 11.69922,6.11328 5.75781,3.70703 -0.1914,1.3125 -6.39063,0.65235 h -12.58984 l -7.55078,-0.65235 -2.50782,-1.3125 -0.80859,-3.70703 0.89062,-6.11328 1.79297,-3.05469 h 2.69922 z m 0,0"
       id="path10645" />
    <path
       style="fill:none;stroke:#77457d;stroke-width:6;stroke-linecap:butt;stroke-linejoin:miter;stroke-miterlimit:10;stroke-opacity:0.501961"
       d="m 858.15234,689.44141 2.26953,3.40234 0.96094,2.0625 -0.33984,0.73047 L 858.94141,696 h -3.86329 l -2.38281,-0.0898 -0.90625,-0.17969 -0.63281,-0.50391 -0.35938,-0.83203 -0.0117,-0.78125 0.33984,-0.73047 1.15234,-1.64453 1.95313,-2.57031 1.43359,-1.19531 0.90235,0.17968 z m 0,0"
       id="path10647" />
    <path
       style="fill:none;stroke:#77457d;stroke-width:6;stroke-linecap:butt;stroke-linejoin:miter;stroke-miterlimit:10;stroke-opacity:0.501961"
       d="m 908.66406,232.66016 -10.59375,11.12109 -6.70312,6.78125 -2.8125,2.44531 -2.67578,1.36719 -2.53516,0.28906 -2.14844,-1.04687 -1.75781,-2.38282 -3.71094,-6.89843 -5.66406,-11.40625 -1.42578,-6.92969 2.8164,-2.44531 10.80469,-1.22266 h 18.79297 l 10.27344,1.19141 1.75781,2.38281 z m 0,0"
       id="path10649" />
    <path
       style="fill:none;stroke:#77457d;stroke-width:6;stroke-linecap:butt;stroke-linejoin:miter;stroke-miterlimit:10;stroke-opacity:0.501961"
       d="m 905.30469,425.1875 6.96484,1.95312 3.54688,3.55079 0.125,5.15234 -3.12891,13.62109 -6.37891,22.08594 -5.05078,12.89453 -3.71094,3.69531 -7.33203,-0.5664 -10.94531,-4.83594 -6.87891,-4.07031 -2.80859,-3.30469 -2.48047,-6.94531 -2.15234,-10.59375 0.0312,-7.35156 2.21875,-4.11719 7.37109,-6.36719 12.51563,-8.61328 8.34765,-5.02344 4.17188,-1.42969 z m 0,0"
       id="path10651" />
    <path
       style="fill:none;stroke:#77457d;stroke-width:6;stroke-linecap:butt;stroke-linejoin:miter;stroke-miterlimit:10;stroke-opacity:0.501961"
       d="m 866.80859,276.30469 7.07813,-6.875 4.60937,-4.21094 2.14453,-1.54688 2.53125,-0.9375 2.92188,-0.33203 3.22656,1.08594 3.52735,2.50391 8.53125,7.25781 13.53125,12.01562 7.54296,8.46485 1.55469,4.92187 -2.36719,7.92578 -6.28906,10.9375 -3.96875,6.63672 -1.64844,2.34375 -1.53125,1.17188 h -1.40625 l -2.66406,-0.94531 -3.92969,-1.89454 -10.42187,-5.36328 -16.91406,-8.83593 -10.15625,-6.10547 -3.39453,-3.3711 -1.16016,-5.14062 1.07812,-6.91016 1.41407,-4.92969 1.75,-2.95312 z m 0,0"
       id="path10653" />
    <path
       style="fill:none;stroke:#77457d;stroke-width:6;stroke-linecap:butt;stroke-linejoin:miter;stroke-miterlimit:10;stroke-opacity:0.501961"
       d="m 944.96484,400.83203 -5.0625,9.15234 -3.5039,5.6875 -1.95313,2.22657 -2.99609,1.73437 -4.04297,1.23828 -3.32031,0.51172 -2.59766,-0.21875 -5.33203,-1.24219 -8.06641,-2.26171 -5.48828,-2.2461 -2.91015,-2.22656 -4.21094,-5.17578 -5.51172,-8.12891 -0.91797,-4.9375 3.67969,-1.74219 13.18359,-0.87109 h 22.6836 l 13.23046,0.98047 3.77735,1.96094 z m 0,0"
       id="path10655" />
    <path
       style="fill:none;stroke:#77457d;stroke-width:6;stroke-linecap:butt;stroke-linejoin:miter;stroke-miterlimit:10;stroke-opacity:0.501961"
       d="m 932.70703,222.33203 h 3.40234 l 2.92188,0.94141 2.44141,1.8789 5.21875,5.32813 7.99609,8.77734 3.98047,6.91797 -0.0312,5.05859 -4.08203,9.94922 -8.13672,14.83594 -5.13672,9.0625 -2.13672,3.28125 -1.98437,1.88281 -1.83594,0.48438 -2.52735,-0.96094 -3.22265,-2.41016 -8.21485,-7.07031 -13.21093,-11.72265 -6.75782,-8.44532 -0.30468,-5.16406 5.73828,-8.76953 11.78515,-12.36719 7.51954,-7.51172 3.2539,-2.65234 z m 0,0"
       id="path10657" />
    <path
       style="fill:none;stroke:#77457d;stroke-width:6;stroke-linecap:butt;stroke-linejoin:miter;stroke-miterlimit:10;stroke-opacity:0.501961"
       d="m 930.12109,428.40625 3.42188,-1.04688 2.98828,0.32032 2.54687,1.6914 5.51172,5.3125 8.47266,8.94141 5.03906,6.86719 1.60938,4.79297 0.32422,9.10937 -0.96875,13.42969 -1.03516,8.43359 -1.11328,3.42969 -2.66797,3.00391 -4.22656,2.58203 -3.75391,1.5664 -3.28906,0.55469 -7.20313,0.27344 h -11.11718 l -6.99219,-0.0937 -2.85938,-0.19141 -2.55078,-0.53906 -2.23437,-0.89063 -0.64453,-3.0039 0.94531,-5.1211 3.79687,-14.0664 6.64844,-23.01172 4.40234,-14.08594 2.15625,-5.15234 z m 0,0"
       id="path10659" />
    <path
       style="fill:none;stroke:#77457d;stroke-width:6;stroke-linecap:butt;stroke-linejoin:miter;stroke-miterlimit:10;stroke-opacity:0.501961"
       d="m 937.05469,298.54687 1.99609,-0.52343 2.65234,0.57031 3.3086,1.67187 8.38281,4.9961 13.45313,8.32422 8.16796,5.14062 2.88282,1.95703 1.4414,1.39453 v 0.82422 l -0.10937,0.65235 -0.21875,0.47656 -0.61328,0.9375 -1.01563,1.40234 -2.78125,0.84766 -4.54297,0.30078 -12.37109,0.14844 h -20.19531 l -11.64453,-1.07422 -3.09375,-2.14453 1.33593,-6.08594 5.76563,-10.02344 3.71094,-6.14062 1.66015,-2.25781 z m 0,0"
       id="path10661" />
    <path
       style="fill:none;stroke:#77457d;stroke-width:6;stroke-linecap:butt;stroke-linejoin:miter;stroke-miterlimit:10;stroke-opacity:0.501961"
       d="m 962.75781,497.30078 0.44531,0.19141 0.19141,0.11718 -0.0664,0.0391 -0.41406,0.0195 h -0.75781 l -0.42969,-0.0195 -0.0937,-0.0391 0.10547,-0.11718 0.3125,-0.19141 0.23828,-0.0937 h 0.16406 z m 0,0"
       id="path10663" />
    <path
       style="fill:none;stroke:#77457d;stroke-width:6;stroke-linecap:butt;stroke-linejoin:miter;stroke-miterlimit:10;stroke-opacity:0.501961"
       d="m 972.52344,251.33203 3.53515,0.3125 2.14453,2.44141 0.75782,4.5664 0.3789,12.77344 v 20.98828 l -1.21875,11.99219 -2.43359,2.99219 -6.89844,-2.01953 -11.36328,-7.02735 -6.05859,-5.79687 -0.75782,-4.56641 3.53516,-9.41797 7.82813,-14.27344 5.13281,-8.63671 2.43359,-2.98829 z m 0,0"
       id="path10665" />
    <path
       style="fill:none;stroke:#77457d;stroke-width:6;stroke-linecap:butt;stroke-linejoin:miter;stroke-miterlimit:10;stroke-opacity:0.501961"
       d="m 979.33984,229.34375 v 7.55078 l -0.39453,4.55078 -0.78125,1.54688 -2.21875,0.61328 -3.65234,-0.32422 -2.92578,-0.97266 -2.19141,-1.61718 -4.39062,-4.42188 -6.58204,-7.22656 -2.90234,-4.39063 0.78516,-1.54687 5.50781,-0.77344 h 10.23828 l 6.21484,0.80859 2.19532,1.61719 z m 0,0"
       id="path10667" />
    <path
       style="fill:none;stroke:#77457d;stroke-width:6;stroke-linecap:butt;stroke-linejoin:miter;stroke-miterlimit:10;stroke-opacity:0.501961"
       d="m 964.80078,394.42969 7.53906,0.29687 4.57422,2.10547 1.61719,3.90234 0.80859,10.91016 v 17.91406 l -0.47265,10.88672 -0.94532,3.85547 -2.67968,1.96484 -4.41016,0.082 -3.57422,-0.89844 -2.73828,-1.8711 -5.55078,-5.35156 -8.36328,-8.82422 -4.51563,-6.375 -0.67187,-3.91797 2.28515,-6.69531 5.23438,-9.47265 3.98828,-5.71485 2.73828,-1.96484 z m 0,0"
       id="path10669" />
    <path
       style="fill:none;stroke:#77457d;stroke-width:6;stroke-linecap:butt;stroke-linejoin:miter;stroke-miterlimit:10;stroke-opacity:0.501961"
       d="m 972.20703,454.32422 3.69922,-0.0664 2.24219,1.51172 0.79297,3.09766 0.39843,8.80468 v 14.51563 l -0.49218,8.60547 -0.98438,2.6875 -2.79297,0.36719 -4.59375,-1.95313 -2.69531,-2.52734 -0.79297,-3.09766 0.0547,-7.79297 0.89844,-12.49219 0.9414,-7.58984 0.98438,-2.69141 z m 0,0"
       id="path10671" />
  </g>
  <text
     xml:space="preserve"
     style="font-size:173.435px;line-height:1;font-family:DINComp-Medium;-inkscape-font-specification:DINComp-Medium;letter-spacing:0px;display:none;fill:#453861;fill-opacity:1;stroke:#ffffff;stroke-width:12;stroke-miterlimit:4;stroke-dasharray:none;stroke-opacity:1;paint-order:markers stroke fill"
     x="297.73123"
     y="243.54115"
     id="text4706"><tspan
       id="tspan4704"
       style="font-style:normal;font-variant:normal;font-weight:normal;font-stretch:normal;font-family:DINComp-Medium;-inkscape-font-specification:DINComp-Medium;fill:#453861;fill-opacity:1;stroke:#ffffff;stroke-width:12;stroke-miterlimit:4;stroke-dasharray:none;stroke-opacity:1;paint-order:markers stroke fill"
       x="297.73123"
       y="243.54115"
       sodipodi:role="line"
       dy="0 0 0">MUNI</tspan><tspan
       style="font-style:normal;font-variant:normal;font-weight:normal;font-stretch:normal;font-family:DINComp-Medium;-inkscape-font-specification:DINComp-Medium;fill:#453861;fill-opacity:1;stroke:#ffffff;stroke-width:12;stroke-miterlimit:4;stroke-dasharray:none;stroke-opacity:1;paint-order:markers stroke fill"
       x="297.73123"
       y="416.97614"
       sodipodi:role="line"
       id="tspan9886">HAC</tspan><tspan
       style="font-style:normal;font-variant:normal;font-weight:normal;font-stretch:normal;font-family:DINComp-Medium;-inkscape-font-specification:DINComp-Medium;fill:#453861;fill-opacity:1;stroke:#ffffff;stroke-width:12;stroke-miterlimit:4;stroke-dasharray:none;stroke-opacity:1;paint-order:markers stroke fill"
       x="297.73123"
       y="590.41113"
       sodipodi:role="line"
       id="tspan9888">2023</tspan></text>
  <g
     aria-label="MUNI
HAC
2023"
     id="text4706-2"
     style="font-size:173.435px;line-height:1;font-family:DINComp-Medium;-inkscape-font-specification:DINComp-Medium;letter-spacing:0px;fill:#453861;stroke:#453861;stroke-width:12;stroke-opacity:1;paint-order:markers stroke fill"
     transform="matrix(1.0737572,0,0.61993401,0.91728676,223.51657,108.39496)">
    <path
       d="m 391.97151,247.70084 v -82.55506 l -28.44334,60.18194 h -13.8748 l -29.13708,-60.18194 v 82.55506 H 301.78531 V 124.21512 h 18.73098 l 36.07448,76.8317 35.38074,-76.8317 h 18.73098 v 123.48572 z"
       id="path23196"
       style="stroke:#453861;stroke-opacity:1" />
    <path
       d="m 529.50542,206.07644 q 0,9.53892 -3.4687,17.51693 -3.29527,7.80458 -9.36549,13.3545 -5.89679,5.54992 -14.04824,8.67175 -8.15144,3.12183 -17.51693,3.12183 -9.36549,0 -17.51694,-3.12183 -8.15144,-3.12183 -14.04823,-8.67175 -5.89679,-5.54992 -9.36549,-13.3545 -3.29527,-7.97801 -3.29527,-17.51693 v -81.86132 h 18.73098 v 80.99414 q 0,12.48732 6.9374,19.59816 6.9374,7.11083 18.55755,7.11083 11.62014,0 18.55754,-7.11083 7.11084,-7.11084 7.11084,-19.59816 v -80.99414 h 18.73098 z"
       id="path23198"
       style="stroke:#453861;stroke-opacity:1" />
    <path
       d="M 635.64751,247.70084 578.58739,160.8099 v 86.89094 H 559.85641 V 124.21512 h 17.17007 l 57.06011,86.7175 v -86.7175 h 18.73098 v 123.48572 z"
       id="path23200"
       style="stroke:#453861;stroke-opacity:1" />
    <path
       d="M 685.07617,247.70084 V 124.21512 h 18.73098 v 123.48572 z"
       id="path23202"
       style="stroke:#453861;stroke-opacity:1" />
    <path
       d="m 370.639,421.13583 v -53.93828 h -50.12271 v 53.93828 H 301.78531 V 297.65012 h 18.73098 v 52.72423 H 370.639 v -52.72423 h 18.73098 v 123.48571 z"
       id="path23204"
       style="stroke:#453861;stroke-opacity:1" />
    <path
       d="m 492.5638,421.13583 -8.49831,-24.8012 h -48.73523 l -8.49832,24.8012 h -19.94502 l 45.26653,-123.48571 h 15.08884 l 45.26654,123.48571 z m -32.43234,-95.56268 -19.25129,54.80546 h 37.98227 z"
       id="path23206"
       style="stroke:#453861;stroke-opacity:1" />
    <path
       d="m 613.96797,384.19418 q -3.29526,18.38411 -15.26228,28.2699 -11.79358,9.71236 -28.7902,9.71236 -10.23267,0 -18.03724,-3.12183 -7.80458,-3.29526 -13.8748,-9.36549 -4.50931,-4.50931 -7.11084,-9.36549 -2.42809,-4.85618 -3.64213,-10.57953 -1.21405,-5.89679 -1.56092,-13.18106 -0.17343,-7.45771 -0.17343,-17.17007 0,-9.71236 0.17343,-16.99663 0.34687,-7.4577 1.56092,-13.18105 1.21404,-5.89679 3.64213,-10.75297 2.60153,-4.85618 7.11084,-9.36549 6.07022,-6.07023 13.8748,-9.19206 7.80457,-3.29526 18.03724,-3.29526 17.17006,0 28.96364,9.88579 11.79358,9.71236 15.08884,28.09647 h -19.07785 q -2.08122,-9.53892 -8.32488,-15.43571 -6.24366,-5.89679 -16.64975,-5.89679 -11.09984,0 -18.21068,7.63114 -2.42809,2.42809 -3.81557,5.37648 -1.38748,2.9484 -2.25465,7.28427 -0.86718,4.16244 -1.21405,10.4061 -0.17343,6.24366 -0.17343,15.43571 0,9.19206 0.17343,15.43572 0.34687,6.24366 1.21405,10.57953 0.86717,4.16244 2.25465,7.11084 1.38748,2.94839 3.81557,5.37648 7.11084,7.63114 18.21068,7.63114 10.40609,0 16.64975,-5.89679 6.4171,-5.89679 8.67175,-15.43571 z"
       id="path23208"
       style="stroke:#453861;stroke-opacity:1" />
    <path
       d="m 296.58226,594.57083 v -15.78258 l 47.52119,-57.75386 q 3.4687,-4.33587 5.02961,-7.97801 1.56092,-3.81557 1.56092,-8.49831 0,-8.32488 -4.68275,-13.52793 -4.68274,-5.20305 -13.35449,-5.20305 -3.4687,0 -6.76397,1.04061 -3.29526,1.04061 -5.89679,3.29526 -2.42809,2.25466 -3.989,5.89679 -1.56092,3.64214 -1.56092,8.84519 h -17.69037 q 0,-7.80458 2.60153,-14.22167 2.77496,-6.59053 7.4577,-11.09984 4.85618,-4.50931 11.44671,-6.9374 6.59053,-2.60153 14.39511,-2.60153 7.97801,0 14.56854,2.42809 6.59053,2.42809 11.27327,6.9374 4.68275,4.50931 7.28427,10.92641 2.60153,6.41709 2.60153,14.3951 0,8.15145 -2.9484,14.04824 -2.94839,5.72335 -8.67175,12.66075 l -38.676,47.34776 h 50.29615 v 15.78258 z"
       id="path23210"
       style="stroke:#453861;stroke-opacity:1" />
    <path
       d="m 459.95786,560.2307 q 0,8.32488 -2.77496,14.91541 -2.77496,6.4171 -7.63114,11.09984 -4.85618,4.50931 -11.44671,6.9374 -6.41709,2.42809 -13.8748,2.42809 -7.28427,0 -13.8748,-2.42809 -6.41709,-2.42809 -11.27327,-6.9374 -4.85618,-4.68274 -7.63114,-11.09984 -2.77496,-6.59053 -2.77496,-14.91541 v -54.80546 q 0,-8.32488 2.77496,-14.74197 2.77496,-6.59053 7.63114,-11.09984 4.85618,-4.68275 11.27327,-7.11084 6.59053,-2.42809 13.8748,-2.42809 7.45771,0 13.8748,2.42809 6.59053,2.42809 11.44671,7.11084 4.85618,4.50931 7.63114,11.09984 2.77496,6.41709 2.77496,14.74197 z m -17.69037,-54.28515 q 0,-8.84519 -4.85618,-14.39511 -4.68274,-5.72335 -13.18106,-5.72335 -8.32488,0 -13.18106,5.72335 -4.68274,5.54992 -4.68274,14.39511 v 53.76485 q 0,8.84518 4.68274,14.56854 4.85618,5.54992 13.18106,5.54992 8.49832,0 13.18106,-5.54992 4.85618,-5.72336 4.85618,-14.56854 z"
       id="path23212"
       style="stroke:#453861;stroke-opacity:1" />
    <path
       d="m 481.46364,594.57083 v -15.78258 l 47.52119,-57.75386 q 3.4687,-4.33587 5.02961,-7.97801 1.56092,-3.81557 1.56092,-8.49831 0,-8.32488 -4.68275,-13.52793 -4.68274,-5.20305 -13.35449,-5.20305 -3.4687,0 -6.76397,1.04061 -3.29526,1.04061 -5.89679,3.29526 -2.42809,2.25466 -3.989,5.89679 -1.56092,3.64214 -1.56092,8.84519 h -17.69037 q 0,-7.80458 2.60153,-14.22167 2.77496,-6.59053 7.4577,-11.09984 4.85618,-4.50931 11.44671,-6.9374 6.59053,-2.60153 14.39511,-2.60153 7.97801,0 14.56854,2.42809 6.59053,2.42809 11.27327,6.9374 4.68275,4.50931 7.28427,10.92641 2.60153,6.41709 2.60153,14.3951 0,8.15145 -2.9484,14.04824 -2.94839,5.72335 -8.67175,12.66075 l -38.676,47.34776 h 50.29615 v 15.78258 z"
       id="path23214"
       style="stroke:#453861;stroke-opacity:1" />
    <path
       d="m 645.87986,559.88383 q 0,8.84519 -3.12183,15.60915 -2.94839,6.76397 -8.15144,11.27328 -5.02962,4.50931 -11.96702,6.76396 -6.76396,2.25466 -14.56853,2.25466 -7.45771,0 -14.22167,-1.90779 -6.59053,-2.08122 -11.79358,-6.24366 -5.20305,-4.33587 -8.49832,-10.9264 -3.12183,-6.59053 -3.29526,-15.60915 h 17.69037 q 0.17343,5.02961 1.90778,8.49831 1.90779,3.4687 4.50931,5.89679 2.77496,2.25466 6.24366,3.29527 3.64214,1.04061 7.45771,1.04061 8.67175,0 14.3951,-5.20305 5.72335,-5.37649 5.72335,-15.26228 0,-9.36549 -5.20305,-14.74198 -5.02961,-5.54992 -15.43571,-5.54992 h -2.94839 v -15.43571 h 2.94839 q 9.71236,0 14.22167,-5.02962 4.50931,-5.20305 4.50931,-13.70136 0,-9.36549 -5.37649,-14.22167 -5.20304,-4.85618 -12.83418,-4.85618 -8.15145,0 -13.00763,4.68274 -4.85618,4.68275 -5.54992,13.00763 h -17.69037 q 0.34687,-7.80458 3.29527,-14.04824 2.94839,-6.24366 7.80457,-10.57953 4.85618,-4.33588 11.27328,-6.59053 6.41709,-2.42809 13.8748,-2.42809 7.80457,0 14.3951,2.60152 6.59053,2.42809 11.27327,7.11084 4.85618,4.50931 7.45771,10.9264 2.77496,6.24366 2.77496,13.8748 0,9.8858 -4.16244,16.47633 -3.98901,6.41709 -11.27328,9.88579 7.97801,3.4687 12.66076,10.57954 4.68274,7.11083 4.68274,18.55754 z"
       id="path23216"
       style="stroke:#453861;stroke-opacity:1" />
  </g>
</svg>
