<?xml version="1.0" encoding="UTF-8" standalone="no"?>
<svg
   xmlns:dc="http://purl.org/dc/elements/1.1/"
   xmlns:cc="http://creativecommons.org/ns#"
   xmlns:rdf="http://www.w3.org/1999/02/22-rdf-syntax-ns#"
   xmlns:svg="http://www.w3.org/2000/svg"
   xmlns="http://www.w3.org/2000/svg"
   xmlns:sodipodi="http://sodipodi.sourceforge.net/DTD/sodipodi-0.dtd"
   xmlns:inkscape="http://www.inkscape.org/namespaces/inkscape"
   inkscape:version="1.0 (4035a4fb49, 2020-05-01)"
   sodipodi:docname="prototiles0.svg"
   id="svg4179"
   version="1.1"
   viewBox="0 0 600 200"
   height="200pt"
   width="600pt">
  <metadata
     id="metadata4183">
    <rdf:RDF>
      <cc:Work
         rdf:about="">
        <dc:format>image/svg+xml</dc:format>
        <dc:type
           rdf:resource="http://purl.org/dc/dcmitype/StillImage" />
        <dc:title />
      </cc:Work>
    </rdf:RDF>
  </metadata>
  <sodipodi:namedview
     inkscape:snap-object-midpoints="true"
     inkscape:snap-page="true"
     inkscape:snap-intersection-paths="true"
     inkscape:current-layer="layer3"
     inkscape:window-maximized="1"
     inkscape:window-y="44"
     inkscape:window-x="20"
     inkscape:cy="4.5276839"
     inkscape:cx="-33.530003"
     inkscape:zoom="2.8284271"
     showgrid="false"
     id="namedview4181"
     inkscape:window-height="1343"
     inkscape:window-width="2520"
     inkscape:pageshadow="2"
     inkscape:pageopacity="0"
     guidetolerance="10"
     gridtolerance="10"
     objecttolerance="10"
     borderopacity="1"
     bordercolor="#666666"
     pagecolor="#ffffff"
     inkscape:document-rotation="0"
     inkscape:document-units="pt">
    <inkscape:grid
       id="grid4573"
       type="xygrid" />
    <sodipodi:guide
       position="98.176275,128.67125"
       orientation="0,-99.999505"
       id="guide987" />
    <sodipodi:guide
       position="23.176645,128.67125"
       orientation="-95.105002,-30.902192"
       id="guide989" />
    <sodipodi:guide
       position="98.176275,128.67125"
       orientation="0,-99.999505"
       id="guide991" />
    <sodipodi:guide
       position="23.176645,128.67125"
       orientation="-95.105003,-30.902192"
       id="guide993" />
    <sodipodi:guide
       position="98.176275,128.67125"
       orientation="-95.105004,-30.902188"
       id="guide995" />
    <sodipodi:guide
       position="74.999633,200"
       orientation="0,-99.999509"
       id="guide997" />
    <sodipodi:guide
       position="121.35147,200.00043"
       orientation="-95.105315,-30.901591"
       id="guide999" />
    <sodipodi:guide
       position="98.175279,271.32942"
       orientation="95.105562,-30.900263"
       id="guide1001" />
    <sodipodi:guide
       position="121.35147,200.00043"
       orientation="-95.105315,-30.901591"
       id="guide1003" />
    <sodipodi:guide
       position="98.175279,271.32942"
       orientation="95.105562,-30.900263"
       id="guide1005" />
    <sodipodi:guide
       position="121.35147,200.00043"
       orientation="95.105558,-30.900264"
       id="guide1007" />
    <sodipodi:guide
       position="98.176274,128.67126"
       orientation="-95.105311,-30.901589"
       id="guide1009" />
    <sodipodi:guide
       position="121.35147,200.00043"
       orientation="95.105558,-30.900264"
       id="guide1011" />
    <sodipodi:guide
       position="98.176274,128.67126"
       orientation="-95.105311,-30.901589"
       id="guide1013" />
  </sodipodi:namedview>
  <defs
     id="defs3400">
    <clipPath
       id="clip1">
      <path
         id="path2728"
         d="M 10 10 L 141 10 L 141 106 L 10 106 Z M 10 10 " />
    </clipPath>
    <clipPath
       id="clip2">
      <path
         id="path2731"
         d="M 140.902344 105.105469 L 40.902344 105.105469 L 10 10 " />
    </clipPath>
    <clipPath
       id="clip3">
      <path
         id="path2734"
         d="M 32 10 L 141 10 L 141 106 L 32 106 Z M 32 10 " />
    </clipPath>
    <clipPath
       id="clip4">
      <path
         id="path2737"
         d="M 140.902344 105.105469 L 40.902344 105.105469 L 10 10 Z M 140.902344 105.105469 " />
    </clipPath>
    <clipPath
       id="clip5">
      <path
         id="path2740"
         d="M 10 10 L 69 10 L 69 69 L 10 69 Z M 10 10 " />
    </clipPath>
    <clipPath
       id="clip6">
      <path
         id="path2743"
         d="M 140.902344 105.105469 L 40.902344 105.105469 L 10 10 Z M 140.902344 105.105469 " />
    </clipPath>
    <clipPath
       id="clip7">
      <path
         id="path2746"
         d="M 10 10 L 141 10 L 141 106 L 10 106 Z M 10 10 " />
    </clipPath>
    <clipPath
       id="clip8">
      <path
         id="path2749"
         d="M 140.902344 105.105469 L 110 10 L 10 10 " />
    </clipPath>
    <clipPath
       id="clip9">
      <path
         id="path2752"
         d="M 32 10 L 141 10 L 141 106 L 32 106 Z M 32 10 " />
    </clipPath>
    <clipPath
       id="clip10">
      <path
         id="path2755"
         d="M 140.902344 105.105469 L 110 10 L 10 10 Z M 140.902344 105.105469 " />
    </clipPath>
    <clipPath
       id="clip11">
      <path
         id="path2758"
         d="M 10 10 L 69 10 L 69 69 L 10 69 Z M 10 10 " />
    </clipPath>
    <clipPath
       id="clip12">
      <path
         id="path2761"
         d="M 140.902344 105.105469 L 110 10 L 10 10 Z M 140.902344 105.105469 " />
    </clipPath>
    <clipPath
       id="clip13">
      <path
         id="path2764"
         d="M 10 130 L 110 130 L 110 189 L 10 189 Z M 10 130 " />
    </clipPath>
    <clipPath
       id="clip14">
      <path
         id="path2767"
         d="M 110 130 L 10 130 L 90.902344 188.777344 " />
    </clipPath>
    <clipPath
       id="clip15">
      <path
         id="path2770"
         d="M 51 130 L 110 130 L 110 189 L 51 189 Z M 51 130 " />
    </clipPath>
    <clipPath
       id="clip16">
      <path
         id="path2773"
         d="M 110 130 L 10 130 L 90.902344 188.777344 Z M 110 130 " />
    </clipPath>
    <clipPath
       id="clip17">
      <path
         id="path2776"
         d="M 42 140 L 110 140 L 110 189 L 42 189 Z M 42 140 " />
    </clipPath>
    <clipPath
       id="clip18">
      <path
         id="path2779"
         d="M 110 130 L 10 130 L 90.902344 188.777344 Z M 110 130 " />
    </clipPath>
    <clipPath
       id="clip19">
      <path
         id="path2782"
         d="M 90 130 L 191 130 L 191 189 L 90 189 Z M 90 130 " />
    </clipPath>
    <clipPath
       id="clip20">
      <path
         id="path2785"
         d="M 110 130 L 190.902344 188.777344 L 90.902344 188.777344 " />
    </clipPath>
    <clipPath
       id="clip21">
      <path
         id="path2788"
         d="M 90 130 L 169 130 L 169 189 L 90 189 Z M 90 130 " />
    </clipPath>
    <clipPath
       id="clip22">
      <path
         id="path2791"
         d="M 110 130 L 190.902344 188.777344 L 90.902344 188.777344 Z M 110 130 " />
    </clipPath>
    <clipPath
       id="clip23">
      <path
         id="path2794"
         d="M 90 140 L 140 140 L 140 189 L 90 189 Z M 90 140 " />
    </clipPath>
    <clipPath
       id="clip24">
      <path
         id="path2797"
         d="M 110 130 L 190.902344 188.777344 L 90.902344 188.777344 Z M 110 130 " />
    </clipPath>
    <clipPath
       id="clip1-3">
      <path
         d="m 10,10 h 131 v 96 H 10 Z m 0,0"
         id="path2728-5" />
    </clipPath>
    <clipPath
       id="clip2-6">
      <path
         d="M 140.90234,105.10547 H 40.902344 L 10,10"
         id="path2731-2" />
    </clipPath>
    <clipPath
       id="clip7-9">
      <path
         d="m 10,10 h 131 v 96 H 10 Z m 0,0"
         id="path2746-1" />
    </clipPath>
    <clipPath
       id="clip8-2">
      <path
         d="M 140.90234,105.10547 110,10 H 10"
         id="path2749-7" />
    </clipPath>
    <clipPath
       id="clip13-3">
      <path
         d="m 10,130 h 100 v 59 H 10 Z m 0,0"
         id="path2764-6" />
    </clipPath>
    <clipPath
       id="clip14-7">
      <path
         d="M 110,130 H 10 l 80.902344,58.77734"
         id="path2767-5" />
    </clipPath>
    <clipPath
       id="clip19-3">
      <path
         d="m 90,130 h 101 v 59 H 90 Z m 0,0"
         id="path2782-5" />
    </clipPath>
    <clipPath
       id="clip20-6">
      <path
         d="m 110,130 80.90234,58.77734 H 90.902344"
         id="path2785-2" />
    </clipPath>
    <clipPath
       id="clip1-9">
      <path
         d="m 10,10 h 131 v 96 H 10 Z m 0,0"
         id="path2728-2" />
    </clipPath>
    <clipPath
       id="clip2-0">
      <path
         d="M 140.90234,105.10547 H 40.902344 L 10,10"
         id="path2731-23" />
    </clipPath>
    <clipPath
       id="clip7-7">
      <path
         d="m 10,10 h 131 v 96 H 10 Z m 0,0"
         id="path2746-5" />
    </clipPath>
    <clipPath
       id="clip8-9">
      <path
         d="M 140.90234,105.10547 110,10 H 10"
         id="path2749-2" />
    </clipPath>
    <clipPath
       id="clip1-91">
      <path
         d="m 10,10 h 131 v 96 H 10 Z m 0,0"
         id="path2728-27" />
    </clipPath>
    <clipPath
       id="clip2-09">
      <path
         d="M 140.90234,105.10547 H 40.902344 L 10,10"
         id="path2731-3" />
    </clipPath>
    <clipPath
       id="clip7-6">
      <path
         d="m 10,10 h 131 v 96 H 10 Z m 0,0"
         id="path2746-0" />
    </clipPath>
    <clipPath
       id="clip8-6">
      <path
         d="M 140.90234,105.10547 110,10 H 10"
         id="path2749-26" />
    </clipPath>
    <clipPath
       id="clip13-36">
      <path
         d="m 10,130 h 100 v 59 H 10 Z m 0,0"
         id="path2764-1" />
    </clipPath>
    <clipPath
       id="clip14-2">
      <path
         d="M 110,130 H 10 l 80.902344,58.77734"
         id="path2767-9" />
    </clipPath>
    <clipPath
       id="clip19-31">
      <path
         d="m 90,130 h 101 v 59 H 90 Z m 0,0"
         id="path2782-9" />
    </clipPath>
    <clipPath
       id="clip20-4">
      <path
         d="m 110,130 80.90234,58.77734 H 90.902344"
         id="path2785-7" />
    </clipPath>
  </defs>
  <g
     inkscape:label="Green"
     id="layer3"
     inkscape:groupmode="layer">
    <path
       d="M 38.17627,71.328751 A 60,60 0 0 1 79.635249,14.26536"
       sodipodi:arc-type="arc"
       sodipodi:open="true"
       sodipodi:end="4.3982297"
       sodipodi:start="3.1415927"
       sodipodi:ry="60"
       sodipodi:rx="60"
       sodipodi:cy="71.328751"
       sodipodi:cx="98.17627"
       sodipodi:type="arc"
       style="opacity:1;fill:none;fill-rule:evenodd;stroke:#1f590b;stroke-width:3.75;stroke-linecap:butt;stroke-linejoin:round;stroke-miterlimit:4;stroke-dasharray:none;stroke-opacity:0.50196081"
       id="path4085-3" />
    <path
       sodipodi:open="true"
       d="M 79.635071,-14.265281 A 15,15 0 0 1 89.999817,5.6709314e-4 15,15 0 0 1 79.635071,14.266415"
       sodipodi:arc-type="arc"
       sodipodi:end="1.2566371"
       sodipodi:start="5.0265482"
       sodipodi:ry="15"
       sodipodi:rx="15"
       sodipodi:cy="0.00056709314"
       sodipodi:cx="74.999817"
       sodipodi:type="arc"
       id="path4123"
       style="opacity:1;fill:none;fill-rule:evenodd;stroke:#1f590b;stroke-width:3.75;stroke-linecap:butt;stroke-linejoin:round;stroke-miterlimit:4;stroke-dasharray:none;stroke-opacity:0.50196081" />
  </g>
  <g
     inkscape:label="Red"
     id="layer4"
     inkscape:groupmode="layer">
    <path
       id="path4085"
       style="opacity:1;fill:none;fill-rule:evenodd;stroke:#5f1010;stroke-width:3.75;stroke-linecap:butt;stroke-linejoin:round;stroke-miterlimit:4;stroke-dasharray:none;stroke-opacity:0.50196081"
       sodipodi:type="arc"
       sodipodi:cx="-1.110223e-16"
       sodipodi:cy="3.8146973e-06"
       sodipodi:rx="22.5"
       sodipodi:ry="22.5"
       sodipodi:start="0"
       sodipodi:end="1.2566371"
       sodipodi:open="true"
       sodipodi:arc-type="arc"
       d="M 22.5,3.8146973e-6 A 22.5,22.5 0 0 1 6.9528815,21.398776" />
    <path
       style="opacity:1;fill:none;fill-rule:evenodd;stroke:#5f1010;stroke-width:3.75;stroke-linecap:butt;stroke-linejoin:round;stroke-miterlimit:4;stroke-dasharray:none;stroke-opacity:0.50196081"
       id="path4085-6"
       sodipodi:type="arc"
       sodipodi:cx="121.35161"
       sodipodi:cy="0"
       sodipodi:rx="22.5"
       sodipodi:ry="22.5"
       sodipodi:start="1.8849556"
       sodipodi:end="4.3982297"
       sodipodi:open="true"
       sodipodi:arc-type="arc"
       d="M 114.39873,21.398772 A 22.5,22.5 0 0 1 98.851608,0 22.5,22.5 0 0 1 114.39873,-21.398772" />
  </g>
  <g
     inkscape:label="Blue"
     id="layer5"
     inkscape:groupmode="layer">
    <path
       id="path4085-6-7-5-5"
       style="opacity:1;fill:none;fill-rule:evenodd;stroke:#2d3a71;stroke-width:3.75;stroke-linecap:butt;stroke-linejoin:round;stroke-miterlimit:4;stroke-dasharray:none;stroke-opacity:0.50196081"
       sodipodi:type="arc"
       sodipodi:cx="98.176117"
       sodipodi:cy="71.329071"
       sodipodi:rx="37.5"
       sodipodi:ry="37.5"
       sodipodi:start="4.3982297"
       sodipodi:end="5.0265482"
       sodipodi:open="true"
       sodipodi:arc-type="arc"
       d="m 86.587979,35.664452 a 37.5,37.5 0 0 1 23.176271,-10e-7" />
    <path
       style="opacity:1;fill:none;fill-rule:evenodd;stroke:#2d3a71;stroke-width:3.75;stroke-linecap:butt;stroke-linejoin:round;stroke-miterlimit:4;stroke-dasharray:none;stroke-opacity:0.50196081"
       id="path4085-6-7-5-5-6"
       sodipodi:type="arc"
       sodipodi:cx="23.176645"
       sodipodi:cy="71.328751"
       sodipodi:rx="37.5"
       sodipodi:ry="37.5"
       sodipodi:start="4.3982297"
       sodipodi:end="0"
       sodipodi:open="true"
       sodipodi:arc-type="arc"
       d="m 11.588507,35.664131 a 37.5,37.5 0 0 1 33.630085,5.326482 37.5,37.5 0 0 1 15.458053,30.338138" />
    <path
       id="path4085-6-7-5-5-6-2"
       style="opacity:1;fill:none;fill-rule:evenodd;stroke:#2d3a71;stroke-width:3.75;stroke-linecap:butt;stroke-linejoin:round;stroke-miterlimit:4;stroke-dasharray:none;stroke-opacity:0.50196081"
       sodipodi:type="arc"
       sodipodi:cx="75.000076"
       sodipodi:cy="-0.00024282967"
       sodipodi:rx="37.5"
       sodipodi:ry="37.5"
       sodipodi:start="1.2566371"
       sodipodi:end="3.1415927"
       sodipodi:open="true"
       sodipodi:arc-type="arc"
       d="M 86.588212,35.664377 A 37.5,37.5 0 0 1 52.958128,30.337894 37.5,37.5 0 0 1 37.500076,-2.4282967e-4" />
    <path
       d="m 86.58714,35.664788 a 37.5,37.5 0 0 1 23.17627,-1e-6"
       sodipodi:arc-type="arc"
       sodipodi:open="true"
       sodipodi:end="5.0265482"
       sodipodi:start="4.3982297"
       sodipodi:ry="37.5"
       sodipodi:rx="37.5"
       sodipodi:cy="71.329407"
       sodipodi:cx="98.175278"
       sodipodi:type="arc"
       style="opacity:1;fill:none;fill-rule:evenodd;stroke:#2d3a71;stroke-width:3.75;stroke-linecap:butt;stroke-linejoin:round;stroke-miterlimit:4;stroke-dasharray:none;stroke-opacity:0.50196081"
       id="path4085-6-7-5-5-1"
       transform="scale(0.99999998,-0.99999998)" />
  </g>
  <g
     inkscape:label="Yellow"
     id="layer6"
     inkscape:groupmode="layer">
    <circle
       r="7.5"
       cy="71.328743"
       cx="98.17627"
       id="path4085-6-7"
       style="opacity:1;fill:none;fill-rule:evenodd;stroke:#8c8717;stroke-width:3.75;stroke-linecap:butt;stroke-linejoin:round;stroke-miterlimit:4;stroke-dasharray:none;stroke-opacity:0.50196081" />
    <path
       style="opacity:1;fill:none;fill-rule:evenodd;stroke:#8c8717;stroke-width:3.75;stroke-linecap:butt;stroke-linejoin:round;stroke-miterlimit:4;stroke-dasharray:none;stroke-opacity:0.50196081"
       id="path4085-6-7-5"
       sodipodi:type="arc"
       sodipodi:cx="23.176645"
       sodipodi:cy="71.328751"
       sodipodi:rx="7.5"
       sodipodi:ry="7.5"
       sodipodi:start="4.3982297"
       sodipodi:end="0"
       sodipodi:open="true"
       sodipodi:arc-type="arc"
       d="m 20.859018,64.195827 a 7.5,7.5 0 0 1 6.726017,1.065296 7.5,7.5 0 0 1 3.09161,6.067628" />
    <path
       style="opacity:1;fill:none;fill-rule:evenodd;stroke:#8c8717;stroke-width:3.75;stroke-linecap:butt;stroke-linejoin:round;stroke-miterlimit:4;stroke-dasharray:none;stroke-opacity:0.50196081"
       id="path4085-6-7-3"
       sodipodi:type="arc"
       sodipodi:cx="75"
       sodipodi:cy="3.8146973e-06"
       sodipodi:rx="7.5"
       sodipodi:ry="7.5"
       sodipodi:start="5.0265482"
       sodipodi:end="3.1415927"
       sodipodi:open="true"
       sodipodi:arc-type="arc"
       d="M 77.317627,-7.1329202 A 7.5,7.5 0 0 1 82.336107,1.5593414 7.5,7.5 0 0 1 74.216036,7.458918 7.5,7.5 0 0 1 67.5,3.8146973e-6" />
    <circle
       r="7.5"
       style="opacity:1;fill:none;fill-rule:evenodd;stroke:#8c8717;stroke-width:3.75;stroke-linecap:butt;stroke-linejoin:round;stroke-miterlimit:4;stroke-dasharray:none;stroke-opacity:0.50196081"
       id="path4085-6-7-9"
       cx="98.175278"
       cy="71.329407"
       transform="scale(0.99999998,-0.99999998)" />
  </g>
</svg>
