<?xml version="1.0" encoding="UTF-8" standalone="no"?>
<svg
   xmlns:dc="http://purl.org/dc/elements/1.1/"
   xmlns:cc="http://creativecommons.org/ns#"
   xmlns:rdf="http://www.w3.org/1999/02/22-rdf-syntax-ns#"
   xmlns:svg="http://www.w3.org/2000/svg"
   xmlns="http://www.w3.org/2000/svg"
   xmlns:sodipodi="http://sodipodi.sourceforge.net/DTD/sodipodi-0.dtd"
   xmlns:inkscape="http://www.inkscape.org/namespaces/inkscape"
   width="600pt"
   height="200pt"
   viewBox="0 0 600 200"
   version="1.1"
   id="svg4179"
   sodipodi:docname="prototiles1.svg"
   inkscape:version="1.0 (4035a4fb49, 2020-05-01)">
  <metadata
     id="metadata4183">
    <rdf:RDF>
      <cc:Work
         rdf:about="">
        <dc:format>image/svg+xml</dc:format>
        <dc:type
           rdf:resource="http://purl.org/dc/dcmitype/StillImage" />
        <dc:title />
      </cc:Work>
    </rdf:RDF>
  </metadata>
  <sodipodi:namedview
     inkscape:document-units="pt"
     inkscape:document-rotation="0"
     pagecolor="#ffffff"
     bordercolor="#666666"
     borderopacity="1"
     objecttolerance="10"
     gridtolerance="10"
     guidetolerance="10"
     inkscape:pageopacity="0"
     inkscape:pageshadow="2"
     inkscape:window-width="2520"
     inkscape:window-height="1343"
     id="namedview4181"
     showgrid="false"
     inkscape:zoom="7.9999999"
     inkscape:cx="102.15361"
     inkscape:cy="-1.757448"
     inkscape:window-x="20"
     inkscape:window-y="44"
     inkscape:window-maximized="1"
     inkscape:current-layer="svg4179"
     inkscape:snap-intersection-paths="true"
     inkscape:snap-page="true">
    <inkscape:grid
       type="xygrid"
       id="grid4573" />
    <sodipodi:guide
       id="guide987"
       orientation="0,-99.999505"
       position="98.176275,128.67125" />
    <sodipodi:guide
       id="guide989"
       orientation="-95.105002,-30.902192"
       position="23.176645,128.67125" />
    <sodipodi:guide
       id="guide991"
       orientation="0,-99.999505"
       position="98.176275,128.67125" />
    <sodipodi:guide
       id="guide993"
       orientation="-95.105003,-30.902192"
       position="23.176645,128.67125" />
    <sodipodi:guide
       id="guide995"
       orientation="-95.105004,-30.902188"
       position="98.176275,128.67125" />
    <sodipodi:guide
       id="guide997"
       orientation="0,-99.999509"
       position="74.999633,200" />
    <sodipodi:guide
       id="guide999"
       orientation="-95.105315,-30.901591"
       position="121.35147,200.00043" />
    <sodipodi:guide
       id="guide1001"
       orientation="95.105562,-30.900263"
       position="98.175279,271.32942" />
    <sodipodi:guide
       id="guide1003"
       orientation="-95.105315,-30.901591"
       position="121.35147,200.00043" />
    <sodipodi:guide
       id="guide1005"
       orientation="95.105562,-30.900263"
       position="98.175279,271.32942" />
    <sodipodi:guide
       id="guide1007"
       orientation="95.105558,-30.900264"
       position="121.35147,200.00043" />
    <sodipodi:guide
       id="guide1009"
       orientation="-95.105311,-30.901589"
       position="98.176274,128.67126" />
    <sodipodi:guide
       id="guide1011"
       orientation="95.105558,-30.900264"
       position="121.35147,200.00043" />
    <sodipodi:guide
       id="guide1013"
       orientation="-95.105311,-30.901589"
       position="98.176274,128.67126" />
  </sodipodi:namedview>
  <defs
     id="defs3400">
    <clipPath
       id="clip1">
      <path
         d="M 10 10 L 141 10 L 141 106 L 10 106 Z M 10 10 "
         id="path2728" />
    </clipPath>
    <clipPath
       id="clip2">
      <path
         d="M 140.902344 105.105469 L 40.902344 105.105469 L 10 10 "
         id="path2731" />
    </clipPath>
    <clipPath
       id="clip3">
      <path
         d="M 32 10 L 141 10 L 141 106 L 32 106 Z M 32 10 "
         id="path2734" />
    </clipPath>
    <clipPath
       id="clip4">
      <path
         d="M 140.902344 105.105469 L 40.902344 105.105469 L 10 10 Z M 140.902344 105.105469 "
         id="path2737" />
    </clipPath>
    <clipPath
       id="clip5">
      <path
         d="M 10 10 L 69 10 L 69 69 L 10 69 Z M 10 10 "
         id="path2740" />
    </clipPath>
    <clipPath
       id="clip6">
      <path
         d="M 140.902344 105.105469 L 40.902344 105.105469 L 10 10 Z M 140.902344 105.105469 "
         id="path2743" />
    </clipPath>
    <clipPath
       id="clip7">
      <path
         d="M 10 10 L 141 10 L 141 106 L 10 106 Z M 10 10 "
         id="path2746" />
    </clipPath>
    <clipPath
       id="clip8">
      <path
         d="M 140.902344 105.105469 L 110 10 L 10 10 "
         id="path2749" />
    </clipPath>
    <clipPath
       id="clip9">
      <path
         d="M 32 10 L 141 10 L 141 106 L 32 106 Z M 32 10 "
         id="path2752" />
    </clipPath>
    <clipPath
       id="clip10">
      <path
         d="M 140.902344 105.105469 L 110 10 L 10 10 Z M 140.902344 105.105469 "
         id="path2755" />
    </clipPath>
    <clipPath
       id="clip11">
      <path
         d="M 10 10 L 69 10 L 69 69 L 10 69 Z M 10 10 "
         id="path2758" />
    </clipPath>
    <clipPath
       id="clip12">
      <path
         d="M 140.902344 105.105469 L 110 10 L 10 10 Z M 140.902344 105.105469 "
         id="path2761" />
    </clipPath>
    <clipPath
       id="clip13">
      <path
         d="M 10 130 L 110 130 L 110 189 L 10 189 Z M 10 130 "
         id="path2764" />
    </clipPath>
    <clipPath
       id="clip14">
      <path
         d="M 110 130 L 10 130 L 90.902344 188.777344 "
         id="path2767" />
    </clipPath>
    <clipPath
       id="clip15">
      <path
         d="M 51 130 L 110 130 L 110 189 L 51 189 Z M 51 130 "
         id="path2770" />
    </clipPath>
    <clipPath
       id="clip16">
      <path
         d="M 110 130 L 10 130 L 90.902344 188.777344 Z M 110 130 "
         id="path2773" />
    </clipPath>
    <clipPath
       id="clip17">
      <path
         d="M 42 140 L 110 140 L 110 189 L 42 189 Z M 42 140 "
         id="path2776" />
    </clipPath>
    <clipPath
       id="clip18">
      <path
         d="M 110 130 L 10 130 L 90.902344 188.777344 Z M 110 130 "
         id="path2779" />
    </clipPath>
    <clipPath
       id="clip19">
      <path
         d="M 90 130 L 191 130 L 191 189 L 90 189 Z M 90 130 "
         id="path2782" />
    </clipPath>
    <clipPath
       id="clip20">
      <path
         d="M 110 130 L 190.902344 188.777344 L 90.902344 188.777344 "
         id="path2785" />
    </clipPath>
    <clipPath
       id="clip21">
      <path
         d="M 90 130 L 169 130 L 169 189 L 90 189 Z M 90 130 "
         id="path2788" />
    </clipPath>
    <clipPath
       id="clip22">
      <path
         d="M 110 130 L 190.902344 188.777344 L 90.902344 188.777344 Z M 110 130 "
         id="path2791" />
    </clipPath>
    <clipPath
       id="clip23">
      <path
         d="M 90 140 L 140 140 L 140 189 L 90 189 Z M 90 140 "
         id="path2794" />
    </clipPath>
    <clipPath
       id="clip24">
      <path
         d="M 110 130 L 190.902344 188.777344 L 90.902344 188.777344 Z M 110 130 "
         id="path2797" />
    </clipPath>
    <clipPath
       id="clip1-3">
      <path
         id="path2728-5"
         d="m 10,10 h 131 v 96 H 10 Z m 0,0" />
    </clipPath>
    <clipPath
       id="clip2-6">
      <path
         id="path2731-2"
         d="M 140.90234,105.10547 H 40.902344 L 10,10" />
    </clipPath>
    <clipPath
       id="clip7-9">
      <path
         id="path2746-1"
         d="m 10,10 h 131 v 96 H 10 Z m 0,0" />
    </clipPath>
    <clipPath
       id="clip8-2">
      <path
         id="path2749-7"
         d="M 140.90234,105.10547 110,10 H 10" />
    </clipPath>
    <clipPath
       id="clip13-3">
      <path
         id="path2764-6"
         d="m 10,130 h 100 v 59 H 10 Z m 0,0" />
    </clipPath>
    <clipPath
       id="clip14-7">
      <path
         id="path2767-5"
         d="M 110,130 H 10 l 80.902344,58.77734" />
    </clipPath>
    <clipPath
       id="clip19-3">
      <path
         id="path2782-5"
         d="m 90,130 h 101 v 59 H 90 Z m 0,0" />
    </clipPath>
    <clipPath
       id="clip20-6">
      <path
         id="path2785-2"
         d="m 110,130 80.90234,58.77734 H 90.902344" />
    </clipPath>
    <clipPath
       id="clip1-9">
      <path
         id="path2728-2"
         d="m 10,10 h 131 v 96 H 10 Z m 0,0" />
    </clipPath>
    <clipPath
       id="clip2-0">
      <path
         id="path2731-23"
         d="M 140.90234,105.10547 H 40.902344 L 10,10" />
    </clipPath>
    <clipPath
       id="clip7-7">
      <path
         id="path2746-5"
         d="m 10,10 h 131 v 96 H 10 Z m 0,0" />
    </clipPath>
    <clipPath
       id="clip8-9">
      <path
         id="path2749-2"
         d="M 140.90234,105.10547 110,10 H 10" />
    </clipPath>
    <clipPath
       id="clip1-91">
      <path
         id="path2728-27"
         d="m 10,10 h 131 v 96 H 10 Z m 0,0" />
    </clipPath>
    <clipPath
       id="clip2-09">
      <path
         id="path2731-3"
         d="M 140.90234,105.10547 H 40.902344 L 10,10" />
    </clipPath>
    <clipPath
       id="clip7-6">
      <path
         id="path2746-0"
         d="m 10,10 h 131 v 96 H 10 Z m 0,0" />
    </clipPath>
    <clipPath
       id="clip8-6">
      <path
         id="path2749-26"
         d="M 140.90234,105.10547 110,10 H 10" />
    </clipPath>
    <clipPath
       id="clip13-36">
      <path
         id="path2764-1"
         d="m 10,130 h 100 v 59 H 10 Z m 0,0" />
    </clipPath>
    <clipPath
       id="clip14-2">
      <path
         id="path2767-9"
         d="M 110,130 H 10 l 80.902344,58.77734" />
    </clipPath>
    <clipPath
       id="clip19-31">
      <path
         id="path2782-9"
         d="m 90,130 h 101 v 59 H 90 Z m 0,0" />
    </clipPath>
    <clipPath
       id="clip20-4">
      <path
         id="path2785-7"
         d="m 110,130 80.90234,58.77734 H 90.902344" />
    </clipPath>
  </defs>
  <path
     style="fill:none;fill-rule:evenodd;stroke:#000000;stroke-width:3.75;stroke-linecap:butt;stroke-linejoin:miter;stroke-opacity:1;stroke-miterlimit:4;stroke-dasharray:none"
     d="M 20.570708,-3.5618613 77.605569,74.89062"
     id="path999" />
  <path
     style="fill:none;fill-rule:evenodd;stroke:#000000;stroke-width:3.75;stroke-linecap:butt;stroke-linejoin:miter;stroke-opacity:1;stroke-miterlimit:4;stroke-dasharray:none"
     d="M 2.9461229,20.681402 95.230156,50.647355"
     id="path1001" />
  <path
     style="fill:none;fill-rule:evenodd;stroke:#000000;stroke-width:3.75001;stroke-linecap:butt;stroke-linejoin:miter;stroke-miterlimit:4;stroke-dasharray:none;stroke-opacity:1"
     d="M 115.29556,-23.61279 45.592491,72.474795"
     id="path1007" />
  <path
     style="fill:none;fill-rule:evenodd;stroke:#000000;stroke-width:3.75;stroke-linecap:butt;stroke-linejoin:miter;stroke-miterlimit:4;stroke-dasharray:none;stroke-opacity:1"
     d="m 108.39075,41.012216 v 0"
     id="path997" />
  <path
     style="fill:none;fill-rule:evenodd;stroke:#000000;stroke-width:3.75;stroke-linecap:butt;stroke-linejoin:miter;stroke-miterlimit:4;stroke-dasharray:none;stroke-opacity:1"
     d="M 115.42821,23.699062 81.673316,-22.709069"
     id="path1005" />
  <path
     id="path997-6"
     d="m 87.960808,-41.012898 v 0"
     style="fill:none;fill-rule:evenodd;stroke:#000000;stroke-width:3.75;stroke-linecap:butt;stroke-linejoin:miter;stroke-miterlimit:4;stroke-dasharray:none;stroke-opacity:1" />
  <path
     style="fill:none;fill-rule:evenodd;stroke:#000000;stroke-width:3.75;stroke-linecap:butt;stroke-linejoin:miter;stroke-miterlimit:4;stroke-dasharray:none;stroke-opacity:1"
     d="m 91.000845,49.286276 15.053385,4.87915"
     id="path1103"
     sodipodi:nodetypes="cc" />
  <path
     id="path1103-7"
     d="m 91.052243,-49.313779 15.476217,-5.028164"
     style="fill:none;fill-rule:evenodd;stroke:#000000;stroke-width:3.75;stroke-linecap:butt;stroke-linejoin:miter;stroke-miterlimit:4;stroke-dasharray:none;stroke-opacity:1"
     sodipodi:nodetypes="cc" />
  <path
     id="path997-3"
     d="m 13.620724,40.798276 v 0"
     style="fill:none;fill-rule:evenodd;stroke:#000000;stroke-width:3.75;stroke-linecap:butt;stroke-linejoin:miter;stroke-opacity:1;stroke-miterlimit:4;stroke-dasharray:none" />
  <path
     style="fill:none;fill-rule:evenodd;stroke:#000000;stroke-width:3.75;stroke-linecap:butt;stroke-linejoin:miter;stroke-opacity:1;stroke-miterlimit:4;stroke-dasharray:none"
     d="m 49.32336,-19.082851 v 0"
     id="path997-6-6" />
  <path
     style="fill:none;fill-rule:evenodd;stroke:#000000;stroke-width:3.75;stroke-linecap:square;stroke-linejoin:miter;stroke-opacity:1;stroke-miterlimit:4;stroke-dasharray:none"
     d="M 17.380573,53.490688 18.765471,53.039606 18.758121,13.628394 56.262342,1.4348386 56.262373,0"
     id="path1245" />
</svg>
