<?xml version="1.0" encoding="UTF-8" standalone="no"?>
<svg
   xmlns:dc="http://purl.org/dc/elements/1.1/"
   xmlns:cc="http://creativecommons.org/ns#"
   xmlns:rdf="http://www.w3.org/1999/02/22-rdf-syntax-ns#"
   xmlns:svg="http://www.w3.org/2000/svg"
   xmlns="http://www.w3.org/2000/svg"
   xmlns:sodipodi="http://sodipodi.sourceforge.net/DTD/sodipodi-0.dtd"
   xmlns:inkscape="http://www.inkscape.org/namespaces/inkscape"
   width="600pt"
   height="200pt"
   viewBox="0 0 600 200"
   version="1.1"
   id="svg4179"
   sodipodi:docname="prototiles2.svg"
   inkscape:version="1.0 (4035a4fb49, 2020-05-01)">
  <metadata
     id="metadata4183">
    <rdf:RDF>
      <cc:Work
         rdf:about="">
        <dc:format>image/svg+xml</dc:format>
        <dc:type
           rdf:resource="http://purl.org/dc/dcmitype/StillImage" />
        <dc:title />
      </cc:Work>
    </rdf:RDF>
  </metadata>
  <sodipodi:namedview
     inkscape:lockguides="true"
     inkscape:guide-bbox="true"
     showguides="true"
     inkscape:document-units="pt"
     inkscape:document-rotation="0"
     pagecolor="#ffffff"
     bordercolor="#666666"
     borderopacity="1"
     objecttolerance="10"
     gridtolerance="10"
     guidetolerance="10"
     inkscape:pageopacity="0"
     inkscape:pageshadow="2"
     inkscape:window-width="2520"
     inkscape:window-height="1367"
     id="namedview4181"
     showgrid="false"
     inkscape:zoom="4"
     inkscape:cx="135.6881"
     inkscape:cy="66.703094"
     inkscape:window-x="20"
     inkscape:window-y="20"
     inkscape:window-maximized="1"
     inkscape:current-layer="svg4179"
     inkscape:snap-intersection-paths="true"
     inkscape:snap-page="true">
    <inkscape:grid
       type="xygrid"
       id="grid4573" />
    <sodipodi:guide
       inkscape:locked="true"
       id="guide1076"
       orientation="1,0"
       position="98.176273,128.67125" />
    <sodipodi:guide
       inkscape:color="rgb(0,0,255)"
       inkscape:locked="true"
       inkscape:label=""
       id="guide1078"
       orientation="0.95105652,0.30901699"
       position="0,200" />
    <sodipodi:guide
       inkscape:locked="true"
       id="guide1080"
       orientation="0,-1"
       position="0,200.00001" />
    <sodipodi:guide
       inkscape:color="rgb(0,0,255)"
       inkscape:locked="true"
       inkscape:label=""
       id="guide1082"
       orientation="0.95105652,0.30901699"
       position="75.000001,200.00023" />
    <sodipodi:guide
       inkscape:locked="true"
       id="guide1084"
       orientation="0,-1"
       position="23.176644,128.67125" />
    <sodipodi:guide
       inkscape:color="rgb(0,0,255)"
       inkscape:locked="true"
       inkscape:label=""
       id="guide1086"
       orientation="0.95105652,0.30901699"
       position="98.176002,271.32634" />
    <sodipodi:guide
       inkscape:color="rgb(0,0,255)"
       inkscape:locked="true"
       inkscape:label=""
       id="guide1088"
       orientation="0.95105652,-0.30901699"
       position="98.176002,271.32551" />
    <sodipodi:guide
       inkscape:color="rgb(0,0,255)"
       inkscape:locked="true"
       inkscape:label=""
       id="guide1092"
       orientation="0.95105652,0.30901699"
       position="98.176002,200.00001" />
    <sodipodi:guide
       inkscape:color="rgb(0,0,255)"
       inkscape:locked="true"
       inkscape:label=""
       id="guide1094"
       orientation="0.95105652,-0.30901699"
       position="98.176002,200.00001" />
    <sodipodi:guide
       inkscape:color="rgb(0,0,255)"
       inkscape:locked="true"
       inkscape:label=""
       id="guide1096"
       orientation="-0.58778525,0.80901699"
       position="109.76393,164.336" />
    <sodipodi:guide
       inkscape:color="rgb(0,0,255)"
       inkscape:locked="true"
       inkscape:label=""
       id="guide1098"
       orientation="0.58778525,0.80901699"
       position="109.7638,235.664" />
    <sodipodi:guide
       inkscape:color="rgb(0,0,255)"
       inkscape:locked="true"
       inkscape:label=""
       id="guide1100"
       orientation="0.58778525,0.80901699"
       position="98.176271,155.917" />
    <sodipodi:guide
       inkscape:color="rgb(0,0,255)"
       inkscape:locked="true"
       inkscape:label=""
       id="guide1102"
       orientation="-0.58778525,0.80901699"
       position="37.501001,200.00001" />
    <sodipodi:guide
       inkscape:locked="true"
       id="guide1104"
       orientation="0,-1"
       position="67.83913,177.95823" />
    <sodipodi:guide
       inkscape:color="rgb(0,0,255)"
       inkscape:locked="true"
       inkscape:label=""
       id="guide1106"
       orientation="0.58778525,0.80901699"
       position="0,200" />
    <sodipodi:guide
       inkscape:color="rgb(0,0,255)"
       inkscape:locked="true"
       inkscape:label=""
       id="guide1108"
       orientation="0.95105652,0.30901699"
       position="30.338001,177.95823" />
    <sodipodi:guide
       inkscape:color="rgb(0,0,255)"
       inkscape:locked="true"
       inkscape:label=""
       id="guide1110"
       orientation="0.58778525,0.80901699"
       position="60.676001,128.671" />
    <sodipodi:guide
       inkscape:color="rgb(0,0,255)"
       inkscape:locked="true"
       inkscape:label=""
       id="guide1112"
       orientation="0.95105652,-0.30901699"
       position="18.75,186.37697" />
    <sodipodi:guide
       inkscape:color="rgb(0,0,255)"
       inkscape:locked="true"
       inkscape:label=""
       id="guide1118"
       orientation="0,1"
       position="208.75713,222.042" />
    <sodipodi:guide
       inkscape:locked="true"
       id="guide1124"
       orientation="0,-1"
       position="-2e-07,125.00014" />
    <sodipodi:guide
       inkscape:locked="true"
       position="98.175601,128.67125"
       orientation="-95.105562,30.900263"
       id="guide996" />
  </sodipodi:namedview>
  <defs
     id="defs3400">
    <clipPath
       id="clip1">
      <path
         d="M 10 10 L 141 10 L 141 106 L 10 106 Z M 10 10 "
         id="path2728" />
    </clipPath>
    <clipPath
       id="clip2">
      <path
         d="M 140.902344 105.105469 L 40.902344 105.105469 L 10 10 "
         id="path2731" />
    </clipPath>
    <clipPath
       id="clip3">
      <path
         d="M 32 10 L 141 10 L 141 106 L 32 106 Z M 32 10 "
         id="path2734" />
    </clipPath>
    <clipPath
       id="clip4">
      <path
         d="M 140.902344 105.105469 L 40.902344 105.105469 L 10 10 Z M 140.902344 105.105469 "
         id="path2737" />
    </clipPath>
    <clipPath
       id="clip5">
      <path
         d="M 10 10 L 69 10 L 69 69 L 10 69 Z M 10 10 "
         id="path2740" />
    </clipPath>
    <clipPath
       id="clip6">
      <path
         d="M 140.902344 105.105469 L 40.902344 105.105469 L 10 10 Z M 140.902344 105.105469 "
         id="path2743" />
    </clipPath>
    <clipPath
       id="clip7">
      <path
         d="M 10 10 L 141 10 L 141 106 L 10 106 Z M 10 10 "
         id="path2746" />
    </clipPath>
    <clipPath
       id="clip8">
      <path
         d="M 140.902344 105.105469 L 110 10 L 10 10 "
         id="path2749" />
    </clipPath>
    <clipPath
       id="clip9">
      <path
         d="M 32 10 L 141 10 L 141 106 L 32 106 Z M 32 10 "
         id="path2752" />
    </clipPath>
    <clipPath
       id="clip10">
      <path
         d="M 140.902344 105.105469 L 110 10 L 10 10 Z M 140.902344 105.105469 "
         id="path2755" />
    </clipPath>
    <clipPath
       id="clip11">
      <path
         d="M 10 10 L 69 10 L 69 69 L 10 69 Z M 10 10 "
         id="path2758" />
    </clipPath>
    <clipPath
       id="clip12">
      <path
         d="M 140.902344 105.105469 L 110 10 L 10 10 Z M 140.902344 105.105469 "
         id="path2761" />
    </clipPath>
    <clipPath
       id="clip13">
      <path
         d="M 10 130 L 110 130 L 110 189 L 10 189 Z M 10 130 "
         id="path2764" />
    </clipPath>
    <clipPath
       id="clip14">
      <path
         d="M 110 130 L 10 130 L 90.902344 188.777344 "
         id="path2767" />
    </clipPath>
    <clipPath
       id="clip15">
      <path
         d="M 51 130 L 110 130 L 110 189 L 51 189 Z M 51 130 "
         id="path2770" />
    </clipPath>
    <clipPath
       id="clip16">
      <path
         d="M 110 130 L 10 130 L 90.902344 188.777344 Z M 110 130 "
         id="path2773" />
    </clipPath>
    <clipPath
       id="clip17">
      <path
         d="M 42 140 L 110 140 L 110 189 L 42 189 Z M 42 140 "
         id="path2776" />
    </clipPath>
    <clipPath
       id="clip18">
      <path
         d="M 110 130 L 10 130 L 90.902344 188.777344 Z M 110 130 "
         id="path2779" />
    </clipPath>
    <clipPath
       id="clip19">
      <path
         d="M 90 130 L 191 130 L 191 189 L 90 189 Z M 90 130 "
         id="path2782" />
    </clipPath>
    <clipPath
       id="clip20">
      <path
         d="M 110 130 L 190.902344 188.777344 L 90.902344 188.777344 "
         id="path2785" />
    </clipPath>
    <clipPath
       id="clip21">
      <path
         d="M 90 130 L 169 130 L 169 189 L 90 189 Z M 90 130 "
         id="path2788" />
    </clipPath>
    <clipPath
       id="clip22">
      <path
         d="M 110 130 L 190.902344 188.777344 L 90.902344 188.777344 Z M 110 130 "
         id="path2791" />
    </clipPath>
    <clipPath
       id="clip23">
      <path
         d="M 90 140 L 140 140 L 140 189 L 90 189 Z M 90 140 "
         id="path2794" />
    </clipPath>
    <clipPath
       id="clip24">
      <path
         d="M 110 130 L 190.902344 188.777344 L 90.902344 188.777344 Z M 110 130 "
         id="path2797" />
    </clipPath>
    <clipPath
       id="clip1-3">
      <path
         id="path2728-5"
         d="m 10,10 h 131 v 96 H 10 Z m 0,0" />
    </clipPath>
    <clipPath
       id="clip2-6">
      <path
         id="path2731-2"
         d="M 140.90234,105.10547 H 40.902344 L 10,10" />
    </clipPath>
    <clipPath
       id="clip7-9">
      <path
         id="path2746-1"
         d="m 10,10 h 131 v 96 H 10 Z m 0,0" />
    </clipPath>
    <clipPath
       id="clip8-2">
      <path
         id="path2749-7"
         d="M 140.90234,105.10547 110,10 H 10" />
    </clipPath>
    <clipPath
       id="clip13-3">
      <path
         id="path2764-6"
         d="m 10,130 h 100 v 59 H 10 Z m 0,0" />
    </clipPath>
    <clipPath
       id="clip14-7">
      <path
         id="path2767-5"
         d="M 110,130 H 10 l 80.902344,58.77734" />
    </clipPath>
    <clipPath
       id="clip19-3">
      <path
         id="path2782-5"
         d="m 90,130 h 101 v 59 H 90 Z m 0,0" />
    </clipPath>
    <clipPath
       id="clip20-6">
      <path
         id="path2785-2"
         d="m 110,130 80.90234,58.77734 H 90.902344" />
    </clipPath>
    <clipPath
       id="clip1-9">
      <path
         id="path2728-2"
         d="m 10,10 h 131 v 96 H 10 Z m 0,0" />
    </clipPath>
    <clipPath
       id="clip2-0">
      <path
         id="path2731-23"
         d="M 140.90234,105.10547 H 40.902344 L 10,10" />
    </clipPath>
    <clipPath
       id="clip7-7">
      <path
         id="path2746-5"
         d="m 10,10 h 131 v 96 H 10 Z m 0,0" />
    </clipPath>
    <clipPath
       id="clip8-9">
      <path
         id="path2749-2"
         d="M 140.90234,105.10547 110,10 H 10" />
    </clipPath>
    <clipPath
       id="clip1-91">
      <path
         id="path2728-27"
         d="m 10,10 h 131 v 96 H 10 Z m 0,0" />
    </clipPath>
    <clipPath
       id="clip2-09">
      <path
         id="path2731-3"
         d="M 140.90234,105.10547 H 40.902344 L 10,10" />
    </clipPath>
    <clipPath
       id="clip7-6">
      <path
         id="path2746-0"
         d="m 10,10 h 131 v 96 H 10 Z m 0,0" />
    </clipPath>
    <clipPath
       id="clip8-6">
      <path
         id="path2749-26"
         d="M 140.90234,105.10547 110,10 H 10" />
    </clipPath>
    <clipPath
       id="clip13-36">
      <path
         id="path2764-1"
         d="m 10,130 h 100 v 59 H 10 Z m 0,0" />
    </clipPath>
    <clipPath
       id="clip14-2">
      <path
         id="path2767-9"
         d="M 110,130 H 10 l 80.902344,58.77734" />
    </clipPath>
    <clipPath
       id="clip19-31">
      <path
         id="path2782-9"
         d="m 90,130 h 101 v 59 H 90 Z m 0,0" />
    </clipPath>
    <clipPath
       id="clip20-4">
      <path
         id="path2785-7"
         d="m 110,130 80.90234,58.77734 H 90.902344" />
    </clipPath>
    <clipPath
       id="clip13-367">
      <path
         id="path2764-5"
         d="m 10,130 h 100 v 59 H 10 Z m 0,0" />
    </clipPath>
    <clipPath
       id="clip14-3">
      <path
         id="path2767-56"
         d="M 110,130 H 10 l 80.902344,58.77734" />
    </clipPath>
    <clipPath
       id="clip13-7">
      <path
         id="path2764-0"
         d="m 10,130 h 100 v 59 H 10 Z m 0,0" />
    </clipPath>
    <clipPath
       id="clip14-9">
      <path
         id="path2767-3"
         d="M 110,130 H 10 l 80.902344,58.77734" />
    </clipPath>
    <clipPath
       id="clip13-367-6">
      <path
         d="m 10,130 h 100 v 59 H 10 Z m 0,0"
         id="path2764-5-0" />
    </clipPath>
    <clipPath
       id="clip14-3-6">
      <path
         d="M 110,130 H 10 l 80.902344,58.77734"
         id="path2767-56-2" />
    </clipPath>
  </defs>
  <path
     style="fill:none;fill-rule:evenodd;stroke:#000000;stroke-width:3.75;stroke-linecap:butt;stroke-linejoin:miter;stroke-opacity:1;stroke-miterlimit:4;stroke-dasharray:none"
     d="m 49.32336,-19.082851 v 0"
     id="path997-6-6" />
  <path
     id="path997-9"
     d="m 108.88138,40.852581 v 0"
     style="fill:none;fill-rule:evenodd;stroke:#000000;stroke-width:3.75;stroke-linecap:butt;stroke-linejoin:miter;stroke-miterlimit:4;stroke-dasharray:none;stroke-opacity:1" />
  <path
     style="fill:none;fill-rule:evenodd;stroke:#000000;stroke-width:3.75;stroke-linecap:butt;stroke-linejoin:miter;stroke-miterlimit:4;stroke-dasharray:none;stroke-opacity:1"
     d="m 88.451455,-41.17251 v 0"
     id="path997-6-2" />
  <path
     id="path1114"
     d="M 91.01415,49.286512 60.675634,71.328737 11.588328,35.664394 16.014585,22.041773 H 82.1616"
     style="fill:none;fill-rule:evenodd;stroke:#000000;stroke-width:3.75;stroke-linecap:square;stroke-linejoin:miter;stroke-opacity:1;stroke-miterlimit:4;stroke-dasharray:none" />
  <path
     id="path1116"
     d="M 74.999882,71.328751 86.58762,35.663357 37.501001,-6.1853026e-6 25.911987,8.419905 46.35231,71.328751"
     style="fill:none;fill-rule:evenodd;stroke:#000000;stroke-width:3.75;stroke-linecap:square;stroke-linejoin:miter;stroke-opacity:1;stroke-miterlimit:4;stroke-dasharray:none" />
  <path
     id="path1120"
     d="m 91.013619,49.286411 18.749631,-13.62243 -18.749806,-57.705978 -8.852566,-7e-6"
     style="fill:none;fill-rule:evenodd;stroke:#000000;stroke-width:3.75;stroke-linecap:square;stroke-linejoin:miter;stroke-miterlimit:4;stroke-dasharray:none;stroke-opacity:1" />
  <path
     id="path1122"
     d="m 82.161271,22.041771 8.852242,-10e-6 18.749087,-57.706143 -18.74973,-13.622475"
     style="fill:none;fill-rule:evenodd;stroke:#000000;stroke-width:3.75;stroke-linecap:square;stroke-linejoin:miter;stroke-miterlimit:4;stroke-dasharray:none;stroke-opacity:1" />
</svg>
