<?xml version="1.0" encoding="UTF-8"?>
<svg xmlns="http://www.w3.org/2000/svg" xmlns:xlink="http://www.w3.org/1999/xlink" width="600pt" height="400pt" viewBox="0 0 600 400" version="1.1">
<defs>
<filter id="alpha" filterUnits="objectBoundingBox" x="0%" y="0%" width="100%" height="100%">
  <feColorMatrix type="matrix" in="SourceGraphic" values="0 0 0 0 1 0 0 0 0 1 0 0 0 0 1 0 0 0 1 0"/>
</filter>
<mask id="id1">
  <g filter="url(#alpha)">
<rect x="0" y="0" width="600" height="400" style="fill:rgb(0%,0%,0%);fill-opacity:0.5;stroke:none;"/>
  </g>
</mask>
<clipPath id="id2">
  <rect x="0" y="0" width="600" height="400"/>
</clipPath>
<g id="id3" clip-path="url(#id2)">
<path style="fill:none;stroke-width:1;stroke-linecap:butt;stroke-linejoin:miter;stroke:rgb(0%,0%,0%);stroke-opacity:0.2;stroke-dasharray:4,6;stroke-dashoffset:2;stroke-miterlimit:10;" d="M -1000 -1000 L -1000 1000 M -990 -1000 L -990 1000 M -980 -1000 L -980 1000 M -970 -1000 L -970 1000 M -960 -1000 L -960 1000 M -950 -1000 L -950 1000 M -940 -1000 L -940 1000 M -930 -1000 L -930 1000 M -920 -1000 L -920 1000 M -910 -1000 L -910 1000 M -900 -1000 L -900 1000 M -890 -1000 L -890 1000 M -880 -1000 L -880 1000 M -870 -1000 L -870 1000 M -860 -1000 L -860 1000 M -850 -1000 L -850 1000 M -840 -1000 L -840 1000 M -830 -1000 L -830 1000 M -820 -1000 L -820 1000 M -810 -1000 L -810 1000 M -800 -1000 L -800 1000 M -790 -1000 L -790 1000 M -780 -1000 L -780 1000 M -770 -1000 L -770 1000 M -760 -1000 L -760 1000 M -750 -1000 L -750 1000 M -740 -1000 L -740 1000 M -730 -1000 L -730 1000 M -720 -1000 L -720 1000 M -710 -1000 L -710 1000 M -700 -1000 L -700 1000 M -690 -1000 L -690 1000 M -680 -1000 L -680 1000 M -670 -1000 L -670 1000 M -660 -1000 L -660 1000 M -650 -1000 L -650 1000 M -640 -1000 L -640 1000 M -630 -1000 L -630 1000 M -620 -1000 L -620 1000 M -610 -1000 L -610 1000 M -600 -1000 L -600 1000 M -590 -1000 L -590 1000 M -580 -1000 L -580 1000 M -570 -1000 L -570 1000 M -560 -1000 L -560 1000 M -550 -1000 L -550 1000 M -540 -1000 L -540 1000 M -530 -1000 L -530 1000 M -520 -1000 L -520 1000 M -510 -1000 L -510 1000 M -500 -1000 L -500 1000 M -490 -1000 L -490 1000 M -480 -1000 L -480 1000 M -470 -1000 L -470 1000 M -460 -1000 L -460 1000 M -450 -1000 L -450 1000 M -440 -1000 L -440 1000 M -430 -1000 L -430 1000 M -420 -1000 L -420 1000 M -410 -1000 L -410 1000 M -400 -1000 L -400 1000 M -390 -1000 L -390 1000 M -380 -1000 L -380 1000 M -370 -1000 L -370 1000 M -360 -1000 L -360 1000 M -350 -1000 L -350 1000 M -340 -1000 L -340 1000 M -330 -1000 L -330 1000 M -320 -1000 L -320 1000 M -310 -1000 L -310 1000 M -300 -1000 L -300 1000 M -290 -1000 L -290 1000 M -280 -1000 L -280 1000 M -270 -1000 L -270 1000 M -260 -1000 L -260 1000 M -250 -1000 L -250 1000 M -240 -1000 L -240 1000 M -230 -1000 L -230 1000 M -220 -1000 L -220 1000 M -210 -1000 L -210 1000 M -200 -1000 L -200 1000 M -190 -1000 L -190 1000 M -180 -1000 L -180 1000 M -170 -1000 L -170 1000 M -160 -1000 L -160 1000 M -150 -1000 L -150 1000 M -140 -1000 L -140 1000 M -130 -1000 L -130 1000 M -120 -1000 L -120 1000 M -110 -1000 L -110 1000 M -100 -1000 L -100 1000 M -90 -1000 L -90 1000 M -80 -1000 L -80 1000 M -70 -1000 L -70 1000 M -60 -1000 L -60 1000 M -50 -1000 L -50 1000 M -40 -1000 L -40 1000 M -30 -1000 L -30 1000 M -20 -1000 L -20 1000 M -10 -1000 L -10 1000 M 0 -1000 L 0 1000 M 10 -1000 L 10 1000 M 20 -1000 L 20 1000 M 30 -1000 L 30 1000 M 40 -1000 L 40 1000 M 50 -1000 L 50 1000 M 60 -1000 L 60 1000 M 70 -1000 L 70 1000 M 80 -1000 L 80 1000 M 90 -1000 L 90 1000 M 100 -1000 L 100 1000 M 110 -1000 L 110 1000 M 120 -1000 L 120 1000 M 130 -1000 L 130 1000 M 140 -1000 L 140 1000 M 150 -1000 L 150 1000 M 160 -1000 L 160 1000 M 170 -1000 L 170 1000 M 180 -1000 L 180 1000 M 190 -1000 L 190 1000 M 200 -1000 L 200 1000 M 210 -1000 L 210 1000 M 220 -1000 L 220 1000 M 230 -1000 L 230 1000 M 240 -1000 L 240 1000 M 250 -1000 L 250 1000 M 260 -1000 L 260 1000 M 270 -1000 L 270 1000 M 280 -1000 L 280 1000 M 290 -1000 L 290 1000 M 300 -1000 L 300 1000 M 310 -1000 L 310 1000 M 320 -1000 L 320 1000 M 330 -1000 L 330 1000 M 340 -1000 L 340 1000 M 350 -1000 L 350 1000 M 360 -1000 L 360 1000 M 370 -1000 L 370 1000 M 380 -1000 L 380 1000 M 390 -1000 L 390 1000 M 400 -1000 L 400 1000 M 410 -1000 L 410 1000 M 420 -1000 L 420 1000 M 430 -1000 L 430 1000 M 440 -1000 L 440 1000 M 450 -1000 L 450 1000 M 460 -1000 L 460 1000 M 470 -1000 L 470 1000 M 480 -1000 L 480 1000 M 490 -1000 L 490 1000 M 500 -1000 L 500 1000 M 510 -1000 L 510 1000 M 520 -1000 L 520 1000 M 530 -1000 L 530 1000 M 540 -1000 L 540 1000 M 550 -1000 L 550 1000 M 560 -1000 L 560 1000 M 570 -1000 L 570 1000 M 580 -1000 L 580 1000 M 590 -1000 L 590 1000 M 600 -1000 L 600 1000 M 610 -1000 L 610 1000 M 620 -1000 L 620 1000 M 630 -1000 L 630 1000 M 640 -1000 L 640 1000 M 650 -1000 L 650 1000 M 660 -1000 L 660 1000 M 670 -1000 L 670 1000 M 680 -1000 L 680 1000 M 690 -1000 L 690 1000 M 700 -1000 L 700 1000 M 710 -1000 L 710 1000 M 720 -1000 L 720 1000 M 730 -1000 L 730 1000 M 740 -1000 L 740 1000 M 750 -1000 L 750 1000 M 760 -1000 L 760 1000 M 770 -1000 L 770 1000 M 780 -1000 L 780 1000 M 790 -1000 L 790 1000 M 800 -1000 L 800 1000 M 810 -1000 L 810 1000 M 820 -1000 L 820 1000 M 830 -1000 L 830 1000 M 840 -1000 L 840 1000 M 850 -1000 L 850 1000 M 860 -1000 L 860 1000 M 870 -1000 L 870 1000 M 880 -1000 L 880 1000 M 890 -1000 L 890 1000 M 900 -1000 L 900 1000 M 910 -1000 L 910 1000 M 920 -1000 L 920 1000 M 930 -1000 L 930 1000 M 940 -1000 L 940 1000 M 950 -1000 L 950 1000 M 960 -1000 L 960 1000 M 970 -1000 L 970 1000 M 980 -1000 L 980 1000 M 990 -1000 L 990 1000 M 1000 -1000 L 1000 1000 M -1000 -1000 L 1000 -1000 M -1000 -990 L 1000 -990 M -1000 -980 L 1000 -980 M -1000 -970 L 1000 -970 M -1000 -960 L 1000 -960 M -1000 -950 L 1000 -950 M -1000 -940 L 1000 -940 M -1000 -930 L 1000 -930 M -1000 -920 L 1000 -920 M -1000 -910 L 1000 -910 M -1000 -900 L 1000 -900 M -1000 -890 L 1000 -890 M -1000 -880 L 1000 -880 M -1000 -870 L 1000 -870 M -1000 -860 L 1000 -860 M -1000 -850 L 1000 -850 M -1000 -840 L 1000 -840 M -1000 -830 L 1000 -830 M -1000 -820 L 1000 -820 M -1000 -810 L 1000 -810 M -1000 -800 L 1000 -800 M -1000 -790 L 1000 -790 M -1000 -780 L 1000 -780 M -1000 -770 L 1000 -770 M -1000 -760 L 1000 -760 M -1000 -750 L 1000 -750 M -1000 -740 L 1000 -740 M -1000 -730 L 1000 -730 M -1000 -720 L 1000 -720 M -1000 -710 L 1000 -710 M -1000 -700 L 1000 -700 M -1000 -690 L 1000 -690 M -1000 -680 L 1000 -680 M -1000 -670 L 1000 -670 M -1000 -660 L 1000 -660 M -1000 -650 L 1000 -650 M -1000 -640 L 1000 -640 M -1000 -630 L 1000 -630 M -1000 -620 L 1000 -620 M -1000 -610 L 1000 -610 M -1000 -600 L 1000 -600 M -1000 -590 L 1000 -590 M -1000 -580 L 1000 -580 M -1000 -570 L 1000 -570 M -1000 -560 L 1000 -560 M -1000 -550 L 1000 -550 M -1000 -540 L 1000 -540 M -1000 -530 L 1000 -530 M -1000 -520 L 1000 -520 M -1000 -510 L 1000 -510 M -1000 -500 L 1000 -500 M -1000 -490 L 1000 -490 M -1000 -480 L 1000 -480 M -1000 -470 L 1000 -470 M -1000 -460 L 1000 -460 M -1000 -450 L 1000 -450 M -1000 -440 L 1000 -440 M -1000 -430 L 1000 -430 M -1000 -420 L 1000 -420 M -1000 -410 L 1000 -410 M -1000 -400 L 1000 -400 M -1000 -390 L 1000 -390 M -1000 -380 L 1000 -380 M -1000 -370 L 1000 -370 M -1000 -360 L 1000 -360 M -1000 -350 L 1000 -350 M -1000 -340 L 1000 -340 M -1000 -330 L 1000 -330 M -1000 -320 L 1000 -320 M -1000 -310 L 1000 -310 M -1000 -300 L 1000 -300 M -1000 -290 L 1000 -290 M -1000 -280 L 1000 -280 M -1000 -270 L 1000 -270 M -1000 -260 L 1000 -260 M -1000 -250 L 1000 -250 M -1000 -240 L 1000 -240 M -1000 -230 L 1000 -230 M -1000 -220 L 1000 -220 M -1000 -210 L 1000 -210 M -1000 -200 L 1000 -200 M -1000 -190 L 1000 -190 M -1000 -180 L 1000 -180 M -1000 -170 L 1000 -170 M -1000 -160 L 1000 -160 M -1000 -150 L 1000 -150 M -1000 -140 L 1000 -140 M -1000 -130 L 1000 -130 M -1000 -120 L 1000 -120 M -1000 -110 L 1000 -110 M -1000 -100 L 1000 -100 M -1000 -90 L 1000 -90 M -1000 -80 L 1000 -80 M -1000 -70 L 1000 -70 M -1000 -60 L 1000 -60 M -1000 -50 L 1000 -50 M -1000 -40 L 1000 -40 M -1000 -30 L 1000 -30 M -1000 -20 L 1000 -20 M -1000 -10 L 1000 -10 M -1000 0 L 1000 0 M -1000 10 L 1000 10 M -1000 20 L 1000 20 M -1000 30 L 1000 30 M -1000 40 L 1000 40 M -1000 50 L 1000 50 M -1000 60 L 1000 60 M -1000 70 L 1000 70 M -1000 80 L 1000 80 M -1000 90 L 1000 90 M -1000 100 L 1000 100 M -1000 110 L 1000 110 M -1000 120 L 1000 120 M -1000 130 L 1000 130 M -1000 140 L 1000 140 M -1000 150 L 1000 150 M -1000 160 L 1000 160 M -1000 170 L 1000 170 M -1000 180 L 1000 180 M -1000 190 L 1000 190 M -1000 200 L 1000 200 M -1000 210 L 1000 210 M -1000 220 L 1000 220 M -1000 230 L 1000 230 M -1000 240 L 1000 240 M -1000 250 L 1000 250 M -1000 260 L 1000 260 M -1000 270 L 1000 270 M -1000 280 L 1000 280 M -1000 290 L 1000 290 M -1000 300 L 1000 300 M -1000 310 L 1000 310 M -1000 320 L 1000 320 M -1000 330 L 1000 330 M -1000 340 L 1000 340 M -1000 350 L 1000 350 M -1000 360 L 1000 360 M -1000 370 L 1000 370 M -1000 380 L 1000 380 M -1000 390 L 1000 390 M -1000 400 L 1000 400 M -1000 410 L 1000 410 M -1000 420 L 1000 420 M -1000 430 L 1000 430 M -1000 440 L 1000 440 M -1000 450 L 1000 450 M -1000 460 L 1000 460 M -1000 470 L 1000 470 M -1000 480 L 1000 480 M -1000 490 L 1000 490 M -1000 500 L 1000 500 M -1000 510 L 1000 510 M -1000 520 L 1000 520 M -1000 530 L 1000 530 M -1000 540 L 1000 540 M -1000 550 L 1000 550 M -1000 560 L 1000 560 M -1000 570 L 1000 570 M -1000 580 L 1000 580 M -1000 590 L 1000 590 M -1000 600 L 1000 600 M -1000 610 L 1000 610 M -1000 620 L 1000 620 M -1000 630 L 1000 630 M -1000 640 L 1000 640 M -1000 650 L 1000 650 M -1000 660 L 1000 660 M -1000 670 L 1000 670 M -1000 680 L 1000 680 M -1000 690 L 1000 690 M -1000 700 L 1000 700 M -1000 710 L 1000 710 M -1000 720 L 1000 720 M -1000 730 L 1000 730 M -1000 740 L 1000 740 M -1000 750 L 1000 750 M -1000 760 L 1000 760 M -1000 770 L 1000 770 M -1000 780 L 1000 780 M -1000 790 L 1000 790 M -1000 800 L 1000 800 M -1000 810 L 1000 810 M -1000 820 L 1000 820 M -1000 830 L 1000 830 M -1000 840 L 1000 840 M -1000 850 L 1000 850 M -1000 860 L 1000 860 M -1000 870 L 1000 870 M -1000 880 L 1000 880 M -1000 890 L 1000 890 M -1000 900 L 1000 900 M -1000 910 L 1000 910 M -1000 920 L 1000 920 M -1000 930 L 1000 930 M -1000 940 L 1000 940 M -1000 950 L 1000 950 M -1000 960 L 1000 960 M -1000 970 L 1000 970 M -1000 980 L 1000 980 M -1000 990 L 1000 990 M -1000 1000 L 1000 1000 " transform="matrix(1,0,0,-1,0,400)"/>
</g>
</defs>
<g id="id4">
<use xlink:href="#id3" mask="url(#id1)"/>
<path style="fill:none;stroke-width:1;stroke-linecap:butt;stroke-linejoin:miter;stroke:rgb(36.8417%,50.6779%,70.9798%);stroke-opacity:1;stroke-dasharray:5,5;stroke-miterlimit:10;" d="M 10 10 L 590 10 L 590 390 L 10 390 Z M 10 10 " transform="matrix(1,0,0,-1,0,400)"/>
<path style="fill:none;stroke-width:1;stroke-linecap:butt;stroke-linejoin:miter;stroke:rgb(88.0722%,61.1041%,14.2051%);stroke-opacity:1;stroke-miterlimit:10;" d="M 450.652344 295.601562 L 499.449219 279.820312 L 499.851562 253.695312 L 496.574219 115.65625 L 484.699219 106.847656 L 138.742188 100.125 L 105.1875 209.648438 L 107.160156 245.96875 L 127.132812 284.464844 L 240.078125 296.519531 L 370.164062 298.679688 Z M 450.652344 295.601562 " transform="matrix(1,0,0,-1,0,400)"/>
<path style=" stroke:none;fill-rule:nonzero;fill:rgb(92.2526%,38.5626%,20.9179%);fill-opacity:1;" d="M 188.941406 295.28125 C 188.941406 292.613281 184.941406 292.613281 184.941406 295.28125 C 184.941406 297.945312 188.941406 297.945312 188.941406 295.28125 "/>
<path style=" stroke:none;fill-rule:nonzero;fill:rgb(92.2526%,38.5626%,20.9179%);fill-opacity:1;" d="M 452.652344 104.398438 C 452.652344 101.734375 448.652344 101.734375 448.652344 104.398438 C 448.652344 107.066406 452.652344 107.066406 452.652344 104.398438 "/>
<path style=" stroke:none;fill-rule:nonzero;fill:rgb(92.2526%,38.5626%,20.9179%);fill-opacity:1;" d="M 479.726562 266.578125 C 479.726562 263.910156 475.726562 263.910156 475.726562 266.578125 C 475.726562 269.246094 479.726562 269.246094 479.726562 266.578125 "/>
<path style=" stroke:none;fill-rule:nonzero;fill:rgb(92.2526%,38.5626%,20.9179%);fill-opacity:1;" d="M 198.082031 132.238281 C 198.082031 129.570312 194.082031 129.570312 194.082031 132.238281 C 194.082031 134.90625 198.082031 134.90625 198.082031 132.238281 "/>
<path style=" stroke:none;fill-rule:nonzero;fill:rgb(92.2526%,38.5626%,20.9179%);fill-opacity:1;" d="M 199.542969 145.289062 C 199.542969 142.621094 195.542969 142.621094 195.542969 145.289062 C 195.542969 147.957031 199.542969 147.957031 199.542969 145.289062 "/>
<path style=" stroke:none;fill-rule:nonzero;fill:rgb(92.2526%,38.5626%,20.9179%);fill-opacity:1;" d="M 353.917969 292.863281 C 353.917969 290.195312 349.917969 290.195312 349.917969 292.863281 C 349.917969 295.53125 353.917969 295.53125 353.917969 292.863281 "/>
<path style=" stroke:none;fill-rule:nonzero;fill:rgb(92.2526%,38.5626%,20.9179%);fill-opacity:1;" d="M 297.414062 116.535156 C 297.414062 113.867188 293.414062 113.867188 293.414062 116.535156 C 293.414062 119.203125 297.414062 119.203125 297.414062 116.535156 "/>
<path style=" stroke:none;fill-rule:nonzero;fill:rgb(92.2526%,38.5626%,20.9179%);fill-opacity:1;" d="M 468.339844 184.300781 C 468.339844 181.632812 464.339844 181.632812 464.339844 184.300781 C 464.339844 186.964844 468.339844 186.964844 468.339844 184.300781 "/>
<path style=" stroke:none;fill-rule:nonzero;fill:rgb(92.2526%,38.5626%,20.9179%);fill-opacity:1;" d="M 245.175781 139.832031 C 245.175781 137.167969 241.175781 137.167969 241.175781 139.832031 C 241.175781 142.5 245.175781 142.5 245.175781 139.832031 "/>
<path style=" stroke:none;fill-rule:nonzero;fill:rgb(92.2526%,38.5626%,20.9179%);fill-opacity:1;" d="M 485.171875 180.910156 C 485.171875 178.242188 481.171875 178.242188 481.171875 180.910156 C 481.171875 183.574219 485.171875 183.574219 485.171875 180.910156 "/>
<path style=" stroke:none;fill-rule:nonzero;fill:rgb(92.2526%,38.5626%,20.9179%);fill-opacity:1;" d="M 336.515625 189.511719 C 336.515625 186.847656 332.515625 186.847656 332.515625 189.511719 C 332.515625 192.179688 336.515625 192.179688 336.515625 189.511719 "/>
<path style=" stroke:none;fill-rule:nonzero;fill:rgb(92.2526%,38.5626%,20.9179%);fill-opacity:1;" d="M 244.015625 194.292969 C 244.015625 191.628906 240.015625 191.628906 240.015625 194.292969 C 240.015625 196.960938 244.015625 196.960938 244.015625 194.292969 "/>
<path style=" stroke:none;fill-rule:nonzero;fill:rgb(92.2526%,38.5626%,20.9179%);fill-opacity:1;" d="M 259.289062 228.054688 C 259.289062 225.386719 255.289062 225.386719 255.289062 228.054688 C 255.289062 230.722656 259.289062 230.722656 259.289062 228.054688 "/>
<path style=" stroke:none;fill-rule:nonzero;fill:rgb(92.2526%,38.5626%,20.9179%);fill-opacity:1;" d="M 300.316406 103.070312 C 300.316406 100.40625 296.316406 100.40625 296.316406 103.070312 C 296.316406 105.738281 300.316406 105.738281 300.316406 103.070312 "/>
<path style=" stroke:none;fill-rule:nonzero;fill:rgb(92.2526%,38.5626%,20.9179%);fill-opacity:1;" d="M 109.160156 154.03125 C 109.160156 151.363281 105.160156 151.363281 105.160156 154.03125 C 105.160156 156.695312 109.160156 156.695312 109.160156 154.03125 "/>
<path style=" stroke:none;fill-rule:nonzero;fill:rgb(92.2526%,38.5626%,20.9179%);fill-opacity:1;" d="M 422.507812 230.179688 C 422.507812 227.515625 418.507812 227.515625 418.507812 230.179688 C 418.507812 232.847656 422.507812 232.847656 422.507812 230.179688 "/>
<path style=" stroke:none;fill-rule:nonzero;fill:rgb(92.2526%,38.5626%,20.9179%);fill-opacity:1;" d="M 216.523438 272.347656 C 216.523438 269.679688 212.523438 269.679688 212.523438 272.347656 C 212.523438 275.011719 216.523438 275.011719 216.523438 272.347656 "/>
<path style=" stroke:none;fill-rule:nonzero;fill:rgb(92.2526%,38.5626%,20.9179%);fill-opacity:1;" d="M 501.449219 120.179688 C 501.449219 117.511719 497.449219 117.511719 497.449219 120.179688 C 497.449219 122.84375 501.449219 122.84375 501.449219 120.179688 "/>
<path style=" stroke:none;fill-rule:nonzero;fill:rgb(92.2526%,38.5626%,20.9179%);fill-opacity:1;" d="M 466.371094 256.648438 C 466.371094 253.984375 462.371094 253.984375 462.371094 256.648438 C 462.371094 259.316406 466.371094 259.316406 466.371094 256.648438 "/>
<path style=" stroke:none;fill-rule:nonzero;fill:rgb(92.2526%,38.5626%,20.9179%);fill-opacity:1;" d="M 216.507812 245.53125 C 216.507812 242.863281 212.507812 242.863281 212.507812 245.53125 C 212.507812 248.199219 216.507812 248.199219 216.507812 245.53125 "/>
<path style=" stroke:none;fill-rule:nonzero;fill:rgb(92.2526%,38.5626%,20.9179%);fill-opacity:1;" d="M 179.898438 258.761719 C 179.898438 256.097656 175.898438 256.097656 175.898438 258.761719 C 175.898438 261.429688 179.898438 261.429688 179.898438 258.761719 "/>
<path style=" stroke:none;fill-rule:nonzero;fill:rgb(92.2526%,38.5626%,20.9179%);fill-opacity:1;" d="M 299.160156 159.382812 C 299.160156 156.714844 295.160156 156.714844 295.160156 159.382812 C 295.160156 162.046875 299.160156 162.046875 299.160156 159.382812 "/>
<path style=" stroke:none;fill-rule:nonzero;fill:rgb(92.2526%,38.5626%,20.9179%);fill-opacity:1;" d="M 451.703125 240.953125 C 451.703125 238.285156 447.703125 238.285156 447.703125 240.953125 C 447.703125 243.621094 451.703125 243.621094 451.703125 240.953125 "/>
<path style=" stroke:none;fill-rule:nonzero;fill:rgb(92.2526%,38.5626%,20.9179%);fill-opacity:1;" d="M 390.734375 138.167969 C 390.734375 135.503906 386.734375 135.503906 386.734375 138.167969 C 386.734375 140.835938 390.734375 140.835938 390.734375 138.167969 "/>
<path style=" stroke:none;fill-rule:nonzero;fill:rgb(92.2526%,38.5626%,20.9179%);fill-opacity:1;" d="M 289.632812 264.753906 C 289.632812 262.085938 285.632812 262.085938 285.632812 264.753906 C 285.632812 267.421875 289.632812 267.421875 289.632812 264.753906 "/>
<path style=" stroke:none;fill-rule:nonzero;fill:rgb(92.2526%,38.5626%,20.9179%);fill-opacity:1;" d="M 394.996094 286.089844 C 394.996094 283.425781 390.996094 283.425781 390.996094 286.089844 C 390.996094 288.757812 394.996094 288.757812 394.996094 286.089844 "/>
<path style=" stroke:none;fill-rule:nonzero;fill:rgb(92.2526%,38.5626%,20.9179%);fill-opacity:1;" d="M 129.132812 115.535156 C 129.132812 112.867188 125.132812 112.867188 125.132812 115.535156 C 125.132812 118.203125 129.132812 118.203125 129.132812 115.535156 "/>
<path style=" stroke:none;fill-rule:nonzero;fill:rgb(92.2526%,38.5626%,20.9179%);fill-opacity:1;" d="M 150.476562 214.1875 C 150.476562 211.523438 146.476562 211.523438 146.476562 214.1875 C 146.476562 216.855469 150.476562 216.855469 150.476562 214.1875 "/>
<path style=" stroke:none;fill-rule:nonzero;fill:rgb(92.2526%,38.5626%,20.9179%);fill-opacity:1;" d="M 352.675781 176.007812 C 352.675781 173.339844 348.675781 173.339844 348.675781 176.007812 C 348.675781 178.675781 352.675781 178.675781 352.675781 176.007812 "/>
<path style=" stroke:none;fill-rule:nonzero;fill:rgb(92.2526%,38.5626%,20.9179%);fill-opacity:1;" d="M 203.109375 201.019531 C 203.109375 198.351562 199.109375 198.351562 199.109375 201.019531 C 199.109375 203.6875 203.109375 203.6875 203.109375 201.019531 "/>
<path style=" stroke:none;fill-rule:nonzero;fill:rgb(92.2526%,38.5626%,20.9179%);fill-opacity:1;" d="M 463.578125 293.441406 C 463.578125 290.777344 459.578125 290.777344 459.578125 293.441406 C 459.578125 296.109375 463.578125 296.109375 463.578125 293.441406 "/>
<path style=" stroke:none;fill-rule:nonzero;fill:rgb(92.2526%,38.5626%,20.9179%);fill-opacity:1;" d="M 289.273438 140.121094 C 289.273438 137.453125 285.273438 137.453125 285.273438 140.121094 C 285.273438 142.789062 289.273438 142.789062 289.273438 140.121094 "/>
<path style=" stroke:none;fill-rule:nonzero;fill:rgb(92.2526%,38.5626%,20.9179%);fill-opacity:1;" d="M 461.121094 114.535156 C 461.121094 111.871094 457.121094 111.871094 457.121094 114.535156 C 457.121094 117.203125 461.121094 117.203125 461.121094 114.535156 "/>
<path style=" stroke:none;fill-rule:nonzero;fill:rgb(92.2526%,38.5626%,20.9179%);fill-opacity:1;" d="M 491.886719 140.976562 C 491.886719 138.308594 487.886719 138.308594 487.886719 140.976562 C 487.886719 143.640625 491.886719 143.640625 491.886719 140.976562 "/>
<path style=" stroke:none;fill-rule:nonzero;fill:rgb(92.2526%,38.5626%,20.9179%);fill-opacity:1;" d="M 193.085938 190.542969 C 193.085938 187.878906 189.085938 187.878906 189.085938 190.542969 C 189.085938 193.210938 193.085938 193.210938 193.085938 190.542969 "/>
<path style=" stroke:none;fill-rule:nonzero;fill:rgb(92.2526%,38.5626%,20.9179%);fill-opacity:1;" d="M 227.960938 205.199219 C 227.960938 202.53125 223.960938 202.53125 223.960938 205.199219 C 223.960938 207.867188 227.960938 207.867188 227.960938 205.199219 "/>
<path style=" stroke:none;fill-rule:nonzero;fill:rgb(92.2526%,38.5626%,20.9179%);fill-opacity:1;" d="M 242.078125 103.480469 C 242.078125 100.816406 238.078125 100.816406 238.078125 103.480469 C 238.078125 106.148438 242.078125 106.148438 242.078125 103.480469 "/>
<path style=" stroke:none;fill-rule:nonzero;fill:rgb(92.2526%,38.5626%,20.9179%);fill-opacity:1;" d="M 353.871094 240.621094 C 353.871094 237.957031 349.871094 237.957031 349.871094 240.621094 C 349.871094 243.289062 353.871094 243.289062 353.871094 240.621094 "/>
<path style=" stroke:none;fill-rule:nonzero;fill:rgb(92.2526%,38.5626%,20.9179%);fill-opacity:1;" d="M 425.402344 285.84375 C 425.402344 283.179688 421.402344 283.179688 421.402344 285.84375 C 421.402344 288.511719 425.402344 288.511719 425.402344 285.84375 "/>
<path style=" stroke:none;fill-rule:nonzero;fill:rgb(92.2526%,38.5626%,20.9179%);fill-opacity:1;" d="M 498.574219 284.34375 C 498.574219 281.675781 494.574219 281.675781 494.574219 284.34375 C 494.574219 287.011719 498.574219 287.011719 498.574219 284.34375 "/>
<path style=" stroke:none;fill-rule:nonzero;fill:rgb(92.2526%,38.5626%,20.9179%);fill-opacity:1;" d="M 419.949219 252.792969 C 419.949219 250.125 415.949219 250.125 415.949219 252.792969 C 415.949219 255.460938 419.949219 255.460938 419.949219 252.792969 "/>
<path style=" stroke:none;fill-rule:nonzero;fill:rgb(92.2526%,38.5626%,20.9179%);fill-opacity:1;" d="M 351.855469 254.359375 C 351.855469 251.695312 347.855469 251.695312 347.855469 254.359375 C 347.855469 257.027344 351.855469 257.027344 351.855469 254.359375 "/>
<path style=" stroke:none;fill-rule:nonzero;fill:rgb(92.2526%,38.5626%,20.9179%);fill-opacity:1;" d="M 444.71875 289.96875 C 444.71875 287.304688 440.71875 287.304688 440.71875 289.96875 C 440.71875 292.636719 444.71875 292.636719 444.71875 289.96875 "/>
<path style=" stroke:none;fill-rule:nonzero;fill:rgb(92.2526%,38.5626%,20.9179%);fill-opacity:1;" d="M 326.628906 283.929688 C 326.628906 281.265625 322.628906 281.265625 322.628906 283.929688 C 322.628906 286.597656 326.628906 286.597656 326.628906 283.929688 "/>
<path style=" stroke:none;fill-rule:nonzero;fill:rgb(92.2526%,38.5626%,20.9179%);fill-opacity:1;" d="M 393.007812 148.058594 C 393.007812 145.390625 389.007812 145.390625 389.007812 148.058594 C 389.007812 150.726562 393.007812 150.726562 393.007812 148.058594 "/>
<path style=" stroke:none;fill-rule:nonzero;fill:rgb(92.2526%,38.5626%,20.9179%);fill-opacity:1;" d="M 168.894531 139.273438 C 168.894531 136.609375 164.894531 136.609375 164.894531 139.273438 C 164.894531 141.941406 168.894531 141.941406 168.894531 139.273438 "/>
<path style=" stroke:none;fill-rule:nonzero;fill:rgb(92.2526%,38.5626%,20.9179%);fill-opacity:1;" d="M 244.640625 135.082031 C 244.640625 132.414062 240.640625 132.414062 240.640625 135.082031 C 240.640625 137.75 244.640625 137.75 244.640625 135.082031 "/>
<path style=" stroke:none;fill-rule:nonzero;fill:rgb(92.2526%,38.5626%,20.9179%);fill-opacity:1;" d="M 224.359375 263.285156 C 224.359375 260.621094 220.359375 260.621094 220.359375 263.285156 C 220.359375 265.953125 224.359375 265.953125 224.359375 263.285156 "/>
<path style=" stroke:none;fill-rule:nonzero;fill:rgb(92.2526%,38.5626%,20.9179%);fill-opacity:1;" d="M 475.066406 180.070312 C 475.066406 177.40625 471.066406 177.40625 471.066406 180.070312 C 471.066406 182.738281 475.066406 182.738281 475.066406 180.070312 "/>
<path style=" stroke:none;fill-rule:nonzero;fill:rgb(92.2526%,38.5626%,20.9179%);fill-opacity:1;" d="M 398.792969 237.265625 C 398.792969 234.601562 394.792969 234.601562 394.792969 237.265625 C 394.792969 239.933594 398.792969 239.933594 398.792969 237.265625 "/>
<path style=" stroke:none;fill-rule:nonzero;fill:rgb(92.2526%,38.5626%,20.9179%);fill-opacity:1;" d="M 215.835938 211.523438 C 215.835938 208.855469 211.835938 208.855469 211.835938 211.523438 C 211.835938 214.191406 215.835938 214.191406 215.835938 211.523438 "/>
<path style=" stroke:none;fill-rule:nonzero;fill:rgb(92.2526%,38.5626%,20.9179%);fill-opacity:1;" d="M 486.699219 293.152344 C 486.699219 290.484375 482.699219 290.484375 482.699219 293.152344 C 482.699219 295.816406 486.699219 295.816406 486.699219 293.152344 "/>
<path style=" stroke:none;fill-rule:nonzero;fill:rgb(92.2526%,38.5626%,20.9179%);fill-opacity:1;" d="M 186.945312 190.796875 C 186.945312 188.128906 182.945312 188.128906 182.945312 190.796875 C 182.945312 193.464844 186.945312 193.464844 186.945312 190.796875 "/>
<path style=" stroke:none;fill-rule:nonzero;fill:rgb(92.2526%,38.5626%,20.9179%);fill-opacity:1;" d="M 394.238281 165.164062 C 394.238281 162.496094 390.238281 162.496094 390.238281 165.164062 C 390.238281 167.828125 394.238281 167.828125 394.238281 165.164062 "/>
<path style=" stroke:none;fill-rule:nonzero;fill:rgb(92.2526%,38.5626%,20.9179%);fill-opacity:1;" d="M 481.65625 179.304688 C 481.65625 176.636719 477.65625 176.636719 477.65625 179.304688 C 477.65625 181.96875 481.65625 181.96875 481.65625 179.304688 "/>
<path style=" stroke:none;fill-rule:nonzero;fill:rgb(92.2526%,38.5626%,20.9179%);fill-opacity:1;" d="M 427.863281 259.269531 C 427.863281 256.601562 423.863281 256.601562 423.863281 259.269531 C 423.863281 261.933594 427.863281 261.933594 427.863281 259.269531 "/>
<path style=" stroke:none;fill-rule:nonzero;fill:rgb(92.2526%,38.5626%,20.9179%);fill-opacity:1;" d="M 474.699219 131.667969 C 474.699219 129 470.699219 129 470.699219 131.667969 C 470.699219 134.335938 474.699219 134.335938 474.699219 131.667969 "/>
<path style=" stroke:none;fill-rule:nonzero;fill:rgb(92.2526%,38.5626%,20.9179%);fill-opacity:1;" d="M 214.644531 170.941406 C 214.644531 168.273438 210.644531 168.273438 210.644531 170.941406 C 210.644531 173.605469 214.644531 173.605469 214.644531 170.941406 "/>
<path style=" stroke:none;fill-rule:nonzero;fill:rgb(92.2526%,38.5626%,20.9179%);fill-opacity:1;" d="M 131.636719 164.414062 C 131.636719 161.746094 127.636719 161.746094 127.636719 164.414062 C 127.636719 167.078125 131.636719 167.078125 131.636719 164.414062 "/>
<path style=" stroke:none;fill-rule:nonzero;fill:rgb(92.2526%,38.5626%,20.9179%);fill-opacity:1;" d="M 372.164062 101.320312 C 372.164062 98.652344 368.164062 98.652344 368.164062 101.320312 C 368.164062 103.984375 372.164062 103.984375 372.164062 101.320312 "/>
<path style=" stroke:none;fill-rule:nonzero;fill:rgb(92.2526%,38.5626%,20.9179%);fill-opacity:1;" d="M 265.308594 129.664062 C 265.308594 126.996094 261.308594 126.996094 261.308594 129.664062 C 261.308594 132.328125 265.308594 132.328125 265.308594 129.664062 "/>
<path style=" stroke:none;fill-rule:nonzero;fill:rgb(92.2526%,38.5626%,20.9179%);fill-opacity:1;" d="M 185.339844 190.367188 C 185.339844 187.699219 181.339844 187.699219 181.339844 190.367188 C 181.339844 193.03125 185.339844 193.03125 185.339844 190.367188 "/>
<path style=" stroke:none;fill-rule:nonzero;fill:rgb(92.2526%,38.5626%,20.9179%);fill-opacity:1;" d="M 445.589844 166.5625 C 445.589844 163.898438 441.589844 163.898438 441.589844 166.5625 C 441.589844 169.230469 445.589844 169.230469 445.589844 166.5625 "/>
<path style=" stroke:none;fill-rule:nonzero;fill:rgb(92.2526%,38.5626%,20.9179%);fill-opacity:1;" d="M 379.011719 175.980469 C 379.011719 173.3125 375.011719 173.3125 375.011719 175.980469 C 375.011719 178.648438 379.011719 178.648438 379.011719 175.980469 "/>
<path style=" stroke:none;fill-rule:nonzero;fill:rgb(92.2526%,38.5626%,20.9179%);fill-opacity:1;" d="M 471.644531 211.429688 C 471.644531 208.765625 467.644531 208.765625 467.644531 211.429688 C 467.644531 214.097656 471.644531 214.097656 471.644531 211.429688 "/>
<path style=" stroke:none;fill-rule:nonzero;fill:rgb(92.2526%,38.5626%,20.9179%);fill-opacity:1;" d="M 151.628906 275.132812 C 151.628906 272.464844 147.628906 272.464844 147.628906 275.132812 C 147.628906 277.796875 151.628906 277.796875 151.628906 275.132812 "/>
<path style=" stroke:none;fill-rule:nonzero;fill:rgb(92.2526%,38.5626%,20.9179%);fill-opacity:1;" d="M 408.820312 249.3125 C 408.820312 246.644531 404.820312 246.644531 404.820312 249.3125 C 404.820312 251.976562 408.820312 251.976562 408.820312 249.3125 "/>
<path style=" stroke:none;fill-rule:nonzero;fill:rgb(92.2526%,38.5626%,20.9179%);fill-opacity:1;" d="M 215.964844 154.859375 C 215.964844 152.195312 211.964844 152.195312 211.964844 154.859375 C 211.964844 157.527344 215.964844 157.527344 215.964844 154.859375 "/>
<path style=" stroke:none;fill-rule:nonzero;fill:rgb(92.2526%,38.5626%,20.9179%);fill-opacity:1;" d="M 343.753906 151.953125 C 343.753906 149.285156 339.753906 149.285156 339.753906 151.953125 C 339.753906 154.621094 343.753906 154.621094 343.753906 151.953125 "/>
<path style=" stroke:none;fill-rule:nonzero;fill:rgb(92.2526%,38.5626%,20.9179%);fill-opacity:1;" d="M 162.285156 175.351562 C 162.285156 172.683594 158.285156 172.683594 158.285156 175.351562 C 158.285156 178.019531 162.285156 178.019531 162.285156 175.351562 "/>
<path style=" stroke:none;fill-rule:nonzero;fill:rgb(92.2526%,38.5626%,20.9179%);fill-opacity:1;" d="M 363.261719 245.585938 C 363.261719 242.921875 359.261719 242.921875 359.261719 245.585938 C 359.261719 248.253906 363.261719 248.253906 363.261719 245.585938 "/>
<path style=" stroke:none;fill-rule:nonzero;fill:rgb(92.2526%,38.5626%,20.9179%);fill-opacity:1;" d="M 285.1875 232.445312 C 285.1875 229.777344 281.1875 229.777344 281.1875 232.445312 C 281.1875 235.109375 285.1875 235.109375 285.1875 232.445312 "/>
<path style=" stroke:none;fill-rule:nonzero;fill:rgb(92.2526%,38.5626%,20.9179%);fill-opacity:1;" d="M 437.671875 236.433594 C 437.671875 233.765625 433.671875 233.765625 433.671875 236.433594 C 433.671875 239.097656 437.671875 239.097656 437.671875 236.433594 "/>
<path style=" stroke:none;fill-rule:nonzero;fill:rgb(92.2526%,38.5626%,20.9179%);fill-opacity:1;" d="M 250.617188 285.371094 C 250.617188 282.703125 246.617188 282.703125 246.617188 285.371094 C 246.617188 288.039062 250.617188 288.039062 250.617188 285.371094 "/>
<path style=" stroke:none;fill-rule:nonzero;fill:rgb(92.2526%,38.5626%,20.9179%);fill-opacity:1;" d="M 405.117188 276.53125 C 405.117188 273.867188 401.117188 273.867188 401.117188 276.53125 C 401.117188 279.199219 405.117188 279.199219 405.117188 276.53125 "/>
<path style=" stroke:none;fill-rule:nonzero;fill:rgb(92.2526%,38.5626%,20.9179%);fill-opacity:1;" d="M 429.828125 138.597656 C 429.828125 135.933594 425.828125 135.933594 425.828125 138.597656 C 425.828125 141.265625 429.828125 141.265625 429.828125 138.597656 "/>
<path style=" stroke:none;fill-rule:nonzero;fill:rgb(92.2526%,38.5626%,20.9179%);fill-opacity:1;" d="M 420.195312 240.171875 C 420.195312 237.507812 416.195312 237.507812 416.195312 240.171875 C 416.195312 242.839844 420.195312 242.839844 420.195312 240.171875 "/>
<path style=" stroke:none;fill-rule:nonzero;fill:rgb(92.2526%,38.5626%,20.9179%);fill-opacity:1;" d="M 217.589844 265.996094 C 217.589844 263.328125 213.589844 263.328125 213.589844 265.996094 C 213.589844 268.664062 217.589844 268.664062 217.589844 265.996094 "/>
<path style=" stroke:none;fill-rule:nonzero;fill:rgb(92.2526%,38.5626%,20.9179%);fill-opacity:1;" d="M 427.507812 139.664062 C 427.507812 136.996094 423.507812 136.996094 423.507812 139.664062 C 423.507812 142.332031 427.507812 142.332031 427.507812 139.664062 "/>
<path style=" stroke:none;fill-rule:nonzero;fill:rgb(92.2526%,38.5626%,20.9179%);fill-opacity:1;" d="M 393.574219 214.179688 C 393.574219 211.511719 389.574219 211.511719 389.574219 214.179688 C 389.574219 216.847656 393.574219 216.847656 393.574219 214.179688 "/>
<path style=" stroke:none;fill-rule:nonzero;fill:rgb(92.2526%,38.5626%,20.9179%);fill-opacity:1;" d="M 140.742188 299.875 C 140.742188 297.207031 136.742188 297.207031 136.742188 299.875 C 136.742188 302.542969 140.742188 302.542969 140.742188 299.875 "/>
<path style=" stroke:none;fill-rule:nonzero;fill:rgb(92.2526%,38.5626%,20.9179%);fill-opacity:1;" d="M 217.199219 122.300781 C 217.199219 119.632812 213.199219 119.632812 213.199219 122.300781 C 213.199219 124.964844 217.199219 124.964844 217.199219 122.300781 "/>
<path style=" stroke:none;fill-rule:nonzero;fill:rgb(92.2526%,38.5626%,20.9179%);fill-opacity:1;" d="M 118.90625 161.964844 C 118.90625 159.296875 114.90625 159.296875 114.90625 161.964844 C 114.90625 164.632812 118.90625 164.632812 118.90625 161.964844 "/>
<path style=" stroke:none;fill-rule:nonzero;fill:rgb(92.2526%,38.5626%,20.9179%);fill-opacity:1;" d="M 420.878906 274.527344 C 420.878906 271.863281 416.878906 271.863281 416.878906 274.527344 C 416.878906 277.195312 420.878906 277.195312 420.878906 274.527344 "/>
<path style=" stroke:none;fill-rule:nonzero;fill:rgb(92.2526%,38.5626%,20.9179%);fill-opacity:1;" d="M 434.839844 151.570312 C 434.839844 148.902344 430.839844 148.902344 430.839844 151.570312 C 430.839844 154.238281 434.839844 154.238281 434.839844 151.570312 "/>
<path style=" stroke:none;fill-rule:nonzero;fill:rgb(92.2526%,38.5626%,20.9179%);fill-opacity:1;" d="M 219.398438 138.945312 C 219.398438 136.277344 215.398438 136.277344 215.398438 138.945312 C 215.398438 141.609375 219.398438 141.609375 219.398438 138.945312 "/>
<path style=" stroke:none;fill-rule:nonzero;fill:rgb(92.2526%,38.5626%,20.9179%);fill-opacity:1;" d="M 255.925781 214.910156 C 255.925781 212.246094 251.925781 212.246094 251.925781 214.910156 C 251.925781 217.578125 255.925781 217.578125 255.925781 214.910156 "/>
<path style=" stroke:none;fill-rule:nonzero;fill:rgb(92.2526%,38.5626%,20.9179%);fill-opacity:1;" d="M 107.1875 190.351562 C 107.1875 187.6875 103.1875 187.6875 103.1875 190.351562 C 103.1875 193.019531 107.1875 193.019531 107.1875 190.351562 "/>
<path style=" stroke:none;fill-rule:nonzero;fill:rgb(92.2526%,38.5626%,20.9179%);fill-opacity:1;" d="M 254.160156 133.539062 C 254.160156 130.871094 250.160156 130.871094 250.160156 133.539062 C 250.160156 136.203125 254.160156 136.203125 254.160156 133.539062 "/>
<path style=" stroke:none;fill-rule:nonzero;fill:rgb(92.2526%,38.5626%,20.9179%);fill-opacity:1;" d="M 196.007812 163.402344 C 196.007812 160.734375 192.007812 160.734375 192.007812 163.402344 C 192.007812 166.066406 196.007812 166.066406 196.007812 163.402344 "/>
<path style=" stroke:none;fill-rule:nonzero;fill:rgb(92.2526%,38.5626%,20.9179%);fill-opacity:1;" d="M 378.636719 293.429688 C 378.636719 290.761719 374.636719 290.761719 374.636719 293.429688 C 374.636719 296.097656 378.636719 296.097656 378.636719 293.429688 "/>
<path style=" stroke:none;fill-rule:nonzero;fill:rgb(92.2526%,38.5626%,20.9179%);fill-opacity:1;" d="M 477.695312 203.984375 C 477.695312 201.316406 473.695312 201.316406 473.695312 203.984375 C 473.695312 206.652344 477.695312 206.652344 477.695312 203.984375 "/>
<path style=" stroke:none;fill-rule:nonzero;fill:rgb(92.2526%,38.5626%,20.9179%);fill-opacity:1;" d="M 333.839844 144.078125 C 333.839844 141.410156 329.839844 141.410156 329.839844 144.078125 C 329.839844 146.742188 333.839844 146.742188 333.839844 144.078125 "/>
<path style=" stroke:none;fill-rule:nonzero;fill:rgb(92.2526%,38.5626%,20.9179%);fill-opacity:1;" d="M 167.898438 202.003906 C 167.898438 199.339844 163.898438 199.339844 163.898438 202.003906 C 163.898438 204.671875 167.898438 204.671875 167.898438 202.003906 "/>
<path style=" stroke:none;fill-rule:nonzero;fill:rgb(92.2526%,38.5626%,20.9179%);fill-opacity:1;" d="M 282.203125 154.121094 C 282.203125 151.453125 278.203125 151.453125 278.203125 154.121094 C 278.203125 156.785156 282.203125 156.785156 282.203125 154.121094 "/>
<path style=" stroke:none;fill-rule:nonzero;fill:rgb(92.2526%,38.5626%,20.9179%);fill-opacity:1;" d="M 501.851562 146.304688 C 501.851562 143.640625 497.851562 143.640625 497.851562 146.304688 C 497.851562 148.972656 501.851562 148.972656 501.851562 146.304688 "/>
<path style=" stroke:none;fill-rule:nonzero;fill:rgb(92.2526%,38.5626%,20.9179%);fill-opacity:1;" d="M 325.625 194.105469 C 325.625 191.4375 321.625 191.4375 321.625 194.105469 C 321.625 196.773438 325.625 196.773438 325.625 194.105469 "/>
<path style=" stroke:none;fill-rule:nonzero;fill:rgb(92.2526%,38.5626%,20.9179%);fill-opacity:1;" d="M 249.085938 160.835938 C 249.085938 158.171875 245.085938 158.171875 245.085938 160.835938 C 245.085938 163.503906 249.085938 163.503906 249.085938 160.835938 "/>
<path style=" stroke:none;fill-rule:nonzero;fill:rgb(92.2526%,38.5626%,20.9179%);fill-opacity:1;" d="M 292.242188 102.734375 C 292.242188 100.066406 288.242188 100.066406 288.242188 102.734375 C 288.242188 105.398438 292.242188 105.398438 292.242188 102.734375 "/>
<path style=" stroke:none;fill-rule:nonzero;fill:rgb(92.2526%,38.5626%,20.9179%);fill-opacity:1;" d="M 171.828125 225.238281 C 171.828125 222.570312 167.828125 222.570312 167.828125 225.238281 C 167.828125 227.90625 171.828125 227.90625 171.828125 225.238281 "/>
<path style=" stroke:none;fill-rule:nonzero;fill:rgb(92.2526%,38.5626%,20.9179%);fill-opacity:1;" d="M 437.644531 202.84375 C 437.644531 200.175781 433.644531 200.175781 433.644531 202.84375 C 433.644531 205.511719 437.644531 205.511719 437.644531 202.84375 "/>
<path style=" stroke:none;fill-rule:nonzero;fill:rgb(92.2526%,38.5626%,20.9179%);fill-opacity:1;" d="M 192.121094 288.414062 C 192.121094 285.746094 188.121094 285.746094 188.121094 288.414062 C 188.121094 291.078125 192.121094 291.078125 192.121094 288.414062 "/>
<path style=" stroke:none;fill-rule:nonzero;fill:rgb(92.2526%,38.5626%,20.9179%);fill-opacity:1;" d="M 262.617188 115.867188 C 262.617188 113.199219 258.617188 113.199219 258.617188 115.867188 C 258.617188 118.53125 262.617188 118.53125 262.617188 115.867188 "/>
<path style=" stroke:none;fill-rule:nonzero;fill:rgb(92.2526%,38.5626%,20.9179%);fill-opacity:1;" d="M 296.414062 147.488281 C 296.414062 144.824219 292.414062 144.824219 292.414062 147.488281 C 292.414062 150.15625 296.414062 150.15625 296.414062 147.488281 "/>
<path style=" stroke:none;fill-rule:nonzero;fill:rgb(92.2526%,38.5626%,20.9179%);fill-opacity:1;" d="M 396.960938 146.175781 C 396.960938 143.511719 392.960938 143.511719 392.960938 146.175781 C 392.960938 148.84375 396.960938 148.84375 396.960938 146.175781 "/>
<path style=" stroke:none;fill-rule:nonzero;fill:rgb(92.2526%,38.5626%,20.9179%);fill-opacity:1;" d="M 234.636719 180.488281 C 234.636719 177.820312 230.636719 177.820312 230.636719 180.488281 C 230.636719 183.15625 234.636719 183.15625 234.636719 180.488281 "/>
<path style=" stroke:none;fill-rule:nonzero;fill:rgb(92.2526%,38.5626%,20.9179%);fill-opacity:1;" d="M 212.964844 232.609375 C 212.964844 229.945312 208.964844 229.945312 208.964844 232.609375 C 208.964844 235.277344 212.964844 235.277344 212.964844 232.609375 "/>
<path style=" stroke:none;fill-rule:nonzero;fill:rgb(92.2526%,38.5626%,20.9179%);fill-opacity:1;" d="M 310.03125 170.730469 C 310.03125 168.0625 306.03125 168.0625 306.03125 170.730469 C 306.03125 173.398438 310.03125 173.398438 310.03125 170.730469 "/>
<path style=" stroke:none;fill-rule:nonzero;fill:rgb(92.2526%,38.5626%,20.9179%);fill-opacity:1;" d="M 353.757812 139.542969 C 353.757812 136.875 349.757812 136.875 349.757812 139.542969 C 349.757812 142.207031 353.757812 142.207031 353.757812 139.542969 "/>
<path style=" stroke:none;fill-rule:nonzero;fill:rgb(92.2526%,38.5626%,20.9179%);fill-opacity:1;" d="M 261.996094 151.714844 C 261.996094 149.046875 257.996094 149.046875 257.996094 151.714844 C 257.996094 154.378906 261.996094 154.378906 261.996094 151.714844 "/>
<path style=" stroke:none;fill-rule:nonzero;fill:rgb(92.2526%,38.5626%,20.9179%);fill-opacity:1;" d="M 436.023438 269.851562 C 436.023438 267.1875 432.023438 267.1875 432.023438 269.851562 C 432.023438 272.519531 436.023438 272.519531 436.023438 269.851562 "/>
<path style=" stroke:none;fill-rule:nonzero;fill:rgb(92.2526%,38.5626%,20.9179%);fill-opacity:1;" d="M 439.828125 184.578125 C 439.828125 181.914062 435.828125 181.914062 435.828125 184.578125 C 435.828125 187.246094 439.828125 187.246094 439.828125 184.578125 "/>
<path style=" stroke:none;fill-rule:nonzero;fill:rgb(92.2526%,38.5626%,20.9179%);fill-opacity:1;" d="M 346.074219 263.246094 C 346.074219 260.578125 342.074219 260.578125 342.074219 263.246094 C 342.074219 265.914062 346.074219 265.914062 346.074219 263.246094 "/>
<path style=" stroke:none;fill-rule:nonzero;fill:rgb(92.2526%,38.5626%,20.9179%);fill-opacity:1;" d="M 493.953125 161.46875 C 493.953125 158.800781 489.953125 158.800781 489.953125 161.46875 C 489.953125 164.132812 493.953125 164.132812 493.953125 161.46875 "/>
<path style=" stroke:none;fill-rule:nonzero;fill:rgb(92.2526%,38.5626%,20.9179%);fill-opacity:1;" d="M 220.941406 240.117188 C 220.941406 237.453125 216.941406 237.453125 216.941406 240.117188 C 216.941406 242.785156 220.941406 242.785156 220.941406 240.117188 "/>
<path style=" stroke:none;fill-rule:nonzero;fill:rgb(92.2526%,38.5626%,20.9179%);fill-opacity:1;" d="M 408.875 135.789062 C 408.875 133.125 404.875 133.125 404.875 135.789062 C 404.875 138.457031 408.875 138.457031 408.875 135.789062 "/>
<path style=" stroke:none;fill-rule:nonzero;fill:rgb(92.2526%,38.5626%,20.9179%);fill-opacity:1;" d="M 150.609375 260.171875 C 150.609375 257.507812 146.609375 257.507812 146.609375 260.171875 C 146.609375 262.839844 150.609375 262.839844 150.609375 260.171875 "/>
<path style=" stroke:none;fill-rule:nonzero;fill:rgb(92.2526%,38.5626%,20.9179%);fill-opacity:1;" d="M 440.316406 143.566406 C 440.316406 140.898438 436.316406 140.898438 436.316406 143.566406 C 436.316406 146.234375 440.316406 146.234375 440.316406 143.566406 "/>
<path style=" stroke:none;fill-rule:nonzero;fill:rgb(92.2526%,38.5626%,20.9179%);fill-opacity:1;" d="M 140.195312 257.175781 C 140.195312 254.507812 136.195312 254.507812 136.195312 257.175781 C 136.195312 259.84375 140.195312 259.84375 140.195312 257.175781 "/>
<path style=" stroke:none;fill-rule:nonzero;fill:rgb(92.2526%,38.5626%,20.9179%);fill-opacity:1;" d="M 280.5 219.273438 C 280.5 216.605469 276.5 216.605469 276.5 219.273438 C 276.5 221.9375 280.5 221.9375 280.5 219.273438 "/>
<path style=" stroke:none;fill-rule:nonzero;fill:rgb(92.2526%,38.5626%,20.9179%);fill-opacity:1;" d="M 353.773438 116.257812 C 353.773438 113.59375 349.773438 113.59375 349.773438 116.257812 C 349.773438 118.925781 353.773438 118.925781 353.773438 116.257812 "/>
<path style=" stroke:none;fill-rule:nonzero;fill:rgb(92.2526%,38.5626%,20.9179%);fill-opacity:1;" d="M 463.628906 115.042969 C 463.628906 112.378906 459.628906 112.378906 459.628906 115.042969 C 459.628906 117.710938 463.628906 117.710938 463.628906 115.042969 "/>
<path style=" stroke:none;fill-rule:nonzero;fill:rgb(92.2526%,38.5626%,20.9179%);fill-opacity:1;" d="M 442.605469 174.105469 C 442.605469 171.4375 438.605469 171.4375 438.605469 174.105469 C 438.605469 176.773438 442.605469 176.773438 442.605469 174.105469 "/>
<path style=" stroke:none;fill-rule:nonzero;fill:rgb(92.2526%,38.5626%,20.9179%);fill-opacity:1;" d="M 287.519531 212.621094 C 287.519531 209.953125 283.519531 209.953125 283.519531 212.621094 C 283.519531 215.285156 287.519531 215.285156 287.519531 212.621094 "/>
<path style=" stroke:none;fill-rule:nonzero;fill:rgb(92.2526%,38.5626%,20.9179%);fill-opacity:1;" d="M 214.410156 207.386719 C 214.410156 204.71875 210.410156 204.71875 210.410156 207.386719 C 210.410156 210.050781 214.410156 210.050781 214.410156 207.386719 "/>
<path style=" stroke:none;fill-rule:nonzero;fill:rgb(92.2526%,38.5626%,20.9179%);fill-opacity:1;" d="M 159.539062 200.109375 C 159.539062 197.441406 155.539062 197.441406 155.539062 200.109375 C 155.539062 202.777344 159.539062 202.777344 159.539062 200.109375 "/>
<path style=" stroke:none;fill-rule:nonzero;fill:rgb(92.2526%,38.5626%,20.9179%);fill-opacity:1;" d="M 401.796875 204.351562 C 401.796875 201.683594 397.796875 201.683594 397.796875 204.351562 C 397.796875 207.015625 401.796875 207.015625 401.796875 204.351562 "/>
<path style=" stroke:none;fill-rule:nonzero;fill:rgb(92.2526%,38.5626%,20.9179%);fill-opacity:1;" d="M 468.984375 157.828125 C 468.984375 155.160156 464.984375 155.160156 464.984375 157.828125 C 464.984375 160.496094 468.984375 160.496094 468.984375 157.828125 "/>
</g>
</svg>
