<?xml version="1.0" encoding="UTF-8"?>
<svg xmlns="http://www.w3.org/2000/svg" xmlns:xlink="http://www.w3.org/1999/xlink" width="600pt" height="400pt" viewBox="0 0 600 400" version="1.1">
<defs>
<filter id="alpha" filterUnits="objectBoundingBox" x="0%" y="0%" width="100%" height="100%">
  <feColorMatrix type="matrix" in="SourceGraphic" values="0 0 0 0 1 0 0 0 0 1 0 0 0 0 1 0 0 0 1 0"/>
</filter>
<mask id="id1">
  <g filter="url(#alpha)">
<rect x="0" y="0" width="600" height="400" style="fill:rgb(0%,0%,0%);fill-opacity:0.5;stroke:none;"/>
  </g>
</mask>
<clipPath id="id2">
  <rect x="0" y="0" width="600" height="400"/>
</clipPath>
<g id="id3" clip-path="url(#id2)">
<path style="fill:none;stroke-width:1;stroke-linecap:butt;stroke-linejoin:miter;stroke:rgb(0%,0%,0%);stroke-opacity:0.2;stroke-dasharray:4,6;stroke-dashoffset:2;stroke-miterlimit:10;" d="M -1000 -1000 L -1000 1000 M -990 -1000 L -990 1000 M -980 -1000 L -980 1000 M -970 -1000 L -970 1000 M -960 -1000 L -960 1000 M -950 -1000 L -950 1000 M -940 -1000 L -940 1000 M -930 -1000 L -930 1000 M -920 -1000 L -920 1000 M -910 -1000 L -910 1000 M -900 -1000 L -900 1000 M -890 -1000 L -890 1000 M -880 -1000 L -880 1000 M -870 -1000 L -870 1000 M -860 -1000 L -860 1000 M -850 -1000 L -850 1000 M -840 -1000 L -840 1000 M -830 -1000 L -830 1000 M -820 -1000 L -820 1000 M -810 -1000 L -810 1000 M -800 -1000 L -800 1000 M -790 -1000 L -790 1000 M -780 -1000 L -780 1000 M -770 -1000 L -770 1000 M -760 -1000 L -760 1000 M -750 -1000 L -750 1000 M -740 -1000 L -740 1000 M -730 -1000 L -730 1000 M -720 -1000 L -720 1000 M -710 -1000 L -710 1000 M -700 -1000 L -700 1000 M -690 -1000 L -690 1000 M -680 -1000 L -680 1000 M -670 -1000 L -670 1000 M -660 -1000 L -660 1000 M -650 -1000 L -650 1000 M -640 -1000 L -640 1000 M -630 -1000 L -630 1000 M -620 -1000 L -620 1000 M -610 -1000 L -610 1000 M -600 -1000 L -600 1000 M -590 -1000 L -590 1000 M -580 -1000 L -580 1000 M -570 -1000 L -570 1000 M -560 -1000 L -560 1000 M -550 -1000 L -550 1000 M -540 -1000 L -540 1000 M -530 -1000 L -530 1000 M -520 -1000 L -520 1000 M -510 -1000 L -510 1000 M -500 -1000 L -500 1000 M -490 -1000 L -490 1000 M -480 -1000 L -480 1000 M -470 -1000 L -470 1000 M -460 -1000 L -460 1000 M -450 -1000 L -450 1000 M -440 -1000 L -440 1000 M -430 -1000 L -430 1000 M -420 -1000 L -420 1000 M -410 -1000 L -410 1000 M -400 -1000 L -400 1000 M -390 -1000 L -390 1000 M -380 -1000 L -380 1000 M -370 -1000 L -370 1000 M -360 -1000 L -360 1000 M -350 -1000 L -350 1000 M -340 -1000 L -340 1000 M -330 -1000 L -330 1000 M -320 -1000 L -320 1000 M -310 -1000 L -310 1000 M -300 -1000 L -300 1000 M -290 -1000 L -290 1000 M -280 -1000 L -280 1000 M -270 -1000 L -270 1000 M -260 -1000 L -260 1000 M -250 -1000 L -250 1000 M -240 -1000 L -240 1000 M -230 -1000 L -230 1000 M -220 -1000 L -220 1000 M -210 -1000 L -210 1000 M -200 -1000 L -200 1000 M -190 -1000 L -190 1000 M -180 -1000 L -180 1000 M -170 -1000 L -170 1000 M -160 -1000 L -160 1000 M -150 -1000 L -150 1000 M -140 -1000 L -140 1000 M -130 -1000 L -130 1000 M -120 -1000 L -120 1000 M -110 -1000 L -110 1000 M -100 -1000 L -100 1000 M -90 -1000 L -90 1000 M -80 -1000 L -80 1000 M -70 -1000 L -70 1000 M -60 -1000 L -60 1000 M -50 -1000 L -50 1000 M -40 -1000 L -40 1000 M -30 -1000 L -30 1000 M -20 -1000 L -20 1000 M -10 -1000 L -10 1000 M 0 -1000 L 0 1000 M 10 -1000 L 10 1000 M 20 -1000 L 20 1000 M 30 -1000 L 30 1000 M 40 -1000 L 40 1000 M 50 -1000 L 50 1000 M 60 -1000 L 60 1000 M 70 -1000 L 70 1000 M 80 -1000 L 80 1000 M 90 -1000 L 90 1000 M 100 -1000 L 100 1000 M 110 -1000 L 110 1000 M 120 -1000 L 120 1000 M 130 -1000 L 130 1000 M 140 -1000 L 140 1000 M 150 -1000 L 150 1000 M 160 -1000 L 160 1000 M 170 -1000 L 170 1000 M 180 -1000 L 180 1000 M 190 -1000 L 190 1000 M 200 -1000 L 200 1000 M 210 -1000 L 210 1000 M 220 -1000 L 220 1000 M 230 -1000 L 230 1000 M 240 -1000 L 240 1000 M 250 -1000 L 250 1000 M 260 -1000 L 260 1000 M 270 -1000 L 270 1000 M 280 -1000 L 280 1000 M 290 -1000 L 290 1000 M 300 -1000 L 300 1000 M 310 -1000 L 310 1000 M 320 -1000 L 320 1000 M 330 -1000 L 330 1000 M 340 -1000 L 340 1000 M 350 -1000 L 350 1000 M 360 -1000 L 360 1000 M 370 -1000 L 370 1000 M 380 -1000 L 380 1000 M 390 -1000 L 390 1000 M 400 -1000 L 400 1000 M 410 -1000 L 410 1000 M 420 -1000 L 420 1000 M 430 -1000 L 430 1000 M 440 -1000 L 440 1000 M 450 -1000 L 450 1000 M 460 -1000 L 460 1000 M 470 -1000 L 470 1000 M 480 -1000 L 480 1000 M 490 -1000 L 490 1000 M 500 -1000 L 500 1000 M 510 -1000 L 510 1000 M 520 -1000 L 520 1000 M 530 -1000 L 530 1000 M 540 -1000 L 540 1000 M 550 -1000 L 550 1000 M 560 -1000 L 560 1000 M 570 -1000 L 570 1000 M 580 -1000 L 580 1000 M 590 -1000 L 590 1000 M 600 -1000 L 600 1000 M 610 -1000 L 610 1000 M 620 -1000 L 620 1000 M 630 -1000 L 630 1000 M 640 -1000 L 640 1000 M 650 -1000 L 650 1000 M 660 -1000 L 660 1000 M 670 -1000 L 670 1000 M 680 -1000 L 680 1000 M 690 -1000 L 690 1000 M 700 -1000 L 700 1000 M 710 -1000 L 710 1000 M 720 -1000 L 720 1000 M 730 -1000 L 730 1000 M 740 -1000 L 740 1000 M 750 -1000 L 750 1000 M 760 -1000 L 760 1000 M 770 -1000 L 770 1000 M 780 -1000 L 780 1000 M 790 -1000 L 790 1000 M 800 -1000 L 800 1000 M 810 -1000 L 810 1000 M 820 -1000 L 820 1000 M 830 -1000 L 830 1000 M 840 -1000 L 840 1000 M 850 -1000 L 850 1000 M 860 -1000 L 860 1000 M 870 -1000 L 870 1000 M 880 -1000 L 880 1000 M 890 -1000 L 890 1000 M 900 -1000 L 900 1000 M 910 -1000 L 910 1000 M 920 -1000 L 920 1000 M 930 -1000 L 930 1000 M 940 -1000 L 940 1000 M 950 -1000 L 950 1000 M 960 -1000 L 960 1000 M 970 -1000 L 970 1000 M 980 -1000 L 980 1000 M 990 -1000 L 990 1000 M 1000 -1000 L 1000 1000 M -1000 -1000 L 1000 -1000 M -1000 -990 L 1000 -990 M -1000 -980 L 1000 -980 M -1000 -970 L 1000 -970 M -1000 -960 L 1000 -960 M -1000 -950 L 1000 -950 M -1000 -940 L 1000 -940 M -1000 -930 L 1000 -930 M -1000 -920 L 1000 -920 M -1000 -910 L 1000 -910 M -1000 -900 L 1000 -900 M -1000 -890 L 1000 -890 M -1000 -880 L 1000 -880 M -1000 -870 L 1000 -870 M -1000 -860 L 1000 -860 M -1000 -850 L 1000 -850 M -1000 -840 L 1000 -840 M -1000 -830 L 1000 -830 M -1000 -820 L 1000 -820 M -1000 -810 L 1000 -810 M -1000 -800 L 1000 -800 M -1000 -790 L 1000 -790 M -1000 -780 L 1000 -780 M -1000 -770 L 1000 -770 M -1000 -760 L 1000 -760 M -1000 -750 L 1000 -750 M -1000 -740 L 1000 -740 M -1000 -730 L 1000 -730 M -1000 -720 L 1000 -720 M -1000 -710 L 1000 -710 M -1000 -700 L 1000 -700 M -1000 -690 L 1000 -690 M -1000 -680 L 1000 -680 M -1000 -670 L 1000 -670 M -1000 -660 L 1000 -660 M -1000 -650 L 1000 -650 M -1000 -640 L 1000 -640 M -1000 -630 L 1000 -630 M -1000 -620 L 1000 -620 M -1000 -610 L 1000 -610 M -1000 -600 L 1000 -600 M -1000 -590 L 1000 -590 M -1000 -580 L 1000 -580 M -1000 -570 L 1000 -570 M -1000 -560 L 1000 -560 M -1000 -550 L 1000 -550 M -1000 -540 L 1000 -540 M -1000 -530 L 1000 -530 M -1000 -520 L 1000 -520 M -1000 -510 L 1000 -510 M -1000 -500 L 1000 -500 M -1000 -490 L 1000 -490 M -1000 -480 L 1000 -480 M -1000 -470 L 1000 -470 M -1000 -460 L 1000 -460 M -1000 -450 L 1000 -450 M -1000 -440 L 1000 -440 M -1000 -430 L 1000 -430 M -1000 -420 L 1000 -420 M -1000 -410 L 1000 -410 M -1000 -400 L 1000 -400 M -1000 -390 L 1000 -390 M -1000 -380 L 1000 -380 M -1000 -370 L 1000 -370 M -1000 -360 L 1000 -360 M -1000 -350 L 1000 -350 M -1000 -340 L 1000 -340 M -1000 -330 L 1000 -330 M -1000 -320 L 1000 -320 M -1000 -310 L 1000 -310 M -1000 -300 L 1000 -300 M -1000 -290 L 1000 -290 M -1000 -280 L 1000 -280 M -1000 -270 L 1000 -270 M -1000 -260 L 1000 -260 M -1000 -250 L 1000 -250 M -1000 -240 L 1000 -240 M -1000 -230 L 1000 -230 M -1000 -220 L 1000 -220 M -1000 -210 L 1000 -210 M -1000 -200 L 1000 -200 M -1000 -190 L 1000 -190 M -1000 -180 L 1000 -180 M -1000 -170 L 1000 -170 M -1000 -160 L 1000 -160 M -1000 -150 L 1000 -150 M -1000 -140 L 1000 -140 M -1000 -130 L 1000 -130 M -1000 -120 L 1000 -120 M -1000 -110 L 1000 -110 M -1000 -100 L 1000 -100 M -1000 -90 L 1000 -90 M -1000 -80 L 1000 -80 M -1000 -70 L 1000 -70 M -1000 -60 L 1000 -60 M -1000 -50 L 1000 -50 M -1000 -40 L 1000 -40 M -1000 -30 L 1000 -30 M -1000 -20 L 1000 -20 M -1000 -10 L 1000 -10 M -1000 0 L 1000 0 M -1000 10 L 1000 10 M -1000 20 L 1000 20 M -1000 30 L 1000 30 M -1000 40 L 1000 40 M -1000 50 L 1000 50 M -1000 60 L 1000 60 M -1000 70 L 1000 70 M -1000 80 L 1000 80 M -1000 90 L 1000 90 M -1000 100 L 1000 100 M -1000 110 L 1000 110 M -1000 120 L 1000 120 M -1000 130 L 1000 130 M -1000 140 L 1000 140 M -1000 150 L 1000 150 M -1000 160 L 1000 160 M -1000 170 L 1000 170 M -1000 180 L 1000 180 M -1000 190 L 1000 190 M -1000 200 L 1000 200 M -1000 210 L 1000 210 M -1000 220 L 1000 220 M -1000 230 L 1000 230 M -1000 240 L 1000 240 M -1000 250 L 1000 250 M -1000 260 L 1000 260 M -1000 270 L 1000 270 M -1000 280 L 1000 280 M -1000 290 L 1000 290 M -1000 300 L 1000 300 M -1000 310 L 1000 310 M -1000 320 L 1000 320 M -1000 330 L 1000 330 M -1000 340 L 1000 340 M -1000 350 L 1000 350 M -1000 360 L 1000 360 M -1000 370 L 1000 370 M -1000 380 L 1000 380 M -1000 390 L 1000 390 M -1000 400 L 1000 400 M -1000 410 L 1000 410 M -1000 420 L 1000 420 M -1000 430 L 1000 430 M -1000 440 L 1000 440 M -1000 450 L 1000 450 M -1000 460 L 1000 460 M -1000 470 L 1000 470 M -1000 480 L 1000 480 M -1000 490 L 1000 490 M -1000 500 L 1000 500 M -1000 510 L 1000 510 M -1000 520 L 1000 520 M -1000 530 L 1000 530 M -1000 540 L 1000 540 M -1000 550 L 1000 550 M -1000 560 L 1000 560 M -1000 570 L 1000 570 M -1000 580 L 1000 580 M -1000 590 L 1000 590 M -1000 600 L 1000 600 M -1000 610 L 1000 610 M -1000 620 L 1000 620 M -1000 630 L 1000 630 M -1000 640 L 1000 640 M -1000 650 L 1000 650 M -1000 660 L 1000 660 M -1000 670 L 1000 670 M -1000 680 L 1000 680 M -1000 690 L 1000 690 M -1000 700 L 1000 700 M -1000 710 L 1000 710 M -1000 720 L 1000 720 M -1000 730 L 1000 730 M -1000 740 L 1000 740 M -1000 750 L 1000 750 M -1000 760 L 1000 760 M -1000 770 L 1000 770 M -1000 780 L 1000 780 M -1000 790 L 1000 790 M -1000 800 L 1000 800 M -1000 810 L 1000 810 M -1000 820 L 1000 820 M -1000 830 L 1000 830 M -1000 840 L 1000 840 M -1000 850 L 1000 850 M -1000 860 L 1000 860 M -1000 870 L 1000 870 M -1000 880 L 1000 880 M -1000 890 L 1000 890 M -1000 900 L 1000 900 M -1000 910 L 1000 910 M -1000 920 L 1000 920 M -1000 930 L 1000 930 M -1000 940 L 1000 940 M -1000 950 L 1000 950 M -1000 960 L 1000 960 M -1000 970 L 1000 970 M -1000 980 L 1000 980 M -1000 990 L 1000 990 M -1000 1000 L 1000 1000 " transform="matrix(1,0,0,-1,0,400)"/>
</g>
</defs>
<g id="id4">
<use xlink:href="#id3" mask="url(#id1)"/>
<path style="fill:none;stroke-width:1;stroke-linecap:butt;stroke-linejoin:miter;stroke:rgb(36.8417%,50.6779%,70.9798%);stroke-opacity:1;stroke-dasharray:5,5;stroke-miterlimit:10;" d="M 10 10 L 590 10 L 590 390 L 10 390 Z M 10 10 " transform="matrix(1,0,0,-1,0,400)"/>
<path style=" stroke:none;fill-rule:nonzero;fill:rgb(36.8417%,50.6779%,70.9798%);fill-opacity:1;" d="M 112.953125 377.042969 L 111.875 388 L 209.171875 388 L 208.25 357.558594 L 200.648438 347.566406 L 155.277344 335.800781 Z M 112.953125 377.042969 "/>
<path style=" stroke:none;fill-rule:nonzero;fill:rgb(88.0722%,61.1041%,14.2051%);fill-opacity:1;" d="M 507.539062 29.964844 L 510.261719 12 L 426.539062 12 L 427.367188 43.363281 L 434.699219 52.847656 L 471.335938 61.230469 Z M 507.539062 29.964844 "/>
<path style=" stroke:none;fill-rule:nonzero;fill:rgb(56.0181%,69.1569%,19.4885%);fill-opacity:1;" d="M 509.789062 262.441406 L 488.632812 289 L 495.71875 319.011719 L 517.21875 329.511719 L 530.960938 322.921875 L 541.84375 268.847656 Z M 509.789062 262.441406 "/>
<path style=" stroke:none;fill-rule:nonzero;fill:rgb(92.2526%,38.5626%,20.9179%);fill-opacity:1;" d="M 152.425781 98.46875 L 169.832031 90.15625 L 174.355469 57.171875 L 132.199219 12 L 122.960938 12 L 107.898438 63.035156 Z M 152.425781 98.46875 "/>
<path style=" stroke:none;fill-rule:nonzero;fill:rgb(52.8488%,47.0624%,70.1351%);fill-opacity:1;" d="M 148.984375 128.136719 L 173.203125 142.785156 L 192.410156 137.117188 L 186.558594 100.703125 L 171.671875 93.710938 L 153.769531 102.261719 L 146.367188 123.289062 Z M 148.984375 128.136719 "/>
<path style=" stroke:none;fill-rule:nonzero;fill:rgb(77.2079%,43.1554%,10.2387%);fill-opacity:1;" d="M 292.472656 364.269531 L 291.574219 388 L 353.878906 388 L 351.988281 347.035156 L 337.816406 335.398438 Z M 292.472656 364.269531 "/>
<path style=" stroke:none;fill-rule:nonzero;fill:rgb(36.3898%,61.8501%,78.2349%);fill-opacity:1;" d="M 280.132812 89.757812 L 296.804688 109.992188 L 304.65625 112.546875 L 325.324219 97.914062 L 321.898438 69.523438 L 295.054688 58.007812 L 287.179688 63.308594 Z M 280.132812 89.757812 "/>
<path style=" stroke:none;fill-rule:nonzero;fill:rgb(100%,75%,0%);fill-opacity:1;" d="M 455.96875 182.339844 L 446.515625 192.617188 L 461.289062 215.183594 L 465.273438 215.085938 L 476.160156 202.25 L 458.796875 181.6875 Z M 455.96875 182.339844 "/>
<path style=" stroke:none;fill-rule:nonzero;fill:rgb(64.7624%,37.816%,61.4037%);fill-opacity:1;" d="M 248.257812 150.492188 L 250.019531 141.757812 L 228.957031 127.144531 L 222.5 134.898438 L 231.917969 159.171875 Z M 248.257812 150.492188 "/>
<path style=" stroke:none;fill-rule:nonzero;fill:rgb(57.1589%,58.6483%,0%);fill-opacity:1;" d="M 588 264.152344 L 588 194.691406 L 546.480469 211.550781 L 552.671875 261.421875 Z M 588 264.152344 "/>
<path style=" stroke:none;fill-rule:nonzero;fill:rgb(91.5%,33.25%,21.25%);fill-opacity:1;" d="M 336.472656 184.738281 L 327.757812 196.03125 L 336.074219 215.203125 L 349.972656 217.386719 L 359.960938 197.019531 L 358.28125 193.457031 Z M 336.472656 184.738281 "/>
<path style=" stroke:none;fill-rule:nonzero;fill:rgb(40.082223%,52.200666%,85%);fill-opacity:1;" d="M 250.207031 201.339844 L 267.75 205.601562 L 271.339844 203.3125 L 273.835938 191.6875 L 260.21875 179.269531 L 249.253906 184.042969 L 245.375 193.363281 Z M 250.207031 201.339844 "/>
<path style=" stroke:none;fill-rule:nonzero;fill:rgb(97.282889%,62.164445%,7.3362%);fill-opacity:1;" d="M 282.40625 263.792969 L 281.421875 243.113281 L 263.546875 234.035156 L 253.527344 237.667969 L 248.652344 256.789062 L 268.472656 269.824219 Z M 282.40625 263.792969 "/>
<path style=" stroke:none;fill-rule:nonzero;fill:rgb(73.678267%,35.8%,50.302666%);fill-opacity:1;" d="M 323.675781 65.933594 L 354.832031 50.144531 L 353.527344 12 L 298.898438 12 L 296.90625 54.449219 Z M 323.675781 65.933594 "/>
<path style=" stroke:none;fill-rule:nonzero;fill:rgb(28.026441%,71.5%,42.920893%);fill-opacity:1;" d="M 12 159.304688 L 33.519531 159.578125 L 77.429688 116.867188 L 73.996094 88.824219 L 12 63.773438 Z M 12 159.304688 "/>
<path style=" stroke:none;fill-rule:nonzero;fill:rgb(83.835555%,44.746668%,2.088887%);fill-opacity:1;" d="M 424.667969 207.296875 L 415.164062 204.128906 L 401.113281 216.230469 L 406.90625 226.601562 L 423.101562 225.605469 L 427.847656 217.992188 Z M 424.667969 207.296875 "/>
<path style=" stroke:none;fill-rule:nonzero;fill:rgb(58.336801%,41.261866%,82.907997%);fill-opacity:1;" d="M 264.765625 324.167969 L 255.480469 306.996094 L 227.160156 295.832031 L 209.34375 304.941406 L 203.914062 345.253906 L 210.808594 354.3125 L 264.402344 326.882812 Z M 264.765625 324.167969 "/>
<path style=" stroke:none;fill-rule:nonzero;fill:rgb(89.963995%,74.634888%,0%);fill-opacity:1;" d="M 588 12 L 514.308594 12 L 511.484375 30.628906 L 541.269531 85.058594 L 548.4375 87.902344 L 588 80.054688 Z M 588 12 "/>
<path style=" stroke:none;fill-rule:nonzero;fill:rgb(84.394669%,34.671066%,33.092219%);fill-opacity:1;" d="M 462.074219 257.953125 L 461.992188 276.671875 L 485.824219 286.109375 L 506.535156 260.101562 L 497.867188 246.296875 L 482.761719 243.4375 Z M 462.074219 257.953125 "/>
<path style=" stroke:none;fill-rule:nonzero;fill:rgb(28.240003%,60.907997%,75.388004%);fill-opacity:1;" d="M 217.015625 239.3125 L 208.078125 236.722656 L 189.695312 255.339844 L 192.917969 261.699219 L 223.796875 260.875 Z M 217.015625 239.3125 "/>
<path style=" stroke:none;fill-rule:nonzero;fill:rgb(93.243336%,52.82889%,9.219002%);fill-opacity:1;" d="M 185.09375 285.992188 L 189.605469 264.015625 L 185.734375 256.371094 L 176.617188 250.816406 L 151.75 257.394531 L 146.648438 291.378906 L 150.335938 294.855469 Z M 185.09375 285.992188 "/>
<path style=" stroke:none;fill-rule:nonzero;fill:rgb(67.534135%,35.896754%,59.914662%);fill-opacity:1;" d="M 285.066406 152.566406 L 282.097656 158.421875 L 292.425781 179.855469 L 297.886719 180.523438 L 309.925781 162.082031 L 293.261719 151.011719 Z M 285.066406 152.566406 "/>
<path style=" stroke:none;fill-rule:nonzero;fill:rgb(54.079323%,71.5%,9.76268%);fill-opacity:1;" d="M 454.246094 223.609375 L 448.527344 245.457031 L 460.136719 254.425781 L 479.5625 240.796875 L 465.164062 219.089844 L 460.851562 219.195312 Z M 454.246094 223.609375 "/>
<path style=" stroke:none;fill-rule:nonzero;fill:rgb(88.572442%,37.641336%,13.931106%);fill-opacity:1;" d="M 378.070312 85.585938 L 359.703125 107.601562 L 377.988281 130.207031 L 378.800781 130.316406 L 398.460938 119.535156 L 401.625 114.058594 L 401.324219 102.851562 Z M 378.070312 85.585938 "/>
<path style=" stroke:none;fill-rule:nonzero;fill:rgb(47.401117%,47.80933%,85%);fill-opacity:1;" d="M 284.425781 267.277344 L 269.882812 273.570312 L 259.066406 305.222656 L 267.628906 321.054688 L 303.535156 300.933594 L 301.828125 275.636719 Z M 284.425781 267.277344 "/>
<path style=" stroke:none;fill-rule:nonzero;fill:rgb(98.746668%,69.483339%,3.383997%);fill-opacity:1;" d="M 365.367188 294.605469 L 352.476562 298.625 L 337.578125 319.589844 L 339.800781 331.851562 L 354.40625 343.84375 L 391.457031 333.269531 L 394.316406 310.285156 Z M 365.367188 294.605469 "/>
<path style=" stroke:none;fill-rule:nonzero;fill:rgb(77.484092%,35.8%,44.447551%);fill-opacity:1;" d="M 12 59.457031 L 75.507812 85.121094 L 103.859375 62.589844 L 118.789062 12 L 12 12 Z M 12 59.457031 "/>
<path style=" stroke:none;fill-rule:nonzero;fill:rgb(16.397784%,70.381773%,61.177341%);fill-opacity:1;" d="M 127.328125 229.027344 L 125.949219 222.261719 L 95.910156 190.242188 L 74.382812 195.816406 L 64.847656 240.871094 L 86.367188 257.332031 Z M 127.328125 229.027344 "/>
<path style=" stroke:none;fill-rule:nonzero;fill:rgb(86.138004%,48.092003%,2.824204%);fill-opacity:1;" d="M 337.664062 180.90625 L 358.695312 189.3125 L 367.296875 169.527344 L 356.136719 158.308594 L 337.273438 177.5 Z M 337.664062 180.90625 "/>
<path style=" stroke:none;fill-rule:nonzero;fill:rgb(61.84987%,39.212576%,74.125325%);fill-opacity:1;" d="M 201.296875 221.945312 L 207.882812 209.894531 L 199.65625 199.613281 L 194.621094 199.941406 L 186.160156 218.789062 Z M 201.296875 221.945312 "/>
<path style=" stroke:none;fill-rule:nonzero;fill:rgb(76.789986%,73.17111%,0%);fill-opacity:1;" d="M 455.3125 336.410156 L 453.460938 340.003906 L 466.070312 388 L 509.382812 388 L 515.078125 332.917969 L 493.871094 322.5625 Z M 455.3125 336.410156 "/>
<path style=" stroke:none;fill-rule:nonzero;fill:rgb(88.786005%,33.792799%,25.773325%);fill-opacity:1;" d="M 284.609375 148.582031 L 292.359375 147.109375 L 304.785156 122.941406 L 303.289062 116.3125 L 296.074219 113.960938 L 273.554688 133.148438 Z M 284.609375 148.582031 "/>
<path style=" stroke:none;fill-rule:nonzero;fill:rgb(35.558897%,55.052882%,84.170677%);fill-opacity:1;" d="M 429.769531 86.191406 L 451.363281 108.742188 L 454.753906 108.988281 L 475.632812 92.785156 L 470.164062 65.066406 L 435.140625 57.050781 Z M 429.769531 86.191406 "/>
<path style=" stroke:none;fill-rule:nonzero;fill:rgb(96.378224%,57.64112%,9.778795%);fill-opacity:1;" d="M 503.445312 106.210938 L 501.664062 135.707031 L 509.933594 148 L 528.328125 153.394531 L 542.117188 146.671875 L 546.148438 91.296875 L 539.9375 88.832031 Z M 503.445312 106.210938 "/>
<path style=" stroke:none;fill-rule:nonzero;fill:rgb(71.326138%,35.8%,53.921326%);fill-opacity:1;" d="M 199.417969 195.617188 L 205.570312 185.847656 L 195.953125 172.300781 L 184.613281 176.140625 L 183.914062 188.886719 L 193.871094 195.980469 Z M 199.417969 195.617188 "/>
<path style=" stroke:none;fill-rule:nonzero;fill:rgb(37.977756%,71.5%,30.255583%);fill-opacity:1;" d="M 235.917969 222.503906 L 246.613281 203.132812 L 242.058594 195.605469 L 229.757812 196.386719 L 223.261719 208.75 L 234.339844 222.492188 Z M 235.917969 222.503906 "/>
<path style=" stroke:none;fill-rule:nonzero;fill:rgb(85.644885%,42.032673%,6.612212%);fill-opacity:1;" d="M 137.667969 12 L 177.09375 54.242188 L 224.449219 40.660156 L 226.695312 12 Z M 137.667969 12 "/>
<path style=" stroke:none;fill-rule:nonzero;fill:rgb(54.72001%,43.417994%,85%);fill-opacity:1;" d="M 349.949219 221.433594 L 335.316406 219.132812 L 319.683594 233.484375 L 328.007812 258.476562 L 329.800781 258.859375 L 347.632812 250.621094 L 354.757812 228.507812 Z M 349.949219 221.433594 "/>
<path style=" stroke:none;fill-rule:nonzero;fill:rgb(98.10598%,75.539553%,0%);fill-opacity:1;" d="M 437.449219 306.882812 L 400.097656 308.753906 L 398.359375 310.207031 L 395.382812 334.097656 L 408.628906 347.183594 L 449.984375 338.019531 L 451.648438 334.789062 Z M 437.449219 306.882812 "/>
<path style=" stroke:none;fill-rule:nonzero;fill:rgb(81.680673%,35.213865%,37.615544%);fill-opacity:1;" d="M 535.050781 322.863281 L 588 337.601562 L 588 268.164062 L 551.367188 265.332031 L 545.988281 268.542969 Z M 535.050781 322.863281 "/>
<path style=" stroke:none;fill-rule:nonzero;fill:rgb(23.716678%,64.526657%,69.960014%);fill-opacity:1;" d="M 402.984375 270.488281 L 406.160156 274.867188 L 425.839844 271.363281 L 426.761719 252.765625 L 408.542969 251.972656 Z M 402.984375 270.488281 "/>
<path style=" stroke:none;fill-rule:nonzero;fill:rgb(90.529341%,51.01956%,6.776406%);fill-opacity:1;" d="M 332.878906 261.84375 L 352.15625 294.535156 L 363.992188 290.84375 L 371.949219 266.292969 L 349.207031 254.300781 Z M 332.878906 261.84375 "/>
<path style=" stroke:none;fill-rule:nonzero;fill:rgb(65.362939%,37.163285%,65.342652%);fill-opacity:1;" d="M 461.933594 388 L 449.886719 342.140625 L 409.882812 351.003906 L 407.058594 388 Z M 461.933594 388 "/>
<path style=" stroke:none;fill-rule:nonzero;fill:rgb(63.615977%,71.707331%,0%);fill-opacity:1;" d="M 305.605469 304.359375 L 268.683594 325.046875 L 268.328125 327.683594 L 291.0625 360.425781 L 335.757812 331.964844 L 333.65625 320.390625 Z M 305.605469 304.359375 "/>
<path style=" stroke:none;fill-rule:nonzero;fill:rgb(90.381773%,34.927341%,18.454431%);fill-opacity:1;" d="M 377.609375 134.191406 L 357.777344 152.621094 L 358.023438 154.535156 L 370.488281 167.0625 L 382.480469 166.816406 L 389.496094 157.53125 L 377.875 134.226562 Z M 377.609375 134.191406 "/>
<path style=" stroke:none;fill-rule:nonzero;fill:rgb(42.877791%,50.523325%,85%);fill-opacity:1;" d="M 102.425781 130.734375 L 142.667969 121.75 L 149.800781 101.492188 L 105.597656 66.316406 L 77.960938 88.28125 L 81.410156 116.464844 Z M 102.425781 130.734375 "/>
<path style=" stroke:none;fill-rule:nonzero;fill:rgb(97.842003%,64.960014%,5.826592%);fill-opacity:1;" d="M 249.523438 100.894531 L 228.675781 75.640625 L 207.898438 96.921875 L 228.996094 118.859375 Z M 249.523438 100.894531 "/>
<path style=" stroke:none;fill-rule:nonzero;fill:rgb(75.131963%,35.8%,48.066211%);fill-opacity:1;" d="M 265.882812 272.90625 L 246.078125 259.882812 L 229.886719 265.289062 L 229.09375 292.292969 L 255.675781 302.777344 Z M 265.882812 272.90625 "/>
<path style=" stroke:none;fill-rule:nonzero;fill:rgb(21.87619%,71.5%,50.748486%);fill-opacity:1;" d="M 462.113281 179.417969 L 479.488281 199.992188 L 491.855469 196.660156 L 488.289062 170.796875 L 470.226562 169.066406 Z M 462.113281 179.417969 "/>
<path style=" stroke:none;fill-rule:nonzero;fill:rgb(83.424009%,46.282673%,0.381608%);fill-opacity:1;" d="M 389.328125 215.207031 L 376.691406 230.136719 L 384.179688 241.574219 L 399.761719 239.746094 L 403.585938 228.863281 L 397.226562 217.472656 Z M 389.328125 215.207031 "/>
<path style=" stroke:none;fill-rule:nonzero;fill:rgb(59.678674%,40.479107%,79.553315%);fill-opacity:1;" d="M 230.628906 224.257812 L 219.972656 211.046875 L 211.503906 211.609375 L 204.597656 224.246094 L 208.886719 232.792969 L 218.097656 235.457031 Z M 230.628906 224.257812 "/>
<path style=" stroke:none;fill-rule:nonzero;fill:rgb(84.931971%,74.075775%,0%);fill-opacity:1;" d="M 513.40625 388 L 588 388 L 588 341.753906 L 532.910156 326.421875 L 519.085938 333.054688 Z M 513.40625 388 "/>
<path style=" stroke:none;fill-rule:nonzero;fill:rgb(86.07201%,34.335598%,30.29665%);fill-opacity:1;" d="M 181.839844 218.652344 L 190.792969 198.699219 L 181.730469 192.246094 L 168.511719 199.707031 L 172.570312 217.519531 L 177.027344 220.414062 Z M 181.839844 218.652344 "/>
<path style=" stroke:none;fill-rule:nonzero;fill:rgb(31.035572%,58.671542%,78.742687%);fill-opacity:1;" d="M 385.847656 168.996094 L 393.367188 183.578125 L 407.488281 183.996094 L 415.109375 174.046875 L 405.671875 158.519531 L 392.902344 159.660156 Z M 385.847656 168.996094 "/>
<path style=" stroke:none;fill-rule:nonzero;fill:rgb(94.920677%,53.947118%,10.728609%);fill-opacity:1;" d="M 492.167969 169.648438 L 495.910156 196.785156 L 513.328125 205.039062 L 525.5625 201.082031 L 526.476562 157.019531 L 509.273438 151.976562 Z M 492.167969 169.648438 "/>
<path style=" stroke:none;fill-rule:nonzero;fill:rgb(68.974009%,35.8%,57.539986%);fill-opacity:1;" d="M 445.671875 248.304688 L 432.664062 249.71875 L 430.820312 251.6875 L 429.804688 272.152344 L 444.585938 284.347656 L 457.988281 276.851562 L 458.074219 257.890625 Z M 445.671875 248.304688 "/>
<path style=" stroke:none;fill-rule:nonzero;fill:rgb(47.929072%,71.5%,17.590272%);fill-opacity:1;" d="M 468.34375 135.625 L 497.738281 134.34375 L 499.441406 106.136719 L 478.085938 95.945312 L 457.832031 111.660156 Z M 468.34375 135.625 "/>
<path style=" stroke:none;fill-rule:nonzero;fill:rgb(87.454215%,39.318678%,11.135537%);fill-opacity:1;" d="M 208.890625 183.621094 L 217.902344 182.253906 L 223.492188 166.824219 L 202.925781 163.03125 L 199.085938 169.808594 Z M 208.890625 183.621094 "/>
<path style=" stroke:none;fill-rule:nonzero;fill:rgb(50.196685%,46.131989%,85%);fill-opacity:1;" d="M 145.386719 129.890625 L 143.144531 125.742188 L 104.242188 134.429688 L 109.039062 170.660156 L 137.898438 169.316406 Z M 145.386719 129.890625 "/>
<path style=" stroke:none;fill-rule:nonzero;fill:rgb(99.305782%,72.278908%,1.87439%);fill-opacity:1;" d="M 376.050781 63.835938 L 423.351562 42.789062 L 422.539062 12 L 357.53125 12 L 358.839844 50.351562 Z M 376.050781 63.835938 "/>
<path style=" stroke:none;fill-rule:nonzero;fill:rgb(78.966678%,35.756664%,42.13887%);fill-opacity:1;" d="M 270.308594 130.660156 L 292.835938 111.464844 L 277.367188 92.691406 L 256.195312 102.308594 L 267.984375 130.171875 Z M 270.308594 130.660156 "/>
<path style=" stroke:none;fill-rule:nonzero;fill:rgb(19.193353%,68.145318%,64.532024%);fill-opacity:1;" d="M 179.917969 188.675781 L 180.632812 175.660156 L 171.132812 168.789062 L 149.746094 178.613281 L 152.035156 188.964844 L 166.199219 196.417969 Z M 179.917969 188.675781 "/>
<path style=" stroke:none;fill-rule:nonzero;fill:rgb(87.815345%,49.21023%,4.333811%);fill-opacity:1;" d="M 441.316406 152.648438 L 439.699219 161.640625 L 455.578125 178.324219 L 458.398438 177.675781 L 467.058594 166.628906 L 460.5 149.476562 Z M 441.316406 152.648438 "/>
<path style=" stroke:none;fill-rule:nonzero;fill:rgb(63.191743%,38.429816%,70.770642%);fill-opacity:1;" d="M 361.949219 191.859375 L 363.546875 195.25 L 381.683594 198.492188 L 389.832031 185.449219 L 382.285156 170.820312 L 370.996094 171.054688 Z M 361.949219 191.859375 "/>
<path style=" stroke:none;fill-rule:nonzero;fill:rgb(71.757962%,72.611996%,0%);fill-opacity:1;" d="M 479.902344 204.023438 L 468.714844 217.210938 L 483.507812 239.507812 L 497.816406 242.214844 L 510.664062 208.203125 L 493.886719 200.253906 Z M 479.902344 204.023438 "/>
<path style=" stroke:none;fill-rule:nonzero;fill:rgb(90.463346%,33.457331%,22.977756%);fill-opacity:1;" d="M 147.875 298.035156 L 143.671875 294.070312 L 95.070312 291.195312 L 81.199219 316.550781 L 111.539062 372.839844 L 152.574219 332.851562 Z M 147.875 298.035156 "/>
<path style=" stroke:none;fill-rule:nonzero;fill:rgb(38.354466%,53.23732%,85%);fill-opacity:1;" d="M 400.28125 243.710938 L 384.644531 245.546875 L 378.253906 263.230469 L 399.414062 268.460938 L 404.878906 250.261719 Z M 400.28125 243.710938 "/>
<path style=" stroke:none;fill-rule:nonzero;fill:rgb(96.937338%,60.436689%,8.269188%);fill-opacity:1;" d="M 228.519531 161.464844 L 218.964844 136.847656 L 199.238281 141.226562 L 203.527344 159.074219 L 225.777344 163.175781 Z M 228.519531 161.464844 "/>
<path style=" stroke:none;fill-rule:nonzero;fill:rgb(72.779834%,35.8%,51.684871%);fill-opacity:1;" d="M 328.4375 144.554688 L 320.449219 159.953125 L 335.132812 173.972656 L 354.019531 154.753906 L 353.789062 152.964844 L 338.417969 141.816406 Z M 328.4375 144.554688 "/>
<path style=" stroke:none;fill-rule:nonzero;fill:rgb(31.827505%,71.5%,38.083175%);fill-opacity:1;" d="M 170.839844 146.03125 L 148.910156 132.769531 L 141.757812 170.421875 L 147.722656 175.140625 L 169.449219 165.160156 Z M 170.839844 146.03125 "/>
<path style=" stroke:none;fill-rule:nonzero;fill:rgb(84.526657%,43.710014%,3.816643%);fill-opacity:1;" d="M 373.046875 231.875 L 358.367188 230.351562 L 351.683594 251.082031 L 374.113281 262.914062 L 380.964844 243.964844 Z M 373.046875 231.875 "/>
<path style=" stroke:none;fill-rule:nonzero;fill:rgb(57.507478%,41.745638%,84.981305%);fill-opacity:1;" d="M 300.308594 228.585938 L 285.402344 242.679688 L 286.410156 263.792969 L 303.621094 272.058594 L 324.078125 259.328125 L 315.777344 234.421875 Z M 300.308594 228.585938 "/>
<path style=" stroke:none;fill-rule:nonzero;fill:rgb(93.073957%,74.98044%,0%);fill-opacity:1;" d="M 426.46875 227.765625 L 433.046875 245.652344 L 444.671875 244.390625 L 450.023438 223.949219 L 431 220.496094 Z M 426.46875 227.765625 "/>
<path style=" stroke:none;fill-rule:nonzero;fill:rgb(83.358015%,34.878397%,34.819976%);fill-opacity:1;" d="M 288.488281 363.738281 L 265.597656 330.761719 L 212.265625 358.0625 L 213.171875 388 L 287.570312 388 Z M 288.488281 363.738281 "/>
<path style=" stroke:none;fill-rule:nonzero;fill:rgb(26.512247%,62.290202%,73.314696%);fill-opacity:1;" d="M 399.59375 272.628906 L 375.992188 266.792969 L 367.992188 291.480469 L 396.230469 306.773438 L 397.503906 305.707031 L 403.144531 277.519531 Z M 399.59375 272.628906 "/>
<path style=" stroke:none;fill-rule:nonzero;fill:rgb(92.206682%,52.137788%,8.286014%);fill-opacity:1;" d="M 405.601562 113.164062 L 432.84375 123.277344 L 447.550781 110.542969 L 427.289062 89.386719 L 405.328125 102.925781 Z M 405.601562 113.164062 "/>
<path style=" stroke:none;fill-rule:nonzero;fill:rgb(66.704812%,36.380526%,61.987969%);fill-opacity:1;" d="M 407.21875 230.589844 L 403.460938 241.277344 L 408.144531 247.949219 L 428.027344 248.816406 L 429.40625 247.34375 L 422.890625 229.625 Z M 407.21875 230.589844 "/>
<path style=" stroke:none;fill-rule:nonzero;fill:rgb(57.880387%,71.5%,4.924962%);fill-opacity:1;" d="M 225.898438 264.835938 L 225.875 264.820312 L 193.347656 265.691406 L 189.011719 286.800781 L 207.722656 301.277344 L 225.085938 292.398438 Z M 225.898438 264.835938 "/>
<path style=" stroke:none;fill-rule:nonzero;fill:rgb(89.263545%,36.604682%,15.658863%);fill-opacity:1;" d="M 413.738281 144.84375 L 429.902344 141.195312 L 431.136719 126.910156 L 404.523438 117.03125 L 402.175781 121.097656 Z M 413.738281 144.84375 "/>
<path style=" stroke:none;fill-rule:nonzero;fill:rgb(45.67336%,48.845984%,85%);fill-opacity:1;" d="M 363.3125 199.273438 L 353.425781 219.429688 L 358.089844 226.300781 L 373.355469 227.886719 L 386.265625 212.632812 L 381.3125 202.492188 Z M 363.3125 199.273438 "/>
<path style=" stroke:none;fill-rule:nonzero;fill:rgb(98.401117%,67.755583%,4.316985%);fill-opacity:1;" d="M 12 388 L 107.855469 388 L 108.984375 376.535156 L 77.769531 318.625 L 12 322.953125 Z M 12 388 "/>
<path style=" stroke:none;fill-rule:nonzero;fill:rgb(76.585659%,35.8%,45.829756%);fill-opacity:1;" d="M 173.847656 90.3125 L 188.671875 97.277344 L 204.152344 95.03125 L 226.859375 71.773438 L 228.507812 49.816406 L 225.398438 44.550781 L 178.269531 58.066406 Z M 173.847656 90.3125 "/>
<path style=" stroke:none;fill-rule:nonzero;fill:rgb(15.725939%,71.5%,58.576078%);fill-opacity:1;" d="M 95.34375 186.253906 L 105.210938 172.230469 L 100.152344 134.027344 L 79.757812 120.179688 L 37.292969 161.488281 L 73.1875 191.996094 Z M 95.34375 186.253906 "/>
<path style=" stroke:none;fill-rule:nonzero;fill:rgb(85.10135%,47.4009%,1.891215%);fill-opacity:1;" d="M 406.972656 278.785156 L 401.792969 304.664062 L 437.15625 302.894531 L 442.054688 287.445312 L 427.199219 275.1875 Z M 406.972656 278.785156 "/>
<path style=" stroke:none;fill-rule:nonzero;fill:rgb(61.020547%,39.696348%,76.198632%);fill-opacity:1;" d="M 413.878906 148.910156 L 409.089844 156.441406 L 418.644531 172.164062 L 421.613281 172.121094 L 435.71875 161.175781 L 437.449219 151.5625 L 431.113281 145.023438 Z M 413.878906 148.910156 "/>
<path style=" stroke:none;fill-rule:nonzero;fill:rgb(79.899948%,73.516661%,0%);fill-opacity:1;" d="M 197.121094 137.597656 L 219.109375 132.71875 L 226.664062 123.648438 L 226.796875 122.339844 L 204.382812 99.039062 L 190.660156 101.03125 L 196.484375 137.25 Z M 197.121094 137.597656 "/>
<path style=" stroke:none;fill-rule:nonzero;fill:rgb(87.749351%,34.00013%,27.501082%);fill-opacity:1;" d="M 265.796875 209.242188 L 249.9375 205.390625 L 239.664062 223.992188 L 252.214844 233.890625 L 261.921875 230.371094 Z M 265.796875 209.242188 "/>
<path style=" stroke:none;fill-rule:nonzero;fill:rgb(33.831141%,56.435087%,82.097369%);fill-opacity:1;" d="M 33.574219 163.582031 L 12 163.304688 L 12 249.710938 L 60.949219 239.988281 L 70.480469 194.941406 Z M 33.574219 163.582031 "/>
<path style=" stroke:none;fill-rule:nonzero;fill:rgb(96.032673%,55.913364%,10.711784%);fill-opacity:1;" d="M 230.789062 122.605469 L 230.699219 123.484375 L 252.296875 138.46875 L 264.046875 131.121094 L 252.425781 103.667969 Z M 230.789062 122.605469 "/>
<path style=" stroke:none;fill-rule:nonzero;fill:rgb(70.427705%,35.8%,55.303531%);fill-opacity:1;" d="M 183.027344 172.453125 L 195.355469 168.277344 L 199.757812 160.503906 L 195.082031 141.042969 L 194.433594 140.6875 L 174.816406 146.480469 L 173.433594 165.515625 Z M 183.027344 172.453125 "/>
<path style=" stroke:none;fill-rule:nonzero;fill:rgb(41.778821%,71.5%,25.417864%);fill-opacity:1;" d="M 356.015625 347.542969 L 357.882812 388 L 403.046875 388 L 405.933594 350.144531 L 392.703125 337.070312 Z M 356.015625 347.542969 "/>
<path style=" stroke:none;fill-rule:nonzero;fill:rgb(86.335987%,40.996019%,8.339969%);fill-opacity:1;" d="M 527.40625 204.691406 L 514.71875 208.792969 L 501.316406 244.269531 L 510.222656 258.449219 L 543.839844 265.164062 L 548.746094 262.242188 L 542.460938 211.628906 Z M 527.40625 204.691406 "/>
<path style=" stroke:none;fill-rule:nonzero;fill:rgb(52.992254%,44.454648%,85%);fill-opacity:1;" d="M 307.234375 115.621094 L 308.71875 122.1875 L 327.640625 140.625 L 337.160156 138.015625 L 344.175781 110.109375 L 327.597656 101.207031 Z M 307.234375 115.621094 "/>
<path style=" stroke:none;fill-rule:nonzero;fill:rgb(99.864895%,75.074477%,0.364783%);fill-opacity:1;" d="M 164.484375 200.039062 L 150.882812 192.878906 L 129.933594 221.769531 L 131.074219 227.371094 L 168.425781 217.324219 Z M 164.484375 200.039062 "/>
<path style=" stroke:none;fill-rule:nonzero;fill:rgb(80.64402%,35.421196%,39.343301%);fill-opacity:1;" d="M 276.265625 188.492188 L 288.515625 180.949219 L 278.886719 160.96875 L 265.269531 166.59375 L 262.84375 176.246094 Z M 276.265625 188.492188 "/>
<path style=" stroke:none;fill-rule:nonzero;fill:rgb(21.988922%,65.908863%,67.886706%);fill-opacity:1;" d="M 550.132812 91.644531 L 546.132812 146.609375 L 588 162.054688 L 588 84.132812 Z M 550.132812 91.644531 "/>
<path style=" stroke:none;fill-rule:nonzero;fill:rgb(89.492687%,50.328458%,5.843418%);fill-opacity:1;" d="M 324.128906 197.722656 L 309.828125 197.480469 L 299.492188 217.410156 L 301.503906 224.761719 L 316.929688 230.582031 L 332.273438 216.496094 Z M 324.128906 197.722656 "/>
<path style=" stroke:none;fill-rule:nonzero;fill:rgb(64.533616%,37.647057%,67.41596%);fill-opacity:1;" d="M 248.277344 180.105469 L 258.910156 175.476562 L 261.355469 165.75 L 249.671875 154.269531 L 233.558594 162.828125 Z M 248.277344 180.105469 "/>
<path style=" stroke:none;fill-rule:nonzero;fill:rgb(66.725939%,72.052882%,0%);fill-opacity:1;" d="M 231.835938 47.585938 L 285.042969 59.921875 L 292.890625 54.644531 L 294.894531 12 L 230.707031 12 L 228.378906 41.726562 Z M 231.835938 47.585938 "/>
<path style=" stroke:none;fill-rule:nonzero;fill:rgb(91.072875%,33.890687%,20.182188%);fill-opacity:1;" d="M 174.921875 247.128906 L 174.78125 223.722656 L 170.460938 220.917969 L 132.921875 231.015625 L 150.722656 253.527344 Z M 174.921875 247.128906 "/>
<path style=" stroke:none;fill-rule:nonzero;fill:rgb(41.150035%,51.559979%,85%);fill-opacity:1;" d="M 440.640625 194.84375 L 428.554688 206.332031 L 431.585938 216.535156 L 452.066406 220.253906 L 457.464844 216.648438 L 442.996094 194.550781 Z M 440.640625 194.84375 "/>
<path style=" stroke:none;fill-rule:nonzero;fill:rgb(97.496451%,63.232257%,6.759581%);fill-opacity:1;" d="M 186.351562 289.800781 L 151.984375 298.5625 L 156.492188 331.984375 L 200.140625 343.304688 L 205.367188 304.515625 Z M 186.351562 289.800781 "/>
<path style=" stroke:none;fill-rule:nonzero;fill:rgb(74.23353%,35.8%,49.448416%);fill-opacity:1;" d="M 253.328125 99.21875 L 276.246094 88.804688 L 282.976562 63.546875 L 232.367188 51.816406 L 230.851562 71.996094 Z M 253.328125 99.21875 "/>
<path style=" stroke:none;fill-rule:nonzero;fill:rgb(25.677254%,71.5%,45.910767%);fill-opacity:1;" d="M 296.285156 148.21875 L 313.085938 159.382812 L 316.640625 158.609375 L 324.609375 143.253906 L 307.4375 126.527344 Z M 296.285156 148.21875 "/>
<path style=" stroke:none;fill-rule:nonzero;fill:rgb(83.40843%,45.387355%,1.021075%);fill-opacity:1;" d="M 393.019531 155.632812 L 405.574219 154.515625 L 410.34375 147.011719 L 399.03125 123.78125 L 381.839844 133.210938 Z M 393.019531 155.632812 "/>
<path style=" stroke:none;fill-rule:nonzero;fill:rgb(58.849351%,40.962879%,81.626623%);fill-opacity:1;" d="M 241.769531 191.613281 L 245.398438 182.894531 L 230.242188 165.105469 L 227.824219 166.617188 L 221.664062 183.621094 L 229.363281 192.402344 Z M 241.769531 191.613281 "/>
<path style=" stroke:none;fill-rule:nonzero;fill:rgb(88.041933%,74.421326%,0%);fill-opacity:1;" d="M 205.058594 234.085938 L 200.984375 225.96875 L 183.46875 222.316406 L 178.785156 224.027344 L 178.925781 247.539062 L 186.949219 252.429688 Z M 205.058594 234.085938 "/>
<path style=" stroke:none;fill-rule:nonzero;fill:rgb(85.035356%,34.542929%,32.024407%);fill-opacity:1;" d="M 313.910156 163.296875 L 301.328125 182.570312 L 309.625 193.476562 L 324.484375 193.726562 L 333.734375 181.738281 L 333.273438 177.726562 L 317.371094 162.546875 Z M 313.910156 163.296875 "/>
<path style=" stroke:none;fill-rule:nonzero;fill:rgb(29.307816%,60.053747%,76.669379%);fill-opacity:1;" d="M 341.085938 138.808594 L 355.507812 149.269531 L 374.207031 131.890625 L 356.273438 109.722656 L 348.109375 110.878906 Z M 341.085938 138.808594 "/>
<path style=" stroke:none;fill-rule:nonzero;fill:rgb(93.884023%,53.256015%,9.795621%);fill-opacity:1;" d="M 252.203125 151.148438 L 264.035156 162.773438 L 278.417969 156.835938 L 281.394531 150.964844 L 269.6875 134.617188 L 266.929688 134.035156 L 254.03125 142.101562 Z M 252.203125 151.148438 "/>
<path style=" stroke:none;fill-rule:nonzero;fill:rgb(68.075576%,35.8%,58.922191%);fill-opacity:1;" d="M 446.035156 288.121094 L 440.796875 304.644531 L 454.878906 332.316406 L 491.632812 319.117188 L 484.757812 289.988281 L 460.132812 280.238281 Z M 446.035156 288.121094 "/>
<path style=" stroke:none;fill-rule:nonzero;fill:rgb(51.730136%,71.5%,12.752554%);fill-opacity:1;" d="M 410.730469 186.34375 L 416.234375 200.269531 L 425.78125 203.449219 L 436.933594 192.847656 L 421.445312 176.125 L 418.527344 176.164062 Z M 410.730469 186.34375 "/>
<path style=" stroke:none;fill-rule:nonzero;fill:rgb(88.145318%,38.282024%,12.863294%);fill-opacity:1;" d="M 326.84375 262.320312 L 305.824219 275.402344 L 307.539062 300.855469 L 334.878906 316.480469 L 348.855469 296.8125 L 328.757812 262.726562 Z M 326.84375 262.320312 "/>
<path style=" stroke:none;fill-rule:nonzero;fill:rgb(48.468929%,47.168643%,85%);fill-opacity:1;" d="M 530.484375 156.792969 L 529.558594 201.277344 L 544.359375 208.097656 L 588 190.375 L 588 166.320312 L 544.136719 150.136719 Z M 530.484375 156.792969 "/>
<path style=" stroke:none;fill-rule:nonzero;fill:rgb(98.96023%,70.551151%,2.807378%);fill-opacity:1;" d="M 244.695312 256.125 L 249.589844 236.914062 L 236.390625 226.503906 L 234.136719 226.488281 L 220.898438 238.320312 L 228.207031 261.570312 L 228.269531 261.613281 Z M 244.695312 256.125 "/>
<path style=" stroke:none;fill-rule:nonzero;fill:rgb(78.039354%,35.8%,43.593301%);fill-opacity:1;" d="M 379.628906 81.761719 L 403.402344 99.414062 L 425.808594 85.597656 L 431.425781 55.152344 L 424.765625 46.535156 L 377.921875 67.378906 Z M 379.628906 81.761719 "/>
<path style=" stroke:none;fill-rule:nonzero;fill:rgb(17.465597%,69.527523%,62.458716%);fill-opacity:1;" d="M 147.859375 256.359375 L 129.117188 232.652344 L 88.59375 260.652344 L 95.496094 287.214844 L 142.808594 290.011719 Z M 147.859375 256.359375 "/>
<path style=" stroke:none;fill-rule:nonzero;fill:rgb(86.778692%,48.519128%,3.400822%);fill-opacity:1;" d="M 435.183594 126.546875 L 433.839844 142.089844 L 440.308594 148.761719 L 460.5 145.421875 L 464.832031 137.578125 L 454.027344 112.945312 L 451.132812 112.734375 Z M 435.183594 126.546875 "/>
<path style=" stroke:none;fill-rule:nonzero;fill:rgb(62.36242%,38.913588%,72.84395%);fill-opacity:1;" d="M 84.542969 260.972656 L 62.132812 243.828125 L 12 253.789062 L 12 318.945312 L 77.695312 314.621094 L 91.789062 288.859375 Z M 84.542969 260.972656 "/>
<path style=" stroke:none;fill-rule:nonzero;fill:rgb(74.867924%,72.957547%,0%);fill-opacity:1;" d="M 295.65625 218.550781 L 273.21875 206.859375 L 269.917969 208.964844 L 265.917969 230.753906 L 283.011719 239.433594 L 297.597656 225.644531 Z M 295.65625 218.550781 "/>
<path style=" stroke:none;fill-rule:nonzero;fill:rgb(89.426692%,33.664662%,24.705513%);fill-opacity:1;" d="M 325.898438 69.292969 L 329.3125 97.585938 L 346.867188 107.015625 L 356.070312 105.710938 L 375.660156 82.234375 L 373.875 67.214844 L 356.640625 53.710938 Z M 325.898438 69.292969 "/>
<path style=" stroke:none;fill-rule:nonzero;fill:rgb(36.62671%,54.273974%,85%);fill-opacity:1;" d="M 479.601562 92.238281 L 501.519531 102.695312 L 537.09375 85.753906 L 508.839844 34.125 L 474.0625 64.160156 Z M 479.601562 92.238281 "/>
<path style=" stroke:none;fill-rule:nonzero;fill:rgb(96.591786%,58.708932%,9.202177%);fill-opacity:1;" d="M 425.257812 174.355469 L 440.511719 190.828125 L 443.011719 190.515625 L 452.179688 180.554688 L 437.347656 164.976562 Z M 425.257812 174.355469 "/>
<path style=" stroke:none;fill-rule:nonzero;fill:rgb(71.881401%,35.8%,53.067076%);fill-opacity:1;" d="M 277.808594 192.238281 L 275.394531 203.480469 L 296.503906 214.484375 L 306.265625 195.664062 L 297.800781 184.542969 L 291.550781 183.777344 Z M 277.808594 192.238281 "/>
<path style=" stroke:none;fill-rule:nonzero;fill:rgb(35.62857%,71.5%,33.245457%);fill-opacity:1;" d="M 219.628906 207.0625 L 226.101562 194.746094 L 218.597656 186.191406 L 209.179688 187.621094 L 203.015625 197.410156 L 211.183594 207.621094 Z M 219.628906 207.0625 "/>
<path style=" stroke:none;fill-rule:nonzero;fill:rgb(85.21776%,42.67336%,5.5444%);fill-opacity:1;" d="M 99.128906 187.824219 L 127.597656 218.175781 L 148.132812 189.859375 L 145.644531 178.59375 L 138.914062 173.273438 L 108.371094 174.695312 Z M 99.128906 187.824219 "/>
<path style=" stroke:none;fill-rule:nonzero;fill:rgb(55.787823%,42.777306%,85%);fill-opacity:1;" d="M 393.21875 187.578125 L 384.949219 200.820312 L 390.042969 211.25 L 398.082031 213.558594 L 412.335938 201.285156 L 407.078125 187.988281 Z M 393.21875 187.578125 "/>
<path style=" stroke:none;fill-rule:nonzero;fill:rgb(96.183918%,75.325991%,0%);fill-opacity:1;" d="M 498.59375 138.308594 L 468.269531 139.628906 L 463.984375 147.390625 L 470.753906 165.097656 L 489.285156 166.875 L 506.113281 149.488281 Z M 498.59375 138.308594 "/>
</g>
</svg>
