<?xml version="1.0" encoding="UTF-8"?>
<svg xmlns="http://www.w3.org/2000/svg" xmlns:xlink="http://www.w3.org/1999/xlink" width="600pt" height="400pt" viewBox="0 0 600 400" version="1.1">
<defs>
<filter id="alpha" filterUnits="objectBoundingBox" x="0%" y="0%" width="100%" height="100%">
  <feColorMatrix type="matrix" in="SourceGraphic" values="0 0 0 0 1 0 0 0 0 1 0 0 0 0 1 0 0 0 1 0"/>
</filter>
<mask id="id1">
  <g filter="url(#alpha)">
<rect x="0" y="0" width="600" height="400" style="fill:rgb(0%,0%,0%);fill-opacity:0.5;stroke:none;"/>
  </g>
</mask>
<clipPath id="id2">
  <rect x="0" y="0" width="600" height="400"/>
</clipPath>
<g id="id3" clip-path="url(#id2)">
<path style="fill:none;stroke-width:1;stroke-linecap:butt;stroke-linejoin:miter;stroke:rgb(0%,0%,0%);stroke-opacity:0.2;stroke-dasharray:4,6;stroke-dashoffset:2;stroke-miterlimit:10;" d="M -1000 -1000 L -1000 1000 M -990 -1000 L -990 1000 M -980 -1000 L -980 1000 M -970 -1000 L -970 1000 M -960 -1000 L -960 1000 M -950 -1000 L -950 1000 M -940 -1000 L -940 1000 M -930 -1000 L -930 1000 M -920 -1000 L -920 1000 M -910 -1000 L -910 1000 M -900 -1000 L -900 1000 M -890 -1000 L -890 1000 M -880 -1000 L -880 1000 M -870 -1000 L -870 1000 M -860 -1000 L -860 1000 M -850 -1000 L -850 1000 M -840 -1000 L -840 1000 M -830 -1000 L -830 1000 M -820 -1000 L -820 1000 M -810 -1000 L -810 1000 M -800 -1000 L -800 1000 M -790 -1000 L -790 1000 M -780 -1000 L -780 1000 M -770 -1000 L -770 1000 M -760 -1000 L -760 1000 M -750 -1000 L -750 1000 M -740 -1000 L -740 1000 M -730 -1000 L -730 1000 M -720 -1000 L -720 1000 M -710 -1000 L -710 1000 M -700 -1000 L -700 1000 M -690 -1000 L -690 1000 M -680 -1000 L -680 1000 M -670 -1000 L -670 1000 M -660 -1000 L -660 1000 M -650 -1000 L -650 1000 M -640 -1000 L -640 1000 M -630 -1000 L -630 1000 M -620 -1000 L -620 1000 M -610 -1000 L -610 1000 M -600 -1000 L -600 1000 M -590 -1000 L -590 1000 M -580 -1000 L -580 1000 M -570 -1000 L -570 1000 M -560 -1000 L -560 1000 M -550 -1000 L -550 1000 M -540 -1000 L -540 1000 M -530 -1000 L -530 1000 M -520 -1000 L -520 1000 M -510 -1000 L -510 1000 M -500 -1000 L -500 1000 M -490 -1000 L -490 1000 M -480 -1000 L -480 1000 M -470 -1000 L -470 1000 M -460 -1000 L -460 1000 M -450 -1000 L -450 1000 M -440 -1000 L -440 1000 M -430 -1000 L -430 1000 M -420 -1000 L -420 1000 M -410 -1000 L -410 1000 M -400 -1000 L -400 1000 M -390 -1000 L -390 1000 M -380 -1000 L -380 1000 M -370 -1000 L -370 1000 M -360 -1000 L -360 1000 M -350 -1000 L -350 1000 M -340 -1000 L -340 1000 M -330 -1000 L -330 1000 M -320 -1000 L -320 1000 M -310 -1000 L -310 1000 M -300 -1000 L -300 1000 M -290 -1000 L -290 1000 M -280 -1000 L -280 1000 M -270 -1000 L -270 1000 M -260 -1000 L -260 1000 M -250 -1000 L -250 1000 M -240 -1000 L -240 1000 M -230 -1000 L -230 1000 M -220 -1000 L -220 1000 M -210 -1000 L -210 1000 M -200 -1000 L -200 1000 M -190 -1000 L -190 1000 M -180 -1000 L -180 1000 M -170 -1000 L -170 1000 M -160 -1000 L -160 1000 M -150 -1000 L -150 1000 M -140 -1000 L -140 1000 M -130 -1000 L -130 1000 M -120 -1000 L -120 1000 M -110 -1000 L -110 1000 M -100 -1000 L -100 1000 M -90 -1000 L -90 1000 M -80 -1000 L -80 1000 M -70 -1000 L -70 1000 M -60 -1000 L -60 1000 M -50 -1000 L -50 1000 M -40 -1000 L -40 1000 M -30 -1000 L -30 1000 M -20 -1000 L -20 1000 M -10 -1000 L -10 1000 M 0 -1000 L 0 1000 M 10 -1000 L 10 1000 M 20 -1000 L 20 1000 M 30 -1000 L 30 1000 M 40 -1000 L 40 1000 M 50 -1000 L 50 1000 M 60 -1000 L 60 1000 M 70 -1000 L 70 1000 M 80 -1000 L 80 1000 M 90 -1000 L 90 1000 M 100 -1000 L 100 1000 M 110 -1000 L 110 1000 M 120 -1000 L 120 1000 M 130 -1000 L 130 1000 M 140 -1000 L 140 1000 M 150 -1000 L 150 1000 M 160 -1000 L 160 1000 M 170 -1000 L 170 1000 M 180 -1000 L 180 1000 M 190 -1000 L 190 1000 M 200 -1000 L 200 1000 M 210 -1000 L 210 1000 M 220 -1000 L 220 1000 M 230 -1000 L 230 1000 M 240 -1000 L 240 1000 M 250 -1000 L 250 1000 M 260 -1000 L 260 1000 M 270 -1000 L 270 1000 M 280 -1000 L 280 1000 M 290 -1000 L 290 1000 M 300 -1000 L 300 1000 M 310 -1000 L 310 1000 M 320 -1000 L 320 1000 M 330 -1000 L 330 1000 M 340 -1000 L 340 1000 M 350 -1000 L 350 1000 M 360 -1000 L 360 1000 M 370 -1000 L 370 1000 M 380 -1000 L 380 1000 M 390 -1000 L 390 1000 M 400 -1000 L 400 1000 M 410 -1000 L 410 1000 M 420 -1000 L 420 1000 M 430 -1000 L 430 1000 M 440 -1000 L 440 1000 M 450 -1000 L 450 1000 M 460 -1000 L 460 1000 M 470 -1000 L 470 1000 M 480 -1000 L 480 1000 M 490 -1000 L 490 1000 M 500 -1000 L 500 1000 M 510 -1000 L 510 1000 M 520 -1000 L 520 1000 M 530 -1000 L 530 1000 M 540 -1000 L 540 1000 M 550 -1000 L 550 1000 M 560 -1000 L 560 1000 M 570 -1000 L 570 1000 M 580 -1000 L 580 1000 M 590 -1000 L 590 1000 M 600 -1000 L 600 1000 M 610 -1000 L 610 1000 M 620 -1000 L 620 1000 M 630 -1000 L 630 1000 M 640 -1000 L 640 1000 M 650 -1000 L 650 1000 M 660 -1000 L 660 1000 M 670 -1000 L 670 1000 M 680 -1000 L 680 1000 M 690 -1000 L 690 1000 M 700 -1000 L 700 1000 M 710 -1000 L 710 1000 M 720 -1000 L 720 1000 M 730 -1000 L 730 1000 M 740 -1000 L 740 1000 M 750 -1000 L 750 1000 M 760 -1000 L 760 1000 M 770 -1000 L 770 1000 M 780 -1000 L 780 1000 M 790 -1000 L 790 1000 M 800 -1000 L 800 1000 M 810 -1000 L 810 1000 M 820 -1000 L 820 1000 M 830 -1000 L 830 1000 M 840 -1000 L 840 1000 M 850 -1000 L 850 1000 M 860 -1000 L 860 1000 M 870 -1000 L 870 1000 M 880 -1000 L 880 1000 M 890 -1000 L 890 1000 M 900 -1000 L 900 1000 M 910 -1000 L 910 1000 M 920 -1000 L 920 1000 M 930 -1000 L 930 1000 M 940 -1000 L 940 1000 M 950 -1000 L 950 1000 M 960 -1000 L 960 1000 M 970 -1000 L 970 1000 M 980 -1000 L 980 1000 M 990 -1000 L 990 1000 M 1000 -1000 L 1000 1000 M -1000 -1000 L 1000 -1000 M -1000 -990 L 1000 -990 M -1000 -980 L 1000 -980 M -1000 -970 L 1000 -970 M -1000 -960 L 1000 -960 M -1000 -950 L 1000 -950 M -1000 -940 L 1000 -940 M -1000 -930 L 1000 -930 M -1000 -920 L 1000 -920 M -1000 -910 L 1000 -910 M -1000 -900 L 1000 -900 M -1000 -890 L 1000 -890 M -1000 -880 L 1000 -880 M -1000 -870 L 1000 -870 M -1000 -860 L 1000 -860 M -1000 -850 L 1000 -850 M -1000 -840 L 1000 -840 M -1000 -830 L 1000 -830 M -1000 -820 L 1000 -820 M -1000 -810 L 1000 -810 M -1000 -800 L 1000 -800 M -1000 -790 L 1000 -790 M -1000 -780 L 1000 -780 M -1000 -770 L 1000 -770 M -1000 -760 L 1000 -760 M -1000 -750 L 1000 -750 M -1000 -740 L 1000 -740 M -1000 -730 L 1000 -730 M -1000 -720 L 1000 -720 M -1000 -710 L 1000 -710 M -1000 -700 L 1000 -700 M -1000 -690 L 1000 -690 M -1000 -680 L 1000 -680 M -1000 -670 L 1000 -670 M -1000 -660 L 1000 -660 M -1000 -650 L 1000 -650 M -1000 -640 L 1000 -640 M -1000 -630 L 1000 -630 M -1000 -620 L 1000 -620 M -1000 -610 L 1000 -610 M -1000 -600 L 1000 -600 M -1000 -590 L 1000 -590 M -1000 -580 L 1000 -580 M -1000 -570 L 1000 -570 M -1000 -560 L 1000 -560 M -1000 -550 L 1000 -550 M -1000 -540 L 1000 -540 M -1000 -530 L 1000 -530 M -1000 -520 L 1000 -520 M -1000 -510 L 1000 -510 M -1000 -500 L 1000 -500 M -1000 -490 L 1000 -490 M -1000 -480 L 1000 -480 M -1000 -470 L 1000 -470 M -1000 -460 L 1000 -460 M -1000 -450 L 1000 -450 M -1000 -440 L 1000 -440 M -1000 -430 L 1000 -430 M -1000 -420 L 1000 -420 M -1000 -410 L 1000 -410 M -1000 -400 L 1000 -400 M -1000 -390 L 1000 -390 M -1000 -380 L 1000 -380 M -1000 -370 L 1000 -370 M -1000 -360 L 1000 -360 M -1000 -350 L 1000 -350 M -1000 -340 L 1000 -340 M -1000 -330 L 1000 -330 M -1000 -320 L 1000 -320 M -1000 -310 L 1000 -310 M -1000 -300 L 1000 -300 M -1000 -290 L 1000 -290 M -1000 -280 L 1000 -280 M -1000 -270 L 1000 -270 M -1000 -260 L 1000 -260 M -1000 -250 L 1000 -250 M -1000 -240 L 1000 -240 M -1000 -230 L 1000 -230 M -1000 -220 L 1000 -220 M -1000 -210 L 1000 -210 M -1000 -200 L 1000 -200 M -1000 -190 L 1000 -190 M -1000 -180 L 1000 -180 M -1000 -170 L 1000 -170 M -1000 -160 L 1000 -160 M -1000 -150 L 1000 -150 M -1000 -140 L 1000 -140 M -1000 -130 L 1000 -130 M -1000 -120 L 1000 -120 M -1000 -110 L 1000 -110 M -1000 -100 L 1000 -100 M -1000 -90 L 1000 -90 M -1000 -80 L 1000 -80 M -1000 -70 L 1000 -70 M -1000 -60 L 1000 -60 M -1000 -50 L 1000 -50 M -1000 -40 L 1000 -40 M -1000 -30 L 1000 -30 M -1000 -20 L 1000 -20 M -1000 -10 L 1000 -10 M -1000 0 L 1000 0 M -1000 10 L 1000 10 M -1000 20 L 1000 20 M -1000 30 L 1000 30 M -1000 40 L 1000 40 M -1000 50 L 1000 50 M -1000 60 L 1000 60 M -1000 70 L 1000 70 M -1000 80 L 1000 80 M -1000 90 L 1000 90 M -1000 100 L 1000 100 M -1000 110 L 1000 110 M -1000 120 L 1000 120 M -1000 130 L 1000 130 M -1000 140 L 1000 140 M -1000 150 L 1000 150 M -1000 160 L 1000 160 M -1000 170 L 1000 170 M -1000 180 L 1000 180 M -1000 190 L 1000 190 M -1000 200 L 1000 200 M -1000 210 L 1000 210 M -1000 220 L 1000 220 M -1000 230 L 1000 230 M -1000 240 L 1000 240 M -1000 250 L 1000 250 M -1000 260 L 1000 260 M -1000 270 L 1000 270 M -1000 280 L 1000 280 M -1000 290 L 1000 290 M -1000 300 L 1000 300 M -1000 310 L 1000 310 M -1000 320 L 1000 320 M -1000 330 L 1000 330 M -1000 340 L 1000 340 M -1000 350 L 1000 350 M -1000 360 L 1000 360 M -1000 370 L 1000 370 M -1000 380 L 1000 380 M -1000 390 L 1000 390 M -1000 400 L 1000 400 M -1000 410 L 1000 410 M -1000 420 L 1000 420 M -1000 430 L 1000 430 M -1000 440 L 1000 440 M -1000 450 L 1000 450 M -1000 460 L 1000 460 M -1000 470 L 1000 470 M -1000 480 L 1000 480 M -1000 490 L 1000 490 M -1000 500 L 1000 500 M -1000 510 L 1000 510 M -1000 520 L 1000 520 M -1000 530 L 1000 530 M -1000 540 L 1000 540 M -1000 550 L 1000 550 M -1000 560 L 1000 560 M -1000 570 L 1000 570 M -1000 580 L 1000 580 M -1000 590 L 1000 590 M -1000 600 L 1000 600 M -1000 610 L 1000 610 M -1000 620 L 1000 620 M -1000 630 L 1000 630 M -1000 640 L 1000 640 M -1000 650 L 1000 650 M -1000 660 L 1000 660 M -1000 670 L 1000 670 M -1000 680 L 1000 680 M -1000 690 L 1000 690 M -1000 700 L 1000 700 M -1000 710 L 1000 710 M -1000 720 L 1000 720 M -1000 730 L 1000 730 M -1000 740 L 1000 740 M -1000 750 L 1000 750 M -1000 760 L 1000 760 M -1000 770 L 1000 770 M -1000 780 L 1000 780 M -1000 790 L 1000 790 M -1000 800 L 1000 800 M -1000 810 L 1000 810 M -1000 820 L 1000 820 M -1000 830 L 1000 830 M -1000 840 L 1000 840 M -1000 850 L 1000 850 M -1000 860 L 1000 860 M -1000 870 L 1000 870 M -1000 880 L 1000 880 M -1000 890 L 1000 890 M -1000 900 L 1000 900 M -1000 910 L 1000 910 M -1000 920 L 1000 920 M -1000 930 L 1000 930 M -1000 940 L 1000 940 M -1000 950 L 1000 950 M -1000 960 L 1000 960 M -1000 970 L 1000 970 M -1000 980 L 1000 980 M -1000 990 L 1000 990 M -1000 1000 L 1000 1000 " transform="matrix(1,0,0,-1,0,400)"/>
</g>
</defs>
<g id="id4">
<use xlink:href="#id3" mask="url(#id1)"/>
<path style="fill:none;stroke-width:1;stroke-linecap:butt;stroke-linejoin:miter;stroke:rgb(36.8417%,50.6779%,70.9798%);stroke-opacity:1;stroke-dasharray:5,5;stroke-miterlimit:10;" d="M 10 10 L 590 10 L 590 390 L 10 390 Z M 10 10 " transform="matrix(1,0,0,-1,0,400)"/>
<path style=" stroke:none;fill-rule:nonzero;fill:rgb(36.8417%,50.6779%,70.9798%);fill-opacity:1;" d="M 282.203125 223.710938 L 280.820312 219.828125 L 282.886719 217.867188 Z M 282.203125 223.710938 "/>
<path style=" stroke:none;fill-rule:nonzero;fill:rgb(88.0722%,61.1041%,14.2051%);fill-opacity:1;" d="M 264.476562 227.242188 L 277.320312 221.925781 L 280.160156 229.902344 Z M 264.476562 227.242188 "/>
<path style=" stroke:none;fill-rule:nonzero;fill:rgb(56.0181%,69.1569%,19.4885%);fill-opacity:1;" d="M 270.070312 215.746094 L 280.078125 215.019531 L 277.855469 217.128906 Z M 270.070312 215.746094 "/>
<path style=" stroke:none;fill-rule:nonzero;fill:rgb(92.2526%,38.5626%,20.9179%);fill-opacity:1;" d="M 256.632812 217.421875 L 271.40625 220.046875 L 258.65625 225.324219 Z M 256.632812 217.421875 "/>
<path style=" stroke:none;fill-rule:nonzero;fill:rgb(52.8488%,47.0624%,70.1351%);fill-opacity:1;" d="M 289.367188 262.707031 L 285.6875 235.949219 L 336.109375 261.457031 Z M 289.367188 262.707031 "/>
<path style=" stroke:none;fill-rule:nonzero;fill:rgb(77.2079%,43.1554%,10.2387%);fill-opacity:1;" d="M 284.691406 258.058594 L 262.257812 230.925781 L 281.40625 234.171875 Z M 284.691406 258.058594 "/>
<path style=" stroke:none;fill-rule:nonzero;fill:rgb(36.3898%,61.8501%,78.2349%);fill-opacity:1;" d="M 320.6875 193.308594 L 290.210938 208.117188 L 308.214844 174.613281 Z M 320.6875 193.308594 "/>
<path style=" stroke:none;fill-rule:nonzero;fill:rgb(100%,75%,0%);fill-opacity:1;" d="M 312.851562 201.5625 L 285.820312 227.191406 L 287.378906 213.941406 Z M 312.851562 201.5625 "/>
<path style=" stroke:none;fill-rule:nonzero;fill:rgb(64.7624%,37.816%,61.4037%);fill-opacity:1;" d="M 241.359375 197.15625 L 249.503906 211.257812 L 230.375 204.617188 Z M 241.359375 197.15625 "/>
<path style=" stroke:none;fill-rule:nonzero;fill:rgb(57.1589%,58.6483%,0%);fill-opacity:1;" d="M 246.722656 198.449219 L 277.0625 211.226562 L 255.03125 212.828125 Z M 246.722656 198.449219 "/>
<path style=" stroke:none;fill-rule:nonzero;fill:rgb(91.5%,33.25%,21.25%);fill-opacity:1;" d="M 305.582031 171.066406 L 290.527344 199.074219 L 298.3125 163.476562 Z M 305.582031 171.066406 "/>
<path style=" stroke:none;fill-rule:nonzero;fill:rgb(40.082223%,52.200666%,85%);fill-opacity:1;" d="M 330.429688 189.066406 L 324.371094 191.621094 L 315.699219 178.621094 Z M 330.429688 189.066406 "/>
<path style=" stroke:none;fill-rule:nonzero;fill:rgb(97.282889%,62.164445%,7.3362%);fill-opacity:1;" d="M 348.03125 238.152344 L 287.65625 230.960938 L 323.203125 197.261719 Z M 348.03125 238.152344 "/>
<path style=" stroke:none;fill-rule:nonzero;fill:rgb(73.678267%,35.8%,50.302666%);fill-opacity:1;" d="M 294.816406 160.746094 L 286.335938 199.519531 L 282.464844 156.914062 Z M 294.816406 160.746094 "/>
<path style=" stroke:none;fill-rule:nonzero;fill:rgb(28.026441%,71.5%,42.920893%);fill-opacity:1;" d="M 348.3125 175.378906 L 337.542969 184.378906 L 342.367188 159.351562 Z M 348.3125 175.378906 "/>
<path style=" stroke:none;fill-rule:nonzero;fill:rgb(83.835555%,44.746668%,2.088887%);fill-opacity:1;" d="M 252.714844 218.25 L 254.882812 226.714844 L 230.179688 234.488281 Z M 252.714844 218.25 "/>
<path style=" stroke:none;fill-rule:nonzero;fill:rgb(58.336801%,41.261866%,82.907997%);fill-opacity:1;" d="M 227.46875 207.839844 L 249.632812 215.539062 L 221.90625 235.515625 Z M 227.46875 207.839844 "/>
<path style=" stroke:none;fill-rule:nonzero;fill:rgb(89.963995%,74.634888%,0%);fill-opacity:1;" d="M 344.113281 223.992188 L 326.535156 195.046875 L 333.3125 192.191406 Z M 344.113281 223.992188 "/>
<path style=" stroke:none;fill-rule:nonzero;fill:rgb(84.394669%,34.671066%,33.092219%);fill-opacity:1;" d="M 342.933594 260.425781 L 294.1875 235.769531 L 349.171875 242.316406 Z M 342.933594 260.425781 "/>
<path style=" stroke:none;fill-rule:nonzero;fill:rgb(93.243336%,52.82889%,9.219002%);fill-opacity:1;" d="M 274.382812 157.339844 L 244.945312 188.308594 L 248.855469 162.519531 Z M 274.382812 157.339844 "/>
<path style=" stroke:none;fill-rule:nonzero;fill:rgb(67.534135%,35.896754%,59.914662%);fill-opacity:1;" d="M 278.609375 158.699219 L 283.226562 209.484375 L 245.457031 193.574219 Z M 278.609375 158.699219 "/>
<path style=" stroke:none;fill-rule:nonzero;fill:rgb(54.079323%,71.5%,9.76268%);fill-opacity:1;" d="M 233.429688 185.21875 L 239.234375 193.761719 L 229.296875 200.515625 Z M 233.429688 185.21875 "/>
<path style=" stroke:none;fill-rule:nonzero;fill:rgb(88.572442%,37.641336%,13.931106%);fill-opacity:1;" d="M 324.207031 281.460938 L 295.4375 266.546875 L 339.332031 265.375 Z M 324.207031 281.460938 "/>
<path style=" stroke:none;fill-rule:nonzero;fill:rgb(47.401117%,47.80933%,85%);fill-opacity:1;" d="M 258.597656 232.777344 L 284.523438 264.132812 L 251.1875 281.75 Z M 258.597656 232.777344 "/>
<path style=" stroke:none;fill-rule:nonzero;fill:rgb(98.746668%,69.483339%,3.383997%);fill-opacity:1;" d="M 221.171875 241.515625 L 250.175781 232.390625 L 223.753906 259.039062 Z M 221.171875 241.515625 "/>
<path style=" stroke:none;fill-rule:nonzero;fill:rgb(77.484092%,35.8%,44.447551%);fill-opacity:1;" d="M 256.984375 283.210938 L 287.640625 267.011719 L 316.714844 282.082031 Z M 256.984375 283.210938 "/>
<path style=" stroke:none;fill-rule:nonzero;fill:rgb(16.397784%,70.381773%,61.177341%);fill-opacity:1;" d="M 243.894531 168.554688 L 240.800781 188.949219 L 235.085938 180.535156 Z M 243.894531 168.554688 "/>
<path style=" stroke:none;fill-rule:nonzero;fill:rgb(86.138004%,48.092003%,2.824204%);fill-opacity:1;" d="M 291.023438 146.863281 L 284.59375 149.867188 L 287.789062 143.53125 Z M 291.023438 146.863281 "/>
<path style=" stroke:none;fill-rule:nonzero;fill:rgb(61.84987%,39.212576%,74.125325%);fill-opacity:1;" d="M 293.019531 150.347656 L 294.429688 156.441406 L 285.738281 153.742188 Z M 293.019531 150.347656 "/>
<path style=" stroke:none;fill-rule:nonzero;fill:rgb(76.789986%,73.17111%,0%);fill-opacity:1;" d="M 338.171875 151.660156 L 317.433594 163.207031 L 332.074219 146.816406 Z M 338.171875 151.660156 "/>
<path style=" stroke:none;fill-rule:nonzero;fill:rgb(88.786005%,33.792799%,25.773325%);fill-opacity:1;" d="M 216.0625 212.617188 L 223.175781 208.910156 L 219.058594 229.390625 Z M 216.0625 212.617188 "/>
<path style=" stroke:none;fill-rule:nonzero;fill:rgb(35.558897%,55.052882%,84.170677%);fill-opacity:1;" d="M 216.992188 204.621094 L 228 189.984375 L 224.367188 203.429688 Z M 216.992188 204.621094 "/>
<path style=" stroke:none;fill-rule:nonzero;fill:rgb(96.378224%,57.64112%,9.778795%);fill-opacity:1;" d="M 353.46875 290.898438 L 347.773438 269.402344 L 371.40625 291.308594 Z M 353.46875 290.898438 "/>
<path style=" stroke:none;fill-rule:nonzero;fill:rgb(71.326138%,35.8%,53.921326%);fill-opacity:1;" d="M 349.042969 289.816406 L 328.242188 283.007812 L 343.066406 267.242188 Z M 349.042969 289.816406 "/>
<path style=" stroke:none;fill-rule:nonzero;fill:rgb(37.977756%,71.5%,30.255583%);fill-opacity:1;" d="M 357.574219 245.902344 L 352.550781 249.765625 L 353.4375 243.714844 Z M 357.574219 245.902344 "/>
<path style=" stroke:none;fill-rule:nonzero;fill:rgb(85.644885%,42.032673%,6.612212%);fill-opacity:1;" d="M 360.867188 243.117188 L 355.777344 240.425781 L 377.300781 226.089844 Z M 360.867188 243.117188 "/>
<path style=" stroke:none;fill-rule:nonzero;fill:rgb(54.72001%,43.417994%,85%);fill-opacity:1;" d="M 260.519531 153.789062 L 267.609375 154.632812 L 255.996094 156.988281 Z M 260.519531 153.789062 "/>
<path style=" stroke:none;fill-rule:nonzero;fill:rgb(98.10598%,75.539553%,0%);fill-opacity:1;" d="M 216.835938 245.847656 L 217.625 244.882812 L 218.234375 249.007812 Z M 216.835938 245.847656 "/>
<path style=" stroke:none;fill-rule:nonzero;fill:rgb(81.680673%,35.213865%,37.615544%);fill-opacity:1;" d="M 213.085938 231.859375 L 214.101562 224.390625 L 215.910156 234.519531 Z M 213.085938 231.859375 "/>
<path style=" stroke:none;fill-rule:nonzero;fill:rgb(23.716678%,64.526657%,69.960014%);fill-opacity:1;" d="M 225.308594 263.152344 L 254.394531 233.816406 L 247.175781 281.542969 Z M 225.308594 263.152344 "/>
<path style=" stroke:none;fill-rule:nonzero;fill:rgb(90.529341%,51.01956%,6.776406%);fill-opacity:1;" d="M 333.140625 186.085938 L 311.777344 170.933594 L 338.980469 155.789062 Z M 333.140625 186.085938 "/>
<path style=" stroke:none;fill-rule:nonzero;fill:rgb(65.362939%,37.163285%,65.342652%);fill-opacity:1;" d="M 387.402344 214.554688 L 352.929688 237.515625 L 337.859375 193.136719 Z M 387.402344 214.554688 "/>
<path style=" stroke:none;fill-rule:nonzero;fill:rgb(42.877791%,50.523325%,85%);fill-opacity:1;" d="M 218.519531 157.714844 L 243.578125 162.238281 L 232.644531 177.101562 Z M 218.519531 157.714844 "/>
<path style=" stroke:none;fill-rule:nonzero;fill:rgb(97.842003%,64.960014%,5.826592%);fill-opacity:1;" d="M 214.773438 238.941406 L 216.210938 240.292969 L 215.414062 241.269531 Z M 214.773438 238.941406 "/>
<path style=" stroke:none;fill-rule:nonzero;fill:rgb(75.131963%,35.8%,48.066211%);fill-opacity:1;" d="M 284.53125 141.109375 L 279.933594 150.214844 L 268.945312 134.304688 Z M 284.53125 141.109375 "/>
<path style=" stroke:none;fill-rule:nonzero;fill:rgb(21.87619%,71.5%,50.748486%);fill-opacity:1;" d="M 307.980469 167.785156 L 300.578125 160.058594 L 324.191406 149.640625 Z M 307.980469 167.785156 "/>
<path style=" stroke:none;fill-rule:nonzero;fill:rgb(59.678674%,40.479107%,79.553315%);fill-opacity:1;" d="M 217.441406 263.101562 L 217.078125 256.292969 L 219.691406 262.199219 Z M 217.441406 263.101562 "/>
<path style=" stroke:none;fill-rule:nonzero;fill:rgb(84.931971%,74.075775%,0%);fill-opacity:1;" d="M 188.789062 252.699219 L 209.835938 236.054688 L 212.089844 244.277344 Z M 188.789062 252.699219 "/>
<path style=" stroke:none;fill-rule:nonzero;fill:rgb(86.07201%,34.335598%,30.29665%);fill-opacity:1;" d="M 298.566406 156.574219 L 296.878906 149.273438 L 319.863281 147.175781 Z M 298.566406 156.574219 "/>
<path style=" stroke:none;fill-rule:nonzero;fill:rgb(31.035572%,58.671542%,78.742687%);fill-opacity:1;" d="M 217.902344 271.496094 L 222.582031 266.085938 L 238.261719 279.273438 Z M 217.902344 271.496094 "/>
<path style=" stroke:none;fill-rule:nonzero;fill:rgb(94.920677%,53.947118%,10.728609%);fill-opacity:1;" d="M 185.421875 258.171875 L 212.652344 248.328125 L 213.457031 263.550781 Z M 185.421875 258.171875 "/>
<path style=" stroke:none;fill-rule:nonzero;fill:rgb(68.974009%,35.8%,57.539986%);fill-opacity:1;" d="M 326.511719 142.554688 L 296.484375 145.292969 L 297.289062 120.460938 Z M 326.511719 142.554688 "/>
<path style=" stroke:none;fill-rule:nonzero;fill:rgb(47.929072%,71.5%,17.590272%);fill-opacity:1;" d="M 205.019531 206.839844 L 211.703125 212.355469 L 210.195312 223.433594 Z M 205.019531 206.839844 "/>
<path style=" stroke:none;fill-rule:nonzero;fill:rgb(87.454215%,39.318678%,11.135537%);fill-opacity:1;" d="M 214.625 174.101562 L 229.570312 181.238281 L 214.449219 201.347656 Z M 214.625 174.101562 "/>
<path style=" stroke:none;fill-rule:nonzero;fill:rgb(99.305782%,72.278908%,1.87439%);fill-opacity:1;" d="M 246.042969 144.308594 L 256.527344 151.714844 L 248.484375 157.402344 Z M 246.042969 144.308594 "/>
<path style=" stroke:none;fill-rule:nonzero;fill:rgb(78.966678%,35.756664%,42.13887%);fill-opacity:1;" d="M 264.535156 134.957031 L 276.039062 151.609375 L 262.277344 149.972656 Z M 264.535156 134.957031 "/>
<path style=" stroke:none;fill-rule:nonzero;fill:rgb(19.193353%,68.145318%,64.532024%);fill-opacity:1;" d="M 210.574219 181.921875 L 210.433594 203.976562 L 203.59375 200.125 Z M 210.574219 181.921875 "/>
<path style=" stroke:none;fill-rule:nonzero;fill:rgb(87.815345%,49.21023%,4.333811%);fill-opacity:1;" d="M 346.671875 262.925781 L 349.898438 257.960938 L 364.855469 279.78125 Z M 346.671875 262.925781 "/>
<path style=" stroke:none;fill-rule:nonzero;fill:rgb(63.191743%,38.429816%,70.770642%);fill-opacity:1;" d="M 335.789062 289.6875 L 292.410156 286.542969 L 324.328125 285.9375 Z M 335.789062 289.6875 "/>
<path style=" stroke:none;fill-rule:nonzero;fill:rgb(71.757962%,72.611996%,0%);fill-opacity:1;" d="M 241.703125 142.839844 L 244.589844 158.355469 L 220.125 153.941406 Z M 241.703125 142.839844 "/>
<path style=" stroke:none;fill-rule:nonzero;fill:rgb(90.463346%,33.457331%,22.977756%);fill-opacity:1;" d="M 251.296875 136.585938 L 255.34375 145.980469 L 246.652344 139.839844 Z M 251.296875 136.585938 "/>
<path style=" stroke:none;fill-rule:nonzero;fill:rgb(38.354466%,53.23732%,85%);fill-opacity:1;" d="M 349.761719 137.945312 L 336.539062 140.957031 L 349.769531 122.488281 Z M 349.761719 137.945312 "/>
<path style=" stroke:none;fill-rule:nonzero;fill:rgb(96.937338%,60.436689%,8.269188%);fill-opacity:1;" d="M 260.839844 132.636719 L 259.058594 144.488281 L 254.847656 134.722656 Z M 260.839844 132.636719 "/>
<path style=" stroke:none;fill-rule:nonzero;fill:rgb(31.827505%,71.5%,38.083175%);fill-opacity:1;" d="M 259.8125 122.183594 L 261.011719 128.34375 L 256.035156 130.074219 Z M 259.8125 122.183594 "/>
<path style=" stroke:none;fill-rule:nonzero;fill:rgb(84.526657%,43.710014%,3.816643%);fill-opacity:1;" d="M 240.886719 137.375 L 240.929688 137.753906 L 238.867188 137.683594 Z M 240.886719 137.375 "/>
<path style=" stroke:none;fill-rule:nonzero;fill:rgb(57.507478%,41.745638%,84.981305%);fill-opacity:1;" d="M 373.195312 173.984375 L 352.738281 174.007812 L 353.578125 145.679688 Z M 373.195312 173.984375 "/>
<path style=" stroke:none;fill-rule:nonzero;fill:rgb(93.073957%,74.98044%,0%);fill-opacity:1;" d="M 381.765625 207.761719 L 338.289062 188.964844 L 350.605469 178.675781 Z M 381.765625 207.761719 "/>
<path style=" stroke:none;fill-rule:nonzero;fill:rgb(83.358015%,34.878397%,34.819976%);fill-opacity:1;" d="M 370.542969 281.003906 L 352.574219 254.792969 L 360.226562 248.90625 Z M 370.542969 281.003906 "/>
<path style=" stroke:none;fill-rule:nonzero;fill:rgb(26.512247%,62.290202%,73.314696%);fill-opacity:1;" d="M 348.984375 165.6875 L 344.027344 152.324219 L 349.585938 145.429688 Z M 348.984375 165.6875 "/>
<path style=" stroke:none;fill-rule:nonzero;fill:rgb(92.206682%,52.137788%,8.286014%);fill-opacity:1;" d="M 211.699219 158.003906 L 210.875 168.066406 L 199.214844 163.347656 Z M 211.699219 158.003906 "/>
<path style=" stroke:none;fill-rule:nonzero;fill:rgb(66.704812%,36.380526%,61.987969%);fill-opacity:1;" d="M 215.519531 160.390625 L 226.367188 175.277344 L 214.75 169.730469 Z M 215.519531 160.390625 "/>
<path style=" stroke:none;fill-rule:nonzero;fill:rgb(89.263545%,36.604682%,15.658863%);fill-opacity:1;" d="M 193.949219 190.644531 L 207.765625 178.082031 L 200.371094 197.355469 Z M 193.949219 190.644531 "/>
<path style=" stroke:none;fill-rule:nonzero;fill:rgb(45.67336%,48.845984%,85%);fill-opacity:1;" d="M 386.632812 206.832031 L 355.746094 178.003906 L 375.632812 177.980469 Z M 386.632812 206.832031 "/>
<path style=" stroke:none;fill-rule:nonzero;fill:rgb(98.401117%,67.755583%,4.316985%);fill-opacity:1;" d="M 292.566406 142.710938 L 289.5625 139.613281 L 292.988281 129.691406 Z M 292.566406 142.710938 "/>
<path style=" stroke:none;fill-rule:nonzero;fill:rgb(76.585659%,35.8%,45.829756%);fill-opacity:1;" d="M 346.589844 142.769531 L 341.445312 149.152344 L 336.347656 145.101562 Z M 346.589844 142.769531 "/>
<path style=" stroke:none;fill-rule:nonzero;fill:rgb(15.725939%,71.5%,58.576078%);fill-opacity:1;" d="M 285.695312 118.347656 L 264.804688 126.890625 L 263.054688 117.914062 Z M 285.695312 118.347656 "/>
<path style=" stroke:none;fill-rule:nonzero;fill:rgb(85.10135%,47.4009%,1.891215%);fill-opacity:1;" d="M 292.082031 120.058594 L 286.085938 137.421875 L 268.445312 129.722656 Z M 292.082031 120.058594 "/>
<path style=" stroke:none;fill-rule:nonzero;fill:rgb(61.020547%,39.696348%,76.198632%);fill-opacity:1;" d="M 194.496094 199.203125 L 173.609375 199.789062 L 184.910156 193.140625 Z M 194.496094 199.203125 "/>
<path style=" stroke:none;fill-rule:nonzero;fill:rgb(79.899948%,73.516661%,0%);fill-opacity:1;" d="M 195.714844 166.246094 L 208.945312 171.601562 L 193.636719 185.519531 Z M 195.714844 166.246094 "/>
<path style=" stroke:none;fill-rule:nonzero;fill:rgb(87.749351%,34.00013%,27.501082%);fill-opacity:1;" d="M 394.402344 235.773438 L 367.414062 242.09375 L 390.441406 218.234375 Z M 394.402344 235.773438 "/>
<path style=" stroke:none;fill-rule:nonzero;fill:rgb(33.831141%,56.435087%,82.097369%);fill-opacity:1;" d="M 219 141 L 235.433594 141.566406 L 216.8125 151.148438 Z M 219 141 "/>
<path style=" stroke:none;fill-rule:nonzero;fill:rgb(96.032673%,55.913364%,10.711784%);fill-opacity:1;" d="M 253.210938 126.710938 L 250.808594 131.730469 L 248.101562 132.171875 Z M 253.210938 126.710938 "/>
<path style=" stroke:none;fill-rule:nonzero;fill:rgb(70.427705%,35.8%,55.303531%);fill-opacity:1;" d="M 214.714844 141.902344 L 212.589844 151.746094 L 202.433594 145.824219 Z M 214.714844 141.902344 "/>
<path style=" stroke:none;fill-rule:nonzero;fill:rgb(41.778821%,71.5%,25.417864%);fill-opacity:1;" d="M 200.054688 204.363281 L 208.074219 230.0625 L 174.613281 224.0625 Z M 200.054688 204.363281 "/>
<path style=" stroke:none;fill-rule:nonzero;fill:rgb(52.992254%,44.454648%,85%);fill-opacity:1;" d="M 257.46875 116.304688 L 244.269531 130.414062 L 242.386719 107.210938 Z M 257.46875 116.304688 "/>
<path style=" stroke:none;fill-rule:nonzero;fill:rgb(99.864895%,75.074477%,0.364783%);fill-opacity:1;" d="M 190.441406 177.851562 L 189.292969 188.503906 L 186.253906 188.433594 Z M 190.441406 177.851562 "/>
<path style=" stroke:none;fill-rule:nonzero;fill:rgb(80.64402%,35.421196%,39.343301%);fill-opacity:1;" d="M 377.859375 290.691406 L 366.589844 255.632812 L 389.84375 285.3125 Z M 377.859375 290.691406 "/>
<path style=" stroke:none;fill-rule:nonzero;fill:rgb(21.988922%,65.908863%,67.886706%);fill-opacity:1;" d="M 416.65625 237.945312 L 406.238281 236.53125 L 417.78125 233.082031 Z M 416.65625 237.945312 "/>
<path style=" stroke:none;fill-rule:nonzero;fill:rgb(89.492687%,50.328458%,5.843418%);fill-opacity:1;" d="M 397.210938 204.324219 L 392.230469 210.28125 L 383.402344 187.132812 Z M 397.210938 204.324219 "/>
<path style=" stroke:none;fill-rule:nonzero;fill:rgb(64.533616%,37.647057%,67.41596%);fill-opacity:1;" d="M 396.304688 196.808594 L 379.898438 176.382812 L 390.863281 168.59375 Z M 396.304688 196.808594 "/>
<path style=" stroke:none;fill-rule:nonzero;fill:rgb(66.725939%,72.052882%,0%);fill-opacity:1;" d="M 181.488281 262.226562 L 210.125 272.847656 L 191.046875 285.410156 Z M 181.488281 262.226562 "/>
<path style=" stroke:none;fill-rule:nonzero;fill:rgb(91.072875%,33.890687%,20.182188%);fill-opacity:1;" d="M 201.195312 265.269531 L 213.292969 267.59375 L 212.949219 269.628906 Z M 201.195312 265.269531 "/>
<path style=" stroke:none;fill-rule:nonzero;fill:rgb(41.150035%,51.559979%,85%);fill-opacity:1;" d="M 214.902344 274.632812 L 240.941406 284.578125 L 193.835938 292.148438 Z M 214.902344 274.632812 "/>
<path style=" stroke:none;fill-rule:nonzero;fill:rgb(74.23353%,35.8%,49.448416%);fill-opacity:1;" d="M 390.160156 164.183594 L 382.398438 169.699219 L 389.535156 155.460938 Z M 390.160156 164.183594 "/>
<path style=" stroke:none;fill-rule:nonzero;fill:rgb(25.677254%,71.5%,45.910767%);fill-opacity:1;" d="M 172.488281 227.746094 L 206.242188 233.796875 L 179.109375 255.253906 Z M 172.488281 227.746094 "/>
<path style=" stroke:none;fill-rule:nonzero;fill:rgb(83.40843%,45.387355%,1.021075%);fill-opacity:1;" d="M 195.253906 142.800781 L 176.261719 139.074219 L 194.347656 134.714844 Z M 195.253906 142.800781 "/>
<path style=" stroke:none;fill-rule:nonzero;fill:rgb(58.849351%,40.962879%,81.626623%);fill-opacity:1;" d="M 198.96875 148.433594 L 209.523438 154.585938 L 196.695312 160.074219 Z M 198.96875 148.433594 "/>
<path style=" stroke:none;fill-rule:nonzero;fill:rgb(88.041933%,74.421326%,0%);fill-opacity:1;" d="M 217.65625 125.652344 L 235.804688 134.105469 L 219.113281 136.660156 Z M 217.65625 125.652344 "/>
<path style=" stroke:none;fill-rule:nonzero;fill:rgb(85.035356%,34.542929%,32.024407%);fill-opacity:1;" d="M 190.53125 166.753906 L 182.378906 187.355469 L 164.769531 175.886719 Z M 190.53125 166.753906 "/>
<path style=" stroke:none;fill-rule:nonzero;fill:rgb(29.307816%,60.053747%,76.669379%);fill-opacity:1;" d="M 289.113281 105.421875 L 292.507812 114.480469 L 269.671875 114.039062 Z M 289.113281 105.421875 "/>
<path style=" stroke:none;fill-rule:nonzero;fill:rgb(93.884023%,53.256015%,9.795621%);fill-opacity:1;" d="M 347.867188 118.277344 L 331.410156 141.242188 L 301.335938 118.507812 Z M 347.867188 118.277344 "/>
<path style=" stroke:none;fill-rule:nonzero;fill:rgb(68.075576%,35.8%,58.922191%);fill-opacity:1;" d="M 295.859375 104.96875 L 294.894531 109.453125 L 293.171875 104.859375 Z M 295.859375 104.96875 "/>
<path style=" stroke:none;fill-rule:nonzero;fill:rgb(51.730136%,71.5%,12.752554%);fill-opacity:1;" d="M 388.066406 149.46875 L 376.734375 172.070312 L 356.292969 142.574219 Z M 388.066406 149.46875 "/>
<path style=" stroke:none;fill-rule:nonzero;fill:rgb(88.145318%,38.282024%,12.863294%);fill-opacity:1;" d="M 407.097656 246.519531 L 401.621094 239.941406 L 413.3125 241.527344 Z M 407.097656 246.519531 "/>
<path style=" stroke:none;fill-rule:nonzero;fill:rgb(48.468929%,47.168643%,85%);fill-opacity:1;" d="M 402.234375 246.929688 L 374.117188 244.632812 L 396.046875 239.496094 Z M 402.234375 246.929688 "/>
<path style=" stroke:none;fill-rule:nonzero;fill:rgb(98.96023%,70.551151%,2.807378%);fill-opacity:1;" d="M 393.21875 283.128906 L 371.933594 255.964844 L 400.007812 276.71875 Z M 393.21875 283.128906 "/>
<path style=" stroke:none;fill-rule:nonzero;fill:rgb(78.039354%,35.8%,43.593301%);fill-opacity:1;" d="M 335.636719 114.339844 L 297.894531 114.523438 L 299.835938 105.507812 Z M 335.636719 114.339844 "/>
<path style=" stroke:none;fill-rule:nonzero;fill:rgb(17.465597%,69.527523%,62.458716%);fill-opacity:1;" d="M 168.253906 203.941406 L 195.039062 203.191406 L 171.242188 221.613281 Z M 168.253906 203.941406 "/>
<path style=" stroke:none;fill-rule:nonzero;fill:rgb(86.778692%,48.519128%,3.400822%);fill-opacity:1;" d="M 213.589844 125.390625 L 215.003906 136.09375 L 201.296875 131.78125 Z M 213.589844 125.390625 "/>
<path style=" stroke:none;fill-rule:nonzero;fill:rgb(62.36242%,38.913588%,72.84395%);fill-opacity:1;" d="M 247.097656 105.378906 L 280.464844 104.878906 L 260.757812 113.617188 Z M 247.097656 105.378906 "/>
<path style=" stroke:none;fill-rule:nonzero;fill:rgb(74.867924%,72.957547%,0%);fill-opacity:1;" d="M 214.511719 292.875 L 248.707031 287.382812 L 305.976562 291.535156 Z M 214.511719 292.875 "/>
<path style=" stroke:none;fill-rule:nonzero;fill:rgb(89.426692%,33.664662%,24.705513%);fill-opacity:1;" d="M 154.5 274.621094 L 176.921875 261.640625 L 186.617188 285.15625 Z M 154.5 274.621094 "/>
<path style=" stroke:none;fill-rule:nonzero;fill:rgb(96.591786%,58.708932%,9.202177%);fill-opacity:1;" d="M 401.589844 272.917969 L 368.097656 248.152344 L 404.550781 251.132812 Z M 401.589844 272.917969 "/>
<path style=" stroke:none;fill-rule:nonzero;fill:rgb(71.881401%,35.8%,53.067076%);fill-opacity:1;" d="M 388.351562 145.4375 L 367.6875 140.953125 L 387.15625 140.230469 Z M 388.351562 145.4375 "/>
<path style=" stroke:none;fill-rule:nonzero;fill:rgb(35.62857%,71.5%,33.245457%);fill-opacity:1;" d="M 394.664062 213.601562 L 399.765625 207.507812 L 412.609375 223.527344 Z M 394.664062 213.601562 "/>
<path style=" stroke:none;fill-rule:nonzero;fill:rgb(85.21776%,42.67336%,5.5444%);fill-opacity:1;" d="M 398.269531 234.738281 L 394.507812 218.089844 L 415.375 229.628906 Z M 398.269531 234.738281 "/>
<path style=" stroke:none;fill-rule:nonzero;fill:rgb(55.787823%,42.777306%,85%);fill-opacity:1;" d="M 238.378906 107.273438 L 240.367188 131.820312 L 219.054688 121.890625 Z M 238.378906 107.273438 "/>
<path style=" stroke:none;fill-rule:nonzero;fill:rgb(96.183918%,75.325991%,0%);fill-opacity:1;" d="M 198.410156 135.066406 L 210.78125 138.960938 L 199.257812 142.640625 Z M 198.410156 135.066406 "/>
<path style=" stroke:none;fill-rule:nonzero;fill:rgb(82.321361%,35.085728%,36.547732%);fill-opacity:1;" d="M 149.023438 115.210938 L 233.121094 106.234375 L 214.59375 120.246094 Z M 149.023438 115.210938 "/>
<path style=" stroke:none;fill-rule:nonzero;fill:rgb(24.784491%,63.672408%,71.241389%);fill-opacity:1;" d="M 195.199219 146.867188 L 192.71875 159.574219 L 173.691406 142.648438 Z M 195.199219 146.867188 "/>
<path style=" stroke:none;fill-rule:nonzero;fill:rgb(91.170028%,51.446685%,7.353025%);fill-opacity:1;" d="M 433.652344 210.574219 L 433.671875 233.445312 L 423.34375 229.1875 Z M 433.652344 210.574219 "/>
<path style=" stroke:none;fill-rule:nonzero;fill:rgb(65.875489%,36.864298%,64.061277%);fill-opacity:1;" d="M 414.882812 253.929688 L 406.351562 267.578125 L 408.480469 251.925781 Z M 414.882812 253.929688 "/>
<path style=" stroke:none;fill-rule:nonzero;fill:rgb(43.945604%,49.882638%,85%);fill-opacity:1;" d="M 381.867188 136.421875 L 353.761719 137.464844 L 353.769531 119.769531 Z M 381.867188 136.421875 "/>
<path style=" stroke:none;fill-rule:nonzero;fill:rgb(98.055565%,66.027826%,5.249974%);fill-opacity:1;" d="M 408.703125 201.972656 L 435.394531 188.097656 L 433.863281 200.917969 Z M 408.703125 201.972656 "/>
<path style=" stroke:none;fill-rule:nonzero;fill:rgb(75.687225%,35.8%,47.211961%);fill-opacity:1;" d="M 420.996094 252.703125 L 430.128906 244.273438 L 425.074219 256.039062 Z M 420.996094 252.703125 "/>
<path style=" stroke:none;fill-rule:nonzero;fill:rgb(19.527003%,71.5%,53.73836%);fill-opacity:1;" d="M 416 250.085938 L 410.996094 248.523438 L 416.113281 244.410156 Z M 416 250.085938 "/>
<path style=" stroke:none;fill-rule:nonzero;fill:rgb(84.064696%,46.709798%,0.958227%);fill-opacity:1;" d="M 158.460938 202.371094 L 161.050781 202.957031 L 155.65625 206.726562 Z M 158.460938 202.371094 "/>
<path style=" stroke:none;fill-rule:nonzero;fill:rgb(60.191224%,40.180119%,78.27194%);fill-opacity:1;" d="M 163.238281 179.660156 L 179.707031 190.386719 L 167.246094 198.703125 Z M 163.238281 179.660156 "/>
<path style=" stroke:none;fill-rule:nonzero;fill:rgb(83.009909%,73.862212%,0%);fill-opacity:1;" d="M 164.453125 205.457031 L 167.1875 221.621094 L 152.332031 213.933594 Z M 164.453125 205.457031 "/>
<path style=" stroke:none;fill-rule:nonzero;fill:rgb(86.712697%,34.207461%,29.228838%);fill-opacity:1;" d="M 167.007812 226.03125 L 150.589844 253.0625 L 150.484375 217.480469 Z M 167.007812 226.03125 "/>
<path style=" stroke:none;fill-rule:nonzero;fill:rgb(32.103384%,57.817292%,80.024061%);fill-opacity:1;" d="M 160.898438 187.964844 L 163.300781 199.367188 L 159.722656 198.554688 Z M 160.898438 187.964844 "/>
<path style=" stroke:none;fill-rule:nonzero;fill:rgb(95.561364%,54.374243%,11.305228%);fill-opacity:1;" d="M 420.523438 266.132812 L 420.140625 257.167969 L 423.402344 259.839844 Z M 420.523438 266.132812 "/>
<path style=" stroke:none;fill-rule:nonzero;fill:rgb(69.529271%,35.8%,56.685736%);fill-opacity:1;" d="M 416.804688 272.777344 L 407.046875 274.015625 L 416.226562 259.324219 Z M 416.804688 272.777344 "/>
<path style=" stroke:none;fill-rule:nonzero;fill:rgb(45.579885%,71.5%,20.580146%);fill-opacity:1;" d="M 414.410156 283.917969 L 398.070312 284.050781 L 403.507812 278.914062 Z M 414.410156 283.917969 "/>
<path style=" stroke:none;fill-rule:nonzero;fill:rgb(87.02709%,39.959365%,10.067725%);fill-opacity:1;" d="M 397.277344 288.054688 L 391.363281 289.015625 L 393.433594 288.085938 Z M 397.277344 288.054688 "/>
<path style=" stroke:none;fill-rule:nonzero;fill:rgb(51.264497%,45.491302%,85%);fill-opacity:1;" d="M 169.019531 230.421875 L 175.386719 256.882812 L 152.273438 257.992188 Z M 169.019531 230.421875 "/>
<path style=" stroke:none;fill-rule:nonzero;fill:rgb(99.519344%,73.34672%,1.297771%);fill-opacity:1;" d="M 135.460938 168.613281 L 158.125 176.703125 L 156.089844 195.011719 Z M 135.460938 168.613281 "/>
<path style=" stroke:none;fill-rule:nonzero;fill:rgb(79.607366%,35.628527%,41.071057%);fill-opacity:1;" d="M 420.039062 248.140625 L 420.164062 241.796875 L 428.949219 239.917969 Z M 420.039062 248.140625 "/>
<path style=" stroke:none;fill-rule:nonzero;fill:rgb(20.261165%,67.291068%,65.813398%);fill-opacity:1;" d="M 150.742188 262.074219 L 169.773438 261.15625 L 151.40625 271.792969 Z M 150.742188 262.074219 "/>
<path style=" stroke:none;fill-rule:nonzero;fill:rgb(88.456033%,49.637355%,4.910429%);fill-opacity:1;" d="M 364.355469 103.460938 L 351.285156 114.078125 L 313.292969 104.707031 Z M 364.355469 103.460938 "/>
<path style=" stroke:none;fill-rule:nonzero;fill:rgb(63.704293%,38.130829%,69.489267%);fill-opacity:1;" d="M 369.496094 104.4375 L 383.871094 132.960938 L 355.261719 116.003906 Z M 369.496094 104.4375 "/>
<path style=" stroke:none;fill-rule:nonzero;fill:rgb(69.8359%,72.398433%,0%);fill-opacity:1;" d="M 400.570312 138.632812 L 395.242188 143.28125 L 392.457031 139.699219 Z M 400.570312 138.632812 "/>
<path style=" stroke:none;fill-rule:nonzero;fill:rgb(97.1509%,61.504501%,7.692569%);fill-opacity:1;" d="M 402.429688 134.355469 L 389.882812 136 L 377.039062 110.519531 Z M 402.429688 134.355469 "/>
<path style=" stroke:none;fill-rule:nonzero;fill:rgb(73.335096%,35.8%,50.830621%);fill-opacity:1;" d="M 424.1875 152.359375 L 394.675781 162.238281 L 396.65625 148.4375 Z M 424.1875 152.359375 "/>
<path style=" stroke:none;fill-rule:nonzero;fill:rgb(29.478318%,71.5%,41.073049%);fill-opacity:1;" d="M 428.953125 235.824219 L 420.851562 237.558594 L 421.925781 232.929688 Z M 428.953125 235.824219 "/>
<path style=" stroke:none;fill-rule:nonzero;fill:rgb(84.099532%,44.350701%,2.748831%);fill-opacity:1;" d="M 420.203125 226.601562 L 403.832031 206.183594 L 432.171875 204.992188 Z M 420.203125 226.601562 "/>
<path style=" stroke:none;fill-rule:nonzero;fill:rgb(58.020028%,41.44665%,83.69993%);fill-opacity:1;" d="M 151.695312 119.429688 L 208.058594 123.757812 L 195.824219 130.117188 Z M 151.695312 119.429688 "/>
<path style=" stroke:none;fill-rule:nonzero;fill:rgb(91.151895%,74.766877%,0%);fill-opacity:1;" d="M 168.222656 143.132812 L 190.152344 162.644531 L 162.875 172.3125 Z M 168.222656 143.132812 "/>
<path style=" stroke:none;fill-rule:nonzero;fill:rgb(83.998702%,34.75026%,33.752163%);fill-opacity:1;" d="M 164.070312 143.59375 L 158.742188 172.675781 L 134.035156 163.859375 Z M 164.070312 143.59375 "/>
<path style=" stroke:none;fill-rule:nonzero;fill:rgb(27.580059%,61.435953%,74.596071%);fill-opacity:1;" d="M 401.253906 201.339844 L 394.914062 168.476562 L 433.148438 184.757812 Z M 401.253906 201.339844 "/>
<path style=" stroke:none;fill-rule:nonzero;fill:rgb(92.847369%,52.564913%,8.862632%);fill-opacity:1;" d="M 170.277344 284.007812 L 187.363281 289.613281 L 186.019531 292.511719 Z M 170.277344 284.007812 "/>
<path style=" stroke:none;fill-rule:nonzero;fill:rgb(67.217362%,36.081539%,60.706595%);fill-opacity:1;" d="M 422.558594 271.300781 L 426.300781 263.113281 L 430.679688 268.792969 Z M 422.558594 271.300781 "/>
<path style=" stroke:none;fill-rule:nonzero;fill:rgb(55.5312%,71.5%,7.914836%);fill-opacity:1;" d="M 423.847656 281.5625 L 421.542969 275.800781 L 429.253906 273.417969 Z M 423.847656 281.5625 "/>
<path style=" stroke:none;fill-rule:nonzero;fill:rgb(88.83642%,37.24537%,14.59105%);fill-opacity:1;" d="M 419.6875 281.9375 L 410.3125 277.632812 L 417.597656 276.707031 Z M 419.6875 281.9375 "/>
<path style=" stroke:none;fill-rule:nonzero;fill:rgb(46.741172%,48.205297%,85%);fill-opacity:1;" d="M 433.730469 266.199219 L 428.671875 259.632812 L 443.453125 248.277344 Z M 433.730469 266.199219 "/>
<path style=" stroke:none;fill-rule:nonzero;fill:rgb(98.614679%,68.823395%,3.740367%);fill-opacity:1;" d="M 436.488281 181.835938 L 409.699219 170.425781 L 438.121094 175.679688 Z M 436.488281 181.835938 "/>
<path style=" stroke:none;fill-rule:nonzero;fill:rgb(77.140921%,35.8%,44.975506%);fill-opacity:1;" d="M 446.402344 237.789062 L 437.671875 234.976562 L 437.65625 214.070312 Z M 446.402344 237.789062 "/>
<path style=" stroke:none;fill-rule:nonzero;fill:rgb(15.73784%,70.909728%,60.385408%);fill-opacity:1;" d="M 142.722656 260.558594 L 146.710938 261.707031 L 147.101562 267.433594 Z M 142.722656 260.558594 "/>
<path style=" stroke:none;fill-rule:nonzero;fill:rgb(85.742038%,47.828025%,2.467834%);fill-opacity:1;" d="M 140.585938 255.78125 L 146.523438 230.949219 L 146.601562 257.515625 Z M 140.585938 255.78125 "/>
<path style=" stroke:none;fill-rule:nonzero;fill:rgb(61.533097%,39.39736%,74.917258%);fill-opacity:1;" d="M 437.597656 171.515625 L 400.210938 164.601562 L 431.597656 154.097656 Z M 437.597656 171.515625 "/>
<path style=" stroke:none;fill-rule:nonzero;fill:rgb(77.977886%,73.303098%,0%);fill-opacity:1;" d="M 450.230469 236.601562 L 438.835938 205.710938 L 466.390625 212.671875 Z M 450.230469 236.601562 "/>
<path style=" stroke:none;fill-rule:nonzero;fill:rgb(88.390038%,33.871992%,26.433269%);fill-opacity:1;" d="M 445.460938 241.6875 L 430.730469 253.007812 L 436.792969 238.894531 Z M 445.460938 241.6875 "/>
<path style=" stroke:none;fill-rule:nonzero;fill:rgb(96.246235%,56.981176%,10.135165%);fill-opacity:1;" d="M 415.800781 139.6875 L 402.097656 142.609375 L 407.441406 137.949219 Z M 415.800781 139.6875 "/>
<path style=" stroke:none;fill-rule:nonzero;fill:rgb(70.982967%,35.8%,54.449281%);fill-opacity:1;" d="M 428.902344 148.988281 L 406.394531 145.785156 L 424.546875 141.914062 Z M 428.902344 148.988281 "/>
<path style=" stroke:none;fill-rule:nonzero;fill:rgb(39.429634%,71.5%,28.407739%);fill-opacity:1;" d="M 452.25 240.75 L 466.707031 219.351562 L 462.886719 252.128906 Z M 452.25 240.75 "/>
<path style=" stroke:none;fill-rule:nonzero;fill:rgb(85.908863%,41.636706%,7.272156%);fill-opacity:1;" d="M 426.855469 136.453125 L 412.140625 134.476562 L 442.890625 112.425781 Z M 426.855469 136.453125 "/>
<path style=" stroke:none;fill-rule:nonzero;fill:rgb(99.29388%,75.671542%,0%);fill-opacity:1;" d="M 439.414062 157.308594 L 435.28125 151.542969 L 437.386719 148.464844 Z M 439.414062 157.308594 "/>
<path style=" stroke:none;fill-rule:nonzero;fill:rgb(81.284707%,35.293059%,38.275489%);fill-opacity:1;" d="M 441.328125 166.84375 L 440.734375 168.339844 L 439.191406 163.863281 Z M 441.328125 166.84375 "/>
<path style=" stroke:none;fill-rule:nonzero;fill:rgb(23.056734%,65.054613%,69.168081%);fill-opacity:1;" d="M 440.78125 202.078125 L 464.726562 187.609375 L 467.304688 208.777344 Z M 440.78125 202.078125 "/>
<path style=" stroke:none;fill-rule:nonzero;fill:rgb(90.133374%,50.755583%,6.420037%);fill-opacity:1;" d="M 443.074219 285.753906 L 436.648438 270.890625 L 459.070312 261.136719 Z M 443.074219 285.753906 "/>
<path style=" stroke:none;fill-rule:nonzero;fill:rgb(65.046166%,37.34807%,66.134585%);fill-opacity:1;" d="M 439.34375 287.203125 L 426.695312 284.503906 L 433.648438 274.03125 Z M 439.34375 287.203125 "/>
<path style=" stroke:none;fill-rule:nonzero;fill:rgb(64.803877%,71.83932%,0%);fill-opacity:1;" d="M 427.496094 288.765625 L 413.320312 289.507812 L 423.355469 287.878906 Z M 427.496094 288.765625 "/>
<path style=" stroke:none;fill-rule:nonzero;fill:rgb(90.64575%,34.531375%,19.114376%);fill-opacity:1;" d="M 141.945312 297.558594 L 150.585938 277.921875 L 180.199219 293.914062 Z M 141.945312 297.558594 "/>
<path style=" stroke:none;fill-rule:nonzero;fill:rgb(42.217847%,50.919292%,85%);fill-opacity:1;" d="M 140.621094 290.632812 L 140.285156 264.179688 L 147.367188 275.304688 Z M 140.621094 290.632812 "/>
<path style=" stroke:none;fill-rule:nonzero;fill:rgb(74.788792%,35.8%,48.594166%);fill-opacity:1;" d="M 437.664062 141.042969 L 431.640625 138.191406 L 449.613281 124.371094 Z M 437.664062 141.042969 "/>
<path style=" stroke:none;fill-rule:nonzero;fill:rgb(23.328067%,71.5%,48.900642%);fill-opacity:1;" d="M 435.34375 144.371094 L 433.335938 147.304688 L 431.5 142.550781 Z M 435.34375 144.371094 "/>
<path style=" stroke:none;fill-rule:nonzero;fill:rgb(83.028043%,46.018695%,0.0252383%);fill-opacity:1;" d="M 125.6875 165.6875 L 111.179688 181.078125 L 118.132812 164.238281 Z M 125.6875 165.6875 "/>
<path style=" stroke:none;fill-rule:nonzero;fill:rgb(59.361901%,40.663891%,80.345248%);fill-opacity:1;" d="M 129.496094 167.480469 L 152.703125 197.175781 L 109.15625 189.058594 Z M 129.496094 167.480469 "/>
<path style=" stroke:none;fill-rule:nonzero;fill:rgb(86.119871%,74.207763%,0%);fill-opacity:1;" d="M 147.804688 211.535156 L 117.042969 194.597656 L 154.246094 201.53125 Z M 147.804688 211.535156 "/>
<path style=" stroke:none;fill-rule:nonzero;fill:rgb(85.676043%,34.414791%,30.956595%);fill-opacity:1;" d="M 439.605469 186.5625 L 459.042969 186.371094 L 438.117188 199.015625 Z M 439.605469 186.5625 "/>
<path style=" stroke:none;fill-rule:nonzero;fill:rgb(30.375628%,59.199498%,77.950754%);fill-opacity:1;" d="M 460.976562 255.945312 L 438.550781 265.703125 L 450.136719 244.347656 Z M 460.976562 255.945312 "/>
<path style=" stroke:none;fill-rule:nonzero;fill:rgb(94.52471%,53.68314%,10.372239%);fill-opacity:1;" d="M 441.964844 176.792969 L 456.113281 182.398438 L 440.4375 182.554688 Z M 441.964844 176.792969 "/>
<path style=" stroke:none;fill-rule:nonzero;fill:rgb(68.630838%,35.8%,58.067941%);fill-opacity:1;" d="M 443.203125 172.984375 L 444.46875 169.785156 L 454.117188 177.304688 Z M 443.203125 172.984375 "/>
<path style=" stroke:none;fill-rule:nonzero;fill:rgb(49.380949%,71.5%,15.742428%);fill-opacity:1;" d="M 468.429688 180.625 L 468.652344 171.507812 L 470.746094 179.167969 Z M 468.429688 180.625 "/>
<path style=" stroke:none;fill-rule:nonzero;fill:rgb(87.718193%,38.922711%,11.795482%);fill-opacity:1;" d="M 146.175781 215.207031 L 137.539062 251.328125 L 109.800781 195.175781 Z M 146.175781 215.207031 "/>
<path style=" stroke:none;fill-rule:nonzero;fill:rgb(49.536741%,46.527955%,85%);fill-opacity:1;" d="M 129.320312 119.171875 L 163.167969 139.378906 L 131.453125 160.773438 Z M 129.320312 119.171875 "/>
<path style=" stroke:none;fill-rule:nonzero;fill:rgb(99.173793%,71.618964%,2.23076%);fill-opacity:1;" d="M 139.5 120.589844 L 187.566406 132.234375 L 167.21875 137.140625 Z M 139.5 120.589844 "/>
<path style=" stroke:none;fill-rule:nonzero;fill:rgb(78.594617%,35.8%,42.739051%);fill-opacity:1;" d="M 114.339844 213.390625 L 136.203125 257.65625 L 136.5625 285.9375 Z M 114.339844 213.390625 "/>
<path style=" stroke:none;fill-rule:nonzero;fill:rgb(62.87497%,38.614601%,71.562575%);fill-opacity:1;" d="M 459.753906 291.074219 L 446.03125 288.546875 L 461.785156 264.300781 Z M 459.753906 291.074219 "/>
<path style=" stroke:none;fill-rule:nonzero;fill:rgb(72.945862%,72.743985%,0%);fill-opacity:1;" d="M 464.210938 285.179688 L 466.09375 260.421875 L 475.078125 267.101562 Z M 464.210938 285.179688 "/>
<path style=" stroke:none;fill-rule:nonzero;fill:rgb(90.06738%,33.536524%,23.637701%);fill-opacity:1;" d="M 473.347656 203.703125 L 471.0625 206.515625 L 469.8125 196.265625 Z M 473.347656 203.703125 "/>
<path style=" stroke:none;fill-rule:nonzero;fill:rgb(37.694522%,53.633287%,85%);fill-opacity:1;" d="M 475.046875 262.09375 L 466.492188 255.734375 L 469.871094 226.765625 Z M 475.046875 262.09375 "/>
<path style=" stroke:none;fill-rule:nonzero;fill:rgb(96.805349%,59.776744%,8.625558%);fill-opacity:1;" d="M 464.4375 180.28125 L 447.640625 167.1875 L 464.914062 160.734375 Z M 464.4375 180.28125 "/>
<path style=" stroke:none;fill-rule:nonzero;fill:rgb(72.436663%,35.8%,52.212826%);fill-opacity:1;" d="M 471.429688 183.464844 L 472.410156 192.417969 L 468.910156 185.046875 Z M 471.429688 183.464844 "/>
<path style=" stroke:none;fill-rule:nonzero;fill:rgb(33.279383%,71.5%,36.235331%);fill-opacity:1;" d="M 465.578125 154.894531 L 443.472656 143.898438 L 469.984375 134.722656 Z M 465.578125 154.894531 "/>
<path style=" stroke:none;fill-rule:nonzero;fill:rgb(84.790635%,43.314047%,4.476588%);fill-opacity:1;" d="M 461.96875 157.566406 L 445.027344 163.890625 L 441.210938 147.238281 Z M 461.96875 157.566406 "/>
<path style=" stroke:none;fill-rule:nonzero;fill:rgb(56.855635%,42.136619%,85%);fill-opacity:1;" d="M 474.578125 231.320312 L 471.75 212.011719 L 473.867188 209.402344 Z M 474.578125 231.320312 "/>
<path style=" stroke:none;fill-rule:nonzero;fill:rgb(94.261856%,75.112428%,0%);fill-opacity:1;" d="M 121.914062 129.941406 L 115.652344 158.363281 L 109.6875 153.507812 Z M 121.914062 129.941406 "/>
<path style=" stroke:none;fill-rule:nonzero;fill:rgb(82.962048%,34.95759%,35.47992%);fill-opacity:1;" d="M 125.894531 130.457031 L 127.507812 161.964844 L 119.300781 160.386719 Z M 125.894531 130.457031 "/>
<path style=" stroke:none;fill-rule:nonzero;fill:rgb(25.852303%,62.818158%,72.522763%);fill-opacity:1;" d="M 108.945312 158.0625 L 114.492188 162.578125 L 107.824219 178.730469 Z M 108.945312 158.0625 "/>
<path style=" stroke:none;fill-rule:nonzero;fill:rgb(91.810715%,51.87381%,7.929644%);fill-opacity:1;" d="M 476.371094 177.671875 L 474.542969 177.886719 L 472.855469 171.710938 Z M 476.371094 177.671875 "/>
<path style=" stroke:none;fill-rule:nonzero;fill:rgb(66.388039%,36.565311%,62.779902%);fill-opacity:1;" d="M 480.492188 182.695312 L 476.664062 194.5 L 475.320312 182.265625 Z M 480.492188 182.695312 "/>
<path style=" stroke:none;fill-rule:nonzero;fill:rgb(59.332265%,71.5%,3.077118%);fill-opacity:1;" d="M 492.894531 278.125 L 479.695312 265.6875 L 478.277344 221.871094 Z M 492.894531 278.125 "/>
<path style=" stroke:none;fill-rule:nonzero;fill:rgb(98.269128%,67.095638%,4.673355%);fill-opacity:1;" d="M 444.742188 106.175781 L 407.046875 133.207031 L 375.433594 103.523438 Z M 444.742188 106.175781 "/>
<path style=" stroke:none;fill-rule:nonzero;fill:rgb(76.242488%,35.8%,46.357711%);fill-opacity:1;" d="M 488.480469 162.984375 L 479.789062 175.589844 L 470.832031 160.410156 Z M 488.480469 162.984375 "/>
<path style=" stroke:none;fill-rule:nonzero;fill:rgb(17.177816%,71.5%,56.728234%);fill-opacity:1;" d="M 456.25 114.21875 L 436.226562 129.617188 L 450.832031 107.734375 Z M 456.25 114.21875 "/>
<path style=" stroke:none;fill-rule:nonzero;fill:rgb(60.703774%,39.881132%,76.990565%);fill-opacity:1;" d="M 469.378906 130.699219 L 443.605469 139.621094 L 459.199219 117.855469 Z M 469.378906 130.699219 "/>
<path style=" stroke:none;fill-rule:nonzero;fill:rgb(87.353384%,34.079323%,28.161026%);fill-opacity:1;" d="M 485.882812 289.78125 L 481.429688 272.820312 L 493.464844 284.160156 Z M 485.882812 289.78125 "/>
<path style=" stroke:none;fill-rule:nonzero;fill:rgb(33.171197%,56.963043%,81.305436%);fill-opacity:1;" d="M 482.117188 291.183594 L 465.140625 291.398438 L 476.996094 271.675781 Z M 482.117188 291.183594 "/>
<path style=" stroke:none;fill-rule:nonzero;fill:rgb(70.084534%,35.8%,55.831486%);fill-opacity:1;" d="M 489.707031 159.117188 L 472.09375 156.550781 L 488.25 144.664062 Z M 489.707031 159.117188 "/>
<path style=" stroke:none;fill-rule:nonzero;fill:rgb(43.230698%,71.5%,23.570021%);fill-opacity:1;" d="M 490.496094 252.996094 L 477.777344 204.046875 L 482.332031 189.988281 Z M 490.496094 252.996094 "/>
<path style=" stroke:none;fill-rule:nonzero;fill:rgb(86.599965%,40.600052%,8.999913%);fill-opacity:1;" d="M 492.933594 240.664062 L 485.226562 181.214844 L 490.277344 170.042969 Z M 492.933594 240.664062 "/>
<path style=" stroke:none;fill-rule:nonzero;fill:rgb(52.33231%,44.850614%,85%);fill-opacity:1;" d="M 486.164062 141.234375 L 470.070312 153.074219 L 474.085938 134.691406 Z M 486.164062 141.234375 "/>
<path style=" stroke:none;fill-rule:nonzero;fill:rgb(99.732906%,74.414532%,0.721153%);fill-opacity:1;" d="M 488.964844 138.199219 L 477.28125 131.875 L 495.460938 124.070312 Z M 488.964844 138.199219 "/>
<path style=" stroke:none;fill-rule:nonzero;fill:rgb(80.248053%,35.500389%,40.003245%);fill-opacity:1;" d="M 492.492188 140.101562 L 497.585938 129.019531 L 497.800781 142.941406 Z M 492.492188 140.101562 "/>
<path style=" stroke:none;fill-rule:nonzero;fill:rgb(21.328978%,66.436818%,67.094773%);fill-opacity:1;" d="M 473.441406 129.171875 L 465.746094 117.621094 L 492.027344 121.191406 Z M 473.441406 129.171875 "/>
<path style=" stroke:none;fill-rule:nonzero;fill:rgb(89.09672%,50.06448%,5.487048%);fill-opacity:1;" d="M 497.164062 147.136719 L 493.273438 154.609375 L 492.253906 144.507812 Z M 497.164062 147.136719 "/>
<path style=" stroke:none;fill-rule:nonzero;fill:rgb(64.216843%,37.831842%,68.207893%);fill-opacity:1;" d="M 497.648438 154.867188 L 496.125 219.109375 L 493.972656 161.921875 Z M 497.648438 154.867188 "/>
<path style=" stroke:none;fill-rule:nonzero;fill:rgb(67.913838%,72.184871%,0%);fill-opacity:1;" d="M 477.488281 115.179688 L 462.546875 113.148438 L 458.210938 108.945312 Z M 477.488281 115.179688 "/>
</g>
</svg>
