<?xml version="1.0" encoding="UTF-8"?>
<svg xmlns="http://www.w3.org/2000/svg" xmlns:xlink="http://www.w3.org/1999/xlink" width="600pt" height="400pt" viewBox="0 0 600 400" version="1.1">
<defs>
<filter id="alpha" filterUnits="objectBoundingBox" x="0%" y="0%" width="100%" height="100%">
  <feColorMatrix type="matrix" in="SourceGraphic" values="0 0 0 0 1 0 0 0 0 1 0 0 0 0 1 0 0 0 1 0"/>
</filter>
<mask id="id1">
  <g filter="url(#alpha)">
<rect x="0" y="0" width="600" height="400" style="fill:rgb(0%,0%,0%);fill-opacity:0.5;stroke:none;"/>
  </g>
</mask>
<clipPath id="id2">
  <rect x="0" y="0" width="600" height="400"/>
</clipPath>
<g id="id3" clip-path="url(#id2)">
<path style="fill:none;stroke-width:1;stroke-linecap:butt;stroke-linejoin:miter;stroke:rgb(0%,0%,0%);stroke-opacity:0.2;stroke-dasharray:4,6;stroke-dashoffset:2;stroke-miterlimit:10;" d="M -1000 -1000 L -1000 1000 M -990 -1000 L -990 1000 M -980 -1000 L -980 1000 M -970 -1000 L -970 1000 M -960 -1000 L -960 1000 M -950 -1000 L -950 1000 M -940 -1000 L -940 1000 M -930 -1000 L -930 1000 M -920 -1000 L -920 1000 M -910 -1000 L -910 1000 M -900 -1000 L -900 1000 M -890 -1000 L -890 1000 M -880 -1000 L -880 1000 M -870 -1000 L -870 1000 M -860 -1000 L -860 1000 M -850 -1000 L -850 1000 M -840 -1000 L -840 1000 M -830 -1000 L -830 1000 M -820 -1000 L -820 1000 M -810 -1000 L -810 1000 M -800 -1000 L -800 1000 M -790 -1000 L -790 1000 M -780 -1000 L -780 1000 M -770 -1000 L -770 1000 M -760 -1000 L -760 1000 M -750 -1000 L -750 1000 M -740 -1000 L -740 1000 M -730 -1000 L -730 1000 M -720 -1000 L -720 1000 M -710 -1000 L -710 1000 M -700 -1000 L -700 1000 M -690 -1000 L -690 1000 M -680 -1000 L -680 1000 M -670 -1000 L -670 1000 M -660 -1000 L -660 1000 M -650 -1000 L -650 1000 M -640 -1000 L -640 1000 M -630 -1000 L -630 1000 M -620 -1000 L -620 1000 M -610 -1000 L -610 1000 M -600 -1000 L -600 1000 M -590 -1000 L -590 1000 M -580 -1000 L -580 1000 M -570 -1000 L -570 1000 M -560 -1000 L -560 1000 M -550 -1000 L -550 1000 M -540 -1000 L -540 1000 M -530 -1000 L -530 1000 M -520 -1000 L -520 1000 M -510 -1000 L -510 1000 M -500 -1000 L -500 1000 M -490 -1000 L -490 1000 M -480 -1000 L -480 1000 M -470 -1000 L -470 1000 M -460 -1000 L -460 1000 M -450 -1000 L -450 1000 M -440 -1000 L -440 1000 M -430 -1000 L -430 1000 M -420 -1000 L -420 1000 M -410 -1000 L -410 1000 M -400 -1000 L -400 1000 M -390 -1000 L -390 1000 M -380 -1000 L -380 1000 M -370 -1000 L -370 1000 M -360 -1000 L -360 1000 M -350 -1000 L -350 1000 M -340 -1000 L -340 1000 M -330 -1000 L -330 1000 M -320 -1000 L -320 1000 M -310 -1000 L -310 1000 M -300 -1000 L -300 1000 M -290 -1000 L -290 1000 M -280 -1000 L -280 1000 M -270 -1000 L -270 1000 M -260 -1000 L -260 1000 M -250 -1000 L -250 1000 M -240 -1000 L -240 1000 M -230 -1000 L -230 1000 M -220 -1000 L -220 1000 M -210 -1000 L -210 1000 M -200 -1000 L -200 1000 M -190 -1000 L -190 1000 M -180 -1000 L -180 1000 M -170 -1000 L -170 1000 M -160 -1000 L -160 1000 M -150 -1000 L -150 1000 M -140 -1000 L -140 1000 M -130 -1000 L -130 1000 M -120 -1000 L -120 1000 M -110 -1000 L -110 1000 M -100 -1000 L -100 1000 M -90 -1000 L -90 1000 M -80 -1000 L -80 1000 M -70 -1000 L -70 1000 M -60 -1000 L -60 1000 M -50 -1000 L -50 1000 M -40 -1000 L -40 1000 M -30 -1000 L -30 1000 M -20 -1000 L -20 1000 M -10 -1000 L -10 1000 M 0 -1000 L 0 1000 M 10 -1000 L 10 1000 M 20 -1000 L 20 1000 M 30 -1000 L 30 1000 M 40 -1000 L 40 1000 M 50 -1000 L 50 1000 M 60 -1000 L 60 1000 M 70 -1000 L 70 1000 M 80 -1000 L 80 1000 M 90 -1000 L 90 1000 M 100 -1000 L 100 1000 M 110 -1000 L 110 1000 M 120 -1000 L 120 1000 M 130 -1000 L 130 1000 M 140 -1000 L 140 1000 M 150 -1000 L 150 1000 M 160 -1000 L 160 1000 M 170 -1000 L 170 1000 M 180 -1000 L 180 1000 M 190 -1000 L 190 1000 M 200 -1000 L 200 1000 M 210 -1000 L 210 1000 M 220 -1000 L 220 1000 M 230 -1000 L 230 1000 M 240 -1000 L 240 1000 M 250 -1000 L 250 1000 M 260 -1000 L 260 1000 M 270 -1000 L 270 1000 M 280 -1000 L 280 1000 M 290 -1000 L 290 1000 M 300 -1000 L 300 1000 M 310 -1000 L 310 1000 M 320 -1000 L 320 1000 M 330 -1000 L 330 1000 M 340 -1000 L 340 1000 M 350 -1000 L 350 1000 M 360 -1000 L 360 1000 M 370 -1000 L 370 1000 M 380 -1000 L 380 1000 M 390 -1000 L 390 1000 M 400 -1000 L 400 1000 M 410 -1000 L 410 1000 M 420 -1000 L 420 1000 M 430 -1000 L 430 1000 M 440 -1000 L 440 1000 M 450 -1000 L 450 1000 M 460 -1000 L 460 1000 M 470 -1000 L 470 1000 M 480 -1000 L 480 1000 M 490 -1000 L 490 1000 M 500 -1000 L 500 1000 M 510 -1000 L 510 1000 M 520 -1000 L 520 1000 M 530 -1000 L 530 1000 M 540 -1000 L 540 1000 M 550 -1000 L 550 1000 M 560 -1000 L 560 1000 M 570 -1000 L 570 1000 M 580 -1000 L 580 1000 M 590 -1000 L 590 1000 M 600 -1000 L 600 1000 M 610 -1000 L 610 1000 M 620 -1000 L 620 1000 M 630 -1000 L 630 1000 M 640 -1000 L 640 1000 M 650 -1000 L 650 1000 M 660 -1000 L 660 1000 M 670 -1000 L 670 1000 M 680 -1000 L 680 1000 M 690 -1000 L 690 1000 M 700 -1000 L 700 1000 M 710 -1000 L 710 1000 M 720 -1000 L 720 1000 M 730 -1000 L 730 1000 M 740 -1000 L 740 1000 M 750 -1000 L 750 1000 M 760 -1000 L 760 1000 M 770 -1000 L 770 1000 M 780 -1000 L 780 1000 M 790 -1000 L 790 1000 M 800 -1000 L 800 1000 M 810 -1000 L 810 1000 M 820 -1000 L 820 1000 M 830 -1000 L 830 1000 M 840 -1000 L 840 1000 M 850 -1000 L 850 1000 M 860 -1000 L 860 1000 M 870 -1000 L 870 1000 M 880 -1000 L 880 1000 M 890 -1000 L 890 1000 M 900 -1000 L 900 1000 M 910 -1000 L 910 1000 M 920 -1000 L 920 1000 M 930 -1000 L 930 1000 M 940 -1000 L 940 1000 M 950 -1000 L 950 1000 M 960 -1000 L 960 1000 M 970 -1000 L 970 1000 M 980 -1000 L 980 1000 M 990 -1000 L 990 1000 M 1000 -1000 L 1000 1000 M -1000 -1000 L 1000 -1000 M -1000 -990 L 1000 -990 M -1000 -980 L 1000 -980 M -1000 -970 L 1000 -970 M -1000 -960 L 1000 -960 M -1000 -950 L 1000 -950 M -1000 -940 L 1000 -940 M -1000 -930 L 1000 -930 M -1000 -920 L 1000 -920 M -1000 -910 L 1000 -910 M -1000 -900 L 1000 -900 M -1000 -890 L 1000 -890 M -1000 -880 L 1000 -880 M -1000 -870 L 1000 -870 M -1000 -860 L 1000 -860 M -1000 -850 L 1000 -850 M -1000 -840 L 1000 -840 M -1000 -830 L 1000 -830 M -1000 -820 L 1000 -820 M -1000 -810 L 1000 -810 M -1000 -800 L 1000 -800 M -1000 -790 L 1000 -790 M -1000 -780 L 1000 -780 M -1000 -770 L 1000 -770 M -1000 -760 L 1000 -760 M -1000 -750 L 1000 -750 M -1000 -740 L 1000 -740 M -1000 -730 L 1000 -730 M -1000 -720 L 1000 -720 M -1000 -710 L 1000 -710 M -1000 -700 L 1000 -700 M -1000 -690 L 1000 -690 M -1000 -680 L 1000 -680 M -1000 -670 L 1000 -670 M -1000 -660 L 1000 -660 M -1000 -650 L 1000 -650 M -1000 -640 L 1000 -640 M -1000 -630 L 1000 -630 M -1000 -620 L 1000 -620 M -1000 -610 L 1000 -610 M -1000 -600 L 1000 -600 M -1000 -590 L 1000 -590 M -1000 -580 L 1000 -580 M -1000 -570 L 1000 -570 M -1000 -560 L 1000 -560 M -1000 -550 L 1000 -550 M -1000 -540 L 1000 -540 M -1000 -530 L 1000 -530 M -1000 -520 L 1000 -520 M -1000 -510 L 1000 -510 M -1000 -500 L 1000 -500 M -1000 -490 L 1000 -490 M -1000 -480 L 1000 -480 M -1000 -470 L 1000 -470 M -1000 -460 L 1000 -460 M -1000 -450 L 1000 -450 M -1000 -440 L 1000 -440 M -1000 -430 L 1000 -430 M -1000 -420 L 1000 -420 M -1000 -410 L 1000 -410 M -1000 -400 L 1000 -400 M -1000 -390 L 1000 -390 M -1000 -380 L 1000 -380 M -1000 -370 L 1000 -370 M -1000 -360 L 1000 -360 M -1000 -350 L 1000 -350 M -1000 -340 L 1000 -340 M -1000 -330 L 1000 -330 M -1000 -320 L 1000 -320 M -1000 -310 L 1000 -310 M -1000 -300 L 1000 -300 M -1000 -290 L 1000 -290 M -1000 -280 L 1000 -280 M -1000 -270 L 1000 -270 M -1000 -260 L 1000 -260 M -1000 -250 L 1000 -250 M -1000 -240 L 1000 -240 M -1000 -230 L 1000 -230 M -1000 -220 L 1000 -220 M -1000 -210 L 1000 -210 M -1000 -200 L 1000 -200 M -1000 -190 L 1000 -190 M -1000 -180 L 1000 -180 M -1000 -170 L 1000 -170 M -1000 -160 L 1000 -160 M -1000 -150 L 1000 -150 M -1000 -140 L 1000 -140 M -1000 -130 L 1000 -130 M -1000 -120 L 1000 -120 M -1000 -110 L 1000 -110 M -1000 -100 L 1000 -100 M -1000 -90 L 1000 -90 M -1000 -80 L 1000 -80 M -1000 -70 L 1000 -70 M -1000 -60 L 1000 -60 M -1000 -50 L 1000 -50 M -1000 -40 L 1000 -40 M -1000 -30 L 1000 -30 M -1000 -20 L 1000 -20 M -1000 -10 L 1000 -10 M -1000 0 L 1000 0 M -1000 10 L 1000 10 M -1000 20 L 1000 20 M -1000 30 L 1000 30 M -1000 40 L 1000 40 M -1000 50 L 1000 50 M -1000 60 L 1000 60 M -1000 70 L 1000 70 M -1000 80 L 1000 80 M -1000 90 L 1000 90 M -1000 100 L 1000 100 M -1000 110 L 1000 110 M -1000 120 L 1000 120 M -1000 130 L 1000 130 M -1000 140 L 1000 140 M -1000 150 L 1000 150 M -1000 160 L 1000 160 M -1000 170 L 1000 170 M -1000 180 L 1000 180 M -1000 190 L 1000 190 M -1000 200 L 1000 200 M -1000 210 L 1000 210 M -1000 220 L 1000 220 M -1000 230 L 1000 230 M -1000 240 L 1000 240 M -1000 250 L 1000 250 M -1000 260 L 1000 260 M -1000 270 L 1000 270 M -1000 280 L 1000 280 M -1000 290 L 1000 290 M -1000 300 L 1000 300 M -1000 310 L 1000 310 M -1000 320 L 1000 320 M -1000 330 L 1000 330 M -1000 340 L 1000 340 M -1000 350 L 1000 350 M -1000 360 L 1000 360 M -1000 370 L 1000 370 M -1000 380 L 1000 380 M -1000 390 L 1000 390 M -1000 400 L 1000 400 M -1000 410 L 1000 410 M -1000 420 L 1000 420 M -1000 430 L 1000 430 M -1000 440 L 1000 440 M -1000 450 L 1000 450 M -1000 460 L 1000 460 M -1000 470 L 1000 470 M -1000 480 L 1000 480 M -1000 490 L 1000 490 M -1000 500 L 1000 500 M -1000 510 L 1000 510 M -1000 520 L 1000 520 M -1000 530 L 1000 530 M -1000 540 L 1000 540 M -1000 550 L 1000 550 M -1000 560 L 1000 560 M -1000 570 L 1000 570 M -1000 580 L 1000 580 M -1000 590 L 1000 590 M -1000 600 L 1000 600 M -1000 610 L 1000 610 M -1000 620 L 1000 620 M -1000 630 L 1000 630 M -1000 640 L 1000 640 M -1000 650 L 1000 650 M -1000 660 L 1000 660 M -1000 670 L 1000 670 M -1000 680 L 1000 680 M -1000 690 L 1000 690 M -1000 700 L 1000 700 M -1000 710 L 1000 710 M -1000 720 L 1000 720 M -1000 730 L 1000 730 M -1000 740 L 1000 740 M -1000 750 L 1000 750 M -1000 760 L 1000 760 M -1000 770 L 1000 770 M -1000 780 L 1000 780 M -1000 790 L 1000 790 M -1000 800 L 1000 800 M -1000 810 L 1000 810 M -1000 820 L 1000 820 M -1000 830 L 1000 830 M -1000 840 L 1000 840 M -1000 850 L 1000 850 M -1000 860 L 1000 860 M -1000 870 L 1000 870 M -1000 880 L 1000 880 M -1000 890 L 1000 890 M -1000 900 L 1000 900 M -1000 910 L 1000 910 M -1000 920 L 1000 920 M -1000 930 L 1000 930 M -1000 940 L 1000 940 M -1000 950 L 1000 950 M -1000 960 L 1000 960 M -1000 970 L 1000 970 M -1000 980 L 1000 980 M -1000 990 L 1000 990 M -1000 1000 L 1000 1000 " transform="matrix(1,0,0,-1,0,400)"/>
</g>
</defs>
<g id="id4">
<use xlink:href="#id3" mask="url(#id1)"/>
<path style="fill:none;stroke-width:1;stroke-linecap:butt;stroke-linejoin:miter;stroke:rgb(36.8417%,50.6779%,70.9798%);stroke-opacity:1;stroke-dasharray:5,5;stroke-miterlimit:10;" d="M 10 10 L 590 10 L 590 390 L 10 390 Z M 10 10 " transform="matrix(1,0,0,-1,0,400)"/>
<path style=" stroke:none;fill-rule:nonzero;fill:rgb(36.8417%,50.6779%,70.9798%);fill-opacity:1;" d="M 231.445312 388 L 218.675781 308.523438 L 217.996094 307.707031 L 170.335938 285.617188 L 164.703125 296.046875 L 173.46875 388 Z M 231.445312 388 "/>
<path style=" stroke:none;fill-rule:nonzero;fill:rgb(88.0722%,61.1041%,14.2051%);fill-opacity:1;" d="M 483.996094 78.125 L 505.378906 12 L 415.886719 12 L 412.738281 94.3125 L 422.492188 107.917969 L 439.796875 119.46875 L 461.425781 101.394531 Z M 483.996094 78.125 "/>
<path style=" stroke:none;fill-rule:nonzero;fill:rgb(56.0181%,69.1569%,19.4885%);fill-opacity:1;" d="M 490.703125 238.53125 L 464.085938 274.332031 L 473.304688 279.871094 L 482.527344 277.453125 L 521.757812 235.820312 L 505.644531 236.34375 Z M 490.703125 238.53125 "/>
<path style=" stroke:none;fill-rule:nonzero;fill:rgb(92.2526%,38.5626%,20.9179%);fill-opacity:1;" d="M 184.128906 138.171875 L 204.550781 135.886719 L 205.800781 131.914062 L 175.730469 74.082031 L 172.195312 88.675781 Z M 184.128906 138.171875 "/>
<path style=" stroke:none;fill-rule:nonzero;fill:rgb(52.8488%,47.0624%,70.1351%);fill-opacity:1;" d="M 206.328125 145.117188 L 204.660156 139.898438 L 184.277344 142.179688 L 182.789062 149.773438 L 201.488281 153.421875 Z M 206.328125 145.117188 "/>
<path style=" stroke:none;fill-rule:nonzero;fill:rgb(77.2079%,43.1554%,10.2387%);fill-opacity:1;" d="M 342.621094 281.546875 L 307.777344 388 L 360.101562 388 L 362.664062 276.238281 Z M 342.621094 281.546875 "/>
<path style=" stroke:none;fill-rule:nonzero;fill:rgb(36.3898%,61.8501%,78.2349%);fill-opacity:1;" d="M 279.957031 119.273438 L 281.390625 122.777344 L 303.117188 130.277344 L 310.949219 130.53125 L 321.121094 117.078125 L 294.167969 111.269531 L 280.007812 116.574219 Z M 279.957031 119.273438 "/>
<path style=" stroke:none;fill-rule:nonzero;fill:rgb(100%,75%,0%);fill-opacity:1;" d="M 456.722656 176.429688 L 454.070312 183.121094 L 454.1875 194.992188 L 455.617188 197.359375 L 460.957031 196.707031 L 472.898438 191.03125 L 461.53125 172.9375 L 459.484375 172.890625 Z M 456.722656 176.429688 "/>
<path style=" stroke:none;fill-rule:nonzero;fill:rgb(64.7624%,37.816%,61.4037%);fill-opacity:1;" d="M 232.519531 150.648438 L 247.6875 147.824219 L 250.371094 144.027344 L 246.863281 139.023438 L 232.246094 140.679688 L 231.941406 149.523438 Z M 232.519531 150.648438 "/>
<path style=" stroke:none;fill-rule:nonzero;fill:rgb(57.1589%,58.6483%,0%);fill-opacity:1;" d="M 479.394531 189.347656 L 479.3125 190.304688 L 571.183594 220.070312 L 586.503906 218.085938 L 486.832031 173.054688 Z M 479.394531 189.347656 "/>
<path style=" stroke:none;fill-rule:nonzero;fill:rgb(91.5%,33.25%,21.25%);fill-opacity:1;" d="M 330.046875 171.210938 L 325.347656 177.832031 L 340.535156 213.859375 L 358.277344 207.832031 L 359.1875 205.734375 L 330.394531 171.277344 Z M 330.046875 171.210938 "/>
<path style=" stroke:none;fill-rule:nonzero;fill:rgb(40.082223%,52.200666%,85%);fill-opacity:1;" d="M 232.074219 193.375 L 240.90625 206.375 L 266.625 191.515625 L 269.425781 184.871094 L 267.535156 183.074219 L 250.945312 180.558594 Z M 232.074219 193.375 "/>
<path style=" stroke:none;fill-rule:nonzero;fill:rgb(97.282889%,62.164445%,7.3362%);fill-opacity:1;" d="M 258.320312 255.5 L 264.84375 250.105469 L 268.28125 229.828125 L 264.714844 221.214844 L 238.292969 227.980469 L 244.398438 247.386719 L 251.546875 254.476562 Z M 258.320312 255.5 "/>
<path style=" stroke:none;fill-rule:nonzero;fill:rgb(73.678267%,35.8%,50.302666%);fill-opacity:1;" d="M 296.082031 107.589844 L 322.113281 113.199219 L 331.574219 74.855469 L 330.039062 12 L 300.085938 12 Z M 296.082031 107.589844 "/>
<path style=" stroke:none;fill-rule:nonzero;fill:rgb(28.026441%,71.5%,42.920893%);fill-opacity:1;" d="M 99.8125 169.84375 L 123.738281 140.453125 L 12 82.484375 L 12 165.074219 Z M 99.8125 169.84375 "/>
<path style=" stroke:none;fill-rule:nonzero;fill:rgb(83.835555%,44.746668%,2.088887%);fill-opacity:1;" d="M 407.652344 223.398438 L 409.90625 230.9375 L 425.421875 234.53125 L 431.195312 220.527344 L 418.234375 213.347656 L 409.207031 220.585938 Z M 407.652344 223.398438 "/>
<path style=" stroke:none;fill-rule:nonzero;fill:rgb(58.336801%,41.261866%,82.907997%);fill-opacity:1;" d="M 229.109375 279.691406 L 220.320312 272.085938 L 197.355469 268.21875 L 197.121094 268.847656 L 219.988281 303.570312 Z M 229.109375 279.691406 "/>
<path style=" stroke:none;fill-rule:nonzero;fill:rgb(89.963995%,74.634888%,0%);fill-opacity:1;" d="M 588 129.882812 L 588 12 L 509.582031 12 L 487.714844 79.628906 L 483.066406 113.851562 L 487.984375 125.300781 L 500.863281 131.222656 Z M 588 129.882812 "/>
<path style=" stroke:none;fill-rule:nonzero;fill:rgb(84.394669%,34.671066%,33.092219%);fill-opacity:1;" d="M 485.921875 238.257812 L 472.875 236.738281 L 449.390625 258.683594 L 455.175781 271.984375 L 455.984375 272.507812 L 460.214844 272.832031 Z M 485.921875 238.257812 "/>
<path style=" stroke:none;fill-rule:nonzero;fill:rgb(28.240003%,60.907997%,75.388004%);fill-opacity:1;" d="M 222.722656 250.324219 L 211.824219 241.394531 L 196.011719 245.730469 L 199.214844 254.597656 L 214.941406 253.765625 Z M 222.722656 250.324219 "/>
<path style=" stroke:none;fill-rule:nonzero;fill:rgb(93.243336%,52.82889%,9.219002%);fill-opacity:1;" d="M 193.324219 267.585938 L 194.121094 265.433594 L 195.769531 256.835938 L 191.621094 245.359375 L 187.917969 240.675781 L 164.621094 246.28125 L 165.574219 266.082031 L 171.625 276.53125 Z M 193.324219 267.585938 "/>
<path style=" stroke:none;fill-rule:nonzero;fill:rgb(67.534135%,35.896754%,59.914662%);fill-opacity:1;" d="M 312.703125 152.609375 L 312.292969 151.675781 L 290.8125 156.636719 L 283.335938 180.734375 Z M 312.703125 152.609375 "/>
<path style=" stroke:none;fill-rule:nonzero;fill:rgb(54.079323%,71.5%,9.76268%);fill-opacity:1;" d="M 440.871094 250.847656 L 443.167969 253.835938 L 446.679688 255.742188 L 468.988281 234.898438 L 450.121094 222.152344 Z M 440.871094 250.847656 "/>
<path style=" stroke:none;fill-rule:nonzero;fill:rgb(88.572442%,37.641336%,13.931106%);fill-opacity:1;" d="M 371.863281 128.425781 L 372.480469 145.058594 L 390.082031 141.015625 L 395.742188 136.613281 L 392.933594 115.1875 L 374.074219 124.691406 Z M 371.863281 128.425781 "/>
<path style=" stroke:none;fill-rule:nonzero;fill:rgb(47.401117%,47.80933%,85%);fill-opacity:1;" d="M 313.390625 246.769531 L 267.527344 253.078125 L 261.433594 258.117188 L 287.105469 306.699219 L 313.625 255.535156 Z M 313.390625 246.769531 "/>
<path style=" stroke:none;fill-rule:nonzero;fill:rgb(98.746668%,69.483339%,3.383997%);fill-opacity:1;" d="M 406.582031 333.390625 L 406.257812 292.90625 L 380.558594 265.695312 L 377.34375 268.214844 Z M 406.582031 333.390625 "/>
<path style=" stroke:none;fill-rule:nonzero;fill:rgb(77.484092%,35.8%,44.447551%);fill-opacity:1;" d="M 173.0625 68.109375 L 174.785156 45.683594 L 171.1875 12 L 12 12 L 12 77.976562 L 127.527344 137.914062 L 127.898438 137.996094 L 138.691406 137.445312 L 168.265625 87.910156 Z M 173.0625 68.109375 "/>
<path style=" stroke:none;fill-rule:nonzero;fill:rgb(16.397784%,70.381773%,61.177341%);fill-opacity:1;" d="M 159.441406 214.808594 L 157.988281 212.734375 L 132.417969 196.277344 L 115.515625 226.972656 L 149 234.980469 Z M 159.441406 214.808594 "/>
<path style=" stroke:none;fill-rule:nonzero;fill:rgb(86.138004%,48.092003%,2.824204%);fill-opacity:1;" d="M 334.824219 170.339844 L 361.59375 202.375 L 361.871094 202.078125 L 361.828125 160.324219 Z M 334.824219 170.339844 "/>
<path style=" stroke:none;fill-rule:nonzero;fill:rgb(61.84987%,39.212576%,74.125325%);fill-opacity:1;" d="M 192.5 218.945312 L 195.085938 218.136719 L 199.902344 212.300781 L 212.339844 190.21875 L 206.960938 188.15625 L 190.085938 204.300781 L 186.074219 210.644531 Z M 192.5 218.945312 "/>
<path style=" stroke:none;fill-rule:nonzero;fill:rgb(76.789986%,73.17111%,0%);fill-opacity:1;" d="M 436.453125 388 L 472.335938 388 L 471.011719 283.160156 L 460.539062 276.867188 L 456.964844 276.597656 Z M 436.453125 388 "/>
<path style=" stroke:none;fill-rule:nonzero;fill:rgb(88.786005%,33.792799%,25.773325%);fill-opacity:1;" d="M 299.019531 133.09375 L 280.976562 126.867188 L 275.03125 140.484375 L 285.789062 145.917969 Z M 299.019531 133.09375 "/>
<path style=" stroke:none;fill-rule:nonzero;fill:rgb(35.558897%,55.052882%,84.170677%);fill-opacity:1;" d="M 442.695312 122.273438 L 453.742188 130.191406 L 455.492188 128.804688 L 459.699219 108.054688 L 442.6875 122.265625 Z M 442.695312 122.273438 "/>
<path style=" stroke:none;fill-rule:nonzero;fill:rgb(96.378224%,57.64112%,9.778795%);fill-opacity:1;" d="M 481.480469 150.164062 L 489.546875 149.351562 L 497.675781 134.160156 L 487.316406 129.398438 L 478.367188 145.929688 Z M 481.480469 150.164062 "/>
<path style=" stroke:none;fill-rule:nonzero;fill:rgb(71.326138%,35.8%,53.921326%);fill-opacity:1;" d="M 190.339844 198.519531 L 203.703125 185.734375 L 198.109375 179.582031 L 189.523438 178.660156 Z M 190.339844 198.519531 "/>
<path style=" stroke:none;fill-rule:nonzero;fill:rgb(37.977756%,71.5%,30.255583%);fill-opacity:1;" d="M 233.394531 222.816406 L 238.078125 209.328125 L 228.058594 194.582031 L 218.921875 192.113281 L 221.273438 206.671875 L 229.261719 221.988281 Z M 233.394531 222.816406 "/>
<path style=" stroke:none;fill-rule:nonzero;fill:rgb(85.644885%,42.032673%,6.612212%);fill-opacity:1;" d="M 261.800781 12 L 175.210938 12 L 178.722656 44.890625 L 233.917969 117.878906 L 243.535156 117.097656 L 262.890625 85.003906 Z M 261.800781 12 "/>
<path style=" stroke:none;fill-rule:nonzero;fill:rgb(54.72001%,43.417994%,85%);fill-opacity:1;" d="M 358.949219 211.832031 L 340.269531 218.171875 L 320.285156 230.308594 L 319.144531 239.886719 L 323.851562 241.507812 L 352.894531 245.769531 L 365.578125 221.78125 Z M 358.949219 211.832031 "/>
<path style=" stroke:none;fill-rule:nonzero;fill:rgb(98.10598%,75.539553%,0%);fill-opacity:1;" d="M 413.535156 285.382812 L 410.253906 292.535156 L 410.660156 342.738281 L 414.390625 365.75 L 432.164062 282.539062 L 427.832031 279.664062 Z M 413.535156 285.382812 "/>
<path style=" stroke:none;fill-rule:nonzero;fill:rgb(81.680673%,35.213865%,37.615544%);fill-opacity:1;" d="M 486.191406 279.394531 L 566.730469 388 L 588 388 L 588 221.925781 L 571.375 224.082031 L 527.601562 235.457031 Z M 486.191406 279.394531 "/>
<path style=" stroke:none;fill-rule:nonzero;fill:rgb(23.716678%,64.526657%,69.960014%);fill-opacity:1;" d="M 415.300781 248.429688 L 411.0625 261.972656 L 414.582031 261.824219 L 425.382812 248.625 Z M 415.300781 248.429688 "/>
<path style=" stroke:none;fill-rule:nonzero;fill:rgb(90.529341%,51.01956%,6.776406%);fill-opacity:1;" d="M 366.585938 269.179688 L 367.386719 268.632812 L 352.914062 249.8125 L 332.125 246.765625 Z M 366.585938 269.179688 "/>
<path style=" stroke:none;fill-rule:nonzero;fill:rgb(65.362939%,37.163285%,65.342652%);fill-opacity:1;" d="M 453.054688 275.742188 L 436.144531 283.054688 L 416.132812 376.746094 L 416.722656 388 L 432.386719 388 Z M 453.054688 275.742188 "/>
<path style=" stroke:none;fill-rule:nonzero;fill:rgb(63.615977%,71.707331%,0%);fill-opacity:1;" d="M 316.199219 259.265625 L 289.132812 311.484375 L 290.582031 388 L 303.566406 388 L 338.761719 280.476562 Z M 316.199219 259.265625 "/>
<path style=" stroke:none;fill-rule:nonzero;fill:rgb(90.381773%,34.927341%,18.454431%);fill-opacity:1;" d="M 375.929688 155.730469 L 394.246094 154.417969 L 389.84375 145.171875 L 372.253906 149.214844 L 371.339844 153.433594 Z M 375.929688 155.730469 "/>
<path style=" stroke:none;fill-rule:nonzero;fill:rgb(42.877791%,50.523325%,85%);fill-opacity:1;" d="M 178.582031 150.429688 L 180.550781 140.398438 L 169.34375 93.90625 L 142.230469 139.320312 L 151.503906 153.066406 L 172.769531 156.960938 Z M 178.582031 150.429688 "/>
<path style=" stroke:none;fill-rule:nonzero;fill:rgb(97.842003%,64.960014%,5.826592%);fill-opacity:1;" d="M 231.992188 136.679688 L 245.511719 135.152344 L 243.238281 121.136719 L 234.308594 121.859375 L 230.855469 129.265625 Z M 231.992188 136.679688 "/>
<path style=" stroke:none;fill-rule:nonzero;fill:rgb(75.131963%,35.8%,48.066211%);fill-opacity:1;" d="M 247.886719 256.480469 L 241.941406 250.582031 L 227.066406 252.777344 L 217.988281 256.792969 L 222.878906 269.011719 L 231.253906 276.257812 Z M 247.886719 256.480469 "/>
<path style=" stroke:none;fill-rule:nonzero;fill:rgb(21.87619%,71.5%,50.748486%);fill-opacity:1;" d="M 465.78125 172.183594 L 475.515625 187.679688 L 475.417969 188.867188 L 473.238281 170.144531 Z M 465.78125 172.183594 "/>
<path style=" stroke:none;fill-rule:nonzero;fill:rgb(83.424009%,46.282673%,0.381608%);fill-opacity:1;" d="M 378.703125 231.273438 L 384.316406 255.242188 L 405.640625 237.492188 L 406.28125 232.78125 L 404.113281 225.53125 Z M 378.703125 231.273438 "/>
<path style=" stroke:none;fill-rule:nonzero;fill:rgb(59.678674%,40.479107%,79.553315%);fill-opacity:1;" d="M 218.371094 209.761719 L 202.742188 215.144531 L 200.078125 218.371094 L 224.605469 221.710938 Z M 218.371094 209.761719 "/>
<path style=" stroke:none;fill-rule:nonzero;fill:rgb(84.931971%,74.075775%,0%);fill-opacity:1;" d="M 561.75 388 L 482.789062 281.519531 L 475.015625 283.558594 L 476.335938 388 Z M 561.75 388 "/>
<path style=" stroke:none;fill-rule:nonzero;fill:rgb(86.07201%,34.335598%,30.29665%);fill-opacity:1;" d="M 186.039062 191.234375 L 182.488281 204.464844 L 183.820312 206.726562 L 186.5 202.484375 Z M 186.039062 191.234375 "/>
<path style=" stroke:none;fill-rule:nonzero;fill:rgb(31.035572%,58.671542%,78.742687%);fill-opacity:1;" d="M 397.238281 158.210938 L 379.214844 159.507812 L 395.746094 182.773438 L 410.726562 179.882812 L 413.847656 172.546875 L 414.320312 169.992188 L 411.042969 160.195312 Z M 397.238281 158.210938 "/>
<path style=" stroke:none;fill-rule:nonzero;fill:rgb(94.920677%,53.947118%,10.728609%);fill-opacity:1;" d="M 478.585938 181.484375 L 483.328125 171.105469 L 478.542969 167.808594 L 477.089844 168.664062 Z M 478.585938 181.484375 "/>
<path style=" stroke:none;fill-rule:nonzero;fill:rgb(68.974009%,35.8%,57.539986%);fill-opacity:1;" d="M 429.757812 249.59375 L 418.75 263.042969 L 424.953125 265.882812 L 439.035156 255.027344 L 437.378906 252.867188 Z M 429.757812 249.59375 "/>
<path style=" stroke:none;fill-rule:nonzero;fill:rgb(47.929072%,71.5%,17.590272%);fill-opacity:1;" d="M 456.160156 133.382812 L 458.527344 140.230469 L 474.960938 143.820312 L 484.230469 126.695312 L 480.121094 117.128906 L 458.484375 131.539062 Z M 456.160156 133.382812 "/>
<path style=" stroke:none;fill-rule:nonzero;fill:rgb(87.454215%,39.318678%,11.135537%);fill-opacity:1;" d="M 215.046875 186.972656 L 225.125 165.878906 L 206.621094 164.359375 L 201.402344 177.261719 L 207.65625 184.136719 Z M 215.046875 186.972656 "/>
<path style=" stroke:none;fill-rule:nonzero;fill:rgb(50.196685%,46.131989%,85%);fill-opacity:1;" d="M 132.230469 188.597656 L 137.675781 184.339844 L 148.09375 155.164062 L 138.835938 141.441406 L 129.398438 141.925781 L 122.234375 179.179688 Z M 132.230469 188.597656 "/>
<path style=" stroke:none;fill-rule:nonzero;fill:rgb(99.305782%,72.278908%,1.87439%);fill-opacity:1;" d="M 373.1875 120.660156 L 393.332031 110.507812 L 408.742188 94.097656 L 411.882812 12 L 334.039062 12 L 335.5625 74.34375 Z M 373.1875 120.660156 "/>
<path style=" stroke:none;fill-rule:nonzero;fill:rgb(78.966678%,35.756664%,42.13887%);fill-opacity:1;" d="M 270.855469 140.050781 L 277.710938 124.347656 L 276.71875 121.925781 L 257.773438 125.621094 L 262.34375 138.769531 Z M 270.855469 140.050781 "/>
<path style=" stroke:none;fill-rule:nonzero;fill:rgb(19.193353%,68.145318%,64.532024%);fill-opacity:1;" d="M 179.550781 199.972656 L 185.503906 177.789062 L 185.503906 177.78125 L 179.144531 175.265625 L 171.199219 187.460938 Z M 179.550781 199.972656 "/>
<path style=" stroke:none;fill-rule:nonzero;fill:rgb(87.815345%,49.21023%,4.333811%);fill-opacity:1;" d="M 445.976562 155.964844 L 433.613281 164.828125 L 454.3125 173.015625 L 456.261719 170.515625 L 450.441406 154.941406 Z M 445.976562 155.964844 "/>
<path style=" stroke:none;fill-rule:nonzero;fill:rgb(63.191743%,38.429816%,70.770642%);fill-opacity:1;" d="M 369.222656 156.84375 L 365.828125 159.195312 L 365.871094 199.964844 L 379.464844 194.78125 L 392.140625 184.601562 L 374.183594 159.332031 Z M 369.222656 156.84375 "/>
<path style=" stroke:none;fill-rule:nonzero;fill:rgb(71.757962%,72.611996%,0%);fill-opacity:1;" d="M 456.179688 201.320312 L 451.839844 218.488281 L 472.902344 232.714844 L 489.5625 234.65625 L 500.667969 233.03125 L 460.921875 200.742188 Z M 456.179688 201.320312 "/>
<path style=" stroke:none;fill-rule:nonzero;fill:rgb(90.463346%,33.457331%,22.977756%);fill-opacity:1;" d="M 167.625 282.21875 L 168.589844 279.273438 L 162.492188 268.742188 L 141.296875 270.191406 L 128.429688 278.382812 L 161.773438 293.058594 Z M 167.625 282.21875 "/>
<path style=" stroke:none;fill-rule:nonzero;fill:rgb(38.354466%,53.23732%,85%);fill-opacity:1;" d="M 407.234375 241.371094 L 386.746094 258.425781 L 407.117188 261.195312 L 411.613281 246.820312 Z M 407.234375 241.371094 "/>
<path style=" stroke:none;fill-rule:nonzero;fill:rgb(96.937338%,60.436689%,8.269188%);fill-opacity:1;" d="M 206.683594 160.351562 L 227.601562 162.066406 L 227.753906 161.957031 L 229.332031 153.199219 L 228.578125 151.730469 L 209.503906 147.617188 L 204.734375 155.796875 Z M 206.683594 160.351562 "/>
<path style=" stroke:none;fill-rule:nonzero;fill:rgb(72.779834%,35.8%,51.684871%);fill-opacity:1;" d="M 331.304688 167.378906 L 358.085938 157.445312 L 342.097656 144.5625 L 327.835938 162.511719 L 330.453125 167.214844 Z M 331.304688 167.378906 "/>
<path style=" stroke:none;fill-rule:nonzero;fill:rgb(31.827505%,71.5%,38.083175%);fill-opacity:1;" d="M 167.582031 185.691406 L 176.148438 172.539062 L 172.019531 160.890625 L 151.628906 157.15625 L 142.101562 183.851562 L 164.5 186.339844 Z M 167.582031 185.691406 "/>
<path style=" stroke:none;fill-rule:nonzero;fill:rgb(84.526657%,43.710014%,3.816643%);fill-opacity:1;" d="M 381.089844 259.003906 L 374.484375 230.796875 L 368.425781 224.949219 L 356.371094 247.75 L 370.988281 266.753906 L 373.925781 265.808594 L 379.3125 261.589844 L 381.074219 259.207031 Z M 381.089844 259.003906 "/>
<path style=" stroke:none;fill-rule:nonzero;fill:rgb(57.507478%,41.745638%,84.981305%);fill-opacity:1;" d="M 316.316406 229.800781 L 314.722656 228.117188 L 288.96875 225.089844 L 272.125 231.085938 L 269.121094 248.820312 L 314.019531 242.644531 L 315.023438 240.664062 Z M 316.316406 229.800781 "/>
<path style=" stroke:none;fill-rule:nonzero;fill:rgb(93.073957%,74.98044%,0%);fill-opacity:1;" d="M 446.085938 221.628906 L 435.0625 221.640625 L 428.710938 237.050781 L 430.535156 245.574219 L 437.417969 248.53125 Z M 446.085938 221.628906 "/>
<path style=" stroke:none;fill-rule:nonzero;fill:rgb(83.358015%,34.878397%,34.819976%);fill-opacity:1;" d="M 286.582031 388 L 285.132812 311.527344 L 257.605469 259.441406 L 251.414062 258.503906 L 233.226562 280.125 L 222.625 307.878906 L 235.496094 388 Z M 286.582031 388 "/>
<path style=" stroke:none;fill-rule:nonzero;fill:rgb(26.512247%,62.290202%,73.314696%);fill-opacity:1;" d="M 383.925781 262.078125 L 383.363281 262.839844 L 407.667969 288.578125 L 409.996094 283.507812 L 407.683594 265.308594 Z M 383.925781 262.078125 "/>
<path style=" stroke:none;fill-rule:nonzero;fill:rgb(92.206682%,52.137788%,8.286014%);fill-opacity:1;" d="M 422.636719 112.824219 L 421.316406 122.683594 L 430.304688 142.253906 L 438.957031 123.976562 L 438.546875 123.441406 Z M 422.636719 112.824219 "/>
<path style=" stroke:none;fill-rule:nonzero;fill:rgb(66.704812%,36.380526%,61.987969%);fill-opacity:1;" d="M 410.007812 235.066406 L 409.617188 237.949219 L 414.8125 244.417969 L 426.246094 244.640625 L 424.9375 238.523438 Z M 410.007812 235.066406 "/>
<path style=" stroke:none;fill-rule:nonzero;fill:rgb(57.880387%,71.5%,4.924962%);fill-opacity:1;" d="M 214.089844 257.816406 L 199.507812 258.589844 L 198.40625 264.339844 L 218.023438 267.640625 Z M 214.089844 257.816406 "/>
<path style=" stroke:none;fill-rule:nonzero;fill:rgb(89.263545%,36.604682%,15.658863%);fill-opacity:1;" d="M 415.308594 151.808594 L 426.984375 144.617188 L 419.976562 129.351562 Z M 415.308594 151.808594 "/>
<path style=" stroke:none;fill-rule:nonzero;fill:rgb(45.67336%,48.845984%,85%);fill-opacity:1;" d="M 365.019531 204.570312 L 363.210938 206.507812 L 362.027344 209.238281 L 369.445312 220.375 L 376.910156 227.578125 L 404.179688 221.414062 L 405.101562 219.746094 L 380.085938 198.824219 Z M 365.019531 204.570312 "/>
<path style=" stroke:none;fill-rule:nonzero;fill:rgb(98.401117%,67.755583%,4.316985%);fill-opacity:1;" d="M 12 388 L 169.449219 388 L 160.773438 296.988281 L 123.789062 280.710938 L 12 282.136719 Z M 12 388 "/>
<path style=" stroke:none;fill-rule:nonzero;fill:rgb(76.585659%,35.8%,45.829756%);fill-opacity:1;" d="M 227.4375 127.132812 L 230.664062 120.207031 L 178.382812 51.074219 L 177.082031 68.007812 L 209.085938 129.558594 Z M 227.4375 127.132812 "/>
<path style=" stroke:none;fill-rule:nonzero;fill:rgb(15.725939%,71.5%,58.576078%);fill-opacity:1;" d="M 124.589844 145.742188 L 103.96875 171.074219 L 118.5625 177.097656 Z M 124.589844 145.742188 "/>
<path style=" stroke:none;fill-rule:nonzero;fill:rgb(85.10135%,47.4009%,1.891215%);fill-opacity:1;" d="M 415.167969 265.800781 L 411.796875 265.945312 L 413.710938 281.003906 L 425.609375 276.246094 L 423.574219 269.648438 Z M 415.167969 265.800781 "/>
<path style=" stroke:none;fill-rule:nonzero;fill:rgb(61.020547%,39.696348%,76.198632%);fill-opacity:1;" d="M 430.433594 147.191406 L 414.789062 156.824219 L 414.59375 158.203125 L 417.636719 167.300781 L 428.539062 163.542969 L 441.652344 154.144531 L 431.105469 146.929688 Z M 430.433594 147.191406 "/>
<path style=" stroke:none;fill-rule:nonzero;fill:rgb(79.899948%,73.516661%,0%);fill-opacity:1;" d="M 228.007812 147.515625 L 228.300781 139.003906 L 227.109375 131.210938 L 209.480469 133.539062 L 208.164062 137.722656 L 210.058594 143.644531 Z M 228.007812 147.515625 "/>
<path style=" stroke:none;fill-rule:nonzero;fill:rgb(87.749351%,34.00013%,27.501082%);fill-opacity:1;" d="M 264.15625 217.230469 L 266.863281 201.980469 L 266.445312 196.238281 L 241.941406 210.394531 L 237.167969 224.140625 Z M 264.15625 217.230469 "/>
<path style=" stroke:none;fill-rule:nonzero;fill:rgb(33.831141%,56.435087%,82.097369%);fill-opacity:1;" d="M 129.941406 191.941406 L 118.957031 181.589844 L 100.273438 173.875 L 12 169.082031 L 12 275.71875 L 111.046875 226.792969 L 129.789062 192.753906 Z M 129.941406 191.941406 "/>
<path style=" stroke:none;fill-rule:nonzero;fill:rgb(96.032673%,55.913364%,10.711784%);fill-opacity:1;" d="M 253.519531 141.550781 L 258.351562 139.46875 L 253.511719 125.542969 L 247.539062 122.683594 L 249.722656 136.128906 Z M 253.519531 141.550781 "/>
<path style=" stroke:none;fill-rule:nonzero;fill:rgb(70.427705%,35.8%,55.303531%);fill-opacity:1;" d="M 188.019531 174.472656 L 197.789062 175.527344 L 203.152344 162.265625 L 201.078125 157.417969 L 181.175781 153.53125 L 175.796875 159.578125 L 179.945312 171.277344 Z M 188.019531 174.472656 "/>
<path style=" stroke:none;fill-rule:nonzero;fill:rgb(41.778821%,71.5%,25.417864%);fill-opacity:1;" d="M 373.785156 270.054688 L 371.148438 270.902344 L 367.929688 273.109375 L 366.707031 274.425781 L 364.101562 388 L 412.71875 388 L 412.128906 376.796875 L 406.726562 343.484375 Z M 373.785156 270.054688 "/>
<path style=" stroke:none;fill-rule:nonzero;fill:rgb(86.335987%,40.996019%,8.339969%);fill-opacity:1;" d="M 476.34375 193.824219 L 465.242188 199.097656 L 506.144531 232.324219 L 526.253906 231.671875 L 563.851562 221.902344 L 476.980469 193.753906 Z M 476.34375 193.824219 "/>
<path style=" stroke:none;fill-rule:nonzero;fill:rgb(52.992254%,44.454648%,85%);fill-opacity:1;" d="M 315.414062 148.847656 L 316.753906 151.878906 L 325.1875 159.414062 L 339.621094 141.246094 L 336.851562 129.078125 L 324.015625 119.878906 L 313.984375 133.152344 Z M 315.414062 148.847656 "/>
<path style=" stroke:none;fill-rule:nonzero;fill:rgb(99.864895%,75.074477%,0.364783%);fill-opacity:1;" d="M 180.757812 209.414062 L 178.644531 205.820312 L 167.894531 189.710938 L 166.265625 190.054688 L 161.550781 210.84375 L 162.6875 212.46875 Z M 180.757812 209.414062 "/>
<path style=" stroke:none;fill-rule:nonzero;fill:rgb(80.64402%,35.421196%,39.343301%);fill-opacity:1;" d="M 269.394531 175.753906 L 270.289062 180.175781 L 272.527344 182.300781 L 278.839844 181.726562 L 287.101562 155.09375 L 284.640625 149.816406 L 273.171875 144.027344 Z M 269.394531 175.753906 "/>
<path style=" stroke:none;fill-rule:nonzero;fill:rgb(21.988922%,65.908863%,67.886706%);fill-opacity:1;" d="M 501.648438 135.210938 L 493.527344 150.394531 L 588 199.605469 L 588 133.882812 Z M 501.648438 135.210938 "/>
<path style=" stroke:none;fill-rule:nonzero;fill:rgb(89.492687%,50.328458%,5.843418%);fill-opacity:1;" d="M 302.203125 193.910156 L 317.339844 225.066406 L 318.753906 226.558594 L 336.902344 215.535156 L 322.171875 180.589844 Z M 302.203125 193.910156 "/>
<path style=" stroke:none;fill-rule:nonzero;fill:rgb(64.533616%,37.647057%,67.41596%);fill-opacity:1;" d="M 251.257812 176.558594 L 265.925781 178.785156 L 265.492188 176.644531 L 247.957031 151.84375 L 233.144531 154.601562 L 231.769531 162.226562 Z M 251.257812 176.558594 "/>
<path style=" stroke:none;fill-rule:nonzero;fill:rgb(66.725939%,72.052882%,0%);fill-opacity:1;" d="M 279.097656 112.640625 L 292.070312 107.78125 L 296.082031 12 L 265.800781 12 L 266.890625 85.109375 Z M 279.097656 112.640625 "/>
<path style=" stroke:none;fill-rule:nonzero;fill:rgb(91.072875%,33.890687%,20.182188%);fill-opacity:1;" d="M 186.953125 236.792969 L 189.644531 221.789062 L 182.917969 213.105469 L 163.089844 216.457031 L 152.75 236.4375 L 162.878906 242.589844 Z M 186.953125 236.792969 "/>
<path style=" stroke:none;fill-rule:nonzero;fill:rgb(41.150035%,51.559979%,85%);fill-opacity:1;" d="M 419.304688 193.640625 L 419.980469 209.742188 L 434.238281 217.640625 L 447.933594 217.628906 L 452.429688 199.820312 L 450.988281 197.429688 Z M 419.304688 193.640625 "/>
<path style=" stroke:none;fill-rule:nonzero;fill:rgb(97.496451%,63.232257%,6.759581%);fill-opacity:1;" d="M 172.382812 280.546875 L 171.925781 281.945312 L 213.710938 301.3125 L 194.132812 271.578125 Z M 172.382812 280.546875 "/>
<path style=" stroke:none;fill-rule:nonzero;fill:rgb(74.23353%,35.8%,49.448416%);fill-opacity:1;" d="M 255.390625 122.007812 L 275.980469 117.992188 L 276.027344 115.582031 L 264.628906 89.867188 L 247.519531 118.238281 Z M 255.390625 122.007812 "/>
<path style=" stroke:none;fill-rule:nonzero;fill:rgb(25.677254%,71.5%,45.910767%);fill-opacity:1;" d="M 288.574219 148.789062 L 290.371094 152.636719 L 311.304688 147.796875 L 310.089844 134.503906 L 303.53125 134.292969 Z M 288.574219 148.789062 "/>
<path style=" stroke:none;fill-rule:nonzero;fill:rgb(83.40843%,45.387355%,1.021075%);fill-opacity:1;" d="M 397.609375 140.226562 L 393.457031 143.457031 L 398.65625 154.375 L 410.847656 156.125 L 410.910156 155.683594 L 410.855469 155.429688 Z M 397.609375 140.226562 "/>
<path style=" stroke:none;fill-rule:nonzero;fill:rgb(58.849351%,40.962879%,81.626623%);fill-opacity:1;" d="M 228.933594 190.671875 L 247.007812 178.398438 L 229.664062 165.648438 L 218.996094 187.988281 Z M 228.933594 190.671875 "/>
<path style=" stroke:none;fill-rule:nonzero;fill:rgb(88.041933%,74.421326%,0%);fill-opacity:1;" d="M 211.222656 237.414062 L 222.472656 225.457031 L 196.421875 221.910156 L 193.523438 222.8125 L 190.820312 237.898438 L 194.140625 242.097656 Z M 211.222656 237.414062 "/>
<path style=" stroke:none;fill-rule:nonzero;fill:rgb(85.035356%,34.542929%,32.024407%);fill-opacity:1;" d="M 286.070312 183.652344 L 299.53125 190.886719 L 321.65625 176.125 L 326.796875 168.875 L 323.851562 163.582031 L 315.144531 155.804688 Z M 286.070312 183.652344 "/>
<path style=" stroke:none;fill-rule:nonzero;fill:rgb(29.307816%,60.053747%,76.669379%);fill-opacity:1;" d="M 368.5625 147.371094 L 367.914062 129.910156 L 341.140625 129.894531 L 343.582031 140.617188 L 362.8125 156.117188 L 363.226562 156.128906 L 367.269531 153.328125 Z M 368.5625 147.371094 "/>
<path style=" stroke:none;fill-rule:nonzero;fill:rgb(93.884023%,53.256015%,9.795621%);fill-opacity:1;" d="M 266 170.433594 L 269.164062 143.839844 L 261.121094 142.628906 L 254.125 145.644531 L 251.300781 149.644531 Z M 266 170.433594 "/>
<path style=" stroke:none;fill-rule:nonzero;fill:rgb(68.075576%,35.8%,58.922191%);fill-opacity:1;" d="M 442.03125 257.769531 L 427.539062 268.9375 L 429.765625 276.148438 L 434.605469 279.359375 L 450.949219 272.292969 L 445.433594 259.617188 Z M 442.03125 257.769531 "/>
<path style=" stroke:none;fill-rule:nonzero;fill:rgb(51.730136%,71.5%,12.752554%);fill-opacity:1;" d="M 418.496094 189.515625 L 450.171875 193.304688 L 450.082031 184.292969 L 416.9375 175.503906 L 414.359375 181.558594 Z M 418.496094 189.515625 "/>
<path style=" stroke:none;fill-rule:nonzero;fill:rgb(88.145318%,38.282024%,12.863294%);fill-opacity:1;" d="M 322.492188 245.269531 L 317.964844 243.710938 L 317.34375 244.933594 L 317.617188 255.109375 L 341.621094 277.675781 L 363.429688 271.898438 Z M 322.492188 245.269531 "/>
<path style=" stroke:none;fill-rule:nonzero;fill:rgb(48.468929%,47.168643%,85%);fill-opacity:1;" d="M 480.785156 164.492188 L 486.828125 168.664062 L 588 214.371094 L 588 204.113281 L 490.414062 153.28125 L 482.300781 154.101562 Z M 480.785156 164.492188 "/>
<path style=" stroke:none;fill-rule:nonzero;fill:rgb(98.96023%,70.551151%,2.807378%);fill-opacity:1;" d="M 227.089844 248.730469 L 240.027344 246.824219 L 233.941406 227.476562 L 233.546875 226.929688 L 227.90625 225.796875 L 227.589844 225.851562 L 215.21875 239.003906 Z M 227.089844 248.730469 "/>
<path style=" stroke:none;fill-rule:nonzero;fill:rgb(78.039354%,35.8%,43.593301%);fill-opacity:1;" d="M 396.65625 112.8125 L 399.777344 136.628906 L 411.566406 150.15625 L 417.285156 122.652344 L 418.992188 109.902344 L 410.503906 98.0625 Z M 396.65625 112.8125 "/>
<path style=" stroke:none;fill-rule:nonzero;fill:rgb(17.465597%,69.527523%,62.458716%);fill-opacity:1;" d="M 150.867188 239.972656 L 143.363281 266.039062 L 161.507812 264.800781 L 160.597656 245.882812 Z M 150.867188 239.972656 "/>
<path style=" stroke:none;fill-rule:nonzero;fill:rgb(86.778692%,48.519128%,3.400822%);fill-opacity:1;" d="M 433.902344 144 L 445.542969 151.960938 L 450.335938 150.863281 L 454.839844 141.804688 L 452.121094 133.949219 L 442.070312 126.75 Z M 433.902344 144 "/>
<path style=" stroke:none;fill-rule:nonzero;fill:rgb(62.36242%,38.913588%,72.84395%);fill-opacity:1;" d="M 123.605469 276.714844 L 138.941406 266.949219 L 147.089844 238.636719 L 112.734375 230.421875 L 16.25 278.082031 Z M 123.605469 276.714844 "/>
<path style=" stroke:none;fill-rule:nonzero;fill:rgb(74.867924%,72.957547%,0%);fill-opacity:1;" d="M 270.152344 206.339844 L 267.972656 218.621094 L 271.46875 227.070312 L 285.171875 222.195312 Z M 270.152344 206.339844 "/>
<path style=" stroke:none;fill-rule:nonzero;fill:rgb(89.426692%,33.664662%,24.705513%);fill-opacity:1;" d="M 325.589844 116.089844 L 339.277344 125.894531 L 368.703125 125.910156 L 370.21875 123.347656 L 334.558594 79.453125 L 325.589844 115.800781 Z M 325.589844 116.089844 "/>
<path style=" stroke:none;fill-rule:nonzero;fill:rgb(36.62671%,54.273974%,85%);fill-opacity:1;" d="M 460.230469 125.570312 L 479.152344 112.96875 L 482.957031 84.945312 L 464.632812 103.835938 Z M 460.230469 125.570312 "/>
<path style=" stroke:none;fill-rule:nonzero;fill:rgb(96.591786%,58.708932%,9.202177%);fill-opacity:1;" d="M 418.078125 171.667969 L 450.863281 180.359375 L 452.371094 176.550781 L 429.417969 167.472656 L 418.136719 171.359375 Z M 418.078125 171.667969 "/>
<path style=" stroke:none;fill-rule:nonzero;fill:rgb(71.881401%,35.8%,53.067076%);fill-opacity:1;" d="M 273.183594 186.257812 L 270.238281 193.246094 L 270.816406 201.226562 L 289.691406 221.144531 L 312.28125 223.804688 L 298.125 194.671875 L 282 186.003906 L 280.226562 185.617188 Z M 273.183594 186.257812 "/>
<path style=" stroke:none;fill-rule:nonzero;fill:rgb(35.62857%,71.5%,33.245457%);fill-opacity:1;" d="M 215.09375 193.484375 L 205.882812 209.832031 L 217.105469 205.96875 Z M 215.09375 193.484375 "/>
<path style=" stroke:none;fill-rule:nonzero;fill:rgb(85.21776%,42.67336%,5.5444%);fill-opacity:1;" d="M 158.085938 208.039062 L 162.152344 190.101562 L 139.957031 187.636719 L 133.9375 192.34375 L 133.910156 192.480469 Z M 158.085938 208.039062 "/>
<path style=" stroke:none;fill-rule:nonzero;fill:rgb(55.787823%,42.777306%,85%);fill-opacity:1;" d="M 395.726562 186.847656 L 383.625 196.570312 L 407.675781 216.6875 L 415.988281 210.023438 L 415.230469 191.90625 L 411.0625 183.890625 Z M 395.726562 186.847656 "/>
<path style=" stroke:none;fill-rule:nonzero;fill:rgb(96.183918%,75.325991%,0%);fill-opacity:1;" d="M 458.101562 144.230469 L 453.882812 152.714844 L 459.925781 168.898438 L 462.410156 168.960938 L 474.167969 165.742188 L 476.785156 164.199219 L 478.449219 152.792969 L 474.839844 147.886719 Z M 458.101562 144.230469 "/>
</g>
</svg>
