<?xml version="1.0" encoding="UTF-8"?>
<svg xmlns="http://www.w3.org/2000/svg" xmlns:xlink="http://www.w3.org/1999/xlink" width="200pt" height="200pt" viewBox="0 0 200 200" version="1.1">
<g id="id1">
<path style=" stroke:none;fill-rule:nonzero;fill:rgb(36.8417%,50.6779%,70.9798%);fill-opacity:1;" d="M 0 0 L 20 0 L 20 20 L 0 20 Z M 0 0 "/>
<path style=" stroke:none;fill-rule:nonzero;fill:rgb(36.8417%,50.6779%,70.9798%);fill-opacity:1;" d="M 0 20 L 20 20 L 20 40 L 0 40 Z M 0 20 "/>
<path style=" stroke:none;fill-rule:nonzero;fill:rgb(36.8417%,50.6779%,70.9798%);fill-opacity:1;" d="M 0 40 L 20 40 L 20 60 L 0 60 Z M 0 40 "/>
<path style=" stroke:none;fill-rule:nonzero;fill:rgb(36.8417%,50.6779%,70.9798%);fill-opacity:1;" d="M 0 60 L 20 60 L 20 80 L 0 80 Z M 0 60 "/>
<path style=" stroke:none;fill-rule:nonzero;fill:rgb(36.8417%,50.6779%,70.9798%);fill-opacity:1;" d="M 0 80 L 20 80 L 20 100 L 0 100 Z M 0 80 "/>
<path style=" stroke:none;fill-rule:nonzero;fill:rgb(36.8417%,50.6779%,70.9798%);fill-opacity:1;" d="M 0 100 L 20 100 L 20 120 L 0 120 Z M 0 100 "/>
<path style=" stroke:none;fill-rule:nonzero;fill:rgb(36.8417%,50.6779%,70.9798%);fill-opacity:1;" d="M 0 120 L 20 120 L 20 140 L 0 140 Z M 0 120 "/>
<path style=" stroke:none;fill-rule:nonzero;fill:rgb(36.8417%,50.6779%,70.9798%);fill-opacity:1;" d="M 0 140 L 20 140 L 20 160 L 0 160 Z M 0 140 "/>
<path style=" stroke:none;fill-rule:nonzero;fill:rgb(36.8417%,50.6779%,70.9798%);fill-opacity:1;" d="M 0 160 L 20 160 L 20 180 L 0 180 Z M 0 160 "/>
<path style=" stroke:none;fill-rule:nonzero;fill:rgb(36.8417%,50.6779%,70.9798%);fill-opacity:1;" d="M 0 180 L 20 180 L 20 200 L 0 200 Z M 0 180 "/>
<path style=" stroke:none;fill-rule:nonzero;fill:rgb(36.8417%,50.6779%,70.9798%);fill-opacity:1;" d="M 20 0 L 40 0 L 40 20 L 20 20 Z M 20 0 "/>
<path style=" stroke:none;fill-rule:nonzero;fill:rgb(87.739622%,61.010927%,16.118837%);fill-opacity:1;" d="M 20 20 L 40 20 L 40 40 L 20 40 Z M 20 20 "/>
<path style=" stroke:none;fill-rule:nonzero;fill:rgb(87.739622%,61.010927%,16.118837%);fill-opacity:1;" d="M 20 40 L 40 40 L 40 60 L 20 60 Z M 20 40 "/>
<path style=" stroke:none;fill-rule:nonzero;fill:rgb(87.739622%,61.010927%,16.118837%);fill-opacity:1;" d="M 20 60 L 40 60 L 40 80 L 20 80 Z M 20 60 "/>
<path style=" stroke:none;fill-rule:nonzero;fill:rgb(87.739622%,61.010927%,16.118837%);fill-opacity:1;" d="M 20 80 L 40 80 L 40 100 L 20 100 Z M 20 80 "/>
<path style=" stroke:none;fill-rule:nonzero;fill:rgb(87.739622%,61.010927%,16.118837%);fill-opacity:1;" d="M 20 100 L 40 100 L 40 120 L 20 120 Z M 20 100 "/>
<path style=" stroke:none;fill-rule:nonzero;fill:rgb(87.739622%,61.010927%,16.118837%);fill-opacity:1;" d="M 20 120 L 40 120 L 40 140 L 20 140 Z M 20 120 "/>
<path style=" stroke:none;fill-rule:nonzero;fill:rgb(87.739622%,61.010927%,16.118837%);fill-opacity:1;" d="M 20 140 L 40 140 L 40 160 L 20 160 Z M 20 140 "/>
<path style=" stroke:none;fill-rule:nonzero;fill:rgb(87.739622%,61.010927%,16.118837%);fill-opacity:1;" d="M 20 160 L 40 160 L 40 180 L 20 180 Z M 20 160 "/>
<path style=" stroke:none;fill-rule:nonzero;fill:rgb(36.8417%,50.6779%,70.9798%);fill-opacity:1;" d="M 20 180 L 40 180 L 40 200 L 20 200 Z M 20 180 "/>
<path style=" stroke:none;fill-rule:nonzero;fill:rgb(36.8417%,50.6779%,70.9798%);fill-opacity:1;" d="M 40 0 L 60 0 L 60 20 L 40 20 Z M 40 0 "/>
<path style=" stroke:none;fill-rule:nonzero;fill:rgb(87.739622%,61.010927%,16.118837%);fill-opacity:1;" d="M 40 20 L 60 20 L 60 40 L 40 40 Z M 40 20 "/>
<path style=" stroke:none;fill-rule:nonzero;fill:rgb(87.739622%,61.010927%,16.118837%);fill-opacity:1;" d="M 40 40 L 60 40 L 60 60 L 40 60 Z M 40 40 "/>
<path style=" stroke:none;fill-rule:nonzero;fill:rgb(87.739622%,61.010927%,16.118837%);fill-opacity:1;" d="M 40 60 L 60 60 L 60 80 L 40 80 Z M 40 60 "/>
<path style=" stroke:none;fill-rule:nonzero;fill:rgb(87.739622%,61.010927%,16.118837%);fill-opacity:1;" d="M 40 80 L 60 80 L 60 100 L 40 100 Z M 40 80 "/>
<path style=" stroke:none;fill-rule:nonzero;fill:rgb(36.8417%,50.6779%,70.9798%);fill-opacity:1;" d="M 40 100 L 60 100 L 60 120 L 40 120 Z M 40 100 "/>
<path style=" stroke:none;fill-rule:nonzero;fill:rgb(36.8417%,50.6779%,70.9798%);fill-opacity:1;" d="M 40 120 L 60 120 L 60 140 L 40 140 Z M 40 120 "/>
<path style=" stroke:none;fill-rule:nonzero;fill:rgb(36.8417%,50.6779%,70.9798%);fill-opacity:1;" d="M 40 140 L 60 140 L 60 160 L 40 160 Z M 40 140 "/>
<path style=" stroke:none;fill-rule:nonzero;fill:rgb(36.8417%,50.6779%,70.9798%);fill-opacity:1;" d="M 40 160 L 60 160 L 60 180 L 40 180 Z M 40 160 "/>
<path style=" stroke:none;fill-rule:nonzero;fill:rgb(36.8417%,50.6779%,70.9798%);fill-opacity:1;" d="M 40 180 L 60 180 L 60 200 L 40 200 Z M 40 180 "/>
<path style=" stroke:none;fill-rule:nonzero;fill:rgb(36.8417%,50.6779%,70.9798%);fill-opacity:1;" d="M 60 0 L 80 0 L 80 20 L 60 20 Z M 60 0 "/>
<path style=" stroke:none;fill-rule:nonzero;fill:rgb(87.739622%,61.010927%,16.118837%);fill-opacity:1;" d="M 60 20 L 80 20 L 80 40 L 60 40 Z M 60 20 "/>
<path style=" stroke:none;fill-rule:nonzero;fill:rgb(36.8417%,50.6779%,70.9798%);fill-opacity:1;" d="M 60 40 L 80 40 L 80 60 L 60 60 Z M 60 40 "/>
<path style=" stroke:none;fill-rule:nonzero;fill:rgb(36.8417%,50.6779%,70.9798%);fill-opacity:1;" d="M 60 60 L 80 60 L 80 80 L 60 80 Z M 60 60 "/>
<path style=" stroke:none;fill-rule:nonzero;fill:rgb(36.8417%,50.6779%,70.9798%);fill-opacity:1;" d="M 60 80 L 80 80 L 80 100 L 60 100 Z M 60 80 "/>
<path style=" stroke:none;fill-rule:nonzero;fill:rgb(36.8417%,50.6779%,70.9798%);fill-opacity:1;" d="M 60 100 L 80 100 L 80 120 L 60 120 Z M 60 100 "/>
<path style=" stroke:none;fill-rule:nonzero;fill:rgb(87.739622%,61.010927%,16.118837%);fill-opacity:1;" d="M 60 120 L 80 120 L 80 140 L 60 140 Z M 60 120 "/>
<path style=" stroke:none;fill-rule:nonzero;fill:rgb(87.739622%,61.010927%,16.118837%);fill-opacity:1;" d="M 60 140 L 80 140 L 80 160 L 60 160 Z M 60 140 "/>
<path style=" stroke:none;fill-rule:nonzero;fill:rgb(87.739622%,61.010927%,16.118837%);fill-opacity:1;" d="M 60 160 L 80 160 L 80 180 L 60 180 Z M 60 160 "/>
<path style=" stroke:none;fill-rule:nonzero;fill:rgb(36.8417%,50.6779%,70.9798%);fill-opacity:1;" d="M 60 180 L 80 180 L 80 200 L 60 200 Z M 60 180 "/>
<path style=" stroke:none;fill-rule:nonzero;fill:rgb(36.8417%,50.6779%,70.9798%);fill-opacity:1;" d="M 80 0 L 100 0 L 100 20 L 80 20 Z M 80 0 "/>
<path style=" stroke:none;fill-rule:nonzero;fill:rgb(87.739622%,61.010927%,16.118837%);fill-opacity:1;" d="M 80 20 L 100 20 L 100 40 L 80 40 Z M 80 20 "/>
<path style=" stroke:none;fill-rule:nonzero;fill:rgb(87.739622%,61.010927%,16.118837%);fill-opacity:1;" d="M 80 40 L 100 40 L 100 60 L 80 60 Z M 80 40 "/>
<path style=" stroke:none;fill-rule:nonzero;fill:rgb(87.739622%,61.010927%,16.118837%);fill-opacity:1;" d="M 80 60 L 100 60 L 100 80 L 80 80 Z M 80 60 "/>
<path style=" stroke:none;fill-rule:nonzero;fill:rgb(87.739622%,61.010927%,16.118837%);fill-opacity:1;" d="M 80 80 L 100 80 L 100 100 L 80 100 Z M 80 80 "/>
<path style=" stroke:none;fill-rule:nonzero;fill:rgb(36.8417%,50.6779%,70.9798%);fill-opacity:1;" d="M 80 100 L 100 100 L 100 120 L 80 120 Z M 80 100 "/>
<path style=" stroke:none;fill-rule:nonzero;fill:rgb(87.739622%,61.010927%,16.118837%);fill-opacity:1;" d="M 80 120 L 100 120 L 100 140 L 80 140 Z M 80 120 "/>
<path style=" stroke:none;fill-rule:nonzero;fill:rgb(36.8417%,50.6779%,70.9798%);fill-opacity:1;" d="M 80 140 L 100 140 L 100 160 L 80 160 Z M 80 140 "/>
<path style=" stroke:none;fill-rule:nonzero;fill:rgb(87.739622%,61.010927%,16.118837%);fill-opacity:1;" d="M 80 160 L 100 160 L 100 180 L 80 180 Z M 80 160 "/>
<path style=" stroke:none;fill-rule:nonzero;fill:rgb(36.8417%,50.6779%,70.9798%);fill-opacity:1;" d="M 80 180 L 100 180 L 100 200 L 80 200 Z M 80 180 "/>
<path style=" stroke:none;fill-rule:nonzero;fill:rgb(36.8417%,50.6779%,70.9798%);fill-opacity:1;" d="M 100 0 L 120 0 L 120 20 L 100 20 Z M 100 0 "/>
<path style=" stroke:none;fill-rule:nonzero;fill:rgb(36.8417%,50.6779%,70.9798%);fill-opacity:1;" d="M 100 20 L 120 20 L 120 40 L 100 40 Z M 100 20 "/>
<path style=" stroke:none;fill-rule:nonzero;fill:rgb(36.8417%,50.6779%,70.9798%);fill-opacity:1;" d="M 100 40 L 120 40 L 120 60 L 100 60 Z M 100 40 "/>
<path style=" stroke:none;fill-rule:nonzero;fill:rgb(36.8417%,50.6779%,70.9798%);fill-opacity:1;" d="M 100 60 L 120 60 L 120 80 L 100 80 Z M 100 60 "/>
<path style=" stroke:none;fill-rule:nonzero;fill:rgb(87.739622%,61.010927%,16.118837%);fill-opacity:1;" d="M 100 80 L 120 80 L 120 100 L 100 100 Z M 100 80 "/>
<path style=" stroke:none;fill-rule:nonzero;fill:rgb(36.8417%,50.6779%,70.9798%);fill-opacity:1;" d="M 100 100 L 120 100 L 120 120 L 100 120 Z M 100 100 "/>
<path style=" stroke:none;fill-rule:nonzero;fill:rgb(87.739622%,61.010927%,16.118837%);fill-opacity:1;" d="M 100 120 L 120 120 L 120 140 L 100 140 Z M 100 120 "/>
<path style=" stroke:none;fill-rule:nonzero;fill:rgb(36.8417%,50.6779%,70.9798%);fill-opacity:1;" d="M 100 140 L 120 140 L 120 160 L 100 160 Z M 100 140 "/>
<path style=" stroke:none;fill-rule:nonzero;fill:rgb(87.739622%,61.010927%,16.118837%);fill-opacity:1;" d="M 100 160 L 120 160 L 120 180 L 100 180 Z M 100 160 "/>
<path style=" stroke:none;fill-rule:nonzero;fill:rgb(36.8417%,50.6779%,70.9798%);fill-opacity:1;" d="M 100 180 L 120 180 L 120 200 L 100 200 Z M 100 180 "/>
<path style=" stroke:none;fill-rule:nonzero;fill:rgb(36.8417%,50.6779%,70.9798%);fill-opacity:1;" d="M 120 0 L 140 0 L 140 20 L 120 20 Z M 120 0 "/>
<path style=" stroke:none;fill-rule:nonzero;fill:rgb(87.739622%,61.010927%,16.118837%);fill-opacity:1;" d="M 120 20 L 140 20 L 140 40 L 120 40 Z M 120 20 "/>
<path style=" stroke:none;fill-rule:nonzero;fill:rgb(87.739622%,61.010927%,16.118837%);fill-opacity:1;" d="M 120 40 L 140 40 L 140 60 L 120 60 Z M 120 40 "/>
<path style=" stroke:none;fill-rule:nonzero;fill:rgb(87.739622%,61.010927%,16.118837%);fill-opacity:1;" d="M 120 60 L 140 60 L 140 80 L 120 80 Z M 120 60 "/>
<path style=" stroke:none;fill-rule:nonzero;fill:rgb(87.739622%,61.010927%,16.118837%);fill-opacity:1;" d="M 120 80 L 140 80 L 140 100 L 120 100 Z M 120 80 "/>
<path style=" stroke:none;fill-rule:nonzero;fill:rgb(36.8417%,50.6779%,70.9798%);fill-opacity:1;" d="M 120 100 L 140 100 L 140 120 L 120 120 Z M 120 100 "/>
<path style=" stroke:none;fill-rule:nonzero;fill:rgb(87.739622%,61.010927%,16.118837%);fill-opacity:1;" d="M 120 120 L 140 120 L 140 140 L 120 140 Z M 120 120 "/>
<path style=" stroke:none;fill-rule:nonzero;fill:rgb(36.8417%,50.6779%,70.9798%);fill-opacity:1;" d="M 120 140 L 140 140 L 140 160 L 120 160 Z M 120 140 "/>
<path style=" stroke:none;fill-rule:nonzero;fill:rgb(87.739622%,61.010927%,16.118837%);fill-opacity:1;" d="M 120 160 L 140 160 L 140 180 L 120 180 Z M 120 160 "/>
<path style=" stroke:none;fill-rule:nonzero;fill:rgb(36.8417%,50.6779%,70.9798%);fill-opacity:1;" d="M 120 180 L 140 180 L 140 200 L 120 200 Z M 120 180 "/>
<path style=" stroke:none;fill-rule:nonzero;fill:rgb(36.8417%,50.6779%,70.9798%);fill-opacity:1;" d="M 140 0 L 160 0 L 160 20 L 140 20 Z M 140 0 "/>
<path style=" stroke:none;fill-rule:nonzero;fill:rgb(87.739622%,61.010927%,16.118837%);fill-opacity:1;" d="M 140 20 L 160 20 L 160 40 L 140 40 Z M 140 20 "/>
<path style=" stroke:none;fill-rule:nonzero;fill:rgb(36.8417%,50.6779%,70.9798%);fill-opacity:1;" d="M 140 40 L 160 40 L 160 60 L 140 60 Z M 140 40 "/>
<path style=" stroke:none;fill-rule:nonzero;fill:rgb(36.8417%,50.6779%,70.9798%);fill-opacity:1;" d="M 140 60 L 160 60 L 160 80 L 140 80 Z M 140 60 "/>
<path style=" stroke:none;fill-rule:nonzero;fill:rgb(36.8417%,50.6779%,70.9798%);fill-opacity:1;" d="M 140 80 L 160 80 L 160 100 L 140 100 Z M 140 80 "/>
<path style=" stroke:none;fill-rule:nonzero;fill:rgb(36.8417%,50.6779%,70.9798%);fill-opacity:1;" d="M 140 100 L 160 100 L 160 120 L 140 120 Z M 140 100 "/>
<path style=" stroke:none;fill-rule:nonzero;fill:rgb(87.739622%,61.010927%,16.118837%);fill-opacity:1;" d="M 140 120 L 160 120 L 160 140 L 140 140 Z M 140 120 "/>
<path style=" stroke:none;fill-rule:nonzero;fill:rgb(36.8417%,50.6779%,70.9798%);fill-opacity:1;" d="M 140 140 L 160 140 L 160 160 L 140 160 Z M 140 140 "/>
<path style=" stroke:none;fill-rule:nonzero;fill:rgb(87.739622%,61.010927%,16.118837%);fill-opacity:1;" d="M 140 160 L 160 160 L 160 180 L 140 180 Z M 140 160 "/>
<path style=" stroke:none;fill-rule:nonzero;fill:rgb(36.8417%,50.6779%,70.9798%);fill-opacity:1;" d="M 140 180 L 160 180 L 160 200 L 140 200 Z M 140 180 "/>
<path style=" stroke:none;fill-rule:nonzero;fill:rgb(36.8417%,50.6779%,70.9798%);fill-opacity:1;" d="M 160 0 L 180 0 L 180 20 L 160 20 Z M 160 0 "/>
<path style=" stroke:none;fill-rule:nonzero;fill:rgb(87.739622%,61.010927%,16.118837%);fill-opacity:1;" d="M 160 20 L 180 20 L 180 40 L 160 40 Z M 160 20 "/>
<path style=" stroke:none;fill-rule:nonzero;fill:rgb(87.739622%,61.010927%,16.118837%);fill-opacity:1;" d="M 160 40 L 180 40 L 180 60 L 160 60 Z M 160 40 "/>
<path style=" stroke:none;fill-rule:nonzero;fill:rgb(87.739622%,61.010927%,16.118837%);fill-opacity:1;" d="M 160 60 L 180 60 L 180 80 L 160 80 Z M 160 60 "/>
<path style=" stroke:none;fill-rule:nonzero;fill:rgb(87.739622%,61.010927%,16.118837%);fill-opacity:1;" d="M 160 80 L 180 80 L 180 100 L 160 100 Z M 160 80 "/>
<path style=" stroke:none;fill-rule:nonzero;fill:rgb(87.739622%,61.010927%,16.118837%);fill-opacity:1;" d="M 160 100 L 180 100 L 180 120 L 160 120 Z M 160 100 "/>
<path style=" stroke:none;fill-rule:nonzero;fill:rgb(87.739622%,61.010927%,16.118837%);fill-opacity:1;" d="M 160 120 L 180 120 L 180 140 L 160 140 Z M 160 120 "/>
<path style=" stroke:none;fill-rule:nonzero;fill:rgb(36.8417%,50.6779%,70.9798%);fill-opacity:1;" d="M 160 140 L 180 140 L 180 160 L 160 160 Z M 160 140 "/>
<path style=" stroke:none;fill-rule:nonzero;fill:rgb(87.739622%,61.010927%,16.118837%);fill-opacity:1;" d="M 160 160 L 180 160 L 180 180 L 160 180 Z M 160 160 "/>
<path style=" stroke:none;fill-rule:nonzero;fill:rgb(36.8417%,50.6779%,70.9798%);fill-opacity:1;" d="M 160 180 L 180 180 L 180 200 L 160 200 Z M 160 180 "/>
<path style=" stroke:none;fill-rule:nonzero;fill:rgb(36.8417%,50.6779%,70.9798%);fill-opacity:1;" d="M 180 0 L 200 0 L 200 20 L 180 20 Z M 180 0 "/>
<path style=" stroke:none;fill-rule:nonzero;fill:rgb(36.8417%,50.6779%,70.9798%);fill-opacity:1;" d="M 180 20 L 200 20 L 200 40 L 180 40 Z M 180 20 "/>
<path style=" stroke:none;fill-rule:nonzero;fill:rgb(36.8417%,50.6779%,70.9798%);fill-opacity:1;" d="M 180 40 L 200 40 L 200 60 L 180 60 Z M 180 40 "/>
<path style=" stroke:none;fill-rule:nonzero;fill:rgb(36.8417%,50.6779%,70.9798%);fill-opacity:1;" d="M 180 60 L 200 60 L 200 80 L 180 80 Z M 180 60 "/>
<path style=" stroke:none;fill-rule:nonzero;fill:rgb(36.8417%,50.6779%,70.9798%);fill-opacity:1;" d="M 180 80 L 200 80 L 200 100 L 180 100 Z M 180 80 "/>
<path style=" stroke:none;fill-rule:nonzero;fill:rgb(36.8417%,50.6779%,70.9798%);fill-opacity:1;" d="M 180 100 L 200 100 L 200 120 L 180 120 Z M 180 100 "/>
<path style=" stroke:none;fill-rule:nonzero;fill:rgb(36.8417%,50.6779%,70.9798%);fill-opacity:1;" d="M 180 120 L 200 120 L 200 140 L 180 140 Z M 180 120 "/>
<path style=" stroke:none;fill-rule:nonzero;fill:rgb(36.8417%,50.6779%,70.9798%);fill-opacity:1;" d="M 180 140 L 200 140 L 200 160 L 180 160 Z M 180 140 "/>
<path style=" stroke:none;fill-rule:nonzero;fill:rgb(36.8417%,50.6779%,70.9798%);fill-opacity:1;" d="M 180 160 L 200 160 L 200 180 L 180 180 Z M 180 160 "/>
<path style=" stroke:none;fill-rule:nonzero;fill:rgb(36.8417%,50.6779%,70.9798%);fill-opacity:1;" d="M 180 180 L 200 180 L 200 200 L 180 200 Z M 180 180 "/>
<path style="fill:none;stroke-width:5;stroke-linecap:butt;stroke-linejoin:miter;stroke:rgb(92.2526%,38.5626%,20.9179%);stroke-opacity:1;stroke-miterlimit:10;" d="M 30 170 C 30.027344 161.675781 30.054688 153.347656 30 145 C 29.945312 136.652344 29.8125 128.277344 30 120 C 30.1875 111.722656 30.699219 103.542969 30 95 C 29.300781 86.457031 27.386719 77.554688 30 70 C 32.613281 62.445312 39.757812 56.242188 45 50 C 50.242188 43.757812 53.585938 37.46875 60 35 C 66.414062 32.53125 75.894531 33.875 80 40 C 84.105469 46.125 82.835938 57.035156 85 65 C 87.164062 72.964844 92.765625 77.992188 100 80 C 107.234375 82.007812 116.105469 81 120 75 C 123.894531 69 122.808594 58.015625 125 50 C 127.191406 41.984375 132.660156 36.941406 140 35 C 147.339844 33.058594 156.550781 34.21875 160 40 C 163.449219 45.78125 161.132812 56.1875 160 65 C 158.867188 73.8125 158.917969 81.03125 160 90 C 161.082031 98.96875 163.195312 109.691406 160 115 C 156.804688 120.308594 148.304688 120.210938 140 120 C 131.695312 119.789062 123.59375 119.46875 115 120 C 106.40625 120.53125 97.320312 121.914062 90 125 C 82.679688 128.085938 77.121094 132.878906 75 140 C 72.878906 147.121094 74.195312 156.578125 80 160 C 85.804688 163.421875 96.089844 160.8125 105 160 C 113.910156 159.1875 121.4375 160.164062 130 160 C 138.5625 159.835938 148.160156 158.523438 155 160 C 161.839844 161.476562 165.917969 165.738281 170 170 "/>
</g>
</svg>
