<?xml version="1.0" encoding="UTF-8"?>
<svg xmlns="http://www.w3.org/2000/svg" xmlns:xlink="http://www.w3.org/1999/xlink" width="200pt" height="200pt" viewBox="0 0 200 200" version="1.1">
<g id="id1">
<path style=" stroke:none;fill-rule:nonzero;fill:rgb(36.8417%,50.6779%,70.9798%);fill-opacity:1;" d="M 0 0 L 20 0 L 20 20 L 0 20 Z M 0 0 "/>
<path style=" stroke:none;fill-rule:nonzero;fill:rgb(36.8417%,50.6779%,70.9798%);fill-opacity:1;" d="M 0 20 L 20 20 L 20 40 L 0 40 Z M 0 20 "/>
<path style=" stroke:none;fill-rule:nonzero;fill:rgb(36.8417%,50.6779%,70.9798%);fill-opacity:1;" d="M 0 40 L 20 40 L 20 60 L 0 60 Z M 0 40 "/>
<path style=" stroke:none;fill-rule:nonzero;fill:rgb(36.8417%,50.6779%,70.9798%);fill-opacity:1;" d="M 0 60 L 20 60 L 20 80 L 0 80 Z M 0 60 "/>
<path style=" stroke:none;fill-rule:nonzero;fill:rgb(36.8417%,50.6779%,70.9798%);fill-opacity:1;" d="M 0 80 L 20 80 L 20 100 L 0 100 Z M 0 80 "/>
<path style=" stroke:none;fill-rule:nonzero;fill:rgb(36.8417%,50.6779%,70.9798%);fill-opacity:1;" d="M 0 100 L 20 100 L 20 120 L 0 120 Z M 0 100 "/>
<path style=" stroke:none;fill-rule:nonzero;fill:rgb(36.8417%,50.6779%,70.9798%);fill-opacity:1;" d="M 0 120 L 20 120 L 20 140 L 0 140 Z M 0 120 "/>
<path style=" stroke:none;fill-rule:nonzero;fill:rgb(36.8417%,50.6779%,70.9798%);fill-opacity:1;" d="M 0 140 L 20 140 L 20 160 L 0 160 Z M 0 140 "/>
<path style=" stroke:none;fill-rule:nonzero;fill:rgb(36.8417%,50.6779%,70.9798%);fill-opacity:1;" d="M 0 160 L 20 160 L 20 180 L 0 180 Z M 0 160 "/>
<path style=" stroke:none;fill-rule:nonzero;fill:rgb(36.8417%,50.6779%,70.9798%);fill-opacity:1;" d="M 0 180 L 20 180 L 20 200 L 0 200 Z M 0 180 "/>
<path style=" stroke:none;fill-rule:nonzero;fill:rgb(36.8417%,50.6779%,70.9798%);fill-opacity:1;" d="M 20 0 L 40 0 L 40 20 L 20 20 Z M 20 0 "/>
<path style=" stroke:none;fill-rule:nonzero;fill:rgb(87.739622%,61.010927%,16.118837%);fill-opacity:1;" d="M 20 20 L 40 20 L 40 40 L 20 40 Z M 20 20 "/>
<path style=" stroke:none;fill-rule:nonzero;fill:rgb(87.739622%,61.010927%,16.118837%);fill-opacity:1;" d="M 20 40 L 40 40 L 40 60 L 20 60 Z M 20 40 "/>
<path style=" stroke:none;fill-rule:nonzero;fill:rgb(87.739622%,61.010927%,16.118837%);fill-opacity:1;" d="M 20 60 L 40 60 L 40 80 L 20 80 Z M 20 60 "/>
<path style=" stroke:none;fill-rule:nonzero;fill:rgb(87.739622%,61.010927%,16.118837%);fill-opacity:1;" d="M 20 80 L 40 80 L 40 100 L 20 100 Z M 20 80 "/>
<path style=" stroke:none;fill-rule:nonzero;fill:rgb(87.739622%,61.010927%,16.118837%);fill-opacity:1;" d="M 20 100 L 40 100 L 40 120 L 20 120 Z M 20 100 "/>
<path style=" stroke:none;fill-rule:nonzero;fill:rgb(87.739622%,61.010927%,16.118837%);fill-opacity:1;" d="M 20 120 L 40 120 L 40 140 L 20 140 Z M 20 120 "/>
<path style=" stroke:none;fill-rule:nonzero;fill:rgb(87.739622%,61.010927%,16.118837%);fill-opacity:1;" d="M 20 140 L 40 140 L 40 160 L 20 160 Z M 20 140 "/>
<path style=" stroke:none;fill-rule:nonzero;fill:rgb(87.739622%,61.010927%,16.118837%);fill-opacity:1;" d="M 20 160 L 40 160 L 40 180 L 20 180 Z M 20 160 "/>
<path style=" stroke:none;fill-rule:nonzero;fill:rgb(36.8417%,50.6779%,70.9798%);fill-opacity:1;" d="M 20 180 L 40 180 L 40 200 L 20 200 Z M 20 180 "/>
<path style=" stroke:none;fill-rule:nonzero;fill:rgb(36.8417%,50.6779%,70.9798%);fill-opacity:1;" d="M 40 0 L 60 0 L 60 20 L 40 20 Z M 40 0 "/>
<path style=" stroke:none;fill-rule:nonzero;fill:rgb(87.739622%,61.010927%,16.118837%);fill-opacity:1;" d="M 40 20 L 60 20 L 60 40 L 40 40 Z M 40 20 "/>
<path style=" stroke:none;fill-rule:nonzero;fill:rgb(87.739622%,61.010927%,16.118837%);fill-opacity:1;" d="M 40 40 L 60 40 L 60 60 L 40 60 Z M 40 40 "/>
<path style=" stroke:none;fill-rule:nonzero;fill:rgb(87.739622%,61.010927%,16.118837%);fill-opacity:1;" d="M 40 60 L 60 60 L 60 80 L 40 80 Z M 40 60 "/>
<path style=" stroke:none;fill-rule:nonzero;fill:rgb(87.739622%,61.010927%,16.118837%);fill-opacity:1;" d="M 40 80 L 60 80 L 60 100 L 40 100 Z M 40 80 "/>
<path style=" stroke:none;fill-rule:nonzero;fill:rgb(36.8417%,50.6779%,70.9798%);fill-opacity:1;" d="M 40 100 L 60 100 L 60 120 L 40 120 Z M 40 100 "/>
<path style=" stroke:none;fill-rule:nonzero;fill:rgb(36.8417%,50.6779%,70.9798%);fill-opacity:1;" d="M 40 120 L 60 120 L 60 140 L 40 140 Z M 40 120 "/>
<path style=" stroke:none;fill-rule:nonzero;fill:rgb(36.8417%,50.6779%,70.9798%);fill-opacity:1;" d="M 40 140 L 60 140 L 60 160 L 40 160 Z M 40 140 "/>
<path style=" stroke:none;fill-rule:nonzero;fill:rgb(36.8417%,50.6779%,70.9798%);fill-opacity:1;" d="M 40 160 L 60 160 L 60 180 L 40 180 Z M 40 160 "/>
<path style=" stroke:none;fill-rule:nonzero;fill:rgb(36.8417%,50.6779%,70.9798%);fill-opacity:1;" d="M 40 180 L 60 180 L 60 200 L 40 200 Z M 40 180 "/>
<path style=" stroke:none;fill-rule:nonzero;fill:rgb(36.8417%,50.6779%,70.9798%);fill-opacity:1;" d="M 60 0 L 80 0 L 80 20 L 60 20 Z M 60 0 "/>
<path style=" stroke:none;fill-rule:nonzero;fill:rgb(87.739622%,61.010927%,16.118837%);fill-opacity:1;" d="M 60 20 L 80 20 L 80 40 L 60 40 Z M 60 20 "/>
<path style=" stroke:none;fill-rule:nonzero;fill:rgb(36.8417%,50.6779%,70.9798%);fill-opacity:1;" d="M 60 40 L 80 40 L 80 60 L 60 60 Z M 60 40 "/>
<path style=" stroke:none;fill-rule:nonzero;fill:rgb(36.8417%,50.6779%,70.9798%);fill-opacity:1;" d="M 60 60 L 80 60 L 80 80 L 60 80 Z M 60 60 "/>
<path style=" stroke:none;fill-rule:nonzero;fill:rgb(36.8417%,50.6779%,70.9798%);fill-opacity:1;" d="M 60 80 L 80 80 L 80 100 L 60 100 Z M 60 80 "/>
<path style=" stroke:none;fill-rule:nonzero;fill:rgb(36.8417%,50.6779%,70.9798%);fill-opacity:1;" d="M 60 100 L 80 100 L 80 120 L 60 120 Z M 60 100 "/>
<path style=" stroke:none;fill-rule:nonzero;fill:rgb(87.739622%,61.010927%,16.118837%);fill-opacity:1;" d="M 60 120 L 80 120 L 80 140 L 60 140 Z M 60 120 "/>
<path style=" stroke:none;fill-rule:nonzero;fill:rgb(87.739622%,61.010927%,16.118837%);fill-opacity:1;" d="M 60 140 L 80 140 L 80 160 L 60 160 Z M 60 140 "/>
<path style=" stroke:none;fill-rule:nonzero;fill:rgb(87.739622%,61.010927%,16.118837%);fill-opacity:1;" d="M 60 160 L 80 160 L 80 180 L 60 180 Z M 60 160 "/>
<path style=" stroke:none;fill-rule:nonzero;fill:rgb(36.8417%,50.6779%,70.9798%);fill-opacity:1;" d="M 60 180 L 80 180 L 80 200 L 60 200 Z M 60 180 "/>
<path style=" stroke:none;fill-rule:nonzero;fill:rgb(36.8417%,50.6779%,70.9798%);fill-opacity:1;" d="M 80 0 L 100 0 L 100 20 L 80 20 Z M 80 0 "/>
<path style=" stroke:none;fill-rule:nonzero;fill:rgb(87.739622%,61.010927%,16.118837%);fill-opacity:1;" d="M 80 20 L 100 20 L 100 40 L 80 40 Z M 80 20 "/>
<path style=" stroke:none;fill-rule:nonzero;fill:rgb(87.739622%,61.010927%,16.118837%);fill-opacity:1;" d="M 80 40 L 100 40 L 100 60 L 80 60 Z M 80 40 "/>
<path style=" stroke:none;fill-rule:nonzero;fill:rgb(87.739622%,61.010927%,16.118837%);fill-opacity:1;" d="M 80 60 L 100 60 L 100 80 L 80 80 Z M 80 60 "/>
<path style=" stroke:none;fill-rule:nonzero;fill:rgb(87.739622%,61.010927%,16.118837%);fill-opacity:1;" d="M 80 80 L 100 80 L 100 100 L 80 100 Z M 80 80 "/>
<path style=" stroke:none;fill-rule:nonzero;fill:rgb(36.8417%,50.6779%,70.9798%);fill-opacity:1;" d="M 80 100 L 100 100 L 100 120 L 80 120 Z M 80 100 "/>
<path style=" stroke:none;fill-rule:nonzero;fill:rgb(87.739622%,61.010927%,16.118837%);fill-opacity:1;" d="M 80 120 L 100 120 L 100 140 L 80 140 Z M 80 120 "/>
<path style=" stroke:none;fill-rule:nonzero;fill:rgb(36.8417%,50.6779%,70.9798%);fill-opacity:1;" d="M 80 140 L 100 140 L 100 160 L 80 160 Z M 80 140 "/>
<path style=" stroke:none;fill-rule:nonzero;fill:rgb(87.739622%,61.010927%,16.118837%);fill-opacity:1;" d="M 80 160 L 100 160 L 100 180 L 80 180 Z M 80 160 "/>
<path style=" stroke:none;fill-rule:nonzero;fill:rgb(36.8417%,50.6779%,70.9798%);fill-opacity:1;" d="M 80 180 L 100 180 L 100 200 L 80 200 Z M 80 180 "/>
<path style=" stroke:none;fill-rule:nonzero;fill:rgb(36.8417%,50.6779%,70.9798%);fill-opacity:1;" d="M 100 0 L 120 0 L 120 20 L 100 20 Z M 100 0 "/>
<path style=" stroke:none;fill-rule:nonzero;fill:rgb(36.8417%,50.6779%,70.9798%);fill-opacity:1;" d="M 100 20 L 120 20 L 120 40 L 100 40 Z M 100 20 "/>
<path style=" stroke:none;fill-rule:nonzero;fill:rgb(36.8417%,50.6779%,70.9798%);fill-opacity:1;" d="M 100 40 L 120 40 L 120 60 L 100 60 Z M 100 40 "/>
<path style=" stroke:none;fill-rule:nonzero;fill:rgb(36.8417%,50.6779%,70.9798%);fill-opacity:1;" d="M 100 60 L 120 60 L 120 80 L 100 80 Z M 100 60 "/>
<path style=" stroke:none;fill-rule:nonzero;fill:rgb(87.739622%,61.010927%,16.118837%);fill-opacity:1;" d="M 100 80 L 120 80 L 120 100 L 100 100 Z M 100 80 "/>
<path style=" stroke:none;fill-rule:nonzero;fill:rgb(36.8417%,50.6779%,70.9798%);fill-opacity:1;" d="M 100 100 L 120 100 L 120 120 L 100 120 Z M 100 100 "/>
<path style=" stroke:none;fill-rule:nonzero;fill:rgb(87.739622%,61.010927%,16.118837%);fill-opacity:1;" d="M 100 120 L 120 120 L 120 140 L 100 140 Z M 100 120 "/>
<path style=" stroke:none;fill-rule:nonzero;fill:rgb(36.8417%,50.6779%,70.9798%);fill-opacity:1;" d="M 100 140 L 120 140 L 120 160 L 100 160 Z M 100 140 "/>
<path style=" stroke:none;fill-rule:nonzero;fill:rgb(87.739622%,61.010927%,16.118837%);fill-opacity:1;" d="M 100 160 L 120 160 L 120 180 L 100 180 Z M 100 160 "/>
<path style=" stroke:none;fill-rule:nonzero;fill:rgb(36.8417%,50.6779%,70.9798%);fill-opacity:1;" d="M 100 180 L 120 180 L 120 200 L 100 200 Z M 100 180 "/>
<path style=" stroke:none;fill-rule:nonzero;fill:rgb(36.8417%,50.6779%,70.9798%);fill-opacity:1;" d="M 120 0 L 140 0 L 140 20 L 120 20 Z M 120 0 "/>
<path style=" stroke:none;fill-rule:nonzero;fill:rgb(87.739622%,61.010927%,16.118837%);fill-opacity:1;" d="M 120 20 L 140 20 L 140 40 L 120 40 Z M 120 20 "/>
<path style=" stroke:none;fill-rule:nonzero;fill:rgb(87.739622%,61.010927%,16.118837%);fill-opacity:1;" d="M 120 40 L 140 40 L 140 60 L 120 60 Z M 120 40 "/>
<path style=" stroke:none;fill-rule:nonzero;fill:rgb(87.739622%,61.010927%,16.118837%);fill-opacity:1;" d="M 120 60 L 140 60 L 140 80 L 120 80 Z M 120 60 "/>
<path style=" stroke:none;fill-rule:nonzero;fill:rgb(87.739622%,61.010927%,16.118837%);fill-opacity:1;" d="M 120 80 L 140 80 L 140 100 L 120 100 Z M 120 80 "/>
<path style=" stroke:none;fill-rule:nonzero;fill:rgb(36.8417%,50.6779%,70.9798%);fill-opacity:1;" d="M 120 100 L 140 100 L 140 120 L 120 120 Z M 120 100 "/>
<path style=" stroke:none;fill-rule:nonzero;fill:rgb(87.739622%,61.010927%,16.118837%);fill-opacity:1;" d="M 120 120 L 140 120 L 140 140 L 120 140 Z M 120 120 "/>
<path style=" stroke:none;fill-rule:nonzero;fill:rgb(36.8417%,50.6779%,70.9798%);fill-opacity:1;" d="M 120 140 L 140 140 L 140 160 L 120 160 Z M 120 140 "/>
<path style=" stroke:none;fill-rule:nonzero;fill:rgb(87.739622%,61.010927%,16.118837%);fill-opacity:1;" d="M 120 160 L 140 160 L 140 180 L 120 180 Z M 120 160 "/>
<path style=" stroke:none;fill-rule:nonzero;fill:rgb(36.8417%,50.6779%,70.9798%);fill-opacity:1;" d="M 120 180 L 140 180 L 140 200 L 120 200 Z M 120 180 "/>
<path style=" stroke:none;fill-rule:nonzero;fill:rgb(36.8417%,50.6779%,70.9798%);fill-opacity:1;" d="M 140 0 L 160 0 L 160 20 L 140 20 Z M 140 0 "/>
<path style=" stroke:none;fill-rule:nonzero;fill:rgb(87.739622%,61.010927%,16.118837%);fill-opacity:1;" d="M 140 20 L 160 20 L 160 40 L 140 40 Z M 140 20 "/>
<path style=" stroke:none;fill-rule:nonzero;fill:rgb(36.8417%,50.6779%,70.9798%);fill-opacity:1;" d="M 140 40 L 160 40 L 160 60 L 140 60 Z M 140 40 "/>
<path style=" stroke:none;fill-rule:nonzero;fill:rgb(36.8417%,50.6779%,70.9798%);fill-opacity:1;" d="M 140 60 L 160 60 L 160 80 L 140 80 Z M 140 60 "/>
<path style=" stroke:none;fill-rule:nonzero;fill:rgb(36.8417%,50.6779%,70.9798%);fill-opacity:1;" d="M 140 80 L 160 80 L 160 100 L 140 100 Z M 140 80 "/>
<path style=" stroke:none;fill-rule:nonzero;fill:rgb(36.8417%,50.6779%,70.9798%);fill-opacity:1;" d="M 140 100 L 160 100 L 160 120 L 140 120 Z M 140 100 "/>
<path style=" stroke:none;fill-rule:nonzero;fill:rgb(87.739622%,61.010927%,16.118837%);fill-opacity:1;" d="M 140 120 L 160 120 L 160 140 L 140 140 Z M 140 120 "/>
<path style=" stroke:none;fill-rule:nonzero;fill:rgb(36.8417%,50.6779%,70.9798%);fill-opacity:1;" d="M 140 140 L 160 140 L 160 160 L 140 160 Z M 140 140 "/>
<path style=" stroke:none;fill-rule:nonzero;fill:rgb(87.739622%,61.010927%,16.118837%);fill-opacity:1;" d="M 140 160 L 160 160 L 160 180 L 140 180 Z M 140 160 "/>
<path style=" stroke:none;fill-rule:nonzero;fill:rgb(36.8417%,50.6779%,70.9798%);fill-opacity:1;" d="M 140 180 L 160 180 L 160 200 L 140 200 Z M 140 180 "/>
<path style=" stroke:none;fill-rule:nonzero;fill:rgb(36.8417%,50.6779%,70.9798%);fill-opacity:1;" d="M 160 0 L 180 0 L 180 20 L 160 20 Z M 160 0 "/>
<path style=" stroke:none;fill-rule:nonzero;fill:rgb(87.739622%,61.010927%,16.118837%);fill-opacity:1;" d="M 160 20 L 180 20 L 180 40 L 160 40 Z M 160 20 "/>
<path style=" stroke:none;fill-rule:nonzero;fill:rgb(87.739622%,61.010927%,16.118837%);fill-opacity:1;" d="M 160 40 L 180 40 L 180 60 L 160 60 Z M 160 40 "/>
<path style=" stroke:none;fill-rule:nonzero;fill:rgb(87.739622%,61.010927%,16.118837%);fill-opacity:1;" d="M 160 60 L 180 60 L 180 80 L 160 80 Z M 160 60 "/>
<path style=" stroke:none;fill-rule:nonzero;fill:rgb(87.739622%,61.010927%,16.118837%);fill-opacity:1;" d="M 160 80 L 180 80 L 180 100 L 160 100 Z M 160 80 "/>
<path style=" stroke:none;fill-rule:nonzero;fill:rgb(87.739622%,61.010927%,16.118837%);fill-opacity:1;" d="M 160 100 L 180 100 L 180 120 L 160 120 Z M 160 100 "/>
<path style=" stroke:none;fill-rule:nonzero;fill:rgb(87.739622%,61.010927%,16.118837%);fill-opacity:1;" d="M 160 120 L 180 120 L 180 140 L 160 140 Z M 160 120 "/>
<path style=" stroke:none;fill-rule:nonzero;fill:rgb(36.8417%,50.6779%,70.9798%);fill-opacity:1;" d="M 160 140 L 180 140 L 180 160 L 160 160 Z M 160 140 "/>
<path style=" stroke:none;fill-rule:nonzero;fill:rgb(87.739622%,61.010927%,16.118837%);fill-opacity:1;" d="M 160 160 L 180 160 L 180 180 L 160 180 Z M 160 160 "/>
<path style=" stroke:none;fill-rule:nonzero;fill:rgb(36.8417%,50.6779%,70.9798%);fill-opacity:1;" d="M 160 180 L 180 180 L 180 200 L 160 200 Z M 160 180 "/>
<path style=" stroke:none;fill-rule:nonzero;fill:rgb(36.8417%,50.6779%,70.9798%);fill-opacity:1;" d="M 180 0 L 200 0 L 200 20 L 180 20 Z M 180 0 "/>
<path style=" stroke:none;fill-rule:nonzero;fill:rgb(36.8417%,50.6779%,70.9798%);fill-opacity:1;" d="M 180 20 L 200 20 L 200 40 L 180 40 Z M 180 20 "/>
<path style=" stroke:none;fill-rule:nonzero;fill:rgb(36.8417%,50.6779%,70.9798%);fill-opacity:1;" d="M 180 40 L 200 40 L 200 60 L 180 60 Z M 180 40 "/>
<path style=" stroke:none;fill-rule:nonzero;fill:rgb(36.8417%,50.6779%,70.9798%);fill-opacity:1;" d="M 180 60 L 200 60 L 200 80 L 180 80 Z M 180 60 "/>
<path style=" stroke:none;fill-rule:nonzero;fill:rgb(36.8417%,50.6779%,70.9798%);fill-opacity:1;" d="M 180 80 L 200 80 L 200 100 L 180 100 Z M 180 80 "/>
<path style=" stroke:none;fill-rule:nonzero;fill:rgb(36.8417%,50.6779%,70.9798%);fill-opacity:1;" d="M 180 100 L 200 100 L 200 120 L 180 120 Z M 180 100 "/>
<path style=" stroke:none;fill-rule:nonzero;fill:rgb(36.8417%,50.6779%,70.9798%);fill-opacity:1;" d="M 180 120 L 200 120 L 200 140 L 180 140 Z M 180 120 "/>
<path style=" stroke:none;fill-rule:nonzero;fill:rgb(36.8417%,50.6779%,70.9798%);fill-opacity:1;" d="M 180 140 L 200 140 L 200 160 L 180 160 Z M 180 140 "/>
<path style=" stroke:none;fill-rule:nonzero;fill:rgb(36.8417%,50.6779%,70.9798%);fill-opacity:1;" d="M 180 160 L 200 160 L 200 180 L 180 180 Z M 180 160 "/>
<path style=" stroke:none;fill-rule:nonzero;fill:rgb(36.8417%,50.6779%,70.9798%);fill-opacity:1;" d="M 180 180 L 200 180 L 200 200 L 180 200 Z M 180 180 "/>
<path style="fill:none;stroke-width:1;stroke-linecap:butt;stroke-linejoin:miter;stroke:rgb(92.2526%,38.5626%,20.9179%);stroke-opacity:1;stroke-miterlimit:10;" d="M 30 170 L 30.605469 165.078125 L 31.214844 160.15625 L 31.847656 155.238281 L 32.496094 150.324219 L 33.15625 145.410156 L 33.8125 140.5 L 34.527344 135.59375 L 35.269531 130.691406 L 36.027344 125.796875 L 36.804688 120.898438 L 37.59375 116.007812 L 38.371094 111.113281 L 39.175781 106.222656 L 39.984375 101.328125 L 41.421875 96.527344 L 42.847656 91.71875 L 44.320312 86.917969 L 45.746094 82.105469 L 47.25 77.308594 L 48.753906 72.507812 L 50.308594 67.714844 L 51.902344 62.933594 L 53.457031 58.132812 L 55.035156 53.339844 L 56.667969 48.550781 L 58.320312 43.769531 L 59.984375 38.988281 L 69.992188 39.496094 L 74.996094 39.746094 L 80 40 L 82.492188 44.691406 L 84.980469 49.378906 L 89.972656 58.761719 L 92.472656 63.453125 L 94.976562 68.144531 L 97.480469 72.832031 L 99.988281 77.523438 L 105 80 L 115 80 L 120 75 L 122.503906 70.617188 L 125.011719 66.238281 L 127.519531 61.855469 L 130.027344 57.476562 L 132.539062 53.097656 L 135.054688 48.71875 L 137.578125 44.34375 L 140.105469 39.972656 L 144.457031 39.976562 L 148.8125 39.984375 L 153.160156 39.988281 L 157.511719 39.992188 L 160 45 L 160 115 L 155 120 L 150.242188 121.175781 L 145.480469 122.347656 L 140.71875 123.515625 L 135.964844 124.710938 L 131.210938 125.902344 L 126.457031 127.113281 L 116.964844 129.574219 L 112.222656 130.832031 L 107.484375 132.097656 L 102.75 133.386719 L 98.007812 134.644531 L 93.277344 135.957031 L 88.550781 137.28125 L 83.824219 138.609375 L 79.101562 139.957031 L 79.324219 144.96875 L 79.550781 149.980469 L 79.773438 154.988281 L 80 160 L 84.996094 160.457031 L 89.988281 160.917969 L 94.984375 161.410156 L 99.976562 161.890625 L 104.976562 162.375 L 109.972656 162.863281 L 114.972656 163.390625 L 119.96875 163.929688 L 124.96875 164.492188 L 129.96875 165.046875 L 134.96875 165.609375 L 139.972656 166.207031 L 144.972656 166.804688 L 149.976562 167.421875 L 154.980469 168.035156 L 159.988281 168.695312 L 164.992188 169.335938 L 170 170 "/>
<path style="fill:none;stroke-width:1;stroke-linecap:butt;stroke-linejoin:miter;stroke:rgb(92.2526%,38.5626%,20.9179%);stroke-opacity:1;stroke-miterlimit:10;" d="M 31.5 170 C 31.5 172 28.5 172 28.5 170 C 28.5 168 31.5 168 31.5 170 "/>
<path style="fill:none;stroke-width:1;stroke-linecap:butt;stroke-linejoin:miter;stroke:rgb(92.2526%,38.5626%,20.9179%);stroke-opacity:1;stroke-miterlimit:10;" d="M 32.105469 165.078125 C 32.105469 167.078125 29.105469 167.078125 29.105469 165.078125 C 29.105469 163.078125 32.105469 163.078125 32.105469 165.078125 "/>
<path style="fill:none;stroke-width:1;stroke-linecap:butt;stroke-linejoin:miter;stroke:rgb(92.2526%,38.5626%,20.9179%);stroke-opacity:1;stroke-miterlimit:10;" d="M 32.714844 160.15625 C 32.714844 162.15625 29.714844 162.15625 29.714844 160.15625 C 29.714844 158.15625 32.714844 158.15625 32.714844 160.15625 "/>
<path style="fill:none;stroke-width:1;stroke-linecap:butt;stroke-linejoin:miter;stroke:rgb(92.2526%,38.5626%,20.9179%);stroke-opacity:1;stroke-miterlimit:10;" d="M 33.347656 155.238281 C 33.347656 157.238281 30.347656 157.238281 30.347656 155.238281 C 30.347656 153.238281 33.347656 153.238281 33.347656 155.238281 "/>
<path style="fill:none;stroke-width:1;stroke-linecap:butt;stroke-linejoin:miter;stroke:rgb(92.2526%,38.5626%,20.9179%);stroke-opacity:1;stroke-miterlimit:10;" d="M 33.996094 150.324219 C 33.996094 152.324219 30.996094 152.324219 30.996094 150.324219 C 30.996094 148.324219 33.996094 148.324219 33.996094 150.324219 "/>
<path style="fill:none;stroke-width:1;stroke-linecap:butt;stroke-linejoin:miter;stroke:rgb(92.2526%,38.5626%,20.9179%);stroke-opacity:1;stroke-miterlimit:10;" d="M 34.65625 145.410156 C 34.65625 147.410156 31.65625 147.410156 31.65625 145.410156 C 31.65625 143.410156 34.65625 143.410156 34.65625 145.410156 "/>
<path style="fill:none;stroke-width:1;stroke-linecap:butt;stroke-linejoin:miter;stroke:rgb(92.2526%,38.5626%,20.9179%);stroke-opacity:1;stroke-miterlimit:10;" d="M 35.3125 140.5 C 35.3125 142.5 32.3125 142.5 32.3125 140.5 C 32.3125 138.5 35.3125 138.5 35.3125 140.5 "/>
<path style="fill:none;stroke-width:1;stroke-linecap:butt;stroke-linejoin:miter;stroke:rgb(92.2526%,38.5626%,20.9179%);stroke-opacity:1;stroke-miterlimit:10;" d="M 36.027344 135.59375 C 36.027344 137.59375 33.027344 137.59375 33.027344 135.59375 C 33.027344 133.59375 36.027344 133.59375 36.027344 135.59375 "/>
<path style="fill:none;stroke-width:1;stroke-linecap:butt;stroke-linejoin:miter;stroke:rgb(92.2526%,38.5626%,20.9179%);stroke-opacity:1;stroke-miterlimit:10;" d="M 36.769531 130.691406 C 36.769531 132.691406 33.769531 132.691406 33.769531 130.691406 C 33.769531 128.691406 36.769531 128.691406 36.769531 130.691406 "/>
<path style="fill:none;stroke-width:1;stroke-linecap:butt;stroke-linejoin:miter;stroke:rgb(92.2526%,38.5626%,20.9179%);stroke-opacity:1;stroke-miterlimit:10;" d="M 37.527344 125.796875 C 37.527344 127.796875 34.527344 127.796875 34.527344 125.796875 C 34.527344 123.796875 37.527344 123.796875 37.527344 125.796875 "/>
<path style="fill:none;stroke-width:1;stroke-linecap:butt;stroke-linejoin:miter;stroke:rgb(92.2526%,38.5626%,20.9179%);stroke-opacity:1;stroke-miterlimit:10;" d="M 38.304688 120.898438 C 38.304688 122.898438 35.304688 122.898438 35.304688 120.898438 C 35.304688 118.898438 38.304688 118.898438 38.304688 120.898438 "/>
<path style="fill:none;stroke-width:1;stroke-linecap:butt;stroke-linejoin:miter;stroke:rgb(92.2526%,38.5626%,20.9179%);stroke-opacity:1;stroke-miterlimit:10;" d="M 39.09375 116.007812 C 39.09375 118.007812 36.09375 118.007812 36.09375 116.007812 C 36.09375 114.007812 39.09375 114.007812 39.09375 116.007812 "/>
<path style="fill:none;stroke-width:1;stroke-linecap:butt;stroke-linejoin:miter;stroke:rgb(92.2526%,38.5626%,20.9179%);stroke-opacity:1;stroke-miterlimit:10;" d="M 39.871094 111.113281 C 39.871094 113.113281 36.871094 113.113281 36.871094 111.113281 C 36.871094 109.113281 39.871094 109.113281 39.871094 111.113281 "/>
<path style="fill:none;stroke-width:1;stroke-linecap:butt;stroke-linejoin:miter;stroke:rgb(92.2526%,38.5626%,20.9179%);stroke-opacity:1;stroke-miterlimit:10;" d="M 40.675781 106.222656 C 40.675781 108.222656 37.675781 108.222656 37.675781 106.222656 C 37.675781 104.222656 40.675781 104.222656 40.675781 106.222656 "/>
<path style="fill:none;stroke-width:1;stroke-linecap:butt;stroke-linejoin:miter;stroke:rgb(92.2526%,38.5626%,20.9179%);stroke-opacity:1;stroke-miterlimit:10;" d="M 41.484375 101.328125 C 41.484375 103.328125 38.484375 103.328125 38.484375 101.328125 C 38.484375 99.328125 41.484375 99.328125 41.484375 101.328125 "/>
<path style="fill:none;stroke-width:1;stroke-linecap:butt;stroke-linejoin:miter;stroke:rgb(92.2526%,38.5626%,20.9179%);stroke-opacity:1;stroke-miterlimit:10;" d="M 42.921875 96.527344 C 42.921875 98.527344 39.921875 98.527344 39.921875 96.527344 C 39.921875 94.527344 42.921875 94.527344 42.921875 96.527344 "/>
<path style="fill:none;stroke-width:1;stroke-linecap:butt;stroke-linejoin:miter;stroke:rgb(92.2526%,38.5626%,20.9179%);stroke-opacity:1;stroke-miterlimit:10;" d="M 44.347656 91.71875 C 44.347656 93.71875 41.347656 93.71875 41.347656 91.71875 C 41.347656 89.71875 44.347656 89.71875 44.347656 91.71875 "/>
<path style="fill:none;stroke-width:1;stroke-linecap:butt;stroke-linejoin:miter;stroke:rgb(92.2526%,38.5626%,20.9179%);stroke-opacity:1;stroke-miterlimit:10;" d="M 45.820312 86.917969 C 45.820312 88.917969 42.820312 88.917969 42.820312 86.917969 C 42.820312 84.917969 45.820312 84.917969 45.820312 86.917969 "/>
<path style="fill:none;stroke-width:1;stroke-linecap:butt;stroke-linejoin:miter;stroke:rgb(92.2526%,38.5626%,20.9179%);stroke-opacity:1;stroke-miterlimit:10;" d="M 47.246094 82.105469 C 47.246094 84.105469 44.246094 84.105469 44.246094 82.105469 C 44.246094 80.105469 47.246094 80.105469 47.246094 82.105469 "/>
<path style="fill:none;stroke-width:1;stroke-linecap:butt;stroke-linejoin:miter;stroke:rgb(92.2526%,38.5626%,20.9179%);stroke-opacity:1;stroke-miterlimit:10;" d="M 48.75 77.308594 C 48.75 79.308594 45.75 79.308594 45.75 77.308594 C 45.75 75.308594 48.75 75.308594 48.75 77.308594 "/>
<path style="fill:none;stroke-width:1;stroke-linecap:butt;stroke-linejoin:miter;stroke:rgb(92.2526%,38.5626%,20.9179%);stroke-opacity:1;stroke-miterlimit:10;" d="M 50.253906 72.507812 C 50.253906 74.507812 47.253906 74.507812 47.253906 72.507812 C 47.253906 70.507812 50.253906 70.507812 50.253906 72.507812 "/>
<path style="fill:none;stroke-width:1;stroke-linecap:butt;stroke-linejoin:miter;stroke:rgb(92.2526%,38.5626%,20.9179%);stroke-opacity:1;stroke-miterlimit:10;" d="M 51.808594 67.714844 C 51.808594 69.714844 48.808594 69.714844 48.808594 67.714844 C 48.808594 65.714844 51.808594 65.714844 51.808594 67.714844 "/>
<path style="fill:none;stroke-width:1;stroke-linecap:butt;stroke-linejoin:miter;stroke:rgb(92.2526%,38.5626%,20.9179%);stroke-opacity:1;stroke-miterlimit:10;" d="M 53.402344 62.933594 C 53.402344 64.933594 50.402344 64.933594 50.402344 62.933594 C 50.402344 60.933594 53.402344 60.933594 53.402344 62.933594 "/>
<path style="fill:none;stroke-width:1;stroke-linecap:butt;stroke-linejoin:miter;stroke:rgb(92.2526%,38.5626%,20.9179%);stroke-opacity:1;stroke-miterlimit:10;" d="M 54.957031 58.132812 C 54.957031 60.132812 51.957031 60.132812 51.957031 58.132812 C 51.957031 56.132812 54.957031 56.132812 54.957031 58.132812 "/>
<path style="fill:none;stroke-width:1;stroke-linecap:butt;stroke-linejoin:miter;stroke:rgb(92.2526%,38.5626%,20.9179%);stroke-opacity:1;stroke-miterlimit:10;" d="M 56.535156 53.339844 C 56.535156 55.339844 53.535156 55.339844 53.535156 53.339844 C 53.535156 51.339844 56.535156 51.339844 56.535156 53.339844 "/>
<path style="fill:none;stroke-width:1;stroke-linecap:butt;stroke-linejoin:miter;stroke:rgb(92.2526%,38.5626%,20.9179%);stroke-opacity:1;stroke-miterlimit:10;" d="M 58.167969 48.550781 C 58.167969 50.550781 55.167969 50.550781 55.167969 48.550781 C 55.167969 46.550781 58.167969 46.550781 58.167969 48.550781 "/>
<path style="fill:none;stroke-width:1;stroke-linecap:butt;stroke-linejoin:miter;stroke:rgb(92.2526%,38.5626%,20.9179%);stroke-opacity:1;stroke-miterlimit:10;" d="M 59.820312 43.769531 C 59.820312 45.769531 56.820312 45.769531 56.820312 43.769531 C 56.820312 41.769531 59.820312 41.769531 59.820312 43.769531 "/>
<path style="fill:none;stroke-width:1;stroke-linecap:butt;stroke-linejoin:miter;stroke:rgb(92.2526%,38.5626%,20.9179%);stroke-opacity:1;stroke-miterlimit:10;" d="M 61.484375 38.988281 C 61.484375 40.988281 58.484375 40.988281 58.484375 38.988281 C 58.484375 36.988281 61.484375 36.988281 61.484375 38.988281 "/>
<path style="fill:none;stroke-width:1;stroke-linecap:butt;stroke-linejoin:miter;stroke:rgb(92.2526%,38.5626%,20.9179%);stroke-opacity:1;stroke-miterlimit:10;" d="M 66.488281 39.242188 C 66.488281 41.242188 63.488281 41.242188 63.488281 39.242188 C 63.488281 37.242188 66.488281 37.242188 66.488281 39.242188 "/>
<path style="fill:none;stroke-width:1;stroke-linecap:butt;stroke-linejoin:miter;stroke:rgb(92.2526%,38.5626%,20.9179%);stroke-opacity:1;stroke-miterlimit:10;" d="M 71.492188 39.496094 C 71.492188 41.496094 68.492188 41.496094 68.492188 39.496094 C 68.492188 37.496094 71.492188 37.496094 71.492188 39.496094 "/>
<path style="fill:none;stroke-width:1;stroke-linecap:butt;stroke-linejoin:miter;stroke:rgb(92.2526%,38.5626%,20.9179%);stroke-opacity:1;stroke-miterlimit:10;" d="M 76.496094 39.746094 C 76.496094 41.746094 73.496094 41.746094 73.496094 39.746094 C 73.496094 37.746094 76.496094 37.746094 76.496094 39.746094 "/>
<path style="fill:none;stroke-width:1;stroke-linecap:butt;stroke-linejoin:miter;stroke:rgb(92.2526%,38.5626%,20.9179%);stroke-opacity:1;stroke-miterlimit:10;" d="M 81.5 40 C 81.5 42 78.5 42 78.5 40 C 78.5 38 81.5 38 81.5 40 "/>
<path style="fill:none;stroke-width:1;stroke-linecap:butt;stroke-linejoin:miter;stroke:rgb(92.2526%,38.5626%,20.9179%);stroke-opacity:1;stroke-miterlimit:10;" d="M 83.992188 44.691406 C 83.992188 46.691406 80.992188 46.691406 80.992188 44.691406 C 80.992188 42.691406 83.992188 42.691406 83.992188 44.691406 "/>
<path style="fill:none;stroke-width:1;stroke-linecap:butt;stroke-linejoin:miter;stroke:rgb(92.2526%,38.5626%,20.9179%);stroke-opacity:1;stroke-miterlimit:10;" d="M 86.480469 49.378906 C 86.480469 51.378906 83.480469 51.378906 83.480469 49.378906 C 83.480469 47.378906 86.480469 47.378906 86.480469 49.378906 "/>
<path style="fill:none;stroke-width:1;stroke-linecap:butt;stroke-linejoin:miter;stroke:rgb(92.2526%,38.5626%,20.9179%);stroke-opacity:1;stroke-miterlimit:10;" d="M 88.976562 54.070312 C 88.976562 56.070312 85.976562 56.070312 85.976562 54.070312 C 85.976562 52.070312 88.976562 52.070312 88.976562 54.070312 "/>
<path style="fill:none;stroke-width:1;stroke-linecap:butt;stroke-linejoin:miter;stroke:rgb(92.2526%,38.5626%,20.9179%);stroke-opacity:1;stroke-miterlimit:10;" d="M 91.472656 58.761719 C 91.472656 60.761719 88.472656 60.761719 88.472656 58.761719 C 88.472656 56.761719 91.472656 56.761719 91.472656 58.761719 "/>
<path style="fill:none;stroke-width:1;stroke-linecap:butt;stroke-linejoin:miter;stroke:rgb(92.2526%,38.5626%,20.9179%);stroke-opacity:1;stroke-miterlimit:10;" d="M 93.972656 63.453125 C 93.972656 65.453125 90.972656 65.453125 90.972656 63.453125 C 90.972656 61.453125 93.972656 61.453125 93.972656 63.453125 "/>
<path style="fill:none;stroke-width:1;stroke-linecap:butt;stroke-linejoin:miter;stroke:rgb(92.2526%,38.5626%,20.9179%);stroke-opacity:1;stroke-miterlimit:10;" d="M 96.476562 68.144531 C 96.476562 70.144531 93.476562 70.144531 93.476562 68.144531 C 93.476562 66.144531 96.476562 66.144531 96.476562 68.144531 "/>
<path style="fill:none;stroke-width:1;stroke-linecap:butt;stroke-linejoin:miter;stroke:rgb(92.2526%,38.5626%,20.9179%);stroke-opacity:1;stroke-miterlimit:10;" d="M 98.980469 72.832031 C 98.980469 74.832031 95.980469 74.832031 95.980469 72.832031 C 95.980469 70.832031 98.980469 70.832031 98.980469 72.832031 "/>
<path style="fill:none;stroke-width:1;stroke-linecap:butt;stroke-linejoin:miter;stroke:rgb(92.2526%,38.5626%,20.9179%);stroke-opacity:1;stroke-miterlimit:10;" d="M 101.488281 77.523438 C 101.488281 79.523438 98.488281 79.523438 98.488281 77.523438 C 98.488281 75.523438 101.488281 75.523438 101.488281 77.523438 "/>
<path style="fill:none;stroke-width:1;stroke-linecap:butt;stroke-linejoin:miter;stroke:rgb(92.2526%,38.5626%,20.9179%);stroke-opacity:1;stroke-miterlimit:10;" d="M 106.5 80 C 106.5 82 103.5 82 103.5 80 C 103.5 78 106.5 78 106.5 80 "/>
<path style="fill:none;stroke-width:1;stroke-linecap:butt;stroke-linejoin:miter;stroke:rgb(92.2526%,38.5626%,20.9179%);stroke-opacity:1;stroke-miterlimit:10;" d="M 111.5 80 C 111.5 82 108.5 82 108.5 80 C 108.5 78 111.5 78 111.5 80 "/>
<path style="fill:none;stroke-width:1;stroke-linecap:butt;stroke-linejoin:miter;stroke:rgb(92.2526%,38.5626%,20.9179%);stroke-opacity:1;stroke-miterlimit:10;" d="M 116.5 80 C 116.5 82 113.5 82 113.5 80 C 113.5 78 116.5 78 116.5 80 "/>
<path style="fill:none;stroke-width:1;stroke-linecap:butt;stroke-linejoin:miter;stroke:rgb(92.2526%,38.5626%,20.9179%);stroke-opacity:1;stroke-miterlimit:10;" d="M 121.5 75 C 121.5 77 118.5 77 118.5 75 C 118.5 73 121.5 73 121.5 75 "/>
<path style="fill:none;stroke-width:1;stroke-linecap:butt;stroke-linejoin:miter;stroke:rgb(92.2526%,38.5626%,20.9179%);stroke-opacity:1;stroke-miterlimit:10;" d="M 124.003906 70.617188 C 124.003906 72.617188 121.003906 72.617188 121.003906 70.617188 C 121.003906 68.617188 124.003906 68.617188 124.003906 70.617188 "/>
<path style="fill:none;stroke-width:1;stroke-linecap:butt;stroke-linejoin:miter;stroke:rgb(92.2526%,38.5626%,20.9179%);stroke-opacity:1;stroke-miterlimit:10;" d="M 126.511719 66.238281 C 126.511719 68.238281 123.511719 68.238281 123.511719 66.238281 C 123.511719 64.238281 126.511719 64.238281 126.511719 66.238281 "/>
<path style="fill:none;stroke-width:1;stroke-linecap:butt;stroke-linejoin:miter;stroke:rgb(92.2526%,38.5626%,20.9179%);stroke-opacity:1;stroke-miterlimit:10;" d="M 129.019531 61.855469 C 129.019531 63.855469 126.019531 63.855469 126.019531 61.855469 C 126.019531 59.855469 129.019531 59.855469 129.019531 61.855469 "/>
<path style="fill:none;stroke-width:1;stroke-linecap:butt;stroke-linejoin:miter;stroke:rgb(92.2526%,38.5626%,20.9179%);stroke-opacity:1;stroke-miterlimit:10;" d="M 131.527344 57.476562 C 131.527344 59.476562 128.527344 59.476562 128.527344 57.476562 C 128.527344 55.476562 131.527344 55.476562 131.527344 57.476562 "/>
<path style="fill:none;stroke-width:1;stroke-linecap:butt;stroke-linejoin:miter;stroke:rgb(92.2526%,38.5626%,20.9179%);stroke-opacity:1;stroke-miterlimit:10;" d="M 134.039062 53.097656 C 134.039062 55.097656 131.039062 55.097656 131.039062 53.097656 C 131.039062 51.097656 134.039062 51.097656 134.039062 53.097656 "/>
<path style="fill:none;stroke-width:1;stroke-linecap:butt;stroke-linejoin:miter;stroke:rgb(92.2526%,38.5626%,20.9179%);stroke-opacity:1;stroke-miterlimit:10;" d="M 136.554688 48.71875 C 136.554688 50.71875 133.554688 50.71875 133.554688 48.71875 C 133.554688 46.71875 136.554688 46.71875 136.554688 48.71875 "/>
<path style="fill:none;stroke-width:1;stroke-linecap:butt;stroke-linejoin:miter;stroke:rgb(92.2526%,38.5626%,20.9179%);stroke-opacity:1;stroke-miterlimit:10;" d="M 139.078125 44.34375 C 139.078125 46.34375 136.078125 46.34375 136.078125 44.34375 C 136.078125 42.34375 139.078125 42.34375 139.078125 44.34375 "/>
<path style="fill:none;stroke-width:1;stroke-linecap:butt;stroke-linejoin:miter;stroke:rgb(92.2526%,38.5626%,20.9179%);stroke-opacity:1;stroke-miterlimit:10;" d="M 141.605469 39.972656 C 141.605469 41.972656 138.605469 41.972656 138.605469 39.972656 C 138.605469 37.972656 141.605469 37.972656 141.605469 39.972656 "/>
<path style="fill:none;stroke-width:1;stroke-linecap:butt;stroke-linejoin:miter;stroke:rgb(92.2526%,38.5626%,20.9179%);stroke-opacity:1;stroke-miterlimit:10;" d="M 145.957031 39.976562 C 145.957031 41.976562 142.957031 41.976562 142.957031 39.976562 C 142.957031 37.976562 145.957031 37.976562 145.957031 39.976562 "/>
<path style="fill:none;stroke-width:1;stroke-linecap:butt;stroke-linejoin:miter;stroke:rgb(92.2526%,38.5626%,20.9179%);stroke-opacity:1;stroke-miterlimit:10;" d="M 150.3125 39.984375 C 150.3125 41.984375 147.3125 41.984375 147.3125 39.984375 C 147.3125 37.984375 150.3125 37.984375 150.3125 39.984375 "/>
<path style="fill:none;stroke-width:1;stroke-linecap:butt;stroke-linejoin:miter;stroke:rgb(92.2526%,38.5626%,20.9179%);stroke-opacity:1;stroke-miterlimit:10;" d="M 154.660156 39.988281 C 154.660156 41.988281 151.660156 41.988281 151.660156 39.988281 C 151.660156 37.988281 154.660156 37.988281 154.660156 39.988281 "/>
<path style="fill:none;stroke-width:1;stroke-linecap:butt;stroke-linejoin:miter;stroke:rgb(92.2526%,38.5626%,20.9179%);stroke-opacity:1;stroke-miterlimit:10;" d="M 159.011719 39.992188 C 159.011719 41.992188 156.011719 41.992188 156.011719 39.992188 C 156.011719 37.992188 159.011719 37.992188 159.011719 39.992188 "/>
<path style="fill:none;stroke-width:1;stroke-linecap:butt;stroke-linejoin:miter;stroke:rgb(92.2526%,38.5626%,20.9179%);stroke-opacity:1;stroke-miterlimit:10;" d="M 161.5 45 C 161.5 47 158.5 47 158.5 45 C 158.5 43 161.5 43 161.5 45 "/>
<path style="fill:none;stroke-width:1;stroke-linecap:butt;stroke-linejoin:miter;stroke:rgb(92.2526%,38.5626%,20.9179%);stroke-opacity:1;stroke-miterlimit:10;" d="M 161.5 50 C 161.5 52 158.5 52 158.5 50 C 158.5 48 161.5 48 161.5 50 "/>
<path style="fill:none;stroke-width:1;stroke-linecap:butt;stroke-linejoin:miter;stroke:rgb(92.2526%,38.5626%,20.9179%);stroke-opacity:1;stroke-miterlimit:10;" d="M 161.5 55 C 161.5 57 158.5 57 158.5 55 C 158.5 53 161.5 53 161.5 55 "/>
<path style="fill:none;stroke-width:1;stroke-linecap:butt;stroke-linejoin:miter;stroke:rgb(92.2526%,38.5626%,20.9179%);stroke-opacity:1;stroke-miterlimit:10;" d="M 161.5 60 C 161.5 62 158.5 62 158.5 60 C 158.5 58 161.5 58 161.5 60 "/>
<path style="fill:none;stroke-width:1;stroke-linecap:butt;stroke-linejoin:miter;stroke:rgb(92.2526%,38.5626%,20.9179%);stroke-opacity:1;stroke-miterlimit:10;" d="M 161.5 65 C 161.5 67 158.5 67 158.5 65 C 158.5 63 161.5 63 161.5 65 "/>
<path style="fill:none;stroke-width:1;stroke-linecap:butt;stroke-linejoin:miter;stroke:rgb(92.2526%,38.5626%,20.9179%);stroke-opacity:1;stroke-miterlimit:10;" d="M 161.5 70 C 161.5 72 158.5 72 158.5 70 C 158.5 68 161.5 68 161.5 70 "/>
<path style="fill:none;stroke-width:1;stroke-linecap:butt;stroke-linejoin:miter;stroke:rgb(92.2526%,38.5626%,20.9179%);stroke-opacity:1;stroke-miterlimit:10;" d="M 161.5 75 C 161.5 77 158.5 77 158.5 75 C 158.5 73 161.5 73 161.5 75 "/>
<path style="fill:none;stroke-width:1;stroke-linecap:butt;stroke-linejoin:miter;stroke:rgb(92.2526%,38.5626%,20.9179%);stroke-opacity:1;stroke-miterlimit:10;" d="M 161.5 80 C 161.5 82 158.5 82 158.5 80 C 158.5 78 161.5 78 161.5 80 "/>
<path style="fill:none;stroke-width:1;stroke-linecap:butt;stroke-linejoin:miter;stroke:rgb(92.2526%,38.5626%,20.9179%);stroke-opacity:1;stroke-miterlimit:10;" d="M 161.5 85 C 161.5 87 158.5 87 158.5 85 C 158.5 83 161.5 83 161.5 85 "/>
<path style="fill:none;stroke-width:1;stroke-linecap:butt;stroke-linejoin:miter;stroke:rgb(92.2526%,38.5626%,20.9179%);stroke-opacity:1;stroke-miterlimit:10;" d="M 161.5 90 C 161.5 92 158.5 92 158.5 90 C 158.5 88 161.5 88 161.5 90 "/>
<path style="fill:none;stroke-width:1;stroke-linecap:butt;stroke-linejoin:miter;stroke:rgb(92.2526%,38.5626%,20.9179%);stroke-opacity:1;stroke-miterlimit:10;" d="M 161.5 95 C 161.5 97 158.5 97 158.5 95 C 158.5 93 161.5 93 161.5 95 "/>
<path style="fill:none;stroke-width:1;stroke-linecap:butt;stroke-linejoin:miter;stroke:rgb(92.2526%,38.5626%,20.9179%);stroke-opacity:1;stroke-miterlimit:10;" d="M 161.5 100 C 161.5 102 158.5 102 158.5 100 C 158.5 98 161.5 98 161.5 100 "/>
<path style="fill:none;stroke-width:1;stroke-linecap:butt;stroke-linejoin:miter;stroke:rgb(92.2526%,38.5626%,20.9179%);stroke-opacity:1;stroke-miterlimit:10;" d="M 161.5 105 C 161.5 107 158.5 107 158.5 105 C 158.5 103 161.5 103 161.5 105 "/>
<path style="fill:none;stroke-width:1;stroke-linecap:butt;stroke-linejoin:miter;stroke:rgb(92.2526%,38.5626%,20.9179%);stroke-opacity:1;stroke-miterlimit:10;" d="M 161.5 110 C 161.5 112 158.5 112 158.5 110 C 158.5 108 161.5 108 161.5 110 "/>
<path style="fill:none;stroke-width:1;stroke-linecap:butt;stroke-linejoin:miter;stroke:rgb(92.2526%,38.5626%,20.9179%);stroke-opacity:1;stroke-miterlimit:10;" d="M 161.5 115 C 161.5 117 158.5 117 158.5 115 C 158.5 113 161.5 113 161.5 115 "/>
<path style="fill:none;stroke-width:1;stroke-linecap:butt;stroke-linejoin:miter;stroke:rgb(92.2526%,38.5626%,20.9179%);stroke-opacity:1;stroke-miterlimit:10;" d="M 156.5 120 C 156.5 122 153.5 122 153.5 120 C 153.5 118 156.5 118 156.5 120 "/>
<path style="fill:none;stroke-width:1;stroke-linecap:butt;stroke-linejoin:miter;stroke:rgb(92.2526%,38.5626%,20.9179%);stroke-opacity:1;stroke-miterlimit:10;" d="M 151.742188 121.175781 C 151.742188 123.175781 148.742188 123.175781 148.742188 121.175781 C 148.742188 119.175781 151.742188 119.175781 151.742188 121.175781 "/>
<path style="fill:none;stroke-width:1;stroke-linecap:butt;stroke-linejoin:miter;stroke:rgb(92.2526%,38.5626%,20.9179%);stroke-opacity:1;stroke-miterlimit:10;" d="M 146.980469 122.347656 C 146.980469 124.347656 143.980469 124.347656 143.980469 122.347656 C 143.980469 120.347656 146.980469 120.347656 146.980469 122.347656 "/>
<path style="fill:none;stroke-width:1;stroke-linecap:butt;stroke-linejoin:miter;stroke:rgb(92.2526%,38.5626%,20.9179%);stroke-opacity:1;stroke-miterlimit:10;" d="M 142.21875 123.515625 C 142.21875 125.515625 139.21875 125.515625 139.21875 123.515625 C 139.21875 121.515625 142.21875 121.515625 142.21875 123.515625 "/>
<path style="fill:none;stroke-width:1;stroke-linecap:butt;stroke-linejoin:miter;stroke:rgb(92.2526%,38.5626%,20.9179%);stroke-opacity:1;stroke-miterlimit:10;" d="M 137.464844 124.710938 C 137.464844 126.710938 134.464844 126.710938 134.464844 124.710938 C 134.464844 122.710938 137.464844 122.710938 137.464844 124.710938 "/>
<path style="fill:none;stroke-width:1;stroke-linecap:butt;stroke-linejoin:miter;stroke:rgb(92.2526%,38.5626%,20.9179%);stroke-opacity:1;stroke-miterlimit:10;" d="M 132.710938 125.902344 C 132.710938 127.902344 129.710938 127.902344 129.710938 125.902344 C 129.710938 123.902344 132.710938 123.902344 132.710938 125.902344 "/>
<path style="fill:none;stroke-width:1;stroke-linecap:butt;stroke-linejoin:miter;stroke:rgb(92.2526%,38.5626%,20.9179%);stroke-opacity:1;stroke-miterlimit:10;" d="M 127.957031 127.113281 C 127.957031 129.113281 124.957031 129.113281 124.957031 127.113281 C 124.957031 125.113281 127.957031 125.113281 127.957031 127.113281 "/>
<path style="fill:none;stroke-width:1;stroke-linecap:butt;stroke-linejoin:miter;stroke:rgb(92.2526%,38.5626%,20.9179%);stroke-opacity:1;stroke-miterlimit:10;" d="M 123.210938 128.34375 C 123.210938 130.34375 120.210938 130.34375 120.210938 128.34375 C 120.210938 126.34375 123.210938 126.34375 123.210938 128.34375 "/>
<path style="fill:none;stroke-width:1;stroke-linecap:butt;stroke-linejoin:miter;stroke:rgb(92.2526%,38.5626%,20.9179%);stroke-opacity:1;stroke-miterlimit:10;" d="M 118.464844 129.574219 C 118.464844 131.574219 115.464844 131.574219 115.464844 129.574219 C 115.464844 127.574219 118.464844 127.574219 118.464844 129.574219 "/>
<path style="fill:none;stroke-width:1;stroke-linecap:butt;stroke-linejoin:miter;stroke:rgb(92.2526%,38.5626%,20.9179%);stroke-opacity:1;stroke-miterlimit:10;" d="M 113.722656 130.832031 C 113.722656 132.832031 110.722656 132.832031 110.722656 130.832031 C 110.722656 128.832031 113.722656 128.832031 113.722656 130.832031 "/>
<path style="fill:none;stroke-width:1;stroke-linecap:butt;stroke-linejoin:miter;stroke:rgb(92.2526%,38.5626%,20.9179%);stroke-opacity:1;stroke-miterlimit:10;" d="M 108.984375 132.097656 C 108.984375 134.097656 105.984375 134.097656 105.984375 132.097656 C 105.984375 130.097656 108.984375 130.097656 108.984375 132.097656 "/>
<path style="fill:none;stroke-width:1;stroke-linecap:butt;stroke-linejoin:miter;stroke:rgb(92.2526%,38.5626%,20.9179%);stroke-opacity:1;stroke-miterlimit:10;" d="M 104.25 133.386719 C 104.25 135.386719 101.25 135.386719 101.25 133.386719 C 101.25 131.386719 104.25 131.386719 104.25 133.386719 "/>
<path style="fill:none;stroke-width:1;stroke-linecap:butt;stroke-linejoin:miter;stroke:rgb(92.2526%,38.5626%,20.9179%);stroke-opacity:1;stroke-miterlimit:10;" d="M 99.507812 134.644531 C 99.507812 136.644531 96.507812 136.644531 96.507812 134.644531 C 96.507812 132.644531 99.507812 132.644531 99.507812 134.644531 "/>
<path style="fill:none;stroke-width:1;stroke-linecap:butt;stroke-linejoin:miter;stroke:rgb(92.2526%,38.5626%,20.9179%);stroke-opacity:1;stroke-miterlimit:10;" d="M 94.777344 135.957031 C 94.777344 137.957031 91.777344 137.957031 91.777344 135.957031 C 91.777344 133.957031 94.777344 133.957031 94.777344 135.957031 "/>
<path style="fill:none;stroke-width:1;stroke-linecap:butt;stroke-linejoin:miter;stroke:rgb(92.2526%,38.5626%,20.9179%);stroke-opacity:1;stroke-miterlimit:10;" d="M 90.050781 137.28125 C 90.050781 139.28125 87.050781 139.28125 87.050781 137.28125 C 87.050781 135.28125 90.050781 135.28125 90.050781 137.28125 "/>
<path style="fill:none;stroke-width:1;stroke-linecap:butt;stroke-linejoin:miter;stroke:rgb(92.2526%,38.5626%,20.9179%);stroke-opacity:1;stroke-miterlimit:10;" d="M 85.324219 138.609375 C 85.324219 140.609375 82.324219 140.609375 82.324219 138.609375 C 82.324219 136.609375 85.324219 136.609375 85.324219 138.609375 "/>
<path style="fill:none;stroke-width:1;stroke-linecap:butt;stroke-linejoin:miter;stroke:rgb(92.2526%,38.5626%,20.9179%);stroke-opacity:1;stroke-miterlimit:10;" d="M 80.601562 139.957031 C 80.601562 141.957031 77.601562 141.957031 77.601562 139.957031 C 77.601562 137.957031 80.601562 137.957031 80.601562 139.957031 "/>
<path style="fill:none;stroke-width:1;stroke-linecap:butt;stroke-linejoin:miter;stroke:rgb(92.2526%,38.5626%,20.9179%);stroke-opacity:1;stroke-miterlimit:10;" d="M 80.824219 144.96875 C 80.824219 146.96875 77.824219 146.96875 77.824219 144.96875 C 77.824219 142.96875 80.824219 142.96875 80.824219 144.96875 "/>
<path style="fill:none;stroke-width:1;stroke-linecap:butt;stroke-linejoin:miter;stroke:rgb(92.2526%,38.5626%,20.9179%);stroke-opacity:1;stroke-miterlimit:10;" d="M 81.050781 149.980469 C 81.050781 151.980469 78.050781 151.980469 78.050781 149.980469 C 78.050781 147.980469 81.050781 147.980469 81.050781 149.980469 "/>
<path style="fill:none;stroke-width:1;stroke-linecap:butt;stroke-linejoin:miter;stroke:rgb(92.2526%,38.5626%,20.9179%);stroke-opacity:1;stroke-miterlimit:10;" d="M 81.273438 154.988281 C 81.273438 156.988281 78.273438 156.988281 78.273438 154.988281 C 78.273438 152.988281 81.273438 152.988281 81.273438 154.988281 "/>
<path style="fill:none;stroke-width:1;stroke-linecap:butt;stroke-linejoin:miter;stroke:rgb(92.2526%,38.5626%,20.9179%);stroke-opacity:1;stroke-miterlimit:10;" d="M 81.5 160 C 81.5 162 78.5 162 78.5 160 C 78.5 158 81.5 158 81.5 160 "/>
<path style="fill:none;stroke-width:1;stroke-linecap:butt;stroke-linejoin:miter;stroke:rgb(92.2526%,38.5626%,20.9179%);stroke-opacity:1;stroke-miterlimit:10;" d="M 86.496094 160.457031 C 86.496094 162.457031 83.496094 162.457031 83.496094 160.457031 C 83.496094 158.457031 86.496094 158.457031 86.496094 160.457031 "/>
<path style="fill:none;stroke-width:1;stroke-linecap:butt;stroke-linejoin:miter;stroke:rgb(92.2526%,38.5626%,20.9179%);stroke-opacity:1;stroke-miterlimit:10;" d="M 91.488281 160.917969 C 91.488281 162.917969 88.488281 162.917969 88.488281 160.917969 C 88.488281 158.917969 91.488281 158.917969 91.488281 160.917969 "/>
<path style="fill:none;stroke-width:1;stroke-linecap:butt;stroke-linejoin:miter;stroke:rgb(92.2526%,38.5626%,20.9179%);stroke-opacity:1;stroke-miterlimit:10;" d="M 96.484375 161.410156 C 96.484375 163.410156 93.484375 163.410156 93.484375 161.410156 C 93.484375 159.410156 96.484375 159.410156 96.484375 161.410156 "/>
<path style="fill:none;stroke-width:1;stroke-linecap:butt;stroke-linejoin:miter;stroke:rgb(92.2526%,38.5626%,20.9179%);stroke-opacity:1;stroke-miterlimit:10;" d="M 101.476562 161.890625 C 101.476562 163.890625 98.476562 163.890625 98.476562 161.890625 C 98.476562 159.890625 101.476562 159.890625 101.476562 161.890625 "/>
<path style="fill:none;stroke-width:1;stroke-linecap:butt;stroke-linejoin:miter;stroke:rgb(92.2526%,38.5626%,20.9179%);stroke-opacity:1;stroke-miterlimit:10;" d="M 106.476562 162.375 C 106.476562 164.375 103.476562 164.375 103.476562 162.375 C 103.476562 160.375 106.476562 160.375 106.476562 162.375 "/>
<path style="fill:none;stroke-width:1;stroke-linecap:butt;stroke-linejoin:miter;stroke:rgb(92.2526%,38.5626%,20.9179%);stroke-opacity:1;stroke-miterlimit:10;" d="M 111.472656 162.863281 C 111.472656 164.863281 108.472656 164.863281 108.472656 162.863281 C 108.472656 160.863281 111.472656 160.863281 111.472656 162.863281 "/>
<path style="fill:none;stroke-width:1;stroke-linecap:butt;stroke-linejoin:miter;stroke:rgb(92.2526%,38.5626%,20.9179%);stroke-opacity:1;stroke-miterlimit:10;" d="M 116.472656 163.390625 C 116.472656 165.390625 113.472656 165.390625 113.472656 163.390625 C 113.472656 161.390625 116.472656 161.390625 116.472656 163.390625 "/>
<path style="fill:none;stroke-width:1;stroke-linecap:butt;stroke-linejoin:miter;stroke:rgb(92.2526%,38.5626%,20.9179%);stroke-opacity:1;stroke-miterlimit:10;" d="M 121.46875 163.929688 C 121.46875 165.929688 118.46875 165.929688 118.46875 163.929688 C 118.46875 161.929688 121.46875 161.929688 121.46875 163.929688 "/>
<path style="fill:none;stroke-width:1;stroke-linecap:butt;stroke-linejoin:miter;stroke:rgb(92.2526%,38.5626%,20.9179%);stroke-opacity:1;stroke-miterlimit:10;" d="M 126.46875 164.492188 C 126.46875 166.492188 123.46875 166.492188 123.46875 164.492188 C 123.46875 162.492188 126.46875 162.492188 126.46875 164.492188 "/>
<path style="fill:none;stroke-width:1;stroke-linecap:butt;stroke-linejoin:miter;stroke:rgb(92.2526%,38.5626%,20.9179%);stroke-opacity:1;stroke-miterlimit:10;" d="M 131.46875 165.046875 C 131.46875 167.046875 128.46875 167.046875 128.46875 165.046875 C 128.46875 163.046875 131.46875 163.046875 131.46875 165.046875 "/>
<path style="fill:none;stroke-width:1;stroke-linecap:butt;stroke-linejoin:miter;stroke:rgb(92.2526%,38.5626%,20.9179%);stroke-opacity:1;stroke-miterlimit:10;" d="M 136.46875 165.609375 C 136.46875 167.609375 133.46875 167.609375 133.46875 165.609375 C 133.46875 163.609375 136.46875 163.609375 136.46875 165.609375 "/>
<path style="fill:none;stroke-width:1;stroke-linecap:butt;stroke-linejoin:miter;stroke:rgb(92.2526%,38.5626%,20.9179%);stroke-opacity:1;stroke-miterlimit:10;" d="M 141.472656 166.207031 C 141.472656 168.207031 138.472656 168.207031 138.472656 166.207031 C 138.472656 164.207031 141.472656 164.207031 141.472656 166.207031 "/>
<path style="fill:none;stroke-width:1;stroke-linecap:butt;stroke-linejoin:miter;stroke:rgb(92.2526%,38.5626%,20.9179%);stroke-opacity:1;stroke-miterlimit:10;" d="M 146.472656 166.804688 C 146.472656 168.804688 143.472656 168.804688 143.472656 166.804688 C 143.472656 164.804688 146.472656 164.804688 146.472656 166.804688 "/>
<path style="fill:none;stroke-width:1;stroke-linecap:butt;stroke-linejoin:miter;stroke:rgb(92.2526%,38.5626%,20.9179%);stroke-opacity:1;stroke-miterlimit:10;" d="M 151.476562 167.421875 C 151.476562 169.421875 148.476562 169.421875 148.476562 167.421875 C 148.476562 165.421875 151.476562 165.421875 151.476562 167.421875 "/>
<path style="fill:none;stroke-width:1;stroke-linecap:butt;stroke-linejoin:miter;stroke:rgb(92.2526%,38.5626%,20.9179%);stroke-opacity:1;stroke-miterlimit:10;" d="M 156.480469 168.035156 C 156.480469 170.035156 153.480469 170.035156 153.480469 168.035156 C 153.480469 166.035156 156.480469 166.035156 156.480469 168.035156 "/>
<path style="fill:none;stroke-width:1;stroke-linecap:butt;stroke-linejoin:miter;stroke:rgb(92.2526%,38.5626%,20.9179%);stroke-opacity:1;stroke-miterlimit:10;" d="M 161.488281 168.695312 C 161.488281 170.695312 158.488281 170.695312 158.488281 168.695312 C 158.488281 166.695312 161.488281 166.695312 161.488281 168.695312 "/>
<path style="fill:none;stroke-width:1;stroke-linecap:butt;stroke-linejoin:miter;stroke:rgb(92.2526%,38.5626%,20.9179%);stroke-opacity:1;stroke-miterlimit:10;" d="M 166.492188 169.335938 C 166.492188 171.335938 163.492188 171.335938 163.492188 169.335938 C 163.492188 167.335938 166.492188 167.335938 166.492188 169.335938 "/>
<path style="fill:none;stroke-width:1;stroke-linecap:butt;stroke-linejoin:miter;stroke:rgb(92.2526%,38.5626%,20.9179%);stroke-opacity:1;stroke-miterlimit:10;" d="M 171.5 170 C 171.5 172 168.5 172 168.5 170 C 168.5 168 171.5 168 171.5 170 "/>
</g>
</svg>
