<?xml version="1.0" encoding="UTF-8"?>
<svg xmlns="http://www.w3.org/2000/svg" xmlns:xlink="http://www.w3.org/1999/xlink" width="100pt" height="100pt" viewBox="0 0 100 100" version="1.1">
<g id="id1">
<path style="fill:none;stroke-width:2;stroke-linecap:butt;stroke-linejoin:miter;stroke:rgb(88.0722%,61.1041%,14.2051%);stroke-opacity:1;stroke-miterlimit:10;" d="M 0 -100 L 0 100 M -100 0 L 100 0 " transform="matrix(1,0,0,-1,50,50)"/>
<path style="fill:none;stroke-width:2;stroke-linecap:butt;stroke-linejoin:miter;stroke:rgb(36.8417%,50.6779%,70.9798%);stroke-opacity:1;stroke-miterlimit:10;" d="M -30.855469 0 L -30.855469 8 M -30.855469 6.285156 L -32 7.429688 L -33.144531 8 L -34.855469 8 L -36 7.429688 L -37.144531 6.285156 L -37.714844 4.570312 L -37.714844 3.429688 L -37.144531 1.714844 L -36 0.570312 L -34.855469 0 L -33.144531 0 L -32 0.570312 L -30.855469 1.714844 M -26.285156 0 L -26.285156 12 M -22.285156 12 L -21.714844 11.429688 L -21.144531 12 L -21.714844 12.570312 L -22.285156 12 M -21.714844 8 L -21.714844 0 M -16 -3.429688 L -14.855469 -4 L -13.144531 -4 L -12 -3.429688 L -11.429688 -2.855469 L -10.855469 -1.144531 L -10.855469 8 M -10.855469 6.285156 L -12 7.429688 L -13.144531 8 L -14.855469 8 L -16 7.429688 L -17.144531 6.285156 L -17.714844 4.570312 L -17.714844 3.429688 L -17.144531 1.714844 L -16 0.570312 L -14.855469 0 L -13.144531 0 L -12 0.570312 L -10.855469 1.714844 M -6.285156 0 L -6.285156 8 M -6.285156 5.714844 L -4.570312 7.429688 L -3.429688 8 L -1.714844 8 L -0.570312 7.429688 L 0 5.714844 L 0 0 " transform="matrix(1,0,0,-1,50,50)"/>
</g>
</svg>
