<?xml version="1.0" encoding="UTF-8"?>
<svg xmlns="http://www.w3.org/2000/svg" xmlns:xlink="http://www.w3.org/1999/xlink" width="100pt" height="100pt" viewBox="0 0 100 100" version="1.1">
<g id="id1">
<path style="fill:none;stroke-width:2;stroke-linecap:butt;stroke-linejoin:miter;stroke:rgb(88.0722%,61.1041%,14.2051%);stroke-opacity:1;stroke-miterlimit:10;" d="M 0 -100 L 0 100 M -100 0 L 100 0 " transform="matrix(1,0,0,-1,50,50)"/>
<path style="fill:none;stroke-width:2;stroke-linecap:butt;stroke-linejoin:miter;stroke:rgb(36.8417%,50.6779%,70.9798%);stroke-opacity:1;stroke-miterlimit:10;" d="M -12 0 L -12 8 M -12 6.285156 L -13.144531 7.429688 L -14.285156 8 L -16 8 L -17.144531 7.429688 L -18.285156 6.285156 L -18.855469 4.570312 L -18.855469 3.429688 L -18.285156 1.714844 L -17.144531 0.570312 L -16 0 L -14.285156 0 L -13.144531 0.570312 L -12 1.714844 M -7.429688 0 L -7.429688 12 M -3.429688 12 L -2.855469 11.429688 L -2.285156 12 L -2.855469 12.570312 L -3.429688 12 M -2.855469 8 L -2.855469 0 M 2.855469 -3.429688 L 4 -4 L 5.714844 -4 L 6.855469 -3.429688 L 7.429688 -2.855469 L 8 -1.144531 L 8 8 M 8 6.285156 L 6.855469 7.429688 L 5.714844 8 L 4 8 L 2.855469 7.429688 L 1.714844 6.285156 L 1.144531 4.570312 L 1.144531 3.429688 L 1.714844 1.714844 L 2.855469 0.570312 L 4 0 L 5.714844 0 L 6.855469 0.570312 L 8 1.714844 M 12.570312 0 L 12.570312 8 M 12.570312 5.714844 L 14.285156 7.429688 L 15.429688 8 L 17.144531 8 L 18.285156 7.429688 L 18.855469 5.714844 L 18.855469 0 " transform="matrix(1,0,0,-1,50,50)"/>
</g>
</svg>
