<?xml version="1.0" encoding="UTF-8"?>
<svg xmlns="http://www.w3.org/2000/svg" xmlns:xlink="http://www.w3.org/1999/xlink" width="100pt" height="100pt" viewBox="0 0 100 100" version="1.1">
<g id="id1">
<path style="fill:none;stroke-width:2;stroke-linecap:butt;stroke-linejoin:miter;stroke:rgb(88.0722%,61.1041%,14.2051%);stroke-opacity:1;stroke-miterlimit:10;" d="M 0 -100 L 0 100 M -100 0 L 100 0 " transform="matrix(1,0,0,-1,50,50)"/>
<path style="fill:none;stroke-width:2;stroke-linecap:butt;stroke-linejoin:miter;stroke:rgb(36.8417%,50.6779%,70.9798%);stroke-opacity:1;stroke-miterlimit:10;" d="M -12 -12 L -12 -4 M -12 -5.714844 L -13.144531 -4.570312 L -14.285156 -4 L -16 -4 L -17.144531 -4.570312 L -18.285156 -5.714844 L -18.855469 -7.429688 L -18.855469 -8.570312 L -18.285156 -10.285156 L -17.144531 -11.429688 L -16 -12 L -14.285156 -12 L -13.144531 -11.429688 L -12 -10.285156 M -7.429688 -12 L -7.429688 0 M -3.429688 0 L -2.855469 -0.570312 L -2.285156 0 L -2.855469 0.570312 L -3.429688 0 M -2.855469 -4 L -2.855469 -12 M 2.855469 -15.429688 L 4 -16 L 5.714844 -16 L 6.855469 -15.429688 L 7.429688 -14.855469 L 8 -13.144531 L 8 -4 M 8 -5.714844 L 6.855469 -4.570312 L 5.714844 -4 L 4 -4 L 2.855469 -4.570312 L 1.714844 -5.714844 L 1.144531 -7.429688 L 1.144531 -8.570312 L 1.714844 -10.285156 L 2.855469 -11.429688 L 4 -12 L 5.714844 -12 L 6.855469 -11.429688 L 8 -10.285156 M 12.570312 -12 L 12.570312 -4 M 12.570312 -6.285156 L 14.285156 -4.570312 L 15.429688 -4 L 17.144531 -4 L 18.285156 -4.570312 L 18.855469 -6.285156 L 18.855469 -12 " transform="matrix(1,0,0,-1,50,50)"/>
</g>
</svg>
