<?xml version="1.0" encoding="UTF-8"?>
<svg xmlns="http://www.w3.org/2000/svg" xmlns:xlink="http://www.w3.org/1999/xlink" width="100pt" height="100pt" viewBox="0 0 100 100" version="1.1">
<g id="id1">
<path style="fill:none;stroke-width:2;stroke-linecap:butt;stroke-linejoin:miter;stroke:rgb(88.0722%,61.1041%,14.2051%);stroke-opacity:1;stroke-miterlimit:10;" d="M 0 -100 L 0 100 M -100 0 L 100 0 " transform="matrix(1,0,0,-1,50,50)"/>
<path style="fill:none;stroke-width:2;stroke-linecap:butt;stroke-linejoin:miter;stroke:rgb(36.8417%,50.6779%,70.9798%);stroke-opacity:1;stroke-miterlimit:10;" d="M 8.570312 -12 L 8.570312 -4 M 8.570312 -5.714844 L 7.429688 -4.570312 L 6.285156 -4 L 4.570312 -4 L 3.429688 -4.570312 L 2.285156 -5.714844 L 1.714844 -7.429688 L 1.714844 -8.570312 L 2.285156 -10.285156 L 3.429688 -11.429688 L 4.570312 -12 L 6.285156 -12 L 7.429688 -11.429688 L 8.570312 -10.285156 M 13.144531 -12 L 13.144531 0 M 17.144531 0 L 17.714844 -0.570312 L 18.285156 0 L 17.714844 0.570312 L 17.144531 0 M 17.714844 -4 L 17.714844 -12 M 23.429688 -15.429688 L 24.570312 -16 L 26.285156 -16 L 27.429688 -15.429688 L 28 -14.855469 L 28.570312 -13.144531 L 28.570312 -4 M 28.570312 -5.714844 L 27.429688 -4.570312 L 26.285156 -4 L 24.570312 -4 L 23.429688 -4.570312 L 22.285156 -5.714844 L 21.714844 -7.429688 L 21.714844 -8.570312 L 22.285156 -10.285156 L 23.429688 -11.429688 L 24.570312 -12 L 26.285156 -12 L 27.429688 -11.429688 L 28.570312 -10.285156 M 33.144531 -12 L 33.144531 -4 M 33.144531 -6.285156 L 34.855469 -4.570312 L 36 -4 L 37.714844 -4 L 38.855469 -4.570312 L 39.429688 -6.285156 L 39.429688 -12 " transform="matrix(1,0,0,-1,50,50)"/>
</g>
</svg>
