<?xml version="1.0" encoding="UTF-8"?>
<svg xmlns="http://www.w3.org/2000/svg" xmlns:xlink="http://www.w3.org/1999/xlink" width="100pt" height="100pt" viewBox="0 0 100 100" version="1.1">
<g id="id1">
<path style="fill:none;stroke-width:2;stroke-linecap:butt;stroke-linejoin:miter;stroke:rgb(88.0722%,61.1041%,14.2051%);stroke-opacity:1;stroke-miterlimit:10;" d="M 0 -100 L 0 100 M -100 0 L 100 0 " transform="matrix(1,0,0,-1,50,50)"/>
<path style="fill:none;stroke-width:2;stroke-linecap:butt;stroke-linejoin:miter;stroke:rgb(36.8417%,50.6779%,70.9798%);stroke-opacity:1;stroke-miterlimit:10;" d="M -30.855469 -12 L -30.855469 -4 M -30.855469 -5.714844 L -32 -4.570312 L -33.144531 -4 L -34.855469 -4 L -36 -4.570312 L -37.144531 -5.714844 L -37.714844 -7.429688 L -37.714844 -8.570312 L -37.144531 -10.285156 L -36 -11.429688 L -34.855469 -12 L -33.144531 -12 L -32 -11.429688 L -30.855469 -10.285156 M -26.285156 -12 L -26.285156 0 M -22.285156 0 L -21.714844 -0.570312 L -21.144531 0 L -21.714844 0.570312 L -22.285156 0 M -21.714844 -4 L -21.714844 -12 M -16 -15.429688 L -14.855469 -16 L -13.144531 -16 L -12 -15.429688 L -11.429688 -14.855469 L -10.855469 -13.144531 L -10.855469 -4 M -10.855469 -5.714844 L -12 -4.570312 L -13.144531 -4 L -14.855469 -4 L -16 -4.570312 L -17.144531 -5.714844 L -17.714844 -7.429688 L -17.714844 -8.570312 L -17.144531 -10.285156 L -16 -11.429688 L -14.855469 -12 L -13.144531 -12 L -12 -11.429688 L -10.855469 -10.285156 M -6.285156 -12 L -6.285156 -4 M -6.285156 -6.285156 L -4.570312 -4.570312 L -3.429688 -4 L -1.714844 -4 L -0.570312 -4.570312 L 0 -6.285156 L 0 -12 " transform="matrix(1,0,0,-1,50,50)"/>
</g>
</svg>
