<?xml version="1.0" encoding="UTF-8"?>
<svg xmlns="http://www.w3.org/2000/svg" xmlns:xlink="http://www.w3.org/1999/xlink" width="100pt" height="100pt" viewBox="0 0 100 100" version="1.1">
<g id="id1">
<path style="fill:none;stroke-width:2;stroke-linecap:butt;stroke-linejoin:miter;stroke:rgb(88.0722%,61.1041%,14.2051%);stroke-opacity:1;stroke-miterlimit:10;" d="M 0 -100 L 0 100 M -100 0 L 100 0 " transform="matrix(1,0,0,-1,50,50)"/>
<path style="fill:none;stroke-width:2;stroke-linecap:butt;stroke-linejoin:miter;stroke:rgb(36.8417%,50.6779%,70.9798%);stroke-opacity:1;stroke-miterlimit:10;" d="M -12 -6 L -12 2 M -12 0.285156 L -13.144531 1.429688 L -14.285156 2 L -16 2 L -17.144531 1.429688 L -18.285156 0.285156 L -18.855469 -1.429688 L -18.855469 -2.570312 L -18.285156 -4.285156 L -17.144531 -5.429688 L -16 -6 L -14.285156 -6 L -13.144531 -5.429688 L -12 -4.285156 M -7.429688 -6 L -7.429688 6 M -3.429688 6 L -2.855469 5.429688 L -2.285156 6 L -2.855469 6.570312 L -3.429688 6 M -2.855469 2 L -2.855469 -6 M 2.855469 -9.429688 L 4 -10 L 5.714844 -10 L 6.855469 -9.429688 L 7.429688 -8.855469 L 8 -7.144531 L 8 2 M 8 0.285156 L 6.855469 1.429688 L 5.714844 2 L 4 2 L 2.855469 1.429688 L 1.714844 0.285156 L 1.144531 -1.429688 L 1.144531 -2.570312 L 1.714844 -4.285156 L 2.855469 -5.429688 L 4 -6 L 5.714844 -6 L 6.855469 -5.429688 L 8 -4.285156 M 12.570312 -6 L 12.570312 2 M 12.570312 -0.285156 L 14.285156 1.429688 L 15.429688 2 L 17.144531 2 L 18.285156 1.429688 L 18.855469 -0.285156 L 18.855469 -6 " transform="matrix(1,0,0,-1,50,50)"/>
</g>
</svg>
