<?xml version="1.0" encoding="UTF-8"?>
<svg xmlns="http://www.w3.org/2000/svg" xmlns:xlink="http://www.w3.org/1999/xlink" width="100pt" height="100pt" viewBox="0 0 100 100" version="1.1">
<g id="id1">
<path style="fill:none;stroke-width:2;stroke-linecap:butt;stroke-linejoin:miter;stroke:rgb(88.0722%,61.1041%,14.2051%);stroke-opacity:1;stroke-miterlimit:10;" d="M 0 -100 L 0 100 M -100 0 L 100 0 " transform="matrix(1,0,0,-1,50,50)"/>
<path style="fill:none;stroke-width:2;stroke-linecap:butt;stroke-linejoin:miter;stroke:rgb(36.8417%,50.6779%,70.9798%);stroke-opacity:1;stroke-miterlimit:10;" d="M 8.570312 0 L 8.570312 8 M 8.570312 6.285156 L 7.429688 7.429688 L 6.285156 8 L 4.570312 8 L 3.429688 7.429688 L 2.285156 6.285156 L 1.714844 4.570312 L 1.714844 3.429688 L 2.285156 1.714844 L 3.429688 0.570312 L 4.570312 0 L 6.285156 0 L 7.429688 0.570312 L 8.570312 1.714844 M 13.144531 0 L 13.144531 12 M 17.144531 12 L 17.714844 11.429688 L 18.285156 12 L 17.714844 12.570312 L 17.144531 12 M 17.714844 8 L 17.714844 0 M 23.429688 -3.429688 L 24.570312 -4 L 26.285156 -4 L 27.429688 -3.429688 L 28 -2.855469 L 28.570312 -1.144531 L 28.570312 8 M 28.570312 6.285156 L 27.429688 7.429688 L 26.285156 8 L 24.570312 8 L 23.429688 7.429688 L 22.285156 6.285156 L 21.714844 4.570312 L 21.714844 3.429688 L 22.285156 1.714844 L 23.429688 0.570312 L 24.570312 0 L 26.285156 0 L 27.429688 0.570312 L 28.570312 1.714844 M 33.144531 0 L 33.144531 8 M 33.144531 5.714844 L 34.855469 7.429688 L 36 8 L 37.714844 8 L 38.855469 7.429688 L 39.429688 5.714844 L 39.429688 0 " transform="matrix(1,0,0,-1,50,50)"/>
</g>
</svg>
