<?xml version="1.0" encoding="UTF-8"?>
<svg xmlns="http://www.w3.org/2000/svg" xmlns:xlink="http://www.w3.org/1999/xlink" width="100pt" height="100pt" viewBox="0 0 100 100" version="1.1">
<g id="id1">
<path style="fill:none;stroke-width:2;stroke-linecap:butt;stroke-linejoin:miter;stroke:rgb(88.0722%,61.1041%,14.2051%);stroke-opacity:1;stroke-miterlimit:10;" d="M 0 -100 L 0 100 M -100 0 L 100 0 " transform="matrix(1,0,0,-1,50,50)"/>
<path style="fill:none;stroke-width:2;stroke-linecap:butt;stroke-linejoin:miter;stroke:rgb(36.8417%,50.6779%,70.9798%);stroke-opacity:1;stroke-miterlimit:10;" d="M 8.570312 -6 L 8.570312 2 M 8.570312 0.285156 L 7.429688 1.429688 L 6.285156 2 L 4.570312 2 L 3.429688 1.429688 L 2.285156 0.285156 L 1.714844 -1.429688 L 1.714844 -2.570312 L 2.285156 -4.285156 L 3.429688 -5.429688 L 4.570312 -6 L 6.285156 -6 L 7.429688 -5.429688 L 8.570312 -4.285156 M 13.144531 -6 L 13.144531 6 M 17.144531 6 L 17.714844 5.429688 L 18.285156 6 L 17.714844 6.570312 L 17.144531 6 M 17.714844 2 L 17.714844 -6 M 23.429688 -9.429688 L 24.570312 -10 L 26.285156 -10 L 27.429688 -9.429688 L 28 -8.855469 L 28.570312 -7.144531 L 28.570312 2 M 28.570312 0.285156 L 27.429688 1.429688 L 26.285156 2 L 24.570312 2 L 23.429688 1.429688 L 22.285156 0.285156 L 21.714844 -1.429688 L 21.714844 -2.570312 L 22.285156 -4.285156 L 23.429688 -5.429688 L 24.570312 -6 L 26.285156 -6 L 27.429688 -5.429688 L 28.570312 -4.285156 M 33.144531 -6 L 33.144531 2 M 33.144531 -0.285156 L 34.855469 1.429688 L 36 2 L 37.714844 2 L 38.855469 1.429688 L 39.429688 -0.285156 L 39.429688 -6 " transform="matrix(1,0,0,-1,50,50)"/>
</g>
</svg>
