<?xml version="1.0" encoding="UTF-8"?>
<svg xmlns="http://www.w3.org/2000/svg" xmlns:xlink="http://www.w3.org/1999/xlink" width="580pt" height="200pt" viewBox="0 0 580 200" version="1.1">
<g id="id1">
<path style="fill:none;stroke-width:2;stroke-linecap:butt;stroke-linejoin:miter;stroke:rgb(88.0722%,61.1041%,14.2051%);stroke-opacity:1;stroke-miterlimit:10;" d="M 2 0 L 2 10 " transform="matrix(1,0,0,-1,0,190)"/>
<path style="fill:none;stroke-width:2;stroke-linecap:butt;stroke-linejoin:miter;stroke:rgb(88.0722%,61.1041%,14.2051%);stroke-opacity:1;stroke-dasharray:4,4;stroke-miterlimit:10;" d="M 2 0 L 580 0 M 2 10 L 580 10 " transform="matrix(1,0,0,-1,0,190)"/>
<path style="fill:none;stroke-width:2;stroke-linecap:butt;stroke-linejoin:miter;stroke:rgb(36.8417%,50.6779%,70.9798%);stroke-opacity:1;stroke-miterlimit:10;" d="M 10.476562 10 L 17.144531 10 M 13.808594 10 L 13.808594 0 M 19.046875 3.808594 L 24.761719 3.808594 L 24.761719 4.761719 L 24.285156 5.714844 L 23.808594 6.191406 L 22.855469 6.667969 L 21.429688 6.667969 L 20.476562 6.191406 L 19.523438 5.238281 L 19.046875 3.808594 L 19.046875 2.855469 L 19.523438 1.429688 L 20.476562 0.476562 L 21.429688 0 L 22.855469 0 L 23.808594 0.476562 L 24.761719 1.429688 M 27.617188 1.429688 L 28.09375 0.476562 L 29.523438 0 L 30.953125 0 L 32.382812 0.476562 L 32.855469 1.429688 L 32.855469 1.90625 L 32.382812 2.855469 L 31.429688 3.332031 L 29.046875 3.808594 L 28.09375 4.285156 L 27.617188 5.238281 L 28.09375 6.191406 L 29.523438 6.667969 L 30.953125 6.667969 L 32.382812 6.191406 L 32.855469 5.238281 M 38.570312 6.667969 L 35.238281 6.667969 M 36.667969 10 L 36.667969 1.90625 L 37.144531 0.476562 L 38.09375 0 L 39.046875 0 M 49.046875 0 L 54.285156 6.667969 M 49.046875 6.667969 L 54.285156 0 M 57.144531 0 L 63.808594 10 M 57.144531 10 L 63.808594 0 M 73.808594 6.667969 L 77.144531 6.667969 M 77.617188 10 L 76.667969 10 L 75.714844 9.523438 L 75.238281 8.09375 L 75.238281 0 M 84.285156 5.238281 L 80.476562 5.238281 M 80.476562 0 L 80.476562 10 L 86.667969 10 M 97.617188 -2.855469 L 98.570312 -3.332031 L 100 -3.332031 L 100.953125 -2.855469 L 101.429688 -2.382812 L 101.90625 -0.953125 L 101.90625 6.667969 M 101.90625 5.238281 L 100.953125 6.191406 L 100 6.667969 L 98.570312 6.667969 L 97.617188 6.191406 L 96.667969 5.238281 L 96.191406 3.808594 L 96.191406 2.855469 L 96.667969 1.429688 L 97.617188 0.476562 L 98.570312 0 L 100 0 L 100.953125 0.476562 L 101.90625 1.429688 M 110 3.808594 L 112.382812 3.808594 L 112.382812 2.382812 L 111.90625 1.429688 L 110.953125 0.476562 L 110 0 L 108.09375 0 L 107.144531 0.476562 L 106.191406 1.429688 L 105.714844 2.382812 L 105.238281 3.808594 L 105.238281 6.191406 L 105.714844 7.617188 L 106.191406 8.570312 L 107.144531 9.523438 L 108.09375 10 L 110 10 L 110.953125 9.523438 L 111.90625 8.570312 L 112.382812 7.617188 " transform="matrix(1,0,0,-1,0,190)"/>
<path style="fill:none;stroke-width:2;stroke-linecap:butt;stroke-linejoin:miter;stroke:rgb(88.0722%,61.1041%,14.2051%);stroke-opacity:1;stroke-miterlimit:10;" d="M 2 0 L 2 20 " transform="matrix(1,0,0,-1,0,160)"/>
<path style="fill:none;stroke-width:2;stroke-linecap:butt;stroke-linejoin:miter;stroke:rgb(88.0722%,61.1041%,14.2051%);stroke-opacity:1;stroke-dasharray:4,4;stroke-miterlimit:10;" d="M 2 0 L 580 0 M 2 20 L 580 20 " transform="matrix(1,0,0,-1,0,160)"/>
<path style="fill:none;stroke-width:2;stroke-linecap:butt;stroke-linejoin:miter;stroke:rgb(36.8417%,50.6779%,70.9798%);stroke-opacity:1;stroke-miterlimit:10;" d="M 10.953125 20 L 24.285156 20 M 17.617188 20 L 17.617188 0 M 28.09375 7.617188 L 39.523438 7.617188 L 39.523438 9.523438 L 38.570312 11.429688 L 37.617188 12.382812 L 35.714844 13.332031 L 32.855469 13.332031 L 30.953125 12.382812 L 29.046875 10.476562 L 28.09375 7.617188 L 28.09375 5.714844 L 29.046875 2.855469 L 30.953125 0.953125 L 32.855469 0 L 35.714844 0 L 37.617188 0.953125 L 39.523438 2.855469 M 45.238281 2.855469 L 46.191406 0.953125 L 49.046875 0 L 51.90625 0 L 54.761719 0.953125 L 55.714844 2.855469 L 55.714844 3.808594 L 54.761719 5.714844 L 52.855469 6.667969 L 48.09375 7.617188 L 46.191406 8.570312 L 45.238281 10.476562 L 46.191406 12.382812 L 49.046875 13.332031 L 51.90625 13.332031 L 54.761719 12.382812 L 55.714844 10.476562 M 67.144531 13.332031 L 60.476562 13.332031 M 63.332031 20 L 63.332031 3.808594 L 64.285156 0.953125 L 66.191406 0 L 68.09375 0 M 88.09375 0 L 98.570312 13.332031 M 88.09375 13.332031 L 98.570312 0 M 104.285156 0 L 117.617188 20 M 104.285156 20 L 117.617188 0 M 137.617188 13.332031 L 144.285156 13.332031 M 145.238281 20 L 143.332031 20 L 141.429688 19.046875 L 140.476562 16.191406 L 140.476562 0 M 158.570312 10.476562 L 150.953125 10.476562 M 150.953125 0 L 150.953125 20 L 163.332031 20 M 185.238281 -5.714844 L 187.144531 -6.667969 L 190 -6.667969 L 191.90625 -5.714844 L 192.855469 -4.761719 L 193.808594 -1.90625 L 193.808594 13.332031 M 193.808594 10.476562 L 191.90625 12.382812 L 190 13.332031 L 187.144531 13.332031 L 185.238281 12.382812 L 183.332031 10.476562 L 182.382812 7.617188 L 182.382812 5.714844 L 183.332031 2.855469 L 185.238281 0.953125 L 187.144531 0 L 190 0 L 191.90625 0.953125 L 193.808594 2.855469 M 210 7.617188 L 214.761719 7.617188 L 214.761719 4.761719 L 213.808594 2.855469 L 211.90625 0.953125 L 210 0 L 206.191406 0 L 204.285156 0.953125 L 202.382812 2.855469 L 201.429688 4.761719 L 200.476562 7.617188 L 200.476562 12.382812 L 201.429688 15.238281 L 202.382812 17.144531 L 204.285156 19.046875 L 206.191406 20 L 210 20 L 211.90625 19.046875 L 213.808594 17.144531 L 214.761719 15.238281 " transform="matrix(1,0,0,-1,0,160)"/>
<path style="fill:none;stroke-width:2;stroke-linecap:butt;stroke-linejoin:miter;stroke:rgb(88.0722%,61.1041%,14.2051%);stroke-opacity:1;stroke-miterlimit:10;" d="M 2 0 L 2 30 " transform="matrix(1,0,0,-1,0,120)"/>
<path style="fill:none;stroke-width:2;stroke-linecap:butt;stroke-linejoin:miter;stroke:rgb(88.0722%,61.1041%,14.2051%);stroke-opacity:1;stroke-dasharray:4,4;stroke-miterlimit:10;" d="M 2 0 L 580 0 M 2 30 L 580 30 " transform="matrix(1,0,0,-1,0,120)"/>
<path style="fill:none;stroke-width:2;stroke-linecap:butt;stroke-linejoin:miter;stroke:rgb(36.8417%,50.6779%,70.9798%);stroke-opacity:1;stroke-miterlimit:10;" d="M 11.429688 30 L 31.429688 30 M 21.429688 30 L 21.429688 0 M 37.144531 11.429688 L 54.285156 11.429688 L 54.285156 14.285156 L 52.855469 17.144531 L 51.429688 18.570312 L 48.570312 20 L 44.285156 20 L 41.429688 18.570312 L 38.570312 15.714844 L 37.144531 11.429688 L 37.144531 8.570312 L 38.570312 4.285156 L 41.429688 1.429688 L 44.285156 0 L 48.570312 0 L 51.429688 1.429688 L 54.285156 4.285156 M 62.855469 4.285156 L 64.285156 1.429688 L 68.570312 0 L 72.855469 0 L 77.144531 1.429688 L 78.570312 4.285156 L 78.570312 5.714844 L 77.144531 8.570312 L 74.285156 10 L 67.144531 11.429688 L 64.285156 12.855469 L 62.855469 15.714844 L 64.285156 18.570312 L 68.570312 20 L 72.855469 20 L 77.144531 18.570312 L 78.570312 15.714844 M 95.714844 20 L 85.714844 20 M 90 30 L 90 5.714844 L 91.429688 1.429688 L 94.285156 0 L 97.144531 0 M 127.144531 0 L 142.855469 20 M 127.144531 20 L 142.855469 0 M 151.429688 0 L 171.429688 30 M 151.429688 30 L 171.429688 0 M 201.429688 20 L 211.429688 20 M 212.855469 30 L 210 30 L 207.144531 28.570312 L 205.714844 24.285156 L 205.714844 0 M 232.855469 15.714844 L 221.429688 15.714844 M 221.429688 0 L 221.429688 30 L 240 30 M 272.855469 -8.570312 L 275.714844 -10 L 280 -10 L 282.855469 -8.570312 L 284.285156 -7.144531 L 285.714844 -2.855469 L 285.714844 20 M 285.714844 15.714844 L 282.855469 18.570312 L 280 20 L 275.714844 20 L 272.855469 18.570312 L 270 15.714844 L 268.570312 11.429688 L 268.570312 8.570312 L 270 4.285156 L 272.855469 1.429688 L 275.714844 0 L 280 0 L 282.855469 1.429688 L 285.714844 4.285156 M 310 11.429688 L 317.144531 11.429688 L 317.144531 7.144531 L 315.714844 4.285156 L 312.855469 1.429688 L 310 0 L 304.285156 0 L 301.429688 1.429688 L 298.570312 4.285156 L 297.144531 7.144531 L 295.714844 11.429688 L 295.714844 18.570312 L 297.144531 22.855469 L 298.570312 25.714844 L 301.429688 28.570312 L 304.285156 30 L 310 30 L 312.855469 28.570312 L 315.714844 25.714844 L 317.144531 22.855469 " transform="matrix(1,0,0,-1,0,120)"/>
<path style="fill:none;stroke-width:2;stroke-linecap:butt;stroke-linejoin:miter;stroke:rgb(88.0722%,61.1041%,14.2051%);stroke-opacity:1;stroke-miterlimit:10;" d="M 2 0 L 2 50 " transform="matrix(1,0,0,-1,0,70)"/>
<path style="fill:none;stroke-width:2;stroke-linecap:butt;stroke-linejoin:miter;stroke:rgb(88.0722%,61.1041%,14.2051%);stroke-opacity:1;stroke-dasharray:4,4;stroke-miterlimit:10;" d="M 2 0 L 580 0 M 2 50 L 580 50 " transform="matrix(1,0,0,-1,0,70)"/>
<path style="fill:none;stroke-width:2;stroke-linecap:butt;stroke-linejoin:miter;stroke:rgb(36.8417%,50.6779%,70.9798%);stroke-opacity:1;stroke-miterlimit:10;" d="M 12.382812 50 L 45.714844 50 M 29.046875 50 L 29.046875 0 M 55.238281 19.046875 L 83.808594 19.046875 L 83.808594 23.808594 L 81.429688 28.570312 L 79.046875 30.953125 L 74.285156 33.332031 L 67.144531 33.332031 L 62.382812 30.953125 L 57.617188 26.191406 L 55.238281 19.046875 L 55.238281 14.285156 L 57.617188 7.144531 L 62.382812 2.382812 L 67.144531 0 L 74.285156 0 L 79.046875 2.382812 L 83.808594 7.144531 M 98.09375 7.144531 L 100.476562 2.382812 L 107.617188 0 L 114.761719 0 L 121.90625 2.382812 L 124.285156 7.144531 L 124.285156 9.523438 L 121.90625 14.285156 L 117.144531 16.667969 L 105.238281 19.046875 L 100.476562 21.429688 L 98.09375 26.191406 L 100.476562 30.953125 L 107.617188 33.332031 L 114.761719 33.332031 L 121.90625 30.953125 L 124.285156 26.191406 M 152.855469 33.332031 L 136.191406 33.332031 M 143.332031 50 L 143.332031 9.523438 L 145.714844 2.382812 L 150.476562 0 L 155.238281 0 M 205.238281 0 L 231.429688 33.332031 M 205.238281 33.332031 L 231.429688 0 M 245.714844 0 L 279.046875 50 M 245.714844 50 L 279.046875 0 M 329.046875 33.332031 L 345.714844 33.332031 M 348.09375 50 L 343.332031 50 L 338.570312 47.617188 L 336.191406 40.476562 L 336.191406 0 M 381.429688 26.191406 L 362.382812 26.191406 M 362.382812 0 L 362.382812 50 L 393.332031 50 M 448.09375 -14.285156 L 452.855469 -16.667969 L 460 -16.667969 L 464.761719 -14.285156 L 467.144531 -11.90625 L 469.523438 -4.761719 L 469.523438 33.332031 M 469.523438 26.191406 L 464.761719 30.953125 L 460 33.332031 L 452.855469 33.332031 L 448.09375 30.953125 L 443.332031 26.191406 L 440.953125 19.046875 L 440.953125 14.285156 L 443.332031 7.144531 L 448.09375 2.382812 L 452.855469 0 L 460 0 L 464.761719 2.382812 L 469.523438 7.144531 M 510 19.046875 L 521.90625 19.046875 L 521.90625 11.90625 L 519.523438 7.144531 L 514.761719 2.382812 L 510 0 L 500.476562 0 L 495.714844 2.382812 L 490.953125 7.144531 L 488.570312 11.90625 L 486.191406 19.046875 L 486.191406 30.953125 L 488.570312 38.09375 L 490.953125 42.855469 L 495.714844 47.617188 L 500.476562 50 L 510 50 L 514.761719 47.617188 L 519.523438 42.855469 L 521.90625 38.09375 " transform="matrix(1,0,0,-1,0,70)"/>
</g>
</svg>
