<?xml version="1.0" encoding="UTF-8"?>
<svg xmlns="http://www.w3.org/2000/svg" xmlns:xlink="http://www.w3.org/1999/xlink" width="510pt" height="360pt" viewBox="0 0 510 360" version="1.1">
<defs>
<g>
<symbol overflow="visible" id="id1">
<path style="stroke:none;" d="M 0.5 1.765625 L 0.5 -7.046875 L 5.5 -7.046875 L 5.5 1.765625 Z M 1.0625 1.21875 L 4.9375 1.21875 L 4.9375 -6.484375 L 1.0625 -6.484375 Z M 1.0625 1.21875 "/>
</symbol>
<symbol overflow="visible" id="id2">
<path style="stroke:none;" d="M 1.234375 -0.828125 L 2.859375 -0.828125 L 2.859375 -6.390625 L 1.09375 -6.046875 L 1.09375 -6.9375 L 2.84375 -7.296875 L 3.828125 -7.296875 L 3.828125 -0.828125 L 5.4375 -0.828125 L 5.4375 0 L 1.234375 0 Z M 1.234375 -0.828125 "/>
</symbol>
<symbol overflow="visible" id="id3">
<path style="stroke:none;" d="M 1.921875 -0.828125 L 5.359375 -0.828125 L 5.359375 0 L 0.734375 0 L 0.734375 -0.828125 C 1.109375 -1.210938 1.617188 -1.734375 2.265625 -2.390625 C 2.910156 -3.046875 3.316406 -3.46875 3.484375 -3.65625 C 3.796875 -4.007812 4.015625 -4.304688 4.140625 -4.546875 C 4.265625 -4.796875 4.328125 -5.039062 4.328125 -5.28125 C 4.328125 -5.664062 4.191406 -5.976562 3.921875 -6.21875 C 3.648438 -6.46875 3.296875 -6.59375 2.859375 -6.59375 C 2.546875 -6.59375 2.21875 -6.535156 1.875 -6.421875 C 1.539062 -6.316406 1.175781 -6.15625 0.78125 -5.9375 L 0.78125 -6.9375 C 1.175781 -7.09375 1.546875 -7.210938 1.890625 -7.296875 C 2.234375 -7.378906 2.550781 -7.421875 2.84375 -7.421875 C 3.59375 -7.421875 4.191406 -7.234375 4.640625 -6.859375 C 5.097656 -6.484375 5.328125 -5.976562 5.328125 -5.34375 C 5.328125 -5.039062 5.269531 -4.753906 5.15625 -4.484375 C 5.039062 -4.222656 4.835938 -3.910156 4.546875 -3.546875 C 4.460938 -3.453125 4.203125 -3.175781 3.765625 -2.71875 C 3.328125 -2.269531 2.710938 -1.640625 1.921875 -0.828125 Z M 1.921875 -0.828125 "/>
</symbol>
<symbol overflow="visible" id="id4">
<path style="stroke:none;" d="M 4.0625 -3.9375 C 4.53125 -3.832031 4.894531 -3.617188 5.15625 -3.296875 C 5.425781 -2.984375 5.5625 -2.59375 5.5625 -2.125 C 5.5625 -1.40625 5.3125 -0.847656 4.8125 -0.453125 C 4.320312 -0.0546875 3.617188 0.140625 2.703125 0.140625 C 2.398438 0.140625 2.085938 0.109375 1.765625 0.046875 C 1.441406 -0.015625 1.109375 -0.101562 0.765625 -0.21875 L 0.765625 -1.171875 C 1.035156 -1.015625 1.332031 -0.894531 1.65625 -0.8125 C 1.988281 -0.726562 2.332031 -0.6875 2.6875 -0.6875 C 3.300781 -0.6875 3.769531 -0.804688 4.09375 -1.046875 C 4.414062 -1.296875 4.578125 -1.65625 4.578125 -2.125 C 4.578125 -2.550781 4.425781 -2.882812 4.125 -3.125 C 3.820312 -3.363281 3.40625 -3.484375 2.875 -3.484375 L 2.015625 -3.484375 L 2.015625 -4.296875 L 2.90625 -4.296875 C 3.394531 -4.296875 3.765625 -4.394531 4.015625 -4.59375 C 4.273438 -4.789062 4.40625 -5.070312 4.40625 -5.4375 C 4.40625 -5.800781 4.269531 -6.082031 4 -6.28125 C 3.738281 -6.488281 3.363281 -6.59375 2.875 -6.59375 C 2.601562 -6.59375 2.3125 -6.5625 2 -6.5 C 1.6875 -6.445312 1.347656 -6.359375 0.984375 -6.234375 L 0.984375 -7.109375 C 1.359375 -7.210938 1.707031 -7.289062 2.03125 -7.34375 C 2.363281 -7.394531 2.671875 -7.421875 2.953125 -7.421875 C 3.703125 -7.421875 4.296875 -7.25 4.734375 -6.90625 C 5.171875 -6.570312 5.390625 -6.113281 5.390625 -5.53125 C 5.390625 -5.125 5.273438 -4.78125 5.046875 -4.5 C 4.816406 -4.226562 4.488281 -4.039062 4.0625 -3.9375 Z M 4.0625 -3.9375 "/>
</symbol>
<symbol overflow="visible" id="id5">
<path style="stroke:none;" d="M 3.78125 -6.4375 L 1.296875 -2.546875 L 3.78125 -2.546875 Z M 3.515625 -7.296875 L 4.765625 -7.296875 L 4.765625 -2.546875 L 5.796875 -2.546875 L 5.796875 -1.71875 L 4.765625 -1.71875 L 4.765625 0 L 3.78125 0 L 3.78125 -1.71875 L 0.484375 -1.71875 L 0.484375 -2.671875 Z M 3.515625 -7.296875 "/>
</symbol>
<symbol overflow="visible" id="id6">
<path style="stroke:none;" d="M 1.078125 -7.296875 L 4.953125 -7.296875 L 4.953125 -6.453125 L 1.984375 -6.453125 L 1.984375 -4.671875 C 2.128906 -4.722656 2.269531 -4.757812 2.40625 -4.78125 C 2.550781 -4.800781 2.695312 -4.8125 2.84375 -4.8125 C 3.65625 -4.8125 4.296875 -4.585938 4.765625 -4.140625 C 5.242188 -3.703125 5.484375 -3.101562 5.484375 -2.34375 C 5.484375 -1.550781 5.238281 -0.9375 4.75 -0.5 C 4.269531 -0.0703125 3.582031 0.140625 2.6875 0.140625 C 2.382812 0.140625 2.070312 0.113281 1.75 0.0625 C 1.4375 0.0078125 1.109375 -0.0664062 0.765625 -0.171875 L 0.765625 -1.15625 C 1.066406 -1 1.375 -0.878906 1.6875 -0.796875 C 2 -0.722656 2.328125 -0.6875 2.671875 -0.6875 C 3.234375 -0.6875 3.675781 -0.832031 4 -1.125 C 4.332031 -1.425781 4.5 -1.832031 4.5 -2.34375 C 4.5 -2.84375 4.332031 -3.238281 4 -3.53125 C 3.675781 -3.832031 3.234375 -3.984375 2.671875 -3.984375 C 2.410156 -3.984375 2.144531 -3.953125 1.875 -3.890625 C 1.613281 -3.835938 1.347656 -3.75 1.078125 -3.625 Z M 1.078125 -7.296875 "/>
</symbol>
<symbol overflow="visible" id="id7">
<path style="stroke:none;" d="M 3.296875 -4.03125 C 2.859375 -4.03125 2.507812 -3.878906 2.25 -3.578125 C 1.988281 -3.273438 1.859375 -2.863281 1.859375 -2.34375 C 1.859375 -1.8125 1.988281 -1.394531 2.25 -1.09375 C 2.507812 -0.789062 2.859375 -0.640625 3.296875 -0.640625 C 3.742188 -0.640625 4.09375 -0.789062 4.34375 -1.09375 C 4.601562 -1.394531 4.734375 -1.8125 4.734375 -2.34375 C 4.734375 -2.863281 4.601562 -3.273438 4.34375 -3.578125 C 4.09375 -3.878906 3.742188 -4.03125 3.296875 -4.03125 Z M 5.265625 -7.125 L 5.265625 -6.234375 C 5.015625 -6.347656 4.757812 -6.4375 4.5 -6.5 C 4.25 -6.5625 4.003906 -6.59375 3.765625 -6.59375 C 3.109375 -6.59375 2.609375 -6.375 2.265625 -5.9375 C 1.921875 -5.5 1.726562 -4.832031 1.6875 -3.9375 C 1.875 -4.21875 2.113281 -4.429688 2.40625 -4.578125 C 2.695312 -4.734375 3.015625 -4.8125 3.359375 -4.8125 C 4.085938 -4.8125 4.664062 -4.585938 5.09375 -4.140625 C 5.519531 -3.703125 5.734375 -3.101562 5.734375 -2.34375 C 5.734375 -1.59375 5.507812 -0.988281 5.0625 -0.53125 C 4.625 -0.0820312 4.035156 0.140625 3.296875 0.140625 C 2.453125 0.140625 1.804688 -0.179688 1.359375 -0.828125 C 0.921875 -1.472656 0.703125 -2.410156 0.703125 -3.640625 C 0.703125 -4.785156 0.972656 -5.703125 1.515625 -6.390625 C 2.066406 -7.078125 2.800781 -7.421875 3.71875 -7.421875 C 3.96875 -7.421875 4.21875 -7.394531 4.46875 -7.34375 C 4.71875 -7.300781 4.984375 -7.226562 5.265625 -7.125 Z M 5.265625 -7.125 "/>
</symbol>
</g>
</defs>
<g id="id8">
<path style=" stroke:none;fill-rule:nonzero;fill:rgb(36.8417%,50.6779%,70.9798%);fill-opacity:0.5;" d="M 8.761719 6.691406 L 88.761719 -4.433594 L 215.472656 180.800781 Z M 8.761719 6.691406 "/>
<g style="fill:rgb(0%,0%,0%);fill-opacity:1;">
  <use xlink:href="#id2" x="102.160156" y="64.664062"/>
</g>
<path style=" stroke:none;fill-rule:nonzero;fill:rgb(88.0722%,61.1041%,14.2051%);fill-opacity:0.5;" d="M 124.066406 188.058594 L 8.761719 6.691406 L 215.472656 180.800781 Z M 124.066406 188.058594 "/>
<g style="fill:rgb(0%,0%,0%);fill-opacity:1;">
  <use xlink:href="#id3" x="113.789062" y="128.894531"/>
</g>
<path style=" stroke:none;fill-rule:nonzero;fill:rgb(56.0181%,69.1569%,19.4885%);fill-opacity:0.5;" d="M 124.066406 188.058594 L 215.472656 180.800781 L 92.667969 353.121094 Z M 124.066406 188.058594 "/>
<g style="fill:rgb(0%,0%,0%);fill-opacity:1;">
  <use xlink:href="#id4" x="141.671875" y="244.441406"/>
</g>
<path style=" stroke:none;fill-rule:nonzero;fill:rgb(92.2526%,38.5626%,20.9179%);fill-opacity:0.5;" d="M 124.066406 188.058594 L 92.667969 353.121094 L 7.492188 356.53125 Z M 124.066406 188.058594 "/>
<g style="fill:rgb(0%,0%,0%);fill-opacity:1;">
  <use xlink:href="#id5" x="72.085938" y="302.882812"/>
</g>
<path style="fill:none;stroke-width:0.5;stroke-linecap:butt;stroke-linejoin:miter;stroke:rgb(0%,0%,0%);stroke-opacity:1;stroke-miterlimit:10;" d="M -1.238281 -3.308594 L 78.761719 -14.433594 " transform="matrix(1,0,0,1,10,10)"/>
<path style="fill:none;stroke-width:0.5;stroke-linecap:butt;stroke-linejoin:miter;stroke:rgb(0%,0%,0%);stroke-opacity:1;stroke-miterlimit:10;" d="M 78.761719 -14.433594 L 205.472656 170.800781 " transform="matrix(1,0,0,1,10,10)"/>
<path style="fill:none;stroke-width:0.5;stroke-linecap:butt;stroke-linejoin:miter;stroke:rgb(0%,0%,0%);stroke-opacity:1;stroke-miterlimit:10;" d="M -1.238281 -3.308594 L 205.472656 170.800781 " transform="matrix(1,0,0,1,10,10)"/>
<path style="fill:none;stroke-width:0.5;stroke-linecap:butt;stroke-linejoin:miter;stroke:rgb(0%,0%,0%);stroke-opacity:1;stroke-miterlimit:10;" d="M -1.238281 -3.308594 L 114.066406 178.058594 " transform="matrix(1,0,0,1,10,10)"/>
<path style="fill:none;stroke-width:0.5;stroke-linecap:butt;stroke-linejoin:miter;stroke:rgb(0%,0%,0%);stroke-opacity:1;stroke-miterlimit:10;" d="M 114.066406 178.058594 L 205.472656 170.800781 " transform="matrix(1,0,0,1,10,10)"/>
<path style="fill:none;stroke-width:0.5;stroke-linecap:butt;stroke-linejoin:miter;stroke:rgb(0%,0%,0%);stroke-opacity:1;stroke-miterlimit:10;" d="M 82.667969 343.121094 L 205.472656 170.800781 " transform="matrix(1,0,0,1,10,10)"/>
<path style="fill:none;stroke-width:0.5;stroke-linecap:butt;stroke-linejoin:miter;stroke:rgb(0%,0%,0%);stroke-opacity:1;stroke-miterlimit:10;" d="M 82.667969 343.121094 L 114.066406 178.058594 " transform="matrix(1,0,0,1,10,10)"/>
<path style="fill:none;stroke-width:0.5;stroke-linecap:butt;stroke-linejoin:miter;stroke:rgb(0%,0%,0%);stroke-opacity:1;stroke-miterlimit:10;" d="M -2.507812 346.53125 L 82.667969 343.121094 " transform="matrix(1,0,0,1,10,10)"/>
<path style="fill:none;stroke-width:0.5;stroke-linecap:butt;stroke-linejoin:miter;stroke:rgb(0%,0%,0%);stroke-opacity:1;stroke-miterlimit:10;" d="M -2.507812 346.53125 L 114.066406 178.058594 " transform="matrix(1,0,0,1,10,10)"/>
<path style=" stroke:none;fill-rule:nonzero;fill:rgb(36.8417%,50.6779%,70.9798%);fill-opacity:0.5;" d="M 117.367188 10.785156 L 214.96875 9.820312 L 440.667969 354.757812 Z M 117.367188 10.785156 "/>
<g style="fill:rgb(0%,0%,0%);fill-opacity:1;">
  <use xlink:href="#id2" x="255.496094" y="128.765625"/>
</g>
<path style=" stroke:none;fill-rule:nonzero;fill:rgb(88.0722%,61.1041%,14.2051%);fill-opacity:0.5;" d="M 227.777344 177.875 L 117.367188 10.785156 L 440.667969 354.757812 Z M 227.777344 177.875 "/>
<g style="fill:rgb(0%,0%,0%);fill-opacity:1;">
  <use xlink:href="#id3" x="259.625" y="184.851562"/>
</g>
<path style=" stroke:none;fill-rule:nonzero;fill:rgb(56.0181%,69.1569%,19.4885%);fill-opacity:0.5;" d="M 206.429688 350.894531 L 115.9375 354.898438 L 227.777344 177.875 Z M 206.429688 350.894531 "/>
<g style="fill:rgb(0%,0%,0%);fill-opacity:1;">
  <use xlink:href="#id4" x="180.984375" y="298.335938"/>
</g>
<path style=" stroke:none;fill-rule:nonzero;fill:rgb(92.2526%,38.5626%,20.9179%);fill-opacity:0.5;" d="M 283.484375 238.421875 L 206.429688 350.894531 L 227.777344 177.875 Z M 283.484375 238.421875 "/>
<g style="fill:rgb(0%,0%,0%);fill-opacity:1;">
  <use xlink:href="#id5" x="236.574219" y="259.375"/>
</g>
<path style=" stroke:none;fill-rule:nonzero;fill:rgb(52.8488%,47.0624%,70.1351%);fill-opacity:0.5;" d="M 440.667969 354.757812 L 342.746094 338.507812 L 283.484375 238.421875 Z M 440.667969 354.757812 "/>
<g style="fill:rgb(0%,0%,0%);fill-opacity:1;">
  <use xlink:href="#id6" x="353.273438" y="314.277344"/>
</g>
<path style=" stroke:none;fill-rule:nonzero;fill:rgb(77.2079%,43.1554%,10.2387%);fill-opacity:0.5;" d="M 440.667969 354.757812 L 283.484375 238.421875 L 227.777344 177.875 Z M 440.667969 354.757812 "/>
<g style="fill:rgb(0%,0%,0%);fill-opacity:1;">
  <use xlink:href="#id7" x="314.792969" y="260.796875"/>
</g>
<path style="fill:none;stroke-width:0.5;stroke-linecap:butt;stroke-linejoin:miter;stroke:rgb(0%,0%,0%);stroke-opacity:1;stroke-miterlimit:10;" d="M 107.367188 0.785156 L 204.96875 -0.179688 " transform="matrix(1,0,0,1,10,10)"/>
<path style="fill:none;stroke-width:0.5;stroke-linecap:butt;stroke-linejoin:miter;stroke:rgb(0%,0%,0%);stroke-opacity:1;stroke-miterlimit:10;" d="M 204.96875 -0.179688 L 430.667969 344.757812 " transform="matrix(1,0,0,1,10,10)"/>
<path style="fill:none;stroke-width:0.5;stroke-linecap:butt;stroke-linejoin:miter;stroke:rgb(0%,0%,0%);stroke-opacity:1;stroke-miterlimit:10;" d="M 107.367188 0.785156 L 430.667969 344.757812 " transform="matrix(1,0,0,1,10,10)"/>
<path style="fill:none;stroke-width:0.5;stroke-linecap:butt;stroke-linejoin:miter;stroke:rgb(0%,0%,0%);stroke-opacity:1;stroke-miterlimit:10;" d="M 107.367188 0.785156 L 217.777344 167.875 " transform="matrix(1,0,0,1,10,10)"/>
<path style="fill:none;stroke-width:0.5;stroke-linecap:butt;stroke-linejoin:miter;stroke:rgb(0%,0%,0%);stroke-opacity:1;stroke-miterlimit:10;" d="M 217.777344 167.875 L 430.667969 344.757812 " transform="matrix(1,0,0,1,10,10)"/>
<path style="fill:none;stroke-width:0.5;stroke-linecap:butt;stroke-linejoin:miter;stroke:rgb(0%,0%,0%);stroke-opacity:1;stroke-miterlimit:10;" d="M 105.9375 344.898438 L 196.429688 340.894531 " transform="matrix(1,0,0,1,10,10)"/>
<path style="fill:none;stroke-width:0.5;stroke-linecap:butt;stroke-linejoin:miter;stroke:rgb(0%,0%,0%);stroke-opacity:1;stroke-miterlimit:10;" d="M 105.9375 344.898438 L 217.777344 167.875 " transform="matrix(1,0,0,1,10,10)"/>
<path style="fill:none;stroke-width:0.5;stroke-linecap:butt;stroke-linejoin:miter;stroke:rgb(0%,0%,0%);stroke-opacity:1;stroke-miterlimit:10;" d="M 196.429688 340.894531 L 217.777344 167.875 " transform="matrix(1,0,0,1,10,10)"/>
<path style="fill:none;stroke-width:0.5;stroke-linecap:butt;stroke-linejoin:miter;stroke:rgb(0%,0%,0%);stroke-opacity:1;stroke-miterlimit:10;" d="M 196.429688 340.894531 L 273.484375 228.421875 " transform="matrix(1,0,0,1,10,10)"/>
<path style="fill:none;stroke-width:0.5;stroke-linecap:butt;stroke-linejoin:miter;stroke:rgb(0%,0%,0%);stroke-opacity:1;stroke-miterlimit:10;" d="M 217.777344 167.875 L 273.484375 228.421875 " transform="matrix(1,0,0,1,10,10)"/>
<path style="fill:none;stroke-width:0.5;stroke-linecap:butt;stroke-linejoin:miter;stroke:rgb(0%,0%,0%);stroke-opacity:1;stroke-miterlimit:10;" d="M 332.746094 328.507812 L 430.667969 344.757812 " transform="matrix(1,0,0,1,10,10)"/>
<path style="fill:none;stroke-width:0.5;stroke-linecap:butt;stroke-linejoin:miter;stroke:rgb(0%,0%,0%);stroke-opacity:1;stroke-miterlimit:10;" d="M 273.484375 228.421875 L 332.746094 328.507812 " transform="matrix(1,0,0,1,10,10)"/>
<path style="fill:none;stroke-width:0.5;stroke-linecap:butt;stroke-linejoin:miter;stroke:rgb(0%,0%,0%);stroke-opacity:1;stroke-miterlimit:10;" d="M 273.484375 228.421875 L 430.667969 344.757812 " transform="matrix(1,0,0,1,10,10)"/>
<path style=" stroke:none;fill-rule:nonzero;fill:rgb(36.8417%,50.6779%,70.9798%);fill-opacity:0.5;" d="M 308.742188 110.832031 L 483.28125 102.523438 L 488.726562 160.003906 Z M 308.742188 110.832031 "/>
<g style="fill:rgb(0%,0%,0%);fill-opacity:1;">
  <use xlink:href="#id2" x="424.746094" y="128.097656"/>
</g>
<path style=" stroke:none;fill-rule:nonzero;fill:rgb(88.0722%,61.1041%,14.2051%);fill-opacity:0.5;" d="M 308.742188 110.832031 L 488.726562 160.003906 L 345.148438 156.429688 Z M 308.742188 110.832031 "/>
<g style="fill:rgb(0%,0%,0%);fill-opacity:1;">
  <use xlink:href="#id3" x="378.558594" y="146.132812"/>
</g>
<path style="fill:none;stroke-width:0.5;stroke-linecap:butt;stroke-linejoin:miter;stroke:rgb(0%,0%,0%);stroke-opacity:1;stroke-miterlimit:10;" d="M 298.742188 100.832031 L 473.28125 92.523438 " transform="matrix(1,0,0,1,10,10)"/>
<path style="fill:none;stroke-width:0.5;stroke-linecap:butt;stroke-linejoin:miter;stroke:rgb(0%,0%,0%);stroke-opacity:1;stroke-miterlimit:10;" d="M 473.28125 92.523438 L 478.726562 150.003906 " transform="matrix(1,0,0,1,10,10)"/>
<path style="fill:none;stroke-width:0.5;stroke-linecap:butt;stroke-linejoin:miter;stroke:rgb(0%,0%,0%);stroke-opacity:1;stroke-miterlimit:10;" d="M 298.742188 100.832031 L 478.726562 150.003906 " transform="matrix(1,0,0,1,10,10)"/>
<path style="fill:none;stroke-width:0.5;stroke-linecap:butt;stroke-linejoin:miter;stroke:rgb(0%,0%,0%);stroke-opacity:1;stroke-miterlimit:10;" d="M 335.148438 146.429688 L 478.726562 150.003906 " transform="matrix(1,0,0,1,10,10)"/>
<path style="fill:none;stroke-width:0.5;stroke-linecap:butt;stroke-linejoin:miter;stroke:rgb(0%,0%,0%);stroke-opacity:1;stroke-miterlimit:10;" d="M 298.742188 100.832031 L 335.148438 146.429688 " transform="matrix(1,0,0,1,10,10)"/>
<path style=" stroke:none;fill-rule:nonzero;fill:rgb(36.8417%,50.6779%,70.9798%);fill-opacity:0.5;" d="M 361.402344 196.953125 L 481.804688 194.195312 L 490 249.15625 Z M 361.402344 196.953125 "/>
<g style="fill:rgb(0%,0%,0%);fill-opacity:1;">
  <use xlink:href="#id2" x="442.230469" y="217.082031"/>
</g>
<path style=" stroke:none;fill-rule:nonzero;fill:rgb(88.0722%,61.1041%,14.2051%);fill-opacity:0.5;" d="M 361.402344 196.953125 L 490 249.15625 L 396.824219 244.628906 Z M 361.402344 196.953125 "/>
<g style="fill:rgb(0%,0%,0%);fill-opacity:1;">
  <use xlink:href="#id3" x="413.761719" y="233.957031"/>
</g>
<path style="fill:none;stroke-width:0.5;stroke-linecap:butt;stroke-linejoin:miter;stroke:rgb(0%,0%,0%);stroke-opacity:1;stroke-miterlimit:10;" d="M 351.402344 186.953125 L 471.804688 184.195312 " transform="matrix(1,0,0,1,10,10)"/>
<path style="fill:none;stroke-width:0.5;stroke-linecap:butt;stroke-linejoin:miter;stroke:rgb(0%,0%,0%);stroke-opacity:1;stroke-miterlimit:10;" d="M 471.804688 184.195312 L 480 239.15625 " transform="matrix(1,0,0,1,10,10)"/>
<path style="fill:none;stroke-width:0.5;stroke-linecap:butt;stroke-linejoin:miter;stroke:rgb(0%,0%,0%);stroke-opacity:1;stroke-miterlimit:10;" d="M 351.402344 186.953125 L 480 239.15625 " transform="matrix(1,0,0,1,10,10)"/>
<path style="fill:none;stroke-width:0.5;stroke-linecap:butt;stroke-linejoin:miter;stroke:rgb(0%,0%,0%);stroke-opacity:1;stroke-miterlimit:10;" d="M 386.824219 234.628906 L 480 239.15625 " transform="matrix(1,0,0,1,10,10)"/>
<path style="fill:none;stroke-width:0.5;stroke-linecap:butt;stroke-linejoin:miter;stroke:rgb(0%,0%,0%);stroke-opacity:1;stroke-miterlimit:10;" d="M 351.402344 186.953125 L 386.824219 234.628906 " transform="matrix(1,0,0,1,10,10)"/>
</g>
</svg>
