<?xml version="1.0" encoding="UTF-8"?>
<svg xmlns="http://www.w3.org/2000/svg" xmlns:xlink="http://www.w3.org/1999/xlink" width="220pt" height="140pt" viewBox="0 0 220 140" version="1.1">
<g id="id1">
<path style="fill-rule:nonzero;fill:rgb(50.196078%,50.196078%,50.196078%);fill-opacity:1;stroke-width:0.2;stroke-linecap:butt;stroke-linejoin:miter;stroke:rgb(0%,0%,0%);stroke-opacity:1;stroke-miterlimit:10;" d="M 0 0 L 16 0 L 16 16 L 0 16 Z M 0 0 " transform="matrix(1,0,0,1,2,2)"/>
<path style="fill-rule:nonzero;fill:rgb(47.803901%,47.803901%,57.872284%);fill-opacity:1;stroke-width:0.2;stroke-linecap:butt;stroke-linejoin:miter;stroke:rgb(0%,0%,0%);stroke-opacity:1;stroke-miterlimit:10;" d="M 0 0 L 16 0 L 16 16 L 0 16 Z M 0 0 " transform="matrix(1,0,0,1,22,2)"/>
<path style="fill-rule:nonzero;fill:rgb(45.251098%,45.251098%,64.42727%);fill-opacity:1;stroke-width:0.2;stroke-linecap:butt;stroke-linejoin:miter;stroke:rgb(0%,0%,0%);stroke-opacity:1;stroke-miterlimit:10;" d="M 0 0 L 16 0 L 16 16 L 0 16 Z M 0 0 " transform="matrix(1,0,0,1,42,2)"/>
<path style="fill-rule:nonzero;fill:rgb(42.50452%,42.50452%,70.218223%);fill-opacity:1;stroke-width:0.2;stroke-linecap:butt;stroke-linejoin:miter;stroke:rgb(0%,0%,0%);stroke-opacity:1;stroke-miterlimit:10;" d="M 0 0 L 16 0 L 16 16 L 0 16 Z M 0 0 " transform="matrix(1,0,0,1,62,2)"/>
<path style="fill-rule:nonzero;fill:rgb(39.518149%,39.518149%,75.447265%);fill-opacity:1;stroke-width:0.2;stroke-linecap:butt;stroke-linejoin:miter;stroke:rgb(0%,0%,0%);stroke-opacity:1;stroke-miterlimit:10;" d="M 0 0 L 16 0 L 16 16 L 0 16 Z M 0 0 " transform="matrix(1,0,0,1,82,2)"/>
<path style="fill-rule:nonzero;fill:rgb(36.224914%,36.224914%,80.241588%);fill-opacity:1;stroke-width:0.2;stroke-linecap:butt;stroke-linejoin:miter;stroke:rgb(0%,0%,0%);stroke-opacity:1;stroke-miterlimit:10;" d="M 0 0 L 16 0 L 16 16 L 0 16 Z M 0 0 " transform="matrix(1,0,0,1,102,2)"/>
<path style="fill-rule:nonzero;fill:rgb(32.520365%,32.520365%,84.687209%);fill-opacity:1;stroke-width:0.2;stroke-linecap:butt;stroke-linejoin:miter;stroke:rgb(0%,0%,0%);stroke-opacity:1;stroke-miterlimit:10;" d="M 0 0 L 16 0 L 16 16 L 0 16 Z M 0 0 " transform="matrix(1,0,0,1,122,2)"/>
<path style="fill-rule:nonzero;fill:rgb(28.225506%,28.225506%,88.845424%);fill-opacity:1;stroke-width:0.2;stroke-linecap:butt;stroke-linejoin:miter;stroke:rgb(0%,0%,0%);stroke-opacity:1;stroke-miterlimit:10;" d="M 0 0 L 16 0 L 16 16 L 0 16 Z M 0 0 " transform="matrix(1,0,0,1,142,2)"/>
<path style="fill-rule:nonzero;fill:rgb(22.983091%,22.983091%,92.761688%);fill-opacity:1;stroke-width:0.2;stroke-linecap:butt;stroke-linejoin:miter;stroke:rgb(0%,0%,0%);stroke-opacity:1;stroke-miterlimit:10;" d="M 0 0 L 16 0 L 16 16 L 0 16 Z M 0 0 " transform="matrix(1,0,0,1,162,2)"/>
<path style="fill-rule:nonzero;fill:rgb(15.838208%,15.838208%,96.470782%);fill-opacity:1;stroke-width:0.2;stroke-linecap:butt;stroke-linejoin:miter;stroke:rgb(0%,0%,0%);stroke-opacity:1;stroke-miterlimit:10;" d="M 0 0 L 16 0 L 16 16 L 0 16 Z M 0 0 " transform="matrix(1,0,0,1,182,2)"/>
<path style="fill-rule:nonzero;fill:rgb(0%,0%,100%);fill-opacity:1;stroke-width:0.2;stroke-linecap:butt;stroke-linejoin:miter;stroke:rgb(0%,0%,0%);stroke-opacity:1;stroke-miterlimit:10;" d="M 0 0 L 16 0 L 16 16 L 0 16 Z M 0 0 " transform="matrix(1,0,0,1,202,2)"/>
<path style="fill-rule:nonzero;fill:rgb(50.196078%,0%,0%);fill-opacity:1;stroke-width:0.2;stroke-linecap:butt;stroke-linejoin:miter;stroke:rgb(0%,0%,0%);stroke-opacity:1;stroke-miterlimit:10;" d="M 0 0 L 16 0 L 16 16 L 0 16 Z M 0 0 " transform="matrix(1,0,0,1,2,22)"/>
<path style="fill-rule:nonzero;fill:rgb(47.803901%,0%,34.919021%);fill-opacity:1;stroke-width:0.2;stroke-linecap:butt;stroke-linejoin:miter;stroke:rgb(0%,0%,0%);stroke-opacity:1;stroke-miterlimit:10;" d="M 0 0 L 16 0 L 16 16 L 0 16 Z M 0 0 " transform="matrix(1,0,0,1,22,22)"/>
<path style="fill-rule:nonzero;fill:rgb(45.251098%,0%,48.45292%);fill-opacity:1;stroke-width:0.2;stroke-linecap:butt;stroke-linejoin:miter;stroke:rgb(0%,0%,0%);stroke-opacity:1;stroke-miterlimit:10;" d="M 0 0 L 16 0 L 16 16 L 0 16 Z M 0 0 " transform="matrix(1,0,0,1,42,22)"/>
<path style="fill-rule:nonzero;fill:rgb(42.50452%,0%,58.383149%);fill-opacity:1;stroke-width:0.2;stroke-linecap:butt;stroke-linejoin:miter;stroke:rgb(0%,0%,0%);stroke-opacity:1;stroke-miterlimit:10;" d="M 0 0 L 16 0 L 16 16 L 0 16 Z M 0 0 " transform="matrix(1,0,0,1,62,22)"/>
<path style="fill-rule:nonzero;fill:rgb(39.518149%,0%,66.518508%);fill-opacity:1;stroke-width:0.2;stroke-linecap:butt;stroke-linejoin:miter;stroke:rgb(0%,0%,0%);stroke-opacity:1;stroke-miterlimit:10;" d="M 0 0 L 16 0 L 16 16 L 0 16 Z M 0 0 " transform="matrix(1,0,0,1,82,22)"/>
<path style="fill-rule:nonzero;fill:rgb(36.224914%,0%,73.535698%);fill-opacity:1;stroke-width:0.2;stroke-linecap:butt;stroke-linejoin:miter;stroke:rgb(0%,0%,0%);stroke-opacity:1;stroke-miterlimit:10;" d="M 0 0 L 16 0 L 16 16 L 0 16 Z M 0 0 " transform="matrix(1,0,0,1,102,22)"/>
<path style="fill-rule:nonzero;fill:rgb(32.520365%,0%,79.773773%);fill-opacity:1;stroke-width:0.2;stroke-linecap:butt;stroke-linejoin:miter;stroke:rgb(0%,0%,0%);stroke-opacity:1;stroke-miterlimit:10;" d="M 0 0 L 16 0 L 16 16 L 0 16 Z M 0 0 " transform="matrix(1,0,0,1,122,22)"/>
<path style="fill-rule:nonzero;fill:rgb(28.225506%,0%,85.430583%);fill-opacity:1;stroke-width:0.2;stroke-linecap:butt;stroke-linejoin:miter;stroke:rgb(0%,0%,0%);stroke-opacity:1;stroke-miterlimit:10;" d="M 0 0 L 16 0 L 16 16 L 0 16 Z M 0 0 " transform="matrix(1,0,0,1,142,22)"/>
<path style="fill-rule:nonzero;fill:rgb(22.983091%,0%,90.633175%);fill-opacity:1;stroke-width:0.2;stroke-linecap:butt;stroke-linejoin:miter;stroke:rgb(0%,0%,0%);stroke-opacity:1;stroke-miterlimit:10;" d="M 0 0 L 16 0 L 16 16 L 0 16 Z M 0 0 " transform="matrix(1,0,0,1,162,22)"/>
<path style="fill-rule:nonzero;fill:rgb(15.838208%,0%,95.468717%);fill-opacity:1;stroke-width:0.2;stroke-linecap:butt;stroke-linejoin:miter;stroke:rgb(0%,0%,0%);stroke-opacity:1;stroke-miterlimit:10;" d="M 0 0 L 16 0 L 16 16 L 0 16 Z M 0 0 " transform="matrix(1,0,0,1,182,22)"/>
<path style="fill-rule:nonzero;fill:rgb(0%,0%,100%);fill-opacity:1;stroke-width:0.2;stroke-linecap:butt;stroke-linejoin:miter;stroke:rgb(0%,0%,0%);stroke-opacity:1;stroke-miterlimit:10;" d="M 0 0 L 16 0 L 16 16 L 0 16 Z M 0 0 " transform="matrix(1,0,0,1,202,22)"/>
<path style="fill-rule:nonzero;fill:rgb(50.196078%,50.196078%,0%);fill-opacity:1;stroke-width:0.2;stroke-linecap:butt;stroke-linejoin:miter;stroke:rgb(0%,0%,0%);stroke-opacity:1;stroke-miterlimit:10;" d="M 0 0 L 16 0 L 16 16 L 0 16 Z M 0 0 " transform="matrix(1,0,0,1,2,42)"/>
<path style="fill-rule:nonzero;fill:rgb(47.803901%,47.803901%,34.919021%);fill-opacity:1;stroke-width:0.2;stroke-linecap:butt;stroke-linejoin:miter;stroke:rgb(0%,0%,0%);stroke-opacity:1;stroke-miterlimit:10;" d="M 0 0 L 16 0 L 16 16 L 0 16 Z M 0 0 " transform="matrix(1,0,0,1,22,42)"/>
<path style="fill-rule:nonzero;fill:rgb(45.251098%,45.251098%,48.45292%);fill-opacity:1;stroke-width:0.2;stroke-linecap:butt;stroke-linejoin:miter;stroke:rgb(0%,0%,0%);stroke-opacity:1;stroke-miterlimit:10;" d="M 0 0 L 16 0 L 16 16 L 0 16 Z M 0 0 " transform="matrix(1,0,0,1,42,42)"/>
<path style="fill-rule:nonzero;fill:rgb(42.50452%,42.50452%,58.383149%);fill-opacity:1;stroke-width:0.2;stroke-linecap:butt;stroke-linejoin:miter;stroke:rgb(0%,0%,0%);stroke-opacity:1;stroke-miterlimit:10;" d="M 0 0 L 16 0 L 16 16 L 0 16 Z M 0 0 " transform="matrix(1,0,0,1,62,42)"/>
<path style="fill-rule:nonzero;fill:rgb(39.518149%,39.518149%,66.518508%);fill-opacity:1;stroke-width:0.2;stroke-linecap:butt;stroke-linejoin:miter;stroke:rgb(0%,0%,0%);stroke-opacity:1;stroke-miterlimit:10;" d="M 0 0 L 16 0 L 16 16 L 0 16 Z M 0 0 " transform="matrix(1,0,0,1,82,42)"/>
<path style="fill-rule:nonzero;fill:rgb(36.224914%,36.224914%,73.535698%);fill-opacity:1;stroke-width:0.2;stroke-linecap:butt;stroke-linejoin:miter;stroke:rgb(0%,0%,0%);stroke-opacity:1;stroke-miterlimit:10;" d="M 0 0 L 16 0 L 16 16 L 0 16 Z M 0 0 " transform="matrix(1,0,0,1,102,42)"/>
<path style="fill-rule:nonzero;fill:rgb(32.520365%,32.520365%,79.773773%);fill-opacity:1;stroke-width:0.2;stroke-linecap:butt;stroke-linejoin:miter;stroke:rgb(0%,0%,0%);stroke-opacity:1;stroke-miterlimit:10;" d="M 0 0 L 16 0 L 16 16 L 0 16 Z M 0 0 " transform="matrix(1,0,0,1,122,42)"/>
<path style="fill-rule:nonzero;fill:rgb(28.225506%,28.225506%,85.430583%);fill-opacity:1;stroke-width:0.2;stroke-linecap:butt;stroke-linejoin:miter;stroke:rgb(0%,0%,0%);stroke-opacity:1;stroke-miterlimit:10;" d="M 0 0 L 16 0 L 16 16 L 0 16 Z M 0 0 " transform="matrix(1,0,0,1,142,42)"/>
<path style="fill-rule:nonzero;fill:rgb(22.983091%,22.983091%,90.633175%);fill-opacity:1;stroke-width:0.2;stroke-linecap:butt;stroke-linejoin:miter;stroke:rgb(0%,0%,0%);stroke-opacity:1;stroke-miterlimit:10;" d="M 0 0 L 16 0 L 16 16 L 0 16 Z M 0 0 " transform="matrix(1,0,0,1,162,42)"/>
<path style="fill-rule:nonzero;fill:rgb(15.838208%,15.838208%,95.468717%);fill-opacity:1;stroke-width:0.2;stroke-linecap:butt;stroke-linejoin:miter;stroke:rgb(0%,0%,0%);stroke-opacity:1;stroke-miterlimit:10;" d="M 0 0 L 16 0 L 16 16 L 0 16 Z M 0 0 " transform="matrix(1,0,0,1,182,42)"/>
<path style="fill-rule:nonzero;fill:rgb(0%,0%,100%);fill-opacity:1;stroke-width:0.2;stroke-linecap:butt;stroke-linejoin:miter;stroke:rgb(0%,0%,0%);stroke-opacity:1;stroke-miterlimit:10;" d="M 0 0 L 16 0 L 16 16 L 0 16 Z M 0 0 " transform="matrix(1,0,0,1,202,42)"/>
<path style="fill-rule:nonzero;fill:rgb(0%,50.196078%,0%);fill-opacity:1;stroke-width:0.2;stroke-linecap:butt;stroke-linejoin:miter;stroke:rgb(0%,0%,0%);stroke-opacity:1;stroke-miterlimit:10;" d="M 0 0 L 16 0 L 16 16 L 0 16 Z M 0 0 " transform="matrix(1,0,0,1,2,62)"/>
<path style="fill-rule:nonzero;fill:rgb(0%,47.803901%,34.919021%);fill-opacity:1;stroke-width:0.2;stroke-linecap:butt;stroke-linejoin:miter;stroke:rgb(0%,0%,0%);stroke-opacity:1;stroke-miterlimit:10;" d="M 0 0 L 16 0 L 16 16 L 0 16 Z M 0 0 " transform="matrix(1,0,0,1,22,62)"/>
<path style="fill-rule:nonzero;fill:rgb(0%,45.251098%,48.45292%);fill-opacity:1;stroke-width:0.2;stroke-linecap:butt;stroke-linejoin:miter;stroke:rgb(0%,0%,0%);stroke-opacity:1;stroke-miterlimit:10;" d="M 0 0 L 16 0 L 16 16 L 0 16 Z M 0 0 " transform="matrix(1,0,0,1,42,62)"/>
<path style="fill-rule:nonzero;fill:rgb(0%,42.50452%,58.383149%);fill-opacity:1;stroke-width:0.2;stroke-linecap:butt;stroke-linejoin:miter;stroke:rgb(0%,0%,0%);stroke-opacity:1;stroke-miterlimit:10;" d="M 0 0 L 16 0 L 16 16 L 0 16 Z M 0 0 " transform="matrix(1,0,0,1,62,62)"/>
<path style="fill-rule:nonzero;fill:rgb(0%,39.518149%,66.518508%);fill-opacity:1;stroke-width:0.2;stroke-linecap:butt;stroke-linejoin:miter;stroke:rgb(0%,0%,0%);stroke-opacity:1;stroke-miterlimit:10;" d="M 0 0 L 16 0 L 16 16 L 0 16 Z M 0 0 " transform="matrix(1,0,0,1,82,62)"/>
<path style="fill-rule:nonzero;fill:rgb(0%,36.224914%,73.535698%);fill-opacity:1;stroke-width:0.2;stroke-linecap:butt;stroke-linejoin:miter;stroke:rgb(0%,0%,0%);stroke-opacity:1;stroke-miterlimit:10;" d="M 0 0 L 16 0 L 16 16 L 0 16 Z M 0 0 " transform="matrix(1,0,0,1,102,62)"/>
<path style="fill-rule:nonzero;fill:rgb(0%,32.520365%,79.773773%);fill-opacity:1;stroke-width:0.2;stroke-linecap:butt;stroke-linejoin:miter;stroke:rgb(0%,0%,0%);stroke-opacity:1;stroke-miterlimit:10;" d="M 0 0 L 16 0 L 16 16 L 0 16 Z M 0 0 " transform="matrix(1,0,0,1,122,62)"/>
<path style="fill-rule:nonzero;fill:rgb(0%,28.225506%,85.430583%);fill-opacity:1;stroke-width:0.2;stroke-linecap:butt;stroke-linejoin:miter;stroke:rgb(0%,0%,0%);stroke-opacity:1;stroke-miterlimit:10;" d="M 0 0 L 16 0 L 16 16 L 0 16 Z M 0 0 " transform="matrix(1,0,0,1,142,62)"/>
<path style="fill-rule:nonzero;fill:rgb(0%,22.983091%,90.633175%);fill-opacity:1;stroke-width:0.2;stroke-linecap:butt;stroke-linejoin:miter;stroke:rgb(0%,0%,0%);stroke-opacity:1;stroke-miterlimit:10;" d="M 0 0 L 16 0 L 16 16 L 0 16 Z M 0 0 " transform="matrix(1,0,0,1,162,62)"/>
<path style="fill-rule:nonzero;fill:rgb(0%,15.838208%,95.468717%);fill-opacity:1;stroke-width:0.2;stroke-linecap:butt;stroke-linejoin:miter;stroke:rgb(0%,0%,0%);stroke-opacity:1;stroke-miterlimit:10;" d="M 0 0 L 16 0 L 16 16 L 0 16 Z M 0 0 " transform="matrix(1,0,0,1,182,62)"/>
<path style="fill-rule:nonzero;fill:rgb(0%,0%,100%);fill-opacity:1;stroke-width:0.2;stroke-linecap:butt;stroke-linejoin:miter;stroke:rgb(0%,0%,0%);stroke-opacity:1;stroke-miterlimit:10;" d="M 0 0 L 16 0 L 16 16 L 0 16 Z M 0 0 " transform="matrix(1,0,0,1,202,62)"/>
<path style="fill-rule:nonzero;fill:rgb(0%,50.196078%,50.196078%);fill-opacity:1;stroke-width:0.2;stroke-linecap:butt;stroke-linejoin:miter;stroke:rgb(0%,0%,0%);stroke-opacity:1;stroke-miterlimit:10;" d="M 0 0 L 16 0 L 16 16 L 0 16 Z M 0 0 " transform="matrix(1,0,0,1,2,82)"/>
<path style="fill-rule:nonzero;fill:rgb(0%,47.803901%,57.872284%);fill-opacity:1;stroke-width:0.2;stroke-linecap:butt;stroke-linejoin:miter;stroke:rgb(0%,0%,0%);stroke-opacity:1;stroke-miterlimit:10;" d="M 0 0 L 16 0 L 16 16 L 0 16 Z M 0 0 " transform="matrix(1,0,0,1,22,82)"/>
<path style="fill-rule:nonzero;fill:rgb(0%,45.251098%,64.42727%);fill-opacity:1;stroke-width:0.2;stroke-linecap:butt;stroke-linejoin:miter;stroke:rgb(0%,0%,0%);stroke-opacity:1;stroke-miterlimit:10;" d="M 0 0 L 16 0 L 16 16 L 0 16 Z M 0 0 " transform="matrix(1,0,0,1,42,82)"/>
<path style="fill-rule:nonzero;fill:rgb(0%,42.50452%,70.218223%);fill-opacity:1;stroke-width:0.2;stroke-linecap:butt;stroke-linejoin:miter;stroke:rgb(0%,0%,0%);stroke-opacity:1;stroke-miterlimit:10;" d="M 0 0 L 16 0 L 16 16 L 0 16 Z M 0 0 " transform="matrix(1,0,0,1,62,82)"/>
<path style="fill-rule:nonzero;fill:rgb(0%,39.518149%,75.447265%);fill-opacity:1;stroke-width:0.2;stroke-linecap:butt;stroke-linejoin:miter;stroke:rgb(0%,0%,0%);stroke-opacity:1;stroke-miterlimit:10;" d="M 0 0 L 16 0 L 16 16 L 0 16 Z M 0 0 " transform="matrix(1,0,0,1,82,82)"/>
<path style="fill-rule:nonzero;fill:rgb(0%,36.224914%,80.241588%);fill-opacity:1;stroke-width:0.2;stroke-linecap:butt;stroke-linejoin:miter;stroke:rgb(0%,0%,0%);stroke-opacity:1;stroke-miterlimit:10;" d="M 0 0 L 16 0 L 16 16 L 0 16 Z M 0 0 " transform="matrix(1,0,0,1,102,82)"/>
<path style="fill-rule:nonzero;fill:rgb(0%,32.520365%,84.687209%);fill-opacity:1;stroke-width:0.2;stroke-linecap:butt;stroke-linejoin:miter;stroke:rgb(0%,0%,0%);stroke-opacity:1;stroke-miterlimit:10;" d="M 0 0 L 16 0 L 16 16 L 0 16 Z M 0 0 " transform="matrix(1,0,0,1,122,82)"/>
<path style="fill-rule:nonzero;fill:rgb(0%,28.225506%,88.845424%);fill-opacity:1;stroke-width:0.2;stroke-linecap:butt;stroke-linejoin:miter;stroke:rgb(0%,0%,0%);stroke-opacity:1;stroke-miterlimit:10;" d="M 0 0 L 16 0 L 16 16 L 0 16 Z M 0 0 " transform="matrix(1,0,0,1,142,82)"/>
<path style="fill-rule:nonzero;fill:rgb(0%,22.983091%,92.761688%);fill-opacity:1;stroke-width:0.2;stroke-linecap:butt;stroke-linejoin:miter;stroke:rgb(0%,0%,0%);stroke-opacity:1;stroke-miterlimit:10;" d="M 0 0 L 16 0 L 16 16 L 0 16 Z M 0 0 " transform="matrix(1,0,0,1,162,82)"/>
<path style="fill-rule:nonzero;fill:rgb(0%,15.838208%,96.470782%);fill-opacity:1;stroke-width:0.2;stroke-linecap:butt;stroke-linejoin:miter;stroke:rgb(0%,0%,0%);stroke-opacity:1;stroke-miterlimit:10;" d="M 0 0 L 16 0 L 16 16 L 0 16 Z M 0 0 " transform="matrix(1,0,0,1,182,82)"/>
<path style="fill-rule:nonzero;fill:rgb(0%,0%,100%);fill-opacity:1;stroke-width:0.2;stroke-linecap:butt;stroke-linejoin:miter;stroke:rgb(0%,0%,0%);stroke-opacity:1;stroke-miterlimit:10;" d="M 0 0 L 16 0 L 16 16 L 0 16 Z M 0 0 " transform="matrix(1,0,0,1,202,82)"/>
<path style="fill-rule:nonzero;fill:rgb(0%,0%,50.196078%);fill-opacity:1;stroke-width:0.2;stroke-linecap:butt;stroke-linejoin:miter;stroke:rgb(0%,0%,0%);stroke-opacity:1;stroke-miterlimit:10;" d="M 0 0 L 16 0 L 16 16 L 0 16 Z M 0 0 " transform="matrix(1,0,0,1,2,102)"/>
<path style="fill-rule:nonzero;fill:rgb(0%,0%,57.872284%);fill-opacity:1;stroke-width:0.2;stroke-linecap:butt;stroke-linejoin:miter;stroke:rgb(0%,0%,0%);stroke-opacity:1;stroke-miterlimit:10;" d="M 0 0 L 16 0 L 16 16 L 0 16 Z M 0 0 " transform="matrix(1,0,0,1,22,102)"/>
<path style="fill-rule:nonzero;fill:rgb(0%,0%,64.42727%);fill-opacity:1;stroke-width:0.2;stroke-linecap:butt;stroke-linejoin:miter;stroke:rgb(0%,0%,0%);stroke-opacity:1;stroke-miterlimit:10;" d="M 0 0 L 16 0 L 16 16 L 0 16 Z M 0 0 " transform="matrix(1,0,0,1,42,102)"/>
<path style="fill-rule:nonzero;fill:rgb(0%,0%,70.218223%);fill-opacity:1;stroke-width:0.2;stroke-linecap:butt;stroke-linejoin:miter;stroke:rgb(0%,0%,0%);stroke-opacity:1;stroke-miterlimit:10;" d="M 0 0 L 16 0 L 16 16 L 0 16 Z M 0 0 " transform="matrix(1,0,0,1,62,102)"/>
<path style="fill-rule:nonzero;fill:rgb(0%,0%,75.447265%);fill-opacity:1;stroke-width:0.2;stroke-linecap:butt;stroke-linejoin:miter;stroke:rgb(0%,0%,0%);stroke-opacity:1;stroke-miterlimit:10;" d="M 0 0 L 16 0 L 16 16 L 0 16 Z M 0 0 " transform="matrix(1,0,0,1,82,102)"/>
<path style="fill-rule:nonzero;fill:rgb(0%,0%,80.241588%);fill-opacity:1;stroke-width:0.2;stroke-linecap:butt;stroke-linejoin:miter;stroke:rgb(0%,0%,0%);stroke-opacity:1;stroke-miterlimit:10;" d="M 0 0 L 16 0 L 16 16 L 0 16 Z M 0 0 " transform="matrix(1,0,0,1,102,102)"/>
<path style="fill-rule:nonzero;fill:rgb(0%,0%,84.687209%);fill-opacity:1;stroke-width:0.2;stroke-linecap:butt;stroke-linejoin:miter;stroke:rgb(0%,0%,0%);stroke-opacity:1;stroke-miterlimit:10;" d="M 0 0 L 16 0 L 16 16 L 0 16 Z M 0 0 " transform="matrix(1,0,0,1,122,102)"/>
<path style="fill-rule:nonzero;fill:rgb(0%,0%,88.845424%);fill-opacity:1;stroke-width:0.2;stroke-linecap:butt;stroke-linejoin:miter;stroke:rgb(0%,0%,0%);stroke-opacity:1;stroke-miterlimit:10;" d="M 0 0 L 16 0 L 16 16 L 0 16 Z M 0 0 " transform="matrix(1,0,0,1,142,102)"/>
<path style="fill-rule:nonzero;fill:rgb(0%,0%,92.761688%);fill-opacity:1;stroke-width:0.2;stroke-linecap:butt;stroke-linejoin:miter;stroke:rgb(0%,0%,0%);stroke-opacity:1;stroke-miterlimit:10;" d="M 0 0 L 16 0 L 16 16 L 0 16 Z M 0 0 " transform="matrix(1,0,0,1,162,102)"/>
<path style="fill-rule:nonzero;fill:rgb(0%,0%,96.470782%);fill-opacity:1;stroke-width:0.2;stroke-linecap:butt;stroke-linejoin:miter;stroke:rgb(0%,0%,0%);stroke-opacity:1;stroke-miterlimit:10;" d="M 0 0 L 16 0 L 16 16 L 0 16 Z M 0 0 " transform="matrix(1,0,0,1,182,102)"/>
<path style="fill-rule:nonzero;fill:rgb(0%,0%,100%);fill-opacity:1;stroke-width:0.2;stroke-linecap:butt;stroke-linejoin:miter;stroke:rgb(0%,0%,0%);stroke-opacity:1;stroke-miterlimit:10;" d="M 0 0 L 16 0 L 16 16 L 0 16 Z M 0 0 " transform="matrix(1,0,0,1,202,102)"/>
<path style="fill-rule:nonzero;fill:rgb(50.196078%,0%,50.196078%);fill-opacity:1;stroke-width:0.2;stroke-linecap:butt;stroke-linejoin:miter;stroke:rgb(0%,0%,0%);stroke-opacity:1;stroke-miterlimit:10;" d="M 0 0 L 16 0 L 16 16 L 0 16 Z M 0 0 " transform="matrix(1,0,0,1,2,122)"/>
<path style="fill-rule:nonzero;fill:rgb(47.803901%,0%,57.872284%);fill-opacity:1;stroke-width:0.2;stroke-linecap:butt;stroke-linejoin:miter;stroke:rgb(0%,0%,0%);stroke-opacity:1;stroke-miterlimit:10;" d="M 0 0 L 16 0 L 16 16 L 0 16 Z M 0 0 " transform="matrix(1,0,0,1,22,122)"/>
<path style="fill-rule:nonzero;fill:rgb(45.251098%,0%,64.42727%);fill-opacity:1;stroke-width:0.2;stroke-linecap:butt;stroke-linejoin:miter;stroke:rgb(0%,0%,0%);stroke-opacity:1;stroke-miterlimit:10;" d="M 0 0 L 16 0 L 16 16 L 0 16 Z M 0 0 " transform="matrix(1,0,0,1,42,122)"/>
<path style="fill-rule:nonzero;fill:rgb(42.50452%,0%,70.218223%);fill-opacity:1;stroke-width:0.2;stroke-linecap:butt;stroke-linejoin:miter;stroke:rgb(0%,0%,0%);stroke-opacity:1;stroke-miterlimit:10;" d="M 0 0 L 16 0 L 16 16 L 0 16 Z M 0 0 " transform="matrix(1,0,0,1,62,122)"/>
<path style="fill-rule:nonzero;fill:rgb(39.518149%,0%,75.447265%);fill-opacity:1;stroke-width:0.2;stroke-linecap:butt;stroke-linejoin:miter;stroke:rgb(0%,0%,0%);stroke-opacity:1;stroke-miterlimit:10;" d="M 0 0 L 16 0 L 16 16 L 0 16 Z M 0 0 " transform="matrix(1,0,0,1,82,122)"/>
<path style="fill-rule:nonzero;fill:rgb(36.224914%,0%,80.241588%);fill-opacity:1;stroke-width:0.2;stroke-linecap:butt;stroke-linejoin:miter;stroke:rgb(0%,0%,0%);stroke-opacity:1;stroke-miterlimit:10;" d="M 0 0 L 16 0 L 16 16 L 0 16 Z M 0 0 " transform="matrix(1,0,0,1,102,122)"/>
<path style="fill-rule:nonzero;fill:rgb(32.520365%,0%,84.687209%);fill-opacity:1;stroke-width:0.2;stroke-linecap:butt;stroke-linejoin:miter;stroke:rgb(0%,0%,0%);stroke-opacity:1;stroke-miterlimit:10;" d="M 0 0 L 16 0 L 16 16 L 0 16 Z M 0 0 " transform="matrix(1,0,0,1,122,122)"/>
<path style="fill-rule:nonzero;fill:rgb(28.225506%,0%,88.845424%);fill-opacity:1;stroke-width:0.2;stroke-linecap:butt;stroke-linejoin:miter;stroke:rgb(0%,0%,0%);stroke-opacity:1;stroke-miterlimit:10;" d="M 0 0 L 16 0 L 16 16 L 0 16 Z M 0 0 " transform="matrix(1,0,0,1,142,122)"/>
<path style="fill-rule:nonzero;fill:rgb(22.983091%,0%,92.761688%);fill-opacity:1;stroke-width:0.2;stroke-linecap:butt;stroke-linejoin:miter;stroke:rgb(0%,0%,0%);stroke-opacity:1;stroke-miterlimit:10;" d="M 0 0 L 16 0 L 16 16 L 0 16 Z M 0 0 " transform="matrix(1,0,0,1,162,122)"/>
<path style="fill-rule:nonzero;fill:rgb(15.838208%,0%,96.470782%);fill-opacity:1;stroke-width:0.2;stroke-linecap:butt;stroke-linejoin:miter;stroke:rgb(0%,0%,0%);stroke-opacity:1;stroke-miterlimit:10;" d="M 0 0 L 16 0 L 16 16 L 0 16 Z M 0 0 " transform="matrix(1,0,0,1,182,122)"/>
<path style="fill-rule:nonzero;fill:rgb(0%,0%,100%);fill-opacity:1;stroke-width:0.2;stroke-linecap:butt;stroke-linejoin:miter;stroke:rgb(0%,0%,0%);stroke-opacity:1;stroke-miterlimit:10;" d="M 0 0 L 16 0 L 16 16 L 0 16 Z M 0 0 " transform="matrix(1,0,0,1,202,122)"/>
</g>
</svg>
