<?xml version="1.0" encoding="UTF-8"?>
<svg xmlns="http://www.w3.org/2000/svg" xmlns:xlink="http://www.w3.org/1999/xlink" width="300pt" height="300pt" viewBox="0 0 300 300" version="1.1">
<g id="id1">
<path style="fill:none;stroke-width:1;stroke-linecap:butt;stroke-linejoin:miter;stroke:rgb(98.137749%,92.061729%,86.536915%);stroke-opacity:1;stroke-miterlimit:10;" d="M 257.734375 128.867188 C 257.734375 188.367188 209.5 236.601562 150 236.601562 C 90.5 236.601562 42.265625 188.367188 42.265625 128.867188 C 42.265625 69.367188 90.5 21.132812 150 21.132812 C 209.5 21.132812 257.734375 69.367188 257.734375 128.867188 "/>
<path style="fill:none;stroke-width:1;stroke-linecap:butt;stroke-linejoin:miter;stroke:rgb(98.137749%,92.061729%,86.536915%);stroke-opacity:1;stroke-miterlimit:10;" d="M 200 186.601562 C 200 214.214844 177.613281 236.601562 150 236.601562 C 122.386719 236.601562 100 214.214844 100 186.601562 C 100 158.988281 122.386719 136.601562 150 136.601562 C 177.613281 136.601562 200 158.988281 200 186.601562 "/>
<path style="fill:none;stroke-width:1;stroke-linecap:butt;stroke-linejoin:miter;stroke:rgb(98.035603%,91.238648%,85.329607%);stroke-opacity:1;stroke-miterlimit:10;" d="M 150 100 C 150 127.613281 127.613281 150 100 150 C 72.386719 150 50 127.613281 50 100 C 50 72.386719 72.386719 50 100 50 C 127.613281 50 150 72.386719 150 100 "/>
<path style="fill:none;stroke-width:1;stroke-linecap:butt;stroke-linejoin:miter;stroke:rgb(97.926363%,90.419239%,84.13404%);stroke-opacity:1;stroke-miterlimit:10;" d="M 250 100 C 250 127.613281 227.613281 150 200 150 C 172.386719 150 150 127.613281 150 100 C 150 72.386719 172.386719 50 200 50 C 227.613281 50 250 72.386719 250 100 "/>
<path style="fill:none;stroke-width:1;stroke-linecap:butt;stroke-linejoin:miter;stroke:rgb(97.821307%,89.599948%,82.938281%);stroke-opacity:1;stroke-miterlimit:10;" d="M 157.734375 128.867188 C 157.734375 133.140625 154.273438 136.601562 150 136.601562 C 145.726562 136.601562 142.265625 133.140625 142.265625 128.867188 C 142.265625 124.59375 145.726562 121.132812 150 121.132812 C 154.273438 121.132812 157.734375 124.59375 157.734375 128.867188 "/>
<path style="fill:none;stroke-width:1;stroke-linecap:butt;stroke-linejoin:miter;stroke:rgb(97.721496%,88.780292%,81.740496%);stroke-opacity:1;stroke-miterlimit:10;" d="M 143.722656 134.304688 C 143.722656 138.488281 137.445312 138.488281 137.445312 134.304688 C 137.445312 130.117188 143.722656 130.117188 143.722656 134.304688 "/>
<path style="fill:none;stroke-width:1;stroke-linecap:butt;stroke-linejoin:miter;stroke:rgb(97.625833%,87.960446%,80.541103%);stroke-opacity:1;stroke-miterlimit:10;" d="M 138.09375 136.726562 C 138.09375 138.992188 134.691406 138.992188 134.691406 136.726562 C 134.691406 134.457031 138.09375 134.457031 138.09375 136.726562 "/>
<path style="fill:none;stroke-width:1;stroke-linecap:butt;stroke-linejoin:miter;stroke:rgb(97.536027%,87.139894%,79.338263%);stroke-opacity:1;stroke-miterlimit:10;" d="M 135.0625 138.109375 C 135.0625 139.53125 132.925781 139.53125 132.925781 138.109375 C 132.925781 136.6875 135.0625 136.6875 135.0625 138.109375 "/>
<path style="fill:none;stroke-width:1;stroke-linecap:butt;stroke-linejoin:miter;stroke:rgb(97.449587%,86.319163%,78.13377%);stroke-opacity:1;stroke-miterlimit:10;" d="M 145.632812 135.804688 C 145.632812 137.257812 143.449219 137.257812 143.449219 135.804688 C 143.449219 134.347656 145.632812 134.347656 145.632812 135.804688 "/>
<path style="fill:none;stroke-width:1;stroke-linecap:butt;stroke-linejoin:miter;stroke:rgb(97.368013%,85.497733%,76.925928%);stroke-opacity:1;stroke-miterlimit:10;" d="M 142.355469 130.128906 C 142.355469 131.585938 140.171875 131.585938 140.171875 130.128906 C 140.171875 128.671875 142.355469 128.671875 142.355469 130.128906 "/>
<path style="fill:none;stroke-width:1;stroke-linecap:butt;stroke-linejoin:miter;stroke:rgb(97.290057%,84.67585%,75.715613%);stroke-opacity:1;stroke-miterlimit:10;" d="M 162.554688 134.304688 C 162.554688 138.488281 156.277344 138.488281 156.277344 134.304688 C 156.277344 130.117188 162.554688 130.117188 162.554688 134.304688 "/>
<path style="fill:none;stroke-width:1;stroke-linecap:butt;stroke-linejoin:miter;stroke:rgb(97.215582%,83.85341%,74.502631%);stroke-opacity:1;stroke-miterlimit:10;" d="M 165.308594 136.726562 C 165.308594 138.992188 161.90625 138.992188 161.90625 136.726562 C 161.90625 134.457031 165.308594 134.457031 165.308594 136.726562 "/>
<path style="fill:none;stroke-width:1;stroke-linecap:butt;stroke-linejoin:miter;stroke:rgb(97.14491%,83.030224%,73.286422%);stroke-opacity:1;stroke-miterlimit:10;" d="M 167.074219 138.109375 C 167.074219 139.53125 164.9375 139.53125 164.9375 138.109375 C 164.9375 136.6875 167.074219 136.6875 167.074219 138.109375 "/>
<path style="fill:none;stroke-width:1;stroke-linecap:butt;stroke-linejoin:miter;stroke:rgb(97.076386%,82.206682%,72.068391%);stroke-opacity:1;stroke-miterlimit:10;" d="M 156.550781 135.804688 C 156.550781 137.257812 154.367188 137.257812 154.367188 135.804688 C 154.367188 134.347656 156.550781 134.347656 156.550781 135.804688 "/>
<path style="fill:none;stroke-width:1;stroke-linecap:butt;stroke-linejoin:miter;stroke:rgb(97.011267%,81.382232%,70.846935%);stroke-opacity:1;stroke-miterlimit:10;" d="M 159.828125 130.128906 C 159.828125 131.585938 157.644531 131.585938 157.644531 130.128906 C 157.644531 128.671875 159.828125 128.671875 159.828125 130.128906 "/>
<path style="fill:none;stroke-width:1;stroke-linecap:butt;stroke-linejoin:miter;stroke:rgb(96.948178%,80.557217%,69.623271%);stroke-opacity:1;stroke-miterlimit:10;" d="M 153.140625 117.992188 C 153.140625 122.179688 146.859375 122.179688 146.859375 117.992188 C 146.859375 113.808594 153.140625 113.808594 153.140625 117.992188 "/>
<path style="fill:none;stroke-width:1;stroke-linecap:butt;stroke-linejoin:miter;stroke:rgb(96.887535%,79.731338%,68.396667%);stroke-opacity:1;stroke-miterlimit:10;" d="M 151.699219 113.152344 C 151.699219 115.421875 148.300781 115.421875 148.300781 113.152344 C 148.300781 110.886719 151.699219 110.886719 151.699219 113.152344 "/>
<path style="fill:none;stroke-width:1;stroke-linecap:butt;stroke-linejoin:miter;stroke:rgb(96.829019%,78.904199%,67.171267%);stroke-opacity:1;stroke-miterlimit:10;" d="M 151.066406 110.386719 C 151.066406 111.808594 148.933594 111.808594 148.933594 110.386719 C 148.933594 108.960938 151.066406 108.960938 151.066406 110.386719 "/>
<path style="fill:none;stroke-width:1;stroke-linecap:butt;stroke-linejoin:miter;stroke:rgb(96.775321%,78.073507%,65.955551%);stroke-opacity:1;stroke-miterlimit:10;" d="M 147.816406 120.671875 C 147.816406 122.128906 145.632812 122.128906 145.632812 120.671875 C 145.632812 119.214844 147.816406 119.214844 147.816406 120.671875 "/>
<path style="fill:none;stroke-width:1;stroke-linecap:butt;stroke-linejoin:miter;stroke:rgb(96.728788%,77.237505%,64.752276%);stroke-opacity:1;stroke-miterlimit:10;" d="M 154.367188 120.671875 C 154.367188 122.128906 152.183594 122.128906 152.183594 120.671875 C 152.183594 119.214844 154.367188 119.214844 154.367188 120.671875 "/>
<path style="fill:none;stroke-width:1;stroke-linecap:butt;stroke-linejoin:miter;stroke:rgb(96.687682%,76.397048%,63.56004%);stroke-opacity:1;stroke-miterlimit:10;" d="M 174.132812 45.265625 C 174.132812 58.59375 163.328125 69.398438 150 69.398438 C 136.671875 69.398438 125.867188 58.59375 125.867188 45.265625 C 125.867188 31.9375 136.671875 21.132812 150 21.132812 C 163.328125 21.132812 174.132812 31.9375 174.132812 45.265625 "/>
<path style="fill:none;stroke-width:1;stroke-linecap:butt;stroke-linejoin:miter;stroke:rgb(96.651922%,75.551753%,62.38035%);stroke-opacity:1;stroke-miterlimit:10;" d="M 126.277344 39.84375 C 126.277344 46.394531 120.96875 51.703125 114.417969 51.703125 C 107.867188 51.703125 102.554688 46.394531 102.554688 39.84375 C 102.554688 33.292969 107.867188 27.980469 114.417969 27.980469 C 120.96875 27.980469 126.277344 33.292969 126.277344 39.84375 "/>
<path style="fill:none;stroke-width:1;stroke-linecap:butt;stroke-linejoin:miter;stroke:rgb(96.62064%,74.701783%,61.213466%);stroke-opacity:1;stroke-miterlimit:10;" d="M 102.898438 43.402344 C 102.898438 47.117188 99.886719 50.128906 96.167969 50.128906 C 92.453125 50.128906 89.441406 47.117188 89.441406 43.402344 C 89.441406 39.683594 92.453125 36.671875 96.167969 36.671875 C 99.886719 36.671875 102.898438 39.683594 102.898438 43.402344 "/>
<path style="fill:none;stroke-width:1;stroke-linecap:butt;stroke-linejoin:miter;stroke:rgb(96.592935%,73.847611%,60.05851%);stroke-opacity:1;stroke-miterlimit:10;" d="M 90.261719 47.570312 C 90.261719 53.261719 81.730469 53.261719 81.730469 47.570312 C 81.730469 41.882812 90.261719 41.882812 90.261719 47.570312 "/>
<path style="fill:none;stroke-width:1;stroke-linecap:butt;stroke-linejoin:miter;stroke:rgb(96.568805%,72.988445%,58.918332%);stroke-opacity:1;stroke-miterlimit:10;" d="M 82.65625 51.105469 C 82.65625 55.011719 76.800781 55.011719 76.800781 51.105469 C 76.800781 47.203125 82.65625 47.203125 82.65625 51.105469 "/>
<path style="fill:none;stroke-width:1;stroke-linecap:butt;stroke-linejoin:miter;stroke:rgb(96.546882%,72.125361%,57.790278%);stroke-opacity:1;stroke-miterlimit:10;" d="M 77.683594 53.960938 C 77.683594 56.796875 73.429688 56.796875 73.429688 53.960938 C 73.429688 51.125 77.683594 51.125 77.683594 53.960938 "/>
<path style="fill:none;stroke-width:1;stroke-linecap:butt;stroke-linejoin:miter;stroke:rgb(96.527283%,71.257668%,56.676642%);stroke-opacity:1;stroke-miterlimit:10;" d="M 74.21875 56.257812 C 74.21875 58.40625 70.992188 58.40625 70.992188 56.257812 C 70.992188 54.109375 74.21875 54.109375 74.21875 56.257812 "/>
<path style="fill:none;stroke-width:1;stroke-linecap:butt;stroke-linejoin:miter;stroke:rgb(96.508922%,70.385859%,55.576542%);stroke-opacity:1;stroke-miterlimit:10;" d="M 71.6875 58.128906 C 71.6875 59.8125 69.160156 59.8125 69.160156 58.128906 C 69.160156 56.445312 71.6875 56.445312 71.6875 58.128906 "/>
<path style="fill:none;stroke-width:1;stroke-linecap:butt;stroke-linejoin:miter;stroke:rgb(96.491564%,69.510056%,54.489656%);stroke-opacity:1;stroke-miterlimit:10;" d="M 69.765625 59.675781 C 69.765625 61.03125 67.734375 61.03125 67.734375 59.675781 C 67.734375 58.320312 69.765625 58.320312 69.765625 59.675781 "/>
<path style="fill:none;stroke-width:1;stroke-linecap:butt;stroke-linejoin:miter;stroke:rgb(96.474518%,68.62985%,53.417797%);stroke-opacity:1;stroke-miterlimit:10;" d="M 89.507812 42.351562 C 89.507812 44.183594 86.761719 44.183594 86.761719 42.351562 C 86.761719 40.515625 89.507812 40.515625 89.507812 42.351562 "/>
<path style="fill:none;stroke-width:1;stroke-linecap:butt;stroke-linejoin:miter;stroke:rgb(96.45758%,67.745814%,52.359007%);stroke-opacity:1;stroke-miterlimit:10;" d="M 92.347656 49.546875 C 92.347656 51.183594 89.894531 51.183594 89.894531 49.546875 C 89.894531 47.914062 92.347656 47.914062 92.347656 49.546875 "/>
<path style="fill:none;stroke-width:1;stroke-linecap:butt;stroke-linejoin:miter;stroke:rgb(96.439956%,66.857705%,51.314506%);stroke-opacity:1;stroke-miterlimit:10;" d="M 103.191406 35.632812 C 103.191406 38.753906 98.511719 38.753906 98.511719 35.632812 C 98.511719 32.511719 103.191406 32.511719 103.191406 35.632812 "/>
<path style="fill:none;stroke-width:1;stroke-linecap:butt;stroke-linejoin:miter;stroke:rgb(96.421667%,65.965495%,50.284125%);stroke-opacity:1;stroke-miterlimit:10;" d="M 104.4375 33.09375 C 104.4375 34.648438 102.101562 34.648438 102.101562 33.09375 C 102.101562 31.535156 104.4375 31.535156 104.4375 33.09375 "/>
<path style="fill:none;stroke-width:1;stroke-linecap:butt;stroke-linejoin:miter;stroke:rgb(96.401978%,65.069635%,49.266624%);stroke-opacity:1;stroke-miterlimit:10;" d="M 105.351562 48.171875 C 105.351562 50.757812 101.46875 50.757812 101.46875 48.171875 C 101.46875 45.582031 105.351562 45.582031 105.351562 48.171875 "/>
<path style="fill:none;stroke-width:1;stroke-linecap:butt;stroke-linejoin:miter;stroke:rgb(96.380735%,64.16934%,48.264353%);stroke-opacity:1;stroke-miterlimit:10;" d="M 131.214844 28.539062 C 131.214844 34.800781 121.820312 34.800781 121.820312 28.539062 C 121.820312 22.277344 131.214844 22.277344 131.214844 28.539062 "/>
<path style="fill:none;stroke-width:1;stroke-linecap:butt;stroke-linejoin:miter;stroke:rgb(96.3576%,63.265492%,47.274387%);stroke-opacity:1;stroke-miterlimit:10;" d="M 135.214844 25.019531 C 135.214844 28.304688 130.289062 28.304688 130.289062 25.019531 C 130.289062 21.734375 135.214844 21.734375 135.214844 25.019531 "/>
<path style="fill:none;stroke-width:1;stroke-linecap:butt;stroke-linejoin:miter;stroke:rgb(96.332076%,62.357344%,46.298914%);stroke-opacity:1;stroke-miterlimit:10;" d="M 137.933594 23.511719 C 137.933594 25.523438 134.917969 25.523438 134.917969 23.511719 C 134.917969 21.5 137.933594 21.5 137.933594 23.511719 "/>
<path style="fill:none;stroke-width:1;stroke-linecap:butt;stroke-linejoin:miter;stroke:rgb(96.30426%,61.445171%,45.336628%);stroke-opacity:1;stroke-miterlimit:10;" d="M 139.84375 22.734375 C 139.84375 24.089844 137.8125 24.089844 137.8125 22.734375 C 137.8125 21.378906 139.84375 21.378906 139.84375 22.734375 "/>
<path style="fill:none;stroke-width:1;stroke-linecap:butt;stroke-linejoin:miter;stroke:rgb(96.273547%,60.529132%,44.386996%);stroke-opacity:1;stroke-miterlimit:10;" d="M 121.933594 27.324219 C 121.933594 29.820312 118.191406 29.820312 118.191406 27.324219 C 118.191406 24.828125 121.933594 24.828125 121.933594 27.324219 "/>
<path style="fill:none;stroke-width:1;stroke-linecap:butt;stroke-linejoin:miter;stroke:rgb(96.239865%,59.608503%,43.451504%);stroke-opacity:1;stroke-miterlimit:10;" d="M 128.152344 34.691406 C 128.152344 36.632812 125.242188 36.632812 125.242188 34.691406 C 125.242188 32.75 128.152344 32.75 128.152344 34.691406 "/>
<path style="fill:none;stroke-width:1;stroke-linecap:butt;stroke-linejoin:miter;stroke:rgb(96.203226%,58.683969%,42.527857%);stroke-opacity:1;stroke-miterlimit:10;" d="M 126.726562 52.085938 C 126.726562 56.515625 120.078125 56.515625 120.078125 52.085938 C 120.078125 47.652344 126.726562 47.652344 126.726562 52.085938 "/>
<path style="fill:none;stroke-width:1;stroke-linecap:butt;stroke-linejoin:miter;stroke:rgb(96.162742%,57.754742%,41.617879%);stroke-opacity:1;stroke-miterlimit:10;" d="M 128.128906 55.808594 C 128.128906 57.890625 125.003906 57.890625 125.003906 55.808594 C 125.003906 53.726562 128.128906 53.726562 128.128906 55.808594 "/>
<path style="fill:none;stroke-width:1;stroke-linecap:butt;stroke-linejoin:miter;stroke:rgb(96.119064%,56.821083%,40.720024%);stroke-opacity:1;stroke-miterlimit:10;" d="M 120.082031 52.261719 C 120.082031 53.996094 117.476562 53.996094 117.476562 52.261719 C 117.476562 50.523438 120.082031 50.523438 120.082031 52.261719 "/>
<path style="fill:none;stroke-width:1;stroke-linecap:butt;stroke-linejoin:miter;stroke:rgb(96.071701%,55.882679%,39.834623%);stroke-opacity:1;stroke-miterlimit:10;" d="M 125.992188 47.777344 C 125.992188 49.378906 123.589844 49.378906 123.589844 47.777344 C 123.589844 46.175781 125.992188 46.175781 125.992188 47.777344 "/>
<path style="fill:none;stroke-width:1;stroke-linecap:butt;stroke-linejoin:miter;stroke:rgb(96.020197%,54.939352%,38.961629%);stroke-opacity:1;stroke-miterlimit:10;" d="M 197.445312 39.84375 C 197.445312 46.394531 192.132812 51.703125 185.582031 51.703125 C 179.03125 51.703125 173.722656 46.394531 173.722656 39.84375 C 173.722656 33.292969 179.03125 27.980469 185.582031 27.980469 C 192.132812 27.980469 197.445312 33.292969 197.445312 39.84375 "/>
<path style="fill:none;stroke-width:1;stroke-linecap:butt;stroke-linejoin:miter;stroke:rgb(95.964978%,53.991434%,38.099526%);stroke-opacity:1;stroke-miterlimit:10;" d="M 210.558594 43.402344 C 210.558594 47.117188 207.546875 50.128906 203.832031 50.128906 C 200.113281 50.128906 197.101562 47.117188 197.101562 43.402344 C 197.101562 39.683594 200.113281 36.671875 203.832031 36.671875 C 207.546875 36.671875 210.558594 39.683594 210.558594 43.402344 "/>
<path style="fill:none;stroke-width:1;stroke-linecap:butt;stroke-linejoin:miter;stroke:rgb(95.905442%,53.037331%,37.251053%);stroke-opacity:1;stroke-miterlimit:10;" d="M 218.269531 47.570312 C 218.269531 53.261719 209.738281 53.261719 209.738281 47.570312 C 209.738281 41.882812 218.269531 41.882812 218.269531 47.570312 "/>
<path style="fill:none;stroke-width:1;stroke-linecap:butt;stroke-linejoin:miter;stroke:rgb(95.841947%,52.078153%,36.413125%);stroke-opacity:1;stroke-miterlimit:10;" d="M 223.199219 51.105469 C 223.199219 55.011719 217.34375 55.011719 217.34375 51.105469 C 217.34375 47.203125 223.199219 47.203125 223.199219 51.105469 "/>
<path style="fill:none;stroke-width:1;stroke-linecap:butt;stroke-linejoin:miter;stroke:rgb(95.773971%,51.113031%,35.586748%);stroke-opacity:1;stroke-miterlimit:10;" d="M 226.570312 53.960938 C 226.570312 56.796875 222.316406 56.796875 222.316406 53.960938 C 222.316406 51.125 226.570312 51.125 226.570312 53.960938 "/>
<path style="fill:none;stroke-width:1;stroke-linecap:butt;stroke-linejoin:miter;stroke:rgb(95.701486%,50.141698%,34.771634%);stroke-opacity:1;stroke-miterlimit:10;" d="M 229.007812 56.257812 C 229.007812 58.40625 225.78125 58.40625 225.78125 56.257812 C 225.78125 54.109375 229.007812 54.109375 229.007812 56.257812 "/>
<path style="fill:none;stroke-width:1;stroke-linecap:butt;stroke-linejoin:miter;stroke:rgb(95.624895%,49.164205%,33.966898%);stroke-opacity:1;stroke-miterlimit:10;" d="M 230.839844 58.128906 C 230.839844 59.8125 228.3125 59.8125 228.3125 58.128906 C 228.3125 56.445312 230.839844 56.445312 230.839844 58.128906 "/>
<path style="fill:none;stroke-width:1;stroke-linecap:butt;stroke-linejoin:miter;stroke:rgb(95.543414%,48.178892%,33.174398%);stroke-opacity:1;stroke-miterlimit:10;" d="M 232.265625 59.675781 C 232.265625 61.03125 230.234375 61.03125 230.234375 59.675781 C 230.234375 58.320312 232.265625 58.320312 232.265625 59.675781 "/>
<path style="fill:none;stroke-width:1;stroke-linecap:butt;stroke-linejoin:miter;stroke:rgb(95.456939%,47.187403%,32.393236%);stroke-opacity:1;stroke-miterlimit:10;" d="M 213.238281 42.351562 C 213.238281 44.183594 210.492188 44.183594 210.492188 42.351562 C 210.492188 40.515625 213.238281 40.515625 213.238281 42.351562 "/>
<path style="fill:none;stroke-width:1;stroke-linecap:butt;stroke-linejoin:miter;stroke:rgb(95.363668%,46.188795%,31.632261%);stroke-opacity:1;stroke-miterlimit:10;" d="M 210.105469 49.546875 C 210.105469 51.183594 207.652344 51.183594 207.652344 49.546875 C 207.652344 47.914062 210.105469 47.914062 210.105469 49.546875 "/>
<path style="fill:none;stroke-width:1;stroke-linecap:butt;stroke-linejoin:miter;stroke:rgb(95.264346%,45.182379%,30.893003%);stroke-opacity:1;stroke-miterlimit:10;" d="M 201.488281 35.632812 C 201.488281 38.753906 196.808594 38.753906 196.808594 35.632812 C 196.808594 32.511719 201.488281 32.511719 201.488281 35.632812 "/>
<path style="fill:none;stroke-width:1;stroke-linecap:butt;stroke-linejoin:miter;stroke:rgb(95.15883%,44.168133%,30.176464%);stroke-opacity:1;stroke-miterlimit:10;" d="M 197.898438 33.09375 C 197.898438 34.648438 195.5625 34.648438 195.5625 33.09375 C 195.5625 31.535156 197.898438 31.535156 197.898438 33.09375 "/>
<path style="fill:none;stroke-width:1;stroke-linecap:butt;stroke-linejoin:miter;stroke:rgb(95.044565%,43.145765%,29.490376%);stroke-opacity:1;stroke-miterlimit:10;" d="M 198.53125 48.171875 C 198.53125 50.757812 194.648438 50.757812 194.648438 48.171875 C 194.648438 45.582031 198.53125 45.582031 198.53125 48.171875 "/>
<path style="fill:none;stroke-width:1;stroke-linecap:butt;stroke-linejoin:miter;stroke:rgb(94.923698%,42.115211%,28.829651%);stroke-opacity:1;stroke-miterlimit:10;" d="M 178.179688 28.539062 C 178.179688 34.800781 168.785156 34.800781 168.785156 28.539062 C 168.785156 22.277344 178.179688 22.277344 178.179688 28.539062 "/>
<path style="fill:none;stroke-width:1;stroke-linecap:butt;stroke-linejoin:miter;stroke:rgb(94.794185%,41.075157%,28.201632%);stroke-opacity:1;stroke-miterlimit:10;" d="M 169.710938 25.019531 C 169.710938 28.304688 164.785156 28.304688 164.785156 25.019531 C 164.785156 21.734375 169.710938 21.734375 169.710938 25.019531 "/>
<path style="fill:none;stroke-width:1;stroke-linecap:butt;stroke-linejoin:miter;stroke:rgb(94.655005%,40.027466%,27.608273%);stroke-opacity:1;stroke-miterlimit:10;" d="M 165.082031 23.511719 C 165.082031 25.523438 162.066406 25.523438 162.066406 23.511719 C 162.066406 21.5 165.082031 21.5 165.082031 23.511719 "/>
<path style="fill:none;stroke-width:1;stroke-linecap:butt;stroke-linejoin:miter;stroke:rgb(94.506817%,38.970656%,27.049597%);stroke-opacity:1;stroke-miterlimit:10;" d="M 162.1875 22.734375 C 162.1875 24.089844 160.15625 24.089844 160.15625 22.734375 C 160.15625 21.378906 162.1875 21.378906 162.1875 22.734375 "/>
<path style="fill:none;stroke-width:1;stroke-linecap:butt;stroke-linejoin:miter;stroke:rgb(94.346208%,37.905742%,26.535211%);stroke-opacity:1;stroke-miterlimit:10;" d="M 181.808594 27.324219 C 181.808594 29.820312 178.066406 29.820312 178.066406 27.324219 C 178.066406 24.828125 181.808594 24.828125 181.808594 27.324219 "/>
<path style="fill:none;stroke-width:1;stroke-linecap:butt;stroke-linejoin:miter;stroke:rgb(94.175091%,36.832957%,26.059565%);stroke-opacity:1;stroke-miterlimit:10;" d="M 174.757812 34.691406 C 174.757812 36.632812 171.847656 36.632812 171.847656 34.691406 C 171.847656 32.75 174.757812 32.75 174.757812 34.691406 "/>
<path style="fill:none;stroke-width:1;stroke-linecap:butt;stroke-linejoin:miter;stroke:rgb(93.988781%,35.752831%,25.636557%);stroke-opacity:1;stroke-miterlimit:10;" d="M 179.921875 52.085938 C 179.921875 56.515625 173.273438 56.515625 173.273438 52.085938 C 173.273438 47.652344 179.921875 47.652344 179.921875 52.085938 "/>
<path style="fill:none;stroke-width:1;stroke-linecap:butt;stroke-linejoin:miter;stroke:rgb(93.788434%,34.666738%,25.261402%);stroke-opacity:1;stroke-miterlimit:10;" d="M 174.996094 55.808594 C 174.996094 57.890625 171.871094 57.890625 171.871094 55.808594 C 171.871094 53.726562 174.996094 53.726562 174.996094 55.808594 "/>
<path style="fill:none;stroke-width:1;stroke-linecap:butt;stroke-linejoin:miter;stroke:rgb(93.571892%,33.575393%,24.939533%);stroke-opacity:1;stroke-miterlimit:10;" d="M 182.523438 52.261719 C 182.523438 53.996094 179.917969 53.996094 179.917969 52.261719 C 179.917969 50.523438 182.523438 50.523438 182.523438 52.261719 "/>
<path style="fill:none;stroke-width:1;stroke-linecap:butt;stroke-linejoin:miter;stroke:rgb(93.335654%,32.481661%,24.678299%);stroke-opacity:1;stroke-miterlimit:10;" d="M 176.410156 47.777344 C 176.410156 49.378906 174.007812 49.378906 174.007812 47.777344 C 174.007812 46.175781 176.410156 46.175781 176.410156 47.777344 "/>
<path style="fill:none;stroke-width:1;stroke-linecap:butt;stroke-linejoin:miter;stroke:rgb(93.081183%,31.386855%,24.471085%);stroke-opacity:1;stroke-miterlimit:10;" d="M 155.808594 75.207031 C 155.808594 78.417969 153.207031 81.015625 150 81.015625 C 146.792969 81.015625 144.191406 78.417969 144.191406 75.207031 C 144.191406 72 146.792969 69.398438 150 69.398438 C 153.207031 69.398438 155.808594 72 155.808594 75.207031 "/>
<path style="fill:none;stroke-width:1;stroke-linecap:butt;stroke-linejoin:miter;stroke:rgb(92.802037%,30.294157%,24.332172%);stroke-opacity:1;stroke-miterlimit:10;" d="M 152.613281 83.628906 C 152.613281 87.113281 147.386719 87.113281 147.386719 83.628906 C 147.386719 80.148438 152.613281 80.148438 152.613281 83.628906 "/>
<path style="fill:none;stroke-width:1;stroke-linecap:butt;stroke-linejoin:miter;stroke:rgb(92.500358%,29.206516%,24.251157%);stroke-opacity:1;stroke-miterlimit:10;" d="M 151.484375 87.726562 C 151.484375 89.703125 148.515625 89.703125 148.515625 87.726562 C 148.515625 85.746094 151.484375 85.746094 151.484375 87.726562 "/>
<path style="fill:none;stroke-width:1;stroke-linecap:butt;stroke-linejoin:miter;stroke:rgb(92.172339%,28.12747%,24.233012%);stroke-opacity:1;stroke-miterlimit:10;" d="M 145.527344 70.769531 C 145.527344 73.75 141.054688 73.75 141.054688 70.769531 C 141.054688 67.785156 145.527344 67.785156 145.527344 70.769531 "/>
<path style="fill:none;stroke-width:1;stroke-linecap:butt;stroke-linejoin:miter;stroke:rgb(91.816613%,27.060636%,24.275776%);stroke-opacity:1;stroke-miterlimit:10;" d="M 141.714844 68.746094 C 141.714844 70.324219 139.351562 70.324219 139.351562 68.746094 C 139.351562 67.167969 141.714844 67.167969 141.714844 68.746094 "/>
<path style="fill:none;stroke-width:1;stroke-linecap:butt;stroke-linejoin:miter;stroke:rgb(91.434268%,26.008563%,24.372146%);stroke-opacity:1;stroke-miterlimit:10;" d="M 158.945312 70.769531 C 158.945312 73.75 154.472656 73.75 154.472656 70.769531 C 154.472656 67.785156 158.945312 67.785156 158.945312 70.769531 "/>
<path style="fill:none;stroke-width:1;stroke-linecap:butt;stroke-linejoin:miter;stroke:rgb(91.020326%,24.976558%,24.526154%);stroke-opacity:1;stroke-miterlimit:10;" d="M 160.648438 68.746094 C 160.648438 70.324219 158.285156 70.324219 158.285156 68.746094 C 158.285156 67.167969 160.648438 67.167969 160.648438 68.746094 "/>
<path style="fill:none;stroke-width:1;stroke-linecap:butt;stroke-linejoin:miter;stroke:rgb(90.579374%,23.964984%,24.724929%);stroke-opacity:1;stroke-miterlimit:10;" d="M 246.535156 170.667969 C 246.535156 183.996094 235.730469 194.800781 222.402344 194.800781 C 209.074219 194.800781 198.265625 183.996094 198.265625 170.667969 C 198.265625 157.339844 209.074219 146.535156 222.402344 146.535156 C 235.730469 146.535156 246.535156 157.339844 246.535156 170.667969 "/>
<path style="fill:none;stroke-width:1;stroke-linecap:butt;stroke-linejoin:miter;stroke:rgb(90.109271%,22.977006%,24.966643%);stroke-opacity:1;stroke-miterlimit:10;" d="M 221.167969 204.195312 C 221.167969 210.746094 215.855469 216.058594 209.304688 216.058594 C 202.753906 216.058594 197.445312 210.746094 197.445312 204.195312 C 197.445312 197.644531 202.753906 192.335938 209.304688 192.335938 C 215.855469 192.335938 221.167969 197.644531 221.167969 204.195312 "/>
<path style="fill:none;stroke-width:1;stroke-linecap:butt;stroke-linejoin:miter;stroke:rgb(89.611637%,22.013989%,25.245066%);stroke-opacity:1;stroke-miterlimit:10;" d="M 203.832031 218.21875 C 203.832031 221.933594 200.816406 224.949219 197.101562 224.949219 C 193.386719 224.949219 190.371094 221.933594 190.371094 218.21875 C 190.371094 214.503906 193.386719 211.492188 197.101562 211.492188 C 200.816406 211.492188 203.832031 214.503906 203.832031 218.21875 "/>
<path style="fill:none;stroke-width:1;stroke-linecap:butt;stroke-linejoin:miter;stroke:rgb(89.089173%,21.07497%,25.552699%);stroke-opacity:1;stroke-miterlimit:10;" d="M 192.667969 224.945312 C 192.667969 230.632812 184.136719 230.632812 184.136719 224.945312 C 184.136719 219.253906 192.667969 219.253906 192.667969 224.945312 "/>
<path style="fill:none;stroke-width:1;stroke-linecap:butt;stroke-linejoin:miter;stroke:rgb(88.540459%,20.162612%,25.887129%);stroke-opacity:1;stroke-miterlimit:10;" d="M 185.136719 228.601562 C 185.136719 232.507812 179.277344 232.507812 179.277344 228.601562 C 179.277344 224.699219 185.136719 224.699219 185.136719 228.601562 "/>
<path style="fill:none;stroke-width:1;stroke-linecap:butt;stroke-linejoin:miter;stroke:rgb(87.970993%,19.272574%,26.240075%);stroke-opacity:1;stroke-miterlimit:10;" d="M 179.777344 230.792969 C 179.777344 233.628906 175.523438 233.628906 175.523438 230.792969 C 175.523438 227.957031 179.777344 227.957031 179.777344 230.792969 "/>
<path style="fill:none;stroke-width:1;stroke-linecap:butt;stroke-linejoin:miter;stroke:rgb(87.379545%,18.406795%,26.609558%);stroke-opacity:1;stroke-miterlimit:10;" d="M 175.796875 232.199219 C 175.796875 234.347656 172.574219 234.347656 172.574219 232.199219 C 172.574219 230.046875 175.796875 230.046875 175.796875 232.199219 "/>
<path style="fill:none;stroke-width:1;stroke-linecap:butt;stroke-linejoin:miter;stroke:rgb(86.769736%,17.561823%,26.99075%);stroke-opacity:1;stroke-miterlimit:10;" d="M 172.734375 233.152344 C 172.734375 234.835938 170.210938 234.835938 170.210938 233.152344 C 170.210938 231.46875 172.734375 231.46875 172.734375 233.152344 "/>
<path style="fill:none;stroke-width:1;stroke-linecap:butt;stroke-linejoin:miter;stroke:rgb(86.143884%,16.734479%,27.379074%);stroke-opacity:1;stroke-miterlimit:10;" d="M 170.3125 233.828125 C 170.3125 235.183594 168.28125 235.183594 168.28125 233.828125 C 168.28125 232.472656 170.3125 232.472656 170.3125 233.828125 "/>
<path style="fill:none;stroke-width:1;stroke-linecap:butt;stroke-linejoin:miter;stroke:rgb(85.500712%,15.927678%,27.775664%);stroke-opacity:1;stroke-miterlimit:10;" d="M 195.367188 225.703125 C 195.367188 227.535156 192.617188 227.535156 192.617188 225.703125 C 192.617188 223.871094 195.367188 223.871094 195.367188 225.703125 "/>
<path style="fill:none;stroke-width:1;stroke-linecap:butt;stroke-linejoin:miter;stroke:rgb(84.844166%,15.136879%,28.17544%);stroke-opacity:1;stroke-miterlimit:10;" d="M 190.480469 219.519531 C 190.480469 221.152344 188.027344 221.152344 188.027344 219.519531 C 188.027344 217.882812 190.480469 217.882812 190.480469 219.519531 "/>
<path style="fill:none;stroke-width:1;stroke-linecap:butt;stroke-linejoin:miter;stroke:rgb(84.16922%,14.374593%,28.579458%);stroke-opacity:1;stroke-miterlimit:10;" d="M 208.507812 218.046875 C 208.507812 221.167969 203.828125 221.167969 203.828125 218.046875 C 203.828125 214.925781 208.507812 214.925781 208.507812 218.046875 "/>
<path style="fill:none;stroke-width:1;stroke-linecap:butt;stroke-linejoin:miter;stroke:rgb(83.478697%,13.638841%,28.985983%);stroke-opacity:1;stroke-miterlimit:10;" d="M 210.746094 217.222656 C 210.746094 218.78125 208.410156 218.78125 208.410156 217.222656 C 208.410156 215.664062 210.746094 215.664062 210.746094 217.222656 "/>
<path style="fill:none;stroke-width:1;stroke-linecap:butt;stroke-linejoin:miter;stroke:rgb(82.770893%,12.937408%,29.39387%);stroke-opacity:1;stroke-miterlimit:10;" d="M 198.53125 209.5625 C 198.53125 212.152344 194.648438 212.152344 194.648438 209.5625 C 194.648438 206.976562 198.53125 206.976562 198.53125 209.5625 "/>
<path style="fill:none;stroke-width:1;stroke-linecap:butt;stroke-linejoin:miter;stroke:rgb(82.044996%,12.27657%,29.80154%);stroke-opacity:1;stroke-miterlimit:10;" d="M 229.839844 199.367188 C 229.839844 205.628906 220.449219 205.628906 220.449219 199.367188 C 220.449219 193.105469 229.839844 193.105469 229.839844 199.367188 "/>
<path style="fill:none;stroke-width:1;stroke-linecap:butt;stroke-linejoin:miter;stroke:rgb(81.303294%,11.655393%,30.207444%);stroke-opacity:1;stroke-miterlimit:10;" d="M 233.777344 195.730469 C 233.777344 199.015625 228.847656 199.015625 228.847656 195.730469 C 228.847656 192.445312 233.777344 192.445312 233.777344 195.730469 "/>
<path style="fill:none;stroke-width:1;stroke-linecap:butt;stroke-linejoin:miter;stroke:rgb(80.541325%,11.092372%,30.609287%);stroke-opacity:1;stroke-miterlimit:10;" d="M 235.960938 193.300781 C 235.960938 195.3125 232.945312 195.3125 232.945312 193.300781 C 232.945312 191.289062 235.960938 191.289062 235.960938 193.300781 "/>
<path style="fill:none;stroke-width:1;stroke-linecap:butt;stroke-linejoin:miter;stroke:rgb(79.763766%,10.578531%,31.005787%);stroke-opacity:1;stroke-miterlimit:10;" d="M 237.34375 191.609375 C 237.34375 192.964844 235.3125 192.964844 235.3125 191.609375 C 235.3125 190.253906 237.34375 190.253906 237.34375 191.609375 "/>
<path style="fill:none;stroke-width:1;stroke-linecap:butt;stroke-linejoin:miter;stroke:rgb(78.968876%,10.124941%,31.394577%);stroke-opacity:1;stroke-miterlimit:10;" d="M 224.839844 205.566406 C 224.839844 208.058594 221.097656 208.058594 221.097656 205.566406 C 221.097656 203.070312 224.839844 203.070312 224.839844 205.566406 "/>
<path style="fill:none;stroke-width:1;stroke-linecap:butt;stroke-linejoin:miter;stroke:rgb(78.157325%,9.734449%,31.77371%);stroke-opacity:1;stroke-miterlimit:10;" d="M 221.363281 196.136719 C 221.363281 198.078125 218.453125 198.078125 218.453125 196.136719 C 218.453125 194.195312 221.363281 194.195312 221.363281 196.136719 "/>
<path style="fill:none;stroke-width:1;stroke-linecap:butt;stroke-linejoin:miter;stroke:rgb(77.331658%,9.401439%,32.142415%);stroke-opacity:1;stroke-miterlimit:10;" d="M 206.523438 190.292969 C 206.523438 194.726562 199.871094 194.726562 199.871094 190.292969 C 199.871094 185.859375 206.523438 185.859375 206.523438 190.292969 "/>
<path style="fill:none;stroke-width:1;stroke-linecap:butt;stroke-linejoin:miter;stroke:rgb(76.488639%,9.143408%,32.496791%);stroke-opacity:1;stroke-miterlimit:10;" d="M 203.117188 185.691406 C 203.117188 187.773438 199.992188 187.773438 199.992188 185.691406 C 199.992188 183.609375 203.117188 183.609375 203.117188 185.691406 "/>
<path style="fill:none;stroke-width:1;stroke-linecap:butt;stroke-linejoin:miter;stroke:rgb(75.633522%,8.940769%,32.83788%);stroke-opacity:1;stroke-miterlimit:10;" d="M 202.035156 194.210938 C 202.035156 195.945312 199.433594 195.945312 199.433594 194.210938 C 199.433594 192.476562 202.035156 192.476562 202.035156 194.210938 "/>
<path style="fill:none;stroke-width:1;stroke-linecap:butt;stroke-linejoin:miter;stroke:rgb(74.764723%,8.802307%,33.162545%);stroke-opacity:1;stroke-miterlimit:10;" d="M 208.820312 191.246094 C 208.820312 192.84375 206.421875 192.84375 206.421875 191.246094 C 206.421875 189.644531 208.820312 189.644531 208.820312 191.246094 "/>
<path style="fill:none;stroke-width:1;stroke-linecap:butt;stroke-linejoin:miter;stroke:rgb(73.884384%,8.719245%,33.47041%);stroke-opacity:1;stroke-miterlimit:10;" d="M 256.75 142.5625 C 256.75 149.113281 251.441406 154.425781 244.890625 154.425781 C 238.339844 154.425781 233.027344 149.113281 233.027344 142.5625 C 233.027344 136.011719 238.339844 130.703125 244.890625 130.703125 C 251.441406 130.703125 256.75 136.011719 256.75 142.5625 "/>
<path style="fill:none;stroke-width:1;stroke-linecap:butt;stroke-linejoin:miter;stroke:rgb(72.993555%,8.686395%,33.761414%);stroke-opacity:1;stroke-miterlimit:10;" d="M 257.660156 124.984375 C 257.660156 128.699219 254.648438 131.710938 250.929688 131.710938 C 247.214844 131.710938 244.203125 128.699219 244.203125 124.984375 C 244.203125 121.265625 247.214844 118.253906 250.929688 118.253906 C 254.648438 118.253906 257.660156 121.265625 257.660156 124.984375 "/>
<path style="fill:none;stroke-width:1;stroke-linecap:butt;stroke-linejoin:miter;stroke:rgb(72.092621%,8.701785%,34.032341%);stroke-opacity:1;stroke-miterlimit:10;" d="M 256.671875 114.085938 C 256.671875 119.777344 248.140625 119.777344 248.140625 114.085938 C 248.140625 108.398438 256.671875 108.398438 256.671875 114.085938 "/>
<path style="fill:none;stroke-width:1;stroke-linecap:butt;stroke-linejoin:miter;stroke:rgb(71.183196%,8.756001%,34.285886%);stroke-opacity:1;stroke-miterlimit:10;" d="M 255.40625 106.890625 C 255.40625 110.796875 249.550781 110.796875 249.550781 106.890625 C 249.550781 102.988281 255.40625 102.988281 255.40625 106.890625 "/>
<path style="fill:none;stroke-width:1;stroke-linecap:butt;stroke-linejoin:miter;stroke:rgb(70.266309%,8.843525%,34.518964%);stroke-opacity:1;stroke-miterlimit:10;" d="M 254.222656 101.851562 C 254.222656 104.6875 249.96875 104.6875 249.96875 101.851562 C 249.96875 99.015625 254.222656 99.015625 254.222656 101.851562 "/>
<path style="fill:none;stroke-width:1;stroke-linecap:butt;stroke-linejoin:miter;stroke:rgb(69.342425%,8.960041%,34.733006%);stroke-opacity:1;stroke-miterlimit:10;" d="M 253.191406 98.148438 C 253.191406 100.296875 249.964844 100.296875 249.964844 98.148438 C 249.964844 95.996094 253.191406 95.996094 253.191406 98.148438 "/>
<path style="fill:none;stroke-width:1;stroke-linecap:butt;stroke-linejoin:miter;stroke:rgb(68.413129%,9.097424%,34.92814%);stroke-opacity:1;stroke-miterlimit:10;" d="M 252.3125 95.320312 C 252.3125 97.003906 249.785156 97.003906 249.785156 95.320312 C 249.785156 93.636719 252.3125 93.636719 252.3125 95.320312 "/>
<path style="fill:none;stroke-width:1;stroke-linecap:butt;stroke-linejoin:miter;stroke:rgb(67.478989%,9.251679%,35.102552%);stroke-opacity:1;stroke-miterlimit:10;" d="M 251.5625 93.097656 C 251.5625 94.453125 249.53125 94.453125 249.53125 93.097656 C 249.53125 91.746094 251.5625 91.746094 251.5625 93.097656 "/>
<path style="fill:none;stroke-width:1;stroke-linecap:butt;stroke-linejoin:miter;stroke:rgb(66.540553%,9.419296%,35.259221%);stroke-opacity:1;stroke-miterlimit:10;" d="M 257.234375 118.550781 C 257.234375 120.382812 254.484375 120.382812 254.484375 118.550781 C 254.484375 116.714844 257.234375 116.714844 257.234375 118.550781 "/>
<path style="fill:none;stroke-width:1;stroke-linecap:butt;stroke-linejoin:miter;stroke:rgb(65.598548%,9.595811%,35.395223%);stroke-opacity:1;stroke-miterlimit:10;" d="M 249.359375 117.535156 C 249.359375 119.171875 246.90625 119.171875 246.90625 117.535156 C 246.90625 115.902344 249.359375 115.902344 249.359375 117.535156 "/>
<path style="fill:none;stroke-width:1;stroke-linecap:butt;stroke-linejoin:miter;stroke:rgb(64.654266%,9.776197%,35.513364%);stroke-opacity:1;stroke-miterlimit:10;" d="M 257.65625 132.921875 C 257.65625 136.042969 252.976562 136.042969 252.976562 132.921875 C 252.976562 129.800781 257.65625 129.800781 257.65625 132.921875 "/>
<path style="fill:none;stroke-width:1;stroke-linecap:butt;stroke-linejoin:miter;stroke:rgb(63.708099%,9.9582%,35.613203%);stroke-opacity:1;stroke-miterlimit:10;" d="M 257.476562 136.285156 C 257.476562 137.84375 255.140625 137.84375 255.140625 136.285156 C 255.140625 134.730469 257.476562 134.730469 257.476562 136.285156 "/>
<path style="fill:none;stroke-width:1;stroke-linecap:butt;stroke-linejoin:miter;stroke:rgb(62.760131%,10.140579%,35.694163%);stroke-opacity:1;stroke-miterlimit:10;" d="M 245.121094 128.867188 C 245.121094 131.457031 241.238281 131.457031 241.238281 128.867188 C 241.238281 126.277344 245.121094 126.277344 245.121094 128.867188 "/>
<path style="fill:none;stroke-width:1;stroke-linecap:butt;stroke-linejoin:miter;stroke:rgb(61.810921%,10.321751%,35.758914%);stroke-opacity:1;stroke-miterlimit:10;" d="M 253.324219 158.695312 C 253.324219 164.957031 243.929688 164.957031 243.929688 158.695312 C 243.929688 152.433594 253.324219 152.433594 253.324219 158.695312 "/>
<path style="fill:none;stroke-width:1;stroke-linecap:butt;stroke-linejoin:miter;stroke:rgb(60.861335%,10.497821%,35.804442%);stroke-opacity:1;stroke-miterlimit:10;" d="M 251.023438 165.855469 C 251.023438 169.140625 246.09375 169.140625 246.09375 165.855469 C 246.09375 162.570312 251.023438 162.570312 251.023438 165.855469 "/>
<path style="fill:none;stroke-width:1;stroke-linecap:butt;stroke-linejoin:miter;stroke:rgb(59.91172%,10.66861%,35.834346%);stroke-opacity:1;stroke-miterlimit:10;" d="M 249.535156 169.789062 C 249.535156 171.800781 246.519531 171.800781 246.519531 169.789062 C 246.519531 167.78125 249.535156 167.78125 249.535156 169.789062 "/>
<path style="fill:none;stroke-width:1;stroke-linecap:butt;stroke-linejoin:miter;stroke:rgb(58.962439%,10.832581%,35.84757%);stroke-opacity:1;stroke-miterlimit:10;" d="M 248.515625 172.257812 C 248.515625 173.613281 246.484375 173.613281 246.484375 172.257812 C 246.484375 170.90625 248.515625 170.90625 248.515625 172.257812 "/>
<path style="fill:none;stroke-width:1;stroke-linecap:butt;stroke-linejoin:miter;stroke:rgb(58.013918%,10.988662%,35.844342%);stroke-opacity:1;stroke-miterlimit:10;" d="M 254.777344 153.714844 C 254.777344 156.207031 251.035156 156.207031 251.035156 153.714844 C 251.035156 151.21875 254.777344 151.21875 254.777344 153.714844 "/>
<path style="fill:none;stroke-width:1;stroke-linecap:butt;stroke-linejoin:miter;stroke:rgb(57.066231%,11.137249%,35.826776%);stroke-opacity:1;stroke-miterlimit:10;" d="M 244.667969 155.773438 C 244.667969 157.71875 241.753906 157.71875 241.753906 155.773438 C 241.753906 153.832031 244.667969 153.832031 244.667969 155.773438 "/>
<path style="fill:none;stroke-width:1;stroke-linecap:butt;stroke-linejoin:miter;stroke:rgb(56.120085%,11.275761%,35.792155%);stroke-opacity:1;stroke-miterlimit:10;" d="M 233.121094 144.222656 C 233.121094 148.65625 226.46875 148.65625 226.46875 144.222656 C 226.46875 139.792969 233.121094 139.792969 233.121094 144.222656 "/>
<path style="fill:none;stroke-width:1;stroke-linecap:butt;stroke-linejoin:miter;stroke:rgb(55.175345%,11.40579%,35.744028%);stroke-opacity:1;stroke-miterlimit:10;" d="M 226.550781 145.101562 C 226.550781 147.1875 223.425781 147.1875 223.425781 145.101562 C 223.425781 143.019531 226.550781 143.019531 226.550781 145.101562 "/>
<path style="fill:none;stroke-width:1;stroke-linecap:butt;stroke-linejoin:miter;stroke:rgb(54.232335%,11.526013%,35.681216%);stroke-opacity:1;stroke-miterlimit:10;" d="M 233.253906 140.132812 C 233.253906 141.867188 230.652344 141.867188 230.652344 140.132812 C 230.652344 138.398438 233.253906 138.398438 233.253906 140.132812 "/>
<path style="fill:none;stroke-width:1;stroke-linecap:butt;stroke-linejoin:miter;stroke:rgb(53.291125%,11.636314%,35.605794%);stroke-opacity:1;stroke-miterlimit:10;" d="M 234.03125 147.582031 C 234.03125 149.179688 231.628906 149.179688 231.628906 147.582031 C 231.628906 145.980469 234.03125 145.980469 234.03125 147.582031 "/>
<path style="fill:none;stroke-width:1;stroke-linecap:butt;stroke-linejoin:miter;stroke:rgb(52.352495%,11.735692%,35.518563%);stroke-opacity:1;stroke-miterlimit:10;" d="M 202.277344 155.695312 C 202.277344 158.90625 199.679688 161.503906 196.46875 161.503906 C 193.261719 161.503906 190.660156 158.90625 190.660156 155.695312 C 190.660156 152.488281 193.261719 149.886719 196.46875 149.886719 C 199.679688 149.886719 202.277344 152.488281 202.277344 155.695312 "/>
<path style="fill:none;stroke-width:1;stroke-linecap:butt;stroke-linejoin:miter;stroke:rgb(51.416864%,11.822996%,35.417624%);stroke-opacity:1;stroke-miterlimit:10;" d="M 191.789062 151.488281 C 191.789062 154.96875 186.566406 154.96875 186.566406 151.488281 C 186.566406 148.003906 191.789062 148.003906 191.789062 151.488281 "/>
<path style="fill:none;stroke-width:1;stroke-linecap:butt;stroke-linejoin:miter;stroke:rgb(50.483729%,11.900624%,35.305147%);stroke-opacity:1;stroke-miterlimit:10;" d="M 187.113281 149.4375 C 187.113281 151.417969 184.144531 151.417969 184.144531 149.4375 C 184.144531 147.460938 187.113281 147.460938 187.113281 149.4375 "/>
<path style="fill:none;stroke-width:1;stroke-linecap:butt;stroke-linejoin:miter;stroke:rgb(49.553496%,11.967462%,35.179241%);stroke-opacity:1;stroke-miterlimit:10;" d="M 199.195312 163.726562 C 199.195312 166.707031 194.726562 166.707031 194.726562 163.726562 C 194.726562 160.746094 199.195312 160.746094 199.195312 163.726562 "/>
<path style="fill:none;stroke-width:1;stroke-linecap:butt;stroke-linejoin:miter;stroke:rgb(48.625926%,12.024745%,35.040926%);stroke-opacity:1;stroke-miterlimit:10;" d="M 198.515625 167.125 C 198.515625 168.703125 196.148438 168.703125 196.148438 167.125 C 196.148438 165.546875 198.515625 165.546875 198.515625 167.125 "/>
<path style="fill:none;stroke-width:1;stroke-linecap:butt;stroke-linejoin:miter;stroke:rgb(47.700986%,12.072893%,34.890275%);stroke-opacity:1;stroke-miterlimit:10;" d="M 205.90625 152.105469 C 205.90625 155.089844 201.433594 155.089844 201.433594 152.105469 C 201.433594 149.125 205.90625 149.125 205.90625 152.105469 "/>
<path style="fill:none;stroke-width:1;stroke-linecap:butt;stroke-linejoin:miter;stroke:rgb(46.778991%,12.111228%,34.725937%);stroke-opacity:1;stroke-miterlimit:10;" d="M 207.984375 150.730469 C 207.984375 152.308594 205.617188 152.308594 205.617188 150.730469 C 205.617188 149.152344 207.984375 149.152344 207.984375 150.730469 "/>
<path style="fill:none;stroke-width:1;stroke-linecap:butt;stroke-linejoin:miter;stroke:rgb(45.859495%,12.141454%,34.549863%);stroke-opacity:1;stroke-miterlimit:10;" d="M 120.667969 48.265625 C 120.667969 61.597656 109.863281 72.402344 96.535156 72.402344 C 83.207031 72.402344 72.402344 61.597656 72.402344 48.265625 C 72.402344 34.9375 83.207031 24.132812 96.535156 24.132812 C 109.863281 24.132812 120.667969 34.9375 120.667969 48.265625 "/>
<path style="fill:none;stroke-width:1;stroke-linecap:butt;stroke-linejoin:miter;stroke:rgb(44.942992%,12.162311%,34.359858%);stroke-opacity:1;stroke-miterlimit:10;" d="M 121.167969 83.878906 C 121.167969 90.429688 115.855469 95.742188 109.304688 95.742188 C 102.753906 95.742188 97.445312 90.429688 97.445312 83.878906 C 97.445312 77.328125 102.753906 72.019531 109.304688 72.019531 C 115.855469 72.019531 121.167969 77.328125 121.167969 83.878906 "/>
<path style="fill:none;stroke-width:1;stroke-linecap:butt;stroke-linejoin:miter;stroke:rgb(44.029115%,12.175155%,34.157562%);stroke-opacity:1;stroke-miterlimit:10;" d="M 125.464844 115.839844 C 125.464844 119.554688 122.453125 122.566406 118.738281 122.566406 C 115.019531 122.566406 112.007812 119.554688 112.007812 115.839844 C 112.007812 112.121094 115.019531 109.109375 118.738281 109.109375 C 122.453125 109.109375 125.464844 112.121094 125.464844 115.839844 "/>
<path style="fill:none;stroke-width:1;stroke-linecap:butt;stroke-linejoin:miter;stroke:rgb(43.118017%,12.179815%,33.942464%);stroke-opacity:1;stroke-miterlimit:10;" d="M 129.257812 138.378906 C 129.257812 144.070312 120.722656 144.070312 120.722656 138.378906 C 120.722656 132.691406 129.257812 132.691406 129.257812 138.378906 "/>
<path style="fill:none;stroke-width:1;stroke-linecap:butt;stroke-linejoin:miter;stroke:rgb(42.209821%,12.17608%,33.713865%);stroke-opacity:1;stroke-miterlimit:10;" d="M 132.207031 154.355469 C 132.207031 158.257812 126.351562 158.257812 126.351562 154.355469 C 126.351562 150.449219 132.207031 150.449219 132.207031 154.355469 "/>
<path style="fill:none;stroke-width:1;stroke-linecap:butt;stroke-linejoin:miter;stroke:rgb(41.304229%,12.165069%,33.473414%);stroke-opacity:1;stroke-miterlimit:10;" d="M 134.488281 166.066406 C 134.488281 168.902344 130.234375 168.902344 130.234375 166.066406 C 130.234375 163.230469 134.488281 163.230469 134.488281 166.066406 "/>
<path style="fill:none;stroke-width:1;stroke-linecap:butt;stroke-linejoin:miter;stroke:rgb(40.401772%,12.145475%,33.218687%);stroke-opacity:1;stroke-miterlimit:10;" d="M 136.28125 174.953125 C 136.28125 177.105469 133.058594 177.105469 133.058594 174.953125 C 133.058594 172.804688 136.28125 172.804688 136.28125 174.953125 "/>
<path style="fill:none;stroke-width:1;stroke-linecap:butt;stroke-linejoin:miter;stroke:rgb(39.501992%,12.11873%,32.951916%);stroke-opacity:1;stroke-miterlimit:10;" d="M 137.71875 181.902344 C 137.71875 183.585938 135.191406 183.585938 135.191406 181.902344 C 135.191406 180.21875 137.71875 180.21875 137.71875 181.902344 "/>
<path style="fill:none;stroke-width:1;stroke-linecap:butt;stroke-linejoin:miter;stroke:rgb(38.605168%,12.084289%,32.672066%);stroke-opacity:1;stroke-miterlimit:10;" d="M 138.890625 187.46875 C 138.890625 188.824219 136.859375 188.824219 136.859375 187.46875 C 136.859375 186.113281 138.890625 186.113281 138.890625 187.46875 "/>
<path style="fill:none;stroke-width:1;stroke-linecap:butt;stroke-linejoin:miter;stroke:rgb(37.71133%,12.042188%,32.379038%);stroke-opacity:1;stroke-miterlimit:10;" d="M 122.484375 128.085938 C 122.484375 129.917969 119.734375 129.917969 119.734375 128.085938 C 119.734375 126.253906 122.484375 126.253906 122.484375 128.085938 "/>
<path style="fill:none;stroke-width:1;stroke-linecap:butt;stroke-linejoin:miter;stroke:rgb(36.820238%,11.993216%,32.074174%);stroke-opacity:1;stroke-miterlimit:10;" d="M 125.449219 132.417969 C 125.449219 134.054688 122.996094 134.054688 122.996094 132.417969 C 122.996094 130.785156 125.449219 130.785156 125.449219 132.417969 "/>
<path style="fill:none;stroke-width:1;stroke-linecap:butt;stroke-linejoin:miter;stroke:rgb(35.932515%,11.935982%,31.755025%);stroke-opacity:1;stroke-miterlimit:10;" d="M 114.535156 99.347656 C 114.535156 102.46875 109.851562 102.46875 109.851562 99.347656 C 109.851562 96.226562 114.535156 96.226562 114.535156 99.347656 "/>
<path style="fill:none;stroke-width:1;stroke-linecap:butt;stroke-linejoin:miter;stroke:rgb(35.047573%,11.872023%,31.424218%);stroke-opacity:1;stroke-miterlimit:10;" d="M 110.835938 92.800781 C 110.835938 94.355469 108.5 94.355469 108.5 92.800781 C 108.5 91.242188 110.835938 91.242188 110.835938 92.800781 "/>
<path style="fill:none;stroke-width:1;stroke-linecap:butt;stroke-linejoin:miter;stroke:rgb(34.165839%,11.80047%,31.080248%);stroke-opacity:1;stroke-miterlimit:10;" d="M 120.582031 111.105469 C 120.582031 113.695312 116.699219 113.695312 116.699219 111.105469 C 116.699219 108.519531 120.582031 108.519531 120.582031 111.105469 "/>
<path style="fill:none;stroke-width:1;stroke-linecap:butt;stroke-linejoin:miter;stroke:rgb(33.287239%,11.721664%,30.723371%);stroke-opacity:1;stroke-miterlimit:10;" d="M 101.660156 56.449219 C 101.660156 62.710938 92.269531 62.710938 92.269531 56.449219 C 92.269531 50.1875 101.660156 50.1875 101.660156 56.449219 "/>
<path style="fill:none;stroke-width:1;stroke-linecap:butt;stroke-linejoin:miter;stroke:rgb(32.41164%,11.635978%,30.354566%);stroke-opacity:1;stroke-miterlimit:10;" d="M 94.351562 45.765625 C 94.351562 49.050781 89.421875 49.050781 89.421875 45.765625 C 89.421875 42.480469 94.351562 42.480469 94.351562 45.765625 "/>
<path style="fill:none;stroke-width:1;stroke-linecap:butt;stroke-linejoin:miter;stroke:rgb(31.53957%,11.542265%,29.972177%);stroke-opacity:1;stroke-miterlimit:10;" d="M 90.71875 40.324219 C 90.71875 42.332031 87.703125 42.332031 87.703125 40.324219 C 87.703125 38.3125 90.71875 38.3125 90.71875 40.324219 "/>
<path style="fill:none;stroke-width:1;stroke-linecap:butt;stroke-linejoin:miter;stroke:rgb(30.670517%,11.441795%,29.578523%);stroke-opacity:1;stroke-miterlimit:10;" d="M 88.59375 37.078125 C 88.59375 38.433594 86.5625 38.433594 86.5625 37.078125 C 86.5625 35.722656 88.59375 35.722656 88.59375 37.078125 "/>
<path style="fill:none;stroke-width:1;stroke-linecap:butt;stroke-linejoin:miter;stroke:rgb(29.805002%,11.333488%,29.171991%);stroke-opacity:1;stroke-miterlimit:10;" d="M 100.921875 63.222656 C 100.921875 65.714844 97.179688 65.714844 97.179688 63.222656 C 97.179688 60.726562 100.921875 60.726562 100.921875 63.222656 "/>
<path style="fill:none;stroke-width:1;stroke-linecap:butt;stroke-linejoin:miter;stroke:rgb(28.942811%,11.217879%,28.75367%);stroke-opacity:1;stroke-miterlimit:10;" d="M 102.117188 63.175781 C 102.117188 65.117188 99.203125 65.117188 99.203125 63.175781 C 99.203125 61.234375 102.117188 61.234375 102.117188 63.175781 "/>
<path style="fill:none;stroke-width:1;stroke-linecap:butt;stroke-linejoin:miter;stroke:rgb(28.08395%,11.095027%,28.323875%);stroke-opacity:1;stroke-miterlimit:10;" d="M 115.78125 89.117188 C 115.78125 93.550781 109.128906 93.550781 109.128906 89.117188 C 109.128906 84.683594 115.78125 84.683594 115.78125 89.117188 "/>
<path style="fill:none;stroke-width:1;stroke-linecap:butt;stroke-linejoin:miter;stroke:rgb(27.22882%,10.964129%,27.881385%);stroke-opacity:1;stroke-miterlimit:10;" d="M 114.71875 90.609375 C 114.71875 92.695312 111.59375 92.695312 111.59375 90.609375 C 111.59375 88.527344 114.71875 88.527344 114.71875 90.609375 "/>
<path style="fill:none;stroke-width:1;stroke-linecap:butt;stroke-linejoin:miter;stroke:rgb(26.376912%,10.826364%,27.427988%);stroke-opacity:1;stroke-miterlimit:10;" d="M 115.878906 95.242188 C 115.878906 96.976562 113.277344 96.976562 113.277344 95.242188 C 113.277344 93.507812 115.878906 93.507812 115.878906 95.242188 "/>
<path style="fill:none;stroke-width:1;stroke-linecap:butt;stroke-linejoin:miter;stroke:rgb(25.528885%,10.680298%,26.962302%);stroke-opacity:1;stroke-miterlimit:10;" d="M 110.53125 81.652344 C 110.53125 83.253906 108.132812 83.253906 108.132812 81.652344 C 108.132812 80.050781 110.53125 80.050781 110.53125 81.652344 "/>
<path style="fill:none;stroke-width:1;stroke-linecap:butt;stroke-linejoin:miter;stroke:rgb(24.684346%,10.526781%,26.485964%);stroke-opacity:1;stroke-miterlimit:10;" d="M 85.582031 22.246094 C 85.582031 28.796875 80.273438 34.109375 73.722656 34.109375 C 67.171875 34.109375 61.859375 28.796875 61.859375 22.246094 C 61.859375 15.695312 67.171875 10.386719 73.722656 10.386719 C 80.273438 10.386719 85.582031 15.695312 85.582031 22.246094 "/>
<path style="fill:none;stroke-width:1;stroke-linecap:butt;stroke-linejoin:miter;stroke:rgb(23.843444%,10.365493%,25.99885%);stroke-opacity:1;stroke-miterlimit:10;" d="M 71.636719 22.601562 C 71.636719 26.316406 68.621094 29.332031 64.90625 29.332031 C 61.191406 29.332031 58.179688 26.316406 58.179688 22.601562 C 58.179688 18.886719 61.191406 15.875 64.90625 15.875 C 68.621094 15.875 71.636719 18.886719 71.636719 22.601562 "/>
<path style="fill:none;stroke-width:1;stroke-linecap:butt;stroke-linejoin:miter;stroke:rgb(23.006444%,10.195858%,25.500541%);stroke-opacity:1;stroke-miterlimit:10;" d="M 65.25 27.523438 C 65.25 33.210938 56.71875 33.210938 56.71875 27.523438 C 56.71875 21.832031 65.25 21.832031 65.25 27.523438 "/>
<path style="fill:none;stroke-width:1;stroke-linecap:butt;stroke-linejoin:miter;stroke:rgb(22.172873%,10.018853%,24.992685%);stroke-opacity:1;stroke-miterlimit:10;" d="M 61.9375 32.644531 C 61.9375 36.546875 56.082031 36.546875 56.082031 32.644531 C 56.082031 28.738281 61.9375 28.738281 61.9375 32.644531 "/>
<path style="fill:none;stroke-width:1;stroke-linecap:butt;stroke-linejoin:miter;stroke:rgb(21.343419%,9.832999%,24.473206%);stroke-opacity:1;stroke-miterlimit:10;" d="M 60.046875 37.125 C 60.046875 39.960938 55.792969 39.960938 55.792969 37.125 C 55.792969 34.289062 60.046875 34.289062 60.046875 37.125 "/>
<path style="fill:none;stroke-width:1;stroke-linecap:butt;stroke-linejoin:miter;stroke:rgb(20.517487%,9.639461%,23.944351%);stroke-opacity:1;stroke-miterlimit:10;" d="M 58.890625 40.90625 C 58.890625 43.054688 55.664062 43.054688 55.664062 40.90625 C 55.664062 38.753906 58.890625 38.753906 58.890625 40.90625 "/>
<path style="fill:none;stroke-width:1;stroke-linecap:butt;stroke-linejoin:miter;stroke:rgb(19.695373%,9.437465%,23.405797%);stroke-opacity:1;stroke-miterlimit:10;" d="M 58.140625 44.070312 C 58.140625 45.753906 55.617188 45.753906 55.617188 44.070312 C 55.617188 42.386719 58.140625 42.386719 58.140625 44.070312 "/>
<path style="fill:none;stroke-width:1;stroke-linecap:butt;stroke-linejoin:miter;stroke:rgb(18.877127%,9.226754%,22.857685%);stroke-opacity:1;stroke-miterlimit:10;" d="M 57.640625 46.738281 C 57.640625 48.09375 55.609375 48.09375 55.609375 46.738281 C 55.609375 45.386719 57.640625 45.386719 57.640625 46.738281 "/>
<path style="fill:none;stroke-width:1;stroke-linecap:butt;stroke-linejoin:miter;stroke:rgb(18.062313%,9.008143%,22.301299%);stroke-opacity:1;stroke-miterlimit:10;" d="M 60.617188 20.933594 C 60.617188 22.765625 57.867188 22.765625 57.867188 20.933594 C 57.867188 19.097656 60.617188 19.097656 60.617188 20.933594 "/>
<path style="fill:none;stroke-width:1;stroke-linecap:butt;stroke-linejoin:miter;stroke:rgb(17.251622%,8.779766%,21.73519%);stroke-opacity:1;stroke-miterlimit:10;" d="M 66.570312 30.4375 C 66.570312 32.074219 64.117188 32.074219 64.117188 30.4375 C 64.117188 28.800781 66.570312 28.800781 66.570312 30.4375 "/>
<path style="fill:none;stroke-width:1;stroke-linecap:butt;stroke-linejoin:miter;stroke:rgb(16.443516%,8.543845%,21.16124%);stroke-opacity:1;stroke-miterlimit:10;" d="M 65.386719 14.222656 C 65.386719 17.34375 60.707031 17.34375 60.707031 14.222656 C 60.707031 11.101562 65.386719 11.101562 65.386719 14.222656 "/>
<path style="fill:none;stroke-width:1;stroke-linecap:butt;stroke-linejoin:miter;stroke:rgb(15.638719%,8.297497%,20.584728%);stroke-opacity:1;stroke-miterlimit:10;" d="M 64.109375 11.863281 C 64.109375 13.417969 61.773438 13.417969 61.773438 11.863281 C 61.773438 10.304688 64.109375 10.304688 64.109375 11.863281 "/>
<path style="fill:none;stroke-width:1;stroke-linecap:butt;stroke-linejoin:miter;stroke:rgb(14.837359%,8.040086%,20.008393%);stroke-opacity:1;stroke-miterlimit:10;" d="M 73.992188 30.410156 C 73.992188 33 70.109375 33 70.109375 30.410156 C 70.109375 27.824219 73.992188 27.824219 73.992188 30.410156 "/>
<path style="fill:none;stroke-width:1;stroke-linecap:butt;stroke-linejoin:miter;stroke:rgb(14.038761%,7.772463%,19.432361%);stroke-opacity:1;stroke-miterlimit:10;" d="M 78.179688 15.777344 C 78.179688 22.039062 68.785156 22.039062 68.785156 15.777344 C 68.785156 9.511719 78.179688 9.511719 78.179688 15.777344 "/>
<path style="fill:none;stroke-width:1;stroke-linecap:butt;stroke-linejoin:miter;stroke:rgb(13.243275%,7.492707%,18.856989%);stroke-opacity:1;stroke-miterlimit:10;" d="M 77.105469 15.894531 C 77.105469 19.179688 72.175781 19.179688 72.175781 15.894531 C 72.175781 12.609375 77.105469 12.609375 77.105469 15.894531 "/>
<path style="fill:none;stroke-width:1;stroke-linecap:butt;stroke-linejoin:miter;stroke:rgb(12.450379%,7.202528%,18.282475%);stroke-opacity:1;stroke-miterlimit:10;" d="M 77.144531 16.8125 C 77.144531 18.824219 74.128906 18.824219 74.128906 16.8125 C 74.128906 14.804688 77.144531 14.804688 77.144531 16.8125 "/>
<path style="fill:none;stroke-width:1;stroke-linecap:butt;stroke-linejoin:miter;stroke:rgb(11.659031%,6.900918%,17.709%);stroke-opacity:1;stroke-miterlimit:10;" d="M 77.421875 17.726562 C 77.421875 19.082031 75.390625 19.082031 75.390625 17.726562 C 75.390625 16.375 77.421875 16.375 77.421875 17.726562 "/>
<path style="fill:none;stroke-width:1;stroke-linecap:butt;stroke-linejoin:miter;stroke:rgb(10.86928%,6.588071%,17.136928%);stroke-opacity:1;stroke-miterlimit:10;" d="M 70.984375 11.371094 C 70.984375 13.863281 67.242188 13.863281 67.242188 11.371094 C 67.242188 8.875 70.984375 8.875 70.984375 11.371094 "/>
<path style="fill:none;stroke-width:1;stroke-linecap:butt;stroke-linejoin:miter;stroke:rgb(10.079723%,6.264555%,16.566363%);stroke-opacity:1;stroke-miterlimit:10;" d="M 78.816406 22.816406 C 78.816406 24.757812 75.902344 24.757812 75.902344 22.816406 C 75.902344 20.875 78.816406 20.875 78.816406 22.816406 "/>
<path style="fill:none;stroke-width:1;stroke-linecap:butt;stroke-linejoin:miter;stroke:rgb(9.290308%,5.928424%,15.997984%);stroke-opacity:1;stroke-miterlimit:10;" d="M 89.179688 43.046875 C 89.179688 47.480469 82.53125 47.480469 82.53125 43.046875 C 82.53125 38.613281 89.179688 38.613281 89.179688 43.046875 "/>
<path style="fill:none;stroke-width:1;stroke-linecap:butt;stroke-linejoin:miter;stroke:rgb(8.499715%,5.581591%,15.431693%);stroke-opacity:1;stroke-miterlimit:10;" d="M 91.285156 50.023438 C 91.285156 52.105469 88.160156 52.105469 88.160156 50.023438 C 88.160156 47.9375 91.285156 47.9375 91.285156 50.023438 "/>
<path style="fill:none;stroke-width:1;stroke-linecap:butt;stroke-linejoin:miter;stroke:rgb(7.70612%,5.222013%,14.868215%);stroke-opacity:1;stroke-miterlimit:10;" d="M 84.65625 41.167969 C 84.65625 42.902344 82.054688 42.902344 82.054688 41.167969 C 82.054688 39.433594 84.65625 39.433594 84.65625 41.167969 "/>
<path style="fill:none;stroke-width:1;stroke-linecap:butt;stroke-linejoin:miter;stroke:rgb(6.908928%,4.850425%,14.307697%);stroke-opacity:1;stroke-miterlimit:10;" d="M 85.324219 37.988281 C 85.324219 39.589844 82.921875 39.589844 82.921875 37.988281 C 82.921875 36.390625 85.324219 36.390625 85.324219 37.988281 "/>
<path style="fill:none;stroke-width:1;stroke-linecap:butt;stroke-linejoin:miter;stroke:rgb(6.106009%,4.466188%,13.750605%);stroke-opacity:1;stroke-miterlimit:10;" d="M 118.453125 96.773438 C 118.453125 99.984375 115.851562 102.585938 112.644531 102.585938 C 109.4375 102.585938 106.835938 99.984375 106.835938 96.773438 C 106.835938 93.566406 109.4375 90.964844 112.644531 90.964844 C 115.851562 90.964844 118.453125 93.566406 118.453125 96.773438 "/>
<path style="fill:none;stroke-width:1;stroke-linecap:butt;stroke-linejoin:miter;stroke:rgb(5.294444%,4.067295%,13.197699%);stroke-opacity:1;stroke-miterlimit:10;" d="M 119.582031 111.746094 C 119.582031 115.230469 114.359375 115.230469 114.359375 111.746094 C 114.359375 108.265625 119.582031 108.265625 119.582031 111.746094 "/>
<path style="fill:none;stroke-width:1;stroke-linecap:butt;stroke-linejoin:miter;stroke:rgb(4.472876%,3.661171%,12.64901%);stroke-opacity:1;stroke-miterlimit:10;" d="M 120.515625 119.320312 C 120.515625 121.300781 117.542969 121.300781 117.542969 119.320312 C 117.542969 117.339844 120.515625 117.339844 120.515625 119.320312 "/>
<path style="fill:none;stroke-width:1;stroke-linecap:butt;stroke-linejoin:miter;stroke:rgb(3.646244%,3.264773%,12.106275%);stroke-opacity:1;stroke-miterlimit:10;" d="M 115.800781 95.675781 C 115.800781 98.65625 111.332031 98.65625 111.332031 95.675781 C 111.332031 92.695312 115.800781 92.695312 115.800781 95.675781 "/>
<path style="fill:none;stroke-width:1;stroke-linecap:butt;stroke-linejoin:miter;stroke:rgb(2.878281%,2.879584%,11.569666%);stroke-opacity:1;stroke-miterlimit:10;" d="M 114.992188 95.105469 C 114.992188 96.683594 112.625 96.683594 112.625 95.105469 C 112.625 93.53125 114.992188 93.53125 114.992188 95.105469 "/>
<path style="fill:none;stroke-width:1;stroke-linecap:butt;stroke-linejoin:miter;stroke:rgb(2.194261%,2.507643%,11.041157%);stroke-opacity:1;stroke-miterlimit:10;" d="M 109.09375 84.058594 C 109.09375 87.039062 104.621094 87.039062 104.621094 84.058594 C 104.621094 81.074219 109.09375 81.074219 109.09375 84.058594 "/>
<path style="fill:none;stroke-width:1;stroke-linecap:butt;stroke-linejoin:miter;stroke:rgb(1.593722%,2.150211%,10.523314%);stroke-opacity:1;stroke-miterlimit:10;" d="M 105.523438 78.710938 C 105.523438 80.289062 103.160156 80.289062 103.160156 78.710938 C 103.160156 77.132812 105.523438 77.132812 105.523438 78.710938 "/>
</g>
</svg>
