<?xml version="1.0" encoding="UTF-8"?>
<svg xmlns="http://www.w3.org/2000/svg" xmlns:xlink="http://www.w3.org/1999/xlink" width="300pt" height="300pt" viewBox="0 0 300 300" version="1.1">
<g id="id1">
<path style="fill:none;stroke-width:1;stroke-linecap:butt;stroke-linejoin:miter;stroke:rgb(98.137749%,92.061729%,86.536915%);stroke-opacity:1;stroke-miterlimit:10;" d="M 187.222656 51.523438 C 187.222656 71.617188 170.933594 87.90625 150.84375 87.90625 C 130.75 87.90625 114.464844 71.617188 114.464844 51.523438 C 114.464844 31.433594 130.75 15.144531 150.84375 15.144531 C 170.933594 15.144531 187.222656 31.433594 187.222656 51.523438 "/>
<path style="fill:none;stroke-width:1;stroke-linecap:butt;stroke-linejoin:miter;stroke:rgb(97.964687%,90.709733%,84.557874%);stroke-opacity:1;stroke-miterlimit:10;" d="M 187.222656 51.523438 C 187.222656 71.617188 170.933594 87.90625 150.84375 87.90625 C 130.75 87.90625 114.464844 71.617188 114.464844 51.523438 C 114.464844 31.433594 130.75 15.144531 150.84375 15.144531 C 170.933594 15.144531 187.222656 31.433594 187.222656 51.523438 "/>
<path style="fill:none;stroke-width:1;stroke-linecap:butt;stroke-linejoin:miter;stroke:rgb(97.791854%,89.361519%,82.58998%);stroke-opacity:1;stroke-miterlimit:10;" d="M 117.304688 150.882812 C 117.304688 156.300781 109.179688 156.300781 109.179688 150.882812 C 109.179688 145.464844 117.304688 145.464844 117.304688 150.882812 "/>
<path style="fill:none;stroke-width:1;stroke-linecap:butt;stroke-linejoin:miter;stroke:rgb(97.631739%,88.012641%,80.617534%);stroke-opacity:1;stroke-miterlimit:10;" d="M 95.714844 139.207031 C 95.714844 144.324219 88.035156 144.324219 88.035156 139.207031 C 88.035156 134.085938 95.714844 134.085938 95.714844 139.207031 "/>
<path style="fill:none;stroke-width:1;stroke-linecap:butt;stroke-linejoin:miter;stroke:rgb(97.485266%,86.662421%,78.637739%);stroke-opacity:1;stroke-miterlimit:10;" d="M 98.851562 153.980469 C 98.851562 155.417969 96.695312 155.417969 96.695312 153.980469 C 96.695312 152.542969 98.851562 152.542969 98.851562 153.980469 "/>
<path style="fill:none;stroke-width:1;stroke-linecap:butt;stroke-linejoin:miter;stroke:rgb(97.350044%,85.310971%,76.651029%);stroke-opacity:1;stroke-miterlimit:10;" d="M 100.191406 149.824219 C 100.191406 150.285156 99.5 150.285156 99.5 149.824219 C 99.5 149.363281 100.191406 149.363281 100.191406 149.824219 "/>
<path style="fill:none;stroke-width:1;stroke-linecap:butt;stroke-linejoin:miter;stroke:rgb(97.224837%,83.958127%,74.657197%);stroke-opacity:1;stroke-miterlimit:10;" d="M 93.53125 153.351562 C 93.53125 153.996094 92.566406 153.996094 92.566406 153.351562 C 92.566406 152.710938 93.53125 152.710938 93.53125 153.351562 "/>
<path style="fill:none;stroke-width:1;stroke-linecap:butt;stroke-linejoin:miter;stroke:rgb(97.109179%,82.603508%,72.655445%);stroke-opacity:1;stroke-miterlimit:10;" d="M 101.335938 157.898438 C 101.335938 158.554688 100.351562 158.554688 100.351562 157.898438 C 100.351562 157.242188 101.335938 157.242188 101.335938 157.898438 "/>
<path style="fill:none;stroke-width:1;stroke-linecap:butt;stroke-linejoin:miter;stroke:rgb(97.00084%,81.24726%,70.646819%);stroke-opacity:1;stroke-miterlimit:10;" d="M 107.066406 136.558594 C 107.066406 137.769531 105.25 137.769531 105.25 136.558594 C 105.25 135.351562 107.066406 135.351562 107.066406 136.558594 "/>
<path style="fill:none;stroke-width:1;stroke-linecap:butt;stroke-linejoin:miter;stroke:rgb(96.898968%,79.889062%,68.63103%);stroke-opacity:1;stroke-miterlimit:10;" d="M 78.089844 123.917969 C 78.089844 128.648438 70.996094 128.648438 70.996094 123.917969 C 70.996094 119.191406 78.089844 119.191406 78.089844 123.917969 "/>
<path style="fill:none;stroke-width:1;stroke-linecap:butt;stroke-linejoin:miter;stroke:rgb(96.803746%,78.527215%,66.617315%);stroke-opacity:1;stroke-miterlimit:10;" d="M 64.828125 106.832031 C 64.828125 111.125 58.390625 111.125 58.390625 106.832031 C 58.390625 102.539062 64.828125 102.539062 64.828125 106.832031 "/>
<path style="fill:none;stroke-width:1;stroke-linecap:butt;stroke-linejoin:miter;stroke:rgb(96.724478%,77.153633%,64.632611%);stroke-opacity:1;stroke-miterlimit:10;" d="M 62.195312 120.292969 C 62.195312 121.507812 60.375 121.507812 60.375 120.292969 C 60.375 119.082031 62.195312 119.082031 62.195312 120.292969 "/>
<path style="fill:none;stroke-width:1;stroke-linecap:butt;stroke-linejoin:miter;stroke:rgb(96.660597%,75.767349%,62.679474%);stroke-opacity:1;stroke-miterlimit:10;" d="M 74.347656 109.867188 C 74.347656 110.914062 72.777344 110.914062 72.777344 109.867188 C 72.777344 108.824219 74.347656 108.824219 74.347656 109.867188 "/>
<path style="fill:none;stroke-width:1;stroke-linecap:butt;stroke-linejoin:miter;stroke:rgb(96.609397%,74.36842%,60.760414%);stroke-opacity:1;stroke-miterlimit:10;" d="M 55.667969 89.453125 C 55.667969 93.300781 49.898438 93.300781 49.898438 89.453125 C 49.898438 85.605469 55.667969 85.605469 55.667969 89.453125 "/>
<path style="fill:none;stroke-width:1;stroke-linecap:butt;stroke-linejoin:miter;stroke:rgb(96.567981%,72.957119%,58.877124%);stroke-opacity:1;stroke-miterlimit:10;" d="M 49.980469 72.828125 C 49.980469 76.25 44.851562 76.25 44.851562 72.828125 C 44.851562 69.40625 49.980469 69.40625 49.980469 72.828125 "/>
<path style="fill:none;stroke-width:1;stroke-linecap:butt;stroke-linejoin:miter;stroke:rgb(96.533362%,71.534192%,57.029549%);stroke-opacity:1;stroke-miterlimit:10;" d="M 44.417969 82.753906 C 44.417969 83.714844 42.976562 83.714844 42.976562 82.753906 C 42.976562 81.792969 44.417969 81.792969 44.417969 82.753906 "/>
<path style="fill:none;stroke-width:1;stroke-linecap:butt;stroke-linejoin:miter;stroke:rgb(96.503115%,70.099799%,55.218943%);stroke-opacity:1;stroke-miterlimit:10;" d="M 56.339844 78.464844 C 56.339844 79.320312 55.058594 79.320312 55.058594 78.464844 C 55.058594 77.613281 56.339844 77.613281 56.339844 78.464844 "/>
<path style="fill:none;stroke-width:1;stroke-linecap:butt;stroke-linejoin:miter;stroke:rgb(96.474977%,68.653913%,53.446837%);stroke-opacity:1;stroke-miterlimit:10;" d="M 47.03125 57.542969 C 47.03125 60.574219 42.484375 60.574219 42.484375 57.542969 C 42.484375 54.511719 47.03125 54.511719 47.03125 57.542969 "/>
<path style="fill:none;stroke-width:1;stroke-linecap:butt;stroke-linejoin:miter;stroke:rgb(96.446737%,67.197264%,51.711728%);stroke-opacity:1;stroke-miterlimit:10;" d="M 46.109375 43.855469 C 46.109375 46.539062 42.089844 46.539062 42.089844 43.855469 C 42.089844 41.175781 46.109375 41.175781 46.109375 43.855469 "/>
<path style="fill:none;stroke-width:1;stroke-linecap:butt;stroke-linejoin:miter;stroke:rgb(96.41669%,65.729811%,50.014116%);stroke-opacity:1;stroke-miterlimit:10;" d="M 39.859375 50.445312 C 39.859375 51.191406 38.742188 51.191406 38.742188 50.445312 C 38.742188 49.699219 39.859375 49.699219 39.859375 50.445312 "/>
<path style="fill:none;stroke-width:1;stroke-linecap:butt;stroke-linejoin:miter;stroke:rgb(96.382738%,64.251355%,48.354894%);stroke-opacity:1;stroke-miterlimit:10;" d="M 49.746094 49.925781 C 49.746094 50.605469 48.730469 50.605469 48.730469 49.925781 C 48.730469 49.246094 49.746094 49.246094 49.746094 49.925781 "/>
<path style="fill:none;stroke-width:1;stroke-linecap:butt;stroke-linejoin:miter;stroke:rgb(96.343668%,62.762353%,46.731922%);stroke-opacity:1;stroke-miterlimit:10;" d="M 46.632812 31.804688 C 46.632812 34.175781 43.074219 34.175781 43.074219 31.804688 C 43.074219 29.429688 46.632812 29.429688 46.632812 31.804688 "/>
<path style="fill:none;stroke-width:1;stroke-linecap:butt;stroke-linejoin:miter;stroke:rgb(96.298491%,61.26247%,45.145074%);stroke-opacity:1;stroke-miterlimit:10;" d="M 48.144531 21.292969 C 48.144531 23.394531 44.988281 23.394531 44.988281 21.292969 C 44.988281 19.1875 48.144531 19.1875 48.144531 21.292969 "/>
<path style="fill:none;stroke-width:1;stroke-linecap:butt;stroke-linejoin:miter;stroke:rgb(96.245269%,59.751081%,43.595176%);stroke-opacity:1;stroke-miterlimit:10;" d="M 42.28125 25.464844 C 42.28125 26.042969 41.414062 26.042969 41.414062 25.464844 C 41.414062 24.882812 42.28125 24.882812 42.28125 25.464844 "/>
<path style="fill:none;stroke-width:1;stroke-linecap:butt;stroke-linejoin:miter;stroke:rgb(96.183707%,58.22826%,42.079858%);stroke-opacity:1;stroke-miterlimit:10;" d="M 49.941406 26.820312 C 49.941406 27.359375 49.132812 27.359375 49.132812 26.820312 C 49.132812 26.28125 49.941406 26.28125 49.941406 26.820312 "/>
<path style="fill:none;stroke-width:1;stroke-linecap:butt;stroke-linejoin:miter;stroke:rgb(96.112963%,56.693545%,40.598173%);stroke-opacity:1;stroke-miterlimit:10;" d="M 50.292969 12.175781 C 50.292969 14.046875 47.488281 14.046875 47.488281 12.175781 C 47.488281 10.304688 50.292969 10.304688 50.292969 12.175781 "/>
<path style="fill:none;stroke-width:1;stroke-linecap:butt;stroke-linejoin:miter;stroke:rgb(96.031801%,55.145616%,39.15102%);stroke-opacity:1;stroke-miterlimit:10;" d="M 52.835938 4.285156 C 52.835938 5.957031 50.332031 5.957031 50.332031 4.285156 C 50.332031 2.617188 52.835938 2.617188 52.835938 4.285156 "/>
<path style="fill:none;stroke-width:1;stroke-linecap:butt;stroke-linejoin:miter;stroke:rgb(95.939917%,53.584254%,37.735973%);stroke-opacity:1;stroke-miterlimit:10;" d="M 47.71875 6.867188 C 47.71875 7.324219 47.039062 7.324219 47.039062 6.867188 C 47.039062 6.414062 47.71875 6.414062 47.71875 6.867188 "/>
<path style="fill:none;stroke-width:1;stroke-linecap:butt;stroke-linejoin:miter;stroke:rgb(95.837233%,52.00827%,36.352436%);stroke-opacity:1;stroke-miterlimit:10;" d="M 53.515625 9 C 53.515625 9.429688 52.871094 9.429688 52.871094 9 C 52.871094 8.570312 53.515625 8.570312 53.515625 9 "/>
<path style="fill:none;stroke-width:1;stroke-linecap:butt;stroke-linejoin:miter;stroke:rgb(95.722412%,50.416144%,35.000121%);stroke-opacity:1;stroke-miterlimit:10;" d="M 55.601562 -2.542969 C 55.601562 -1.046875 53.359375 -1.046875 53.359375 -2.542969 C 53.359375 -4.035156 55.601562 -4.035156 55.601562 -2.542969 "/>
<path style="fill:none;stroke-width:1;stroke-linecap:butt;stroke-linejoin:miter;stroke:rgb(95.595638%,48.806495%,33.677857%);stroke-opacity:1;stroke-miterlimit:10;" d="M 58.460938 -8.457031 C 58.460938 -7.113281 56.445312 -7.113281 56.445312 -8.457031 C 56.445312 -9.800781 58.460938 -9.800781 58.460938 -8.457031 "/>
<path style="fill:none;stroke-width:1;stroke-linecap:butt;stroke-linejoin:miter;stroke:rgb(95.456136%,47.178374%,32.386171%);stroke-opacity:1;stroke-miterlimit:10;" d="M 54.109375 -6.882812 C 54.109375 -6.523438 53.566406 -6.523438 53.566406 -6.882812 C 53.566406 -7.246094 54.109375 -7.246094 54.109375 -6.882812 "/>
<path style="fill:none;stroke-width:1;stroke-linecap:butt;stroke-linejoin:miter;stroke:rgb(95.299444%,45.53111%,31.145462%);stroke-opacity:1;stroke-miterlimit:10;" d="M 58.492188 -4.539062 C 58.492188 -4.191406 57.972656 -4.191406 57.972656 -4.539062 C 57.972656 -4.882812 58.492188 -4.882812 58.492188 -4.539062 "/>
<path style="fill:none;stroke-width:1;stroke-linecap:butt;stroke-linejoin:miter;stroke:rgb(95.125065%,43.862075%,29.968655%);stroke-opacity:1;stroke-miterlimit:10;" d="M 61.332031 -13.597656 C 61.332031 -12.386719 59.515625 -12.386719 59.515625 -13.597656 C 59.515625 -14.8125 61.332031 -14.8125 61.332031 -13.597656 "/>
<path style="fill:none;stroke-width:1;stroke-linecap:butt;stroke-linejoin:miter;stroke:rgb(94.930395%,42.17155%,28.865289%);stroke-opacity:1;stroke-miterlimit:10;" d="M 50.871094 -0.519531 C 50.871094 -0.117188 50.265625 -0.117188 50.265625 -0.519531 C 50.265625 -0.925781 50.871094 -0.925781 50.871094 -0.519531 "/>
<path style="fill:none;stroke-width:1;stroke-linecap:butt;stroke-linejoin:miter;stroke:rgb(94.713238%,40.457373%,27.846061%);stroke-opacity:1;stroke-miterlimit:10;" d="M 55.910156 1.765625 C 55.910156 2.148438 55.332031 2.148438 55.332031 1.765625 C 55.332031 1.378906 55.910156 1.378906 55.910156 1.765625 "/>
<path style="fill:none;stroke-width:1;stroke-linecap:butt;stroke-linejoin:miter;stroke:rgb(94.469553%,38.719502%,26.925415%);stroke-opacity:1;stroke-miterlimit:10;" d="M 44.789062 15.464844 C 44.789062 15.976562 44.019531 15.976562 44.019531 15.464844 C 44.019531 14.953125 44.789062 14.953125 44.789062 15.464844 "/>
<path style="fill:none;stroke-width:1;stroke-linecap:butt;stroke-linejoin:miter;stroke:rgb(94.195646%,36.959977%,26.114565%);stroke-opacity:1;stroke-miterlimit:10;" d="M 51.457031 17.304688 C 51.457031 17.785156 50.738281 17.785156 50.738281 17.304688 C 50.738281 16.828125 51.457031 16.828125 51.457031 17.304688 "/>
<path style="fill:none;stroke-width:1;stroke-linecap:butt;stroke-linejoin:miter;stroke:rgb(93.885975%,35.180592%,25.429819%);stroke-opacity:1;stroke-miterlimit:10;" d="M 40.5 37.066406 C 40.5 37.722656 39.519531 37.722656 39.519531 37.066406 C 39.519531 36.410156 40.5 36.410156 40.5 37.066406 "/>
<path style="fill:none;stroke-width:1;stroke-linecap:butt;stroke-linejoin:miter;stroke:rgb(93.531981%,33.386659%,24.891636%);stroke-opacity:1;stroke-miterlimit:10;" d="M 49.246094 37.667969 C 49.246094 38.269531 48.339844 38.269531 48.339844 37.667969 C 48.339844 37.0625 49.246094 37.0625 49.246094 37.667969 "/>
<path style="fill:none;stroke-width:1;stroke-linecap:butt;stroke-linejoin:miter;stroke:rgb(93.128294%,31.585873%,24.506346%);stroke-opacity:1;stroke-miterlimit:10;" d="M 40.921875 65.699219 C 40.921875 66.546875 39.652344 66.546875 39.652344 65.699219 C 39.652344 64.851562 40.921875 64.851562 40.921875 65.699219 "/>
<path style="fill:none;stroke-width:1;stroke-linecap:butt;stroke-linejoin:miter;stroke:rgb(92.666654%,29.788287%,24.283585%);stroke-opacity:1;stroke-miterlimit:10;" d="M 51.921875 63.582031 C 51.921875 64.34375 50.777344 64.34375 50.777344 63.582031 C 50.777344 62.820312 51.921875 62.820312 51.921875 63.582031 "/>
<path style="fill:none;stroke-width:1;stroke-linecap:butt;stroke-linejoin:miter;stroke:rgb(92.134559%,28.010502%,24.235533%);stroke-opacity:1;stroke-miterlimit:10;" d="M 51.214844 101.230469 C 51.214844 102.316406 49.585938 102.316406 49.585938 101.230469 C 49.585938 100.144531 51.214844 100.144531 51.214844 101.230469 "/>
<path style="fill:none;stroke-width:1;stroke-linecap:butt;stroke-linejoin:miter;stroke:rgb(91.529704%,26.265922%,24.345425%);stroke-opacity:1;stroke-miterlimit:10;" d="M 63.625 94.148438 C 63.625 95.097656 62.199219 95.097656 62.199219 94.148438 C 62.199219 93.199219 63.625 93.199219 63.625 94.148438 "/>
<path style="fill:none;stroke-width:1;stroke-linecap:butt;stroke-linejoin:miter;stroke:rgb(90.848638%,24.568473%,24.598324%);stroke-opacity:1;stroke-miterlimit:10;" d="M 78.035156 138.53125 C 78.035156 139.867188 76.035156 139.867188 76.035156 138.53125 C 76.035156 137.199219 78.035156 137.199219 78.035156 138.53125 "/>
<path style="fill:none;stroke-width:1;stroke-linecap:butt;stroke-linejoin:miter;stroke:rgb(90.087033%,22.932896%,24.978844%);stroke-opacity:1;stroke-miterlimit:10;" d="M 80.042969 135.226562 C 80.042969 135.65625 79.398438 135.65625 79.398438 135.226562 C 79.398438 134.796875 80.042969 134.796875 80.042969 135.226562 "/>
<path style="fill:none;stroke-width:1;stroke-linecap:butt;stroke-linejoin:miter;stroke:rgb(89.252669%,21.363179%,25.455353%);stroke-opacity:1;stroke-miterlimit:10;" d="M 79.5 142.773438 C 79.5 143.386719 78.582031 143.386719 78.582031 142.773438 C 78.582031 142.164062 79.5 142.164062 79.5 142.773438 "/>
<path style="fill:none;stroke-width:1;stroke-linecap:butt;stroke-linejoin:miter;stroke:rgb(88.352225%,19.859619%,26.003061%);stroke-opacity:1;stroke-miterlimit:10;" d="M 73.328125 136.914062 C 73.328125 137.507812 72.4375 137.507812 72.4375 136.914062 C 72.4375 136.320312 73.328125 136.320312 73.328125 136.914062 "/>
<path style="fill:none;stroke-width:1;stroke-linecap:butt;stroke-linejoin:miter;stroke:rgb(87.390512%,18.422299%,26.602701%);stroke-opacity:1;stroke-miterlimit:10;" d="M 88.859375 124.484375 C 88.859375 125.621094 87.15625 125.621094 87.15625 124.484375 C 87.15625 123.351562 88.859375 123.351562 88.859375 124.484375 "/>
<path style="fill:none;stroke-width:1;stroke-linecap:butt;stroke-linejoin:miter;stroke:rgb(86.378629%,17.041194%,27.233705%);stroke-opacity:1;stroke-miterlimit:10;" d="M 123.824219 164.453125 C 123.824219 165.960938 121.5625 165.960938 121.5625 164.453125 C 121.5625 162.945312 123.824219 162.945312 123.824219 164.453125 "/>
<path style="fill:none;stroke-width:1;stroke-linecap:butt;stroke-linejoin:miter;stroke:rgb(85.323634%,15.709414%,27.884157%);stroke-opacity:1;stroke-miterlimit:10;" d="M 124.199219 159.671875 C 124.199219 160.152344 123.476562 160.152344 123.476562 159.671875 C 123.476562 159.1875 124.199219 159.1875 124.199219 159.671875 "/>
<path style="fill:none;stroke-width:1;stroke-linecap:butt;stroke-linejoin:miter;stroke:rgb(84.225155%,14.435868%,28.546265%);stroke-opacity:1;stroke-miterlimit:10;" d="M 127.230469 167.59375 C 127.230469 168.277344 126.203125 168.277344 126.203125 167.59375 C 126.203125 166.90625 127.230469 166.90625 127.230469 167.59375 "/>
<path style="fill:none;stroke-width:1;stroke-linecap:butt;stroke-linejoin:miter;stroke:rgb(83.081439%,13.239989%,29.215828%);stroke-opacity:1;stroke-miterlimit:10;" d="M 118.257812 165.089844 C 118.257812 165.769531 117.238281 165.769531 117.238281 165.089844 C 117.238281 164.410156 118.257812 164.410156 118.257812 165.089844 "/>
<path style="fill:none;stroke-width:1;stroke-linecap:butt;stroke-linejoin:miter;stroke:rgb(81.891525%,12.142616%,29.886688%);stroke-opacity:1;stroke-miterlimit:10;" d="M 128.230469 144.585938 C 128.230469 145.84375 126.34375 145.84375 126.34375 144.585938 C 126.34375 143.328125 128.230469 143.328125 128.230469 144.585938 "/>
<path style="fill:none;stroke-width:1;stroke-linecap:butt;stroke-linejoin:miter;stroke:rgb(80.653379%,11.170577%,30.55124%);stroke-opacity:1;stroke-miterlimit:10;" d="M 190.445312 150.882812 C 190.445312 156.300781 182.320312 156.300781 182.320312 150.882812 C 182.320312 145.464844 190.445312 145.464844 190.445312 150.882812 "/>
<path style="fill:none;stroke-width:1;stroke-linecap:butt;stroke-linejoin:miter;stroke:rgb(79.367997%,10.345655%,31.201066%);stroke-opacity:1;stroke-miterlimit:10;" d="M 178.125 164.453125 C 178.125 165.960938 175.859375 165.960938 175.859375 164.453125 C 175.859375 162.945312 178.125 162.945312 178.125 164.453125 "/>
<path style="fill:none;stroke-width:1;stroke-linecap:butt;stroke-linejoin:miter;stroke:rgb(78.038272%,9.681645%,31.82825%);stroke-opacity:1;stroke-miterlimit:10;" d="M 176.269531 159.671875 C 176.269531 160.152344 175.546875 160.152344 175.546875 159.671875 C 175.546875 159.1875 176.269531 159.1875 176.269531 159.671875 "/>
<path style="fill:none;stroke-width:1;stroke-linecap:butt;stroke-linejoin:miter;stroke:rgb(76.666219%,9.19139%,32.424151%);stroke-opacity:1;stroke-miterlimit:10;" d="M 182.335938 165.089844 C 182.335938 165.769531 181.320312 165.769531 181.320312 165.089844 C 181.320312 164.410156 182.335938 164.410156 182.335938 165.089844 "/>
<path style="fill:none;stroke-width:1;stroke-linecap:butt;stroke-linejoin:miter;stroke:rgb(75.255595%,8.874678%,32.981193%);stroke-opacity:1;stroke-miterlimit:10;" d="M 173.511719 167.59375 C 173.511719 168.277344 172.480469 168.277344 172.480469 167.59375 C 172.480469 166.90625 173.511719 166.90625 173.511719 167.59375 "/>
<path style="fill:none;stroke-width:1;stroke-linecap:butt;stroke-linejoin:miter;stroke:rgb(73.811954%,8.714345%,33.495062%);stroke-opacity:1;stroke-miterlimit:10;" d="M 173.527344 144.585938 C 173.527344 145.84375 171.640625 145.84375 171.640625 144.585938 C 171.640625 143.328125 173.527344 143.328125 173.527344 144.585938 "/>
<path style="fill:none;stroke-width:1;stroke-linecap:butt;stroke-linejoin:miter;stroke:rgb(72.339727%,8.691224%,33.960869%);stroke-opacity:1;stroke-miterlimit:10;" d="M 210.898438 139.207031 C 210.898438 144.324219 203.21875 144.324219 203.21875 139.207031 C 203.21875 134.085938 210.898438 134.085938 210.898438 139.207031 "/>
<path style="fill:none;stroke-width:1;stroke-linecap:butt;stroke-linejoin:miter;stroke:rgb(70.842105%,8.785796%,34.374544%);stroke-opacity:1;stroke-miterlimit:10;" d="M 227.03125 123.917969 C 227.03125 128.648438 219.9375 128.648438 219.9375 123.917969 C 219.9375 119.191406 227.03125 119.191406 227.03125 123.917969 "/>
<path style="fill:none;stroke-width:1;stroke-linecap:butt;stroke-linejoin:miter;stroke:rgb(69.325583%,8.962334%,34.736772%);stroke-opacity:1;stroke-miterlimit:10;" d="M 222.203125 138.53125 C 222.203125 139.867188 220.203125 139.867188 220.203125 138.53125 C 220.203125 137.199219 222.203125 137.199219 222.203125 138.53125 "/>
<path style="fill:none;stroke-width:1;stroke-linecap:butt;stroke-linejoin:miter;stroke:rgb(67.793893%,9.197535%,35.046825%);stroke-opacity:1;stroke-miterlimit:10;" d="M 218.945312 135.226562 C 218.945312 135.65625 218.304688 135.65625 218.304688 135.226562 C 218.304688 134.796875 218.945312 134.796875 218.945312 135.226562 "/>
<path style="fill:none;stroke-width:1;stroke-linecap:butt;stroke-linejoin:miter;stroke:rgb(66.249593%,9.473436%,35.302723%);stroke-opacity:1;stroke-miterlimit:10;" d="M 225.582031 136.914062 C 225.582031 137.507812 224.691406 137.507812 224.691406 136.914062 C 224.691406 136.320312 225.582031 136.320312 225.582031 136.914062 "/>
<path style="fill:none;stroke-width:1;stroke-linecap:butt;stroke-linejoin:miter;stroke:rgb(64.697221%,9.767954%,35.508276%);stroke-opacity:1;stroke-miterlimit:10;" d="M 219.761719 142.773438 C 219.761719 143.386719 218.84375 143.386719 218.84375 142.773438 C 218.84375 142.164062 219.761719 142.164062 219.761719 142.773438 "/>
<path style="fill:none;stroke-width:1;stroke-linecap:butt;stroke-linejoin:miter;stroke:rgb(63.139686%,10.067417%,35.664819%);stroke-opacity:1;stroke-miterlimit:10;" d="M 211.460938 124.484375 C 211.460938 125.621094 209.757812 125.621094 209.757812 124.484375 C 209.757812 123.351562 211.460938 123.351562 211.460938 124.484375 "/>
<path style="fill:none;stroke-width:1;stroke-linecap:butt;stroke-linejoin:miter;stroke:rgb(61.577851%,10.365269%,35.771069%);stroke-opacity:1;stroke-miterlimit:10;" d="M 238.628906 106.832031 C 238.628906 111.125 232.191406 111.125 232.191406 106.832031 C 232.191406 102.539062 238.628906 102.539062 238.628906 106.832031 "/>
<path style="fill:none;stroke-width:1;stroke-linecap:butt;stroke-linejoin:miter;stroke:rgb(60.01531%,10.650188%,35.83165%);stroke-opacity:1;stroke-miterlimit:10;" d="M 246.09375 89.453125 C 246.09375 93.300781 240.324219 93.300781 240.324219 89.453125 C 240.324219 85.605469 246.09375 85.605469 246.09375 89.453125 "/>
<path style="fill:none;stroke-width:1;stroke-linecap:butt;stroke-linejoin:miter;stroke:rgb(58.453556%,10.917593%,35.848418%);stroke-opacity:1;stroke-miterlimit:10;" d="M 246.570312 101.230469 C 246.570312 102.316406 244.941406 102.316406 244.941406 101.230469 C 244.941406 100.144531 246.570312 100.144531 246.570312 101.230469 "/>
<path style="fill:none;stroke-width:1;stroke-linecap:butt;stroke-linejoin:miter;stroke:rgb(56.894153%,11.162779%,35.821055%);stroke-opacity:1;stroke-miterlimit:10;" d="M 234.535156 94.148438 C 234.535156 95.097656 233.113281 95.097656 233.113281 94.148438 C 233.113281 93.199219 234.535156 93.199219 234.535156 94.148438 "/>
<path style="fill:none;stroke-width:1;stroke-linecap:butt;stroke-linejoin:miter;stroke:rgb(55.338438%,11.383816%,35.75308%);stroke-opacity:1;stroke-miterlimit:10;" d="M 250.160156 72.828125 C 250.160156 76.25 245.027344 76.25 245.027344 72.828125 C 245.027344 69.40625 250.160156 69.40625 250.160156 72.828125 "/>
<path style="fill:none;stroke-width:1;stroke-linecap:butt;stroke-linejoin:miter;stroke:rgb(53.786966%,11.58%,35.647505%);stroke-opacity:1;stroke-miterlimit:10;" d="M 251.621094 57.542969 C 251.621094 60.574219 247.074219 60.574219 247.074219 57.542969 C 247.074219 54.511719 251.621094 54.511719 251.621094 57.542969 "/>
<path style="fill:none;stroke-width:1;stroke-linecap:butt;stroke-linejoin:miter;stroke:rgb(52.241845%,11.746309%,35.506985%);stroke-opacity:1;stroke-miterlimit:10;" d="M 254.519531 65.699219 C 254.519531 66.546875 253.25 66.546875 253.25 65.699219 C 253.25 64.851562 254.519531 64.851562 254.519531 65.699219 "/>
<path style="fill:none;stroke-width:1;stroke-linecap:butt;stroke-linejoin:miter;stroke:rgb(50.704115%,11.882935%,35.332531%);stroke-opacity:1;stroke-miterlimit:10;" d="M 244.058594 63.582031 C 244.058594 64.34375 242.914062 64.34375 242.914062 63.582031 C 242.914062 62.820312 244.058594 62.820312 244.058594 63.582031 "/>
<path style="fill:none;stroke-width:1;stroke-linecap:butt;stroke-linejoin:miter;stroke:rgb(49.173636%,11.992287%,35.124491%);stroke-opacity:1;stroke-miterlimit:10;" d="M 251.207031 43.855469 C 251.207031 46.539062 247.1875 46.539062 247.1875 43.855469 C 247.1875 41.175781 251.207031 41.175781 251.207031 43.855469 "/>
<path style="fill:none;stroke-width:1;stroke-linecap:butt;stroke-linejoin:miter;stroke:rgb(47.650656%,12.075111%,34.881492%);stroke-opacity:1;stroke-miterlimit:10;" d="M 249.507812 31.804688 C 249.507812 34.175781 245.949219 34.175781 245.949219 31.804688 C 245.949219 29.429688 249.507812 29.429688 249.507812 31.804688 "/>
<path style="fill:none;stroke-width:1;stroke-linecap:butt;stroke-linejoin:miter;stroke:rgb(46.135144%,12.13303%,34.603628%);stroke-opacity:1;stroke-miterlimit:10;" d="M 253.054688 37.066406 C 253.054688 37.722656 252.070312 37.722656 252.070312 37.066406 C 252.070312 36.410156 253.054688 36.410156 253.054688 37.066406 "/>
<path style="fill:none;stroke-width:1;stroke-linecap:butt;stroke-linejoin:miter;stroke:rgb(44.62693%,12.167824%,34.291637%);stroke-opacity:1;stroke-miterlimit:10;" d="M 244.886719 37.667969 C 244.886719 38.269531 243.980469 38.269531 243.980469 37.667969 C 243.980469 37.0625 244.886719 37.0625 244.886719 37.667969 "/>
<path style="fill:none;stroke-width:1;stroke-linecap:butt;stroke-linejoin:miter;stroke:rgb(43.12628%,12.179829%,33.94451%);stroke-opacity:1;stroke-miterlimit:10;" d="M 246.976562 21.292969 C 246.976562 23.394531 243.820312 23.394531 243.820312 21.292969 C 243.820312 19.1875 246.976562 19.1875 246.976562 21.292969 "/>
<path style="fill:none;stroke-width:1;stroke-linecap:butt;stroke-linejoin:miter;stroke:rgb(41.633304%,12.169713%,33.561899%);stroke-opacity:1;stroke-miterlimit:10;" d="M 243.9375 12.175781 C 243.9375 14.046875 241.128906 14.046875 241.128906 12.175781 C 241.128906 10.304688 243.9375 10.304688 243.9375 12.175781 "/>
<path style="fill:none;stroke-width:1;stroke-linecap:butt;stroke-linejoin:miter;stroke:rgb(40.147874%,12.138791%,33.144945%);stroke-opacity:1;stroke-miterlimit:10;" d="M 247.347656 15.464844 C 247.347656 15.976562 246.578125 15.976562 246.578125 15.464844 C 246.578125 14.953125 247.347656 14.953125 247.347656 15.464844 "/>
<path style="fill:none;stroke-width:1;stroke-linecap:butt;stroke-linejoin:miter;stroke:rgb(38.67024%,12.087186%,32.693093%);stroke-opacity:1;stroke-miterlimit:10;" d="M 241.222656 17.304688 C 241.222656 17.785156 240.503906 17.785156 240.503906 17.304688 C 240.503906 16.828125 241.222656 16.828125 241.222656 17.304688 "/>
<path style="fill:none;stroke-width:1;stroke-linecap:butt;stroke-linejoin:miter;stroke:rgb(37.200711%,12.014802%,32.205574%);stroke-opacity:1;stroke-miterlimit:10;" d="M 240.621094 4.285156 C 240.621094 5.957031 238.117188 5.957031 238.117188 4.285156 C 238.117188 2.617188 240.621094 2.617188 240.621094 4.285156 "/>
<path style="fill:none;stroke-width:1;stroke-linecap:butt;stroke-linejoin:miter;stroke:rgb(35.739157%,11.922697%,31.684007%);stroke-opacity:1;stroke-miterlimit:10;" d="M 237.195312 -2.542969 C 237.195312 -1.046875 234.953125 -1.046875 234.953125 -2.542969 C 234.953125 -4.035156 237.195312 -4.035156 237.195312 -2.542969 "/>
<path style="fill:none;stroke-width:1;stroke-linecap:butt;stroke-linejoin:miter;stroke:rgb(34.285788%,11.810895%,31.128342%);stroke-opacity:1;stroke-miterlimit:10;" d="M 240.207031 -0.519531 C 240.207031 -0.117188 239.601562 -0.117188 239.601562 -0.519531 C 239.601562 -0.925781 240.207031 -0.925781 240.207031 -0.519531 "/>
<path style="fill:none;stroke-width:1;stroke-linecap:butt;stroke-linejoin:miter;stroke:rgb(32.841154%,11.678788%,30.536885%);stroke-opacity:1;stroke-miterlimit:10;" d="M 235.664062 1.765625 C 235.664062 2.148438 235.085938 2.148438 235.085938 1.765625 C 235.085938 1.378906 235.664062 1.378906 235.664062 1.765625 "/>
<path style="fill:none;stroke-width:1;stroke-linecap:butt;stroke-linejoin:miter;stroke:rgb(31.405037%,11.52724%,29.912173%);stroke-opacity:1;stroke-miterlimit:10;" d="M 233.757812 -8.457031 C 233.757812 -7.113281 231.742188 -7.113281 231.742188 -8.457031 C 231.742188 -9.800781 233.757812 -9.800781 233.757812 -8.457031 "/>
<path style="fill:none;stroke-width:1;stroke-linecap:butt;stroke-linejoin:miter;stroke:rgb(29.977678%,11.356089%,29.254823%);stroke-opacity:1;stroke-miterlimit:10;" d="M 230.382812 -13.597656 C 230.382812 -12.386719 228.566406 -12.386719 228.566406 -13.597656 C 228.566406 -14.8125 230.382812 -14.8125 230.382812 -13.597656 "/>
<path style="fill:none;stroke-width:1;stroke-linecap:butt;stroke-linejoin:miter;stroke:rgb(28.559851%,11.163971%,28.563501%);stroke-opacity:1;stroke-miterlimit:10;" d="M 236.550781 -6.882812 C 236.550781 -6.523438 236.007812 -6.523438 236.007812 -6.882812 C 236.007812 -7.246094 236.550781 -7.246094 236.550781 -6.882812 "/>
<path style="fill:none;stroke-width:1;stroke-linecap:butt;stroke-linejoin:miter;stroke:rgb(27.151224%,10.951924%,27.840657%);stroke-opacity:1;stroke-miterlimit:10;" d="M 232.628906 -4.539062 C 232.628906 -4.191406 232.113281 -4.191406 232.113281 -4.539062 C 232.113281 -4.882812 232.628906 -4.882812 232.628906 -4.539062 "/>
<path style="fill:none;stroke-width:1;stroke-linecap:butt;stroke-linejoin:miter;stroke:rgb(25.751977%,10.71983%,27.08655%);stroke-opacity:1;stroke-miterlimit:10;" d="M 243.847656 6.867188 C 243.847656 7.324219 243.167969 7.324219 243.167969 6.867188 C 243.167969 6.414062 243.847656 6.414062 243.847656 6.867188 "/>
<path style="fill:none;stroke-width:1;stroke-linecap:butt;stroke-linejoin:miter;stroke:rgb(24.362867%,10.466069%,26.301168%);stroke-opacity:1;stroke-miterlimit:10;" d="M 238.574219 9 C 238.574219 9.429688 237.929688 9.429688 237.929688 9 C 237.929688 8.570312 238.574219 8.570312 238.574219 9 "/>
<path style="fill:none;stroke-width:1;stroke-linecap:butt;stroke-linejoin:miter;stroke:rgb(22.98366%,10.191137%,25.486827%);stroke-opacity:1;stroke-miterlimit:10;" d="M 250.507812 25.464844 C 250.507812 26.042969 249.640625 26.042969 249.640625 25.464844 C 249.640625 24.882812 250.507812 24.882812 250.507812 25.464844 "/>
<path style="fill:none;stroke-width:1;stroke-linecap:butt;stroke-linejoin:miter;stroke:rgb(21.614381%,9.894898%,24.644565%);stroke-opacity:1;stroke-miterlimit:10;" d="M 243.417969 26.820312 C 243.417969 27.359375 242.613281 27.359375 242.613281 26.820312 C 242.613281 26.28125 243.417969 26.28125 243.417969 26.820312 "/>
<path style="fill:none;stroke-width:1;stroke-linecap:butt;stroke-linejoin:miter;stroke:rgb(20.255505%,9.576082%,23.773999%);stroke-opacity:1;stroke-miterlimit:10;" d="M 254.578125 50.445312 C 254.578125 51.191406 253.460938 51.191406 253.460938 50.445312 C 253.460938 49.699219 254.578125 49.699219 254.578125 50.445312 "/>
<path style="fill:none;stroke-width:1;stroke-linecap:butt;stroke-linejoin:miter;stroke:rgb(18.906826%,9.234544%,22.877752%);stroke-opacity:1;stroke-miterlimit:10;" d="M 245.257812 49.925781 C 245.257812 50.605469 244.238281 50.605469 244.238281 49.925781 C 244.238281 49.246094 245.257812 49.246094 245.257812 49.925781 "/>
<path style="fill:none;stroke-width:1;stroke-linecap:butt;stroke-linejoin:miter;stroke:rgb(17.568065%,8.870162%,21.957563%);stroke-opacity:1;stroke-miterlimit:10;" d="M 252.144531 82.753906 C 252.144531 83.714844 250.703125 83.714844 250.703125 82.753906 C 250.703125 81.792969 252.144531 81.792969 252.144531 82.753906 "/>
<path style="fill:none;stroke-width:1;stroke-linecap:butt;stroke-linejoin:miter;stroke:rgb(16.238302%,8.482206%,21.014488%);stroke-opacity:1;stroke-miterlimit:10;" d="M 240.703125 78.464844 C 240.703125 79.320312 239.421875 79.320312 239.421875 78.464844 C 239.421875 77.613281 240.703125 77.613281 240.703125 78.464844 "/>
<path style="fill:none;stroke-width:1;stroke-linecap:butt;stroke-linejoin:miter;stroke:rgb(14.917372%,8.06625%,20.066016%);stroke-opacity:1;stroke-miterlimit:10;" d="M 236.84375 120.292969 C 236.84375 121.507812 235.027344 121.507812 235.027344 120.292969 C 235.027344 119.082031 236.84375 119.082031 236.84375 120.292969 "/>
<path style="fill:none;stroke-width:1;stroke-linecap:butt;stroke-linejoin:miter;stroke:rgb(13.604401%,7.62136%,19.118394%);stroke-opacity:1;stroke-miterlimit:10;" d="M 224.933594 109.867188 C 224.933594 110.914062 223.363281 110.914062 223.363281 109.867188 C 223.363281 108.824219 224.933594 108.824219 224.933594 109.867188 "/>
<path style="fill:none;stroke-width:1;stroke-linecap:butt;stroke-linejoin:miter;stroke:rgb(12.299186%,7.145833%,18.172904%);stroke-opacity:1;stroke-miterlimit:10;" d="M 202.40625 153.980469 C 202.40625 155.417969 200.25 155.417969 200.25 153.980469 C 200.25 152.542969 202.40625 152.542969 202.40625 153.980469 "/>
<path style="fill:none;stroke-width:1;stroke-linecap:butt;stroke-linejoin:miter;stroke:rgb(10.998456%,6.639935%,17.230451%);stroke-opacity:1;stroke-miterlimit:10;" d="M 199.683594 149.824219 C 199.683594 150.285156 198.992188 150.285156 198.992188 149.824219 C 198.992188 149.363281 199.683594 149.363281 199.683594 149.824219 "/>
<path style="fill:none;stroke-width:1;stroke-linecap:butt;stroke-linejoin:miter;stroke:rgb(9.69965%,6.103912%,16.292275%);stroke-opacity:1;stroke-miterlimit:10;" d="M 198.828125 157.898438 C 198.828125 158.554688 197.84375 158.554688 197.84375 157.898438 C 197.84375 157.242188 198.828125 157.242188 198.828125 157.898438 "/>
<path style="fill:none;stroke-width:1;stroke-linecap:butt;stroke-linejoin:miter;stroke:rgb(8.398921%,5.536525%,15.359819%);stroke-opacity:1;stroke-miterlimit:10;" d="M 206.359375 153.351562 C 206.359375 153.996094 205.394531 153.996094 205.394531 153.351562 C 205.394531 152.710938 206.359375 152.710938 206.359375 153.351562 "/>
<path style="fill:none;stroke-width:1;stroke-linecap:butt;stroke-linejoin:miter;stroke:rgb(7.090445%,4.935874%,14.434831%);stroke-opacity:1;stroke-miterlimit:10;" d="M 194.121094 136.558594 C 194.121094 137.769531 192.304688 137.769531 192.304688 136.558594 C 192.304688 135.351562 194.121094 135.351562 194.121094 136.558594 "/>
<path style="fill:none;stroke-width:1;stroke-linecap:butt;stroke-linejoin:miter;stroke:rgb(5.767754%,4.301207%,13.518889%);stroke-opacity:1;stroke-miterlimit:10;" d="M 151.097656 168.175781 C 151.097656 169.707031 148.796875 169.707031 148.796875 168.175781 C 148.796875 166.640625 151.097656 166.640625 151.097656 168.175781 "/>
<path style="fill:none;stroke-width:1;stroke-linecap:butt;stroke-linejoin:miter;stroke:rgb(4.420036%,3.635577%,12.614287%);stroke-opacity:1;stroke-miterlimit:10;" d="M 150.34375 163.164062 C 150.34375 163.652344 149.605469 163.652344 149.605469 163.164062 C 149.605469 162.671875 150.34375 162.671875 150.34375 163.164062 "/>
<path style="fill:none;stroke-width:1;stroke-linecap:butt;stroke-linejoin:miter;stroke:rgb(3.093882%,2.990437%,11.725114%);stroke-opacity:1;stroke-miterlimit:10;" d="M 145.769531 170.152344 C 145.769531 170.847656 144.726562 170.847656 144.726562 170.152344 C 144.726562 169.460938 145.769531 169.460938 145.769531 170.152344 "/>
<path style="fill:none;stroke-width:1;stroke-linecap:butt;stroke-linejoin:miter;stroke:rgb(1.97293%,2.37937%,10.856279%);stroke-opacity:1;stroke-miterlimit:10;" d="M 155.128906 170.152344 C 155.128906 170.847656 154.085938 170.847656 154.085938 170.152344 C 154.085938 169.460938 155.128906 169.460938 155.128906 170.152344 "/>
<path style="fill:none;stroke-width:1;stroke-linecap:butt;stroke-linejoin:miter;stroke:rgb(1.060815%,1.808215%,10.018654%);stroke-opacity:1;stroke-miterlimit:10;" d="M 150.980469 147.410156 C 150.980469 148.6875 149.066406 148.6875 149.066406 147.410156 C 149.066406 146.136719 150.980469 146.136719 150.980469 147.410156 "/>
</g>
</svg>
