<?xml version="1.0" encoding="UTF-8"?>
<svg xmlns="http://www.w3.org/2000/svg" xmlns:xlink="http://www.w3.org/1999/xlink" width="400pt" height="300pt" viewBox="0 0 400 300" version="1.1">
<g id="id1">
<path style="fill:none;stroke-width:1;stroke-linecap:butt;stroke-linejoin:miter;stroke:rgb(0%,0%,0%);stroke-opacity:1;stroke-miterlimit:10;" d="M 100 275 C 106.109375 188.816406 112.222656 102.632812 150 125 "/>
<path style=" stroke:none;fill-rule:nonzero;fill:rgb(36.8417%,50.6779%,70.9798%);fill-opacity:1;" d="M 110.109375 188.816406 C 110.109375 194.148438 102.109375 194.148438 102.109375 188.816406 C 102.109375 183.484375 110.109375 183.484375 110.109375 188.816406 Z M 110.109375 188.816406 "/>
<path style="fill:none;stroke-width:1;stroke-linecap:butt;stroke-linejoin:miter;stroke:rgb(36.8417%,50.6779%,70.9798%);stroke-opacity:1;stroke-miterlimit:10;" d="M 100 275 L 106.109375 188.816406 "/>
<path style=" stroke:none;fill-rule:nonzero;fill:rgb(88.0722%,61.1041%,14.2051%);fill-opacity:1;" d="M 116.222656 102.632812 C 116.222656 107.964844 108.222656 107.964844 108.222656 102.632812 C 108.222656 97.300781 116.222656 97.300781 116.222656 102.632812 Z M 116.222656 102.632812 "/>
<path style="fill:none;stroke-width:1;stroke-linecap:butt;stroke-linejoin:miter;stroke:rgb(88.0722%,61.1041%,14.2051%);stroke-opacity:1;stroke-miterlimit:10;" d="M 150 125 L 112.222656 102.632812 "/>
<path style="fill:none;stroke-width:1;stroke-linecap:butt;stroke-linejoin:miter;stroke:rgb(0%,0%,0%);stroke-opacity:1;stroke-miterlimit:10;" d="M 150 125 C 187.777344 147.367188 257.226562 278.285156 300 275 "/>
<path style=" stroke:none;fill-rule:nonzero;fill:rgb(36.8417%,50.6779%,70.9798%);fill-opacity:1;" d="M 191.777344 147.367188 C 191.777344 152.699219 183.777344 152.699219 183.777344 147.367188 C 183.777344 142.035156 191.777344 142.035156 191.777344 147.367188 Z M 191.777344 147.367188 "/>
<path style="fill:none;stroke-width:1;stroke-linecap:butt;stroke-linejoin:miter;stroke:rgb(36.8417%,50.6779%,70.9798%);stroke-opacity:1;stroke-miterlimit:10;" d="M 150 125 L 187.777344 147.367188 "/>
<path style=" stroke:none;fill-rule:nonzero;fill:rgb(88.0722%,61.1041%,14.2051%);fill-opacity:1;" d="M 261.226562 278.285156 C 261.226562 283.617188 253.226562 283.617188 253.226562 278.285156 C 253.226562 272.953125 261.226562 272.953125 261.226562 278.285156 Z M 261.226562 278.285156 "/>
<path style="fill:none;stroke-width:1;stroke-linecap:butt;stroke-linejoin:miter;stroke:rgb(88.0722%,61.1041%,14.2051%);stroke-opacity:1;stroke-miterlimit:10;" d="M 300 275 L 257.226562 278.285156 "/>
<path style="fill:none;stroke-width:1;stroke-linecap:butt;stroke-linejoin:miter;stroke:rgb(0%,0%,0%);stroke-opacity:1;stroke-miterlimit:10;" d="M 300 275 C 342.773438 271.714844 358.871094 134.222656 350 75 "/>
<path style=" stroke:none;fill-rule:nonzero;fill:rgb(36.8417%,50.6779%,70.9798%);fill-opacity:1;" d="M 346.773438 271.714844 C 346.773438 277.046875 338.773438 277.046875 338.773438 271.714844 C 338.773438 266.382812 346.773438 266.382812 346.773438 271.714844 Z M 346.773438 271.714844 "/>
<path style="fill:none;stroke-width:1;stroke-linecap:butt;stroke-linejoin:miter;stroke:rgb(36.8417%,50.6779%,70.9798%);stroke-opacity:1;stroke-miterlimit:10;" d="M 300 275 L 342.773438 271.714844 "/>
<path style=" stroke:none;fill-rule:nonzero;fill:rgb(88.0722%,61.1041%,14.2051%);fill-opacity:1;" d="M 362.871094 134.222656 C 362.871094 139.554688 354.871094 139.554688 354.871094 134.222656 C 354.871094 128.890625 362.871094 128.890625 362.871094 134.222656 Z M 362.871094 134.222656 "/>
<path style="fill:none;stroke-width:1;stroke-linecap:butt;stroke-linejoin:miter;stroke:rgb(88.0722%,61.1041%,14.2051%);stroke-opacity:1;stroke-miterlimit:10;" d="M 350 75 L 358.871094 134.222656 "/>
<path style="fill:none;stroke-width:1;stroke-linecap:butt;stroke-linejoin:miter;stroke:rgb(0%,0%,0%);stroke-opacity:1;stroke-miterlimit:10;" d="M 350 75 C 341.128906 15.777344 307.292969 34.820312 250 50 "/>
<path style=" stroke:none;fill-rule:nonzero;fill:rgb(36.8417%,50.6779%,70.9798%);fill-opacity:1;" d="M 345.128906 15.777344 C 345.128906 21.109375 337.128906 21.109375 337.128906 15.777344 C 337.128906 10.445312 345.128906 10.445312 345.128906 15.777344 Z M 345.128906 15.777344 "/>
<path style="fill:none;stroke-width:1;stroke-linecap:butt;stroke-linejoin:miter;stroke:rgb(36.8417%,50.6779%,70.9798%);stroke-opacity:1;stroke-miterlimit:10;" d="M 350 75 L 341.128906 15.777344 "/>
<path style=" stroke:none;fill-rule:nonzero;fill:rgb(88.0722%,61.1041%,14.2051%);fill-opacity:1;" d="M 311.292969 34.820312 C 311.292969 40.152344 303.292969 40.152344 303.292969 34.820312 C 303.292969 29.488281 311.292969 29.488281 311.292969 34.820312 Z M 311.292969 34.820312 "/>
<path style="fill:none;stroke-width:1;stroke-linecap:butt;stroke-linejoin:miter;stroke:rgb(88.0722%,61.1041%,14.2051%);stroke-opacity:1;stroke-miterlimit:10;" d="M 250 50 L 307.292969 34.820312 "/>
<path style="fill:none;stroke-width:1;stroke-linecap:butt;stroke-linejoin:miter;stroke:rgb(0%,0%,0%);stroke-opacity:1;stroke-miterlimit:10;" d="M 250 50 C 192.707031 65.179688 111.964844 76.492188 75 75 "/>
<path style=" stroke:none;fill-rule:nonzero;fill:rgb(36.8417%,50.6779%,70.9798%);fill-opacity:1;" d="M 196.707031 65.179688 C 196.707031 70.511719 188.707031 70.511719 188.707031 65.179688 C 188.707031 59.847656 196.707031 59.847656 196.707031 65.179688 Z M 196.707031 65.179688 "/>
<path style="fill:none;stroke-width:1;stroke-linecap:butt;stroke-linejoin:miter;stroke:rgb(36.8417%,50.6779%,70.9798%);stroke-opacity:1;stroke-miterlimit:10;" d="M 250 50 L 192.707031 65.179688 "/>
<path style=" stroke:none;fill-rule:nonzero;fill:rgb(88.0722%,61.1041%,14.2051%);fill-opacity:1;" d="M 115.964844 76.492188 C 115.964844 81.824219 107.964844 81.824219 107.964844 76.492188 C 107.964844 71.160156 115.964844 71.160156 115.964844 76.492188 Z M 115.964844 76.492188 "/>
<path style="fill:none;stroke-width:1;stroke-linecap:butt;stroke-linejoin:miter;stroke:rgb(88.0722%,61.1041%,14.2051%);stroke-opacity:1;stroke-miterlimit:10;" d="M 75 75 L 111.964844 76.492188 "/>
<path style="fill:none;stroke-width:1;stroke-linecap:butt;stroke-linejoin:miter;stroke:rgb(0%,0%,0%);stroke-opacity:1;stroke-miterlimit:10;" d="M 75 75 C 38.035156 73.507812 44.855469 59.214844 75 50 "/>
<path style=" stroke:none;fill-rule:nonzero;fill:rgb(36.8417%,50.6779%,70.9798%);fill-opacity:1;" d="M 42.035156 73.507812 C 42.035156 78.839844 34.035156 78.839844 34.035156 73.507812 C 34.035156 68.175781 42.035156 68.175781 42.035156 73.507812 Z M 42.035156 73.507812 "/>
<path style="fill:none;stroke-width:1;stroke-linecap:butt;stroke-linejoin:miter;stroke:rgb(36.8417%,50.6779%,70.9798%);stroke-opacity:1;stroke-miterlimit:10;" d="M 75 75 L 38.035156 73.507812 "/>
<path style=" stroke:none;fill-rule:nonzero;fill:rgb(88.0722%,61.1041%,14.2051%);fill-opacity:1;" d="M 48.855469 59.214844 C 48.855469 64.546875 40.855469 64.546875 40.855469 59.214844 C 40.855469 53.882812 48.855469 53.882812 48.855469 59.214844 Z M 48.855469 59.214844 "/>
<path style="fill:none;stroke-width:1;stroke-linecap:butt;stroke-linejoin:miter;stroke:rgb(88.0722%,61.1041%,14.2051%);stroke-opacity:1;stroke-miterlimit:10;" d="M 75 50 L 44.855469 59.214844 "/>
<path style="fill:none;stroke-width:1;stroke-linecap:butt;stroke-linejoin:miter;stroke:rgb(0%,0%,0%);stroke-opacity:1;stroke-miterlimit:10;" d="M 75 50 C 105.144531 40.785156 158.613281 36.652344 175 75 "/>
<path style=" stroke:none;fill-rule:nonzero;fill:rgb(36.8417%,50.6779%,70.9798%);fill-opacity:1;" d="M 109.144531 40.785156 C 109.144531 46.117188 101.144531 46.117188 101.144531 40.785156 C 101.144531 35.453125 109.144531 35.453125 109.144531 40.785156 Z M 109.144531 40.785156 "/>
<path style="fill:none;stroke-width:1;stroke-linecap:butt;stroke-linejoin:miter;stroke:rgb(36.8417%,50.6779%,70.9798%);stroke-opacity:1;stroke-miterlimit:10;" d="M 75 50 L 105.144531 40.785156 "/>
<path style=" stroke:none;fill-rule:nonzero;fill:rgb(88.0722%,61.1041%,14.2051%);fill-opacity:1;" d="M 162.613281 36.652344 C 162.613281 41.984375 154.613281 41.984375 154.613281 36.652344 C 154.613281 31.320312 162.613281 31.320312 162.613281 36.652344 Z M 162.613281 36.652344 "/>
<path style="fill:none;stroke-width:1;stroke-linecap:butt;stroke-linejoin:miter;stroke:rgb(88.0722%,61.1041%,14.2051%);stroke-opacity:1;stroke-miterlimit:10;" d="M 175 75 L 158.613281 36.652344 "/>
<path style="fill:none;stroke-width:1;stroke-linecap:butt;stroke-linejoin:miter;stroke:rgb(0%,0%,0%);stroke-opacity:1;stroke-miterlimit:10;" d="M 175 75 C 191.386719 113.347656 170.695312 194.171875 150 275 "/>
<path style=" stroke:none;fill-rule:nonzero;fill:rgb(36.8417%,50.6779%,70.9798%);fill-opacity:1;" d="M 195.386719 113.347656 C 195.386719 118.679688 187.386719 118.679688 187.386719 113.347656 C 187.386719 108.015625 195.386719 108.015625 195.386719 113.347656 Z M 195.386719 113.347656 "/>
<path style="fill:none;stroke-width:1;stroke-linecap:butt;stroke-linejoin:miter;stroke:rgb(36.8417%,50.6779%,70.9798%);stroke-opacity:1;stroke-miterlimit:10;" d="M 175 75 L 191.386719 113.347656 "/>
<path style=" stroke:none;fill-rule:nonzero;fill:rgb(88.0722%,61.1041%,14.2051%);fill-opacity:1;" d="M 174.695312 194.171875 C 174.695312 199.503906 166.695312 199.503906 166.695312 194.171875 C 166.695312 188.839844 174.695312 188.839844 174.695312 194.171875 Z M 174.695312 194.171875 "/>
<path style="fill:none;stroke-width:1;stroke-linecap:butt;stroke-linejoin:miter;stroke:rgb(88.0722%,61.1041%,14.2051%);stroke-opacity:1;stroke-miterlimit:10;" d="M 150 275 L 170.695312 194.171875 "/>
<path style="fill-rule:nonzero;fill:rgb(92.2526%,38.5626%,20.9179%);fill-opacity:0.8;stroke-width:1;stroke-linecap:butt;stroke-linejoin:miter;stroke:rgb(0%,0%,0%);stroke-opacity:1;stroke-miterlimit:10;" d="M 105 275 C 105 281.667969 95 281.667969 95 275 C 95 268.332031 105 268.332031 105 275 Z M 105 275 "/>
<path style="fill-rule:nonzero;fill:rgb(92.2526%,38.5626%,20.9179%);fill-opacity:0.8;stroke-width:1;stroke-linecap:butt;stroke-linejoin:miter;stroke:rgb(0%,0%,0%);stroke-opacity:1;stroke-miterlimit:10;" d="M 155 125 C 155 131.667969 145 131.667969 145 125 C 145 118.332031 155 118.332031 155 125 Z M 155 125 "/>
<path style="fill-rule:nonzero;fill:rgb(92.2526%,38.5626%,20.9179%);fill-opacity:0.8;stroke-width:1;stroke-linecap:butt;stroke-linejoin:miter;stroke:rgb(0%,0%,0%);stroke-opacity:1;stroke-miterlimit:10;" d="M 305 275 C 305 281.667969 295 281.667969 295 275 C 295 268.332031 305 268.332031 305 275 Z M 305 275 "/>
<path style="fill-rule:nonzero;fill:rgb(92.2526%,38.5626%,20.9179%);fill-opacity:0.8;stroke-width:1;stroke-linecap:butt;stroke-linejoin:miter;stroke:rgb(0%,0%,0%);stroke-opacity:1;stroke-miterlimit:10;" d="M 355 75 C 355 81.667969 345 81.667969 345 75 C 345 68.332031 355 68.332031 355 75 Z M 355 75 "/>
<path style="fill-rule:nonzero;fill:rgb(92.2526%,38.5626%,20.9179%);fill-opacity:0.8;stroke-width:1;stroke-linecap:butt;stroke-linejoin:miter;stroke:rgb(0%,0%,0%);stroke-opacity:1;stroke-miterlimit:10;" d="M 255 50 C 255 56.667969 245 56.667969 245 50 C 245 43.332031 255 43.332031 255 50 Z M 255 50 "/>
<path style="fill-rule:nonzero;fill:rgb(92.2526%,38.5626%,20.9179%);fill-opacity:0.8;stroke-width:1;stroke-linecap:butt;stroke-linejoin:miter;stroke:rgb(0%,0%,0%);stroke-opacity:1;stroke-miterlimit:10;" d="M 80 75 C 80 81.667969 70 81.667969 70 75 C 70 68.332031 80 68.332031 80 75 Z M 80 75 "/>
<path style="fill-rule:nonzero;fill:rgb(92.2526%,38.5626%,20.9179%);fill-opacity:0.8;stroke-width:1;stroke-linecap:butt;stroke-linejoin:miter;stroke:rgb(0%,0%,0%);stroke-opacity:1;stroke-miterlimit:10;" d="M 80 50 C 80 56.667969 70 56.667969 70 50 C 70 43.332031 80 43.332031 80 50 Z M 80 50 "/>
<path style="fill-rule:nonzero;fill:rgb(92.2526%,38.5626%,20.9179%);fill-opacity:0.8;stroke-width:1;stroke-linecap:butt;stroke-linejoin:miter;stroke:rgb(0%,0%,0%);stroke-opacity:1;stroke-miterlimit:10;" d="M 180 75 C 180 81.667969 170 81.667969 170 75 C 170 68.332031 180 68.332031 180 75 Z M 180 75 "/>
<path style="fill-rule:nonzero;fill:rgb(92.2526%,38.5626%,20.9179%);fill-opacity:0.8;stroke-width:1;stroke-linecap:butt;stroke-linejoin:miter;stroke:rgb(0%,0%,0%);stroke-opacity:1;stroke-miterlimit:10;" d="M 155 275 C 155 281.667969 145 281.667969 145 275 C 145 268.332031 155 268.332031 155 275 Z M 155 275 "/>
</g>
</svg>
