<?xml version="1.0" encoding="UTF-8"?>
<svg xmlns="http://www.w3.org/2000/svg" xmlns:xlink="http://www.w3.org/1999/xlink" width="120pt" height="220pt" viewBox="0 0 120 220" version="1.1">
<defs>
<g>
<symbol overflow="visible" id="id1">
<path style="stroke:none;" d="M 0.5 1.765625 L 0.5 -7.046875 L 5.5 -7.046875 L 5.5 1.765625 Z M 1.0625 1.21875 L 4.9375 1.21875 L 4.9375 -6.484375 L 1.0625 -6.484375 Z M 1.0625 1.21875 "/>
</symbol>
<symbol overflow="visible" id="id2">
<path style="stroke:none;" d="M 1.234375 -0.828125 L 2.859375 -0.828125 L 2.859375 -6.390625 L 1.09375 -6.046875 L 1.09375 -6.9375 L 2.84375 -7.296875 L 3.828125 -7.296875 L 3.828125 -0.828125 L 5.4375 -0.828125 L 5.4375 0 L 1.234375 0 Z M 1.234375 -0.828125 "/>
</symbol>
<symbol overflow="visible" id="id3">
<path style="stroke:none;" d="M 1.921875 -0.828125 L 5.359375 -0.828125 L 5.359375 0 L 0.734375 0 L 0.734375 -0.828125 C 1.109375 -1.210938 1.617188 -1.734375 2.265625 -2.390625 C 2.910156 -3.046875 3.316406 -3.46875 3.484375 -3.65625 C 3.796875 -4.007812 4.015625 -4.304688 4.140625 -4.546875 C 4.265625 -4.796875 4.328125 -5.039062 4.328125 -5.28125 C 4.328125 -5.664062 4.191406 -5.976562 3.921875 -6.21875 C 3.648438 -6.46875 3.296875 -6.59375 2.859375 -6.59375 C 2.546875 -6.59375 2.21875 -6.535156 1.875 -6.421875 C 1.539062 -6.316406 1.175781 -6.15625 0.78125 -5.9375 L 0.78125 -6.9375 C 1.175781 -7.09375 1.546875 -7.210938 1.890625 -7.296875 C 2.234375 -7.378906 2.550781 -7.421875 2.84375 -7.421875 C 3.59375 -7.421875 4.191406 -7.234375 4.640625 -6.859375 C 5.097656 -6.484375 5.328125 -5.976562 5.328125 -5.34375 C 5.328125 -5.039062 5.269531 -4.753906 5.15625 -4.484375 C 5.039062 -4.222656 4.835938 -3.910156 4.546875 -3.546875 C 4.460938 -3.453125 4.203125 -3.175781 3.765625 -2.71875 C 3.328125 -2.269531 2.710938 -1.640625 1.921875 -0.828125 Z M 1.921875 -0.828125 "/>
</symbol>
</g>
</defs>
<g id="id4">
<path style="fill:none;stroke-width:1;stroke-linecap:butt;stroke-linejoin:miter;stroke:rgb(36.8417%,50.6779%,70.9798%);stroke-opacity:1;stroke-miterlimit:10;" d="M 3 -100 C 3 -96 -3 -96 -3 -100 C -3 -104 3 -104 3 -100 " transform="matrix(1,0,0,1,10,110)"/>
<path style=" stroke:none;fill-rule:nonzero;fill:rgb(36.8417%,50.6779%,70.9798%);fill-opacity:0.3;" d="M 13 10 C 13 14 7 14 7 10 C 7 6 13 6 13 10 "/>
<path style="fill:none;stroke-width:1;stroke-linecap:butt;stroke-linejoin:miter;stroke:rgb(88.0722%,61.1041%,14.2051%);stroke-opacity:1;stroke-miterlimit:10;" d="M 7.5 -97.5 L 92.5 -97.5 M 43.855469 -94.144531 L 50 -97.5 " transform="matrix(1,0,0,1,10,110)"/>
<path style="fill:none;stroke-width:1;stroke-linecap:butt;stroke-linejoin:miter;stroke:rgb(36.8417%,50.6779%,70.9798%);stroke-opacity:1;stroke-miterlimit:10;" d="M 3 0 C 3 4 -3 4 -3 0 C -3 -4 3 -4 3 0 " transform="matrix(1,0,0,1,10,110)"/>
<path style=" stroke:none;fill-rule:nonzero;fill:rgb(36.8417%,50.6779%,70.9798%);fill-opacity:0.3;" d="M 13 110 C 13 114 7 114 7 110 C 7 106 13 106 13 110 "/>
<path style="fill:none;stroke-width:1;stroke-linecap:butt;stroke-linejoin:miter;stroke:rgb(56.0181%,69.1569%,19.4885%);stroke-opacity:1;stroke-miterlimit:10;" d="M 2.5 -7.5 L 2.5 -92.5 M 5.855469 -43.855469 L 2.5 -50 " transform="matrix(1,0,0,1,10,110)"/>
<path style="fill:none;stroke-width:1;stroke-linecap:butt;stroke-linejoin:miter;stroke:rgb(56.0181%,69.1569%,19.4885%);stroke-opacity:1;stroke-miterlimit:10;" d="M 7.5 2.5 L 92.5 2.5 M 43.855469 5.855469 L 50 2.5 " transform="matrix(1,0,0,1,10,110)"/>
<path style="fill:none;stroke-width:1;stroke-linecap:butt;stroke-linejoin:miter;stroke:rgb(36.8417%,50.6779%,70.9798%);stroke-opacity:1;stroke-miterlimit:10;" d="M 3 100 C 3 104 -3 104 -3 100 C -3 96 3 96 3 100 " transform="matrix(1,0,0,1,10,110)"/>
<path style=" stroke:none;fill-rule:nonzero;fill:rgb(36.8417%,50.6779%,70.9798%);fill-opacity:0.3;" d="M 13 210 C 13 214 7 214 7 210 C 7 206 13 206 13 210 "/>
<path style="fill:none;stroke-width:1;stroke-linecap:butt;stroke-linejoin:miter;stroke:rgb(92.2526%,38.5626%,20.9179%);stroke-opacity:1;stroke-miterlimit:10;" d="M 2.5 92.5 L 2.5 7.5 M 5.855469 56.144531 L 2.5 50 " transform="matrix(1,0,0,1,10,110)"/>
<path style="fill:none;stroke-width:1;stroke-linecap:butt;stroke-linejoin:miter;stroke:rgb(36.8417%,50.6779%,70.9798%);stroke-opacity:1;stroke-miterlimit:10;" d="M 103 -100 C 103 -96 97 -96 97 -100 C 97 -104 103 -104 103 -100 " transform="matrix(1,0,0,1,10,110)"/>
<path style=" stroke:none;fill-rule:nonzero;fill:rgb(36.8417%,50.6779%,70.9798%);fill-opacity:0.3;" d="M 113 10 C 113 14 107 14 107 10 C 107 6 113 6 113 10 "/>
<path style="fill:none;stroke-width:1;stroke-linecap:butt;stroke-linejoin:miter;stroke:rgb(52.8488%,47.0624%,70.1351%);stroke-opacity:1;stroke-miterlimit:10;" d="M 97.5 -92.5 L 97.5 -7.5 M 94.144531 -56.144531 L 97.5 -50 " transform="matrix(1,0,0,1,10,110)"/>
<path style="fill:none;stroke-width:1;stroke-linecap:butt;stroke-linejoin:miter;stroke:rgb(36.8417%,50.6779%,70.9798%);stroke-opacity:1;stroke-miterlimit:10;" d="M 103 0 C 103 4 97 4 97 0 C 97 -4 103 -4 103 0 " transform="matrix(1,0,0,1,10,110)"/>
<path style=" stroke:none;fill-rule:nonzero;fill:rgb(36.8417%,50.6779%,70.9798%);fill-opacity:0.3;" d="M 113 110 C 113 114 107 114 107 110 C 107 106 113 106 113 110 "/>
<path style="fill:none;stroke-width:1;stroke-linecap:butt;stroke-linejoin:miter;stroke:rgb(77.2079%,43.1554%,10.2387%);stroke-opacity:1;stroke-miterlimit:10;" d="M 92.5 -2.5 L 7.5 -2.5 M 56.144531 -5.855469 L 50 -2.5 " transform="matrix(1,0,0,1,10,110)"/>
<path style="fill:none;stroke-width:1;stroke-linecap:butt;stroke-linejoin:miter;stroke:rgb(77.2079%,43.1554%,10.2387%);stroke-opacity:1;stroke-miterlimit:10;" d="M 97.5 7.5 L 97.5 92.5 M 94.144531 43.855469 L 97.5 50 " transform="matrix(1,0,0,1,10,110)"/>
<path style="fill:none;stroke-width:1;stroke-linecap:butt;stroke-linejoin:miter;stroke:rgb(36.8417%,50.6779%,70.9798%);stroke-opacity:1;stroke-miterlimit:10;" d="M 103 100 C 103 104 97 104 97 100 C 97 96 103 96 103 100 " transform="matrix(1,0,0,1,10,110)"/>
<path style=" stroke:none;fill-rule:nonzero;fill:rgb(36.8417%,50.6779%,70.9798%);fill-opacity:0.3;" d="M 113 210 C 113 214 107 214 107 210 C 107 206 113 206 113 210 "/>
<path style="fill:none;stroke-width:1;stroke-linecap:butt;stroke-linejoin:miter;stroke:rgb(36.3898%,61.8501%,78.2349%);stroke-opacity:1;stroke-miterlimit:10;" d="M 92.5 97.5 L 7.5 97.5 M 56.144531 94.144531 L 50 97.5 " transform="matrix(1,0,0,1,10,110)"/>
<path style="fill:none;stroke-width:1;stroke-linecap:butt;stroke-linejoin:miter;stroke:rgb(88.0722%,61.1041%,14.2051%);stroke-opacity:1;stroke-dasharray:2,2;stroke-miterlimit:10;" d="M 0 -100 L 100 -100 L 100 0 L 0 0 Z M 0 -100 " transform="matrix(1,0,0,1,10,110)"/>
<path style=" stroke:none;fill-rule:nonzero;fill:rgb(88.0722%,61.1041%,14.2051%);fill-opacity:0.1;" d="M 10 10 L 110 10 L 110 110 L 10 110 Z M 10 10 "/>
<g style="fill:rgb(88.0722%,61.1041%,14.2051%);fill-opacity:1;">
  <use xlink:href="#id2" x="57.828125" y="63.644531"/>
</g>
<path style="fill:none;stroke-width:1;stroke-linecap:butt;stroke-linejoin:miter;stroke:rgb(56.0181%,69.1569%,19.4885%);stroke-opacity:1;stroke-dasharray:2,2;stroke-miterlimit:10;" d="M 0 0 L 100 0 L 100 100 L 0 100 Z M 0 0 " transform="matrix(1,0,0,1,10,110)"/>
<path style=" stroke:none;fill-rule:nonzero;fill:rgb(56.0181%,69.1569%,19.4885%);fill-opacity:0.1;" d="M 10 110 L 110 110 L 110 210 L 10 210 Z M 10 110 "/>
<g style="fill:rgb(56.0181%,69.1569%,19.4885%);fill-opacity:1;">
  <use xlink:href="#id3" x="57.6875" y="163.710938"/>
</g>
</g>
</svg>
