<?xml version="1.0" encoding="UTF-8"?>
<svg xmlns="http://www.w3.org/2000/svg" xmlns:xlink="http://www.w3.org/1999/xlink" width="300pt" height="300pt" viewBox="0 0 300 300" version="1.1">
<g id="id1">
<path style="fill:none;stroke-width:1;stroke-linecap:butt;stroke-linejoin:miter;stroke:rgb(88.0722%,61.1041%,14.2051%);stroke-opacity:1;stroke-miterlimit:10;" d="M 158.929688 11.589844 L 256.796875 68.09375 M 100.882812 5.792969 L 275.28125 106.480469 M 80.726562 21.867188 L 293.765625 144.867188 M 60.566406 37.941406 L 287.195312 168.785156 M 40.410156 54.015625 L 276.75 190.46875 M 20.253906 70.089844 L 266.308594 212.152344 M 3.761719 88.28125 L 255.867188 233.835938 M 3.761719 115.996094 L 245.425781 255.519531 M 3.761719 143.707031 L 227.34375 272.792969 M 3.761719 171.421875 L 192.945312 280.644531 M 3.761719 199.132812 L 158.542969 288.496094 M 49.597656 253.308594 L 124.144531 296.347656 "/>
<path style="fill:none;stroke-width:1;stroke-linecap:butt;stroke-linejoin:miter;stroke:rgb(36.8417%,50.6779%,70.9798%);stroke-opacity:1;stroke-miterlimit:10;" d="M 296.238281 150 L 238.308594 270.289062 L 108.144531 300 L 3.761719 216.757812 L 3.761719 83.242188 L 108.144531 0 L 238.308594 29.710938 Z M 296.238281 150 "/>
</g>
</svg>
