<?xml version="1.0" encoding="UTF-8"?>
<svg xmlns="http://www.w3.org/2000/svg" xmlns:xlink="http://www.w3.org/1999/xlink" width="200pt" height="150pt" viewBox="0 0 200 150" version="1.1">
<g id="id1">
<path style="fill:none;stroke-width:1;stroke-linecap:butt;stroke-linejoin:round;stroke:rgb(36.8417%,50.6779%,70.9798%);stroke-opacity:1;stroke-miterlimit:10;" d="M 40 30 L 140 30 L 140 140 L 120 140 L 120 80 L 100 80 L 100 140 L 80 140 L 80 60 L 60 60 L 60 140 L 40 140 Z M 40 30 "/>
<path style="fill:none;stroke-width:1;stroke-linecap:butt;stroke-linejoin:round;stroke:rgb(88.0722%,61.1041%,14.2051%);stroke-opacity:1;stroke-miterlimit:10;" d="M 180 20 L 130 20 L 130 35 L 120 35 L 120 20 L 110 20 L 110 35 L 100 35 L 100 20 L 90 20 L 90 35 L 80 35 L 80 20 L 70 20 L 70 35 L 60 35 L 60 20 L 20 20 L 20 40 L 170 60 L 50 80 L 170 100 L 10 120 L 180 140 Z M 180 20 "/>
<path style="fill-rule:nonzero;fill:rgb(56.0181%,69.1569%,19.4885%);fill-opacity:0.2;stroke-width:2;stroke-linecap:butt;stroke-linejoin:round;stroke:rgb(56.0181%,69.1569%,19.4885%);stroke-opacity:1;stroke-miterlimit:10;" d="M 40 30 L 60 30 L 60 35 L 70 35 L 70 30 L 80 30 L 80 35 L 90 35 L 90 30 L 100 30 L 100 35 L 110 35 L 110 30 L 120 30 L 120 35 L 130 35 L 130 30 L 140 30 L 140 56 L 40 42.667969 Z M 40 30 "/>
<path style="fill-rule:nonzero;fill:rgb(92.2526%,38.5626%,20.9179%);fill-opacity:0.2;stroke-width:2;stroke-linecap:butt;stroke-linejoin:round;stroke:rgb(92.2526%,38.5626%,20.9179%);stroke-opacity:1;stroke-miterlimit:10;" d="M 40 116.25 L 60 113.75 L 60 125.882812 L 40 123.53125 Z M 40 116.25 "/>
<path style="fill-rule:nonzero;fill:rgb(52.8488%,47.0624%,70.1351%);fill-opacity:0.2;stroke-width:2;stroke-linecap:butt;stroke-linejoin:round;stroke:rgb(52.8488%,47.0624%,70.1351%);stroke-opacity:1;stroke-miterlimit:10;" d="M 60 81.667969 L 50 80 L 60 78.332031 Z M 60 81.667969 "/>
<path style="fill-rule:nonzero;fill:rgb(77.2079%,43.1554%,10.2387%);fill-opacity:0.2;stroke-width:2;stroke-linecap:butt;stroke-linejoin:round;stroke:rgb(77.2079%,43.1554%,10.2387%);stroke-opacity:1;stroke-miterlimit:10;" d="M 80 75 L 140 65 L 140 95 L 120 91.667969 L 120 80 L 100 80 L 100 88.332031 L 80 85 Z M 80 75 "/>
<path style="fill-rule:nonzero;fill:rgb(36.3898%,61.8501%,78.2349%);fill-opacity:0.2;stroke-width:2;stroke-linecap:butt;stroke-linejoin:round;stroke:rgb(36.3898%,61.8501%,78.2349%);stroke-opacity:1;stroke-miterlimit:10;" d="M 80 111.25 L 100 108.75 L 100 130.589844 L 80 128.234375 Z M 80 111.25 "/>
<path style="fill-rule:nonzero;fill:rgb(100%,75%,0%);fill-opacity:0.2;stroke-width:2;stroke-linecap:butt;stroke-linejoin:round;stroke:rgb(100%,75%,0%);stroke-opacity:1;stroke-miterlimit:10;" d="M 120 106.25 L 140 103.75 L 140 135.292969 L 120 132.941406 Z M 120 106.25 "/>
</g>
</svg>
