<?xml version="1.0" encoding="UTF-8"?>
<svg xmlns="http://www.w3.org/2000/svg" xmlns:xlink="http://www.w3.org/1999/xlink" width="150pt" height="150pt" viewBox="0 0 150 150" version="1.1">
<g id="id1">
<path style="fill:none;stroke-width:1;stroke-linecap:butt;stroke-linejoin:round;stroke:rgb(36.8417%,50.6779%,70.9798%);stroke-opacity:1;stroke-miterlimit:10;" d="M 10 10 L 10 100 L 100 100 L 100 10 Z M 10 10 "/>
<path style="fill:none;stroke-width:1;stroke-linecap:butt;stroke-linejoin:round;stroke:rgb(88.0722%,61.1041%,14.2051%);stroke-opacity:1;stroke-miterlimit:10;" d="M 50 50 L 50 140 L 140 140 L 140 50 Z M 50 50 "/>
<path style="fill-rule:nonzero;fill:rgb(56.0181%,69.1569%,19.4885%);fill-opacity:0.2;stroke-width:1;stroke-linecap:butt;stroke-linejoin:round;stroke:rgb(0%,0%,0%);stroke-opacity:1;stroke-miterlimit:10;" d="M 10 10 L 10 100 L 50 100 L 50 140 L 140 140 L 140 50 L 100 50 L 100 10 Z M 10 10 "/>
<path style=" stroke:none;fill-rule:nonzero;fill:rgb(0%,0%,0%);fill-opacity:1;" d="M 11.5 10 C 11.5 12 8.5 12 8.5 10 C 8.5 8 11.5 8 11.5 10 "/>
<path style=" stroke:none;fill-rule:nonzero;fill:rgb(0%,0%,0%);fill-opacity:1;" d="M 11.5 100 C 11.5 102 8.5 102 8.5 100 C 8.5 98 11.5 98 11.5 100 "/>
<path style=" stroke:none;fill-rule:nonzero;fill:rgb(0%,0%,0%);fill-opacity:1;" d="M 51.5 100 C 51.5 102 48.5 102 48.5 100 C 48.5 98 51.5 98 51.5 100 "/>
<path style=" stroke:none;fill-rule:nonzero;fill:rgb(0%,0%,0%);fill-opacity:1;" d="M 51.5 140 C 51.5 142 48.5 142 48.5 140 C 48.5 138 51.5 138 51.5 140 "/>
<path style=" stroke:none;fill-rule:nonzero;fill:rgb(0%,0%,0%);fill-opacity:1;" d="M 141.5 140 C 141.5 142 138.5 142 138.5 140 C 138.5 138 141.5 138 141.5 140 "/>
<path style=" stroke:none;fill-rule:nonzero;fill:rgb(0%,0%,0%);fill-opacity:1;" d="M 141.5 50 C 141.5 52 138.5 52 138.5 50 C 138.5 48 141.5 48 141.5 50 "/>
<path style=" stroke:none;fill-rule:nonzero;fill:rgb(0%,0%,0%);fill-opacity:1;" d="M 101.5 50 C 101.5 52 98.5 52 98.5 50 C 98.5 48 101.5 48 101.5 50 "/>
<path style=" stroke:none;fill-rule:nonzero;fill:rgb(0%,0%,0%);fill-opacity:1;" d="M 101.5 10 C 101.5 12 98.5 12 98.5 10 C 98.5 8 101.5 8 101.5 10 "/>
</g>
</svg>
