<?xml version="1.0" encoding="UTF-8"?>
<svg xmlns="http://www.w3.org/2000/svg" xmlns:xlink="http://www.w3.org/1999/xlink" width="200pt" height="150pt" viewBox="0 0 200 150" version="1.1">
<g id="id1">
<path style="fill:none;stroke-width:1;stroke-linecap:butt;stroke-linejoin:round;stroke:rgb(36.8417%,50.6779%,70.9798%);stroke-opacity:1;stroke-miterlimit:10;" d="M 40 30 L 140 30 L 140 140 L 120 140 L 120 80 L 100 80 L 100 140 L 80 140 L 80 60 L 60 60 L 60 140 L 40 140 Z M 40 30 "/>
<path style="fill:none;stroke-width:1;stroke-linecap:butt;stroke-linejoin:round;stroke:rgb(88.0722%,61.1041%,14.2051%);stroke-opacity:1;stroke-miterlimit:10;" d="M 180 20 L 130 20 L 130 35 L 120 35 L 120 20 L 110 20 L 110 35 L 100 35 L 100 20 L 90 20 L 90 35 L 80 35 L 80 20 L 70 20 L 70 35 L 60 35 L 60 20 L 20 20 L 20 40 L 170 60 L 45 80 L 170 100 L 10 120 L 180 140 Z M 180 20 "/>
<path style=" stroke:none;fill-rule:nonzero;fill:rgb(56.0181%,69.1569%,19.4885%);fill-opacity:0.2;" d="M 20 40 L 20 20 L 60 20 L 60 30 L 70 30 L 70 20 L 80 20 L 80 30 L 90 30 L 90 20 L 100 20 L 100 30 L 110 30 L 110 20 L 120 20 L 120 30 L 130 30 L 130 20 L 180 20 L 180 140 L 140 135.292969 L 140 140 L 120 140 L 120 132.941406 L 100 130.589844 L 100 140 L 80 140 L 80 128.234375 L 60 125.882812 L 60 140 L 40 140 L 40 123.53125 L 10 120 L 40 116.25 L 40 42.667969 Z M 20 40 "/>
</g>
</svg>
