<?xml version="1.0" encoding="UTF-8"?>
<svg xmlns="http://www.w3.org/2000/svg" xmlns:xlink="http://www.w3.org/1999/xlink" width="580pt" height="120pt" viewBox="0 0 580 120" version="1.1">
<defs>
<g>
<symbol overflow="visible" id="id1">
<path style="stroke:none;" d="M 0.5 1.765625 L 0.5 -7.046875 L 5.5 -7.046875 L 5.5 1.765625 Z M 1.0625 1.21875 L 4.9375 1.21875 L 4.9375 -6.484375 L 1.0625 -6.484375 Z M 1.0625 1.21875 "/>
</symbol>
<symbol overflow="visible" id="id2">
<path style="stroke:none;" d="M 1.96875 -6.484375 L 1.96875 -3.734375 L 3.203125 -3.734375 C 3.660156 -3.734375 4.015625 -3.851562 4.265625 -4.09375 C 4.523438 -4.332031 4.65625 -4.671875 4.65625 -5.109375 C 4.65625 -5.546875 4.523438 -5.882812 4.265625 -6.125 C 4.015625 -6.363281 3.660156 -6.484375 3.203125 -6.484375 Z M 0.984375 -7.296875 L 3.203125 -7.296875 C 4.023438 -7.296875 4.644531 -7.109375 5.0625 -6.734375 C 5.476562 -6.367188 5.6875 -5.828125 5.6875 -5.109375 C 5.6875 -4.390625 5.476562 -3.847656 5.0625 -3.484375 C 4.644531 -3.117188 4.023438 -2.9375 3.203125 -2.9375 L 1.96875 -2.9375 L 1.96875 0 L 0.984375 0 Z M 0.984375 -7.296875 "/>
</symbol>
<symbol overflow="visible" id="id3">
<path style="stroke:none;" d="M 3.421875 -2.75 C 2.703125 -2.75 2.203125 -2.664062 1.921875 -2.5 C 1.640625 -2.332031 1.5 -2.050781 1.5 -1.65625 C 1.5 -1.332031 1.601562 -1.078125 1.8125 -0.890625 C 2.019531 -0.703125 2.304688 -0.609375 2.671875 -0.609375 C 3.171875 -0.609375 3.570312 -0.785156 3.875 -1.140625 C 4.175781 -1.492188 4.328125 -1.960938 4.328125 -2.546875 L 4.328125 -2.75 Z M 5.21875 -3.125 L 5.21875 0 L 4.328125 0 L 4.328125 -0.828125 C 4.117188 -0.492188 3.859375 -0.25 3.546875 -0.09375 C 3.242188 0.0625 2.875 0.140625 2.4375 0.140625 C 1.875 0.140625 1.425781 -0.015625 1.09375 -0.328125 C 0.757812 -0.640625 0.59375 -1.0625 0.59375 -1.59375 C 0.59375 -2.207031 0.800781 -2.671875 1.21875 -2.984375 C 1.632812 -3.296875 2.25 -3.453125 3.0625 -3.453125 L 4.328125 -3.453125 L 4.328125 -3.546875 C 4.328125 -3.953125 4.1875 -4.269531 3.90625 -4.5 C 3.632812 -4.726562 3.253906 -4.84375 2.765625 -4.84375 C 2.453125 -4.84375 2.144531 -4.800781 1.84375 -4.71875 C 1.550781 -4.644531 1.269531 -4.535156 1 -4.390625 L 1 -5.21875 C 1.332031 -5.34375 1.648438 -5.4375 1.953125 -5.5 C 2.265625 -5.5625 2.566406 -5.59375 2.859375 -5.59375 C 3.648438 -5.59375 4.238281 -5.390625 4.625 -4.984375 C 5.019531 -4.578125 5.21875 -3.957031 5.21875 -3.125 Z M 5.21875 -3.125 "/>
</symbol>
<symbol overflow="visible" id="id4">
<path style="stroke:none;" d="M 4.109375 -4.625 C 4.003906 -4.6875 3.894531 -4.726562 3.78125 -4.75 C 3.664062 -4.78125 3.535156 -4.796875 3.390625 -4.796875 C 2.878906 -4.796875 2.488281 -4.628906 2.21875 -4.296875 C 1.945312 -3.972656 1.8125 -3.5 1.8125 -2.875 L 1.8125 0 L 0.90625 0 L 0.90625 -5.46875 L 1.8125 -5.46875 L 1.8125 -4.625 C 2 -4.957031 2.242188 -5.203125 2.546875 -5.359375 C 2.847656 -5.515625 3.21875 -5.59375 3.65625 -5.59375 C 3.71875 -5.59375 3.785156 -5.585938 3.859375 -5.578125 C 3.929688 -5.578125 4.015625 -5.566406 4.109375 -5.546875 Z M 4.109375 -4.625 "/>
</symbol>
<symbol overflow="visible" id="id5">
<path style="stroke:none;" d="M 0.9375 -7.59375 L 1.84375 -7.59375 L 1.84375 0 L 0.9375 0 Z M 0.9375 -7.59375 "/>
</symbol>
<symbol overflow="visible" id="id6">
<path style="stroke:none;" d="M 5.625 -2.953125 L 5.625 -2.515625 L 1.484375 -2.515625 C 1.523438 -1.898438 1.710938 -1.429688 2.046875 -1.109375 C 2.378906 -0.785156 2.84375 -0.625 3.4375 -0.625 C 3.78125 -0.625 4.113281 -0.664062 4.4375 -0.75 C 4.769531 -0.832031 5.09375 -0.957031 5.40625 -1.125 L 5.40625 -0.28125 C 5.082031 -0.144531 4.75 -0.0390625 4.40625 0.03125 C 4.070312 0.101562 3.734375 0.140625 3.390625 0.140625 C 2.515625 0.140625 1.820312 -0.109375 1.3125 -0.609375 C 0.800781 -1.117188 0.546875 -1.8125 0.546875 -2.6875 C 0.546875 -3.582031 0.785156 -4.289062 1.265625 -4.8125 C 1.753906 -5.332031 2.410156 -5.59375 3.234375 -5.59375 C 3.972656 -5.59375 4.554688 -5.359375 4.984375 -4.890625 C 5.410156 -4.421875 5.625 -3.773438 5.625 -2.953125 Z M 4.71875 -3.21875 C 4.71875 -3.707031 4.582031 -4.097656 4.3125 -4.390625 C 4.039062 -4.691406 3.6875 -4.84375 3.25 -4.84375 C 2.738281 -4.84375 2.332031 -4.695312 2.03125 -4.40625 C 1.738281 -4.125 1.566406 -3.726562 1.515625 -3.21875 Z M 4.71875 -3.21875 "/>
</symbol>
</g>
</defs>
<g id="id7">
<path style="fill:none;stroke-width:1;stroke-linecap:butt;stroke-linejoin:miter;stroke:rgb(36.8417%,50.6779%,70.9798%);stroke-opacity:1;stroke-miterlimit:10;" d="M 50 0 L 119.28125 40 M 115.121094 33.167969 L 119.28125 40 L 111.285156 39.8125 "/>
<path style="fill:none;stroke-width:1;stroke-linecap:butt;stroke-linejoin:miter;stroke:rgb(88.0722%,61.1041%,14.2051%);stroke-opacity:1;stroke-miterlimit:10;" d="M 50 20 L 119.28125 60 M 115.121094 53.167969 L 119.28125 60 L 111.285156 59.8125 "/>
<g style="fill:rgb(0%,0%,0%);fill-opacity:1;">
  <use xlink:href="#id2" x="65" y="15"/>
  <use xlink:href="#id3" x="71.030273" y="15"/>
  <use xlink:href="#id4" x="77.158203" y="15"/>
  <use xlink:href="#id3" x="81.269531" y="15"/>
  <use xlink:href="#id5" x="87.397461" y="15"/>
  <use xlink:href="#id5" x="90.175781" y="15"/>
  <use xlink:href="#id6" x="92.954102" y="15"/>
  <use xlink:href="#id5" x="99.106445" y="15"/>
</g>
</g>
</svg>
