<?xml version="1.0" encoding="UTF-8"?>
<svg xmlns="http://www.w3.org/2000/svg" xmlns:xlink="http://www.w3.org/1999/xlink" width="580pt" height="120pt" viewBox="0 0 580 120" version="1.1">
<defs>
<g>
<symbol overflow="visible" id="id1">
<path style="stroke:none;" d="M 0.5 1.765625 L 0.5 -7.046875 L 5.5 -7.046875 L 5.5 1.765625 Z M 1.0625 1.21875 L 4.9375 1.21875 L 4.9375 -6.484375 L 1.0625 -6.484375 Z M 1.0625 1.21875 "/>
</symbol>
<symbol overflow="visible" id="id2">
<path style="stroke:none;" d="M 2.859375 0 L 0.078125 -7.296875 L 1.109375 -7.296875 L 3.421875 -1.15625 L 5.734375 -7.296875 L 6.765625 -7.296875 L 3.984375 0 Z M 2.859375 0 "/>
</symbol>
<symbol overflow="visible" id="id3">
<path style="stroke:none;" d="M 0.9375 -5.46875 L 1.84375 -5.46875 L 1.84375 0 L 0.9375 0 Z M 0.9375 -7.59375 L 1.84375 -7.59375 L 1.84375 -6.453125 L 0.9375 -6.453125 Z M 0.9375 -7.59375 "/>
</symbol>
<symbol overflow="visible" id="id4">
<path style="stroke:none;" d="M 4.109375 -4.625 C 4.003906 -4.6875 3.894531 -4.726562 3.78125 -4.75 C 3.664062 -4.78125 3.535156 -4.796875 3.390625 -4.796875 C 2.878906 -4.796875 2.488281 -4.628906 2.21875 -4.296875 C 1.945312 -3.972656 1.8125 -3.5 1.8125 -2.875 L 1.8125 0 L 0.90625 0 L 0.90625 -5.46875 L 1.8125 -5.46875 L 1.8125 -4.625 C 2 -4.957031 2.242188 -5.203125 2.546875 -5.359375 C 2.847656 -5.515625 3.21875 -5.59375 3.65625 -5.59375 C 3.71875 -5.59375 3.785156 -5.585938 3.859375 -5.578125 C 3.929688 -5.578125 4.015625 -5.566406 4.109375 -5.546875 Z M 4.109375 -4.625 "/>
</symbol>
<symbol overflow="visible" id="id5">
<path style="stroke:none;" d="M 1.828125 -7.015625 L 1.828125 -5.46875 L 3.6875 -5.46875 L 3.6875 -4.765625 L 1.828125 -4.765625 L 1.828125 -1.796875 C 1.828125 -1.359375 1.890625 -1.070312 2.015625 -0.9375 C 2.140625 -0.8125 2.390625 -0.75 2.765625 -0.75 L 3.6875 -0.75 L 3.6875 0 L 2.765625 0 C 2.066406 0 1.582031 -0.128906 1.3125 -0.390625 C 1.050781 -0.648438 0.921875 -1.117188 0.921875 -1.796875 L 0.921875 -4.765625 L 0.265625 -4.765625 L 0.265625 -5.46875 L 0.921875 -5.46875 L 0.921875 -7.015625 Z M 1.828125 -7.015625 "/>
</symbol>
<symbol overflow="visible" id="id6">
<path style="stroke:none;" d="M 0.84375 -2.15625 L 0.84375 -5.46875 L 1.75 -5.46875 L 1.75 -2.1875 C 1.75 -1.675781 1.847656 -1.289062 2.046875 -1.03125 C 2.253906 -0.769531 2.554688 -0.640625 2.953125 -0.640625 C 3.441406 -0.640625 3.828125 -0.789062 4.109375 -1.09375 C 4.390625 -1.40625 4.53125 -1.832031 4.53125 -2.375 L 4.53125 -5.46875 L 5.4375 -5.46875 L 5.4375 0 L 4.53125 0 L 4.53125 -0.84375 C 4.3125 -0.507812 4.054688 -0.257812 3.765625 -0.09375 C 3.484375 0.0625 3.148438 0.140625 2.765625 0.140625 C 2.140625 0.140625 1.660156 -0.0507812 1.328125 -0.4375 C 1.003906 -0.832031 0.84375 -1.40625 0.84375 -2.15625 Z M 3.109375 -5.59375 Z M 3.109375 -5.59375 "/>
</symbol>
<symbol overflow="visible" id="id7">
<path style="stroke:none;" d="M 3.421875 -2.75 C 2.703125 -2.75 2.203125 -2.664062 1.921875 -2.5 C 1.640625 -2.332031 1.5 -2.050781 1.5 -1.65625 C 1.5 -1.332031 1.601562 -1.078125 1.8125 -0.890625 C 2.019531 -0.703125 2.304688 -0.609375 2.671875 -0.609375 C 3.171875 -0.609375 3.570312 -0.785156 3.875 -1.140625 C 4.175781 -1.492188 4.328125 -1.960938 4.328125 -2.546875 L 4.328125 -2.75 Z M 5.21875 -3.125 L 5.21875 0 L 4.328125 0 L 4.328125 -0.828125 C 4.117188 -0.492188 3.859375 -0.25 3.546875 -0.09375 C 3.242188 0.0625 2.875 0.140625 2.4375 0.140625 C 1.875 0.140625 1.425781 -0.015625 1.09375 -0.328125 C 0.757812 -0.640625 0.59375 -1.0625 0.59375 -1.59375 C 0.59375 -2.207031 0.800781 -2.671875 1.21875 -2.984375 C 1.632812 -3.296875 2.25 -3.453125 3.0625 -3.453125 L 4.328125 -3.453125 L 4.328125 -3.546875 C 4.328125 -3.953125 4.1875 -4.269531 3.90625 -4.5 C 3.632812 -4.726562 3.253906 -4.84375 2.765625 -4.84375 C 2.453125 -4.84375 2.144531 -4.800781 1.84375 -4.71875 C 1.550781 -4.644531 1.269531 -4.535156 1 -4.390625 L 1 -5.21875 C 1.332031 -5.34375 1.648438 -5.4375 1.953125 -5.5 C 2.265625 -5.5625 2.566406 -5.59375 2.859375 -5.59375 C 3.648438 -5.59375 4.238281 -5.390625 4.625 -4.984375 C 5.019531 -4.578125 5.21875 -3.957031 5.21875 -3.125 Z M 5.21875 -3.125 "/>
</symbol>
<symbol overflow="visible" id="id8">
<path style="stroke:none;" d="M 0.9375 -7.59375 L 1.84375 -7.59375 L 1.84375 0 L 0.9375 0 Z M 0.9375 -7.59375 "/>
</symbol>
<symbol overflow="visible" id="id9">
<path style="stroke:none;" d="M 1.171875 -1.234375 L 2.203125 -1.234375 L 2.203125 -0.40625 L 1.40625 1.15625 L 0.765625 1.15625 L 1.171875 -0.40625 Z M 1.171875 -1.234375 "/>
</symbol>
<symbol overflow="visible" id="id10">
<path style="stroke:none;" d=""/>
</symbol>
<symbol overflow="visible" id="id11">
<path style="stroke:none;" d="M 4.0625 -3.9375 C 4.53125 -3.832031 4.894531 -3.617188 5.15625 -3.296875 C 5.425781 -2.984375 5.5625 -2.59375 5.5625 -2.125 C 5.5625 -1.40625 5.3125 -0.847656 4.8125 -0.453125 C 4.320312 -0.0546875 3.617188 0.140625 2.703125 0.140625 C 2.398438 0.140625 2.085938 0.109375 1.765625 0.046875 C 1.441406 -0.015625 1.109375 -0.101562 0.765625 -0.21875 L 0.765625 -1.171875 C 1.035156 -1.015625 1.332031 -0.894531 1.65625 -0.8125 C 1.988281 -0.726562 2.332031 -0.6875 2.6875 -0.6875 C 3.300781 -0.6875 3.769531 -0.804688 4.09375 -1.046875 C 4.414062 -1.296875 4.578125 -1.65625 4.578125 -2.125 C 4.578125 -2.550781 4.425781 -2.882812 4.125 -3.125 C 3.820312 -3.363281 3.40625 -3.484375 2.875 -3.484375 L 2.015625 -3.484375 L 2.015625 -4.296875 L 2.90625 -4.296875 C 3.394531 -4.296875 3.765625 -4.394531 4.015625 -4.59375 C 4.273438 -4.789062 4.40625 -5.070312 4.40625 -5.4375 C 4.40625 -5.800781 4.269531 -6.082031 4 -6.28125 C 3.738281 -6.488281 3.363281 -6.59375 2.875 -6.59375 C 2.601562 -6.59375 2.3125 -6.5625 2 -6.5 C 1.6875 -6.445312 1.347656 -6.359375 0.984375 -6.234375 L 0.984375 -7.109375 C 1.359375 -7.210938 1.707031 -7.289062 2.03125 -7.34375 C 2.363281 -7.394531 2.671875 -7.421875 2.953125 -7.421875 C 3.703125 -7.421875 4.296875 -7.25 4.734375 -6.90625 C 5.171875 -6.570312 5.390625 -6.113281 5.390625 -5.53125 C 5.390625 -5.125 5.273438 -4.78125 5.046875 -4.5 C 4.816406 -4.226562 4.488281 -4.039062 4.0625 -3.9375 Z M 4.0625 -3.9375 "/>
</symbol>
<symbol overflow="visible" id="id12">
<path style="stroke:none;" d="M 3.171875 -6.640625 C 2.671875 -6.640625 2.289062 -6.390625 2.03125 -5.890625 C 1.78125 -5.390625 1.65625 -4.640625 1.65625 -3.640625 C 1.65625 -2.640625 1.78125 -1.890625 2.03125 -1.390625 C 2.289062 -0.890625 2.671875 -0.640625 3.171875 -0.640625 C 3.691406 -0.640625 4.078125 -0.890625 4.328125 -1.390625 C 4.585938 -1.890625 4.71875 -2.640625 4.71875 -3.640625 C 4.71875 -4.640625 4.585938 -5.390625 4.328125 -5.890625 C 4.078125 -6.390625 3.691406 -6.640625 3.171875 -6.640625 Z M 3.171875 -7.421875 C 3.992188 -7.421875 4.617188 -7.097656 5.046875 -6.453125 C 5.484375 -5.804688 5.703125 -4.867188 5.703125 -3.640625 C 5.703125 -2.410156 5.484375 -1.472656 5.046875 -0.828125 C 4.617188 -0.179688 3.992188 0.140625 3.171875 0.140625 C 2.359375 0.140625 1.734375 -0.179688 1.296875 -0.828125 C 0.867188 -1.472656 0.65625 -2.410156 0.65625 -3.640625 C 0.65625 -4.867188 0.867188 -5.804688 1.296875 -6.453125 C 1.734375 -7.097656 2.359375 -7.421875 3.171875 -7.421875 Z M 3.171875 -7.421875 "/>
</symbol>
<symbol overflow="visible" id="id13">
<path style="stroke:none;" d="M 2.5 -6.796875 C 2.238281 -6.796875 2.019531 -6.703125 1.84375 -6.515625 C 1.664062 -6.335938 1.578125 -6.117188 1.578125 -5.859375 C 1.578125 -5.597656 1.664062 -5.378906 1.84375 -5.203125 C 2.019531 -5.023438 2.238281 -4.9375 2.5 -4.9375 C 2.757812 -4.9375 2.976562 -5.023438 3.15625 -5.203125 C 3.332031 -5.378906 3.421875 -5.597656 3.421875 -5.859375 C 3.421875 -6.117188 3.332031 -6.335938 3.15625 -6.515625 C 2.976562 -6.703125 2.757812 -6.796875 2.5 -6.796875 Z M 2.5 -7.421875 C 2.707031 -7.421875 2.90625 -7.378906 3.09375 -7.296875 C 3.289062 -7.222656 3.457031 -7.109375 3.59375 -6.953125 C 3.75 -6.804688 3.863281 -6.640625 3.9375 -6.453125 C 4.007812 -6.273438 4.046875 -6.078125 4.046875 -5.859375 C 4.046875 -5.429688 3.894531 -5.066406 3.59375 -4.765625 C 3.289062 -4.472656 2.921875 -4.328125 2.484375 -4.328125 C 2.046875 -4.328125 1.679688 -4.472656 1.390625 -4.765625 C 1.097656 -5.054688 0.953125 -5.421875 0.953125 -5.859375 C 0.953125 -6.296875 1.097656 -6.664062 1.390625 -6.96875 C 1.691406 -7.269531 2.0625 -7.421875 2.5 -7.421875 Z M 2.5 -7.421875 "/>
</symbol>
<symbol overflow="visible" id="id14">
<path style="stroke:none;" d="M 3.296875 -4.03125 C 2.859375 -4.03125 2.507812 -3.878906 2.25 -3.578125 C 1.988281 -3.273438 1.859375 -2.863281 1.859375 -2.34375 C 1.859375 -1.8125 1.988281 -1.394531 2.25 -1.09375 C 2.507812 -0.789062 2.859375 -0.640625 3.296875 -0.640625 C 3.742188 -0.640625 4.09375 -0.789062 4.34375 -1.09375 C 4.601562 -1.394531 4.734375 -1.8125 4.734375 -2.34375 C 4.734375 -2.863281 4.601562 -3.273438 4.34375 -3.578125 C 4.09375 -3.878906 3.742188 -4.03125 3.296875 -4.03125 Z M 5.265625 -7.125 L 5.265625 -6.234375 C 5.015625 -6.347656 4.757812 -6.4375 4.5 -6.5 C 4.25 -6.5625 4.003906 -6.59375 3.765625 -6.59375 C 3.109375 -6.59375 2.609375 -6.375 2.265625 -5.9375 C 1.921875 -5.5 1.726562 -4.832031 1.6875 -3.9375 C 1.875 -4.21875 2.113281 -4.429688 2.40625 -4.578125 C 2.695312 -4.734375 3.015625 -4.8125 3.359375 -4.8125 C 4.085938 -4.8125 4.664062 -4.585938 5.09375 -4.140625 C 5.519531 -3.703125 5.734375 -3.101562 5.734375 -2.34375 C 5.734375 -1.59375 5.507812 -0.988281 5.0625 -0.53125 C 4.625 -0.0820312 4.035156 0.140625 3.296875 0.140625 C 2.453125 0.140625 1.804688 -0.179688 1.359375 -0.828125 C 0.921875 -1.472656 0.703125 -2.410156 0.703125 -3.640625 C 0.703125 -4.785156 0.972656 -5.703125 1.515625 -6.390625 C 2.066406 -7.078125 2.800781 -7.421875 3.71875 -7.421875 C 3.96875 -7.421875 4.21875 -7.394531 4.46875 -7.34375 C 4.71875 -7.300781 4.984375 -7.226562 5.265625 -7.125 Z M 5.265625 -7.125 "/>
</symbol>
</g>
</defs>
<g id="id15">
<path style="fill:none;stroke-width:1;stroke-linecap:butt;stroke-linejoin:miter;stroke:rgb(36.8417%,50.6779%,70.9798%);stroke-opacity:1;stroke-miterlimit:10;" d="M 50 0 L 136.601562 50 M 132.441406 43.167969 L 136.601562 50 L 128.605469 49.8125 "/>
<path style="fill:none;stroke-width:1;stroke-linecap:butt;stroke-linejoin:miter;stroke:rgb(88.0722%,61.1041%,14.2051%);stroke-opacity:1;stroke-miterlimit:10;" d="M 50 120 L 136.601562 70 M 128.605469 70.1875 L 136.601562 70 L 132.441406 76.832031 "/>
<path style=" stroke:none;fill-rule:nonzero;fill:rgb(92.2526%,38.5626%,20.9179%);fill-opacity:1;" d="M 156.921875 60 C 156.921875 64 150.921875 64 150.921875 60 C 150.921875 56 156.921875 56 156.921875 60 "/>
<path style="fill:none;stroke-width:1;stroke-linecap:butt;stroke-linejoin:miter;stroke:rgb(92.2526%,38.5626%,20.9179%);stroke-opacity:1;stroke-miterlimit:10;" d="M 162.582031 65 C 160.320312 68.917969 155.707031 70.832031 151.335938 69.660156 C 146.964844 68.488281 143.921875 64.527344 143.921875 60 C 143.921875 55.472656 146.964844 51.511719 151.335938 50.339844 C 155.707031 49.167969 160.320312 51.082031 162.582031 55 M 161.253906 49.148438 L 162.582031 55 L 156.941406 52.957031 "/>
<g style="fill:rgb(0%,0%,0%);fill-opacity:1;">
  <use xlink:href="#id2" x="168.921875" y="75"/>
  <use xlink:href="#id3" x="175.762695" y="75"/>
  <use xlink:href="#id4" x="178.541016" y="75"/>
  <use xlink:href="#id5" x="182.652344" y="75"/>
  <use xlink:href="#id6" x="186.573242" y="75"/>
  <use xlink:href="#id7" x="192.911133" y="75"/>
  <use xlink:href="#id8" x="199.039062" y="75"/>
  <use xlink:href="#id9" x="201.817383" y="75"/>
  <use xlink:href="#id10" x="204.996094" y="75"/>
  <use xlink:href="#id11" x="208.174805" y="75"/>
  <use xlink:href="#id12" x="214.537109" y="75"/>
  <use xlink:href="#id12" x="220.899414" y="75"/>
  <use xlink:href="#id13" x="227.261719" y="75"/>
</g>
<path style="fill:none;stroke-width:1;stroke-linecap:butt;stroke-linejoin:miter;stroke:rgb(36.8417%,50.6779%,70.9798%);stroke-opacity:1;stroke-miterlimit:10;" d="M 317.320312 50 L 403.921875 0 M 395.925781 0.1875 L 403.921875 0 L 399.761719 6.832031 "/>
<path style="fill:none;stroke-width:1;stroke-linecap:butt;stroke-linejoin:miter;stroke:rgb(88.0722%,61.1041%,14.2051%);stroke-opacity:1;stroke-miterlimit:10;" d="M 317.320312 70 L 403.921875 120 M 399.761719 113.167969 L 403.921875 120 L 395.925781 119.8125 "/>
<path style=" stroke:none;fill-rule:nonzero;fill:rgb(92.2526%,38.5626%,20.9179%);fill-opacity:1;" d="M 303 60 C 303 64 297 64 297 60 C 297 56 303 56 303 60 "/>
<path style="fill:none;stroke-width:1;stroke-linecap:butt;stroke-linejoin:miter;stroke:rgb(92.2526%,38.5626%,20.9179%);stroke-opacity:1;stroke-miterlimit:10;" d="M 308.660156 55 C 310.445312 58.09375 310.445312 61.90625 308.660156 65 M 313.0625 60.921875 L 308.660156 65 L 307.605469 59.09375 "/>
<g style="fill:rgb(0%,0%,0%);fill-opacity:1;">
  <use xlink:href="#id2" x="315" y="75"/>
  <use xlink:href="#id3" x="321.84082" y="75"/>
  <use xlink:href="#id4" x="324.619141" y="75"/>
  <use xlink:href="#id5" x="328.730469" y="75"/>
  <use xlink:href="#id6" x="332.651367" y="75"/>
  <use xlink:href="#id7" x="338.989258" y="75"/>
  <use xlink:href="#id8" x="345.117188" y="75"/>
  <use xlink:href="#id9" x="347.895508" y="75"/>
  <use xlink:href="#id10" x="351.074219" y="75"/>
  <use xlink:href="#id14" x="354.25293" y="75"/>
  <use xlink:href="#id12" x="360.615234" y="75"/>
  <use xlink:href="#id13" x="366.977539" y="75"/>
</g>
</g>
</svg>
