<?xml version="1.0" encoding="UTF-8"?>
<svg xmlns="http://www.w3.org/2000/svg" xmlns:xlink="http://www.w3.org/1999/xlink" width="220pt" height="220pt" viewBox="0 0 220 220" version="1.1">
<g id="id1">
<path style="fill:none;stroke-width:2;stroke-linecap:butt;stroke-linejoin:bevel;stroke:rgb(36.8417%,50.6779%,70.9798%);stroke-opacity:1;stroke-miterlimit:10;" d="M 14.957031 95.355469 L 10.019531 55.660156 L 54.699219 90.816406 Z M 14.957031 95.355469 " transform="matrix(1,0,0,1,10,10)"/>
<path style=" stroke:none;fill-rule:nonzero;fill:rgb(88.0722%,61.1041%,14.2051%);fill-opacity:1;" d="M 28.957031 105.355469 C 28.957031 110.6875 20.957031 110.6875 20.957031 105.355469 C 20.957031 100.023438 28.957031 100.023438 28.957031 105.355469 "/>
<path style=" stroke:none;fill-rule:nonzero;fill:rgb(88.0722%,61.1041%,14.2051%);fill-opacity:1;" d="M 24.019531 65.660156 C 24.019531 70.996094 16.019531 70.996094 16.019531 65.660156 C 16.019531 60.328125 24.019531 60.328125 24.019531 65.660156 "/>
<path style=" stroke:none;fill-rule:nonzero;fill:rgb(88.0722%,61.1041%,14.2051%);fill-opacity:1;" d="M 68.699219 100.816406 C 68.699219 106.148438 60.699219 106.148438 60.699219 100.816406 C 60.699219 95.484375 68.699219 95.484375 68.699219 100.816406 "/>
<path style="fill:none;stroke-width:2;stroke-linecap:butt;stroke-linejoin:bevel;stroke:rgb(36.8417%,50.6779%,70.9798%);stroke-opacity:1;stroke-miterlimit:10;" d="M 21.765625 136.003906 L 14.957031 95.355469 L 54.699219 90.816406 Z M 21.765625 136.003906 " transform="matrix(1,0,0,1,10,10)"/>
<path style=" stroke:none;fill-rule:nonzero;fill:rgb(88.0722%,61.1041%,14.2051%);fill-opacity:1;" d="M 35.765625 146.003906 C 35.765625 151.339844 27.765625 151.339844 27.765625 146.003906 C 27.765625 140.671875 35.765625 140.671875 35.765625 146.003906 "/>
<path style=" stroke:none;fill-rule:nonzero;fill:rgb(88.0722%,61.1041%,14.2051%);fill-opacity:1;" d="M 28.957031 105.355469 C 28.957031 110.6875 20.957031 110.6875 20.957031 105.355469 C 20.957031 100.023438 28.957031 100.023438 28.957031 105.355469 "/>
<path style=" stroke:none;fill-rule:nonzero;fill:rgb(88.0722%,61.1041%,14.2051%);fill-opacity:1;" d="M 68.699219 100.816406 C 68.699219 106.148438 60.699219 106.148438 60.699219 100.816406 C 60.699219 95.484375 68.699219 95.484375 68.699219 100.816406 "/>
<path style="fill:none;stroke-width:2;stroke-linecap:butt;stroke-linejoin:bevel;stroke:rgb(36.8417%,50.6779%,70.9798%);stroke-opacity:1;stroke-miterlimit:10;" d="M 22.507812 175.996094 L 14.957031 95.355469 L 21.765625 136.003906 Z M 22.507812 175.996094 " transform="matrix(1,0,0,1,10,10)"/>
<path style=" stroke:none;fill-rule:nonzero;fill:rgb(88.0722%,61.1041%,14.2051%);fill-opacity:1;" d="M 36.507812 185.996094 C 36.507812 191.332031 28.507812 191.332031 28.507812 185.996094 C 28.507812 180.664062 36.507812 180.664062 36.507812 185.996094 "/>
<path style=" stroke:none;fill-rule:nonzero;fill:rgb(88.0722%,61.1041%,14.2051%);fill-opacity:1;" d="M 28.957031 105.355469 C 28.957031 110.6875 20.957031 110.6875 20.957031 105.355469 C 20.957031 100.023438 28.957031 100.023438 28.957031 105.355469 "/>
<path style=" stroke:none;fill-rule:nonzero;fill:rgb(88.0722%,61.1041%,14.2051%);fill-opacity:1;" d="M 35.765625 146.003906 C 35.765625 151.339844 27.765625 151.339844 27.765625 146.003906 C 27.765625 140.671875 35.765625 140.671875 35.765625 146.003906 "/>
<path style="fill:none;stroke-width:2;stroke-linecap:butt;stroke-linejoin:bevel;stroke:rgb(36.8417%,50.6779%,70.9798%);stroke-opacity:1;stroke-miterlimit:10;" d="M 22.507812 175.996094 L 95.039062 151.828125 L 125.890625 183.78125 Z M 22.507812 175.996094 " transform="matrix(1,0,0,1,10,10)"/>
<path style=" stroke:none;fill-rule:nonzero;fill:rgb(88.0722%,61.1041%,14.2051%);fill-opacity:1;" d="M 36.507812 185.996094 C 36.507812 191.332031 28.507812 191.332031 28.507812 185.996094 C 28.507812 180.664062 36.507812 180.664062 36.507812 185.996094 "/>
<path style=" stroke:none;fill-rule:nonzero;fill:rgb(88.0722%,61.1041%,14.2051%);fill-opacity:1;" d="M 109.039062 161.828125 C 109.039062 167.160156 101.039062 167.160156 101.039062 161.828125 C 101.039062 156.492188 109.039062 156.492188 109.039062 161.828125 "/>
<path style=" stroke:none;fill-rule:nonzero;fill:rgb(88.0722%,61.1041%,14.2051%);fill-opacity:1;" d="M 139.890625 193.78125 C 139.890625 199.113281 131.890625 199.113281 131.890625 193.78125 C 131.890625 188.449219 139.890625 188.449219 139.890625 193.78125 "/>
<path style="fill:none;stroke-width:2;stroke-linecap:butt;stroke-linejoin:bevel;stroke:rgb(36.8417%,50.6779%,70.9798%);stroke-opacity:1;stroke-miterlimit:10;" d="M 53.800781 50.828125 L 10.019531 55.660156 L 36.996094 14.527344 Z M 53.800781 50.828125 " transform="matrix(1,0,0,1,10,10)"/>
<path style=" stroke:none;fill-rule:nonzero;fill:rgb(88.0722%,61.1041%,14.2051%);fill-opacity:1;" d="M 67.800781 60.828125 C 67.800781 66.160156 59.800781 66.160156 59.800781 60.828125 C 59.800781 55.492188 67.800781 55.492188 67.800781 60.828125 "/>
<path style=" stroke:none;fill-rule:nonzero;fill:rgb(88.0722%,61.1041%,14.2051%);fill-opacity:1;" d="M 24.019531 65.660156 C 24.019531 70.996094 16.019531 70.996094 16.019531 65.660156 C 16.019531 60.328125 24.019531 60.328125 24.019531 65.660156 "/>
<path style=" stroke:none;fill-rule:nonzero;fill:rgb(88.0722%,61.1041%,14.2051%);fill-opacity:1;" d="M 50.996094 24.527344 C 50.996094 29.859375 42.996094 29.859375 42.996094 24.527344 C 42.996094 19.195312 50.996094 19.195312 50.996094 24.527344 "/>
<path style="fill:none;stroke-width:2;stroke-linecap:butt;stroke-linejoin:bevel;stroke:rgb(36.8417%,50.6779%,70.9798%);stroke-opacity:1;stroke-miterlimit:10;" d="M 53.800781 50.828125 L 36.996094 14.527344 L 107.390625 1.902344 Z M 53.800781 50.828125 " transform="matrix(1,0,0,1,10,10)"/>
<path style=" stroke:none;fill-rule:nonzero;fill:rgb(88.0722%,61.1041%,14.2051%);fill-opacity:1;" d="M 67.800781 60.828125 C 67.800781 66.160156 59.800781 66.160156 59.800781 60.828125 C 59.800781 55.492188 67.800781 55.492188 67.800781 60.828125 "/>
<path style=" stroke:none;fill-rule:nonzero;fill:rgb(88.0722%,61.1041%,14.2051%);fill-opacity:1;" d="M 50.996094 24.527344 C 50.996094 29.859375 42.996094 29.859375 42.996094 24.527344 C 42.996094 19.195312 50.996094 19.195312 50.996094 24.527344 "/>
<path style=" stroke:none;fill-rule:nonzero;fill:rgb(88.0722%,61.1041%,14.2051%);fill-opacity:1;" d="M 121.390625 11.902344 C 121.390625 17.234375 113.390625 17.234375 113.390625 11.902344 C 113.390625 6.570312 121.390625 6.570312 121.390625 11.902344 "/>
<path style="fill:none;stroke-width:2;stroke-linecap:butt;stroke-linejoin:bevel;stroke:rgb(36.8417%,50.6779%,70.9798%);stroke-opacity:1;stroke-miterlimit:10;" d="M 53.800781 50.828125 L 54.699219 90.816406 L 10.019531 55.660156 Z M 53.800781 50.828125 " transform="matrix(1,0,0,1,10,10)"/>
<path style=" stroke:none;fill-rule:nonzero;fill:rgb(88.0722%,61.1041%,14.2051%);fill-opacity:1;" d="M 67.800781 60.828125 C 67.800781 66.160156 59.800781 66.160156 59.800781 60.828125 C 59.800781 55.492188 67.800781 55.492188 67.800781 60.828125 "/>
<path style=" stroke:none;fill-rule:nonzero;fill:rgb(88.0722%,61.1041%,14.2051%);fill-opacity:1;" d="M 68.699219 100.816406 C 68.699219 106.148438 60.699219 106.148438 60.699219 100.816406 C 60.699219 95.484375 68.699219 95.484375 68.699219 100.816406 "/>
<path style=" stroke:none;fill-rule:nonzero;fill:rgb(88.0722%,61.1041%,14.2051%);fill-opacity:1;" d="M 24.019531 65.660156 C 24.019531 70.996094 16.019531 70.996094 16.019531 65.660156 C 16.019531 60.328125 24.019531 60.328125 24.019531 65.660156 "/>
<path style="fill:none;stroke-width:2;stroke-linecap:butt;stroke-linejoin:bevel;stroke:rgb(36.8417%,50.6779%,70.9798%);stroke-opacity:1;stroke-miterlimit:10;" d="M 53.800781 50.828125 L 101.84375 72.257812 L 54.699219 90.816406 Z M 53.800781 50.828125 " transform="matrix(1,0,0,1,10,10)"/>
<path style=" stroke:none;fill-rule:nonzero;fill:rgb(88.0722%,61.1041%,14.2051%);fill-opacity:1;" d="M 67.800781 60.828125 C 67.800781 66.160156 59.800781 66.160156 59.800781 60.828125 C 59.800781 55.492188 67.800781 55.492188 67.800781 60.828125 "/>
<path style=" stroke:none;fill-rule:nonzero;fill:rgb(88.0722%,61.1041%,14.2051%);fill-opacity:1;" d="M 115.84375 82.257812 C 115.84375 87.589844 107.84375 87.589844 107.84375 82.257812 C 107.84375 76.921875 115.84375 76.921875 115.84375 82.257812 "/>
<path style=" stroke:none;fill-rule:nonzero;fill:rgb(88.0722%,61.1041%,14.2051%);fill-opacity:1;" d="M 68.699219 100.816406 C 68.699219 106.148438 60.699219 106.148438 60.699219 100.816406 C 60.699219 95.484375 68.699219 95.484375 68.699219 100.816406 "/>
<path style="fill:none;stroke-width:2;stroke-linecap:butt;stroke-linejoin:bevel;stroke:rgb(36.8417%,50.6779%,70.9798%);stroke-opacity:1;stroke-miterlimit:10;" d="M 53.800781 50.828125 L 107.390625 1.902344 L 123.398438 38.558594 Z M 53.800781 50.828125 " transform="matrix(1,0,0,1,10,10)"/>
<path style=" stroke:none;fill-rule:nonzero;fill:rgb(88.0722%,61.1041%,14.2051%);fill-opacity:1;" d="M 67.800781 60.828125 C 67.800781 66.160156 59.800781 66.160156 59.800781 60.828125 C 59.800781 55.492188 67.800781 55.492188 67.800781 60.828125 "/>
<path style=" stroke:none;fill-rule:nonzero;fill:rgb(88.0722%,61.1041%,14.2051%);fill-opacity:1;" d="M 121.390625 11.902344 C 121.390625 17.234375 113.390625 17.234375 113.390625 11.902344 C 113.390625 6.570312 121.390625 6.570312 121.390625 11.902344 "/>
<path style=" stroke:none;fill-rule:nonzero;fill:rgb(88.0722%,61.1041%,14.2051%);fill-opacity:1;" d="M 137.398438 48.558594 C 137.398438 53.894531 129.398438 53.894531 129.398438 48.558594 C 129.398438 43.226562 137.398438 43.226562 137.398438 48.558594 "/>
<path style="fill:none;stroke-width:2;stroke-linecap:butt;stroke-linejoin:bevel;stroke:rgb(36.8417%,50.6779%,70.9798%);stroke-opacity:1;stroke-miterlimit:10;" d="M 53.800781 50.828125 L 123.398438 38.558594 L 101.84375 72.257812 Z M 53.800781 50.828125 " transform="matrix(1,0,0,1,10,10)"/>
<path style=" stroke:none;fill-rule:nonzero;fill:rgb(88.0722%,61.1041%,14.2051%);fill-opacity:1;" d="M 67.800781 60.828125 C 67.800781 66.160156 59.800781 66.160156 59.800781 60.828125 C 59.800781 55.492188 67.800781 55.492188 67.800781 60.828125 "/>
<path style=" stroke:none;fill-rule:nonzero;fill:rgb(88.0722%,61.1041%,14.2051%);fill-opacity:1;" d="M 137.398438 48.558594 C 137.398438 53.894531 129.398438 53.894531 129.398438 48.558594 C 129.398438 43.226562 137.398438 43.226562 137.398438 48.558594 "/>
<path style=" stroke:none;fill-rule:nonzero;fill:rgb(88.0722%,61.1041%,14.2051%);fill-opacity:1;" d="M 115.84375 82.257812 C 115.84375 87.589844 107.84375 87.589844 107.84375 82.257812 C 107.84375 76.921875 115.84375 76.921875 115.84375 82.257812 "/>
<path style="fill:none;stroke-width:2;stroke-linecap:butt;stroke-linejoin:bevel;stroke:rgb(36.8417%,50.6779%,70.9798%);stroke-opacity:1;stroke-miterlimit:10;" d="M 61.351562 130.257812 L 21.765625 136.003906 L 54.699219 90.816406 Z M 61.351562 130.257812 " transform="matrix(1,0,0,1,10,10)"/>
<path style=" stroke:none;fill-rule:nonzero;fill:rgb(88.0722%,61.1041%,14.2051%);fill-opacity:1;" d="M 75.351562 140.257812 C 75.351562 145.59375 67.351562 145.59375 67.351562 140.257812 C 67.351562 134.925781 75.351562 134.925781 75.351562 140.257812 "/>
<path style=" stroke:none;fill-rule:nonzero;fill:rgb(88.0722%,61.1041%,14.2051%);fill-opacity:1;" d="M 35.765625 146.003906 C 35.765625 151.339844 27.765625 151.339844 27.765625 146.003906 C 27.765625 140.671875 35.765625 140.671875 35.765625 146.003906 "/>
<path style=" stroke:none;fill-rule:nonzero;fill:rgb(88.0722%,61.1041%,14.2051%);fill-opacity:1;" d="M 68.699219 100.816406 C 68.699219 106.148438 60.699219 106.148438 60.699219 100.816406 C 60.699219 95.484375 68.699219 95.484375 68.699219 100.816406 "/>
<path style="fill:none;stroke-width:2;stroke-linecap:butt;stroke-linejoin:bevel;stroke:rgb(36.8417%,50.6779%,70.9798%);stroke-opacity:1;stroke-miterlimit:10;" d="M 61.351562 130.257812 L 22.507812 175.996094 L 21.765625 136.003906 Z M 61.351562 130.257812 " transform="matrix(1,0,0,1,10,10)"/>
<path style=" stroke:none;fill-rule:nonzero;fill:rgb(88.0722%,61.1041%,14.2051%);fill-opacity:1;" d="M 75.351562 140.257812 C 75.351562 145.59375 67.351562 145.59375 67.351562 140.257812 C 67.351562 134.925781 75.351562 134.925781 75.351562 140.257812 "/>
<path style=" stroke:none;fill-rule:nonzero;fill:rgb(88.0722%,61.1041%,14.2051%);fill-opacity:1;" d="M 36.507812 185.996094 C 36.507812 191.332031 28.507812 191.332031 28.507812 185.996094 C 28.507812 180.664062 36.507812 180.664062 36.507812 185.996094 "/>
<path style=" stroke:none;fill-rule:nonzero;fill:rgb(88.0722%,61.1041%,14.2051%);fill-opacity:1;" d="M 35.765625 146.003906 C 35.765625 151.339844 27.765625 151.339844 27.765625 146.003906 C 27.765625 140.671875 35.765625 140.671875 35.765625 146.003906 "/>
<path style="fill:none;stroke-width:2;stroke-linecap:butt;stroke-linejoin:bevel;stroke:rgb(36.8417%,50.6779%,70.9798%);stroke-opacity:1;stroke-miterlimit:10;" d="M 61.351562 130.257812 L 54.699219 90.816406 L 100.785156 112.242188 Z M 61.351562 130.257812 " transform="matrix(1,0,0,1,10,10)"/>
<path style=" stroke:none;fill-rule:nonzero;fill:rgb(88.0722%,61.1041%,14.2051%);fill-opacity:1;" d="M 75.351562 140.257812 C 75.351562 145.59375 67.351562 145.59375 67.351562 140.257812 C 67.351562 134.925781 75.351562 134.925781 75.351562 140.257812 "/>
<path style=" stroke:none;fill-rule:nonzero;fill:rgb(88.0722%,61.1041%,14.2051%);fill-opacity:1;" d="M 68.699219 100.816406 C 68.699219 106.148438 60.699219 106.148438 60.699219 100.816406 C 60.699219 95.484375 68.699219 95.484375 68.699219 100.816406 "/>
<path style=" stroke:none;fill-rule:nonzero;fill:rgb(88.0722%,61.1041%,14.2051%);fill-opacity:1;" d="M 114.785156 122.242188 C 114.785156 127.574219 106.785156 127.574219 106.785156 122.242188 C 106.785156 116.910156 114.785156 116.910156 114.785156 122.242188 "/>
<path style="fill:none;stroke-width:2;stroke-linecap:butt;stroke-linejoin:bevel;stroke:rgb(36.8417%,50.6779%,70.9798%);stroke-opacity:1;stroke-miterlimit:10;" d="M 61.351562 130.257812 L 95.039062 151.828125 L 22.507812 175.996094 Z M 61.351562 130.257812 " transform="matrix(1,0,0,1,10,10)"/>
<path style=" stroke:none;fill-rule:nonzero;fill:rgb(88.0722%,61.1041%,14.2051%);fill-opacity:1;" d="M 75.351562 140.257812 C 75.351562 145.59375 67.351562 145.59375 67.351562 140.257812 C 67.351562 134.925781 75.351562 134.925781 75.351562 140.257812 "/>
<path style=" stroke:none;fill-rule:nonzero;fill:rgb(88.0722%,61.1041%,14.2051%);fill-opacity:1;" d="M 109.039062 161.828125 C 109.039062 167.160156 101.039062 167.160156 101.039062 161.828125 C 101.039062 156.492188 109.039062 156.492188 109.039062 161.828125 "/>
<path style=" stroke:none;fill-rule:nonzero;fill:rgb(88.0722%,61.1041%,14.2051%);fill-opacity:1;" d="M 36.507812 185.996094 C 36.507812 191.332031 28.507812 191.332031 28.507812 185.996094 C 28.507812 180.664062 36.507812 180.664062 36.507812 185.996094 "/>
<path style="fill:none;stroke-width:2;stroke-linecap:butt;stroke-linejoin:bevel;stroke:rgb(36.8417%,50.6779%,70.9798%);stroke-opacity:1;stroke-miterlimit:10;" d="M 61.351562 130.257812 L 100.785156 112.242188 L 95.039062 151.828125 Z M 61.351562 130.257812 " transform="matrix(1,0,0,1,10,10)"/>
<path style=" stroke:none;fill-rule:nonzero;fill:rgb(88.0722%,61.1041%,14.2051%);fill-opacity:1;" d="M 75.351562 140.257812 C 75.351562 145.59375 67.351562 145.59375 67.351562 140.257812 C 67.351562 134.925781 75.351562 134.925781 75.351562 140.257812 "/>
<path style=" stroke:none;fill-rule:nonzero;fill:rgb(88.0722%,61.1041%,14.2051%);fill-opacity:1;" d="M 114.785156 122.242188 C 114.785156 127.574219 106.785156 127.574219 106.785156 122.242188 C 106.785156 116.910156 114.785156 116.910156 114.785156 122.242188 "/>
<path style=" stroke:none;fill-rule:nonzero;fill:rgb(88.0722%,61.1041%,14.2051%);fill-opacity:1;" d="M 109.039062 161.828125 C 109.039062 167.160156 101.039062 167.160156 101.039062 161.828125 C 101.039062 156.492188 109.039062 156.492188 109.039062 161.828125 "/>
<path style="fill:none;stroke-width:2;stroke-linecap:butt;stroke-linejoin:bevel;stroke:rgb(36.8417%,50.6779%,70.9798%);stroke-opacity:1;stroke-miterlimit:10;" d="M 95.039062 151.828125 L 100.785156 112.242188 L 134.398438 144.695312 Z M 95.039062 151.828125 " transform="matrix(1,0,0,1,10,10)"/>
<path style=" stroke:none;fill-rule:nonzero;fill:rgb(88.0722%,61.1041%,14.2051%);fill-opacity:1;" d="M 109.039062 161.828125 C 109.039062 167.160156 101.039062 167.160156 101.039062 161.828125 C 101.039062 156.492188 109.039062 156.492188 109.039062 161.828125 "/>
<path style=" stroke:none;fill-rule:nonzero;fill:rgb(88.0722%,61.1041%,14.2051%);fill-opacity:1;" d="M 114.785156 122.242188 C 114.785156 127.574219 106.785156 127.574219 106.785156 122.242188 C 106.785156 116.910156 114.785156 116.910156 114.785156 122.242188 "/>
<path style=" stroke:none;fill-rule:nonzero;fill:rgb(88.0722%,61.1041%,14.2051%);fill-opacity:1;" d="M 148.398438 154.695312 C 148.398438 160.03125 140.398438 160.03125 140.398438 154.695312 C 140.398438 149.363281 148.398438 149.363281 148.398438 154.695312 "/>
<path style="fill:none;stroke-width:2;stroke-linecap:butt;stroke-linejoin:bevel;stroke:rgb(36.8417%,50.6779%,70.9798%);stroke-opacity:1;stroke-miterlimit:10;" d="M 95.039062 151.828125 L 134.398438 144.695312 L 125.890625 183.78125 Z M 95.039062 151.828125 " transform="matrix(1,0,0,1,10,10)"/>
<path style=" stroke:none;fill-rule:nonzero;fill:rgb(88.0722%,61.1041%,14.2051%);fill-opacity:1;" d="M 109.039062 161.828125 C 109.039062 167.160156 101.039062 167.160156 101.039062 161.828125 C 101.039062 156.492188 109.039062 156.492188 109.039062 161.828125 "/>
<path style=" stroke:none;fill-rule:nonzero;fill:rgb(88.0722%,61.1041%,14.2051%);fill-opacity:1;" d="M 148.398438 154.695312 C 148.398438 160.03125 140.398438 160.03125 140.398438 154.695312 C 140.398438 149.363281 148.398438 149.363281 148.398438 154.695312 "/>
<path style=" stroke:none;fill-rule:nonzero;fill:rgb(88.0722%,61.1041%,14.2051%);fill-opacity:1;" d="M 139.890625 193.78125 C 139.890625 199.113281 131.890625 199.113281 131.890625 193.78125 C 131.890625 188.449219 139.890625 188.449219 139.890625 193.78125 "/>
<path style="fill:none;stroke-width:2;stroke-linecap:butt;stroke-linejoin:bevel;stroke:rgb(36.8417%,50.6779%,70.9798%);stroke-opacity:1;stroke-miterlimit:10;" d="M 100.785156 112.242188 L 54.699219 90.816406 L 101.84375 72.257812 Z M 100.785156 112.242188 " transform="matrix(1,0,0,1,10,10)"/>
<path style=" stroke:none;fill-rule:nonzero;fill:rgb(88.0722%,61.1041%,14.2051%);fill-opacity:1;" d="M 114.785156 122.242188 C 114.785156 127.574219 106.785156 127.574219 106.785156 122.242188 C 106.785156 116.910156 114.785156 116.910156 114.785156 122.242188 "/>
<path style=" stroke:none;fill-rule:nonzero;fill:rgb(88.0722%,61.1041%,14.2051%);fill-opacity:1;" d="M 68.699219 100.816406 C 68.699219 106.148438 60.699219 106.148438 60.699219 100.816406 C 60.699219 95.484375 68.699219 95.484375 68.699219 100.816406 "/>
<path style=" stroke:none;fill-rule:nonzero;fill:rgb(88.0722%,61.1041%,14.2051%);fill-opacity:1;" d="M 115.84375 82.257812 C 115.84375 87.589844 107.84375 87.589844 107.84375 82.257812 C 107.84375 76.921875 115.84375 76.921875 115.84375 82.257812 "/>
<path style="fill:none;stroke-width:2;stroke-linecap:butt;stroke-linejoin:bevel;stroke:rgb(36.8417%,50.6779%,70.9798%);stroke-opacity:1;stroke-miterlimit:10;" d="M 100.785156 112.242188 L 101.84375 72.257812 L 149.214844 101.480469 Z M 100.785156 112.242188 " transform="matrix(1,0,0,1,10,10)"/>
<path style=" stroke:none;fill-rule:nonzero;fill:rgb(88.0722%,61.1041%,14.2051%);fill-opacity:1;" d="M 114.785156 122.242188 C 114.785156 127.574219 106.785156 127.574219 106.785156 122.242188 C 106.785156 116.910156 114.785156 116.910156 114.785156 122.242188 "/>
<path style=" stroke:none;fill-rule:nonzero;fill:rgb(88.0722%,61.1041%,14.2051%);fill-opacity:1;" d="M 115.84375 82.257812 C 115.84375 87.589844 107.84375 87.589844 107.84375 82.257812 C 107.84375 76.921875 115.84375 76.921875 115.84375 82.257812 "/>
<path style=" stroke:none;fill-rule:nonzero;fill:rgb(88.0722%,61.1041%,14.2051%);fill-opacity:1;" d="M 163.214844 111.480469 C 163.214844 116.8125 155.214844 116.8125 155.214844 111.480469 C 155.214844 106.148438 163.214844 106.148438 163.214844 111.480469 "/>
<path style="fill:none;stroke-width:2;stroke-linecap:butt;stroke-linejoin:bevel;stroke:rgb(36.8417%,50.6779%,70.9798%);stroke-opacity:1;stroke-miterlimit:10;" d="M 100.785156 112.242188 L 149.214844 101.480469 L 134.398438 144.695312 Z M 100.785156 112.242188 " transform="matrix(1,0,0,1,10,10)"/>
<path style=" stroke:none;fill-rule:nonzero;fill:rgb(88.0722%,61.1041%,14.2051%);fill-opacity:1;" d="M 114.785156 122.242188 C 114.785156 127.574219 106.785156 127.574219 106.785156 122.242188 C 106.785156 116.910156 114.785156 116.910156 114.785156 122.242188 "/>
<path style=" stroke:none;fill-rule:nonzero;fill:rgb(88.0722%,61.1041%,14.2051%);fill-opacity:1;" d="M 163.214844 111.480469 C 163.214844 116.8125 155.214844 116.8125 155.214844 111.480469 C 155.214844 106.148438 163.214844 106.148438 163.214844 111.480469 "/>
<path style=" stroke:none;fill-rule:nonzero;fill:rgb(88.0722%,61.1041%,14.2051%);fill-opacity:1;" d="M 148.398438 154.695312 C 148.398438 160.03125 140.398438 160.03125 140.398438 154.695312 C 140.398438 149.363281 148.398438 149.363281 148.398438 154.695312 "/>
<path style="fill:none;stroke-width:2;stroke-linecap:butt;stroke-linejoin:bevel;stroke:rgb(36.8417%,50.6779%,70.9798%);stroke-opacity:1;stroke-miterlimit:10;" d="M 101.84375 72.257812 L 123.398438 38.558594 L 149.214844 101.480469 Z M 101.84375 72.257812 " transform="matrix(1,0,0,1,10,10)"/>
<path style=" stroke:none;fill-rule:nonzero;fill:rgb(88.0722%,61.1041%,14.2051%);fill-opacity:1;" d="M 115.84375 82.257812 C 115.84375 87.589844 107.84375 87.589844 107.84375 82.257812 C 107.84375 76.921875 115.84375 76.921875 115.84375 82.257812 "/>
<path style=" stroke:none;fill-rule:nonzero;fill:rgb(88.0722%,61.1041%,14.2051%);fill-opacity:1;" d="M 137.398438 48.558594 C 137.398438 53.894531 129.398438 53.894531 129.398438 48.558594 C 129.398438 43.226562 137.398438 43.226562 137.398438 48.558594 "/>
<path style=" stroke:none;fill-rule:nonzero;fill:rgb(88.0722%,61.1041%,14.2051%);fill-opacity:1;" d="M 163.214844 111.480469 C 163.214844 116.8125 155.214844 116.8125 155.214844 111.480469 C 155.214844 106.148438 163.214844 106.148438 163.214844 111.480469 "/>
<path style="fill:none;stroke-width:2;stroke-linecap:butt;stroke-linejoin:bevel;stroke:rgb(36.8417%,50.6779%,70.9798%);stroke-opacity:1;stroke-miterlimit:10;" d="M 125.890625 183.78125 L 134.398438 144.695312 L 174.222656 148.417969 Z M 125.890625 183.78125 " transform="matrix(1,0,0,1,10,10)"/>
<path style=" stroke:none;fill-rule:nonzero;fill:rgb(88.0722%,61.1041%,14.2051%);fill-opacity:1;" d="M 139.890625 193.78125 C 139.890625 199.113281 131.890625 199.113281 131.890625 193.78125 C 131.890625 188.449219 139.890625 188.449219 139.890625 193.78125 "/>
<path style=" stroke:none;fill-rule:nonzero;fill:rgb(88.0722%,61.1041%,14.2051%);fill-opacity:1;" d="M 148.398438 154.695312 C 148.398438 160.03125 140.398438 160.03125 140.398438 154.695312 C 140.398438 149.363281 148.398438 149.363281 148.398438 154.695312 "/>
<path style=" stroke:none;fill-rule:nonzero;fill:rgb(88.0722%,61.1041%,14.2051%);fill-opacity:1;" d="M 188.222656 158.417969 C 188.222656 163.753906 180.222656 163.753906 180.222656 158.417969 C 180.222656 153.085938 188.222656 153.085938 188.222656 158.417969 "/>
<path style="fill:none;stroke-width:2;stroke-linecap:butt;stroke-linejoin:bevel;stroke:rgb(36.8417%,50.6779%,70.9798%);stroke-opacity:1;stroke-miterlimit:10;" d="M 163.230469 34.910156 L 123.398438 38.558594 L 107.390625 1.902344 Z M 163.230469 34.910156 " transform="matrix(1,0,0,1,10,10)"/>
<path style=" stroke:none;fill-rule:nonzero;fill:rgb(88.0722%,61.1041%,14.2051%);fill-opacity:1;" d="M 177.230469 44.910156 C 177.230469 50.242188 169.230469 50.242188 169.230469 44.910156 C 169.230469 39.578125 177.230469 39.578125 177.230469 44.910156 "/>
<path style=" stroke:none;fill-rule:nonzero;fill:rgb(88.0722%,61.1041%,14.2051%);fill-opacity:1;" d="M 137.398438 48.558594 C 137.398438 53.894531 129.398438 53.894531 129.398438 48.558594 C 129.398438 43.226562 137.398438 43.226562 137.398438 48.558594 "/>
<path style=" stroke:none;fill-rule:nonzero;fill:rgb(88.0722%,61.1041%,14.2051%);fill-opacity:1;" d="M 121.390625 11.902344 C 121.390625 17.234375 113.390625 17.234375 113.390625 11.902344 C 113.390625 6.570312 121.390625 6.570312 121.390625 11.902344 "/>
<path style="fill:none;stroke-width:2;stroke-linecap:butt;stroke-linejoin:bevel;stroke:rgb(36.8417%,50.6779%,70.9798%);stroke-opacity:1;stroke-miterlimit:10;" d="M 163.230469 34.910156 L 149.214844 101.480469 L 123.398438 38.558594 Z M 163.230469 34.910156 " transform="matrix(1,0,0,1,10,10)"/>
<path style=" stroke:none;fill-rule:nonzero;fill:rgb(88.0722%,61.1041%,14.2051%);fill-opacity:1;" d="M 177.230469 44.910156 C 177.230469 50.242188 169.230469 50.242188 169.230469 44.910156 C 169.230469 39.578125 177.230469 39.578125 177.230469 44.910156 "/>
<path style=" stroke:none;fill-rule:nonzero;fill:rgb(88.0722%,61.1041%,14.2051%);fill-opacity:1;" d="M 163.214844 111.480469 C 163.214844 116.8125 155.214844 116.8125 155.214844 111.480469 C 155.214844 106.148438 163.214844 106.148438 163.214844 111.480469 "/>
<path style=" stroke:none;fill-rule:nonzero;fill:rgb(88.0722%,61.1041%,14.2051%);fill-opacity:1;" d="M 137.398438 48.558594 C 137.398438 53.894531 129.398438 53.894531 129.398438 48.558594 C 129.398438 43.226562 137.398438 43.226562 137.398438 48.558594 "/>
<path style="fill:none;stroke-width:2;stroke-linecap:butt;stroke-linejoin:bevel;stroke:rgb(36.8417%,50.6779%,70.9798%);stroke-opacity:1;stroke-miterlimit:10;" d="M 163.230469 34.910156 L 183.910156 71.117188 L 149.214844 101.480469 Z M 163.230469 34.910156 " transform="matrix(1,0,0,1,10,10)"/>
<path style=" stroke:none;fill-rule:nonzero;fill:rgb(88.0722%,61.1041%,14.2051%);fill-opacity:1;" d="M 177.230469 44.910156 C 177.230469 50.242188 169.230469 50.242188 169.230469 44.910156 C 169.230469 39.578125 177.230469 39.578125 177.230469 44.910156 "/>
<path style=" stroke:none;fill-rule:nonzero;fill:rgb(88.0722%,61.1041%,14.2051%);fill-opacity:1;" d="M 197.910156 81.117188 C 197.910156 86.449219 189.910156 86.449219 189.910156 81.117188 C 189.910156 75.785156 197.910156 75.785156 197.910156 81.117188 "/>
<path style=" stroke:none;fill-rule:nonzero;fill:rgb(88.0722%,61.1041%,14.2051%);fill-opacity:1;" d="M 163.214844 111.480469 C 163.214844 116.8125 155.214844 116.8125 155.214844 111.480469 C 155.214844 106.148438 163.214844 106.148438 163.214844 111.480469 "/>
<path style="fill:none;stroke-width:2;stroke-linecap:butt;stroke-linejoin:bevel;stroke:rgb(36.8417%,50.6779%,70.9798%);stroke-opacity:1;stroke-miterlimit:10;" d="M 174.222656 148.417969 L 134.398438 144.695312 L 149.214844 101.480469 Z M 174.222656 148.417969 " transform="matrix(1,0,0,1,10,10)"/>
<path style=" stroke:none;fill-rule:nonzero;fill:rgb(88.0722%,61.1041%,14.2051%);fill-opacity:1;" d="M 188.222656 158.417969 C 188.222656 163.753906 180.222656 163.753906 180.222656 158.417969 C 180.222656 153.085938 188.222656 153.085938 188.222656 158.417969 "/>
<path style=" stroke:none;fill-rule:nonzero;fill:rgb(88.0722%,61.1041%,14.2051%);fill-opacity:1;" d="M 148.398438 154.695312 C 148.398438 160.03125 140.398438 160.03125 140.398438 154.695312 C 140.398438 149.363281 148.398438 149.363281 148.398438 154.695312 "/>
<path style=" stroke:none;fill-rule:nonzero;fill:rgb(88.0722%,61.1041%,14.2051%);fill-opacity:1;" d="M 163.214844 111.480469 C 163.214844 116.8125 155.214844 116.8125 155.214844 111.480469 C 155.214844 106.148438 163.214844 106.148438 163.214844 111.480469 "/>
<path style="fill:none;stroke-width:2;stroke-linecap:butt;stroke-linejoin:bevel;stroke:rgb(36.8417%,50.6779%,70.9798%);stroke-opacity:1;stroke-miterlimit:10;" d="M 174.222656 148.417969 L 149.214844 101.480469 L 188.089844 110.898438 Z M 174.222656 148.417969 " transform="matrix(1,0,0,1,10,10)"/>
<path style=" stroke:none;fill-rule:nonzero;fill:rgb(88.0722%,61.1041%,14.2051%);fill-opacity:1;" d="M 188.222656 158.417969 C 188.222656 163.753906 180.222656 163.753906 180.222656 158.417969 C 180.222656 153.085938 188.222656 153.085938 188.222656 158.417969 "/>
<path style=" stroke:none;fill-rule:nonzero;fill:rgb(88.0722%,61.1041%,14.2051%);fill-opacity:1;" d="M 163.214844 111.480469 C 163.214844 116.8125 155.214844 116.8125 155.214844 111.480469 C 155.214844 106.148438 163.214844 106.148438 163.214844 111.480469 "/>
<path style=" stroke:none;fill-rule:nonzero;fill:rgb(88.0722%,61.1041%,14.2051%);fill-opacity:1;" d="M 202.089844 120.898438 C 202.089844 126.230469 194.089844 126.230469 194.089844 120.898438 C 194.089844 115.566406 202.089844 115.566406 202.089844 120.898438 "/>
<path style="fill:none;stroke-width:2;stroke-linecap:butt;stroke-linejoin:bevel;stroke:rgb(36.8417%,50.6779%,70.9798%);stroke-opacity:1;stroke-miterlimit:10;" d="M 188.089844 110.898438 L 149.214844 101.480469 L 183.910156 71.117188 Z M 188.089844 110.898438 " transform="matrix(1,0,0,1,10,10)"/>
<path style=" stroke:none;fill-rule:nonzero;fill:rgb(88.0722%,61.1041%,14.2051%);fill-opacity:1;" d="M 202.089844 120.898438 C 202.089844 126.230469 194.089844 126.230469 194.089844 120.898438 C 194.089844 115.566406 202.089844 115.566406 202.089844 120.898438 "/>
<path style=" stroke:none;fill-rule:nonzero;fill:rgb(88.0722%,61.1041%,14.2051%);fill-opacity:1;" d="M 163.214844 111.480469 C 163.214844 116.8125 155.214844 116.8125 155.214844 111.480469 C 155.214844 106.148438 163.214844 106.148438 163.214844 111.480469 "/>
<path style=" stroke:none;fill-rule:nonzero;fill:rgb(88.0722%,61.1041%,14.2051%);fill-opacity:1;" d="M 197.910156 81.117188 C 197.910156 86.449219 189.910156 86.449219 189.910156 81.117188 C 189.910156 75.785156 197.910156 75.785156 197.910156 81.117188 "/>
</g>
</svg>
