<?xml version="1.0" encoding="UTF-8"?>
<svg xmlns="http://www.w3.org/2000/svg" xmlns:xlink="http://www.w3.org/1999/xlink" width="220pt" height="220pt" viewBox="0 0 220 220" version="1.1">
<g id="id1">
<path style="fill:none;stroke-width:2;stroke-linecap:butt;stroke-linejoin:miter;stroke:rgb(36.8417%,50.6779%,70.9798%);stroke-opacity:1;stroke-miterlimit:10;" d="M 10.832031 173.359375 L 16.246094 63.8125 L 18.449219 119.175781 Z M 10.832031 173.359375 " transform="matrix(1,0,0,1,10,10)"/>
<path style=" stroke:none;fill-rule:nonzero;fill:rgb(88.0722%,61.1041%,14.2051%);fill-opacity:1;" d="M 22.832031 183.359375 C 22.832031 186.027344 18.832031 186.027344 18.832031 183.359375 C 18.832031 180.691406 22.832031 180.691406 22.832031 183.359375 "/>
<path style=" stroke:none;fill-rule:nonzero;fill:rgb(88.0722%,61.1041%,14.2051%);fill-opacity:1;" d="M 28.246094 73.8125 C 28.246094 76.480469 24.246094 76.480469 24.246094 73.8125 C 24.246094 71.144531 28.246094 71.144531 28.246094 73.8125 "/>
<path style=" stroke:none;fill-rule:nonzero;fill:rgb(88.0722%,61.1041%,14.2051%);fill-opacity:1;" d="M 30.449219 129.175781 C 30.449219 131.84375 26.449219 131.84375 26.449219 129.175781 C 26.449219 126.511719 30.449219 126.511719 30.449219 129.175781 "/>
<path style="fill:none;stroke-width:2;stroke-linecap:butt;stroke-linejoin:miter;stroke:rgb(36.8417%,50.6779%,70.9798%);stroke-opacity:1;stroke-miterlimit:10;" d="M 10.832031 173.359375 L 18.449219 119.175781 L 40.082031 139.960938 Z M 10.832031 173.359375 " transform="matrix(1,0,0,1,10,10)"/>
<path style=" stroke:none;fill-rule:nonzero;fill:rgb(88.0722%,61.1041%,14.2051%);fill-opacity:1;" d="M 22.832031 183.359375 C 22.832031 186.027344 18.832031 186.027344 18.832031 183.359375 C 18.832031 180.691406 22.832031 180.691406 22.832031 183.359375 "/>
<path style=" stroke:none;fill-rule:nonzero;fill:rgb(88.0722%,61.1041%,14.2051%);fill-opacity:1;" d="M 30.449219 129.175781 C 30.449219 131.84375 26.449219 131.84375 26.449219 129.175781 C 26.449219 126.511719 30.449219 126.511719 30.449219 129.175781 "/>
<path style=" stroke:none;fill-rule:nonzero;fill:rgb(88.0722%,61.1041%,14.2051%);fill-opacity:1;" d="M 52.082031 149.960938 C 52.082031 152.625 48.082031 152.625 48.082031 149.960938 C 48.082031 147.292969 52.082031 147.292969 52.082031 149.960938 "/>
<path style="fill:none;stroke-width:2;stroke-linecap:butt;stroke-linejoin:miter;stroke:rgb(36.8417%,50.6779%,70.9798%);stroke-opacity:1;stroke-miterlimit:10;" d="M 10.832031 173.359375 L 40.082031 139.960938 L 40.640625 169.957031 Z M 10.832031 173.359375 " transform="matrix(1,0,0,1,10,10)"/>
<path style=" stroke:none;fill-rule:nonzero;fill:rgb(88.0722%,61.1041%,14.2051%);fill-opacity:1;" d="M 22.832031 183.359375 C 22.832031 186.027344 18.832031 186.027344 18.832031 183.359375 C 18.832031 180.691406 22.832031 180.691406 22.832031 183.359375 "/>
<path style=" stroke:none;fill-rule:nonzero;fill:rgb(88.0722%,61.1041%,14.2051%);fill-opacity:1;" d="M 52.082031 149.960938 C 52.082031 152.625 48.082031 152.625 48.082031 149.960938 C 48.082031 147.292969 52.082031 147.292969 52.082031 149.960938 "/>
<path style=" stroke:none;fill-rule:nonzero;fill:rgb(88.0722%,61.1041%,14.2051%);fill-opacity:1;" d="M 52.640625 179.957031 C 52.640625 182.621094 48.640625 182.621094 48.640625 179.957031 C 48.640625 177.289062 52.640625 177.289062 52.640625 179.957031 "/>
<path style="fill:none;stroke-width:2;stroke-linecap:butt;stroke-linejoin:miter;stroke:rgb(36.8417%,50.6779%,70.9798%);stroke-opacity:1;stroke-miterlimit:10;" d="M 10.832031 173.359375 L 40.640625 169.957031 L 59.941406 192.921875 Z M 10.832031 173.359375 " transform="matrix(1,0,0,1,10,10)"/>
<path style=" stroke:none;fill-rule:nonzero;fill:rgb(88.0722%,61.1041%,14.2051%);fill-opacity:1;" d="M 22.832031 183.359375 C 22.832031 186.027344 18.832031 186.027344 18.832031 183.359375 C 18.832031 180.691406 22.832031 180.691406 22.832031 183.359375 "/>
<path style=" stroke:none;fill-rule:nonzero;fill:rgb(88.0722%,61.1041%,14.2051%);fill-opacity:1;" d="M 52.640625 179.957031 C 52.640625 182.621094 48.640625 182.621094 48.640625 179.957031 C 48.640625 177.289062 52.640625 177.289062 52.640625 179.957031 "/>
<path style=" stroke:none;fill-rule:nonzero;fill:rgb(88.0722%,61.1041%,14.2051%);fill-opacity:1;" d="M 71.941406 202.921875 C 71.941406 205.585938 67.941406 205.585938 67.941406 202.921875 C 67.941406 200.253906 71.941406 200.253906 71.941406 202.921875 "/>
<path style="fill:none;stroke-width:2;stroke-linecap:butt;stroke-linejoin:miter;stroke:rgb(36.8417%,50.6779%,70.9798%);stroke-opacity:1;stroke-miterlimit:10;" d="M 16.246094 63.8125 L 37.5 15.296875 L 50.960938 42.109375 Z M 16.246094 63.8125 " transform="matrix(1,0,0,1,10,10)"/>
<path style=" stroke:none;fill-rule:nonzero;fill:rgb(88.0722%,61.1041%,14.2051%);fill-opacity:1;" d="M 28.246094 73.8125 C 28.246094 76.480469 24.246094 76.480469 24.246094 73.8125 C 24.246094 71.144531 28.246094 71.144531 28.246094 73.8125 "/>
<path style=" stroke:none;fill-rule:nonzero;fill:rgb(88.0722%,61.1041%,14.2051%);fill-opacity:1;" d="M 49.5 25.296875 C 49.5 27.964844 45.5 27.964844 45.5 25.296875 C 45.5 22.632812 49.5 22.632812 49.5 25.296875 "/>
<path style=" stroke:none;fill-rule:nonzero;fill:rgb(88.0722%,61.1041%,14.2051%);fill-opacity:1;" d="M 62.960938 52.109375 C 62.960938 54.773438 58.960938 54.773438 58.960938 52.109375 C 58.960938 49.441406 62.960938 49.441406 62.960938 52.109375 "/>
<path style="fill:none;stroke-width:2;stroke-linecap:butt;stroke-linejoin:miter;stroke:rgb(36.8417%,50.6779%,70.9798%);stroke-opacity:1;stroke-miterlimit:10;" d="M 16.246094 63.8125 L 50.960938 42.109375 L 65.574219 76.078125 Z M 16.246094 63.8125 " transform="matrix(1,0,0,1,10,10)"/>
<path style=" stroke:none;fill-rule:nonzero;fill:rgb(88.0722%,61.1041%,14.2051%);fill-opacity:1;" d="M 28.246094 73.8125 C 28.246094 76.480469 24.246094 76.480469 24.246094 73.8125 C 24.246094 71.144531 28.246094 71.144531 28.246094 73.8125 "/>
<path style=" stroke:none;fill-rule:nonzero;fill:rgb(88.0722%,61.1041%,14.2051%);fill-opacity:1;" d="M 62.960938 52.109375 C 62.960938 54.773438 58.960938 54.773438 58.960938 52.109375 C 58.960938 49.441406 62.960938 49.441406 62.960938 52.109375 "/>
<path style=" stroke:none;fill-rule:nonzero;fill:rgb(88.0722%,61.1041%,14.2051%);fill-opacity:1;" d="M 77.574219 86.078125 C 77.574219 88.746094 73.574219 88.746094 73.574219 86.078125 C 73.574219 83.414062 77.574219 83.414062 77.574219 86.078125 "/>
<path style="fill:none;stroke-width:2;stroke-linecap:butt;stroke-linejoin:miter;stroke:rgb(36.8417%,50.6779%,70.9798%);stroke-opacity:1;stroke-miterlimit:10;" d="M 28.847656 91.035156 L 16.246094 63.8125 L 65.574219 76.078125 Z M 28.847656 91.035156 " transform="matrix(1,0,0,1,10,10)"/>
<path style=" stroke:none;fill-rule:nonzero;fill:rgb(88.0722%,61.1041%,14.2051%);fill-opacity:1;" d="M 40.847656 101.035156 C 40.847656 103.703125 36.847656 103.703125 36.847656 101.035156 C 36.847656 98.371094 40.847656 98.371094 40.847656 101.035156 "/>
<path style=" stroke:none;fill-rule:nonzero;fill:rgb(88.0722%,61.1041%,14.2051%);fill-opacity:1;" d="M 28.246094 73.8125 C 28.246094 76.480469 24.246094 76.480469 24.246094 73.8125 C 24.246094 71.144531 28.246094 71.144531 28.246094 73.8125 "/>
<path style=" stroke:none;fill-rule:nonzero;fill:rgb(88.0722%,61.1041%,14.2051%);fill-opacity:1;" d="M 77.574219 86.078125 C 77.574219 88.746094 73.574219 88.746094 73.574219 86.078125 C 73.574219 83.414062 77.574219 83.414062 77.574219 86.078125 "/>
<path style="fill:none;stroke-width:2;stroke-linecap:butt;stroke-linejoin:miter;stroke:rgb(36.8417%,50.6779%,70.9798%);stroke-opacity:1;stroke-miterlimit:10;" d="M 28.847656 91.035156 L 18.449219 119.175781 L 16.246094 63.8125 Z M 28.847656 91.035156 " transform="matrix(1,0,0,1,10,10)"/>
<path style=" stroke:none;fill-rule:nonzero;fill:rgb(88.0722%,61.1041%,14.2051%);fill-opacity:1;" d="M 40.847656 101.035156 C 40.847656 103.703125 36.847656 103.703125 36.847656 101.035156 C 36.847656 98.371094 40.847656 98.371094 40.847656 101.035156 "/>
<path style=" stroke:none;fill-rule:nonzero;fill:rgb(88.0722%,61.1041%,14.2051%);fill-opacity:1;" d="M 30.449219 129.175781 C 30.449219 131.84375 26.449219 131.84375 26.449219 129.175781 C 26.449219 126.511719 30.449219 126.511719 30.449219 129.175781 "/>
<path style=" stroke:none;fill-rule:nonzero;fill:rgb(88.0722%,61.1041%,14.2051%);fill-opacity:1;" d="M 28.246094 73.8125 C 28.246094 76.480469 24.246094 76.480469 24.246094 73.8125 C 24.246094 71.144531 28.246094 71.144531 28.246094 73.8125 "/>
<path style="fill:none;stroke-width:2;stroke-linecap:butt;stroke-linejoin:miter;stroke:rgb(36.8417%,50.6779%,70.9798%);stroke-opacity:1;stroke-miterlimit:10;" d="M 28.847656 91.035156 L 64.785156 106.070312 L 18.449219 119.175781 Z M 28.847656 91.035156 " transform="matrix(1,0,0,1,10,10)"/>
<path style=" stroke:none;fill-rule:nonzero;fill:rgb(88.0722%,61.1041%,14.2051%);fill-opacity:1;" d="M 40.847656 101.035156 C 40.847656 103.703125 36.847656 103.703125 36.847656 101.035156 C 36.847656 98.371094 40.847656 98.371094 40.847656 101.035156 "/>
<path style=" stroke:none;fill-rule:nonzero;fill:rgb(88.0722%,61.1041%,14.2051%);fill-opacity:1;" d="M 76.785156 116.070312 C 76.785156 118.734375 72.785156 118.734375 72.785156 116.070312 C 72.785156 113.402344 76.785156 113.402344 76.785156 116.070312 "/>
<path style=" stroke:none;fill-rule:nonzero;fill:rgb(88.0722%,61.1041%,14.2051%);fill-opacity:1;" d="M 30.449219 129.175781 C 30.449219 131.84375 26.449219 131.84375 26.449219 129.175781 C 26.449219 126.511719 30.449219 126.511719 30.449219 129.175781 "/>
<path style="fill:none;stroke-width:2;stroke-linecap:butt;stroke-linejoin:miter;stroke:rgb(36.8417%,50.6779%,70.9798%);stroke-opacity:1;stroke-miterlimit:10;" d="M 28.847656 91.035156 L 65.574219 76.078125 L 64.785156 106.070312 Z M 28.847656 91.035156 " transform="matrix(1,0,0,1,10,10)"/>
<path style=" stroke:none;fill-rule:nonzero;fill:rgb(88.0722%,61.1041%,14.2051%);fill-opacity:1;" d="M 40.847656 101.035156 C 40.847656 103.703125 36.847656 103.703125 36.847656 101.035156 C 36.847656 98.371094 40.847656 98.371094 40.847656 101.035156 "/>
<path style=" stroke:none;fill-rule:nonzero;fill:rgb(88.0722%,61.1041%,14.2051%);fill-opacity:1;" d="M 77.574219 86.078125 C 77.574219 88.746094 73.574219 88.746094 73.574219 86.078125 C 73.574219 83.414062 77.574219 83.414062 77.574219 86.078125 "/>
<path style=" stroke:none;fill-rule:nonzero;fill:rgb(88.0722%,61.1041%,14.2051%);fill-opacity:1;" d="M 76.785156 116.070312 C 76.785156 118.734375 72.785156 118.734375 72.785156 116.070312 C 72.785156 113.402344 76.785156 113.402344 76.785156 116.070312 "/>
<path style="fill:none;stroke-width:2;stroke-linecap:butt;stroke-linejoin:miter;stroke:rgb(36.8417%,50.6779%,70.9798%);stroke-opacity:1;stroke-miterlimit:10;" d="M 40.082031 139.960938 L 18.449219 119.175781 L 64.785156 106.070312 Z M 40.082031 139.960938 " transform="matrix(1,0,0,1,10,10)"/>
<path style=" stroke:none;fill-rule:nonzero;fill:rgb(88.0722%,61.1041%,14.2051%);fill-opacity:1;" d="M 52.082031 149.960938 C 52.082031 152.625 48.082031 152.625 48.082031 149.960938 C 48.082031 147.292969 52.082031 147.292969 52.082031 149.960938 "/>
<path style=" stroke:none;fill-rule:nonzero;fill:rgb(88.0722%,61.1041%,14.2051%);fill-opacity:1;" d="M 30.449219 129.175781 C 30.449219 131.84375 26.449219 131.84375 26.449219 129.175781 C 26.449219 126.511719 30.449219 126.511719 30.449219 129.175781 "/>
<path style=" stroke:none;fill-rule:nonzero;fill:rgb(88.0722%,61.1041%,14.2051%);fill-opacity:1;" d="M 76.785156 116.070312 C 76.785156 118.734375 72.785156 118.734375 72.785156 116.070312 C 72.785156 113.402344 76.785156 113.402344 76.785156 116.070312 "/>
<path style="fill:none;stroke-width:2;stroke-linecap:butt;stroke-linejoin:miter;stroke:rgb(36.8417%,50.6779%,70.9798%);stroke-opacity:1;stroke-miterlimit:10;" d="M 40.640625 169.957031 L 95.039062 151.828125 L 59.941406 192.921875 Z M 40.640625 169.957031 " transform="matrix(1,0,0,1,10,10)"/>
<path style=" stroke:none;fill-rule:nonzero;fill:rgb(88.0722%,61.1041%,14.2051%);fill-opacity:1;" d="M 52.640625 179.957031 C 52.640625 182.621094 48.640625 182.621094 48.640625 179.957031 C 48.640625 177.289062 52.640625 177.289062 52.640625 179.957031 "/>
<path style=" stroke:none;fill-rule:nonzero;fill:rgb(88.0722%,61.1041%,14.2051%);fill-opacity:1;" d="M 107.039062 161.828125 C 107.039062 164.492188 103.039062 164.492188 103.039062 161.828125 C 103.039062 159.160156 107.039062 159.160156 107.039062 161.828125 "/>
<path style=" stroke:none;fill-rule:nonzero;fill:rgb(88.0722%,61.1041%,14.2051%);fill-opacity:1;" d="M 71.941406 202.921875 C 71.941406 205.585938 67.941406 205.585938 67.941406 202.921875 C 67.941406 200.253906 71.941406 200.253906 71.941406 202.921875 "/>
<path style="fill:none;stroke-width:2;stroke-linecap:butt;stroke-linejoin:miter;stroke:rgb(36.8417%,50.6779%,70.9798%);stroke-opacity:1;stroke-miterlimit:10;" d="M 64.785156 106.070312 L 65.574219 76.078125 L 99.347656 122.136719 Z M 64.785156 106.070312 " transform="matrix(1,0,0,1,10,10)"/>
<path style=" stroke:none;fill-rule:nonzero;fill:rgb(88.0722%,61.1041%,14.2051%);fill-opacity:1;" d="M 76.785156 116.070312 C 76.785156 118.734375 72.785156 118.734375 72.785156 116.070312 C 72.785156 113.402344 76.785156 113.402344 76.785156 116.070312 "/>
<path style=" stroke:none;fill-rule:nonzero;fill:rgb(88.0722%,61.1041%,14.2051%);fill-opacity:1;" d="M 77.574219 86.078125 C 77.574219 88.746094 73.574219 88.746094 73.574219 86.078125 C 73.574219 83.414062 77.574219 83.414062 77.574219 86.078125 "/>
<path style=" stroke:none;fill-rule:nonzero;fill:rgb(88.0722%,61.1041%,14.2051%);fill-opacity:1;" d="M 111.347656 132.136719 C 111.347656 134.804688 107.347656 134.804688 107.347656 132.136719 C 107.347656 129.472656 111.347656 129.472656 111.347656 132.136719 "/>
<path style="fill:none;stroke-width:2;stroke-linecap:butt;stroke-linejoin:miter;stroke:rgb(36.8417%,50.6779%,70.9798%);stroke-opacity:1;stroke-miterlimit:10;" d="M 65.574219 76.078125 L 124.234375 105.382812 L 99.347656 122.136719 Z M 65.574219 76.078125 " transform="matrix(1,0,0,1,10,10)"/>
<path style=" stroke:none;fill-rule:nonzero;fill:rgb(88.0722%,61.1041%,14.2051%);fill-opacity:1;" d="M 77.574219 86.078125 C 77.574219 88.746094 73.574219 88.746094 73.574219 86.078125 C 73.574219 83.414062 77.574219 83.414062 77.574219 86.078125 "/>
<path style=" stroke:none;fill-rule:nonzero;fill:rgb(88.0722%,61.1041%,14.2051%);fill-opacity:1;" d="M 136.234375 115.382812 C 136.234375 118.050781 132.234375 118.050781 132.234375 115.382812 C 132.234375 112.71875 136.234375 112.71875 136.234375 115.382812 "/>
<path style=" stroke:none;fill-rule:nonzero;fill:rgb(88.0722%,61.1041%,14.2051%);fill-opacity:1;" d="M 111.347656 132.136719 C 111.347656 134.804688 107.347656 134.804688 107.347656 132.136719 C 107.347656 129.472656 111.347656 129.472656 111.347656 132.136719 "/>
<path style="fill:none;stroke-width:2;stroke-linecap:butt;stroke-linejoin:miter;stroke:rgb(36.8417%,50.6779%,70.9798%);stroke-opacity:1;stroke-miterlimit:10;" d="M 69.773438 135.652344 L 40.082031 139.960938 L 64.785156 106.070312 Z M 69.773438 135.652344 " transform="matrix(1,0,0,1,10,10)"/>
<path style=" stroke:none;fill-rule:nonzero;fill:rgb(88.0722%,61.1041%,14.2051%);fill-opacity:1;" d="M 81.773438 145.652344 C 81.773438 148.316406 77.773438 148.316406 77.773438 145.652344 C 77.773438 142.984375 81.773438 142.984375 81.773438 145.652344 "/>
<path style=" stroke:none;fill-rule:nonzero;fill:rgb(88.0722%,61.1041%,14.2051%);fill-opacity:1;" d="M 52.082031 149.960938 C 52.082031 152.625 48.082031 152.625 48.082031 149.960938 C 48.082031 147.292969 52.082031 147.292969 52.082031 149.960938 "/>
<path style=" stroke:none;fill-rule:nonzero;fill:rgb(88.0722%,61.1041%,14.2051%);fill-opacity:1;" d="M 76.785156 116.070312 C 76.785156 118.734375 72.785156 118.734375 72.785156 116.070312 C 72.785156 113.402344 76.785156 113.402344 76.785156 116.070312 "/>
<path style="fill:none;stroke-width:2;stroke-linecap:butt;stroke-linejoin:miter;stroke:rgb(36.8417%,50.6779%,70.9798%);stroke-opacity:1;stroke-miterlimit:10;" d="M 69.773438 135.652344 L 40.640625 169.957031 L 40.082031 139.960938 Z M 69.773438 135.652344 " transform="matrix(1,0,0,1,10,10)"/>
<path style=" stroke:none;fill-rule:nonzero;fill:rgb(88.0722%,61.1041%,14.2051%);fill-opacity:1;" d="M 81.773438 145.652344 C 81.773438 148.316406 77.773438 148.316406 77.773438 145.652344 C 77.773438 142.984375 81.773438 142.984375 81.773438 145.652344 "/>
<path style=" stroke:none;fill-rule:nonzero;fill:rgb(88.0722%,61.1041%,14.2051%);fill-opacity:1;" d="M 52.640625 179.957031 C 52.640625 182.621094 48.640625 182.621094 48.640625 179.957031 C 48.640625 177.289062 52.640625 177.289062 52.640625 179.957031 "/>
<path style=" stroke:none;fill-rule:nonzero;fill:rgb(88.0722%,61.1041%,14.2051%);fill-opacity:1;" d="M 52.082031 149.960938 C 52.082031 152.625 48.082031 152.625 48.082031 149.960938 C 48.082031 147.292969 52.082031 147.292969 52.082031 149.960938 "/>
<path style="fill:none;stroke-width:2;stroke-linecap:butt;stroke-linejoin:miter;stroke:rgb(36.8417%,50.6779%,70.9798%);stroke-opacity:1;stroke-miterlimit:10;" d="M 69.773438 135.652344 L 64.785156 106.070312 L 99.347656 122.136719 Z M 69.773438 135.652344 " transform="matrix(1,0,0,1,10,10)"/>
<path style=" stroke:none;fill-rule:nonzero;fill:rgb(88.0722%,61.1041%,14.2051%);fill-opacity:1;" d="M 81.773438 145.652344 C 81.773438 148.316406 77.773438 148.316406 77.773438 145.652344 C 77.773438 142.984375 81.773438 142.984375 81.773438 145.652344 "/>
<path style=" stroke:none;fill-rule:nonzero;fill:rgb(88.0722%,61.1041%,14.2051%);fill-opacity:1;" d="M 76.785156 116.070312 C 76.785156 118.734375 72.785156 118.734375 72.785156 116.070312 C 72.785156 113.402344 76.785156 113.402344 76.785156 116.070312 "/>
<path style=" stroke:none;fill-rule:nonzero;fill:rgb(88.0722%,61.1041%,14.2051%);fill-opacity:1;" d="M 111.347656 132.136719 C 111.347656 134.804688 107.347656 134.804688 107.347656 132.136719 C 107.347656 129.472656 111.347656 129.472656 111.347656 132.136719 "/>
<path style="fill:none;stroke-width:2;stroke-linecap:butt;stroke-linejoin:miter;stroke:rgb(36.8417%,50.6779%,70.9798%);stroke-opacity:1;stroke-miterlimit:10;" d="M 69.773438 135.652344 L 95.039062 151.828125 L 40.640625 169.957031 Z M 69.773438 135.652344 " transform="matrix(1,0,0,1,10,10)"/>
<path style=" stroke:none;fill-rule:nonzero;fill:rgb(88.0722%,61.1041%,14.2051%);fill-opacity:1;" d="M 81.773438 145.652344 C 81.773438 148.316406 77.773438 148.316406 77.773438 145.652344 C 77.773438 142.984375 81.773438 142.984375 81.773438 145.652344 "/>
<path style=" stroke:none;fill-rule:nonzero;fill:rgb(88.0722%,61.1041%,14.2051%);fill-opacity:1;" d="M 107.039062 161.828125 C 107.039062 164.492188 103.039062 164.492188 103.039062 161.828125 C 103.039062 159.160156 107.039062 159.160156 107.039062 161.828125 "/>
<path style=" stroke:none;fill-rule:nonzero;fill:rgb(88.0722%,61.1041%,14.2051%);fill-opacity:1;" d="M 52.640625 179.957031 C 52.640625 182.621094 48.640625 182.621094 48.640625 179.957031 C 48.640625 177.289062 52.640625 177.289062 52.640625 179.957031 "/>
<path style="fill:none;stroke-width:2;stroke-linecap:butt;stroke-linejoin:miter;stroke:rgb(36.8417%,50.6779%,70.9798%);stroke-opacity:1;stroke-miterlimit:10;" d="M 69.773438 135.652344 L 99.347656 122.136719 L 95.039062 151.828125 Z M 69.773438 135.652344 " transform="matrix(1,0,0,1,10,10)"/>
<path style=" stroke:none;fill-rule:nonzero;fill:rgb(88.0722%,61.1041%,14.2051%);fill-opacity:1;" d="M 81.773438 145.652344 C 81.773438 148.316406 77.773438 148.316406 77.773438 145.652344 C 77.773438 142.984375 81.773438 142.984375 81.773438 145.652344 "/>
<path style=" stroke:none;fill-rule:nonzero;fill:rgb(88.0722%,61.1041%,14.2051%);fill-opacity:1;" d="M 111.347656 132.136719 C 111.347656 134.804688 107.347656 134.804688 107.347656 132.136719 C 107.347656 129.472656 111.347656 129.472656 111.347656 132.136719 "/>
<path style=" stroke:none;fill-rule:nonzero;fill:rgb(88.0722%,61.1041%,14.2051%);fill-opacity:1;" d="M 107.039062 161.828125 C 107.039062 164.492188 103.039062 164.492188 103.039062 161.828125 C 103.039062 159.160156 107.039062 159.160156 107.039062 161.828125 "/>
<path style="fill:none;stroke-width:2;stroke-linecap:butt;stroke-linejoin:miter;stroke:rgb(36.8417%,50.6779%,70.9798%);stroke-opacity:1;stroke-miterlimit:10;" d="M 79.96875 49.757812 L 65.574219 76.078125 L 50.960938 42.109375 Z M 79.96875 49.757812 " transform="matrix(1,0,0,1,10,10)"/>
<path style=" stroke:none;fill-rule:nonzero;fill:rgb(88.0722%,61.1041%,14.2051%);fill-opacity:1;" d="M 91.96875 59.757812 C 91.96875 62.425781 87.96875 62.425781 87.96875 59.757812 C 87.96875 57.089844 91.96875 57.089844 91.96875 59.757812 "/>
<path style=" stroke:none;fill-rule:nonzero;fill:rgb(88.0722%,61.1041%,14.2051%);fill-opacity:1;" d="M 77.574219 86.078125 C 77.574219 88.746094 73.574219 88.746094 73.574219 86.078125 C 73.574219 83.414062 77.574219 83.414062 77.574219 86.078125 "/>
<path style=" stroke:none;fill-rule:nonzero;fill:rgb(88.0722%,61.1041%,14.2051%);fill-opacity:1;" d="M 62.960938 52.109375 C 62.960938 54.773438 58.960938 54.773438 58.960938 52.109375 C 58.960938 49.441406 62.960938 49.441406 62.960938 52.109375 "/>
<path style="fill:none;stroke-width:2;stroke-linecap:butt;stroke-linejoin:miter;stroke:rgb(36.8417%,50.6779%,70.9798%);stroke-opacity:1;stroke-miterlimit:10;" d="M 79.96875 49.757812 L 122.269531 41.226562 L 130.738281 70.003906 Z M 79.96875 49.757812 " transform="matrix(1,0,0,1,10,10)"/>
<path style=" stroke:none;fill-rule:nonzero;fill:rgb(88.0722%,61.1041%,14.2051%);fill-opacity:1;" d="M 91.96875 59.757812 C 91.96875 62.425781 87.96875 62.425781 87.96875 59.757812 C 87.96875 57.089844 91.96875 57.089844 91.96875 59.757812 "/>
<path style=" stroke:none;fill-rule:nonzero;fill:rgb(88.0722%,61.1041%,14.2051%);fill-opacity:1;" d="M 134.269531 51.226562 C 134.269531 53.890625 130.269531 53.890625 130.269531 51.226562 C 130.269531 48.558594 134.269531 48.558594 134.269531 51.226562 "/>
<path style=" stroke:none;fill-rule:nonzero;fill:rgb(88.0722%,61.1041%,14.2051%);fill-opacity:1;" d="M 142.738281 80.003906 C 142.738281 82.671875 138.738281 82.671875 138.738281 80.003906 C 138.738281 77.339844 142.738281 77.339844 142.738281 80.003906 "/>
<path style="fill:none;stroke-width:2;stroke-linecap:butt;stroke-linejoin:miter;stroke:rgb(36.8417%,50.6779%,70.9798%);stroke-opacity:1;stroke-miterlimit:10;" d="M 79.96875 49.757812 L 130.738281 70.003906 L 65.574219 76.078125 Z M 79.96875 49.757812 " transform="matrix(1,0,0,1,10,10)"/>
<path style=" stroke:none;fill-rule:nonzero;fill:rgb(88.0722%,61.1041%,14.2051%);fill-opacity:1;" d="M 91.96875 59.757812 C 91.96875 62.425781 87.96875 62.425781 87.96875 59.757812 C 87.96875 57.089844 91.96875 57.089844 91.96875 59.757812 "/>
<path style=" stroke:none;fill-rule:nonzero;fill:rgb(88.0722%,61.1041%,14.2051%);fill-opacity:1;" d="M 142.738281 80.003906 C 142.738281 82.671875 138.738281 82.671875 138.738281 80.003906 C 138.738281 77.339844 142.738281 77.339844 142.738281 80.003906 "/>
<path style=" stroke:none;fill-rule:nonzero;fill:rgb(88.0722%,61.1041%,14.2051%);fill-opacity:1;" d="M 77.574219 86.078125 C 77.574219 88.746094 73.574219 88.746094 73.574219 86.078125 C 73.574219 83.414062 77.574219 83.414062 77.574219 86.078125 "/>
<path style="fill:none;stroke-width:2;stroke-linecap:butt;stroke-linejoin:miter;stroke:rgb(36.8417%,50.6779%,70.9798%);stroke-opacity:1;stroke-miterlimit:10;" d="M 95.039062 151.828125 L 99.347656 122.136719 L 135.675781 145.28125 Z M 95.039062 151.828125 " transform="matrix(1,0,0,1,10,10)"/>
<path style=" stroke:none;fill-rule:nonzero;fill:rgb(88.0722%,61.1041%,14.2051%);fill-opacity:1;" d="M 107.039062 161.828125 C 107.039062 164.492188 103.039062 164.492188 103.039062 161.828125 C 103.039062 159.160156 107.039062 159.160156 107.039062 161.828125 "/>
<path style=" stroke:none;fill-rule:nonzero;fill:rgb(88.0722%,61.1041%,14.2051%);fill-opacity:1;" d="M 111.347656 132.136719 C 111.347656 134.804688 107.347656 134.804688 107.347656 132.136719 C 107.347656 129.472656 111.347656 129.472656 111.347656 132.136719 "/>
<path style=" stroke:none;fill-rule:nonzero;fill:rgb(88.0722%,61.1041%,14.2051%);fill-opacity:1;" d="M 147.675781 155.28125 C 147.675781 157.945312 143.675781 157.945312 143.675781 155.28125 C 143.675781 152.613281 147.675781 152.613281 147.675781 155.28125 "/>
<path style="fill:none;stroke-width:2;stroke-linecap:butt;stroke-linejoin:miter;stroke:rgb(36.8417%,50.6779%,70.9798%);stroke-opacity:1;stroke-miterlimit:10;" d="M 97 25.058594 L 37.5 15.296875 L 134.171875 9.578125 Z M 97 25.058594 " transform="matrix(1,0,0,1,10,10)"/>
<path style=" stroke:none;fill-rule:nonzero;fill:rgb(88.0722%,61.1041%,14.2051%);fill-opacity:1;" d="M 109 35.058594 C 109 37.726562 105 37.726562 105 35.058594 C 105 32.394531 109 32.394531 109 35.058594 "/>
<path style=" stroke:none;fill-rule:nonzero;fill:rgb(88.0722%,61.1041%,14.2051%);fill-opacity:1;" d="M 49.5 25.296875 C 49.5 27.964844 45.5 27.964844 45.5 25.296875 C 45.5 22.632812 49.5 22.632812 49.5 25.296875 "/>
<path style=" stroke:none;fill-rule:nonzero;fill:rgb(88.0722%,61.1041%,14.2051%);fill-opacity:1;" d="M 146.171875 19.578125 C 146.171875 22.242188 142.171875 22.242188 142.171875 19.578125 C 142.171875 16.910156 146.171875 16.910156 146.171875 19.578125 "/>
<path style="fill:none;stroke-width:2;stroke-linecap:butt;stroke-linejoin:miter;stroke:rgb(36.8417%,50.6779%,70.9798%);stroke-opacity:1;stroke-miterlimit:10;" d="M 97 25.058594 L 50.960938 42.109375 L 37.5 15.296875 Z M 97 25.058594 " transform="matrix(1,0,0,1,10,10)"/>
<path style=" stroke:none;fill-rule:nonzero;fill:rgb(88.0722%,61.1041%,14.2051%);fill-opacity:1;" d="M 109 35.058594 C 109 37.726562 105 37.726562 105 35.058594 C 105 32.394531 109 32.394531 109 35.058594 "/>
<path style=" stroke:none;fill-rule:nonzero;fill:rgb(88.0722%,61.1041%,14.2051%);fill-opacity:1;" d="M 62.960938 52.109375 C 62.960938 54.773438 58.960938 54.773438 58.960938 52.109375 C 58.960938 49.441406 62.960938 49.441406 62.960938 52.109375 "/>
<path style=" stroke:none;fill-rule:nonzero;fill:rgb(88.0722%,61.1041%,14.2051%);fill-opacity:1;" d="M 49.5 25.296875 C 49.5 27.964844 45.5 27.964844 45.5 25.296875 C 45.5 22.632812 49.5 22.632812 49.5 25.296875 "/>
<path style="fill:none;stroke-width:2;stroke-linecap:butt;stroke-linejoin:miter;stroke:rgb(36.8417%,50.6779%,70.9798%);stroke-opacity:1;stroke-miterlimit:10;" d="M 97 25.058594 L 79.96875 49.757812 L 50.960938 42.109375 Z M 97 25.058594 " transform="matrix(1,0,0,1,10,10)"/>
<path style=" stroke:none;fill-rule:nonzero;fill:rgb(88.0722%,61.1041%,14.2051%);fill-opacity:1;" d="M 109 35.058594 C 109 37.726562 105 37.726562 105 35.058594 C 105 32.394531 109 32.394531 109 35.058594 "/>
<path style=" stroke:none;fill-rule:nonzero;fill:rgb(88.0722%,61.1041%,14.2051%);fill-opacity:1;" d="M 91.96875 59.757812 C 91.96875 62.425781 87.96875 62.425781 87.96875 59.757812 C 87.96875 57.089844 91.96875 57.089844 91.96875 59.757812 "/>
<path style=" stroke:none;fill-rule:nonzero;fill:rgb(88.0722%,61.1041%,14.2051%);fill-opacity:1;" d="M 62.960938 52.109375 C 62.960938 54.773438 58.960938 54.773438 58.960938 52.109375 C 58.960938 49.441406 62.960938 49.441406 62.960938 52.109375 "/>
<path style="fill:none;stroke-width:2;stroke-linecap:butt;stroke-linejoin:miter;stroke:rgb(36.8417%,50.6779%,70.9798%);stroke-opacity:1;stroke-miterlimit:10;" d="M 97 25.058594 L 122.269531 41.226562 L 79.96875 49.757812 Z M 97 25.058594 " transform="matrix(1,0,0,1,10,10)"/>
<path style=" stroke:none;fill-rule:nonzero;fill:rgb(88.0722%,61.1041%,14.2051%);fill-opacity:1;" d="M 109 35.058594 C 109 37.726562 105 37.726562 105 35.058594 C 105 32.394531 109 32.394531 109 35.058594 "/>
<path style=" stroke:none;fill-rule:nonzero;fill:rgb(88.0722%,61.1041%,14.2051%);fill-opacity:1;" d="M 134.269531 51.226562 C 134.269531 53.890625 130.269531 53.890625 130.269531 51.226562 C 130.269531 48.558594 134.269531 48.558594 134.269531 51.226562 "/>
<path style=" stroke:none;fill-rule:nonzero;fill:rgb(88.0722%,61.1041%,14.2051%);fill-opacity:1;" d="M 91.96875 59.757812 C 91.96875 62.425781 87.96875 62.425781 87.96875 59.757812 C 87.96875 57.089844 91.96875 57.089844 91.96875 59.757812 "/>
<path style="fill:none;stroke-width:2;stroke-linecap:butt;stroke-linejoin:miter;stroke:rgb(36.8417%,50.6779%,70.9798%);stroke-opacity:1;stroke-miterlimit:10;" d="M 97 25.058594 L 134.171875 9.578125 L 122.269531 41.226562 Z M 97 25.058594 " transform="matrix(1,0,0,1,10,10)"/>
<path style=" stroke:none;fill-rule:nonzero;fill:rgb(88.0722%,61.1041%,14.2051%);fill-opacity:1;" d="M 109 35.058594 C 109 37.726562 105 37.726562 105 35.058594 C 105 32.394531 109 32.394531 109 35.058594 "/>
<path style=" stroke:none;fill-rule:nonzero;fill:rgb(88.0722%,61.1041%,14.2051%);fill-opacity:1;" d="M 146.171875 19.578125 C 146.171875 22.242188 142.171875 22.242188 142.171875 19.578125 C 142.171875 16.910156 146.171875 16.910156 146.171875 19.578125 "/>
<path style=" stroke:none;fill-rule:nonzero;fill:rgb(88.0722%,61.1041%,14.2051%);fill-opacity:1;" d="M 134.269531 51.226562 C 134.269531 53.890625 130.269531 53.890625 130.269531 51.226562 C 130.269531 48.558594 134.269531 48.558594 134.269531 51.226562 "/>
<path style="fill:none;stroke-width:2;stroke-linecap:butt;stroke-linejoin:miter;stroke:rgb(36.8417%,50.6779%,70.9798%);stroke-opacity:1;stroke-miterlimit:10;" d="M 108.992188 178.386719 L 59.941406 192.921875 L 95.039062 151.828125 Z M 108.992188 178.386719 " transform="matrix(1,0,0,1,10,10)"/>
<path style=" stroke:none;fill-rule:nonzero;fill:rgb(88.0722%,61.1041%,14.2051%);fill-opacity:1;" d="M 120.992188 188.386719 C 120.992188 191.050781 116.992188 191.050781 116.992188 188.386719 C 116.992188 185.71875 120.992188 185.71875 120.992188 188.386719 "/>
<path style=" stroke:none;fill-rule:nonzero;fill:rgb(88.0722%,61.1041%,14.2051%);fill-opacity:1;" d="M 71.941406 202.921875 C 71.941406 205.585938 67.941406 205.585938 67.941406 202.921875 C 67.941406 200.253906 71.941406 200.253906 71.941406 202.921875 "/>
<path style=" stroke:none;fill-rule:nonzero;fill:rgb(88.0722%,61.1041%,14.2051%);fill-opacity:1;" d="M 107.039062 161.828125 C 107.039062 164.492188 103.039062 164.492188 103.039062 161.828125 C 103.039062 159.160156 107.039062 159.160156 107.039062 161.828125 "/>
<path style="fill:none;stroke-width:2;stroke-linecap:butt;stroke-linejoin:miter;stroke:rgb(36.8417%,50.6779%,70.9798%);stroke-opacity:1;stroke-miterlimit:10;" d="M 108.992188 178.386719 L 95.039062 151.828125 L 135.675781 145.28125 Z M 108.992188 178.386719 " transform="matrix(1,0,0,1,10,10)"/>
<path style=" stroke:none;fill-rule:nonzero;fill:rgb(88.0722%,61.1041%,14.2051%);fill-opacity:1;" d="M 120.992188 188.386719 C 120.992188 191.050781 116.992188 191.050781 116.992188 188.386719 C 116.992188 185.71875 120.992188 185.71875 120.992188 188.386719 "/>
<path style=" stroke:none;fill-rule:nonzero;fill:rgb(88.0722%,61.1041%,14.2051%);fill-opacity:1;" d="M 107.039062 161.828125 C 107.039062 164.492188 103.039062 164.492188 103.039062 161.828125 C 103.039062 159.160156 107.039062 159.160156 107.039062 161.828125 "/>
<path style=" stroke:none;fill-rule:nonzero;fill:rgb(88.0722%,61.1041%,14.2051%);fill-opacity:1;" d="M 147.675781 155.28125 C 147.675781 157.945312 143.675781 157.945312 143.675781 155.28125 C 143.675781 152.613281 147.675781 152.613281 147.675781 155.28125 "/>
<path style="fill:none;stroke-width:2;stroke-linecap:butt;stroke-linejoin:miter;stroke:rgb(36.8417%,50.6779%,70.9798%);stroke-opacity:1;stroke-miterlimit:10;" d="M 108.992188 178.386719 L 135.675781 145.28125 L 138.8125 175.117188 Z M 108.992188 178.386719 " transform="matrix(1,0,0,1,10,10)"/>
<path style=" stroke:none;fill-rule:nonzero;fill:rgb(88.0722%,61.1041%,14.2051%);fill-opacity:1;" d="M 120.992188 188.386719 C 120.992188 191.050781 116.992188 191.050781 116.992188 188.386719 C 116.992188 185.71875 120.992188 185.71875 120.992188 188.386719 "/>
<path style=" stroke:none;fill-rule:nonzero;fill:rgb(88.0722%,61.1041%,14.2051%);fill-opacity:1;" d="M 147.675781 155.28125 C 147.675781 157.945312 143.675781 157.945312 143.675781 155.28125 C 143.675781 152.613281 147.675781 152.613281 147.675781 155.28125 "/>
<path style=" stroke:none;fill-rule:nonzero;fill:rgb(88.0722%,61.1041%,14.2051%);fill-opacity:1;" d="M 150.8125 185.117188 C 150.8125 187.78125 146.8125 187.78125 146.8125 185.117188 C 146.8125 182.449219 150.8125 182.449219 150.8125 185.117188 "/>
<path style="fill:none;stroke-width:2;stroke-linecap:butt;stroke-linejoin:miter;stroke:rgb(36.8417%,50.6779%,70.9798%);stroke-opacity:1;stroke-miterlimit:10;" d="M 108.992188 178.386719 L 138.8125 175.117188 L 162.46875 193.5625 Z M 108.992188 178.386719 " transform="matrix(1,0,0,1,10,10)"/>
<path style=" stroke:none;fill-rule:nonzero;fill:rgb(88.0722%,61.1041%,14.2051%);fill-opacity:1;" d="M 120.992188 188.386719 C 120.992188 191.050781 116.992188 191.050781 116.992188 188.386719 C 116.992188 185.71875 120.992188 185.71875 120.992188 188.386719 "/>
<path style=" stroke:none;fill-rule:nonzero;fill:rgb(88.0722%,61.1041%,14.2051%);fill-opacity:1;" d="M 150.8125 185.117188 C 150.8125 187.78125 146.8125 187.78125 146.8125 185.117188 C 146.8125 182.449219 150.8125 182.449219 150.8125 185.117188 "/>
<path style=" stroke:none;fill-rule:nonzero;fill:rgb(88.0722%,61.1041%,14.2051%);fill-opacity:1;" d="M 174.46875 203.5625 C 174.46875 206.230469 170.46875 206.230469 170.46875 203.5625 C 170.46875 200.898438 174.46875 200.898438 174.46875 203.5625 "/>
<path style="fill:none;stroke-width:2;stroke-linecap:butt;stroke-linejoin:miter;stroke:rgb(36.8417%,50.6779%,70.9798%);stroke-opacity:1;stroke-miterlimit:10;" d="M 108.992188 178.386719 L 162.46875 193.5625 L 59.941406 192.921875 Z M 108.992188 178.386719 " transform="matrix(1,0,0,1,10,10)"/>
<path style=" stroke:none;fill-rule:nonzero;fill:rgb(88.0722%,61.1041%,14.2051%);fill-opacity:1;" d="M 120.992188 188.386719 C 120.992188 191.050781 116.992188 191.050781 116.992188 188.386719 C 116.992188 185.71875 120.992188 185.71875 120.992188 188.386719 "/>
<path style=" stroke:none;fill-rule:nonzero;fill:rgb(88.0722%,61.1041%,14.2051%);fill-opacity:1;" d="M 174.46875 203.5625 C 174.46875 206.230469 170.46875 206.230469 170.46875 203.5625 C 170.46875 200.898438 174.46875 200.898438 174.46875 203.5625 "/>
<path style=" stroke:none;fill-rule:nonzero;fill:rgb(88.0722%,61.1041%,14.2051%);fill-opacity:1;" d="M 71.941406 202.921875 C 71.941406 205.585938 67.941406 205.585938 67.941406 202.921875 C 67.941406 200.253906 71.941406 200.253906 71.941406 202.921875 "/>
<path style="fill:none;stroke-width:2;stroke-linecap:butt;stroke-linejoin:miter;stroke:rgb(36.8417%,50.6779%,70.9798%);stroke-opacity:1;stroke-miterlimit:10;" d="M 122.269531 41.226562 L 134.171875 9.578125 L 151.417969 34.125 Z M 122.269531 41.226562 " transform="matrix(1,0,0,1,10,10)"/>
<path style=" stroke:none;fill-rule:nonzero;fill:rgb(88.0722%,61.1041%,14.2051%);fill-opacity:1;" d="M 134.269531 51.226562 C 134.269531 53.890625 130.269531 53.890625 130.269531 51.226562 C 130.269531 48.558594 134.269531 48.558594 134.269531 51.226562 "/>
<path style=" stroke:none;fill-rule:nonzero;fill:rgb(88.0722%,61.1041%,14.2051%);fill-opacity:1;" d="M 146.171875 19.578125 C 146.171875 22.242188 142.171875 22.242188 142.171875 19.578125 C 142.171875 16.910156 146.171875 16.910156 146.171875 19.578125 "/>
<path style=" stroke:none;fill-rule:nonzero;fill:rgb(88.0722%,61.1041%,14.2051%);fill-opacity:1;" d="M 163.417969 44.125 C 163.417969 46.789062 159.417969 46.789062 159.417969 44.125 C 159.417969 41.457031 163.417969 41.457031 163.417969 44.125 "/>
<path style="fill:none;stroke-width:2;stroke-linecap:butt;stroke-linejoin:miter;stroke:rgb(36.8417%,50.6779%,70.9798%);stroke-opacity:1;stroke-miterlimit:10;" d="M 124.234375 105.382812 L 164.683594 84.328125 L 162.121094 114.21875 Z M 124.234375 105.382812 " transform="matrix(1,0,0,1,10,10)"/>
<path style=" stroke:none;fill-rule:nonzero;fill:rgb(88.0722%,61.1041%,14.2051%);fill-opacity:1;" d="M 136.234375 115.382812 C 136.234375 118.050781 132.234375 118.050781 132.234375 115.382812 C 132.234375 112.71875 136.234375 112.71875 136.234375 115.382812 "/>
<path style=" stroke:none;fill-rule:nonzero;fill:rgb(88.0722%,61.1041%,14.2051%);fill-opacity:1;" d="M 176.683594 94.328125 C 176.683594 96.996094 172.683594 96.996094 172.683594 94.328125 C 172.683594 91.660156 176.683594 91.660156 176.683594 94.328125 "/>
<path style=" stroke:none;fill-rule:nonzero;fill:rgb(88.0722%,61.1041%,14.2051%);fill-opacity:1;" d="M 174.121094 124.21875 C 174.121094 126.886719 170.121094 126.886719 170.121094 124.21875 C 170.121094 121.550781 174.121094 121.550781 174.121094 124.21875 "/>
<path style="fill:none;stroke-width:2;stroke-linecap:butt;stroke-linejoin:miter;stroke:rgb(36.8417%,50.6779%,70.9798%);stroke-opacity:1;stroke-miterlimit:10;" d="M 130.738281 70.003906 L 122.269531 41.226562 L 151.417969 34.125 Z M 130.738281 70.003906 " transform="matrix(1,0,0,1,10,10)"/>
<path style=" stroke:none;fill-rule:nonzero;fill:rgb(88.0722%,61.1041%,14.2051%);fill-opacity:1;" d="M 142.738281 80.003906 C 142.738281 82.671875 138.738281 82.671875 138.738281 80.003906 C 138.738281 77.339844 142.738281 77.339844 142.738281 80.003906 "/>
<path style=" stroke:none;fill-rule:nonzero;fill:rgb(88.0722%,61.1041%,14.2051%);fill-opacity:1;" d="M 134.269531 51.226562 C 134.269531 53.890625 130.269531 53.890625 130.269531 51.226562 C 130.269531 48.558594 134.269531 48.558594 134.269531 51.226562 "/>
<path style=" stroke:none;fill-rule:nonzero;fill:rgb(88.0722%,61.1041%,14.2051%);fill-opacity:1;" d="M 163.417969 44.125 C 163.417969 46.789062 159.417969 46.789062 159.417969 44.125 C 159.417969 41.457031 163.417969 41.457031 163.417969 44.125 "/>
<path style="fill:none;stroke-width:2;stroke-linecap:butt;stroke-linejoin:miter;stroke:rgb(36.8417%,50.6779%,70.9798%);stroke-opacity:1;stroke-miterlimit:10;" d="M 130.738281 70.003906 L 124.234375 105.382812 L 65.574219 76.078125 Z M 130.738281 70.003906 " transform="matrix(1,0,0,1,10,10)"/>
<path style=" stroke:none;fill-rule:nonzero;fill:rgb(88.0722%,61.1041%,14.2051%);fill-opacity:1;" d="M 142.738281 80.003906 C 142.738281 82.671875 138.738281 82.671875 138.738281 80.003906 C 138.738281 77.339844 142.738281 77.339844 142.738281 80.003906 "/>
<path style=" stroke:none;fill-rule:nonzero;fill:rgb(88.0722%,61.1041%,14.2051%);fill-opacity:1;" d="M 136.234375 115.382812 C 136.234375 118.050781 132.234375 118.050781 132.234375 115.382812 C 132.234375 112.71875 136.234375 112.71875 136.234375 115.382812 "/>
<path style=" stroke:none;fill-rule:nonzero;fill:rgb(88.0722%,61.1041%,14.2051%);fill-opacity:1;" d="M 77.574219 86.078125 C 77.574219 88.746094 73.574219 88.746094 73.574219 86.078125 C 73.574219 83.414062 77.574219 83.414062 77.574219 86.078125 "/>
<path style="fill:none;stroke-width:2;stroke-linecap:butt;stroke-linejoin:miter;stroke:rgb(36.8417%,50.6779%,70.9798%);stroke-opacity:1;stroke-miterlimit:10;" d="M 130.738281 70.003906 L 151.417969 34.125 L 164.683594 84.328125 Z M 130.738281 70.003906 " transform="matrix(1,0,0,1,10,10)"/>
<path style=" stroke:none;fill-rule:nonzero;fill:rgb(88.0722%,61.1041%,14.2051%);fill-opacity:1;" d="M 142.738281 80.003906 C 142.738281 82.671875 138.738281 82.671875 138.738281 80.003906 C 138.738281 77.339844 142.738281 77.339844 142.738281 80.003906 "/>
<path style=" stroke:none;fill-rule:nonzero;fill:rgb(88.0722%,61.1041%,14.2051%);fill-opacity:1;" d="M 163.417969 44.125 C 163.417969 46.789062 159.417969 46.789062 159.417969 44.125 C 159.417969 41.457031 163.417969 41.457031 163.417969 44.125 "/>
<path style=" stroke:none;fill-rule:nonzero;fill:rgb(88.0722%,61.1041%,14.2051%);fill-opacity:1;" d="M 176.683594 94.328125 C 176.683594 96.996094 172.683594 96.996094 172.683594 94.328125 C 172.683594 91.660156 176.683594 91.660156 176.683594 94.328125 "/>
<path style="fill:none;stroke-width:2;stroke-linecap:butt;stroke-linejoin:miter;stroke:rgb(36.8417%,50.6779%,70.9798%);stroke-opacity:1;stroke-miterlimit:10;" d="M 130.738281 70.003906 L 164.683594 84.328125 L 124.234375 105.382812 Z M 130.738281 70.003906 " transform="matrix(1,0,0,1,10,10)"/>
<path style=" stroke:none;fill-rule:nonzero;fill:rgb(88.0722%,61.1041%,14.2051%);fill-opacity:1;" d="M 142.738281 80.003906 C 142.738281 82.671875 138.738281 82.671875 138.738281 80.003906 C 138.738281 77.339844 142.738281 77.339844 142.738281 80.003906 "/>
<path style=" stroke:none;fill-rule:nonzero;fill:rgb(88.0722%,61.1041%,14.2051%);fill-opacity:1;" d="M 176.683594 94.328125 C 176.683594 96.996094 172.683594 96.996094 172.683594 94.328125 C 172.683594 91.660156 176.683594 91.660156 176.683594 94.328125 "/>
<path style=" stroke:none;fill-rule:nonzero;fill:rgb(88.0722%,61.1041%,14.2051%);fill-opacity:1;" d="M 136.234375 115.382812 C 136.234375 118.050781 132.234375 118.050781 132.234375 115.382812 C 132.234375 112.71875 136.234375 112.71875 136.234375 115.382812 "/>
<path style="fill:none;stroke-width:2;stroke-linecap:butt;stroke-linejoin:miter;stroke:rgb(36.8417%,50.6779%,70.9798%);stroke-opacity:1;stroke-miterlimit:10;" d="M 135.675781 145.28125 L 99.347656 122.136719 L 124.234375 105.382812 Z M 135.675781 145.28125 " transform="matrix(1,0,0,1,10,10)"/>
<path style=" stroke:none;fill-rule:nonzero;fill:rgb(88.0722%,61.1041%,14.2051%);fill-opacity:1;" d="M 147.675781 155.28125 C 147.675781 157.945312 143.675781 157.945312 143.675781 155.28125 C 143.675781 152.613281 147.675781 152.613281 147.675781 155.28125 "/>
<path style=" stroke:none;fill-rule:nonzero;fill:rgb(88.0722%,61.1041%,14.2051%);fill-opacity:1;" d="M 111.347656 132.136719 C 111.347656 134.804688 107.347656 134.804688 107.347656 132.136719 C 107.347656 129.472656 111.347656 129.472656 111.347656 132.136719 "/>
<path style=" stroke:none;fill-rule:nonzero;fill:rgb(88.0722%,61.1041%,14.2051%);fill-opacity:1;" d="M 136.234375 115.382812 C 136.234375 118.050781 132.234375 118.050781 132.234375 115.382812 C 132.234375 112.71875 136.234375 112.71875 136.234375 115.382812 "/>
<path style="fill:none;stroke-width:2;stroke-linecap:butt;stroke-linejoin:miter;stroke:rgb(36.8417%,50.6779%,70.9798%);stroke-opacity:1;stroke-miterlimit:10;" d="M 135.675781 145.28125 L 124.234375 105.382812 L 162.121094 114.21875 Z M 135.675781 145.28125 " transform="matrix(1,0,0,1,10,10)"/>
<path style=" stroke:none;fill-rule:nonzero;fill:rgb(88.0722%,61.1041%,14.2051%);fill-opacity:1;" d="M 147.675781 155.28125 C 147.675781 157.945312 143.675781 157.945312 143.675781 155.28125 C 143.675781 152.613281 147.675781 152.613281 147.675781 155.28125 "/>
<path style=" stroke:none;fill-rule:nonzero;fill:rgb(88.0722%,61.1041%,14.2051%);fill-opacity:1;" d="M 136.234375 115.382812 C 136.234375 118.050781 132.234375 118.050781 132.234375 115.382812 C 132.234375 112.71875 136.234375 112.71875 136.234375 115.382812 "/>
<path style=" stroke:none;fill-rule:nonzero;fill:rgb(88.0722%,61.1041%,14.2051%);fill-opacity:1;" d="M 174.121094 124.21875 C 174.121094 126.886719 170.121094 126.886719 170.121094 124.21875 C 170.121094 121.550781 174.121094 121.550781 174.121094 124.21875 "/>
<path style="fill:none;stroke-width:2;stroke-linecap:butt;stroke-linejoin:miter;stroke:rgb(36.8417%,50.6779%,70.9798%);stroke-opacity:1;stroke-miterlimit:10;" d="M 135.675781 145.28125 L 162.121094 114.21875 L 165.652344 144.011719 Z M 135.675781 145.28125 " transform="matrix(1,0,0,1,10,10)"/>
<path style=" stroke:none;fill-rule:nonzero;fill:rgb(88.0722%,61.1041%,14.2051%);fill-opacity:1;" d="M 147.675781 155.28125 C 147.675781 157.945312 143.675781 157.945312 143.675781 155.28125 C 143.675781 152.613281 147.675781 152.613281 147.675781 155.28125 "/>
<path style=" stroke:none;fill-rule:nonzero;fill:rgb(88.0722%,61.1041%,14.2051%);fill-opacity:1;" d="M 174.121094 124.21875 C 174.121094 126.886719 170.121094 126.886719 170.121094 124.21875 C 170.121094 121.550781 174.121094 121.550781 174.121094 124.21875 "/>
<path style=" stroke:none;fill-rule:nonzero;fill:rgb(88.0722%,61.1041%,14.2051%);fill-opacity:1;" d="M 177.652344 154.011719 C 177.652344 156.675781 173.652344 156.675781 173.652344 154.011719 C 173.652344 151.34375 177.652344 151.34375 177.652344 154.011719 "/>
<path style="fill:none;stroke-width:2;stroke-linecap:butt;stroke-linejoin:miter;stroke:rgb(36.8417%,50.6779%,70.9798%);stroke-opacity:1;stroke-miterlimit:10;" d="M 135.675781 145.28125 L 165.652344 144.011719 L 138.8125 175.117188 Z M 135.675781 145.28125 " transform="matrix(1,0,0,1,10,10)"/>
<path style=" stroke:none;fill-rule:nonzero;fill:rgb(88.0722%,61.1041%,14.2051%);fill-opacity:1;" d="M 147.675781 155.28125 C 147.675781 157.945312 143.675781 157.945312 143.675781 155.28125 C 143.675781 152.613281 147.675781 152.613281 147.675781 155.28125 "/>
<path style=" stroke:none;fill-rule:nonzero;fill:rgb(88.0722%,61.1041%,14.2051%);fill-opacity:1;" d="M 177.652344 154.011719 C 177.652344 156.675781 173.652344 156.675781 173.652344 154.011719 C 173.652344 151.34375 177.652344 151.34375 177.652344 154.011719 "/>
<path style=" stroke:none;fill-rule:nonzero;fill:rgb(88.0722%,61.1041%,14.2051%);fill-opacity:1;" d="M 150.8125 185.117188 C 150.8125 187.78125 146.8125 187.78125 146.8125 185.117188 C 146.8125 182.449219 150.8125 182.449219 150.8125 185.117188 "/>
<path style="fill:none;stroke-width:2;stroke-linecap:butt;stroke-linejoin:miter;stroke:rgb(36.8417%,50.6779%,70.9798%);stroke-opacity:1;stroke-miterlimit:10;" d="M 162.121094 114.21875 L 189.703125 102.417969 L 196.613281 148.023438 Z M 162.121094 114.21875 " transform="matrix(1,0,0,1,10,10)"/>
<path style=" stroke:none;fill-rule:nonzero;fill:rgb(88.0722%,61.1041%,14.2051%);fill-opacity:1;" d="M 174.121094 124.21875 C 174.121094 126.886719 170.121094 126.886719 170.121094 124.21875 C 170.121094 121.550781 174.121094 121.550781 174.121094 124.21875 "/>
<path style=" stroke:none;fill-rule:nonzero;fill:rgb(88.0722%,61.1041%,14.2051%);fill-opacity:1;" d="M 201.703125 112.417969 C 201.703125 115.085938 197.703125 115.085938 197.703125 112.417969 C 197.703125 109.75 201.703125 109.75 201.703125 112.417969 "/>
<path style=" stroke:none;fill-rule:nonzero;fill:rgb(88.0722%,61.1041%,14.2051%);fill-opacity:1;" d="M 208.613281 158.023438 C 208.613281 160.6875 204.613281 160.6875 204.613281 158.023438 C 204.613281 155.355469 208.613281 155.355469 208.613281 158.023438 "/>
<path style="fill:none;stroke-width:2;stroke-linecap:butt;stroke-linejoin:miter;stroke:rgb(36.8417%,50.6779%,70.9798%);stroke-opacity:1;stroke-miterlimit:10;" d="M 164.683594 84.328125 L 151.417969 34.125 L 183.601562 37.019531 Z M 164.683594 84.328125 " transform="matrix(1,0,0,1,10,10)"/>
<path style=" stroke:none;fill-rule:nonzero;fill:rgb(88.0722%,61.1041%,14.2051%);fill-opacity:1;" d="M 176.683594 94.328125 C 176.683594 96.996094 172.683594 96.996094 172.683594 94.328125 C 172.683594 91.660156 176.683594 91.660156 176.683594 94.328125 "/>
<path style=" stroke:none;fill-rule:nonzero;fill:rgb(88.0722%,61.1041%,14.2051%);fill-opacity:1;" d="M 163.417969 44.125 C 163.417969 46.789062 159.417969 46.789062 159.417969 44.125 C 159.417969 41.457031 163.417969 41.457031 163.417969 44.125 "/>
<path style=" stroke:none;fill-rule:nonzero;fill:rgb(88.0722%,61.1041%,14.2051%);fill-opacity:1;" d="M 195.601562 47.019531 C 195.601562 49.683594 191.601562 49.683594 191.601562 47.019531 C 191.601562 44.351562 195.601562 44.351562 195.601562 47.019531 "/>
<path style="fill:none;stroke-width:2;stroke-linecap:butt;stroke-linejoin:miter;stroke:rgb(36.8417%,50.6779%,70.9798%);stroke-opacity:1;stroke-miterlimit:10;" d="M 164.683594 84.328125 L 183.601562 37.019531 L 194.464844 64.984375 Z M 164.683594 84.328125 " transform="matrix(1,0,0,1,10,10)"/>
<path style=" stroke:none;fill-rule:nonzero;fill:rgb(88.0722%,61.1041%,14.2051%);fill-opacity:1;" d="M 176.683594 94.328125 C 176.683594 96.996094 172.683594 96.996094 172.683594 94.328125 C 172.683594 91.660156 176.683594 91.660156 176.683594 94.328125 "/>
<path style=" stroke:none;fill-rule:nonzero;fill:rgb(88.0722%,61.1041%,14.2051%);fill-opacity:1;" d="M 195.601562 47.019531 C 195.601562 49.683594 191.601562 49.683594 191.601562 47.019531 C 191.601562 44.351562 195.601562 44.351562 195.601562 47.019531 "/>
<path style=" stroke:none;fill-rule:nonzero;fill:rgb(88.0722%,61.1041%,14.2051%);fill-opacity:1;" d="M 206.464844 74.984375 C 206.464844 77.648438 202.464844 77.648438 202.464844 74.984375 C 202.464844 72.316406 206.464844 72.316406 206.464844 74.984375 "/>
<path style="fill:none;stroke-width:2;stroke-linecap:butt;stroke-linejoin:miter;stroke:rgb(36.8417%,50.6779%,70.9798%);stroke-opacity:1;stroke-miterlimit:10;" d="M 164.683594 84.328125 L 189.703125 102.417969 L 162.121094 114.21875 Z M 164.683594 84.328125 " transform="matrix(1,0,0,1,10,10)"/>
<path style=" stroke:none;fill-rule:nonzero;fill:rgb(88.0722%,61.1041%,14.2051%);fill-opacity:1;" d="M 176.683594 94.328125 C 176.683594 96.996094 172.683594 96.996094 172.683594 94.328125 C 172.683594 91.660156 176.683594 91.660156 176.683594 94.328125 "/>
<path style=" stroke:none;fill-rule:nonzero;fill:rgb(88.0722%,61.1041%,14.2051%);fill-opacity:1;" d="M 201.703125 112.417969 C 201.703125 115.085938 197.703125 115.085938 197.703125 112.417969 C 197.703125 109.75 201.703125 109.75 201.703125 112.417969 "/>
<path style=" stroke:none;fill-rule:nonzero;fill:rgb(88.0722%,61.1041%,14.2051%);fill-opacity:1;" d="M 174.121094 124.21875 C 174.121094 126.886719 170.121094 126.886719 170.121094 124.21875 C 170.121094 121.550781 174.121094 121.550781 174.121094 124.21875 "/>
<path style="fill:none;stroke-width:2;stroke-linecap:butt;stroke-linejoin:miter;stroke:rgb(36.8417%,50.6779%,70.9798%);stroke-opacity:1;stroke-miterlimit:10;" d="M 164.683594 84.328125 L 194.464844 64.984375 L 189.703125 102.417969 Z M 164.683594 84.328125 " transform="matrix(1,0,0,1,10,10)"/>
<path style=" stroke:none;fill-rule:nonzero;fill:rgb(88.0722%,61.1041%,14.2051%);fill-opacity:1;" d="M 176.683594 94.328125 C 176.683594 96.996094 172.683594 96.996094 172.683594 94.328125 C 172.683594 91.660156 176.683594 91.660156 176.683594 94.328125 "/>
<path style=" stroke:none;fill-rule:nonzero;fill:rgb(88.0722%,61.1041%,14.2051%);fill-opacity:1;" d="M 206.464844 74.984375 C 206.464844 77.648438 202.464844 77.648438 202.464844 74.984375 C 202.464844 72.316406 206.464844 72.316406 206.464844 74.984375 "/>
<path style=" stroke:none;fill-rule:nonzero;fill:rgb(88.0722%,61.1041%,14.2051%);fill-opacity:1;" d="M 201.703125 112.417969 C 201.703125 115.085938 197.703125 115.085938 197.703125 112.417969 C 197.703125 109.75 201.703125 109.75 201.703125 112.417969 "/>
<path style="fill:none;stroke-width:2;stroke-linecap:butt;stroke-linejoin:miter;stroke:rgb(36.8417%,50.6779%,70.9798%);stroke-opacity:1;stroke-miterlimit:10;" d="M 165.652344 144.011719 L 162.121094 114.21875 L 196.613281 148.023438 Z M 165.652344 144.011719 " transform="matrix(1,0,0,1,10,10)"/>
<path style=" stroke:none;fill-rule:nonzero;fill:rgb(88.0722%,61.1041%,14.2051%);fill-opacity:1;" d="M 177.652344 154.011719 C 177.652344 156.675781 173.652344 156.675781 173.652344 154.011719 C 173.652344 151.34375 177.652344 151.34375 177.652344 154.011719 "/>
<path style=" stroke:none;fill-rule:nonzero;fill:rgb(88.0722%,61.1041%,14.2051%);fill-opacity:1;" d="M 174.121094 124.21875 C 174.121094 126.886719 170.121094 126.886719 170.121094 124.21875 C 170.121094 121.550781 174.121094 121.550781 174.121094 124.21875 "/>
<path style=" stroke:none;fill-rule:nonzero;fill:rgb(88.0722%,61.1041%,14.2051%);fill-opacity:1;" d="M 208.613281 158.023438 C 208.613281 160.6875 204.613281 160.6875 204.613281 158.023438 C 204.613281 155.355469 208.613281 155.355469 208.613281 158.023438 "/>
<path style="fill:none;stroke-width:2;stroke-linecap:butt;stroke-linejoin:miter;stroke:rgb(36.8417%,50.6779%,70.9798%);stroke-opacity:1;stroke-miterlimit:10;" d="M 165.652344 144.011719 L 162.46875 193.5625 L 138.8125 175.117188 Z M 165.652344 144.011719 " transform="matrix(1,0,0,1,10,10)"/>
<path style=" stroke:none;fill-rule:nonzero;fill:rgb(88.0722%,61.1041%,14.2051%);fill-opacity:1;" d="M 177.652344 154.011719 C 177.652344 156.675781 173.652344 156.675781 173.652344 154.011719 C 173.652344 151.34375 177.652344 151.34375 177.652344 154.011719 "/>
<path style=" stroke:none;fill-rule:nonzero;fill:rgb(88.0722%,61.1041%,14.2051%);fill-opacity:1;" d="M 174.46875 203.5625 C 174.46875 206.230469 170.46875 206.230469 170.46875 203.5625 C 170.46875 200.898438 174.46875 200.898438 174.46875 203.5625 "/>
<path style=" stroke:none;fill-rule:nonzero;fill:rgb(88.0722%,61.1041%,14.2051%);fill-opacity:1;" d="M 150.8125 185.117188 C 150.8125 187.78125 146.8125 187.78125 146.8125 185.117188 C 146.8125 182.449219 150.8125 182.449219 150.8125 185.117188 "/>
<path style="fill:none;stroke-width:2;stroke-linecap:butt;stroke-linejoin:miter;stroke:rgb(36.8417%,50.6779%,70.9798%);stroke-opacity:1;stroke-miterlimit:10;" d="M 165.652344 144.011719 L 187.132812 176.484375 L 162.46875 193.5625 Z M 165.652344 144.011719 " transform="matrix(1,0,0,1,10,10)"/>
<path style=" stroke:none;fill-rule:nonzero;fill:rgb(88.0722%,61.1041%,14.2051%);fill-opacity:1;" d="M 177.652344 154.011719 C 177.652344 156.675781 173.652344 156.675781 173.652344 154.011719 C 173.652344 151.34375 177.652344 151.34375 177.652344 154.011719 "/>
<path style=" stroke:none;fill-rule:nonzero;fill:rgb(88.0722%,61.1041%,14.2051%);fill-opacity:1;" d="M 199.132812 186.484375 C 199.132812 189.152344 195.132812 189.152344 195.132812 186.484375 C 195.132812 183.816406 199.132812 183.816406 199.132812 186.484375 "/>
<path style=" stroke:none;fill-rule:nonzero;fill:rgb(88.0722%,61.1041%,14.2051%);fill-opacity:1;" d="M 174.46875 203.5625 C 174.46875 206.230469 170.46875 206.230469 170.46875 203.5625 C 170.46875 200.898438 174.46875 200.898438 174.46875 203.5625 "/>
<path style="fill:none;stroke-width:2;stroke-linecap:butt;stroke-linejoin:miter;stroke:rgb(36.8417%,50.6779%,70.9798%);stroke-opacity:1;stroke-miterlimit:10;" d="M 165.652344 144.011719 L 196.613281 148.023438 L 187.132812 176.484375 Z M 165.652344 144.011719 " transform="matrix(1,0,0,1,10,10)"/>
<path style=" stroke:none;fill-rule:nonzero;fill:rgb(88.0722%,61.1041%,14.2051%);fill-opacity:1;" d="M 177.652344 154.011719 C 177.652344 156.675781 173.652344 156.675781 173.652344 154.011719 C 173.652344 151.34375 177.652344 151.34375 177.652344 154.011719 "/>
<path style=" stroke:none;fill-rule:nonzero;fill:rgb(88.0722%,61.1041%,14.2051%);fill-opacity:1;" d="M 208.613281 158.023438 C 208.613281 160.6875 204.613281 160.6875 204.613281 158.023438 C 204.613281 155.355469 208.613281 155.355469 208.613281 158.023438 "/>
<path style=" stroke:none;fill-rule:nonzero;fill:rgb(88.0722%,61.1041%,14.2051%);fill-opacity:1;" d="M 199.132812 186.484375 C 199.132812 189.152344 195.132812 189.152344 195.132812 186.484375 C 195.132812 183.816406 199.132812 183.816406 199.132812 186.484375 "/>
<path style="fill:none;stroke-width:2;stroke-linecap:butt;stroke-linejoin:miter;stroke:rgb(36.8417%,50.6779%,70.9798%);stroke-opacity:1;stroke-miterlimit:10;" d="M 169.777344 10.394531 L 151.417969 34.125 L 134.171875 9.578125 Z M 169.777344 10.394531 " transform="matrix(1,0,0,1,10,10)"/>
<path style=" stroke:none;fill-rule:nonzero;fill:rgb(88.0722%,61.1041%,14.2051%);fill-opacity:1;" d="M 181.777344 20.394531 C 181.777344 23.0625 177.777344 23.0625 177.777344 20.394531 C 177.777344 17.730469 181.777344 17.730469 181.777344 20.394531 "/>
<path style=" stroke:none;fill-rule:nonzero;fill:rgb(88.0722%,61.1041%,14.2051%);fill-opacity:1;" d="M 163.417969 44.125 C 163.417969 46.789062 159.417969 46.789062 159.417969 44.125 C 159.417969 41.457031 163.417969 41.457031 163.417969 44.125 "/>
<path style=" stroke:none;fill-rule:nonzero;fill:rgb(88.0722%,61.1041%,14.2051%);fill-opacity:1;" d="M 146.171875 19.578125 C 146.171875 22.242188 142.171875 22.242188 142.171875 19.578125 C 142.171875 16.910156 146.171875 16.910156 146.171875 19.578125 "/>
<path style="fill:none;stroke-width:2;stroke-linecap:butt;stroke-linejoin:miter;stroke:rgb(36.8417%,50.6779%,70.9798%);stroke-opacity:1;stroke-miterlimit:10;" d="M 169.777344 10.394531 L 183.601562 37.019531 L 151.417969 34.125 Z M 169.777344 10.394531 " transform="matrix(1,0,0,1,10,10)"/>
<path style=" stroke:none;fill-rule:nonzero;fill:rgb(88.0722%,61.1041%,14.2051%);fill-opacity:1;" d="M 181.777344 20.394531 C 181.777344 23.0625 177.777344 23.0625 177.777344 20.394531 C 177.777344 17.730469 181.777344 17.730469 181.777344 20.394531 "/>
<path style=" stroke:none;fill-rule:nonzero;fill:rgb(88.0722%,61.1041%,14.2051%);fill-opacity:1;" d="M 195.601562 47.019531 C 195.601562 49.683594 191.601562 49.683594 191.601562 47.019531 C 191.601562 44.351562 195.601562 44.351562 195.601562 47.019531 "/>
<path style=" stroke:none;fill-rule:nonzero;fill:rgb(88.0722%,61.1041%,14.2051%);fill-opacity:1;" d="M 163.417969 44.125 C 163.417969 46.789062 159.417969 46.789062 159.417969 44.125 C 159.417969 41.457031 163.417969 41.457031 163.417969 44.125 "/>
</g>
</svg>
