<?xml version="1.0" encoding="UTF-8"?>
<svg xmlns="http://www.w3.org/2000/svg" xmlns:xlink="http://www.w3.org/1999/xlink" width="220pt" height="220pt" viewBox="0 0 220 220" version="1.1">
<g id="id1">
<path style="fill:none;stroke-width:2;stroke-linecap:butt;stroke-linejoin:bevel;stroke:rgb(36.8417%,50.6779%,70.9798%);stroke-opacity:1;stroke-miterlimit:10;" d="M 95.039062 151.828125 L 82.640625 189.855469 L 61.351562 130.257812 Z M 95.039062 151.828125 " transform="matrix(1,0,0,1,10,10)"/>
<path style=" stroke:none;fill-rule:nonzero;fill:rgb(88.0722%,61.1041%,14.2051%);fill-opacity:1;" d="M 109.039062 161.828125 C 109.039062 167.160156 101.039062 167.160156 101.039062 161.828125 C 101.039062 156.492188 109.039062 156.492188 109.039062 161.828125 "/>
<path style=" stroke:none;fill-rule:nonzero;fill:rgb(88.0722%,61.1041%,14.2051%);fill-opacity:1;" d="M 96.640625 199.855469 C 96.640625 205.191406 88.640625 205.191406 88.640625 199.855469 C 88.640625 194.523438 96.640625 194.523438 96.640625 199.855469 "/>
<path style=" stroke:none;fill-rule:nonzero;fill:rgb(88.0722%,61.1041%,14.2051%);fill-opacity:1;" d="M 75.351562 140.257812 C 75.351562 145.59375 67.351562 145.59375 67.351562 140.257812 C 67.351562 134.925781 75.351562 134.925781 75.351562 140.257812 "/>
<path style="fill:none;stroke-width:2;stroke-linecap:butt;stroke-linejoin:bevel;stroke:rgb(36.8417%,50.6779%,70.9798%);stroke-opacity:1;stroke-miterlimit:10;" d="M 82.640625 189.855469 L 21.707031 135.589844 L 61.351562 130.257812 Z M 82.640625 189.855469 " transform="matrix(1,0,0,1,10,10)"/>
<path style=" stroke:none;fill-rule:nonzero;fill:rgb(88.0722%,61.1041%,14.2051%);fill-opacity:1;" d="M 96.640625 199.855469 C 96.640625 205.191406 88.640625 205.191406 88.640625 199.855469 C 88.640625 194.523438 96.640625 194.523438 96.640625 199.855469 "/>
<path style=" stroke:none;fill-rule:nonzero;fill:rgb(88.0722%,61.1041%,14.2051%);fill-opacity:1;" d="M 35.707031 145.589844 C 35.707031 150.921875 27.707031 150.921875 27.707031 145.589844 C 27.707031 140.253906 35.707031 140.253906 35.707031 145.589844 "/>
<path style=" stroke:none;fill-rule:nonzero;fill:rgb(88.0722%,61.1041%,14.2051%);fill-opacity:1;" d="M 75.351562 140.257812 C 75.351562 145.59375 67.351562 145.59375 67.351562 140.257812 C 67.351562 134.925781 75.351562 134.925781 75.351562 140.257812 "/>
<path style="fill:none;stroke-width:2;stroke-linecap:butt;stroke-linejoin:bevel;stroke:rgb(36.8417%,50.6779%,70.9798%);stroke-opacity:1;stroke-miterlimit:10;" d="M 95.039062 151.828125 L 132.695312 165.3125 L 82.640625 189.855469 Z M 95.039062 151.828125 " transform="matrix(1,0,0,1,10,10)"/>
<path style=" stroke:none;fill-rule:nonzero;fill:rgb(88.0722%,61.1041%,14.2051%);fill-opacity:1;" d="M 109.039062 161.828125 C 109.039062 167.160156 101.039062 167.160156 101.039062 161.828125 C 101.039062 156.492188 109.039062 156.492188 109.039062 161.828125 "/>
<path style=" stroke:none;fill-rule:nonzero;fill:rgb(88.0722%,61.1041%,14.2051%);fill-opacity:1;" d="M 146.695312 175.3125 C 146.695312 180.644531 138.695312 180.644531 138.695312 175.3125 C 138.695312 169.980469 146.695312 169.980469 146.695312 175.3125 "/>
<path style=" stroke:none;fill-rule:nonzero;fill:rgb(88.0722%,61.1041%,14.2051%);fill-opacity:1;" d="M 96.640625 199.855469 C 96.640625 205.191406 88.640625 205.191406 88.640625 199.855469 C 88.640625 194.523438 96.640625 194.523438 96.640625 199.855469 "/>
<path style="fill:none;stroke-width:2;stroke-linecap:butt;stroke-linejoin:bevel;stroke:rgb(36.8417%,50.6779%,70.9798%);stroke-opacity:1;stroke-miterlimit:10;" d="M 82.640625 189.855469 L 132.695312 165.3125 L 176.679688 198.402344 Z M 82.640625 189.855469 " transform="matrix(1,0,0,1,10,10)"/>
<path style=" stroke:none;fill-rule:nonzero;fill:rgb(88.0722%,61.1041%,14.2051%);fill-opacity:1;" d="M 96.640625 199.855469 C 96.640625 205.191406 88.640625 205.191406 88.640625 199.855469 C 88.640625 194.523438 96.640625 194.523438 96.640625 199.855469 "/>
<path style=" stroke:none;fill-rule:nonzero;fill:rgb(88.0722%,61.1041%,14.2051%);fill-opacity:1;" d="M 146.695312 175.3125 C 146.695312 180.644531 138.695312 180.644531 138.695312 175.3125 C 138.695312 169.980469 146.695312 169.980469 146.695312 175.3125 "/>
<path style=" stroke:none;fill-rule:nonzero;fill:rgb(88.0722%,61.1041%,14.2051%);fill-opacity:1;" d="M 190.679688 208.402344 C 190.679688 213.734375 182.679688 213.734375 182.679688 208.402344 C 182.679688 203.070312 190.679688 203.070312 190.679688 208.402344 "/>
<path style="fill:none;stroke-width:2;stroke-linecap:butt;stroke-linejoin:bevel;stroke:rgb(36.8417%,50.6779%,70.9798%);stroke-opacity:1;stroke-miterlimit:10;" d="M 61.351562 130.257812 L 21.707031 135.589844 L 34.40625 97.65625 Z M 61.351562 130.257812 " transform="matrix(1,0,0,1,10,10)"/>
<path style=" stroke:none;fill-rule:nonzero;fill:rgb(88.0722%,61.1041%,14.2051%);fill-opacity:1;" d="M 75.351562 140.257812 C 75.351562 145.59375 67.351562 145.59375 67.351562 140.257812 C 67.351562 134.925781 75.351562 134.925781 75.351562 140.257812 "/>
<path style=" stroke:none;fill-rule:nonzero;fill:rgb(88.0722%,61.1041%,14.2051%);fill-opacity:1;" d="M 35.707031 145.589844 C 35.707031 150.921875 27.707031 150.921875 27.707031 145.589844 C 27.707031 140.253906 35.707031 140.253906 35.707031 145.589844 "/>
<path style=" stroke:none;fill-rule:nonzero;fill:rgb(88.0722%,61.1041%,14.2051%);fill-opacity:1;" d="M 48.40625 107.65625 C 48.40625 112.992188 40.40625 112.992188 40.40625 107.65625 C 40.40625 102.324219 48.40625 102.324219 48.40625 107.65625 "/>
<path style="fill:none;stroke-width:2;stroke-linecap:butt;stroke-linejoin:bevel;stroke:rgb(36.8417%,50.6779%,70.9798%);stroke-opacity:1;stroke-miterlimit:10;" d="M 21.707031 135.589844 L 6.214844 63.777344 L 34.40625 97.65625 Z M 21.707031 135.589844 " transform="matrix(1,0,0,1,10,10)"/>
<path style=" stroke:none;fill-rule:nonzero;fill:rgb(88.0722%,61.1041%,14.2051%);fill-opacity:1;" d="M 35.707031 145.589844 C 35.707031 150.921875 27.707031 150.921875 27.707031 145.589844 C 27.707031 140.253906 35.707031 140.253906 35.707031 145.589844 "/>
<path style=" stroke:none;fill-rule:nonzero;fill:rgb(88.0722%,61.1041%,14.2051%);fill-opacity:1;" d="M 20.214844 73.777344 C 20.214844 79.113281 12.214844 79.113281 12.214844 73.777344 C 12.214844 68.445312 20.214844 68.445312 20.214844 73.777344 "/>
<path style=" stroke:none;fill-rule:nonzero;fill:rgb(88.0722%,61.1041%,14.2051%);fill-opacity:1;" d="M 48.40625 107.65625 C 48.40625 112.992188 40.40625 112.992188 40.40625 107.65625 C 40.40625 102.324219 48.40625 102.324219 48.40625 107.65625 "/>
<path style="fill:none;stroke-width:2;stroke-linecap:butt;stroke-linejoin:bevel;stroke:rgb(36.8417%,50.6779%,70.9798%);stroke-opacity:1;stroke-miterlimit:10;" d="M 100.785156 112.242188 L 81.695312 77.074219 L 121.679688 78.132812 Z M 100.785156 112.242188 " transform="matrix(1,0,0,1,10,10)"/>
<path style=" stroke:none;fill-rule:nonzero;fill:rgb(88.0722%,61.1041%,14.2051%);fill-opacity:1;" d="M 114.785156 122.242188 C 114.785156 127.574219 106.785156 127.574219 106.785156 122.242188 C 106.785156 116.910156 114.785156 116.910156 114.785156 122.242188 "/>
<path style=" stroke:none;fill-rule:nonzero;fill:rgb(88.0722%,61.1041%,14.2051%);fill-opacity:1;" d="M 95.695312 87.074219 C 95.695312 92.410156 87.695312 92.410156 87.695312 87.074219 C 87.695312 81.742188 95.695312 81.742188 95.695312 87.074219 "/>
<path style=" stroke:none;fill-rule:nonzero;fill:rgb(88.0722%,61.1041%,14.2051%);fill-opacity:1;" d="M 135.679688 88.132812 C 135.679688 93.464844 127.679688 93.464844 127.679688 88.132812 C 127.679688 82.800781 135.679688 82.800781 135.679688 88.132812 "/>
<path style="fill:none;stroke-width:2;stroke-linecap:butt;stroke-linejoin:bevel;stroke:rgb(36.8417%,50.6779%,70.9798%);stroke-opacity:1;stroke-miterlimit:10;" d="M 100.785156 112.242188 L 121.679688 78.132812 L 148.882812 107.457031 Z M 100.785156 112.242188 " transform="matrix(1,0,0,1,10,10)"/>
<path style=" stroke:none;fill-rule:nonzero;fill:rgb(88.0722%,61.1041%,14.2051%);fill-opacity:1;" d="M 114.785156 122.242188 C 114.785156 127.574219 106.785156 127.574219 106.785156 122.242188 C 106.785156 116.910156 114.785156 116.910156 114.785156 122.242188 "/>
<path style=" stroke:none;fill-rule:nonzero;fill:rgb(88.0722%,61.1041%,14.2051%);fill-opacity:1;" d="M 135.679688 88.132812 C 135.679688 93.464844 127.679688 93.464844 127.679688 88.132812 C 127.679688 82.800781 135.679688 82.800781 135.679688 88.132812 "/>
<path style=" stroke:none;fill-rule:nonzero;fill:rgb(88.0722%,61.1041%,14.2051%);fill-opacity:1;" d="M 162.882812 117.457031 C 162.882812 122.792969 154.882812 122.792969 154.882812 117.457031 C 154.882812 112.125 162.882812 112.125 162.882812 117.457031 "/>
<path style="fill:none;stroke-width:2;stroke-linecap:butt;stroke-linejoin:bevel;stroke:rgb(36.8417%,50.6779%,70.9798%);stroke-opacity:1;stroke-miterlimit:10;" d="M 95.039062 151.828125 L 61.351562 130.257812 L 100.785156 112.242188 Z M 95.039062 151.828125 " transform="matrix(1,0,0,1,10,10)"/>
<path style=" stroke:none;fill-rule:nonzero;fill:rgb(88.0722%,61.1041%,14.2051%);fill-opacity:1;" d="M 109.039062 161.828125 C 109.039062 167.160156 101.039062 167.160156 101.039062 161.828125 C 101.039062 156.492188 109.039062 156.492188 109.039062 161.828125 "/>
<path style=" stroke:none;fill-rule:nonzero;fill:rgb(88.0722%,61.1041%,14.2051%);fill-opacity:1;" d="M 75.351562 140.257812 C 75.351562 145.59375 67.351562 145.59375 67.351562 140.257812 C 67.351562 134.925781 75.351562 134.925781 75.351562 140.257812 "/>
<path style=" stroke:none;fill-rule:nonzero;fill:rgb(88.0722%,61.1041%,14.2051%);fill-opacity:1;" d="M 114.785156 122.242188 C 114.785156 127.574219 106.785156 127.574219 106.785156 122.242188 C 106.785156 116.910156 114.785156 116.910156 114.785156 122.242188 "/>
<path style="fill:none;stroke-width:2;stroke-linecap:butt;stroke-linejoin:bevel;stroke:rgb(36.8417%,50.6779%,70.9798%);stroke-opacity:1;stroke-miterlimit:10;" d="M 81.695312 77.074219 L 34.40625 97.65625 L 45.945312 59.132812 Z M 81.695312 77.074219 " transform="matrix(1,0,0,1,10,10)"/>
<path style=" stroke:none;fill-rule:nonzero;fill:rgb(88.0722%,61.1041%,14.2051%);fill-opacity:1;" d="M 95.695312 87.074219 C 95.695312 92.410156 87.695312 92.410156 87.695312 87.074219 C 87.695312 81.742188 95.695312 81.742188 95.695312 87.074219 "/>
<path style=" stroke:none;fill-rule:nonzero;fill:rgb(88.0722%,61.1041%,14.2051%);fill-opacity:1;" d="M 48.40625 107.65625 C 48.40625 112.992188 40.40625 112.992188 40.40625 107.65625 C 40.40625 102.324219 48.40625 102.324219 48.40625 107.65625 "/>
<path style=" stroke:none;fill-rule:nonzero;fill:rgb(88.0722%,61.1041%,14.2051%);fill-opacity:1;" d="M 59.945312 69.132812 C 59.945312 74.464844 51.945312 74.464844 51.945312 69.132812 C 51.945312 63.796875 59.945312 63.796875 59.945312 69.132812 "/>
<path style="fill:none;stroke-width:2;stroke-linecap:butt;stroke-linejoin:bevel;stroke:rgb(36.8417%,50.6779%,70.9798%);stroke-opacity:1;stroke-miterlimit:10;" d="M 61.351562 130.257812 L 34.40625 97.65625 L 81.695312 77.074219 Z M 61.351562 130.257812 " transform="matrix(1,0,0,1,10,10)"/>
<path style=" stroke:none;fill-rule:nonzero;fill:rgb(88.0722%,61.1041%,14.2051%);fill-opacity:1;" d="M 75.351562 140.257812 C 75.351562 145.59375 67.351562 145.59375 67.351562 140.257812 C 67.351562 134.925781 75.351562 134.925781 75.351562 140.257812 "/>
<path style=" stroke:none;fill-rule:nonzero;fill:rgb(88.0722%,61.1041%,14.2051%);fill-opacity:1;" d="M 48.40625 107.65625 C 48.40625 112.992188 40.40625 112.992188 40.40625 107.65625 C 40.40625 102.324219 48.40625 102.324219 48.40625 107.65625 "/>
<path style=" stroke:none;fill-rule:nonzero;fill:rgb(88.0722%,61.1041%,14.2051%);fill-opacity:1;" d="M 95.695312 87.074219 C 95.695312 92.410156 87.695312 92.410156 87.695312 87.074219 C 87.695312 81.742188 95.695312 81.742188 95.695312 87.074219 "/>
<path style="fill:none;stroke-width:2;stroke-linecap:butt;stroke-linejoin:bevel;stroke:rgb(36.8417%,50.6779%,70.9798%);stroke-opacity:1;stroke-miterlimit:10;" d="M 100.785156 112.242188 L 61.351562 130.257812 L 81.695312 77.074219 Z M 100.785156 112.242188 " transform="matrix(1,0,0,1,10,10)"/>
<path style=" stroke:none;fill-rule:nonzero;fill:rgb(88.0722%,61.1041%,14.2051%);fill-opacity:1;" d="M 114.785156 122.242188 C 114.785156 127.574219 106.785156 127.574219 106.785156 122.242188 C 106.785156 116.910156 114.785156 116.910156 114.785156 122.242188 "/>
<path style=" stroke:none;fill-rule:nonzero;fill:rgb(88.0722%,61.1041%,14.2051%);fill-opacity:1;" d="M 75.351562 140.257812 C 75.351562 145.59375 67.351562 145.59375 67.351562 140.257812 C 67.351562 134.925781 75.351562 134.925781 75.351562 140.257812 "/>
<path style=" stroke:none;fill-rule:nonzero;fill:rgb(88.0722%,61.1041%,14.2051%);fill-opacity:1;" d="M 95.695312 87.074219 C 95.695312 92.410156 87.695312 92.410156 87.695312 87.074219 C 87.695312 81.742188 95.695312 81.742188 95.695312 87.074219 "/>
<path style="fill:none;stroke-width:2;stroke-linecap:butt;stroke-linejoin:bevel;stroke:rgb(36.8417%,50.6779%,70.9798%);stroke-opacity:1;stroke-miterlimit:10;" d="M 95.039062 151.828125 L 100.785156 112.242188 L 132.695312 165.3125 Z M 95.039062 151.828125 " transform="matrix(1,0,0,1,10,10)"/>
<path style=" stroke:none;fill-rule:nonzero;fill:rgb(88.0722%,61.1041%,14.2051%);fill-opacity:1;" d="M 109.039062 161.828125 C 109.039062 167.160156 101.039062 167.160156 101.039062 161.828125 C 101.039062 156.492188 109.039062 156.492188 109.039062 161.828125 "/>
<path style=" stroke:none;fill-rule:nonzero;fill:rgb(88.0722%,61.1041%,14.2051%);fill-opacity:1;" d="M 114.785156 122.242188 C 114.785156 127.574219 106.785156 127.574219 106.785156 122.242188 C 106.785156 116.910156 114.785156 116.910156 114.785156 122.242188 "/>
<path style=" stroke:none;fill-rule:nonzero;fill:rgb(88.0722%,61.1041%,14.2051%);fill-opacity:1;" d="M 146.695312 175.3125 C 146.695312 180.644531 138.695312 180.644531 138.695312 175.3125 C 138.695312 169.980469 146.695312 169.980469 146.695312 175.3125 "/>
<path style="fill:none;stroke-width:2;stroke-linecap:butt;stroke-linejoin:bevel;stroke:rgb(36.8417%,50.6779%,70.9798%);stroke-opacity:1;stroke-miterlimit:10;" d="M 132.695312 165.3125 L 172.140625 158.660156 L 176.679688 198.402344 Z M 132.695312 165.3125 " transform="matrix(1,0,0,1,10,10)"/>
<path style=" stroke:none;fill-rule:nonzero;fill:rgb(88.0722%,61.1041%,14.2051%);fill-opacity:1;" d="M 146.695312 175.3125 C 146.695312 180.644531 138.695312 180.644531 138.695312 175.3125 C 138.695312 169.980469 146.695312 169.980469 146.695312 175.3125 "/>
<path style=" stroke:none;fill-rule:nonzero;fill:rgb(88.0722%,61.1041%,14.2051%);fill-opacity:1;" d="M 186.140625 168.660156 C 186.140625 173.996094 178.140625 173.996094 178.140625 168.660156 C 178.140625 163.328125 186.140625 163.328125 186.140625 168.660156 "/>
<path style=" stroke:none;fill-rule:nonzero;fill:rgb(88.0722%,61.1041%,14.2051%);fill-opacity:1;" d="M 190.679688 208.402344 C 190.679688 213.734375 182.679688 213.734375 182.679688 208.402344 C 182.679688 203.070312 190.679688 203.070312 190.679688 208.402344 "/>
<path style="fill:none;stroke-width:2;stroke-linecap:butt;stroke-linejoin:bevel;stroke:rgb(36.8417%,50.6779%,70.9798%);stroke-opacity:1;stroke-miterlimit:10;" d="M 132.695312 165.3125 L 148.882812 107.457031 L 172.140625 158.660156 Z M 132.695312 165.3125 " transform="matrix(1,0,0,1,10,10)"/>
<path style=" stroke:none;fill-rule:nonzero;fill:rgb(88.0722%,61.1041%,14.2051%);fill-opacity:1;" d="M 146.695312 175.3125 C 146.695312 180.644531 138.695312 180.644531 138.695312 175.3125 C 138.695312 169.980469 146.695312 169.980469 146.695312 175.3125 "/>
<path style=" stroke:none;fill-rule:nonzero;fill:rgb(88.0722%,61.1041%,14.2051%);fill-opacity:1;" d="M 162.882812 117.457031 C 162.882812 122.792969 154.882812 122.792969 154.882812 117.457031 C 154.882812 112.125 162.882812 112.125 162.882812 117.457031 "/>
<path style=" stroke:none;fill-rule:nonzero;fill:rgb(88.0722%,61.1041%,14.2051%);fill-opacity:1;" d="M 186.140625 168.660156 C 186.140625 173.996094 178.140625 173.996094 178.140625 168.660156 C 178.140625 163.328125 186.140625 163.328125 186.140625 168.660156 "/>
<path style="fill:none;stroke-width:2;stroke-linecap:butt;stroke-linejoin:bevel;stroke:rgb(36.8417%,50.6779%,70.9798%);stroke-opacity:1;stroke-miterlimit:10;" d="M 132.695312 165.3125 L 100.785156 112.242188 L 148.882812 107.457031 Z M 132.695312 165.3125 " transform="matrix(1,0,0,1,10,10)"/>
<path style=" stroke:none;fill-rule:nonzero;fill:rgb(88.0722%,61.1041%,14.2051%);fill-opacity:1;" d="M 146.695312 175.3125 C 146.695312 180.644531 138.695312 180.644531 138.695312 175.3125 C 138.695312 169.980469 146.695312 169.980469 146.695312 175.3125 "/>
<path style=" stroke:none;fill-rule:nonzero;fill:rgb(88.0722%,61.1041%,14.2051%);fill-opacity:1;" d="M 114.785156 122.242188 C 114.785156 127.574219 106.785156 127.574219 106.785156 122.242188 C 106.785156 116.910156 114.785156 116.910156 114.785156 122.242188 "/>
<path style=" stroke:none;fill-rule:nonzero;fill:rgb(88.0722%,61.1041%,14.2051%);fill-opacity:1;" d="M 162.882812 117.457031 C 162.882812 122.792969 154.882812 122.792969 154.882812 117.457031 C 154.882812 112.125 162.882812 112.125 162.882812 117.457031 "/>
<path style="fill:none;stroke-width:2;stroke-linecap:butt;stroke-linejoin:bevel;stroke:rgb(36.8417%,50.6779%,70.9798%);stroke-opacity:1;stroke-miterlimit:10;" d="M 81.695312 77.074219 L 104.128906 42.191406 L 121.679688 78.132812 Z M 81.695312 77.074219 " transform="matrix(1,0,0,1,10,10)"/>
<path style=" stroke:none;fill-rule:nonzero;fill:rgb(88.0722%,61.1041%,14.2051%);fill-opacity:1;" d="M 95.695312 87.074219 C 95.695312 92.410156 87.695312 92.410156 87.695312 87.074219 C 87.695312 81.742188 95.695312 81.742188 95.695312 87.074219 "/>
<path style=" stroke:none;fill-rule:nonzero;fill:rgb(88.0722%,61.1041%,14.2051%);fill-opacity:1;" d="M 118.128906 52.191406 C 118.128906 57.523438 110.128906 57.523438 110.128906 52.191406 C 110.128906 46.855469 118.128906 46.855469 118.128906 52.191406 "/>
<path style=" stroke:none;fill-rule:nonzero;fill:rgb(88.0722%,61.1041%,14.2051%);fill-opacity:1;" d="M 135.679688 88.132812 C 135.679688 93.464844 127.679688 93.464844 127.679688 88.132812 C 127.679688 82.800781 135.679688 82.800781 135.679688 88.132812 "/>
<path style="fill:none;stroke-width:2;stroke-linecap:butt;stroke-linejoin:bevel;stroke:rgb(36.8417%,50.6779%,70.9798%);stroke-opacity:1;stroke-miterlimit:10;" d="M 148.882812 107.457031 L 121.679688 78.132812 L 149.390625 49.285156 Z M 148.882812 107.457031 " transform="matrix(1,0,0,1,10,10)"/>
<path style=" stroke:none;fill-rule:nonzero;fill:rgb(88.0722%,61.1041%,14.2051%);fill-opacity:1;" d="M 162.882812 117.457031 C 162.882812 122.792969 154.882812 122.792969 154.882812 117.457031 C 154.882812 112.125 162.882812 112.125 162.882812 117.457031 "/>
<path style=" stroke:none;fill-rule:nonzero;fill:rgb(88.0722%,61.1041%,14.2051%);fill-opacity:1;" d="M 135.679688 88.132812 C 135.679688 93.464844 127.679688 93.464844 127.679688 88.132812 C 127.679688 82.800781 135.679688 82.800781 135.679688 88.132812 "/>
<path style=" stroke:none;fill-rule:nonzero;fill:rgb(88.0722%,61.1041%,14.2051%);fill-opacity:1;" d="M 163.390625 59.285156 C 163.390625 64.621094 155.390625 64.621094 155.390625 59.285156 C 155.390625 53.953125 163.390625 53.953125 163.390625 59.285156 "/>
<path style="fill:none;stroke-width:2;stroke-linecap:butt;stroke-linejoin:bevel;stroke:rgb(36.8417%,50.6779%,70.9798%);stroke-opacity:1;stroke-miterlimit:10;" d="M 148.882812 107.457031 L 149.390625 49.285156 L 196.605469 87.742188 Z M 148.882812 107.457031 " transform="matrix(1,0,0,1,10,10)"/>
<path style=" stroke:none;fill-rule:nonzero;fill:rgb(88.0722%,61.1041%,14.2051%);fill-opacity:1;" d="M 162.882812 117.457031 C 162.882812 122.792969 154.882812 122.792969 154.882812 117.457031 C 154.882812 112.125 162.882812 112.125 162.882812 117.457031 "/>
<path style=" stroke:none;fill-rule:nonzero;fill:rgb(88.0722%,61.1041%,14.2051%);fill-opacity:1;" d="M 163.390625 59.285156 C 163.390625 64.621094 155.390625 64.621094 155.390625 59.285156 C 155.390625 53.953125 163.390625 53.953125 163.390625 59.285156 "/>
<path style=" stroke:none;fill-rule:nonzero;fill:rgb(88.0722%,61.1041%,14.2051%);fill-opacity:1;" d="M 210.605469 97.742188 C 210.605469 103.074219 202.605469 103.074219 202.605469 97.742188 C 202.605469 92.410156 210.605469 92.410156 210.605469 97.742188 "/>
<path style="fill:none;stroke-width:2;stroke-linecap:butt;stroke-linejoin:bevel;stroke:rgb(36.8417%,50.6779%,70.9798%);stroke-opacity:1;stroke-miterlimit:10;" d="M 148.882812 107.457031 L 196.605469 87.742188 L 197.503906 127.730469 Z M 148.882812 107.457031 " transform="matrix(1,0,0,1,10,10)"/>
<path style=" stroke:none;fill-rule:nonzero;fill:rgb(88.0722%,61.1041%,14.2051%);fill-opacity:1;" d="M 162.882812 117.457031 C 162.882812 122.792969 154.882812 122.792969 154.882812 117.457031 C 154.882812 112.125 162.882812 112.125 162.882812 117.457031 "/>
<path style=" stroke:none;fill-rule:nonzero;fill:rgb(88.0722%,61.1041%,14.2051%);fill-opacity:1;" d="M 210.605469 97.742188 C 210.605469 103.074219 202.605469 103.074219 202.605469 97.742188 C 202.605469 92.410156 210.605469 92.410156 210.605469 97.742188 "/>
<path style=" stroke:none;fill-rule:nonzero;fill:rgb(88.0722%,61.1041%,14.2051%);fill-opacity:1;" d="M 211.503906 137.730469 C 211.503906 143.066406 203.503906 143.066406 203.503906 137.730469 C 203.503906 132.398438 211.503906 132.398438 211.503906 137.730469 "/>
<path style="fill:none;stroke-width:2;stroke-linecap:butt;stroke-linejoin:bevel;stroke:rgb(36.8417%,50.6779%,70.9798%);stroke-opacity:1;stroke-miterlimit:10;" d="M 172.140625 158.660156 L 148.882812 107.457031 L 197.503906 127.730469 Z M 172.140625 158.660156 " transform="matrix(1,0,0,1,10,10)"/>
<path style=" stroke:none;fill-rule:nonzero;fill:rgb(88.0722%,61.1041%,14.2051%);fill-opacity:1;" d="M 186.140625 168.660156 C 186.140625 173.996094 178.140625 173.996094 178.140625 168.660156 C 178.140625 163.328125 186.140625 163.328125 186.140625 168.660156 "/>
<path style=" stroke:none;fill-rule:nonzero;fill:rgb(88.0722%,61.1041%,14.2051%);fill-opacity:1;" d="M 162.882812 117.457031 C 162.882812 122.792969 154.882812 122.792969 154.882812 117.457031 C 154.882812 112.125 162.882812 112.125 162.882812 117.457031 "/>
<path style=" stroke:none;fill-rule:nonzero;fill:rgb(88.0722%,61.1041%,14.2051%);fill-opacity:1;" d="M 211.503906 137.730469 C 211.503906 143.066406 203.503906 143.066406 203.503906 137.730469 C 203.503906 132.398438 211.503906 132.398438 211.503906 137.730469 "/>
<path style="fill:none;stroke-width:2;stroke-linecap:butt;stroke-linejoin:bevel;stroke:rgb(36.8417%,50.6779%,70.9798%);stroke-opacity:1;stroke-miterlimit:10;" d="M 149.390625 49.285156 L 112.632812 3.105469 L 163.253906 11.765625 Z M 149.390625 49.285156 " transform="matrix(1,0,0,1,10,10)"/>
<path style=" stroke:none;fill-rule:nonzero;fill:rgb(88.0722%,61.1041%,14.2051%);fill-opacity:1;" d="M 163.390625 59.285156 C 163.390625 64.621094 155.390625 64.621094 155.390625 59.285156 C 155.390625 53.953125 163.390625 53.953125 163.390625 59.285156 "/>
<path style=" stroke:none;fill-rule:nonzero;fill:rgb(88.0722%,61.1041%,14.2051%);fill-opacity:1;" d="M 126.632812 13.105469 C 126.632812 18.4375 118.632812 18.4375 118.632812 13.105469 C 118.632812 7.769531 126.632812 7.769531 126.632812 13.105469 "/>
<path style=" stroke:none;fill-rule:nonzero;fill:rgb(88.0722%,61.1041%,14.2051%);fill-opacity:1;" d="M 177.253906 21.765625 C 177.253906 27.101562 169.253906 27.101562 169.253906 21.765625 C 169.253906 16.433594 177.253906 16.433594 177.253906 21.765625 "/>
<path style="fill:none;stroke-width:2;stroke-linecap:butt;stroke-linejoin:bevel;stroke:rgb(36.8417%,50.6779%,70.9798%);stroke-opacity:1;stroke-miterlimit:10;" d="M 121.679688 78.132812 L 104.128906 42.191406 L 149.390625 49.285156 Z M 121.679688 78.132812 " transform="matrix(1,0,0,1,10,10)"/>
<path style=" stroke:none;fill-rule:nonzero;fill:rgb(88.0722%,61.1041%,14.2051%);fill-opacity:1;" d="M 135.679688 88.132812 C 135.679688 93.464844 127.679688 93.464844 127.679688 88.132812 C 127.679688 82.800781 135.679688 82.800781 135.679688 88.132812 "/>
<path style=" stroke:none;fill-rule:nonzero;fill:rgb(88.0722%,61.1041%,14.2051%);fill-opacity:1;" d="M 118.128906 52.191406 C 118.128906 57.523438 110.128906 57.523438 110.128906 52.191406 C 110.128906 46.855469 118.128906 46.855469 118.128906 52.191406 "/>
<path style=" stroke:none;fill-rule:nonzero;fill:rgb(88.0722%,61.1041%,14.2051%);fill-opacity:1;" d="M 163.390625 59.285156 C 163.390625 64.621094 155.390625 64.621094 155.390625 59.285156 C 155.390625 53.953125 163.390625 53.953125 163.390625 59.285156 "/>
<path style="fill:none;stroke-width:2;stroke-linecap:butt;stroke-linejoin:bevel;stroke:rgb(36.8417%,50.6779%,70.9798%);stroke-opacity:1;stroke-miterlimit:10;" d="M 34.40625 97.65625 L 6.214844 63.777344 L 45.945312 59.132812 Z M 34.40625 97.65625 " transform="matrix(1,0,0,1,10,10)"/>
<path style=" stroke:none;fill-rule:nonzero;fill:rgb(88.0722%,61.1041%,14.2051%);fill-opacity:1;" d="M 48.40625 107.65625 C 48.40625 112.992188 40.40625 112.992188 40.40625 107.65625 C 40.40625 102.324219 48.40625 102.324219 48.40625 107.65625 "/>
<path style=" stroke:none;fill-rule:nonzero;fill:rgb(88.0722%,61.1041%,14.2051%);fill-opacity:1;" d="M 20.214844 73.777344 C 20.214844 79.113281 12.214844 79.113281 12.214844 73.777344 C 12.214844 68.445312 20.214844 68.445312 20.214844 73.777344 "/>
<path style=" stroke:none;fill-rule:nonzero;fill:rgb(88.0722%,61.1041%,14.2051%);fill-opacity:1;" d="M 59.945312 69.132812 C 59.945312 74.464844 51.945312 74.464844 51.945312 69.132812 C 51.945312 63.796875 59.945312 63.796875 59.945312 69.132812 "/>
<path style="fill:none;stroke-width:2;stroke-linecap:butt;stroke-linejoin:bevel;stroke:rgb(36.8417%,50.6779%,70.9798%);stroke-opacity:1;stroke-miterlimit:10;" d="M 149.390625 49.285156 L 163.253906 11.765625 L 196.605469 87.742188 Z M 149.390625 49.285156 " transform="matrix(1,0,0,1,10,10)"/>
<path style=" stroke:none;fill-rule:nonzero;fill:rgb(88.0722%,61.1041%,14.2051%);fill-opacity:1;" d="M 163.390625 59.285156 C 163.390625 64.621094 155.390625 64.621094 155.390625 59.285156 C 155.390625 53.953125 163.390625 53.953125 163.390625 59.285156 "/>
<path style=" stroke:none;fill-rule:nonzero;fill:rgb(88.0722%,61.1041%,14.2051%);fill-opacity:1;" d="M 177.253906 21.765625 C 177.253906 27.101562 169.253906 27.101562 169.253906 21.765625 C 169.253906 16.433594 177.253906 16.433594 177.253906 21.765625 "/>
<path style=" stroke:none;fill-rule:nonzero;fill:rgb(88.0722%,61.1041%,14.2051%);fill-opacity:1;" d="M 210.605469 97.742188 C 210.605469 103.074219 202.605469 103.074219 202.605469 97.742188 C 202.605469 92.410156 210.605469 92.410156 210.605469 97.742188 "/>
<path style="fill:none;stroke-width:2;stroke-linecap:butt;stroke-linejoin:bevel;stroke:rgb(36.8417%,50.6779%,70.9798%);stroke-opacity:1;stroke-miterlimit:10;" d="M 104.128906 42.191406 L 112.632812 3.105469 L 149.390625 49.285156 Z M 104.128906 42.191406 " transform="matrix(1,0,0,1,10,10)"/>
<path style=" stroke:none;fill-rule:nonzero;fill:rgb(88.0722%,61.1041%,14.2051%);fill-opacity:1;" d="M 118.128906 52.191406 C 118.128906 57.523438 110.128906 57.523438 110.128906 52.191406 C 110.128906 46.855469 118.128906 46.855469 118.128906 52.191406 "/>
<path style=" stroke:none;fill-rule:nonzero;fill:rgb(88.0722%,61.1041%,14.2051%);fill-opacity:1;" d="M 126.632812 13.105469 C 126.632812 18.4375 118.632812 18.4375 118.632812 13.105469 C 118.632812 7.769531 126.632812 7.769531 126.632812 13.105469 "/>
<path style=" stroke:none;fill-rule:nonzero;fill:rgb(88.0722%,61.1041%,14.2051%);fill-opacity:1;" d="M 163.390625 59.285156 C 163.390625 64.621094 155.390625 64.621094 155.390625 59.285156 C 155.390625 53.953125 163.390625 53.953125 163.390625 59.285156 "/>
<path style="fill:none;stroke-width:2;stroke-linecap:butt;stroke-linejoin:bevel;stroke:rgb(36.8417%,50.6779%,70.9798%);stroke-opacity:1;stroke-miterlimit:10;" d="M 172.140625 158.660156 L 197.503906 127.730469 L 176.679688 198.402344 Z M 172.140625 158.660156 " transform="matrix(1,0,0,1,10,10)"/>
<path style=" stroke:none;fill-rule:nonzero;fill:rgb(88.0722%,61.1041%,14.2051%);fill-opacity:1;" d="M 186.140625 168.660156 C 186.140625 173.996094 178.140625 173.996094 178.140625 168.660156 C 178.140625 163.328125 186.140625 163.328125 186.140625 168.660156 "/>
<path style=" stroke:none;fill-rule:nonzero;fill:rgb(88.0722%,61.1041%,14.2051%);fill-opacity:1;" d="M 211.503906 137.730469 C 211.503906 143.066406 203.503906 143.066406 203.503906 137.730469 C 203.503906 132.398438 211.503906 132.398438 211.503906 137.730469 "/>
<path style=" stroke:none;fill-rule:nonzero;fill:rgb(88.0722%,61.1041%,14.2051%);fill-opacity:1;" d="M 190.679688 208.402344 C 190.679688 213.734375 182.679688 213.734375 182.679688 208.402344 C 182.679688 203.070312 190.679688 203.070312 190.679688 208.402344 "/>
<path style="fill:none;stroke-width:2;stroke-linecap:butt;stroke-linejoin:bevel;stroke:rgb(36.8417%,50.6779%,70.9798%);stroke-opacity:1;stroke-miterlimit:10;" d="M 45.945312 59.132812 L 6.214844 63.777344 L 42.785156 19.257812 Z M 45.945312 59.132812 " transform="matrix(1,0,0,1,10,10)"/>
<path style=" stroke:none;fill-rule:nonzero;fill:rgb(88.0722%,61.1041%,14.2051%);fill-opacity:1;" d="M 59.945312 69.132812 C 59.945312 74.464844 51.945312 74.464844 51.945312 69.132812 C 51.945312 63.796875 59.945312 63.796875 59.945312 69.132812 "/>
<path style=" stroke:none;fill-rule:nonzero;fill:rgb(88.0722%,61.1041%,14.2051%);fill-opacity:1;" d="M 20.214844 73.777344 C 20.214844 79.113281 12.214844 79.113281 12.214844 73.777344 C 12.214844 68.445312 20.214844 68.445312 20.214844 73.777344 "/>
<path style=" stroke:none;fill-rule:nonzero;fill:rgb(88.0722%,61.1041%,14.2051%);fill-opacity:1;" d="M 56.785156 29.257812 C 56.785156 34.589844 48.785156 34.589844 48.785156 29.257812 C 48.785156 23.921875 56.785156 23.921875 56.785156 29.257812 "/>
<path style="fill:none;stroke-width:2;stroke-linecap:butt;stroke-linejoin:bevel;stroke:rgb(36.8417%,50.6779%,70.9798%);stroke-opacity:1;stroke-miterlimit:10;" d="M 81.695312 77.074219 L 45.945312 59.132812 L 104.128906 42.191406 Z M 81.695312 77.074219 " transform="matrix(1,0,0,1,10,10)"/>
<path style=" stroke:none;fill-rule:nonzero;fill:rgb(88.0722%,61.1041%,14.2051%);fill-opacity:1;" d="M 95.695312 87.074219 C 95.695312 92.410156 87.695312 92.410156 87.695312 87.074219 C 87.695312 81.742188 95.695312 81.742188 95.695312 87.074219 "/>
<path style=" stroke:none;fill-rule:nonzero;fill:rgb(88.0722%,61.1041%,14.2051%);fill-opacity:1;" d="M 59.945312 69.132812 C 59.945312 74.464844 51.945312 74.464844 51.945312 69.132812 C 51.945312 63.796875 59.945312 63.796875 59.945312 69.132812 "/>
<path style=" stroke:none;fill-rule:nonzero;fill:rgb(88.0722%,61.1041%,14.2051%);fill-opacity:1;" d="M 118.128906 52.191406 C 118.128906 57.523438 110.128906 57.523438 110.128906 52.191406 C 110.128906 46.855469 118.128906 46.855469 118.128906 52.191406 "/>
<path style="fill:none;stroke-width:2;stroke-linecap:butt;stroke-linejoin:bevel;stroke:rgb(36.8417%,50.6779%,70.9798%);stroke-opacity:1;stroke-miterlimit:10;" d="M 45.945312 59.132812 L 42.785156 19.257812 L 104.128906 42.191406 Z M 45.945312 59.132812 " transform="matrix(1,0,0,1,10,10)"/>
<path style=" stroke:none;fill-rule:nonzero;fill:rgb(88.0722%,61.1041%,14.2051%);fill-opacity:1;" d="M 59.945312 69.132812 C 59.945312 74.464844 51.945312 74.464844 51.945312 69.132812 C 51.945312 63.796875 59.945312 63.796875 59.945312 69.132812 "/>
<path style=" stroke:none;fill-rule:nonzero;fill:rgb(88.0722%,61.1041%,14.2051%);fill-opacity:1;" d="M 56.785156 29.257812 C 56.785156 34.589844 48.785156 34.589844 48.785156 29.257812 C 48.785156 23.921875 56.785156 23.921875 56.785156 29.257812 "/>
<path style=" stroke:none;fill-rule:nonzero;fill:rgb(88.0722%,61.1041%,14.2051%);fill-opacity:1;" d="M 118.128906 52.191406 C 118.128906 57.523438 110.128906 57.523438 110.128906 52.191406 C 110.128906 46.855469 118.128906 46.855469 118.128906 52.191406 "/>
<path style="fill:none;stroke-width:2;stroke-linecap:butt;stroke-linejoin:bevel;stroke:rgb(36.8417%,50.6779%,70.9798%);stroke-opacity:1;stroke-miterlimit:10;" d="M 104.128906 42.191406 L 42.785156 19.257812 L 112.632812 3.105469 Z M 104.128906 42.191406 " transform="matrix(1,0,0,1,10,10)"/>
<path style=" stroke:none;fill-rule:nonzero;fill:rgb(88.0722%,61.1041%,14.2051%);fill-opacity:1;" d="M 118.128906 52.191406 C 118.128906 57.523438 110.128906 57.523438 110.128906 52.191406 C 110.128906 46.855469 118.128906 46.855469 118.128906 52.191406 "/>
<path style=" stroke:none;fill-rule:nonzero;fill:rgb(88.0722%,61.1041%,14.2051%);fill-opacity:1;" d="M 56.785156 29.257812 C 56.785156 34.589844 48.785156 34.589844 48.785156 29.257812 C 48.785156 23.921875 56.785156 23.921875 56.785156 29.257812 "/>
<path style=" stroke:none;fill-rule:nonzero;fill:rgb(88.0722%,61.1041%,14.2051%);fill-opacity:1;" d="M 126.632812 13.105469 C 126.632812 18.4375 118.632812 18.4375 118.632812 13.105469 C 118.632812 7.769531 126.632812 7.769531 126.632812 13.105469 "/>
</g>
</svg>
