<?xml version="1.0" encoding="UTF-8"?>
<svg xmlns="http://www.w3.org/2000/svg" xmlns:xlink="http://www.w3.org/1999/xlink" width="850pt" height="220pt" viewBox="0 0 850 220" version="1.1">
<g id="surface44">
<path style="fill:none;stroke-width:2;stroke-linecap:butt;stroke-linejoin:bevel;stroke:rgb(36.8417%,50.6779%,70.9798%);stroke-opacity:0.25;stroke-miterlimit:10;" d="M 0.714844 171.105469 L 4.960938 148.171875 L 39.714844 172.246094 Z M 0.714844 171.105469 " transform="matrix(1,0,0,1,10,10)"/>
<path style="fill:none;stroke-width:2;stroke-linecap:butt;stroke-linejoin:bevel;stroke:rgb(36.8417%,50.6779%,70.9798%);stroke-opacity:0.25;stroke-miterlimit:10;" d="M 0.914062 105.285156 L 4.960938 148.171875 L 0.714844 171.105469 Z M 0.914062 105.285156 " transform="matrix(1,0,0,1,10,10)"/>
<path style="fill:none;stroke-width:2;stroke-linecap:butt;stroke-linejoin:bevel;stroke:rgb(36.8417%,50.6779%,70.9798%);stroke-opacity:0.25;stroke-miterlimit:10;" d="M 0.914062 105.285156 L 31.871094 139.054688 L 4.960938 148.171875 Z M 0.914062 105.285156 " transform="matrix(1,0,0,1,10,10)"/>
<path style="fill:none;stroke-width:2;stroke-linecap:butt;stroke-linejoin:bevel;stroke:rgb(36.8417%,50.6779%,70.9798%);stroke-opacity:0.25;stroke-miterlimit:10;" d="M 0.914062 105.285156 L 45.410156 89.96875 L 31.871094 139.054688 Z M 0.914062 105.285156 " transform="matrix(1,0,0,1,10,10)"/>
<path style="fill:none;stroke-width:2;stroke-linecap:butt;stroke-linejoin:bevel;stroke:rgb(36.8417%,50.6779%,70.9798%);stroke-opacity:0.25;stroke-miterlimit:10;" d="M 3.046875 70.457031 L 14.460938 49.160156 L 45.410156 89.96875 Z M 3.046875 70.457031 " transform="matrix(1,0,0,1,10,10)"/>
<path style="fill:none;stroke-width:2;stroke-linecap:butt;stroke-linejoin:bevel;stroke:rgb(36.8417%,50.6779%,70.9798%);stroke-opacity:0.25;stroke-miterlimit:10;" d="M 3.046875 70.457031 L 45.410156 89.96875 L 0.914062 105.285156 Z M 3.046875 70.457031 " transform="matrix(1,0,0,1,10,10)"/>
<path style="fill:none;stroke-width:2;stroke-linecap:butt;stroke-linejoin:bevel;stroke:rgb(36.8417%,50.6779%,70.9798%);stroke-opacity:0.25;stroke-miterlimit:10;" d="M 38.734375 186.804688 L 0.714844 171.105469 L 39.714844 172.246094 Z M 38.734375 186.804688 " transform="matrix(1,0,0,1,10,10)"/>
<path style="fill:none;stroke-width:2;stroke-linecap:butt;stroke-linejoin:bevel;stroke:rgb(36.8417%,50.6779%,70.9798%);stroke-opacity:0.25;stroke-miterlimit:10;" d="M 38.734375 186.804688 L 39.714844 172.246094 L 135.039062 175.636719 Z M 38.734375 186.804688 " transform="matrix(1,0,0,1,10,10)"/>
<path style="fill:none;stroke-width:2;stroke-linecap:butt;stroke-linejoin:bevel;stroke:rgb(36.8417%,50.6779%,70.9798%);stroke-opacity:0.25;stroke-miterlimit:10;" d="M 39.714844 172.246094 L 4.960938 148.171875 L 31.871094 139.054688 Z M 39.714844 172.246094 " transform="matrix(1,0,0,1,10,10)"/>
<path style="fill:none;stroke-width:2;stroke-linecap:butt;stroke-linejoin:bevel;stroke:rgb(36.8417%,50.6779%,70.9798%);stroke-opacity:0.25;stroke-miterlimit:10;" d="M 70.113281 41.011719 L 45.410156 89.96875 L 14.460938 49.160156 Z M 70.113281 41.011719 " transform="matrix(1,0,0,1,10,10)"/>
<path style="fill:none;stroke-width:2;stroke-linecap:butt;stroke-linejoin:bevel;stroke:rgb(36.8417%,50.6779%,70.9798%);stroke-opacity:0.25;stroke-miterlimit:10;" d="M 70.113281 41.011719 L 113.800781 111.015625 L 45.410156 89.96875 Z M 70.113281 41.011719 " transform="matrix(1,0,0,1,10,10)"/>
<path style="fill:none;stroke-width:2;stroke-linecap:butt;stroke-linejoin:bevel;stroke:rgb(36.8417%,50.6779%,70.9798%);stroke-opacity:0.25;stroke-miterlimit:10;" d="M 80.785156 29.265625 L 105.320312 11.257812 L 104.589844 24.308594 Z M 80.785156 29.265625 " transform="matrix(1,0,0,1,10,10)"/>
<path style="fill:none;stroke-width:2;stroke-linecap:butt;stroke-linejoin:bevel;stroke:rgb(36.8417%,50.6779%,70.9798%);stroke-opacity:0.25;stroke-miterlimit:10;" d="M 103.707031 126.367188 L 31.871094 139.054688 L 45.410156 89.96875 Z M 103.707031 126.367188 " transform="matrix(1,0,0,1,10,10)"/>
<path style="fill:none;stroke-width:2;stroke-linecap:butt;stroke-linejoin:bevel;stroke:rgb(36.8417%,50.6779%,70.9798%);stroke-opacity:0.25;stroke-miterlimit:10;" d="M 103.707031 126.367188 L 39.714844 172.246094 L 31.871094 139.054688 Z M 103.707031 126.367188 " transform="matrix(1,0,0,1,10,10)"/>
<path style="fill:none;stroke-width:2;stroke-linecap:butt;stroke-linejoin:bevel;stroke:rgb(36.8417%,50.6779%,70.9798%);stroke-opacity:0.25;stroke-miterlimit:10;" d="M 103.707031 126.367188 L 135.039062 175.636719 L 39.714844 172.246094 Z M 103.707031 126.367188 " transform="matrix(1,0,0,1,10,10)"/>
<path style="fill:none;stroke-width:2;stroke-linecap:butt;stroke-linejoin:bevel;stroke:rgb(36.8417%,50.6779%,70.9798%);stroke-opacity:0.25;stroke-miterlimit:10;" d="M 107.101562 42.433594 L 70.113281 41.011719 L 80.785156 29.265625 Z M 107.101562 42.433594 " transform="matrix(1,0,0,1,10,10)"/>
<path style="fill:none;stroke-width:2;stroke-linecap:butt;stroke-linejoin:bevel;stroke:rgb(36.8417%,50.6779%,70.9798%);stroke-opacity:0.25;stroke-miterlimit:10;" d="M 107.101562 42.433594 L 80.785156 29.265625 L 104.589844 24.308594 Z M 107.101562 42.433594 " transform="matrix(1,0,0,1,10,10)"/>
<path style="fill:none;stroke-width:2;stroke-linecap:butt;stroke-linejoin:bevel;stroke:rgb(36.8417%,50.6779%,70.9798%);stroke-opacity:0.25;stroke-miterlimit:10;" d="M 107.101562 42.433594 L 104.589844 24.308594 L 135.191406 15.398438 Z M 107.101562 42.433594 " transform="matrix(1,0,0,1,10,10)"/>
<path style="fill:none;stroke-width:2;stroke-linecap:butt;stroke-linejoin:bevel;stroke:rgb(36.8417%,50.6779%,70.9798%);stroke-opacity:0.25;stroke-miterlimit:10;" d="M 107.101562 42.433594 L 113.800781 111.015625 L 70.113281 41.011719 Z M 107.101562 42.433594 " transform="matrix(1,0,0,1,10,10)"/>
<path style="fill:none;stroke-width:2;stroke-linecap:butt;stroke-linejoin:bevel;stroke:rgb(36.8417%,50.6779%,70.9798%);stroke-opacity:0.25;stroke-miterlimit:10;" d="M 107.101562 42.433594 L 128.136719 103.621094 L 113.800781 111.015625 Z M 107.101562 42.433594 " transform="matrix(1,0,0,1,10,10)"/>
<path style="fill:none;stroke-width:2;stroke-linecap:butt;stroke-linejoin:bevel;stroke:rgb(36.8417%,50.6779%,70.9798%);stroke-opacity:0.25;stroke-miterlimit:10;" d="M 107.101562 42.433594 L 135.191406 15.398438 L 154.253906 40.011719 Z M 107.101562 42.433594 " transform="matrix(1,0,0,1,10,10)"/>
<path style="fill:none;stroke-width:2;stroke-linecap:butt;stroke-linejoin:bevel;stroke:rgb(36.8417%,50.6779%,70.9798%);stroke-opacity:0.25;stroke-miterlimit:10;" d="M 107.101562 42.433594 L 154.253906 40.011719 L 155.703125 53.476562 Z M 107.101562 42.433594 " transform="matrix(1,0,0,1,10,10)"/>
<path style="fill:none;stroke-width:2;stroke-linecap:butt;stroke-linejoin:bevel;stroke:rgb(36.8417%,50.6779%,70.9798%);stroke-opacity:0.25;stroke-miterlimit:10;" d="M 107.101562 42.433594 L 155.128906 84.070312 L 128.136719 103.621094 Z M 107.101562 42.433594 " transform="matrix(1,0,0,1,10,10)"/>
<path style="fill:none;stroke-width:2;stroke-linecap:butt;stroke-linejoin:bevel;stroke:rgb(36.8417%,50.6779%,70.9798%);stroke-opacity:0.25;stroke-miterlimit:10;" d="M 107.101562 42.433594 L 155.703125 53.476562 L 155.128906 84.070312 Z M 107.101562 42.433594 " transform="matrix(1,0,0,1,10,10)"/>
<path style="fill:none;stroke-width:2;stroke-linecap:butt;stroke-linejoin:bevel;stroke:rgb(36.8417%,50.6779%,70.9798%);stroke-opacity:0.25;stroke-miterlimit:10;" d="M 113.800781 111.015625 L 103.707031 126.367188 L 45.410156 89.96875 Z M 113.800781 111.015625 " transform="matrix(1,0,0,1,10,10)"/>
<path style="fill:none;stroke-width:2;stroke-linecap:butt;stroke-linejoin:bevel;stroke:rgb(36.8417%,50.6779%,70.9798%);stroke-opacity:0.25;stroke-miterlimit:10;" d="M 113.800781 111.015625 L 128.136719 103.621094 L 143.179688 123.273438 Z M 113.800781 111.015625 " transform="matrix(1,0,0,1,10,10)"/>
<path style="fill:none;stroke-width:2;stroke-linecap:butt;stroke-linejoin:bevel;stroke:rgb(36.8417%,50.6779%,70.9798%);stroke-opacity:0.25;stroke-miterlimit:10;" d="M 113.800781 111.015625 L 143.179688 123.273438 L 103.707031 126.367188 Z M 113.800781 111.015625 " transform="matrix(1,0,0,1,10,10)"/>
<path style="fill:none;stroke-width:2;stroke-linecap:butt;stroke-linejoin:bevel;stroke:rgb(36.8417%,50.6779%,70.9798%);stroke-opacity:0.25;stroke-miterlimit:10;" d="M 118.304688 2.5 L 135.191406 15.398438 L 105.320312 11.257812 Z M 118.304688 2.5 " transform="matrix(1,0,0,1,10,10)"/>
<path style="fill:none;stroke-width:2;stroke-linecap:butt;stroke-linejoin:bevel;stroke:rgb(36.8417%,50.6779%,70.9798%);stroke-opacity:0.25;stroke-miterlimit:10;" d="M 118.304688 2.5 L 147.035156 2.515625 L 135.191406 15.398438 Z M 118.304688 2.5 " transform="matrix(1,0,0,1,10,10)"/>
<path style="fill:none;stroke-width:2;stroke-linecap:butt;stroke-linejoin:bevel;stroke:rgb(36.8417%,50.6779%,70.9798%);stroke-opacity:0.25;stroke-miterlimit:10;" d="M 135.191406 15.398438 L 104.589844 24.308594 L 105.320312 11.257812 Z M 135.191406 15.398438 " transform="matrix(1,0,0,1,10,10)"/>
<path style="fill:none;stroke-width:2;stroke-linecap:butt;stroke-linejoin:bevel;stroke:rgb(36.8417%,50.6779%,70.9798%);stroke-opacity:0.25;stroke-miterlimit:10;" d="M 143.179688 123.273438 L 135.039062 175.636719 L 103.707031 126.367188 Z M 143.179688 123.273438 " transform="matrix(1,0,0,1,10,10)"/>
<path style="fill:none;stroke-width:2;stroke-linecap:butt;stroke-linejoin:bevel;stroke:rgb(36.8417%,50.6779%,70.9798%);stroke-opacity:0.25;stroke-miterlimit:10;" d="M 143.179688 123.273438 L 182.507812 150.589844 L 135.039062 175.636719 Z M 143.179688 123.273438 " transform="matrix(1,0,0,1,10,10)"/>
<path style="fill:none;stroke-width:2;stroke-linecap:butt;stroke-linejoin:bevel;stroke:rgb(36.8417%,50.6779%,70.9798%);stroke-opacity:0.25;stroke-miterlimit:10;" d="M 147.035156 2.515625 L 154.253906 40.011719 L 135.191406 15.398438 Z M 147.035156 2.515625 " transform="matrix(1,0,0,1,10,10)"/>
<path style="fill:none;stroke-width:2;stroke-linecap:butt;stroke-linejoin:bevel;stroke:rgb(36.8417%,50.6779%,70.9798%);stroke-opacity:0.25;stroke-miterlimit:10;" d="M 150.363281 91.792969 L 128.136719 103.621094 L 155.128906 84.070312 Z M 150.363281 91.792969 " transform="matrix(1,0,0,1,10,10)"/>
<path style="fill:none;stroke-width:2;stroke-linecap:butt;stroke-linejoin:bevel;stroke:rgb(36.8417%,50.6779%,70.9798%);stroke-opacity:0.25;stroke-miterlimit:10;" d="M 150.363281 91.792969 L 143.179688 123.273438 L 128.136719 103.621094 Z M 150.363281 91.792969 " transform="matrix(1,0,0,1,10,10)"/>
<path style="fill:none;stroke-width:2;stroke-linecap:butt;stroke-linejoin:bevel;stroke:rgb(36.8417%,50.6779%,70.9798%);stroke-opacity:0.25;stroke-miterlimit:10;" d="M 150.363281 91.792969 L 155.128906 84.070312 L 182.402344 97.785156 Z M 150.363281 91.792969 " transform="matrix(1,0,0,1,10,10)"/>
<path style="fill:none;stroke-width:2;stroke-linecap:butt;stroke-linejoin:bevel;stroke:rgb(36.8417%,50.6779%,70.9798%);stroke-opacity:0.25;stroke-miterlimit:10;" d="M 150.363281 91.792969 L 182.402344 97.785156 L 143.179688 123.273438 Z M 150.363281 91.792969 " transform="matrix(1,0,0,1,10,10)"/>
<path style="fill:none;stroke-width:2;stroke-linecap:butt;stroke-linejoin:bevel;stroke:rgb(36.8417%,50.6779%,70.9798%);stroke-opacity:0.25;stroke-miterlimit:10;" d="M 155.703125 53.476562 L 154.253906 40.011719 L 173.804688 53.941406 Z M 155.703125 53.476562 " transform="matrix(1,0,0,1,10,10)"/>
<path style="fill:none;stroke-width:2;stroke-linecap:butt;stroke-linejoin:bevel;stroke:rgb(36.8417%,50.6779%,70.9798%);stroke-opacity:0.25;stroke-miterlimit:10;" d="M 181.886719 67.445312 L 155.128906 84.070312 L 155.703125 53.476562 Z M 181.886719 67.445312 " transform="matrix(1,0,0,1,10,10)"/>
<path style="fill:none;stroke-width:2;stroke-linecap:butt;stroke-linejoin:bevel;stroke:rgb(36.8417%,50.6779%,70.9798%);stroke-opacity:0.25;stroke-miterlimit:10;" d="M 181.886719 67.445312 L 155.703125 53.476562 L 173.804688 53.941406 Z M 181.886719 67.445312 " transform="matrix(1,0,0,1,10,10)"/>
<path style="fill:none;stroke-width:2;stroke-linecap:butt;stroke-linejoin:bevel;stroke:rgb(36.8417%,50.6779%,70.9798%);stroke-opacity:0.25;stroke-miterlimit:10;" d="M 181.886719 67.445312 L 182.402344 97.785156 L 155.128906 84.070312 Z M 181.886719 67.445312 " transform="matrix(1,0,0,1,10,10)"/>
<path style="fill:none;stroke-width:2;stroke-linecap:butt;stroke-linejoin:bevel;stroke:rgb(36.8417%,50.6779%,70.9798%);stroke-opacity:0.25;stroke-miterlimit:10;" d="M 182.402344 97.785156 L 182.507812 150.589844 L 143.179688 123.273438 Z M 182.402344 97.785156 " transform="matrix(1,0,0,1,10,10)"/>
<path style="fill:none;stroke-width:2;stroke-linecap:butt;stroke-linejoin:miter;stroke:rgb(36.8417%,50.6779%,70.9798%);stroke-opacity:1;stroke-miterlimit:10;" d="M 0 159.113281 L 20.472656 162.90625 L 20.023438 178.226562 L 11.035156 200 L 0 200 Z M 0 159.113281 " transform="matrix(1,0,0,1,10,10)"/>
<path style=" stroke:none;fill-rule:nonzero;fill:rgb(88.0722%,61.1041%,14.2051%);fill-opacity:1;" d="M 14.714844 181.105469 C 14.714844 186.441406 6.714844 186.441406 6.714844 181.105469 C 6.714844 175.773438 14.714844 175.773438 14.714844 181.105469 "/>
<path style="fill:none;stroke-width:2;stroke-linecap:butt;stroke-linejoin:miter;stroke:rgb(36.8417%,50.6779%,70.9798%);stroke-opacity:1;stroke-miterlimit:10;" d="M 0 87.75 L 20.1875 88.984375 L 27.960938 111.566406 L 12.394531 125.835938 L 0 127.003906 Z M 0 87.75 " transform="matrix(1,0,0,1,10,10)"/>
<path style=" stroke:none;fill-rule:nonzero;fill:rgb(88.0722%,61.1041%,14.2051%);fill-opacity:1;" d="M 14.914062 115.285156 C 14.914062 120.617188 6.914062 120.617188 6.914062 115.285156 C 6.914062 109.949219 14.914062 109.949219 14.914062 115.285156 "/>
<path style="fill:none;stroke-width:2;stroke-linecap:butt;stroke-linejoin:miter;stroke:rgb(36.8417%,50.6779%,70.9798%);stroke-opacity:1;stroke-miterlimit:10;" d="M 0 55.117188 L 28.699219 70.5 L 20.1875 88.984375 L 0 87.75 Z M 0 55.117188 " transform="matrix(1,0,0,1,10,10)"/>
<path style=" stroke:none;fill-rule:nonzero;fill:rgb(88.0722%,61.1041%,14.2051%);fill-opacity:1;" d="M 17.046875 80.457031 C 17.046875 85.789062 9.046875 85.789062 9.046875 80.457031 C 9.046875 75.121094 17.046875 75.121094 17.046875 80.457031 "/>
<path style="fill:none;stroke-width:2;stroke-linecap:butt;stroke-linejoin:miter;stroke:rgb(36.8417%,50.6779%,70.9798%);stroke-opacity:1;stroke-miterlimit:10;" d="M 0 127.003906 L 12.394531 125.835938 L 23.480469 158.558594 L 20.472656 162.90625 L 0 159.113281 Z M 0 127.003906 " transform="matrix(1,0,0,1,10,10)"/>
<path style=" stroke:none;fill-rule:nonzero;fill:rgb(88.0722%,61.1041%,14.2051%);fill-opacity:1;" d="M 18.960938 158.171875 C 18.960938 163.507812 10.960938 163.507812 10.960938 158.171875 C 10.960938 152.839844 18.960938 152.839844 18.960938 158.171875 "/>
<path style="fill:none;stroke-width:2;stroke-linecap:butt;stroke-linejoin:miter;stroke:rgb(36.8417%,50.6779%,70.9798%);stroke-opacity:1;stroke-miterlimit:10;" d="M 0 0 L 35.6875 0 L 44.277344 58.6875 L 28.699219 70.5 L 0 55.117188 Z M 0 0 " transform="matrix(1,0,0,1,10,10)"/>
<path style=" stroke:none;fill-rule:nonzero;fill:rgb(88.0722%,61.1041%,14.2051%);fill-opacity:1;" d="M 28.460938 59.160156 C 28.460938 64.492188 20.460938 64.492188 20.460938 59.160156 C 20.460938 53.824219 28.460938 53.824219 28.460938 59.160156 "/>
<path style="fill:none;stroke-width:2;stroke-linecap:butt;stroke-linejoin:miter;stroke:rgb(36.8417%,50.6779%,70.9798%);stroke-opacity:1;stroke-miterlimit:10;" d="M 12.394531 125.835938 L 27.960938 111.566406 L 65.902344 122.03125 L 70.398438 147.472656 L 23.480469 158.558594 Z M 12.394531 125.835938 " transform="matrix(1,0,0,1,10,10)"/>
<path style=" stroke:none;fill-rule:nonzero;fill:rgb(88.0722%,61.1041%,14.2051%);fill-opacity:1;" d="M 45.871094 149.054688 C 45.871094 154.386719 37.871094 154.386719 37.871094 149.054688 C 37.871094 143.71875 45.871094 143.71875 45.871094 149.054688 "/>
<path style="fill:none;stroke-width:2;stroke-linecap:butt;stroke-linejoin:miter;stroke:rgb(36.8417%,50.6779%,70.9798%);stroke-opacity:1;stroke-miterlimit:10;" d="M 11.035156 200 L 20.023438 178.226562 L 87.0625 182.757812 L 89.0625 200 Z M 11.035156 200 " transform="matrix(1,0,0,1,10,10)"/>
<path style=" stroke:none;fill-rule:nonzero;fill:rgb(88.0722%,61.1041%,14.2051%);fill-opacity:1;" d="M 52.734375 196.804688 C 52.734375 202.136719 44.734375 202.136719 44.734375 196.804688 C 44.734375 191.46875 52.734375 191.46875 52.734375 196.804688 "/>
<path style="fill:none;stroke-width:2;stroke-linecap:butt;stroke-linejoin:miter;stroke:rgb(36.8417%,50.6779%,70.9798%);stroke-opacity:1;stroke-miterlimit:10;" d="M 20.023438 178.226562 L 20.472656 162.90625 L 23.480469 158.558594 L 70.398438 147.472656 L 87.472656 171.289062 L 87.0625 182.757812 Z M 20.023438 178.226562 " transform="matrix(1,0,0,1,10,10)"/>
<path style=" stroke:none;fill-rule:nonzero;fill:rgb(88.0722%,61.1041%,14.2051%);fill-opacity:1;" d="M 53.714844 182.246094 C 53.714844 187.582031 45.714844 187.582031 45.714844 182.246094 C 45.714844 176.914062 53.714844 176.914062 53.714844 182.246094 "/>
<path style="fill:none;stroke-width:2;stroke-linecap:butt;stroke-linejoin:miter;stroke:rgb(36.8417%,50.6779%,70.9798%);stroke-opacity:1;stroke-miterlimit:10;" d="M 20.1875 88.984375 L 28.699219 70.5 L 44.277344 58.6875 L 85.992188 79.734375 L 79.851562 99.6875 L 65.902344 122.03125 L 27.960938 111.566406 Z M 20.1875 88.984375 " transform="matrix(1,0,0,1,10,10)"/>
<path style=" stroke:none;fill-rule:nonzero;fill:rgb(88.0722%,61.1041%,14.2051%);fill-opacity:1;" d="M 59.410156 99.96875 C 59.410156 105.300781 51.410156 105.300781 51.410156 99.96875 C 51.410156 94.636719 59.410156 94.636719 59.410156 99.96875 "/>
<path style="fill:none;stroke-width:2;stroke-linecap:butt;stroke-linejoin:miter;stroke:rgb(36.8417%,50.6779%,70.9798%);stroke-opacity:1;stroke-miterlimit:10;" d="M 35.6875 0 L 36.773438 0 L 88.40625 46.910156 L 87.171875 79 L 85.992188 79.734375 L 44.277344 58.6875 Z M 35.6875 0 " transform="matrix(1,0,0,1,10,10)"/>
<path style=" stroke:none;fill-rule:nonzero;fill:rgb(88.0722%,61.1041%,14.2051%);fill-opacity:1;" d="M 84.113281 51.011719 C 84.113281 56.34375 76.113281 56.34375 76.113281 51.011719 C 76.113281 45.679688 84.113281 45.679688 84.113281 51.011719 "/>
<path style="fill:none;stroke-width:2;stroke-linecap:butt;stroke-linejoin:miter;stroke:rgb(36.8417%,50.6779%,70.9798%);stroke-opacity:1;stroke-miterlimit:10;" d="M 36.773438 0 L 78.179688 0 L 90.644531 16.980469 L 94.386719 34.960938 L 88.40625 46.910156 Z M 36.773438 0 " transform="matrix(1,0,0,1,10,10)"/>
<path style=" stroke:none;fill-rule:nonzero;fill:rgb(88.0722%,61.1041%,14.2051%);fill-opacity:1;" d="M 94.785156 39.265625 C 94.785156 44.597656 86.785156 44.597656 86.785156 39.265625 C 86.785156 33.929688 94.785156 33.929688 94.785156 39.265625 "/>
<path style="fill:none;stroke-width:2;stroke-linecap:butt;stroke-linejoin:miter;stroke:rgb(36.8417%,50.6779%,70.9798%);stroke-opacity:1;stroke-miterlimit:10;" d="M 65.902344 122.03125 L 79.851562 99.6875 L 123.734375 128.542969 L 125.203125 147.292969 L 87.472656 171.289062 L 70.398438 147.472656 Z M 65.902344 122.03125 " transform="matrix(1,0,0,1,10,10)"/>
<path style=" stroke:none;fill-rule:nonzero;fill:rgb(88.0722%,61.1041%,14.2051%);fill-opacity:1;" d="M 117.707031 136.367188 C 117.707031 141.699219 109.707031 141.699219 109.707031 136.367188 C 109.707031 131.03125 117.707031 131.03125 117.707031 136.367188 "/>
<path style="fill:none;stroke-width:2;stroke-linecap:butt;stroke-linejoin:miter;stroke:rgb(36.8417%,50.6779%,70.9798%);stroke-opacity:1;stroke-miterlimit:10;" d="M 90.644531 16.980469 L 119.523438 18.597656 L 123.128906 30.976562 L 94.386719 34.960938 Z M 90.644531 16.980469 " transform="matrix(1,0,0,1,10,10)"/>
<path style=" stroke:none;fill-rule:nonzero;fill:rgb(88.0722%,61.1041%,14.2051%);fill-opacity:1;" d="M 118.589844 34.308594 C 118.589844 39.640625 110.589844 39.640625 110.589844 34.308594 C 110.589844 28.976562 118.589844 28.976562 118.589844 34.308594 "/>
<path style="fill:none;stroke-width:2;stroke-linecap:butt;stroke-linejoin:miter;stroke:rgb(36.8417%,50.6779%,70.9798%);stroke-opacity:1;stroke-miterlimit:10;" d="M 78.179688 0 L 107.171875 0 L 119.558594 18.363281 L 119.523438 18.597656 L 90.644531 16.980469 Z M 78.179688 0 " transform="matrix(1,0,0,1,10,10)"/>
<path style=" stroke:none;fill-rule:nonzero;fill:rgb(88.0722%,61.1041%,14.2051%);fill-opacity:1;" d="M 119.320312 21.257812 C 119.320312 26.589844 111.320312 26.589844 111.320312 21.257812 C 111.320312 15.925781 119.320312 15.925781 119.320312 21.257812 "/>
<path style="fill:none;stroke-width:2;stroke-linecap:butt;stroke-linejoin:miter;stroke:rgb(36.8417%,50.6779%,70.9798%);stroke-opacity:1;stroke-miterlimit:10;" d="M 87.171875 79 L 88.40625 46.910156 L 94.386719 34.960938 L 123.128906 30.976562 L 130.546875 38.683594 L 131.09375 49.316406 L 126.796875 68.234375 L 124.773438 70.566406 L 105.4375 77.214844 Z M 87.171875 79 " transform="matrix(1,0,0,1,10,10)"/>
<path style=" stroke:none;fill-rule:nonzero;fill:rgb(88.0722%,61.1041%,14.2051%);fill-opacity:1;" d="M 121.101562 52.433594 C 121.101562 57.765625 113.101562 57.765625 113.101562 52.433594 C 113.101562 47.101562 121.101562 47.101562 121.101562 52.433594 "/>
<path style="fill:none;stroke-width:2;stroke-linecap:butt;stroke-linejoin:miter;stroke:rgb(36.8417%,50.6779%,70.9798%);stroke-opacity:1;stroke-miterlimit:10;" d="M 79.851562 99.6875 L 85.992188 79.734375 L 87.171875 79 L 105.4375 77.214844 L 127.394531 119.773438 L 123.734375 128.542969 Z M 79.851562 99.6875 " transform="matrix(1,0,0,1,10,10)"/>
<path style=" stroke:none;fill-rule:nonzero;fill:rgb(88.0722%,61.1041%,14.2051%);fill-opacity:1;" d="M 127.800781 121.015625 C 127.800781 126.347656 119.800781 126.347656 119.800781 121.015625 C 119.800781 115.683594 127.800781 115.683594 127.800781 121.015625 "/>
<path style="fill:none;stroke-width:2;stroke-linecap:butt;stroke-linejoin:miter;stroke:rgb(36.8417%,50.6779%,70.9798%);stroke-opacity:1;stroke-miterlimit:10;" d="M 107.171875 0 L 132.671875 0 L 132.667969 1.195312 L 119.558594 18.363281 Z M 107.171875 0 " transform="matrix(1,0,0,1,10,10)"/>
<path style=" stroke:none;fill-rule:nonzero;fill:rgb(88.0722%,61.1041%,14.2051%);fill-opacity:1;" d="M 132.304688 12.5 C 132.304688 17.832031 124.304688 17.832031 124.304688 12.5 C 124.304688 7.167969 132.304688 7.167969 132.304688 12.5 "/>
<path style="fill:none;stroke-width:2;stroke-linecap:butt;stroke-linejoin:miter;stroke:rgb(36.8417%,50.6779%,70.9798%);stroke-opacity:1;stroke-miterlimit:10;" d="M 105.4375 77.214844 L 124.773438 70.566406 L 124.90625 70.753906 L 144.160156 106.9375 L 127.394531 119.773438 Z M 105.4375 77.214844 " transform="matrix(1,0,0,1,10,10)"/>
<path style=" stroke:none;fill-rule:nonzero;fill:rgb(88.0722%,61.1041%,14.2051%);fill-opacity:1;" d="M 142.136719 113.621094 C 142.136719 118.953125 134.136719 118.953125 134.136719 113.621094 C 134.136719 108.285156 142.136719 108.285156 142.136719 113.621094 "/>
<path style="fill:none;stroke-width:2;stroke-linecap:butt;stroke-linejoin:miter;stroke:rgb(36.8417%,50.6779%,70.9798%);stroke-opacity:1;stroke-miterlimit:10;" d="M 87.0625 182.757812 L 87.472656 171.289062 L 125.203125 147.292969 L 152.679688 151.566406 L 178.238281 200 L 89.0625 200 Z M 87.0625 182.757812 " transform="matrix(1,0,0,1,10,10)"/>
<path style=" stroke:none;fill-rule:nonzero;fill:rgb(88.0722%,61.1041%,14.2051%);fill-opacity:1;" d="M 149.039062 185.636719 C 149.039062 190.972656 141.039062 190.972656 141.039062 185.636719 C 141.039062 180.304688 149.039062 180.304688 149.039062 185.636719 "/>
<path style="fill:none;stroke-width:2;stroke-linecap:butt;stroke-linejoin:miter;stroke:rgb(36.8417%,50.6779%,70.9798%);stroke-opacity:1;stroke-miterlimit:10;" d="M 119.523438 18.597656 L 119.558594 18.363281 L 132.667969 1.195312 L 153.832031 20.648438 L 130.546875 38.683594 L 123.128906 30.976562 Z M 119.523438 18.597656 " transform="matrix(1,0,0,1,10,10)"/>
<path style=" stroke:none;fill-rule:nonzero;fill:rgb(88.0722%,61.1041%,14.2051%);fill-opacity:1;" d="M 149.191406 25.398438 C 149.191406 30.730469 141.191406 30.730469 141.191406 25.398438 C 141.191406 20.066406 149.191406 20.066406 149.191406 25.398438 "/>
<path style="fill:none;stroke-width:2;stroke-linecap:butt;stroke-linejoin:miter;stroke:rgb(36.8417%,50.6779%,70.9798%);stroke-opacity:1;stroke-miterlimit:10;" d="M 123.734375 128.542969 L 127.394531 119.773438 L 144.160156 106.9375 L 163.292969 111.304688 L 171.679688 124.207031 L 152.679688 151.566406 L 125.203125 147.292969 Z M 123.734375 128.542969 " transform="matrix(1,0,0,1,10,10)"/>
<path style=" stroke:none;fill-rule:nonzero;fill:rgb(88.0722%,61.1041%,14.2051%);fill-opacity:1;" d="M 157.179688 133.273438 C 157.179688 138.609375 149.179688 138.609375 149.179688 133.273438 C 149.179688 127.941406 157.179688 127.941406 157.179688 133.273438 "/>
<path style="fill:none;stroke-width:2;stroke-linecap:butt;stroke-linejoin:miter;stroke:rgb(36.8417%,50.6779%,70.9798%);stroke-opacity:1;stroke-miterlimit:10;" d="M 132.667969 1.195312 L 132.671875 0 L 200 0 L 200 11.761719 L 153.832031 20.648438 Z M 132.667969 1.195312 " transform="matrix(1,0,0,1,10,10)"/>
<path style=" stroke:none;fill-rule:nonzero;fill:rgb(88.0722%,61.1041%,14.2051%);fill-opacity:1;" d="M 161.035156 12.515625 C 161.035156 17.851562 153.035156 17.851562 153.035156 12.515625 C 153.035156 7.183594 161.035156 7.183594 161.035156 12.515625 "/>
<path style="fill:none;stroke-width:2;stroke-linecap:butt;stroke-linejoin:miter;stroke:rgb(36.8417%,50.6779%,70.9798%);stroke-opacity:1;stroke-miterlimit:10;" d="M 124.90625 70.753906 L 166.121094 96.1875 L 163.292969 111.304688 L 144.160156 106.9375 Z M 124.90625 70.753906 " transform="matrix(1,0,0,1,10,10)"/>
<path style=" stroke:none;fill-rule:nonzero;fill:rgb(88.0722%,61.1041%,14.2051%);fill-opacity:1;" d="M 164.363281 101.792969 C 164.363281 107.125 156.363281 107.125 156.363281 101.792969 C 156.363281 96.460938 164.363281 96.460938 164.363281 101.792969 "/>
<path style="fill:none;stroke-width:2;stroke-linecap:butt;stroke-linejoin:miter;stroke:rgb(36.8417%,50.6779%,70.9798%);stroke-opacity:1;stroke-miterlimit:10;" d="M 130.546875 38.683594 L 153.832031 20.648438 L 200 11.761719 L 208.804688 10.066406 L 200 0 L 198.621094 -1.578125 L 197.496094 0 L 164.960938 45.667969 L 131.09375 49.316406 Z M 130.546875 38.683594 " transform="matrix(1,0,0,1,10,10)"/>
<path style=" stroke:none;fill-rule:nonzero;fill:rgb(88.0722%,61.1041%,14.2051%);fill-opacity:1;" d="M 168.253906 50.011719 C 168.253906 55.34375 160.253906 55.34375 160.253906 50.011719 C 160.253906 44.679688 168.253906 44.679688 168.253906 50.011719 "/>
<path style="fill:none;stroke-width:2;stroke-linecap:butt;stroke-linejoin:miter;stroke:rgb(36.8417%,50.6779%,70.9798%);stroke-opacity:1;stroke-miterlimit:10;" d="M 124.773438 70.566406 L 126.796875 68.234375 L 164.269531 68.941406 L 172.863281 82.773438 L 166.121094 96.1875 L 124.90625 70.753906 Z M 124.773438 70.566406 " transform="matrix(1,0,0,1,10,10)"/>
<path style=" stroke:none;fill-rule:nonzero;fill:rgb(88.0722%,61.1041%,14.2051%);fill-opacity:1;" d="M 169.128906 94.070312 C 169.128906 99.40625 161.128906 99.40625 161.128906 94.070312 C 161.128906 88.738281 169.128906 88.738281 169.128906 94.070312 "/>
<path style="fill:none;stroke-width:2;stroke-linecap:butt;stroke-linejoin:miter;stroke:rgb(36.8417%,50.6779%,70.9798%);stroke-opacity:1;stroke-miterlimit:10;" d="M 126.796875 68.234375 L 131.09375 49.316406 L 164.960938 45.667969 L 164.367188 68.757812 L 164.269531 68.941406 Z M 126.796875 68.234375 " transform="matrix(1,0,0,1,10,10)"/>
<path style=" stroke:none;fill-rule:nonzero;fill:rgb(88.0722%,61.1041%,14.2051%);fill-opacity:1;" d="M 169.703125 63.476562 C 169.703125 68.808594 161.703125 68.808594 161.703125 63.476562 C 161.703125 58.140625 169.703125 58.140625 169.703125 63.476562 "/>
<path style="fill:none;stroke-width:2;stroke-linecap:butt;stroke-linejoin:miter;stroke:rgb(36.8417%,50.6779%,70.9798%);stroke-opacity:1;stroke-miterlimit:10;" d="M 164.367188 68.757812 L 164.960938 45.667969 L 197.496094 0 L 200 0 L 200 47.4375 Z M 164.367188 68.757812 " transform="matrix(1,0,0,1,10,10)"/>
<path style=" stroke:none;fill-rule:nonzero;fill:rgb(88.0722%,61.1041%,14.2051%);fill-opacity:1;" d="M 187.804688 63.941406 C 187.804688 69.273438 179.804688 69.273438 179.804688 63.941406 C 179.804688 58.605469 187.804688 58.605469 187.804688 63.941406 "/>
<path style="fill:none;stroke-width:2;stroke-linecap:butt;stroke-linejoin:miter;stroke:rgb(36.8417%,50.6779%,70.9798%);stroke-opacity:1;stroke-miterlimit:10;" d="M 164.269531 68.941406 L 164.367188 68.757812 L 200 47.4375 L 200 82.308594 L 172.863281 82.773438 Z M 164.269531 68.941406 " transform="matrix(1,0,0,1,10,10)"/>
<path style=" stroke:none;fill-rule:nonzero;fill:rgb(88.0722%,61.1041%,14.2051%);fill-opacity:1;" d="M 195.886719 77.445312 C 195.886719 82.777344 187.886719 82.777344 187.886719 77.445312 C 187.886719 72.109375 195.886719 72.109375 195.886719 77.445312 "/>
<path style="fill:none;stroke-width:2;stroke-linecap:butt;stroke-linejoin:miter;stroke:rgb(36.8417%,50.6779%,70.9798%);stroke-opacity:1;stroke-miterlimit:10;" d="M 163.292969 111.304688 L 166.121094 96.1875 L 172.863281 82.773438 L 200 82.308594 L 200 124.152344 L 171.679688 124.207031 Z M 163.292969 111.304688 " transform="matrix(1,0,0,1,10,10)"/>
<path style=" stroke:none;fill-rule:nonzero;fill:rgb(88.0722%,61.1041%,14.2051%);fill-opacity:1;" d="M 196.402344 107.785156 C 196.402344 113.117188 188.402344 113.117188 188.402344 107.785156 C 188.402344 102.449219 196.402344 102.449219 196.402344 107.785156 "/>
<path style="fill:none;stroke-width:2;stroke-linecap:butt;stroke-linejoin:miter;stroke:rgb(36.8417%,50.6779%,70.9798%);stroke-opacity:1;stroke-miterlimit:10;" d="M 152.679688 151.566406 L 171.679688 124.207031 L 200 124.152344 L 200 200 L 178.238281 200 Z M 152.679688 151.566406 " transform="matrix(1,0,0,1,10,10)"/>
<path style=" stroke:none;fill-rule:nonzero;fill:rgb(88.0722%,61.1041%,14.2051%);fill-opacity:1;" d="M 196.507812 160.589844 C 196.507812 165.921875 188.507812 165.921875 188.507812 160.589844 C 188.507812 155.257812 196.507812 155.257812 196.507812 160.589844 "/>
<path style="fill:none;stroke-width:2;stroke-linecap:butt;stroke-linejoin:bevel;stroke:rgb(36.8417%,50.6779%,70.9798%);stroke-opacity:0.25;stroke-miterlimit:10;" d="M 40.632812 134.921875 L 9.722656 145.523438 L 11.46875 106.632812 Z M 40.632812 134.921875 " transform="matrix(1,0,0,1,220,10)"/>
<path style="fill:none;stroke-width:2;stroke-linecap:butt;stroke-linejoin:bevel;stroke:rgb(36.8417%,50.6779%,70.9798%);stroke-opacity:0.25;stroke-miterlimit:10;" d="M 51.898438 90.851562 L 11.46875 106.632812 L 11.523438 74.402344 Z M 51.898438 90.851562 " transform="matrix(1,0,0,1,220,10)"/>
<path style="fill:none;stroke-width:2;stroke-linecap:butt;stroke-linejoin:bevel;stroke:rgb(36.8417%,50.6779%,70.9798%);stroke-opacity:0.25;stroke-miterlimit:10;" d="M 51.898438 90.851562 L 40.632812 134.921875 L 11.46875 106.632812 Z M 51.898438 90.851562 " transform="matrix(1,0,0,1,220,10)"/>
<path style="fill:none;stroke-width:2;stroke-linecap:butt;stroke-linejoin:bevel;stroke:rgb(36.8417%,50.6779%,70.9798%);stroke-opacity:0.25;stroke-miterlimit:10;" d="M 54.550781 167.226562 L 8.882812 178.660156 L 9.722656 145.523438 Z M 54.550781 167.226562 " transform="matrix(1,0,0,1,220,10)"/>
<path style="fill:none;stroke-width:2;stroke-linecap:butt;stroke-linejoin:bevel;stroke:rgb(36.8417%,50.6779%,70.9798%);stroke-opacity:0.25;stroke-miterlimit:10;" d="M 54.550781 167.226562 L 9.722656 145.523438 L 40.632812 134.921875 Z M 54.550781 167.226562 " transform="matrix(1,0,0,1,220,10)"/>
<path style="fill:none;stroke-width:2;stroke-linecap:butt;stroke-linejoin:bevel;stroke:rgb(36.8417%,50.6779%,70.9798%);stroke-opacity:0.25;stroke-miterlimit:10;" d="M 54.550781 167.226562 L 50.253906 190.425781 L 8.882812 178.660156 Z M 54.550781 167.226562 " transform="matrix(1,0,0,1,220,10)"/>
<path style="fill:none;stroke-width:2;stroke-linecap:butt;stroke-linejoin:bevel;stroke:rgb(36.8417%,50.6779%,70.9798%);stroke-opacity:0.25;stroke-miterlimit:10;" d="M 62.039062 44.242188 L 11.523438 74.402344 L 20.714844 33.070312 Z M 62.039062 44.242188 " transform="matrix(1,0,0,1,220,10)"/>
<path style="fill:none;stroke-width:2;stroke-linecap:butt;stroke-linejoin:bevel;stroke:rgb(36.8417%,50.6779%,70.9798%);stroke-opacity:0.25;stroke-miterlimit:10;" d="M 62.039062 44.242188 L 51.898438 90.851562 L 11.523438 74.402344 Z M 62.039062 44.242188 " transform="matrix(1,0,0,1,220,10)"/>
<path style="fill:none;stroke-width:2;stroke-linecap:butt;stroke-linejoin:bevel;stroke:rgb(36.8417%,50.6779%,70.9798%);stroke-opacity:0.25;stroke-miterlimit:10;" d="M 72.152344 17.617188 L 62.039062 44.242188 L 20.714844 33.070312 Z M 72.152344 17.617188 " transform="matrix(1,0,0,1,220,10)"/>
<path style="fill:none;stroke-width:2;stroke-linecap:butt;stroke-linejoin:bevel;stroke:rgb(36.8417%,50.6779%,70.9798%);stroke-opacity:0.25;stroke-miterlimit:10;" d="M 93.40625 135.835938 L 40.632812 134.921875 L 51.898438 90.851562 Z M 93.40625 135.835938 " transform="matrix(1,0,0,1,220,10)"/>
<path style="fill:none;stroke-width:2;stroke-linecap:butt;stroke-linejoin:bevel;stroke:rgb(36.8417%,50.6779%,70.9798%);stroke-opacity:0.25;stroke-miterlimit:10;" d="M 93.40625 135.835938 L 54.550781 167.226562 L 40.632812 134.921875 Z M 93.40625 135.835938 " transform="matrix(1,0,0,1,220,10)"/>
<path style="fill:none;stroke-width:2;stroke-linecap:butt;stroke-linejoin:bevel;stroke:rgb(36.8417%,50.6779%,70.9798%);stroke-opacity:0.25;stroke-miterlimit:10;" d="M 99.117188 8.847656 L 106.054688 25.46875 L 72.152344 17.617188 Z M 99.117188 8.847656 " transform="matrix(1,0,0,1,220,10)"/>
<path style="fill:none;stroke-width:2;stroke-linecap:butt;stroke-linejoin:bevel;stroke:rgb(36.8417%,50.6779%,70.9798%);stroke-opacity:0.25;stroke-miterlimit:10;" d="M 103.300781 100.191406 L 51.898438 90.851562 L 108.441406 54.640625 Z M 103.300781 100.191406 " transform="matrix(1,0,0,1,220,10)"/>
<path style="fill:none;stroke-width:2;stroke-linecap:butt;stroke-linejoin:bevel;stroke:rgb(36.8417%,50.6779%,70.9798%);stroke-opacity:0.25;stroke-miterlimit:10;" d="M 103.300781 100.191406 L 93.40625 135.835938 L 51.898438 90.851562 Z M 103.300781 100.191406 " transform="matrix(1,0,0,1,220,10)"/>
<path style="fill:none;stroke-width:2;stroke-linecap:butt;stroke-linejoin:bevel;stroke:rgb(36.8417%,50.6779%,70.9798%);stroke-opacity:0.25;stroke-miterlimit:10;" d="M 106.054688 25.46875 L 62.039062 44.242188 L 72.152344 17.617188 Z M 106.054688 25.46875 " transform="matrix(1,0,0,1,220,10)"/>
<path style="fill:none;stroke-width:2;stroke-linecap:butt;stroke-linejoin:bevel;stroke:rgb(36.8417%,50.6779%,70.9798%);stroke-opacity:0.25;stroke-miterlimit:10;" d="M 108.441406 54.640625 L 51.898438 90.851562 L 62.039062 44.242188 Z M 108.441406 54.640625 " transform="matrix(1,0,0,1,220,10)"/>
<path style="fill:none;stroke-width:2;stroke-linecap:butt;stroke-linejoin:bevel;stroke:rgb(36.8417%,50.6779%,70.9798%);stroke-opacity:0.25;stroke-miterlimit:10;" d="M 108.441406 54.640625 L 62.039062 44.242188 L 106.054688 25.46875 Z M 108.441406 54.640625 " transform="matrix(1,0,0,1,220,10)"/>
<path style="fill:none;stroke-width:2;stroke-linecap:butt;stroke-linejoin:bevel;stroke:rgb(36.8417%,50.6779%,70.9798%);stroke-opacity:0.25;stroke-miterlimit:10;" d="M 120.074219 6.132812 L 106.054688 25.46875 L 99.117188 8.847656 Z M 120.074219 6.132812 " transform="matrix(1,0,0,1,220,10)"/>
<path style="fill:none;stroke-width:2;stroke-linecap:butt;stroke-linejoin:bevel;stroke:rgb(36.8417%,50.6779%,70.9798%);stroke-opacity:0.25;stroke-miterlimit:10;" d="M 125.269531 93.832031 L 103.300781 100.191406 L 108.441406 54.640625 Z M 125.269531 93.832031 " transform="matrix(1,0,0,1,220,10)"/>
<path style="fill:none;stroke-width:2;stroke-linecap:butt;stroke-linejoin:bevel;stroke:rgb(36.8417%,50.6779%,70.9798%);stroke-opacity:0.25;stroke-miterlimit:10;" d="M 129.515625 178.136719 L 50.253906 190.425781 L 54.550781 167.226562 Z M 129.515625 178.136719 " transform="matrix(1,0,0,1,220,10)"/>
<path style="fill:none;stroke-width:2;stroke-linecap:butt;stroke-linejoin:bevel;stroke:rgb(36.8417%,50.6779%,70.9798%);stroke-opacity:0.25;stroke-miterlimit:10;" d="M 129.515625 178.136719 L 54.550781 167.226562 L 93.40625 135.835938 Z M 129.515625 178.136719 " transform="matrix(1,0,0,1,220,10)"/>
<path style="fill:none;stroke-width:2;stroke-linecap:butt;stroke-linejoin:bevel;stroke:rgb(36.8417%,50.6779%,70.9798%);stroke-opacity:0.25;stroke-miterlimit:10;" d="M 134.457031 20.367188 L 106.054688 25.46875 L 120.074219 6.132812 Z M 134.457031 20.367188 " transform="matrix(1,0,0,1,220,10)"/>
<path style="fill:none;stroke-width:2;stroke-linecap:butt;stroke-linejoin:bevel;stroke:rgb(36.8417%,50.6779%,70.9798%);stroke-opacity:0.25;stroke-miterlimit:10;" d="M 134.457031 20.367188 L 108.441406 54.640625 L 106.054688 25.46875 Z M 134.457031 20.367188 " transform="matrix(1,0,0,1,220,10)"/>
<path style="fill:none;stroke-width:2;stroke-linecap:butt;stroke-linejoin:bevel;stroke:rgb(36.8417%,50.6779%,70.9798%);stroke-opacity:0.25;stroke-miterlimit:10;" d="M 145.972656 129.382812 L 93.40625 135.835938 L 103.300781 100.191406 Z M 145.972656 129.382812 " transform="matrix(1,0,0,1,220,10)"/>
<path style="fill:none;stroke-width:2;stroke-linecap:butt;stroke-linejoin:bevel;stroke:rgb(36.8417%,50.6779%,70.9798%);stroke-opacity:0.25;stroke-miterlimit:10;" d="M 145.972656 129.382812 L 103.300781 100.191406 L 125.269531 93.832031 Z M 145.972656 129.382812 " transform="matrix(1,0,0,1,220,10)"/>
<path style="fill:none;stroke-width:2;stroke-linecap:butt;stroke-linejoin:bevel;stroke:rgb(36.8417%,50.6779%,70.9798%);stroke-opacity:0.25;stroke-miterlimit:10;" d="M 145.972656 129.382812 L 129.515625 178.136719 L 93.40625 135.835938 Z M 145.972656 129.382812 " transform="matrix(1,0,0,1,220,10)"/>
<path style="fill:none;stroke-width:2;stroke-linecap:butt;stroke-linejoin:bevel;stroke:rgb(36.8417%,50.6779%,70.9798%);stroke-opacity:0.25;stroke-miterlimit:10;" d="M 147.417969 58.222656 L 108.441406 54.640625 L 150.003906 37.273438 Z M 147.417969 58.222656 " transform="matrix(1,0,0,1,220,10)"/>
<path style="fill:none;stroke-width:2;stroke-linecap:butt;stroke-linejoin:bevel;stroke:rgb(36.8417%,50.6779%,70.9798%);stroke-opacity:0.25;stroke-miterlimit:10;" d="M 147.417969 58.222656 L 125.269531 93.832031 L 108.441406 54.640625 Z M 147.417969 58.222656 " transform="matrix(1,0,0,1,220,10)"/>
<path style="fill:none;stroke-width:2;stroke-linecap:butt;stroke-linejoin:bevel;stroke:rgb(36.8417%,50.6779%,70.9798%);stroke-opacity:0.25;stroke-miterlimit:10;" d="M 147.417969 58.222656 L 153.257812 78.582031 L 125.269531 93.832031 Z M 147.417969 58.222656 " transform="matrix(1,0,0,1,220,10)"/>
<path style="fill:none;stroke-width:2;stroke-linecap:butt;stroke-linejoin:bevel;stroke:rgb(36.8417%,50.6779%,70.9798%);stroke-opacity:0.25;stroke-miterlimit:10;" d="M 148.023438 94.421875 L 145.972656 129.382812 L 125.269531 93.832031 Z M 148.023438 94.421875 " transform="matrix(1,0,0,1,220,10)"/>
<path style="fill:none;stroke-width:2;stroke-linecap:butt;stroke-linejoin:bevel;stroke:rgb(36.8417%,50.6779%,70.9798%);stroke-opacity:0.25;stroke-miterlimit:10;" d="M 150.003906 37.273438 L 108.441406 54.640625 L 134.457031 20.367188 Z M 150.003906 37.273438 " transform="matrix(1,0,0,1,220,10)"/>
<path style="fill:none;stroke-width:2;stroke-linecap:butt;stroke-linejoin:bevel;stroke:rgb(36.8417%,50.6779%,70.9798%);stroke-opacity:0.25;stroke-miterlimit:10;" d="M 150.003906 37.273438 L 134.457031 20.367188 L 168.097656 7.976562 Z M 150.003906 37.273438 " transform="matrix(1,0,0,1,220,10)"/>
<path style="fill:none;stroke-width:2;stroke-linecap:butt;stroke-linejoin:bevel;stroke:rgb(36.8417%,50.6779%,70.9798%);stroke-opacity:0.25;stroke-miterlimit:10;" d="M 153.257812 78.582031 L 148.023438 94.421875 L 125.269531 93.832031 Z M 153.257812 78.582031 " transform="matrix(1,0,0,1,220,10)"/>
<path style="fill:none;stroke-width:2;stroke-linecap:butt;stroke-linejoin:bevel;stroke:rgb(36.8417%,50.6779%,70.9798%);stroke-opacity:0.25;stroke-miterlimit:10;" d="M 168.097656 7.976562 L 134.457031 20.367188 L 120.074219 6.132812 Z M 168.097656 7.976562 " transform="matrix(1,0,0,1,220,10)"/>
<path style="fill:none;stroke-width:2;stroke-linecap:butt;stroke-linejoin:bevel;stroke:rgb(36.8417%,50.6779%,70.9798%);stroke-opacity:0.25;stroke-miterlimit:10;" d="M 181.464844 159.882812 L 129.515625 178.136719 L 145.972656 129.382812 Z M 181.464844 159.882812 " transform="matrix(1,0,0,1,220,10)"/>
<path style="fill:none;stroke-width:2;stroke-linecap:butt;stroke-linejoin:bevel;stroke:rgb(36.8417%,50.6779%,70.9798%);stroke-opacity:0.25;stroke-miterlimit:10;" d="M 181.464844 159.882812 L 145.972656 129.382812 L 183.480469 103.695312 Z M 181.464844 159.882812 " transform="matrix(1,0,0,1,220,10)"/>
<path style="fill:none;stroke-width:2;stroke-linecap:butt;stroke-linejoin:bevel;stroke:rgb(36.8417%,50.6779%,70.9798%);stroke-opacity:0.25;stroke-miterlimit:10;" d="M 183.480469 103.695312 L 145.972656 129.382812 L 148.023438 94.421875 Z M 183.480469 103.695312 " transform="matrix(1,0,0,1,220,10)"/>
<path style="fill:none;stroke-width:2;stroke-linecap:butt;stroke-linejoin:bevel;stroke:rgb(36.8417%,50.6779%,70.9798%);stroke-opacity:0.25;stroke-miterlimit:10;" d="M 183.480469 103.695312 L 148.023438 94.421875 L 153.257812 78.582031 Z M 183.480469 103.695312 " transform="matrix(1,0,0,1,220,10)"/>
<path style="fill:none;stroke-width:2;stroke-linecap:butt;stroke-linejoin:bevel;stroke:rgb(36.8417%,50.6779%,70.9798%);stroke-opacity:0.25;stroke-miterlimit:10;" d="M 183.480469 103.695312 L 153.257812 78.582031 L 185.953125 68.957031 Z M 183.480469 103.695312 " transform="matrix(1,0,0,1,220,10)"/>
<path style="fill:none;stroke-width:2;stroke-linecap:butt;stroke-linejoin:bevel;stroke:rgb(36.8417%,50.6779%,70.9798%);stroke-opacity:0.25;stroke-miterlimit:10;" d="M 184.5625 37.511719 L 147.417969 58.222656 L 150.003906 37.273438 Z M 184.5625 37.511719 " transform="matrix(1,0,0,1,220,10)"/>
<path style="fill:none;stroke-width:2;stroke-linecap:butt;stroke-linejoin:bevel;stroke:rgb(36.8417%,50.6779%,70.9798%);stroke-opacity:0.25;stroke-miterlimit:10;" d="M 184.5625 37.511719 L 150.003906 37.273438 L 168.097656 7.976562 Z M 184.5625 37.511719 " transform="matrix(1,0,0,1,220,10)"/>
<path style="fill:none;stroke-width:2;stroke-linecap:butt;stroke-linejoin:bevel;stroke:rgb(36.8417%,50.6779%,70.9798%);stroke-opacity:0.25;stroke-miterlimit:10;" d="M 185.953125 68.957031 L 147.417969 58.222656 L 184.5625 37.511719 Z M 185.953125 68.957031 " transform="matrix(1,0,0,1,220,10)"/>
<path style="fill:none;stroke-width:2;stroke-linecap:butt;stroke-linejoin:bevel;stroke:rgb(36.8417%,50.6779%,70.9798%);stroke-opacity:0.25;stroke-miterlimit:10;" d="M 185.953125 68.957031 L 153.257812 78.582031 L 147.417969 58.222656 Z M 185.953125 68.957031 " transform="matrix(1,0,0,1,220,10)"/>
<path style="fill:none;stroke-width:2;stroke-linecap:butt;stroke-linejoin:miter;stroke:rgb(36.8417%,50.6779%,70.9798%);stroke-opacity:1;stroke-miterlimit:10;" d="M 0 161.855469 L 29.125 162.59375 L 32.253906 175.097656 L 25.171875 200 L 0 200 Z M 0 161.855469 " transform="matrix(1,0,0,1,220,10)"/>
<path style=" stroke:none;fill-rule:nonzero;fill:rgb(88.0722%,61.1041%,14.2051%);fill-opacity:1;" d="M 232.882812 188.660156 C 232.882812 193.992188 224.882812 193.992188 224.882812 188.660156 C 224.882812 183.324219 232.882812 183.324219 232.882812 188.660156 "/>
<path style="fill:none;stroke-width:2;stroke-linecap:butt;stroke-linejoin:miter;stroke:rgb(36.8417%,50.6779%,70.9798%);stroke-opacity:1;stroke-miterlimit:10;" d="M 0 125.601562 L 20.480469 126.523438 L 31.304688 158.089844 L 29.125 162.59375 L 0 161.855469 Z M 0 125.601562 " transform="matrix(1,0,0,1,220,10)"/>
<path style=" stroke:none;fill-rule:nonzero;fill:rgb(88.0722%,61.1041%,14.2051%);fill-opacity:1;" d="M 233.722656 155.523438 C 233.722656 160.855469 225.722656 160.855469 225.722656 155.523438 C 225.722656 150.191406 233.722656 150.191406 233.722656 155.523438 "/>
<path style="fill:none;stroke-width:2;stroke-linecap:butt;stroke-linejoin:miter;stroke:rgb(36.8417%,50.6779%,70.9798%);stroke-opacity:1;stroke-miterlimit:10;" d="M 0 90.5 L 28.484375 90.546875 L 36.203125 110.3125 L 20.480469 126.523438 L 0 125.601562 Z M 0 90.5 " transform="matrix(1,0,0,1,220,10)"/>
<path style=" stroke:none;fill-rule:nonzero;fill:rgb(88.0722%,61.1041%,14.2051%);fill-opacity:1;" d="M 235.46875 116.632812 C 235.46875 121.96875 227.46875 121.96875 227.46875 116.632812 C 227.46875 111.300781 235.46875 111.300781 235.46875 116.632812 "/>
<path style="fill:none;stroke-width:2;stroke-linecap:butt;stroke-linejoin:miter;stroke:rgb(36.8417%,50.6779%,70.9798%);stroke-opacity:1;stroke-miterlimit:10;" d="M 0 50.152344 L 36.097656 58.179688 L 39.410156 63.726562 L 28.484375 90.546875 L 0 90.5 Z M 0 50.152344 " transform="matrix(1,0,0,1,220,10)"/>
<path style=" stroke:none;fill-rule:nonzero;fill:rgb(88.0722%,61.1041%,14.2051%);fill-opacity:1;" d="M 235.523438 84.402344 C 235.523438 89.734375 227.523438 89.734375 227.523438 84.402344 C 227.523438 79.070312 235.523438 79.070312 235.523438 84.402344 "/>
<path style="fill:none;stroke-width:2;stroke-linecap:butt;stroke-linejoin:miter;stroke:rgb(36.8417%,50.6779%,70.9798%);stroke-opacity:1;stroke-miterlimit:10;" d="M 0 0 L 38.820312 0 L 45.667969 22.792969 L 36.097656 58.179688 L 0 50.152344 Z M 0 0 " transform="matrix(1,0,0,1,220,10)"/>
<path style=" stroke:none;fill-rule:nonzero;fill:rgb(88.0722%,61.1041%,14.2051%);fill-opacity:1;" d="M 244.714844 43.070312 C 244.714844 48.402344 236.714844 48.402344 236.714844 43.070312 C 236.714844 37.734375 244.714844 37.734375 244.714844 43.070312 "/>
<path style="fill:none;stroke-width:2;stroke-linecap:butt;stroke-linejoin:miter;stroke:rgb(36.8417%,50.6779%,70.9798%);stroke-opacity:1;stroke-miterlimit:10;" d="M 20.480469 126.523438 L 36.203125 110.3125 L 67.316406 118.265625 L 66.890625 142.761719 L 31.304688 158.089844 Z M 20.480469 126.523438 " transform="matrix(1,0,0,1,220,10)"/>
<path style=" stroke:none;fill-rule:nonzero;fill:rgb(88.0722%,61.1041%,14.2051%);fill-opacity:1;" d="M 264.632812 144.921875 C 264.632812 150.257812 256.632812 150.257812 256.632812 144.921875 C 256.632812 139.589844 264.632812 139.589844 264.632812 144.921875 "/>
<path style="fill:none;stroke-width:2;stroke-linecap:butt;stroke-linejoin:miter;stroke:rgb(36.8417%,50.6779%,70.9798%);stroke-opacity:1;stroke-miterlimit:10;" d="M 25.171875 200 L 32.253906 175.097656 L 90.121094 185.8125 L 92.324219 200 Z M 25.171875 200 " transform="matrix(1,0,0,1,220,10)"/>
<path style=" stroke:none;fill-rule:nonzero;fill:rgb(88.0722%,61.1041%,14.2051%);fill-opacity:1;" d="M 274.253906 200.425781 C 274.253906 205.757812 266.253906 205.757812 266.253906 200.425781 C 266.253906 195.09375 274.253906 195.09375 274.253906 200.425781 "/>
<path style="fill:none;stroke-width:2;stroke-linecap:butt;stroke-linejoin:miter;stroke:rgb(36.8417%,50.6779%,70.9798%);stroke-opacity:1;stroke-miterlimit:10;" d="M 28.484375 90.546875 L 39.410156 63.726562 L 80.058594 72.570312 L 81.390625 74.652344 L 74.707031 111.449219 L 67.316406 118.265625 L 36.203125 110.3125 Z M 28.484375 90.546875 " transform="matrix(1,0,0,1,220,10)"/>
<path style=" stroke:none;fill-rule:nonzero;fill:rgb(88.0722%,61.1041%,14.2051%);fill-opacity:1;" d="M 275.898438 100.851562 C 275.898438 106.183594 267.898438 106.183594 267.898438 100.851562 C 267.898438 95.515625 275.898438 95.515625 275.898438 100.851562 "/>
<path style="fill:none;stroke-width:2;stroke-linecap:butt;stroke-linejoin:miter;stroke:rgb(36.8417%,50.6779%,70.9798%);stroke-opacity:1;stroke-miterlimit:10;" d="M 29.125 162.59375 L 31.304688 158.089844 L 66.890625 142.761719 L 91.886719 173.699219 L 90.121094 185.8125 L 32.253906 175.097656 Z M 29.125 162.59375 " transform="matrix(1,0,0,1,220,10)"/>
<path style=" stroke:none;fill-rule:nonzero;fill:rgb(88.0722%,61.1041%,14.2051%);fill-opacity:1;" d="M 278.550781 177.226562 C 278.550781 182.558594 270.550781 182.558594 270.550781 177.226562 C 270.550781 171.894531 278.550781 171.894531 278.550781 177.226562 "/>
<path style="fill:none;stroke-width:2;stroke-linecap:butt;stroke-linejoin:miter;stroke:rgb(36.8417%,50.6779%,70.9798%);stroke-opacity:1;stroke-miterlimit:10;" d="M 36.097656 58.179688 L 45.667969 22.792969 L 85.328125 37.855469 L 86.972656 41.710938 L 80.058594 72.570312 L 39.410156 63.726562 Z M 36.097656 58.179688 " transform="matrix(1,0,0,1,220,10)"/>
<path style=" stroke:none;fill-rule:nonzero;fill:rgb(88.0722%,61.1041%,14.2051%);fill-opacity:1;" d="M 286.039062 54.242188 C 286.039062 59.578125 278.039062 59.578125 278.039062 54.242188 C 278.039062 48.910156 286.039062 48.910156 286.039062 54.242188 "/>
<path style="fill:none;stroke-width:2;stroke-linecap:butt;stroke-linejoin:miter;stroke:rgb(36.8417%,50.6779%,70.9798%);stroke-opacity:1;stroke-miterlimit:10;" d="M 38.820312 0 L 81.332031 0 L 88.785156 22.921875 L 85.328125 37.855469 L 45.667969 22.792969 Z M 38.820312 0 " transform="matrix(1,0,0,1,220,10)"/>
<path style=" stroke:none;fill-rule:nonzero;fill:rgb(88.0722%,61.1041%,14.2051%);fill-opacity:1;" d="M 296.152344 27.617188 C 296.152344 32.949219 288.152344 32.949219 288.152344 27.617188 C 288.152344 22.285156 296.152344 22.285156 296.152344 27.617188 "/>
<path style="fill:none;stroke-width:2;stroke-linecap:butt;stroke-linejoin:miter;stroke:rgb(36.8417%,50.6779%,70.9798%);stroke-opacity:1;stroke-miterlimit:10;" d="M 66.890625 142.761719 L 67.316406 118.265625 L 74.707031 111.449219 L 118.585938 123.628906 L 121.617188 148.316406 L 91.886719 173.699219 Z M 66.890625 142.761719 " transform="matrix(1,0,0,1,220,10)"/>
<path style=" stroke:none;fill-rule:nonzero;fill:rgb(88.0722%,61.1041%,14.2051%);fill-opacity:1;" d="M 317.40625 145.835938 C 317.40625 151.171875 309.40625 151.171875 309.40625 145.835938 C 309.40625 140.503906 317.40625 140.503906 317.40625 145.835938 "/>
<path style="fill:none;stroke-width:2;stroke-linecap:butt;stroke-linejoin:miter;stroke:rgb(36.8417%,50.6779%,70.9798%);stroke-opacity:1;stroke-miterlimit:10;" d="M 81.332031 0 L 108.625 0 L 110.421875 13.886719 L 88.785156 22.921875 Z M 81.332031 0 " transform="matrix(1,0,0,1,220,10)"/>
<path style=" stroke:none;fill-rule:nonzero;fill:rgb(88.0722%,61.1041%,14.2051%);fill-opacity:1;" d="M 323.117188 18.847656 C 323.117188 24.183594 315.117188 24.183594 315.117188 18.847656 C 315.117188 13.515625 323.117188 13.515625 323.117188 18.847656 "/>
<path style="fill:none;stroke-width:2;stroke-linecap:butt;stroke-linejoin:miter;stroke:rgb(36.8417%,50.6779%,70.9798%);stroke-opacity:1;stroke-miterlimit:10;" d="M 74.707031 111.449219 L 81.390625 74.652344 L 108.707031 77.734375 L 120.976562 120.136719 L 118.585938 123.628906 Z M 74.707031 111.449219 " transform="matrix(1,0,0,1,220,10)"/>
<path style=" stroke:none;fill-rule:nonzero;fill:rgb(88.0722%,61.1041%,14.2051%);fill-opacity:1;" d="M 327.300781 110.191406 C 327.300781 115.523438 319.300781 115.523438 319.300781 110.191406 C 319.300781 104.855469 327.300781 104.855469 327.300781 110.191406 "/>
<path style="fill:none;stroke-width:2;stroke-linecap:butt;stroke-linejoin:miter;stroke:rgb(36.8417%,50.6779%,70.9798%);stroke-opacity:1;stroke-miterlimit:10;" d="M 85.328125 37.855469 L 88.785156 22.921875 L 110.421875 13.886719 L 119.863281 20.730469 L 123.101562 38.757812 L 86.972656 41.710938 Z M 85.328125 37.855469 " transform="matrix(1,0,0,1,220,10)"/>
<path style=" stroke:none;fill-rule:nonzero;fill:rgb(88.0722%,61.1041%,14.2051%);fill-opacity:1;" d="M 330.054688 35.46875 C 330.054688 40.800781 322.054688 40.800781 322.054688 35.46875 C 322.054688 30.132812 330.054688 30.132812 330.054688 35.46875 "/>
<path style="fill:none;stroke-width:2;stroke-linecap:butt;stroke-linejoin:miter;stroke:rgb(36.8417%,50.6779%,70.9798%);stroke-opacity:1;stroke-miterlimit:10;" d="M 80.058594 72.570312 L 86.972656 41.710938 L 123.101562 38.757812 L 127.660156 42.21875 L 128.953125 45.3125 L 126.683594 70.015625 L 108.707031 77.734375 L 81.390625 74.652344 Z M 80.058594 72.570312 " transform="matrix(1,0,0,1,220,10)"/>
<path style=" stroke:none;fill-rule:nonzero;fill:rgb(88.0722%,61.1041%,14.2051%);fill-opacity:1;" d="M 332.441406 64.640625 C 332.441406 69.976562 324.441406 69.976562 324.441406 64.640625 C 324.441406 59.308594 332.441406 59.308594 332.441406 64.640625 "/>
<path style="fill:none;stroke-width:2;stroke-linecap:butt;stroke-linejoin:miter;stroke:rgb(36.8417%,50.6779%,70.9798%);stroke-opacity:1;stroke-miterlimit:10;" d="M 108.625 0 L 140.382812 0 L 119.863281 20.730469 L 110.421875 13.886719 Z M 108.625 0 " transform="matrix(1,0,0,1,220,10)"/>
<path style=" stroke:none;fill-rule:nonzero;fill:rgb(88.0722%,61.1041%,14.2051%);fill-opacity:1;" d="M 344.074219 16.132812 C 344.074219 21.46875 336.074219 21.46875 336.074219 16.132812 C 336.074219 10.800781 344.074219 10.800781 344.074219 16.132812 "/>
<path style="fill:none;stroke-width:2;stroke-linecap:butt;stroke-linejoin:miter;stroke:rgb(36.8417%,50.6779%,70.9798%);stroke-opacity:1;stroke-miterlimit:10;" d="M 108.707031 77.734375 L 126.683594 70.015625 L 132.371094 73.554688 L 136.960938 81.980469 L 136.203125 111.269531 L 120.976562 120.136719 Z M 108.707031 77.734375 " transform="matrix(1,0,0,1,220,10)"/>
<path style=" stroke:none;fill-rule:nonzero;fill:rgb(88.0722%,61.1041%,14.2051%);fill-opacity:1;" d="M 349.269531 103.832031 C 349.269531 109.164062 341.269531 109.164062 341.269531 103.832031 C 341.269531 98.5 349.269531 98.5 349.269531 103.832031 "/>
<path style="fill:none;stroke-width:2;stroke-linecap:butt;stroke-linejoin:miter;stroke:rgb(36.8417%,50.6779%,70.9798%);stroke-opacity:1;stroke-miterlimit:10;" d="M 90.121094 185.8125 L 91.886719 173.699219 L 121.617188 148.316406 L 151.800781 158.503906 L 166.378906 200 L 92.324219 200 Z M 90.121094 185.8125 " transform="matrix(1,0,0,1,220,10)"/>
<path style=" stroke:none;fill-rule:nonzero;fill:rgb(88.0722%,61.1041%,14.2051%);fill-opacity:1;" d="M 353.515625 188.136719 C 353.515625 193.46875 345.515625 193.46875 345.515625 188.136719 C 345.515625 182.800781 353.515625 182.800781 353.515625 188.136719 "/>
<path style="fill:none;stroke-width:2;stroke-linecap:butt;stroke-linejoin:miter;stroke:rgb(36.8417%,50.6779%,70.9798%);stroke-opacity:1;stroke-miterlimit:10;" d="M 119.863281 20.730469 L 140.382812 0 L 146.058594 0 L 153.019531 18.898438 L 127.660156 42.21875 L 123.101562 38.757812 Z M 119.863281 20.730469 " transform="matrix(1,0,0,1,220,10)"/>
<path style=" stroke:none;fill-rule:nonzero;fill:rgb(88.0722%,61.1041%,14.2051%);fill-opacity:1;" d="M 358.457031 30.367188 C 358.457031 35.703125 350.457031 35.703125 350.457031 30.367188 C 350.457031 25.035156 358.457031 25.035156 358.457031 30.367188 "/>
<path style="fill:none;stroke-width:2;stroke-linecap:butt;stroke-linejoin:miter;stroke:rgb(36.8417%,50.6779%,70.9798%);stroke-opacity:1;stroke-miterlimit:10;" d="M 118.585938 123.628906 L 120.976562 120.136719 L 136.203125 111.269531 L 162.160156 112.792969 L 174.988281 131.519531 L 151.800781 158.503906 L 121.617188 148.316406 Z M 118.585938 123.628906 " transform="matrix(1,0,0,1,220,10)"/>
<path style=" stroke:none;fill-rule:nonzero;fill:rgb(88.0722%,61.1041%,14.2051%);fill-opacity:1;" d="M 369.972656 139.382812 C 369.972656 144.714844 361.972656 144.714844 361.972656 139.382812 C 361.972656 134.046875 369.972656 134.046875 369.972656 139.382812 "/>
<path style="fill:none;stroke-width:2;stroke-linecap:butt;stroke-linejoin:miter;stroke:rgb(36.8417%,50.6779%,70.9798%);stroke-opacity:1;stroke-miterlimit:10;" d="M 126.683594 70.015625 L 128.953125 45.3125 L 167.195312 50.027344 L 169.375 53.9375 L 166.648438 63.722656 L 132.371094 73.554688 Z M 126.683594 70.015625 " transform="matrix(1,0,0,1,220,10)"/>
<path style=" stroke:none;fill-rule:nonzero;fill:rgb(88.0722%,61.1041%,14.2051%);fill-opacity:1;" d="M 371.417969 68.222656 C 371.417969 73.554688 363.417969 73.554688 363.417969 68.222656 C 363.417969 62.890625 371.417969 62.890625 371.417969 68.222656 "/>
<path style="fill:none;stroke-width:2;stroke-linecap:butt;stroke-linejoin:miter;stroke:rgb(36.8417%,50.6779%,70.9798%);stroke-opacity:1;stroke-miterlimit:10;" d="M 136.203125 111.269531 L 136.960938 81.980469 L 167.574219 92.097656 L 162.160156 112.792969 Z M 136.203125 111.269531 " transform="matrix(1,0,0,1,220,10)"/>
<path style=" stroke:none;fill-rule:nonzero;fill:rgb(88.0722%,61.1041%,14.2051%);fill-opacity:1;" d="M 372.023438 104.421875 C 372.023438 109.753906 364.023438 109.753906 364.023438 104.421875 C 364.023438 99.085938 372.023438 99.085938 372.023438 104.421875 "/>
<path style="fill:none;stroke-width:2;stroke-linecap:butt;stroke-linejoin:miter;stroke:rgb(36.8417%,50.6779%,70.9798%);stroke-opacity:1;stroke-miterlimit:10;" d="M 127.660156 42.21875 L 153.019531 18.898438 L 167.351562 27.75 L 167.195312 50.027344 L 128.953125 45.3125 Z M 127.660156 42.21875 " transform="matrix(1,0,0,1,220,10)"/>
<path style=" stroke:none;fill-rule:nonzero;fill:rgb(88.0722%,61.1041%,14.2051%);fill-opacity:1;" d="M 374.003906 47.273438 C 374.003906 52.609375 366.003906 52.609375 366.003906 47.273438 C 366.003906 41.941406 374.003906 41.941406 374.003906 47.273438 "/>
<path style="fill:none;stroke-width:2;stroke-linecap:butt;stroke-linejoin:miter;stroke:rgb(36.8417%,50.6779%,70.9798%);stroke-opacity:1;stroke-miterlimit:10;" d="M 132.371094 73.554688 L 166.648438 63.722656 L 173.058594 85.496094 L 167.574219 92.097656 L 136.960938 81.980469 Z M 132.371094 73.554688 " transform="matrix(1,0,0,1,220,10)"/>
<path style=" stroke:none;fill-rule:nonzero;fill:rgb(88.0722%,61.1041%,14.2051%);fill-opacity:1;" d="M 377.257812 88.582031 C 377.257812 93.914062 369.257812 93.914062 369.257812 88.582031 C 369.257812 83.246094 377.257812 83.246094 377.257812 88.582031 "/>
<path style="fill:none;stroke-width:2;stroke-linecap:butt;stroke-linejoin:miter;stroke:rgb(36.8417%,50.6779%,70.9798%);stroke-opacity:1;stroke-miterlimit:10;" d="M 146.058594 0 L 200 0 L 200 9.550781 L 167.351562 27.75 L 153.019531 18.898438 Z M 146.058594 0 " transform="matrix(1,0,0,1,220,10)"/>
<path style=" stroke:none;fill-rule:nonzero;fill:rgb(88.0722%,61.1041%,14.2051%);fill-opacity:1;" d="M 392.097656 17.976562 C 392.097656 23.308594 384.097656 23.308594 384.097656 17.976562 C 384.097656 12.640625 392.097656 12.640625 392.097656 17.976562 "/>
<path style="fill:none;stroke-width:2;stroke-linecap:butt;stroke-linejoin:miter;stroke:rgb(36.8417%,50.6779%,70.9798%);stroke-opacity:1;stroke-miterlimit:10;" d="M 151.800781 158.503906 L 174.988281 131.519531 L 200 132.417969 L 200 200 L 166.378906 200 Z M 151.800781 158.503906 " transform="matrix(1,0,0,1,220,10)"/>
<path style=" stroke:none;fill-rule:nonzero;fill:rgb(88.0722%,61.1041%,14.2051%);fill-opacity:1;" d="M 405.464844 169.882812 C 405.464844 175.21875 397.464844 175.21875 397.464844 169.882812 C 397.464844 164.550781 405.464844 164.550781 405.464844 169.882812 "/>
<path style="fill:none;stroke-width:2;stroke-linecap:butt;stroke-linejoin:miter;stroke:rgb(36.8417%,50.6779%,70.9798%);stroke-opacity:1;stroke-miterlimit:10;" d="M 162.160156 112.792969 L 167.574219 92.097656 L 173.058594 85.496094 L 200 87.414062 L 200 132.417969 L 174.988281 131.519531 Z M 162.160156 112.792969 " transform="matrix(1,0,0,1,220,10)"/>
<path style=" stroke:none;fill-rule:nonzero;fill:rgb(88.0722%,61.1041%,14.2051%);fill-opacity:1;" d="M 407.480469 113.695312 C 407.480469 119.027344 399.480469 119.027344 399.480469 113.695312 C 399.480469 108.359375 407.480469 108.359375 407.480469 113.695312 "/>
<path style="fill:none;stroke-width:2;stroke-linecap:butt;stroke-linejoin:miter;stroke:rgb(36.8417%,50.6779%,70.9798%);stroke-opacity:1;stroke-miterlimit:10;" d="M 167.195312 50.027344 L 167.351562 27.75 L 200 9.550781 L 200 52.585938 L 169.375 53.9375 Z M 167.195312 50.027344 " transform="matrix(1,0,0,1,220,10)"/>
<path style=" stroke:none;fill-rule:nonzero;fill:rgb(88.0722%,61.1041%,14.2051%);fill-opacity:1;" d="M 408.5625 47.511719 C 408.5625 52.847656 400.5625 52.847656 400.5625 47.511719 C 400.5625 42.179688 408.5625 42.179688 408.5625 47.511719 "/>
<path style="fill:none;stroke-width:2;stroke-linecap:butt;stroke-linejoin:miter;stroke:rgb(36.8417%,50.6779%,70.9798%);stroke-opacity:1;stroke-miterlimit:10;" d="M 166.648438 63.722656 L 169.375 53.9375 L 200 52.585938 L 200 87.414062 L 173.058594 85.496094 Z M 166.648438 63.722656 " transform="matrix(1,0,0,1,220,10)"/>
<path style=" stroke:none;fill-rule:nonzero;fill:rgb(88.0722%,61.1041%,14.2051%);fill-opacity:1;" d="M 409.953125 78.957031 C 409.953125 84.292969 401.953125 84.292969 401.953125 78.957031 C 401.953125 73.625 409.953125 73.625 409.953125 78.957031 "/>
</g>
</svg>
