<?xml version="1.0" encoding="UTF-8"?>
<svg xmlns="http://www.w3.org/2000/svg" xmlns:xlink="http://www.w3.org/1999/xlink" width="850pt" height="220pt" viewBox="0 0 850 220" version="1.1">
<g id="id1">
<path style="fill:none;stroke-width:2;stroke-linecap:butt;stroke-linejoin:bevel;stroke:rgb(36.8417%,50.6779%,70.9798%);stroke-opacity:0.25;stroke-miterlimit:10;" d="M 14.460938 49.160156 L 45.410156 89.96875 L 4.960938 148.171875 Z M 14.460938 49.160156 " transform="matrix(1,0,0,1,10,10)"/>
<path style="fill:none;stroke-width:2;stroke-linecap:butt;stroke-linejoin:bevel;stroke:rgb(36.8417%,50.6779%,70.9798%);stroke-opacity:0.25;stroke-miterlimit:10;" d="M 14.460938 49.160156 L 104.589844 24.308594 L 45.410156 89.96875 Z M 14.460938 49.160156 " transform="matrix(1,0,0,1,10,10)"/>
<path style="fill:none;stroke-width:2;stroke-linecap:butt;stroke-linejoin:bevel;stroke:rgb(36.8417%,50.6779%,70.9798%);stroke-opacity:0.25;stroke-miterlimit:10;" d="M 14.460938 49.160156 L 105.320312 11.257812 L 104.589844 24.308594 Z M 14.460938 49.160156 " transform="matrix(1,0,0,1,10,10)"/>
<path style="fill:none;stroke-width:2;stroke-linecap:butt;stroke-linejoin:bevel;stroke:rgb(36.8417%,50.6779%,70.9798%);stroke-opacity:0.25;stroke-miterlimit:10;" d="M 39.714844 172.246094 L 4.960938 148.171875 L 31.871094 139.054688 Z M 39.714844 172.246094 " transform="matrix(1,0,0,1,10,10)"/>
<path style="fill:none;stroke-width:2;stroke-linecap:butt;stroke-linejoin:bevel;stroke:rgb(36.8417%,50.6779%,70.9798%);stroke-opacity:0.25;stroke-miterlimit:10;" d="M 45.410156 89.96875 L 31.871094 139.054688 L 4.960938 148.171875 Z M 45.410156 89.96875 " transform="matrix(1,0,0,1,10,10)"/>
<path style="fill:none;stroke-width:2;stroke-linecap:butt;stroke-linejoin:bevel;stroke:rgb(36.8417%,50.6779%,70.9798%);stroke-opacity:0.25;stroke-miterlimit:10;" d="M 128.136719 103.621094 L 31.871094 139.054688 L 45.410156 89.96875 Z M 128.136719 103.621094 " transform="matrix(1,0,0,1,10,10)"/>
<path style="fill:none;stroke-width:2;stroke-linecap:butt;stroke-linejoin:bevel;stroke:rgb(36.8417%,50.6779%,70.9798%);stroke-opacity:0.25;stroke-miterlimit:10;" d="M 128.136719 103.621094 L 39.714844 172.246094 L 31.871094 139.054688 Z M 128.136719 103.621094 " transform="matrix(1,0,0,1,10,10)"/>
<path style="fill:none;stroke-width:2;stroke-linecap:butt;stroke-linejoin:bevel;stroke:rgb(36.8417%,50.6779%,70.9798%);stroke-opacity:0.25;stroke-miterlimit:10;" d="M 128.136719 103.621094 L 45.410156 89.96875 L 104.589844 24.308594 Z M 128.136719 103.621094 " transform="matrix(1,0,0,1,10,10)"/>
<path style="fill:none;stroke-width:2;stroke-linecap:butt;stroke-linejoin:bevel;stroke:rgb(36.8417%,50.6779%,70.9798%);stroke-opacity:0.25;stroke-miterlimit:10;" d="M 135.039062 175.636719 L 39.714844 172.246094 L 128.136719 103.621094 Z M 135.039062 175.636719 " transform="matrix(1,0,0,1,10,10)"/>
<path style="fill:none;stroke-width:2;stroke-linecap:butt;stroke-linejoin:bevel;stroke:rgb(36.8417%,50.6779%,70.9798%);stroke-opacity:0.25;stroke-miterlimit:10;" d="M 135.039062 175.636719 L 128.136719 103.621094 L 182.507812 150.589844 Z M 135.039062 175.636719 " transform="matrix(1,0,0,1,10,10)"/>
<path style="fill:none;stroke-width:2;stroke-linecap:butt;stroke-linejoin:bevel;stroke:rgb(36.8417%,50.6779%,70.9798%);stroke-opacity:0.25;stroke-miterlimit:10;" d="M 135.191406 15.398438 L 104.589844 24.308594 L 105.320312 11.257812 Z M 135.191406 15.398438 " transform="matrix(1,0,0,1,10,10)"/>
<path style="fill:none;stroke-width:2;stroke-linecap:butt;stroke-linejoin:bevel;stroke:rgb(36.8417%,50.6779%,70.9798%);stroke-opacity:0.25;stroke-miterlimit:10;" d="M 135.191406 15.398438 L 154.253906 40.011719 L 104.589844 24.308594 Z M 135.191406 15.398438 " transform="matrix(1,0,0,1,10,10)"/>
<path style="fill:none;stroke-width:2;stroke-linecap:butt;stroke-linejoin:bevel;stroke:rgb(36.8417%,50.6779%,70.9798%);stroke-opacity:0.25;stroke-miterlimit:10;" d="M 147.035156 2.515625 L 135.191406 15.398438 L 105.320312 11.257812 Z M 147.035156 2.515625 " transform="matrix(1,0,0,1,10,10)"/>
<path style="fill:none;stroke-width:2;stroke-linecap:butt;stroke-linejoin:bevel;stroke:rgb(36.8417%,50.6779%,70.9798%);stroke-opacity:0.25;stroke-miterlimit:10;" d="M 147.035156 2.515625 L 154.253906 40.011719 L 135.191406 15.398438 Z M 147.035156 2.515625 " transform="matrix(1,0,0,1,10,10)"/>
<path style="fill:none;stroke-width:2;stroke-linecap:butt;stroke-linejoin:bevel;stroke:rgb(36.8417%,50.6779%,70.9798%);stroke-opacity:0.25;stroke-miterlimit:10;" d="M 147.035156 2.515625 L 173.804688 53.941406 L 154.253906 40.011719 Z M 147.035156 2.515625 " transform="matrix(1,0,0,1,10,10)"/>
<path style="fill:none;stroke-width:2;stroke-linecap:butt;stroke-linejoin:bevel;stroke:rgb(36.8417%,50.6779%,70.9798%);stroke-opacity:0.25;stroke-miterlimit:10;" d="M 155.703125 53.476562 L 104.589844 24.308594 L 154.253906 40.011719 Z M 155.703125 53.476562 " transform="matrix(1,0,0,1,10,10)"/>
<path style="fill:none;stroke-width:2;stroke-linecap:butt;stroke-linejoin:bevel;stroke:rgb(36.8417%,50.6779%,70.9798%);stroke-opacity:0.25;stroke-miterlimit:10;" d="M 155.703125 53.476562 L 128.136719 103.621094 L 104.589844 24.308594 Z M 155.703125 53.476562 " transform="matrix(1,0,0,1,10,10)"/>
<path style="fill:none;stroke-width:2;stroke-linecap:butt;stroke-linejoin:bevel;stroke:rgb(36.8417%,50.6779%,70.9798%);stroke-opacity:0.25;stroke-miterlimit:10;" d="M 155.703125 53.476562 L 154.253906 40.011719 L 173.804688 53.941406 Z M 155.703125 53.476562 " transform="matrix(1,0,0,1,10,10)"/>
<path style="fill:none;stroke-width:2;stroke-linecap:butt;stroke-linejoin:bevel;stroke:rgb(36.8417%,50.6779%,70.9798%);stroke-opacity:0.25;stroke-miterlimit:10;" d="M 155.703125 53.476562 L 173.804688 53.941406 L 128.136719 103.621094 Z M 155.703125 53.476562 " transform="matrix(1,0,0,1,10,10)"/>
<path style="fill:none;stroke-width:2;stroke-linecap:butt;stroke-linejoin:bevel;stroke:rgb(36.8417%,50.6779%,70.9798%);stroke-opacity:0.25;stroke-miterlimit:10;" d="M 173.804688 53.941406 L 182.507812 150.589844 L 128.136719 103.621094 Z M 173.804688 53.941406 " transform="matrix(1,0,0,1,10,10)"/>
<path style="fill:none;stroke-width:2;stroke-linecap:butt;stroke-linejoin:miter;stroke:rgb(36.8417%,50.6779%,70.9798%);stroke-opacity:1;stroke-miterlimit:10;" d="M 0 101.570312 L 5.453125 105.359375 L 23.480469 158.558594 L 0 192.460938 Z M 0 101.570312 " transform="matrix(1,0,0,1,10,10)"/>
<path style=" stroke:none;fill-rule:nonzero;fill:rgb(88.0722%,61.1041%,14.2051%);fill-opacity:1;" d="M 18.960938 158.171875 C 18.960938 163.507812 10.960938 163.507812 10.960938 158.171875 C 10.960938 152.839844 18.960938 152.839844 18.960938 158.171875 "/>
<path style="fill:none;stroke-width:2;stroke-linecap:butt;stroke-linejoin:miter;stroke:rgb(36.8417%,50.6779%,70.9798%);stroke-opacity:1;stroke-miterlimit:10;" d="M 0 0 L 47.289062 0 L 53.503906 14.902344 L 61.894531 45.328125 L 0 92.265625 Z M 0 0 " transform="matrix(1,0,0,1,10,10)"/>
<path style=" stroke:none;fill-rule:nonzero;fill:rgb(88.0722%,61.1041%,14.2051%);fill-opacity:1;" d="M 28.460938 59.160156 C 28.460938 64.492188 20.460938 64.492188 20.460938 59.160156 C 20.460938 53.824219 28.460938 53.824219 28.460938 59.160156 "/>
<path style="fill:none;stroke-width:2;stroke-linecap:butt;stroke-linejoin:miter;stroke:rgb(36.8417%,50.6779%,70.9798%);stroke-opacity:1;stroke-miterlimit:10;" d="M 5.453125 105.359375 L 81.882812 126.4375 L 88.085938 143.292969 L 23.480469 158.558594 Z M 5.453125 105.359375 " transform="matrix(1,0,0,1,10,10)"/>
<path style=" stroke:none;fill-rule:nonzero;fill:rgb(88.0722%,61.1041%,14.2051%);fill-opacity:1;" d="M 45.871094 149.054688 C 45.871094 154.386719 37.871094 154.386719 37.871094 149.054688 C 37.871094 143.71875 45.871094 143.71875 45.871094 149.054688 "/>
<path style="fill:none;stroke-width:2;stroke-linecap:butt;stroke-linejoin:miter;stroke:rgb(36.8417%,50.6779%,70.9798%);stroke-opacity:1;stroke-miterlimit:10;" d="M 0 192.460938 L 23.480469 158.558594 L 88.085938 143.292969 L 88.449219 143.765625 L 86.449219 200 L 0 200 Z M 0 192.460938 " transform="matrix(1,0,0,1,10,10)"/>
<path style=" stroke:none;fill-rule:nonzero;fill:rgb(88.0722%,61.1041%,14.2051%);fill-opacity:1;" d="M 53.714844 182.246094 C 53.714844 187.582031 45.714844 187.582031 45.714844 182.246094 C 45.714844 176.914062 53.714844 176.914062 53.714844 182.246094 "/>
<path style="fill:none;stroke-width:2;stroke-linecap:butt;stroke-linejoin:miter;stroke:rgb(36.8417%,50.6779%,70.9798%);stroke-opacity:1;stroke-miterlimit:10;" d="M 0 92.265625 L 61.894531 45.328125 L 90.945312 71.511719 L 81.882812 126.4375 L 5.453125 105.359375 L 0 101.570312 Z M 0 92.265625 " transform="matrix(1,0,0,1,10,10)"/>
<path style=" stroke:none;fill-rule:nonzero;fill:rgb(88.0722%,61.1041%,14.2051%);fill-opacity:1;" d="M 59.410156 99.96875 C 59.410156 105.300781 51.410156 105.300781 51.410156 99.96875 C 51.410156 94.636719 59.410156 94.636719 59.410156 99.96875 "/>
<path style="fill:none;stroke-width:2;stroke-linecap:butt;stroke-linejoin:miter;stroke:rgb(36.8417%,50.6779%,70.9798%);stroke-opacity:1;stroke-miterlimit:10;" d="M 53.503906 14.902344 L 119.523438 18.597656 L 126.324219 41.953125 L 123.746094 50.109375 L 115.734375 64.152344 L 90.945312 71.511719 L 61.894531 45.328125 Z M 53.503906 14.902344 " transform="matrix(1,0,0,1,10,10)"/>
<path style=" stroke:none;fill-rule:nonzero;fill:rgb(88.0722%,61.1041%,14.2051%);fill-opacity:1;" d="M 118.589844 34.308594 C 118.589844 39.640625 110.589844 39.640625 110.589844 34.308594 C 110.589844 28.976562 118.589844 28.976562 118.589844 34.308594 "/>
<path style="fill:none;stroke-width:2;stroke-linecap:butt;stroke-linejoin:miter;stroke:rgb(36.8417%,50.6779%,70.9798%);stroke-opacity:1;stroke-miterlimit:10;" d="M 47.289062 0 L 122.101562 0 L 119.523438 18.597656 L 53.503906 14.902344 Z M 47.289062 0 " transform="matrix(1,0,0,1,10,10)"/>
<path style=" stroke:none;fill-rule:nonzero;fill:rgb(88.0722%,61.1041%,14.2051%);fill-opacity:1;" d="M 119.320312 21.257812 C 119.320312 26.589844 111.320312 26.589844 111.320312 21.257812 C 111.320312 15.925781 119.320312 15.925781 119.320312 21.257812 "/>
<path style="fill:none;stroke-width:2;stroke-linecap:butt;stroke-linejoin:miter;stroke:rgb(36.8417%,50.6779%,70.9798%);stroke-opacity:1;stroke-miterlimit:10;" d="M 81.882812 126.4375 L 90.945312 71.511719 L 115.734375 64.152344 L 163.808594 90.582031 L 176.664062 102.398438 L 145.667969 138.28125 L 88.449219 143.765625 L 88.085938 143.292969 Z M 81.882812 126.4375 " transform="matrix(1,0,0,1,10,10)"/>
<path style=" stroke:none;fill-rule:nonzero;fill:rgb(88.0722%,61.1041%,14.2051%);fill-opacity:1;" d="M 142.136719 113.621094 C 142.136719 118.953125 134.136719 118.953125 134.136719 113.621094 C 134.136719 108.285156 142.136719 108.285156 142.136719 113.621094 "/>
<path style="fill:none;stroke-width:2;stroke-linecap:butt;stroke-linejoin:miter;stroke:rgb(36.8417%,50.6779%,70.9798%);stroke-opacity:1;stroke-miterlimit:10;" d="M 86.449219 200 L 88.449219 143.765625 L 145.667969 138.28125 L 178.238281 200 Z M 86.449219 200 " transform="matrix(1,0,0,1,10,10)"/>
<path style=" stroke:none;fill-rule:nonzero;fill:rgb(88.0722%,61.1041%,14.2051%);fill-opacity:1;" d="M 149.039062 185.636719 C 149.039062 190.972656 141.039062 190.972656 141.039062 185.636719 C 141.039062 180.304688 149.039062 180.304688 149.039062 185.636719 "/>
<path style="fill:none;stroke-width:2;stroke-linecap:butt;stroke-linejoin:miter;stroke:rgb(36.8417%,50.6779%,70.9798%);stroke-opacity:1;stroke-miterlimit:10;" d="M 119.523438 18.597656 L 122.101562 0 L 131.367188 0 L 153.832031 20.648438 L 126.324219 41.953125 Z M 119.523438 18.597656 " transform="matrix(1,0,0,1,10,10)"/>
<path style=" stroke:none;fill-rule:nonzero;fill:rgb(88.0722%,61.1041%,14.2051%);fill-opacity:1;" d="M 149.191406 25.398438 C 149.191406 30.730469 141.191406 30.730469 141.191406 25.398438 C 141.191406 20.066406 149.191406 20.066406 149.191406 25.398438 "/>
<path style="fill:none;stroke-width:2;stroke-linecap:butt;stroke-linejoin:miter;stroke:rgb(36.8417%,50.6779%,70.9798%);stroke-opacity:1;stroke-miterlimit:10;" d="M 131.367188 0 L 200 0 L 200 7.621094 L 187.386719 14.1875 L 153.832031 20.648438 Z M 131.367188 0 " transform="matrix(1,0,0,1,10,10)"/>
<path style=" stroke:none;fill-rule:nonzero;fill:rgb(88.0722%,61.1041%,14.2051%);fill-opacity:1;" d="M 161.035156 12.515625 C 161.035156 17.851562 153.035156 17.851562 153.035156 12.515625 C 153.035156 7.183594 161.035156 7.183594 161.035156 12.515625 "/>
<path style="fill:none;stroke-width:2;stroke-linecap:butt;stroke-linejoin:miter;stroke:rgb(36.8417%,50.6779%,70.9798%);stroke-opacity:1;stroke-miterlimit:10;" d="M 123.746094 50.109375 L 126.324219 41.953125 L 153.832031 20.648438 L 187.386719 14.1875 L 164.960938 45.667969 Z M 123.746094 50.109375 " transform="matrix(1,0,0,1,10,10)"/>
<path style=" stroke:none;fill-rule:nonzero;fill:rgb(88.0722%,61.1041%,14.2051%);fill-opacity:1;" d="M 168.253906 50.011719 C 168.253906 55.34375 160.253906 55.34375 160.253906 50.011719 C 160.253906 44.679688 168.253906 44.679688 168.253906 50.011719 "/>
<path style="fill:none;stroke-width:2;stroke-linecap:butt;stroke-linejoin:miter;stroke:rgb(36.8417%,50.6779%,70.9798%);stroke-opacity:1;stroke-miterlimit:10;" d="M 115.734375 64.152344 L 123.746094 50.109375 L 164.960938 45.667969 L 163.808594 90.582031 Z M 115.734375 64.152344 " transform="matrix(1,0,0,1,10,10)"/>
<path style=" stroke:none;fill-rule:nonzero;fill:rgb(88.0722%,61.1041%,14.2051%);fill-opacity:1;" d="M 169.703125 63.476562 C 169.703125 68.808594 161.703125 68.808594 161.703125 63.476562 C 161.703125 58.140625 169.703125 58.140625 169.703125 63.476562 "/>
<path style="fill:none;stroke-width:2;stroke-linecap:butt;stroke-linejoin:miter;stroke:rgb(36.8417%,50.6779%,70.9798%);stroke-opacity:1;stroke-miterlimit:10;" d="M 163.808594 90.582031 L 164.960938 45.667969 L 187.386719 14.1875 L 200 7.621094 L 200 100.296875 L 176.664062 102.398438 Z M 163.808594 90.582031 " transform="matrix(1,0,0,1,10,10)"/>
<path style=" stroke:none;fill-rule:nonzero;fill:rgb(88.0722%,61.1041%,14.2051%);fill-opacity:1;" d="M 187.804688 63.941406 C 187.804688 69.273438 179.804688 69.273438 179.804688 63.941406 C 179.804688 58.605469 187.804688 58.605469 187.804688 63.941406 "/>
<path style="fill:none;stroke-width:2;stroke-linecap:butt;stroke-linejoin:miter;stroke:rgb(36.8417%,50.6779%,70.9798%);stroke-opacity:1;stroke-miterlimit:10;" d="M 145.667969 138.28125 L 176.664062 102.398438 L 200 100.296875 L 200 200 L 178.238281 200 Z M 145.667969 138.28125 " transform="matrix(1,0,0,1,10,10)"/>
<path style=" stroke:none;fill-rule:nonzero;fill:rgb(88.0722%,61.1041%,14.2051%);fill-opacity:1;" d="M 196.507812 160.589844 C 196.507812 165.921875 188.507812 165.921875 188.507812 160.589844 C 188.507812 155.257812 196.507812 155.257812 196.507812 160.589844 "/>
<path style="fill:none;stroke-width:2;stroke-linecap:butt;stroke-linejoin:bevel;stroke:rgb(36.8417%,50.6779%,70.9798%);stroke-opacity:0.25;stroke-miterlimit:10;" d="M 50.503906 176.789062 L 8 148.128906 L 43.636719 133.191406 Z M 50.503906 176.789062 " transform="matrix(1,0,0,1,220,10)"/>
<path style="fill:none;stroke-width:2;stroke-linecap:butt;stroke-linejoin:bevel;stroke:rgb(36.8417%,50.6779%,70.9798%);stroke-opacity:0.25;stroke-miterlimit:10;" d="M 52.113281 88.65625 L 8 148.128906 L 25.171875 37.328125 Z M 52.113281 88.65625 " transform="matrix(1,0,0,1,220,10)"/>
<path style="fill:none;stroke-width:2;stroke-linecap:butt;stroke-linejoin:bevel;stroke:rgb(36.8417%,50.6779%,70.9798%);stroke-opacity:0.25;stroke-miterlimit:10;" d="M 52.113281 88.65625 L 43.636719 133.191406 L 8 148.128906 Z M 52.113281 88.65625 " transform="matrix(1,0,0,1,220,10)"/>
<path style="fill:none;stroke-width:2;stroke-linecap:butt;stroke-linejoin:bevel;stroke:rgb(36.8417%,50.6779%,70.9798%);stroke-opacity:0.25;stroke-miterlimit:10;" d="M 86.964844 8.230469 L 92.140625 39.683594 L 25.171875 37.328125 Z M 86.964844 8.230469 " transform="matrix(1,0,0,1,220,10)"/>
<path style="fill:none;stroke-width:2;stroke-linecap:butt;stroke-linejoin:bevel;stroke:rgb(36.8417%,50.6779%,70.9798%);stroke-opacity:0.25;stroke-miterlimit:10;" d="M 92.140625 39.683594 L 52.113281 88.65625 L 25.171875 37.328125 Z M 92.140625 39.683594 " transform="matrix(1,0,0,1,220,10)"/>
<path style="fill:none;stroke-width:2;stroke-linecap:butt;stroke-linejoin:bevel;stroke:rgb(36.8417%,50.6779%,70.9798%);stroke-opacity:0.25;stroke-miterlimit:10;" d="M 122.394531 106.328125 L 43.636719 133.191406 L 52.113281 88.65625 Z M 122.394531 106.328125 " transform="matrix(1,0,0,1,220,10)"/>
<path style="fill:none;stroke-width:2;stroke-linecap:butt;stroke-linejoin:bevel;stroke:rgb(36.8417%,50.6779%,70.9798%);stroke-opacity:0.25;stroke-miterlimit:10;" d="M 122.394531 106.328125 L 52.113281 88.65625 L 92.140625 39.683594 Z M 122.394531 106.328125 " transform="matrix(1,0,0,1,220,10)"/>
<path style="fill:none;stroke-width:2;stroke-linecap:butt;stroke-linejoin:bevel;stroke:rgb(36.8417%,50.6779%,70.9798%);stroke-opacity:0.25;stroke-miterlimit:10;" d="M 125.96875 172.652344 L 43.636719 133.191406 L 122.394531 106.328125 Z M 125.96875 172.652344 " transform="matrix(1,0,0,1,220,10)"/>
<path style="fill:none;stroke-width:2;stroke-linecap:butt;stroke-linejoin:bevel;stroke:rgb(36.8417%,50.6779%,70.9798%);stroke-opacity:0.25;stroke-miterlimit:10;" d="M 125.96875 172.652344 L 50.503906 176.789062 L 43.636719 133.191406 Z M 125.96875 172.652344 " transform="matrix(1,0,0,1,220,10)"/>
<path style="fill:none;stroke-width:2;stroke-linecap:butt;stroke-linejoin:bevel;stroke:rgb(36.8417%,50.6779%,70.9798%);stroke-opacity:0.25;stroke-miterlimit:10;" d="M 132.96875 19.140625 L 92.140625 39.683594 L 86.964844 8.230469 Z M 132.96875 19.140625 " transform="matrix(1,0,0,1,220,10)"/>
<path style="fill:none;stroke-width:2;stroke-linecap:butt;stroke-linejoin:bevel;stroke:rgb(36.8417%,50.6779%,70.9798%);stroke-opacity:0.25;stroke-miterlimit:10;" d="M 145.515625 64.121094 L 92.140625 39.683594 L 132.96875 19.140625 Z M 145.515625 64.121094 " transform="matrix(1,0,0,1,220,10)"/>
<path style="fill:none;stroke-width:2;stroke-linecap:butt;stroke-linejoin:bevel;stroke:rgb(36.8417%,50.6779%,70.9798%);stroke-opacity:0.25;stroke-miterlimit:10;" d="M 145.515625 64.121094 L 122.394531 106.328125 L 92.140625 39.683594 Z M 145.515625 64.121094 " transform="matrix(1,0,0,1,220,10)"/>
<path style="fill:none;stroke-width:2;stroke-linecap:butt;stroke-linejoin:bevel;stroke:rgb(36.8417%,50.6779%,70.9798%);stroke-opacity:0.25;stroke-miterlimit:10;" d="M 145.515625 64.121094 L 132.96875 19.140625 L 155.449219 33.664062 Z M 145.515625 64.121094 " transform="matrix(1,0,0,1,220,10)"/>
<path style="fill:none;stroke-width:2;stroke-linecap:butt;stroke-linejoin:bevel;stroke:rgb(36.8417%,50.6779%,70.9798%);stroke-opacity:0.25;stroke-miterlimit:10;" d="M 155.449219 33.664062 L 132.96875 19.140625 L 167.3125 7.882812 Z M 155.449219 33.664062 " transform="matrix(1,0,0,1,220,10)"/>
<path style="fill:none;stroke-width:2;stroke-linecap:butt;stroke-linejoin:bevel;stroke:rgb(36.8417%,50.6779%,70.9798%);stroke-opacity:0.25;stroke-miterlimit:10;" d="M 167.3125 7.882812 L 132.96875 19.140625 L 86.964844 8.230469 Z M 167.3125 7.882812 " transform="matrix(1,0,0,1,220,10)"/>
<path style="fill:none;stroke-width:2;stroke-linecap:butt;stroke-linejoin:bevel;stroke:rgb(36.8417%,50.6779%,70.9798%);stroke-opacity:0.25;stroke-miterlimit:10;" d="M 179.796875 148.785156 L 122.394531 106.328125 L 184.039062 60.796875 Z M 179.796875 148.785156 " transform="matrix(1,0,0,1,220,10)"/>
<path style="fill:none;stroke-width:2;stroke-linecap:butt;stroke-linejoin:bevel;stroke:rgb(36.8417%,50.6779%,70.9798%);stroke-opacity:0.25;stroke-miterlimit:10;" d="M 179.796875 148.785156 L 125.96875 172.652344 L 122.394531 106.328125 Z M 179.796875 148.785156 " transform="matrix(1,0,0,1,220,10)"/>
<path style="fill:none;stroke-width:2;stroke-linecap:butt;stroke-linejoin:bevel;stroke:rgb(36.8417%,50.6779%,70.9798%);stroke-opacity:0.25;stroke-miterlimit:10;" d="M 184.039062 60.796875 L 122.394531 106.328125 L 145.515625 64.121094 Z M 184.039062 60.796875 " transform="matrix(1,0,0,1,220,10)"/>
<path style="fill:none;stroke-width:2;stroke-linecap:butt;stroke-linejoin:bevel;stroke:rgb(36.8417%,50.6779%,70.9798%);stroke-opacity:0.25;stroke-miterlimit:10;" d="M 184.039062 60.796875 L 145.515625 64.121094 L 155.449219 33.664062 Z M 184.039062 60.796875 " transform="matrix(1,0,0,1,220,10)"/>
<path style="fill:none;stroke-width:2;stroke-linecap:butt;stroke-linejoin:bevel;stroke:rgb(36.8417%,50.6779%,70.9798%);stroke-opacity:0.25;stroke-miterlimit:10;" d="M 184.039062 60.796875 L 155.449219 33.664062 L 167.3125 7.882812 Z M 184.039062 60.796875 " transform="matrix(1,0,0,1,220,10)"/>
<path style="fill:none;stroke-width:2;stroke-linecap:butt;stroke-linejoin:miter;stroke:rgb(36.8417%,50.6779%,70.9798%);stroke-opacity:1;stroke-miterlimit:10;" d="M 0 96.097656 L 10.359375 103.78125 L 32.765625 157.242188 L 3.9375 200 L 0 200 Z M 0 96.097656 " transform="matrix(1,0,0,1,220,10)"/>
<path style=" stroke:none;fill-rule:nonzero;fill:rgb(88.0722%,61.1041%,14.2051%);fill-opacity:1;" d="M 232 158.128906 C 232 163.460938 224 163.460938 224 158.128906 C 224 152.796875 232 152.796875 232 158.128906 "/>
<path style="fill:none;stroke-width:2;stroke-linecap:butt;stroke-linejoin:miter;stroke:rgb(36.8417%,50.6779%,70.9798%);stroke-opacity:1;stroke-miterlimit:10;" d="M 0 0 L 45.339844 0 L 58.988281 28.984375 L 58.15625 52.75 L 0 83.277344 Z M 0 0 " transform="matrix(1,0,0,1,220,10)"/>
<path style=" stroke:none;fill-rule:nonzero;fill:rgb(88.0722%,61.1041%,14.2051%);fill-opacity:1;" d="M 249.171875 47.328125 C 249.171875 52.664062 241.171875 52.664062 241.171875 47.328125 C 241.171875 41.996094 249.171875 41.996094 249.171875 47.328125 "/>
<path style="fill:none;stroke-width:2;stroke-linecap:butt;stroke-linejoin:miter;stroke:rgb(36.8417%,50.6779%,70.9798%);stroke-opacity:1;stroke-miterlimit:10;" d="M 10.359375 103.78125 L 82.234375 117.464844 L 90.367188 141.308594 L 86.808594 148.730469 L 32.765625 157.242188 Z M 10.359375 103.78125 " transform="matrix(1,0,0,1,220,10)"/>
<path style=" stroke:none;fill-rule:nonzero;fill:rgb(88.0722%,61.1041%,14.2051%);fill-opacity:1;" d="M 267.636719 143.191406 C 267.636719 148.527344 259.636719 148.527344 259.636719 143.191406 C 259.636719 137.859375 267.636719 137.859375 267.636719 143.191406 "/>
<path style="fill:none;stroke-width:2;stroke-linecap:butt;stroke-linejoin:miter;stroke:rgb(36.8417%,50.6779%,70.9798%);stroke-opacity:1;stroke-miterlimit:10;" d="M 3.9375 200 L 32.765625 157.242188 L 86.808594 148.730469 L 89.621094 200 Z M 3.9375 200 " transform="matrix(1,0,0,1,220,10)"/>
<path style=" stroke:none;fill-rule:nonzero;fill:rgb(88.0722%,61.1041%,14.2051%);fill-opacity:1;" d="M 274.503906 186.789062 C 274.503906 192.121094 266.503906 192.121094 266.503906 186.789062 C 266.503906 181.457031 274.503906 181.457031 274.503906 186.789062 "/>
<path style="fill:none;stroke-width:2;stroke-linecap:butt;stroke-linejoin:miter;stroke:rgb(36.8417%,50.6779%,70.9798%);stroke-opacity:1;stroke-miterlimit:10;" d="M 0 83.277344 L 58.15625 52.75 L 91.625 80.105469 L 82.234375 117.464844 L 10.359375 103.78125 L 0 96.097656 Z M 0 83.277344 " transform="matrix(1,0,0,1,220,10)"/>
<path style=" stroke:none;fill-rule:nonzero;fill:rgb(88.0722%,61.1041%,14.2051%);fill-opacity:1;" d="M 276.113281 98.65625 C 276.113281 103.988281 268.113281 103.988281 268.113281 98.65625 C 268.113281 93.320312 276.113281 93.320312 276.113281 98.65625 "/>
<path style="fill:none;stroke-width:2;stroke-linecap:butt;stroke-linejoin:miter;stroke:rgb(36.8417%,50.6779%,70.9798%);stroke-opacity:1;stroke-miterlimit:10;" d="M 45.339844 0 L 113.210938 0 L 108.261719 20.878906 L 58.988281 28.984375 Z M 45.339844 0 " transform="matrix(1,0,0,1,220,10)"/>
<path style=" stroke:none;fill-rule:nonzero;fill:rgb(88.0722%,61.1041%,14.2051%);fill-opacity:1;" d="M 310.964844 18.230469 C 310.964844 23.5625 302.964844 23.5625 302.964844 18.230469 C 302.964844 12.894531 310.964844 12.894531 310.964844 18.230469 "/>
<path style="fill:none;stroke-width:2;stroke-linecap:butt;stroke-linejoin:miter;stroke:rgb(36.8417%,50.6779%,70.9798%);stroke-opacity:1;stroke-miterlimit:10;" d="M 58.15625 52.75 L 58.988281 28.984375 L 108.261719 20.878906 L 121.230469 46.652344 L 109.664062 71.917969 L 91.625 80.105469 Z M 58.15625 52.75 " transform="matrix(1,0,0,1,220,10)"/>
<path style=" stroke:none;fill-rule:nonzero;fill:rgb(88.0722%,61.1041%,14.2051%);fill-opacity:1;" d="M 316.140625 49.683594 C 316.140625 55.019531 308.140625 55.019531 308.140625 49.683594 C 308.140625 44.351562 316.140625 44.351562 316.140625 49.683594 "/>
<path style="fill:none;stroke-width:2;stroke-linecap:butt;stroke-linejoin:miter;stroke:rgb(36.8417%,50.6779%,70.9798%);stroke-opacity:1;stroke-miterlimit:10;" d="M 82.234375 117.464844 L 91.625 80.105469 L 109.664062 71.917969 L 168.367188 104.070312 L 168.417969 104.140625 L 143.019531 138.476562 L 90.367188 141.308594 Z M 82.234375 117.464844 " transform="matrix(1,0,0,1,220,10)"/>
<path style=" stroke:none;fill-rule:nonzero;fill:rgb(88.0722%,61.1041%,14.2051%);fill-opacity:1;" d="M 346.394531 116.328125 C 346.394531 121.660156 338.394531 121.660156 338.394531 116.328125 C 338.394531 110.992188 346.394531 110.992188 346.394531 116.328125 "/>
<path style="fill:none;stroke-width:2;stroke-linecap:butt;stroke-linejoin:miter;stroke:rgb(36.8417%,50.6779%,70.9798%);stroke-opacity:1;stroke-miterlimit:10;" d="M 86.808594 148.730469 L 90.367188 141.308594 L 143.019531 138.476562 L 170.300781 200 L 89.621094 200 Z M 86.808594 148.730469 " transform="matrix(1,0,0,1,220,10)"/>
<path style=" stroke:none;fill-rule:nonzero;fill:rgb(88.0722%,61.1041%,14.2051%);fill-opacity:1;" d="M 349.96875 182.652344 C 349.96875 187.984375 341.96875 187.984375 341.96875 182.652344 C 341.96875 177.316406 349.96875 177.316406 349.96875 182.652344 "/>
<path style="fill:none;stroke-width:2;stroke-linecap:butt;stroke-linejoin:miter;stroke:rgb(36.8417%,50.6779%,70.9798%);stroke-opacity:1;stroke-miterlimit:10;" d="M 108.261719 20.878906 L 113.210938 0 L 145.710938 0 L 150.945312 15.972656 L 133.296875 43.285156 L 121.230469 46.652344 Z M 108.261719 20.878906 " transform="matrix(1,0,0,1,220,10)"/>
<path style=" stroke:none;fill-rule:nonzero;fill:rgb(88.0722%,61.1041%,14.2051%);fill-opacity:1;" d="M 356.96875 29.140625 C 356.96875 34.472656 348.96875 34.472656 348.96875 29.140625 C 348.96875 23.804688 356.96875 23.804688 356.96875 29.140625 "/>
<path style="fill:none;stroke-width:2;stroke-linecap:butt;stroke-linejoin:miter;stroke:rgb(36.8417%,50.6779%,70.9798%);stroke-opacity:1;stroke-miterlimit:10;" d="M 109.664062 71.917969 L 121.230469 46.652344 L 133.296875 43.285156 L 163.988281 53.296875 L 168.367188 104.070312 Z M 109.664062 71.917969 " transform="matrix(1,0,0,1,220,10)"/>
<path style=" stroke:none;fill-rule:nonzero;fill:rgb(88.0722%,61.1041%,14.2051%);fill-opacity:1;" d="M 369.515625 74.121094 C 369.515625 79.453125 361.515625 79.453125 361.515625 74.121094 C 361.515625 68.785156 369.515625 68.785156 369.515625 74.121094 "/>
<path style="fill:none;stroke-width:2;stroke-linecap:butt;stroke-linejoin:miter;stroke:rgb(36.8417%,50.6779%,70.9798%);stroke-opacity:1;stroke-miterlimit:10;" d="M 133.296875 43.285156 L 150.945312 15.972656 L 184.679688 31.492188 L 163.988281 53.296875 Z M 133.296875 43.285156 " transform="matrix(1,0,0,1,220,10)"/>
<path style=" stroke:none;fill-rule:nonzero;fill:rgb(88.0722%,61.1041%,14.2051%);fill-opacity:1;" d="M 379.449219 43.664062 C 379.449219 48.996094 371.449219 48.996094 371.449219 43.664062 C 371.449219 38.332031 379.449219 38.332031 379.449219 43.664062 "/>
<path style="fill:none;stroke-width:2;stroke-linecap:butt;stroke-linejoin:miter;stroke:rgb(36.8417%,50.6779%,70.9798%);stroke-opacity:1;stroke-miterlimit:10;" d="M 145.710938 0 L 200 0 L 200 26.648438 L 184.679688 31.492188 L 150.945312 15.972656 Z M 145.710938 0 " transform="matrix(1,0,0,1,220,10)"/>
<path style=" stroke:none;fill-rule:nonzero;fill:rgb(88.0722%,61.1041%,14.2051%);fill-opacity:1;" d="M 391.3125 17.882812 C 391.3125 23.214844 383.3125 23.214844 383.3125 17.882812 C 383.3125 12.546875 391.3125 12.546875 391.3125 17.882812 "/>
<path style="fill:none;stroke-width:2;stroke-linecap:butt;stroke-linejoin:miter;stroke:rgb(36.8417%,50.6779%,70.9798%);stroke-opacity:1;stroke-miterlimit:10;" d="M 143.019531 138.476562 L 168.417969 104.140625 L 200 105.660156 L 200 200 L 170.300781 200 Z M 143.019531 138.476562 " transform="matrix(1,0,0,1,220,10)"/>
<path style=" stroke:none;fill-rule:nonzero;fill:rgb(88.0722%,61.1041%,14.2051%);fill-opacity:1;" d="M 403.796875 158.785156 C 403.796875 164.117188 395.796875 164.117188 395.796875 158.785156 C 395.796875 153.449219 403.796875 153.449219 403.796875 158.785156 "/>
<path style="fill:none;stroke-width:2;stroke-linecap:butt;stroke-linejoin:miter;stroke:rgb(36.8417%,50.6779%,70.9798%);stroke-opacity:1;stroke-miterlimit:10;" d="M 163.988281 53.296875 L 184.679688 31.492188 L 200 26.648438 L 200 105.660156 L 168.417969 104.140625 L 168.367188 104.070312 Z M 163.988281 53.296875 " transform="matrix(1,0,0,1,220,10)"/>
<path style=" stroke:none;fill-rule:nonzero;fill:rgb(88.0722%,61.1041%,14.2051%);fill-opacity:1;" d="M 408.039062 70.796875 C 408.039062 76.128906 400.039062 76.128906 400.039062 70.796875 C 400.039062 65.460938 408.039062 65.460938 408.039062 70.796875 "/>
<path style="fill:none;stroke-width:2;stroke-linecap:butt;stroke-linejoin:bevel;stroke:rgb(36.8417%,50.6779%,70.9798%);stroke-opacity:0.25;stroke-miterlimit:10;" d="M 49.347656 87.492188 L 11.3125 149.492188 L 25.75 35.753906 Z M 49.347656 87.492188 " transform="matrix(1,0,0,1,430,10)"/>
<path style="fill:none;stroke-width:2;stroke-linecap:butt;stroke-linejoin:bevel;stroke:rgb(36.8417%,50.6779%,70.9798%);stroke-opacity:0.25;stroke-miterlimit:10;" d="M 49.347656 87.492188 L 51.128906 131.210938 L 11.3125 149.492188 Z M 49.347656 87.492188 " transform="matrix(1,0,0,1,430,10)"/>
<path style="fill:none;stroke-width:2;stroke-linecap:butt;stroke-linejoin:bevel;stroke:rgb(36.8417%,50.6779%,70.9798%);stroke-opacity:0.25;stroke-miterlimit:10;" d="M 54.0625 178.351562 L 11.3125 149.492188 L 51.128906 131.210938 Z M 54.0625 178.351562 " transform="matrix(1,0,0,1,430,10)"/>
<path style="fill:none;stroke-width:2;stroke-linecap:butt;stroke-linejoin:bevel;stroke:rgb(36.8417%,50.6779%,70.9798%);stroke-opacity:0.25;stroke-miterlimit:10;" d="M 89.941406 47.976562 L 25.75 35.753906 L 79.527344 11.988281 Z M 89.941406 47.976562 " transform="matrix(1,0,0,1,430,10)"/>
<path style="fill:none;stroke-width:2;stroke-linecap:butt;stroke-linejoin:bevel;stroke:rgb(36.8417%,50.6779%,70.9798%);stroke-opacity:0.25;stroke-miterlimit:10;" d="M 89.941406 47.976562 L 49.347656 87.492188 L 25.75 35.753906 Z M 89.941406 47.976562 " transform="matrix(1,0,0,1,430,10)"/>
<path style="fill:none;stroke-width:2;stroke-linecap:butt;stroke-linejoin:bevel;stroke:rgb(36.8417%,50.6779%,70.9798%);stroke-opacity:0.25;stroke-miterlimit:10;" d="M 119.46875 109.949219 L 49.347656 87.492188 L 89.941406 47.976562 Z M 119.46875 109.949219 " transform="matrix(1,0,0,1,430,10)"/>
<path style="fill:none;stroke-width:2;stroke-linecap:butt;stroke-linejoin:bevel;stroke:rgb(36.8417%,50.6779%,70.9798%);stroke-opacity:0.25;stroke-miterlimit:10;" d="M 119.46875 109.949219 L 51.128906 131.210938 L 49.347656 87.492188 Z M 119.46875 109.949219 " transform="matrix(1,0,0,1,430,10)"/>
<path style="fill:none;stroke-width:2;stroke-linecap:butt;stroke-linejoin:bevel;stroke:rgb(36.8417%,50.6779%,70.9798%);stroke-opacity:0.25;stroke-miterlimit:10;" d="M 123.230469 171.777344 L 51.128906 131.210938 L 119.46875 109.949219 Z M 123.230469 171.777344 " transform="matrix(1,0,0,1,430,10)"/>
<path style="fill:none;stroke-width:2;stroke-linecap:butt;stroke-linejoin:bevel;stroke:rgb(36.8417%,50.6779%,70.9798%);stroke-opacity:0.25;stroke-miterlimit:10;" d="M 123.230469 171.777344 L 54.0625 178.351562 L 51.128906 131.210938 Z M 123.230469 171.777344 " transform="matrix(1,0,0,1,430,10)"/>
<path style="fill:none;stroke-width:2;stroke-linecap:butt;stroke-linejoin:bevel;stroke:rgb(36.8417%,50.6779%,70.9798%);stroke-opacity:0.25;stroke-miterlimit:10;" d="M 128.597656 19.625 L 89.941406 47.976562 L 79.527344 11.988281 Z M 128.597656 19.625 " transform="matrix(1,0,0,1,430,10)"/>
<path style="fill:none;stroke-width:2;stroke-linecap:butt;stroke-linejoin:bevel;stroke:rgb(36.8417%,50.6779%,70.9798%);stroke-opacity:0.25;stroke-miterlimit:10;" d="M 142.617188 69.660156 L 89.941406 47.976562 L 128.597656 19.625 Z M 142.617188 69.660156 " transform="matrix(1,0,0,1,430,10)"/>
<path style="fill:none;stroke-width:2;stroke-linecap:butt;stroke-linejoin:bevel;stroke:rgb(36.8417%,50.6779%,70.9798%);stroke-opacity:0.25;stroke-miterlimit:10;" d="M 142.617188 69.660156 L 119.46875 109.949219 L 89.941406 47.976562 Z M 142.617188 69.660156 " transform="matrix(1,0,0,1,430,10)"/>
<path style="fill:none;stroke-width:2;stroke-linecap:butt;stroke-linejoin:bevel;stroke:rgb(36.8417%,50.6779%,70.9798%);stroke-opacity:0.25;stroke-miterlimit:10;" d="M 158.148438 35.511719 L 142.617188 69.660156 L 128.597656 19.625 Z M 158.148438 35.511719 " transform="matrix(1,0,0,1,430,10)"/>
<path style="fill:none;stroke-width:2;stroke-linecap:butt;stroke-linejoin:bevel;stroke:rgb(36.8417%,50.6779%,70.9798%);stroke-opacity:0.25;stroke-miterlimit:10;" d="M 176.761719 12.851562 L 128.597656 19.625 L 79.527344 11.988281 Z M 176.761719 12.851562 " transform="matrix(1,0,0,1,430,10)"/>
<path style="fill:none;stroke-width:2;stroke-linecap:butt;stroke-linejoin:bevel;stroke:rgb(36.8417%,50.6779%,70.9798%);stroke-opacity:0.25;stroke-miterlimit:10;" d="M 176.761719 12.851562 L 158.148438 35.511719 L 128.597656 19.625 Z M 176.761719 12.851562 " transform="matrix(1,0,0,1,430,10)"/>
<path style="fill:none;stroke-width:2;stroke-linecap:butt;stroke-linejoin:bevel;stroke:rgb(36.8417%,50.6779%,70.9798%);stroke-opacity:0.25;stroke-miterlimit:10;" d="M 177.414062 150.636719 L 123.230469 171.777344 L 119.46875 109.949219 Z M 177.414062 150.636719 " transform="matrix(1,0,0,1,430,10)"/>
<path style="fill:none;stroke-width:2;stroke-linecap:butt;stroke-linejoin:bevel;stroke:rgb(36.8417%,50.6779%,70.9798%);stroke-opacity:0.25;stroke-miterlimit:10;" d="M 184.132812 69.46875 L 119.46875 109.949219 L 142.617188 69.660156 Z M 184.132812 69.46875 " transform="matrix(1,0,0,1,430,10)"/>
<path style="fill:none;stroke-width:2;stroke-linecap:butt;stroke-linejoin:bevel;stroke:rgb(36.8417%,50.6779%,70.9798%);stroke-opacity:0.25;stroke-miterlimit:10;" d="M 184.132812 69.46875 L 142.617188 69.660156 L 158.148438 35.511719 Z M 184.132812 69.46875 " transform="matrix(1,0,0,1,430,10)"/>
<path style="fill:none;stroke-width:2;stroke-linecap:butt;stroke-linejoin:bevel;stroke:rgb(36.8417%,50.6779%,70.9798%);stroke-opacity:0.25;stroke-miterlimit:10;" d="M 184.132812 69.46875 L 158.148438 35.511719 L 176.761719 12.851562 Z M 184.132812 69.46875 " transform="matrix(1,0,0,1,430,10)"/>
<path style="fill:none;stroke-width:2;stroke-linecap:butt;stroke-linejoin:bevel;stroke:rgb(36.8417%,50.6779%,70.9798%);stroke-opacity:0.25;stroke-miterlimit:10;" d="M 184.132812 69.46875 L 177.414062 150.636719 L 119.46875 109.949219 Z M 184.132812 69.46875 " transform="matrix(1,0,0,1,430,10)"/>
<path style="fill:none;stroke-width:2;stroke-linecap:butt;stroke-linejoin:miter;stroke:rgb(36.8417%,50.6779%,70.9798%);stroke-opacity:1;stroke-miterlimit:10;" d="M 0 99.886719 L 17.597656 110.679688 L 38.253906 155.675781 L 8.332031 200 L 0 200 Z M 0 99.886719 " transform="matrix(1,0,0,1,430,10)"/>
<path style=" stroke:none;fill-rule:nonzero;fill:rgb(88.0722%,61.1041%,14.2051%);fill-opacity:1;" d="M 445.3125 159.492188 C 445.3125 164.828125 437.3125 164.828125 437.3125 159.492188 C 437.3125 154.160156 445.3125 154.160156 445.3125 159.492188 "/>
<path style="fill:none;stroke-width:2;stroke-linecap:butt;stroke-linejoin:miter;stroke:rgb(36.8417%,50.6779%,70.9798%);stroke-opacity:1;stroke-miterlimit:10;" d="M 0 0 L 42.089844 0 L 58.671875 37.523438 L 55.65625 53.367188 L 0 78.75 Z M 0 0 " transform="matrix(1,0,0,1,430,10)"/>
<path style=" stroke:none;fill-rule:nonzero;fill:rgb(88.0722%,61.1041%,14.2051%);fill-opacity:1;" d="M 459.75 45.753906 C 459.75 51.089844 451.75 51.089844 451.75 45.753906 C 451.75 40.421875 459.75 40.421875 459.75 45.753906 "/>
<path style="fill:none;stroke-width:2;stroke-linecap:butt;stroke-linejoin:miter;stroke:rgb(36.8417%,50.6779%,70.9798%);stroke-opacity:1;stroke-miterlimit:10;" d="M 0 78.75 L 55.65625 53.367188 L 88.21875 86.816406 L 81.410156 108.082031 L 17.597656 110.679688 L 0 99.886719 Z M 0 78.75 " transform="matrix(1,0,0,1,430,10)"/>
<path style=" stroke:none;fill-rule:nonzero;fill:rgb(88.0722%,61.1041%,14.2051%);fill-opacity:1;" d="M 483.347656 97.492188 C 483.347656 102.824219 475.347656 102.824219 475.347656 97.492188 C 475.347656 92.160156 483.347656 92.160156 483.347656 97.492188 "/>
<path style="fill:none;stroke-width:2;stroke-linecap:butt;stroke-linejoin:miter;stroke:rgb(36.8417%,50.6779%,70.9798%);stroke-opacity:1;stroke-miterlimit:10;" d="M 17.597656 110.679688 L 81.410156 108.082031 L 92.160156 142.636719 L 86.515625 152.667969 L 38.253906 155.675781 Z M 17.597656 110.679688 " transform="matrix(1,0,0,1,430,10)"/>
<path style=" stroke:none;fill-rule:nonzero;fill:rgb(88.0722%,61.1041%,14.2051%);fill-opacity:1;" d="M 485.128906 141.210938 C 485.128906 146.542969 477.128906 146.542969 477.128906 141.210938 C 477.128906 135.878906 485.128906 135.878906 485.128906 141.210938 "/>
<path style="fill:none;stroke-width:2;stroke-linecap:butt;stroke-linejoin:miter;stroke:rgb(36.8417%,50.6779%,70.9798%);stroke-opacity:1;stroke-miterlimit:10;" d="M 8.332031 200 L 38.253906 155.675781 L 86.515625 152.667969 L 91.015625 200 Z M 8.332031 200 " transform="matrix(1,0,0,1,430,10)"/>
<path style=" stroke:none;fill-rule:nonzero;fill:rgb(88.0722%,61.1041%,14.2051%);fill-opacity:1;" d="M 488.0625 188.351562 C 488.0625 193.6875 480.0625 193.6875 480.0625 188.351562 C 480.0625 183.019531 488.0625 183.019531 488.0625 188.351562 "/>
<path style="fill:none;stroke-width:2;stroke-linecap:butt;stroke-linejoin:miter;stroke:rgb(36.8417%,50.6779%,70.9798%);stroke-opacity:1;stroke-miterlimit:10;" d="M 42.089844 0 L 106.523438 0 L 102.664062 24.796875 L 58.671875 37.523438 Z M 42.089844 0 " transform="matrix(1,0,0,1,430,10)"/>
<path style=" stroke:none;fill-rule:nonzero;fill:rgb(88.0722%,61.1041%,14.2051%);fill-opacity:1;" d="M 513.527344 21.988281 C 513.527344 27.324219 505.527344 27.324219 505.527344 21.988281 C 505.527344 16.65625 513.527344 16.65625 513.527344 21.988281 "/>
<path style="fill:none;stroke-width:2;stroke-linecap:butt;stroke-linejoin:miter;stroke:rgb(36.8417%,50.6779%,70.9798%);stroke-opacity:1;stroke-miterlimit:10;" d="M 55.65625 53.367188 L 58.671875 37.523438 L 102.664062 24.796875 L 120.355469 48.917969 L 108.789062 77.015625 L 88.21875 86.816406 Z M 55.65625 53.367188 " transform="matrix(1,0,0,1,430,10)"/>
<path style=" stroke:none;fill-rule:nonzero;fill:rgb(88.0722%,61.1041%,14.2051%);fill-opacity:1;" d="M 523.941406 57.976562 C 523.941406 63.308594 515.941406 63.308594 515.941406 57.976562 C 515.941406 52.644531 523.941406 52.644531 523.941406 57.976562 "/>
<path style="fill:none;stroke-width:2;stroke-linecap:butt;stroke-linejoin:miter;stroke:rgb(36.8417%,50.6779%,70.9798%);stroke-opacity:1;stroke-miterlimit:10;" d="M 81.410156 108.082031 L 88.21875 86.816406 L 108.789062 77.015625 L 163.550781 108.480469 L 163.648438 108.636719 L 141.898438 139.613281 L 92.160156 142.636719 Z M 81.410156 108.082031 " transform="matrix(1,0,0,1,430,10)"/>
<path style=" stroke:none;fill-rule:nonzero;fill:rgb(88.0722%,61.1041%,14.2051%);fill-opacity:1;" d="M 553.46875 119.949219 C 553.46875 125.28125 545.46875 125.28125 545.46875 119.949219 C 545.46875 114.613281 553.46875 114.613281 553.46875 119.949219 "/>
<path style="fill:none;stroke-width:2;stroke-linecap:butt;stroke-linejoin:miter;stroke:rgb(36.8417%,50.6779%,70.9798%);stroke-opacity:1;stroke-miterlimit:10;" d="M 86.515625 152.667969 L 92.160156 142.636719 L 141.898438 139.613281 L 165.457031 200 L 91.015625 200 Z M 86.515625 152.667969 " transform="matrix(1,0,0,1,430,10)"/>
<path style=" stroke:none;fill-rule:nonzero;fill:rgb(88.0722%,61.1041%,14.2051%);fill-opacity:1;" d="M 557.230469 181.777344 C 557.230469 187.109375 549.230469 187.109375 549.230469 181.777344 C 549.230469 176.441406 557.230469 176.441406 557.230469 181.777344 "/>
<path style="fill:none;stroke-width:2;stroke-linecap:butt;stroke-linejoin:miter;stroke:rgb(36.8417%,50.6779%,70.9798%);stroke-opacity:1;stroke-miterlimit:10;" d="M 102.664062 24.796875 L 106.523438 0 L 150.394531 0 L 152.011719 11.5 L 133.941406 45.109375 L 120.355469 48.917969 Z M 102.664062 24.796875 " transform="matrix(1,0,0,1,430,10)"/>
<path style=" stroke:none;fill-rule:nonzero;fill:rgb(88.0722%,61.1041%,14.2051%);fill-opacity:1;" d="M 562.597656 29.625 C 562.597656 34.960938 554.597656 34.960938 554.597656 29.625 C 554.597656 24.292969 562.597656 24.292969 562.597656 29.625 "/>
<path style="fill:none;stroke-width:2;stroke-linecap:butt;stroke-linejoin:miter;stroke:rgb(36.8417%,50.6779%,70.9798%);stroke-opacity:1;stroke-miterlimit:10;" d="M 108.789062 77.015625 L 120.355469 48.917969 L 133.941406 45.109375 L 163.324219 58.472656 L 163.550781 108.480469 Z M 108.789062 77.015625 " transform="matrix(1,0,0,1,430,10)"/>
<path style=" stroke:none;fill-rule:nonzero;fill:rgb(88.0722%,61.1041%,14.2051%);fill-opacity:1;" d="M 576.617188 79.660156 C 576.617188 84.992188 568.617188 84.992188 568.617188 79.660156 C 568.617188 74.324219 576.617188 74.324219 576.617188 79.660156 "/>
<path style="fill:none;stroke-width:2;stroke-linecap:butt;stroke-linejoin:miter;stroke:rgb(36.8417%,50.6779%,70.9798%);stroke-opacity:1;stroke-miterlimit:10;" d="M 133.941406 45.109375 L 152.011719 11.5 L 187.074219 40.296875 L 163.324219 58.472656 Z M 133.941406 45.109375 " transform="matrix(1,0,0,1,430,10)"/>
<path style=" stroke:none;fill-rule:nonzero;fill:rgb(88.0722%,61.1041%,14.2051%);fill-opacity:1;" d="M 592.148438 45.511719 C 592.148438 50.847656 584.148438 50.847656 584.148438 45.511719 C 584.148438 40.179688 592.148438 40.179688 592.148438 45.511719 "/>
<path style="fill:none;stroke-width:2;stroke-linecap:butt;stroke-linejoin:miter;stroke:rgb(36.8417%,50.6779%,70.9798%);stroke-opacity:1;stroke-miterlimit:10;" d="M 150.394531 0 L 200 0 L 200 38.613281 L 187.074219 40.296875 L 152.011719 11.5 Z M 150.394531 0 " transform="matrix(1,0,0,1,430,10)"/>
<path style=" stroke:none;fill-rule:nonzero;fill:rgb(88.0722%,61.1041%,14.2051%);fill-opacity:1;" d="M 610.761719 22.851562 C 610.761719 28.183594 602.761719 28.183594 602.761719 22.851562 C 602.761719 17.519531 610.761719 17.519531 610.761719 22.851562 "/>
<path style="fill:none;stroke-width:2;stroke-linecap:butt;stroke-linejoin:miter;stroke:rgb(36.8417%,50.6779%,70.9798%);stroke-opacity:1;stroke-miterlimit:10;" d="M 141.898438 139.613281 L 163.648438 108.636719 L 200 111.644531 L 200 200 L 165.457031 200 Z M 141.898438 139.613281 " transform="matrix(1,0,0,1,430,10)"/>
<path style=" stroke:none;fill-rule:nonzero;fill:rgb(88.0722%,61.1041%,14.2051%);fill-opacity:1;" d="M 611.414062 160.636719 C 611.414062 165.96875 603.414062 165.96875 603.414062 160.636719 C 603.414062 155.304688 611.414062 155.304688 611.414062 160.636719 "/>
<path style="fill:none;stroke-width:2;stroke-linecap:butt;stroke-linejoin:miter;stroke:rgb(36.8417%,50.6779%,70.9798%);stroke-opacity:1;stroke-miterlimit:10;" d="M 163.324219 58.472656 L 187.074219 40.296875 L 200 38.613281 L 200 111.644531 L 163.648438 108.636719 L 163.550781 108.480469 Z M 163.324219 58.472656 " transform="matrix(1,0,0,1,430,10)"/>
<path style=" stroke:none;fill-rule:nonzero;fill:rgb(88.0722%,61.1041%,14.2051%);fill-opacity:1;" d="M 618.132812 79.46875 C 618.132812 84.804688 610.132812 84.804688 610.132812 79.46875 C 610.132812 74.136719 618.132812 74.136719 618.132812 79.46875 "/>
<path style="fill:none;stroke-width:2;stroke-linecap:butt;stroke-linejoin:bevel;stroke:rgb(36.8417%,50.6779%,70.9798%);stroke-opacity:0.25;stroke-miterlimit:10;" d="M 43.683594 86.902344 L 13.667969 150.886719 L 24.851562 34.882812 Z M 43.683594 86.902344 " transform="matrix(1,0,0,1,640,10)"/>
<path style="fill:none;stroke-width:2;stroke-linecap:butt;stroke-linejoin:bevel;stroke:rgb(36.8417%,50.6779%,70.9798%);stroke-opacity:0.25;stroke-miterlimit:10;" d="M 55.910156 179.144531 L 13.667969 150.886719 L 57.28125 130.976562 Z M 55.910156 179.144531 " transform="matrix(1,0,0,1,640,10)"/>
<path style="fill:none;stroke-width:2;stroke-linecap:butt;stroke-linejoin:bevel;stroke:rgb(36.8417%,50.6779%,70.9798%);stroke-opacity:0.25;stroke-miterlimit:10;" d="M 57.28125 130.976562 L 13.667969 150.886719 L 43.683594 86.902344 Z M 57.28125 130.976562 " transform="matrix(1,0,0,1,640,10)"/>
<path style="fill:none;stroke-width:2;stroke-linecap:butt;stroke-linejoin:bevel;stroke:rgb(36.8417%,50.6779%,70.9798%);stroke-opacity:0.25;stroke-miterlimit:10;" d="M 89.210938 53.894531 L 24.851562 34.882812 L 75.175781 14.996094 Z M 89.210938 53.894531 " transform="matrix(1,0,0,1,640,10)"/>
<path style="fill:none;stroke-width:2;stroke-linecap:butt;stroke-linejoin:bevel;stroke:rgb(36.8417%,50.6779%,70.9798%);stroke-opacity:0.25;stroke-miterlimit:10;" d="M 89.210938 53.894531 L 43.683594 86.902344 L 24.851562 34.882812 Z M 89.210938 53.894531 " transform="matrix(1,0,0,1,640,10)"/>
<path style="fill:none;stroke-width:2;stroke-linecap:butt;stroke-linejoin:bevel;stroke:rgb(36.8417%,50.6779%,70.9798%);stroke-opacity:0.25;stroke-miterlimit:10;" d="M 117.492188 112.667969 L 43.683594 86.902344 L 89.210938 53.894531 Z M 117.492188 112.667969 " transform="matrix(1,0,0,1,640,10)"/>
<path style="fill:none;stroke-width:2;stroke-linecap:butt;stroke-linejoin:bevel;stroke:rgb(36.8417%,50.6779%,70.9798%);stroke-opacity:0.25;stroke-miterlimit:10;" d="M 117.492188 112.667969 L 57.28125 130.976562 L 43.683594 86.902344 Z M 117.492188 112.667969 " transform="matrix(1,0,0,1,640,10)"/>
<path style="fill:none;stroke-width:2;stroke-linecap:butt;stroke-linejoin:bevel;stroke:rgb(36.8417%,50.6779%,70.9798%);stroke-opacity:0.25;stroke-miterlimit:10;" d="M 121.949219 172.152344 L 55.910156 179.144531 L 57.28125 130.976562 Z M 121.949219 172.152344 " transform="matrix(1,0,0,1,640,10)"/>
<path style="fill:none;stroke-width:2;stroke-linecap:butt;stroke-linejoin:bevel;stroke:rgb(36.8417%,50.6779%,70.9798%);stroke-opacity:0.25;stroke-miterlimit:10;" d="M 121.949219 172.152344 L 57.28125 130.976562 L 117.492188 112.667969 Z M 121.949219 172.152344 " transform="matrix(1,0,0,1,640,10)"/>
<path style="fill:none;stroke-width:2;stroke-linecap:butt;stroke-linejoin:bevel;stroke:rgb(36.8417%,50.6779%,70.9798%);stroke-opacity:0.25;stroke-miterlimit:10;" d="M 126.253906 20.128906 L 89.210938 53.894531 L 75.175781 14.996094 Z M 126.253906 20.128906 " transform="matrix(1,0,0,1,640,10)"/>
<path style="fill:none;stroke-width:2;stroke-linecap:butt;stroke-linejoin:bevel;stroke:rgb(36.8417%,50.6779%,70.9798%);stroke-opacity:0.25;stroke-miterlimit:10;" d="M 140.445312 73.238281 L 89.210938 53.894531 L 126.253906 20.128906 Z M 140.445312 73.238281 " transform="matrix(1,0,0,1,640,10)"/>
<path style="fill:none;stroke-width:2;stroke-linecap:butt;stroke-linejoin:bevel;stroke:rgb(36.8417%,50.6779%,70.9798%);stroke-opacity:0.25;stroke-miterlimit:10;" d="M 140.445312 73.238281 L 117.492188 112.667969 L 89.210938 53.894531 Z M 140.445312 73.238281 " transform="matrix(1,0,0,1,640,10)"/>
<path style="fill:none;stroke-width:2;stroke-linecap:butt;stroke-linejoin:bevel;stroke:rgb(36.8417%,50.6779%,70.9798%);stroke-opacity:0.25;stroke-miterlimit:10;" d="M 158.933594 37.53125 L 140.445312 73.238281 L 126.253906 20.128906 Z M 158.933594 37.53125 " transform="matrix(1,0,0,1,640,10)"/>
<path style="fill:none;stroke-width:2;stroke-linecap:butt;stroke-linejoin:bevel;stroke:rgb(36.8417%,50.6779%,70.9798%);stroke-opacity:0.25;stroke-miterlimit:10;" d="M 176.058594 153.410156 L 121.949219 172.152344 L 117.492188 112.667969 Z M 176.058594 153.410156 " transform="matrix(1,0,0,1,640,10)"/>
<path style="fill:none;stroke-width:2;stroke-linecap:butt;stroke-linejoin:bevel;stroke:rgb(36.8417%,50.6779%,70.9798%);stroke-opacity:0.25;stroke-miterlimit:10;" d="M 180.050781 16.160156 L 158.933594 37.53125 L 126.253906 20.128906 Z M 180.050781 16.160156 " transform="matrix(1,0,0,1,640,10)"/>
<path style="fill:none;stroke-width:2;stroke-linecap:butt;stroke-linejoin:bevel;stroke:rgb(36.8417%,50.6779%,70.9798%);stroke-opacity:0.25;stroke-miterlimit:10;" d="M 182.875 77.664062 L 117.492188 112.667969 L 140.445312 73.238281 Z M 182.875 77.664062 " transform="matrix(1,0,0,1,640,10)"/>
<path style="fill:none;stroke-width:2;stroke-linecap:butt;stroke-linejoin:bevel;stroke:rgb(36.8417%,50.6779%,70.9798%);stroke-opacity:0.25;stroke-miterlimit:10;" d="M 182.875 77.664062 L 140.445312 73.238281 L 158.933594 37.53125 Z M 182.875 77.664062 " transform="matrix(1,0,0,1,640,10)"/>
<path style="fill:none;stroke-width:2;stroke-linecap:butt;stroke-linejoin:bevel;stroke:rgb(36.8417%,50.6779%,70.9798%);stroke-opacity:0.25;stroke-miterlimit:10;" d="M 182.875 77.664062 L 158.933594 37.53125 L 180.050781 16.160156 Z M 182.875 77.664062 " transform="matrix(1,0,0,1,640,10)"/>
<path style="fill:none;stroke-width:2;stroke-linecap:butt;stroke-linejoin:bevel;stroke:rgb(36.8417%,50.6779%,70.9798%);stroke-opacity:0.25;stroke-miterlimit:10;" d="M 182.875 77.664062 L 176.058594 153.410156 L 117.492188 112.667969 Z M 182.875 77.664062 " transform="matrix(1,0,0,1,640,10)"/>
<path style="fill:none;stroke-width:2;stroke-linecap:butt;stroke-linejoin:miter;stroke:rgb(36.8417%,50.6779%,70.9798%);stroke-opacity:1;stroke-miterlimit:10;" d="M 0 105.441406 L 24.523438 116.949219 L 41.730469 154.636719 L 11.390625 200 L 0 200 Z M 0 105.441406 " transform="matrix(1,0,0,1,640,10)"/>
<path style=" stroke:none;fill-rule:nonzero;fill:rgb(88.0722%,61.1041%,14.2051%);fill-opacity:1;" d="M 657.667969 160.886719 C 657.667969 166.222656 649.667969 166.222656 649.667969 160.886719 C 649.667969 155.554688 657.667969 155.554688 657.667969 160.886719 "/>
<path style="fill:none;stroke-width:2;stroke-linecap:butt;stroke-linejoin:miter;stroke:rgb(36.8417%,50.6779%,70.9798%);stroke-opacity:1;stroke-miterlimit:10;" d="M 0 0 L 40.15625 0 L 57.316406 43.421875 L 54.296875 53.640625 L 0 73.300781 Z M 0 0 " transform="matrix(1,0,0,1,640,10)"/>
<path style=" stroke:none;fill-rule:nonzero;fill:rgb(88.0722%,61.1041%,14.2051%);fill-opacity:1;" d="M 668.851562 44.882812 C 668.851562 50.21875 660.851562 50.21875 660.851562 44.882812 C 660.851562 39.550781 668.851562 39.550781 668.851562 44.882812 "/>
<path style="fill:none;stroke-width:2;stroke-linecap:butt;stroke-linejoin:miter;stroke:rgb(36.8417%,50.6779%,70.9798%);stroke-opacity:1;stroke-miterlimit:10;" d="M 0 73.300781 L 54.296875 53.640625 L 82.917969 93.113281 L 80.640625 99.636719 L 24.523438 116.949219 L 0 105.441406 Z M 0 73.300781 " transform="matrix(1,0,0,1,640,10)"/>
<path style=" stroke:none;fill-rule:nonzero;fill:rgb(88.0722%,61.1041%,14.2051%);fill-opacity:1;" d="M 687.683594 96.902344 C 687.683594 102.234375 679.683594 102.234375 679.683594 96.902344 C 679.683594 91.570312 687.683594 91.570312 687.683594 96.902344 "/>
<path style="fill:none;stroke-width:2;stroke-linecap:butt;stroke-linejoin:miter;stroke:rgb(36.8417%,50.6779%,70.9798%);stroke-opacity:1;stroke-miterlimit:10;" d="M 11.390625 200 L 41.730469 154.636719 L 86.839844 155.921875 L 91.507812 200 Z M 11.390625 200 " transform="matrix(1,0,0,1,640,10)"/>
<path style=" stroke:none;fill-rule:nonzero;fill:rgb(88.0722%,61.1041%,14.2051%);fill-opacity:1;" d="M 699.910156 189.144531 C 699.910156 194.476562 691.910156 194.476562 691.910156 189.144531 C 691.910156 183.8125 699.910156 183.8125 699.910156 189.144531 "/>
<path style="fill:none;stroke-width:2;stroke-linecap:butt;stroke-linejoin:miter;stroke:rgb(36.8417%,50.6779%,70.9798%);stroke-opacity:1;stroke-miterlimit:10;" d="M 24.523438 116.949219 L 80.640625 99.636719 L 94.226562 144.320312 L 86.839844 155.921875 L 41.730469 154.636719 Z M 24.523438 116.949219 " transform="matrix(1,0,0,1,640,10)"/>
<path style=" stroke:none;fill-rule:nonzero;fill:rgb(88.0722%,61.1041%,14.2051%);fill-opacity:1;" d="M 701.28125 140.976562 C 701.28125 146.308594 693.28125 146.308594 693.28125 140.976562 C 693.28125 135.644531 701.28125 135.644531 701.28125 140.976562 "/>
<path style="fill:none;stroke-width:2;stroke-linecap:butt;stroke-linejoin:miter;stroke:rgb(36.8417%,50.6779%,70.9798%);stroke-opacity:1;stroke-miterlimit:10;" d="M 40.15625 0 L 102.476562 0 L 99.652344 28.148438 L 57.316406 43.421875 Z M 40.15625 0 " transform="matrix(1,0,0,1,640,10)"/>
<path style=" stroke:none;fill-rule:nonzero;fill:rgb(88.0722%,61.1041%,14.2051%);fill-opacity:1;" d="M 719.175781 24.996094 C 719.175781 30.332031 711.175781 30.332031 711.175781 24.996094 C 711.175781 19.664062 719.175781 19.664062 719.175781 24.996094 "/>
<path style="fill:none;stroke-width:2;stroke-linecap:butt;stroke-linejoin:miter;stroke:rgb(36.8417%,50.6779%,70.9798%);stroke-opacity:1;stroke-miterlimit:10;" d="M 54.296875 53.640625 L 57.316406 43.421875 L 99.652344 28.148438 L 119.839844 50.292969 L 108.28125 80.910156 L 82.917969 93.113281 Z M 54.296875 53.640625 " transform="matrix(1,0,0,1,640,10)"/>
<path style=" stroke:none;fill-rule:nonzero;fill:rgb(88.0722%,61.1041%,14.2051%);fill-opacity:1;" d="M 733.210938 63.894531 C 733.210938 69.230469 725.210938 69.230469 725.210938 63.894531 C 725.210938 58.5625 733.210938 58.5625 733.210938 63.894531 "/>
<path style="fill:none;stroke-width:2;stroke-linecap:butt;stroke-linejoin:miter;stroke:rgb(36.8417%,50.6779%,70.9798%);stroke-opacity:1;stroke-miterlimit:10;" d="M 80.640625 99.636719 L 82.917969 93.113281 L 108.28125 80.910156 L 158.066406 109.894531 L 160.160156 113.800781 L 141.386719 140.789062 L 94.226562 144.320312 Z M 80.640625 99.636719 " transform="matrix(1,0,0,1,640,10)"/>
<path style=" stroke:none;fill-rule:nonzero;fill:rgb(88.0722%,61.1041%,14.2051%);fill-opacity:1;" d="M 761.492188 122.667969 C 761.492188 128.003906 753.492188 128.003906 753.492188 122.667969 C 753.492188 117.335938 761.492188 117.335938 761.492188 122.667969 "/>
<path style="fill:none;stroke-width:2;stroke-linecap:butt;stroke-linejoin:miter;stroke:rgb(36.8417%,50.6779%,70.9798%);stroke-opacity:1;stroke-miterlimit:10;" d="M 86.839844 155.921875 L 94.226562 144.320312 L 141.386719 140.789062 L 161.894531 200 L 91.507812 200 Z M 86.839844 155.921875 " transform="matrix(1,0,0,1,640,10)"/>
<path style=" stroke:none;fill-rule:nonzero;fill:rgb(88.0722%,61.1041%,14.2051%);fill-opacity:1;" d="M 765.949219 182.152344 C 765.949219 187.484375 757.949219 187.484375 757.949219 182.152344 C 757.949219 176.820312 765.949219 176.820312 765.949219 182.152344 "/>
<path style="fill:none;stroke-width:2;stroke-linecap:butt;stroke-linejoin:miter;stroke:rgb(36.8417%,50.6779%,70.9798%);stroke-opacity:1;stroke-miterlimit:10;" d="M 99.652344 28.148438 L 102.476562 0 L 151.8125 0 L 152.558594 10.113281 L 133.042969 46.765625 L 119.839844 50.292969 Z M 99.652344 28.148438 " transform="matrix(1,0,0,1,640,10)"/>
<path style=" stroke:none;fill-rule:nonzero;fill:rgb(88.0722%,61.1041%,14.2051%);fill-opacity:1;" d="M 770.253906 30.128906 C 770.253906 35.460938 762.253906 35.460938 762.253906 30.128906 C 762.253906 24.792969 770.253906 24.792969 770.253906 30.128906 "/>
<path style="fill:none;stroke-width:2;stroke-linecap:butt;stroke-linejoin:miter;stroke:rgb(36.8417%,50.6779%,70.9798%);stroke-opacity:1;stroke-miterlimit:10;" d="M 108.28125 80.910156 L 119.839844 50.292969 L 133.042969 46.765625 L 163.03125 62.292969 L 158.066406 109.894531 Z M 108.28125 80.910156 " transform="matrix(1,0,0,1,640,10)"/>
<path style=" stroke:none;fill-rule:nonzero;fill:rgb(88.0722%,61.1041%,14.2051%);fill-opacity:1;" d="M 784.445312 83.238281 C 784.445312 88.570312 776.445312 88.570312 776.445312 83.238281 C 776.445312 77.90625 784.445312 77.90625 784.445312 83.238281 "/>
<path style="fill:none;stroke-width:2;stroke-linecap:butt;stroke-linejoin:miter;stroke:rgb(36.8417%,50.6779%,70.9798%);stroke-opacity:1;stroke-miterlimit:10;" d="M 133.042969 46.765625 L 152.558594 10.113281 L 189.429688 46.546875 L 163.03125 62.292969 Z M 133.042969 46.765625 " transform="matrix(1,0,0,1,640,10)"/>
<path style=" stroke:none;fill-rule:nonzero;fill:rgb(88.0722%,61.1041%,14.2051%);fill-opacity:1;" d="M 802.933594 47.53125 C 802.933594 52.863281 794.933594 52.863281 794.933594 47.53125 C 794.933594 42.195312 802.933594 42.195312 802.933594 47.53125 "/>
<path style="fill:none;stroke-width:2;stroke-linecap:butt;stroke-linejoin:miter;stroke:rgb(36.8417%,50.6779%,70.9798%);stroke-opacity:1;stroke-miterlimit:10;" d="M 141.386719 140.789062 L 160.160156 113.800781 L 200 117.382812 L 200 200 L 161.894531 200 Z M 141.386719 140.789062 " transform="matrix(1,0,0,1,640,10)"/>
<path style=" stroke:none;fill-rule:nonzero;fill:rgb(88.0722%,61.1041%,14.2051%);fill-opacity:1;" d="M 820.058594 163.410156 C 820.058594 168.742188 812.058594 168.742188 812.058594 163.410156 C 812.058594 158.074219 820.058594 158.074219 820.058594 163.410156 "/>
<path style="fill:none;stroke-width:2;stroke-linecap:butt;stroke-linejoin:miter;stroke:rgb(36.8417%,50.6779%,70.9798%);stroke-opacity:1;stroke-miterlimit:10;" d="M 151.8125 0 L 200 0 L 200 46.0625 L 189.429688 46.546875 L 152.558594 10.113281 Z M 151.8125 0 " transform="matrix(1,0,0,1,640,10)"/>
<path style=" stroke:none;fill-rule:nonzero;fill:rgb(88.0722%,61.1041%,14.2051%);fill-opacity:1;" d="M 824.050781 26.160156 C 824.050781 31.496094 816.050781 31.496094 816.050781 26.160156 C 816.050781 20.828125 824.050781 20.828125 824.050781 26.160156 "/>
<path style="fill:none;stroke-width:2;stroke-linecap:butt;stroke-linejoin:miter;stroke:rgb(36.8417%,50.6779%,70.9798%);stroke-opacity:1;stroke-miterlimit:10;" d="M 158.066406 109.894531 L 163.03125 62.292969 L 189.429688 46.546875 L 200 46.0625 L 200 117.382812 L 160.160156 113.800781 Z M 158.066406 109.894531 " transform="matrix(1,0,0,1,640,10)"/>
<path style=" stroke:none;fill-rule:nonzero;fill:rgb(88.0722%,61.1041%,14.2051%);fill-opacity:1;" d="M 826.875 87.664062 C 826.875 92.996094 818.875 92.996094 818.875 87.664062 C 818.875 82.328125 826.875 82.328125 826.875 87.664062 "/>
</g>
</svg>
