<?xml version="1.0" encoding="UTF-8"?>
<svg xmlns="http://www.w3.org/2000/svg" xmlns:xlink="http://www.w3.org/1999/xlink" width="320pt" height="240pt" viewBox="0 0 320 240" version="1.1">
<g id="surface1">
<path style="fill:none;stroke-width:1;stroke-linecap:butt;stroke-linejoin:miter;stroke:rgb(88.0722%,61.1041%,14.2051%);stroke-opacity:1;stroke-miterlimit:10;" d="M 10 10 C 138.570312 230 310 175 224.285156 10 "/>
<path style="fill:none;stroke-width:1;stroke-linecap:butt;stroke-linejoin:miter;stroke:rgb(36.8417%,50.6779%,70.9798%);stroke-opacity:1;stroke-miterlimit:10;" d="M 13 10 C 13 14 7 14 7 10 C 7 6 13 6 13 10 "/>
<path style="fill-rule:nonzero;fill:rgb(56.0181%,69.1569%,19.4885%);fill-opacity:0.1;stroke-width:1;stroke-linecap:butt;stroke-linejoin:miter;stroke:rgb(56.0181%,69.1569%,19.4885%);stroke-opacity:0.4;stroke-miterlimit:10;" d="M 13 10 C 13 14 7 14 7 10 C 7 6 13 6 13 10 "/>
<path style="fill:none;stroke-width:1;stroke-linecap:butt;stroke-linejoin:miter;stroke:rgb(36.8417%,50.6779%,70.9798%);stroke-opacity:1;stroke-miterlimit:10;" d="M 38.46875 49.371094 C 38.46875 53.371094 32.46875 53.371094 32.46875 49.371094 C 32.46875 45.371094 38.46875 45.371094 38.46875 49.371094 "/>
<path style="fill-rule:nonzero;fill:rgb(56.0181%,69.1569%,19.4885%);fill-opacity:0.1;stroke-width:1;stroke-linecap:butt;stroke-linejoin:miter;stroke:rgb(56.0181%,69.1569%,19.4885%);stroke-opacity:0.4;stroke-miterlimit:10;" d="M 57.03125 73.375 C 57.03125 77.375 51.03125 77.375 51.03125 73.375 C 51.03125 69.375 57.03125 69.375 57.03125 73.375 "/>
<path style="fill:none;stroke-width:1;stroke-linecap:butt;stroke-linejoin:miter;stroke:rgb(36.8417%,50.6779%,70.9798%);stroke-opacity:1;stroke-miterlimit:10;" d="M 67.933594 85.851562 C 67.933594 89.851562 61.933594 89.851562 61.933594 85.851562 C 61.933594 81.851562 67.933594 81.851562 67.933594 85.851562 "/>
<path style="fill-rule:nonzero;fill:rgb(56.0181%,69.1569%,19.4885%);fill-opacity:0.1;stroke-width:1;stroke-linecap:butt;stroke-linejoin:miter;stroke:rgb(56.0181%,69.1569%,19.4885%);stroke-opacity:0.4;stroke-miterlimit:10;" d="M 101.769531 117.738281 C 101.769531 121.738281 95.769531 121.738281 95.769531 117.738281 C 95.769531 113.738281 101.769531 113.738281 101.769531 117.738281 "/>
<path style="fill:none;stroke-width:1;stroke-linecap:butt;stroke-linejoin:miter;stroke:rgb(36.8417%,50.6779%,70.9798%);stroke-opacity:1;stroke-miterlimit:10;" d="M 102.070312 117.972656 C 102.070312 121.972656 96.070312 121.972656 96.070312 117.972656 C 96.070312 113.972656 102.070312 113.972656 102.070312 117.972656 "/>
<path style="fill-rule:nonzero;fill:rgb(56.0181%,69.1569%,19.4885%);fill-opacity:0.1;stroke-width:1;stroke-linecap:butt;stroke-linejoin:miter;stroke:rgb(56.0181%,69.1569%,19.4885%);stroke-opacity:0.4;stroke-miterlimit:10;" d="M 144.746094 144.445312 C 144.746094 148.445312 138.746094 148.445312 138.746094 144.445312 C 138.746094 140.445312 144.746094 140.445312 144.746094 144.445312 "/>
<path style="fill:none;stroke-width:1;stroke-linecap:butt;stroke-linejoin:miter;stroke:rgb(36.8417%,50.6779%,70.9798%);stroke-opacity:1;stroke-miterlimit:10;" d="M 141.625 143.015625 C 141.625 147.015625 135.625 147.015625 135.625 143.015625 C 135.625 139.015625 141.625 139.015625 141.625 143.015625 "/>
<path style="fill-rule:nonzero;fill:rgb(56.0181%,69.1569%,19.4885%);fill-opacity:0.1;stroke-width:1;stroke-linecap:butt;stroke-linejoin:miter;stroke:rgb(56.0181%,69.1569%,19.4885%);stroke-opacity:0.4;stroke-miterlimit:10;" d="M 183.488281 154.855469 C 183.488281 158.855469 177.488281 158.855469 177.488281 154.855469 C 177.488281 150.855469 183.488281 150.855469 183.488281 154.855469 "/>
<path style="fill:none;stroke-width:1;stroke-linecap:butt;stroke-linejoin:miter;stroke:rgb(36.8417%,50.6779%,70.9798%);stroke-opacity:1;stroke-miterlimit:10;" d="M 186.65625 155.039062 C 186.65625 159.039062 180.65625 159.039062 180.65625 155.039062 C 180.65625 151.039062 186.65625 151.039062 186.65625 155.039062 "/>
<path style="fill-rule:nonzero;fill:rgb(56.0181%,69.1569%,19.4885%);fill-opacity:0.1;stroke-width:1;stroke-linecap:butt;stroke-linejoin:miter;stroke:rgb(56.0181%,69.1569%,19.4885%);stroke-opacity:0.4;stroke-miterlimit:10;" d="M 215.527344 150.328125 C 215.527344 154.328125 209.527344 154.328125 209.527344 150.328125 C 209.527344 146.328125 215.527344 146.328125 215.527344 150.328125 "/>
<path style="fill:none;stroke-width:1;stroke-linecap:butt;stroke-linejoin:miter;stroke:rgb(36.8417%,50.6779%,70.9798%);stroke-opacity:1;stroke-miterlimit:10;" d="M 230.285156 141.203125 C 230.285156 145.203125 224.285156 145.203125 224.285156 141.203125 C 224.285156 137.203125 230.285156 137.203125 230.285156 141.203125 "/>
<path style="fill-rule:nonzero;fill:rgb(56.0181%,69.1569%,19.4885%);fill-opacity:0.1;stroke-width:1;stroke-linecap:butt;stroke-linejoin:miter;stroke:rgb(56.0181%,69.1569%,19.4885%);stroke-opacity:0.4;stroke-miterlimit:10;" d="M 238.398438 132.222656 C 238.398438 136.222656 232.398438 136.222656 232.398438 132.222656 C 232.398438 128.222656 238.398438 128.222656 238.398438 132.222656 "/>
<path style="fill:none;stroke-width:1;stroke-linecap:butt;stroke-linejoin:miter;stroke:rgb(36.8417%,50.6779%,70.9798%);stroke-opacity:1;stroke-miterlimit:10;" d="M 249.867188 99.789062 C 249.867188 103.789062 243.867188 103.789062 243.867188 99.789062 C 243.867188 95.789062 249.867188 95.789062 249.867188 99.789062 "/>
<path style="fill-rule:nonzero;fill:rgb(56.0181%,69.1569%,19.4885%);fill-opacity:0.1;stroke-width:1;stroke-linecap:butt;stroke-linejoin:miter;stroke:rgb(56.0181%,69.1569%,19.4885%);stroke-opacity:0.4;stroke-miterlimit:10;" d="M 249.625 101.894531 C 249.625 105.894531 243.625 105.894531 243.625 101.894531 C 243.625 97.894531 249.625 97.894531 249.625 101.894531 "/>
<path style="fill:none;stroke-width:1;stroke-linecap:butt;stroke-linejoin:miter;stroke:rgb(36.8417%,50.6779%,70.9798%);stroke-opacity:1;stroke-miterlimit:10;" d="M 244.871094 53.410156 C 244.871094 57.410156 238.871094 57.410156 238.871094 53.410156 C 238.871094 49.410156 244.871094 49.410156 244.871094 53.410156 "/>
<path style="fill-rule:nonzero;fill:rgb(56.0181%,69.1569%,19.4885%);fill-opacity:0.1;stroke-width:1;stroke-linecap:butt;stroke-linejoin:miter;stroke:rgb(56.0181%,69.1569%,19.4885%);stroke-opacity:0.4;stroke-miterlimit:10;" d="M 246.746094 60.699219 C 246.746094 64.699219 240.746094 64.699219 240.746094 60.699219 C 240.746094 56.699219 246.746094 56.699219 246.746094 60.699219 "/>
<path style="fill:none;stroke-width:1;stroke-linecap:butt;stroke-linejoin:miter;stroke:rgb(36.8417%,50.6779%,70.9798%);stroke-opacity:1;stroke-miterlimit:10;" d="M 227.289062 10.007812 C 227.289062 14.007812 221.289062 14.007812 221.289062 10.007812 C 221.289062 6.007812 227.289062 6.007812 227.289062 10.007812 "/>
<path style="fill-rule:nonzero;fill:rgb(56.0181%,69.1569%,19.4885%);fill-opacity:0.1;stroke-width:1;stroke-linecap:butt;stroke-linejoin:miter;stroke:rgb(56.0181%,69.1569%,19.4885%);stroke-opacity:0.4;stroke-miterlimit:10;" d="M 227.285156 10 C 227.285156 14 221.285156 14 221.285156 10 C 221.285156 6 227.285156 6 227.285156 10 "/>
</g>
</svg>
