<?xml version="1.0" encoding="UTF-8"?>
<svg xmlns="http://www.w3.org/2000/svg" xmlns:xlink="http://www.w3.org/1999/xlink" width="320pt" height="240pt" viewBox="0 0 320 240" version="1.1">
<g id="surface1">
<path style="fill:none;stroke-width:1;stroke-linecap:butt;stroke-linejoin:miter;stroke:rgb(88.0722%,61.1041%,14.2051%);stroke-opacity:1;stroke-miterlimit:10;" d="M 10 10 C 172.503906 343.554688 389.175781 260.164062 280.839844 10 "/>
<path style="fill:none;stroke-width:1;stroke-linecap:butt;stroke-linejoin:miter;stroke:rgb(36.8417%,50.6779%,70.9798%);stroke-opacity:1;stroke-miterlimit:10;" d="M 13 10 C 13 14 7 14 7 10 C 7 6 13 6 13 10 "/>
<path style="fill-rule:nonzero;fill:rgb(56.0181%,69.1569%,19.4885%);fill-opacity:0.1;stroke-width:1;stroke-linecap:butt;stroke-linejoin:miter;stroke:rgb(56.0181%,69.1569%,19.4885%);stroke-opacity:0.4;stroke-miterlimit:10;" d="M 13 10 C 13 14 7 14 7 10 C 7 6 13 6 13 10 "/>
<path style="fill:none;stroke-width:1;stroke-linecap:butt;stroke-linejoin:miter;stroke:rgb(36.8417%,50.6779%,70.9798%);stroke-opacity:1;stroke-miterlimit:10;" d="M 44.195312 68.027344 C 44.195312 72.027344 38.195312 72.027344 38.195312 68.027344 C 38.195312 64.027344 44.195312 64.027344 44.195312 68.027344 "/>
<path style="fill-rule:nonzero;fill:rgb(56.0181%,69.1569%,19.4885%);fill-opacity:0.1;stroke-width:1;stroke-linecap:butt;stroke-linejoin:miter;stroke:rgb(56.0181%,69.1569%,19.4885%);stroke-opacity:0.4;stroke-miterlimit:10;" d="M 68.652344 106.085938 C 68.652344 110.085938 62.652344 110.085938 62.652344 106.085938 C 62.652344 102.085938 68.652344 102.085938 68.652344 106.085938 "/>
<path style="fill:none;stroke-width:1;stroke-linecap:butt;stroke-linejoin:miter;stroke:rgb(36.8417%,50.6779%,70.9798%);stroke-opacity:1;stroke-miterlimit:10;" d="M 80.765625 122.808594 C 80.765625 126.808594 74.765625 126.808594 74.765625 122.808594 C 74.765625 118.808594 80.765625 118.808594 80.765625 122.808594 "/>
<path style="fill-rule:nonzero;fill:rgb(56.0181%,69.1569%,19.4885%);fill-opacity:0.1;stroke-width:1;stroke-linecap:butt;stroke-linejoin:miter;stroke:rgb(56.0181%,69.1569%,19.4885%);stroke-opacity:0.4;stroke-miterlimit:10;" d="M 125.199219 173.34375 C 125.199219 177.34375 119.199219 177.34375 119.199219 173.34375 C 119.199219 169.34375 125.199219 169.34375 125.199219 173.34375 "/>
<path style="fill:none;stroke-width:1;stroke-linecap:butt;stroke-linejoin:miter;stroke:rgb(36.8417%,50.6779%,70.9798%);stroke-opacity:1;stroke-miterlimit:10;" d="M 124.136719 172.324219 C 124.136719 176.324219 118.136719 176.324219 118.136719 172.324219 C 118.136719 168.324219 124.136719 168.324219 124.136719 172.324219 "/>
<path style="fill-rule:nonzero;fill:rgb(56.0181%,69.1569%,19.4885%);fill-opacity:0.1;stroke-width:1;stroke-linecap:butt;stroke-linejoin:miter;stroke:rgb(56.0181%,69.1569%,19.4885%);stroke-opacity:0.4;stroke-miterlimit:10;" d="M 179.515625 213.839844 C 179.515625 217.839844 173.515625 217.839844 173.515625 213.839844 C 173.515625 209.839844 179.515625 209.839844 179.515625 213.839844 "/>
<path style="fill:none;stroke-width:1;stroke-linecap:butt;stroke-linejoin:miter;stroke:rgb(36.8417%,50.6779%,70.9798%);stroke-opacity:1;stroke-miterlimit:10;" d="M 176.414062 212.148438 C 176.414062 216.148438 170.414062 216.148438 170.414062 212.148438 C 170.414062 208.148438 176.414062 208.148438 176.414062 212.148438 "/>
<path style="fill-rule:nonzero;fill:rgb(56.0181%,69.1569%,19.4885%);fill-opacity:0.1;stroke-width:1;stroke-linecap:butt;stroke-linejoin:miter;stroke:rgb(56.0181%,69.1569%,19.4885%);stroke-opacity:0.4;stroke-miterlimit:10;" d="M 228.484375 229.625 C 228.484375 233.625 222.484375 233.625 222.484375 229.625 C 222.484375 225.625 228.484375 225.625 228.484375 229.625 "/>
<path style="fill:none;stroke-width:1;stroke-linecap:butt;stroke-linejoin:miter;stroke:rgb(36.8417%,50.6779%,70.9798%);stroke-opacity:1;stroke-miterlimit:10;" d="M 239.0625 229.964844 C 239.0625 233.964844 233.0625 233.964844 233.0625 229.964844 C 233.0625 225.964844 239.0625 225.964844 239.0625 229.964844 "/>
<path style="fill-rule:nonzero;fill:rgb(56.0181%,69.1569%,19.4885%);fill-opacity:0.1;stroke-width:1;stroke-linecap:butt;stroke-linejoin:miter;stroke:rgb(56.0181%,69.1569%,19.4885%);stroke-opacity:0.4;stroke-miterlimit:10;" d="M 268.980469 222.761719 C 268.980469 226.761719 262.980469 226.761719 262.980469 222.761719 C 262.980469 218.761719 268.980469 218.761719 268.980469 222.761719 "/>
<path style="fill:none;stroke-width:1;stroke-linecap:butt;stroke-linejoin:miter;stroke:rgb(36.8417%,50.6779%,70.9798%);stroke-opacity:1;stroke-miterlimit:10;" d="M 294.890625 199.96875 C 294.890625 203.96875 288.890625 203.96875 288.890625 199.96875 C 288.890625 195.96875 294.890625 195.96875 294.890625 199.96875 "/>
<path style="fill-rule:nonzero;fill:rgb(56.0181%,69.1569%,19.4885%);fill-opacity:0.1;stroke-width:1;stroke-linecap:butt;stroke-linejoin:miter;stroke:rgb(56.0181%,69.1569%,19.4885%);stroke-opacity:0.4;stroke-miterlimit:10;" d="M 297.882812 195.308594 C 297.882812 199.308594 291.882812 199.308594 291.882812 195.308594 C 291.882812 191.308594 297.882812 191.308594 297.882812 195.308594 "/>
<path style="fill:none;stroke-width:1;stroke-linecap:butt;stroke-linejoin:miter;stroke:rgb(36.8417%,50.6779%,70.9798%);stroke-opacity:1;stroke-miterlimit:10;" d="M 312.894531 137.492188 C 312.894531 141.492188 306.894531 141.492188 306.894531 137.492188 C 306.894531 133.492188 312.894531 133.492188 312.894531 137.492188 "/>
<path style="fill-rule:nonzero;fill:rgb(56.0181%,69.1569%,19.4885%);fill-opacity:0.1;stroke-width:1;stroke-linecap:butt;stroke-linejoin:miter;stroke:rgb(56.0181%,69.1569%,19.4885%);stroke-opacity:0.4;stroke-miterlimit:10;" d="M 312.074219 149.324219 C 312.074219 153.324219 306.074219 153.324219 306.074219 149.324219 C 306.074219 145.324219 312.074219 145.324219 312.074219 149.324219 "/>
<path style="fill:none;stroke-width:1;stroke-linecap:butt;stroke-linejoin:miter;stroke:rgb(36.8417%,50.6779%,70.9798%);stroke-opacity:1;stroke-miterlimit:10;" d="M 305.210938 72.257812 C 305.210938 76.257812 299.210938 76.257812 299.210938 72.257812 C 299.210938 68.257812 305.210938 68.257812 305.210938 72.257812 "/>
<path style="fill-rule:nonzero;fill:rgb(56.0181%,69.1569%,19.4885%);fill-opacity:0.1;stroke-width:1;stroke-linecap:butt;stroke-linejoin:miter;stroke:rgb(56.0181%,69.1569%,19.4885%);stroke-opacity:0.4;stroke-miterlimit:10;" d="M 308.433594 86.867188 C 308.433594 90.867188 302.433594 90.867188 302.433594 86.867188 C 302.433594 82.867188 308.433594 82.867188 308.433594 86.867188 "/>
<path style="fill:none;stroke-width:1;stroke-linecap:butt;stroke-linejoin:miter;stroke:rgb(36.8417%,50.6779%,70.9798%);stroke-opacity:1;stroke-miterlimit:10;" d="M 283.84375 10.007812 C 283.84375 14.007812 277.84375 14.007812 277.84375 10.007812 C 277.84375 6.007812 283.84375 6.007812 283.84375 10.007812 "/>
<path style="fill-rule:nonzero;fill:rgb(56.0181%,69.1569%,19.4885%);fill-opacity:0.1;stroke-width:1;stroke-linecap:butt;stroke-linejoin:miter;stroke:rgb(56.0181%,69.1569%,19.4885%);stroke-opacity:0.4;stroke-miterlimit:10;" d="M 283.839844 10 C 283.839844 14 277.839844 14 277.839844 10 C 277.839844 6 283.839844 6 283.839844 10 "/>
</g>
</svg>
