<?xml version="1.0" encoding="UTF-8"?>
<svg xmlns="http://www.w3.org/2000/svg" xmlns:xlink="http://www.w3.org/1999/xlink" width="260pt" height="200pt" viewBox="0 0 260 200" version="1.1">
<g id="id1">
<path style="fill:none;stroke-width:1;stroke-linecap:butt;stroke-linejoin:miter;stroke:rgb(36.8417%,50.6779%,70.9798%);stroke-opacity:1;stroke-miterlimit:10;" d="M 157.945312 149.265625 L 166.269531 139.417969 L 178.980469 120.003906 L 179.96875 117.054688 L 181.515625 114.175781 L 182.53125 110.539062 L 183.207031 106.523438 L 183.078125 100.855469 L 182.023438 96.097656 L 180.375 91.921875 L 179.472656 91.234375 L 178.175781 88.863281 L 177.21875 88.203125 L 176.367188 86.492188 L 175.453125 85.535156 L 175.078125 85.707031 L 173.285156 83.207031 L 172.199219 82.152344 L 171.757812 82.207031 L 169.632812 79.402344 L 167.835938 78.277344 L 162.730469 73.757812 L 162.113281 73.683594 L 158.886719 70.820312 L 156.847656 69.949219 L 155.078125 68.042969 L 152.472656 66.550781 L 151.707031 65.683594 L 150.542969 65.402344 L 146.890625 62.511719 L 146.054688 62.523438 L 141.285156 59.660156 L 139.03125 59.144531 L 138.121094 58.460938 L 137.199219 58.496094 L 132.953125 56.15625 L 131.503906 56.1875 L 128.070312 54.476562 L 124.546875 53.550781 L 123.53125 53.78125 L 122.511719 53.207031 L 121.488281 53.34375 L 118.382812 52 L 116.285156 51.726562 L 115.234375 52.128906 L 114.183594 51.644531 L 112.074219 51.648438 L 109.421875 51.011719 L 105.675781 50.664062 L 104.605469 50.980469 L 101.917969 50.4375 L 96.53125 50.722656 L 91.75 51.5625 L 89.667969 53.351562 L 85.601562 53.929688 L 82.605469 54.875 L 77.785156 57.519531 L 75.914062 57.691406 L 73.625 59.539062 L 67.496094 61.851562 L 63.777344 64.472656 L 62.191406 65.007812 L 60.273438 67.089844 L 53.980469 71.777344 L 52.710938 73.515625 L 51.195312 74.546875 L 49.765625 77.074219 L 46.222656 81.140625 L 43.539062 85.953125 L 40.355469 94.390625 L 39.152344 102.253906 L 39.195312 107.457031 L 39.90625 113.75 L 42.097656 121.511719 L 45.222656 129.765625 L 52.722656 142.207031 L 56.332031 147.328125 L 59.441406 150.363281 L 63.304688 155.296875 L 67.546875 159.789062 L 69.796875 161.339844 L 72.132812 164.285156 L 75.816406 167.363281 L 88.601562 176.195312 L 94.476562 179.679688 L 103.703125 183.105469 L 105.273438 183.1875 L 113.304688 186.082031 L 115.757812 186.148438 L 119.050781 187.644531 L 121.558594 188.167969 L 137.523438 188.894531 L 145.085938 187.871094 L 149.222656 186.464844 L 153.308594 185.65625 L 157.320312 183.621094 L 164.34375 181.277344 L 178.363281 175.226562 L 183.90625 172.320312 L 185.917969 170.542969 L 187.886719 169.636719 L 198.355469 162.625 L 201.203125 159.925781 L 207.589844 155.273438 L 210.550781 152.339844 L 217.832031 147.636719 L 227.167969 139.449219 L 238.242188 127.230469 L 243.148438 118.5 L 245.449219 110.953125 L 246.191406 104.226562 L 245.113281 95.488281 L 244.148438 91.683594 L 242.863281 88.574219 L 239.695312 82.308594 L 232.910156 71.207031 L 229.78125 67.988281 L 224.625 61.523438 L 219.214844 57.164062 L 216.78125 54.277344 L 209.863281 47.78125 L 196.90625 37.1875 L 184.789062 29.128906 L 180.207031 26.695312 L 178.648438 26.257812 L 168.089844 20.132812 L 157.730469 16.007812 L 153.261719 13.816406 L 146.851562 11.890625 L 139.402344 10.953125 L 136.585938 10.226562 L 127.160156 10.042969 L 120.570312 10.324219 L 118.691406 10.789062 L 116.816406 10.546875 L 109.359375 11.773438 L 93.972656 15.867188 L 88.734375 18.066406 L 81.988281 21.863281 L 75.589844 26.855469 L 64.703125 36.757812 L 63.355469 37.578125 L 50.261719 51.773438 L 45.320312 58.148438 L 41.039062 64.792969 L 37.769531 71.222656 L 34.054688 79.945312 L 31.414062 88.035156 L 29.816406 95.519531 L 29.128906 103.796875 L 29.660156 112.378906 L 31.171875 119.4375 L 33.746094 126.464844 L 38.121094 134.078125 L 40.304688 137.421875 L 48.148438 146.355469 L 58.164062 153.660156 L 64.746094 156.328125 L 67.914062 158.171875 L 70.078125 158.734375 L 73.390625 160.792969 L 77.371094 161.664062 L 80.265625 162.828125 L 84.371094 163.484375 L 87.910156 163.195312 L 89.683594 163.757812 L 94.386719 162.734375 L 96.144531 163.070312 L 104.777344 160.980469 L 108.683594 159.347656 L 110.328125 159.117188 L 116.710938 156.242188 L 120.253906 154.070312 L 123.632812 151.050781 L 124.558594 150.726562 L 128.105469 146.824219 L 129.371094 146.1875 L 132.933594 141.914062 L 137.667969 134.4375 L 138.84375 133.210938 L 142.757812 124.949219 L 145.320312 116.398438 L 146.484375 109.203125 L 146.652344 102.027344 L 145.535156 94.078125 L 142.699219 85.828125 L 142.136719 85.375 L 139.5625 80.578125 L 137.046875 77.675781 L 136.246094 77.613281 L 134.300781 75.671875 L 126.933594 71.558594 L 125.277344 70.792969 L 124.277344 71.285156 L 121.917969 70.28125 L 119.199219 70.636719 L 118.519531 70.375 L 114.855469 71.910156 L 113.554688 71.953125 L 111.96875 73.378906 L 110.734375 73.761719 L 109.832031 74.679688 L 108.066406 75.210938 L 107.207031 76.46875 L 105.015625 77.605469 L 104.234375 78.941406 L 101.324219 81.621094 L 99.210938 84.65625 L 96.167969 91.769531 L 94.523438 99.546875 L 94.3125 106.882812 L 94.757812 111.136719 L 95.699219 115.324219 L 98.230469 121.625 L 99.292969 122.671875 L 99.859375 123.964844 L 105.640625 129.867188 L 106.925781 130.328125 L 110.464844 132.851562 L 112.171875 132.835938 L 113.621094 133.886719 L 115.390625 133.699219 L 116.28125 134.222656 L 121.847656 133.125 L 123.574219 133.433594 L 125.558594 131.980469 L 128.515625 130.585938 L 130.53125 128.457031 L 131.492188 128.246094 L 132.859375 126.015625 L 133.507812 125.820312 L 136.320312 120.753906 L 138 116.609375 L 139.410156 110.105469 L 139.785156 105.25 L 139.589844 100.191406 L 138.246094 92.835938 L 136.394531 87.054688 L 132.605469 79.570312 L 131.332031 78.175781 L 129.660156 75.128906 L 128.480469 74.507812 L 124.933594 69.992188 L 121.34375 66.878906 L 119.453125 66.183594 L 117.488281 64.253906 L 109.972656 60.890625 L 107.796875 60.84375 L 105.128906 59.308594 L 103.785156 59.609375 L 101.523438 58.835938 L 94.695312 58.765625 L 90.191406 60.03125 L 88.871094 60.882812 L 85.4375 61.992188 L 84.59375 62.738281 L 81.703125 63.53125 L 80.492188 64.585938 L 77.359375 65.902344 L 76.234375 67.535156 L 73.699219 68.984375 L 70.328125 72.292969 L 66.238281 77.648438 L 64.234375 80.984375 L 61.953125 85.945312 L 60.652344 89.886719 L 58.960938 97.621094 L 58.527344 103.730469 L 58.707031 108.753906 L 59.605469 115.328125 L 61.117188 121.203125 L 64.902344 130.226562 L 69.726562 139.398438 L 78.15625 150.136719 L 80.015625 151.683594 L 82.449219 154.585938 L 84.480469 155.859375 L 87.117188 158.46875 L 98.589844 165.257812 L 99.808594 165.617188 L 101.667969 167.054688 L 111.296875 170.039062 L 117.890625 170.496094 L 121.222656 171.585938 L 122.5625 171.097656 L 127.234375 171.433594 L 133.210938 170.261719 L 139.050781 168.234375 L 140.324219 168.144531 L 141.59375 167.429688 L 144.109375 167.058594 L 155.503906 161.984375 L 158.332031 159.867188 L 161.074219 158.503906 L 167.71875 152.746094 L 177.546875 142.203125 L 183.191406 133.347656 L 186.042969 127.761719 L 187.890625 122.835938 L 189.957031 114.234375 L 190.769531 104.839844 L 190.117188 95.335938 L 188.21875 85.988281 L 184.503906 76.203125 L 181.382812 69.871094 L 178.464844 65.660156 L 177.667969 63.867188 L 169.402344 52.734375 L 166.757812 50.277344 L 163.375 45.910156 L 161.605469 44.695312 L 157.261719 40.242188 L 149.222656 34.46875 L 143.496094 31.234375 L 140.523438 29.050781 L 132.8125 25.445312 L 125.601562 22.972656 L 123.15625 22.777344 L 116.519531 20.320312 L 114 20.648438 L 112.320312 20 L 104.675781 19.023438 L 101.261719 19.441406 L 95.308594 19.386719 L 91.09375 20.929688 L 86.9375 21.566406 L 82.84375 23.472656 L 73.308594 26.617188 L 68.738281 29.828125 L 65.054688 31.484375 L 62.1875 33.910156 L 57.34375 36.550781 L 47.707031 43.566406 L 45.910156 45.707031 L 41.917969 48.796875 L 28.183594 64.472656 L 21.976562 74.613281 L 16.4375 87.289062 L 14.417969 95.886719 L 13.816406 105.300781 L 14.644531 113.847656 L 17.144531 122.992188 L 20.785156 132.015625 L 24.84375 140.003906 L 29.109375 146.605469 L 34.078125 152.761719 L 37.574219 156.445312 L 48.992188 166.675781 L 50.253906 168.292969 L 56.171875 172.246094 L 58.238281 174.5 L 61.078125 176.496094 L 66.21875 179.054688 L 70.011719 181.464844 L 74.695312 183.730469 L 76.285156 183.882812 L 79.492188 185.277344 L 83.558594 186.089844 L 89.351562 188.042969 L 94.386719 188.691406 L 96.078125 189.355469 L 113.984375 189.972656 L 119.074219 188.324219 L 129.039062 186.445312 L 137.074219 183.253906 L 141.730469 180.875 L 143.996094 179.105469 L 151.253906 174.832031 L 158.015625 169.320312 L 159.308594 168.863281 L 167.15625 160.855469 L 171.96875 155.039062 L 176.65625 147.847656 L 183.894531 134.347656 L 187.792969 123.777344 L 189.21875 117.019531 L 190.261719 107.707031 L 190.203125 99.855469 L 189.046875 91.089844 L 187.214844 83.996094 L 183.800781 75.257812 L 178.726562 65.566406 L 174.078125 58.402344 L 167.621094 50.871094 L 166.542969 50.214844 L 163.179688 46.445312 L 160.222656 44.105469 L 157.164062 42.359375 L 152.691406 38.757812 L 149.371094 37.1875 L 147.332031 35.722656 L 145.261719 35.023438 L 141.730469 32.816406 L 129.230469 29.085938 L 127.714844 28.273438 L 126.195312 28.371094 L 124.671875 27.9375 L 123.144531 28.324219 L 120.085938 27.589844 L 115.472656 27.378906 L 109.359375 28.5 L 106.320312 28.429688 L 97.382812 31.476562 L 95.925781 31.625 L 93.757812 32.457031 L 91.617188 33.871094 L 86.738281 35.625 L 80.707031 38.980469 L 70.933594 47.644531 L 67.664062 52.011719 L 64.117188 55.410156 L 58.285156 63.257812 L 54.839844 68.675781 L 51.023438 76.359375 L 47.972656 85.171875 L 45.902344 95.542969 L 45.367188 102.339844 L 45.644531 110.800781 L 47.273438 120.125 L 48.335938 124.308594 L 52.574219 134.785156 L 55.871094 140.519531 L 62.296875 148.664062 L 72.03125 157.769531 L 76.96875 160.765625 L 81.039062 164.171875 L 84.65625 165.152344 L 88.375 167.554688 L 97.355469 169.765625 L 99.964844 169.425781 L 104.546875 170.15625 L 110.457031 170.089844 L 111.773438 170.609375 L 123.457031 168.015625 L 125.972656 166.53125 L 129.664062 165.367188 L 137.832031 160.183594 L 143.683594 155.058594 L 148.035156 150.480469 L 148.953125 150.148438 L 156.265625 140.507812 L 161.210938 130.515625 L 164.226562 121.574219 L 166.164062 112.101562 L 166.554688 104.796875 L 166.28125 98.140625 L 165.1875 90.765625 L 162.421875 80.707031 L 159.457031 74.09375 L 155.777344 67.582031 L 153.484375 64.507812 L 151.027344 62.3125 L 147.9375 58.085938 L 139.996094 51.054688 L 138.386719 50.316406 L 136.742188 48.734375 L 133.351562 47.066406 L 131.613281 45.652344 L 121.921875 42 L 120.042969 41.734375 L 117.542969 42.066406 L 111.25 40.804688 L 104.273438 41.308594 L 103.007812 40.890625 L 101.109375 41.136719 L 99.222656 42.058594 L 97.351562 41.921875 L 92.421875 43.707031 L 89.398438 44.28125 L 88.207031 45.203125 L 87.027344 45.535156 L 85.859375 46.710938 L 82.4375 48.199219 L 77.023438 52.53125 L 73.964844 54.140625 L 67.394531 60.355469 L 62.078125 66.433594 L 58.910156 71.421875 L 54.414062 80.605469 L 51.898438 88.671875 L 50.355469 96.109375 L 49.820312 103.789062 L 50.136719 110.613281 L 50.828125 115.632812 L 53.019531 125.03125 L 55.640625 131.75 L 60 139.667969 L 63.363281 144.125 L 68.015625 149.238281 L 68.925781 150.84375 L 73.824219 155.851562 L 75.402344 157.972656 L 78.136719 160.355469 L 83.917969 164.199219 L 92.566406 168.320312 L 99.710938 170.546875 L 103.699219 171.507812 L 105.714844 171.609375 L 107.066406 172.367188 L 109.78125 172.152344 L 115.929688 173.242188 L 119.367188 173.242188 L 122.789062 172.410156 L 126.199219 172.738281 L 130.261719 171.875 L 131.605469 171.105469 L 135.570312 169.898438 L 144.355469 164.609375 L 145.546875 163.519531 L 149.054688 162.097656 L 151.320312 159.984375 L 155.648438 157.101562 L 163.820312 147.996094 L 169.03125 141.160156 L 175.507812 127.359375 L 178.34375 117.433594 L 179.351562 109.933594 L 179.550781 102.03125 L 178.488281 92.015625 L 175 79.441406 L 170.960938 70.960938 L 164.796875 60.675781 L 163.46875 59.382812 L 160.148438 54.625 L 153.207031 47.265625 L 146.625 41.777344 L 140.84375 38.535156 L 137.484375 35.964844 L 135.417969 34.800781 L 126.152344 31.203125 L 123.953125 30.945312 L 118.753906 29.246094 L 111.960938 28.53125 L 110.445312 28.902344 L 108.933594 28.71875 L 107.425781 29.199219 L 105.164062 29.042969 L 100.667969 29.773438 L 96.226562 30.917969 L 94.765625 31.808594 L 90.429688 32.242188 L 88.277344 32.839844 L 82.648438 35.261719 L 81.265625 35.351562 L 74.496094 37.980469 L 69.304688 40.902344 L 66.804688 42.507812 L 63.191406 46.011719 L 60.882812 47.503906 L 57.5625 50.476562 L 54.449219 54.550781 L 51.539062 57.089844 L 41.867188 70.429688 L 38.214844 77.433594 L 34.683594 87.03125 L 33.027344 95.332031 L 32.40625 105.933594 L 33.054688 113.308594 L 34.875 121.894531 L 37.671875 130.355469 L 43.300781 141.332031 L 46.851562 146.722656 L 50.875 151.792969 L 56.957031 158.804688 L 59.171875 160.660156 L 64.492188 166.574219 L 67.671875 169.34375 L 78.628906 176.617188 L 82.261719 177.613281 L 84.480469 179.136719 L 88.253906 180.679688 L 96.761719 182.636719 L 101.503906 184.292969 L 115.222656 185.8125 L 120.894531 185.109375 L 128.863281 183.191406 L 131.207031 182.011719 L 133.527344 181.476562 L 137.332031 179.347656 L 138.828125 179.140625 L 147.527344 174.726562 L 161.863281 164.785156 L 168.113281 158.019531 L 175.007812 149.726562 L 179.195312 143.269531 L 183.699219 135.078125 L 187.996094 124.695312 L 189.683594 117.996094 L 190.90625 108.445312 L 190.863281 99.714844 L 189.566406 90.558594 L 186.09375 78.949219 L 183.535156 72.777344 L 178.03125 62.152344 L 172.5 54.273438 L 164.351562 45.640625 L 161.972656 44.246094 L 155.667969 38.601562 L 152.335938 36.757812 L 150.277344 35.027344 L 144.585938 31.394531 L 142.386719 30.609375 L 136.339844 27.304688 L 126.933594 24.613281 L 118.074219 23.234375 L 113.230469 23.992188 L 106.785156 23.78125 L 98.796875 25.203125 L 97.222656 25.851562 L 96.4375 25.707031 L 91.757812 27.390625 L 88.683594 27.804688 L 80.492188 31.753906 L 70.117188 38.695312 L 64.476562 44.625 L 60.972656 47.210938 L 57.640625 50.320312 L 52.511719 55.703125 L 45.90625 64.765625 L 40.972656 73.34375 L 39.242188 77.640625 L 35.882812 88.378906 L 34.605469 94.355469 L 33.917969 100.46875 L 34 109.679688 L 35.65625 120.535156 L 36.746094 124.609375 L 40.703125 134.148438 L 43.972656 140.367188 L 50.46875 149.914062 L 60.65625 161.265625 L 64.71875 163.648438 L 67.753906 166.425781 L 71.546875 168.898438 L 72.839844 169.21875 L 76.796875 171.613281 L 82.25 173.433594 L 86.453125 175.421875 L 87.875 175.585938 L 92.210938 177.695312 L 99.597656 178.691406 L 101.089844 179.445312 L 104.105469 180.136719 L 109.390625 179.503906 L 113.910156 179.84375 L 117.671875 179.480469 L 126.492188 176.265625 L 127.925781 176.050781 L 134.910156 172.445312 L 136.269531 172.148438 L 138.28125 170.851562 L 138.945312 170.851562 L 142.839844 167.902344 L 145.347656 166.351562 L 147.199219 165.703125 L 150.207031 163.46875 L 153.074219 160.03125 L 155.804688 158.03125 L 162.703125 149.710938 L 169.730469 137.773438 L 174.199219 127.539062 L 175.660156 123.027344 L 177.640625 112.621094 L 178.066406 103.070312 L 177.148438 93.3125 L 175.550781 85.917969 L 172.390625 76.957031 L 164.476562 62.222656 L 156.992188 52.792969 L 151.589844 47.84375 L 148.71875 46.246094 L 142.667969 41.441406 L 134.203125 36.964844 L 129.417969 35.144531 L 119.546875 32.5 L 108.050781 32.667969 L 103.085938 34.324219 L 98.191406 34.632812 L 90.664062 37.402344 L 88.660156 37.773438 L 85.371094 39.675781 L 82.796875 40.410156 L 75.996094 44.753906 L 71.949219 48.480469 L 69.738281 49.945312 L 63.644531 57.390625 L 60.902344 60.042969 L 56.398438 66.488281 L 51.082031 75.539062 L 48.730469 80.933594 L 46.410156 88.929688 L 44.882812 99.980469 L 44.921875 109.613281 L 45.886719 116.96875 L 48.886719 128 L 51.890625 135.652344 L 56.058594 142.839844 L 62.460938 151.90625 L 64.890625 154.03125 L 67.460938 157.289062 L 69.605469 158.628906 L 71.824219 161.097656 L 78.941406 166.824219 L 85.375 170.648438 L 92.78125 173.097656 L 96.230469 173.453125 L 98.316406 174.429688 L 101.128906 175.085938 L 101.839844 175.714844 L 105.40625 175.808594 L 107.5625 176.542969 L 110.445312 176.507812 L 111.882812 176.09375 L 114.761719 176.714844 L 119.082031 176.304688 L 120.523438 176.664062 L 124.125 176.398438 L 128.414062 175.484375 L 137.410156 171.832031 L 141.386719 169.34375 L 146.488281 167.140625 L 151.351562 163.535156 L 154.796875 160.121094 L 157 158.859375 L 165.488281 150.277344 L 170.160156 143.621094 L 176.203125 133.070312 L 178.695312 126.246094 L 181.074219 116.730469 L 182.171875 108.863281 L 182.179688 100.023438 L 181.144531 91.578125 L 178.046875 80.027344 L 174.070312 71.769531 L 166.878906 60.476562 L 162.675781 54.597656 L 155.753906 47.382812 L 154.605469 46.839844 L 150.4375 42.757812 L 144.0625 38.320312 L 142.738281 38.105469 L 131.695312 32.832031 L 122.21875 30.195312 L 117.761719 29.890625 L 111.808594 29.902344 L 108.105469 30.511719 L 105.140625 30.117188 L 102.1875 31.105469 L 99.257812 31.25 L 92.800781 34.171875 L 86.566406 36.324219 L 84.523438 36.679688 L 77.28125 40.390625 L 72.898438 43.230469 L 71.09375 45.378906 L 70.503906 45.40625 L 68.183594 47.261719 L 59.234375 55.894531 L 53.132812 65.804688 L 49.195312 71.347656 L 46.476562 76.796875 L 45.1875 80.285156 L 42.105469 91.441406 L 41.097656 98.855469 L 40.976562 107.550781 L 41.878906 115.597656 L 44.105469 125.453125 L 48.855469 136.71875 L 53.605469 145.898438 L 59.464844 153.183594 L 65.671875 159.070312 L 70.242188 164.363281 L 73.292969 166.199219 L 75.175781 168.378906 L 79.085938 170.382812 L 81.085938 172.058594 L 89.433594 175.921875 L 90.871094 176.945312 L 95.273438 178.652344 L 100.503906 179.914062 L 107.324219 180.617188 L 111.121094 180.300781 L 115.695312 181.148438 L 116.460938 180.664062 L 118.75 180.390625 L 121.792969 180.652344 L 123.3125 180.304688 L 126.324219 179.023438 L 129.300781 178.558594 L 132.96875 177.121094 L 135.144531 176.894531 L 139.449219 175.5625 L 142.964844 173.824219 L 149.664062 168.941406 L 154.085938 166.25 L 155.90625 164.234375 L 159.996094 161.550781 L 162.769531 158.3125 L 165.414062 156.015625 L 167.417969 153.058594 L 172.894531 147.242188 L 176.542969 142.695312 L 181.789062 132.109375 L 184.800781 123.800781 L 186.40625 117.472656 L 187.648438 107.433594 L 187.492188 98.96875 L 186.308594 90.257812 L 184.765625 84.121094 L 182.714844 78.371094 L 179.824219 72.164062 L 176.703125 67.136719 L 173.996094 64.203125 L 169.207031 57.386719 L 165.257812 52.609375 L 159.238281 46.78125 L 157.492188 45.945312 L 154.496094 43.054688 L 152.640625 42.136719 L 148.800781 38.605469 L 146.144531 37.546875 L 144.113281 35.960938 L 137.148438 33.625 L 136.4375 33.089844 L 133.574219 32.503906 L 125.503906 29.578125 L 121.753906 29.070312 L 108.886719 28.386719 L 106.621094 29.261719 L 102.105469 28.972656 L 99.109375 30.152344 L 96.886719 30.324219 L 94.675781 31.109375 L 86.882812 35.863281 L 82.144531 37.515625 L 78.847656 39.292969 L 74.402344 42.46875 L 73.785156 42.539062 L 70.167969 45.679688 L 68.441406 47.847656 L 66.199219 49.113281 L 62.980469 52.539062 L 60.9375 53.96875 L 57.101562 58.78125 L 49.320312 71.554688 L 46.878906 76.285156 L 44.199219 83.789062 L 41.6875 94.773438 L 41.0625 102.828125 L 41.363281 110.996094 L 43.015625 120.074219 L 45.609375 129.246094 L 50.996094 140.054688 L 56.148438 148.542969 L 62.34375 155.601562 L 73.535156 165.65625 L 76.628906 167.183594 L 78.539062 168.886719 L 82.460938 170.585938 L 85.148438 172.507812 L 86.511719 172.734375 L 94.285156 177.484375 L 98.714844 179.019531 L 103.964844 179.910156 L 106.226562 179.609375 L 111.515625 180.179688 L 113.78125 179.925781 L 119.085938 180.554688 L 122.109375 179.433594 L 125.105469 179.214844 L 129.542969 177.523438 L 132.457031 177.105469 L 135.332031 175.523438 L 141.640625 173.660156 L 150.289062 168.285156 L 160.378906 159.5 L 162.019531 158.761719 L 164.652344 155.4375 L 166.164062 154.191406 L 169.03125 150.046875 L 171.257812 147.625 L 172.519531 145.40625 L 176.019531 141.269531 L 179.078125 135.382812 L 181.566406 129.132812 L 184.523438 119.972656 L 185.527344 114.722656 L 186.175781 107.542969 L 185.90625 97.917969 L 184.355469 88.171875 L 182.644531 82.1875 L 179.261719 74.167969 L 178.019531 72.480469 L 176.339844 68.816406 L 172.496094 62.929688 L 161.570312 50.027344 L 156.460938 45.09375 L 151.601562 42.546875 L 148.429688 39.648438 L 146.476562 38.800781 L 142.460938 36.011719 L 139.707031 35.300781 L 136.90625 33.636719 L 131.914062 32.335938 L 126.847656 31.664062 L 123.183594 30.433594 L 120.960938 30.289062 L 118.726562 29.390625 L 114.226562 29.464844 L 111.972656 29.109375 L 108.21875 29.453125 L 105.988281 30.578125 L 102.308594 31.011719 L 100.121094 32.101562 L 95.804688 32.640625 L 92.964844 34.21875 L 88.785156 35.515625 L 80.207031 41.273438 L 77.089844 42.898438 L 71.175781 47.398438 L 66.25 52.027344 L 64.707031 54.261719 L 62.246094 56.261719 L 60.835938 58.457031 L 58.164062 61.097656 L 53.796875 67.984375 L 47.34375 81.171875 L 45.332031 87.308594 L 43.613281 96.746094 L 43.210938 106.585938 L 44.246094 117.007812 L 45.992188 123.75 L 50.519531 136.378906 L 54.039062 143.050781 L 59.054688 149.558594 L 60.921875 152.585938 L 65.515625 158.246094 L 68.261719 160.5625 L 75.882812 165.589844 L 82.898438 170.914062 L 83.5625 170.84375 L 86.25 171.972656 L 88.300781 173.484375 L 92.476562 174.480469 L 95.308594 175.804688 L 98.890625 176.351562 L 103.265625 178.195312 L 108.464844 179.183594 L 112.199219 178.933594 L 114.4375 179.3125 L 116.675781 178.605469 L 121.863281 178.207031 L 123.332031 177.433594 L 128.417969 176.695312 L 129.144531 176.957031 L 132.730469 175.347656 L 134.855469 175.09375 L 139.027344 172.851562 L 141.75 172.234375 L 144.421875 170.195312 L 147.035156 169.425781 L 150.238281 167.757812 L 155.757812 163.664062 L 159.199219 160.167969 L 163.46875 155.710938 L 167.832031 150.289062 L 168.292969 150.191406 L 171.753906 145.527344 L 179.457031 131.464844 L 180.976562 127.992188 L 183.460938 119.351562 L 184.910156 110.992188 L 185.152344 101.347656 L 184.125 92.65625 L 182.089844 84.011719 L 178.292969 73.847656 L 173.828125 65.960938 L 166.417969 55.445312 L 163.394531 52.378906 L 161.820312 51.503906 L 155.65625 45.207031 L 147.605469 39.671875 L 141.648438 36.65625 L 138.199219 34.414062 L 136.800781 34.300781 L 131.089844 31.789062 L 125.238281 30.570312 L 123.027344 30.957031 L 120.816406 30.679688 L 116.417969 31.359375 L 114.226562 31.078125 L 109.839844 31.476562 L 100.332031 31.191406 L 97.421875 32.148438 L 95.273438 33.570312 L 94.566406 33.417969 L 91.75 34.433594 L 89.671875 35.886719 L 86.273438 36.957031 L 83.613281 38.941406 L 80.382812 40.582031 L 69.722656 49.644531 L 65.972656 52.144531 L 61.496094 56.960938 L 56.261719 64.214844 L 50.339844 74.457031 L 47.957031 81.0625 L 44.945312 92.019531 L 43.890625 100.65625 L 44.179688 111.292969 L 46.652344 124.539062 L 48.710938 129.992188 L 52.859375 138.574219 L 56.578125 145.378906 L 60.042969 150.335938 L 72.039062 163.582031 L 77.542969 167.605469 L 82.046875 169.847656 L 83.367188 170.894531 L 93.6875 175.789062 L 94.402344 175.601562 L 97.984375 176.441406 L 99.433594 177.273438 L 103.8125 177.359375 L 106.75 178.179688 L 109.695312 177.949219 L 116.386719 179.398438 L 120.875 179.015625 L 126.039062 177.617188 L 133.21875 174.875 L 134.617188 173.894531 L 138.066406 172.90625 L 140.121094 172.863281 L 143.492188 170.71875 L 145.46875 170.117188 L 149.945312 166.359375 L 159.371094 160.441406 L 161.574219 158.65625 L 166.21875 153.617188 L 173.269531 143.679688 L 174.808594 142.058594 L 180.519531 130.660156 L 183.582031 122.246094 L 185.355469 113.953125 L 186.003906 106.769531 L 185.828125 98.835938 L 184.820312 91.066406 L 181.535156 80.902344 L 177.621094 71.609375 L 173.628906 64.566406 L 172.40625 62.847656 L 171.144531 61.867188 L 168.921875 58.382812 L 167.527344 57.328125 L 164.578125 53.027344 L 162.492188 51.488281 L 160.324219 49.015625 L 156.335938 45.582031 L 154.558594 44.496094 L 148.949219 39.734375 L 144.996094 37.007812 L 140.203125 34.808594 L 138.800781 33.769531 L 133.070312 31.871094 L 132.339844 31.171875 L 129.394531 30.089844 L 126.417969 29.871094 L 122.65625 28.433594 L 119.621094 28.558594 L 117.339844 28.160156 L 103.050781 30.332031 L 100.824219 30.222656 L 92.792969 32.78125 L 91.359375 32.878906 L 87.828125 34.644531 L 85.761719 36.304688 L 83.054688 37.148438 L 80.40625 39.175781 L 76.539062 40.648438 L 74.03125 42.960938 L 71.601562 44.429688 L 60.226562 55.574219 L 58.316406 57.570312 L 52.34375 65.828125 L 46.984375 75.421875 L 44.628906 80.792969 L 41.738281 91.734375 L 40.652344 100.085938 L 40.652344 109.230469 L 42.246094 119.882812 L 45.316406 130.464844 L 47.90625 136.183594 L 56.335938 149.820312 L 59.644531 153.257812 L 60.636719 154.976562 L 64.28125 157.757812 L 66.46875 160.371094 L 68.734375 161.847656 L 73.523438 166.746094 L 76.699219 169.277344 L 82.695312 173.054688 L 89.734375 176.488281 L 97.054688 179 L 100.789062 179.308594 L 103.054688 180.304688 L 107.613281 180.386719 L 110.667969 181.144531 L 113.730469 180.824219 L 116.792969 181.300781 L 123.667969 180.308594 L 128.179688 178.761719 L 130.402344 178.40625 L 142.527344 173.320312 L 147.890625 169.523438 L 149.191406 169.261719 L 151.117188 168.074219 L 153.617188 165.640625 L 156.039062 164.332031 L 163.957031 157.628906 L 166.042969 155.515625 L 169.917969 150.4375 L 174.164062 143.664062 L 180.167969 132.441406 L 182.625 125.988281 L 185.363281 115.503906 L 186.195312 105.382812 L 185.679688 96.300781 L 183.539062 85.085938 L 182.042969 80.402344 L 175.800781 67.667969 L 169.996094 58.261719 L 168.105469 56.226562 L 166.648438 55.363281 L 164.109375 51.910156 L 160.871094 48.875 L 159.171875 46.679688 L 156.835938 45.3125 L 154.429688 43.140625 L 148.804688 40.644531 L 141.542969 36.007812 L 137.378906 34.03125 L 133.117188 32.707031 L 131.675781 31.777344 L 128.027344 31.164062 L 125.832031 31.476562 L 125.101562 30.945312 L 122.152344 30.296875 L 119.195312 30.601562 L 115.484375 29.75 L 113.992188 30.007812 L 109.515625 29.558594 L 104.324219 30.78125 L 98.519531 32.828125 L 94.945312 33.109375 L 87.945312 35.625 L 83.214844 38.160156 L 79.964844 40.835938 L 79.328125 40.820312 L 76.816406 42.171875 L 74.972656 43.871094 L 71.988281 45.503906 L 69.113281 48.386719 L 66.90625 49.996094 L 61.816406 56.820312 L 57.746094 61.402344 L 56.074219 63.957031 L 55.269531 64.507812 L 52.265625 69.101562 L 47.988281 78.058594 L 45.917969 84.046875 L 44.367188 89.808594 L 43.636719 94.265625 L 42.886719 103.371094 L 43.160156 110.507812 L 44.09375 117.742188 L 47.476562 129.179688 L 51.238281 137.960938 L 56.949219 147.308594 L 63.972656 155.414062 L 65.535156 157.765625 L 68.257812 159.921875 L 69.957031 162.078125 L 72.296875 163.8125 L 78.433594 167.714844 L 83.667969 171.832031 L 89.167969 174.527344 L 93.417969 176.109375 L 108.058594 179.121094 L 108.804688 178.746094 L 111.035156 178.652344 L 115.5 179.132812 L 121.460938 178.800781 L 126.632812 177.621094 L 127.363281 177.800781 L 128.824219 177.195312 L 131.011719 177.277344 L 133.90625 176.550781 L 137.46875 174.882812 L 148.230469 168.316406 L 153.238281 165.734375 L 156.226562 162.777344 L 157.964844 161.753906 L 161.292969 157.9375 L 163.917969 155.753906 L 171.433594 147.328125 L 181.097656 129.574219 L 184.5 117.65625 L 185.683594 109.910156 L 185.785156 99.792969 L 184.703125 91.105469 L 182.644531 82.972656 L 180.476562 76.953125 L 178.105469 72.3125 L 174.65625 67.636719 L 168.414062 57.871094 L 164.507812 53.246094 L 161.335938 49.859375 L 159.691406 49.277344 L 156.855469 46.167969 L 155.097656 45.257812 L 151.441406 41.742188 L 148.910156 40.542969 L 146.3125 38.503906 L 128.960938 31.179688 L 123.796875 30.246094 L 122.308594 29.636719 L 118.566406 29.460938 L 116.324219 29.863281 L 115.578125 29.425781 L 112.578125 29.210938 L 110.332031 29.886719 L 105.847656 29.363281 L 102.867188 30.425781 L 99.90625 30.476562 L 98.433594 30.929688 L 93.386719 33.605469 L 85.761719 36.488281 L 76.667969 42.347656 L 72.449219 45.976562 L 71.871094 46.921875 L 69.039062 48.726562 L 67.402344 50.835938 L 64.257812 53.132812 L 62.257812 55.785156 L 60.34375 57.464844 L 50.542969 72.191406 L 47.875 76.9375 L 44.910156 85.550781 L 43.496094 91.171875 L 42.472656 98.851562 L 42.433594 108.867188 L 43.699219 118.140625 L 47.144531 129.398438 L 52.640625 141.445312 L 56.25 147.855469 L 61.355469 153.957031 L 69.363281 161.761719 L 71.117188 163.914062 L 77.289062 168.480469 L 82.527344 171.523438 L 84.554688 172.28125 L 88.003906 174.589844 L 91.554688 176.449219 L 95.925781 178.121094 L 103.34375 178.960938 L 104.839844 179.449219 L 113.101562 179.5 L 116.121094 180.476562 L 119.90625 179.804688 L 122.171875 180.136719 L 123.683594 179.828125 L 126.671875 178.488281 L 129.632812 178.113281 L 132.550781 176.703125 L 135.4375 176.425781 L 139.011719 175.460938 L 145.921875 171.410156 L 147.921875 170.957031 L 149.894531 169.058594 L 151.816406 168.175781 L 156.160156 164.519531 L 159.691406 161.902344 L 160.265625 161.867188 L 163.050781 158.421875 L 164.65625 157.441406 L 167.71875 153.578125 L 169.652344 151.921875 L 176.84375 141.964844 L 180.542969 134.597656 L 184.667969 123.535156 L 186.324219 115.941406 L 187.285156 106.382812 L 187.171875 99.785156 L 186.09375 90.886719 L 183.578125 81.761719 L 179.230469 71.976562 L 176.058594 66.207031 L 164.351562 51.554688 L 159.386719 46.707031 L 155.25 43.957031 L 152.140625 40.710938 L 150.21875 39.765625 L 146.25 36.707031 L 143.523438 35.886719 L 141.445312 34.398438 L 137.921875 33.648438 L 136.5 32.933594 L 131.464844 32.023438 L 126.332031 30.066406 L 122.59375 29.101562 L 112.78125 28.925781 L 110.523438 29.355469 L 109.777344 29.875 L 106.042969 29.925781 L 103.824219 30.863281 L 99.425781 31.332031 L 96.523438 32.578125 L 93.660156 33.140625 L 87.378906 36.230469 L 82.667969 37.984375 L 74.378906 43.339844 L 68.523438 48.296875 L 66.871094 50.597656 L 64.238281 52.820312 L 55.871094 62.734375 L 49.214844 75.164062 L 45.75 83.488281 L 43.601562 91.660156 L 42.742188 97.234375 L 42.394531 105.886719 L 42.984375 113.652344 L 44.675781 121.421875 L 47.691406 131.480469 L 50.027344 136.421875 L 52.03125 139.152344 L 59.371094 151.421875 L 66.472656 158.972656 L 75.183594 166.152344 L 77.066406 168.203125 L 80.296875 169.757812 L 82.285156 171.546875 L 86.363281 173.136719 L 89.148438 174.886719 L 93.417969 176.429688 L 94.867188 177.359375 L 98.546875 178.753906 L 105.289062 179.863281 L 115.867188 180.089844 L 121.148438 179.691406 L 123.410156 180.070312 L 124.164062 179.476562 L 127.152344 178.570312 L 129.378906 178.550781 L 134.476562 175.882812 L 136.617188 175.417969 L 138.726562 174.179688 L 142.183594 173.007812 L 148.210938 169.847656 L 151.421875 167.5 L 159.738281 160.464844 L 164.558594 155.59375 L 165.070312 155.515625 L 167.535156 152.089844 L 168.945312 150.851562 L 171.605469 146.457031 L 173.253906 144.695312 L 174.808594 141.894531 L 176.625 139.746094 L 179.871094 134.011719 L 181.761719 128.992188 L 183.820312 121.683594 L 185.40625 114.113281 L 186.074219 105.347656 L 185.621094 96.738281 L 183.074219 84.4375 L 180.757812 77.757812 L 179.648438 75.320312 L 178.757812 74.308594 L 177.152344 70.4375 L 170.542969 60.144531 L 164.371094 53.710938 L 160.671875 49.230469 L 153.0625 42.320312 L 147.328125 39.179688 L 144.007812 36.757812 L 141.972656 36.382812 L 137.808594 33.578125 L 134.957031 32.738281 L 132.785156 31.503906 L 126.164062 30.207031 L 122.445312 29.953125 L 119.449219 29.097656 L 118.699219 29.21875 L 117.941406 28.671875 L 109.601562 28.390625 L 106.570312 28.679688 L 102.058594 29.660156 L 100.570312 30.53125 L 99.828125 30.257812 L 96.878906 30.726562 L 94.6875 31.898438 L 91.078125 32.507812 L 87.539062 34.636719 L 84.757812 35.390625 L 71.832031 43.839844 L 63.828125 50.574219 L 59.722656 55.832031 L 57.347656 58.089844 L 54.28125 62.636719 "/>
</g>
</svg>
