<?xml version="1.0" encoding="UTF-8"?>
<svg xmlns="http://www.w3.org/2000/svg" xmlns:xlink="http://www.w3.org/1999/xlink" width="360pt" height="360pt" viewBox="0 0 360 360" version="1.1">
<g id="id1">
<path style=" stroke:none;fill-rule:nonzero;fill:rgb(71.631781%,20.38015%,25.255365%);fill-opacity:1;" d="M 242 120 C 242 122.667969 238 122.667969 238 120 C 238 117.332031 242 117.332031 242 120 "/>
<path style=" stroke:none;fill-rule:nonzero;fill:rgb(25.283604%,40.660306%,78.334164%);fill-opacity:1;" d="M 122 240 C 122 242.667969 118 242.667969 118 240 C 118 237.332031 122 237.332031 122 240 "/>
<path style="fill:none;stroke-width:1;stroke-linecap:butt;stroke-linejoin:miter;stroke:rgb(50.260225%,74.628819%,81.033938%);stroke-opacity:0.07;stroke-miterlimit:10;" d="M 112.632812 240 L 120 247.367188 L 123.015625 240 L 120 236.984375 L 112.632812 240 "/>
<path style="fill:none;stroke-width:1;stroke-linecap:butt;stroke-linejoin:miter;stroke:rgb(45.159071%,71.659294%,80.634873%);stroke-opacity:0.07;stroke-miterlimit:10;" d="M 107.519531 240 L 110 249.039062 L 110.960938 250 L 120 252.480469 L 124.914062 250 L 127.855469 240 L 120 232.144531 L 110 235.085938 L 107.519531 240 "/>
<path style="fill:none;stroke-width:1;stroke-linecap:butt;stroke-linejoin:miter;stroke:rgb(40.056473%,68.676854%,80.454515%);stroke-opacity:0.07;stroke-miterlimit:10;" d="M 103.941406 240 L 106.257812 250 L 110 253.742188 L 120 256.058594 L 129.347656 250 L 130 248.84375 L 131.132812 240 L 130 236.667969 L 123.332031 230 L 120 228.867188 L 111.15625 230 L 110 230.652344 L 103.941406 240 "/>
<path style="fill:none;stroke-width:1;stroke-linecap:butt;stroke-linejoin:miter;stroke:rgb(35.385939%,65.593699%,80.420591%);stroke-opacity:0.07;stroke-miterlimit:10;" d="M 106.078125 230 L 100.882812 240 L 102.695312 250 L 110 257.304688 L 120 259.117188 L 130 253.921875 L 132.609375 250 L 133.863281 240 L 130 231.953125 L 128.046875 230 L 120 226.136719 L 110 227.390625 L 106.078125 230 "/>
<path style="fill:none;stroke-width:1;stroke-linecap:butt;stroke-linejoin:miter;stroke:rgb(31.204819%,62.410193%,80.503236%);stroke-opacity:0.07;stroke-miterlimit:10;" d="M 98.085938 240 L 99.582031 250 L 100 250.90625 L 109.09375 260 L 110 260.417969 L 120 261.914062 L 126.40625 260 L 130 257.628906 L 135.394531 250 L 136.296875 240 L 131.355469 230 L 130 228.644531 L 120 223.703125 L 110 224.605469 L 102.371094 230 L 100 233.59375 L 98.085938 240 "/>
<path style="fill:none;stroke-width:1;stroke-linecap:butt;stroke-linejoin:miter;stroke:rgb(27.519288%,59.131673%,80.700174%);stroke-opacity:0.07;stroke-miterlimit:10;" d="M 99.15625 230 L 95.425781 240 L 96.691406 250 L 100 255.957031 L 104.042969 260 L 110 263.308594 L 120 264.574219 L 130 260.84375 L 131.117188 260 L 137.914062 250 L 138.554688 240 L 134.128906 230 L 130 225.871094 L 120 221.445312 L 110 222.085938 L 100 228.882812 L 99.15625 230 "/>
<path style="fill:none;stroke-width:1;stroke-linecap:butt;stroke-linejoin:miter;stroke:rgb(24.352651%,55.75378%,81.031684%);stroke-opacity:0.07;stroke-miterlimit:10;" d="M 96.183594 230 L 92.835938 240 L 93.921875 250 L 100 259.929688 L 100.070312 260 L 110 266.078125 L 120 267.164062 L 130 263.816406 L 134.71875 260 L 140 250.957031 L 140.273438 250 L 140.695312 240 L 140 237.042969 L 136.613281 230 L 130 223.386719 L 122.957031 220 L 120 219.304688 L 110 219.726562 L 109.042969 220 L 100 225.28125 L 96.183594 230 "/>
<path style="fill:none;stroke-width:1;stroke-linecap:butt;stroke-linejoin:miter;stroke:rgb(21.977058%,52.241482%,81.457651%);stroke-opacity:0.07;stroke-miterlimit:10;" d="M 93.335938 230 L 90.273438 240 L 91.207031 250 L 96.527344 260 L 100 263.472656 L 110 268.792969 L 120 269.726562 L 130 266.664062 L 137.835938 260 L 140 256.710938 L 142.527344 250 L 142.757812 240 L 140 231.875 L 138.921875 230 L 130 221.078125 L 128.125 220 L 120 217.242188 L 110 217.472656 L 103.289062 220 L 100 222.164062 L 93.335938 230 "/>
<path style="fill:none;stroke-width:1;stroke-linecap:butt;stroke-linejoin:miter;stroke:rgb(21.450067%,48.507927%,81.546526%);stroke-opacity:0.07;stroke-miterlimit:10;" d="M 87.695312 240 L 88.5 250 L 90 254.371094 L 93.195312 260 L 100 266.804688 L 105.628906 270 L 110 271.5 L 120 272.304688 L 128.859375 270 L 130 269.464844 L 140 261.007812 L 140.695312 260 L 144.71875 250 L 144.773438 240 L 141.109375 230 L 140 228.238281 L 131.761719 220 L 130 218.890625 L 120 215.226562 L 110 215.28125 L 100 219.304688 L 98.992188 220 L 90.535156 230 L 90 231.140625 L 87.695312 240 "/>
<path style="fill:none;stroke-width:1;stroke-linecap:butt;stroke-linejoin:miter;stroke:rgb(22.920847%,44.585685%,80.677271%);stroke-opacity:0.07;stroke-miterlimit:10;" d="M 87.738281 230 L 85.078125 240 L 85.765625 250 L 89.957031 260 L 90 260.066406 L 99.933594 270 L 100 270.042969 L 110 274.234375 L 120 274.921875 L 130 272.261719 L 134.058594 270 L 140 264.796875 L 143.398438 260 L 146.871094 250 L 146.761719 240 L 143.226562 230 L 140 225.1875 L 134.8125 220 L 130 216.773438 L 120 213.238281 L 110 213.128906 L 100 216.601562 L 95.203125 220 L 90 225.941406 L 87.738281 230 "/>
<path style="fill:none;stroke-width:1;stroke-linecap:butt;stroke-linejoin:miter;stroke:rgb(25.283604%,40.660306%,78.334164%);stroke-opacity:0.07;stroke-miterlimit:10;" d="M 84.90625 230 L 82.390625 240 L 82.96875 250 L 86.738281 260 L 90 264.792969 L 95.207031 270 L 100 273.261719 L 110 277.03125 L 120 277.609375 L 130 275.09375 L 138.21875 270 L 140 268.359375 L 146.003906 260 L 149.007812 250 L 148.738281 240 L 145.289062 230 L 140 222.453125 L 137.546875 220 L 130 214.710938 L 120 211.261719 L 110 210.992188 L 100 213.996094 L 91.640625 220 L 90 221.78125 L 84.90625 230 "/>
<path style="fill:none;stroke-width:1;stroke-linecap:butt;stroke-linejoin:miter;stroke:rgb(27.318141%,36.922056%,74.6605%);stroke-opacity:0.07;stroke-miterlimit:10;" d="M 79.601562 240 L 80 249.5625 L 80.078125 250 L 83.480469 260 L 90 269.136719 L 90.863281 270 L 100 276.519531 L 110 279.921875 L 110.4375 280 L 120 280.398438 L 122.996094 280 L 130 278 L 140 271.832031 L 141.910156 270 L 148.558594 260 L 150 255.960938 L 151.140625 250 L 150.714844 240 L 150 236.914062 L 147.320312 230 L 140.085938 220 L 140 219.914062 L 130 212.679688 L 123.085938 210 L 120 209.285156 L 110 208.859375 L 104.039062 210 L 100 211.441406 L 90 218.089844 L 88.167969 220 L 82 230 L 80 237.003906 L 79.601562 240 "/>
<path style="fill:none;stroke-width:1;stroke-linecap:butt;stroke-linejoin:miter;stroke:rgb(28.5791%,33.473222%,69.986607%);stroke-opacity:0.07;stroke-miterlimit:10;" d="M 78.980469 230 L 76.679688 240 L 77.0625 250 L 80 259.695312 L 80.136719 260 L 86.671875 270 L 90 273.328125 L 100 279.863281 L 100.304688 280 L 110 282.9375 L 120 283.320312 L 130 281.019531 L 132.425781 280 L 140 275.3125 L 145.351562 270 L 150 262.601562 L 151.09375 260 L 153.292969 250 L 152.699219 240 L 150 231.414062 L 149.339844 230 L 142.496094 220 L 140 217.503906 L 130 210.660156 L 128.585938 210 L 120 207.300781 L 110 206.707031 L 100 208.90625 L 97.398438 210 L 90 214.648438 L 84.6875 220 L 80 227.574219 L 78.980469 230 "/>
<path style="fill:none;stroke-width:1;stroke-linecap:butt;stroke-linejoin:miter;stroke:rgb(28.809408%,30.559595%,64.079708%);stroke-opacity:0.07;stroke-miterlimit:10;" d="M 75.8125 230 L 73.59375 240 L 73.878906 250 L 76.660156 260 L 80 266.453125 L 82.492188 270 L 90 277.507812 L 93.546875 280 L 100 283.339844 L 110 286.121094 L 120 286.40625 L 130 284.1875 L 138.363281 280 L 140 278.859375 L 148.652344 270 L 150 267.933594 L 153.632812 260 L 155.46875 250 L 154.710938 240 L 151.359375 230 L 150 227.378906 L 144.820312 220 L 140 215.179688 L 132.621094 210 L 130 208.640625 L 120 205.289062 L 110 204.53125 L 100 206.367188 L 92.066406 210 L 90 211.347656 L 81.140625 220 L 80 221.636719 L 75.8125 230 "/>
<path style="fill:none;stroke-width:1;stroke-linecap:butt;stroke-linejoin:miter;stroke:rgb(28.033669%,28.123906%,57.588885%);stroke-opacity:0.07;stroke-miterlimit:10;" d="M 77.460938 220 L 72.453125 230 L 70.296875 240 L 70.488281 250 L 72.992188 260 L 78.222656 270 L 80 272.402344 L 87.597656 280 L 90 281.777344 L 100 287.007812 L 110 289.511719 L 120 289.703125 L 130 287.546875 L 140 282.539062 L 143.34375 280 L 150 272.847656 L 151.886719 270 L 156.195312 260 L 157.683594 250 L 156.753906 240 L 153.390625 230 L 150 223.960938 L 147.089844 220 L 140 212.910156 L 136.039062 210 L 130 206.609375 L 120 203.246094 L 110 202.316406 L 100 203.804688 L 90 208.113281 L 87.152344 210 L 80 216.65625 L 77.460938 220 "/>
<path style="fill:none;stroke-width:1;stroke-linecap:butt;stroke-linejoin:miter;stroke:rgb(26.59204%,25.949691%,51.1417%);stroke-opacity:0.07;stroke-miterlimit:10;" d="M 68.847656 230 L 66.742188 240 L 66.832031 250 L 69.074219 260 L 70 262.507812 L 73.773438 270 L 80 278.105469 L 81.894531 280 L 90 286.226562 L 97.492188 290 L 100 290.925781 L 110 293.167969 L 120 293.257812 L 130 291.152344 L 133.105469 290 L 140 286.417969 L 147.886719 280 L 150 277.652344 L 155.105469 270 L 158.804688 260 L 159.949219 250 L 158.839844 240 L 155.441406 230 L 150 220.886719 L 149.324219 220 L 140 210.675781 L 139.113281 210 L 130 204.558594 L 120 201.160156 L 110 200.050781 L 100 201.195312 L 90 204.894531 L 82.347656 210 L 80 212.113281 L 73.582031 220 L 70 226.894531 L 68.847656 230 "/>
<path style="fill:none;stroke-width:1;stroke-linecap:butt;stroke-linejoin:miter;stroke:rgb(24.776545%,23.894806%,45.015975%);stroke-opacity:0.07;stroke-miterlimit:10;" d="M 69.425781 220 L 64.929688 230 L 62.859375 240 L 62.84375 250 L 64.835938 260 L 69.046875 270 L 70 271.660156 L 76.164062 280 L 80 283.835938 L 88.339844 290 L 90 290.953125 L 100 295.164062 L 110 297.15625 L 120 297.140625 L 130 295.070312 L 140 290.574219 L 140.933594 290 L 150 282.542969 L 152.21875 280 L 158.347656 270 L 160 265.71875 L 161.476562 260 L 162.28125 250 L 160.980469 240 L 160 236.421875 L 157.519531 230 L 151.546875 220 L 150 218.023438 L 141.976562 210 L 140 208.453125 L 130 202.480469 L 123.578125 200 L 120 199.019531 L 110 197.71875 L 100 198.523438 L 94.28125 200 L 90 201.652344 L 80 207.78125 L 77.457031 210 L 70 219.066406 L 69.425781 220 "/>
<path style="fill:none;stroke-width:1;stroke-linecap:butt;stroke-linejoin:miter;stroke:rgb(22.776361%,21.901631%,39.295685%);stroke-opacity:0.07;stroke-miterlimit:10;" d="M 58.558594 240 L 58.433594 250 L 60 259.339844 L 60.171875 260 L 63.933594 270 L 70 279.75 L 70.195312 280 L 80 289.804688 L 80.25 290 L 90 296.066406 L 100 299.828125 L 100.660156 300 L 110 301.566406 L 120 301.441406 L 127.875 300 L 130 299.390625 L 140 295.09375 L 147.386719 290 L 150 287.660156 L 156.460938 280 L 160 273.851562 L 161.644531 270 L 164.230469 260 L 164.691406 250 L 163.179688 240 L 160 230.792969 L 159.640625 230 L 153.765625 220 L 150 215.304688 L 144.695312 210 L 140 206.234375 L 130 200.359375 L 129.207031 200 L 120 196.820312 L 110 195.308594 L 100 195.769531 L 90 198.355469 L 86.148438 200 L 80 203.539062 L 72.339844 210 L 70 212.613281 L 64.90625 220 L 60.609375 230 L 60 232.125 L 58.558594 240 "/>
<path style="fill:none;stroke-width:1;stroke-linecap:butt;stroke-linejoin:miter;stroke:rgb(20.708829%,19.967205%,34.002044%);stroke-opacity:0.07;stroke-miterlimit:10;" d="M 59.898438 220 L 55.765625 230 L 53.71875 240 L 53.472656 250 L 54.960938 260 L 58.289062 270 L 60 273.613281 L 63.796875 280 L 70 287.703125 L 72.296875 290 L 80 296.203125 L 86.386719 300 L 90 301.710938 L 100 305.039062 L 110 306.527344 L 120 306.28125 L 130 304.234375 L 140 300.101562 L 140.1875 300 L 150 293.167969 L 153.292969 290 L 160 281.214844 L 160.710938 280 L 165.039062 270 L 167.085938 260 L 167.1875 250 L 165.449219 240 L 161.808594 230 L 160 226.414062 L 156 220 L 150 212.679688 L 147.320312 210 L 140 204 L 133.585938 200 L 130 198.191406 L 120 194.550781 L 110 192.8125 L 100 192.914062 L 90 194.960938 L 80 199.289062 L 78.785156 200 L 70 206.707031 L 66.832031 210 L 60 219.8125 L 59.898438 220 "/>
<path style="fill:none;stroke-width:1;stroke-linecap:butt;stroke-linejoin:miter;stroke:rgb(18.66769%,18.11332%,29.166583%);stroke-opacity:0.07;stroke-miterlimit:10;" d="M 48.167969 240 L 47.785156 250 L 49.011719 260 L 50 264.132812 L 51.914062 270 L 56.726562 280 L 60 285.011719 L 63.972656 290 L 70 296.027344 L 74.988281 300 L 80 303.273438 L 90 308.085938 L 95.867188 310 L 100 310.988281 L 110 312.214844 L 120 311.832031 L 129.191406 310 L 130 309.765625 L 140 305.765625 L 149.058594 300 L 150 299.25 L 158.980469 290 L 160 288.621094 L 165.035156 280 L 168.554688 270 L 170 260.960938 L 170.066406 260 L 170 252.195312 L 169.792969 250 L 167.804688 240 L 164.039062 230 L 160 222.644531 L 158.25 220 L 150 210.121094 L 149.878906 210 L 140 201.75 L 137.355469 200 L 130 195.960938 L 120 192.195312 L 110 190.207031 L 107.804688 190 L 100 189.933594 L 99.039062 190 L 90 191.445312 L 80 194.964844 L 71.378906 200 L 70 201.019531 L 60.75 210 L 60 210.941406 L 54.234375 220 L 50.234375 230 L 50 230.808594 L 48.167969 240 "/>
<path style="fill:none;stroke-width:1;stroke-linecap:butt;stroke-linejoin:miter;stroke:rgb(16.763377%,16.382828%,24.794702%);stroke-opacity:0.07;stroke-miterlimit:10;" d="M 47.652344 220 L 43.75 230 L 41.636719 240 L 41.09375 250 L 42.039062 260 L 44.511719 270 L 48.660156 280 L 50 282.515625 L 54.824219 290 L 60 296.246094 L 63.753906 300 L 70 305.175781 L 77.484375 310 L 80 311.339844 L 90 315.488281 L 100 317.960938 L 110 318.90625 L 120 318.363281 L 130 316.25 L 140 312.347656 L 144.332031 310 L 150 306.175781 L 156.9375 300 L 160 296.546875 L 164.644531 290 L 169.5 280 L 170 278.597656 L 172.234375 270 L 173.191406 260 L 172.519531 250 L 170.257812 240 L 170 239.183594 L 166.332031 230 L 160.535156 220 L 160 219.230469 L 152.402344 210 L 150 207.597656 L 140.769531 200 L 140 199.464844 L 130 193.667969 L 120.816406 190 L 120 189.742188 L 110 187.480469 L 100 186.808594 L 90 187.765625 L 81.402344 190 L 80 190.5 L 70 195.355469 L 63.453125 200 L 60 203.0625 L 53.824219 210 L 50 215.667969 L 47.652344 220 "/>
<path style="fill:none;stroke-width:1;stroke-linecap:butt;stroke-linejoin:miter;stroke:rgb(15.09767%,14.823771%,20.948941%);stroke-opacity:0.07;stroke-miterlimit:10;" d="M 39.742188 220 L 35.894531 230 L 33.699219 240 L 32.953125 250 L 33.585938 260 L 35.601562 270 L 39.089844 280 L 40 282.042969 L 44.265625 290 L 50 298.128906 L 51.554688 300 L 60 308.445312 L 61.871094 310 L 70 315.734375 L 77.957031 320 L 80 320.910156 L 90 324.398438 L 100 326.414062 L 110 327.046875 L 120 326.300781 L 130 324.105469 L 140 320.257812 L 140.53125 320 L 150 314.355469 L 155.441406 310 L 160 305.496094 L 164.492188 300 L 170 290.890625 L 170.429688 290 L 174.164062 280 L 176.113281 270 L 176.492188 260 L 175.390625 250 L 172.816406 240 L 170 232.757812 L 168.703125 230 L 162.859375 220 L 160 216.046875 L 154.902344 210 L 150 205.097656 L 143.953125 200 L 140 197.140625 L 130 191.296875 L 127.242188 190 L 120 187.183594 L 110 184.609375 L 100 183.507812 L 90 183.886719 L 80 185.835938 L 70 189.570312 L 69.109375 190 L 60 195.507812 L 54.503906 200 L 50 204.558594 L 45.644531 210 L 40 219.46875 L 39.742188 220 "/>
<path style="fill:none;stroke-width:1;stroke-linecap:butt;stroke-linejoin:miter;stroke:rgb(13.738607%,13.51572%,17.670599%);stroke-opacity:0.07;stroke-miterlimit:10;" d="M 29.785156 220 L 25.921875 230 L 23.574219 240 L 22.570312 250 L 22.828125 260 L 24.328125 270 L 27.121094 280 L 30 287.199219 L 31.332031 290 L 37.191406 300 L 40 303.890625 L 45.140625 310 L 50 314.859375 L 56.109375 320 L 60 322.808594 L 70 328.667969 L 72.800781 330 L 80 332.878906 L 90 335.671875 L 100 337.171875 L 110 337.429688 L 120 336.425781 L 130 334.078125 L 140 330.214844 L 140.453125 330 L 150 324.496094 L 155.894531 320 L 160 316.226562 L 165.542969 310 L 170 303.628906 L 172.09375 300 L 176.46875 290 L 179.105469 280 L 180 273.578125 L 180.242188 270 L 180 260.011719 L 180 260 L 178.421875 250 L 175.503906 240 L 171.164062 230 L 170 227.792969 L 165.234375 220 L 160 213.023438 L 157.398438 210 L 150 202.601562 L 146.976562 200 L 140 194.765625 L 132.207031 190 L 130 188.835938 L 120 184.496094 L 110 181.578125 L 100 180 L 99.988281 180 L 90 179.757812 L 86.421875 180 L 80 180.894531 L 70 183.53125 L 60 187.90625 L 56.371094 190 L 50 194.457031 L 43.773438 200 L 40 204.105469 L 35.503906 210 L 30 219.546875 L 29.785156 220 "/>
<path style="fill:none;stroke-width:1;stroke-linecap:butt;stroke-linejoin:miter;stroke:rgb(12.755435%,12.53723%,15.014098%);stroke-opacity:0.07;stroke-miterlimit:10;" d="M 9.679688 240 L 8.292969 250 L 8.054688 260 L 8.925781 270 L 10 276.070312 L 10.921875 280 L 14.09375 290 L 18.566406 300 L 20 302.664062 L 24.539062 310 L 30 317.25 L 32.371094 320 L 40 327.628906 L 42.75 330 L 50 335.460938 L 57.335938 340 L 60 341.433594 L 70 345.90625 L 80 349.078125 L 83.929688 350 L 90 351.074219 L 100 351.945312 L 110 351.707031 L 120 350.320312 L 121.546875 350 L 130 347.707031 L 140 343.707031 L 146.886719 340 L 150 338.03125 L 160 330.148438 L 160.15625 330 L 169.15625 320 L 170 318.863281 L 175.542969 310 L 180 300.003906 L 180 300 L 182.890625 290 L 184.410156 280 L 184.675781 270 L 183.753906 260 L 181.644531 250 L 180 244.574219 L 178.328125 240 L 173.722656 230 L 170 223.550781 L 167.671875 220 L 160 210.113281 L 159.902344 210 L 150 200.097656 L 149.886719 200 L 140 192.328125 L 136.449219 190 L 130 186.277344 L 120 181.671875 L 115.425781 180 L 110 178.355469 L 100 176.246094 L 90 175.324219 L 80 175.589844 L 70 177.109375 L 60 180 L 59.996094 180 L 50 184.457031 L 41.136719 190 L 40 190.84375 L 30 199.84375 L 29.851562 200 L 21.96875 210 L 20 213.113281 L 16.292969 220 L 12.292969 230 L 10 238.453125 L 9.679688 240 "/>
<path style="fill:none;stroke-width:1;stroke-linecap:butt;stroke-linejoin:miter;stroke:rgb(12.215602%,11.964978%,13.030901%);stroke-opacity:0.07;stroke-miterlimit:10;" d="M 147.949219 360 L 150 358.644531 L 160 350.78125 L 160.855469 350 L 170 340.183594 L 170.144531 340 L 177.085938 330 L 180 324.746094 L 182.261719 320 L 186 310 L 188.492188 300 L 189.859375 290 L 190 288.09375 L 190.179688 280 L 190 275.617188 L 189.488281 270 L 187.800781 260 L 185.09375 250 L 181.320312 240 L 180 237.066406 L 176.394531 230 L 170.175781 220 L 170 219.75 L 162.421875 210 L 160 207.28125 L 152.71875 200 L 150 197.578125 L 140.25 190 L 140 189.824219 L 130 183.605469 L 122.933594 180 L 120 178.679688 L 110 174.90625 L 100 172.199219 L 90 170.511719 L 84.382812 170 L 80 169.820312 L 71.90625 170 L 70 170.140625 L 60 171.507812 L 50 174 L 40 177.738281 L 35.253906 180 L 30 182.914062 L 20 189.855469 L 19.816406 190 L 10 199.144531 L 9.21875 200 L 1.355469 210 L 0 212.050781 "/>
<path style="fill:none;stroke-width:1;stroke-linecap:butt;stroke-linejoin:miter;stroke:rgb(12.215602%,11.964978%,13.030901%);stroke-opacity:0.07;stroke-miterlimit:10;" d="M 0 321.011719 L 5.960938 330 L 10 335.171875 L 14.238281 340 L 20 345.761719 L 24.828125 350 L 30 354.039062 L 38.988281 360 "/>
<path style="fill:none;stroke-width:1;stroke-linecap:butt;stroke-linejoin:miter;stroke:rgb(12.206286%,11.813064%,11.825278%);stroke-opacity:0.07;stroke-miterlimit:10;" d="M 0 176.375 L 10 171.902344 L 15.039062 170 L 20 168.34375 L 30 165.628906 L 40 163.699219 L 50 162.53125 L 60 162.101562 L 70 162.402344 L 80 163.4375 L 90 165.226562 L 100 167.796875 L 106.75 170 L 110 171.199219 L 120 175.503906 L 128.609375 180 L 130 180.804688 L 140 187.242188 L 143.761719 190 L 150 195.03125 L 155.496094 200 L 160 204.503906 L 164.96875 210 L 170 216.238281 L 172.757812 220 L 179.195312 230 L 180 231.390625 L 184.496094 240 L 188.800781 250 L 190 253.25 L 192.203125 260 L 194.773438 270 L 196.5625 280 L 197.597656 290 L 197.898438 300 L 197.46875 310 L 196.300781 320 L 194.371094 330 L 191.65625 340 L 190 344.960938 L 188.097656 350 L 183.625 360 "/>
<path style="fill:none;stroke-width:1;stroke-linecap:butt;stroke-linejoin:miter;stroke:rgb(13.744097%,11.61125%,11.892722%);stroke-opacity:0.07;stroke-miterlimit:10;" d="M 0 140.757812 L 10 142.5625 L 20 144.214844 L 30 145.820312 L 40 147.472656 L 50 149.261719 L 53.828125 150 L 60 151.265625 L 70 153.566406 L 80 156.226562 L 90 159.332031 L 91.964844 160 L 100 162.953125 L 110 167.179688 L 115.90625 170 L 120 172.109375 L 130 177.855469 L 133.367188 180 L 140 184.570312 L 147.066406 190 L 150 192.445312 L 158.234375 200 L 160 201.765625 L 167.554688 210 L 170 212.933594 L 175.429688 220 L 180 226.632812 L 182.144531 230 L 187.890625 240 L 190 244.09375 L 192.820312 250 L 197.046875 260 L 200 268.035156 L 200.667969 270 L 203.773438 280 L 206.433594 290 L 208.734375 300 L 210 306.171875 L 210.738281 310 L 212.527344 320 L 214.179688 330 L 215.785156 340 L 217.4375 350 L 219.242188 360 "/>
<path style="fill:none;stroke-width:1;stroke-linecap:butt;stroke-linejoin:miter;stroke:rgb(15.941427%,11.723486%,12.433911%);stroke-opacity:0.07;stroke-miterlimit:10;" d="M 0 83.082031 L 3.800781 90 L 10 99.183594 L 10.625 100 L 19.417969 110 L 20 110.578125 L 30 119.390625 L 30.78125 120 L 40 126.570312 L 45.441406 130 L 50 132.679688 L 60 138.085938 L 63.765625 140 L 70 143.074219 L 80 147.859375 L 84.5 150 L 90 152.632812 L 100 157.558594 L 104.761719 160 L 110 162.785156 L 120 168.460938 L 122.550781 170 L 130 174.742188 L 137.566406 180 L 140 181.796875 L 150 189.816406 L 150.210938 190 L 160 199.046875 L 160.953125 200 L 170 209.789062 L 170.183594 210 L 178.203125 220 L 180 222.433594 L 185.257812 230 L 190 237.449219 L 191.539062 240 L 197.214844 250 L 200 255.238281 L 202.441406 260 L 207.367188 270 L 210 275.5 L 212.140625 280 L 216.925781 290 L 220 296.234375 L 221.914062 300 L 227.320312 310 L 230 314.558594 L 233.429688 320 L 240 329.21875 L 240.609375 330 L 249.421875 340 L 250 340.582031 L 260 349.375 L 260.816406 350 L 270 356.199219 L 276.917969 360 "/>
<path style="fill:none;stroke-width:1;stroke-linecap:butt;stroke-linejoin:miter;stroke:rgb(18.642992%,12.147976%,13.372973%);stroke-opacity:0.07;stroke-miterlimit:10;" d="M 38.734375 0 L 35.714844 10 L 33.410156 20 L 31.828125 30 L 30.988281 40 L 30.914062 50 L 31.660156 60 L 33.292969 70 L 35.910156 80 L 39.644531 90 L 40 90.808594 L 44.679688 100 L 50 108.277344 L 51.257812 110 L 59.679688 120 L 60 120.335938 L 70 129.78125 L 70.257812 130 L 80 137.730469 L 83.105469 140 L 90 144.8125 L 97.792969 150 L 100 151.441406 L 110 157.921875 L 113.1875 160 L 120 164.515625 L 127.972656 170 L 130 171.441406 L 140 178.910156 L 141.386719 180 L 150 187.132812 L 153.242188 190 L 160 196.339844 L 163.660156 200 L 170 206.757812 L 172.867188 210 L 180 218.613281 L 181.089844 220 L 188.558594 230 L 190 232.027344 L 195.484375 240 L 200 246.8125 L 202.078125 250 L 208.558594 260 L 210 262.207031 L 215.1875 270 L 220 276.894531 L 222.269531 280 L 230 289.742188 L 230.21875 290 L 239.664062 300 L 240 300.320312 L 250 308.742188 L 251.722656 310 L 260 315.320312 L 269.191406 320 L 270 320.355469 L 280 324.089844 L 290 326.707031 L 300 328.339844 L 310 329.085938 L 320 329.011719 L 330 328.171875 L 340 326.589844 L 350 324.285156 L 360 321.265625 "/>
<path style="fill:none;stroke-width:1;stroke-linecap:butt;stroke-linejoin:miter;stroke:rgb(21.789725%,12.805587%,14.637591%);stroke-opacity:0.07;stroke-miterlimit:10;" d="M 70.375 0 L 70 0.785156 L 65.972656 10 L 62.402344 20 L 60 28.542969 L 59.648438 30 L 57.699219 40 L 56.5625 50 L 56.265625 60 L 56.851562 70 L 58.382812 80 L 60 86.730469 L 60.964844 90 L 64.722656 100 L 69.820312 110 L 70 110.308594 L 76.460938 120 L 80 124.492188 L 84.839844 130 L 90 135.269531 L 95.054688 140 L 100 144.320312 L 106.898438 150 L 110 152.464844 L 119.730469 160 L 120 160.207031 L 130 167.917969 L 132.65625 170 L 140 175.894531 L 144.925781 180 L 150 184.390625 L 156.179688 190 L 160 193.632812 L 166.367188 200 L 170 203.820312 L 175.609375 210 L 180 215.074219 L 184.105469 220 L 190 227.34375 L 192.082031 230 L 199.792969 240 L 200 240.269531 L 207.535156 250 L 210 253.101562 L 215.679688 260 L 220 264.945312 L 224.730469 270 L 230 275.160156 L 235.507812 280 L 240 283.539062 L 249.691406 290 L 250 290.179688 L 260 295.277344 L 270 299.035156 L 273.269531 300 L 280 301.617188 L 290 303.148438 L 300 303.734375 L 310 303.4375 L 320 302.300781 L 330 300.351562 L 331.457031 300 L 340 297.597656 L 350 294.027344 L 359.214844 290 L 360 289.625 "/>
<path style="fill:none;stroke-width:1;stroke-linecap:butt;stroke-linejoin:miter;stroke:rgb(25.328853%,13.611856%,16.154122%);stroke-opacity:0.07;stroke-miterlimit:10;" d="M 94.144531 0 L 90 7.074219 L 88.4375 10 L 83.722656 20 L 80 29.808594 L 79.9375 30 L 77.039062 40 L 75.015625 50 L 73.867188 60 L 73.617188 70 L 74.308594 80 L 76.015625 90 L 78.832031 100 L 80 103.230469 L 82.882812 110 L 88.324219 120 L 90 122.625 L 95.296875 130 L 100 135.699219 L 103.890625 140 L 110 146.203125 L 113.996094 150 L 120 155.445312 L 125.199219 160 L 130 164.136719 L 136.835938 170 L 140 172.730469 L 148.257812 180 L 150 181.570312 L 159.046875 190 L 160 190.917969 L 169.082031 200 L 170 200.953125 L 178.429688 210 L 180 211.742188 L 187.269531 220 L 190 223.164062 L 195.863281 230 L 200 234.800781 L 204.554688 240 L 210 246.003906 L 213.796875 250 L 220 256.109375 L 224.300781 260 L 230 264.703125 L 237.375 270 L 240 271.675781 L 250 277.117188 L 256.769531 280 L 260 281.167969 L 270 283.984375 L 280 285.691406 L 290 286.382812 L 300 286.132812 L 310 284.984375 L 320 282.960938 L 330 280.0625 L 330.191406 280 L 340 276.277344 L 350 271.5625 L 352.925781 270 L 360 265.855469 "/>
<path style="fill:none;stroke-width:1;stroke-linecap:butt;stroke-linejoin:miter;stroke:rgb(29.202272%,14.486161%,17.852793%);stroke-opacity:0.07;stroke-miterlimit:10;" d="M 113.503906 0 L 110 4.773438 L 106.5 10 L 100.6875 20 L 100 21.328125 L 95.953125 30 L 92.207031 40 L 90 47.585938 L 89.410156 50 L 87.539062 60 L 86.597656 70 L 86.605469 80 L 87.621094 90 L 89.710938 100 L 90 101.066406 L 92.972656 110 L 97.535156 120 L 100 124.425781 L 103.515625 130 L 110 138.785156 L 110.988281 140 L 119.898438 150 L 120 150.109375 L 129.953125 160 L 130 160.042969 L 140 169.402344 L 140.648438 170 L 150 178.671875 L 151.417969 180 L 160 188.183594 L 161.859375 190 L 170 198.140625 L 171.816406 200 L 180 208.582031 L 181.328125 210 L 190 219.351562 L 190.597656 220 L 199.957031 230 L 200 230.046875 L 209.890625 240 L 210 240.101562 L 220 249.011719 L 221.214844 250 L 230 256.484375 L 235.574219 260 L 240 262.464844 L 250 267.027344 L 258.933594 270 L 260 270.289062 L 270 272.378906 L 280 273.394531 L 290 273.402344 L 300 272.460938 L 310 270.589844 L 312.414062 270 L 320 267.792969 L 330 264.046875 L 338.671875 260 L 340 259.3125 L 350 253.5 L 355.226562 250 L 360 246.496094 "/>
<path style="fill:none;stroke-width:1;stroke-linecap:butt;stroke-linejoin:miter;stroke:rgb(33.360944%,15.356245%,19.649826%);stroke-opacity:0.07;stroke-miterlimit:10;" d="M 130.167969 0 L 130 0.183594 L 121.796875 10 L 120 12.425781 L 114.894531 20 L 110 28.53125 L 109.242188 30 L 104.710938 40 L 101.214844 50 L 100 54.375 L 98.710938 60 L 97.171875 70 L 96.609375 80 L 97.054688 90 L 98.558594 100 L 100 105.988281 L 101.203125 110 L 105.089844 120 L 110 129.457031 L 110.320312 130 L 116.964844 140 L 120 143.976562 L 124.996094 150 L 130 155.574219 L 134.199219 160 L 140 165.878906 L 144.175781 170 L 150 175.679688 L 154.441406 180 L 160 185.429688 L 164.628906 190 L 170 195.371094 L 174.570312 200 L 180 205.558594 L 184.320312 210 L 190 215.824219 L 194.121094 220 L 200 225.800781 L 204.425781 230 L 210 235.003906 L 216.023438 240 L 220 243.035156 L 230 249.679688 L 230.542969 250 L 240 254.910156 L 250 258.796875 L 254.011719 260 L 260 261.441406 L 270 262.945312 L 280 263.390625 L 290 262.828125 L 300 261.289062 L 305.625 260 L 310 258.785156 L 320 255.289062 L 330 250.757812 L 331.46875 250 L 340 245.105469 L 347.574219 240 L 350 238.203125 L 359.816406 230 L 360 229.832031 "/>
<path style="fill:none;stroke-width:1;stroke-linecap:butt;stroke-linejoin:miter;stroke:rgb(37.758865%,16.163999%,21.42784%);stroke-opacity:0.07;stroke-miterlimit:10;" d="M 145.144531 0 L 140 4.945312 L 135.265625 10 L 130 16.3125 L 127.222656 20 L 120.660156 30 L 120 31.136719 L 115.375 40 L 111.234375 50 L 110 53.621094 L 108.15625 60 L 106.09375 70 L 105.035156 80 L 104.996094 90 L 106.015625 100 L 108.160156 110 L 110 115.953125 L 111.507812 120 L 116.148438 130 L 120 136.667969 L 122.152344 140 L 129.507812 150 L 130 150.613281 L 138.054688 160 L 140 162.125 L 147.476562 170 L 150 172.585938 L 157.355469 180 L 160 182.644531 L 167.363281 190 L 170 192.636719 L 177.355469 200 L 180 202.644531 L 187.414062 210 L 190 212.523438 L 197.875 220 L 200 221.945312 L 209.386719 230 L 210 230.492188 L 220 237.847656 L 223.332031 240 L 230 243.851562 L 240 248.492188 L 244.046875 250 L 250 251.839844 L 260 253.984375 L 270 255.003906 L 280 254.964844 L 290 253.90625 L 300 251.84375 L 306.378906 250 L 310 248.765625 L 320 244.625 L 328.863281 240 L 330 239.339844 L 340 232.777344 L 343.6875 230 L 350 224.734375 L 355.054688 220 L 360 214.855469 "/>
<path style="fill:none;stroke-width:1;stroke-linecap:butt;stroke-linejoin:miter;stroke:rgb(37.758865%,16.163999%,21.42784%);stroke-opacity:0.07;stroke-miterlimit:10;" d="M 343.597656 0 L 350 5.828125 L 354.171875 10 L 360 16.402344 "/>
<path style="fill:none;stroke-width:1;stroke-linecap:butt;stroke-linejoin:miter;stroke:rgb(42.365149%,16.857536%,23.107809%);stroke-opacity:0.07;stroke-miterlimit:10;" d="M 159.144531 0 L 150 7.648438 L 147.503906 10 L 140 17.910156 L 138.222656 20 L 130.734375 30 L 130 31.105469 L 124.710938 40 L 120 49.882812 L 119.949219 50 L 116.339844 60 L 113.800781 70 L 112.304688 80 L 111.851562 90 L 112.460938 100 L 114.183594 110 L 117.089844 120 L 120 127.292969 L 121.257812 130 L 126.753906 140 L 130 144.996094 L 133.578125 150 L 140 158.097656 L 141.609375 160 L 150 169.367188 L 150.589844 170 L 160 179.820312 L 160.175781 180 L 170 189.925781 L 170.074219 190 L 180 199.824219 L 180.179688 200 L 190 209.410156 L 190.632812 210 L 200 218.390625 L 201.902344 220 L 210 226.421875 L 215.003906 230 L 220 233.246094 L 230 238.742188 L 232.707031 240 L 240 242.910156 L 250 245.816406 L 260 247.539062 L 270 248.148438 L 280 247.695312 L 290 246.199219 L 300 243.660156 L 310 240.050781 L 310.117188 240 L 320 235.289062 L 328.894531 230 L 330 229.265625 L 340 221.777344 L 342.089844 220 L 350 212.496094 L 352.351562 210 L 360 200.855469 "/>
<path style="fill:none;stroke-width:1;stroke-linecap:butt;stroke-linejoin:miter;stroke:rgb(42.365149%,16.857536%,23.107809%);stroke-opacity:0.07;stroke-miterlimit:10;" d="M 328.21875 0 L 330 1.320312 L 340 9.578125 L 340.464844 10 L 350 19.535156 L 350.421875 20 L 358.679688 30 L 360 31.78125 "/>
<path style="fill:none;stroke-width:1;stroke-linecap:butt;stroke-linejoin:miter;stroke:rgb(47.151732%,17.401641%,24.610337%);stroke-opacity:0.07;stroke-miterlimit:10;" d="M 172.777344 0 L 170 1.785156 L 160 9.128906 L 158.941406 10 L 150 18.214844 L 148.277344 20 L 140 29.746094 L 139.808594 30 L 133.035156 40 L 130 45.359375 L 127.675781 50 L 123.5625 60 L 120.589844 70 L 120 72.574219 L 118.699219 80 L 117.875 90 L 118.128906 100 L 119.496094 110 L 120 112.417969 L 122.035156 120 L 125.816406 130 L 130 138.40625 L 130.898438 140 L 137.292969 150 L 140 153.726562 L 144.914062 160 L 150 166.007812 L 153.550781 170 L 160 176.953125 L 162.914062 180 L 170 187.234375 L 172.765625 190 L 180 197.085938 L 183.046875 200 L 190 206.449219 L 193.992188 210 L 200 215.085938 L 206.273438 220 L 210 222.707031 L 220 229.101562 L 221.59375 230 L 230 234.183594 L 240 237.964844 L 247.582031 240 L 250 240.503906 L 260 241.871094 L 270 242.125 L 280 241.300781 L 287.425781 240 L 290 239.410156 L 300 236.4375 L 310 232.324219 L 314.640625 230 L 320 226.964844 L 330 220.191406 L 330.253906 220 L 340 211.722656 L 341.785156 210 L 350 201.058594 L 350.871094 200 L 358.214844 190 L 360 187.222656 "/>
<path style="fill:none;stroke-width:1;stroke-linecap:butt;stroke-linejoin:miter;stroke:rgb(47.151732%,17.401641%,24.610337%);stroke-opacity:0.07;stroke-miterlimit:10;" d="M 313.507812 0 L 320 4.183594 L 327.871094 10 L 330 11.726562 L 339.128906 20 L 340 20.871094 L 348.273438 30 L 350 32.128906 L 355.816406 40 L 360 46.492188 "/>
<path style="fill:none;stroke-width:1;stroke-linecap:butt;stroke-linejoin:miter;stroke:rgb(52.090981%,17.782954%,25.83155%);stroke-opacity:0.07;stroke-miterlimit:10;" d="M 186.78125 0 L 180 3.59375 L 170 9.960938 L 169.945312 10 L 160 17.875 L 157.65625 20 L 150 27.835938 L 148.125 30 L 140.582031 40 L 140 40.882812 L 134.632812 50 L 130.035156 60 L 130 60.089844 L 126.652344 70 L 124.402344 80 L 123.25 90 L 123.191406 100 L 124.25 110 L 126.476562 120 L 129.929688 130 L 130 130.167969 L 134.675781 140 L 140 148.910156 L 140.722656 150 L 148.011719 160 L 150 162.484375 L 156.378906 170 L 160 174.03125 L 165.582031 180 L 170 184.558594 L 175.441406 190 L 180 194.417969 L 185.96875 200 L 190 203.621094 L 197.515625 210 L 200 211.988281 L 210 219.277344 L 211.089844 220 L 220 225.324219 L 229.832031 230 L 230 230.070312 L 240 233.523438 L 250 235.75 L 260 236.808594 L 270 236.75 L 280 235.597656 L 290 233.347656 L 299.910156 230 L 300 229.964844 L 310 225.367188 L 319.117188 220 L 320 219.417969 L 330 211.875 L 332.164062 210 L 340 202.34375 L 342.125 200 L 350 190.054688 L 350.039062 190 L 356.40625 180 L 360 173.21875 "/>
<path style="fill:none;stroke-width:1;stroke-linecap:butt;stroke-linejoin:miter;stroke:rgb(52.090981%,17.782954%,25.83155%);stroke-opacity:0.07;stroke-miterlimit:10;" d="M 298.652344 0 L 300 0.65625 L 310 6.15625 L 315.949219 10 L 320 12.890625 L 328.761719 20 L 330 21.109375 L 338.890625 30 L 340 31.238281 L 347.109375 40 L 350 44.050781 L 353.84375 50 L 359.34375 60 L 360 61.347656 "/>
<path style="fill:none;stroke-width:1;stroke-linecap:butt;stroke-linejoin:miter;stroke:rgb(57.139199%,18.036638%,26.640429%);stroke-opacity:0.07;stroke-miterlimit:10;" d="M 202.480469 0 L 200 0.890625 L 190 5.132812 L 180.890625 10 L 180 10.53125 L 170 17.3125 L 166.585938 20 L 160 25.832031 L 155.867188 30 L 150 36.769531 L 147.519531 40 L 140.972656 50 L 140 51.722656 L 135.902344 60 L 132.132812 70 L 130 77.882812 L 129.546875 80 L 128.097656 90 L 127.757812 100 L 128.546875 110 L 130 117.921875 L 130.503906 120 L 133.6875 130 L 138.148438 140 L 140 143.46875 L 143.910156 150 L 150 158.761719 L 150.933594 160 L 159.089844 170 L 160 171.046875 L 168.191406 180 L 170 181.882812 L 178.117188 190 L 180 191.808594 L 188.953125 200 L 190 200.910156 L 200 209.066406 L 201.238281 210 L 210 216.089844 L 216.53125 220 L 220 221.851562 L 230 226.3125 L 240 229.496094 L 242.078125 230 L 250 231.453125 L 260 232.242188 L 270 231.902344 L 280 230.453125 L 282.117188 230 L 290 227.867188 L 300 224.097656 L 308.277344 220 L 310 219.027344 L 320 212.480469 L 323.230469 210 L 330 204.132812 L 334.167969 200 L 340 193.414062 L 342.6875 190 L 349.46875 180 L 350 179.109375 L 354.867188 170 L 359.109375 160 L 360 157.519531 "/>
<path style="fill:none;stroke-width:1;stroke-linecap:butt;stroke-linejoin:miter;stroke:rgb(57.139199%,18.036638%,26.640429%);stroke-opacity:0.07;stroke-miterlimit:10;" d="M 282.257812 0 L 290 2.9375 L 300 7.652344 L 304.257812 10 L 310 13.527344 L 319.027344 20 L 320 20.773438 L 330 29.722656 L 330.277344 30 L 339.226562 40 L 340 40.972656 L 346.472656 50 L 350 55.742188 L 352.347656 60 L 357.0625 70 L 360 77.742188 "/>
<path style="fill:none;stroke-width:1;stroke-linecap:butt;stroke-linejoin:miter;stroke:rgb(62.209673%,18.303851%,26.863406%);stroke-opacity:0.07;stroke-miterlimit:10;" d="M 225.488281 0 L 220 0.917969 L 210 3.304688 L 200 6.664062 L 192.265625 10 L 190 11.109375 L 180 16.800781 L 175.265625 20 L 170 24 L 163.179688 30 L 160 33.171875 L 153.96875 40 L 150 45.234375 L 146.8125 50 L 141.277344 60 L 140 62.769531 L 137.132812 70 L 134.234375 80 L 132.507812 90 L 131.917969 100 L 132.46875 110 L 134.195312 120 L 137.144531 130 L 140 137.085938 L 141.367188 140 L 146.894531 150 L 150 154.789062 L 153.707031 160 L 160 167.984375 L 161.703125 170 L 170 179.210938 L 170.75 180 L 180 189.25 L 180.789062 190 L 190 198.296875 L 192.015625 200 L 200 206.292969 L 205.210938 210 L 210 213.105469 L 220 218.632812 L 222.914062 220 L 230 222.855469 L 240 225.804688 L 250 227.53125 L 260 228.082031 L 270 227.492188 L 280 225.765625 L 290 222.867188 L 297.230469 220 L 300 218.722656 L 310 213.1875 L 314.765625 210 L 320 206.03125 L 326.828125 200 L 330 196.820312 L 336 190 L 340 184.734375 L 343.199219 180 L 348.890625 170 L 350 167.734375 L 353.335938 160 L 356.695312 150 L 359.082031 140 L 360 134.511719 "/>
<path style="fill:none;stroke-width:1;stroke-linecap:butt;stroke-linejoin:miter;stroke:rgb(62.209673%,18.303851%,26.863406%);stroke-opacity:0.07;stroke-miterlimit:10;" d="M 258.683594 0 L 260 0.195312 L 270 2.175781 L 280 5.074219 L 290 8.96875 L 292.269531 10 L 300 13.960938 L 309.6875 20 L 310 20.21875 L 320 28.003906 L 322.246094 30 L 330 37.753906 L 331.996094 40 L 339.78125 50 L 340 50.3125 L 346.039062 60 L 350 67.730469 L 351.03125 70 L 354.925781 80 L 357.824219 90 L 359.804688 100 L 360 101.316406 "/>
<path style="fill:none;stroke-width:1;stroke-linecap:butt;stroke-linejoin:miter;stroke:rgb(67.111966%,18.948885%,26.357955%);stroke-opacity:0.07;stroke-miterlimit:10;" d="M 138.539062 80 L 136.554688 90 L 135.734375 100 L 136.074219 110 L 137.597656 120 L 140 128.960938 L 140.34375 130 L 144.367188 140 L 149.703125 150 L 150 150.496094 L 156.34375 160 L 160 164.828125 L 164.222656 170 L 170 176.53125 L 173.261719 180 L 180 186.738281 L 183.46875 190 L 190 195.777344 L 195.171875 200 L 200 203.65625 L 209.503906 210 L 210 210.296875 L 220 215.632812 L 230 219.65625 L 231.039062 220 L 240 222.402344 L 250 223.925781 L 260 224.265625 L 270 223.445312 L 280 221.460938 L 285.0625 220 L 290 218.265625 L 300 213.757812 L 306.570312 210 L 310 207.757812 L 319.960938 200 L 320 199.964844 L 329.839844 190 L 330 189.8125 L 337.480469 180 L 340 176.089844 L 343.46875 170 L 348.117188 160 L 350 155.007812 L 351.617188 150 L 354.089844 140 L 355.613281 130 L 356.226562 120 L 355.953125 110 L 354.789062 100 L 352.707031 90 L 350 80.964844 L 349.660156 80 L 345.566406 70 L 340.289062 60 L 340 59.511719 L 333.636719 50 L 330 45.359375 L 325.28125 40 L 320 34.71875 L 314.640625 30 L 310 26.363281 L 300.488281 20 L 300 19.710938 L 290 14.433594 L 280 10.339844 L 279.035156 10 L 270 7.292969 L 260 5.210938 L 250 4.046875 L 240 3.773438 L 230 4.386719 L 220 5.910156 L 210 8.382812 L 204.992188 10 L 200 11.882812 L 190 16.53125 L 183.910156 20 L 180 22.519531 L 170.1875 30 L 170 30.160156 L 160.035156 40 L 160 40.039062 L 152.242188 50 L 150 53.429688 L 146.242188 60 L 141.734375 70 L 140 74.9375 L 138.539062 80 "/>
<path style="fill:none;stroke-width:1;stroke-linecap:butt;stroke-linejoin:miter;stroke:rgb(71.631781%,20.38015%,25.255365%);stroke-opacity:0.07;stroke-miterlimit:10;" d="M 139.261719 100 L 139.410156 110 L 140 115.507812 L 140.75 120 L 143.324219 130 L 147.175781 140 L 150 145.765625 L 152.355469 150 L 158.863281 160 L 160 161.566406 L 166.667969 170 L 170 173.839844 L 175.734375 180 L 180 184.265625 L 186.160156 190 L 190 193.332031 L 198.433594 200 L 200 201.136719 L 210 207.644531 L 214.234375 210 L 220 212.824219 L 230 216.675781 L 240 219.25 L 244.492188 220 L 250 220.589844 L 260 220.738281 L 268.074219 220 L 270 219.710938 L 280 217.484375 L 290 214.003906 L 298.429688 210 L 300 209.136719 L 310 202.667969 L 313.453125 200 L 320 194.210938 L 324.113281 190 L 330 183.003906 L 332.21875 180 L 338.511719 170 L 340 167.203125 L 343.363281 160 L 347.003906 150 L 349.566406 140 L 350 137.761719 L 351.132812 130 L 351.757812 120 L 351.460938 110 L 350.238281 100 L 350 98.640625 L 348.058594 90 L 344.867188 80 L 340.566406 70 L 340 68.859375 L 335.003906 60 L 330 52.675781 L 327.945312 50 L 320 41.027344 L 318.972656 40 L 310 32.054688 L 307.324219 30 L 300 24.996094 L 291.140625 20 L 290 19.433594 L 280 15.132812 L 270 11.941406 L 261.359375 10 L 260 9.761719 L 250 8.539062 L 240 8.242188 L 230 8.867188 L 222.238281 10 L 220 10.433594 L 210 12.996094 L 200 16.636719 L 192.796875 20 L 190 21.488281 L 180 27.78125 L 176.996094 30 L 170 35.886719 L 165.789062 40 L 160 46.546875 L 157.332031 50 L 150.863281 60 L 150 61.570312 L 145.996094 70 L 142.515625 80 L 140.289062 90 L 140 91.925781 L 139.261719 100 "/>
<path style="fill:none;stroke-width:1;stroke-linecap:butt;stroke-linejoin:miter;stroke:rgb(75.833648%,22.447645%,23.872046%);stroke-opacity:0.07;stroke-miterlimit:10;" d="M 149.972656 70 L 146.210938 80 L 143.757812 90 L 142.535156 100 L 142.511719 110 L 143.691406 120 L 146.113281 130 L 149.824219 140 L 150 140.398438 L 154.871094 150 L 160 158.167969 L 161.277344 160 L 169.039062 170 L 170 171.128906 L 178.175781 180 L 180 181.824219 L 188.871094 190 L 190 190.960938 L 200 198.722656 L 201.832031 200 L 210 205.128906 L 219.601562 210 L 220 210.175781 L 230 213.886719 L 240 216.308594 L 250 217.488281 L 260 217.464844 L 270 216.242188 L 280 213.789062 L 290 210.027344 L 290.0625 210 L 300 204.808594 L 307.203125 200 L 310 197.859375 L 318.734375 190 L 320 188.691406 L 327.335938 180 L 330 176.273438 L 333.9375 170 L 339 160 L 340 157.640625 L 342.777344 150 L 345.429688 140 L 347.046875 130 L 347.683594 120 L 347.363281 110 L 346.082031 100 L 343.804688 90 L 340.46875 80 L 340 78.816406 L 335.960938 70 L 330.109375 60 L 330 59.835938 L 322.617188 50 L 320 47.015625 L 312.984375 40 L 310 37.382812 L 300.164062 30 L 300 29.890625 L 290 24.039062 L 281.183594 20 L 280 19.53125 L 270 16.195312 L 260 13.917969 L 250 12.636719 L 240 12.316406 L 230 12.953125 L 220 14.570312 L 210 17.222656 L 202.359375 20 L 200 21 L 190 26.0625 L 183.726562 30 L 180 32.664062 L 171.308594 40 L 170 41.265625 L 162.140625 50 L 160 52.796875 L 155.191406 60 L 150 69.9375 L 149.972656 70 "/>
<path style="fill:none;stroke-width:1;stroke-linecap:butt;stroke-linejoin:miter;stroke:rgb(79.609401%,25.244132%,22.434199%);stroke-opacity:0.07;stroke-miterlimit:10;" d="M 149.667969 80 L 146.996094 90 L 145.59375 100 L 145.410156 110 L 146.445312 120 L 148.734375 130 L 150 133.964844 L 152.324219 140 L 157.265625 150 L 160 154.597656 L 163.597656 160 L 170 168.390625 L 171.347656 170 L 180 179.410156 L 180.589844 180 L 190 188.652344 L 191.609375 190 L 200 196.402344 L 205.402344 200 L 210 202.734375 L 220 207.675781 L 226.035156 210 L 230 211.265625 L 240 213.554688 L 250 214.589844 L 260 214.40625 L 270 213.003906 L 280 210.332031 L 280.980469 210 L 290 206.300781 L 300 200.730469 L 301.113281 200 L 310 193.285156 L 313.648438 190 L 320 183.347656 L 322.773438 180 L 329.699219 170 L 330 169.496094 L 334.96875 160 L 338.886719 150 L 340 146.410156 L 341.625 140 L 343.289062 130 L 343.9375 120 L 343.597656 110 L 342.261719 100 L 340 90.386719 L 339.886719 90 L 336.40625 80 L 331.691406 70 L 330 66.984375 L 325.539062 60 L 320 52.761719 L 317.601562 50 L 310 42.398438 L 307.238281 40 L 300 34.460938 L 293.015625 30 L 290 28.308594 L 280 23.59375 L 270 20.113281 L 269.613281 20 L 260 17.738281 L 250 16.402344 L 240 16.0625 L 230 16.710938 L 220 18.375 L 213.589844 20 L 210 21.113281 L 200 25.03125 L 190.503906 30 L 190 30.300781 L 180 37.226562 L 176.652344 40 L 170 46.351562 L 166.714844 50 L 160 58.886719 L 159.269531 60 L 153.699219 70 L 150 79.019531 L 149.667969 80 "/>
<path style="fill:none;stroke-width:1;stroke-linecap:butt;stroke-linejoin:miter;stroke:rgb(82.915955%,28.696963%,21.210766%);stroke-opacity:0.07;stroke-miterlimit:10;" d="M 148.457031 100 L 148.125 110 L 149.035156 120 L 150 125.175781 L 151.207031 130 L 154.695312 140 L 159.550781 150 L 160 150.800781 L 165.832031 160 L 170 165.609375 L 173.597656 170 L 180 177.023438 L 182.976562 180 L 190 186.402344 L 194.390625 190 L 200 194.167969 L 209.199219 200 L 210 200.449219 L 220 205.304688 L 230 208.792969 L 234.824219 210 L 240 210.964844 L 250 211.875 L 260 211.542969 L 269.847656 210 L 270 209.964844 L 280 207.089844 L 290 202.792969 L 295.085938 200 L 300 196.863281 L 308.785156 190 L 310 188.90625 L 318.476562 180 L 320 178.121094 L 325.738281 170 L 330 162.5 L 331.226562 160 L 335.285156 150 L 338.109375 140 L 339.820312 130 L 340 128.375 L 340.484375 120 L 340.121094 110 L 340 108.714844 L 338.726562 100 L 336.261719 90 L 332.636719 80 L 330 74.300781 L 327.710938 70 L 321.246094 60 L 320 58.339844 L 312.832031 50 L 310 47.167969 L 301.660156 40 L 300 38.753906 L 290 32.289062 L 285.699219 30 L 280 27.363281 L 270 23.738281 L 260 21.273438 L 251.285156 20 L 250 19.878906 L 240 19.515625 L 231.625 20 L 230 20.179688 L 220 21.890625 L 210 24.714844 L 200 28.773438 L 197.5 30 L 190 34.261719 L 181.878906 40 L 180 41.523438 L 171.09375 50 L 170 51.214844 L 163.136719 60 L 160 64.914062 L 157.207031 70 L 152.910156 80 L 150.035156 90 L 150 90.152344 L 148.457031 100 "/>
<path style="fill:none;stroke-width:1;stroke-linecap:butt;stroke-linejoin:miter;stroke:rgb(85.808211%,32.596558%,20.380238%);stroke-opacity:0.07;stroke-miterlimit:10;" d="M 155.96875 80 L 152.890625 90 L 151.148438 100 L 150.683594 110 L 151.476562 120 L 153.546875 130 L 156.949219 140 L 160 146.703125 L 161.738281 150 L 167.988281 160 L 170 162.785156 L 175.792969 170 L 180 174.652344 L 185.347656 180 L 190 184.207031 L 197.214844 190 L 200 192.011719 L 210 198.261719 L 213.296875 200 L 220 203.050781 L 230 206.453125 L 240 208.523438 L 250 209.316406 L 260 208.851562 L 270 207.109375 L 280 204.03125 L 289.003906 200 L 290 199.472656 L 300 193.183594 L 304.105469 190 L 310 184.679688 L 314.414062 180 L 320 172.953125 L 322.023438 170 L 327.730469 160 L 330 155.007812 L 331.933594 150 L 334.847656 140 L 336.605469 130 L 337.277344 120 L 336.894531 110 L 335.445312 100 L 332.882812 90 L 330 82.066406 L 329.117188 80 L 323.976562 70 L 320 63.8125 L 317.195312 60 L 310 51.726562 L 308.273438 50 L 300 42.804688 L 296.1875 40 L 290 36.023438 L 280 30.882812 L 277.933594 30 L 270 27.117188 L 260 24.554688 L 250 23.105469 L 240 22.722656 L 230 23.394531 L 220 25.152344 L 210 28.066406 L 204.992188 30 L 200 32.269531 L 190 37.976562 L 187.046875 40 L 180 45.585938 L 175.320312 50 L 170 55.894531 L 166.816406 60 L 160.527344 70 L 160 70.996094 L 155.96875 80 "/>
<path style="fill:none;stroke-width:1;stroke-linecap:butt;stroke-linejoin:miter;stroke:rgb(88.38252%,36.74644%,19.989419%);stroke-opacity:0.07;stroke-miterlimit:10;" d="M 158.863281 80 L 155.585938 90 L 153.691406 100 L 153.101562 110 L 153.785156 120 L 155.769531 130 L 159.09375 140 L 160 142.167969 L 163.835938 150 L 170 159.894531 L 170.074219 160 L 177.945312 170 L 180 172.292969 L 187.707031 180 L 190 182.054688 L 200 189.925781 L 200.105469 190 L 210 196.164062 L 217.832031 200 L 220 200.90625 L 230 204.230469 L 240 206.214844 L 250 206.898438 L 260 206.308594 L 270 204.414062 L 280 201.136719 L 282.691406 200 L 290 196.320312 L 299.554688 190 L 300 189.660156 L 310 180.582031 L 310.542969 180 L 318.519531 170 L 320 167.769531 L 324.453125 160 L 328.796875 150 L 330 146.472656 L 331.800781 140 L 333.605469 130 L 334.292969 120 L 333.886719 110 L 332.382812 100 L 330 90.847656 L 329.726562 90 L 325.816406 80 L 320.457031 70 L 320 69.261719 L 313.34375 60 L 310 56.121094 L 303.878906 50 L 300 46.65625 L 290.738281 40 L 290 39.542969 L 280 34.183594 L 270 30.273438 L 269.152344 30 L 260 27.617188 L 250 26.113281 L 240 25.707031 L 230 26.394531 L 220 28.199219 L 213.527344 30 L 210 31.203125 L 200 35.546875 L 192.230469 40 L 190 41.480469 L 180 49.457031 L 179.417969 50 L 170.339844 60 L 170 60.445312 L 163.679688 70 L 160 77.308594 L 158.863281 80 "/>
<path style="fill:none;stroke-width:1;stroke-linecap:butt;stroke-linejoin:miter;stroke:rgb(90.535059%,41.190315%,20.494524%);stroke-opacity:0.07;stroke-miterlimit:10;" d="M 158.144531 90 L 156.101562 100 L 155.390625 110 L 155.976562 120 L 157.878906 130 L 160 136.945312 L 161.144531 140 L 165.851562 150 L 170 156.917969 L 172.097656 160 L 180 169.941406 L 180.050781 170 L 190 179.949219 L 190.058594 180 L 200 187.902344 L 203.082031 190 L 210 194.148438 L 220 198.855469 L 223.054688 200 L 230 202.121094 L 240 204.023438 L 250 204.609375 L 260 203.898438 L 270 201.855469 L 275.878906 200 L 280 198.390625 L 290 193.308594 L 295.097656 190 L 300 186.269531 L 306.835938 180 L 310 176.574219 L 315.199219 170 L 320 162.492188 L 321.363281 160 L 325.855469 150 L 328.945312 140 L 330 135.109375 L 330.796875 130 L 331.496094 120 L 331.074219 110 L 330 102.421875 L 329.515625 100 L 326.765625 90 L 322.707031 80 L 320 74.777344 L 317.128906 70 L 310 60.386719 L 309.667969 60 L 300 50.332031 L 299.613281 50 L 290 42.871094 L 285.222656 40 L 280 37.292969 L 270 33.234375 L 260 30.484375 L 257.578125 30 L 250 28.925781 L 240 28.503906 L 230 29.203125 L 224.890625 30 L 220 31.054688 L 210 34.144531 L 200 38.636719 L 197.507812 40 L 190 44.800781 L 183.425781 50 L 180 53.164062 L 173.730469 60 L 170 64.902344 L 166.691406 70 L 161.609375 80 L 160 84.121094 L 158.144531 90 "/>
<path style="fill:none;stroke-width:1;stroke-linecap:butt;stroke-linejoin:miter;stroke:rgb(92.171507%,45.922856%,22.568002%);stroke-opacity:0.07;stroke-miterlimit:10;" d="M 158.386719 100 L 157.5625 110 L 158.0625 120 L 159.894531 130 L 160 130.414062 L 163.109375 140 L 167.792969 150 L 170 153.835938 L 174.0625 160 L 180 167.59375 L 182.121094 170 L 190 177.878906 L 192.40625 180 L 200 185.9375 L 206.164062 190 L 210 192.207031 L 220 196.890625 L 229.585938 200 L 230 200.105469 L 240 201.9375 L 250 202.4375 L 260 201.613281 L 267.917969 200 L 270 199.429688 L 280 195.773438 L 290 190.429688 L 290.675781 190 L 300 183 L 303.265625 180 L 310 172.628906 L 312.042969 170 L 318.445312 160 L 320 157.007812 L 323.082031 150 L 326.261719 140 L 328.164062 130 L 328.875 120 L 328.433594 110 L 326.820312 100 L 323.976562 90 L 320 80.472656 L 319.769531 80 L 313.964844 70 L 310 64.5625 L 306.140625 60 L 300 53.859375 L 295.4375 50 L 290 46.035156 L 280 40.230469 L 279.527344 40 L 270 36.023438 L 260 33.179688 L 250 31.566406 L 240 31.125 L 230 31.835938 L 220 33.738281 L 210 36.917969 L 202.992188 40 L 200 41.554688 L 190 47.957031 L 187.371094 50 L 180 56.734375 L 177 60 L 170 69.324219 L 169.570312 70 L 164.226562 80 L 160.570312 90 L 160 92.082031 L 158.386719 100 "/>
<path style="fill:none;stroke-width:1;stroke-linecap:butt;stroke-linejoin:miter;stroke:rgb(93.408455%,50.764249%,26.321732%);stroke-opacity:0.07;stroke-miterlimit:10;" d="M 159.628906 110 L 160 104.238281 L 160.558594 100 L 162.886719 90 L 166.726562 80 L 170 73.753906 L 172.332031 70 L 180 60.1875 L 180.171875 60 L 190 50.976562 L 191.28125 50 L 200 44.328125 L 208.871094 40 L 210 39.539062 L 220 36.265625 L 230 34.320312 L 240 33.59375 L 250 34.058594 L 260 35.722656 L 270 38.660156 L 273.464844 40 L 280 43.019531 L 290 49.054688 L 291.320312 50 L 300 57.261719 L 302.738281 60 L 310 68.679688 L 310.945312 70 L 316.980469 80 L 320 86.535156 L 321.339844 90 L 324.277344 100 L 325.941406 110 L 326.40625 120 L 325.679688 130 L 323.734375 140 L 320.460938 150 L 320 151.128906 L 315.671875 160 L 310 168.71875 L 309.023438 170 L 300 179.828125 L 299.8125 180 L 290 187.667969 L 286.246094 190 L 280 193.273438 L 270 197.113281 L 260 199.441406 L 255.761719 200 L 250 200.371094 L 240.457031 200 L 240 199.953125 L 230 198.179688 L 220 195.003906 L 210 190.335938 L 209.390625 190 L 200 184.027344 L 194.761719 180 L 190 175.84375 L 184.15625 170 L 180 165.238281 L 175.972656 160 L 170 150.609375 L 169.664062 150 L 164.996094 140 L 161.820312 130 L 160.046875 120 L 160 119.542969 L 159.628906 110 "/>
<path style="fill:none;stroke-width:1;stroke-linecap:butt;stroke-linejoin:miter;stroke:rgb(94.446585%,55.553633%,31.262906%);stroke-opacity:0.07;stroke-miterlimit:10;" d="M 169.121094 80 L 165.09375 90 L 162.636719 100 L 161.605469 110 L 161.945312 120 L 163.664062 130 L 166.804688 140 L 170 147.1875 L 171.476562 150 L 177.832031 160 L 180 162.867188 L 186.164062 170 L 190 173.835938 L 197.132812 180 L 200 182.167969 L 210 188.523438 L 212.8125 190 L 220 193.195312 L 230 196.335938 L 240 198.054688 L 250 198.394531 L 260 197.363281 L 270 194.90625 L 280 190.878906 L 281.738281 190 L 290 185.003906 L 296.449219 180 L 300 176.734375 L 306.128906 170 L 310 164.800781 L 313.035156 160 L 317.972656 150 L 320 144.507812 L 321.339844 140 L 323.335938 130 L 324.074219 120 L 323.589844 110 L 321.871094 100 L 320 93.320312 L 318.839844 90 L 314.332031 80 L 310 72.78125 L 308.050781 70 L 300 60.558594 L 299.441406 60 L 290 51.949219 L 287.21875 50 L 280 45.667969 L 270 41.160156 L 266.679688 40 L 260 38.128906 L 250 36.410156 L 240 35.925781 L 230 36.664062 L 220 38.660156 L 215.492188 40 L 210 42.027344 L 200 46.964844 L 195.199219 50 L 190 53.871094 L 183.265625 60 L 180 63.550781 L 174.996094 70 L 170 78.261719 L 169.121094 80 "/>
<path style="fill:none;stroke-width:1;stroke-linecap:butt;stroke-linejoin:miter;stroke:rgb(95.415613%,60.237911%,36.891993%);stroke-opacity:0.07;stroke-miterlimit:10;" d="M 167.210938 90 L 164.617188 100 L 163.492188 110 L 163.761719 120 L 165.429688 130 L 168.550781 140 L 170 143.496094 L 173.226562 150 L 179.644531 160 L 180 160.476562 L 188.144531 170 L 190 171.855469 L 199.523438 180 L 200 180.355469 L 210 186.773438 L 216.503906 190 L 220 191.449219 L 230 194.570312 L 240 196.238281 L 250 196.507812 L 260 195.382812 L 270 192.789062 L 277.058594 190 L 280 188.578125 L 290 182.429688 L 293.15625 180 L 300 173.707031 L 303.34375 170 L 310 160.839844 L 310.515625 160 L 315.609375 150 L 319.066406 140 L 320 136.210938 L 321.113281 130 L 321.863281 120 L 321.363281 110 L 320 101.769531 L 319.589844 100 L 316.460938 90 L 311.800781 80 L 310 76.90625 L 305.273438 70 L 300 63.769531 L 296.230469 60 L 290 54.726562 L 283.09375 50 L 280 48.199219 L 270 43.539062 L 260 40.410156 L 258.230469 40 L 250 38.636719 L 240 38.136719 L 230 38.886719 L 223.789062 40 L 220 40.933594 L 210 44.390625 L 200 49.484375 L 199.160156 50 L 190 56.65625 L 186.292969 60 L 180 66.84375 L 177.570312 70 L 171.421875 80 L 170 82.941406 L 167.210938 90 "/>
<path style="fill:none;stroke-width:1;stroke-linecap:butt;stroke-linejoin:miter;stroke:rgb(96.371553%,64.826619%,42.928335%);stroke-opacity:0.07;stroke-miterlimit:10;" d="M 169.238281 90 L 166.519531 100 L 165.296875 110 L 165.503906 120 L 167.128906 130 L 170 139.394531 L 170.230469 140 L 174.925781 150 L 180 158.058594 L 181.417969 160 L 190 169.898438 L 190.101562 170 L 200 178.582031 L 201.941406 180 L 210 185.074219 L 220 189.769531 L 220.605469 190 L 230 192.871094 L 240 194.496094 L 250 194.703125 L 260 193.480469 L 270 190.761719 L 272.0625 190 L 280 186.363281 L 289.914062 180 L 290 179.933594 L 300 170.730469 L 300.652344 170 L 308.101562 160 L 310 156.785156 L 313.355469 150 L 316.90625 140 L 319 130 L 319.765625 120 L 319.246094 110 L 317.421875 100 L 314.195312 90 L 310 81.113281 L 309.375 80 L 302.59375 70 L 300 66.910156 L 293.089844 60 L 290 57.40625 L 280 50.625 L 278.886719 50 L 270 45.804688 L 260 42.578125 L 250 40.753906 L 240 40.234375 L 230 41 L 220 43.09375 L 210 46.644531 L 203.214844 50 L 200 51.898438 L 190 59.347656 L 189.269531 60 L 180.066406 70 L 180 70.085938 L 173.636719 80 L 170 87.9375 L 169.238281 90 "/>
<path style="fill:none;stroke-width:1;stroke-linecap:butt;stroke-linejoin:miter;stroke:rgb(97.291788%,69.383556%,49.091463%);stroke-opacity:0.07;stroke-miterlimit:10;" d="M 168.34375 100 L 167.03125 110 L 167.175781 120 L 168.765625 130 L 170 134.621094 L 171.855469 140 L 176.574219 150 L 180 155.589844 L 183.148438 160 L 190 167.957031 L 192.042969 170 L 200 176.851562 L 204.410156 180 L 210 183.425781 L 220 188.144531 L 225.378906 190 L 230 191.234375 L 240 192.824219 L 250 192.96875 L 260 191.65625 L 266.46875 190 L 270 188.808594 L 280 184.226562 L 286.703125 180 L 290 177.511719 L 298.046875 170 L 300 167.792969 L 305.78125 160 L 310 152.554688 L 311.203125 150 L 314.847656 140 L 316.992188 130 L 317.769531 120 L 317.230469 110 L 315.351562 100 L 312.03125 90 L 310 85.472656 L 307.050781 80 L 300 70 L 290 60 L 280 52.949219 L 274.527344 50 L 270 47.96875 L 260 44.648438 L 250 42.769531 L 240 42.230469 L 230 43.007812 L 220 45.152344 L 210 48.796875 L 207.445312 50 L 200 54.21875 L 192.207031 60 L 190 61.953125 L 182.488281 70 L 180 73.296875 L 175.773438 80 L 171.191406 90 L 170 93.53125 L 168.34375 100 "/>
<path style="fill:none;stroke-width:1;stroke-linecap:butt;stroke-linejoin:miter;stroke:rgb(98.186116%,73.938107%,55.245442%);stroke-opacity:0.07;stroke-miterlimit:10;" d="M 168.699219 110 L 168.785156 120 L 170 128.445312 L 170.339844 130 L 173.425781 140 L 178.175781 150 L 180 153.066406 L 184.847656 160 L 190 166.03125 L 193.96875 170 L 200 175.152344 L 206.933594 180 L 210 181.824219 L 220 186.574219 L 230 189.660156 L 231.554688 190 L 240 191.214844 L 250 191.300781 L 259.546875 190 L 260 189.902344 L 270 186.929688 L 280 182.160156 L 283.492188 180 L 290 175.144531 L 295.507812 170 L 300 164.871094 L 303.550781 160 L 309.136719 150 L 310 148.046875 L 312.878906 140 L 315.074219 130 L 315.867188 120 L 315.308594 110 L 313.375 100 L 310 90.105469 L 309.957031 90 L 304.8125 80 L 300 73.058594 L 297.484375 70 L 290 62.515625 L 286.941406 60 L 280 55.1875 L 270 50.042969 L 269.894531 50 L 260 46.625 L 250 44.691406 L 240 44.132812 L 230 44.925781 L 220 47.121094 L 211.953125 50 L 210 50.863281 L 200 56.449219 L 195.128906 60 L 190 64.492188 L 184.855469 70 L 180 76.507812 L 177.839844 80 L 173.070312 90 L 170.097656 100 L 170 100.453125 L 168.699219 110 "/>
<path style="fill:none;stroke-width:1;stroke-linecap:butt;stroke-linejoin:miter;stroke:rgb(99.06827%,78.502696%,61.412272%);stroke-opacity:0.07;stroke-miterlimit:10;" d="M 179.839844 80 L 174.882812 90 L 171.785156 100 L 170.304688 110 L 170.335938 120 L 171.859375 130 L 174.945312 140 L 179.734375 150 L 180 150.460938 L 186.515625 160 L 190 164.113281 L 195.886719 170 L 200 173.484375 L 209.539062 180 L 210 180.265625 L 220 185.054688 L 230 188.140625 L 240 189.664062 L 250 189.695312 L 260 188.214844 L 270 185.117188 L 280 180.160156 L 280.261719 180 L 290 172.835938 L 293.03125 170 L 300 161.949219 L 301.394531 160 L 307.152344 150 L 310 143.054688 L 310.992188 140 L 313.238281 130 L 314.046875 120 L 313.46875 110 L 311.484375 100 L 310 95.207031 L 307.964844 90 L 302.652344 80 L 300 76.101562 L 295.03125 70 L 290 64.96875 L 283.898438 60 L 280 57.347656 L 270 52.035156 L 264.792969 50 L 260 48.515625 L 250 46.53125 L 240 45.953125 L 230 46.761719 L 220 49.007812 L 216.945312 50 L 210 52.847656 L 200 58.605469 L 198.050781 60 L 190 66.96875 L 187.164062 70 L 180 79.738281 L 179.839844 80 "/>
<path style="fill:none;stroke-width:1;stroke-linecap:butt;stroke-linejoin:miter;stroke:rgb(99.92197%,83.100723%,67.64127%);stroke-opacity:0.07;stroke-miterlimit:10;" d="M 176.636719 90 L 173.414062 100 L 171.851562 110 L 171.832031 120 L 173.332031 130 L 176.417969 140 L 180 147.75 L 181.253906 150 L 188.152344 160 L 190 162.199219 L 197.800781 170 L 200 171.847656 L 210 178.746094 L 212.25 180 L 220 183.582031 L 230 186.667969 L 240 188.167969 L 250 188.148438 L 260 186.585938 L 270 183.363281 L 276.976562 180 L 280 178.214844 L 290 170.566406 L 290.605469 170 L 299.308594 160 L 300 159.011719 L 305.246094 150 L 309.183594 140 L 310 137.136719 L 311.480469 130 L 312.300781 120 L 311.710938 110 L 310 101.226562 L 309.667969 100 L 306.046875 90 L 300.566406 80 L 300 79.152344 L 292.636719 70 L 290 67.363281 L 280.847656 60 L 280 59.433594 L 270 53.953125 L 260 50.332031 L 258.773438 50 L 250 48.289062 L 240 47.699219 L 230 48.519531 L 222.863281 50 L 220 50.816406 L 210 54.753906 L 200.988281 60 L 200 60.691406 L 190 69.394531 L 189.433594 70 L 181.785156 80 L 180 83.023438 L 176.636719 90 "/>
<path style="fill:none;stroke-width:1;stroke-linecap:butt;stroke-linejoin:miter;stroke:rgb(99.92197%,83.100723%,67.64127%);stroke-opacity:1;stroke-miterlimit:10;" d="M 0 0 L 173.15625 62.792969 L 236.476562 82.296875 L 245.015625 86.105469 L 252.964844 91.054688 L 258.84375 96.132812 L 263.808594 102.019531 L 268.363281 109.933594 L 271.308594 118.453125 L 272.757812 127.257812 L 272.910156 137.597656 L 264.707031 199.285156 L 250.257812 358.652344 "/>
<path style="fill:none;stroke-width:1;stroke-linecap:butt;stroke-linejoin:miter;stroke:rgb(98.892551%,77.588186%,60.176482%);stroke-opacity:1;stroke-miterlimit:10;" d="M 0 0 L 174.804688 66.886719 L 197.277344 74.699219 L 236.273438 86.742188 L 244.757812 90.839844 L 251.261719 95.265625 L 256.910156 100.6875 L 261.398438 106.988281 L 264.546875 113.929688 L 266.515625 122.703125 L 266.714844 131.566406 L 265.203125 141.714844 L 248.328125 195.191406 L 203.761719 358.605469 "/>
<path style="fill:none;stroke-width:1;stroke-linecap:butt;stroke-linejoin:miter;stroke:rgb(97.829589%,72.116249%,52.78461%);stroke-opacity:1;stroke-miterlimit:10;" d="M 0 0 L 176.339844 71.070312 L 198.566406 79.226562 L 235.890625 91.390625 L 242.957031 94.984375 L 249.414062 99.652344 L 254.785156 105.457031 L 258.019531 110.78125 L 260.566406 117.972656 L 261.492188 126.839844 L 260.5 135.535156 L 258.132812 143.898438 L 239.007812 188.414062 L 206.964844 273.265625 L 172.839844 359.414062 "/>
<path style="fill:none;stroke-width:1;stroke-linecap:butt;stroke-linejoin:miter;stroke:rgb(96.744359%,66.65005%,45.395296%);stroke-opacity:1;stroke-miterlimit:10;" d="M 0 0 L 177.757812 75.351562 L 199.695312 83.902344 L 233.839844 95.699219 L 240.960938 99.390625 L 246.191406 103.234375 L 250.625 107.933594 L 253.921875 113.335938 L 255.9375 119.125 L 256.789062 126.464844 L 256.164062 133.636719 L 254.078125 141.9375 L 238.261719 182.828125 L 209.300781 269.082031 L 177.257812 359.265625 "/>
<path style="fill:none;stroke-width:1;stroke-linecap:butt;stroke-linejoin:miter;stroke:rgb(95.60773%,61.161807%,38.072193%);stroke-opacity:1;stroke-miterlimit:10;" d="M 0 0 L 180.410156 80.324219 L 231.503906 100.390625 L 241.457031 106.09375 L 248.320312 113.25 L 250.613281 117.402344 L 252.464844 123.09375 L 253.304688 130.148438 L 253.09375 137.128906 L 247.226562 180.597656 L 229.617188 358.972656 "/>
<path style="fill:none;stroke-width:1;stroke-linecap:butt;stroke-linejoin:miter;stroke:rgb(94.446585%,55.553633%,31.262906%);stroke-opacity:1;stroke-miterlimit:10;" d="M 0 0 L 185.546875 86.699219 L 228.847656 105.597656 L 237.648438 110.421875 L 244.238281 115.960938 L 249.53125 123.410156 L 253.449219 132.1875 L 268.308594 175.28125 L 336.671875 358.875 "/>
<path style="fill:none;stroke-width:1;stroke-linecap:butt;stroke-linejoin:miter;stroke:rgb(93.181788%,49.796799%,25.461751%);stroke-opacity:1;stroke-miterlimit:10;" d="M 0 0 L 153.28125 74.941406 L 236.582031 116.851562 L 253.414062 127.085938 L 359.734375 197.398438 "/>
<path style="fill:none;stroke-width:1;stroke-linecap:butt;stroke-linejoin:miter;stroke:rgb(91.573871%,44.005264%,21.532473%);stroke-opacity:1;stroke-miterlimit:10;" d="M 0 0 L 157.261719 80.414062 L 191.070312 98.492188 L 224.484375 117.847656 L 235.488281 122.664062 L 243.640625 124.351562 L 253.515625 124.503906 L 298.316406 120.011719 L 358.957031 115.617188 "/>
<path style="fill:none;stroke-width:1;stroke-linecap:butt;stroke-linejoin:miter;stroke:rgb(89.30587%,38.482411%,20.035048%);stroke-opacity:1;stroke-miterlimit:10;" d="M 0 0 L 164.976562 88.25 L 190.390625 102.976562 L 221.804688 123.261719 L 229.328125 126.699219 L 235.902344 128.300781 L 240.851562 128.507812 L 246.960938 127.519531 L 257.289062 122.886719 L 297.546875 93.609375 L 359.605469 52.882812 "/>
<path style="fill:none;stroke-width:1;stroke-linecap:butt;stroke-linejoin:miter;stroke:rgb(86.348451%,33.408523%,20.263199%);stroke-opacity:1;stroke-miterlimit:10;" d="M 0 0 L 162.089844 90.449219 L 186 105.070312 L 219.386719 128.082031 L 228.292969 131.992188 L 237.941406 133.480469 L 244.230469 132.714844 L 251.28125 129.984375 L 257.246094 125.871094 L 262.316406 120.882812 L 294.839844 77.039062 L 358.96875 0.625 "/>
<path style="fill:none;stroke-width:1;stroke-linecap:butt;stroke-linejoin:miter;stroke:rgb(82.915955%,28.696963%,21.210766%);stroke-opacity:1;stroke-miterlimit:10;" d="M 0 0 L 159.191406 92.558594 L 182.863281 107.761719 L 215.792969 131.605469 L 225.886719 136.332031 L 236.863281 138.285156 L 244.640625 137.449219 L 251.78125 134.824219 L 259.109375 129.839844 L 265.089844 123.523438 L 270.820312 115.179688 L 284.765625 90.273438 L 295.476562 72.949219 L 344.695312 0.683594 "/>
<path style="fill:none;stroke-width:1;stroke-linecap:butt;stroke-linejoin:miter;stroke:rgb(78.893315%,24.625213%,22.712322%);stroke-opacity:1;stroke-miterlimit:10;" d="M 0 0 L 156.273438 94.582031 L 178.539062 109.433594 L 213.691406 135.539062 L 225.121094 140.839844 L 237.492188 142.910156 L 245.191406 142.152344 L 253.800781 139.222656 L 261.367188 134.492188 L 268.769531 127.386719 L 275.78125 118.015625 L 290.855469 93.691406 L 303.113281 75.664062 L 358.921875 0.855469 "/>
<path style="fill:none;stroke-width:1;stroke-linecap:butt;stroke-linejoin:miter;stroke:rgb(74.199114%,21.534541%,24.446704%);stroke-opacity:1;stroke-miterlimit:10;" d="M 0 0 L 152.089844 95.6875 L 174.226562 110.921875 L 210.304688 138.382812 L 221.433594 144.066406 L 233.511719 147.136719 L 242.765625 147.242188 L 251.699219 145.414062 L 261.269531 141.140625 L 269.695312 135.117188 L 279.097656 125.761719 L 311.738281 87.519531 L 359.636719 37.957031 "/>
<path style="fill:none;stroke-width:1;stroke-linecap:butt;stroke-linejoin:miter;stroke:rgb(68.959588%,19.439719%,25.962097%);stroke-opacity:1;stroke-miterlimit:10;" d="M 0 0 L 147.914062 96.664062 L 171.113281 113.144531 L 206.957031 141.011719 L 217.832031 147.019531 L 229.609375 150.886719 L 238.777344 151.976562 L 249.390625 151.152344 L 259.5 148.25 L 268.871094 143.683594 L 281.058594 135.238281 L 318.761719 104.433594 L 359.585938 74.574219 "/>
<path style="fill:none;stroke-width:1;stroke-linecap:butt;stroke-linejoin:miter;stroke:rgb(63.211272%,18.38771%,26.820486%);stroke-opacity:1;stroke-miterlimit:10;" d="M 0 0 L 144.980469 98.386719 L 166.800781 114.34375 L 203.617188 143.472656 L 214.257812 149.773438 L 225.746094 154.300781 L 234.757812 156.199219 L 245.394531 156.644531 L 255.855469 155.277344 L 265.917969 152.378906 L 278.222656 147.054688 L 318.339844 125.574219 L 359.789062 105.6875 "/>
<path style="fill:none;stroke-width:1;stroke-linecap:butt;stroke-linejoin:miter;stroke:rgb(57.139199%,18.036638%,26.640429%);stroke-opacity:1;stroke-miterlimit:10;" d="M 0 0 L 140.8125 99.136719 L 163.664062 116.335938 L 200.257812 145.808594 L 210.6875 152.367188 L 221.890625 157.464844 L 230.710938 160.046875 L 241.242188 161.585938 L 251.808594 161.585938 L 262.226562 160.265625 L 275.324219 157.15625 L 317.320312 144.097656 L 358.675781 132.894531 "/>
<path style="fill:none;stroke-width:1;stroke-linecap:butt;stroke-linejoin:miter;stroke:rgb(51.092818%,17.718877%,25.614408%);stroke-opacity:1;stroke-miterlimit:10;" d="M 0 0 L 137.863281 100.679688 L 196.863281 148.046875 L 207.097656 154.847656 L 218.027344 160.433594 L 226.632812 163.605469 L 236.976562 166.09375 L 256.503906 167.460938 L 269.976562 166.558594 L 315.128906 160.871094 L 359.226562 156.703125 "/>
<path style="fill:none;stroke-width:1;stroke-linecap:butt;stroke-linejoin:miter;stroke:rgb(45.218373%,17.201954%,24.036223%);stroke-opacity:1;stroke-miterlimit:10;" d="M 0 0 L 133.710938 101.21875 L 193.433594 150.203125 L 203.476562 157.226562 L 214.140625 163.253906 L 232.628906 170.25 L 251.917969 173.761719 L 359.648438 178.867188 "/>
<path style="fill:none;stroke-width:1;stroke-linecap:butt;stroke-linejoin:miter;stroke:rgb(39.57654%,16.458822%,22.116067%);stroke-opacity:1;stroke-miterlimit:10;" d="M 0 0 L 129.578125 101.640625 L 189.953125 152.289062 L 210.222656 165.949219 L 226.792969 173.59375 L 245.621094 179.167969 L 359.210938 199.765625 "/>
<path style="fill:none;stroke-width:1;stroke-linecap:butt;stroke-linejoin:miter;stroke:rgb(34.222142%,15.524399%,20.010136%);stroke-opacity:1;stroke-miterlimit:10;" d="M 0 0 L 125.464844 101.953125 L 185.246094 153.347656 L 206.273438 168.53125 L 222.375 177.101562 L 240.683594 184.25 L 359.980469 220.066406 "/>
<path style="fill:none;stroke-width:1;stroke-linecap:butt;stroke-linejoin:miter;stroke:rgb(29.202272%,14.486161%,17.852793%);stroke-opacity:1;stroke-miterlimit:10;" d="M 0 0 L 122.53125 103.136719 L 181.695312 155.296875 L 202.292969 171.007812 L 217.925781 180.390625 L 235.667969 188.890625 L 359.464844 239.304688 "/>
<path style="fill:none;stroke-width:1;stroke-linecap:butt;stroke-linejoin:miter;stroke:rgb(24.590831%,13.442716%,15.833568%);stroke-opacity:1;stroke-miterlimit:10;" d="M 0 0 L 118.453125 103.246094 L 178.097656 157.183594 L 199.515625 174.277344 L 213.460938 183.484375 L 230.621094 193.132812 L 359.445312 258.121094 "/>
<path style="fill:none;stroke-width:1;stroke-linecap:butt;stroke-linejoin:miter;stroke:rgb(20.478628%,12.520383%,14.097037%);stroke-opacity:1;stroke-miterlimit:10;" d="M 0 0 L 114.402344 103.246094 L 173.328125 157.996094 L 195.445312 176.609375 L 208.984375 186.394531 L 225.574219 197.023438 L 358.796875 276.074219 "/>
<path style="fill:none;stroke-width:1;stroke-linecap:butt;stroke-linejoin:miter;stroke:rgb(16.966796%,11.861239%,12.767205%);stroke-opacity:1;stroke-miterlimit:10;" d="M 0 0 L 109.285156 102.101562 L 169.671875 159.75 L 191.351562 178.839844 L 220.542969 200.597656 L 358.972656 294.105469 "/>
<path style="fill:none;stroke-width:1;stroke-linecap:butt;stroke-linejoin:miter;stroke:rgb(14.142449%,11.60687%,11.96787%);stroke-opacity:1;stroke-miterlimit:10;" d="M 0 0 L 163.789062 159.328125 L 187.238281 180.980469 L 216.746094 204.816406 L 359.957031 312.523438 "/>
<path style="fill:none;stroke-width:1;stroke-linecap:butt;stroke-linejoin:miter;stroke:rgb(12.206286%,11.813064%,11.825278%);stroke-opacity:1;stroke-miterlimit:10;" d="M 0 0 L 157.945312 158.777344 L 183.109375 183.023438 L 211.734375 207.929688 L 359.347656 329.664062 "/>
<path style="fill:none;stroke-width:1;stroke-linecap:butt;stroke-linejoin:miter;stroke:rgb(12.287371%,12.045563%,13.373855%);stroke-opacity:1;stroke-miterlimit:10;" d="M 0 0 L 151.085938 157.007812 L 178.964844 184.972656 L 207.875 211.84375 L 359.53125 347.503906 "/>
<path style="fill:none;stroke-width:1;stroke-linecap:butt;stroke-linejoin:miter;stroke:rgb(13.100661%,12.885423%,16.002482%);stroke-opacity:1;stroke-miterlimit:10;" d="M 0 0 L 171.617188 183.585938 L 205.058594 216.703125 L 353.800781 359.960938 "/>
<path style="fill:none;stroke-width:1;stroke-linecap:butt;stroke-linejoin:miter;stroke:rgb(14.512552%,14.265311%,19.565528%);stroke-opacity:1;stroke-miterlimit:10;" d="M 0 0 L 158.167969 175.324219 L 335.242188 358.949219 "/>
<path style="fill:none;stroke-width:1;stroke-linecap:butt;stroke-linejoin:miter;stroke:rgb(16.408141%,16.05399%,23.98201%);stroke-opacity:1;stroke-miterlimit:10;" d="M 0 0 L 140.035156 160.964844 L 319.332031 359.132812 "/>
<path style="fill:none;stroke-width:1;stroke-linecap:butt;stroke-linejoin:miter;stroke:rgb(18.66769%,18.11332%,29.166583%);stroke-opacity:1;stroke-miterlimit:10;" d="M 0 0 L 121.515625 144.832031 L 177.199219 209.09375 L 304.769531 359.730469 "/>
<path style="fill:none;stroke-width:1;stroke-linecap:butt;stroke-linejoin:miter;stroke:rgb(21.123371%,20.347984%,35.025403%);stroke-opacity:1;stroke-miterlimit:10;" d="M 0 0 L 116.128906 143.371094 L 172.644531 210.910156 L 290.398438 359.769531 "/>
<path style="fill:none;stroke-width:1;stroke-linecap:butt;stroke-linejoin:miter;stroke:rgb(23.590071%,22.692661%,41.531544%);stroke-opacity:1;stroke-miterlimit:10;" d="M 0 0 L 111.761719 142.964844 L 167.175781 211.40625 L 276.148438 359.332031 "/>
<path style="fill:none;stroke-width:1;stroke-linecap:butt;stroke-linejoin:miter;stroke:rgb(25.897101%,25.117621%,48.651042%);stroke-opacity:1;stroke-miterlimit:10;" d="M 0 0 L 108.359375 143.664062 L 163.574219 214.199219 L 262.8125 359.722656 "/>
<path style="fill:none;stroke-width:1;stroke-linecap:butt;stroke-linejoin:miter;stroke:rgb(27.786032%,27.674966%,56.282375%);stroke-opacity:1;stroke-miterlimit:10;" d="M 0 0 L 104.960938 144.292969 L 159.066406 215.671875 L 249.414062 359.753906 "/>
<path style="fill:none;stroke-width:1;stroke-linecap:butt;stroke-linejoin:miter;stroke:rgb(28.809408%,30.559595%,64.079708%);stroke-opacity:1;stroke-miterlimit:10;" d="M 0 0 L 101.566406 144.847656 L 155.40625 218.3125 L 166.441406 236.480469 L 235.96875 359.402344 "/>
<path style="fill:none;stroke-width:1;stroke-linecap:butt;stroke-linejoin:miter;stroke:rgb(28.397964%,34.127167%,71.022029%);stroke-opacity:1;stroke-miterlimit:10;" d="M 0 0 L 99.042969 146.582031 L 151.699219 220.890625 L 162.074219 239.4375 L 223.261719 359.953125 "/>
<path style="fill:none;stroke-width:1;stroke-linecap:butt;stroke-linejoin:miter;stroke:rgb(26.583627%,38.389723%,76.253949%);stroke-opacity:1;stroke-miterlimit:10;" d="M 0 0 L 97.320312 149.542969 L 147.171875 222.089844 L 157.625 242.320312 L 210.054688 358.621094 "/>
<path style="fill:none;stroke-width:1;stroke-linecap:butt;stroke-linejoin:miter;stroke:rgb(23.841877%,43.002388%,79.929067%);stroke-opacity:1;stroke-miterlimit:10;" d="M 0 0 L 94.710938 151.207031 L 135.359375 211.511719 L 143.386719 224.527344 L 153.113281 245.113281 L 198.601562 359.425781 "/>
<path style="fill:none;stroke-width:1;stroke-linecap:butt;stroke-linejoin:miter;stroke:rgb(21.59887%,47.735327%,81.474015%);stroke-opacity:1;stroke-miterlimit:10;" d="M 0 0 L 92.859375 154.117188 L 132.539062 215.023438 L 139.527344 226.917969 L 148.054688 246.390625 L 188.078125 359.523438 "/>
<path style="fill:none;stroke-width:1;stroke-linecap:butt;stroke-linejoin:miter;stroke:rgb(21.977058%,52.241482%,81.457651%);stroke-opacity:1;stroke-miterlimit:10;" d="M 0 0 L 90.160156 155.710938 L 108.210938 185.457031 L 128.769531 217.234375 L 135.585938 229.273438 L 143.113281 247.527344 L 179.230469 358.789062 "/>
<path style="fill:none;stroke-width:1;stroke-linecap:butt;stroke-linejoin:miter;stroke:rgb(24.94061%,56.438228%,80.952822%);stroke-opacity:1;stroke-miterlimit:10;" d="M 0 0 L 87.433594 157.253906 L 131.546875 231.597656 L 138.796875 249.949219 L 173.316406 358.566406 "/>
<path style="fill:none;stroke-width:1;stroke-linecap:butt;stroke-linejoin:miter;stroke:rgb(28.931956%,60.454712%,80.606648%);stroke-opacity:1;stroke-miterlimit:10;" d="M 0 0 L 84.675781 158.753906 L 127.40625 233.894531 L 134.214844 250.789062 L 170.929688 358.707031 "/>
<path style="fill:none;stroke-width:1;stroke-linecap:butt;stroke-linejoin:miter;stroke:rgb(33.656543%,64.331466%,80.440839%);stroke-opacity:1;stroke-miterlimit:10;" d="M 0 0 L 81.890625 160.207031 L 123.164062 236.160156 L 129.261719 250.089844 L 172.132812 358.972656 "/>
<path style="fill:none;stroke-width:1;stroke-linecap:butt;stroke-linejoin:miter;stroke:rgb(39.085973%,68.068189%,80.437923%);stroke-opacity:1;stroke-miterlimit:10;" d="M 0 0 L 79.078125 161.609375 L 120.886719 242.527344 L 176.003906 359.292969 "/>
<path style="fill:none;stroke-width:1;stroke-linecap:butt;stroke-linejoin:miter;stroke:rgb(45.159071%,71.659294%,80.634873%);stroke-opacity:1;stroke-miterlimit:10;" d="M 0 0 L 73.636719 157.488281 L 109.503906 230.828125 L 123.738281 257.851562 L 179.988281 358.847656 "/>
<path style="fill:none;stroke-width:1;stroke-linecap:butt;stroke-linejoin:miter;stroke:rgb(51.259583%,75.227504%,81.141895%);stroke-opacity:1;stroke-miterlimit:10;" d="M 0 0 L 70.871094 158.753906 L 108.5625 239.855469 L 119.84375 259.640625 L 181.996094 358.871094 "/>
<path style="fill:none;stroke-width:1;stroke-linecap:butt;stroke-linejoin:miter;stroke:rgb(57.147601%,78.860981%,81.966489%);stroke-opacity:1;stroke-miterlimit:10;" d="M 0 0 L 66.285156 155.789062 L 104.113281 241.847656 L 115.542969 261.554688 L 180.09375 359.195312 "/>
<path style="fill:none;stroke-width:1;stroke-linecap:butt;stroke-linejoin:miter;stroke:rgb(62.894293%,82.581734%,83.066093%);stroke-opacity:1;stroke-miterlimit:10;" d="M 0 0 L 62.402344 154.113281 L 99.683594 243.742188 L 110.898438 263.574219 L 173.472656 358.832031 "/>
<path style="fill:none;stroke-width:1;stroke-linecap:butt;stroke-linejoin:miter;stroke:rgb(68.520484%,86.420658%,84.371946%);stroke-opacity:1;stroke-miterlimit:10;" d="M 0 0 L 95.273438 245.53125 L 106.800781 266.90625 L 164.652344 359.761719 "/>
<path style="fill:none;stroke-width:1;stroke-linecap:butt;stroke-linejoin:miter;stroke:rgb(73.936227%,90.443867%,85.757238%);stroke-opacity:1;stroke-miterlimit:10;" d="M 0 0 L 90.269531 245.8125 L 101.746094 268.9375 L 153.847656 359.894531 "/>
</g>
</svg>
