<?xml version="1.0" encoding="UTF-8"?>
<svg xmlns="http://www.w3.org/2000/svg" xmlns:xlink="http://www.w3.org/1999/xlink" width="240pt" height="240pt" viewBox="0 0 240 240" version="1.1">
<g id="id1">
<path style=" stroke:none;fill-rule:nonzero;fill:rgb(89.360744%,66.400409%,37.504946%);fill-opacity:1;" d="M 30.398438 30.398438 L 47.464844 30.398438 L 47.464844 47.464844 L 30.398438 47.464844 Z M 30.398438 30.398438 "/>
<path style=" stroke:none;fill-rule:nonzero;fill:rgb(48.522448%,58.234954%,74.570883%);fill-opacity:1;" d="M 47.464844 30.398438 L 64.535156 30.398438 L 64.535156 47.464844 L 47.464844 47.464844 Z M 47.464844 30.398438 "/>
<path style=" stroke:none;fill-rule:nonzero;fill:rgb(89.360744%,66.400409%,37.504946%);fill-opacity:1;" d="M 64.535156 30.398438 L 81.601562 30.398438 L 81.601562 47.464844 L 64.535156 47.464844 Z M 64.535156 30.398438 "/>
<path style=" stroke:none;fill-rule:nonzero;fill:rgb(89.360744%,66.400409%,37.504946%);fill-opacity:1;" d="M 30.398438 47.464844 L 47.464844 47.464844 L 47.464844 64.535156 L 30.398438 64.535156 Z M 30.398438 47.464844 "/>
<path style=" stroke:none;fill-rule:nonzero;fill:rgb(89.360744%,66.400409%,37.504946%);fill-opacity:1;" d="M 47.464844 47.464844 L 64.535156 47.464844 L 64.535156 64.535156 L 47.464844 64.535156 Z M 47.464844 47.464844 "/>
<path style=" stroke:none;fill-rule:nonzero;fill:rgb(48.522448%,58.234954%,74.570883%);fill-opacity:1;" d="M 64.535156 47.464844 L 81.601562 47.464844 L 81.601562 64.535156 L 64.535156 64.535156 Z M 64.535156 47.464844 "/>
<path style=" stroke:none;fill-rule:nonzero;fill:rgb(89.360744%,66.400409%,37.504946%);fill-opacity:1;" d="M 30.398438 64.535156 L 47.464844 64.535156 L 47.464844 81.601562 L 30.398438 81.601562 Z M 30.398438 64.535156 "/>
<path style=" stroke:none;fill-rule:nonzero;fill:rgb(48.522448%,58.234954%,74.570883%);fill-opacity:1;" d="M 47.464844 64.535156 L 64.535156 64.535156 L 64.535156 81.601562 L 47.464844 81.601562 Z M 47.464844 64.535156 "/>
<path style=" stroke:none;fill-rule:nonzero;fill:rgb(48.522448%,58.234954%,74.570883%);fill-opacity:1;" d="M 64.535156 64.535156 L 81.601562 64.535156 L 81.601562 81.601562 L 64.535156 81.601562 Z M 64.535156 64.535156 "/>
<path style="fill:none;stroke-width:1;stroke-linecap:butt;stroke-linejoin:miter;stroke:rgb(92.2526%,38.5626%,20.9179%);stroke-opacity:1;stroke-miterlimit:10;" d="M -0.0015625 -0.0015625 L 17.064844 -0.0015625 L 17.064844 17.064844 L -0.0015625 17.064844 Z M -0.0015625 -0.0015625 " transform="matrix(1,0,0,1,30.4,30.4)"/>
<path style=" stroke:none;fill-rule:nonzero;fill:rgb(89.360744%,66.400409%,37.504946%);fill-opacity:1;" d="M 94.398438 30.398438 L 111.464844 30.398438 L 111.464844 47.464844 L 94.398438 47.464844 Z M 94.398438 30.398438 "/>
<path style=" stroke:none;fill-rule:nonzero;fill:rgb(48.522448%,58.234954%,74.570883%);fill-opacity:1;" d="M 111.464844 30.398438 L 128.535156 30.398438 L 128.535156 47.464844 L 111.464844 47.464844 Z M 111.464844 30.398438 "/>
<path style=" stroke:none;fill-rule:nonzero;fill:rgb(89.360744%,66.400409%,37.504946%);fill-opacity:1;" d="M 128.535156 30.398438 L 145.601562 30.398438 L 145.601562 47.464844 L 128.535156 47.464844 Z M 128.535156 30.398438 "/>
<path style=" stroke:none;fill-rule:nonzero;fill:rgb(89.360744%,66.400409%,37.504946%);fill-opacity:1;" d="M 94.398438 47.464844 L 111.464844 47.464844 L 111.464844 64.535156 L 94.398438 64.535156 Z M 94.398438 47.464844 "/>
<path style=" stroke:none;fill-rule:nonzero;fill:rgb(89.360744%,66.400409%,37.504946%);fill-opacity:1;" d="M 111.464844 47.464844 L 128.535156 47.464844 L 128.535156 64.535156 L 111.464844 64.535156 Z M 111.464844 47.464844 "/>
<path style=" stroke:none;fill-rule:nonzero;fill:rgb(48.522448%,58.234954%,74.570883%);fill-opacity:1;" d="M 128.535156 47.464844 L 145.601562 47.464844 L 145.601562 64.535156 L 128.535156 64.535156 Z M 128.535156 47.464844 "/>
<path style=" stroke:none;fill-rule:nonzero;fill:rgb(89.360744%,66.400409%,37.504946%);fill-opacity:1;" d="M 94.398438 64.535156 L 111.464844 64.535156 L 111.464844 81.601562 L 94.398438 81.601562 Z M 94.398438 64.535156 "/>
<path style=" stroke:none;fill-rule:nonzero;fill:rgb(48.522448%,58.234954%,74.570883%);fill-opacity:1;" d="M 111.464844 64.535156 L 128.535156 64.535156 L 128.535156 81.601562 L 111.464844 81.601562 Z M 111.464844 64.535156 "/>
<path style=" stroke:none;fill-rule:nonzero;fill:rgb(48.522448%,58.234954%,74.570883%);fill-opacity:1;" d="M 128.535156 64.535156 L 145.601562 64.535156 L 145.601562 81.601562 L 128.535156 81.601562 Z M 128.535156 64.535156 "/>
<path style="fill:none;stroke-width:1;stroke-linecap:butt;stroke-linejoin:miter;stroke:rgb(92.2526%,38.5626%,20.9179%);stroke-opacity:1;stroke-miterlimit:10;" d="M -0.00182292 -0.0015625 L 17.06849 -0.0015625 L 17.06849 17.064844 L -0.00182292 17.064844 Z M -0.00182292 -0.0015625 " transform="matrix(1,0,0,1,111.466667,30.4)"/>
<path style=" stroke:none;fill-rule:nonzero;fill:rgb(89.360744%,66.400409%,37.504946%);fill-opacity:1;" d="M 158.398438 30.398438 L 175.464844 30.398438 L 175.464844 47.464844 L 158.398438 47.464844 Z M 158.398438 30.398438 "/>
<path style=" stroke:none;fill-rule:nonzero;fill:rgb(48.522448%,58.234954%,74.570883%);fill-opacity:1;" d="M 175.464844 30.398438 L 192.535156 30.398438 L 192.535156 47.464844 L 175.464844 47.464844 Z M 175.464844 30.398438 "/>
<path style=" stroke:none;fill-rule:nonzero;fill:rgb(89.360744%,66.400409%,37.504946%);fill-opacity:1;" d="M 192.535156 30.398438 L 209.601562 30.398438 L 209.601562 47.464844 L 192.535156 47.464844 Z M 192.535156 30.398438 "/>
<path style=" stroke:none;fill-rule:nonzero;fill:rgb(89.360744%,66.400409%,37.504946%);fill-opacity:1;" d="M 158.398438 47.464844 L 175.464844 47.464844 L 175.464844 64.535156 L 158.398438 64.535156 Z M 158.398438 47.464844 "/>
<path style=" stroke:none;fill-rule:nonzero;fill:rgb(89.360744%,66.400409%,37.504946%);fill-opacity:1;" d="M 175.464844 47.464844 L 192.535156 47.464844 L 192.535156 64.535156 L 175.464844 64.535156 Z M 175.464844 47.464844 "/>
<path style=" stroke:none;fill-rule:nonzero;fill:rgb(48.522448%,58.234954%,74.570883%);fill-opacity:1;" d="M 192.535156 47.464844 L 209.601562 47.464844 L 209.601562 64.535156 L 192.535156 64.535156 Z M 192.535156 47.464844 "/>
<path style=" stroke:none;fill-rule:nonzero;fill:rgb(89.360744%,66.400409%,37.504946%);fill-opacity:1;" d="M 158.398438 64.535156 L 175.464844 64.535156 L 175.464844 81.601562 L 158.398438 81.601562 Z M 158.398438 64.535156 "/>
<path style=" stroke:none;fill-rule:nonzero;fill:rgb(48.522448%,58.234954%,74.570883%);fill-opacity:1;" d="M 175.464844 64.535156 L 192.535156 64.535156 L 192.535156 81.601562 L 175.464844 81.601562 Z M 175.464844 64.535156 "/>
<path style=" stroke:none;fill-rule:nonzero;fill:rgb(48.522448%,58.234954%,74.570883%);fill-opacity:1;" d="M 192.535156 64.535156 L 209.601562 64.535156 L 209.601562 81.601562 L 192.535156 81.601562 Z M 192.535156 64.535156 "/>
<path style="fill:none;stroke-width:1;stroke-linecap:butt;stroke-linejoin:miter;stroke:rgb(92.2526%,38.5626%,20.9179%);stroke-opacity:1;stroke-miterlimit:10;" d="M 0.00182292 -0.0015625 L 17.068229 -0.0015625 L 17.068229 17.064844 L 0.00182292 17.064844 Z M 0.00182292 -0.0015625 " transform="matrix(1,0,0,1,192.533333,30.4)"/>
<path style=" stroke:none;fill-rule:nonzero;fill:rgb(89.360744%,66.400409%,37.504946%);fill-opacity:1;" d="M 30.398438 94.398438 L 47.464844 94.398438 L 47.464844 111.464844 L 30.398438 111.464844 Z M 30.398438 94.398438 "/>
<path style=" stroke:none;fill-rule:nonzero;fill:rgb(48.522448%,58.234954%,74.570883%);fill-opacity:1;" d="M 47.464844 94.398438 L 64.535156 94.398438 L 64.535156 111.464844 L 47.464844 111.464844 Z M 47.464844 94.398438 "/>
<path style=" stroke:none;fill-rule:nonzero;fill:rgb(89.360744%,66.400409%,37.504946%);fill-opacity:1;" d="M 64.535156 94.398438 L 81.601562 94.398438 L 81.601562 111.464844 L 64.535156 111.464844 Z M 64.535156 94.398438 "/>
<path style=" stroke:none;fill-rule:nonzero;fill:rgb(89.360744%,66.400409%,37.504946%);fill-opacity:1;" d="M 30.398438 111.464844 L 47.464844 111.464844 L 47.464844 128.535156 L 30.398438 128.535156 Z M 30.398438 111.464844 "/>
<path style=" stroke:none;fill-rule:nonzero;fill:rgb(89.360744%,66.400409%,37.504946%);fill-opacity:1;" d="M 47.464844 111.464844 L 64.535156 111.464844 L 64.535156 128.535156 L 47.464844 128.535156 Z M 47.464844 111.464844 "/>
<path style=" stroke:none;fill-rule:nonzero;fill:rgb(48.522448%,58.234954%,74.570883%);fill-opacity:1;" d="M 64.535156 111.464844 L 81.601562 111.464844 L 81.601562 128.535156 L 64.535156 128.535156 Z M 64.535156 111.464844 "/>
<path style=" stroke:none;fill-rule:nonzero;fill:rgb(89.360744%,66.400409%,37.504946%);fill-opacity:1;" d="M 30.398438 128.535156 L 47.464844 128.535156 L 47.464844 145.601562 L 30.398438 145.601562 Z M 30.398438 128.535156 "/>
<path style=" stroke:none;fill-rule:nonzero;fill:rgb(48.522448%,58.234954%,74.570883%);fill-opacity:1;" d="M 47.464844 128.535156 L 64.535156 128.535156 L 64.535156 145.601562 L 47.464844 145.601562 Z M 47.464844 128.535156 "/>
<path style=" stroke:none;fill-rule:nonzero;fill:rgb(48.522448%,58.234954%,74.570883%);fill-opacity:1;" d="M 64.535156 128.535156 L 81.601562 128.535156 L 81.601562 145.601562 L 64.535156 145.601562 Z M 64.535156 128.535156 "/>
<path style="fill:none;stroke-width:1;stroke-linecap:butt;stroke-linejoin:miter;stroke:rgb(92.2526%,38.5626%,20.9179%);stroke-opacity:1;stroke-miterlimit:10;" d="M -0.0015625 -0.00182292 L 17.064844 -0.00182292 L 17.064844 17.06849 L -0.0015625 17.06849 Z M -0.0015625 -0.00182292 " transform="matrix(1,0,0,1,30.4,111.466667)"/>
<path style=" stroke:none;fill-rule:nonzero;fill:rgb(89.360744%,66.400409%,37.504946%);fill-opacity:1;" d="M 94.398438 94.398438 L 111.464844 94.398438 L 111.464844 111.464844 L 94.398438 111.464844 Z M 94.398438 94.398438 "/>
<path style=" stroke:none;fill-rule:nonzero;fill:rgb(48.522448%,58.234954%,74.570883%);fill-opacity:1;" d="M 111.464844 94.398438 L 128.535156 94.398438 L 128.535156 111.464844 L 111.464844 111.464844 Z M 111.464844 94.398438 "/>
<path style=" stroke:none;fill-rule:nonzero;fill:rgb(89.360744%,66.400409%,37.504946%);fill-opacity:1;" d="M 128.535156 94.398438 L 145.601562 94.398438 L 145.601562 111.464844 L 128.535156 111.464844 Z M 128.535156 94.398438 "/>
<path style=" stroke:none;fill-rule:nonzero;fill:rgb(89.360744%,66.400409%,37.504946%);fill-opacity:1;" d="M 94.398438 111.464844 L 111.464844 111.464844 L 111.464844 128.535156 L 94.398438 128.535156 Z M 94.398438 111.464844 "/>
<path style=" stroke:none;fill-rule:nonzero;fill:rgb(89.360744%,66.400409%,37.504946%);fill-opacity:1;" d="M 111.464844 111.464844 L 128.535156 111.464844 L 128.535156 128.535156 L 111.464844 128.535156 Z M 111.464844 111.464844 "/>
<path style=" stroke:none;fill-rule:nonzero;fill:rgb(48.522448%,58.234954%,74.570883%);fill-opacity:1;" d="M 128.535156 111.464844 L 145.601562 111.464844 L 145.601562 128.535156 L 128.535156 128.535156 Z M 128.535156 111.464844 "/>
<path style=" stroke:none;fill-rule:nonzero;fill:rgb(89.360744%,66.400409%,37.504946%);fill-opacity:1;" d="M 94.398438 128.535156 L 111.464844 128.535156 L 111.464844 145.601562 L 94.398438 145.601562 Z M 94.398438 128.535156 "/>
<path style=" stroke:none;fill-rule:nonzero;fill:rgb(48.522448%,58.234954%,74.570883%);fill-opacity:1;" d="M 111.464844 128.535156 L 128.535156 128.535156 L 128.535156 145.601562 L 111.464844 145.601562 Z M 111.464844 128.535156 "/>
<path style=" stroke:none;fill-rule:nonzero;fill:rgb(48.522448%,58.234954%,74.570883%);fill-opacity:1;" d="M 128.535156 128.535156 L 145.601562 128.535156 L 145.601562 145.601562 L 128.535156 145.601562 Z M 128.535156 128.535156 "/>
<path style="fill:none;stroke-width:1;stroke-linecap:butt;stroke-linejoin:miter;stroke:rgb(92.2526%,38.5626%,20.9179%);stroke-opacity:1;stroke-miterlimit:10;" d="M -0.00182292 -0.00182292 L 17.06849 -0.00182292 L 17.06849 17.06849 L -0.00182292 17.06849 Z M -0.00182292 -0.00182292 " transform="matrix(1,0,0,1,111.466667,111.466667)"/>
<path style=" stroke:none;fill-rule:nonzero;fill:rgb(89.360744%,66.400409%,37.504946%);fill-opacity:1;" d="M 158.398438 94.398438 L 175.464844 94.398438 L 175.464844 111.464844 L 158.398438 111.464844 Z M 158.398438 94.398438 "/>
<path style=" stroke:none;fill-rule:nonzero;fill:rgb(48.522448%,58.234954%,74.570883%);fill-opacity:1;" d="M 175.464844 94.398438 L 192.535156 94.398438 L 192.535156 111.464844 L 175.464844 111.464844 Z M 175.464844 94.398438 "/>
<path style=" stroke:none;fill-rule:nonzero;fill:rgb(89.360744%,66.400409%,37.504946%);fill-opacity:1;" d="M 192.535156 94.398438 L 209.601562 94.398438 L 209.601562 111.464844 L 192.535156 111.464844 Z M 192.535156 94.398438 "/>
<path style=" stroke:none;fill-rule:nonzero;fill:rgb(89.360744%,66.400409%,37.504946%);fill-opacity:1;" d="M 158.398438 111.464844 L 175.464844 111.464844 L 175.464844 128.535156 L 158.398438 128.535156 Z M 158.398438 111.464844 "/>
<path style=" stroke:none;fill-rule:nonzero;fill:rgb(89.360744%,66.400409%,37.504946%);fill-opacity:1;" d="M 175.464844 111.464844 L 192.535156 111.464844 L 192.535156 128.535156 L 175.464844 128.535156 Z M 175.464844 111.464844 "/>
<path style=" stroke:none;fill-rule:nonzero;fill:rgb(48.522448%,58.234954%,74.570883%);fill-opacity:1;" d="M 192.535156 111.464844 L 209.601562 111.464844 L 209.601562 128.535156 L 192.535156 128.535156 Z M 192.535156 111.464844 "/>
<path style=" stroke:none;fill-rule:nonzero;fill:rgb(89.360744%,66.400409%,37.504946%);fill-opacity:1;" d="M 158.398438 128.535156 L 175.464844 128.535156 L 175.464844 145.601562 L 158.398438 145.601562 Z M 158.398438 128.535156 "/>
<path style=" stroke:none;fill-rule:nonzero;fill:rgb(48.522448%,58.234954%,74.570883%);fill-opacity:1;" d="M 175.464844 128.535156 L 192.535156 128.535156 L 192.535156 145.601562 L 175.464844 145.601562 Z M 175.464844 128.535156 "/>
<path style=" stroke:none;fill-rule:nonzero;fill:rgb(48.522448%,58.234954%,74.570883%);fill-opacity:1;" d="M 192.535156 128.535156 L 209.601562 128.535156 L 209.601562 145.601562 L 192.535156 145.601562 Z M 192.535156 128.535156 "/>
<path style="fill:none;stroke-width:1;stroke-linecap:butt;stroke-linejoin:miter;stroke:rgb(92.2526%,38.5626%,20.9179%);stroke-opacity:1;stroke-miterlimit:10;" d="M 0.00182292 -0.00182292 L 17.068229 -0.00182292 L 17.068229 17.06849 L 0.00182292 17.06849 Z M 0.00182292 -0.00182292 " transform="matrix(1,0,0,1,192.533333,111.466667)"/>
<path style=" stroke:none;fill-rule:nonzero;fill:rgb(89.360744%,66.400409%,37.504946%);fill-opacity:1;" d="M 30.398438 158.398438 L 47.464844 158.398438 L 47.464844 175.464844 L 30.398438 175.464844 Z M 30.398438 158.398438 "/>
<path style=" stroke:none;fill-rule:nonzero;fill:rgb(48.522448%,58.234954%,74.570883%);fill-opacity:1;" d="M 47.464844 158.398438 L 64.535156 158.398438 L 64.535156 175.464844 L 47.464844 175.464844 Z M 47.464844 158.398438 "/>
<path style=" stroke:none;fill-rule:nonzero;fill:rgb(89.360744%,66.400409%,37.504946%);fill-opacity:1;" d="M 64.535156 158.398438 L 81.601562 158.398438 L 81.601562 175.464844 L 64.535156 175.464844 Z M 64.535156 158.398438 "/>
<path style=" stroke:none;fill-rule:nonzero;fill:rgb(89.360744%,66.400409%,37.504946%);fill-opacity:1;" d="M 30.398438 175.464844 L 47.464844 175.464844 L 47.464844 192.535156 L 30.398438 192.535156 Z M 30.398438 175.464844 "/>
<path style=" stroke:none;fill-rule:nonzero;fill:rgb(89.360744%,66.400409%,37.504946%);fill-opacity:1;" d="M 47.464844 175.464844 L 64.535156 175.464844 L 64.535156 192.535156 L 47.464844 192.535156 Z M 47.464844 175.464844 "/>
<path style=" stroke:none;fill-rule:nonzero;fill:rgb(48.522448%,58.234954%,74.570883%);fill-opacity:1;" d="M 64.535156 175.464844 L 81.601562 175.464844 L 81.601562 192.535156 L 64.535156 192.535156 Z M 64.535156 175.464844 "/>
<path style=" stroke:none;fill-rule:nonzero;fill:rgb(89.360744%,66.400409%,37.504946%);fill-opacity:1;" d="M 30.398438 192.535156 L 47.464844 192.535156 L 47.464844 209.601562 L 30.398438 209.601562 Z M 30.398438 192.535156 "/>
<path style=" stroke:none;fill-rule:nonzero;fill:rgb(48.522448%,58.234954%,74.570883%);fill-opacity:1;" d="M 47.464844 192.535156 L 64.535156 192.535156 L 64.535156 209.601562 L 47.464844 209.601562 Z M 47.464844 192.535156 "/>
<path style=" stroke:none;fill-rule:nonzero;fill:rgb(48.522448%,58.234954%,74.570883%);fill-opacity:1;" d="M 64.535156 192.535156 L 81.601562 192.535156 L 81.601562 209.601562 L 64.535156 209.601562 Z M 64.535156 192.535156 "/>
<path style="fill:none;stroke-width:1;stroke-linecap:butt;stroke-linejoin:miter;stroke:rgb(92.2526%,38.5626%,20.9179%);stroke-opacity:1;stroke-miterlimit:10;" d="M -0.0015625 0.00182292 L 17.064844 0.00182292 L 17.064844 17.068229 L -0.0015625 17.068229 Z M -0.0015625 0.00182292 " transform="matrix(1,0,0,1,30.4,192.533333)"/>
<path style=" stroke:none;fill-rule:nonzero;fill:rgb(89.360744%,66.400409%,37.504946%);fill-opacity:1;" d="M 94.398438 158.398438 L 111.464844 158.398438 L 111.464844 175.464844 L 94.398438 175.464844 Z M 94.398438 158.398438 "/>
<path style=" stroke:none;fill-rule:nonzero;fill:rgb(48.522448%,58.234954%,74.570883%);fill-opacity:1;" d="M 111.464844 158.398438 L 128.535156 158.398438 L 128.535156 175.464844 L 111.464844 175.464844 Z M 111.464844 158.398438 "/>
<path style=" stroke:none;fill-rule:nonzero;fill:rgb(89.360744%,66.400409%,37.504946%);fill-opacity:1;" d="M 128.535156 158.398438 L 145.601562 158.398438 L 145.601562 175.464844 L 128.535156 175.464844 Z M 128.535156 158.398438 "/>
<path style=" stroke:none;fill-rule:nonzero;fill:rgb(89.360744%,66.400409%,37.504946%);fill-opacity:1;" d="M 94.398438 175.464844 L 111.464844 175.464844 L 111.464844 192.535156 L 94.398438 192.535156 Z M 94.398438 175.464844 "/>
<path style=" stroke:none;fill-rule:nonzero;fill:rgb(89.360744%,66.400409%,37.504946%);fill-opacity:1;" d="M 111.464844 175.464844 L 128.535156 175.464844 L 128.535156 192.535156 L 111.464844 192.535156 Z M 111.464844 175.464844 "/>
<path style=" stroke:none;fill-rule:nonzero;fill:rgb(48.522448%,58.234954%,74.570883%);fill-opacity:1;" d="M 128.535156 175.464844 L 145.601562 175.464844 L 145.601562 192.535156 L 128.535156 192.535156 Z M 128.535156 175.464844 "/>
<path style=" stroke:none;fill-rule:nonzero;fill:rgb(89.360744%,66.400409%,37.504946%);fill-opacity:1;" d="M 94.398438 192.535156 L 111.464844 192.535156 L 111.464844 209.601562 L 94.398438 209.601562 Z M 94.398438 192.535156 "/>
<path style=" stroke:none;fill-rule:nonzero;fill:rgb(48.522448%,58.234954%,74.570883%);fill-opacity:1;" d="M 111.464844 192.535156 L 128.535156 192.535156 L 128.535156 209.601562 L 111.464844 209.601562 Z M 111.464844 192.535156 "/>
<path style=" stroke:none;fill-rule:nonzero;fill:rgb(48.522448%,58.234954%,74.570883%);fill-opacity:1;" d="M 128.535156 192.535156 L 145.601562 192.535156 L 145.601562 209.601562 L 128.535156 209.601562 Z M 128.535156 192.535156 "/>
<path style="fill:none;stroke-width:1;stroke-linecap:butt;stroke-linejoin:miter;stroke:rgb(92.2526%,38.5626%,20.9179%);stroke-opacity:1;stroke-miterlimit:10;" d="M -0.00182292 0.00182292 L 17.06849 0.00182292 L 17.06849 17.068229 L -0.00182292 17.068229 Z M -0.00182292 0.00182292 " transform="matrix(1,0,0,1,111.466667,192.533333)"/>
<path style=" stroke:none;fill-rule:nonzero;fill:rgb(89.360744%,66.400409%,37.504946%);fill-opacity:1;" d="M 158.398438 158.398438 L 175.464844 158.398438 L 175.464844 175.464844 L 158.398438 175.464844 Z M 158.398438 158.398438 "/>
<path style=" stroke:none;fill-rule:nonzero;fill:rgb(48.522448%,58.234954%,74.570883%);fill-opacity:1;" d="M 175.464844 158.398438 L 192.535156 158.398438 L 192.535156 175.464844 L 175.464844 175.464844 Z M 175.464844 158.398438 "/>
<path style=" stroke:none;fill-rule:nonzero;fill:rgb(89.360744%,66.400409%,37.504946%);fill-opacity:1;" d="M 192.535156 158.398438 L 209.601562 158.398438 L 209.601562 175.464844 L 192.535156 175.464844 Z M 192.535156 158.398438 "/>
<path style=" stroke:none;fill-rule:nonzero;fill:rgb(89.360744%,66.400409%,37.504946%);fill-opacity:1;" d="M 158.398438 175.464844 L 175.464844 175.464844 L 175.464844 192.535156 L 158.398438 192.535156 Z M 158.398438 175.464844 "/>
<path style=" stroke:none;fill-rule:nonzero;fill:rgb(89.360744%,66.400409%,37.504946%);fill-opacity:1;" d="M 175.464844 175.464844 L 192.535156 175.464844 L 192.535156 192.535156 L 175.464844 192.535156 Z M 175.464844 175.464844 "/>
<path style=" stroke:none;fill-rule:nonzero;fill:rgb(48.522448%,58.234954%,74.570883%);fill-opacity:1;" d="M 192.535156 175.464844 L 209.601562 175.464844 L 209.601562 192.535156 L 192.535156 192.535156 Z M 192.535156 175.464844 "/>
<path style=" stroke:none;fill-rule:nonzero;fill:rgb(89.360744%,66.400409%,37.504946%);fill-opacity:1;" d="M 158.398438 192.535156 L 175.464844 192.535156 L 175.464844 209.601562 L 158.398438 209.601562 Z M 158.398438 192.535156 "/>
<path style=" stroke:none;fill-rule:nonzero;fill:rgb(48.522448%,58.234954%,74.570883%);fill-opacity:1;" d="M 175.464844 192.535156 L 192.535156 192.535156 L 192.535156 209.601562 L 175.464844 209.601562 Z M 175.464844 192.535156 "/>
<path style="fill-rule:nonzero;fill:rgb(48.522448%,58.234954%,74.570883%);fill-opacity:1;stroke-width:1;stroke-linecap:butt;stroke-linejoin:miter;stroke:rgb(92.2526%,38.5626%,20.9179%);stroke-opacity:1;stroke-miterlimit:10;" d="M 0.00182292 0.00182292 L 17.068229 0.00182292 L 17.068229 17.068229 L 0.00182292 17.068229 Z M 0.00182292 0.00182292 " transform="matrix(1,0,0,1,192.533333,192.533333)"/>
<path style="fill:none;stroke-width:1;stroke-linecap:butt;stroke-linejoin:miter;stroke:rgb(92.2526%,38.5626%,20.9179%);stroke-opacity:1;stroke-miterlimit:10;" d="M 0 0 L 64 0 L 64 64 L 0 64 Z M 0 0 " transform="matrix(1,0,0,1,24,24)"/>
</g>
</svg>
