<?xml version="1.0" encoding="UTF-8"?>
<svg xmlns="http://www.w3.org/2000/svg" xmlns:xlink="http://www.w3.org/1999/xlink" width="240pt" height="240pt" viewBox="0 0 240 240" version="1.1">
<g id="id1">
<path style=" stroke:none;fill-rule:nonzero;fill:rgb(89.360744%,66.400409%,37.504946%);fill-opacity:1;" d="M 30.398438 30.398438 L 56 30.398438 L 56 56 L 30.398438 56 Z M 30.398438 30.398438 "/>
<path style=" stroke:none;fill-rule:nonzero;fill:rgb(89.360744%,66.400409%,37.504946%);fill-opacity:1;" d="M 30.398438 56 L 56 56 L 56 81.601562 L 30.398438 81.601562 Z M 30.398438 56 "/>
<path style=" stroke:none;fill-rule:nonzero;fill:rgb(48.522448%,58.234954%,74.570883%);fill-opacity:1;" d="M 56 30.398438 L 81.601562 30.398438 L 81.601562 56 L 56 56 Z M 56 30.398438 "/>
<path style=" stroke:none;fill-rule:nonzero;fill:rgb(89.360744%,66.400409%,37.504946%);fill-opacity:1;" d="M 56 56 L 81.601562 56 L 81.601562 81.601562 L 56 81.601562 Z M 56 56 "/>
<path style="fill:none;stroke-width:1;stroke-linecap:butt;stroke-linejoin:miter;stroke:rgb(92.2526%,38.5626%,20.9179%);stroke-opacity:1;stroke-miterlimit:10;" d="M -0.0015625 -0.0015625 L 25.6 -0.0015625 L 25.6 25.6 L -0.0015625 25.6 Z M -0.0015625 -0.0015625 " transform="matrix(1,0,0,1,30.4,30.4)"/>
<path style=" stroke:none;fill-rule:nonzero;fill:rgb(89.360744%,66.400409%,37.504946%);fill-opacity:1;" d="M 30.398438 94.398438 L 56 94.398438 L 56 111.464844 L 30.398438 111.464844 Z M 30.398438 94.398438 "/>
<path style=" stroke:none;fill-rule:nonzero;fill:rgb(89.360744%,66.400409%,37.504946%);fill-opacity:1;" d="M 30.398438 111.464844 L 56 111.464844 L 56 128.535156 L 30.398438 128.535156 Z M 30.398438 111.464844 "/>
<path style=" stroke:none;fill-rule:nonzero;fill:rgb(89.360744%,66.400409%,37.504946%);fill-opacity:1;" d="M 30.398438 128.535156 L 56 128.535156 L 56 145.601562 L 30.398438 145.601562 Z M 30.398438 128.535156 "/>
<path style=" stroke:none;fill-rule:nonzero;fill:rgb(48.522448%,58.234954%,74.570883%);fill-opacity:1;" d="M 56 94.398438 L 81.601562 94.398438 L 81.601562 111.464844 L 56 111.464844 Z M 56 94.398438 "/>
<path style=" stroke:none;fill-rule:nonzero;fill:rgb(89.360744%,66.400409%,37.504946%);fill-opacity:1;" d="M 56 111.464844 L 81.601562 111.464844 L 81.601562 128.535156 L 56 128.535156 Z M 56 111.464844 "/>
<path style=" stroke:none;fill-rule:nonzero;fill:rgb(48.522448%,58.234954%,74.570883%);fill-opacity:1;" d="M 56 128.535156 L 81.601562 128.535156 L 81.601562 145.601562 L 56 145.601562 Z M 56 128.535156 "/>
<path style="fill:none;stroke-width:1;stroke-linecap:butt;stroke-linejoin:miter;stroke:rgb(92.2526%,38.5626%,20.9179%);stroke-opacity:1;stroke-miterlimit:10;" d="M -0.0015625 -0.00182292 L 25.6 -0.00182292 L 25.6 17.06849 L -0.0015625 17.06849 Z M -0.0015625 -0.00182292 " transform="matrix(1,0,0,1,30.4,111.466667)"/>
<path style=" stroke:none;fill-rule:nonzero;fill:rgb(89.360744%,66.400409%,37.504946%);fill-opacity:1;" d="M 30.398438 158.398438 L 56 158.398438 L 56 184 L 30.398438 184 Z M 30.398438 158.398438 "/>
<path style=" stroke:none;fill-rule:nonzero;fill:rgb(89.360744%,66.400409%,37.504946%);fill-opacity:1;" d="M 30.398438 184 L 56 184 L 56 209.601562 L 30.398438 209.601562 Z M 30.398438 184 "/>
<path style=" stroke:none;fill-rule:nonzero;fill:rgb(89.360744%,66.400409%,37.504946%);fill-opacity:1;" d="M 56 158.398438 L 81.601562 158.398438 L 81.601562 184 L 56 184 Z M 56 158.398438 "/>
<path style=" stroke:none;fill-rule:nonzero;fill:rgb(48.522448%,58.234954%,74.570883%);fill-opacity:1;" d="M 56 184 L 81.601562 184 L 81.601562 209.601562 L 56 209.601562 Z M 56 184 "/>
<path style="fill:none;stroke-width:1;stroke-linecap:butt;stroke-linejoin:miter;stroke:rgb(92.2526%,38.5626%,20.9179%);stroke-opacity:1;stroke-miterlimit:10;" d="M -0.0015625 0 L 25.6 0 L 25.6 25.601562 L -0.0015625 25.601562 Z M -0.0015625 0 " transform="matrix(1,0,0,1,30.4,184)"/>
<path style=" stroke:none;fill-rule:nonzero;fill:rgb(89.360744%,66.400409%,37.504946%);fill-opacity:1;" d="M 94.398438 30.398438 L 111.464844 30.398438 L 111.464844 56 L 94.398438 56 Z M 94.398438 30.398438 "/>
<path style=" stroke:none;fill-rule:nonzero;fill:rgb(89.360744%,66.400409%,37.504946%);fill-opacity:1;" d="M 94.398438 56 L 111.464844 56 L 111.464844 81.601562 L 94.398438 81.601562 Z M 94.398438 56 "/>
<path style=" stroke:none;fill-rule:nonzero;fill:rgb(48.522448%,58.234954%,74.570883%);fill-opacity:1;" d="M 111.464844 30.398438 L 128.535156 30.398438 L 128.535156 56 L 111.464844 56 Z M 111.464844 30.398438 "/>
<path style=" stroke:none;fill-rule:nonzero;fill:rgb(89.360744%,66.400409%,37.504946%);fill-opacity:1;" d="M 111.464844 56 L 128.535156 56 L 128.535156 81.601562 L 111.464844 81.601562 Z M 111.464844 56 "/>
<path style=" stroke:none;fill-rule:nonzero;fill:rgb(89.360744%,66.400409%,37.504946%);fill-opacity:1;" d="M 128.535156 30.398438 L 145.601562 30.398438 L 145.601562 56 L 128.535156 56 Z M 128.535156 30.398438 "/>
<path style=" stroke:none;fill-rule:nonzero;fill:rgb(48.522448%,58.234954%,74.570883%);fill-opacity:1;" d="M 128.535156 56 L 145.601562 56 L 145.601562 81.601562 L 128.535156 81.601562 Z M 128.535156 56 "/>
<path style="fill:none;stroke-width:1;stroke-linecap:butt;stroke-linejoin:miter;stroke:rgb(92.2526%,38.5626%,20.9179%);stroke-opacity:1;stroke-miterlimit:10;" d="M -0.00182292 -0.0015625 L 17.06849 -0.0015625 L 17.06849 25.6 L -0.00182292 25.6 Z M -0.00182292 -0.0015625 " transform="matrix(1,0,0,1,111.466667,30.4)"/>
<path style=" stroke:none;fill-rule:nonzero;fill:rgb(89.360744%,66.400409%,37.504946%);fill-opacity:1;" d="M 94.398438 94.398438 L 111.464844 94.398438 L 111.464844 111.464844 L 94.398438 111.464844 Z M 94.398438 94.398438 "/>
<path style=" stroke:none;fill-rule:nonzero;fill:rgb(89.360744%,66.400409%,37.504946%);fill-opacity:1;" d="M 94.398438 111.464844 L 111.464844 111.464844 L 111.464844 128.535156 L 94.398438 128.535156 Z M 94.398438 111.464844 "/>
<path style=" stroke:none;fill-rule:nonzero;fill:rgb(89.360744%,66.400409%,37.504946%);fill-opacity:1;" d="M 94.398438 128.535156 L 111.464844 128.535156 L 111.464844 145.601562 L 94.398438 145.601562 Z M 94.398438 128.535156 "/>
<path style=" stroke:none;fill-rule:nonzero;fill:rgb(48.522448%,58.234954%,74.570883%);fill-opacity:1;" d="M 111.464844 94.398438 L 128.535156 94.398438 L 128.535156 111.464844 L 111.464844 111.464844 Z M 111.464844 94.398438 "/>
<path style=" stroke:none;fill-rule:nonzero;fill:rgb(89.360744%,66.400409%,37.504946%);fill-opacity:1;" d="M 111.464844 111.464844 L 128.535156 111.464844 L 128.535156 128.535156 L 111.464844 128.535156 Z M 111.464844 111.464844 "/>
<path style=" stroke:none;fill-rule:nonzero;fill:rgb(48.522448%,58.234954%,74.570883%);fill-opacity:1;" d="M 111.464844 128.535156 L 128.535156 128.535156 L 128.535156 145.601562 L 111.464844 145.601562 Z M 111.464844 128.535156 "/>
<path style=" stroke:none;fill-rule:nonzero;fill:rgb(89.360744%,66.400409%,37.504946%);fill-opacity:1;" d="M 128.535156 94.398438 L 145.601562 94.398438 L 145.601562 111.464844 L 128.535156 111.464844 Z M 128.535156 94.398438 "/>
<path style=" stroke:none;fill-rule:nonzero;fill:rgb(48.522448%,58.234954%,74.570883%);fill-opacity:1;" d="M 128.535156 111.464844 L 145.601562 111.464844 L 145.601562 128.535156 L 128.535156 128.535156 Z M 128.535156 111.464844 "/>
<path style=" stroke:none;fill-rule:nonzero;fill:rgb(48.522448%,58.234954%,74.570883%);fill-opacity:1;" d="M 128.535156 128.535156 L 145.601562 128.535156 L 145.601562 145.601562 L 128.535156 145.601562 Z M 128.535156 128.535156 "/>
<path style="fill:none;stroke-width:1;stroke-linecap:butt;stroke-linejoin:miter;stroke:rgb(92.2526%,38.5626%,20.9179%);stroke-opacity:1;stroke-miterlimit:10;" d="M -0.00182292 -0.00182292 L 17.06849 -0.00182292 L 17.06849 17.06849 L -0.00182292 17.06849 Z M -0.00182292 -0.00182292 " transform="matrix(1,0,0,1,111.466667,111.466667)"/>
<path style=" stroke:none;fill-rule:nonzero;fill:rgb(89.360744%,66.400409%,37.504946%);fill-opacity:1;" d="M 94.398438 158.398438 L 111.464844 158.398438 L 111.464844 184 L 94.398438 184 Z M 94.398438 158.398438 "/>
<path style=" stroke:none;fill-rule:nonzero;fill:rgb(89.360744%,66.400409%,37.504946%);fill-opacity:1;" d="M 94.398438 184 L 111.464844 184 L 111.464844 209.601562 L 94.398438 209.601562 Z M 94.398438 184 "/>
<path style=" stroke:none;fill-rule:nonzero;fill:rgb(89.360744%,66.400409%,37.504946%);fill-opacity:1;" d="M 111.464844 158.398438 L 128.535156 158.398438 L 128.535156 184 L 111.464844 184 Z M 111.464844 158.398438 "/>
<path style=" stroke:none;fill-rule:nonzero;fill:rgb(48.522448%,58.234954%,74.570883%);fill-opacity:1;" d="M 111.464844 184 L 128.535156 184 L 128.535156 209.601562 L 111.464844 209.601562 Z M 111.464844 184 "/>
<path style=" stroke:none;fill-rule:nonzero;fill:rgb(48.522448%,58.234954%,74.570883%);fill-opacity:1;" d="M 128.535156 158.398438 L 145.601562 158.398438 L 145.601562 184 L 128.535156 184 Z M 128.535156 158.398438 "/>
<path style=" stroke:none;fill-rule:nonzero;fill:rgb(48.522448%,58.234954%,74.570883%);fill-opacity:1;" d="M 128.535156 184 L 145.601562 184 L 145.601562 209.601562 L 128.535156 209.601562 Z M 128.535156 184 "/>
<path style="fill:none;stroke-width:1;stroke-linecap:butt;stroke-linejoin:miter;stroke:rgb(92.2526%,38.5626%,20.9179%);stroke-opacity:1;stroke-miterlimit:10;" d="M -0.00182292 0 L 17.06849 0 L 17.06849 25.601562 L -0.00182292 25.601562 Z M -0.00182292 0 " transform="matrix(1,0,0,1,111.466667,184)"/>
<path style=" stroke:none;fill-rule:nonzero;fill:rgb(48.522448%,58.234954%,74.570883%);fill-opacity:1;" d="M 158.398438 30.398438 L 184 30.398438 L 184 56 L 158.398438 56 Z M 158.398438 30.398438 "/>
<path style=" stroke:none;fill-rule:nonzero;fill:rgb(89.360744%,66.400409%,37.504946%);fill-opacity:1;" d="M 158.398438 56 L 184 56 L 184 81.601562 L 158.398438 81.601562 Z M 158.398438 56 "/>
<path style=" stroke:none;fill-rule:nonzero;fill:rgb(89.360744%,66.400409%,37.504946%);fill-opacity:1;" d="M 184 30.398438 L 209.601562 30.398438 L 209.601562 56 L 184 56 Z M 184 30.398438 "/>
<path style=" stroke:none;fill-rule:nonzero;fill:rgb(48.522448%,58.234954%,74.570883%);fill-opacity:1;" d="M 184 56 L 209.601562 56 L 209.601562 81.601562 L 184 81.601562 Z M 184 56 "/>
<path style="fill:none;stroke-width:1;stroke-linecap:butt;stroke-linejoin:miter;stroke:rgb(92.2526%,38.5626%,20.9179%);stroke-opacity:1;stroke-miterlimit:10;" d="M 0 -0.0015625 L 25.601562 -0.0015625 L 25.601562 25.6 L 0 25.6 Z M 0 -0.0015625 " transform="matrix(1,0,0,1,184,30.4)"/>
<path style=" stroke:none;fill-rule:nonzero;fill:rgb(48.522448%,58.234954%,74.570883%);fill-opacity:1;" d="M 158.398438 94.398438 L 184 94.398438 L 184 111.464844 L 158.398438 111.464844 Z M 158.398438 94.398438 "/>
<path style=" stroke:none;fill-rule:nonzero;fill:rgb(89.360744%,66.400409%,37.504946%);fill-opacity:1;" d="M 158.398438 111.464844 L 184 111.464844 L 184 128.535156 L 158.398438 128.535156 Z M 158.398438 111.464844 "/>
<path style=" stroke:none;fill-rule:nonzero;fill:rgb(48.522448%,58.234954%,74.570883%);fill-opacity:1;" d="M 158.398438 128.535156 L 184 128.535156 L 184 145.601562 L 158.398438 145.601562 Z M 158.398438 128.535156 "/>
<path style=" stroke:none;fill-rule:nonzero;fill:rgb(89.360744%,66.400409%,37.504946%);fill-opacity:1;" d="M 184 94.398438 L 209.601562 94.398438 L 209.601562 111.464844 L 184 111.464844 Z M 184 94.398438 "/>
<path style=" stroke:none;fill-rule:nonzero;fill:rgb(48.522448%,58.234954%,74.570883%);fill-opacity:1;" d="M 184 111.464844 L 209.601562 111.464844 L 209.601562 128.535156 L 184 128.535156 Z M 184 111.464844 "/>
<path style=" stroke:none;fill-rule:nonzero;fill:rgb(48.522448%,58.234954%,74.570883%);fill-opacity:1;" d="M 184 128.535156 L 209.601562 128.535156 L 209.601562 145.601562 L 184 145.601562 Z M 184 128.535156 "/>
<path style="fill:none;stroke-width:1;stroke-linecap:butt;stroke-linejoin:miter;stroke:rgb(92.2526%,38.5626%,20.9179%);stroke-opacity:1;stroke-miterlimit:10;" d="M 0 -0.00182292 L 25.601562 -0.00182292 L 25.601562 17.06849 L 0 17.06849 Z M 0 -0.00182292 " transform="matrix(1,0,0,1,184,111.466667)"/>
<path style=" stroke:none;fill-rule:nonzero;fill:rgb(89.360744%,66.400409%,37.504946%);fill-opacity:1;" d="M 158.398438 158.398438 L 184 158.398438 L 184 184 L 158.398438 184 Z M 158.398438 158.398438 "/>
<path style=" stroke:none;fill-rule:nonzero;fill:rgb(48.522448%,58.234954%,74.570883%);fill-opacity:1;" d="M 158.398438 184 L 184 184 L 184 209.601562 L 158.398438 209.601562 Z M 158.398438 184 "/>
<path style=" stroke:none;fill-rule:nonzero;fill:rgb(48.522448%,58.234954%,74.570883%);fill-opacity:1;" d="M 184 158.398438 L 209.601562 158.398438 L 209.601562 184 L 184 184 Z M 184 158.398438 "/>
<path style="fill-rule:nonzero;fill:rgb(48.522448%,58.234954%,74.570883%);fill-opacity:1;stroke-width:1;stroke-linecap:butt;stroke-linejoin:miter;stroke:rgb(92.2526%,38.5626%,20.9179%);stroke-opacity:1;stroke-miterlimit:10;" d="M 0 0 L 25.601562 0 L 25.601562 25.601562 L 0 25.601562 Z M 0 0 " transform="matrix(1,0,0,1,184,184)"/>
<path style="fill:none;stroke-width:1;stroke-linecap:butt;stroke-linejoin:miter;stroke:rgb(92.2526%,38.5626%,20.9179%);stroke-opacity:1;stroke-miterlimit:10;" d="M 0 0 L 64 0 L 64 64 L 0 64 Z M 0 0 " transform="matrix(1,0,0,1,24,24)"/>
</g>
</svg>
