<?xml version="1.0" encoding="UTF-8"?>
<svg xmlns="http://www.w3.org/2000/svg" xmlns:xlink="http://www.w3.org/1999/xlink" width="480pt" height="480pt" viewBox="0 0 480 480" version="1.1">
<g id="id1">
<path style=" stroke:none;fill-rule:nonzero;fill:rgb(79.616102%,64.019126%,52.673552%);fill-opacity:1;" d="M 48 48 L 67.199219 48 L 67.199219 67.199219 L 48 67.199219 Z M 48 48 "/>
<path style=" stroke:none;fill-rule:nonzero;fill:rgb(78.783959%,63.827491%,53.642646%);fill-opacity:1;" d="M 67.199219 48 L 86.398438 48 L 86.398438 67.199219 L 67.199219 67.199219 Z M 67.199219 48 "/>
<path style=" stroke:none;fill-rule:nonzero;fill:rgb(82.596561%,64.720911%,48.879047%);fill-opacity:1;" d="M 86.398438 48 L 105.601562 48 L 105.601562 67.199219 L 86.398438 67.199219 Z M 86.398438 48 "/>
<path style=" stroke:none;fill-rule:nonzero;fill:rgb(82.229779%,64.63326%,49.376209%);fill-opacity:1;" d="M 105.601562 48 L 124.800781 48 L 124.800781 67.199219 L 105.601562 67.199219 Z M 105.601562 48 "/>
<path style=" stroke:none;fill-rule:nonzero;fill:rgb(78.783959%,63.827491%,53.642646%);fill-opacity:1;" d="M 124.800781 48 L 144 48 L 144 67.199219 L 124.800781 67.199219 Z M 124.800781 48 "/>
<path style=" stroke:none;fill-rule:nonzero;fill:rgb(82.229779%,64.63326%,49.376209%);fill-opacity:1;" d="M 144 48 L 163.199219 48 L 163.199219 67.199219 L 144 67.199219 Z M 144 48 "/>
<path style=" stroke:none;fill-rule:nonzero;fill:rgb(82.596561%,64.720911%,48.879047%);fill-opacity:1;" d="M 163.199219 48 L 182.398438 48 L 182.398438 67.199219 L 163.199219 67.199219 Z M 163.199219 48 "/>
<path style=" stroke:none;fill-rule:nonzero;fill:rgb(78.783959%,63.827491%,53.642646%);fill-opacity:1;" d="M 182.398438 48 L 201.601562 48 L 201.601562 67.199219 L 182.398438 67.199219 Z M 182.398438 48 "/>
<path style=" stroke:none;fill-rule:nonzero;fill:rgb(79.616102%,64.019126%,52.673552%);fill-opacity:1;" d="M 201.601562 48 L 220.800781 48 L 220.800781 67.199219 L 201.601562 67.199219 Z M 201.601562 48 "/>
<path style=" stroke:none;fill-rule:nonzero;fill:rgb(79.616102%,64.019126%,52.673552%);fill-opacity:1;" d="M 220.800781 48 L 240 48 L 240 67.199219 L 220.800781 67.199219 Z M 220.800781 48 "/>
<path style=" stroke:none;fill-rule:nonzero;fill:rgb(79.616102%,64.019126%,52.673552%);fill-opacity:1;" d="M 240 48 L 259.199219 48 L 259.199219 67.199219 L 240 67.199219 Z M 240 48 "/>
<path style=" stroke:none;fill-rule:nonzero;fill:rgb(79.616102%,64.019126%,52.673552%);fill-opacity:1;" d="M 259.199219 48 L 278.398438 48 L 278.398438 67.199219 L 259.199219 67.199219 Z M 259.199219 48 "/>
<path style=" stroke:none;fill-rule:nonzero;fill:rgb(79.616102%,64.019126%,52.673552%);fill-opacity:1;" d="M 278.398438 48 L 297.601562 48 L 297.601562 67.199219 L 278.398438 67.199219 Z M 278.398438 48 "/>
<path style=" stroke:none;fill-rule:nonzero;fill:rgb(79.616102%,64.019126%,52.673552%);fill-opacity:1;" d="M 297.601562 48 L 316.800781 48 L 316.800781 67.199219 L 297.601562 67.199219 Z M 297.601562 48 "/>
<path style=" stroke:none;fill-rule:nonzero;fill:rgb(79.616102%,64.019126%,52.673552%);fill-opacity:1;" d="M 316.800781 48 L 336 48 L 336 67.199219 L 316.800781 67.199219 Z M 316.800781 48 "/>
<path style=" stroke:none;fill-rule:nonzero;fill:rgb(79.616102%,64.019126%,52.673552%);fill-opacity:1;" d="M 336 48 L 355.199219 48 L 355.199219 67.199219 L 336 67.199219 Z M 336 48 "/>
<path style=" stroke:none;fill-rule:nonzero;fill:rgb(79.616102%,64.019126%,52.673552%);fill-opacity:1;" d="M 355.199219 48 L 374.398438 48 L 374.398438 67.199219 L 355.199219 67.199219 Z M 355.199219 48 "/>
<path style=" stroke:none;fill-rule:nonzero;fill:rgb(79.616102%,64.019126%,52.673552%);fill-opacity:1;" d="M 374.398438 48 L 393.601562 48 L 393.601562 67.199219 L 374.398438 67.199219 Z M 374.398438 48 "/>
<path style=" stroke:none;fill-rule:nonzero;fill:rgb(79.616102%,64.019126%,52.673552%);fill-opacity:1;" d="M 393.601562 48 L 412.800781 48 L 412.800781 67.199219 L 393.601562 67.199219 Z M 393.601562 48 "/>
<path style=" stroke:none;fill-rule:nonzero;fill:rgb(79.616102%,64.019126%,52.673552%);fill-opacity:1;" d="M 412.800781 48 L 432 48 L 432 67.199219 L 412.800781 67.199219 Z M 412.800781 48 "/>
<path style=" stroke:none;fill-rule:nonzero;fill:rgb(80.960099%,64.332621%,51.029098%);fill-opacity:1;" d="M 48 67.199219 L 67.199219 67.199219 L 67.199219 86.398438 L 48 86.398438 Z M 48 67.199219 "/>
<path style=" stroke:none;fill-rule:nonzero;fill:rgb(80.843374%,64.305201%,51.176029%);fill-opacity:1;" d="M 67.199219 67.199219 L 86.398438 67.199219 L 86.398438 86.398438 L 67.199219 86.398438 Z M 67.199219 67.199219 "/>
<path style=" stroke:none;fill-rule:nonzero;fill:rgb(86.024403%,65.557239%,43.723068%);fill-opacity:1;" d="M 86.398438 67.199219 L 105.601562 67.199219 L 105.601562 86.398438 L 86.398438 86.398438 Z M 86.398438 67.199219 "/>
<path style=" stroke:none;fill-rule:nonzero;fill:rgb(88.409191%,66.157048%,39.435356%);fill-opacity:1;" d="M 105.601562 67.199219 L 124.800781 67.199219 L 124.800781 86.398438 L 105.601562 86.398438 Z M 105.601562 67.199219 "/>
<path style=" stroke:none;fill-rule:nonzero;fill:rgb(84.460368%,65.171823%,46.199409%);fill-opacity:1;" d="M 124.800781 67.199219 L 144 67.199219 L 144 86.398438 L 124.800781 86.398438 Z M 124.800781 67.199219 "/>
<path style=" stroke:none;fill-rule:nonzero;fill:rgb(88.409191%,66.157048%,39.435356%);fill-opacity:1;" d="M 144 67.199219 L 163.199219 67.199219 L 163.199219 86.398438 L 144 86.398438 Z M 144 67.199219 "/>
<path style=" stroke:none;fill-rule:nonzero;fill:rgb(85.280305%,65.373082%,44.929902%);fill-opacity:1;" d="M 163.199219 67.199219 L 182.398438 67.199219 L 182.398438 86.398438 L 163.199219 86.398438 Z M 163.199219 67.199219 "/>
<path style=" stroke:none;fill-rule:nonzero;fill:rgb(79.777585%,64.056534%,52.481286%);fill-opacity:1;" d="M 182.398438 67.199219 L 201.601562 67.199219 L 201.601562 86.398438 L 182.398438 86.398438 Z M 182.398438 67.199219 "/>
<path style=" stroke:none;fill-rule:nonzero;fill:rgb(79.616102%,64.019126%,52.673552%);fill-opacity:1;" d="M 201.601562 67.199219 L 220.800781 67.199219 L 220.800781 86.398438 L 201.601562 86.398438 Z M 201.601562 67.199219 "/>
<path style=" stroke:none;fill-rule:nonzero;fill:rgb(79.616102%,64.019126%,52.673552%);fill-opacity:1;" d="M 220.800781 67.199219 L 240 67.199219 L 240 86.398438 L 220.800781 86.398438 Z M 220.800781 67.199219 "/>
<path style=" stroke:none;fill-rule:nonzero;fill:rgb(79.616102%,64.019126%,52.673552%);fill-opacity:1;" d="M 240 67.199219 L 259.199219 67.199219 L 259.199219 86.398438 L 240 86.398438 Z M 240 67.199219 "/>
<path style=" stroke:none;fill-rule:nonzero;fill:rgb(79.616102%,64.019126%,52.673552%);fill-opacity:1;" d="M 259.199219 67.199219 L 278.398438 67.199219 L 278.398438 86.398438 L 259.199219 86.398438 Z M 259.199219 67.199219 "/>
<path style=" stroke:none;fill-rule:nonzero;fill:rgb(79.616102%,64.019126%,52.673552%);fill-opacity:1;" d="M 278.398438 67.199219 L 297.601562 67.199219 L 297.601562 86.398438 L 278.398438 86.398438 Z M 278.398438 67.199219 "/>
<path style=" stroke:none;fill-rule:nonzero;fill:rgb(79.616102%,64.019126%,52.673552%);fill-opacity:1;" d="M 297.601562 67.199219 L 316.800781 67.199219 L 316.800781 86.398438 L 297.601562 86.398438 Z M 297.601562 67.199219 "/>
<path style=" stroke:none;fill-rule:nonzero;fill:rgb(79.616102%,64.019126%,52.673552%);fill-opacity:1;" d="M 316.800781 67.199219 L 336 67.199219 L 336 86.398438 L 316.800781 86.398438 Z M 316.800781 67.199219 "/>
<path style=" stroke:none;fill-rule:nonzero;fill:rgb(79.616102%,64.019126%,52.673552%);fill-opacity:1;" d="M 336 67.199219 L 355.199219 67.199219 L 355.199219 86.398438 L 336 86.398438 Z M 336 67.199219 "/>
<path style=" stroke:none;fill-rule:nonzero;fill:rgb(79.616102%,64.019126%,52.673552%);fill-opacity:1;" d="M 355.199219 67.199219 L 374.398438 67.199219 L 374.398438 86.398438 L 355.199219 86.398438 Z M 355.199219 67.199219 "/>
<path style=" stroke:none;fill-rule:nonzero;fill:rgb(79.616102%,64.019126%,52.673552%);fill-opacity:1;" d="M 374.398438 67.199219 L 393.601562 67.199219 L 393.601562 86.398438 L 374.398438 86.398438 Z M 374.398438 67.199219 "/>
<path style=" stroke:none;fill-rule:nonzero;fill:rgb(79.616102%,64.019126%,52.673552%);fill-opacity:1;" d="M 393.601562 67.199219 L 412.800781 67.199219 L 412.800781 86.398438 L 393.601562 86.398438 Z M 393.601562 67.199219 "/>
<path style=" stroke:none;fill-rule:nonzero;fill:rgb(79.616102%,64.019126%,52.673552%);fill-opacity:1;" d="M 412.800781 67.199219 L 432 67.199219 L 432 86.398438 L 412.800781 86.398438 Z M 412.800781 67.199219 "/>
<path style=" stroke:none;fill-rule:nonzero;fill:rgb(81.598178%,64.483167%,50.211236%);fill-opacity:1;" d="M 48 86.398438 L 67.199219 86.398438 L 67.199219 105.601562 L 48 105.601562 Z M 48 86.398438 "/>
<path style=" stroke:none;fill-rule:nonzero;fill:rgb(82.508457%,64.699824%,48.999315%);fill-opacity:1;" d="M 67.199219 86.398438 L 86.398438 86.398438 L 86.398438 105.601562 L 67.199219 105.601562 Z M 67.199219 86.398438 "/>
<path style=" stroke:none;fill-rule:nonzero;fill:rgb(85.595259%,65.450855%,44.425747%);fill-opacity:1;" d="M 86.398438 86.398438 L 105.601562 86.398438 L 105.601562 105.601562 L 86.398438 105.601562 Z M 86.398438 86.398438 "/>
<path style=" stroke:none;fill-rule:nonzero;fill:rgb(86.3657%,65.642187%,43.150644%);fill-opacity:1;" d="M 105.601562 86.398438 L 124.800781 86.398438 L 124.800781 105.601562 L 105.601562 105.601562 Z M 105.601562 86.398438 "/>
<path style=" stroke:none;fill-rule:nonzero;fill:rgb(72.721056%,62.489415%,59.777407%);fill-opacity:1;" d="M 124.800781 86.398438 L 144 86.398438 L 144 105.601562 L 124.800781 105.601562 Z M 124.800781 86.398438 "/>
<path style=" stroke:none;fill-rule:nonzero;fill:rgb(86.3657%,65.642187%,43.150644%);fill-opacity:1;" d="M 144 86.398438 L 163.199219 86.398438 L 163.199219 105.601562 L 144 105.601562 Z M 144 86.398438 "/>
<path style=" stroke:none;fill-rule:nonzero;fill:rgb(85.280305%,65.373082%,44.929902%);fill-opacity:1;" d="M 163.199219 86.398438 L 182.398438 86.398438 L 182.398438 105.601562 L 163.199219 105.601562 Z M 163.199219 86.398438 "/>
<path style=" stroke:none;fill-rule:nonzero;fill:rgb(79.777585%,64.056534%,52.481286%);fill-opacity:1;" d="M 182.398438 86.398438 L 201.601562 86.398438 L 201.601562 105.601562 L 182.398438 105.601562 Z M 182.398438 86.398438 "/>
<path style=" stroke:none;fill-rule:nonzero;fill:rgb(79.616102%,64.019126%,52.673552%);fill-opacity:1;" d="M 201.601562 86.398438 L 220.800781 86.398438 L 220.800781 105.601562 L 201.601562 105.601562 Z M 201.601562 86.398438 "/>
<path style=" stroke:none;fill-rule:nonzero;fill:rgb(79.616102%,64.019126%,52.673552%);fill-opacity:1;" d="M 220.800781 86.398438 L 240 86.398438 L 240 105.601562 L 220.800781 105.601562 Z M 220.800781 86.398438 "/>
<path style=" stroke:none;fill-rule:nonzero;fill:rgb(79.616102%,64.019126%,52.673552%);fill-opacity:1;" d="M 240 86.398438 L 259.199219 86.398438 L 259.199219 105.601562 L 240 105.601562 Z M 240 86.398438 "/>
<path style=" stroke:none;fill-rule:nonzero;fill:rgb(79.616102%,64.019126%,52.673552%);fill-opacity:1;" d="M 259.199219 86.398438 L 278.398438 86.398438 L 278.398438 105.601562 L 259.199219 105.601562 Z M 259.199219 86.398438 "/>
<path style=" stroke:none;fill-rule:nonzero;fill:rgb(79.616102%,64.019126%,52.673552%);fill-opacity:1;" d="M 278.398438 86.398438 L 297.601562 86.398438 L 297.601562 105.601562 L 278.398438 105.601562 Z M 278.398438 86.398438 "/>
<path style=" stroke:none;fill-rule:nonzero;fill:rgb(79.616102%,64.019126%,52.673552%);fill-opacity:1;" d="M 297.601562 86.398438 L 316.800781 86.398438 L 316.800781 105.601562 L 297.601562 105.601562 Z M 297.601562 86.398438 "/>
<path style=" stroke:none;fill-rule:nonzero;fill:rgb(79.616102%,64.019126%,52.673552%);fill-opacity:1;" d="M 316.800781 86.398438 L 336 86.398438 L 336 105.601562 L 316.800781 105.601562 Z M 316.800781 86.398438 "/>
<path style=" stroke:none;fill-rule:nonzero;fill:rgb(79.616102%,64.019126%,52.673552%);fill-opacity:1;" d="M 336 86.398438 L 355.199219 86.398438 L 355.199219 105.601562 L 336 105.601562 Z M 336 86.398438 "/>
<path style=" stroke:none;fill-rule:nonzero;fill:rgb(79.616102%,64.019126%,52.673552%);fill-opacity:1;" d="M 355.199219 86.398438 L 374.398438 86.398438 L 374.398438 105.601562 L 355.199219 105.601562 Z M 355.199219 86.398438 "/>
<path style=" stroke:none;fill-rule:nonzero;fill:rgb(79.616102%,64.019126%,52.673552%);fill-opacity:1;" d="M 374.398438 86.398438 L 393.601562 86.398438 L 393.601562 105.601562 L 374.398438 105.601562 Z M 374.398438 86.398438 "/>
<path style=" stroke:none;fill-rule:nonzero;fill:rgb(79.616102%,64.019126%,52.673552%);fill-opacity:1;" d="M 393.601562 86.398438 L 412.800781 86.398438 L 412.800781 105.601562 L 393.601562 105.601562 Z M 393.601562 86.398438 "/>
<path style=" stroke:none;fill-rule:nonzero;fill:rgb(79.616102%,64.019126%,52.673552%);fill-opacity:1;" d="M 412.800781 86.398438 L 432 86.398438 L 432 105.601562 L 412.800781 105.601562 Z M 412.800781 86.398438 "/>
<path style=" stroke:none;fill-rule:nonzero;fill:rgb(80.738537%,64.280604%,51.307309%);fill-opacity:1;" d="M 48 105.601562 L 67.199219 105.601562 L 67.199219 124.800781 L 48 124.800781 Z M 48 105.601562 "/>
<path style=" stroke:none;fill-rule:nonzero;fill:rgb(82.508457%,64.699824%,48.999315%);fill-opacity:1;" d="M 67.199219 105.601562 L 86.398438 105.601562 L 86.398438 124.800781 L 67.199219 124.800781 Z M 67.199219 105.601562 "/>
<path style=" stroke:none;fill-rule:nonzero;fill:rgb(84.501064%,65.18177%,46.137801%);fill-opacity:1;" d="M 86.398438 105.601562 L 105.601562 105.601562 L 105.601562 124.800781 L 86.398438 124.800781 Z M 86.398438 105.601562 "/>
<path style=" stroke:none;fill-rule:nonzero;fill:rgb(83.2273%,64.872478%,48.001896%);fill-opacity:1;" d="M 105.601562 105.601562 L 124.800781 105.601562 L 124.800781 124.800781 L 105.601562 124.800781 Z M 105.601562 105.601562 "/>
<path style=" stroke:none;fill-rule:nonzero;fill:rgb(48.522448%,58.234954%,74.570883%);fill-opacity:1;" d="M 124.800781 105.601562 L 144 105.601562 L 144 124.800781 L 124.800781 124.800781 Z M 124.800781 105.601562 "/>
<path style=" stroke:none;fill-rule:nonzero;fill:rgb(83.2273%,64.872478%,48.001896%);fill-opacity:1;" d="M 144 105.601562 L 163.199219 105.601562 L 163.199219 124.800781 L 144 124.800781 Z M 144 105.601562 "/>
<path style=" stroke:none;fill-rule:nonzero;fill:rgb(84.290525%,65.130353%,46.455007%);fill-opacity:1;" d="M 163.199219 105.601562 L 182.398438 105.601562 L 182.398438 124.800781 L 163.199219 124.800781 Z M 163.199219 105.601562 "/>
<path style=" stroke:none;fill-rule:nonzero;fill:rgb(79.09454%,63.898793%,53.28512%);fill-opacity:1;" d="M 182.398438 105.601562 L 201.601562 105.601562 L 201.601562 124.800781 L 182.398438 124.800781 Z M 182.398438 105.601562 "/>
<path style=" stroke:none;fill-rule:nonzero;fill:rgb(78.521543%,63.767452%,53.940968%);fill-opacity:1;" d="M 201.601562 105.601562 L 220.800781 105.601562 L 220.800781 124.800781 L 201.601562 124.800781 Z M 201.601562 105.601562 "/>
<path style=" stroke:none;fill-rule:nonzero;fill:rgb(78.521543%,63.767452%,53.940968%);fill-opacity:1;" d="M 220.800781 105.601562 L 240 105.601562 L 240 124.800781 L 220.800781 124.800781 Z M 220.800781 105.601562 "/>
<path style=" stroke:none;fill-rule:nonzero;fill:rgb(78.521543%,63.767452%,53.940968%);fill-opacity:1;" d="M 240 105.601562 L 259.199219 105.601562 L 259.199219 124.800781 L 240 124.800781 Z M 240 105.601562 "/>
<path style=" stroke:none;fill-rule:nonzero;fill:rgb(78.521543%,63.767452%,53.940968%);fill-opacity:1;" d="M 259.199219 105.601562 L 278.398438 105.601562 L 278.398438 124.800781 L 259.199219 124.800781 Z M 259.199219 105.601562 "/>
<path style=" stroke:none;fill-rule:nonzero;fill:rgb(78.521543%,63.767452%,53.940968%);fill-opacity:1;" d="M 278.398438 105.601562 L 297.601562 105.601562 L 297.601562 124.800781 L 278.398438 124.800781 Z M 278.398438 105.601562 "/>
<path style=" stroke:none;fill-rule:nonzero;fill:rgb(78.521543%,63.767452%,53.940968%);fill-opacity:1;" d="M 297.601562 105.601562 L 316.800781 105.601562 L 316.800781 124.800781 L 297.601562 124.800781 Z M 297.601562 105.601562 "/>
<path style=" stroke:none;fill-rule:nonzero;fill:rgb(78.521543%,63.767452%,53.940968%);fill-opacity:1;" d="M 316.800781 105.601562 L 336 105.601562 L 336 124.800781 L 316.800781 124.800781 Z M 316.800781 105.601562 "/>
<path style=" stroke:none;fill-rule:nonzero;fill:rgb(78.521543%,63.767452%,53.940968%);fill-opacity:1;" d="M 336 105.601562 L 355.199219 105.601562 L 355.199219 124.800781 L 336 124.800781 Z M 336 105.601562 "/>
<path style=" stroke:none;fill-rule:nonzero;fill:rgb(78.521543%,63.767452%,53.940968%);fill-opacity:1;" d="M 355.199219 105.601562 L 374.398438 105.601562 L 374.398438 124.800781 L 355.199219 124.800781 Z M 355.199219 105.601562 "/>
<path style=" stroke:none;fill-rule:nonzero;fill:rgb(78.521543%,63.767452%,53.940968%);fill-opacity:1;" d="M 374.398438 105.601562 L 393.601562 105.601562 L 393.601562 124.800781 L 374.398438 124.800781 Z M 374.398438 105.601562 "/>
<path style=" stroke:none;fill-rule:nonzero;fill:rgb(78.521543%,63.767452%,53.940968%);fill-opacity:1;" d="M 393.601562 105.601562 L 412.800781 105.601562 L 412.800781 124.800781 L 393.601562 124.800781 Z M 393.601562 105.601562 "/>
<path style=" stroke:none;fill-rule:nonzero;fill:rgb(78.521543%,63.767452%,53.940968%);fill-opacity:1;" d="M 412.800781 105.601562 L 432 105.601562 L 432 124.800781 L 412.800781 124.800781 Z M 412.800781 105.601562 "/>
<path style=" stroke:none;fill-rule:nonzero;fill:rgb(89.360744%,66.400409%,37.504946%);fill-opacity:1;" d="M 48 124.800781 L 67.199219 124.800781 L 67.199219 144 L 48 144 Z M 48 124.800781 "/>
<path style=" stroke:none;fill-rule:nonzero;fill:rgb(89.360744%,66.400409%,37.504946%);fill-opacity:1;" d="M 67.199219 124.800781 L 86.398438 124.800781 L 86.398438 144 L 67.199219 144 Z M 67.199219 124.800781 "/>
<path style=" stroke:none;fill-rule:nonzero;fill:rgb(89.360744%,66.400409%,37.504946%);fill-opacity:1;" d="M 86.398438 124.800781 L 105.601562 124.800781 L 105.601562 144 L 86.398438 144 Z M 86.398438 124.800781 "/>
<path style=" stroke:none;fill-rule:nonzero;fill:rgb(89.360744%,66.400409%,37.504946%);fill-opacity:1;" d="M 105.601562 124.800781 L 124.800781 124.800781 L 124.800781 144 L 105.601562 144 Z M 105.601562 124.800781 "/>
<path style=" stroke:none;fill-rule:nonzero;fill:rgb(48.522448%,58.234954%,74.570883%);fill-opacity:1;" d="M 124.800781 124.800781 L 144 124.800781 L 144 144 L 124.800781 144 Z M 124.800781 124.800781 "/>
<path style=" stroke:none;fill-rule:nonzero;fill:rgb(89.360744%,66.400409%,37.504946%);fill-opacity:1;" d="M 144 124.800781 L 163.199219 124.800781 L 163.199219 144 L 144 144 Z M 144 124.800781 "/>
<path style=" stroke:none;fill-rule:nonzero;fill:rgb(89.360744%,66.400409%,37.504946%);fill-opacity:1;" d="M 163.199219 124.800781 L 182.398438 124.800781 L 182.398438 144 L 163.199219 144 Z M 163.199219 124.800781 "/>
<path style=" stroke:none;fill-rule:nonzero;fill:rgb(85.193152%,65.351606%,45.067743%);fill-opacity:1;" d="M 182.398438 124.800781 L 201.601562 124.800781 L 201.601562 144 L 182.398438 144 Z M 182.398438 124.800781 "/>
<path style=" stroke:none;fill-rule:nonzero;fill:rgb(85.712579%,65.479891%,44.235485%);fill-opacity:1;" d="M 201.601562 124.800781 L 220.800781 124.800781 L 220.800781 144 L 201.601562 144 Z M 201.601562 124.800781 "/>
<path style=" stroke:none;fill-rule:nonzero;fill:rgb(85.712579%,65.479891%,44.235485%);fill-opacity:1;" d="M 220.800781 124.800781 L 240 124.800781 L 240 144 L 220.800781 144 Z M 220.800781 124.800781 "/>
<path style=" stroke:none;fill-rule:nonzero;fill:rgb(85.712579%,65.479891%,44.235485%);fill-opacity:1;" d="M 240 124.800781 L 259.199219 124.800781 L 259.199219 144 L 240 144 Z M 240 124.800781 "/>
<path style=" stroke:none;fill-rule:nonzero;fill:rgb(85.712579%,65.479891%,44.235485%);fill-opacity:1;" d="M 259.199219 124.800781 L 278.398438 124.800781 L 278.398438 144 L 259.199219 144 Z M 259.199219 124.800781 "/>
<path style=" stroke:none;fill-rule:nonzero;fill:rgb(85.712579%,65.479891%,44.235485%);fill-opacity:1;" d="M 278.398438 124.800781 L 297.601562 124.800781 L 297.601562 144 L 278.398438 144 Z M 278.398438 124.800781 "/>
<path style=" stroke:none;fill-rule:nonzero;fill:rgb(85.712579%,65.479891%,44.235485%);fill-opacity:1;" d="M 297.601562 124.800781 L 316.800781 124.800781 L 316.800781 144 L 297.601562 144 Z M 297.601562 124.800781 "/>
<path style=" stroke:none;fill-rule:nonzero;fill:rgb(85.712579%,65.479891%,44.235485%);fill-opacity:1;" d="M 316.800781 124.800781 L 336 124.800781 L 336 144 L 316.800781 144 Z M 316.800781 124.800781 "/>
<path style=" stroke:none;fill-rule:nonzero;fill:rgb(85.712579%,65.479891%,44.235485%);fill-opacity:1;" d="M 336 124.800781 L 355.199219 124.800781 L 355.199219 144 L 336 144 Z M 336 124.800781 "/>
<path style=" stroke:none;fill-rule:nonzero;fill:rgb(85.712579%,65.479891%,44.235485%);fill-opacity:1;" d="M 355.199219 124.800781 L 374.398438 124.800781 L 374.398438 144 L 355.199219 144 Z M 355.199219 124.800781 "/>
<path style=" stroke:none;fill-rule:nonzero;fill:rgb(85.712579%,65.479891%,44.235485%);fill-opacity:1;" d="M 374.398438 124.800781 L 393.601562 124.800781 L 393.601562 144 L 374.398438 144 Z M 374.398438 124.800781 "/>
<path style=" stroke:none;fill-rule:nonzero;fill:rgb(85.712579%,65.479891%,44.235485%);fill-opacity:1;" d="M 393.601562 124.800781 L 412.800781 124.800781 L 412.800781 144 L 393.601562 144 Z M 393.601562 124.800781 "/>
<path style=" stroke:none;fill-rule:nonzero;fill:rgb(85.712579%,65.479891%,44.235485%);fill-opacity:1;" d="M 412.800781 124.800781 L 432 124.800781 L 432 144 L 412.800781 144 Z M 412.800781 124.800781 "/>
<path style=" stroke:none;fill-rule:nonzero;fill:rgb(89.360744%,66.400409%,37.504946%);fill-opacity:1;" d="M 48 144 L 67.199219 144 L 67.199219 163.199219 L 48 163.199219 Z M 48 144 "/>
<path style=" stroke:none;fill-rule:nonzero;fill:rgb(89.360744%,66.400409%,37.504946%);fill-opacity:1;" d="M 67.199219 144 L 86.398438 144 L 86.398438 163.199219 L 67.199219 163.199219 Z M 67.199219 144 "/>
<path style=" stroke:none;fill-rule:nonzero;fill:rgb(89.360744%,66.400409%,37.504946%);fill-opacity:1;" d="M 86.398438 144 L 105.601562 144 L 105.601562 163.199219 L 86.398438 163.199219 Z M 86.398438 144 "/>
<path style=" stroke:none;fill-rule:nonzero;fill:rgb(89.360744%,66.400409%,37.504946%);fill-opacity:1;" d="M 105.601562 144 L 124.800781 144 L 124.800781 163.199219 L 105.601562 163.199219 Z M 105.601562 144 "/>
<path style=" stroke:none;fill-rule:nonzero;fill:rgb(48.522448%,58.234954%,74.570883%);fill-opacity:1;" d="M 124.800781 144 L 144 144 L 144 163.199219 L 124.800781 163.199219 Z M 124.800781 144 "/>
<path style=" stroke:none;fill-rule:nonzero;fill:rgb(89.360744%,66.400409%,37.504946%);fill-opacity:1;" d="M 144 144 L 163.199219 144 L 163.199219 163.199219 L 144 163.199219 Z M 144 144 "/>
<path style=" stroke:none;fill-rule:nonzero;fill:rgb(89.360744%,66.400409%,37.504946%);fill-opacity:1;" d="M 163.199219 144 L 182.398438 144 L 182.398438 163.199219 L 163.199219 163.199219 Z M 163.199219 144 "/>
<path style=" stroke:none;fill-rule:nonzero;fill:rgb(82.508457%,64.699824%,48.999315%);fill-opacity:1;" d="M 182.398438 144 L 201.601562 144 L 201.601562 163.199219 L 182.398438 163.199219 Z M 182.398438 144 "/>
<path style=" stroke:none;fill-rule:nonzero;fill:rgb(83.809437%,65.013301%,47.166027%);fill-opacity:1;" d="M 201.601562 144 L 220.800781 144 L 220.800781 163.199219 L 201.601562 163.199219 Z M 201.601562 144 "/>
<path style=" stroke:none;fill-rule:nonzero;fill:rgb(83.809437%,65.013301%,47.166027%);fill-opacity:1;" d="M 220.800781 144 L 240 144 L 240 163.199219 L 220.800781 163.199219 Z M 220.800781 144 "/>
<path style=" stroke:none;fill-rule:nonzero;fill:rgb(83.809437%,65.013301%,47.166027%);fill-opacity:1;" d="M 240 144 L 259.199219 144 L 259.199219 163.199219 L 240 163.199219 Z M 240 144 "/>
<path style=" stroke:none;fill-rule:nonzero;fill:rgb(83.809437%,65.013301%,47.166027%);fill-opacity:1;" d="M 259.199219 144 L 278.398438 144 L 278.398438 163.199219 L 259.199219 163.199219 Z M 259.199219 144 "/>
<path style=" stroke:none;fill-rule:nonzero;fill:rgb(83.809437%,65.013301%,47.166027%);fill-opacity:1;" d="M 278.398438 144 L 297.601562 144 L 297.601562 163.199219 L 278.398438 163.199219 Z M 278.398438 144 "/>
<path style=" stroke:none;fill-rule:nonzero;fill:rgb(83.809437%,65.013301%,47.166027%);fill-opacity:1;" d="M 297.601562 144 L 316.800781 144 L 316.800781 163.199219 L 297.601562 163.199219 Z M 297.601562 144 "/>
<path style=" stroke:none;fill-rule:nonzero;fill:rgb(83.809437%,65.013301%,47.166027%);fill-opacity:1;" d="M 316.800781 144 L 336 144 L 336 163.199219 L 316.800781 163.199219 Z M 316.800781 144 "/>
<path style=" stroke:none;fill-rule:nonzero;fill:rgb(83.809437%,65.013301%,47.166027%);fill-opacity:1;" d="M 336 144 L 355.199219 144 L 355.199219 163.199219 L 336 163.199219 Z M 336 144 "/>
<path style=" stroke:none;fill-rule:nonzero;fill:rgb(83.809437%,65.013301%,47.166027%);fill-opacity:1;" d="M 355.199219 144 L 374.398438 144 L 374.398438 163.199219 L 355.199219 163.199219 Z M 355.199219 144 "/>
<path style=" stroke:none;fill-rule:nonzero;fill:rgb(83.809437%,65.013301%,47.166027%);fill-opacity:1;" d="M 374.398438 144 L 393.601562 144 L 393.601562 163.199219 L 374.398438 163.199219 Z M 374.398438 144 "/>
<path style=" stroke:none;fill-rule:nonzero;fill:rgb(83.809437%,65.013301%,47.166027%);fill-opacity:1;" d="M 393.601562 144 L 412.800781 144 L 412.800781 163.199219 L 393.601562 163.199219 Z M 393.601562 144 "/>
<path style=" stroke:none;fill-rule:nonzero;fill:rgb(83.809437%,65.013301%,47.166027%);fill-opacity:1;" d="M 412.800781 144 L 432 144 L 432 163.199219 L 412.800781 163.199219 Z M 412.800781 144 "/>
<path style=" stroke:none;fill-rule:nonzero;fill:rgb(48.522448%,58.234954%,74.570883%);fill-opacity:1;" d="M 48 163.199219 L 67.199219 163.199219 L 67.199219 182.398438 L 48 182.398438 Z M 48 163.199219 "/>
<path style=" stroke:none;fill-rule:nonzero;fill:rgb(48.522448%,58.234954%,74.570883%);fill-opacity:1;" d="M 67.199219 163.199219 L 86.398438 163.199219 L 86.398438 182.398438 L 67.199219 182.398438 Z M 67.199219 163.199219 "/>
<path style=" stroke:none;fill-rule:nonzero;fill:rgb(48.522448%,58.234954%,74.570883%);fill-opacity:1;" d="M 86.398438 163.199219 L 105.601562 163.199219 L 105.601562 182.398438 L 86.398438 182.398438 Z M 86.398438 163.199219 "/>
<path style=" stroke:none;fill-rule:nonzero;fill:rgb(48.522448%,58.234954%,74.570883%);fill-opacity:1;" d="M 105.601562 163.199219 L 124.800781 163.199219 L 124.800781 182.398438 L 105.601562 182.398438 Z M 105.601562 163.199219 "/>
<path style=" stroke:none;fill-rule:nonzero;fill:rgb(48.522448%,58.234954%,74.570883%);fill-opacity:1;" d="M 124.800781 163.199219 L 144 163.199219 L 144 182.398438 L 124.800781 182.398438 Z M 124.800781 163.199219 "/>
<path style=" stroke:none;fill-rule:nonzero;fill:rgb(48.522448%,58.234954%,74.570883%);fill-opacity:1;" d="M 144 163.199219 L 163.199219 163.199219 L 163.199219 182.398438 L 144 182.398438 Z M 144 163.199219 "/>
<path style=" stroke:none;fill-rule:nonzero;fill:rgb(48.522448%,58.234954%,74.570883%);fill-opacity:1;" d="M 163.199219 163.199219 L 182.398438 163.199219 L 182.398438 182.398438 L 163.199219 182.398438 Z M 163.199219 163.199219 "/>
<path style=" stroke:none;fill-rule:nonzero;fill:rgb(48.522448%,58.234954%,74.570883%);fill-opacity:1;" d="M 182.398438 163.199219 L 201.601562 163.199219 L 201.601562 182.398438 L 182.398438 182.398438 Z M 182.398438 163.199219 "/>
<path style=" stroke:none;fill-rule:nonzero;fill:rgb(48.522448%,58.234954%,74.570883%);fill-opacity:1;" d="M 201.601562 163.199219 L 220.800781 163.199219 L 220.800781 182.398438 L 201.601562 182.398438 Z M 201.601562 163.199219 "/>
<path style=" stroke:none;fill-rule:nonzero;fill:rgb(48.522448%,58.234954%,74.570883%);fill-opacity:1;" d="M 220.800781 163.199219 L 240 163.199219 L 240 182.398438 L 220.800781 182.398438 Z M 220.800781 163.199219 "/>
<path style=" stroke:none;fill-rule:nonzero;fill:rgb(48.522448%,58.234954%,74.570883%);fill-opacity:1;" d="M 240 163.199219 L 259.199219 163.199219 L 259.199219 182.398438 L 240 182.398438 Z M 240 163.199219 "/>
<path style=" stroke:none;fill-rule:nonzero;fill:rgb(48.522448%,58.234954%,74.570883%);fill-opacity:1;" d="M 259.199219 163.199219 L 278.398438 163.199219 L 278.398438 182.398438 L 259.199219 182.398438 Z M 259.199219 163.199219 "/>
<path style=" stroke:none;fill-rule:nonzero;fill:rgb(48.522448%,58.234954%,74.570883%);fill-opacity:1;" d="M 278.398438 163.199219 L 297.601562 163.199219 L 297.601562 182.398438 L 278.398438 182.398438 Z M 278.398438 163.199219 "/>
<path style=" stroke:none;fill-rule:nonzero;fill:rgb(48.522448%,58.234954%,74.570883%);fill-opacity:1;" d="M 297.601562 163.199219 L 316.800781 163.199219 L 316.800781 182.398438 L 297.601562 182.398438 Z M 297.601562 163.199219 "/>
<path style=" stroke:none;fill-rule:nonzero;fill:rgb(48.522448%,58.234954%,74.570883%);fill-opacity:1;" d="M 316.800781 163.199219 L 336 163.199219 L 336 182.398438 L 316.800781 182.398438 Z M 316.800781 163.199219 "/>
<path style=" stroke:none;fill-rule:nonzero;fill:rgb(48.522448%,58.234954%,74.570883%);fill-opacity:1;" d="M 336 163.199219 L 355.199219 163.199219 L 355.199219 182.398438 L 336 182.398438 Z M 336 163.199219 "/>
<path style=" stroke:none;fill-rule:nonzero;fill:rgb(48.522448%,58.234954%,74.570883%);fill-opacity:1;" d="M 355.199219 163.199219 L 374.398438 163.199219 L 374.398438 182.398438 L 355.199219 182.398438 Z M 355.199219 163.199219 "/>
<path style=" stroke:none;fill-rule:nonzero;fill:rgb(48.522448%,58.234954%,74.570883%);fill-opacity:1;" d="M 374.398438 163.199219 L 393.601562 163.199219 L 393.601562 182.398438 L 374.398438 182.398438 Z M 374.398438 163.199219 "/>
<path style=" stroke:none;fill-rule:nonzero;fill:rgb(48.522448%,58.234954%,74.570883%);fill-opacity:1;" d="M 393.601562 163.199219 L 412.800781 163.199219 L 412.800781 182.398438 L 393.601562 182.398438 Z M 393.601562 163.199219 "/>
<path style=" stroke:none;fill-rule:nonzero;fill:rgb(48.522448%,58.234954%,74.570883%);fill-opacity:1;" d="M 412.800781 163.199219 L 432 163.199219 L 432 182.398438 L 412.800781 182.398438 Z M 412.800781 163.199219 "/>
<path style=" stroke:none;fill-rule:nonzero;fill:rgb(89.360744%,66.400409%,37.504946%);fill-opacity:1;" d="M 48 182.398438 L 67.199219 182.398438 L 67.199219 201.601562 L 48 201.601562 Z M 48 182.398438 "/>
<path style=" stroke:none;fill-rule:nonzero;fill:rgb(48.522448%,58.234954%,74.570883%);fill-opacity:1;" d="M 67.199219 182.398438 L 86.398438 182.398438 L 86.398438 201.601562 L 67.199219 201.601562 Z M 67.199219 182.398438 "/>
<path style=" stroke:none;fill-rule:nonzero;fill:rgb(89.360744%,66.400409%,37.504946%);fill-opacity:1;" d="M 86.398438 182.398438 L 105.601562 182.398438 L 105.601562 201.601562 L 86.398438 201.601562 Z M 86.398438 182.398438 "/>
<path style=" stroke:none;fill-rule:nonzero;fill:rgb(89.360744%,66.400409%,37.504946%);fill-opacity:1;" d="M 105.601562 182.398438 L 124.800781 182.398438 L 124.800781 201.601562 L 105.601562 201.601562 Z M 105.601562 182.398438 "/>
<path style=" stroke:none;fill-rule:nonzero;fill:rgb(89.360744%,66.400409%,37.504946%);fill-opacity:1;" d="M 124.800781 182.398438 L 144 182.398438 L 144 201.601562 L 124.800781 201.601562 Z M 124.800781 182.398438 "/>
<path style=" stroke:none;fill-rule:nonzero;fill:rgb(89.360744%,66.400409%,37.504946%);fill-opacity:1;" d="M 144 182.398438 L 163.199219 182.398438 L 163.199219 201.601562 L 144 201.601562 Z M 144 182.398438 "/>
<path style=" stroke:none;fill-rule:nonzero;fill:rgb(89.360744%,66.400409%,37.504946%);fill-opacity:1;" d="M 163.199219 182.398438 L 182.398438 182.398438 L 182.398438 201.601562 L 163.199219 201.601562 Z M 163.199219 182.398438 "/>
<path style=" stroke:none;fill-rule:nonzero;fill:rgb(86.3657%,65.642187%,43.150644%);fill-opacity:1;" d="M 182.398438 182.398438 L 201.601562 182.398438 L 201.601562 201.601562 L 182.398438 201.601562 Z M 182.398438 182.398438 "/>
<path style=" stroke:none;fill-rule:nonzero;fill:rgb(86.643629%,65.711583%,42.675186%);fill-opacity:1;" d="M 201.601562 182.398438 L 220.800781 182.398438 L 220.800781 201.601562 L 201.601562 201.601562 Z M 201.601562 182.398438 "/>
<path style=" stroke:none;fill-rule:nonzero;fill:rgb(86.643629%,65.711583%,42.675186%);fill-opacity:1;" d="M 220.800781 182.398438 L 240 182.398438 L 240 201.601562 L 220.800781 201.601562 Z M 220.800781 182.398438 "/>
<path style=" stroke:none;fill-rule:nonzero;fill:rgb(86.643629%,65.711583%,42.675186%);fill-opacity:1;" d="M 240 182.398438 L 259.199219 182.398438 L 259.199219 201.601562 L 240 201.601562 Z M 240 182.398438 "/>
<path style=" stroke:none;fill-rule:nonzero;fill:rgb(86.643629%,65.711583%,42.675186%);fill-opacity:1;" d="M 259.199219 182.398438 L 278.398438 182.398438 L 278.398438 201.601562 L 259.199219 201.601562 Z M 259.199219 182.398438 "/>
<path style=" stroke:none;fill-rule:nonzero;fill:rgb(86.643629%,65.711583%,42.675186%);fill-opacity:1;" d="M 278.398438 182.398438 L 297.601562 182.398438 L 297.601562 201.601562 L 278.398438 201.601562 Z M 278.398438 182.398438 "/>
<path style=" stroke:none;fill-rule:nonzero;fill:rgb(86.643629%,65.711583%,42.675186%);fill-opacity:1;" d="M 297.601562 182.398438 L 316.800781 182.398438 L 316.800781 201.601562 L 297.601562 201.601562 Z M 297.601562 182.398438 "/>
<path style=" stroke:none;fill-rule:nonzero;fill:rgb(86.643629%,65.711583%,42.675186%);fill-opacity:1;" d="M 316.800781 182.398438 L 336 182.398438 L 336 201.601562 L 316.800781 201.601562 Z M 316.800781 182.398438 "/>
<path style=" stroke:none;fill-rule:nonzero;fill:rgb(86.643629%,65.711583%,42.675186%);fill-opacity:1;" d="M 336 182.398438 L 355.199219 182.398438 L 355.199219 201.601562 L 336 201.601562 Z M 336 182.398438 "/>
<path style=" stroke:none;fill-rule:nonzero;fill:rgb(86.643629%,65.711583%,42.675186%);fill-opacity:1;" d="M 355.199219 182.398438 L 374.398438 182.398438 L 374.398438 201.601562 L 355.199219 201.601562 Z M 355.199219 182.398438 "/>
<path style=" stroke:none;fill-rule:nonzero;fill:rgb(86.643629%,65.711583%,42.675186%);fill-opacity:1;" d="M 374.398438 182.398438 L 393.601562 182.398438 L 393.601562 201.601562 L 374.398438 201.601562 Z M 374.398438 182.398438 "/>
<path style=" stroke:none;fill-rule:nonzero;fill:rgb(86.643629%,65.711583%,42.675186%);fill-opacity:1;" d="M 393.601562 182.398438 L 412.800781 182.398438 L 412.800781 201.601562 L 393.601562 201.601562 Z M 393.601562 182.398438 "/>
<path style=" stroke:none;fill-rule:nonzero;fill:rgb(86.643629%,65.711583%,42.675186%);fill-opacity:1;" d="M 412.800781 182.398438 L 432 182.398438 L 432 201.601562 L 412.800781 201.601562 Z M 412.800781 182.398438 "/>
<path style=" stroke:none;fill-rule:nonzero;fill:rgb(89.360744%,66.400409%,37.504946%);fill-opacity:1;" d="M 48 201.601562 L 67.199219 201.601562 L 67.199219 220.800781 L 48 220.800781 Z M 48 201.601562 "/>
<path style=" stroke:none;fill-rule:nonzero;fill:rgb(48.522448%,58.234954%,74.570883%);fill-opacity:1;" d="M 67.199219 201.601562 L 86.398438 201.601562 L 86.398438 220.800781 L 67.199219 220.800781 Z M 67.199219 201.601562 "/>
<path style=" stroke:none;fill-rule:nonzero;fill:rgb(89.360744%,66.400409%,37.504946%);fill-opacity:1;" d="M 86.398438 201.601562 L 105.601562 201.601562 L 105.601562 220.800781 L 86.398438 220.800781 Z M 86.398438 201.601562 "/>
<path style=" stroke:none;fill-rule:nonzero;fill:rgb(89.360744%,66.400409%,37.504946%);fill-opacity:1;" d="M 105.601562 201.601562 L 124.800781 201.601562 L 124.800781 220.800781 L 105.601562 220.800781 Z M 105.601562 201.601562 "/>
<path style=" stroke:none;fill-rule:nonzero;fill:rgb(89.360744%,66.400409%,37.504946%);fill-opacity:1;" d="M 124.800781 201.601562 L 144 201.601562 L 144 220.800781 L 124.800781 220.800781 Z M 124.800781 201.601562 "/>
<path style=" stroke:none;fill-rule:nonzero;fill:rgb(89.360744%,66.400409%,37.504946%);fill-opacity:1;" d="M 144 201.601562 L 163.199219 201.601562 L 163.199219 220.800781 L 144 220.800781 Z M 144 201.601562 "/>
<path style=" stroke:none;fill-rule:nonzero;fill:rgb(89.360744%,66.400409%,37.504946%);fill-opacity:1;" d="M 163.199219 201.601562 L 182.398438 201.601562 L 182.398438 220.800781 L 163.199219 220.800781 Z M 163.199219 201.601562 "/>
<path style=" stroke:none;fill-rule:nonzero;fill:rgb(84.567407%,65.197996%,46.037062%);fill-opacity:1;" d="M 182.398438 201.601562 L 201.601562 201.601562 L 201.601562 220.800781 L 182.398438 220.800781 Z M 182.398438 201.601562 "/>
<path style=" stroke:none;fill-rule:nonzero;fill:rgb(85.242025%,65.363646%,44.990534%);fill-opacity:1;" d="M 201.601562 201.601562 L 220.800781 201.601562 L 220.800781 220.800781 L 201.601562 220.800781 Z M 201.601562 201.601562 "/>
<path style=" stroke:none;fill-rule:nonzero;fill:rgb(85.242025%,65.363646%,44.990534%);fill-opacity:1;" d="M 220.800781 201.601562 L 240 201.601562 L 240 220.800781 L 220.800781 220.800781 Z M 220.800781 201.601562 "/>
<path style=" stroke:none;fill-rule:nonzero;fill:rgb(85.242025%,65.363646%,44.990534%);fill-opacity:1;" d="M 240 201.601562 L 259.199219 201.601562 L 259.199219 220.800781 L 240 220.800781 Z M 240 201.601562 "/>
<path style=" stroke:none;fill-rule:nonzero;fill:rgb(85.242025%,65.363646%,44.990534%);fill-opacity:1;" d="M 259.199219 201.601562 L 278.398438 201.601562 L 278.398438 220.800781 L 259.199219 220.800781 Z M 259.199219 201.601562 "/>
<path style=" stroke:none;fill-rule:nonzero;fill:rgb(85.242025%,65.363646%,44.990534%);fill-opacity:1;" d="M 278.398438 201.601562 L 297.601562 201.601562 L 297.601562 220.800781 L 278.398438 220.800781 Z M 278.398438 201.601562 "/>
<path style=" stroke:none;fill-rule:nonzero;fill:rgb(85.242025%,65.363646%,44.990534%);fill-opacity:1;" d="M 297.601562 201.601562 L 316.800781 201.601562 L 316.800781 220.800781 L 297.601562 220.800781 Z M 297.601562 201.601562 "/>
<path style=" stroke:none;fill-rule:nonzero;fill:rgb(85.242025%,65.363646%,44.990534%);fill-opacity:1;" d="M 316.800781 201.601562 L 336 201.601562 L 336 220.800781 L 316.800781 220.800781 Z M 316.800781 201.601562 "/>
<path style=" stroke:none;fill-rule:nonzero;fill:rgb(85.242025%,65.363646%,44.990534%);fill-opacity:1;" d="M 336 201.601562 L 355.199219 201.601562 L 355.199219 220.800781 L 336 220.800781 Z M 336 201.601562 "/>
<path style=" stroke:none;fill-rule:nonzero;fill:rgb(85.242025%,65.363646%,44.990534%);fill-opacity:1;" d="M 355.199219 201.601562 L 374.398438 201.601562 L 374.398438 220.800781 L 355.199219 220.800781 Z M 355.199219 201.601562 "/>
<path style=" stroke:none;fill-rule:nonzero;fill:rgb(85.242025%,65.363646%,44.990534%);fill-opacity:1;" d="M 374.398438 201.601562 L 393.601562 201.601562 L 393.601562 220.800781 L 374.398438 220.800781 Z M 374.398438 201.601562 "/>
<path style=" stroke:none;fill-rule:nonzero;fill:rgb(85.242025%,65.363646%,44.990534%);fill-opacity:1;" d="M 393.601562 201.601562 L 412.800781 201.601562 L 412.800781 220.800781 L 393.601562 220.800781 Z M 393.601562 201.601562 "/>
<path style=" stroke:none;fill-rule:nonzero;fill:rgb(85.242025%,65.363646%,44.990534%);fill-opacity:1;" d="M 412.800781 201.601562 L 432 201.601562 L 432 220.800781 L 412.800781 220.800781 Z M 412.800781 201.601562 "/>
<path style=" stroke:none;fill-rule:nonzero;fill:rgb(89.360744%,66.400409%,37.504946%);fill-opacity:1;" d="M 48 220.800781 L 67.199219 220.800781 L 67.199219 240 L 48 240 Z M 48 220.800781 "/>
<path style=" stroke:none;fill-rule:nonzero;fill:rgb(48.522448%,58.234954%,74.570883%);fill-opacity:1;" d="M 67.199219 220.800781 L 86.398438 220.800781 L 86.398438 240 L 67.199219 240 Z M 67.199219 220.800781 "/>
<path style=" stroke:none;fill-rule:nonzero;fill:rgb(89.360744%,66.400409%,37.504946%);fill-opacity:1;" d="M 86.398438 220.800781 L 105.601562 220.800781 L 105.601562 240 L 86.398438 240 Z M 86.398438 220.800781 "/>
<path style=" stroke:none;fill-rule:nonzero;fill:rgb(89.360744%,66.400409%,37.504946%);fill-opacity:1;" d="M 105.601562 220.800781 L 124.800781 220.800781 L 124.800781 240 L 105.601562 240 Z M 105.601562 220.800781 "/>
<path style=" stroke:none;fill-rule:nonzero;fill:rgb(89.360744%,66.400409%,37.504946%);fill-opacity:1;" d="M 124.800781 220.800781 L 144 220.800781 L 144 240 L 124.800781 240 Z M 124.800781 220.800781 "/>
<path style=" stroke:none;fill-rule:nonzero;fill:rgb(89.360744%,66.400409%,37.504946%);fill-opacity:1;" d="M 144 220.800781 L 163.199219 220.800781 L 163.199219 240 L 144 240 Z M 144 220.800781 "/>
<path style=" stroke:none;fill-rule:nonzero;fill:rgb(89.360744%,66.400409%,37.504946%);fill-opacity:1;" d="M 163.199219 220.800781 L 182.398438 220.800781 L 182.398438 240 L 163.199219 240 Z M 163.199219 220.800781 "/>
<path style=" stroke:none;fill-rule:nonzero;fill:rgb(84.567407%,65.197996%,46.037062%);fill-opacity:1;" d="M 182.398438 220.800781 L 201.601562 220.800781 L 201.601562 240 L 182.398438 240 Z M 182.398438 220.800781 "/>
<path style=" stroke:none;fill-rule:nonzero;fill:rgb(85.242025%,65.363646%,44.990534%);fill-opacity:1;" d="M 201.601562 220.800781 L 220.800781 220.800781 L 220.800781 240 L 201.601562 240 Z M 201.601562 220.800781 "/>
<path style=" stroke:none;fill-rule:nonzero;fill:rgb(85.242025%,65.363646%,44.990534%);fill-opacity:1;" d="M 220.800781 220.800781 L 240 220.800781 L 240 240 L 220.800781 240 Z M 220.800781 220.800781 "/>
<path style=" stroke:none;fill-rule:nonzero;fill:rgb(85.242025%,65.363646%,44.990534%);fill-opacity:1;" d="M 240 220.800781 L 259.199219 220.800781 L 259.199219 240 L 240 240 Z M 240 220.800781 "/>
<path style=" stroke:none;fill-rule:nonzero;fill:rgb(85.242025%,65.363646%,44.990534%);fill-opacity:1;" d="M 259.199219 220.800781 L 278.398438 220.800781 L 278.398438 240 L 259.199219 240 Z M 259.199219 220.800781 "/>
<path style=" stroke:none;fill-rule:nonzero;fill:rgb(85.242025%,65.363646%,44.990534%);fill-opacity:1;" d="M 278.398438 220.800781 L 297.601562 220.800781 L 297.601562 240 L 278.398438 240 Z M 278.398438 220.800781 "/>
<path style=" stroke:none;fill-rule:nonzero;fill:rgb(85.242025%,65.363646%,44.990534%);fill-opacity:1;" d="M 297.601562 220.800781 L 316.800781 220.800781 L 316.800781 240 L 297.601562 240 Z M 297.601562 220.800781 "/>
<path style=" stroke:none;fill-rule:nonzero;fill:rgb(85.242025%,65.363646%,44.990534%);fill-opacity:1;" d="M 316.800781 220.800781 L 336 220.800781 L 336 240 L 316.800781 240 Z M 316.800781 220.800781 "/>
<path style=" stroke:none;fill-rule:nonzero;fill:rgb(85.242025%,65.363646%,44.990534%);fill-opacity:1;" d="M 336 220.800781 L 355.199219 220.800781 L 355.199219 240 L 336 240 Z M 336 220.800781 "/>
<path style=" stroke:none;fill-rule:nonzero;fill:rgb(85.242025%,65.363646%,44.990534%);fill-opacity:1;" d="M 355.199219 220.800781 L 374.398438 220.800781 L 374.398438 240 L 355.199219 240 Z M 355.199219 220.800781 "/>
<path style=" stroke:none;fill-rule:nonzero;fill:rgb(85.242025%,65.363646%,44.990534%);fill-opacity:1;" d="M 374.398438 220.800781 L 393.601562 220.800781 L 393.601562 240 L 374.398438 240 Z M 374.398438 220.800781 "/>
<path style=" stroke:none;fill-rule:nonzero;fill:rgb(85.242025%,65.363646%,44.990534%);fill-opacity:1;" d="M 393.601562 220.800781 L 412.800781 220.800781 L 412.800781 240 L 393.601562 240 Z M 393.601562 220.800781 "/>
<path style=" stroke:none;fill-rule:nonzero;fill:rgb(85.242025%,65.363646%,44.990534%);fill-opacity:1;" d="M 412.800781 220.800781 L 432 220.800781 L 432 240 L 412.800781 240 Z M 412.800781 220.800781 "/>
<path style=" stroke:none;fill-rule:nonzero;fill:rgb(89.360744%,66.400409%,37.504946%);fill-opacity:1;" d="M 48 240 L 67.199219 240 L 67.199219 259.199219 L 48 259.199219 Z M 48 240 "/>
<path style=" stroke:none;fill-rule:nonzero;fill:rgb(48.522448%,58.234954%,74.570883%);fill-opacity:1;" d="M 67.199219 240 L 86.398438 240 L 86.398438 259.199219 L 67.199219 259.199219 Z M 67.199219 240 "/>
<path style=" stroke:none;fill-rule:nonzero;fill:rgb(89.360744%,66.400409%,37.504946%);fill-opacity:1;" d="M 86.398438 240 L 105.601562 240 L 105.601562 259.199219 L 86.398438 259.199219 Z M 86.398438 240 "/>
<path style=" stroke:none;fill-rule:nonzero;fill:rgb(89.360744%,66.400409%,37.504946%);fill-opacity:1;" d="M 105.601562 240 L 124.800781 240 L 124.800781 259.199219 L 105.601562 259.199219 Z M 105.601562 240 "/>
<path style=" stroke:none;fill-rule:nonzero;fill:rgb(89.360744%,66.400409%,37.504946%);fill-opacity:1;" d="M 124.800781 240 L 144 240 L 144 259.199219 L 124.800781 259.199219 Z M 124.800781 240 "/>
<path style=" stroke:none;fill-rule:nonzero;fill:rgb(89.360744%,66.400409%,37.504946%);fill-opacity:1;" d="M 144 240 L 163.199219 240 L 163.199219 259.199219 L 144 259.199219 Z M 144 240 "/>
<path style=" stroke:none;fill-rule:nonzero;fill:rgb(89.360744%,66.400409%,37.504946%);fill-opacity:1;" d="M 163.199219 240 L 182.398438 240 L 182.398438 259.199219 L 163.199219 259.199219 Z M 163.199219 240 "/>
<path style=" stroke:none;fill-rule:nonzero;fill:rgb(84.567407%,65.197996%,46.037062%);fill-opacity:1;" d="M 182.398438 240 L 201.601562 240 L 201.601562 259.199219 L 182.398438 259.199219 Z M 182.398438 240 "/>
<path style=" stroke:none;fill-rule:nonzero;fill:rgb(85.242025%,65.363646%,44.990534%);fill-opacity:1;" d="M 201.601562 240 L 220.800781 240 L 220.800781 259.199219 L 201.601562 259.199219 Z M 201.601562 240 "/>
<path style=" stroke:none;fill-rule:nonzero;fill:rgb(85.242025%,65.363646%,44.990534%);fill-opacity:1;" d="M 220.800781 240 L 240 240 L 240 259.199219 L 220.800781 259.199219 Z M 220.800781 240 "/>
<path style=" stroke:none;fill-rule:nonzero;fill:rgb(85.242025%,65.363646%,44.990534%);fill-opacity:1;" d="M 240 240 L 259.199219 240 L 259.199219 259.199219 L 240 259.199219 Z M 240 240 "/>
<path style=" stroke:none;fill-rule:nonzero;fill:rgb(85.242025%,65.363646%,44.990534%);fill-opacity:1;" d="M 259.199219 240 L 278.398438 240 L 278.398438 259.199219 L 259.199219 259.199219 Z M 259.199219 240 "/>
<path style=" stroke:none;fill-rule:nonzero;fill:rgb(85.242025%,65.363646%,44.990534%);fill-opacity:1;" d="M 278.398438 240 L 297.601562 240 L 297.601562 259.199219 L 278.398438 259.199219 Z M 278.398438 240 "/>
<path style=" stroke:none;fill-rule:nonzero;fill:rgb(85.242025%,65.363646%,44.990534%);fill-opacity:1;" d="M 297.601562 240 L 316.800781 240 L 316.800781 259.199219 L 297.601562 259.199219 Z M 297.601562 240 "/>
<path style=" stroke:none;fill-rule:nonzero;fill:rgb(85.242025%,65.363646%,44.990534%);fill-opacity:1;" d="M 316.800781 240 L 336 240 L 336 259.199219 L 316.800781 259.199219 Z M 316.800781 240 "/>
<path style=" stroke:none;fill-rule:nonzero;fill:rgb(85.242025%,65.363646%,44.990534%);fill-opacity:1;" d="M 336 240 L 355.199219 240 L 355.199219 259.199219 L 336 259.199219 Z M 336 240 "/>
<path style=" stroke:none;fill-rule:nonzero;fill:rgb(85.242025%,65.363646%,44.990534%);fill-opacity:1;" d="M 355.199219 240 L 374.398438 240 L 374.398438 259.199219 L 355.199219 259.199219 Z M 355.199219 240 "/>
<path style=" stroke:none;fill-rule:nonzero;fill:rgb(85.242025%,65.363646%,44.990534%);fill-opacity:1;" d="M 374.398438 240 L 393.601562 240 L 393.601562 259.199219 L 374.398438 259.199219 Z M 374.398438 240 "/>
<path style=" stroke:none;fill-rule:nonzero;fill:rgb(85.242025%,65.363646%,44.990534%);fill-opacity:1;" d="M 393.601562 240 L 412.800781 240 L 412.800781 259.199219 L 393.601562 259.199219 Z M 393.601562 240 "/>
<path style=" stroke:none;fill-rule:nonzero;fill:rgb(85.242025%,65.363646%,44.990534%);fill-opacity:1;" d="M 412.800781 240 L 432 240 L 432 259.199219 L 412.800781 259.199219 Z M 412.800781 240 "/>
<path style=" stroke:none;fill-rule:nonzero;fill:rgb(89.360744%,66.400409%,37.504946%);fill-opacity:1;" d="M 48 259.199219 L 67.199219 259.199219 L 67.199219 278.398438 L 48 278.398438 Z M 48 259.199219 "/>
<path style=" stroke:none;fill-rule:nonzero;fill:rgb(48.522448%,58.234954%,74.570883%);fill-opacity:1;" d="M 67.199219 259.199219 L 86.398438 259.199219 L 86.398438 278.398438 L 67.199219 278.398438 Z M 67.199219 259.199219 "/>
<path style=" stroke:none;fill-rule:nonzero;fill:rgb(89.360744%,66.400409%,37.504946%);fill-opacity:1;" d="M 86.398438 259.199219 L 105.601562 259.199219 L 105.601562 278.398438 L 86.398438 278.398438 Z M 86.398438 259.199219 "/>
<path style=" stroke:none;fill-rule:nonzero;fill:rgb(89.360744%,66.400409%,37.504946%);fill-opacity:1;" d="M 105.601562 259.199219 L 124.800781 259.199219 L 124.800781 278.398438 L 105.601562 278.398438 Z M 105.601562 259.199219 "/>
<path style=" stroke:none;fill-rule:nonzero;fill:rgb(89.360744%,66.400409%,37.504946%);fill-opacity:1;" d="M 124.800781 259.199219 L 144 259.199219 L 144 278.398438 L 124.800781 278.398438 Z M 124.800781 259.199219 "/>
<path style=" stroke:none;fill-rule:nonzero;fill:rgb(89.360744%,66.400409%,37.504946%);fill-opacity:1;" d="M 144 259.199219 L 163.199219 259.199219 L 163.199219 278.398438 L 144 278.398438 Z M 144 259.199219 "/>
<path style=" stroke:none;fill-rule:nonzero;fill:rgb(89.360744%,66.400409%,37.504946%);fill-opacity:1;" d="M 163.199219 259.199219 L 182.398438 259.199219 L 182.398438 278.398438 L 163.199219 278.398438 Z M 163.199219 259.199219 "/>
<path style=" stroke:none;fill-rule:nonzero;fill:rgb(84.567407%,65.197996%,46.037062%);fill-opacity:1;" d="M 182.398438 259.199219 L 201.601562 259.199219 L 201.601562 278.398438 L 182.398438 278.398438 Z M 182.398438 259.199219 "/>
<path style=" stroke:none;fill-rule:nonzero;fill:rgb(85.242025%,65.363646%,44.990534%);fill-opacity:1;" d="M 201.601562 259.199219 L 220.800781 259.199219 L 220.800781 278.398438 L 201.601562 278.398438 Z M 201.601562 259.199219 "/>
<path style=" stroke:none;fill-rule:nonzero;fill:rgb(85.242025%,65.363646%,44.990534%);fill-opacity:1;" d="M 220.800781 259.199219 L 240 259.199219 L 240 278.398438 L 220.800781 278.398438 Z M 220.800781 259.199219 "/>
<path style=" stroke:none;fill-rule:nonzero;fill:rgb(85.242025%,65.363646%,44.990534%);fill-opacity:1;" d="M 240 259.199219 L 259.199219 259.199219 L 259.199219 278.398438 L 240 278.398438 Z M 240 259.199219 "/>
<path style=" stroke:none;fill-rule:nonzero;fill:rgb(85.242025%,65.363646%,44.990534%);fill-opacity:1;" d="M 259.199219 259.199219 L 278.398438 259.199219 L 278.398438 278.398438 L 259.199219 278.398438 Z M 259.199219 259.199219 "/>
<path style=" stroke:none;fill-rule:nonzero;fill:rgb(85.242025%,65.363646%,44.990534%);fill-opacity:1;" d="M 278.398438 259.199219 L 297.601562 259.199219 L 297.601562 278.398438 L 278.398438 278.398438 Z M 278.398438 259.199219 "/>
<path style=" stroke:none;fill-rule:nonzero;fill:rgb(85.242025%,65.363646%,44.990534%);fill-opacity:1;" d="M 297.601562 259.199219 L 316.800781 259.199219 L 316.800781 278.398438 L 297.601562 278.398438 Z M 297.601562 259.199219 "/>
<path style=" stroke:none;fill-rule:nonzero;fill:rgb(85.242025%,65.363646%,44.990534%);fill-opacity:1;" d="M 316.800781 259.199219 L 336 259.199219 L 336 278.398438 L 316.800781 278.398438 Z M 316.800781 259.199219 "/>
<path style=" stroke:none;fill-rule:nonzero;fill:rgb(85.242025%,65.363646%,44.990534%);fill-opacity:1;" d="M 336 259.199219 L 355.199219 259.199219 L 355.199219 278.398438 L 336 278.398438 Z M 336 259.199219 "/>
<path style=" stroke:none;fill-rule:nonzero;fill:rgb(85.242025%,65.363646%,44.990534%);fill-opacity:1;" d="M 355.199219 259.199219 L 374.398438 259.199219 L 374.398438 278.398438 L 355.199219 278.398438 Z M 355.199219 259.199219 "/>
<path style=" stroke:none;fill-rule:nonzero;fill:rgb(85.242025%,65.363646%,44.990534%);fill-opacity:1;" d="M 374.398438 259.199219 L 393.601562 259.199219 L 393.601562 278.398438 L 374.398438 278.398438 Z M 374.398438 259.199219 "/>
<path style=" stroke:none;fill-rule:nonzero;fill:rgb(85.242025%,65.363646%,44.990534%);fill-opacity:1;" d="M 393.601562 259.199219 L 412.800781 259.199219 L 412.800781 278.398438 L 393.601562 278.398438 Z M 393.601562 259.199219 "/>
<path style=" stroke:none;fill-rule:nonzero;fill:rgb(85.242025%,65.363646%,44.990534%);fill-opacity:1;" d="M 412.800781 259.199219 L 432 259.199219 L 432 278.398438 L 412.800781 278.398438 Z M 412.800781 259.199219 "/>
<path style=" stroke:none;fill-rule:nonzero;fill:rgb(89.360744%,66.400409%,37.504946%);fill-opacity:1;" d="M 48 278.398438 L 67.199219 278.398438 L 67.199219 297.601562 L 48 297.601562 Z M 48 278.398438 "/>
<path style=" stroke:none;fill-rule:nonzero;fill:rgb(48.522448%,58.234954%,74.570883%);fill-opacity:1;" d="M 67.199219 278.398438 L 86.398438 278.398438 L 86.398438 297.601562 L 67.199219 297.601562 Z M 67.199219 278.398438 "/>
<path style=" stroke:none;fill-rule:nonzero;fill:rgb(89.360744%,66.400409%,37.504946%);fill-opacity:1;" d="M 86.398438 278.398438 L 105.601562 278.398438 L 105.601562 297.601562 L 86.398438 297.601562 Z M 86.398438 278.398438 "/>
<path style=" stroke:none;fill-rule:nonzero;fill:rgb(89.360744%,66.400409%,37.504946%);fill-opacity:1;" d="M 105.601562 278.398438 L 124.800781 278.398438 L 124.800781 297.601562 L 105.601562 297.601562 Z M 105.601562 278.398438 "/>
<path style=" stroke:none;fill-rule:nonzero;fill:rgb(89.360744%,66.400409%,37.504946%);fill-opacity:1;" d="M 124.800781 278.398438 L 144 278.398438 L 144 297.601562 L 124.800781 297.601562 Z M 124.800781 278.398438 "/>
<path style=" stroke:none;fill-rule:nonzero;fill:rgb(89.360744%,66.400409%,37.504946%);fill-opacity:1;" d="M 144 278.398438 L 163.199219 278.398438 L 163.199219 297.601562 L 144 297.601562 Z M 144 278.398438 "/>
<path style=" stroke:none;fill-rule:nonzero;fill:rgb(89.360744%,66.400409%,37.504946%);fill-opacity:1;" d="M 163.199219 278.398438 L 182.398438 278.398438 L 182.398438 297.601562 L 163.199219 297.601562 Z M 163.199219 278.398438 "/>
<path style=" stroke:none;fill-rule:nonzero;fill:rgb(82.508457%,64.699824%,48.999315%);fill-opacity:1;" d="M 182.398438 278.398438 L 201.601562 278.398438 L 201.601562 297.601562 L 182.398438 297.601562 Z M 182.398438 278.398438 "/>
<path style=" stroke:none;fill-rule:nonzero;fill:rgb(83.809437%,65.013301%,47.166027%);fill-opacity:1;" d="M 201.601562 278.398438 L 220.800781 278.398438 L 220.800781 297.601562 L 201.601562 297.601562 Z M 201.601562 278.398438 "/>
<path style=" stroke:none;fill-rule:nonzero;fill:rgb(83.809437%,65.013301%,47.166027%);fill-opacity:1;" d="M 220.800781 278.398438 L 240 278.398438 L 240 297.601562 L 220.800781 297.601562 Z M 220.800781 278.398438 "/>
<path style=" stroke:none;fill-rule:nonzero;fill:rgb(83.809437%,65.013301%,47.166027%);fill-opacity:1;" d="M 240 278.398438 L 259.199219 278.398438 L 259.199219 297.601562 L 240 297.601562 Z M 240 278.398438 "/>
<path style=" stroke:none;fill-rule:nonzero;fill:rgb(83.809437%,65.013301%,47.166027%);fill-opacity:1;" d="M 259.199219 278.398438 L 278.398438 278.398438 L 278.398438 297.601562 L 259.199219 297.601562 Z M 259.199219 278.398438 "/>
<path style=" stroke:none;fill-rule:nonzero;fill:rgb(83.809437%,65.013301%,47.166027%);fill-opacity:1;" d="M 278.398438 278.398438 L 297.601562 278.398438 L 297.601562 297.601562 L 278.398438 297.601562 Z M 278.398438 278.398438 "/>
<path style=" stroke:none;fill-rule:nonzero;fill:rgb(83.809437%,65.013301%,47.166027%);fill-opacity:1;" d="M 297.601562 278.398438 L 316.800781 278.398438 L 316.800781 297.601562 L 297.601562 297.601562 Z M 297.601562 278.398438 "/>
<path style=" stroke:none;fill-rule:nonzero;fill:rgb(83.809437%,65.013301%,47.166027%);fill-opacity:1;" d="M 316.800781 278.398438 L 336 278.398438 L 336 297.601562 L 316.800781 297.601562 Z M 316.800781 278.398438 "/>
<path style=" stroke:none;fill-rule:nonzero;fill:rgb(83.809437%,65.013301%,47.166027%);fill-opacity:1;" d="M 336 278.398438 L 355.199219 278.398438 L 355.199219 297.601562 L 336 297.601562 Z M 336 278.398438 "/>
<path style=" stroke:none;fill-rule:nonzero;fill:rgb(83.809437%,65.013301%,47.166027%);fill-opacity:1;" d="M 355.199219 278.398438 L 374.398438 278.398438 L 374.398438 297.601562 L 355.199219 297.601562 Z M 355.199219 278.398438 "/>
<path style=" stroke:none;fill-rule:nonzero;fill:rgb(83.809437%,65.013301%,47.166027%);fill-opacity:1;" d="M 374.398438 278.398438 L 393.601562 278.398438 L 393.601562 297.601562 L 374.398438 297.601562 Z M 374.398438 278.398438 "/>
<path style=" stroke:none;fill-rule:nonzero;fill:rgb(83.809437%,65.013301%,47.166027%);fill-opacity:1;" d="M 393.601562 278.398438 L 412.800781 278.398438 L 412.800781 297.601562 L 393.601562 297.601562 Z M 393.601562 278.398438 "/>
<path style=" stroke:none;fill-rule:nonzero;fill:rgb(83.809437%,65.013301%,47.166027%);fill-opacity:1;" d="M 412.800781 278.398438 L 432 278.398438 L 432 297.601562 L 412.800781 297.601562 Z M 412.800781 278.398438 "/>
<path style=" stroke:none;fill-rule:nonzero;fill:rgb(48.522448%,58.234954%,74.570883%);fill-opacity:1;" d="M 48 297.601562 L 67.199219 297.601562 L 67.199219 316.800781 L 48 316.800781 Z M 48 297.601562 "/>
<path style=" stroke:none;fill-rule:nonzero;fill:rgb(48.522448%,58.234954%,74.570883%);fill-opacity:1;" d="M 67.199219 297.601562 L 86.398438 297.601562 L 86.398438 316.800781 L 67.199219 316.800781 Z M 67.199219 297.601562 "/>
<path style=" stroke:none;fill-rule:nonzero;fill:rgb(48.522448%,58.234954%,74.570883%);fill-opacity:1;" d="M 86.398438 297.601562 L 105.601562 297.601562 L 105.601562 316.800781 L 86.398438 316.800781 Z M 86.398438 297.601562 "/>
<path style=" stroke:none;fill-rule:nonzero;fill:rgb(48.522448%,58.234954%,74.570883%);fill-opacity:1;" d="M 105.601562 297.601562 L 124.800781 297.601562 L 124.800781 316.800781 L 105.601562 316.800781 Z M 105.601562 297.601562 "/>
<path style=" stroke:none;fill-rule:nonzero;fill:rgb(48.522448%,58.234954%,74.570883%);fill-opacity:1;" d="M 124.800781 297.601562 L 144 297.601562 L 144 316.800781 L 124.800781 316.800781 Z M 124.800781 297.601562 "/>
<path style=" stroke:none;fill-rule:nonzero;fill:rgb(48.522448%,58.234954%,74.570883%);fill-opacity:1;" d="M 144 297.601562 L 163.199219 297.601562 L 163.199219 316.800781 L 144 316.800781 Z M 144 297.601562 "/>
<path style=" stroke:none;fill-rule:nonzero;fill:rgb(48.522448%,58.234954%,74.570883%);fill-opacity:1;" d="M 163.199219 297.601562 L 182.398438 297.601562 L 182.398438 316.800781 L 163.199219 316.800781 Z M 163.199219 297.601562 "/>
<path style=" stroke:none;fill-rule:nonzero;fill:rgb(48.522448%,58.234954%,74.570883%);fill-opacity:1;" d="M 182.398438 297.601562 L 201.601562 297.601562 L 201.601562 316.800781 L 182.398438 316.800781 Z M 182.398438 297.601562 "/>
<path style=" stroke:none;fill-rule:nonzero;fill:rgb(48.522448%,58.234954%,74.570883%);fill-opacity:1;" d="M 201.601562 297.601562 L 220.800781 297.601562 L 220.800781 316.800781 L 201.601562 316.800781 Z M 201.601562 297.601562 "/>
<path style=" stroke:none;fill-rule:nonzero;fill:rgb(48.522448%,58.234954%,74.570883%);fill-opacity:1;" d="M 220.800781 297.601562 L 240 297.601562 L 240 316.800781 L 220.800781 316.800781 Z M 220.800781 297.601562 "/>
<path style=" stroke:none;fill-rule:nonzero;fill:rgb(48.522448%,58.234954%,74.570883%);fill-opacity:1;" d="M 240 297.601562 L 259.199219 297.601562 L 259.199219 316.800781 L 240 316.800781 Z M 240 297.601562 "/>
<path style=" stroke:none;fill-rule:nonzero;fill:rgb(48.522448%,58.234954%,74.570883%);fill-opacity:1;" d="M 259.199219 297.601562 L 278.398438 297.601562 L 278.398438 316.800781 L 259.199219 316.800781 Z M 259.199219 297.601562 "/>
<path style=" stroke:none;fill-rule:nonzero;fill:rgb(48.522448%,58.234954%,74.570883%);fill-opacity:1;" d="M 278.398438 297.601562 L 297.601562 297.601562 L 297.601562 316.800781 L 278.398438 316.800781 Z M 278.398438 297.601562 "/>
<path style=" stroke:none;fill-rule:nonzero;fill:rgb(48.522448%,58.234954%,74.570883%);fill-opacity:1;" d="M 297.601562 297.601562 L 316.800781 297.601562 L 316.800781 316.800781 L 297.601562 316.800781 Z M 297.601562 297.601562 "/>
<path style=" stroke:none;fill-rule:nonzero;fill:rgb(48.522448%,58.234954%,74.570883%);fill-opacity:1;" d="M 316.800781 297.601562 L 336 297.601562 L 336 316.800781 L 316.800781 316.800781 Z M 316.800781 297.601562 "/>
<path style=" stroke:none;fill-rule:nonzero;fill:rgb(48.522448%,58.234954%,74.570883%);fill-opacity:1;" d="M 336 297.601562 L 355.199219 297.601562 L 355.199219 316.800781 L 336 316.800781 Z M 336 297.601562 "/>
<path style=" stroke:none;fill-rule:nonzero;fill:rgb(48.522448%,58.234954%,74.570883%);fill-opacity:1;" d="M 355.199219 297.601562 L 374.398438 297.601562 L 374.398438 316.800781 L 355.199219 316.800781 Z M 355.199219 297.601562 "/>
<path style=" stroke:none;fill-rule:nonzero;fill:rgb(48.522448%,58.234954%,74.570883%);fill-opacity:1;" d="M 374.398438 297.601562 L 393.601562 297.601562 L 393.601562 316.800781 L 374.398438 316.800781 Z M 374.398438 297.601562 "/>
<path style=" stroke:none;fill-rule:nonzero;fill:rgb(48.522448%,58.234954%,74.570883%);fill-opacity:1;" d="M 393.601562 297.601562 L 412.800781 297.601562 L 412.800781 316.800781 L 393.601562 316.800781 Z M 393.601562 297.601562 "/>
<path style=" stroke:none;fill-rule:nonzero;fill:rgb(48.522448%,58.234954%,74.570883%);fill-opacity:1;" d="M 412.800781 297.601562 L 432 297.601562 L 432 316.800781 L 412.800781 316.800781 Z M 412.800781 297.601562 "/>
<path style=" stroke:none;fill-rule:nonzero;fill:rgb(89.360744%,66.400409%,37.504946%);fill-opacity:1;" d="M 48 316.800781 L 67.199219 316.800781 L 67.199219 336 L 48 336 Z M 48 316.800781 "/>
<path style=" stroke:none;fill-rule:nonzero;fill:rgb(89.360744%,66.400409%,37.504946%);fill-opacity:1;" d="M 67.199219 316.800781 L 86.398438 316.800781 L 86.398438 336 L 67.199219 336 Z M 67.199219 316.800781 "/>
<path style=" stroke:none;fill-rule:nonzero;fill:rgb(89.360744%,66.400409%,37.504946%);fill-opacity:1;" d="M 86.398438 316.800781 L 105.601562 316.800781 L 105.601562 336 L 86.398438 336 Z M 86.398438 316.800781 "/>
<path style=" stroke:none;fill-rule:nonzero;fill:rgb(89.360744%,66.400409%,37.504946%);fill-opacity:1;" d="M 105.601562 316.800781 L 124.800781 316.800781 L 124.800781 336 L 105.601562 336 Z M 105.601562 316.800781 "/>
<path style=" stroke:none;fill-rule:nonzero;fill:rgb(48.522448%,58.234954%,74.570883%);fill-opacity:1;" d="M 124.800781 316.800781 L 144 316.800781 L 144 336 L 124.800781 336 Z M 124.800781 316.800781 "/>
<path style=" stroke:none;fill-rule:nonzero;fill:rgb(89.360744%,66.400409%,37.504946%);fill-opacity:1;" d="M 144 316.800781 L 163.199219 316.800781 L 163.199219 336 L 144 336 Z M 144 316.800781 "/>
<path style=" stroke:none;fill-rule:nonzero;fill:rgb(89.360744%,66.400409%,37.504946%);fill-opacity:1;" d="M 163.199219 316.800781 L 182.398438 316.800781 L 182.398438 336 L 163.199219 336 Z M 163.199219 316.800781 "/>
<path style=" stroke:none;fill-rule:nonzero;fill:rgb(86.3657%,65.642187%,43.150644%);fill-opacity:1;" d="M 182.398438 316.800781 L 201.601562 316.800781 L 201.601562 336 L 182.398438 336 Z M 182.398438 316.800781 "/>
<path style=" stroke:none;fill-rule:nonzero;fill:rgb(86.643629%,65.711583%,42.675186%);fill-opacity:1;" d="M 201.601562 316.800781 L 220.800781 316.800781 L 220.800781 336 L 201.601562 336 Z M 201.601562 316.800781 "/>
<path style=" stroke:none;fill-rule:nonzero;fill:rgb(86.643629%,65.711583%,42.675186%);fill-opacity:1;" d="M 220.800781 316.800781 L 240 316.800781 L 240 336 L 220.800781 336 Z M 220.800781 316.800781 "/>
<path style=" stroke:none;fill-rule:nonzero;fill:rgb(86.643629%,65.711583%,42.675186%);fill-opacity:1;" d="M 240 316.800781 L 259.199219 316.800781 L 259.199219 336 L 240 336 Z M 240 316.800781 "/>
<path style=" stroke:none;fill-rule:nonzero;fill:rgb(86.643629%,65.711583%,42.675186%);fill-opacity:1;" d="M 259.199219 316.800781 L 278.398438 316.800781 L 278.398438 336 L 259.199219 336 Z M 259.199219 316.800781 "/>
<path style=" stroke:none;fill-rule:nonzero;fill:rgb(86.643629%,65.711583%,42.675186%);fill-opacity:1;" d="M 278.398438 316.800781 L 297.601562 316.800781 L 297.601562 336 L 278.398438 336 Z M 278.398438 316.800781 "/>
<path style=" stroke:none;fill-rule:nonzero;fill:rgb(86.643629%,65.711583%,42.675186%);fill-opacity:1;" d="M 297.601562 316.800781 L 316.800781 316.800781 L 316.800781 336 L 297.601562 336 Z M 297.601562 316.800781 "/>
<path style=" stroke:none;fill-rule:nonzero;fill:rgb(86.643629%,65.711583%,42.675186%);fill-opacity:1;" d="M 316.800781 316.800781 L 336 316.800781 L 336 336 L 316.800781 336 Z M 316.800781 316.800781 "/>
<path style=" stroke:none;fill-rule:nonzero;fill:rgb(86.643629%,65.711583%,42.675186%);fill-opacity:1;" d="M 336 316.800781 L 355.199219 316.800781 L 355.199219 336 L 336 336 Z M 336 316.800781 "/>
<path style=" stroke:none;fill-rule:nonzero;fill:rgb(86.643629%,65.711583%,42.675186%);fill-opacity:1;" d="M 355.199219 316.800781 L 374.398438 316.800781 L 374.398438 336 L 355.199219 336 Z M 355.199219 316.800781 "/>
<path style=" stroke:none;fill-rule:nonzero;fill:rgb(86.643629%,65.711583%,42.675186%);fill-opacity:1;" d="M 374.398438 316.800781 L 393.601562 316.800781 L 393.601562 336 L 374.398438 336 Z M 374.398438 316.800781 "/>
<path style=" stroke:none;fill-rule:nonzero;fill:rgb(86.643629%,65.711583%,42.675186%);fill-opacity:1;" d="M 393.601562 316.800781 L 412.800781 316.800781 L 412.800781 336 L 393.601562 336 Z M 393.601562 316.800781 "/>
<path style=" stroke:none;fill-rule:nonzero;fill:rgb(86.643629%,65.711583%,42.675186%);fill-opacity:1;" d="M 412.800781 316.800781 L 432 316.800781 L 432 336 L 412.800781 336 Z M 412.800781 316.800781 "/>
<path style=" stroke:none;fill-rule:nonzero;fill:rgb(89.360744%,66.400409%,37.504946%);fill-opacity:1;" d="M 48 336 L 67.199219 336 L 67.199219 355.199219 L 48 355.199219 Z M 48 336 "/>
<path style=" stroke:none;fill-rule:nonzero;fill:rgb(89.360744%,66.400409%,37.504946%);fill-opacity:1;" d="M 67.199219 336 L 86.398438 336 L 86.398438 355.199219 L 67.199219 355.199219 Z M 67.199219 336 "/>
<path style=" stroke:none;fill-rule:nonzero;fill:rgb(89.360744%,66.400409%,37.504946%);fill-opacity:1;" d="M 86.398438 336 L 105.601562 336 L 105.601562 355.199219 L 86.398438 355.199219 Z M 86.398438 336 "/>
<path style=" stroke:none;fill-rule:nonzero;fill:rgb(89.360744%,66.400409%,37.504946%);fill-opacity:1;" d="M 105.601562 336 L 124.800781 336 L 124.800781 355.199219 L 105.601562 355.199219 Z M 105.601562 336 "/>
<path style=" stroke:none;fill-rule:nonzero;fill:rgb(48.522448%,58.234954%,74.570883%);fill-opacity:1;" d="M 124.800781 336 L 144 336 L 144 355.199219 L 124.800781 355.199219 Z M 124.800781 336 "/>
<path style=" stroke:none;fill-rule:nonzero;fill:rgb(89.360744%,66.400409%,37.504946%);fill-opacity:1;" d="M 144 336 L 163.199219 336 L 163.199219 355.199219 L 144 355.199219 Z M 144 336 "/>
<path style=" stroke:none;fill-rule:nonzero;fill:rgb(89.360744%,66.400409%,37.504946%);fill-opacity:1;" d="M 163.199219 336 L 182.398438 336 L 182.398438 355.199219 L 163.199219 355.199219 Z M 163.199219 336 "/>
<path style=" stroke:none;fill-rule:nonzero;fill:rgb(83.912833%,65.038406%,47.014799%);fill-opacity:1;" d="M 182.398438 336 L 201.601562 336 L 201.601562 355.199219 L 182.398438 355.199219 Z M 182.398438 336 "/>
<path style=" stroke:none;fill-rule:nonzero;fill:rgb(84.76803%,65.247134%,45.730097%);fill-opacity:1;" d="M 201.601562 336 L 220.800781 336 L 220.800781 355.199219 L 201.601562 355.199219 Z M 201.601562 336 "/>
<path style=" stroke:none;fill-rule:nonzero;fill:rgb(84.76803%,65.247134%,45.730097%);fill-opacity:1;" d="M 220.800781 336 L 240 336 L 240 355.199219 L 220.800781 355.199219 Z M 220.800781 336 "/>
<path style=" stroke:none;fill-rule:nonzero;fill:rgb(84.76803%,65.247134%,45.730097%);fill-opacity:1;" d="M 240 336 L 259.199219 336 L 259.199219 355.199219 L 240 355.199219 Z M 240 336 "/>
<path style=" stroke:none;fill-rule:nonzero;fill:rgb(84.76803%,65.247134%,45.730097%);fill-opacity:1;" d="M 259.199219 336 L 278.398438 336 L 278.398438 355.199219 L 259.199219 355.199219 Z M 259.199219 336 "/>
<path style=" stroke:none;fill-rule:nonzero;fill:rgb(84.76803%,65.247134%,45.730097%);fill-opacity:1;" d="M 278.398438 336 L 297.601562 336 L 297.601562 355.199219 L 278.398438 355.199219 Z M 278.398438 336 "/>
<path style=" stroke:none;fill-rule:nonzero;fill:rgb(84.76803%,65.247134%,45.730097%);fill-opacity:1;" d="M 297.601562 336 L 316.800781 336 L 316.800781 355.199219 L 297.601562 355.199219 Z M 297.601562 336 "/>
<path style=" stroke:none;fill-rule:nonzero;fill:rgb(84.76803%,65.247134%,45.730097%);fill-opacity:1;" d="M 316.800781 336 L 336 336 L 336 355.199219 L 316.800781 355.199219 Z M 316.800781 336 "/>
<path style=" stroke:none;fill-rule:nonzero;fill:rgb(84.76803%,65.247134%,45.730097%);fill-opacity:1;" d="M 336 336 L 355.199219 336 L 355.199219 355.199219 L 336 355.199219 Z M 336 336 "/>
<path style=" stroke:none;fill-rule:nonzero;fill:rgb(84.76803%,65.247134%,45.730097%);fill-opacity:1;" d="M 355.199219 336 L 374.398438 336 L 374.398438 355.199219 L 355.199219 355.199219 Z M 355.199219 336 "/>
<path style=" stroke:none;fill-rule:nonzero;fill:rgb(84.76803%,65.247134%,45.730097%);fill-opacity:1;" d="M 374.398438 336 L 393.601562 336 L 393.601562 355.199219 L 374.398438 355.199219 Z M 374.398438 336 "/>
<path style=" stroke:none;fill-rule:nonzero;fill:rgb(84.76803%,65.247134%,45.730097%);fill-opacity:1;" d="M 393.601562 336 L 412.800781 336 L 412.800781 355.199219 L 393.601562 355.199219 Z M 393.601562 336 "/>
<path style=" stroke:none;fill-rule:nonzero;fill:rgb(84.76803%,65.247134%,45.730097%);fill-opacity:1;" d="M 412.800781 336 L 432 336 L 432 355.199219 L 412.800781 355.199219 Z M 412.800781 336 "/>
<path style=" stroke:none;fill-rule:nonzero;fill:rgb(82.665426%,64.737408%,48.784664%);fill-opacity:1;" d="M 48 355.199219 L 67.199219 355.199219 L 67.199219 374.398438 L 48 374.398438 Z M 48 355.199219 "/>
<path style=" stroke:none;fill-rule:nonzero;fill:rgb(83.809437%,65.013301%,47.166027%);fill-opacity:1;" d="M 67.199219 355.199219 L 86.398438 355.199219 L 86.398438 374.398438 L 67.199219 374.398438 Z M 67.199219 355.199219 "/>
<path style=" stroke:none;fill-rule:nonzero;fill:rgb(85.03931%,65.313745%,45.309335%);fill-opacity:1;" d="M 86.398438 355.199219 L 105.601562 355.199219 L 105.601562 374.398438 L 86.398438 374.398438 Z M 86.398438 355.199219 "/>
<path style=" stroke:none;fill-rule:nonzero;fill:rgb(80.407879%,64.20322%,51.717164%);fill-opacity:1;" d="M 105.601562 355.199219 L 124.800781 355.199219 L 124.800781 374.398438 L 105.601562 374.398438 Z M 105.601562 355.199219 "/>
<path style=" stroke:none;fill-rule:nonzero;fill:rgb(48.522448%,58.234954%,74.570883%);fill-opacity:1;" d="M 124.800781 355.199219 L 144 355.199219 L 144 374.398438 L 124.800781 374.398438 Z M 124.800781 355.199219 "/>
<path style=" stroke:none;fill-rule:nonzero;fill:rgb(80.407879%,64.20322%,51.717164%);fill-opacity:1;" d="M 144 355.199219 L 163.199219 355.199219 L 163.199219 374.398438 L 144 374.398438 Z M 144 355.199219 "/>
<path style=" stroke:none;fill-rule:nonzero;fill:rgb(83.912833%,65.038406%,47.014799%);fill-opacity:1;" d="M 163.199219 355.199219 L 182.398438 355.199219 L 182.398438 374.398438 L 163.199219 374.398438 Z M 163.199219 355.199219 "/>
<path style=" stroke:none;fill-rule:nonzero;fill:rgb(77.816096%,63.606993%,54.726422%);fill-opacity:1;" d="M 182.398438 355.199219 L 201.601562 355.199219 L 201.601562 374.398438 L 182.398438 374.398438 Z M 182.398438 355.199219 "/>
<path style=" stroke:none;fill-rule:nonzero;fill:rgb(77.727325%,63.586899%,54.8236%);fill-opacity:1;" d="M 201.601562 355.199219 L 220.800781 355.199219 L 220.800781 374.398438 L 201.601562 374.398438 Z M 201.601562 355.199219 "/>
<path style=" stroke:none;fill-rule:nonzero;fill:rgb(77.727325%,63.586899%,54.8236%);fill-opacity:1;" d="M 220.800781 355.199219 L 240 355.199219 L 240 374.398438 L 220.800781 374.398438 Z M 220.800781 355.199219 "/>
<path style=" stroke:none;fill-rule:nonzero;fill:rgb(77.727325%,63.586899%,54.8236%);fill-opacity:1;" d="M 240 355.199219 L 259.199219 355.199219 L 259.199219 374.398438 L 240 374.398438 Z M 240 355.199219 "/>
<path style=" stroke:none;fill-rule:nonzero;fill:rgb(77.727325%,63.586899%,54.8236%);fill-opacity:1;" d="M 259.199219 355.199219 L 278.398438 355.199219 L 278.398438 374.398438 L 259.199219 374.398438 Z M 259.199219 355.199219 "/>
<path style=" stroke:none;fill-rule:nonzero;fill:rgb(77.727325%,63.586899%,54.8236%);fill-opacity:1;" d="M 278.398438 355.199219 L 297.601562 355.199219 L 297.601562 374.398438 L 278.398438 374.398438 Z M 278.398438 355.199219 "/>
<path style=" stroke:none;fill-rule:nonzero;fill:rgb(77.727325%,63.586899%,54.8236%);fill-opacity:1;" d="M 297.601562 355.199219 L 316.800781 355.199219 L 316.800781 374.398438 L 297.601562 374.398438 Z M 297.601562 355.199219 "/>
<path style=" stroke:none;fill-rule:nonzero;fill:rgb(77.727325%,63.586899%,54.8236%);fill-opacity:1;" d="M 316.800781 355.199219 L 336 355.199219 L 336 374.398438 L 316.800781 374.398438 Z M 316.800781 355.199219 "/>
<path style=" stroke:none;fill-rule:nonzero;fill:rgb(77.727325%,63.586899%,54.8236%);fill-opacity:1;" d="M 336 355.199219 L 355.199219 355.199219 L 355.199219 374.398438 L 336 374.398438 Z M 336 355.199219 "/>
<path style=" stroke:none;fill-rule:nonzero;fill:rgb(77.727325%,63.586899%,54.8236%);fill-opacity:1;" d="M 355.199219 355.199219 L 374.398438 355.199219 L 374.398438 374.398438 L 355.199219 374.398438 Z M 355.199219 355.199219 "/>
<path style=" stroke:none;fill-rule:nonzero;fill:rgb(77.727325%,63.586899%,54.8236%);fill-opacity:1;" d="M 374.398438 355.199219 L 393.601562 355.199219 L 393.601562 374.398438 L 374.398438 374.398438 Z M 374.398438 355.199219 "/>
<path style=" stroke:none;fill-rule:nonzero;fill:rgb(77.727325%,63.586899%,54.8236%);fill-opacity:1;" d="M 393.601562 355.199219 L 412.800781 355.199219 L 412.800781 374.398438 L 393.601562 374.398438 Z M 393.601562 355.199219 "/>
<path style=" stroke:none;fill-rule:nonzero;fill:rgb(77.727325%,63.586899%,54.8236%);fill-opacity:1;" d="M 412.800781 355.199219 L 432 355.199219 L 432 374.398438 L 412.800781 374.398438 Z M 412.800781 355.199219 "/>
<path style=" stroke:none;fill-rule:nonzero;fill:rgb(83.979646%,65.054644%,46.91662%);fill-opacity:1;" d="M 48 374.398438 L 67.199219 374.398438 L 67.199219 393.601562 L 48 393.601562 Z M 48 374.398438 "/>
<path style=" stroke:none;fill-rule:nonzero;fill:rgb(84.61919%,65.210669%,45.958168%);fill-opacity:1;" d="M 67.199219 374.398438 L 86.398438 374.398438 L 86.398438 393.601562 L 67.199219 393.601562 Z M 67.199219 374.398438 "/>
<path style=" stroke:none;fill-rule:nonzero;fill:rgb(86.3657%,65.642187%,43.150644%);fill-opacity:1;" d="M 86.398438 374.398438 L 105.601562 374.398438 L 105.601562 393.601562 L 86.398438 393.601562 Z M 86.398438 374.398438 "/>
<path style=" stroke:none;fill-rule:nonzero;fill:rgb(85.336409%,65.386917%,44.840791%);fill-opacity:1;" d="M 105.601562 374.398438 L 124.800781 374.398438 L 124.800781 393.601562 L 105.601562 393.601562 Z M 105.601562 374.398438 "/>
<path style=" stroke:none;fill-rule:nonzero;fill:rgb(73.985755%,62.759972%,58.615708%);fill-opacity:1;" d="M 124.800781 374.398438 L 144 374.398438 L 144 393.601562 L 124.800781 393.601562 Z M 124.800781 374.398438 "/>
<path style=" stroke:none;fill-rule:nonzero;fill:rgb(85.336409%,65.386917%,44.840791%);fill-opacity:1;" d="M 144 374.398438 L 163.199219 374.398438 L 163.199219 393.601562 L 144 393.601562 Z M 144 374.398438 "/>
<path style=" stroke:none;fill-rule:nonzero;fill:rgb(85.280305%,65.373082%,44.929902%);fill-opacity:1;" d="M 163.199219 374.398438 L 182.398438 374.398438 L 182.398438 393.601562 L 163.199219 393.601562 Z M 163.199219 374.398438 "/>
<path style=" stroke:none;fill-rule:nonzero;fill:rgb(79.777585%,64.056534%,52.481286%);fill-opacity:1;" d="M 182.398438 374.398438 L 201.601562 374.398438 L 201.601562 393.601562 L 182.398438 393.601562 Z M 182.398438 374.398438 "/>
<path style=" stroke:none;fill-rule:nonzero;fill:rgb(79.616102%,64.019126%,52.673552%);fill-opacity:1;" d="M 201.601562 374.398438 L 220.800781 374.398438 L 220.800781 393.601562 L 201.601562 393.601562 Z M 201.601562 374.398438 "/>
<path style=" stroke:none;fill-rule:nonzero;fill:rgb(79.616102%,64.019126%,52.673552%);fill-opacity:1;" d="M 220.800781 374.398438 L 240 374.398438 L 240 393.601562 L 220.800781 393.601562 Z M 220.800781 374.398438 "/>
<path style=" stroke:none;fill-rule:nonzero;fill:rgb(79.616102%,64.019126%,52.673552%);fill-opacity:1;" d="M 240 374.398438 L 259.199219 374.398438 L 259.199219 393.601562 L 240 393.601562 Z M 240 374.398438 "/>
<path style=" stroke:none;fill-rule:nonzero;fill:rgb(79.616102%,64.019126%,52.673552%);fill-opacity:1;" d="M 259.199219 374.398438 L 278.398438 374.398438 L 278.398438 393.601562 L 259.199219 393.601562 Z M 259.199219 374.398438 "/>
<path style=" stroke:none;fill-rule:nonzero;fill:rgb(79.616102%,64.019126%,52.673552%);fill-opacity:1;" d="M 278.398438 374.398438 L 297.601562 374.398438 L 297.601562 393.601562 L 278.398438 393.601562 Z M 278.398438 374.398438 "/>
<path style=" stroke:none;fill-rule:nonzero;fill:rgb(79.616102%,64.019126%,52.673552%);fill-opacity:1;" d="M 297.601562 374.398438 L 316.800781 374.398438 L 316.800781 393.601562 L 297.601562 393.601562 Z M 297.601562 374.398438 "/>
<path style=" stroke:none;fill-rule:nonzero;fill:rgb(79.616102%,64.019126%,52.673552%);fill-opacity:1;" d="M 316.800781 374.398438 L 336 374.398438 L 336 393.601562 L 316.800781 393.601562 Z M 316.800781 374.398438 "/>
<path style=" stroke:none;fill-rule:nonzero;fill:rgb(79.616102%,64.019126%,52.673552%);fill-opacity:1;" d="M 336 374.398438 L 355.199219 374.398438 L 355.199219 393.601562 L 336 393.601562 Z M 336 374.398438 "/>
<path style=" stroke:none;fill-rule:nonzero;fill:rgb(79.616102%,64.019126%,52.673552%);fill-opacity:1;" d="M 355.199219 374.398438 L 374.398438 374.398438 L 374.398438 393.601562 L 355.199219 393.601562 Z M 355.199219 374.398438 "/>
<path style=" stroke:none;fill-rule:nonzero;fill:rgb(79.616102%,64.019126%,52.673552%);fill-opacity:1;" d="M 374.398438 374.398438 L 393.601562 374.398438 L 393.601562 393.601562 L 374.398438 393.601562 Z M 374.398438 374.398438 "/>
<path style=" stroke:none;fill-rule:nonzero;fill:rgb(79.616102%,64.019126%,52.673552%);fill-opacity:1;" d="M 393.601562 374.398438 L 412.800781 374.398438 L 412.800781 393.601562 L 393.601562 393.601562 Z M 393.601562 374.398438 "/>
<path style=" stroke:none;fill-rule:nonzero;fill:rgb(79.616102%,64.019126%,52.673552%);fill-opacity:1;" d="M 412.800781 374.398438 L 432 374.398438 L 432 393.601562 L 412.800781 393.601562 Z M 412.800781 374.398438 "/>
<path style=" stroke:none;fill-rule:nonzero;fill:rgb(82.434642%,64.682173%,49.099663%);fill-opacity:1;" d="M 48 393.601562 L 67.199219 393.601562 L 67.199219 412.800781 L 48 412.800781 Z M 48 393.601562 "/>
<path style=" stroke:none;fill-rule:nonzero;fill:rgb(81.989921%,64.576135%,49.696401%);fill-opacity:1;" d="M 67.199219 393.601562 L 86.398438 393.601562 L 86.398438 412.800781 L 67.199219 412.800781 Z M 67.199219 393.601562 "/>
<path style=" stroke:none;fill-rule:nonzero;fill:rgb(86.80192%,65.751196%,42.400521%);fill-opacity:1;" d="M 86.398438 393.601562 L 105.601562 393.601562 L 105.601562 412.800781 L 86.398438 412.800781 Z M 86.398438 393.601562 "/>
<path style=" stroke:none;fill-rule:nonzero;fill:rgb(87.561691%,65.942226%,41.04072%);fill-opacity:1;" d="M 105.601562 393.601562 L 124.800781 393.601562 L 124.800781 412.800781 L 105.601562 412.800781 Z M 105.601562 393.601562 "/>
<path style=" stroke:none;fill-rule:nonzero;fill:rgb(82.836219%,64.778377%,48.549136%);fill-opacity:1;" d="M 124.800781 393.601562 L 144 393.601562 L 144 412.800781 L 124.800781 412.800781 Z M 124.800781 393.601562 "/>
<path style=" stroke:none;fill-rule:nonzero;fill:rgb(87.561691%,65.942226%,41.04072%);fill-opacity:1;" d="M 144 393.601562 L 163.199219 393.601562 L 163.199219 412.800781 L 144 412.800781 Z M 144 393.601562 "/>
<path style=" stroke:none;fill-rule:nonzero;fill:rgb(85.280305%,65.373082%,44.929902%);fill-opacity:1;" d="M 163.199219 393.601562 L 182.398438 393.601562 L 182.398438 412.800781 L 163.199219 412.800781 Z M 163.199219 393.601562 "/>
<path style=" stroke:none;fill-rule:nonzero;fill:rgb(79.777585%,64.056534%,52.481286%);fill-opacity:1;" d="M 182.398438 393.601562 L 201.601562 393.601562 L 201.601562 412.800781 L 182.398438 412.800781 Z M 182.398438 393.601562 "/>
<path style=" stroke:none;fill-rule:nonzero;fill:rgb(79.616102%,64.019126%,52.673552%);fill-opacity:1;" d="M 201.601562 393.601562 L 220.800781 393.601562 L 220.800781 412.800781 L 201.601562 412.800781 Z M 201.601562 393.601562 "/>
<path style=" stroke:none;fill-rule:nonzero;fill:rgb(79.616102%,64.019126%,52.673552%);fill-opacity:1;" d="M 220.800781 393.601562 L 240 393.601562 L 240 412.800781 L 220.800781 412.800781 Z M 220.800781 393.601562 "/>
<path style=" stroke:none;fill-rule:nonzero;fill:rgb(79.616102%,64.019126%,52.673552%);fill-opacity:1;" d="M 240 393.601562 L 259.199219 393.601562 L 259.199219 412.800781 L 240 412.800781 Z M 240 393.601562 "/>
<path style=" stroke:none;fill-rule:nonzero;fill:rgb(79.616102%,64.019126%,52.673552%);fill-opacity:1;" d="M 259.199219 393.601562 L 278.398438 393.601562 L 278.398438 412.800781 L 259.199219 412.800781 Z M 259.199219 393.601562 "/>
<path style=" stroke:none;fill-rule:nonzero;fill:rgb(79.616102%,64.019126%,52.673552%);fill-opacity:1;" d="M 278.398438 393.601562 L 297.601562 393.601562 L 297.601562 412.800781 L 278.398438 412.800781 Z M 278.398438 393.601562 "/>
<path style=" stroke:none;fill-rule:nonzero;fill:rgb(79.616102%,64.019126%,52.673552%);fill-opacity:1;" d="M 297.601562 393.601562 L 316.800781 393.601562 L 316.800781 412.800781 L 297.601562 412.800781 Z M 297.601562 393.601562 "/>
<path style=" stroke:none;fill-rule:nonzero;fill:rgb(79.616102%,64.019126%,52.673552%);fill-opacity:1;" d="M 316.800781 393.601562 L 336 393.601562 L 336 412.800781 L 316.800781 412.800781 Z M 316.800781 393.601562 "/>
<path style=" stroke:none;fill-rule:nonzero;fill:rgb(79.616102%,64.019126%,52.673552%);fill-opacity:1;" d="M 336 393.601562 L 355.199219 393.601562 L 355.199219 412.800781 L 336 412.800781 Z M 336 393.601562 "/>
<path style=" stroke:none;fill-rule:nonzero;fill:rgb(79.616102%,64.019126%,52.673552%);fill-opacity:1;" d="M 355.199219 393.601562 L 374.398438 393.601562 L 374.398438 412.800781 L 355.199219 412.800781 Z M 355.199219 393.601562 "/>
<path style=" stroke:none;fill-rule:nonzero;fill:rgb(79.616102%,64.019126%,52.673552%);fill-opacity:1;" d="M 374.398438 393.601562 L 393.601562 393.601562 L 393.601562 412.800781 L 374.398438 412.800781 Z M 374.398438 393.601562 "/>
<path style=" stroke:none;fill-rule:nonzero;fill:rgb(79.616102%,64.019126%,52.673552%);fill-opacity:1;" d="M 393.601562 393.601562 L 412.800781 393.601562 L 412.800781 412.800781 L 393.601562 412.800781 Z M 393.601562 393.601562 "/>
<path style=" stroke:none;fill-rule:nonzero;fill:rgb(79.616102%,64.019126%,52.673552%);fill-opacity:1;" d="M 412.800781 393.601562 L 432 393.601562 L 432 412.800781 L 412.800781 412.800781 Z M 412.800781 393.601562 "/>
<path style=" stroke:none;fill-rule:nonzero;fill:rgb(79.616102%,64.019126%,52.673552%);fill-opacity:1;" d="M 48 412.800781 L 67.199219 412.800781 L 67.199219 432 L 48 432 Z M 48 412.800781 "/>
<path style=" stroke:none;fill-rule:nonzero;fill:rgb(79.272239%,63.939708%,53.078348%);fill-opacity:1;" d="M 67.199219 412.800781 L 86.398438 412.800781 L 86.398438 432 L 67.199219 432 Z M 67.199219 412.800781 "/>
<path style=" stroke:none;fill-rule:nonzero;fill:rgb(83.883687%,65.031327%,47.057514%);fill-opacity:1;" d="M 86.398438 412.800781 L 105.601562 412.800781 L 105.601562 432 L 86.398438 432 Z M 86.398438 412.800781 "/>
<path style=" stroke:none;fill-rule:nonzero;fill:rgb(83.733144%,64.994794%,47.27707%);fill-opacity:1;" d="M 105.601562 412.800781 L 124.800781 412.800781 L 124.800781 432 L 105.601562 432 Z M 105.601562 412.800781 "/>
<path style=" stroke:none;fill-rule:nonzero;fill:rgb(79.387309%,63.966248%,52.943579%);fill-opacity:1;" d="M 124.800781 412.800781 L 144 412.800781 L 144 432 L 124.800781 432 Z M 124.800781 412.800781 "/>
<path style=" stroke:none;fill-rule:nonzero;fill:rgb(83.733144%,64.994794%,47.27707%);fill-opacity:1;" d="M 144 412.800781 L 163.199219 412.800781 L 163.199219 432 L 144 432 Z M 144 412.800781 "/>
<path style=" stroke:none;fill-rule:nonzero;fill:rgb(83.883687%,65.031327%,47.057514%);fill-opacity:1;" d="M 163.199219 412.800781 L 182.398438 412.800781 L 182.398438 432 L 163.199219 432 Z M 163.199219 412.800781 "/>
<path style=" stroke:none;fill-rule:nonzero;fill:rgb(79.272239%,63.939708%,53.078348%);fill-opacity:1;" d="M 182.398438 412.800781 L 201.601562 412.800781 L 201.601562 432 L 182.398438 432 Z M 182.398438 412.800781 "/>
<path style=" stroke:none;fill-rule:nonzero;fill:rgb(79.616102%,64.019126%,52.673552%);fill-opacity:1;" d="M 201.601562 412.800781 L 220.800781 412.800781 L 220.800781 432 L 201.601562 432 Z M 201.601562 412.800781 "/>
<path style=" stroke:none;fill-rule:nonzero;fill:rgb(79.616102%,64.019126%,52.673552%);fill-opacity:1;" d="M 220.800781 412.800781 L 240 412.800781 L 240 432 L 220.800781 432 Z M 220.800781 412.800781 "/>
<path style=" stroke:none;fill-rule:nonzero;fill:rgb(79.616102%,64.019126%,52.673552%);fill-opacity:1;" d="M 240 412.800781 L 259.199219 412.800781 L 259.199219 432 L 240 432 Z M 240 412.800781 "/>
<path style=" stroke:none;fill-rule:nonzero;fill:rgb(79.616102%,64.019126%,52.673552%);fill-opacity:1;" d="M 259.199219 412.800781 L 278.398438 412.800781 L 278.398438 432 L 259.199219 432 Z M 259.199219 412.800781 "/>
<path style=" stroke:none;fill-rule:nonzero;fill:rgb(79.616102%,64.019126%,52.673552%);fill-opacity:1;" d="M 278.398438 412.800781 L 297.601562 412.800781 L 297.601562 432 L 278.398438 432 Z M 278.398438 412.800781 "/>
<path style=" stroke:none;fill-rule:nonzero;fill:rgb(79.616102%,64.019126%,52.673552%);fill-opacity:1;" d="M 297.601562 412.800781 L 316.800781 412.800781 L 316.800781 432 L 297.601562 432 Z M 297.601562 412.800781 "/>
<path style=" stroke:none;fill-rule:nonzero;fill:rgb(79.616102%,64.019126%,52.673552%);fill-opacity:1;" d="M 316.800781 412.800781 L 336 412.800781 L 336 432 L 316.800781 432 Z M 316.800781 412.800781 "/>
<path style=" stroke:none;fill-rule:nonzero;fill:rgb(79.616102%,64.019126%,52.673552%);fill-opacity:1;" d="M 336 412.800781 L 355.199219 412.800781 L 355.199219 432 L 336 432 Z M 336 412.800781 "/>
<path style=" stroke:none;fill-rule:nonzero;fill:rgb(79.616102%,64.019126%,52.673552%);fill-opacity:1;" d="M 355.199219 412.800781 L 374.398438 412.800781 L 374.398438 432 L 355.199219 432 Z M 355.199219 412.800781 "/>
<path style=" stroke:none;fill-rule:nonzero;fill:rgb(79.616102%,64.019126%,52.673552%);fill-opacity:1;" d="M 374.398438 412.800781 L 393.601562 412.800781 L 393.601562 432 L 374.398438 432 Z M 374.398438 412.800781 "/>
<path style=" stroke:none;fill-rule:nonzero;fill:rgb(79.616102%,64.019126%,52.673552%);fill-opacity:1;" d="M 393.601562 412.800781 L 412.800781 412.800781 L 412.800781 432 L 393.601562 432 Z M 393.601562 412.800781 "/>
<path style=" stroke:none;fill-rule:nonzero;fill:rgb(79.616102%,64.019126%,52.673552%);fill-opacity:1;" d="M 412.800781 412.800781 L 432 412.800781 L 432 432 L 412.800781 432 Z M 412.800781 412.800781 "/>
<path style="fill:none;stroke-width:1;stroke-linecap:butt;stroke-linejoin:miter;stroke:rgb(92.2526%,38.5626%,20.9179%);stroke-opacity:1;stroke-miterlimit:10;" d="M 0.0015625 0.0015625 L 19.200781 0.0015625 L 19.200781 19.200781 L 0.0015625 19.200781 Z M 0.0015625 0.0015625 " transform="matrix(1,0,0,1,105.6,297.6)"/>
</g>
</svg>
