<?xml version="1.0" encoding="UTF-8"?>
<svg xmlns="http://www.w3.org/2000/svg" xmlns:xlink="http://www.w3.org/1999/xlink" width="300pt" height="200pt" viewBox="0 0 300 200" version="1.1">
<defs>
<filter id="alpha" filterUnits="objectBoundingBox" x="0%" y="0%" width="100%" height="100%">
  <feColorMatrix type="matrix" in="SourceGraphic" values="0 0 0 0 1 0 0 0 0 1 0 0 0 0 1 0 0 0 1 0"/>
</filter>
<mask id="id1">
  <g filter="url(#alpha)">
<rect x="0" y="0" width="300" height="200" style="fill:rgb(0%,0%,0%);fill-opacity:0.5;stroke:none;"/>
  </g>
</mask>
<clipPath id="id2">
  <rect x="0" y="0" width="300" height="200"/>
</clipPath>
<g id="id3" clip-path="url(#id2)">
<path style="fill:none;stroke-width:1;stroke-linecap:butt;stroke-linejoin:miter;stroke:rgb(0%,0%,0%);stroke-opacity:0.2;stroke-dasharray:4,6;stroke-dashoffset:2;stroke-miterlimit:10;" d="M -1000 -1000 L -1000 1000 M -990 -1000 L -990 1000 M -980 -1000 L -980 1000 M -970 -1000 L -970 1000 M -960 -1000 L -960 1000 M -950 -1000 L -950 1000 M -940 -1000 L -940 1000 M -930 -1000 L -930 1000 M -920 -1000 L -920 1000 M -910 -1000 L -910 1000 M -900 -1000 L -900 1000 M -890 -1000 L -890 1000 M -880 -1000 L -880 1000 M -870 -1000 L -870 1000 M -860 -1000 L -860 1000 M -850 -1000 L -850 1000 M -840 -1000 L -840 1000 M -830 -1000 L -830 1000 M -820 -1000 L -820 1000 M -810 -1000 L -810 1000 M -800 -1000 L -800 1000 M -790 -1000 L -790 1000 M -780 -1000 L -780 1000 M -770 -1000 L -770 1000 M -760 -1000 L -760 1000 M -750 -1000 L -750 1000 M -740 -1000 L -740 1000 M -730 -1000 L -730 1000 M -720 -1000 L -720 1000 M -710 -1000 L -710 1000 M -700 -1000 L -700 1000 M -690 -1000 L -690 1000 M -680 -1000 L -680 1000 M -670 -1000 L -670 1000 M -660 -1000 L -660 1000 M -650 -1000 L -650 1000 M -640 -1000 L -640 1000 M -630 -1000 L -630 1000 M -620 -1000 L -620 1000 M -610 -1000 L -610 1000 M -600 -1000 L -600 1000 M -590 -1000 L -590 1000 M -580 -1000 L -580 1000 M -570 -1000 L -570 1000 M -560 -1000 L -560 1000 M -550 -1000 L -550 1000 M -540 -1000 L -540 1000 M -530 -1000 L -530 1000 M -520 -1000 L -520 1000 M -510 -1000 L -510 1000 M -500 -1000 L -500 1000 M -490 -1000 L -490 1000 M -480 -1000 L -480 1000 M -470 -1000 L -470 1000 M -460 -1000 L -460 1000 M -450 -1000 L -450 1000 M -440 -1000 L -440 1000 M -430 -1000 L -430 1000 M -420 -1000 L -420 1000 M -410 -1000 L -410 1000 M -400 -1000 L -400 1000 M -390 -1000 L -390 1000 M -380 -1000 L -380 1000 M -370 -1000 L -370 1000 M -360 -1000 L -360 1000 M -350 -1000 L -350 1000 M -340 -1000 L -340 1000 M -330 -1000 L -330 1000 M -320 -1000 L -320 1000 M -310 -1000 L -310 1000 M -300 -1000 L -300 1000 M -290 -1000 L -290 1000 M -280 -1000 L -280 1000 M -270 -1000 L -270 1000 M -260 -1000 L -260 1000 M -250 -1000 L -250 1000 M -240 -1000 L -240 1000 M -230 -1000 L -230 1000 M -220 -1000 L -220 1000 M -210 -1000 L -210 1000 M -200 -1000 L -200 1000 M -190 -1000 L -190 1000 M -180 -1000 L -180 1000 M -170 -1000 L -170 1000 M -160 -1000 L -160 1000 M -150 -1000 L -150 1000 M -140 -1000 L -140 1000 M -130 -1000 L -130 1000 M -120 -1000 L -120 1000 M -110 -1000 L -110 1000 M -100 -1000 L -100 1000 M -90 -1000 L -90 1000 M -80 -1000 L -80 1000 M -70 -1000 L -70 1000 M -60 -1000 L -60 1000 M -50 -1000 L -50 1000 M -40 -1000 L -40 1000 M -30 -1000 L -30 1000 M -20 -1000 L -20 1000 M -10 -1000 L -10 1000 M 0 -1000 L 0 1000 M 10 -1000 L 10 1000 M 20 -1000 L 20 1000 M 30 -1000 L 30 1000 M 40 -1000 L 40 1000 M 50 -1000 L 50 1000 M 60 -1000 L 60 1000 M 70 -1000 L 70 1000 M 80 -1000 L 80 1000 M 90 -1000 L 90 1000 M 100 -1000 L 100 1000 M 110 -1000 L 110 1000 M 120 -1000 L 120 1000 M 130 -1000 L 130 1000 M 140 -1000 L 140 1000 M 150 -1000 L 150 1000 M 160 -1000 L 160 1000 M 170 -1000 L 170 1000 M 180 -1000 L 180 1000 M 190 -1000 L 190 1000 M 200 -1000 L 200 1000 M 210 -1000 L 210 1000 M 220 -1000 L 220 1000 M 230 -1000 L 230 1000 M 240 -1000 L 240 1000 M 250 -1000 L 250 1000 M 260 -1000 L 260 1000 M 270 -1000 L 270 1000 M 280 -1000 L 280 1000 M 290 -1000 L 290 1000 M 300 -1000 L 300 1000 M 310 -1000 L 310 1000 M 320 -1000 L 320 1000 M 330 -1000 L 330 1000 M 340 -1000 L 340 1000 M 350 -1000 L 350 1000 M 360 -1000 L 360 1000 M 370 -1000 L 370 1000 M 380 -1000 L 380 1000 M 390 -1000 L 390 1000 M 400 -1000 L 400 1000 M 410 -1000 L 410 1000 M 420 -1000 L 420 1000 M 430 -1000 L 430 1000 M 440 -1000 L 440 1000 M 450 -1000 L 450 1000 M 460 -1000 L 460 1000 M 470 -1000 L 470 1000 M 480 -1000 L 480 1000 M 490 -1000 L 490 1000 M 500 -1000 L 500 1000 M 510 -1000 L 510 1000 M 520 -1000 L 520 1000 M 530 -1000 L 530 1000 M 540 -1000 L 540 1000 M 550 -1000 L 550 1000 M 560 -1000 L 560 1000 M 570 -1000 L 570 1000 M 580 -1000 L 580 1000 M 590 -1000 L 590 1000 M 600 -1000 L 600 1000 M 610 -1000 L 610 1000 M 620 -1000 L 620 1000 M 630 -1000 L 630 1000 M 640 -1000 L 640 1000 M 650 -1000 L 650 1000 M 660 -1000 L 660 1000 M 670 -1000 L 670 1000 M 680 -1000 L 680 1000 M 690 -1000 L 690 1000 M 700 -1000 L 700 1000 M 710 -1000 L 710 1000 M 720 -1000 L 720 1000 M 730 -1000 L 730 1000 M 740 -1000 L 740 1000 M 750 -1000 L 750 1000 M 760 -1000 L 760 1000 M 770 -1000 L 770 1000 M 780 -1000 L 780 1000 M 790 -1000 L 790 1000 M 800 -1000 L 800 1000 M 810 -1000 L 810 1000 M 820 -1000 L 820 1000 M 830 -1000 L 830 1000 M 840 -1000 L 840 1000 M 850 -1000 L 850 1000 M 860 -1000 L 860 1000 M 870 -1000 L 870 1000 M 880 -1000 L 880 1000 M 890 -1000 L 890 1000 M 900 -1000 L 900 1000 M 910 -1000 L 910 1000 M 920 -1000 L 920 1000 M 930 -1000 L 930 1000 M 940 -1000 L 940 1000 M 950 -1000 L 950 1000 M 960 -1000 L 960 1000 M 970 -1000 L 970 1000 M 980 -1000 L 980 1000 M 990 -1000 L 990 1000 M 1000 -1000 L 1000 1000 M -1000 -1000 L 1000 -1000 M -1000 -990 L 1000 -990 M -1000 -980 L 1000 -980 M -1000 -970 L 1000 -970 M -1000 -960 L 1000 -960 M -1000 -950 L 1000 -950 M -1000 -940 L 1000 -940 M -1000 -930 L 1000 -930 M -1000 -920 L 1000 -920 M -1000 -910 L 1000 -910 M -1000 -900 L 1000 -900 M -1000 -890 L 1000 -890 M -1000 -880 L 1000 -880 M -1000 -870 L 1000 -870 M -1000 -860 L 1000 -860 M -1000 -850 L 1000 -850 M -1000 -840 L 1000 -840 M -1000 -830 L 1000 -830 M -1000 -820 L 1000 -820 M -1000 -810 L 1000 -810 M -1000 -800 L 1000 -800 M -1000 -790 L 1000 -790 M -1000 -780 L 1000 -780 M -1000 -770 L 1000 -770 M -1000 -760 L 1000 -760 M -1000 -750 L 1000 -750 M -1000 -740 L 1000 -740 M -1000 -730 L 1000 -730 M -1000 -720 L 1000 -720 M -1000 -710 L 1000 -710 M -1000 -700 L 1000 -700 M -1000 -690 L 1000 -690 M -1000 -680 L 1000 -680 M -1000 -670 L 1000 -670 M -1000 -660 L 1000 -660 M -1000 -650 L 1000 -650 M -1000 -640 L 1000 -640 M -1000 -630 L 1000 -630 M -1000 -620 L 1000 -620 M -1000 -610 L 1000 -610 M -1000 -600 L 1000 -600 M -1000 -590 L 1000 -590 M -1000 -580 L 1000 -580 M -1000 -570 L 1000 -570 M -1000 -560 L 1000 -560 M -1000 -550 L 1000 -550 M -1000 -540 L 1000 -540 M -1000 -530 L 1000 -530 M -1000 -520 L 1000 -520 M -1000 -510 L 1000 -510 M -1000 -500 L 1000 -500 M -1000 -490 L 1000 -490 M -1000 -480 L 1000 -480 M -1000 -470 L 1000 -470 M -1000 -460 L 1000 -460 M -1000 -450 L 1000 -450 M -1000 -440 L 1000 -440 M -1000 -430 L 1000 -430 M -1000 -420 L 1000 -420 M -1000 -410 L 1000 -410 M -1000 -400 L 1000 -400 M -1000 -390 L 1000 -390 M -1000 -380 L 1000 -380 M -1000 -370 L 1000 -370 M -1000 -360 L 1000 -360 M -1000 -350 L 1000 -350 M -1000 -340 L 1000 -340 M -1000 -330 L 1000 -330 M -1000 -320 L 1000 -320 M -1000 -310 L 1000 -310 M -1000 -300 L 1000 -300 M -1000 -290 L 1000 -290 M -1000 -280 L 1000 -280 M -1000 -270 L 1000 -270 M -1000 -260 L 1000 -260 M -1000 -250 L 1000 -250 M -1000 -240 L 1000 -240 M -1000 -230 L 1000 -230 M -1000 -220 L 1000 -220 M -1000 -210 L 1000 -210 M -1000 -200 L 1000 -200 M -1000 -190 L 1000 -190 M -1000 -180 L 1000 -180 M -1000 -170 L 1000 -170 M -1000 -160 L 1000 -160 M -1000 -150 L 1000 -150 M -1000 -140 L 1000 -140 M -1000 -130 L 1000 -130 M -1000 -120 L 1000 -120 M -1000 -110 L 1000 -110 M -1000 -100 L 1000 -100 M -1000 -90 L 1000 -90 M -1000 -80 L 1000 -80 M -1000 -70 L 1000 -70 M -1000 -60 L 1000 -60 M -1000 -50 L 1000 -50 M -1000 -40 L 1000 -40 M -1000 -30 L 1000 -30 M -1000 -20 L 1000 -20 M -1000 -10 L 1000 -10 M -1000 0 L 1000 0 M -1000 10 L 1000 10 M -1000 20 L 1000 20 M -1000 30 L 1000 30 M -1000 40 L 1000 40 M -1000 50 L 1000 50 M -1000 60 L 1000 60 M -1000 70 L 1000 70 M -1000 80 L 1000 80 M -1000 90 L 1000 90 M -1000 100 L 1000 100 M -1000 110 L 1000 110 M -1000 120 L 1000 120 M -1000 130 L 1000 130 M -1000 140 L 1000 140 M -1000 150 L 1000 150 M -1000 160 L 1000 160 M -1000 170 L 1000 170 M -1000 180 L 1000 180 M -1000 190 L 1000 190 M -1000 200 L 1000 200 M -1000 210 L 1000 210 M -1000 220 L 1000 220 M -1000 230 L 1000 230 M -1000 240 L 1000 240 M -1000 250 L 1000 250 M -1000 260 L 1000 260 M -1000 270 L 1000 270 M -1000 280 L 1000 280 M -1000 290 L 1000 290 M -1000 300 L 1000 300 M -1000 310 L 1000 310 M -1000 320 L 1000 320 M -1000 330 L 1000 330 M -1000 340 L 1000 340 M -1000 350 L 1000 350 M -1000 360 L 1000 360 M -1000 370 L 1000 370 M -1000 380 L 1000 380 M -1000 390 L 1000 390 M -1000 400 L 1000 400 M -1000 410 L 1000 410 M -1000 420 L 1000 420 M -1000 430 L 1000 430 M -1000 440 L 1000 440 M -1000 450 L 1000 450 M -1000 460 L 1000 460 M -1000 470 L 1000 470 M -1000 480 L 1000 480 M -1000 490 L 1000 490 M -1000 500 L 1000 500 M -1000 510 L 1000 510 M -1000 520 L 1000 520 M -1000 530 L 1000 530 M -1000 540 L 1000 540 M -1000 550 L 1000 550 M -1000 560 L 1000 560 M -1000 570 L 1000 570 M -1000 580 L 1000 580 M -1000 590 L 1000 590 M -1000 600 L 1000 600 M -1000 610 L 1000 610 M -1000 620 L 1000 620 M -1000 630 L 1000 630 M -1000 640 L 1000 640 M -1000 650 L 1000 650 M -1000 660 L 1000 660 M -1000 670 L 1000 670 M -1000 680 L 1000 680 M -1000 690 L 1000 690 M -1000 700 L 1000 700 M -1000 710 L 1000 710 M -1000 720 L 1000 720 M -1000 730 L 1000 730 M -1000 740 L 1000 740 M -1000 750 L 1000 750 M -1000 760 L 1000 760 M -1000 770 L 1000 770 M -1000 780 L 1000 780 M -1000 790 L 1000 790 M -1000 800 L 1000 800 M -1000 810 L 1000 810 M -1000 820 L 1000 820 M -1000 830 L 1000 830 M -1000 840 L 1000 840 M -1000 850 L 1000 850 M -1000 860 L 1000 860 M -1000 870 L 1000 870 M -1000 880 L 1000 880 M -1000 890 L 1000 890 M -1000 900 L 1000 900 M -1000 910 L 1000 910 M -1000 920 L 1000 920 M -1000 930 L 1000 930 M -1000 940 L 1000 940 M -1000 950 L 1000 950 M -1000 960 L 1000 960 M -1000 970 L 1000 970 M -1000 980 L 1000 980 M -1000 990 L 1000 990 M -1000 1000 L 1000 1000 " transform="matrix(1,0,0,-1,0,200)"/>
</g>
</defs>
<g id="id4">
<use xlink:href="#id3" mask="url(#id1)"/>
<path style=" stroke:none;fill-rule:nonzero;fill:rgb(36.8417%,50.6779%,70.9798%);fill-opacity:1;" d="M 19.945312 56.644531 C 19.945312 52.644531 13.945312 52.644531 13.945312 56.644531 C 13.945312 60.644531 19.945312 60.644531 19.945312 56.644531 "/>
<path style=" stroke:none;fill-rule:nonzero;fill:rgb(36.8417%,50.6779%,70.9798%);fill-opacity:1;" d="M 57.621094 64.851562 C 57.621094 60.851562 51.621094 60.851562 51.621094 64.851562 C 51.621094 68.851562 57.621094 68.851562 57.621094 64.851562 "/>
<path style=" stroke:none;fill-rule:nonzero;fill:rgb(36.8417%,50.6779%,70.9798%);fill-opacity:1;" d="M 76.574219 109.027344 C 76.574219 105.027344 70.574219 105.027344 70.574219 109.027344 C 70.574219 113.027344 76.574219 113.027344 76.574219 109.027344 "/>
<path style=" stroke:none;fill-rule:nonzero;fill:rgb(36.8417%,50.6779%,70.9798%);fill-opacity:1;" d="M 159.421875 168.121094 C 159.421875 164.121094 153.421875 164.121094 153.421875 168.121094 C 153.421875 172.121094 159.421875 172.121094 159.421875 168.121094 "/>
<path style=" stroke:none;fill-rule:nonzero;fill:rgb(36.8417%,50.6779%,70.9798%);fill-opacity:1;" d="M 160.445312 179.867188 C 160.445312 175.867188 154.445312 175.867188 154.445312 179.867188 C 154.445312 183.867188 160.445312 183.867188 160.445312 179.867188 "/>
<path style=" stroke:none;fill-rule:nonzero;fill:rgb(36.8417%,50.6779%,70.9798%);fill-opacity:1;" d="M 268.507812 54.46875 C 268.507812 50.46875 262.507812 50.46875 262.507812 54.46875 C 262.507812 58.46875 268.507812 58.46875 268.507812 54.46875 "/>
<path style=" stroke:none;fill-rule:nonzero;fill:rgb(36.8417%,50.6779%,70.9798%);fill-opacity:1;" d="M 228.953125 153.988281 C 228.953125 149.988281 222.953125 149.988281 222.953125 153.988281 C 222.953125 157.988281 228.953125 157.988281 228.953125 153.988281 "/>
<path style=" stroke:none;fill-rule:nonzero;fill:rgb(36.8417%,50.6779%,70.9798%);fill-opacity:1;" d="M 68.601562 34.976562 C 68.601562 30.976562 62.601562 30.976562 62.601562 34.976562 C 62.601562 38.976562 68.601562 38.976562 68.601562 34.976562 "/>
<path style=" stroke:none;fill-rule:nonzero;fill:rgb(36.8417%,50.6779%,70.9798%);fill-opacity:1;" d="M 192.390625 96.742188 C 192.390625 92.742188 186.390625 92.742188 186.390625 96.742188 C 186.390625 100.742188 192.390625 100.742188 192.390625 96.742188 "/>
<path style=" stroke:none;fill-rule:nonzero;fill:rgb(36.8417%,50.6779%,70.9798%);fill-opacity:1;" d="M 202.054688 31.925781 C 202.054688 27.925781 196.054688 27.925781 196.054688 31.925781 C 196.054688 35.925781 202.054688 35.925781 202.054688 31.925781 "/>
<path style=" stroke:none;fill-rule:nonzero;fill:rgb(36.8417%,50.6779%,70.9798%);fill-opacity:1;" d="M 256.328125 141.453125 C 256.328125 137.453125 250.328125 137.453125 250.328125 141.453125 C 250.328125 145.453125 256.328125 145.453125 256.328125 141.453125 "/>
<path style=" stroke:none;fill-rule:nonzero;fill:rgb(36.8417%,50.6779%,70.9798%);fill-opacity:1;" d="M 33.246094 145.757812 C 33.246094 141.757812 27.246094 141.757812 27.246094 145.757812 C 27.246094 149.757812 33.246094 149.757812 33.246094 145.757812 "/>
<path style=" stroke:none;fill-rule:nonzero;fill:rgb(36.8417%,50.6779%,70.9798%);fill-opacity:1;" d="M 202.269531 176.140625 C 202.269531 172.140625 196.269531 172.140625 196.269531 176.140625 C 196.269531 180.140625 202.269531 180.140625 202.269531 176.140625 "/>
<path style=" stroke:none;fill-rule:nonzero;fill:rgb(36.8417%,50.6779%,70.9798%);fill-opacity:1;" d="M 230.988281 141.871094 C 230.988281 137.871094 224.988281 137.871094 224.988281 141.871094 C 224.988281 145.871094 230.988281 145.871094 230.988281 141.871094 "/>
<path style=" stroke:none;fill-rule:nonzero;fill:rgb(36.8417%,50.6779%,70.9798%);fill-opacity:1;" d="M 218.847656 187.734375 C 218.847656 183.734375 212.847656 183.734375 212.847656 187.734375 C 212.847656 191.734375 218.847656 191.734375 218.847656 187.734375 "/>
<path style=" stroke:none;fill-rule:nonzero;fill:rgb(36.8417%,50.6779%,70.9798%);fill-opacity:1;" d="M 158.1875 76.269531 C 158.1875 72.269531 152.1875 72.269531 152.1875 76.269531 C 152.1875 80.269531 158.1875 80.269531 158.1875 76.269531 "/>
<path style=" stroke:none;fill-rule:nonzero;fill:rgb(36.8417%,50.6779%,70.9798%);fill-opacity:1;" d="M 14 36.003906 C 14 32.003906 8 32.003906 8 36.003906 C 8 40.003906 14 40.003906 14 36.003906 "/>
<path style=" stroke:none;fill-rule:nonzero;fill:rgb(36.8417%,50.6779%,70.9798%);fill-opacity:1;" d="M 213.449219 79.054688 C 213.449219 75.054688 207.449219 75.054688 207.449219 79.054688 C 207.449219 83.054688 213.449219 83.054688 213.449219 79.054688 "/>
<path style=" stroke:none;fill-rule:nonzero;fill:rgb(36.8417%,50.6779%,70.9798%);fill-opacity:1;" d="M 67.226562 21.878906 C 67.226562 17.878906 61.226562 17.878906 61.226562 21.878906 C 61.226562 25.878906 67.226562 25.878906 67.226562 21.878906 "/>
<path style=" stroke:none;fill-rule:nonzero;fill:rgb(36.8417%,50.6779%,70.9798%);fill-opacity:1;" d="M 172.320312 90.085938 C 172.320312 86.085938 166.320312 86.085938 166.320312 90.085938 C 166.320312 94.085938 172.320312 94.085938 172.320312 90.085938 "/>
<path style=" stroke:none;fill-rule:nonzero;fill:rgb(36.8417%,50.6779%,70.9798%);fill-opacity:1;" d="M 268.363281 101.996094 C 268.363281 97.996094 262.363281 97.996094 262.363281 101.996094 C 262.363281 105.996094 268.363281 105.996094 268.363281 101.996094 "/>
<path style=" stroke:none;fill-rule:nonzero;fill:rgb(36.8417%,50.6779%,70.9798%);fill-opacity:1;" d="M 230.179688 114.335938 C 230.179688 110.335938 224.179688 110.335938 224.179688 114.335938 C 224.179688 118.335938 230.179688 118.335938 230.179688 114.335938 "/>
<path style=" stroke:none;fill-rule:nonzero;fill:rgb(36.8417%,50.6779%,70.9798%);fill-opacity:1;" d="M 178.625 187.75 C 178.625 183.75 172.625 183.75 172.625 187.75 C 172.625 191.75 178.625 191.75 178.625 187.75 "/>
<path style=" stroke:none;fill-rule:nonzero;fill:rgb(36.8417%,50.6779%,70.9798%);fill-opacity:1;" d="M 14.28125 95.246094 C 14.28125 91.246094 8.28125 91.246094 8.28125 95.246094 C 8.28125 99.246094 14.28125 99.246094 14.28125 95.246094 "/>
<path style=" stroke:none;fill-rule:nonzero;fill:rgb(36.8417%,50.6779%,70.9798%);fill-opacity:1;" d="M 223.507812 107.386719 C 223.507812 103.386719 217.507812 103.386719 217.507812 107.386719 C 217.507812 111.386719 223.507812 111.386719 223.507812 107.386719 "/>
<path style=" stroke:none;fill-rule:nonzero;fill:rgb(36.8417%,50.6779%,70.9798%);fill-opacity:1;" d="M 17.261719 126.589844 C 17.261719 122.589844 11.261719 122.589844 11.261719 126.589844 C 11.261719 130.589844 17.261719 130.589844 17.261719 126.589844 "/>
<path style=" stroke:none;fill-rule:nonzero;fill:rgb(36.8417%,50.6779%,70.9798%);fill-opacity:1;" d="M 111.160156 153.089844 C 111.160156 149.089844 105.160156 149.089844 105.160156 153.089844 C 105.160156 157.089844 111.160156 157.089844 111.160156 153.089844 "/>
<path style=" stroke:none;fill-rule:nonzero;fill:rgb(36.8417%,50.6779%,70.9798%);fill-opacity:1;" d="M 126.097656 163.660156 C 126.097656 159.660156 120.097656 159.660156 120.097656 163.660156 C 120.097656 167.660156 126.097656 167.660156 126.097656 163.660156 "/>
<path style=" stroke:none;fill-rule:nonzero;fill:rgb(36.8417%,50.6779%,70.9798%);fill-opacity:1;" d="M 267.640625 129.300781 C 267.640625 125.300781 261.640625 125.300781 261.640625 129.300781 C 261.640625 133.300781 267.640625 133.300781 267.640625 129.300781 "/>
<path style=" stroke:none;fill-rule:nonzero;fill:rgb(36.8417%,50.6779%,70.9798%);fill-opacity:1;" d="M 162.941406 151.808594 C 162.941406 147.808594 156.941406 147.808594 156.941406 151.808594 C 156.941406 155.808594 162.941406 155.808594 162.941406 151.808594 "/>
<path style=" stroke:none;fill-rule:nonzero;fill:rgb(36.8417%,50.6779%,70.9798%);fill-opacity:1;" d="M 186.9375 133.207031 C 186.9375 129.207031 180.9375 129.207031 180.9375 133.207031 C 180.9375 137.207031 186.9375 137.207031 186.9375 133.207031 "/>
<path style=" stroke:none;fill-rule:nonzero;fill:rgb(36.8417%,50.6779%,70.9798%);fill-opacity:1;" d="M 223.257812 97 C 223.257812 93 217.257812 93 217.257812 97 C 217.257812 101 223.257812 101 223.257812 97 "/>
<path style="fill:none;stroke-width:2;stroke-linecap:butt;stroke-linejoin:round;stroke:rgb(52.8488%,47.0624%,70.1351%);stroke-opacity:1;stroke-miterlimit:10;" d="M 175.625 12.25 L 199.269531 23.859375 L 215.847656 12.265625 L 225.953125 46.011719 L 227.988281 58.128906 L 253.328125 58.546875 L 264.640625 70.699219 L 265.363281 98.003906 L 265.507812 145.53125 L 199.054688 168.074219 L 155.1875 123.730469 L 169.320312 109.914062 L 189.390625 103.257812 L 210.449219 120.945312 L 220.257812 103 L 220.507812 92.613281 L 227.179688 85.664062 L 183.9375 66.792969 L 159.941406 48.191406 L 73.574219 90.972656 L 54.621094 135.148438 L 65.601562 165.023438 L 64.226562 178.121094 L 11 163.996094 L 16.945312 143.355469 L 11.28125 104.753906 L 14.261719 73.410156 L 30.246094 54.242188 L 108.160156 46.910156 L 123.097656 36.339844 L 156.421875 31.878906 L 157.445312 20.132812 Z M 175.625 12.25 " transform="matrix(1,0,0,-1,0,200)"/>
</g>
</svg>
