<?xml version="1.0" encoding="UTF-8"?>
<svg xmlns="http://www.w3.org/2000/svg" xmlns:xlink="http://www.w3.org/1999/xlink" width="200pt" height="200pt" viewBox="0 0 200 200" version="1.1">
<g id="id1">
<path style="fill:none;stroke-width:2;stroke-linecap:butt;stroke-linejoin:miter;stroke:rgb(36.8417%,50.6779%,70.9798%);stroke-opacity:1;stroke-miterlimit:10;" d="M 184.417969 50.5 L 183.195312 51.820312 L 182.917969 52.972656 L 183.640625 54.113281 L 185.117188 55.292969 L 186.085938 55.917969 L 187.882812 56.902344 L 188.996094 57.394531 L 190.722656 57.996094 L 191.578125 58.226562 L 193.398438 58.582031 L 195.820312 58.816406 L 199.878906 58.746094 L 205.765625 57.988281 L 208.609375 57.453125 L 214.460938 56.148438 L 225.039062 53.433594 L 234.792969 50.75 L 244.957031 47.855469 "/>
<path style="fill:none;stroke-width:2;stroke-linecap:butt;stroke-linejoin:miter;stroke:rgb(88.0722%,61.1041%,14.2051%);stroke-opacity:1;stroke-miterlimit:10;" d="M 7.902344 19.636719 L 2.882812 17.957031 L -3.050781 15.5625 L -9.929688 12.246094 L -17.054688 8.335938 L -20.847656 6.097656 L -27.222656 2.136719 L -30.886719 -0.226562 L -36.253906 -3.78125 L -38.796875 -5.5 L -43.960938 -9.042969 L -50.402344 -13.546875 L -60.292969 -20.613281 L -73.191406 -30.023438 L -78.972656 -34.292969 L -90.234375 -42.660156 L -109.113281 -56.765625 L -125.5 -69.015625 L -141.949219 -81.289062 "/>
<path style="fill:none;stroke-width:2;stroke-linecap:butt;stroke-linejoin:miter;stroke:rgb(56.0181%,69.1569%,19.4885%);stroke-opacity:1;stroke-miterlimit:10;" d="M 65.679688 39.800781 L 60.59375 44.785156 L 55.355469 49.597656 L 50.046875 53.976562 L 45.390625 56.238281 L 42.820312 56.460938 L 38.160156 56.164062 L 35.355469 55.769531 L 31.148438 54.988281 L 29.117188 54.546875 L 24.953125 53.539062 L 19.695312 52.09375 L 11.5625 49.554688 L 0.925781 45.804688 L -3.824219 44.019531 L -13 40.503906 L -28.15625 35.1875 L -41.5 31.695312 L -55.324219 28.78125 "/>
<path style="fill:none;stroke-width:2;stroke-linecap:butt;stroke-linejoin:miter;stroke:rgb(92.2526%,38.5626%,20.9179%);stroke-opacity:1;stroke-miterlimit:10;" d="M 43.773438 35.613281 L 39.414062 27.488281 L 34.703125 18.929688 L 29.371094 9.609375 L 23.96875 0.28125 L 21.121094 -4.582031 L 16.320312 -12.625 L 13.539062 -17.195312 L 9.433594 -23.828125 L 7.476562 -26.957031 L 3.488281 -33.273438 L -1.515625 -41.105469 L -9.210938 -53.019531 L -19.238281 -68.367188 L -23.707031 -75.175781 L -32.367188 -88.316406 L -46.710938 -110.023438 L -58.992188 -128.585938 L -71.183594 -147.023438 "/>
<path style="fill:none;stroke-width:2;stroke-linecap:butt;stroke-linejoin:miter;stroke:rgb(52.8488%,47.0624%,70.1351%);stroke-opacity:1;stroke-miterlimit:10;" d="M 62.09375 15.582031 L 67.101562 14.324219 L 72.199219 12.472656 L 77.5 10.09375 L 82.585938 7.292969 L 85.117188 5.632812 L 88.972656 2.535156 L 90.867188 0.546875 L 93.03125 -2.753906 L 93.757812 -4.476562 L 94.527344 -7.921875 L 94.785156 -11.296875 L 95.230469 -16.105469 L 95.855469 -23.101562 L 96.109375 -26.496094 L 96.542969 -33.460938 L 97.085938 -45.929688 L 97.398438 -57.320312 L 97.574219 -69.15625 "/>
<path style="fill:none;stroke-width:2;stroke-linecap:butt;stroke-linejoin:miter;stroke:rgb(77.2079%,43.1554%,10.2387%);stroke-opacity:1;stroke-miterlimit:10;" d="M 133.878906 16.253906 L 138.804688 15.820312 L 143.847656 14.945312 L 149.769531 13.347656 L 156.269531 11.09375 L 159.835938 9.710938 L 165.921875 7.15625 L 169.457031 5.5625 L 174.660156 3.078125 L 177.136719 1.835938 L 182.191406 -0.796875 L 188.550781 -4.28125 L 198.433594 -9.945312 L 211.480469 -17.664062 L 217.347656 -21.183594 L 228.757812 -28.089844 L 247.738281 -39.710938 L 264.042969 -49.800781 L 280.265625 -59.917969 "/>
<path style="fill:none;stroke-width:2;stroke-linecap:butt;stroke-linejoin:miter;stroke:rgb(36.3898%,61.8501%,78.2349%);stroke-opacity:1;stroke-miterlimit:10;" d="M 27.390625 24.140625 L 17.078125 29.6875 L 7.226562 33.878906 L 1.804688 35.183594 L -1.800781 35.730469 L -3.300781 35.773438 L -5.351562 35.621094 L -6.355469 35.457031 L -7.707031 35.136719 L -8.316406 34.953125 L -9.53125 34.53125 L -11.050781 33.902344 L -13.460938 32.714844 L -16.886719 30.742188 L -18.5625 29.691406 L -22.125 27.265625 L -29.070312 21.628906 L -35.675781 14.890625 L -42.5625 7.019531 "/>
<path style="fill:none;stroke-width:2;stroke-linecap:butt;stroke-linejoin:miter;stroke:rgb(100%,75%,0%);stroke-opacity:1;stroke-miterlimit:10;" d="M 12.925781 0.277344 L 16.507812 -4.058594 L 19.882812 -9.199219 L 23.136719 -15.238281 L 26.027344 -21.664062 L 27.425781 -25.183594 L 29.613281 -31.261719 L 30.789062 -34.832031 L 32.363281 -40.152344 L 33.035156 -42.710938 L 34.140625 -48.042969 L 34.839844 -55.355469 L 35.398438 -68.425781 L 36.285156 -86.425781 L 36.691406 -94.527344 L 37.441406 -110.25 L 38.511719 -136.359375 L 39.226562 -158.8125 L 39.742188 -181.242188 "/>
<path style="fill:none;stroke-width:2;stroke-linecap:butt;stroke-linejoin:miter;stroke:rgb(64.7624%,37.816%,61.4037%);stroke-opacity:1;stroke-miterlimit:10;" d="M 0.4375 52.042969 L -1.546875 49.683594 L -4.472656 47.03125 L -8.59375 43.707031 L -13.445312 39.328125 L -16.160156 36.476562 L -20.96875 31.164062 L -23.84375 27.949219 L -28.128906 23.144531 L -30.183594 20.84375 L -34.378906 16.164062 L -39.628906 10.347656 L -47.664062 1.53125 L -58.023438 -9.675781 L -62.59375 -14.582031 L -71.359375 -23.941406 L -85.648438 -39.117188 L -97.6875 -51.898438 L -109.515625 -64.464844 "/>
<path style="fill:none;stroke-width:2;stroke-linecap:butt;stroke-linejoin:miter;stroke:rgb(57.1589%,58.6483%,0%);stroke-opacity:1;stroke-miterlimit:10;" d="M 167.3125 9.5 L 160.015625 4.179688 L 153.226562 -2 L 146.769531 -9.398438 L 140.925781 -17.371094 L 138.035156 -21.71875 L 133.429688 -29.152344 L 130.898438 -33.492188 L 127.332031 -39.90625 L 125.6875 -42.976562 L 122.441406 -49.242188 L 118.539062 -57.121094 L 112.820312 -69.296875 L 105.769531 -85.25 L 102.746094 -92.398438 L 97.0625 -106.289062 L 88.085938 -129.445312 L 80.796875 -149.398438 L 73.910156 -169.300781 "/>
<path style="fill:none;stroke-width:2;stroke-linecap:butt;stroke-linejoin:miter;stroke:rgb(91.5%,33.25%,21.25%);stroke-opacity:1;stroke-miterlimit:10;" d="M 17.421875 41.480469 L 11.546875 38.023438 L 4.257812 35.324219 L -8.460938 34.457031 L -22.570312 32.21875 L -30.34375 30.660156 L -43.605469 27.917969 L -51.269531 26.324219 L -62.476562 23.992188 L -67.773438 22.890625 L -78.480469 20.664062 L -91.726562 17.902344 L -111.785156 13.703125 L -137.421875 8.304688 L -148.710938 5.917969 L -170.359375 1.328125 L -205.726562 -6.21875 L -235.644531 -12.632812 L -265.109375 -18.972656 "/>
<path style="fill:none;stroke-width:2;stroke-linecap:butt;stroke-linejoin:miter;stroke:rgb(40.082223%,52.200666%,85%);stroke-opacity:1;stroke-miterlimit:10;" d="M 105.425781 15.8125 L 104.3125 15.914062 L 103.191406 15.273438 L 102.007812 13.804688 L 100.808594 11.636719 L 100.152344 10.265625 L 99.027344 7.75 L 98.398438 6.296875 L 97.566406 4.4375 L 97.207031 3.738281 L 96.484375 2.6875 L 95.511719 1.800781 L 93.832031 0.828125 L 91.519531 -0.453125 L 90.539062 -1.207031 L 88.910156 -3.285156 L 87.3125 -9.484375 L 86.890625 -17.65625 L 86.941406 -27.265625 "/>
<path style="fill:none;stroke-width:2;stroke-linecap:butt;stroke-linejoin:miter;stroke:rgb(97.282889%,62.164445%,7.3362%);stroke-opacity:1;stroke-miterlimit:10;" d="M 42.59375 11.148438 L 46.984375 13.207031 L 51.324219 14.433594 L 55.71875 15.085938 L 59.640625 15.3125 L 61.503906 15.273438 L 64.320312 14.9375 L 65.789062 14.578125 L 67.769531 13.835938 L 68.65625 13.40625 L 70.355469 12.402344 L 72.304688 10.984375 L 74.917969 8.605469 L 77.492188 5.347656 L 78.253906 3.882812 L 78.792969 1.089844 L 76.269531 -3.347656 L 71.050781 -7.355469 L 64.058594 -11.917969 "/>
<path style="fill:none;stroke-width:2;stroke-linecap:butt;stroke-linejoin:miter;stroke:rgb(73.678267%,35.8%,50.302666%);stroke-opacity:1;stroke-miterlimit:10;" d="M 85.5 37.136719 L 82.433594 36.664062 L 79.238281 35.867188 L 75.847656 34.800781 L 72.519531 33.609375 L 70.796875 32.957031 L 67.945312 31.847656 L 66.316406 31.226562 L 63.917969 30.351562 L 62.761719 29.945312 L 60.371094 29.121094 L 57.296875 28.058594 L 52.394531 26.257812 L 45.738281 23.535156 L 42.691406 22.191406 L 36.679688 19.378906 L 26.539062 14.207031 L 17.804688 9.351562 L 9.175781 4.203125 "/>
<path style="fill:none;stroke-width:2;stroke-linecap:butt;stroke-linejoin:miter;stroke:rgb(28.026441%,71.5%,42.920893%);stroke-opacity:1;stroke-miterlimit:10;" d="M 89.300781 3.980469 L 82.847656 0.203125 L 76.296875 -4.519531 L 69.488281 -10.453125 L 62.855469 -16.984375 L 59.433594 -20.574219 L 53.828125 -26.71875 L 50.695312 -30.296875 L 46.261719 -35.566406 L 44.242188 -38.058594 L 40.410156 -43.042969 L 36.328125 -48.664062 L 30.609375 -55.503906 L 23.015625 -63.460938 L 19.609375 -66.953125 L 13.011719 -73.707031 L 2.082031 -84.953125 L -7.289062 -94.65625 L -16.605469 -104.367188 "/>
<path style="fill:none;stroke-width:2;stroke-linecap:butt;stroke-linejoin:miter;stroke:rgb(83.835555%,44.746668%,2.088887%);stroke-opacity:1;stroke-miterlimit:10;" d="M 103.605469 45.632812 L 105.101562 41.0625 L 106.226562 36.214844 L 106.980469 30.800781 L 107.609375 25.417969 L 107.957031 22.691406 L 108.621094 18.359375 L 109.078125 16.015625 L 109.882812 12.757812 L 110.320312 11.269531 L 111.328125 8.3125 L 112.785156 4.664062 L 115.390625 -1.042969 L 119.34375 -8.738281 L 121.269531 -12.242188 L 125.207031 -19.105469 L 132.269531 -30.691406 L 138.8125 -40.847656 L 145.773438 -51.140625 "/>
<path style="fill:none;stroke-width:2;stroke-linecap:butt;stroke-linejoin:miter;stroke:rgb(58.336801%,41.261866%,82.907997%);stroke-opacity:1;stroke-miterlimit:10;" d="M 168.070312 64.96875 L 166.472656 59.757812 L 165.464844 54.722656 L 165.761719 49.3125 L 166.945312 43.207031 L 167.691406 39.804688 L 169.089844 33.945312 L 169.972656 30.53125 L 171.351562 25.507812 L 172.039062 23.125 L 173.484375 18.304688 L 175.339844 12.332031 L 178.230469 3.257812 L 182.027344 -8.476562 L 183.746094 -13.714844 L 187.136719 -23.875 L 192.980469 -40.792969 L 198.214844 -55.375 L 203.625 -69.9375 "/>
<path style="fill:none;stroke-width:2;stroke-linecap:butt;stroke-linejoin:miter;stroke:rgb(89.963995%,74.634888%,0%);stroke-opacity:1;stroke-miterlimit:10;" d="M 117.789062 31.53125 L 118.050781 37.125 L 118.722656 42.4375 L 119.707031 47.75 L 120.480469 52.601562 L 120.765625 54.992188 L 121.128906 58.785156 L 121.332031 60.820312 L 121.730469 63.472656 L 122.148438 64.417969 L 124.785156 66.074219 L 129.015625 68.492188 L 135.644531 72.035156 L 144.34375 76.09375 L 148.199219 77.761719 L 155.46875 80.808594 L 166.714844 85.484375 L 175.527344 89.300781 L 183.699219 93.046875 "/>
<path style="fill:none;stroke-width:2;stroke-linecap:butt;stroke-linejoin:miter;stroke:rgb(84.394669%,34.671066%,33.092219%);stroke-opacity:1;stroke-miterlimit:10;" d="M 175.179688 27.890625 L 178.234375 32.554688 L 181.964844 36.640625 L 186.601562 40.035156 L 191.890625 42.402344 L 194.933594 43.304688 L 200.371094 44.402344 L 203.65625 44.847656 L 208.632812 45.304688 L 211.054688 45.449219 L 216.0625 45.628906 L 222.464844 45.660156 L 232.53125 45.371094 L 245.949219 44.507812 L 252.027344 43.984375 L 263.929688 42.765625 L 283.976562 40.273438 L 301.414062 37.765625 L 318.933594 35 "/>
<path style="fill:none;stroke-width:2;stroke-linecap:butt;stroke-linejoin:miter;stroke:rgb(28.240003%,60.907997%,75.388004%);stroke-opacity:1;stroke-miterlimit:10;" d="M 15.191406 87.839844 L 10.972656 97.972656 L 6.09375 108.035156 L 0.621094 118.449219 L -5.152344 128.445312 L -8.292969 133.484375 L -13.597656 141.53125 L -16.613281 145.96875 L -21.015625 152.308594 L -23.140625 155.25 L -27.628906 161.085938 L -33.824219 168.140625 L -44.484375 179.113281 L -59.042969 193.675781 L -65.621094 200.183594 L -78.4375 212.75 L -99.832031 233.449219 L -118.265625 251.074219 L -136.644531 268.5 "/>
<path style="fill:none;stroke-width:2;stroke-linecap:butt;stroke-linejoin:miter;stroke:rgb(93.243336%,52.82889%,9.219002%);stroke-opacity:1;stroke-miterlimit:10;" d="M 148.527344 2.632812 L 141.542969 4.082031 L 134.417969 4.226562 L 126.664062 3.183594 L 119.085938 1.363281 L 115.246094 0.128906 L 109.136719 -2.371094 L 105.851562 -4.089844 L 101.40625 -7.070312 L 99.5 -8.722656 L 96.191406 -12.867188 L 92.625 -19.980469 L 86.960938 -32.640625 L 79.453125 -49.863281 L 76.109375 -57.617188 L 69.675781 -72.65625 L 59.15625 -97.488281 L 50.269531 -118.589844 L 41.503906 -139.363281 "/>
<path style="fill:none;stroke-width:2;stroke-linecap:butt;stroke-linejoin:miter;stroke:rgb(67.534135%,35.896754%,59.914662%);stroke-opacity:1;stroke-miterlimit:10;" d="M 195.023438 30.382812 L 205.144531 19.835938 L 216.054688 8.710938 L 227.847656 -3.1875 L 239.472656 -14.851562 L 245.503906 -20.886719 L 255.457031 -30.816406 L 261.089844 -36.433594 L 269.226562 -44.535156 L 273.046875 -48.332031 L 280.714844 -55.957031 L 290.144531 -65.316406 L 304.324219 -79.382812 L 322.328125 -97.226562 L 330.222656 -105.046875 L 345.324219 -119.996094 L 369.914062 -144.324219 L 390.652344 -164.832031 L 411.03125 -184.976562 "/>
<path style="fill:none;stroke-width:2;stroke-linecap:butt;stroke-linejoin:miter;stroke:rgb(54.079323%,71.5%,9.76268%);stroke-opacity:1;stroke-miterlimit:10;" d="M 165.136719 45.1875 L 158.65625 44.417969 L 152.425781 42.785156 L 146.046875 40.265625 L 140.089844 37.480469 L 137.132812 35.9375 L 132.417969 33.25 L 129.828125 31.671875 L 126.1875 29.355469 L 124.523438 28.257812 L 121.269531 26.058594 L 117.433594 23.390625 L 111.941406 19.488281 L 105.296875 14.601562 L 102.449219 12.429688 L 97.128906 8.367188 L 89.558594 3.015625 L 84.582031 0.0546875 L 80.335938 -2.703125 "/>
<path style="fill:none;stroke-width:2;stroke-linecap:butt;stroke-linejoin:miter;stroke:rgb(88.572442%,37.641336%,13.931106%);stroke-opacity:1;stroke-miterlimit:10;" d="M 142.320312 34.859375 L 140.808594 30.609375 L 139.429688 26.179688 L 137.929688 21.613281 L 136.398438 16.984375 L 135.660156 14.445312 L 134.605469 10.003906 L 134.121094 7.355469 L 133.578125 3.367188 L 133.386719 1.433594 L 133.132812 -2.574219 L 133.054688 -7.707031 L 133.390625 -15.84375 L 134.515625 -26.867188 L 135.214844 -31.945312 L 136.847656 -42.035156 L 140.125 -59.449219 L 143.304688 -74.941406 L 146.675781 -90.746094 "/>
<path style="fill:none;stroke-width:2;stroke-linecap:butt;stroke-linejoin:miter;stroke:rgb(47.401117%,47.80933%,85%);stroke-opacity:1;stroke-miterlimit:10;" d="M 27.554688 103.5625 L 31.460938 102.660156 L 34.292969 101.910156 L 33.996094 101.199219 L 30.40625 99.835938 L 27.851562 98.996094 L 22.925781 97.734375 L 19.777344 97.203125 L 14.765625 96.769531 L 12.226562 96.703125 L 6.78125 96.792969 L -0.449219 97.195312 L -12.160156 98.121094 L -28.019531 99.5625 L -35.21875 100.25 L -49.308594 101.609375 L -72.90625 103.921875 L -93.265625 105.921875 L -113.582031 107.914062 "/>
<path style="fill:none;stroke-width:2;stroke-linecap:butt;stroke-linejoin:miter;stroke:rgb(98.746668%,69.483339%,3.383997%);stroke-opacity:1;stroke-miterlimit:10;" d="M 118.902344 82.367188 L 115.050781 82.738281 L 111.351562 82.761719 L 107.613281 82.320312 L 104.089844 81.296875 L 102.230469 80.457031 L 98.882812 78.691406 L 96.871094 77.597656 L 93.90625 75.953125 L 92.507812 75.15625 L 89.722656 73.511719 L 86.363281 71.402344 L 81.546875 68.117188 L 75.957031 64.019531 L 73.632812 62.324219 L 69.25 59.203125 L 62.070312 54.136719 L 55.925781 49.710938 L 49.808594 45.210938 "/>
<path style="fill:none;stroke-width:2;stroke-linecap:butt;stroke-linejoin:miter;stroke:rgb(77.484092%,35.8%,44.447551%);stroke-opacity:1;stroke-miterlimit:10;" d="M 0.953125 73.796875 L -1.425781 65.433594 L -4.542969 57.25 L -8.503906 50.03125 L -12.878906 46.074219 L -15.253906 45.1875 L -19.375 44.605469 L -21.832031 44.53125 L -25.546875 44.585938 L -27.351562 44.648438 L -31.089844 44.824219 L -35.871094 45.078125 L -43.414062 45.460938 L -53.519531 45.871094 L -58.117188 46.011719 L -67.164062 46.199219 L -82.539062 46.28125 L -96.050781 46.148438 L -109.742188 45.859375 "/>
<path style="fill:none;stroke-width:2;stroke-linecap:butt;stroke-linejoin:miter;stroke:rgb(16.397784%,70.381773%,61.177341%);stroke-opacity:1;stroke-miterlimit:10;" d="M 60.863281 81.78125 L 60.5625 81.199219 L 60.097656 80.085938 L 59.484375 78.160156 L 58.96875 75.617188 L 58.800781 74.144531 L 58.859375 71.648438 L 59.246094 70.234375 L 60.414062 68.042969 L 61.152344 66.898438 L 62.820312 64.382812 L 65.007812 60.996094 L 68.273438 55.457031 L 72.117188 47.726562 L 73.71875 44.082031 L 76.734375 36.828125 L 81.558594 24.886719 L 85.515625 15.464844 L 89.683594 7.507812 "/>
<path style="fill:none;stroke-width:2;stroke-linecap:butt;stroke-linejoin:miter;stroke:rgb(86.138004%,48.092003%,2.824204%);stroke-opacity:1;stroke-miterlimit:10;" d="M 147.296875 54.230469 L 151.90625 54.761719 L 156.203125 55.640625 L 159.898438 57.21875 L 163.070312 59.476562 L 164.730469 60.746094 L 167.53125 62.84375 L 169.160156 64.003906 L 171.558594 65.628906 L 172.703125 66.371094 L 175.035156 67.816406 L 177.949219 69.507812 L 182.363281 71.800781 L 187.882812 73.976562 L 190.25 74.5625 L 194.710938 74.984375 L 202.238281 73.96875 L 209.488281 71.808594 L 217.753906 68.71875 "/>
<path style="fill:none;stroke-width:2;stroke-linecap:butt;stroke-linejoin:miter;stroke:rgb(61.84987%,39.212576%,74.125325%);stroke-opacity:1;stroke-miterlimit:10;" d="M 33.570312 53.273438 L 37.949219 55.886719 L 42.007812 58.246094 L 45.546875 60.410156 L 47.902344 63.332031 L 49.019531 65.269531 L 50.707031 68.273438 L 51.363281 69.726562 L 51.730469 71.613281 L 51.726562 72.464844 L 51.574219 74.101562 L 51.34375 75.960938 L 51.085938 78.511719 L 50.753906 81.425781 L 50.566406 82.589844 L 50.113281 84.628906 L 49.164062 87.402344 L 48.296875 89.109375 L 47.660156 89.992188 "/>
<path style="fill:none;stroke-width:2;stroke-linecap:butt;stroke-linejoin:miter;stroke:rgb(76.789986%,73.17111%,0%);stroke-opacity:1;stroke-miterlimit:10;" d="M 113.144531 63.214844 L 118.574219 62.144531 L 124.285156 60.886719 L 130.433594 59.605469 L 136.601562 58.5625 L 139.871094 58.085938 L 145.363281 57.308594 L 148.507812 56.835938 L 153.0625 56.074219 L 155.199219 55.675781 L 159.484375 54.78125 L 164.726562 53.492188 L 172.550781 51.113281 L 182.417969 47.320312 L 186.730469 45.394531 L 194.941406 41.296875 L 208.269531 33.566406 L 219.515625 26.171875 L 230.621094 18.277344 "/>
<path style="fill:none;stroke-width:2;stroke-linecap:butt;stroke-linejoin:miter;stroke:rgb(88.786005%,33.792799%,25.773325%);stroke-opacity:1;stroke-miterlimit:10;" d="M 85.359375 74.628906 L 79.667969 83.203125 L 73.925781 91.175781 L 68.785156 98.242188 L 66.136719 104.589844 L 65.175781 107.9375 L 63.835938 113.285156 L 63.183594 116.054688 L 62.445312 119.324219 L 62.328125 120.324219 L 63.207031 121.257812 L 65.542969 121.804688 L 69.789062 122.453125 L 75.523438 123.40625 L 78.082031 123.917969 L 83.003906 125.058594 L 91.039062 127.300781 L 97.773438 129.457031 L 104.328125 131.738281 "/>
<path style="fill:none;stroke-width:2;stroke-linecap:butt;stroke-linejoin:miter;stroke:rgb(35.558897%,55.052882%,84.170677%);stroke-opacity:1;stroke-miterlimit:10;" d="M 94.96875 92.167969 L 91.113281 94.433594 L 87.519531 96.476562 L 84.355469 98.285156 L 81.882812 99.707031 L 80.828125 100.316406 L 79.390625 101.125 L 78.722656 101.480469 L 77.902344 101.871094 L 77.574219 102.007812 L 77.003906 102.199219 L 76.460938 102.296875 L 75.90625 102.171875 L 75.554688 101.574219 L 75.488281 101.183594 L 75.46875 100.269531 L 75.734375 98.511719 L 76.292969 96.925781 L 77.1875 95.335938 "/>
<path style="fill:none;stroke-width:2;stroke-linecap:butt;stroke-linejoin:miter;stroke:rgb(96.378224%,57.64112%,9.778795%);stroke-opacity:1;stroke-miterlimit:10;" d="M 44.863281 69.785156 L 42.78125 74.054688 L 40.160156 78.136719 L 36.699219 81.984375 L 32.570312 85.089844 L 30.148438 86.375 L 25.765625 87.910156 L 23.117188 88.398438 L 19.164062 88.582031 L 17.28125 88.46875 L 13.46875 87.917969 L 8.714844 86.824219 L 1.347656 84.675781 L -8.46875 81.519531 L -12.941406 80.070312 L -21.742188 77.253906 L -36.675781 72.679688 L -49.738281 68.925781 L -62.90625 65.367188 "/>
<path style="fill:none;stroke-width:2;stroke-linecap:butt;stroke-linejoin:miter;stroke:rgb(71.326138%,35.8%,53.921326%);stroke-opacity:1;stroke-miterlimit:10;" d="M 185.429688 74.898438 L 186.207031 74.566406 L 187.832031 74.164062 L 190.390625 73.71875 L 193.675781 73.3125 L 195.660156 73.136719 L 199.347656 72.902344 L 201.652344 72.808594 L 205.242188 72.71875 L 207.027344 72.695312 L 210.800781 72.679688 L 215.742188 72.707031 L 223.734375 72.824219 L 234.664062 73.046875 L 239.679688 73.152344 L 249.589844 73.355469 L 266.425781 73.621094 L 281.136719 73.695312 L 295.921875 73.566406 "/>
<path style="fill:none;stroke-width:2;stroke-linecap:butt;stroke-linejoin:miter;stroke:rgb(37.977756%,71.5%,30.255583%);stroke-opacity:1;stroke-miterlimit:10;" d="M 186.628906 112.339844 L 190.914062 114.136719 L 196.054688 115.933594 L 202.1875 117.746094 L 208.785156 119.421875 L 212.40625 120.265625 L 218.65625 121.621094 L 222.332031 122.378906 L 227.816406 123.460938 L 230.453125 123.960938 L 235.878906 124.964844 L 242.765625 126.179688 L 253.59375 127.988281 L 268.183594 130.242188 L 274.902344 131.21875 L 288.359375 133.078125 L 312.058594 136.183594 L 333.628906 139.003906 L 355.875 141.992188 "/>
<path style="fill:none;stroke-width:2;stroke-linecap:butt;stroke-linejoin:miter;stroke:rgb(85.644885%,42.032673%,6.612212%);stroke-opacity:1;stroke-miterlimit:10;" d="M 179.023438 93.84375 L 177.890625 92.917969 L 177.332031 91.914062 L 177.339844 90.835938 L 177.867188 89.777344 L 178.320312 89.230469 L 179.300781 88.339844 L 179.980469 87.847656 L 181.109375 87.160156 L 181.695312 86.855469 L 182.992188 86.285156 L 184.792969 85.683594 L 187.949219 85.101562 L 192.832031 85.207031 L 195.328125 85.640625 L 200.742188 87.148438 L 211.226562 91.105469 L 221.28125 95.390625 L 231.894531 100.109375 "/>
<path style="fill:none;stroke-width:2;stroke-linecap:butt;stroke-linejoin:miter;stroke:rgb(54.72001%,43.417994%,85%);stroke-opacity:1;stroke-miterlimit:10;" d="M 74.023438 101.339844 L 70.808594 100.191406 L 67.410156 98.96875 L 63.09375 98.1875 L 57.082031 97.140625 L 53.988281 96.09375 L 49.410156 93.484375 L 47.039062 91.515625 L 43.707031 88.214844 L 42.140625 86.550781 L 38.921875 83.074219 L 34.757812 78.636719 L 28.082031 71.640625 L 19.269531 62.316406 L 15.371094 58.136719 L 7.945312 50.078125 L -3.863281 36.878906 L -13.460938 25.699219 L -22.570312 14.671875 "/>
<path style="fill:none;stroke-width:2;stroke-linecap:butt;stroke-linejoin:miter;stroke:rgb(98.10598%,75.539553%,0%);stroke-opacity:1;stroke-miterlimit:10;" d="M 112.71875 101.386719 L 115.960938 101.867188 L 119.519531 102.140625 L 123.546875 101.976562 L 127.847656 101.210938 L 130.25 100.566406 L 134.527344 99.214844 L 137.113281 98.351562 L 141 97.050781 L 142.863281 96.4375 L 146.660156 95.191406 L 151.363281 93.664062 L 158.417969 91.371094 L 167.222656 88.46875 L 171.011719 87.210938 L 178.105469 84.871094 L 189.015625 81.242188 L 197.324219 78.371094 L 204.550781 75.75 "/>
<path style="fill:none;stroke-width:2;stroke-linecap:butt;stroke-linejoin:miter;stroke:rgb(81.680673%,35.213865%,37.615544%);stroke-opacity:1;stroke-miterlimit:10;" d="M 45.304688 94.34375 L 43.25 97.765625 L 40.980469 100.828125 L 39.800781 103.652344 L 39.445312 107.027344 L 38.953125 109.074219 L 37.53125 112.785156 L 36.429688 114.988281 L 34.480469 118.199219 L 33.414062 119.683594 L 30.980469 122.613281 L 27.464844 126.058594 L 21.046875 130.023438 L 8.433594 132.664062 L 2.273438 133.921875 L -9.980469 136.417969 L -30.75 140.632812 L -48.742188 144.265625 L -66.675781 147.871094 "/>
<path style="fill:none;stroke-width:2;stroke-linecap:butt;stroke-linejoin:miter;stroke:rgb(23.716678%,64.526657%,69.960014%);stroke-opacity:1;stroke-miterlimit:10;" d="M 173.222656 137.726562 L 177.84375 144.359375 L 182.632812 151.066406 L 186.570312 159.691406 L 190.585938 168.964844 L 192.765625 173.789062 L 196.464844 181.742188 L 198.59375 186.238281 L 201.699219 192.71875 L 203.160156 195.757812 L 206.105469 201.851562 L 209.71875 209.335938 L 215.125 220.597656 L 221.941406 234.949219 L 224.914062 241.273438 L 230.59375 253.429688 L 239.835938 273.390625 L 247.664062 290.386719 L 255.402344 307.21875 "/>
<path style="fill:none;stroke-width:2;stroke-linecap:butt;stroke-linejoin:miter;stroke:rgb(90.529341%,51.01956%,6.776406%);stroke-opacity:1;stroke-miterlimit:10;" d="M 140.9375 105.605469 L 137.808594 109.46875 L 135.039062 112.996094 L 132.699219 116.054688 L 131.1875 118.890625 L 130.738281 120.535156 L 130.25 123.5625 L 130.042969 125.386719 L 129.800781 128.113281 L 129.714844 129.414062 L 129.585938 132.058594 L 129.523438 135.34375 L 129.640625 140.339844 L 130.148438 146.738281 L 130.496094 149.542969 L 131.398438 154.859375 L 134 162.847656 L 138.703125 166.3125 L 144.199219 166.617188 "/>
<path style="fill:none;stroke-width:2;stroke-linecap:butt;stroke-linejoin:miter;stroke:rgb(65.362939%,37.163285%,65.342652%);stroke-opacity:1;stroke-miterlimit:10;" d="M 193.074219 135.277344 L 196.242188 148.304688 L 202.019531 159.335938 L 209.332031 170.9375 L 218.253906 180.566406 L 224.097656 184.695312 L 234.90625 191.132812 L 241.34375 194.71875 L 250.871094 199.867188 L 255.40625 202.273438 L 264.621094 207.109375 L 276.085938 213.042969 L 293.554688 221.96875 L 315.996094 233.320312 L 325.90625 238.304688 L 344.949219 247.84375 L 376.144531 263.410156 L 402.582031 276.554688 L 428.648438 289.488281 "/>
<path style="fill:none;stroke-width:2;stroke-linecap:butt;stroke-linejoin:miter;stroke:rgb(63.615977%,71.707331%,0%);stroke-opacity:1;stroke-miterlimit:10;" d="M 193.363281 196.707031 L 189.101562 203.824219 L 185.46875 212.039062 L 182.035156 221.679688 L 178.863281 231.691406 L 177.273438 237.027344 L 174.710938 246.003906 L 173.289062 251.167969 L 171.265625 258.714844 L 170.332031 262.285156 L 168.46875 269.523438 L 166.21875 278.507812 L 162.902344 292.195312 L 158.792969 309.824219 L 157.023438 317.640625 L 153.691406 332.703125 L 148.386719 357.53125 L 144.015625 378.722656 L 139.800781 399.75 "/>
<path style="fill:none;stroke-width:2;stroke-linecap:butt;stroke-linejoin:miter;stroke:rgb(90.381773%,34.927341%,18.454431%);stroke-opacity:1;stroke-miterlimit:10;" d="M 198.980469 154.382812 L 193.601562 150.726562 L 187.648438 149.316406 L 183.089844 146.066406 L 179.609375 142.277344 L 178.257812 140.679688 L 176.273438 139.234375 L 175.410156 138.804688 L 174.6875 139.824219 L 174.277344 140.703125 L 173.371094 142.480469 L 172.222656 144.554688 L 170.535156 147.527344 L 168.640625 151.265625 L 167.929688 152.914062 L 166.792969 156.101562 L 165.621094 161.382812 L 165.386719 165.90625 L 166.003906 170.363281 "/>
<path style="fill:none;stroke-width:2;stroke-linecap:butt;stroke-linejoin:miter;stroke:rgb(42.877791%,50.523325%,85%);stroke-opacity:1;stroke-miterlimit:10;" d="M 173.824219 192.433594 L 179.75 194.695312 L 185.914062 197.398438 L 192.835938 200.65625 L 200.324219 204.515625 L 204.507812 206.722656 L 211.714844 210.558594 L 215.890625 212.84375 L 221.976562 216.308594 L 224.835938 218.011719 L 230.585938 221.632812 L 237.640625 226.507812 L 248.300781 234.871094 L 262.191406 247 L 268.4375 252.664062 L 280.59375 263.828125 L 300.828125 282.582031 L 318.195312 298.722656 L 335.449219 314.765625 "/>
<path style="fill:none;stroke-width:2;stroke-linecap:butt;stroke-linejoin:miter;stroke:rgb(97.842003%,64.960014%,5.826592%);stroke-opacity:1;stroke-miterlimit:10;" d="M 125.5625 174.582031 L 119.917969 174.703125 L 114.132812 175.351562 L 108.253906 176.476562 L 102.941406 177.871094 L 100.410156 178.65625 L 96.59375 179.980469 L 94.621094 180.734375 L 91.972656 181.832031 L 90.800781 182.359375 L 88.554688 183.476562 L 85.957031 185.003906 L 82.28125 187.796875 L 77.859375 192.488281 L 75.941406 195.046875 L 72.121094 200.820312 L 65.292969 212 L 59.195312 222.289062 L 53.199219 232.746094 "/>
<path style="fill:none;stroke-width:2;stroke-linecap:butt;stroke-linejoin:miter;stroke:rgb(75.131963%,35.8%,48.066211%);stroke-opacity:1;stroke-miterlimit:10;" d="M 154.710938 145.292969 L 154.109375 145.257812 L 154.269531 145.636719 L 155.890625 146.578125 L 159.332031 147.800781 L 161.636719 148.515625 L 165.773438 149.945312 L 168.191406 150.957031 L 171.730469 152.730469 L 173.417969 153.691406 L 176.886719 155.867188 L 181.359375 158.902344 L 188.554688 163.9375 L 198.316406 170.753906 L 202.761719 173.839844 L 211.488281 179.851562 L 226.199219 189.898438 L 238.976562 198.554688 L 251.792969 207.183594 "/>
<path style="fill:none;stroke-width:2;stroke-linecap:butt;stroke-linejoin:miter;stroke:rgb(21.87619%,71.5%,50.748486%);stroke-opacity:1;stroke-miterlimit:10;" d="M 115.785156 141.007812 L 117.410156 133.519531 L 118.945312 126.519531 L 120.308594 119.738281 L 121.175781 113.730469 L 121.363281 110.769531 L 121.398438 106.011719 L 121.324219 103.375 L 121.15625 99.617188 L 121.0625 97.875 L 120.871094 94.398438 L 120.648438 90.199219 L 120.316406 84.054688 L 119.738281 76.464844 L 119.445312 73.128906 L 118.910156 66.695312 L 118.265625 56.066406 L 118.011719 47.019531 L 118.039062 38.125 "/>
<path style="fill:none;stroke-width:2;stroke-linecap:butt;stroke-linejoin:miter;stroke:rgb(83.424009%,46.282673%,0.381608%);stroke-opacity:1;stroke-miterlimit:10;" d="M 160.476562 101.332031 L 160.347656 102.648438 L 160.574219 103.824219 L 161.191406 104.875 L 162.144531 105.722656 L 162.757812 106.101562 L 163.921875 106.648438 L 164.652344 106.929688 L 165.800781 107.324219 L 166.371094 107.511719 L 167.578125 107.898438 L 169.175781 108.425781 L 171.796875 109.417969 L 175.449219 111.140625 L 177.144531 112.078125 L 180.515625 114.148438 L 186.292969 118.210938 L 191.433594 122.167969 L 196.714844 126.4375 "/>
<path style="fill:none;stroke-width:2;stroke-linecap:butt;stroke-linejoin:miter;stroke:rgb(59.678674%,40.479107%,79.553315%);stroke-opacity:1;stroke-miterlimit:10;" d="M 156.484375 182.46875 L 151.574219 183.816406 L 147.003906 185.835938 L 143.253906 188.601562 L 140.960938 192.15625 L 140.183594 194.367188 L 139.289062 198.492188 L 138.925781 201.046875 L 138.539062 204.96875 L 138.40625 206.890625 L 138.207031 210.890625 L 138.085938 216.035156 L 138.117188 224.167969 L 138.464844 235.066406 L 138.714844 240.015625 L 139.335938 249.722656 L 140.707031 266.109375 L 142.164062 280.382812 L 143.832031 294.726562 "/>
<path style="fill:none;stroke-width:2;stroke-linecap:butt;stroke-linejoin:miter;stroke:rgb(84.931971%,74.075775%,0%);stroke-opacity:1;stroke-miterlimit:10;" d="M 9.582031 150.035156 L 5.375 148.5 L -0.0273438 147.355469 L -6.9375 146.386719 L -14.550781 145.566406 L -18.773438 145.234375 L -26.203125 144.886719 L -30.714844 144.765625 L -37.566406 144.589844 L -40.886719 144.5 L -47.707031 144.300781 L -56.308594 144.039062 L -69.59375 143.640625 L -86.914062 143.171875 L -94.644531 142.992188 L -109.605469 142.6875 L -134.398438 142.332031 L -155.660156 142.15625 L -176.8125 142.09375 "/>
<path style="fill:none;stroke-width:2;stroke-linecap:butt;stroke-linejoin:miter;stroke:rgb(86.07201%,34.335598%,30.29665%);stroke-opacity:1;stroke-miterlimit:10;" d="M 95.265625 171.824219 L 93.792969 174.003906 L 92.347656 176.65625 L 90.824219 179.847656 L 89.183594 183.339844 L 88.222656 185.316406 L 86.425781 188.886719 L 85.296875 191.101562 L 83.546875 194.554688 L 82.691406 196.277344 L 80.910156 199.914062 L 78.648438 204.679688 L 75.140625 212.367188 L 70.550781 222.867188 L 68.5 227.6875 L 64.535156 237.222656 L 57.976562 253.488281 L 52.378906 267.765625 L 46.847656 282.179688 "/>
<path style="fill:none;stroke-width:2;stroke-linecap:butt;stroke-linejoin:miter;stroke:rgb(31.035572%,58.671542%,78.742687%);stroke-opacity:1;stroke-miterlimit:10;" d="M 116.90625 121.039062 L 125.6875 123.441406 L 135.042969 125.804688 L 145.234375 128.597656 L 155.285156 131.261719 L 160.449219 132.496094 L 168.792969 134.234375 L 173.234375 134.90625 L 179.289062 134.070312 L 182.273438 133.210938 L 188.460938 131.335938 L 196.238281 128.964844 L 208.128906 125.421875 L 223.453125 121.03125 L 230.238281 119.152344 L 243.328125 115.628906 L 264.914062 110.101562 L 283.375 105.65625 L 301.734375 101.527344 "/>
<path style="fill:none;stroke-width:2;stroke-linecap:butt;stroke-linejoin:miter;stroke:rgb(94.920677%,53.947118%,10.728609%);stroke-opacity:1;stroke-miterlimit:10;" d="M 95.734375 112.152344 L 89.328125 116.363281 L 82.820312 120.410156 L 76.78125 123.6875 L 71.285156 125.445312 L 68.574219 126.148438 L 64.941406 127.28125 L 64.316406 128.257812 L 65.234375 130.992188 L 65.925781 132.621094 L 67.535156 136.214844 L 69.707031 140.953125 L 73.066406 148.320312 L 77.160156 157.652344 L 78.867188 161.664062 L 82.015625 169.113281 L 87 180.46875 L 91.242188 189.210938 L 95.554688 197.078125 "/>
<path style="fill:none;stroke-width:2;stroke-linecap:butt;stroke-linejoin:miter;stroke:rgb(68.974009%,35.8%,57.539986%);stroke-opacity:1;stroke-miterlimit:10;" d="M 5.394531 110.628906 L -0.796875 109.039062 L -8.15625 107.5625 L -17 105.988281 L -26.292969 104.324219 L -31.273438 103.433594 L -39.683594 101.941406 L -44.542969 101.089844 L -51.671875 99.851562 L -55.054688 99.265625 L -61.933594 98.089844 L -70.507812 96.640625 L -83.636719 94.449219 L -100.660156 91.652344 L -108.234375 90.417969 L -122.886719 88.046875 L -147.152344 84.136719 L -167.945312 80.792969 L -188.632812 77.457031 "/>
<path style="fill:none;stroke-width:2;stroke-linecap:butt;stroke-linejoin:miter;stroke:rgb(47.929072%,71.5%,17.590272%);stroke-opacity:1;stroke-miterlimit:10;" d="M 148.808594 123.992188 L 154.242188 126.78125 L 160.386719 129.410156 L 167.554688 131.859375 L 175.144531 133.890625 L 179.195312 134.574219 L 186.640625 134.582031 L 191.335938 134.390625 L 198.492188 134.097656 L 201.960938 133.964844 L 209.097656 133.726562 L 218.113281 133.492188 L 232.019531 133.292969 L 249.972656 133.332031 L 257.859375 133.445312 L 272.8125 133.816406 L 296.480469 134.703125 L 315.710938 135.566406 L 334.171875 136.433594 "/>
<path style="fill:none;stroke-width:2;stroke-linecap:butt;stroke-linejoin:miter;stroke:rgb(87.454215%,39.318678%,11.135537%);stroke-opacity:1;stroke-miterlimit:10;" d="M 182.425781 167.957031 L 189.1875 170.480469 L 196.832031 173.617188 L 205.757812 177.550781 L 213.917969 183.261719 L 217.289062 187.066406 L 222.148438 193.660156 L 224.828125 197.40625 L 228.761719 202.761719 L 230.652344 205.230469 L 234.566406 210.070312 L 239.589844 215.703125 L 247.492188 223.335938 L 257.769531 231.777344 L 262.308594 235.210938 L 271.046875 241.535156 L 285.445312 251.492188 L 297.761719 259.753906 L 310.015625 267.835938 "/>
<path style="fill:none;stroke-width:2;stroke-linecap:butt;stroke-linejoin:miter;stroke:rgb(50.196685%,46.131989%,85%);stroke-opacity:1;stroke-miterlimit:10;" d="M 138.050781 158.957031 L 138.253906 159.5625 L 138.515625 160.789062 L 138.75 162.71875 L 138.90625 165.09375 L 138.960938 166.472656 L 139.035156 168.917969 L 139.078125 170.386719 L 139.144531 172.613281 L 139.183594 173.699219 L 139.265625 175.957031 L 139.390625 178.871094 L 139.617188 183.535156 L 139.976562 189.917969 L 140.167969 192.867188 L 140.609375 198.75 L 141.546875 208.976562 L 142.550781 218.179688 L 143.714844 227.679688 "/>
<path style="fill:none;stroke-width:2;stroke-linecap:butt;stroke-linejoin:miter;stroke:rgb(99.305782%,72.278908%,1.87439%);stroke-opacity:1;stroke-miterlimit:10;" d="M 138.179688 190.527344 L 137.289062 188.421875 L 136.175781 187.21875 L 134.332031 186.84375 L 131.589844 186.96875 L 129.921875 187.125 L 127.011719 187.527344 L 125.332031 187.851562 L 122.90625 188.445312 L 121.773438 188.777344 L 119.519531 189.542969 L 116.808594 190.652344 L 112.894531 192.664062 L 108.277344 195.789062 L 106.390625 197.359375 L 103.027344 200.699219 L 98.308594 207.007812 L 95.199219 213.183594 L 93.003906 220.113281 "/>
<path style="fill:none;stroke-width:2;stroke-linecap:butt;stroke-linejoin:miter;stroke:rgb(78.966678%,35.756664%,42.13887%);stroke-opacity:1;stroke-miterlimit:10;" d="M 10.199219 130.046875 L 12.242188 136.933594 L 13.78125 143.695312 L 15.015625 150.554688 L 15.722656 156.589844 L 15.550781 158.996094 L 13.347656 162.886719 L 11.816406 165.339844 L 9.480469 169.050781 L 8.335938 170.84375 L 5.949219 174.519531 L 2.832031 179.144531 L -2.261719 186.261719 L -9.507812 195.46875 L -12.992188 199.535156 L -20.21875 207.335938 L -33.601562 219.996094 L -46.289062 230.582031 L -59.71875 240.914062 "/>
<path style="fill:none;stroke-width:2;stroke-linecap:butt;stroke-linejoin:miter;stroke:rgb(19.193353%,68.145318%,64.532024%);stroke-opacity:1;stroke-miterlimit:10;" d="M 1.183594 177.625 L 1.976562 181.023438 L 1.878906 185.066406 L 0.910156 189.984375 L -0.6875 195.363281 L -1.71875 198.332031 L -3.6875 203.472656 L -4.929688 206.5 L -6.882812 211.015625 L -7.855469 213.1875 L -9.917969 217.652344 L -12.632812 223.3125 L -17.050781 232.160156 L -23.167969 243.917969 L -26.003906 249.242188 L -31.65625 259.691406 L -41.410156 277.359375 L -50.074219 292.816406 L -58.90625 308.425781 "/>
<path style="fill:none;stroke-width:2;stroke-linecap:butt;stroke-linejoin:miter;stroke:rgb(87.815345%,49.21023%,4.333811%);stroke-opacity:1;stroke-miterlimit:10;" d="M 135.695312 139.097656 L 140.144531 141.632812 L 144.542969 144.359375 L 148.332031 147.390625 L 150.617188 150.824219 L 151.382812 152.84375 L 152.363281 156.453125 L 152.859375 158.59375 L 153.589844 161.78125 L 153.957031 163.304688 L 154.753906 166.410156 L 155.878906 170.300781 L 157.917969 176.3125 L 161.140625 184.234375 L 162.765625 187.816406 L 166.210938 194.84375 L 172.648438 206.769531 L 178.726562 217.238281 L 185.164062 227.84375 "/>
<path style="fill:none;stroke-width:2;stroke-linecap:butt;stroke-linejoin:miter;stroke:rgb(63.191743%,38.429816%,70.770642%);stroke-opacity:1;stroke-miterlimit:10;" d="M 162.921875 163.53125 L 168.957031 172.871094 L 175.382812 182.765625 L 182.148438 193.417969 L 188.367188 203.835938 L 191.359375 209.277344 L 196.054688 218.433594 L 198.640625 223.722656 L 202.339844 231.492188 L 204.066406 235.179688 L 207.535156 242.671875 L 211.804688 252.003906 L 218.25 266.265625 L 226.492188 284.695312 L 230.128906 292.871094 L 237.121094 308.636719 L 248.597656 334.621094 L 258.355469 356.773438 L 268 378.714844 "/>
<path style="fill:none;stroke-width:2;stroke-linecap:butt;stroke-linejoin:miter;stroke:rgb(71.757962%,72.611996%,0%);stroke-opacity:1;stroke-miterlimit:10;" d="M 27.839844 141.875 L 34.320312 138.8125 L 40.140625 136.011719 L 44.632812 133.539062 L 46.847656 131.480469 L 47.257812 130.472656 L 47.164062 128.90625 L 46.785156 128.101562 L 45.902344 127.085938 L 45.375 126.675781 L 44.167969 125.960938 L 42.441406 125.222656 L 39.121094 124.335938 L 33.394531 123.746094 L 31 123.359375 L 27.933594 120.765625 L 23.539062 114.148438 L 18.933594 108.515625 L 13.746094 103.171875 "/>
<path style="fill:none;stroke-width:2;stroke-linecap:butt;stroke-linejoin:miter;stroke:rgb(90.463346%,33.457331%,22.977756%);stroke-opacity:1;stroke-miterlimit:10;" d="M 56.472656 110.933594 L 54.953125 108.539062 L 53.160156 106.324219 L 51.21875 104.34375 L 49.261719 102.691406 L 48.101562 101.898438 L 45.730469 100.847656 L 44.167969 100.464844 L 41.757812 100.117188 L 40.585938 100 L 38.164062 99.800781 L 35.070312 99.546875 L 30.164062 99.046875 L 23.46875 98.042969 L 20.363281 97.453125 L 14.132812 96.070312 L 3.222656 93.261719 L -6.625 90.550781 L -16.757812 87.742188 "/>
<path style="fill:none;stroke-width:2;stroke-linecap:butt;stroke-linejoin:miter;stroke:rgb(38.354466%,53.23732%,85%);stroke-opacity:1;stroke-miterlimit:10;" d="M 74.867188 121.320312 L 76.132812 123.96875 L 77.0625 126.960938 L 77.375 131.304688 L 77.796875 137.070312 L 78.183594 140.3125 L 79.019531 145.835938 L 79.601562 148.988281 L 80.640625 153.378906 L 81.246094 155.253906 L 82.972656 158.144531 L 86.472656 159.984375 L 93.242188 161.59375 L 102.765625 163.375 L 107.097656 164.160156 L 115.480469 165.722656 L 128.574219 168.945312 L 137.3125 174.976562 L 144.875 184.121094 "/>
<path style="fill:none;stroke-width:2;stroke-linecap:butt;stroke-linejoin:miter;stroke:rgb(96.937338%,60.436689%,8.269188%);stroke-opacity:1;stroke-miterlimit:10;" d="M 19.054688 168.652344 L 17.769531 167.320312 L 15.753906 166.109375 L 12.554688 164.726562 L 7.792969 163.664062 L 4.644531 163.457031 L -1.3125 163.480469 L -4.980469 163.625 L -10.511719 163.984375 L -13.160156 164.21875 L -18.476562 164.847656 L -24.703125 165.84375 L -33.402344 167.191406 L -44.4375 168.546875 L -49.390625 169.109375 L -59.058594 170.191406 L -75.332031 172.050781 L -89.496094 173.757812 L -103.765625 175.582031 "/>
<path style="fill:none;stroke-width:2;stroke-linecap:butt;stroke-linejoin:miter;stroke:rgb(72.779834%,35.8%,51.684871%);stroke-opacity:1;stroke-miterlimit:10;" d="M 43.980469 130.058594 L 46.898438 130.390625 L 49.558594 130.527344 L 52.378906 130.039062 L 55.75 128.777344 L 57.714844 127.972656 L 60.601562 126.71875 L 61.035156 125.910156 L 60.074219 124.125 L 59.296875 123.472656 L 56.714844 122.902344 L 52.632812 122.449219 L 46.960938 121.476562 L 42.1875 119.3125 L 40.90625 118.015625 L 39.433594 115.074219 L 38.878906 109.570312 L 39.324219 104.964844 L 39.808594 101.078125 "/>
<path style="fill:none;stroke-width:2;stroke-linecap:butt;stroke-linejoin:miter;stroke:rgb(31.827505%,71.5%,38.083175%);stroke-opacity:1;stroke-miterlimit:10;" d="M 73.464844 199.140625 L 73.492188 201.835938 L 73.375 205.457031 L 73.074219 210.085938 L 72.609375 215.304688 L 72.304688 218.246094 L 71.726562 223.425781 L 71.355469 226.523438 L 70.769531 231.203125 L 70.476562 233.472656 L 69.855469 238.179688 L 69.039062 244.207031 L 67.714844 253.738281 L 65.902344 266.542969 L 65.070312 272.378906 L 63.429688 283.871094 L 60.65625 303.398438 L 58.265625 320.523438 L 55.894531 337.84375 "/>
<path style="fill:none;stroke-width:2;stroke-linecap:butt;stroke-linejoin:miter;stroke:rgb(84.526657%,43.710014%,3.816643%);stroke-opacity:1;stroke-miterlimit:10;" d="M 71.640625 179.222656 L 71.074219 173.765625 L 70.574219 169.0625 L 70.535156 165.367188 L 71.566406 163.054688 L 72.566406 162.214844 L 74.6875 161.160156 L 76.035156 160.746094 L 78.019531 160.511719 L 78.90625 160.660156 L 80.296875 161.921875 L 80.820312 165.316406 L 80.445312 171.71875 L 79.589844 179.980469 L 79.226562 183.414062 L 78.714844 189.550781 L 78.304688 198.832031 L 77.792969 206.53125 L 76.628906 214.078125 "/>
<path style="fill:none;stroke-width:2;stroke-linecap:butt;stroke-linejoin:miter;stroke:rgb(57.507478%,41.745638%,84.981305%);stroke-opacity:1;stroke-miterlimit:10;" d="M 97.914062 132.035156 L 100.371094 122.191406 L 103.21875 112.40625 L 106.316406 102.222656 L 109.234375 92.402344 L 110.785156 87.433594 L 113.644531 79.398438 L 115.382812 74.867188 L 117.878906 68.460938 L 118.84375 65.695312 L 119.03125 60.277344 L 118.355469 53.054688 L 117.289062 41.910156 L 116.246094 27.894531 L 116.003906 21.894531 L 116.085938 10.667969 L 117.597656 -7.335938 L 119.710938 -22.46875 L 122.148438 -37.335938 "/>
<path style="fill:none;stroke-width:2;stroke-linecap:butt;stroke-linejoin:miter;stroke:rgb(93.073957%,74.98044%,0%);stroke-opacity:1;stroke-miterlimit:10;" d="M 99.691406 191.332031 L 98.375 192.222656 L 97.164062 194.097656 L 96.027344 197.09375 L 95.058594 200.96875 L 94.617188 203.308594 L 93.980469 207.613281 L 93.671875 210.273438 L 93.296875 214.363281 L 93.144531 216.378906 L 92.894531 220.589844 L 92.675781 226.035156 L 92.519531 234.707031 L 92.597656 246.402344 L 92.714844 251.730469 L 93.070312 262.199219 L 93.941406 279.898438 L 94.902344 295.316406 L 95.996094 310.808594 "/>
<path style="fill:none;stroke-width:2;stroke-linecap:butt;stroke-linejoin:miter;stroke:rgb(83.358015%,34.878397%,34.819976%);stroke-opacity:1;stroke-miterlimit:10;" d="M 95.039062 151.828125 L 94.285156 147.632812 L 93.6875 143.839844 L 93.402344 140.398438 L 93.683594 137.542969 L 94.101562 136.203125 L 95.15625 134.085938 L 95.917969 132.914062 L 97.171875 131.253906 L 97.816406 130.484375 L 99.199219 128.960938 L 101.03125 127.105469 L 104.019531 124.332031 L 108.132812 120.777344 L 110.035156 119.199219 L 113.839844 116.148438 L 120.4375 111.074219 L 126.304688 106.683594 L 132.242188 102.25 "/>
<path style="fill:none;stroke-width:2;stroke-linecap:butt;stroke-linejoin:miter;stroke:rgb(26.512247%,62.290202%,73.314696%);stroke-opacity:1;stroke-miterlimit:10;" d="M 58.773438 163.914062 L 60.222656 162.4375 L 61.355469 161.476562 L 61.851562 161.265625 L 61.558594 162.324219 L 61.261719 163.433594 L 60.722656 165.9375 L 60.410156 167.636719 L 59.929688 170.367188 L 59.6875 171.742188 L 59.15625 174.65625 L 58.398438 178.464844 L 56.984375 184.5625 L 54.609375 192.773438 L 53.339844 196.511719 L 50.519531 203.84375 L 44.835938 216.226562 L 39.046875 227.027344 L 32.554688 237.910156 "/>
<path style="fill:none;stroke-width:2;stroke-linecap:butt;stroke-linejoin:miter;stroke:rgb(92.206682%,52.137788%,8.286014%);stroke-opacity:1;stroke-miterlimit:10;" d="M 23.074219 194.449219 L 23.085938 185.082031 L 22.445312 176.523438 L 21.03125 168.632812 L 19.878906 161.855469 L 19.886719 158.988281 L 21.75 154.421875 L 22.921875 151.707031 L 24.375 147.808594 L 24.910156 146.003906 L 25.621094 142.382812 L 25.859375 137.902344 L 25.570312 132.308594 L 26.945312 128.351562 L 26.816406 127.226562 L 23.96875 127.753906 L 16.371094 132.898438 L 9.273438 138.472656 L 2.046875 144.371094 "/>
<path style="fill:none;stroke-width:2;stroke-linecap:butt;stroke-linejoin:miter;stroke:rgb(66.704812%,36.380526%,61.987969%);stroke-opacity:1;stroke-miterlimit:10;" d="M 41.226562 186.046875 L 39.296875 186.101562 L 37.441406 187.261719 L 35.621094 189.945312 L 33.96875 193.996094 L 33.167969 196.601562 L 31.929688 201.542969 L 31.269531 204.644531 L 30.34375 209.445312 L 29.917969 211.808594 L 29.070312 216.746094 L 28.027344 223.113281 L 26.425781 233.191406 L 24.308594 246.6875 L 23.339844 252.804688 L 21.410156 264.796875 L 18.042969 284.984375 L 14.980469 302.535156 L 11.777344 320.171875 "/>
<path style="fill:none;stroke-width:2;stroke-linecap:butt;stroke-linejoin:miter;stroke:rgb(57.880387%,71.5%,4.924962%);stroke-opacity:1;stroke-miterlimit:10;" d="M 58.402344 143.914062 L 57.160156 143.640625 L 55.445312 143.707031 L 52.910156 144.15625 L 49.625 144.941406 L 47.617188 145.457031 L 43.929688 146.417969 L 41.6875 147.007812 L 38.347656 147.910156 L 36.78125 148.367188 L 33.714844 149.417969 L 30.078125 151.125 L 24.46875 154.472656 L 16.929688 159.523438 L 13.507812 161.910156 L 6.816406 166.671875 L -4.375 174.769531 L -14.03125 181.800781 L -23.683594 188.8125 "/>
<path style="fill:none;stroke-width:2;stroke-linecap:butt;stroke-linejoin:miter;stroke:rgb(89.263545%,36.604682%,15.658863%);stroke-opacity:1;stroke-miterlimit:10;" d="M 38.902344 166.183594 L 36.472656 170.144531 L 33.886719 174.335938 L 31.484375 178.851562 L 29.101562 183.511719 L 27.714844 185.957031 L 25.171875 190 L 23.59375 192.3125 L 21.164062 195.703125 L 19.96875 197.320312 L 17.472656 200.632812 L 14.261719 204.839844 L 9.191406 211.484375 L 2.433594 220.507812 L -0.613281 224.679688 L -6.546875 233.023438 L -16.410156 247.570312 L -24.835938 260.640625 L -33.175781 274.066406 "/>
<path style="fill:none;stroke-width:2;stroke-linecap:butt;stroke-linejoin:miter;stroke:rgb(45.67336%,48.845984%,85%);stroke-opacity:1;stroke-miterlimit:10;" d="M 78.195312 141.042969 L 71.980469 143.957031 L 65.925781 147.308594 L 60.347656 151.160156 L 55.25 155.089844 L 52.417969 157.214844 L 47.359375 161.039062 L 44.339844 163.410156 L 39.863281 167.085938 L 37.726562 168.90625 L 33.375 172.71875 L 27.949219 177.621094 L 19.710938 185.296875 L 9.316406 195.3125 L 4.84375 199.746094 L -3.492188 208.242188 L -16.3125 222.046875 L -26.46875 233.628906 L -36.066406 244.953125 "/>
</g>
</svg>
