<?xml version="1.0" encoding="UTF-8"?>
<svg xmlns="http://www.w3.org/2000/svg" xmlns:xlink="http://www.w3.org/1999/xlink" width="200pt" height="200pt" viewBox="0 0 200 200" version="1.1">
<g id="id1">
<path style="fill:none;stroke-width:2;stroke-linecap:butt;stroke-linejoin:miter;stroke:rgb(36.8417%,50.6779%,70.9798%);stroke-opacity:1;stroke-miterlimit:10;" d="M 0 105 L 6.300781 105 L 8.128906 104.996094 L 13.234375 104.996094 L 14.863281 104.992188 L 16.46875 104.992188 L 18.058594 104.988281 L 19.640625 104.988281 L 21.210938 104.984375 L 22.773438 104.980469 L 24.332031 104.980469 L 27.441406 104.972656 L 28.992188 104.96875 L 30.539062 104.96875 L 32.089844 104.964844 L 35.183594 104.957031 L 36.730469 104.949219 L 38.28125 104.945312 L 41.375 104.9375 L 42.925781 104.929688 L 44.472656 104.925781 L 46.019531 104.917969 L 47.570312 104.914062 L 49.121094 104.90625 L 50.671875 104.902344 L 56.875 104.871094 L 59.984375 104.855469 L 61.535156 104.84375 L 63.089844 104.835938 L 64.648438 104.824219 L 66.203125 104.816406 L 67.757812 104.804688 L 69.316406 104.792969 L 70.875 104.785156 L 72.433594 104.773438 L 73.992188 104.757812 L 75.554688 104.746094 L 77.113281 104.734375 L 78.675781 104.71875 L 80.242188 104.707031 L 81.804688 104.691406 L 88.070312 104.628906 L 89.640625 104.609375 L 91.210938 104.59375 L 95.933594 104.535156 L 97.511719 104.511719 L 99.089844 104.492188 L 100.667969 104.46875 L 103.832031 104.421875 L 105.417969 104.394531 L 107.003906 104.371094 L 108.59375 104.34375 L 110.1875 104.3125 L 111.78125 104.285156 L 114.976562 104.222656 L 118.1875 104.152344 L 119.796875 104.117188 L 121.410156 104.078125 L 123.027344 104.035156 L 124.652344 103.996094 L 126.277344 103.949219 L 127.910156 103.902344 L 129.550781 103.855469 L 131.195312 103.800781 L 132.847656 103.746094 L 134.507812 103.6875 L 136.179688 103.625 L 137.859375 103.558594 L 139.554688 103.484375 L 141.261719 103.40625 L 142.988281 103.320312 L 144.734375 103.226562 L 146.507812 103.125 L 148.085938 103.023438 L 149.453125 102.925781 L 150.617188 102.835938 L 151.601562 102.753906 L 152.441406 102.679688 L 153.152344 102.613281 L 153.761719 102.550781 L 154.289062 102.492188 L 154.796875 102.4375 L 155.21875 102.382812 L 155.582031 102.339844 L 155.929688 102.292969 L 156.222656 102.25 L 156.5 102.210938 L 156.738281 102.175781 L 156.960938 102.136719 L 157.171875 102.101562 L 157.351562 102.074219 L 157.519531 102.042969 L 157.675781 102.011719 L 157.824219 101.984375 L 157.945312 101.960938 L 158.0625 101.9375 L 158.171875 101.914062 L 158.273438 101.890625 L 158.371094 101.867188 L 158.460938 101.847656 L 158.542969 101.828125 L 158.621094 101.808594 L 158.691406 101.789062 L 158.757812 101.773438 L 158.820312 101.753906 L 158.878906 101.738281 L 158.933594 101.722656 L 158.980469 101.710938 L 159.027344 101.695312 L 159.074219 101.683594 L 159.113281 101.667969 L 159.152344 101.65625 L 159.222656 101.632812 L 159.253906 101.621094 L 159.285156 101.613281 L 159.316406 101.601562 L 159.34375 101.59375 L 159.367188 101.582031 L 159.394531 101.574219 L 159.417969 101.566406 L 159.4375 101.554688 L 159.460938 101.546875 L 159.519531 101.523438 L 159.535156 101.515625 L 159.554688 101.507812 L 159.570312 101.503906 L 159.601562 101.488281 L 159.613281 101.480469 L 159.628906 101.476562 L 159.640625 101.46875 L 159.652344 101.464844 L 159.667969 101.457031 L 159.679688 101.453125 L 159.691406 101.445312 L 159.699219 101.441406 L 159.710938 101.433594 L 159.722656 101.429688 L 159.730469 101.425781 L 159.742188 101.417969 L 159.75 101.414062 L 159.761719 101.410156 L 159.769531 101.40625 L 159.777344 101.398438 L 159.824219 101.375 L 159.835938 101.363281 L 159.84375 101.359375 L 159.847656 101.355469 L 159.855469 101.351562 L 159.859375 101.347656 L 159.867188 101.347656 L 159.871094 101.34375 L 159.878906 101.339844 L 159.886719 101.332031 L 159.894531 101.328125 L 159.90625 101.316406 L 159.910156 101.316406 L 159.917969 101.3125 L 159.933594 101.296875 L 159.9375 101.296875 L 159.949219 101.285156 L 159.953125 101.285156 L 159.953125 101.28125 L 159.957031 101.277344 L 159.960938 101.277344 L 159.980469 101.257812 L 159.984375 101.257812 L 159.984375 101.253906 L 159.988281 101.253906 L 159.992188 101.25 L 159.992188 101.246094 L 159.996094 101.246094 L 160 101.242188 L 160 101.238281 L 160.003906 101.238281 L 160.015625 101.226562 L 160.015625 101.222656 L 160.019531 101.222656 L 160.019531 101.21875 L 160.023438 101.21875 L 160.027344 101.214844 L 160.027344 101.210938 L 160.03125 101.210938 L 160.03125 101.207031 L 160.035156 101.207031 L 160.035156 101.203125 L 160.042969 101.195312 L 160.042969 101.191406 L 160.046875 101.191406 L 160.046875 101.1875 L 160.050781 101.1875 L 160.050781 101.183594 L 160.054688 101.183594 L 160.054688 101.179688 L 160.058594 101.179688 L 160.058594 101.175781 L 160.0625 101.171875 L 160.0625 101.167969 L 160.066406 101.167969 L 160.066406 101.164062 L 160.070312 101.160156 L 160.070312 101.15625 L 160.074219 101.15625 L 160.074219 101.152344 L 160.078125 101.148438 L 160.078125 101.144531 L 160.082031 101.144531 L 160.082031 101.136719 L 160.085938 101.136719 L 160.085938 101.132812 L 160.089844 101.128906 L 160.089844 101.125 L 160.09375 101.121094 L 160.09375 101.117188 L 160.097656 101.117188 L 160.097656 101.109375 L 160.101562 101.105469 L 160.101562 101.101562 L 160.105469 101.097656 L 160.105469 101.089844 L 160.109375 101.089844 L 160.109375 101.082031 L 160.113281 101.078125 L 160.113281 101.066406 L 160.117188 101.066406 L 160.117188 101.050781 L 160.121094 101.050781 L 160.121094 101.03125 L 160.125 101.03125 L 160.125 100.960938 L 160.121094 100.960938 L 160.121094 100.9375 L 160.117188 100.9375 L 160.117188 100.921875 L 160.113281 100.921875 L 160.113281 100.910156 L 160.109375 100.910156 L 160.109375 100.898438 L 160.105469 100.898438 L 160.105469 100.890625 L 160.101562 100.886719 L 160.101562 100.878906 L 160.097656 100.878906 L 160.097656 100.871094 L 160.09375 100.871094 L 160.09375 100.863281 L 160.089844 100.863281 L 160.089844 100.855469 L 160.085938 100.855469 L 160.085938 100.851562 L 160.082031 100.847656 L 160.082031 100.84375 L 160.078125 100.839844 L 160.078125 100.835938 L 160.074219 100.835938 L 160.074219 100.828125 L 160.070312 100.828125 L 160.070312 100.824219 L 160.066406 100.824219 L 160.066406 100.816406 L 160.0625 100.816406 L 160.0625 100.8125 L 160.054688 100.804688 L 160.054688 100.800781 L 160.050781 100.800781 L 160.050781 100.796875 L 160.046875 100.796875 L 160.046875 100.792969 L 160.039062 100.785156 L 160.039062 100.78125 L 160.015625 100.757812 L 160.015625 100.753906 L 160.011719 100.753906 L 160.011719 100.75 L 160.007812 100.75 L 160.007812 100.746094 L 160 100.738281 L 159.996094 100.738281 L 159.996094 100.734375 L 159.96875 100.707031 L 159.964844 100.707031 L 159.964844 100.703125 L 159.960938 100.699219 L 159.957031 100.699219 L 159.949219 100.691406 L 159.949219 100.6875 L 159.945312 100.6875 L 159.933594 100.675781 L 159.929688 100.675781 L 159.914062 100.660156 L 159.910156 100.660156 L 159.886719 100.636719 L 159.878906 100.636719 L 159.867188 100.625 L 159.859375 100.621094 L 159.851562 100.613281 L 159.84375 100.609375 L 159.835938 100.601562 L 159.828125 100.597656 L 159.824219 100.59375 L 159.816406 100.589844 L 159.8125 100.585938 L 159.796875 100.578125 L 159.785156 100.566406 L 159.761719 100.554688 L 159.757812 100.550781 L 159.75 100.546875 L 159.742188 100.539062 L 159.734375 100.535156 L 159.722656 100.53125 L 159.714844 100.527344 L 159.707031 100.519531 L 159.691406 100.511719 L 159.679688 100.503906 L 159.671875 100.5 L 159.660156 100.496094 L 159.652344 100.488281 L 159.640625 100.484375 L 159.628906 100.476562 L 159.621094 100.472656 L 159.609375 100.464844 L 159.597656 100.460938 L 159.585938 100.453125 L 159.574219 100.449219 L 159.558594 100.441406 L 159.546875 100.433594 L 159.535156 100.429688 L 159.519531 100.421875 L 159.507812 100.414062 L 159.492188 100.40625 L 159.476562 100.402344 L 159.398438 100.363281 L 159.359375 100.347656 L 159.34375 100.339844 L 159.324219 100.332031 L 159.300781 100.324219 L 159.28125 100.3125 L 159.261719 100.304688 L 159.238281 100.296875 L 159.214844 100.285156 L 159.191406 100.277344 L 159.167969 100.265625 L 159.144531 100.257812 L 159.117188 100.246094 L 159.089844 100.238281 L 159.0625 100.226562 L 159.03125 100.214844 L 159.003906 100.203125 L 158.972656 100.191406 L 158.9375 100.183594 L 158.90625 100.167969 L 158.835938 100.144531 L 158.757812 100.121094 L 158.71875 100.105469 L 158.675781 100.09375 L 158.632812 100.078125 L 158.492188 100.03125 L 158.4375 100.015625 L 158.386719 100 L 158.332031 99.984375 L 158.273438 99.96875 L 158.210938 99.949219 L 158.148438 99.933594 L 158.082031 99.914062 L 157.941406 99.875 L 157.863281 99.855469 L 157.785156 99.832031 L 157.699219 99.8125 L 157.613281 99.789062 L 157.523438 99.765625 L 157.425781 99.742188 L 157.324219 99.71875 L 157.21875 99.691406 L 157.105469 99.667969 L 156.988281 99.640625 L 156.867188 99.613281 L 156.734375 99.582031 L 156.597656 99.550781 L 156.453125 99.523438 L 156.300781 99.488281 L 156.136719 99.457031 L 155.964844 99.421875 L 155.785156 99.386719 L 155.589844 99.347656 L 155.386719 99.308594 L 155.171875 99.269531 L 154.941406 99.226562 L 154.695312 99.183594 L 154.4375 99.136719 L 154.160156 99.089844 L 153.863281 99.042969 L 153.546875 98.988281 L 153.210938 98.9375 L 152.847656 98.878906 L 152.464844 98.820312 L 152.050781 98.761719 L 151.605469 98.695312 L 151.128906 98.628906 L 150.613281 98.558594 L 150.0625 98.488281 L 149.464844 98.410156 L 148.824219 98.332031 L 148.128906 98.246094 L 147.375 98.160156 L 146.558594 98.066406 L 145.675781 97.972656 L 144.714844 97.871094 L 143.675781 97.765625 L 142.570312 97.65625 L 141.414062 97.550781 L 140.21875 97.441406 L 138.988281 97.335938 L 137.738281 97.230469 L 136.460938 97.128906 L 135.171875 97.03125 L 133.867188 96.9375 L 132.546875 96.84375 L 131.222656 96.753906 L 129.886719 96.667969 L 128.542969 96.582031 L 127.191406 96.5 L 125.835938 96.421875 L 124.476562 96.347656 L 123.113281 96.273438 L 120.371094 96.140625 L 118.992188 96.074219 L 116.234375 95.957031 L 114.847656 95.898438 L 113.460938 95.847656 L 112.070312 95.796875 L 109.289062 95.703125 L 107.894531 95.664062 L 105.097656 95.585938 L 103.699219 95.550781 L 102.300781 95.519531 L 99.496094 95.464844 L 98.09375 95.441406 L 95.289062 95.402344 L 93.882812 95.386719 L 92.480469 95.375 L 91.074219 95.363281 L 89.671875 95.359375 L 88.265625 95.351562 L 85.457031 95.351562 L 82.644531 95.367188 L 81.242188 95.375 L 78.4375 95.40625 L 77.035156 95.425781 L 75.632812 95.449219 L 74.234375 95.476562 L 72.832031 95.503906 L 71.4375 95.539062 L 70.039062 95.574219 L 67.25 95.660156 L 64.46875 95.761719 L 63.082031 95.816406 L 61.695312 95.878906 L 60.3125 95.945312 L 58.933594 96.015625 "/>
<path style="fill:none;stroke-width:2;stroke-linecap:butt;stroke-linejoin:miter;stroke:rgb(88.0722%,61.1041%,14.2051%);stroke-opacity:1;stroke-miterlimit:10;" d="M 200 100 L 196.285156 100 L 195.882812 100.003906 L 193.527344 100.003906 L 193.140625 100.007812 L 191.976562 100.007812 L 191.589844 100.011719 L 190.429688 100.011719 L 190.042969 100.015625 L 189.269531 100.015625 L 188.882812 100.019531 L 188.496094 100.019531 L 188.105469 100.023438 L 187.332031 100.023438 L 186.945312 100.027344 L 186.558594 100.027344 L 186.167969 100.03125 L 185.78125 100.03125 L 185.394531 100.035156 L 185.003906 100.035156 L 184.617188 100.039062 L 184.226562 100.042969 L 183.839844 100.042969 L 183.449219 100.046875 L 183.058594 100.046875 L 182.671875 100.050781 L 181.890625 100.058594 L 181.5 100.058594 L 181.113281 100.0625 L 179.941406 100.074219 L 179.546875 100.078125 L 178.375 100.089844 L 177.980469 100.09375 L 177.589844 100.097656 L 177.195312 100.101562 L 176.804688 100.105469 L 176.410156 100.113281 L 175.621094 100.121094 L 175.226562 100.128906 L 174.4375 100.136719 L 174.042969 100.144531 L 173.644531 100.152344 L 173.25 100.15625 L 171.65625 100.1875 L 171.253906 100.195312 L 170.855469 100.203125 L 170.453125 100.210938 L 170.050781 100.222656 L 169.648438 100.230469 L 169.242188 100.242188 L 168.835938 100.25 L 168.023438 100.273438 L 167.613281 100.285156 L 167.203125 100.300781 L 166.789062 100.3125 L 166.375 100.328125 L 165.957031 100.34375 L 165.535156 100.359375 L 165.113281 100.378906 L 164.253906 100.417969 L 163.816406 100.441406 L 163.371094 100.46875 L 162.980469 100.496094 L 162.636719 100.519531 L 162.347656 100.539062 L 162.097656 100.5625 L 161.890625 100.578125 L 161.710938 100.597656 L 161.558594 100.613281 L 161.429688 100.625 L 161.300781 100.640625 L 161.195312 100.652344 L 161.105469 100.664062 L 161.019531 100.675781 L 160.945312 100.6875 L 160.875 100.695312 L 160.816406 100.707031 L 160.707031 100.722656 L 160.621094 100.738281 L 160.542969 100.753906 L 160.515625 100.761719 L 160.484375 100.765625 L 160.457031 100.773438 L 160.433594 100.777344 L 160.40625 100.78125 L 160.386719 100.789062 L 160.363281 100.792969 L 160.34375 100.796875 L 160.328125 100.800781 L 160.3125 100.808594 L 160.265625 100.820312 L 160.253906 100.824219 L 160.242188 100.824219 L 160.230469 100.828125 L 160.222656 100.832031 L 160.210938 100.835938 L 160.203125 100.839844 L 160.195312 100.839844 L 160.179688 100.847656 L 160.171875 100.847656 L 160.164062 100.851562 L 160.160156 100.855469 L 160.152344 100.855469 L 160.144531 100.859375 L 160.140625 100.859375 L 160.136719 100.863281 L 160.128906 100.863281 L 160.125 100.867188 L 160.121094 100.867188 L 160.117188 100.871094 L 160.113281 100.871094 L 160.109375 100.875 L 160.105469 100.875 L 160.101562 100.878906 L 160.09375 100.878906 L 160.089844 100.882812 L 160.085938 100.882812 L 160.082031 100.886719 L 160.078125 100.886719 L 160.074219 100.890625 L 160.070312 100.890625 L 160.066406 100.894531 L 160.0625 100.894531 L 160.0625 100.898438 L 160.054688 100.898438 L 160.054688 100.902344 L 160.046875 100.902344 L 160.046875 100.90625 L 160.042969 100.90625 L 160.042969 100.910156 L 160.035156 100.910156 L 160.035156 100.914062 L 160.03125 100.914062 L 160.03125 100.917969 L 160.023438 100.917969 L 160.023438 100.921875 L 160.019531 100.921875 L 160.019531 100.925781 L 160.015625 100.925781 L 160.011719 100.929688 L 160.007812 100.929688 L 160.007812 100.933594 L 160.003906 100.933594 L 160.003906 100.9375 L 160 100.9375 L 160 100.941406 L 159.996094 100.941406 L 159.996094 100.945312 L 159.992188 100.945312 L 159.992188 100.949219 L 159.988281 100.949219 L 159.988281 100.957031 L 159.984375 100.957031 L 159.984375 100.960938 L 159.980469 100.960938 L 159.980469 100.96875 L 159.976562 100.96875 L 159.976562 100.976562 L 159.972656 100.976562 L 159.972656 100.988281 L 159.96875 100.988281 L 159.96875 101.015625 L 159.972656 101.015625 L 159.972656 101.027344 L 159.976562 101.027344 L 159.976562 101.035156 L 159.980469 101.035156 L 159.980469 101.042969 L 159.984375 101.042969 L 159.984375 101.046875 L 159.988281 101.046875 L 159.988281 101.054688 L 159.992188 101.054688 L 159.992188 101.058594 L 159.996094 101.058594 L 159.996094 101.0625 L 160 101.0625 L 160 101.066406 L 160.003906 101.066406 L 160.003906 101.070312 L 160.007812 101.070312 L 160.007812 101.074219 L 160.011719 101.074219 L 160.011719 101.078125 L 160.015625 101.078125 L 160.015625 101.082031 L 160.019531 101.082031 L 160.023438 101.085938 L 160.027344 101.085938 L 160.027344 101.089844 L 160.03125 101.089844 L 160.03125 101.09375 L 160.035156 101.09375 L 160.039062 101.097656 L 160.042969 101.097656 L 160.042969 101.101562 L 160.046875 101.101562 L 160.054688 101.109375 L 160.058594 101.109375 L 160.0625 101.113281 L 160.066406 101.113281 L 160.066406 101.117188 L 160.070312 101.117188 L 160.074219 101.121094 L 160.078125 101.121094 L 160.078125 101.125 L 160.085938 101.125 L 160.085938 101.128906 L 160.09375 101.128906 L 160.09375 101.132812 L 160.097656 101.132812 L 160.101562 101.136719 L 160.105469 101.136719 L 160.109375 101.140625 L 160.113281 101.140625 L 160.117188 101.144531 L 160.121094 101.144531 L 160.125 101.148438 L 160.128906 101.148438 L 160.132812 101.152344 L 160.136719 101.152344 L 160.140625 101.15625 L 160.144531 101.15625 L 160.148438 101.160156 L 160.152344 101.160156 L 160.15625 101.164062 L 160.164062 101.164062 L 160.167969 101.167969 L 160.171875 101.167969 L 160.175781 101.171875 L 160.183594 101.175781 L 160.1875 101.175781 L 160.195312 101.179688 L 160.199219 101.179688 L 160.207031 101.183594 L 160.210938 101.1875 L 160.21875 101.1875 L 160.226562 101.191406 L 160.230469 101.195312 L 160.238281 101.195312 L 160.261719 101.207031 L 160.269531 101.207031 L 160.277344 101.210938 L 160.289062 101.214844 L 160.304688 101.222656 L 160.316406 101.226562 L 160.324219 101.226562 L 160.382812 101.246094 L 160.398438 101.253906 L 160.410156 101.257812 L 160.472656 101.273438 L 160.488281 101.28125 L 160.507812 101.285156 L 160.523438 101.289062 L 160.542969 101.296875 L 160.566406 101.300781 L 160.585938 101.308594 L 160.609375 101.3125 L 160.65625 101.328125 L 160.683594 101.332031 L 160.738281 101.347656 L 160.832031 101.371094 L 160.867188 101.378906 L 160.90625 101.386719 L 160.945312 101.398438 L 160.988281 101.40625 L 161.03125 101.417969 L 161.078125 101.425781 L 161.179688 101.449219 L 161.296875 101.472656 L 161.359375 101.488281 L 161.425781 101.5 L 161.574219 101.53125 L 161.65625 101.546875 L 161.746094 101.5625 L 161.839844 101.582031 L 161.9375 101.597656 L 162.046875 101.617188 L 162.164062 101.640625 L 162.289062 101.660156 L 162.421875 101.683594 L 162.566406 101.710938 L 162.722656 101.734375 L 162.890625 101.765625 L 163.074219 101.792969 L 163.273438 101.828125 L 163.488281 101.859375 L 163.722656 101.898438 L 163.976562 101.9375 L 164.253906 101.980469 L 164.546875 102.023438 L 164.855469 102.070312 L 165.175781 102.117188 L 165.503906 102.167969 L 165.839844 102.214844 L 166.183594 102.265625 L 166.53125 102.316406 L 167.242188 102.417969 L 167.601562 102.46875 L 167.96875 102.519531 L 168.335938 102.574219 L 168.703125 102.625 L 169.074219 102.679688 L 169.449219 102.730469 L 169.828125 102.785156 L 170.203125 102.835938 L 171.351562 103 L 172.125 103.109375 L 172.515625 103.164062 L 172.90625 103.222656 L 173.296875 103.277344 L 173.691406 103.335938 L 174.085938 103.390625 L 175.28125 103.566406 L 176.085938 103.683594 L 176.488281 103.746094 L 176.894531 103.804688 L 177.300781 103.867188 L 177.710938 103.929688 L 178.117188 103.988281 L 178.53125 104.050781 L 178.941406 104.117188 L 179.355469 104.179688 L 179.769531 104.246094 L 180.1875 104.308594 L 181.441406 104.507812 L 181.863281 104.578125 L 182.289062 104.644531 L 182.710938 104.714844 L 183.140625 104.785156 L 183.566406 104.859375 L 183.996094 104.929688 L 184.425781 105.003906 L 185.726562 105.226562 L 186.601562 105.382812 L 187.042969 105.464844 L 187.484375 105.542969 L 187.929688 105.625 L 188.375 105.710938 L 188.820312 105.792969 "/>
</g>
</svg>
