<?xml version="1.0" encoding="UTF-8"?>
<svg xmlns="http://www.w3.org/2000/svg" xmlns:xlink="http://www.w3.org/1999/xlink" width="200pt" height="200pt" viewBox="0 0 200 200" version="1.1">
<g id="id1">
<path style="fill:none;stroke-width:1;stroke-linecap:butt;stroke-linejoin:miter;stroke:rgb(26.70232%,0.493432%,32.949165%);stroke-opacity:1;stroke-miterlimit:10;" d="M 80 100 L 82.679688 110 L 90 117.320312 L 100 120 L 110 117.320312 L 117.320312 110 L 120 100 L 117.320312 90 L 110 82.679688 L 100 80 L 90 82.679688 L 82.679688 90 L 80 100 "/>
<path style="fill:none;stroke-width:1;stroke-linecap:butt;stroke-linejoin:miter;stroke:rgb(26.701936%,0.492226%,32.947632%);stroke-opacity:1;stroke-miterlimit:10;" d="M 77.085938 90 L 75 100 L 77.085938 110 L 80 115 L 85 120 L 90 122.914062 L 100 125 L 110 122.914062 L 115 120 L 120 115 L 122.914062 110 L 125 100 L 122.914062 90 L 120 85 L 115 80 L 110 77.085938 L 100 75 L 90 77.085938 L 85 80 L 80 85 L 77.085938 90 "/>
<path style="fill:none;stroke-width:1;stroke-linecap:butt;stroke-linejoin:miter;stroke:rgb(26.701552%,0.491019%,32.946099%);stroke-opacity:1;stroke-miterlimit:10;" d="M 68.203125 90 L 66.667969 100 L 68.203125 110 L 70 114.53125 L 73.332031 120 L 80 126.667969 L 85.46875 130 L 90 131.796875 L 100 133.332031 L 110 131.796875 L 114.53125 130 L 120 126.667969 L 126.667969 120 L 130 114.53125 L 131.796875 110 L 133.332031 100 L 131.796875 90 L 130 85.46875 L 126.667969 80 L 120 73.332031 L 114.53125 70 L 110 68.203125 L 100 66.667969 L 90 68.203125 L 85.46875 70 L 80 73.332031 L 73.332031 80 L 70 85.46875 L 68.203125 90 "/>
<path style="fill:none;stroke-width:1;stroke-linecap:butt;stroke-linejoin:miter;stroke:rgb(26.701168%,0.489813%,32.944566%);stroke-opacity:1;stroke-miterlimit:10;" d="M 54.175781 80 L 51.011719 90 L 50 100 L 51.011719 110 L 54.175781 120 L 60 130 L 70 140 L 80 145.824219 L 90 148.988281 L 100 150 L 110 148.988281 L 120 145.824219 L 130 140 L 140 130 L 145.824219 120 L 148.988281 110 L 150 100 L 148.988281 90 L 145.824219 80 L 140 70 L 130 60 L 120 54.175781 L 110 51.011719 L 100 50 L 90 51.011719 L 80 54.175781 L 70 60 L 60 70 L 54.175781 80 "/>
<path style="fill:none;stroke-width:1;stroke-linecap:butt;stroke-linejoin:miter;stroke:rgb(26.700784%,0.488606%,32.943033%);stroke-opacity:1;stroke-miterlimit:10;" d="M 8.347656 60 L 4.605469 70 L 2.019531 80 L 0.5 90 L 0 100 L 0.5 110 L 2.019531 120 L 4.605469 130 L 8.347656 140 L 10 143.589844 L 13.398438 150 L 20 160 L 28.585938 170 L 30 171.414062 L 40 180 L 50 186.601562 L 56.410156 190 L 60 191.652344 L 70 195.394531 L 80 197.980469 L 90 199.5 L 100 200 L 110 199.5 L 120 197.980469 L 130 195.394531 L 140 191.652344 L 143.589844 190 L 150 186.601562 L 160 180 L 170 171.414062 L 171.414062 170 L 180 160 L 186.601562 150 L 190 143.589844 L 191.652344 140 L 195.394531 130 L 197.980469 120 L 199.5 110 L 200 100 L 199.5 90 L 197.980469 80 L 195.394531 70 L 191.652344 60 L 190 56.410156 L 186.601562 50 L 180 40 L 171.414062 30 L 170 28.585938 L 160 20 L 150 13.398438 L 143.589844 10 L 140 8.347656 L 130 4.605469 L 120 2.019531 L 110 0.5 L 100 0 L 90 0.5 L 80 2.019531 L 70 4.605469 L 60 8.347656 L 56.410156 10 L 50 13.398438 L 40 20 L 30 28.585938 L 28.585938 30 L 20 40 L 13.398438 50 L 10 56.410156 L 8.347656 60 "/>
<path style="fill:none;stroke-width:2;stroke-linecap:butt;stroke-linejoin:miter;stroke:rgb(0%,0%,0%);stroke-opacity:1;stroke-miterlimit:10;" d="M 100 30 L 100.101562 30.101562 L 100.148438 30.152344 L 100.199219 30.203125 L 100.25 30.257812 L 100.300781 30.308594 L 100.351562 30.363281 L 100.398438 30.417969 L 100.601562 30.636719 L 100.648438 30.695312 L 100.699219 30.75 L 100.851562 30.925781 L 100.898438 30.984375 L 101 31.101562 L 101.050781 31.164062 L 101.097656 31.226562 L 101.148438 31.285156 L 101.25 31.410156 L 101.300781 31.476562 L 101.347656 31.539062 L 101.398438 31.601562 L 101.5 31.734375 L 101.546875 31.800781 L 101.699219 32 L 101.746094 32.066406 L 101.898438 32.277344 L 101.945312 32.347656 L 102.046875 32.488281 L 102.09375 32.558594 L 102.195312 32.707031 L 102.246094 32.777344 L 102.292969 32.851562 L 102.34375 32.929688 L 102.394531 33.003906 L 102.441406 33.078125 L 102.492188 33.15625 L 102.542969 33.230469 L 102.589844 33.308594 L 102.691406 33.464844 L 102.738281 33.546875 L 102.789062 33.625 L 102.839844 33.707031 L 102.886719 33.785156 L 102.9375 33.867188 L 102.984375 33.949219 L 103.085938 34.113281 L 103.132812 34.199219 L 103.183594 34.28125 L 103.230469 34.367188 L 103.28125 34.453125 L 103.328125 34.539062 L 103.378906 34.625 L 103.429688 34.714844 L 103.476562 34.800781 L 103.527344 34.890625 L 103.574219 34.976562 L 103.625 35.066406 L 103.671875 35.15625 L 103.722656 35.25 L 103.769531 35.339844 L 103.820312 35.429688 L 103.867188 35.523438 L 103.917969 35.617188 L 103.964844 35.710938 L 104.015625 35.804688 L 104.0625 35.898438 L 104.109375 35.996094 L 104.160156 36.089844 L 104.207031 36.1875 L 104.257812 36.285156 L 104.351562 36.480469 L 104.402344 36.582031 L 104.449219 36.679688 L 104.5 36.78125 L 104.640625 37.085938 L 104.691406 37.1875 L 104.785156 37.398438 L 104.835938 37.5 L 104.882812 37.605469 L 104.929688 37.714844 L 104.976562 37.820312 L 105.027344 37.925781 L 105.261719 38.472656 L 105.308594 38.585938 L 105.359375 38.695312 L 105.546875 39.148438 L 105.640625 39.382812 L 105.6875 39.496094 L 105.734375 39.613281 L 105.78125 39.734375 L 105.875 39.96875 L 106.015625 40.332031 L 106.058594 40.453125 L 106.105469 40.578125 L 106.152344 40.699219 L 106.246094 40.949219 L 106.289062 41.074219 L 106.335938 41.199219 L 106.429688 41.457031 L 106.472656 41.582031 L 106.519531 41.710938 L 106.566406 41.84375 L 106.609375 41.972656 L 106.65625 42.105469 L 106.703125 42.234375 L 106.746094 42.367188 L 106.792969 42.503906 L 106.835938 42.636719 L 106.882812 42.769531 L 106.925781 42.90625 L 106.972656 43.042969 L 107.015625 43.179688 L 107.058594 43.320312 L 107.105469 43.457031 L 107.148438 43.597656 L 107.195312 43.738281 L 107.28125 44.019531 L 107.324219 44.164062 L 107.371094 44.304688 L 107.5 44.738281 L 107.628906 45.183594 L 107.675781 45.332031 L 107.71875 45.480469 L 107.761719 45.632812 L 107.800781 45.78125 L 107.886719 46.085938 L 107.929688 46.242188 L 107.972656 46.394531 L 108.058594 46.707031 L 108.097656 46.863281 L 108.183594 47.183594 L 108.222656 47.34375 L 108.265625 47.503906 L 108.304688 47.664062 L 108.347656 47.828125 L 108.386719 47.988281 L 108.429688 48.152344 L 108.46875 48.320312 L 108.511719 48.484375 L 108.589844 48.820312 L 108.632812 48.988281 L 108.671875 49.15625 L 108.789062 49.671875 L 108.828125 49.847656 L 108.867188 50.019531 L 108.984375 50.546875 L 109.0625 50.90625 L 109.097656 51.085938 L 109.136719 51.265625 L 109.175781 51.449219 L 109.210938 51.632812 L 109.25 51.816406 L 109.285156 52 L 109.324219 52.1875 L 109.394531 52.5625 L 109.433594 52.753906 L 109.46875 52.941406 L 109.503906 53.132812 L 109.539062 53.328125 L 109.574219 53.519531 L 109.644531 53.910156 L 109.679688 54.109375 L 109.714844 54.304688 L 109.75 54.503906 L 109.785156 54.707031 L 109.816406 54.90625 L 109.851562 55.109375 L 109.882812 55.3125 L 109.917969 55.519531 L 109.949219 55.722656 L 109.980469 55.929688 L 110.015625 56.140625 L 110.046875 56.347656 L 110.078125 56.558594 L 110.109375 56.773438 L 110.140625 56.984375 L 110.203125 57.414062 L 110.230469 57.632812 L 110.292969 58.070312 L 110.347656 58.515625 L 110.378906 58.738281 L 110.40625 58.960938 L 110.433594 59.1875 L 110.460938 59.417969 L 110.488281 59.644531 L 110.542969 60.105469 L 110.570312 60.339844 L 110.59375 60.574219 L 110.621094 60.8125 L 110.644531 61.046875 L 110.667969 61.289062 L 110.691406 61.527344 L 110.714844 61.769531 L 110.738281 62.015625 L 110.761719 62.257812 L 110.785156 62.503906 L 110.808594 62.753906 L 110.828125 63.003906 L 110.851562 63.253906 L 110.890625 63.761719 L 110.929688 64.277344 L 110.945312 64.539062 L 110.984375 65.0625 L 111.015625 65.59375 L 111.046875 66.132812 L 111.0625 66.40625 L 111.074219 66.679688 L 111.089844 66.957031 L 111.101562 67.234375 L 111.125 67.796875 L 111.132812 68.082031 L 111.144531 68.367188 L 111.160156 68.945312 L 111.167969 69.238281 L 111.175781 69.535156 L 111.179688 69.832031 L 111.1875 70.132812 L 111.191406 70.433594 L 111.195312 70.738281 L 111.195312 71.042969 L 111.199219 71.351562 L 111.199219 71.976562 L 111.195312 72.292969 L 111.195312 72.613281 L 111.191406 72.933594 L 111.183594 73.257812 L 111.179688 73.585938 L 111.171875 73.914062 L 111.164062 74.246094 L 111.15625 74.582031 L 111.132812 75.261719 L 111.101562 75.957031 L 111.085938 76.308594 L 111.066406 76.660156 L 111.027344 77.378906 L 110.980469 78.113281 L 110.953125 78.484375 L 110.921875 78.863281 L 110.894531 79.242188 L 110.859375 79.625 L 110.789062 80.40625 L 110.746094 80.804688 L 110.707031 81.203125 L 110.660156 81.609375 L 110.613281 82.019531 L 110.5625 82.4375 L 110.507812 82.855469 L 110.449219 83.28125 L 110.390625 83.714844 L 110.328125 84.152344 L 110.257812 84.59375 L 110.1875 85.042969 L 110.109375 85.5 L 110.03125 85.960938 L 109.945312 86.429688 L 109.855469 86.90625 L 109.757812 87.386719 L 109.65625 87.878906 L 109.546875 88.378906 L 109.429688 88.886719 L 109.308594 89.402344 L 109.175781 89.929688 L 109.035156 90.464844 L 108.882812 91.011719 L 108.722656 91.570312 L 108.546875 92.140625 L 108.359375 92.722656 L 108.15625 93.316406 L 107.933594 93.925781 L 107.695312 94.550781 L 107.429688 95.191406 L 107.140625 95.851562 L 106.816406 96.527344 L 106.457031 97.226562 L 106.050781 97.941406 L 105.585938 98.675781 L 105.042969 99.429688 L 104.40625 100.191406 L 103.640625 100.949219 L 102.703125 101.65625 L 101.558594 102.226562 L 100.234375 102.523438 L 98.875 102.453125 L 97.648438 102.074219 L 96.601562 101.519531 L 95.722656 100.890625 L 94.972656 100.230469 L 94.324219 99.566406 L 93.75 98.90625 L 93.238281 98.257812 L 92.773438 97.625 L 92.355469 97 L 91.96875 96.390625 L 91.609375 95.796875 L 91.277344 95.214844 L 90.96875 94.644531 L 90.679688 94.082031 L 90.40625 93.535156 L 90.152344 92.996094 L 89.90625 92.46875 L 89.679688 91.949219 L 89.460938 91.441406 L 89.25 90.941406 L 89.050781 90.449219 L 88.863281 89.964844 L 88.683594 89.484375 L 88.507812 89.015625 L 88.34375 88.550781 L 88.183594 88.09375 L 88.027344 87.644531 L 87.882812 87.199219 L 87.738281 86.761719 L 87.601562 86.328125 L 87.46875 85.898438 L 87.34375 85.476562 L 87.21875 85.058594 L 87.101562 84.648438 L 86.988281 84.238281 L 86.875 83.835938 L 86.769531 83.4375 L 86.664062 83.042969 L 86.566406 82.652344 L 86.46875 82.265625 L 86.28125 81.507812 L 86.195312 81.132812 L 86.109375 80.761719 L 86.027344 80.394531 L 85.945312 80.03125 L 85.867188 79.671875 L 85.789062 79.316406 L 85.71875 78.960938 L 85.644531 78.613281 L 85.578125 78.265625 L 85.507812 77.921875 L 85.445312 77.578125 L 85.378906 77.242188 L 85.320312 76.90625 L 85.257812 76.574219 L 85.199219 76.246094 L 85.144531 75.917969 L 85.035156 75.269531 L 84.933594 74.636719 L 84.886719 74.320312 L 84.839844 74.011719 L 84.792969 73.699219 L 84.664062 72.785156 L 84.625 72.488281 L 84.585938 72.1875 L 84.546875 71.894531 L 84.507812 71.597656 L 84.4375 71.019531 L 84.40625 70.730469 L 84.371094 70.445312 L 84.339844 70.160156 L 84.3125 69.878906 L 84.28125 69.601562 L 84.226562 69.046875 L 84.171875 68.5 L 84.125 67.960938 L 84.078125 67.429688 L 84.019531 66.644531 L 83.980469 66.128906 L 83.964844 65.875 L 83.945312 65.621094 L 83.929688 65.367188 L 83.914062 65.117188 L 83.902344 64.871094 L 83.886719 64.621094 L 83.875 64.375 L 83.828125 63.40625 L 83.820312 63.167969 L 83.808594 62.929688 L 83.785156 62.226562 L 83.777344 61.996094 L 83.773438 61.765625 L 83.765625 61.539062 L 83.761719 61.308594 L 83.757812 61.082031 L 83.753906 60.859375 L 83.75 60.632812 L 83.746094 60.414062 L 83.746094 60.191406 L 83.742188 59.972656 L 83.742188 59.535156 L 83.738281 59.320312 L 83.738281 59.101562 L 83.742188 58.890625 L 83.742188 58.464844 L 83.746094 58.253906 L 83.746094 58.046875 L 83.761719 57.21875 L 83.765625 57.015625 L 83.769531 56.816406 L 83.777344 56.613281 L 83.78125 56.414062 L 83.796875 56.015625 L 83.800781 55.820312 L 83.824219 55.234375 L 83.832031 55.042969 L 83.84375 54.851562 L 83.851562 54.660156 L 83.863281 54.46875 L 83.871094 54.28125 L 83.882812 54.09375 L 83.890625 53.90625 L 83.902344 53.722656 L 83.914062 53.535156 L 83.9375 53.167969 L 83.949219 52.988281 L 83.964844 52.808594 L 83.988281 52.449219 L 84.003906 52.269531 L 84.019531 52.09375 L 84.03125 51.917969 L 84.0625 51.566406 L 84.125 50.878906 L 84.140625 50.710938 L 84.15625 50.539062 L 84.175781 50.371094 L 84.191406 50.207031 L 84.207031 50.039062 L 84.246094 49.710938 L 84.261719 49.546875 L 84.28125 49.382812 L 84.300781 49.222656 L 84.320312 49.058594 L 84.359375 48.738281 L 84.378906 48.582031 L 84.398438 48.421875 L 84.4375 48.109375 L 84.460938 47.953125 L 84.480469 47.800781 L 84.503906 47.648438 L 84.523438 47.492188 L 84.546875 47.34375 L 84.566406 47.191406 L 84.589844 47.039062 L 84.683594 46.445312 L 84.707031 46.300781 L 84.730469 46.152344 L 84.800781 45.71875 L 84.824219 45.578125 L 84.851562 45.4375 L 84.875 45.292969 L 84.898438 45.152344 L 84.925781 45.015625 L 84.949219 44.875 L 84.976562 44.738281 L 85.003906 44.597656 L 85.027344 44.460938 L 85.054688 44.328125 L 85.109375 44.054688 L 85.21875 43.523438 L 85.246094 43.394531 L 85.273438 43.261719 L 85.355469 42.875 L 85.386719 42.75 L 85.414062 42.621094 L 85.441406 42.496094 L 85.472656 42.371094 L 85.5 42.246094 L 85.5625 41.996094 L 85.589844 41.875 L 85.652344 41.632812 L 85.679688 41.511719 L 85.742188 41.269531 L 85.898438 40.683594 L 85.929688 40.570312 L 85.960938 40.453125 L 86.054688 40.113281 L 86.089844 40 L 86.121094 39.890625 L 86.152344 39.777344 L 86.1875 39.667969 L 86.21875 39.558594 L 86.253906 39.449219 L 86.285156 39.339844 L 86.320312 39.234375 L 86.351562 39.125 L 86.386719 39.019531 L 86.417969 38.914062 L 86.488281 38.703125 L 86.523438 38.601562 L 86.554688 38.496094 L 86.730469 37.988281 L 86.765625 37.890625 L 86.800781 37.789062 L 86.941406 37.398438 L 86.976562 37.304688 L 87.015625 37.207031 L 87.121094 36.925781 L 87.160156 36.832031 L 87.195312 36.738281 L 87.230469 36.648438 L 87.269531 36.554688 L 87.304688 36.464844 L 87.34375 36.375 L 87.378906 36.285156 L 87.417969 36.195312 L 87.457031 36.109375 L 87.492188 36.019531 L 87.53125 35.933594 L 87.566406 35.847656 L 87.683594 35.589844 L 87.71875 35.503906 L 87.796875 35.339844 L 87.835938 35.253906 L 87.914062 35.089844 L 87.953125 35.011719 L 87.992188 34.929688 L 88.03125 34.851562 L 88.070312 34.769531 L 88.1875 34.535156 L 88.226562 34.460938 L 88.304688 34.304688 L 88.34375 34.230469 L 88.386719 34.15625 L 88.503906 33.933594 L 88.546875 33.863281 L 88.585938 33.789062 L 88.625 33.71875 L 88.667969 33.648438 L 88.707031 33.578125 L 88.75 33.507812 L 88.789062 33.4375 L 88.832031 33.367188 L 88.871094 33.300781 L 88.914062 33.230469 L 88.953125 33.164062 L 88.996094 33.097656 L 89.035156 33.03125 L 89.078125 32.964844 L 89.121094 32.902344 L 89.160156 32.835938 L 89.246094 32.710938 L 89.289062 32.644531 L 89.328125 32.582031 L 89.371094 32.523438 L 89.457031 32.398438 L 89.5 32.339844 L 89.539062 32.277344 L 89.667969 32.101562 L 89.710938 32.046875 L 89.796875 31.929688 L 90.054688 31.601562 L 90.097656 31.550781 L 90.144531 31.496094 L 90.316406 31.292969 L 90.363281 31.242188 L 90.40625 31.191406 L 90.449219 31.144531 L 90.492188 31.09375 L 90.539062 31.046875 L 90.625 30.953125 L 90.671875 30.90625 L 90.714844 30.859375 L 90.761719 30.816406 L 90.804688 30.769531 L 90.847656 30.726562 L 90.894531 30.683594 L 90.9375 30.636719 L 90.984375 30.597656 L 91.027344 30.554688 L 91.074219 30.511719 L 91.117188 30.46875 L 91.164062 30.429688 L 91.207031 30.390625 L 91.253906 30.347656 L 91.300781 30.308594 L 91.34375 30.273438 L 91.4375 30.195312 L 91.480469 30.160156 L 91.527344 30.121094 L 91.574219 30.085938 L 91.617188 30.050781 L 91.710938 29.980469 L 91.753906 29.945312 L 91.800781 29.910156 L 91.847656 29.878906 L 91.894531 29.84375 L 91.941406 29.8125 L 91.984375 29.78125 L 92.125 29.6875 L 92.171875 29.660156 L 92.21875 29.628906 L 92.546875 29.4375 L 92.59375 29.414062 L 92.640625 29.386719 L 92.828125 29.292969 L 92.875 29.273438 L 92.96875 29.226562 L 93.0625 29.1875 L 93.113281 29.167969 L 93.253906 29.109375 L 93.300781 29.09375 L 93.347656 29.074219 L 93.398438 29.058594 L 93.539062 29.011719 L 93.589844 28.996094 L 93.683594 28.964844 L 93.734375 28.953125 L 93.78125 28.941406 L 93.828125 28.925781 L 93.878906 28.914062 L 93.972656 28.890625 L 94.023438 28.882812 L 94.070312 28.871094 L 94.117188 28.863281 L 94.167969 28.851562 L 94.214844 28.84375 L 94.265625 28.835938 L 94.359375 28.820312 L 94.410156 28.816406 L 94.457031 28.808594 L 94.507812 28.804688 L 94.554688 28.796875 L 94.605469 28.792969 L 94.652344 28.789062 L 94.703125 28.785156 L 94.75 28.78125 L 94.800781 28.777344 L 94.847656 28.777344 L 94.898438 28.773438 L 95.191406 28.773438 L 95.242188 28.777344 L 95.292969 28.777344 L 95.339844 28.78125 L 95.390625 28.785156 L 95.441406 28.785156 L 95.488281 28.792969 L 95.539062 28.796875 L 95.585938 28.800781 L 95.636719 28.804688 L 95.6875 28.8125 L 95.734375 28.820312 L 95.785156 28.824219 L 95.886719 28.839844 L 95.933594 28.851562 L 96.035156 28.867188 L 96.082031 28.878906 L 96.132812 28.890625 L 96.183594 28.898438 L 96.285156 28.921875 L 96.332031 28.933594 L 96.382812 28.949219 L 96.433594 28.960938 L 96.484375 28.976562 L 96.53125 28.988281 L 96.734375 29.050781 L 96.78125 29.070312 L 96.832031 29.085938 L 96.882812 29.105469 L 96.933594 29.121094 L 97.085938 29.179688 L 97.132812 29.203125 L 97.234375 29.242188 L 97.386719 29.3125 L 97.4375 29.332031 L 97.488281 29.359375 L 97.539062 29.382812 L 97.585938 29.40625 L 97.636719 29.433594 L 97.6875 29.457031 L 97.941406 29.59375 L 97.992188 29.625 L 98.042969 29.652344 L 98.144531 29.714844 L 98.195312 29.742188 L 98.246094 29.777344 L 98.347656 29.839844 L 98.394531 29.871094 L 98.496094 29.941406 L 98.546875 29.972656 L 98.648438 30.042969 L 98.699219 30.082031 L 98.800781 30.152344 L 99.15625 30.425781 L 99.257812 30.511719 L 99.308594 30.550781 L 99.460938 30.679688 L 99.511719 30.726562 L 99.5625 30.769531 L 99.664062 30.863281 L 99.714844 30.90625 L 99.765625 30.953125 L 99.816406 31.003906 L 99.917969 31.097656 L 99.96875 31.148438 L 100.019531 31.195312 L 100.070312 31.246094 L 100.125 31.296875 L 100.226562 31.398438 L 100.277344 31.453125 L 100.328125 31.503906 L 100.378906 31.558594 L 100.429688 31.609375 L 100.53125 31.71875 L 100.582031 31.777344 L 100.683594 31.886719 L 100.785156 32.003906 L 100.835938 32.058594 L 100.9375 32.175781 L 100.988281 32.238281 L 101.039062 32.296875 L 101.089844 32.359375 L 101.140625 32.417969 L 101.34375 32.667969 L 101.394531 32.734375 L 101.445312 32.796875 L 101.492188 32.863281 L 101.695312 33.128906 L 101.746094 33.199219 L 101.796875 33.265625 L 101.898438 33.40625 L 101.949219 33.472656 L 102 33.546875 L 102.101562 33.6875 L 102.152344 33.761719 L 102.203125 33.832031 L 102.304688 33.980469 L 102.351562 34.054688 L 102.402344 34.132812 L 102.453125 34.207031 L 102.503906 34.285156 L 102.554688 34.359375 L 102.707031 34.59375 L 102.753906 34.675781 L 102.804688 34.753906 L 102.855469 34.835938 L 102.90625 34.914062 L 103.007812 35.078125 L 103.054688 35.164062 L 103.15625 35.328125 L 103.257812 35.5 L 103.304688 35.585938 L 103.40625 35.757812 L 103.457031 35.847656 L 103.503906 35.933594 L 103.65625 36.203125 L 103.703125 36.292969 L 103.753906 36.382812 L 103.804688 36.476562 L 103.851562 36.570312 L 103.953125 36.757812 L 104 36.851562 L 104.101562 37.039062 L 104.148438 37.136719 L 104.25 37.332031 L 104.296875 37.429688 L 104.347656 37.527344 L 104.394531 37.628906 L 104.445312 37.726562 L 104.492188 37.828125 L 104.542969 37.929688 L 104.589844 38.03125 L 104.640625 38.132812 L 104.6875 38.238281 L 104.738281 38.339844 L 104.785156 38.445312 L 104.835938 38.550781 L 104.882812 38.65625 L 104.933594 38.761719 L 104.980469 38.871094 L 105.03125 38.980469 L 105.078125 39.085938 L 105.125 39.195312 L 105.175781 39.304688 L 105.222656 39.417969 L 105.269531 39.527344 L 105.320312 39.640625 L 105.414062 39.867188 L 105.464844 39.980469 L 105.511719 40.09375 L 105.558594 40.210938 L 105.605469 40.324219 L 105.652344 40.441406 L 105.703125 40.558594 L 105.75 40.675781 L 105.796875 40.796875 L 105.84375 40.914062 L 105.984375 41.277344 L 106.035156 41.398438 L 106.269531 42.023438 L 106.3125 42.148438 L 106.546875 42.792969 L 106.59375 42.925781 L 106.640625 43.054688 L 106.683594 43.1875 L 106.730469 43.324219 L 106.777344 43.457031 L 106.820312 43.589844 L 106.914062 43.863281 L 106.957031 44 L 107.003906 44.140625 L 107.050781 44.277344 L 107.09375 44.417969 L 107.140625 44.558594 L 107.183594 44.699219 L 107.230469 44.839844 L 107.273438 44.984375 L 107.320312 45.125 L 107.363281 45.269531 L 107.40625 45.417969 L 107.453125 45.5625 L 107.496094 45.707031 L 107.539062 45.855469 L 107.585938 46.003906 L 107.628906 46.152344 L 107.714844 46.457031 L 107.757812 46.605469 L 107.800781 46.757812 L 107.84375 46.914062 L 107.886719 47.066406 L 108.015625 47.535156 L 108.058594 47.695312 L 108.101562 47.851562 L 108.1875 48.171875 L 108.226562 48.335938 L 108.269531 48.496094 L 108.355469 48.824219 L 108.394531 48.988281 L 108.4375 49.15625 L 108.476562 49.320312 L 108.519531 49.488281 L 108.558594 49.65625 L 108.601562 49.828125 L 108.679688 50.171875 L 108.722656 50.34375 L 108.761719 50.515625 L 108.917969 51.21875 L 109.035156 51.757812 L 109.074219 51.941406 L 109.113281 52.121094 L 109.152344 52.304688 L 109.1875 52.492188 L 109.226562 52.675781 L 109.265625 52.863281 L 109.300781 53.050781 L 109.339844 53.238281 L 109.375 53.429688 L 109.414062 53.621094 L 109.449219 53.8125 L 109.484375 54.007812 L 109.519531 54.199219 L 109.554688 54.394531 L 109.59375 54.59375 L 109.628906 54.789062 L 109.699219 55.1875 L 109.730469 55.390625 L 109.800781 55.796875 L 109.832031 56 L 109.902344 56.414062 L 109.933594 56.621094 L 109.964844 56.832031 L 110 57.042969 L 110.03125 57.253906 L 110.125 57.898438 L 110.21875 58.554688 L 110.246094 58.777344 L 110.277344 59 L 110.304688 59.222656 L 110.335938 59.445312 L 110.363281 59.675781 L 110.390625 59.902344 L 110.472656 60.59375 L 110.527344 61.0625 L 110.550781 61.300781 L 110.578125 61.539062 L 110.601562 61.777344 L 110.628906 62.019531 L 110.652344 62.261719 L 110.722656 63 L 110.742188 63.25 L 110.765625 63.5 L 110.789062 63.753906 L 110.828125 64.261719 L 110.867188 64.777344 L 110.90625 65.300781 L 110.921875 65.566406 L 110.941406 65.832031 L 110.972656 66.371094 L 111.003906 66.917969 L 111.015625 67.195312 L 111.03125 67.472656 L 111.042969 67.75 L 111.054688 68.035156 L 111.066406 68.316406 L 111.074219 68.605469 L 111.085938 68.890625 L 111.109375 69.769531 L 111.117188 70.066406 L 111.121094 70.367188 L 111.128906 70.667969 L 111.132812 70.972656 L 111.132812 71.277344 L 111.136719 71.585938 L 111.136719 72.53125 L 111.132812 72.847656 L 111.132812 73.171875 L 111.128906 73.496094 L 111.113281 74.152344 L 111.097656 74.824219 L 111.085938 75.160156 L 111.074219 75.503906 L 111.0625 75.851562 L 111.046875 76.199219 L 111.03125 76.550781 L 111.011719 76.90625 L 110.972656 77.625 L 110.949219 77.992188 L 110.925781 78.363281 L 110.898438 78.734375 L 110.835938 79.492188 L 110.804688 79.878906 L 110.769531 80.269531 L 110.730469 80.664062 L 110.691406 81.0625 L 110.648438 81.464844 L 110.601562 81.871094 L 110.554688 82.285156 L 110.503906 82.703125 L 110.449219 83.125 L 110.390625 83.554688 L 110.328125 83.988281 L 110.265625 84.425781 L 110.195312 84.875 L 110.121094 85.324219 L 110.042969 85.785156 L 109.960938 86.25 L 109.875 86.722656 L 109.78125 87.199219 L 109.683594 87.6875 L 109.578125 88.183594 L 109.464844 88.6875 L 109.34375 89.199219 L 109.21875 89.71875 L 109.082031 90.253906 L 108.9375 90.792969 L 108.78125 91.347656 L 108.613281 91.910156 L 108.429688 92.488281 L 108.234375 93.078125 L 108.023438 93.679688 L 107.789062 94.296875 L 107.539062 94.933594 L 107.257812 95.582031 L 106.953125 96.253906 L 106.609375 96.941406 L 106.222656 97.648438 L 105.78125 98.375 L 105.273438 99.121094 L 104.679688 99.882812 L 103.972656 100.644531 L 103.113281 101.378906 L 102.054688 102.019531 L 100.792969 102.445312 L 99.425781 102.527344 L 98.128906 102.257812 L 97.011719 101.757812 L 96.070312 101.152344 L 95.269531 100.5 L 94.582031 99.835938 L 93.980469 99.175781 L 93.445312 98.519531 L 92.964844 97.878906 L 92.53125 97.25 L 92.132812 96.636719 L 91.765625 96.035156 L 91.425781 95.445312 L 91.109375 94.871094 L 90.8125 94.304688 L 90.535156 93.753906 L 90.273438 93.210938 L 90.027344 92.679688 L 89.792969 92.15625 L 89.570312 91.644531 L 89.363281 91.140625 L 89.160156 90.644531 L 88.96875 90.15625 L 88.785156 89.675781 L 88.613281 89.203125 L 88.445312 88.734375 L 88.285156 88.277344 L 88.128906 87.824219 L 87.980469 87.375 L 87.839844 86.933594 L 87.699219 86.5 L 87.570312 86.070312 L 87.441406 85.644531 L 87.320312 85.226562 L 87.199219 84.8125 L 87.085938 84.402344 L 86.976562 84 L 86.867188 83.601562 L 86.765625 83.203125 L 86.664062 82.8125 L 86.566406 82.425781 L 86.472656 82.042969 L 86.382812 81.664062 L 86.296875 81.289062 L 86.210938 80.917969 L 86.128906 80.550781 L 86.046875 80.1875 L 85.972656 79.824219 L 85.894531 79.46875 L 85.824219 79.113281 L 85.753906 78.761719 L 85.683594 78.414062 L 85.617188 78.070312 L 85.492188 77.390625 L 85.429688 77.054688 L 85.371094 76.722656 L 85.316406 76.394531 L 85.257812 76.066406 L 85.207031 75.742188 L 85.152344 75.417969 L 85.105469 75.101562 L 85.054688 74.785156 L 85.007812 74.46875 L 84.960938 74.160156 L 84.917969 73.847656 L 84.789062 72.933594 L 84.75 72.636719 L 84.714844 72.335938 L 84.675781 72.042969 L 84.605469 71.457031 L 84.574219 71.167969 L 84.539062 70.882812 L 84.507812 70.597656 L 84.480469 70.3125 L 84.449219 70.03125 L 84.367188 69.199219 L 84.34375 68.925781 L 84.273438 68.117188 L 84.253906 67.851562 L 84.230469 67.585938 L 84.191406 67.0625 L 84.175781 66.804688 L 84.15625 66.546875 L 84.140625 66.289062 L 84.109375 65.78125 L 84.09375 65.53125 L 84.082031 65.28125 L 84.066406 65.03125 L 84.054688 64.785156 L 84.042969 64.542969 L 84.03125 64.296875 L 84.023438 64.054688 L 84.011719 63.816406 L 83.988281 63.101562 L 83.980469 62.867188 L 83.976562 62.632812 L 83.96875 62.402344 L 83.960938 61.941406 L 83.953125 61.714844 L 83.953125 61.488281 L 83.949219 61.261719 L 83.945312 61.039062 L 83.945312 60.816406 L 83.941406 60.59375 L 83.941406 59.507812 L 83.945312 59.292969 L 83.945312 59.082031 L 83.957031 58.449219 L 83.96875 57.828125 L 83.972656 57.625 L 83.980469 57.421875 L 83.984375 57.21875 L 84.015625 56.421875 L 84.039062 55.835938 L 84.050781 55.644531 L 84.058594 55.449219 L 84.070312 55.257812 L 84.082031 55.070312 L 84.089844 54.878906 L 84.113281 54.503906 L 84.125 54.320312 L 84.136719 54.132812 L 84.152344 53.949219 L 84.164062 53.765625 L 84.175781 53.585938 L 84.191406 53.402344 L 84.203125 53.222656 L 84.21875 53.042969 L 84.234375 52.867188 L 84.25 52.6875 L 84.261719 52.511719 L 84.277344 52.335938 L 84.296875 52.164062 L 84.3125 51.988281 L 84.34375 51.644531 L 84.363281 51.472656 L 84.378906 51.304688 L 84.398438 51.136719 L 84.414062 50.96875 L 84.453125 50.632812 L 84.46875 50.46875 L 84.507812 50.140625 L 84.527344 49.980469 L 84.546875 49.816406 L 84.570312 49.65625 L 84.609375 49.335938 L 84.628906 49.179688 L 84.652344 49.019531 L 84.671875 48.863281 L 84.695312 48.707031 L 84.71875 48.554688 L 84.738281 48.398438 L 84.808594 47.941406 L 84.832031 47.792969 L 84.855469 47.640625 L 84.925781 47.195312 L 84.949219 47.050781 L 84.976562 46.902344 L 85.023438 46.613281 L 85.050781 46.46875 L 85.074219 46.328125 L 85.101562 46.183594 L 85.125 46.042969 L 85.179688 45.761719 L 85.207031 45.625 L 85.230469 45.488281 L 85.257812 45.347656 L 85.3125 45.074219 L 85.339844 44.941406 L 85.367188 44.804688 L 85.398438 44.671875 L 85.453125 44.40625 L 85.480469 44.277344 L 85.511719 44.144531 L 85.539062 44.015625 L 85.570312 43.886719 L 85.597656 43.757812 L 85.628906 43.628906 L 85.65625 43.5 L 85.6875 43.375 L 85.714844 43.25 L 85.808594 42.875 L 85.839844 42.753906 L 85.871094 42.628906 L 85.898438 42.507812 L 85.929688 42.386719 L 85.960938 42.269531 L 85.996094 42.148438 L 86.027344 42.03125 L 86.058594 41.910156 L 86.121094 41.675781 L 86.15625 41.5625 L 86.1875 41.445312 L 86.21875 41.332031 L 86.253906 41.21875 L 86.285156 41.105469 L 86.320312 40.992188 L 86.351562 40.878906 L 86.386719 40.765625 L 86.417969 40.65625 L 86.488281 40.4375 L 86.519531 40.328125 L 86.554688 40.21875 L 86.589844 40.113281 L 86.625 40.003906 L 86.660156 39.898438 L 86.691406 39.792969 L 86.726562 39.6875 L 86.761719 39.585938 L 86.796875 39.480469 L 86.832031 39.378906 L 86.871094 39.277344 L 86.90625 39.171875 L 86.941406 39.074219 L 87.011719 38.871094 L 87.046875 38.773438 L 87.085938 38.675781 L 87.15625 38.480469 L 87.195312 38.382812 L 87.230469 38.285156 L 87.269531 38.191406 L 87.304688 38.097656 L 87.34375 38 L 87.378906 37.90625 L 87.417969 37.816406 L 87.453125 37.722656 L 87.492188 37.628906 L 87.53125 37.539062 L 87.566406 37.449219 L 87.683594 37.179688 L 87.722656 37.09375 L 87.757812 37.003906 L 87.953125 36.574219 L 87.992188 36.492188 L 88.03125 36.40625 L 88.070312 36.324219 L 88.113281 36.242188 L 88.191406 36.078125 L 88.230469 36 L 88.269531 35.917969 L 88.3125 35.839844 L 88.429688 35.605469 L 88.472656 35.527344 L 88.511719 35.453125 L 88.554688 35.375 L 88.59375 35.300781 L 88.636719 35.226562 L 88.675781 35.152344 L 88.71875 35.078125 L 88.757812 35.003906 L 88.800781 34.929688 L 88.839844 34.859375 L 88.882812 34.789062 L 88.921875 34.71875 L 89.050781 34.507812 L 89.089844 34.441406 L 89.132812 34.371094 L 89.21875 34.238281 L 89.257812 34.171875 L 89.34375 34.039062 L 89.386719 33.976562 L 89.429688 33.910156 L 89.644531 33.597656 L 89.6875 33.539062 L 89.730469 33.476562 L 89.816406 33.359375 L 89.863281 33.300781 L 89.992188 33.125 L 90.035156 33.070312 L 90.082031 33.015625 L 90.125 32.957031 L 90.210938 32.847656 L 90.257812 32.796875 L 90.34375 32.6875 L 90.390625 32.636719 L 90.433594 32.585938 L 90.480469 32.535156 L 90.523438 32.484375 L 90.570312 32.433594 L 90.613281 32.382812 L 90.660156 32.335938 L 90.703125 32.285156 L 90.75 32.238281 L 90.792969 32.191406 L 90.839844 32.144531 L 90.882812 32.097656 L 90.929688 32.050781 L 90.976562 32.007812 L 91.019531 31.960938 L 91.113281 31.875 L 91.15625 31.832031 L 91.296875 31.703125 L 91.339844 31.664062 L 91.386719 31.621094 L 91.527344 31.503906 L 91.570312 31.464844 L 91.617188 31.425781 L 91.664062 31.390625 L 91.710938 31.351562 L 91.992188 31.140625 L 92.039062 31.109375 L 92.085938 31.074219 L 92.320312 30.917969 L 92.367188 30.890625 L 92.417969 30.859375 L 92.652344 30.722656 L 92.703125 30.695312 L 92.75 30.671875 L 92.796875 30.644531 L 92.84375 30.621094 L 92.894531 30.597656 L 92.988281 30.550781 L 93.039062 30.527344 L 93.085938 30.503906 L 93.132812 30.484375 L 93.183594 30.464844 L 93.230469 30.441406 L 93.277344 30.421875 L 93.328125 30.402344 L 93.375 30.382812 L 93.425781 30.367188 L 93.519531 30.328125 L 93.570312 30.3125 L 93.617188 30.296875 L 93.667969 30.28125 L 93.714844 30.265625 L 93.765625 30.25 L 93.8125 30.234375 L 93.863281 30.222656 L 93.910156 30.207031 L 93.960938 30.195312 L 94.007812 30.183594 L 94.109375 30.160156 L 94.15625 30.148438 L 94.207031 30.140625 L 94.253906 30.128906 L 94.304688 30.121094 L 94.355469 30.109375 L 94.402344 30.101562 L 94.503906 30.085938 L 94.550781 30.082031 L 94.601562 30.074219 L 94.652344 30.070312 L 94.699219 30.0625 L 94.851562 30.050781 L 94.898438 30.046875 L 94.949219 30.042969 L 95 30.042969 L 95.050781 30.039062 L 95.347656 30.039062 L 95.449219 30.046875 L 95.5 30.046875 L 95.652344 30.058594 L 95.699219 30.0625 L 95.75 30.070312 L 95.800781 30.074219 L 96.105469 30.121094 L 96.15625 30.132812 L 96.207031 30.140625 L 96.308594 30.164062 L 96.359375 30.171875 L 96.410156 30.1875 L 96.511719 30.210938 L 96.5625 30.226562 L 96.613281 30.238281 L 96.917969 30.332031 L 97.019531 30.371094 L 97.070312 30.386719 L 97.171875 30.425781 L 97.222656 30.449219 L 97.324219 30.488281 L 97.375 30.511719 L 97.429688 30.535156 L 97.480469 30.554688 L 97.582031 30.601562 L 97.632812 30.628906 L 97.683594 30.652344 L 97.734375 30.679688 L 97.785156 30.703125 L 97.839844 30.730469 L 98.042969 30.839844 L 98.09375 30.871094 L 98.148438 30.898438 L 98.402344 31.054688 L 98.457031 31.085938 L 98.558594 31.15625 L 98.609375 31.1875 L 98.660156 31.222656 L 98.714844 31.257812 L 98.765625 31.296875 L 98.867188 31.367188 L 98.917969 31.40625 L 98.972656 31.445312 L 99.023438 31.480469 L 99.074219 31.519531 L 99.125 31.5625 L 99.175781 31.601562 L 99.230469 31.640625 L 99.28125 31.683594 L 99.332031 31.722656 L 99.382812 31.765625 L 99.4375 31.808594 L 99.488281 31.851562 L 99.539062 31.898438 L 99.640625 31.984375 L 99.695312 32.03125 L 99.847656 32.171875 L 99.902344 32.21875 L 99.953125 32.265625 L 100.003906 32.316406 L 100.054688 32.363281 L 100.109375 32.414062 L 100.261719 32.566406 L 100.3125 32.621094 L 100.367188 32.671875 L 100.417969 32.726562 L 100.46875 32.777344 L 100.519531 32.832031 L 100.574219 32.886719 L 100.625 32.941406 L 100.675781 33 L 100.726562 33.054688 L 100.777344 33.113281 L 100.832031 33.171875 L 100.882812 33.226562 L 100.933594 33.285156 L 100.984375 33.347656 L 101.039062 33.40625 L 101.089844 33.464844 L 101.242188 33.652344 L 101.296875 33.714844 L 101.398438 33.839844 L 101.449219 33.90625 L 101.5 33.96875 L 101.550781 34.035156 L 101.605469 34.101562 L 101.707031 34.234375 L 101.757812 34.304688 L 101.808594 34.371094 L 101.863281 34.441406 L 102.117188 34.792969 L 102.167969 34.867188 L 102.222656 34.941406 L 102.273438 35.011719 L 102.324219 35.085938 L 102.375 35.164062 L 102.476562 35.3125 L 102.730469 35.703125 L 102.785156 35.78125 L 102.835938 35.863281 L 102.886719 35.941406 L 103.039062 36.1875 L 103.089844 36.273438 L 103.140625 36.355469 L 103.445312 36.871094 L 103.597656 37.140625 L 103.644531 37.230469 L 103.746094 37.410156 L 103.847656 37.597656 L 103.898438 37.6875 L 103.949219 37.78125 L 104 37.878906 L 104.050781 37.972656 L 104.097656 38.070312 L 104.148438 38.164062 L 104.300781 38.457031 L 104.347656 38.558594 L 104.398438 38.65625 L 104.5 38.859375 L 104.546875 38.960938 L 104.597656 39.0625 L 104.648438 39.167969 L 104.699219 39.269531 L 104.746094 39.375 L 104.847656 39.585938 L 104.894531 39.691406 L 104.945312 39.796875 L 104.992188 39.90625 L 105.09375 40.125 L 105.140625 40.234375 L 105.191406 40.34375 L 105.238281 40.457031 L 105.289062 40.566406 L 105.335938 40.679688 L 105.386719 40.792969 L 105.433594 40.90625 L 105.484375 41.023438 L 105.53125 41.136719 L 105.582031 41.253906 L 105.675781 41.488281 L 105.726562 41.605469 L 105.820312 41.847656 L 105.871094 41.964844 L 105.917969 42.085938 L 105.964844 42.210938 L 106.011719 42.332031 L 106.0625 42.457031 L 106.109375 42.578125 L 106.15625 42.703125 L 106.203125 42.832031 L 106.25 42.957031 L 106.300781 43.085938 L 106.347656 43.210938 L 106.441406 43.46875 L 106.488281 43.601562 L 106.535156 43.730469 L 106.722656 44.261719 L 106.816406 44.535156 L 106.859375 44.671875 L 106.953125 44.945312 L 107.046875 45.226562 L 107.089844 45.363281 L 107.136719 45.507812 L 107.183594 45.648438 L 107.226562 45.792969 L 107.273438 45.933594 L 107.316406 46.082031 L 107.410156 46.371094 L 107.453125 46.519531 L 107.5 46.667969 L 107.585938 46.964844 L 107.632812 47.117188 L 107.71875 47.421875 L 107.765625 47.574219 L 107.808594 47.726562 L 107.9375 48.195312 L 107.984375 48.351562 L 108.15625 48.992188 L 108.195312 49.15625 L 108.238281 49.316406 L 108.28125 49.480469 L 108.324219 49.648438 L 108.367188 49.8125 L 108.410156 49.980469 L 108.449219 50.148438 L 108.492188 50.316406 L 108.53125 50.488281 L 108.574219 50.65625 L 108.613281 50.828125 L 108.65625 51.003906 L 108.695312 51.175781 L 108.738281 51.351562 L 108.816406 51.703125 L 108.859375 51.882812 L 108.898438 52.058594 L 108.9375 52.238281 L 108.976562 52.421875 L 109.015625 52.601562 L 109.09375 52.96875 L 109.132812 53.15625 L 109.171875 53.339844 L 109.207031 53.527344 L 109.246094 53.71875 L 109.285156 53.90625 L 109.320312 54.097656 L 109.359375 54.289062 L 109.394531 54.480469 L 109.433594 54.675781 L 109.503906 55.066406 L 109.542969 55.265625 L 109.648438 55.863281 L 109.753906 56.472656 L 109.789062 56.679688 L 109.820312 56.886719 L 109.855469 57.09375 L 109.886719 57.304688 L 109.921875 57.515625 L 109.953125 57.726562 L 109.988281 57.941406 L 110.050781 58.371094 L 110.144531 59.027344 L 110.207031 59.472656 "/>
</g>
</svg>
