<?xml version="1.0" encoding="UTF-8"?>
<svg xmlns="http://www.w3.org/2000/svg" xmlns:xlink="http://www.w3.org/1999/xlink" width="200pt" height="200pt" viewBox="0 0 200 200" version="1.1">
<g id="id1">
<path style="fill:none;stroke-width:2;stroke-linecap:butt;stroke-linejoin:miter;stroke:rgb(36.8417%,50.6779%,70.9798%);stroke-opacity:1;stroke-miterlimit:10;" d="M 100 50 L 98 50.65625 L 96.175781 51.542969 L 94.507812 52.609375 L 92.976562 53.820312 L 91.574219 55.152344 L 90.296875 56.578125 L 89.132812 58.082031 L 88.074219 59.648438 L 87.121094 61.265625 L 86.257812 62.925781 L 85.492188 64.617188 L 84.808594 66.335938 L 84.210938 68.074219 L 83.691406 69.828125 L 83.25 71.597656 L 82.882812 73.378906 L 82.59375 75.164062 L 82.375 76.957031 L 82.226562 78.753906 L 82.152344 80.550781 L 82.152344 82.347656 L 82.226562 84.144531 L 82.378906 85.933594 L 82.609375 87.714844 L 82.925781 89.488281 L 83.316406 91.207031 L 83.777344 92.84375 L 84.238281 94.210938 L 84.742188 95.507812 L 85.28125 96.710938 L 85.839844 97.820312 L 86.351562 98.722656 L 86.878906 99.5625 L 87.414062 100.332031 L 87.949219 101.035156 L 88.480469 101.671875 L 89.003906 102.246094 L 89.519531 102.761719 L 90.027344 103.226562 L 90.523438 103.644531 L 91.003906 104.019531 L 91.480469 104.355469 L 91.941406 104.65625 L 92.390625 104.925781 L 92.832031 105.167969 L 93.265625 105.386719 L 93.691406 105.582031 L 94.113281 105.757812 L 94.527344 105.914062 L 94.9375 106.054688 L 95.34375 106.179688 L 95.75 106.289062 L 96.15625 106.386719 L 96.558594 106.46875 L 96.964844 106.542969 L 97.371094 106.601562 L 97.777344 106.652344 L 98.191406 106.691406 L 98.605469 106.71875 L 99.027344 106.734375 L 99.453125 106.742188 L 99.886719 106.738281 L 100.328125 106.722656 L 100.777344 106.699219 L 101.234375 106.664062 L 101.703125 106.617188 L 102.183594 106.558594 L 102.675781 106.492188 L 103.179688 106.410156 L 103.703125 106.320312 L 104.238281 106.21875 L 104.792969 106.101562 L 105.367188 105.976562 L 105.964844 105.839844 L 106.582031 105.691406 L 107.222656 105.53125 L 107.894531 105.359375 L 108.589844 105.183594 L 109.320312 105 L 110.082031 104.8125 L 110.878906 104.621094 L 111.710938 104.4375 L 112.578125 104.265625 L 113.460938 104.113281 L 114.335938 103.996094 L 115.191406 103.914062 L 116.015625 103.878906 L 116.792969 103.890625 L 117.523438 103.945312 L 118.203125 104.042969 L 118.824219 104.1875 L 119.386719 104.363281 L 119.886719 104.570312 L 120.324219 104.804688 L 120.703125 105.054688 L 121.023438 105.320312 L 121.289062 105.589844 L 121.511719 105.863281 L 121.6875 106.136719 L 121.828125 106.40625 L 121.929688 106.671875 L 122.003906 106.929688 L 122.050781 107.183594 L 122.070312 107.425781 L 122.070312 107.660156 L 122.050781 107.886719 L 122.011719 108.105469 L 121.960938 108.3125 L 121.890625 108.511719 L 121.808594 108.707031 L 121.714844 108.886719 L 121.609375 109.0625 L 121.492188 109.230469 L 121.363281 109.390625 L 121.226562 109.542969 L 121.078125 109.6875 L 120.917969 109.824219 L 120.75 109.953125 L 120.574219 110.074219 L 120.386719 110.1875 L 120.1875 110.292969 L 119.980469 110.390625 L 119.761719 110.480469 L 119.535156 110.558594 L 119.296875 110.628906 L 119.046875 110.691406 L 118.789062 110.742188 L 118.515625 110.785156 L 118.230469 110.8125 L 117.933594 110.832031 L 117.625 110.839844 L 117.296875 110.832031 L 116.957031 110.808594 L 116.605469 110.769531 L 116.238281 110.714844 L 115.855469 110.644531 L 115.457031 110.554688 L 115.042969 110.449219 L 114.617188 110.316406 L 114.171875 110.167969 L 113.707031 109.996094 L 113.226562 109.796875 L 112.726562 109.574219 L 112.203125 109.324219 L 111.65625 109.046875 L 111.085938 108.738281 L 110.488281 108.398438 L 109.859375 108.023438 L 109.195312 107.617188 L 108.492188 107.171875 L 107.742188 106.691406 L 106.945312 106.171875 L 106.105469 105.628906 L 105.246094 105.078125 L 104.375 104.535156 L 103.5 104.007812 L 102.625 103.507812 L 101.757812 103.035156 L 100.890625 102.589844 L 100.027344 102.179688 L 99.164062 101.800781 L 98.300781 101.449219 L 97.433594 101.125 L 96.558594 100.832031 L 95.675781 100.5625 L 94.777344 100.320312 L 93.863281 100.105469 L 92.925781 99.914062 L 91.964844 99.746094 L 90.976562 99.609375 L 89.957031 99.496094 L 88.902344 99.414062 L 87.804688 99.363281 L 86.667969 99.34375 L 85.480469 99.363281 L 84.253906 99.417969 L 82.992188 99.515625 L 81.714844 99.65625 L 80.421875 99.835938 L 79.125 100.054688 L 77.824219 100.316406 L 76.527344 100.613281 L 75.230469 100.949219 L 73.941406 101.320312 L 72.664062 101.730469 L 71.394531 102.171875 L 70.136719 102.648438 L 68.886719 103.15625 L 67.65625 103.699219 L 66.4375 104.273438 L 65.238281 104.878906 L 64.054688 105.515625 L 62.886719 106.183594 L 61.742188 106.882812 L 60.617188 107.613281 L 59.515625 108.375 L 58.4375 109.167969 L 57.386719 109.988281 L 56.363281 110.84375 L 55.371094 111.726562 L 54.414062 112.644531 L 53.492188 113.589844 L 52.605469 114.566406 L 51.765625 115.578125 L 50.972656 116.617188 L 50.230469 117.691406 L 49.542969 118.796875 L 48.921875 119.933594 L 48.371094 121.097656 L 47.898438 122.292969 L 47.515625 123.515625 L 47.234375 124.765625 L 47.070312 126.007812 L 47.027344 127.226562 L 47.105469 128.390625 L 47.300781 129.492188 L 47.605469 130.519531 L 48 131.460938 L 48.46875 132.316406 L 49 133.082031 L 49.574219 133.761719 L 50.179688 134.359375 L 50.800781 134.878906 L 51.421875 135.332031 L 52.039062 135.71875 L 52.640625 136.046875 L 53.21875 136.328125 L 53.769531 136.566406 L 54.292969 136.765625 L 54.785156 136.933594 L 55.25 137.074219 L 55.691406 137.195312 L 56.105469 137.300781 L 56.496094 137.386719 L 56.867188 137.460938 L 57.21875 137.527344 L 57.554688 137.582031 L 57.875 137.628906 L 58.183594 137.671875 L 58.484375 137.707031 L 58.773438 137.738281 L 59.050781 137.765625 L 59.328125 137.789062 L 59.859375 137.828125 L 60.121094 137.839844 L 60.636719 137.863281 L 60.890625 137.871094 L 61.144531 137.875 L 61.402344 137.878906 L 61.917969 137.878906 L 62.449219 137.871094 L 62.71875 137.863281 L 62.996094 137.855469 L 63.277344 137.84375 L 63.566406 137.832031 L 63.859375 137.816406 L 64.164062 137.800781 L 64.480469 137.777344 L 64.804688 137.753906 L 65.140625 137.726562 L 65.488281 137.699219 L 65.851562 137.664062 L 66.230469 137.625 L 66.628906 137.582031 L 67.042969 137.535156 L 67.476562 137.484375 L 67.9375 137.421875 L 68.417969 137.355469 L 68.929688 137.285156 L 69.46875 137.199219 L 70.039062 137.109375 L 70.648438 137.003906 L 71.292969 136.886719 L 71.984375 136.757812 L 72.722656 136.609375 L 73.511719 136.445312 L 74.355469 136.257812 L 75.257812 136.046875 L 76.222656 135.8125 L 77.253906 135.542969 L 78.359375 135.242188 L 79.539062 134.902344 L 80.796875 134.519531 L 82.136719 134.085938 L 83.535156 133.609375 L 84.980469 133.082031 L 86.457031 132.511719 L 87.953125 131.894531 L 89.464844 131.234375 L 90.976562 130.53125 L 92.488281 129.78125 L 93.992188 128.984375 L 95.480469 128.140625 L 96.949219 127.253906 L 98.390625 126.316406 L 99.804688 125.332031 L 101.183594 124.296875 L 102.523438 123.21875 L 103.804688 122.109375 L 105.019531 120.988281 L 106.164062 119.855469 L 107.246094 118.71875 L 108.28125 117.578125 L 109.277344 116.429688 L 110.257812 115.265625 L 111.203125 114.125 L 112.101562 113.042969 L 112.855469 112.152344 L 113.574219 111.320312 L 114.179688 110.648438 L 114.757812 110.027344 L 115.25 109.523438 L 115.726562 109.0625 L 116.179688 108.644531 L 116.5625 108.3125 L 116.929688 108.011719 L 117.28125 107.738281 L 117.613281 107.5 L 117.925781 107.285156 L 118.21875 107.101562 L 118.496094 106.941406 L 118.75 106.800781 L 118.992188 106.679688 L 119.214844 106.578125 L 119.425781 106.488281 L 119.625 106.410156 L 119.808594 106.347656 L 119.984375 106.289062 L 120.148438 106.242188 L 120.308594 106.203125 L 120.457031 106.171875 L 120.597656 106.144531 L 120.734375 106.121094 L 120.867188 106.101562 L 120.992188 106.089844 L 121.113281 106.082031 L 121.230469 106.074219 L 121.339844 106.070312 L 121.449219 106.070312 L 121.558594 106.074219 L 121.761719 106.089844 L 121.859375 106.097656 L 121.953125 106.109375 L 122.046875 106.125 L 122.136719 106.140625 L 122.316406 106.179688 L 122.402344 106.203125 L 122.484375 106.226562 L 122.570312 106.253906 L 122.652344 106.28125 L 122.734375 106.3125 L 122.8125 106.34375 L 122.894531 106.375 L 122.972656 106.410156 L 123.046875 106.445312 L 123.203125 106.523438 L 123.351562 106.609375 L 123.425781 106.65625 L 123.5 106.707031 L 123.574219 106.753906 L 123.644531 106.808594 L 123.71875 106.863281 L 123.789062 106.917969 L 123.863281 106.976562 L 124.003906 107.101562 L 124.074219 107.167969 L 124.214844 107.308594 L 124.285156 107.382812 L 124.355469 107.460938 L 124.421875 107.542969 L 124.5625 107.714844 L 124.628906 107.804688 L 124.761719 108 L 124.828125 108.101562 L 124.960938 108.320312 L 125.023438 108.4375 L 125.089844 108.558594 L 125.152344 108.683594 L 125.210938 108.8125 L 125.273438 108.949219 L 125.332031 109.09375 L 125.386719 109.242188 L 125.441406 109.394531 L 125.492188 109.554688 L 125.542969 109.722656 L 125.589844 109.894531 L 125.632812 110.078125 L 125.675781 110.265625 L 125.710938 110.460938 L 125.742188 110.664062 L 125.765625 110.875 L 125.785156 111.09375 L 125.796875 111.324219 L 125.800781 111.558594 L 125.792969 111.800781 L 125.777344 112.050781 L 125.75 112.308594 L 125.707031 112.574219 L 125.648438 112.847656 L 125.570312 113.125 L 125.472656 113.40625 L 125.351562 113.6875 L 125.203125 113.972656 L 125.027344 114.257812 L 124.8125 114.539062 L 124.558594 114.808594 L 124.257812 115.070312 L 123.910156 115.3125 L 123.507812 115.535156 L 123.039062 115.734375 L 122.5 115.902344 L 121.875 116.035156 L 121.160156 116.125 L 120.332031 116.171875 L 119.398438 116.171875 L 118.367188 116.121094 L 117.25 116.03125 L 116.0625 115.910156 L 114.824219 115.769531 L 113.550781 115.628906 L 112.265625 115.496094 L 110.988281 115.386719 L 109.734375 115.308594 L 108.660156 115.265625 L 107.609375 115.257812 L 106.597656 115.28125 L 105.738281 115.332031 L 104.90625 115.40625 L 104.117188 115.503906 L 103.367188 115.625 L 102.667969 115.765625 L 102.019531 115.921875 L 101.414062 116.089844 L 100.859375 116.269531 L 100.347656 116.453125 L 99.875 116.644531 L 99.441406 116.839844 L 99.042969 117.039062 L 98.675781 117.238281 L 98.335938 117.4375 L 98.023438 117.636719 L 97.730469 117.835938 L 97.460938 118.035156 L 97.210938 118.230469 L 96.976562 118.429688 L 96.757812 118.625 L 96.554688 118.820312 L 96.363281 119.015625 L 96.183594 119.207031 L 96.011719 119.402344 L 95.855469 119.59375 L 95.703125 119.789062 L 95.5625 119.980469 L 95.429688 120.175781 L 95.304688 120.367188 L 95.1875 120.5625 L 95.078125 120.757812 L 94.972656 120.953125 L 94.875 121.148438 L 94.78125 121.347656 L 94.695312 121.546875 L 94.617188 121.746094 L 94.542969 121.949219 L 94.472656 122.152344 L 94.40625 122.355469 L 94.347656 122.566406 L 94.296875 122.773438 L 94.246094 122.984375 L 94.203125 123.199219 L 94.164062 123.414062 L 94.132812 123.636719 L 94.105469 123.855469 L 94.082031 124.082031 L 94.0625 124.308594 L 94.050781 124.542969 L 94.046875 124.777344 L 94.042969 125.015625 L 94.050781 125.257812 L 94.0625 125.507812 L 94.078125 125.757812 L 94.105469 126.015625 L 94.132812 126.277344 L 94.171875 126.542969 L 94.21875 126.8125 L 94.269531 127.089844 L 94.332031 127.371094 L 94.402344 127.660156 L 94.480469 127.953125 L 94.566406 128.253906 L 94.664062 128.5625 L 94.773438 128.875 L 94.890625 129.195312 L 95.023438 129.523438 L 95.164062 129.859375 L 95.320312 130.199219 L 95.488281 130.550781 L 95.671875 130.910156 L 95.867188 131.273438 L 96.082031 131.648438 L 96.3125 132.03125 L 96.5625 132.421875 L 96.832031 132.820312 L 97.117188 133.226562 L 97.425781 133.640625 L 97.757812 134.0625 L 98.113281 134.492188 L 98.492188 134.929688 L 98.898438 135.375 L 99.328125 135.824219 L 99.789062 136.277344 L 100.28125 136.734375 L 100.800781 137.195312 L 101.355469 137.660156 L 101.941406 138.121094 L 102.5625 138.582031 L 103.21875 139.039062 L 103.910156 139.488281 L 104.636719 139.929688 L 105.398438 140.359375 L 106.195312 140.769531 L 107.027344 141.160156 L 107.890625 141.523438 L 108.785156 141.859375 L 109.707031 142.160156 L 110.652344 142.421875 L 111.617188 142.632812 L 112.59375 142.789062 L 113.578125 142.890625 L 114.558594 142.921875 L 115.527344 142.878906 L 116.476562 142.761719 L 117.386719 142.554688 L 118.25 142.261719 L 119.050781 141.875 L 119.777344 141.394531 L 120.410156 140.816406 L 120.933594 140.144531 L 121.339844 139.386719 L 121.609375 138.542969 L 121.734375 137.628906 L 121.703125 136.65625 L 121.511719 135.640625 "/>
<path style="fill:none;stroke-width:2;stroke-linecap:butt;stroke-linejoin:miter;stroke:rgb(88.0722%,61.1041%,14.2051%);stroke-opacity:1;stroke-miterlimit:10;" d="M 100 150 L 101.25 149.921875 L 102.394531 149.710938 L 103.445312 149.398438 L 104.417969 149.003906 L 105.316406 148.539062 L 106.148438 148.027344 L 106.921875 147.472656 L 107.636719 146.882812 L 108.296875 146.269531 L 108.914062 145.640625 L 109.484375 144.992188 L 110.011719 144.335938 L 110.503906 143.671875 L 110.960938 143.003906 L 111.382812 142.332031 L 111.773438 141.664062 L 112.140625 140.992188 L 112.476562 140.328125 L 112.789062 139.667969 L 113.078125 139.015625 L 113.34375 138.367188 L 113.589844 137.726562 L 113.8125 137.097656 L 114.019531 136.476562 L 114.210938 135.867188 L 114.378906 135.28125 L 114.527344 134.730469 L 114.644531 134.269531 L 114.746094 133.839844 L 114.832031 133.4375 L 114.910156 133.066406 L 114.96875 132.761719 L 115.023438 132.476562 L 115.070312 132.210938 L 115.113281 131.964844 L 115.148438 131.734375 L 115.179688 131.523438 L 115.207031 131.324219 L 115.234375 131.140625 L 115.257812 130.96875 L 115.277344 130.808594 L 115.296875 130.65625 L 115.3125 130.507812 L 115.328125 130.371094 L 115.34375 130.238281 L 115.355469 130.109375 L 115.378906 129.867188 L 115.386719 129.746094 L 115.398438 129.628906 L 115.40625 129.515625 L 115.414062 129.398438 L 115.421875 129.285156 L 115.429688 129.167969 L 115.4375 129.054688 L 115.445312 128.9375 L 115.449219 128.816406 L 115.457031 128.695312 L 115.460938 128.570312 L 115.464844 128.441406 L 115.46875 128.308594 L 115.472656 128.171875 L 115.476562 128.03125 L 115.480469 127.886719 L 115.480469 127.730469 L 115.484375 127.570312 L 115.484375 127.398438 L 115.480469 127.222656 L 115.480469 127.03125 L 115.476562 126.832031 L 115.472656 126.617188 L 115.464844 126.386719 L 115.453125 126.140625 L 115.441406 125.878906 L 115.425781 125.59375 L 115.40625 125.285156 L 115.382812 124.949219 L 115.355469 124.582031 L 115.316406 124.179688 L 115.277344 123.742188 L 115.226562 123.261719 L 115.164062 122.726562 L 115.09375 122.140625 L 115.011719 121.503906 L 114.921875 120.832031 L 114.828125 120.132812 L 114.726562 119.417969 L 114.625 118.691406 L 114.523438 117.957031 L 114.425781 117.222656 L 114.332031 116.496094 L 114.246094 115.78125 L 114.167969 115.089844 L 114.101562 114.417969 L 114.046875 113.777344 L 114.003906 113.167969 L 113.972656 112.585938 L 113.953125 112.035156 L 113.941406 111.515625 L 113.941406 111.023438 L 113.953125 110.554688 L 113.96875 110.113281 L 113.996094 109.695312 L 114.03125 109.292969 L 114.070312 108.914062 L 114.113281 108.550781 L 114.164062 108.203125 L 114.222656 107.871094 L 114.28125 107.550781 L 114.347656 107.238281 L 114.417969 106.941406 L 114.492188 106.648438 L 114.570312 106.367188 L 114.652344 106.09375 L 114.738281 105.824219 L 114.828125 105.5625 L 114.917969 105.304688 L 115.015625 105.050781 L 115.117188 104.800781 L 115.222656 104.558594 L 115.332031 104.3125 L 115.445312 104.074219 L 115.5625 103.835938 L 115.683594 103.601562 L 115.808594 103.363281 L 115.9375 103.132812 L 116.210938 102.664062 L 116.355469 102.429688 L 116.503906 102.195312 L 116.660156 101.960938 L 116.820312 101.722656 L 116.984375 101.484375 L 117.15625 101.246094 L 117.332031 101.003906 L 117.511719 100.761719 L 117.695312 100.519531 L 117.886719 100.277344 L 118.078125 100.03125 L 118.277344 99.78125 L 118.480469 99.53125 L 118.894531 99.023438 L 119.109375 98.761719 L 119.328125 98.5 L 119.550781 98.230469 L 119.777344 97.957031 L 120.003906 97.679688 L 120.234375 97.390625 L 120.46875 97.097656 L 120.703125 96.792969 L 120.941406 96.480469 L 121.175781 96.164062 L 121.398438 95.851562 L 121.613281 95.546875 L 121.808594 95.25 L 121.992188 94.960938 L 122.164062 94.6875 L 122.320312 94.417969 L 122.46875 94.15625 L 122.609375 93.902344 L 122.738281 93.652344 L 122.863281 93.402344 L 122.980469 93.15625 L 123.097656 92.90625 L 123.207031 92.65625 L 123.3125 92.402344 L 123.414062 92.144531 L 123.515625 91.878906 L 123.613281 91.601562 L 123.710938 91.316406 L 123.800781 91.019531 L 123.890625 90.710938 L 123.980469 90.382812 L 124.0625 90.039062 L 124.144531 89.679688 L 124.214844 89.304688 L 124.28125 88.914062 L 124.335938 88.519531 L 124.378906 88.113281 L 124.410156 87.699219 L 124.433594 87.28125 L 124.4375 86.855469 L 124.433594 86.425781 L 124.410156 85.992188 L 124.371094 85.558594 L 124.320312 85.121094 L 124.246094 84.683594 L 124.15625 84.242188 L 124.046875 83.804688 L 123.914062 83.367188 L 123.757812 82.933594 L 123.582031 82.507812 L 123.378906 82.082031 L 123.152344 81.664062 L 122.894531 81.257812 L 122.609375 80.859375 L 122.289062 80.472656 L 121.9375 80.105469 L 121.550781 79.753906 L 121.125 79.421875 L 120.660156 79.117188 L 120.148438 78.839844 L 119.59375 78.59375 L 118.988281 78.390625 L 118.328125 78.230469 L 117.609375 78.125 L 116.828125 78.078125 L 115.984375 78.105469 L 115.066406 78.21875 L 114.074219 78.433594 L 113 78.765625 L 111.863281 79.230469 L 110.6875 79.832031 L 109.496094 80.570312 L 108.304688 81.441406 L 107.136719 82.4375 L 106.007812 83.542969 L 104.941406 84.746094 L 103.949219 86.023438 L 103.039062 87.359375 L 102.222656 88.734375 L 101.5 90.128906 L 100.882812 91.523438 L 100.363281 92.898438 L 99.9375 94.242188 L 99.609375 95.535156 L 99.359375 96.773438 L 99.1875 97.949219 L 99.085938 99.058594 L 99.039062 100.105469 L 99.042969 101.085938 L 99.085938 102.003906 L 99.171875 102.867188 L 99.285156 103.679688 L 99.425781 104.4375 L 99.589844 105.152344 L 99.777344 105.824219 L 99.976562 106.460938 L 100.195312 107.0625 L 100.425781 107.628906 L 100.667969 108.167969 L 100.921875 108.683594 L 101.1875 109.167969 L 101.464844 109.636719 L 101.75 110.078125 L 102.042969 110.503906 L 102.34375 110.910156 L 102.652344 111.300781 L 102.972656 111.671875 L 103.300781 112.03125 L 103.636719 112.375 L 103.980469 112.703125 L 104.332031 113.023438 L 104.691406 113.324219 L 105.0625 113.617188 L 105.441406 113.894531 L 105.828125 114.164062 L 106.226562 114.417969 L 106.632812 114.664062 L 107.046875 114.894531 L 107.472656 115.117188 L 107.910156 115.328125 L 108.355469 115.523438 L 108.8125 115.710938 L 109.277344 115.882812 L 109.757812 116.042969 L 110.25 116.191406 L 110.75 116.328125 L 111.261719 116.445312 L 111.789062 116.554688 L 112.324219 116.644531 L 112.875 116.71875 L 113.433594 116.777344 L 114.003906 116.816406 L 114.589844 116.839844 L 115.183594 116.84375 L 115.785156 116.824219 L 116.398438 116.785156 L 117.019531 116.722656 L 117.648438 116.636719 L 118.277344 116.527344 L 118.902344 116.390625 L 119.527344 116.230469 L 120.144531 116.042969 L 120.753906 115.832031 L 121.34375 115.59375 L 121.917969 115.332031 L 122.453125 115.054688 L 122.953125 114.761719 L 123.40625 114.460938 L 123.8125 114.160156 L 124.171875 113.859375 L 124.484375 113.5625 L 124.753906 113.269531 L 124.980469 112.988281 L 125.167969 112.714844 L 125.320312 112.453125 L 125.4375 112.199219 L 125.519531 111.960938 L 125.570312 111.734375 L 125.59375 111.523438 L 125.589844 111.324219 L 125.558594 111.144531 L 125.503906 110.976562 L 125.425781 110.828125 L 125.324219 110.6875 L 125.203125 110.5625 L 125.050781 110.445312 L 124.878906 110.34375 L 124.683594 110.253906 L 124.5 110.1875 L 124.304688 110.128906 L 124.128906 110.085938 L 123.949219 110.046875 L 123.785156 110.011719 L 123.625 109.984375 L 123.464844 109.953125 L 123.324219 109.929688 L 123.050781 109.875 L 122.921875 109.851562 L 122.796875 109.824219 L 122.679688 109.796875 L 122.566406 109.769531 L 122.460938 109.742188 L 122.363281 109.714844 L 122.269531 109.6875 L 122.179688 109.65625 L 122.097656 109.628906 L 122.015625 109.597656 L 121.941406 109.570312 L 121.871094 109.539062 L 121.800781 109.511719 L 121.675781 109.449219 L 121.558594 109.386719 L 121.503906 109.355469 L 121.453125 109.324219 L 121.398438 109.292969 L 121.351562 109.257812 L 121.304688 109.226562 L 121.257812 109.191406 L 121.210938 109.160156 L 121.082031 109.054688 L 121.042969 109.015625 L 121 108.980469 L 120.960938 108.941406 L 120.921875 108.90625 L 120.886719 108.867188 L 120.847656 108.828125 L 120.8125 108.785156 L 120.777344 108.746094 L 120.707031 108.660156 L 120.636719 108.566406 L 120.605469 108.519531 L 120.570312 108.472656 L 120.539062 108.425781 L 120.507812 108.375 L 120.472656 108.320312 L 120.378906 108.15625 L 120.351562 108.097656 L 120.289062 107.972656 L 120.261719 107.90625 L 120.230469 107.839844 L 120.203125 107.769531 L 120.171875 107.699219 L 120.144531 107.625 L 120.117188 107.546875 L 120.0625 107.382812 L 120.035156 107.296875 L 120.007812 107.203125 L 119.984375 107.109375 L 119.957031 107.011719 L 119.933594 106.90625 L 119.90625 106.800781 L 119.882812 106.6875 L 119.859375 106.570312 L 119.839844 106.445312 L 119.816406 106.316406 L 119.796875 106.179688 L 119.777344 106.039062 L 119.757812 105.886719 L 119.742188 105.730469 L 119.726562 105.5625 L 119.710938 105.386719 L 119.699219 105.203125 L 119.6875 105.007812 L 119.675781 104.800781 L 119.667969 104.578125 L 119.664062 104.347656 L 119.660156 104.101562 L 119.660156 103.839844 L 119.664062 103.5625 L 119.667969 103.265625 L 119.675781 102.953125 L 119.691406 102.617188 L 119.707031 102.261719 L 119.730469 101.882812 L 119.753906 101.476562 L 119.785156 101.042969 L 119.824219 100.582031 L 119.867188 100.085938 L 119.914062 99.554688 L 119.96875 98.992188 L 120.03125 98.386719 L 120.101562 97.738281 L 120.179688 97.046875 L 120.261719 96.308594 L 120.355469 95.527344 L 120.449219 94.695312 L 120.554688 93.820312 L 120.664062 92.898438 L 120.777344 91.929688 L 120.894531 90.914062 L 121.015625 89.851562 L 121.136719 88.742188 L 121.261719 87.589844 L 121.378906 86.417969 L 121.488281 85.25 L 121.589844 84.117188 L 121.675781 83.03125 L 121.753906 82.011719 L 121.816406 81.066406 L 121.867188 80.203125 L 121.90625 79.421875 L 121.9375 78.722656 L 121.957031 78.171875 L 121.972656 77.667969 L 121.984375 77.214844 L 121.992188 76.855469 L 122 76.523438 L 122.003906 76.222656 L 122.007812 75.953125 L 122.007812 75.710938 L 122.011719 75.492188 L 122.011719 74.691406 L 122.007812 74.574219 L 122.007812 74.191406 L 122.003906 74.109375 L 122.003906 73.898438 L 122 73.835938 L 122 73.664062 L 121.996094 73.609375 L 121.996094 73.457031 L 121.992188 73.410156 L 121.992188 73.269531 L 121.988281 73.226562 L 121.988281 73.09375 L 121.984375 73.046875 L 121.984375 72.914062 L 121.980469 72.871094 L 121.980469 72.78125 L 121.976562 72.734375 L 121.976562 72.640625 L 121.972656 72.59375 L 121.972656 72.496094 L 121.96875 72.445312 L 121.96875 72.394531 L 121.964844 72.339844 L 121.964844 72.285156 L 121.960938 72.230469 L 121.960938 72.171875 L 121.957031 72.113281 L 121.957031 72.050781 L 121.953125 71.988281 L 121.953125 71.921875 L 121.949219 71.855469 L 121.945312 71.785156 L 121.945312 71.710938 L 121.9375 71.554688 L 121.933594 71.472656 L 121.925781 71.292969 L 121.917969 71.097656 L 121.914062 70.992188 L 121.910156 70.878906 L 121.902344 70.761719 L 121.898438 70.640625 L 121.890625 70.511719 L 121.882812 70.371094 L 121.878906 70.226562 L 121.867188 70.074219 L 121.859375 69.910156 L 121.851562 69.738281 L 121.839844 69.554688 L 121.828125 69.359375 L 121.816406 69.152344 L 121.800781 68.933594 L 121.785156 68.699219 L 121.769531 68.449219 L 121.75 68.183594 L 121.730469 67.902344 L 121.710938 67.601562 L 121.683594 67.28125 L 121.65625 66.941406 L 121.628906 66.578125 L 121.59375 66.191406 L 121.558594 65.78125 L 121.515625 65.347656 L 121.472656 64.882812 L 121.421875 64.394531 L 121.371094 63.875 L 121.308594 63.328125 L 121.246094 62.75 L 121.171875 62.140625 L 121.09375 61.5 L 121.007812 60.832031 L 120.914062 60.132812 L 120.8125 59.40625 L 120.707031 58.652344 L 120.589844 57.878906 L 120.460938 57.078125 L 120.328125 56.261719 L 120.1875 55.429688 L 120.039062 54.589844 L 119.886719 53.746094 L 119.726562 52.898438 L 119.558594 52.058594 L 119.390625 51.234375 L 119.222656 50.425781 L 119.050781 49.640625 "/>
<path style="fill:none;stroke-width:2;stroke-linecap:butt;stroke-linejoin:miter;stroke:rgb(56.0181%,69.1569%,19.4885%);stroke-opacity:1;stroke-miterlimit:10;" d="M 100 100 L 99.992188 99.992188 L 99.988281 99.984375 L 99.980469 99.972656 L 99.957031 99.941406 L 99.9375 99.921875 L 99.898438 99.867188 L 99.871094 99.835938 L 99.839844 99.800781 L 99.804688 99.757812 L 99.765625 99.714844 L 99.71875 99.667969 L 99.671875 99.613281 L 99.554688 99.496094 L 99.484375 99.429688 L 99.410156 99.363281 L 99.328125 99.289062 L 99.234375 99.210938 L 99.132812 99.128906 L 99.019531 99.046875 L 98.898438 98.960938 L 98.769531 98.875 L 98.648438 98.804688 L 98.523438 98.734375 L 98.394531 98.667969 L 98.265625 98.609375 L 98.152344 98.5625 L 98.035156 98.519531 L 97.917969 98.480469 L 97.804688 98.445312 L 97.691406 98.417969 L 97.582031 98.394531 L 97.472656 98.378906 L 97.367188 98.367188 L 97.265625 98.355469 L 97.167969 98.351562 L 97.070312 98.351562 L 96.882812 98.359375 L 96.792969 98.367188 L 96.707031 98.378906 L 96.621094 98.394531 L 96.535156 98.414062 L 96.371094 98.453125 L 96.207031 98.507812 L 96.128906 98.539062 L 96.046875 98.570312 L 95.96875 98.605469 L 95.886719 98.644531 L 95.804688 98.6875 L 95.726562 98.730469 L 95.644531 98.777344 L 95.480469 98.886719 L 95.394531 98.945312 L 95.308594 99.007812 L 95.222656 99.078125 L 95.136719 99.152344 L 95.046875 99.230469 L 94.953125 99.3125 L 94.765625 99.5 L 94.667969 99.605469 L 94.570312 99.71875 L 94.46875 99.835938 L 94.363281 99.96875 L 94.257812 100.109375 L 94.148438 100.257812 L 94.035156 100.421875 L 93.917969 100.601562 L 93.800781 100.789062 L 93.675781 100.996094 L 93.550781 101.222656 L 93.425781 101.464844 L 93.292969 101.726562 L 93.164062 102.007812 L 93.03125 102.304688 L 92.90625 102.609375 L 92.785156 102.921875 L 92.675781 103.226562 L 92.574219 103.53125 L 92.480469 103.824219 L 92.398438 104.109375 L 92.324219 104.386719 L 92.257812 104.648438 L 92.199219 104.894531 L 92.144531 105.125 L 92.101562 105.339844 L 92.0625 105.539062 L 92.03125 105.726562 L 92 105.898438 L 91.976562 106.058594 L 91.953125 106.207031 L 91.9375 106.347656 L 91.917969 106.480469 L 91.90625 106.601562 L 91.894531 106.71875 L 91.882812 106.828125 L 91.871094 106.929688 L 91.863281 107.03125 L 91.847656 107.21875 L 91.84375 107.308594 L 91.835938 107.394531 L 91.832031 107.480469 L 91.824219 107.644531 L 91.820312 107.722656 L 91.816406 107.804688 L 91.816406 107.882812 L 91.8125 107.960938 L 91.8125 108.117188 L 91.808594 108.199219 L 91.808594 108.359375 L 91.8125 108.441406 L 91.8125 108.609375 L 91.816406 108.695312 L 91.816406 108.785156 L 91.820312 108.875 L 91.824219 108.96875 L 91.828125 109.066406 L 91.832031 109.167969 L 91.847656 109.378906 L 91.863281 109.605469 L 91.875 109.726562 L 91.886719 109.851562 L 91.902344 109.980469 L 91.917969 110.117188 L 91.933594 110.257812 L 91.953125 110.402344 L 91.976562 110.558594 L 92.003906 110.71875 L 92.03125 110.886719 L 92.066406 111.0625 L 92.101562 111.25 L 92.144531 111.445312 L 92.195312 111.648438 L 92.25 111.863281 L 92.316406 112.09375 L 92.390625 112.332031 L 92.476562 112.578125 L 92.570312 112.824219 L 92.671875 113.066406 L 92.777344 113.300781 L 92.890625 113.527344 L 93.007812 113.746094 L 93.128906 113.949219 L 93.253906 114.148438 L 93.378906 114.335938 L 93.511719 114.515625 L 93.644531 114.691406 L 93.78125 114.859375 L 93.925781 115.023438 L 94.070312 115.183594 L 94.222656 115.339844 L 94.378906 115.492188 L 94.542969 115.644531 L 94.714844 115.792969 L 94.894531 115.945312 L 95.082031 116.09375 L 95.277344 116.242188 L 95.488281 116.390625 L 95.707031 116.542969 L 95.941406 116.695312 L 96.179688 116.84375 L 96.429688 116.992188 L 96.6875 117.132812 L 96.953125 117.273438 L 97.222656 117.410156 L 97.496094 117.539062 L 97.777344 117.667969 L 98.0625 117.789062 L 98.351562 117.90625 L 98.648438 118.019531 L 98.949219 118.125 L 99.253906 118.230469 L 99.566406 118.324219 L 99.886719 118.417969 L 100.210938 118.5 L 100.539062 118.578125 L 100.878906 118.652344 L 101.222656 118.714844 L 101.574219 118.773438 L 101.9375 118.820312 L 102.304688 118.859375 L 102.683594 118.890625 L 103.066406 118.910156 L 103.464844 118.914062 L 103.871094 118.910156 L 104.289062 118.890625 L 104.71875 118.851562 L 105.15625 118.796875 L 105.609375 118.722656 L 106.078125 118.628906 L 106.558594 118.503906 L 107.054688 118.355469 L 107.566406 118.171875 L 108.089844 117.953125 L 108.632812 117.691406 L 109.1875 117.378906 L 109.75 117.015625 L 110.300781 116.609375 L 110.835938 116.152344 L 111.347656 115.65625 L 111.824219 115.121094 L 112.261719 114.558594 L 112.660156 113.972656 L 113.011719 113.371094 L 113.320312 112.757812 L 113.578125 112.144531 L 113.792969 111.53125 L 113.960938 110.929688 L 114.089844 110.34375 L 114.175781 109.78125 L 114.230469 109.242188 L 114.25 108.730469 L 114.242188 108.25 L 114.210938 107.796875 L 114.164062 107.375 L 114.09375 106.980469 L 114.015625 106.613281 L 113.921875 106.269531 L 113.816406 105.945312 L 113.707031 105.644531 L 113.589844 105.363281 L 113.464844 105.097656 L 113.335938 104.851562 L 113.203125 104.613281 L 113.0625 104.394531 L 112.921875 104.183594 L 112.773438 103.984375 L 112.625 103.796875 L 112.472656 103.617188 L 112.316406 103.445312 L 112.160156 103.285156 L 111.996094 103.128906 L 111.832031 102.980469 L 111.660156 102.839844 L 111.488281 102.707031 L 111.3125 102.578125 L 111.132812 102.453125 L 110.757812 102.226562 L 110.566406 102.121094 L 110.367188 102.019531 L 110.167969 101.925781 L 109.960938 101.835938 L 109.75 101.75 L 109.53125 101.667969 L 109.308594 101.59375 L 109.078125 101.527344 L 108.84375 101.464844 L 108.601562 101.40625 L 108.351562 101.355469 L 108.097656 101.308594 L 107.832031 101.269531 L 107.5625 101.238281 L 107.28125 101.214844 L 106.992188 101.195312 L 106.695312 101.1875 L 106.386719 101.183594 L 106.070312 101.191406 L 105.742188 101.210938 L 105.40625 101.238281 L 105.054688 101.277344 L 104.691406 101.328125 L 104.316406 101.390625 L 103.929688 101.46875 L 103.53125 101.5625 L 103.121094 101.667969 L 102.699219 101.792969 L 102.265625 101.933594 L 101.820312 102.089844 L 101.367188 102.269531 L 100.90625 102.46875 L 100.433594 102.683594 L 99.96875 102.921875 L 99.507812 103.167969 L 99.058594 103.429688 L 98.621094 103.699219 L 98.203125 103.980469 L 97.800781 104.265625 L 97.417969 104.558594 L 97.050781 104.855469 L 96.699219 105.15625 L 96.367188 105.460938 L 96.054688 105.773438 L 95.761719 106.085938 L 95.484375 106.402344 L 95.226562 106.722656 L 94.992188 107.042969 L 94.78125 107.359375 L 94.589844 107.667969 L 94.421875 107.972656 L 94.269531 108.273438 L 94.132812 108.566406 L 94.011719 108.859375 L 93.90625 109.144531 L 93.820312 109.410156 L 93.753906 109.625 L 93.695312 109.824219 L 93.652344 109.984375 L 93.617188 110.132812 L 93.589844 110.25 L 93.5625 110.359375 L 93.542969 110.460938 L 93.527344 110.542969 L 93.511719 110.617188 L 93.5 110.683594 L 93.488281 110.746094 L 93.476562 110.800781 L 93.46875 110.851562 L 93.453125 110.9375 L 93.445312 110.972656 L 93.441406 111.007812 L 93.4375 111.039062 L 93.429688 111.066406 L 93.425781 111.09375 L 93.417969 111.140625 L 93.417969 111.160156 L 93.40625 111.21875 L 93.40625 111.234375 L 93.402344 111.25 L 93.402344 111.265625 L 93.398438 111.28125 L 93.398438 111.292969 L 93.394531 111.308594 L 93.394531 111.320312 L 93.390625 111.335938 L 93.390625 111.347656 L 93.386719 111.359375 L 93.386719 111.371094 L 93.382812 111.382812 L 93.382812 111.398438 L 93.378906 111.410156 L 93.378906 111.433594 L 93.375 111.445312 L 93.375 111.46875 L 93.371094 111.480469 L 93.371094 111.492188 L 93.367188 111.503906 L 93.367188 111.527344 L 93.363281 111.539062 L 93.363281 111.550781 L 93.359375 111.5625 L 93.359375 111.589844 L 93.355469 111.601562 L 93.355469 111.613281 L 93.351562 111.628906 L 93.351562 111.644531 L 93.347656 111.65625 L 93.347656 111.6875 L 93.34375 111.703125 L 93.34375 111.71875 L 93.339844 111.738281 L 93.339844 111.753906 L 93.335938 111.773438 L 93.335938 111.792969 L 93.332031 111.8125 L 93.332031 111.832031 L 93.328125 111.851562 L 93.324219 111.875 L 93.324219 111.898438 L 93.320312 111.921875 L 93.316406 111.949219 L 93.316406 111.976562 L 93.3125 112.003906 L 93.308594 112.035156 L 93.308594 112.066406 L 93.300781 112.136719 L 93.296875 112.175781 L 93.296875 112.214844 L 93.292969 112.257812 L 93.285156 112.351562 L 93.28125 112.402344 L 93.273438 112.519531 L 93.269531 112.582031 L 93.265625 112.652344 L 93.265625 112.726562 L 93.261719 112.804688 L 93.257812 112.890625 L 93.253906 112.984375 L 93.253906 113.085938 L 93.25 113.195312 L 93.25 113.582031 L 93.253906 113.730469 L 93.257812 113.898438 L 93.261719 114.078125 L 93.273438 114.273438 L 93.285156 114.484375 L 93.304688 114.714844 L 93.324219 114.96875 L 93.355469 115.242188 L 93.390625 115.539062 L 93.4375 115.855469 L 93.492188 116.199219 L 93.558594 116.566406 L 93.640625 116.960938 L 93.742188 117.382812 L 93.859375 117.832031 L 94.003906 118.3125 L 94.171875 118.808594 L 94.363281 119.3125 L 94.574219 119.816406 L 94.804688 120.300781 L 95.050781 120.765625 L 95.308594 121.199219 L 95.570312 121.59375 L 95.832031 121.953125 L 96.089844 122.269531 L 96.3125 122.515625 L 96.53125 122.730469 L 96.746094 122.921875 L 96.925781 123.066406 L 97.097656 123.195312 L 97.265625 123.304688 L 97.421875 123.398438 L 97.570312 123.476562 L 97.707031 123.539062 L 97.832031 123.589844 L 97.949219 123.628906 L 98.058594 123.660156 L 98.15625 123.683594 L 98.246094 123.703125 L 98.332031 123.714844 L 98.410156 123.71875 L 98.480469 123.722656 L 98.546875 123.722656 L 98.609375 123.71875 L 98.664062 123.714844 L 98.71875 123.707031 L 98.765625 123.699219 L 98.8125 123.6875 L 98.898438 123.664062 L 98.9375 123.648438 L 98.972656 123.636719 L 99.007812 123.621094 L 99.039062 123.605469 L 99.066406 123.585938 L 99.097656 123.570312 L 99.125 123.550781 L 99.148438 123.535156 L 99.21875 123.476562 L 99.238281 123.457031 L 99.257812 123.433594 L 99.277344 123.414062 L 99.292969 123.394531 L 99.308594 123.371094 L 99.324219 123.351562 L 99.335938 123.328125 L 99.351562 123.304688 L 99.363281 123.28125 L 99.371094 123.257812 L 99.382812 123.234375 L 99.40625 123.164062 L 99.410156 123.140625 L 99.414062 123.113281 L 99.417969 123.089844 L 99.421875 123.0625 L 99.421875 122.960938 L 99.414062 122.90625 L 99.40625 122.882812 L 99.390625 122.828125 L 99.355469 122.746094 L 99.339844 122.722656 L 99.320312 122.695312 L 99.304688 122.667969 L 99.28125 122.640625 L 99.234375 122.59375 L 99.203125 122.570312 L 99.175781 122.546875 L 99.105469 122.5 L 99.066406 122.480469 L 98.980469 122.449219 L 98.929688 122.433594 L 98.878906 122.421875 L 98.761719 122.40625 L 98.628906 122.40625 L 98.558594 122.414062 L 98.480469 122.425781 L 98.398438 122.441406 L 98.3125 122.464844 L 98.21875 122.496094 L 98.121094 122.535156 L 98.019531 122.585938 L 97.914062 122.644531 L 97.800781 122.710938 L 97.683594 122.792969 L 97.5625 122.890625 L 97.4375 123 L 97.308594 123.125 L 97.175781 123.265625 L 97.039062 123.429688 L 96.902344 123.609375 L 96.761719 123.816406 L 96.625 124.042969 L 96.488281 124.292969 L 96.355469 124.570312 L 96.226562 124.875 L 96.105469 125.207031 L 95.996094 125.566406 L 95.894531 125.953125 L 95.808594 126.371094 L 95.742188 126.8125 L 95.695312 127.28125 L 95.667969 127.777344 L 95.667969 128.292969 L 95.695312 128.824219 L 95.75 129.371094 L 95.839844 129.929688 L 95.957031 130.492188 L 96.105469 131.054688 "/>
</g>
</svg>
