<?xml version="1.0" encoding="UTF-8"?>
<svg xmlns="http://www.w3.org/2000/svg" xmlns:xlink="http://www.w3.org/1999/xlink" width="200pt" height="200pt" viewBox="0 0 200 200" version="1.1">
<g id="id1">
<path style="fill:none;stroke-width:2;stroke-linecap:butt;stroke-linejoin:miter;stroke:rgb(36.8417%,50.6779%,70.9798%);stroke-opacity:1;stroke-miterlimit:10;" d="M 100 50 L 99.601562 50.109375 L 99.199219 50.230469 L 98.800781 50.367188 L 98.402344 50.519531 L 98.003906 50.6875 L 97.605469 50.867188 L 97.210938 51.066406 L 96.816406 51.277344 L 96.421875 51.503906 L 96.03125 51.746094 L 95.640625 52 L 95.25 52.269531 L 94.867188 52.554688 L 94.480469 52.851562 L 94.101562 53.164062 L 93.722656 53.488281 L 93.347656 53.832031 L 92.972656 54.183594 L 92.605469 54.550781 L 92.238281 54.933594 L 91.875 55.328125 L 91.515625 55.738281 L 91.160156 56.15625 L 90.808594 56.59375 L 90.460938 57.039062 L 90.117188 57.5 L 89.78125 57.972656 L 89.445312 58.457031 L 89.117188 58.953125 L 88.792969 59.460938 L 88.472656 59.980469 L 88.160156 60.515625 L 87.851562 61.058594 L 87.546875 61.613281 L 87.25 62.179688 L 86.957031 62.753906 L 86.671875 63.34375 L 86.390625 63.941406 L 86.117188 64.546875 L 85.847656 65.167969 L 85.589844 65.792969 L 85.332031 66.433594 L 85.085938 67.078125 L 84.84375 67.734375 L 84.605469 68.398438 L 84.378906 69.070312 L 84.15625 69.753906 L 83.945312 70.441406 L 83.738281 71.140625 L 83.539062 71.84375 L 83.34375 72.554688 L 83.160156 73.273438 L 82.984375 74 L 82.8125 74.730469 L 82.652344 75.472656 L 82.496094 76.214844 L 82.347656 76.964844 L 82.210938 77.722656 L 82.078125 78.480469 L 81.957031 79.246094 L 81.84375 80.015625 L 81.734375 80.792969 L 81.636719 81.570312 L 81.546875 82.351562 L 81.464844 83.136719 L 81.390625 83.925781 L 81.324219 84.71875 L 81.265625 85.511719 L 81.21875 86.308594 L 81.175781 87.109375 L 81.144531 87.90625 L 81.117188 88.710938 L 81.101562 89.511719 L 81.09375 90.316406 L 81.097656 91.121094 L 81.105469 91.925781 L 81.121094 92.730469 L 81.148438 93.535156 L 81.183594 94.335938 L 81.222656 95.140625 L 81.273438 95.941406 L 81.332031 96.742188 L 81.398438 97.539062 L 81.476562 98.335938 L 81.558594 99.128906 L 81.648438 99.921875 L 81.746094 100.710938 L 81.855469 101.496094 L 81.96875 102.277344 L 82.09375 103.054688 L 82.222656 103.828125 L 82.363281 104.597656 L 82.507812 105.363281 L 82.660156 106.125 L 82.820312 106.878906 L 82.988281 107.632812 L 83.164062 108.375 L 83.347656 109.113281 L 83.539062 109.847656 L 83.734375 110.574219 L 83.941406 111.292969 L 84.152344 112.007812 L 84.367188 112.714844 L 84.59375 113.414062 L 84.824219 114.105469 L 85.0625 114.789062 L 85.304688 115.464844 L 85.554688 116.132812 L 85.808594 116.792969 L 86.070312 117.445312 L 86.339844 118.085938 L 86.613281 118.71875 L 86.890625 119.34375 L 87.175781 119.957031 L 87.464844 120.5625 L 87.757812 121.15625 L 88.058594 121.742188 L 88.363281 122.316406 L 88.671875 122.882812 L 88.984375 123.4375 L 89.304688 123.980469 L 89.625 124.515625 L 89.953125 125.035156 L 90.285156 125.546875 L 90.617188 126.046875 L 90.957031 126.535156 L 91.296875 127.011719 L 91.640625 127.480469 L 91.988281 127.933594 L 92.339844 128.375 L 92.691406 128.804688 L 93.050781 129.222656 L 93.40625 129.628906 L 93.769531 130.023438 L 94.132812 130.402344 L 94.496094 130.773438 L 94.863281 131.128906 L 95.230469 131.472656 L 95.601562 131.804688 L 95.972656 132.121094 L 96.34375 132.429688 L 96.71875 132.722656 L 97.089844 133 L 97.464844 133.269531 L 97.839844 133.523438 L 98.214844 133.765625 L 98.589844 133.992188 L 98.964844 134.210938 L 99.339844 134.410156 L 99.714844 134.601562 L 100.085938 134.777344 L 100.460938 134.941406 L 100.832031 135.09375 L 101.199219 135.230469 L 101.570312 135.355469 L 101.9375 135.46875 L 102.300781 135.570312 L 102.664062 135.65625 L 103.027344 135.730469 L 103.386719 135.792969 L 103.742188 135.839844 L 104.097656 135.878906 L 104.449219 135.902344 L 104.796875 135.914062 L 105.144531 135.914062 L 105.484375 135.898438 L 105.824219 135.875 L 106.160156 135.835938 L 106.492188 135.789062 L 106.820312 135.726562 L 107.144531 135.65625 L 107.464844 135.570312 L 107.777344 135.476562 L 108.089844 135.367188 L 108.394531 135.25 L 108.699219 135.121094 L 108.996094 134.980469 L 109.285156 134.828125 L 109.574219 134.667969 L 109.855469 134.496094 L 110.128906 134.3125 L 110.402344 134.121094 L 110.664062 133.917969 L 110.925781 133.707031 L 111.175781 133.484375 L 111.425781 133.253906 L 111.664062 133.011719 L 111.902344 132.761719 L 112.128906 132.503906 L 112.351562 132.234375 L 112.566406 131.957031 L 112.773438 131.675781 L 112.976562 131.382812 L 113.171875 131.082031 L 113.359375 130.773438 L 113.542969 130.457031 L 113.714844 130.132812 L 113.882812 129.804688 L 114.042969 129.464844 L 114.195312 129.121094 L 114.339844 128.773438 L 114.480469 128.414062 L 114.609375 128.054688 L 114.730469 127.683594 L 114.847656 127.3125 L 114.953125 126.929688 L 115.054688 126.546875 L 115.148438 126.160156 L 115.230469 125.765625 L 115.308594 125.367188 L 115.378906 124.964844 L 115.4375 124.558594 L 115.492188 124.148438 L 115.535156 123.734375 L 115.574219 123.320312 L 115.601562 122.898438 L 115.625 122.476562 L 115.636719 122.054688 L 115.644531 121.628906 L 115.640625 121.199219 L 115.632812 120.769531 L 115.613281 120.335938 L 115.585938 119.90625 L 115.554688 119.46875 L 115.511719 119.035156 L 115.460938 118.601562 L 115.40625 118.164062 L 115.339844 117.730469 L 115.265625 117.292969 L 115.1875 116.859375 L 115.097656 116.425781 L 115.003906 115.992188 L 114.898438 115.558594 L 114.789062 115.128906 L 114.671875 114.699219 L 114.546875 114.273438 L 114.414062 113.847656 L 114.273438 113.425781 L 114.125 113.003906 L 113.972656 112.585938 L 113.8125 112.171875 L 113.644531 111.757812 L 113.46875 111.351562 L 113.289062 110.945312 L 113.101562 110.542969 L 112.90625 110.148438 L 112.707031 109.753906 L 112.5 109.363281 L 112.285156 108.980469 L 112.066406 108.601562 L 111.839844 108.226562 L 111.609375 107.855469 L 111.371094 107.492188 L 111.128906 107.132812 L 110.882812 106.78125 L 110.628906 106.433594 L 110.371094 106.09375 L 110.105469 105.757812 L 109.835938 105.425781 L 109.5625 105.105469 L 109.285156 104.789062 L 109.003906 104.480469 L 108.714844 104.175781 L 108.421875 103.882812 L 108.128906 103.59375 L 107.828125 103.3125 L 107.523438 103.039062 L 107.21875 102.769531 L 106.90625 102.511719 L 106.59375 102.261719 L 106.277344 102.015625 L 105.957031 101.78125 L 105.632812 101.554688 L 105.304688 101.335938 L 104.976562 101.125 L 104.648438 100.921875 L 104.3125 100.726562 L 103.980469 100.539062 L 103.640625 100.363281 L 103.304688 100.191406 L 102.960938 100.03125 L 102.621094 99.878906 L 102.277344 99.734375 L 101.933594 99.601562 L 101.589844 99.472656 L 101.242188 99.355469 L 100.898438 99.246094 L 100.550781 99.148438 L 100.203125 99.054688 L 99.859375 98.972656 L 99.511719 98.898438 L 99.167969 98.835938 L 98.820312 98.777344 L 98.476562 98.730469 L 98.132812 98.691406 L 97.789062 98.660156 L 97.445312 98.640625 L 97.105469 98.628906 L 96.769531 98.625 L 96.429688 98.628906 L 96.09375 98.640625 L 95.761719 98.660156 L 95.429688 98.691406 L 95.101562 98.730469 L 94.777344 98.777344 L 94.453125 98.832031 L 94.132812 98.894531 L 93.816406 98.964844 L 93.5 99.042969 L 93.191406 99.128906 L 92.882812 99.222656 L 92.578125 99.324219 L 92.277344 99.433594 L 91.984375 99.550781 L 91.691406 99.671875 L 91.402344 99.804688 L 91.121094 99.941406 L 90.84375 100.085938 L 90.566406 100.238281 L 90.296875 100.394531 L 90.035156 100.5625 L 89.777344 100.730469 L 89.523438 100.910156 L 89.273438 101.09375 L 89.03125 101.28125 L 88.792969 101.476562 L 88.5625 101.675781 L 88.335938 101.882812 L 88.113281 102.09375 L 87.902344 102.308594 L 87.691406 102.53125 L 87.492188 102.757812 L 87.296875 102.988281 L 87.109375 103.222656 L 86.925781 103.460938 L 86.75 103.703125 L 86.582031 103.949219 L 86.421875 104.199219 L 86.265625 104.449219 L 86.117188 104.707031 L 85.976562 104.964844 L 85.84375 105.226562 L 85.71875 105.492188 L 85.597656 105.757812 L 85.488281 106.027344 L 85.382812 106.296875 L 85.285156 106.570312 L 85.195312 106.84375 L 85.117188 107.121094 L 85.042969 107.394531 L 84.976562 107.671875 L 84.917969 107.949219 L 84.867188 108.226562 L 84.824219 108.503906 L 84.789062 108.78125 L 84.757812 109.058594 L 84.738281 109.335938 L 84.726562 109.613281 L 84.722656 109.886719 L 84.726562 110.164062 L 84.738281 110.433594 L 84.761719 110.707031 L 84.789062 110.976562 L 84.824219 111.242188 L 84.867188 111.507812 L 84.917969 111.769531 L 84.976562 112.027344 L 85.042969 112.285156 L 85.117188 112.539062 L 85.199219 112.785156 L 85.289062 113.03125 L 85.386719 113.273438 L 85.492188 113.511719 L 85.605469 113.746094 L 85.726562 113.976562 L 85.855469 114.203125 L 85.988281 114.421875 L 86.132812 114.636719 L 86.28125 114.847656 L 86.4375 115.050781 L 86.605469 115.25 L 86.773438 115.441406 L 86.953125 115.628906 L 87.140625 115.808594 L 87.332031 115.980469 L 87.53125 116.148438 L 87.734375 116.308594 L 87.949219 116.460938 L 88.167969 116.609375 L 88.390625 116.746094 L 88.625 116.878906 L 88.859375 117 L 89.105469 117.117188 L 89.355469 117.226562 L 89.609375 117.324219 L 89.871094 117.414062 L 90.136719 117.5 L 90.410156 117.574219 L 90.6875 117.640625 L 90.96875 117.695312 L 91.257812 117.742188 L 91.550781 117.78125 L 91.847656 117.8125 L 92.148438 117.832031 L 92.457031 117.84375 L 92.769531 117.84375 L 93.082031 117.835938 L 93.402344 117.820312 L 93.726562 117.792969 L 94.054688 117.753906 L 94.382812 117.707031 L 94.71875 117.648438 L 95.054688 117.582031 L 95.398438 117.503906 L 95.742188 117.414062 L 96.085938 117.316406 L 96.4375 117.207031 L 96.789062 117.085938 L 97.140625 116.957031 L 97.5 116.816406 L 97.855469 116.664062 L 98.21875 116.503906 L 98.578125 116.332031 L 98.941406 116.148438 L 99.308594 115.957031 L 99.671875 115.75 L 100.039062 115.539062 L 100.40625 115.3125 L 100.773438 115.078125 L 101.144531 114.832031 L 101.511719 114.574219 L 101.882812 114.304688 L 102.25 114.027344 L 102.621094 113.738281 L 102.988281 113.441406 L 103.355469 113.132812 L 103.722656 112.8125 L 104.089844 112.484375 L 104.453125 112.144531 L 104.816406 111.792969 L 105.179688 111.433594 L 105.539062 111.066406 L 105.898438 110.683594 L 106.253906 110.296875 L 106.609375 109.898438 L 106.960938 109.488281 L 107.308594 109.070312 L 107.65625 108.644531 L 108 108.207031 L 108.34375 107.761719 L 108.679688 107.308594 L 109.015625 106.84375 L 109.34375 106.371094 L 109.671875 105.890625 L 109.996094 105.402344 L 110.316406 104.90625 L 110.632812 104.398438 L 110.941406 103.886719 L 111.25 103.367188 L 111.550781 102.835938 L 111.847656 102.300781 L 112.140625 101.757812 L 112.429688 101.207031 L 112.710938 100.652344 L 112.988281 100.085938 L 113.257812 99.515625 L 113.523438 98.941406 L 113.785156 98.359375 L 114.039062 97.769531 L 114.289062 97.175781 L 114.53125 96.574219 L 114.765625 95.972656 L 114.996094 95.363281 L 115.222656 94.746094 L 115.4375 94.128906 L 115.648438 93.503906 L 115.851562 92.878906 L 116.046875 92.246094 L 116.238281 91.609375 L 116.421875 90.972656 L 116.597656 90.332031 L 116.765625 89.6875 L 116.925781 89.039062 L 117.082031 88.390625 L 117.226562 87.738281 L 117.363281 87.085938 L 117.496094 86.429688 L 117.621094 85.773438 L 117.734375 85.117188 L 117.84375 84.460938 L 117.941406 83.800781 L 118.035156 83.140625 L 118.117188 82.480469 L 118.195312 81.824219 L 118.261719 81.164062 L 118.324219 80.507812 L 118.375 79.851562 L 118.417969 79.195312 L 118.453125 78.542969 L 118.480469 77.890625 L 118.5 77.238281 L 118.511719 76.59375 L 118.511719 75.949219 L 118.507812 75.304688 L 118.492188 74.667969 L 118.46875 74.03125 L 118.4375 73.402344 L 118.398438 72.773438 L 118.351562 72.148438 L 118.296875 71.53125 L 118.234375 70.917969 L 118.160156 70.308594 L 118.082031 69.707031 L 117.992188 69.105469 L 117.894531 68.515625 L 117.792969 67.929688 L 117.679688 67.351562 L 117.558594 66.777344 L 117.429688 66.210938 L 117.292969 65.652344 L 117.148438 65.101562 L 116.996094 64.554688 L 116.835938 64.019531 L 116.667969 63.492188 L 116.496094 62.972656 L 116.3125 62.460938 L 116.121094 61.957031 L 115.925781 61.464844 L 115.71875 60.980469 L 115.507812 60.507812 L 115.289062 60.042969 L 115.0625 59.585938 L 114.832031 59.140625 L 114.589844 58.707031 L 114.34375 58.285156 L 114.09375 57.871094 L 113.832031 57.46875 L 113.566406 57.078125 L 113.296875 56.699219 L 113.019531 56.328125 L 112.734375 55.972656 L 112.445312 55.628906 L 112.148438 55.296875 L 111.847656 54.976562 L 111.539062 54.667969 L 111.230469 54.371094 L 110.910156 54.089844 L 110.589844 53.816406 L 110.261719 53.5625 L 109.929688 53.316406 L 109.59375 53.085938 L 109.253906 52.871094 L 108.90625 52.664062 L 108.558594 52.476562 L 108.203125 52.296875 L 107.847656 52.136719 L 107.484375 51.988281 L 107.121094 51.851562 L 106.753906 51.730469 L 106.382812 51.625 L 106.007812 51.535156 L 105.628906 51.457031 L 105.25 51.394531 L 104.867188 51.34375 L 104.484375 51.308594 L 104.097656 51.289062 L 103.707031 51.285156 L 103.316406 51.296875 L 102.925781 51.320312 L 102.53125 51.359375 L 102.136719 51.414062 L 101.738281 51.480469 L 101.34375 51.566406 L 100.945312 51.664062 L 100.546875 51.777344 L 100.148438 51.902344 L 99.746094 52.046875 L 99.347656 52.203125 L 98.949219 52.375 L 98.550781 52.5625 L 98.152344 52.765625 L 97.753906 52.980469 L 97.355469 53.210938 L 96.960938 53.457031 L 96.566406 53.714844 L 96.171875 53.988281 L 95.78125 54.277344 L 95.390625 54.578125 L 95.003906 54.894531 L 94.617188 55.226562 L 94.234375 55.570312 L 93.851562 55.929688 L 93.472656 56.300781 L 93.097656 56.6875 L 92.722656 57.085938 L 92.355469 57.5 L 91.988281 57.925781 L 91.625 58.363281 L 91.265625 58.816406 L 90.910156 59.277344 L 90.554688 59.757812 L 90.207031 60.246094 L 89.863281 60.75 L 89.527344 61.261719 L 89.191406 61.789062 L 88.859375 62.328125 L 88.535156 62.875 L 88.214844 63.4375 L 87.902344 64.011719 L 87.589844 64.59375 L 87.285156 65.1875 L 86.988281 65.792969 L 86.695312 66.410156 L 86.40625 67.035156 L 86.125 67.671875 L 85.851562 68.316406 L 85.582031 68.972656 L 85.320312 69.636719 L 85.0625 70.3125 L 84.8125 70.992188 L 84.570312 71.683594 L 84.335938 72.382812 L 84.105469 73.09375 L 83.882812 73.808594 L 83.667969 74.53125 L 83.457031 75.261719 L 83.257812 76 L 83.0625 76.746094 L 82.878906 77.496094 L 82.699219 78.253906 L 82.527344 79.019531 L 82.363281 79.789062 L 82.207031 80.5625 L 82.0625 81.34375 L 81.921875 82.128906 L 81.789062 82.921875 L 81.664062 83.714844 L 81.546875 84.515625 L 81.441406 85.316406 L 81.339844 86.121094 L 81.25 86.933594 L 81.164062 87.746094 L 81.089844 88.558594 L 81.023438 89.378906 L 80.964844 90.199219 L 80.914062 91.019531 L 80.871094 91.84375 L 80.839844 92.667969 L 80.8125 93.492188 L 80.796875 94.316406 L 80.789062 95.144531 L 80.789062 95.96875 L 80.796875 96.796875 L 80.8125 97.621094 L 80.835938 98.445312 L 80.871094 99.269531 L 80.910156 100.09375 L 80.960938 100.914062 L 81.019531 101.730469 L 81.085938 102.546875 L 81.160156 103.363281 L 81.242188 104.171875 L 81.335938 104.980469 L 81.433594 105.785156 L 81.539062 106.585938 L 81.65625 107.382812 L 81.777344 108.175781 L 81.90625 108.964844 L 82.046875 109.75 L 82.191406 110.527344 L 82.347656 111.300781 L 82.507812 112.066406 L 82.675781 112.828125 L 82.851562 113.585938 L 83.035156 114.335938 L 83.226562 115.078125 L 83.425781 115.8125 L 83.628906 116.542969 L 83.84375 117.261719 L 84.0625 117.976562 L 84.285156 118.683594 L 84.519531 119.378906 L 84.757812 120.070312 L 85 120.75 L 85.253906 121.421875 L 85.511719 122.085938 L 85.773438 122.742188 L 86.042969 123.386719 L 86.320312 124.019531 L 86.597656 124.644531 L 86.886719 125.261719 L 87.175781 125.867188 L 87.472656 126.460938 L 87.777344 127.046875 L 88.082031 127.621094 L 88.394531 128.183594 L 88.710938 128.734375 L 89.03125 129.277344 L 89.359375 129.804688 L 89.6875 130.324219 L 90.019531 130.828125 L 90.359375 131.324219 L 90.699219 131.804688 L 91.046875 132.273438 L 91.394531 132.734375 L 91.746094 133.179688 L 92.101562 133.613281 L 92.457031 134.03125 L 92.816406 134.441406 L 93.179688 134.835938 L 93.546875 135.21875 L 93.914062 135.585938 L 94.28125 135.941406 L 94.652344 136.285156 L 95.027344 136.617188 L 95.402344 136.933594 L 95.777344 137.234375 L 96.15625 137.527344 L 96.535156 137.804688 L 96.914062 138.066406 L 97.292969 138.316406 L 97.671875 138.550781 L 98.054688 138.773438 L 98.433594 138.984375 L 98.816406 139.179688 L 99.195312 139.359375 L 99.574219 139.527344 L 99.957031 139.683594 L 100.335938 139.824219 L 100.710938 139.953125 L 101.089844 140.066406 L 101.464844 140.167969 L 101.839844 140.253906 L 102.210938 140.328125 L 102.582031 140.386719 L 102.949219 140.433594 L 103.316406 140.46875 L 103.679688 140.488281 L 104.042969 140.496094 L 104.402344 140.488281 L 104.757812 140.46875 L 105.109375 140.4375 L 105.460938 140.394531 L 105.804688 140.335938 L 106.148438 140.265625 L 106.488281 140.183594 L 106.824219 140.085938 L 107.15625 139.980469 L 107.484375 139.859375 L 107.808594 139.730469 L 108.128906 139.585938 L 108.441406 139.429688 L 108.753906 139.261719 L 109.058594 139.082031 L 109.359375 138.894531 L 109.652344 138.691406 L 109.945312 138.480469 L 110.226562 138.253906 L 110.507812 138.019531 L 110.78125 137.777344 L 111.046875 137.519531 L 111.3125 137.253906 L 111.566406 136.980469 L 111.816406 136.695312 L 112.058594 136.398438 L 112.296875 136.09375 L 112.527344 135.78125 L 112.753906 135.457031 L 112.972656 135.125 L 113.183594 134.785156 L 113.386719 134.4375 L 113.585938 134.078125 L 113.773438 133.714844 L 113.957031 133.339844 L 114.132812 132.957031 L 114.304688 132.570312 L 114.464844 132.175781 L 114.621094 131.773438 L 114.765625 131.363281 L 114.90625 130.949219 L 115.039062 130.527344 L 115.164062 130.097656 L 115.277344 129.664062 L 115.386719 129.222656 L 115.488281 128.78125 L 115.582031 128.332031 L 115.667969 127.875 L 115.746094 127.417969 L 115.816406 126.953125 L 115.878906 126.484375 L 115.933594 126.015625 L 115.976562 125.539062 L 116.015625 125.0625 L 116.046875 124.582031 L 116.070312 124.097656 L 116.082031 123.609375 L 116.089844 123.121094 L 116.085938 122.628906 L 116.078125 122.136719 L 116.058594 121.640625 L 116.035156 121.144531 L 116 120.648438 L 115.960938 120.152344 L 115.910156 119.652344 L 115.851562 119.152344 L 115.789062 118.65625 L 115.714844 118.15625 L 115.636719 117.65625 L 115.546875 117.160156 L 115.453125 116.664062 L 115.347656 116.167969 L 115.238281 115.671875 L 115.121094 115.179688 L 114.996094 114.6875 L 114.863281 114.199219 L 114.722656 113.710938 L 114.574219 113.230469 L 114.421875 112.746094 L 114.257812 112.269531 L 114.089844 111.792969 L 113.914062 111.320312 L 113.734375 110.851562 L 113.546875 110.386719 L 113.351562 109.925781 L 113.148438 109.472656 L 112.941406 109.019531 L 112.726562 108.570312 L 112.507812 108.128906 L 112.28125 107.691406 L 112.050781 107.257812 L 111.8125 106.832031 L 111.570312 106.410156 L 111.320312 105.996094 L 111.066406 105.585938 L 110.804688 105.183594 L 110.542969 104.785156 L 110.273438 104.394531 L 109.996094 104.007812 L 109.71875 103.632812 L 109.433594 103.261719 L 109.144531 102.898438 L 108.855469 102.539062 L 108.558594 102.191406 L 108.257812 101.851562 L 107.953125 101.515625 L 107.644531 101.1875 L 107.332031 100.871094 L 107.015625 100.558594 L 106.699219 100.257812 L 106.378906 99.960938 L 106.054688 99.675781 L 105.726562 99.398438 L 105.394531 99.128906 L 105.0625 98.867188 L 104.730469 98.613281 L 104.394531 98.371094 L 104.054688 98.136719 L 103.714844 97.910156 L 103.375 97.691406 L 103.03125 97.480469 L 102.6875 97.28125 L 102.339844 97.089844 L 101.996094 96.910156 L 101.648438 96.738281 L 101.300781 96.574219 L 100.953125 96.417969 L 100.605469 96.273438 L 100.257812 96.136719 L 99.910156 96.011719 L 99.5625 95.890625 L 99.214844 95.78125 L 98.871094 95.683594 L 98.523438 95.59375 L 98.179688 95.511719 L 97.835938 95.4375 L 97.496094 95.375 L 97.15625 95.320312 L 96.816406 95.273438 L 96.480469 95.238281 L 96.144531 95.210938 L 95.8125 95.191406 L 95.484375 95.179688 L 95.15625 95.179688 L 94.832031 95.1875 L 94.507812 95.203125 L 94.191406 95.226562 L 93.875 95.257812 L 93.5625 95.300781 L 93.253906 95.347656 L 92.949219 95.40625 L 92.644531 95.46875 L 92.347656 95.542969 L 92.054688 95.621094 L 91.765625 95.710938 L 91.480469 95.804688 L 91.199219 95.910156 L 90.925781 96.019531 L 90.65625 96.136719 L 90.386719 96.261719 L 90.128906 96.394531 L 89.871094 96.53125 L 89.621094 96.675781 L 89.378906 96.824219 L 89.136719 96.984375 L 88.90625 97.144531 L 88.675781 97.316406 L 88.457031 97.488281 L 88.238281 97.671875 L 88.03125 97.855469 L 87.828125 98.046875 L 87.628906 98.242188 L 87.441406 98.445312 L 87.257812 98.648438 L 87.078125 98.859375 L 86.910156 99.074219 L 86.746094 99.292969 L 86.589844 99.515625 L 86.4375 99.742188 L 86.296875 99.96875 L 86.160156 100.203125 L 86.03125 100.4375 L 85.910156 100.675781 L 85.796875 100.917969 L 85.691406 101.164062 L 85.59375 101.410156 L 85.5 101.65625 L 85.417969 101.90625 L 85.339844 102.160156 L 85.273438 102.414062 L 85.210938 102.667969 L 85.15625 102.921875 L 85.113281 103.179688 L 85.074219 103.433594 L 85.046875 103.691406 L 85.023438 103.949219 L 85.007812 104.207031 L 85.003906 104.460938 L 85.003906 104.71875 L 85.011719 104.972656 L 85.03125 105.226562 L 85.054688 105.480469 L 85.089844 105.730469 L 85.128906 105.980469 L 85.175781 106.226562 L 85.234375 106.472656 L 85.296875 106.71875 L 85.371094 106.957031 L 85.449219 107.195312 L 85.535156 107.429688 L 85.628906 107.664062 L 85.734375 107.890625 L 85.84375 108.117188 L 85.960938 108.335938 L 86.085938 108.554688 L 86.214844 108.765625 L 86.355469 108.976562 L 86.503906 109.179688 L 86.65625 109.378906 L 86.816406 109.570312 L 86.984375 109.761719 L 87.160156 109.945312 L 87.34375 110.121094 L 87.53125 110.292969 L 87.726562 110.460938 L 87.929688 110.617188 L 88.136719 110.773438 L 88.351562 110.917969 L 88.574219 111.058594 L 88.800781 111.191406 L 89.035156 111.320312 L 89.273438 111.4375 L 89.519531 111.550781 L 89.773438 111.65625 L 90.027344 111.753906 L 90.292969 111.84375 L 90.558594 111.921875 L 90.832031 111.996094 L 91.113281 112.0625 L 91.394531 112.117188 L 91.683594 112.167969 L 91.976562 112.207031 L 92.273438 112.238281 L 92.578125 112.261719 L 92.882812 112.273438 L 93.195312 112.28125 L 93.507812 112.277344 L 93.828125 112.261719 L 94.148438 112.238281 L 94.476562 112.207031 L 94.804688 112.167969 L 95.136719 112.117188 L 95.472656 112.054688 L 95.8125 111.984375 L 96.15625 111.90625 L 96.5 111.816406 L 96.84375 111.71875 L 97.195312 111.609375 L 97.546875 111.488281 L 97.898438 111.359375 "/>
<path style="fill:none;stroke-width:2;stroke-linecap:butt;stroke-linejoin:miter;stroke:rgb(88.0722%,61.1041%,14.2051%);stroke-opacity:1;stroke-miterlimit:10;" d="M 100 150 L 101 149.984375 L 102 149.941406 L 102.996094 149.863281 L 103.996094 149.761719 L 104.988281 149.625 L 105.984375 149.460938 L 106.972656 149.269531 L 107.960938 149.042969 L 108.941406 148.792969 L 109.921875 148.507812 L 110.894531 148.199219 L 111.863281 147.859375 L 112.824219 147.488281 L 113.78125 147.09375 L 114.730469 146.667969 L 115.675781 146.214844 L 116.609375 145.734375 L 117.535156 145.222656 L 118.457031 144.6875 L 119.367188 144.125 L 120.265625 143.535156 L 121.15625 142.921875 L 122.039062 142.277344 L 122.910156 141.609375 L 123.769531 140.917969 L 124.617188 140.199219 L 125.453125 139.457031 L 126.277344 138.691406 L 127.085938 137.898438 L 127.886719 137.085938 L 128.671875 136.25 L 129.441406 135.390625 L 130.199219 134.507812 L 130.941406 133.605469 L 131.667969 132.683594 L 132.378906 131.738281 L 133.078125 130.773438 L 133.757812 129.789062 L 134.421875 128.785156 L 135.070312 127.761719 L 135.703125 126.722656 L 136.316406 125.664062 L 136.914062 124.589844 L 137.492188 123.5 L 138.050781 122.390625 L 138.59375 121.269531 L 139.117188 120.132812 L 139.625 118.980469 L 140.109375 117.816406 L 140.578125 116.640625 L 141.023438 115.449219 L 141.453125 114.25 L 141.859375 113.035156 L 142.246094 111.8125 L 142.613281 110.578125 L 142.960938 109.339844 L 143.285156 108.089844 L 143.589844 106.828125 L 143.875 105.566406 L 144.136719 104.292969 L 144.378906 103.015625 L 144.601562 101.730469 L 144.800781 100.445312 L 144.976562 99.152344 L 145.132812 97.859375 L 145.265625 96.5625 L 145.378906 95.261719 L 145.46875 93.960938 L 145.535156 92.660156 L 145.582031 91.363281 L 145.605469 90.0625 L 145.609375 88.765625 L 145.589844 87.46875 L 145.546875 86.175781 L 145.484375 84.886719 L 145.398438 83.601562 L 145.289062 82.320312 L 145.160156 81.046875 L 145.007812 79.78125 L 144.835938 78.519531 L 144.640625 77.265625 L 144.421875 76.019531 L 144.183594 74.785156 L 143.925781 73.558594 L 143.644531 72.339844 L 143.34375 71.136719 L 143.019531 69.941406 L 142.675781 68.757812 L 142.3125 67.589844 L 141.925781 66.433594 L 141.519531 65.292969 L 141.09375 64.167969 L 140.648438 63.054688 L 140.183594 61.957031 L 139.699219 60.878906 L 139.195312 59.816406 L 138.671875 58.773438 L 138.128906 57.746094 L 137.570312 56.738281 L 136.992188 55.75 L 136.394531 54.78125 L 135.78125 53.832031 L 135.148438 52.90625 L 134.5 52 L 133.832031 51.113281 L 133.148438 50.25 L 132.449219 49.414062 L 131.734375 48.597656 L 131.003906 47.804688 L 130.257812 47.039062 L 129.496094 46.292969 L 128.722656 45.578125 L 127.933594 44.882812 L 127.128906 44.21875 L 126.3125 43.578125 L 125.484375 42.964844 L 124.640625 42.378906 L 123.785156 41.816406 L 122.921875 41.285156 L 122.042969 40.785156 L 121.152344 40.308594 L 120.253906 39.863281 L 119.34375 39.445312 L 118.425781 39.058594 L 117.496094 38.699219 L 116.558594 38.371094 L 115.613281 38.070312 L 114.660156 37.800781 L 113.699219 37.5625 L 112.730469 37.355469 L 111.753906 37.179688 L 110.773438 37.03125 L 109.785156 36.917969 L 108.792969 36.832031 L 107.796875 36.78125 L 106.792969 36.757812 L 105.789062 36.769531 L 104.78125 36.8125 L 103.769531 36.882812 L 102.757812 36.988281 L 101.738281 37.125 L 100.722656 37.292969 L 99.703125 37.492188 L 98.6875 37.722656 L 97.667969 37.988281 L 96.648438 38.28125 L 95.632812 38.605469 L 94.617188 38.964844 L 93.605469 39.351562 L 92.59375 39.773438 L 91.585938 40.222656 L 90.578125 40.703125 L 89.578125 41.214844 L 88.582031 41.757812 L 87.589844 42.332031 L 86.601562 42.933594 L 85.621094 43.566406 L 84.648438 44.230469 L 83.679688 44.921875 L 82.71875 45.644531 L 81.765625 46.394531 L 80.820312 47.171875 L 79.882812 47.980469 L 78.957031 48.816406 L 78.039062 49.679688 L 77.128906 50.570312 L 76.230469 51.484375 L 75.34375 52.429688 L 74.464844 53.398438 L 73.601562 54.394531 L 72.75 55.414062 L 71.90625 56.460938 L 71.078125 57.53125 L 70.265625 58.625 L 69.460938 59.746094 L 68.675781 60.886719 L 67.902344 62.050781 L 67.144531 63.238281 L 66.398438 64.445312 L 65.671875 65.671875 L 64.957031 66.921875 L 64.261719 68.191406 L 63.582031 69.480469 L 62.917969 70.789062 L 62.273438 72.117188 L 61.644531 73.460938 L 61.03125 74.824219 L 60.4375 76.203125 L 59.863281 77.597656 L 59.304688 79.007812 L 58.765625 80.429688 L 58.246094 81.871094 L 57.746094 83.324219 L 57.269531 84.789062 L 56.808594 86.265625 L 56.367188 87.757812 L 55.945312 89.257812 L 55.546875 90.769531 L 55.164062 92.289062 L 54.808594 93.816406 L 54.46875 95.355469 L 54.152344 96.902344 L 53.855469 98.453125 L 53.582031 100.011719 L 53.328125 101.574219 L 53.097656 103.144531 L 52.886719 104.71875 L 52.699219 106.292969 L 52.535156 107.875 L 52.390625 109.453125 L 52.269531 111.039062 L 52.171875 112.621094 L 52.09375 114.203125 L 52.039062 115.785156 L 52.007812 117.367188 L 51.996094 118.945312 L 52.007812 120.519531 L 52.042969 122.089844 L 52.097656 123.65625 L 52.179688 125.21875 L 52.28125 126.777344 L 52.402344 128.324219 L 52.550781 129.867188 L 52.714844 131.402344 L 52.90625 132.929688 L 53.117188 134.445312 L 53.351562 135.949219 L 53.605469 137.445312 L 53.882812 138.929688 L 54.183594 140.402344 L 54.503906 141.859375 L 54.84375 143.304688 L 55.207031 144.738281 L 55.589844 146.15625 L 55.992188 147.554688 L 56.414062 148.941406 L 56.859375 150.308594 L 57.324219 151.660156 L 57.808594 152.996094 L 58.3125 154.308594 L 58.835938 155.605469 L 59.382812 156.878906 L 59.941406 158.136719 L 60.523438 159.371094 L 61.121094 160.582031 L 61.738281 161.773438 L 62.375 162.941406 L 63.027344 164.085938 L 63.699219 165.207031 L 64.386719 166.304688 L 65.089844 167.375 L 65.808594 168.421875 L 66.542969 169.441406 L 67.296875 170.4375 L 68.0625 171.402344 L 68.84375 172.34375 L 69.640625 173.257812 L 70.453125 174.140625 L 71.277344 174.996094 L 72.117188 175.824219 L 72.964844 176.625 L 73.832031 177.390625 L 74.707031 178.128906 L 75.59375 178.835938 L 76.492188 179.515625 L 77.402344 180.160156 L 78.324219 180.773438 L 79.257812 181.359375 L 80.195312 181.910156 L 81.148438 182.429688 L 82.105469 182.914062 L 83.074219 183.367188 L 84.050781 183.789062 L 85.03125 184.175781 L 86.023438 184.527344 L 87.019531 184.847656 L 88.019531 185.136719 L 89.03125 185.386719 L 90.042969 185.605469 L 91.0625 185.789062 L 92.085938 185.941406 L 93.109375 186.054688 L 94.140625 186.136719 L 95.171875 186.183594 L 96.207031 186.195312 L 97.242188 186.171875 L 98.28125 186.117188 L 99.320312 186.023438 L 100.359375 185.898438 L 101.398438 185.738281 L 102.4375 185.542969 L 103.472656 185.3125 L 104.507812 185.050781 L 105.542969 184.75 L 106.574219 184.417969 L 107.601562 184.050781 L 108.628906 183.652344 L 109.648438 183.21875 L 110.664062 182.75 L 111.675781 182.25 L 112.679688 181.714844 L 113.683594 181.148438 L 114.675781 180.546875 L 115.664062 179.914062 L 116.640625 179.25 L 117.613281 178.554688 L 118.578125 177.824219 L 119.535156 177.066406 L 120.480469 176.277344 L 121.417969 175.453125 L 122.34375 174.601562 L 123.261719 173.722656 L 124.164062 172.808594 L 125.058594 171.871094 L 125.945312 170.898438 L 126.8125 169.902344 L 127.671875 168.875 L 128.519531 167.824219 L 129.351562 166.742188 L 130.167969 165.636719 L 130.972656 164.503906 L 131.765625 163.34375 L 132.539062 162.160156 L 133.300781 160.949219 L 134.046875 159.71875 L 134.773438 158.460938 L 135.488281 157.179688 L 136.183594 155.878906 L 136.863281 154.554688 L 137.527344 153.210938 L 138.171875 151.84375 L 138.800781 150.457031 L 139.410156 149.050781 L 140 147.625 L 140.570312 146.179688 L 141.125 144.71875 L 141.660156 143.242188 L 142.175781 141.746094 L 142.671875 140.234375 L 143.148438 138.707031 L 143.601562 137.167969 L 144.039062 135.613281 L 144.453125 134.046875 L 144.847656 132.464844 L 145.222656 130.871094 L 145.574219 129.269531 L 145.90625 127.65625 L 146.214844 126.03125 L 146.503906 124.398438 L 146.773438 122.757812 L 147.019531 121.109375 L 147.242188 119.453125 L 147.441406 117.792969 L 147.621094 116.125 L 147.78125 114.453125 L 147.917969 112.777344 L 148.03125 111.097656 L 148.121094 109.417969 L 148.1875 107.734375 L 148.234375 106.050781 L 148.261719 104.363281 L 148.261719 102.679688 L 148.242188 100.996094 L 148.199219 99.3125 L 148.132812 97.632812 L 148.046875 95.957031 L 147.933594 94.285156 L 147.804688 92.617188 L 147.648438 90.957031 L 147.472656 89.300781 L 147.273438 87.652344 L 147.054688 86.011719 L 146.8125 84.378906 L 146.550781 82.753906 L 146.265625 81.136719 L 145.960938 79.535156 L 145.632812 77.941406 L 145.285156 76.359375 L 144.914062 74.789062 L 144.523438 73.234375 L 144.113281 71.691406 L 143.683594 70.164062 L 143.230469 68.648438 L 142.761719 67.152344 L 142.269531 65.671875 L 141.761719 64.207031 L 141.230469 62.761719 L 140.683594 61.332031 L 140.117188 59.921875 L 139.53125 58.53125 L 138.925781 57.160156 L 138.304688 55.8125 L 137.667969 54.484375 L 137.011719 53.175781 L 136.339844 51.890625 L 135.648438 50.628906 L 134.945312 49.390625 L 134.222656 48.171875 L 133.484375 46.984375 L 132.730469 45.816406 L 131.964844 44.675781 L 131.183594 43.558594 L 130.386719 42.46875 L 129.574219 41.40625 L 128.753906 40.371094 L 127.914062 39.363281 L 127.066406 38.382812 L 126.207031 37.429688 L 125.332031 36.507812 L 124.449219 35.613281 L 123.550781 34.746094 L 122.648438 33.910156 L 121.730469 33.105469 L 120.804688 32.328125 L 119.871094 31.585938 L 118.925781 30.871094 L 117.972656 30.1875 L 117.015625 29.535156 L 116.046875 28.914062 L 115.070312 28.328125 L 114.089844 27.769531 L 113.105469 27.246094 L 112.109375 26.753906 L 111.113281 26.296875 L 110.109375 25.871094 L 109.105469 25.476562 L 108.09375 25.117188 L 107.082031 24.789062 L 106.0625 24.492188 L 105.046875 24.234375 L 104.023438 24.003906 L 103.003906 23.808594 L 101.980469 23.648438 L 100.957031 23.519531 L 99.933594 23.425781 L 98.914062 23.367188 L 97.890625 23.335938 L 96.871094 23.34375 L 95.855469 23.382812 L 94.839844 23.453125 L 93.828125 23.558594 L 92.820312 23.695312 L 91.816406 23.863281 L 90.816406 24.066406 L 89.820312 24.300781 L 88.832031 24.570312 L 87.847656 24.871094 L 86.871094 25.199219 L 85.898438 25.5625 L 84.9375 25.957031 L 83.980469 26.382812 L 83.035156 26.839844 L 82.09375 27.328125 L 81.164062 27.84375 L 80.246094 28.390625 L 79.335938 28.96875 L 78.433594 29.574219 L 77.542969 30.210938 L 76.667969 30.875 L 75.800781 31.566406 L 74.945312 32.289062 L 74.101562 33.035156 L 73.273438 33.8125 L 72.457031 34.613281 L 71.652344 35.441406 L 70.867188 36.296875 L 70.089844 37.175781 L 69.332031 38.082031 L 68.585938 39.007812 L 67.855469 39.960938 L 67.144531 40.9375 L 66.445312 41.9375 L 65.765625 42.957031 L 65.097656 44.003906 L 64.453125 45.066406 L 63.820312 46.152344 L 63.207031 47.257812 L 62.613281 48.382812 L 62.039062 49.527344 L 61.480469 50.691406 L 60.941406 51.871094 L 60.417969 53.070312 L 59.917969 54.285156 L 59.433594 55.519531 L 58.972656 56.765625 L 58.53125 58.027344 L 58.109375 59.300781 L 57.707031 60.589844 L 57.324219 61.894531 L 56.964844 63.207031 L 56.621094 64.535156 L 56.304688 65.871094 L 56.003906 67.21875 L 55.726562 68.574219 L 55.472656 69.941406 L 55.238281 71.3125 L 55.023438 72.695312 L 54.835938 74.085938 L 54.664062 75.480469 L 54.515625 76.878906 L 54.390625 78.285156 L 54.289062 79.695312 L 54.207031 81.105469 L 54.148438 82.523438 L 54.109375 83.9375 L 54.09375 85.359375 L 54.101562 86.777344 L 54.128906 88.195312 L 54.179688 89.617188 L 54.25 91.03125 L 54.347656 92.449219 L 54.460938 93.859375 L 54.601562 95.269531 L 54.761719 96.675781 L 54.941406 98.074219 L 55.144531 99.46875 L 55.371094 100.855469 L 55.617188 102.238281 L 55.886719 103.613281 L 56.171875 104.976562 L 56.484375 106.335938 L 56.8125 107.679688 L 57.164062 109.019531 L 57.535156 110.34375 L 57.929688 111.660156 L 58.339844 112.960938 L 58.773438 114.253906 L 59.222656 115.527344 L 59.695312 116.792969 L 60.1875 118.039062 L 60.695312 119.273438 L 61.222656 120.492188 L 61.769531 121.691406 L 62.335938 122.875 L 62.917969 124.042969 L 63.519531 125.191406 L 64.136719 126.324219 L 64.773438 127.433594 L 65.425781 128.527344 L 66.09375 129.597656 L 66.777344 130.648438 L 67.476562 131.679688 L 68.195312 132.6875 L 68.925781 133.675781 L 69.671875 134.636719 L 70.433594 135.578125 L 71.207031 136.496094 L 71.996094 137.390625 L 72.796875 138.261719 L 73.609375 139.105469 L 74.4375 139.925781 L 75.277344 140.722656 L 76.128906 141.492188 L 76.988281 142.234375 L 77.863281 142.949219 L 78.746094 143.640625 L 79.640625 144.304688 L 80.542969 144.941406 L 81.457031 145.546875 L 82.378906 146.128906 L 83.308594 146.679688 L 84.246094 147.203125 L 85.191406 147.699219 L 86.140625 148.164062 L 87.101562 148.601562 L 88.066406 149.011719 L 89.035156 149.390625 L 90.011719 149.738281 L 90.988281 150.058594 L 91.972656 150.347656 L 92.960938 150.609375 L 93.953125 150.839844 L 94.945312 151.039062 L 95.941406 151.210938 L 96.941406 151.347656 L 97.941406 151.457031 L 98.941406 151.539062 L 99.941406 151.585938 L 100.941406 151.605469 L 101.941406 151.59375 L 102.9375 151.554688 L 103.9375 151.484375 L 104.929688 151.382812 L 105.921875 151.25 L 106.914062 151.089844 L 107.898438 150.898438 L 108.882812 150.679688 L 109.859375 150.429688 L 110.832031 150.148438 L 111.800781 149.839844 L 112.761719 149.503906 L 113.71875 149.140625 L 114.667969 148.746094 L 115.609375 148.324219 L 116.542969 147.871094 L 117.46875 147.394531 L 118.386719 146.890625 L 119.292969 146.355469 L 120.195312 145.796875 L 121.082031 145.210938 L 121.960938 144.597656 L 122.832031 143.960938 L 123.6875 143.296875 L 124.535156 142.609375 L 125.367188 141.894531 L 126.1875 141.15625 L 127 140.394531 L 127.792969 139.609375 L 128.578125 138.800781 L 129.34375 137.96875 L 130.097656 137.113281 L 130.839844 136.238281 L 131.5625 135.339844 L 132.273438 134.421875 L 132.964844 133.484375 L 133.644531 132.527344 L 134.304688 131.550781 L 134.949219 130.554688 L 135.578125 129.539062 L 136.191406 128.507812 L 136.785156 127.457031 L 137.359375 126.390625 L 137.917969 125.308594 L 138.457031 124.210938 L 138.976562 123.097656 L 139.476562 121.972656 L 139.960938 120.832031 L 140.421875 119.675781 L 140.867188 118.511719 L 141.289062 117.332031 L 141.695312 116.144531 L 142.078125 114.941406 L 142.441406 113.734375 L 142.785156 112.511719 L 143.105469 111.285156 L 143.40625 110.050781 L 143.6875 108.804688 L 143.949219 107.554688 L 144.183594 106.296875 L 144.402344 105.035156 L 144.597656 103.769531 L 144.769531 102.496094 L 144.921875 101.222656 L 145.050781 99.945312 L 145.160156 98.667969 L 145.246094 97.386719 L 145.3125 96.105469 L 145.351562 94.820312 L 145.375 93.542969 L 145.371094 92.261719 L 145.347656 90.984375 L 145.304688 89.707031 L 145.234375 88.4375 L 145.144531 87.167969 L 145.035156 85.90625 L 144.902344 84.648438 L 144.746094 83.394531 L 144.570312 82.148438 L 144.371094 80.914062 L 144.152344 79.683594 L 143.910156 78.460938 L 143.648438 77.25 L 143.363281 76.046875 L 143.058594 74.855469 L 142.734375 73.675781 L 142.386719 72.507812 L 142.019531 71.351562 L 141.632812 70.207031 L 141.222656 69.078125 L 140.796875 67.964844 L 140.347656 66.863281 L 139.882812 65.78125 L 139.394531 64.710938 L 138.886719 63.660156 L 138.363281 62.625 L 137.820312 61.609375 L 137.257812 60.609375 L 136.675781 59.632812 L 136.078125 58.671875 L 135.460938 57.730469 L 134.828125 56.8125 L 134.175781 55.914062 L 133.507812 55.035156 L 132.824219 54.183594 L 132.125 53.351562 L 131.410156 52.539062 L 130.675781 51.753906 L 129.929688 50.992188 L 129.167969 50.253906 L 128.394531 49.542969 L 127.605469 48.851562 L 126.800781 48.191406 L 125.984375 47.554688 L 125.15625 46.945312 L 124.3125 46.359375 L 123.460938 45.804688 L 122.59375 45.273438 L 121.714844 44.773438 L 120.828125 44.296875 L 119.929688 43.851562 L 119.019531 43.433594 L 118.101562 43.046875 L 117.175781 42.6875 L 116.238281 42.355469 L 115.296875 42.058594 L 114.34375 41.785156 L 113.382812 41.546875 L 112.417969 41.335938 L 111.445312 41.152344 L 110.464844 41.003906 L 109.480469 40.882812 L 108.492188 40.796875 L 107.496094 40.738281 L 106.5 40.710938 L 105.496094 40.714844 L 104.492188 40.75 L 103.484375 40.816406 L 102.472656 40.914062 L 101.460938 41.039062 L 100.449219 41.199219 L 99.433594 41.390625 L 98.421875 41.613281 L 97.40625 41.863281 L 96.394531 42.148438 L 95.382812 42.464844 L 94.371094 42.808594 L 93.363281 43.183594 L 92.355469 43.589844 L 91.351562 44.027344 L 90.351562 44.496094 L 89.359375 44.996094 L 88.367188 45.523438 L 87.378906 46.082031 L 86.398438 46.667969 L 85.425781 47.285156 L 84.457031 47.929688 L 83.496094 48.605469 L 82.539062 49.308594 L 81.59375 50.039062 L 80.65625 50.800781 L 79.726562 51.585938 L 78.804688 52.402344 L 77.894531 53.246094 L 76.992188 54.113281 L 76.101562 55.011719 L 75.222656 55.929688 L 74.351562 56.878906 L 73.496094 57.851562 L 72.648438 58.847656 L 71.816406 59.871094 L 70.996094 60.914062 L 70.191406 61.984375 L 69.394531 63.078125 L 68.617188 64.191406 L 67.851562 65.328125 L 67.101562 66.488281 L 66.367188 67.667969 L 65.648438 68.867188 L 64.945312 70.089844 L 64.253906 71.328125 L 63.585938 72.589844 L 62.929688 73.867188 L 62.292969 75.164062 L 61.671875 76.476562 L 61.070312 77.804688 L 60.484375 79.152344 L 59.921875 80.511719 L 59.371094 81.890625 L 58.84375 83.28125 L 58.335938 84.683594 L 57.84375 86.101562 L 57.371094 87.53125 L 56.921875 88.972656 L 56.492188 90.425781 L 56.078125 91.890625 L 55.691406 93.363281 L 55.320312 94.84375 L 54.96875 96.335938 L 54.640625 97.835938 L 54.335938 99.339844 L 54.050781 100.851562 L 53.785156 102.371094 L 53.542969 103.894531 L 53.320312 105.421875 L 53.121094 106.953125 L 52.945312 108.488281 L 52.789062 110.023438 L 52.652344 111.5625 L 52.542969 113.101562 L 52.453125 114.640625 L 52.386719 116.175781 L 52.339844 117.714844 L 52.316406 119.25 L 52.316406 120.78125 L 52.339844 122.3125 L 52.382812 123.835938 L 52.449219 125.355469 L 52.539062 126.871094 L 52.648438 128.378906 L 52.78125 129.882812 L 52.9375 131.375 L 53.113281 132.859375 L 53.3125 134.335938 L 53.53125 135.804688 L 53.773438 137.261719 L 54.039062 138.707031 L 54.324219 140.140625 L 54.632812 141.5625 L 54.960938 142.96875 L 55.308594 144.363281 L 55.679688 145.742188 L 56.070312 147.109375 L 56.484375 148.457031 L 56.917969 149.789062 L 57.367188 151.105469 L 57.839844 152.40625 L 58.335938 153.683594 L 58.847656 154.945312 L 59.378906 156.1875 L 59.929688 157.410156 L 60.496094 158.609375 L 61.085938 159.789062 L 61.691406 160.949219 L 62.316406 162.085938 L 62.957031 163.199219 L 63.617188 164.289062 L 64.292969 165.351562 L 64.988281 166.394531 L 65.695312 167.410156 L 66.421875 168.402344 L 67.164062 169.367188 L 67.921875 170.304688 L 68.695312 171.21875 L 69.480469 172.101562 L 70.285156 172.960938 L 71.101562 173.789062 L 71.929688 174.589844 L 72.773438 175.359375 L 73.628906 176.101562 L 74.496094 176.8125 L 75.375 177.496094 L 76.269531 178.148438 L 77.171875 178.769531 L 78.085938 179.359375 L 79.011719 179.917969 L 79.945312 180.445312 L 80.886719 180.9375 L 81.839844 181.402344 L 82.804688 181.832031 L 83.773438 182.230469 L 84.75 182.59375 L 85.734375 182.925781 L 86.726562 183.222656 L 87.726562 183.488281 L 88.730469 183.71875 L 89.738281 183.917969 L 90.753906 184.082031 L 91.773438 184.210938 L 92.796875 184.304688 L 93.824219 184.367188 L 94.851562 184.394531 L 95.886719 184.386719 L 96.921875 184.34375 L 97.957031 184.269531 L 98.992188 184.15625 L 100.03125 184.011719 L 101.070312 183.835938 L 102.109375 183.621094 L 103.144531 183.375 L 104.179688 183.09375 L 105.214844 182.777344 L 106.246094 182.425781 L 107.273438 182.042969 L 108.300781 181.625 L 109.324219 181.175781 L 110.339844 180.691406 L 111.355469 180.171875 L 112.363281 179.625 L 113.367188 179.039062 L 114.363281 178.425781 L 115.351562 177.777344 L 116.335938 177.097656 L 117.3125 176.382812 L 118.277344 175.640625 L 119.238281 174.867188 L 120.1875 174.0625 L 121.128906 173.222656 L 122.0625 172.359375 L 122.984375 171.460938 L 123.894531 170.535156 L 124.792969 169.582031 L 125.683594 168.597656 L 126.558594 167.585938 L 127.425781 166.546875 L 128.277344 165.480469 L 129.117188 164.382812 L 129.941406 163.261719 L 130.753906 162.117188 L 131.550781 160.945312 L 132.335938 159.746094 L 133.101562 158.523438 L 133.855469 157.277344 L 134.59375 156.007812 L 135.316406 154.714844 L 136.019531 153.398438 L 136.707031 152.0625 L 137.378906 150.703125 L 138.035156 149.320312 L 138.671875 147.921875 L 139.289062 146.503906 L 139.890625 145.0625 L 140.472656 143.605469 L 141.035156 142.132812 L 141.582031 140.640625 L 142.105469 139.132812 L 142.613281 137.609375 L 143.097656 136.070312 L 143.566406 134.515625 L 144.011719 132.949219 L 144.4375 131.367188 L 144.84375 129.773438 L 145.226562 128.167969 L 145.589844 126.554688 L 145.933594 124.925781 L 146.253906 123.289062 L 146.554688 121.644531 L 146.832031 119.992188 L 147.089844 118.328125 L 147.324219 116.660156 L 147.539062 114.988281 L 147.730469 113.304688 L 147.898438 111.621094 L 148.042969 109.933594 L 148.167969 108.242188 L 148.273438 106.546875 L 148.351562 104.851562 L 148.410156 103.152344 L 148.445312 101.453125 L 148.457031 99.757812 L 148.449219 98.0625 L 148.417969 96.367188 L 148.363281 94.675781 L 148.289062 92.984375 L 148.1875 91.300781 L 148.066406 89.621094 L 147.925781 87.945312 L 147.761719 86.277344 L 147.574219 84.617188 L 147.363281 82.960938 L 147.132812 81.316406 L 146.878906 79.679688 L 146.605469 78.054688 L 146.308594 76.4375 L 145.992188 74.832031 L 145.65625 73.238281 L 145.296875 71.65625 L 144.914062 70.089844 L 144.515625 68.535156 L 144.09375 66.996094 L 143.652344 65.46875 L 143.191406 63.960938 L 142.710938 62.46875 L 142.207031 60.992188 L 141.6875 59.535156 L 141.148438 58.097656 L 140.589844 56.675781 L 140.011719 55.273438 L 139.417969 53.894531 L 138.804688 52.53125 L 138.171875 51.191406 L 137.523438 49.875 L 136.859375 48.582031 L 136.175781 47.308594 L 135.476562 46.058594 L 134.761719 44.835938 L 134.03125 43.632812 L 133.285156 42.457031 L 132.523438 41.308594 L 131.746094 40.183594 L 130.953125 39.085938 L 130.148438 38.015625 L 129.332031 36.972656 L 128.5 35.957031 L 127.652344 34.96875 L 126.796875 34.007812 L 125.925781 33.078125 L 125.046875 32.175781 L 124.152344 31.304688 L 123.25 30.460938 L 122.335938 29.648438 L 121.414062 28.867188 L 120.480469 28.117188 L 119.539062 27.398438 L 118.585938 26.710938 L 117.628906 26.054688 L 116.660156 25.429688 L 115.6875 24.839844 L 114.707031 24.277344 L 113.71875 23.753906 "/>
</g>
</svg>
