<?xml version="1.0" encoding="UTF-8"?>
<svg xmlns="http://www.w3.org/2000/svg" xmlns:xlink="http://www.w3.org/1999/xlink" width="600pt" height="200pt" viewBox="0 0 600 200" version="1.1">
<defs>
<clipPath id="id1">
  <path d="M 10 10 L 141 10 L 141 106 L 10 106 Z M 10 10 "/>
</clipPath>
<clipPath id="id2">
  <path d="M 140.902344 105.105469 L 40.902344 105.105469 L 10 10 "/>
</clipPath>
<clipPath id="id3">
  <path d="M 32 10 L 141 10 L 141 106 L 32 106 Z M 32 10 "/>
</clipPath>
<clipPath id="id4">
  <path d="M 140.902344 105.105469 L 40.902344 105.105469 L 10 10 Z M 140.902344 105.105469 "/>
</clipPath>
<clipPath id="id5">
  <path d="M 10 10 L 69 10 L 69 69 L 10 69 Z M 10 10 "/>
</clipPath>
<clipPath id="id6">
  <path d="M 140.902344 105.105469 L 40.902344 105.105469 L 10 10 Z M 140.902344 105.105469 "/>
</clipPath>
<clipPath id="id7">
  <path d="M 10 10 L 141 10 L 141 106 L 10 106 Z M 10 10 "/>
</clipPath>
<clipPath id="id8">
  <path d="M 140.902344 105.105469 L 110 10 L 10 10 "/>
</clipPath>
<clipPath id="id9">
  <path d="M 32 10 L 141 10 L 141 106 L 32 106 Z M 32 10 "/>
</clipPath>
<clipPath id="id10">
  <path d="M 140.902344 105.105469 L 110 10 L 10 10 Z M 140.902344 105.105469 "/>
</clipPath>
<clipPath id="id11">
  <path d="M 10 10 L 69 10 L 69 69 L 10 69 Z M 10 10 "/>
</clipPath>
<clipPath id="id12">
  <path d="M 140.902344 105.105469 L 110 10 L 10 10 Z M 140.902344 105.105469 "/>
</clipPath>
<clipPath id="id13">
  <path d="M 10 130 L 110 130 L 110 189 L 10 189 Z M 10 130 "/>
</clipPath>
<clipPath id="id14">
  <path d="M 110 130 L 10 130 L 90.902344 188.777344 "/>
</clipPath>
<clipPath id="id15">
  <path d="M 51 130 L 110 130 L 110 189 L 51 189 Z M 51 130 "/>
</clipPath>
<clipPath id="id16">
  <path d="M 110 130 L 10 130 L 90.902344 188.777344 Z M 110 130 "/>
</clipPath>
<clipPath id="id17">
  <path d="M 42 140 L 110 140 L 110 189 L 42 189 Z M 42 140 "/>
</clipPath>
<clipPath id="id18">
  <path d="M 110 130 L 10 130 L 90.902344 188.777344 Z M 110 130 "/>
</clipPath>
<clipPath id="id19">
  <path d="M 90 130 L 191 130 L 191 189 L 90 189 Z M 90 130 "/>
</clipPath>
<clipPath id="id20">
  <path d="M 110 130 L 190.902344 188.777344 L 90.902344 188.777344 "/>
</clipPath>
<clipPath id="id21">
  <path d="M 90 130 L 169 130 L 169 189 L 90 189 Z M 90 130 "/>
</clipPath>
<clipPath id="id22">
  <path d="M 110 130 L 190.902344 188.777344 L 90.902344 188.777344 Z M 110 130 "/>
</clipPath>
<clipPath id="id23">
  <path d="M 90 140 L 140 140 L 140 189 L 90 189 Z M 90 140 "/>
</clipPath>
<clipPath id="id24">
  <path d="M 110 130 L 190.902344 188.777344 L 90.902344 188.777344 Z M 110 130 "/>
</clipPath>
<clipPath id="id25">
  <path d="M 260 46 L 341 46 L 341 106 L 260 106 Z M 260 46 "/>
</clipPath>
<clipPath id="id26">
  <path d="M 260 46.328125 L 279.097656 105.105469 L 340.902344 105.105469 "/>
</clipPath>
<clipPath id="id27">
  <path d="M 260 46 L 338 46 L 338 106 L 260 106 Z M 260 46 "/>
</clipPath>
<clipPath id="id28">
  <path d="M 260 46.328125 L 279.097656 105.105469 L 340.902344 105.105469 Z M 260 46.328125 "/>
</clipPath>
<clipPath id="id29">
  <path d="M 294 58 L 341 58 L 341 106 L 294 106 Z M 294 58 "/>
</clipPath>
<clipPath id="id30">
  <path d="M 260 46.328125 L 279.097656 105.105469 L 340.902344 105.105469 Z M 260 46.328125 "/>
</clipPath>
<clipPath id="id31">
  <path d="M 240 46 L 280 46 L 280 106 L 240 106 Z M 240 46 "/>
</clipPath>
<clipPath id="id32">
  <path d="M 240.902344 105.105469 L 260 46.328125 L 279.097656 105.105469 "/>
</clipPath>
<clipPath id="id33">
  <path d="M 240 58 L 280 58 L 280 106 L 240 106 Z M 240 58 "/>
</clipPath>
<clipPath id="id34">
  <path d="M 240.902344 105.105469 L 260 46.328125 L 279.097656 105.105469 Z M 240.902344 105.105469 "/>
</clipPath>
<clipPath id="id35">
  <path d="M 240 64 L 280 64 L 280 106 L 240 106 Z M 240 64 "/>
</clipPath>
<clipPath id="id36">
  <path d="M 240.902344 105.105469 L 260 46.328125 L 279.097656 105.105469 Z M 240.902344 105.105469 "/>
</clipPath>
<clipPath id="id37">
  <path d="M 210 10 L 260 10 L 260 106 L 210 106 Z M 210 10 "/>
</clipPath>
<clipPath id="id38">
  <path d="M 210 10 L 260 46.328125 L 240.902344 105.105469 "/>
</clipPath>
<clipPath id="id39">
  <path d="M 210 10 L 260 10 L 260 88 L 210 88 Z M 210 10 "/>
</clipPath>
<clipPath id="id40">
  <path d="M 210 10 L 260 46.328125 L 240.902344 105.105469 Z M 210 10 "/>
</clipPath>
<clipPath id="id41">
  <path d="M 210 58 L 260 58 L 260 106 L 210 106 Z M 210 58 "/>
</clipPath>
<clipPath id="id42">
  <path d="M 210 10 L 260 46.328125 L 240.902344 105.105469 Z M 210 10 "/>
</clipPath>
<clipPath id="id43">
  <path d="M 260 46 L 341 46 L 341 106 L 260 106 Z M 260 46 "/>
</clipPath>
<clipPath id="id44">
  <path d="M 260 46.328125 L 321.804688 46.328125 L 340.902344 105.105469 "/>
</clipPath>
<clipPath id="id45">
  <path d="M 260 46 L 338 46 L 338 106 L 260 106 Z M 260 46 "/>
</clipPath>
<clipPath id="id46">
  <path d="M 260 46.328125 L 321.804688 46.328125 L 340.902344 105.105469 Z M 260 46.328125 "/>
</clipPath>
<clipPath id="id47">
  <path d="M 294 58 L 341 58 L 341 106 L 294 106 Z M 294 58 "/>
</clipPath>
<clipPath id="id48">
  <path d="M 260 46.328125 L 321.804688 46.328125 L 340.902344 105.105469 Z M 260 46.328125 "/>
</clipPath>
<clipPath id="id49">
  <path d="M 260 10 L 322 10 L 322 47 L 260 47 Z M 260 10 "/>
</clipPath>
<clipPath id="id50">
  <path d="M 310 10 L 260 46.328125 L 321.804688 46.328125 "/>
</clipPath>
<clipPath id="id51">
  <path d="M 263 10 L 322 10 L 322 47 L 263 47 Z M 263 10 "/>
</clipPath>
<clipPath id="id52">
  <path d="M 310 10 L 260 46.328125 L 321.804688 46.328125 Z M 310 10 "/>
</clipPath>
<clipPath id="id53">
  <path d="M 281 10 L 322 10 L 322 47 L 281 47 Z M 281 10 "/>
</clipPath>
<clipPath id="id54">
  <path d="M 310 10 L 260 46.328125 L 321.804688 46.328125 Z M 310 10 "/>
</clipPath>
<clipPath id="id55">
  <path d="M 210 10 L 310 10 L 310 47 L 210 47 Z M 210 10 "/>
</clipPath>
<clipPath id="id56">
  <path d="M 210 10 L 260 46.328125 L 310 10 "/>
</clipPath>
<clipPath id="id57">
  <path d="M 210 10 L 288 10 L 288 47 L 210 47 Z M 210 10 "/>
</clipPath>
<clipPath id="id58">
  <path d="M 210 10 L 260 46.328125 L 310 10 Z M 210 10 "/>
</clipPath>
<clipPath id="id59">
  <path d="M 263 10 L 310 10 L 310 47 L 263 47 Z M 263 10 "/>
</clipPath>
<clipPath id="id60">
  <path d="M 210 10 L 260 46.328125 L 310 10 Z M 210 10 "/>
</clipPath>
<clipPath id="id61">
  <path d="M 210 130 L 310 130 L 310 167 L 210 167 Z M 210 130 "/>
</clipPath>
<clipPath id="id62">
  <path d="M 310 130 L 260 166.328125 L 210 130 "/>
</clipPath>
<clipPath id="id63">
  <path d="M 232 130 L 310 130 L 310 167 L 232 167 Z M 232 130 "/>
</clipPath>
<clipPath id="id64">
  <path d="M 310 130 L 260 166.328125 L 210 130 Z M 310 130 "/>
</clipPath>
<clipPath id="id65">
  <path d="M 210 130 L 257 130 L 257 167 L 210 167 Z M 210 130 "/>
</clipPath>
<clipPath id="id66">
  <path d="M 310 130 L 260 166.328125 L 210 130 Z M 310 130 "/>
</clipPath>
<clipPath id="id67">
  <path d="M 260 130 L 310 130 L 310 189 L 260 189 Z M 260 130 "/>
</clipPath>
<clipPath id="id68">
  <path d="M 290.902344 188.777344 L 310 130 L 260 166.328125 "/>
</clipPath>
<clipPath id="id69">
  <path d="M 260 141 L 310 141 L 310 189 L 260 189 Z M 260 141 "/>
</clipPath>
<clipPath id="id70">
  <path d="M 290.902344 188.777344 L 310 130 L 260 166.328125 Z M 290.902344 188.777344 "/>
</clipPath>
<clipPath id="id71">
  <path d="M 260 130 L 301 130 L 301 189 L 260 189 Z M 260 130 "/>
</clipPath>
<clipPath id="id72">
  <path d="M 290.902344 188.777344 L 310 130 L 260 166.328125 Z M 290.902344 188.777344 "/>
</clipPath>
<clipPath id="id73">
  <path d="M 310 130 L 391 130 L 391 189 L 310 189 Z M 310 130 "/>
</clipPath>
<clipPath id="id74">
  <path d="M 310 130 L 329.097656 188.777344 L 390.902344 188.777344 "/>
</clipPath>
<clipPath id="id75">
  <path d="M 310 130 L 388 130 L 388 189 L 310 189 Z M 310 130 "/>
</clipPath>
<clipPath id="id76">
  <path d="M 310 130 L 329.097656 188.777344 L 390.902344 188.777344 Z M 310 130 "/>
</clipPath>
<clipPath id="id77">
  <path d="M 344 141 L 391 141 L 391 189 L 344 189 Z M 344 141 "/>
</clipPath>
<clipPath id="id78">
  <path d="M 310 130 L 329.097656 188.777344 L 390.902344 188.777344 Z M 310 130 "/>
</clipPath>
<clipPath id="id79">
  <path d="M 290 130 L 330 130 L 330 189 L 290 189 Z M 290 130 "/>
</clipPath>
<clipPath id="id80">
  <path d="M 290.902344 188.777344 L 310 130 L 329.097656 188.777344 "/>
</clipPath>
<clipPath id="id81">
  <path d="M 290 141 L 330 141 L 330 189 L 290 189 Z M 290 141 "/>
</clipPath>
<clipPath id="id82">
  <path d="M 290.902344 188.777344 L 310 130 L 329.097656 188.777344 Z M 290.902344 188.777344 "/>
</clipPath>
<clipPath id="id83">
  <path d="M 290 148 L 330 148 L 330 189 L 290 189 Z M 290 148 "/>
</clipPath>
<clipPath id="id84">
  <path d="M 290.902344 188.777344 L 310 130 L 329.097656 188.777344 Z M 290.902344 188.777344 "/>
</clipPath>
<clipPath id="id85">
  <path d="M 460 46 L 510 46 L 510 83 L 460 83 Z M 460 46 "/>
</clipPath>
<clipPath id="id86">
  <path d="M 510 82.652344 L 471.804688 82.652344 L 460 46.328125 "/>
</clipPath>
<clipPath id="id87">
  <path d="M 460 46 L 510 46 L 510 83 L 460 83 Z M 460 46 "/>
</clipPath>
<clipPath id="id88">
  <path d="M 510 82.652344 L 471.804688 82.652344 L 460 46.328125 Z M 510 82.652344 "/>
</clipPath>
<clipPath id="id89">
  <path d="M 460 46 L 500 46 L 500 83 L 460 83 Z M 460 46 "/>
</clipPath>
<clipPath id="id90">
  <path d="M 510 82.652344 L 471.804688 82.652344 L 460 46.328125 Z M 510 82.652344 "/>
</clipPath>
<clipPath id="id91">
  <path d="M 471 82 L 510 82 L 510 106 L 471 106 Z M 471 82 "/>
</clipPath>
<clipPath id="id92">
  <path d="M 479.097656 105.105469 L 510 82.652344 L 471.804688 82.652344 "/>
</clipPath>
<clipPath id="id93">
  <path d="M 471 82 L 510 82 L 510 106 L 471 106 Z M 471 82 "/>
</clipPath>
<clipPath id="id94">
  <path d="M 479.097656 105.105469 L 510 82.652344 L 471.804688 82.652344 Z M 479.097656 105.105469 "/>
</clipPath>
<clipPath id="id95">
  <path d="M 471 82 L 508 82 L 508 106 L 471 106 Z M 471 82 "/>
</clipPath>
<clipPath id="id96">
  <path d="M 479.097656 105.105469 L 510 82.652344 L 471.804688 82.652344 Z M 479.097656 105.105469 "/>
</clipPath>
<clipPath id="id97">
  <path d="M 479 82 L 541 82 L 541 106 L 479 106 Z M 479 82 "/>
</clipPath>
<clipPath id="id98">
  <path d="M 540.902344 105.105469 L 510 82.652344 L 479.097656 105.105469 "/>
</clipPath>
<clipPath id="id99">
  <path d="M 482 82 L 541 82 L 541 106 L 482 106 Z M 482 82 "/>
</clipPath>
<clipPath id="id100">
  <path d="M 540.902344 105.105469 L 510 82.652344 L 479.097656 105.105469 Z M 540.902344 105.105469 "/>
</clipPath>
<clipPath id="id101">
  <path d="M 479 82 L 519 82 L 519 106 L 479 106 Z M 479 82 "/>
</clipPath>
<clipPath id="id102">
  <path d="M 540.902344 105.105469 L 510 82.652344 L 479.097656 105.105469 Z M 540.902344 105.105469 "/>
</clipPath>
<clipPath id="id103">
  <path d="M 440 46 L 472 46 L 472 106 L 440 106 Z M 440 46 "/>
</clipPath>
<clipPath id="id104">
  <path d="M 440.902344 105.105469 L 471.804688 82.652344 L 460 46.328125 "/>
</clipPath>
<clipPath id="id105">
  <path d="M 440 46 L 472 46 L 472 106 L 440 106 Z M 440 46 "/>
</clipPath>
<clipPath id="id106">
  <path d="M 440.902344 105.105469 L 471.804688 82.652344 L 460 46.328125 Z M 440.902344 105.105469 "/>
</clipPath>
<clipPath id="id107">
  <path d="M 440 46 L 472 46 L 472 87 L 440 87 Z M 440 46 "/>
</clipPath>
<clipPath id="id108">
  <path d="M 440.902344 105.105469 L 471.804688 82.652344 L 460 46.328125 Z M 440.902344 105.105469 "/>
</clipPath>
<clipPath id="id109">
  <path d="M 440 82 L 480 82 L 480 106 L 440 106 Z M 440 82 "/>
</clipPath>
<clipPath id="id110">
  <path d="M 479.097656 105.105469 L 440.902344 105.105469 L 471.804688 82.652344 "/>
</clipPath>
<clipPath id="id111">
  <path d="M 440 82 L 480 82 L 480 106 L 440 106 Z M 440 82 "/>
</clipPath>
<clipPath id="id112">
  <path d="M 479.097656 105.105469 L 440.902344 105.105469 L 471.804688 82.652344 Z M 479.097656 105.105469 "/>
</clipPath>
<clipPath id="id113">
  <path d="M 410 10 L 441 10 L 441 69 L 410 69 Z M 410 10 "/>
</clipPath>
<clipPath id="id114">
  <path d="M 429.097656 68.777344 L 440.902344 32.453125 L 410 10 "/>
</clipPath>
<clipPath id="id115">
  <path d="M 410 10 L 441 10 L 441 69 L 410 69 Z M 410 10 "/>
</clipPath>
<clipPath id="id116">
  <path d="M 429.097656 68.777344 L 440.902344 32.453125 L 410 10 Z M 429.097656 68.777344 "/>
</clipPath>
<clipPath id="id117">
  <path d="M 410 10 L 441 10 L 441 50 L 410 50 Z M 410 10 "/>
</clipPath>
<clipPath id="id118">
  <path d="M 429.097656 68.777344 L 440.902344 32.453125 L 410 10 Z M 429.097656 68.777344 "/>
</clipPath>
<clipPath id="id119">
  <path d="M 429 32 L 460 32 L 460 69 L 429 69 Z M 429 32 "/>
</clipPath>
<clipPath id="id120">
  <path d="M 460 46.328125 L 429.097656 68.777344 L 440.902344 32.453125 "/>
</clipPath>
<clipPath id="id121">
  <path d="M 429 32 L 460 32 L 460 69 L 429 69 Z M 429 32 "/>
</clipPath>
<clipPath id="id122">
  <path d="M 460 46.328125 L 429.097656 68.777344 L 440.902344 32.453125 Z M 460 46.328125 "/>
</clipPath>
<clipPath id="id123">
  <path d="M 429 46 L 460 46 L 460 106 L 429 106 Z M 429 46 "/>
</clipPath>
<clipPath id="id124">
  <path d="M 440.902344 105.105469 L 429.097656 68.777344 L 460 46.328125 "/>
</clipPath>
<clipPath id="id125">
  <path d="M 429 46 L 460 46 L 460 106 L 429 106 Z M 429 46 "/>
</clipPath>
<clipPath id="id126">
  <path d="M 440.902344 105.105469 L 429.097656 68.777344 L 460 46.328125 Z M 440.902344 105.105469 "/>
</clipPath>
<clipPath id="id127">
  <path d="M 429 46 L 460 46 L 460 87 L 429 87 Z M 429 46 "/>
</clipPath>
<clipPath id="id128">
  <path d="M 440.902344 105.105469 L 429.097656 68.777344 L 460 46.328125 Z M 440.902344 105.105469 "/>
</clipPath>
<clipPath id="id129">
  <path d="M 460 46 L 510 46 L 510 83 L 460 83 Z M 460 46 "/>
</clipPath>
<clipPath id="id130">
  <path d="M 510 82.652344 L 498.195312 46.328125 L 460 46.328125 "/>
</clipPath>
<clipPath id="id131">
  <path d="M 460 46 L 510 46 L 510 83 L 460 83 Z M 460 46 "/>
</clipPath>
<clipPath id="id132">
  <path d="M 510 82.652344 L 498.195312 46.328125 L 460 46.328125 Z M 510 82.652344 "/>
</clipPath>
<clipPath id="id133">
  <path d="M 460 46 L 500 46 L 500 83 L 460 83 Z M 460 46 "/>
</clipPath>
<clipPath id="id134">
  <path d="M 510 82.652344 L 498.195312 46.328125 L 460 46.328125 Z M 510 82.652344 "/>
</clipPath>
<clipPath id="id135">
  <path d="M 498 46 L 522 46 L 522 83 L 498 83 Z M 498 46 "/>
</clipPath>
<clipPath id="id136">
  <path d="M 521.804688 46.328125 L 510 82.652344 L 498.195312 46.328125 "/>
</clipPath>
<clipPath id="id137">
  <path d="M 498 46 L 522 46 L 522 83 L 498 83 Z M 498 46 "/>
</clipPath>
<clipPath id="id138">
  <path d="M 521.804688 46.328125 L 510 82.652344 L 498.195312 46.328125 Z M 521.804688 46.328125 "/>
</clipPath>
<clipPath id="id139">
  <path d="M 510 46 L 541 46 L 541 106 L 510 106 Z M 510 46 "/>
</clipPath>
<clipPath id="id140">
  <path d="M 540.902344 105.105469 L 510 82.652344 L 521.804688 46.328125 "/>
</clipPath>
<clipPath id="id141">
  <path d="M 510 46 L 541 46 L 541 106 L 510 106 Z M 510 46 "/>
</clipPath>
<clipPath id="id142">
  <path d="M 540.902344 105.105469 L 510 82.652344 L 521.804688 46.328125 Z M 540.902344 105.105469 "/>
</clipPath>
<clipPath id="id143">
  <path d="M 510 46 L 541 46 L 541 87 L 510 87 Z M 510 46 "/>
</clipPath>
<clipPath id="id144">
  <path d="M 540.902344 105.105469 L 510 82.652344 L 521.804688 46.328125 Z M 540.902344 105.105469 "/>
</clipPath>
<clipPath id="id145">
  <path d="M 460 10 L 510 10 L 510 47 L 460 47 Z M 460 10 "/>
</clipPath>
<clipPath id="id146">
  <path d="M 510 10 L 498.195312 46.328125 L 460 46.328125 "/>
</clipPath>
<clipPath id="id147">
  <path d="M 460 10 L 510 10 L 510 47 L 460 47 Z M 460 10 "/>
</clipPath>
<clipPath id="id148">
  <path d="M 510 10 L 498.195312 46.328125 L 460 46.328125 Z M 510 10 "/>
</clipPath>
<clipPath id="id149">
  <path d="M 460 10 L 500 10 L 500 47 L 460 47 Z M 460 10 "/>
</clipPath>
<clipPath id="id150">
  <path d="M 510 10 L 498.195312 46.328125 L 460 46.328125 Z M 510 10 "/>
</clipPath>
<clipPath id="id151">
  <path d="M 498 10 L 522 10 L 522 47 L 498 47 Z M 498 10 "/>
</clipPath>
<clipPath id="id152">
  <path d="M 521.804688 46.328125 L 510 10 L 498.195312 46.328125 "/>
</clipPath>
<clipPath id="id153">
  <path d="M 498 10 L 522 10 L 522 47 L 498 47 Z M 498 10 "/>
</clipPath>
<clipPath id="id154">
  <path d="M 521.804688 46.328125 L 510 10 L 498.195312 46.328125 Z M 521.804688 46.328125 "/>
</clipPath>
<clipPath id="id155">
  <path d="M 410 10 L 472 10 L 472 33 L 410 33 Z M 410 10 "/>
</clipPath>
<clipPath id="id156">
  <path d="M 471.804688 10 L 440.902344 32.453125 L 410 10 "/>
</clipPath>
<clipPath id="id157">
  <path d="M 412 10 L 472 10 L 472 33 L 412 33 Z M 412 10 "/>
</clipPath>
<clipPath id="id158">
  <path d="M 471.804688 10 L 440.902344 32.453125 L 410 10 Z M 471.804688 10 "/>
</clipPath>
<clipPath id="id159">
  <path d="M 410 10 L 450 10 L 450 33 L 410 33 Z M 410 10 "/>
</clipPath>
<clipPath id="id160">
  <path d="M 471.804688 10 L 440.902344 32.453125 L 410 10 Z M 471.804688 10 "/>
</clipPath>
<clipPath id="id161">
  <path d="M 440 10 L 472 10 L 472 47 L 440 47 Z M 440 10 "/>
</clipPath>
<clipPath id="id162">
  <path d="M 460 46.328125 L 471.804688 10 L 440.902344 32.453125 "/>
</clipPath>
<clipPath id="id163">
  <path d="M 440 10 L 472 10 L 472 47 L 440 47 Z M 440 10 "/>
</clipPath>
<clipPath id="id164">
  <path d="M 460 46.328125 L 471.804688 10 L 440.902344 32.453125 Z M 460 46.328125 "/>
</clipPath>
<clipPath id="id165">
  <path d="M 460 10 L 510 10 L 510 47 L 460 47 Z M 460 10 "/>
</clipPath>
<clipPath id="id166">
  <path d="M 510 10 L 471.804688 10 L 460 46.328125 "/>
</clipPath>
<clipPath id="id167">
  <path d="M 460 10 L 510 10 L 510 47 L 460 47 Z M 460 10 "/>
</clipPath>
<clipPath id="id168">
  <path d="M 510 10 L 471.804688 10 L 460 46.328125 Z M 510 10 "/>
</clipPath>
<clipPath id="id169">
  <path d="M 460 10 L 500 10 L 500 47 L 460 47 Z M 460 10 "/>
</clipPath>
<clipPath id="id170">
  <path d="M 510 10 L 471.804688 10 L 460 46.328125 Z M 510 10 "/>
</clipPath>
<clipPath id="id171">
  <path d="M 448 130 L 510 130 L 510 153 L 448 153 Z M 448 130 "/>
</clipPath>
<clipPath id="id172">
  <path d="M 448.195312 130 L 479.097656 152.453125 L 510 130 "/>
</clipPath>
<clipPath id="id173">
  <path d="M 448 130 L 508 130 L 508 153 L 448 153 Z M 448 130 "/>
</clipPath>
<clipPath id="id174">
  <path d="M 448.195312 130 L 479.097656 152.453125 L 510 130 Z M 448.195312 130 "/>
</clipPath>
<clipPath id="id175">
  <path d="M 470 130 L 510 130 L 510 153 L 470 153 Z M 470 130 "/>
</clipPath>
<clipPath id="id176">
  <path d="M 448.195312 130 L 479.097656 152.453125 L 510 130 Z M 448.195312 130 "/>
</clipPath>
<clipPath id="id177">
  <path d="M 448 130 L 480 130 L 480 167 L 448 167 Z M 448 130 "/>
</clipPath>
<clipPath id="id178">
  <path d="M 460 166.328125 L 448.195312 130 L 479.097656 152.453125 "/>
</clipPath>
<clipPath id="id179">
  <path d="M 448 130 L 480 130 L 480 167 L 448 167 Z M 448 130 "/>
</clipPath>
<clipPath id="id180">
  <path d="M 460 166.328125 L 448.195312 130 L 479.097656 152.453125 Z M 460 166.328125 "/>
</clipPath>
<clipPath id="id181">
  <path d="M 410 130 L 460 130 L 460 167 L 410 167 Z M 410 130 "/>
</clipPath>
<clipPath id="id182">
  <path d="M 410 130 L 448.195312 130 L 460 166.328125 "/>
</clipPath>
<clipPath id="id183">
  <path d="M 410 130 L 460 130 L 460 167 L 410 167 Z M 410 130 "/>
</clipPath>
<clipPath id="id184">
  <path d="M 410 130 L 448.195312 130 L 460 166.328125 Z M 410 130 "/>
</clipPath>
<clipPath id="id185">
  <path d="M 420 130 L 460 130 L 460 167 L 420 167 Z M 420 130 "/>
</clipPath>
<clipPath id="id186">
  <path d="M 410 130 L 448.195312 130 L 460 166.328125 Z M 410 130 "/>
</clipPath>
<clipPath id="id187">
  <path d="M 479 130 L 510 130 L 510 189 L 479 189 Z M 479 130 "/>
</clipPath>
<clipPath id="id188">
  <path d="M 490.902344 188.777344 L 479.097656 152.453125 L 510 130 "/>
</clipPath>
<clipPath id="id189">
  <path d="M 479 130 L 510 130 L 510 189 L 479 189 Z M 479 130 "/>
</clipPath>
<clipPath id="id190">
  <path d="M 490.902344 188.777344 L 479.097656 152.453125 L 510 130 Z M 490.902344 188.777344 "/>
</clipPath>
<clipPath id="id191">
  <path d="M 479 130 L 510 130 L 510 170 L 479 170 Z M 479 130 "/>
</clipPath>
<clipPath id="id192">
  <path d="M 490.902344 188.777344 L 479.097656 152.453125 L 510 130 Z M 490.902344 188.777344 "/>
</clipPath>
<clipPath id="id193">
  <path d="M 460 152 L 491 152 L 491 189 L 460 189 Z M 460 152 "/>
</clipPath>
<clipPath id="id194">
  <path d="M 460 166.328125 L 490.902344 188.777344 L 479.097656 152.453125 "/>
</clipPath>
<clipPath id="id195">
  <path d="M 460 152 L 491 152 L 491 189 L 460 189 Z M 460 152 "/>
</clipPath>
<clipPath id="id196">
  <path d="M 460 166.328125 L 490.902344 188.777344 L 479.097656 152.453125 Z M 460 166.328125 "/>
</clipPath>
<clipPath id="id197">
  <path d="M 510 130 L 560 130 L 560 167 L 510 167 Z M 510 130 "/>
</clipPath>
<clipPath id="id198">
  <path d="M 560 166.328125 L 521.804688 166.328125 L 510 130 "/>
</clipPath>
<clipPath id="id199">
  <path d="M 510 130 L 560 130 L 560 167 L 510 167 Z M 510 130 "/>
</clipPath>
<clipPath id="id200">
  <path d="M 560 166.328125 L 521.804688 166.328125 L 510 130 Z M 560 166.328125 "/>
</clipPath>
<clipPath id="id201">
  <path d="M 510 130 L 550 130 L 550 167 L 510 167 Z M 510 130 "/>
</clipPath>
<clipPath id="id202">
  <path d="M 560 166.328125 L 521.804688 166.328125 L 510 130 Z M 560 166.328125 "/>
</clipPath>
<clipPath id="id203">
  <path d="M 521 166 L 560 166 L 560 189 L 521 189 Z M 521 166 "/>
</clipPath>
<clipPath id="id204">
  <path d="M 529.097656 188.777344 L 560 166.328125 L 521.804688 166.328125 "/>
</clipPath>
<clipPath id="id205">
  <path d="M 521 166 L 560 166 L 560 189 L 521 189 Z M 521 166 "/>
</clipPath>
<clipPath id="id206">
  <path d="M 529.097656 188.777344 L 560 166.328125 L 521.804688 166.328125 Z M 529.097656 188.777344 "/>
</clipPath>
<clipPath id="id207">
  <path d="M 521 166 L 558 166 L 558 189 L 521 189 Z M 521 166 "/>
</clipPath>
<clipPath id="id208">
  <path d="M 529.097656 188.777344 L 560 166.328125 L 521.804688 166.328125 Z M 529.097656 188.777344 "/>
</clipPath>
<clipPath id="id209">
  <path d="M 529 166 L 591 166 L 591 189 L 529 189 Z M 529 166 "/>
</clipPath>
<clipPath id="id210">
  <path d="M 590.902344 188.777344 L 560 166.328125 L 529.097656 188.777344 "/>
</clipPath>
<clipPath id="id211">
  <path d="M 532 166 L 591 166 L 591 189 L 532 189 Z M 532 166 "/>
</clipPath>
<clipPath id="id212">
  <path d="M 590.902344 188.777344 L 560 166.328125 L 529.097656 188.777344 Z M 590.902344 188.777344 "/>
</clipPath>
<clipPath id="id213">
  <path d="M 529 166 L 569 166 L 569 189 L 529 189 Z M 529 166 "/>
</clipPath>
<clipPath id="id214">
  <path d="M 590.902344 188.777344 L 560 166.328125 L 529.097656 188.777344 Z M 590.902344 188.777344 "/>
</clipPath>
<clipPath id="id215">
  <path d="M 490 130 L 522 130 L 522 189 L 490 189 Z M 490 130 "/>
</clipPath>
<clipPath id="id216">
  <path d="M 490.902344 188.777344 L 521.804688 166.328125 L 510 130 "/>
</clipPath>
<clipPath id="id217">
  <path d="M 490 130 L 522 130 L 522 189 L 490 189 Z M 490 130 "/>
</clipPath>
<clipPath id="id218">
  <path d="M 490.902344 188.777344 L 521.804688 166.328125 L 510 130 Z M 490.902344 188.777344 "/>
</clipPath>
<clipPath id="id219">
  <path d="M 490 130 L 522 130 L 522 170 L 490 170 Z M 490 130 "/>
</clipPath>
<clipPath id="id220">
  <path d="M 490.902344 188.777344 L 521.804688 166.328125 L 510 130 Z M 490.902344 188.777344 "/>
</clipPath>
<clipPath id="id221">
  <path d="M 490 166 L 530 166 L 530 189 L 490 189 Z M 490 166 "/>
</clipPath>
<clipPath id="id222">
  <path d="M 529.097656 188.777344 L 490.902344 188.777344 L 521.804688 166.328125 "/>
</clipPath>
<clipPath id="id223">
  <path d="M 490 166 L 530 166 L 530 189 L 490 189 Z M 490 166 "/>
</clipPath>
<clipPath id="id224">
  <path d="M 529.097656 188.777344 L 490.902344 188.777344 L 521.804688 166.328125 Z M 529.097656 188.777344 "/>
</clipPath>
</defs>
<g id="id225">
<g clip-path="url(#id1)" clip-rule="nonzero">
<g clip-path="url(#id2)" clip-rule="nonzero">
<path style="fill:none;stroke-width:2;stroke-linecap:butt;stroke-linejoin:miter;stroke:rgb(88.0722%,61.1041%,14.2051%);stroke-opacity:1;stroke-miterlimit:10;" d="M 130.902344 95.105469 L 30.902344 95.105469 L 0 0 " transform="matrix(1,0,0,1,10,10)"/>
<path style=" stroke:none;fill-rule:nonzero;fill:rgb(64.599945%,44.396697%,9.262145%);fill-opacity:0.5;" d="M 140.902344 105.105469 L 40.902344 105.105469 L 10 10 "/>
</g>
</g>
<g clip-path="url(#id3)" clip-rule="nonzero">
<g clip-path="url(#id4)" clip-rule="nonzero">
<path style="fill:none;stroke-width:2;stroke-linecap:butt;stroke-linejoin:miter;stroke:rgb(0%,0%,0%);stroke-opacity:1;stroke-miterlimit:10;" d="M 210.902344 95.105469 C 210.902344 139.289062 175.085938 175.105469 130.902344 175.105469 C 86.71875 175.105469 50.902344 139.289062 50.902344 95.105469 C 50.902344 50.921875 86.71875 15.105469 130.902344 15.105469 C 175.085938 15.105469 210.902344 50.921875 210.902344 95.105469 " transform="matrix(1,0,0,1,10,10)"/>
</g>
</g>
<g clip-path="url(#id5)" clip-rule="nonzero">
<g clip-path="url(#id6)" clip-rule="nonzero">
<path style="fill:none;stroke-width:2;stroke-linecap:butt;stroke-linejoin:miter;stroke:rgb(0%,0%,0%);stroke-opacity:1;stroke-miterlimit:10;" d="M 30 0 C 30 16.570312 16.570312 30 0 30 C -16.570312 30 -30 16.570312 -30 0 C -30 -16.570312 -16.570312 -30 0 -30 C 16.570312 -30 30 -16.570312 30 0 " transform="matrix(1,0,0,1,10,10)"/>
</g>
</g>
<g clip-path="url(#id7)" clip-rule="nonzero">
<g clip-path="url(#id8)" clip-rule="nonzero">
<path style="fill:none;stroke-width:2;stroke-linecap:butt;stroke-linejoin:miter;stroke:rgb(88.0722%,61.1041%,14.2051%);stroke-opacity:1;stroke-miterlimit:10;" d="M 130.902344 95.105469 L 100 0 L 0 0 " transform="matrix(1,0,0,1,10,10)"/>
<path style=" stroke:none;fill-rule:nonzero;fill:rgb(64.599945%,44.396697%,9.262145%);fill-opacity:0.5;" d="M 140.902344 105.105469 L 110 10 L 10 10 "/>
</g>
</g>
<g clip-path="url(#id9)" clip-rule="nonzero">
<g clip-path="url(#id10)" clip-rule="nonzero">
<path style="fill:none;stroke-width:2;stroke-linecap:butt;stroke-linejoin:miter;stroke:rgb(0%,0%,0%);stroke-opacity:1;stroke-miterlimit:10;" d="M 210.902344 95.105469 C 210.902344 139.289062 175.085938 175.105469 130.902344 175.105469 C 86.71875 175.105469 50.902344 139.289062 50.902344 95.105469 C 50.902344 50.921875 86.71875 15.105469 130.902344 15.105469 C 175.085938 15.105469 210.902344 50.921875 210.902344 95.105469 " transform="matrix(1,0,0,1,10,10)"/>
</g>
</g>
<g clip-path="url(#id11)" clip-rule="nonzero">
<g clip-path="url(#id12)" clip-rule="nonzero">
<path style="fill:none;stroke-width:2;stroke-linecap:butt;stroke-linejoin:miter;stroke:rgb(0%,0%,0%);stroke-opacity:1;stroke-miterlimit:10;" d="M 30 0 C 30 16.570312 16.570312 30 0 30 C -16.570312 30 -30 16.570312 -30 0 C -30 -16.570312 -16.570312 -30 0 -30 C 16.570312 -30 30 -16.570312 30 0 " transform="matrix(1,0,0,1,10,10)"/>
</g>
</g>
<g clip-path="url(#id13)" clip-rule="nonzero">
<g clip-path="url(#id14)" clip-rule="nonzero">
<path style="fill:none;stroke-width:2;stroke-linecap:butt;stroke-linejoin:miter;stroke:rgb(36.8417%,50.6779%,70.9798%);stroke-opacity:1;stroke-miterlimit:10;" d="M 100 120 L 0 120 L 80.902344 178.777344 " transform="matrix(1,0,0,1,10,10)"/>
<path style=" stroke:none;fill-rule:nonzero;fill:rgb(26.220434%,36.585873%,51.795113%);fill-opacity:0.5;" d="M 110 130 L 10 130 L 90.902344 188.777344 "/>
</g>
</g>
<g clip-path="url(#id15)" clip-rule="nonzero">
<g clip-path="url(#id16)" clip-rule="nonzero">
<path style="fill:none;stroke-width:2;stroke-linecap:butt;stroke-linejoin:miter;stroke:rgb(0%,0%,0%);stroke-opacity:1;stroke-miterlimit:10;" d="M 130 120 C 130 136.570312 116.570312 150 100 150 C 83.429688 150 70 136.570312 70 120 C 70 103.429688 83.429688 90 100 90 C 116.570312 90 130 103.429688 130 120 " transform="matrix(1,0,0,1,10,10)"/>
</g>
</g>
<g clip-path="url(#id17)" clip-rule="nonzero">
<g clip-path="url(#id18)" clip-rule="nonzero">
<path style="fill:none;stroke-width:2;stroke-linecap:butt;stroke-linejoin:miter;stroke:rgb(0%,0%,0%);stroke-opacity:1;stroke-miterlimit:10;" d="M 100.902344 178.777344 C 100.902344 189.824219 91.949219 198.777344 80.902344 198.777344 C 69.855469 198.777344 60.902344 189.824219 60.902344 178.777344 C 60.902344 167.734375 69.855469 158.777344 80.902344 158.777344 C 91.949219 158.777344 100.902344 167.734375 100.902344 178.777344 " transform="matrix(1,0,0,1,10,10)"/>
</g>
</g>
<g clip-path="url(#id19)" clip-rule="nonzero">
<g clip-path="url(#id20)" clip-rule="nonzero">
<path style="fill:none;stroke-width:2;stroke-linecap:butt;stroke-linejoin:miter;stroke:rgb(36.8417%,50.6779%,70.9798%);stroke-opacity:1;stroke-miterlimit:10;" d="M 100 120 L 180.902344 178.777344 L 80.902344 178.777344 " transform="matrix(1,0,0,1,10,10)"/>
<path style=" stroke:none;fill-rule:nonzero;fill:rgb(26.220434%,36.585873%,51.795113%);fill-opacity:0.5;" d="M 110 130 L 190.902344 188.777344 L 90.902344 188.777344 "/>
</g>
</g>
<g clip-path="url(#id21)" clip-rule="nonzero">
<g clip-path="url(#id22)" clip-rule="nonzero">
<path style="fill:none;stroke-width:2;stroke-linecap:butt;stroke-linejoin:miter;stroke:rgb(0%,0%,0%);stroke-opacity:1;stroke-miterlimit:10;" d="M 130 120 C 130 136.570312 116.570312 150 100 150 C 83.429688 150 70 136.570312 70 120 C 70 103.429688 83.429688 90 100 90 C 116.570312 90 130 103.429688 130 120 " transform="matrix(1,0,0,1,10,10)"/>
</g>
</g>
<g clip-path="url(#id23)" clip-rule="nonzero">
<g clip-path="url(#id24)" clip-rule="nonzero">
<path style="fill:none;stroke-width:2;stroke-linecap:butt;stroke-linejoin:miter;stroke:rgb(0%,0%,0%);stroke-opacity:1;stroke-miterlimit:10;" d="M 100.902344 178.777344 C 100.902344 189.824219 91.949219 198.777344 80.902344 198.777344 C 69.855469 198.777344 60.902344 189.824219 60.902344 178.777344 C 60.902344 167.734375 69.855469 158.777344 80.902344 158.777344 C 91.949219 158.777344 100.902344 167.734375 100.902344 178.777344 " transform="matrix(1,0,0,1,10,10)"/>
</g>
</g>
<path style="fill:none;stroke-width:2;stroke-linecap:butt;stroke-linejoin:miter;stroke:rgb(0%,0%,0%);stroke-opacity:1;stroke-miterlimit:10;" d="M 0 50 L 30 50 M 21.222656 45.207031 L 30 50 L 21.222656 54.792969 " transform="matrix(1,0,0,1,160,10)"/>
<path style="fill:none;stroke-width:2;stroke-linecap:butt;stroke-linejoin:miter;stroke:rgb(0%,0%,0%);stroke-opacity:1;stroke-miterlimit:10;" d="M 20 150 L 50 150 M 41.222656 145.207031 L 50 150 L 41.222656 154.792969 " transform="matrix(1,0,0,1,160,10)"/>
<g clip-path="url(#id25)" clip-rule="nonzero">
<g clip-path="url(#id26)" clip-rule="nonzero">
<path style="fill:none;stroke-width:2;stroke-linecap:butt;stroke-linejoin:miter;stroke:rgb(88.0722%,61.1041%,14.2051%);stroke-opacity:1;stroke-miterlimit:10;" d="M 50 36.328125 L 69.097656 95.105469 L 130.902344 95.105469 " transform="matrix(1,0,0,1,210,10)"/>
<path style=" stroke:none;fill-rule:nonzero;fill:rgb(64.599945%,44.396697%,9.262145%);fill-opacity:0.5;" d="M 260 46.328125 L 279.097656 105.105469 L 340.902344 105.105469 "/>
</g>
</g>
<g clip-path="url(#id27)" clip-rule="nonzero">
<g clip-path="url(#id28)" clip-rule="nonzero">
<path style="fill:none;stroke-width:2;stroke-linecap:butt;stroke-linejoin:miter;stroke:rgb(0%,0%,0%);stroke-opacity:1;stroke-miterlimit:10;" d="M 99.441406 36.328125 C 99.441406 63.632812 77.304688 85.769531 50 85.769531 C 22.695312 85.769531 0.558594 63.632812 0.558594 36.328125 C 0.558594 9.019531 22.695312 -13.117188 50 -13.117188 C 77.304688 -13.117188 99.441406 9.019531 99.441406 36.328125 " transform="matrix(1,0,0,1,210,10)"/>
</g>
</g>
<g clip-path="url(#id29)" clip-rule="nonzero">
<g clip-path="url(#id30)" clip-rule="nonzero">
<path style="fill:none;stroke-width:2;stroke-linecap:butt;stroke-linejoin:miter;stroke:rgb(0%,0%,0%);stroke-opacity:1;stroke-miterlimit:10;" d="M 149.441406 95.105469 C 149.441406 105.34375 141.140625 113.648438 130.902344 113.648438 C 120.660156 113.648438 112.359375 105.34375 112.359375 95.105469 C 112.359375 84.867188 120.660156 76.566406 130.902344 76.566406 C 141.140625 76.566406 149.441406 84.867188 149.441406 95.105469 " transform="matrix(1,0,0,1,210,10)"/>
</g>
</g>
<g clip-path="url(#id31)" clip-rule="nonzero">
<g clip-path="url(#id32)" clip-rule="nonzero">
<path style="fill:none;stroke-width:2;stroke-linecap:butt;stroke-linejoin:miter;stroke:rgb(36.8417%,50.6779%,70.9798%);stroke-opacity:1;stroke-miterlimit:10;" d="M 30.902344 95.105469 L 50 36.328125 L 69.097656 95.105469 " transform="matrix(1,0,0,1,210,10)"/>
<path style=" stroke:none;fill-rule:nonzero;fill:rgb(26.220434%,36.585873%,51.795113%);fill-opacity:0.5;" d="M 240.902344 105.105469 L 260 46.328125 L 279.097656 105.105469 "/>
</g>
</g>
<g clip-path="url(#id33)" clip-rule="nonzero">
<g clip-path="url(#id34)" clip-rule="nonzero">
<path style="fill:none;stroke-width:2;stroke-linecap:butt;stroke-linejoin:miter;stroke:rgb(0%,0%,0%);stroke-opacity:1;stroke-miterlimit:10;" d="M 49.441406 95.105469 C 49.441406 105.34375 41.140625 113.648438 30.902344 113.648438 C 20.660156 113.648438 12.359375 105.34375 12.359375 95.105469 C 12.359375 84.867188 20.660156 76.566406 30.902344 76.566406 C 41.140625 76.566406 49.441406 84.867188 49.441406 95.105469 " transform="matrix(1,0,0,1,210,10)"/>
</g>
</g>
<g clip-path="url(#id35)" clip-rule="nonzero">
<g clip-path="url(#id36)" clip-rule="nonzero">
<path style="fill:none;stroke-width:2;stroke-linecap:butt;stroke-linejoin:miter;stroke:rgb(0%,0%,0%);stroke-opacity:1;stroke-miterlimit:10;" d="M 81.457031 95.105469 C 81.457031 101.933594 75.925781 107.464844 69.097656 107.464844 C 62.273438 107.464844 56.738281 101.933594 56.738281 95.105469 C 56.738281 88.277344 62.273438 82.746094 69.097656 82.746094 C 75.925781 82.746094 81.457031 88.277344 81.457031 95.105469 " transform="matrix(1,0,0,1,210,10)"/>
</g>
</g>
<g clip-path="url(#id37)" clip-rule="nonzero">
<g clip-path="url(#id38)" clip-rule="nonzero">
<path style="fill:none;stroke-width:2;stroke-linecap:butt;stroke-linejoin:miter;stroke:rgb(88.0722%,61.1041%,14.2051%);stroke-opacity:1;stroke-miterlimit:10;" d="M 0 0 L 50 36.328125 L 30.902344 95.105469 " transform="matrix(1,0,0,1,210,10)"/>
<path style=" stroke:none;fill-rule:nonzero;fill:rgb(64.599945%,44.396697%,9.262145%);fill-opacity:0.5;" d="M 210 10 L 260 46.328125 L 240.902344 105.105469 "/>
</g>
</g>
<g clip-path="url(#id39)" clip-rule="nonzero">
<g clip-path="url(#id40)" clip-rule="nonzero">
<path style="fill:none;stroke-width:2;stroke-linecap:butt;stroke-linejoin:miter;stroke:rgb(0%,0%,0%);stroke-opacity:1;stroke-miterlimit:10;" d="M 49.441406 0 C 49.441406 27.304688 27.304688 49.441406 0 49.441406 C -27.304688 49.441406 -49.441406 27.304688 -49.441406 0 C -49.441406 -27.304688 -27.304688 -49.441406 0 -49.441406 C 27.304688 -49.441406 49.441406 -27.304688 49.441406 0 " transform="matrix(1,0,0,1,210,10)"/>
</g>
</g>
<g clip-path="url(#id41)" clip-rule="nonzero">
<g clip-path="url(#id42)" clip-rule="nonzero">
<path style="fill:none;stroke-width:2;stroke-linecap:butt;stroke-linejoin:miter;stroke:rgb(0%,0%,0%);stroke-opacity:1;stroke-miterlimit:10;" d="M 49.441406 95.105469 C 49.441406 105.34375 41.140625 113.648438 30.902344 113.648438 C 20.660156 113.648438 12.359375 105.34375 12.359375 95.105469 C 12.359375 84.867188 20.660156 76.566406 30.902344 76.566406 C 41.140625 76.566406 49.441406 84.867188 49.441406 95.105469 " transform="matrix(1,0,0,1,210,10)"/>
</g>
</g>
<g clip-path="url(#id43)" clip-rule="nonzero">
<g clip-path="url(#id44)" clip-rule="nonzero">
<path style="fill:none;stroke-width:2;stroke-linecap:butt;stroke-linejoin:miter;stroke:rgb(88.0722%,61.1041%,14.2051%);stroke-opacity:1;stroke-miterlimit:10;" d="M 50 36.328125 L 111.804688 36.328125 L 130.902344 95.105469 " transform="matrix(1,0,0,1,210,10)"/>
<path style=" stroke:none;fill-rule:nonzero;fill:rgb(64.599945%,44.396697%,9.262145%);fill-opacity:0.5;" d="M 260 46.328125 L 321.804688 46.328125 L 340.902344 105.105469 "/>
</g>
</g>
<g clip-path="url(#id45)" clip-rule="nonzero">
<g clip-path="url(#id46)" clip-rule="nonzero">
<path style="fill:none;stroke-width:2;stroke-linecap:butt;stroke-linejoin:miter;stroke:rgb(0%,0%,0%);stroke-opacity:1;stroke-miterlimit:10;" d="M 99.441406 36.328125 C 99.441406 63.632812 77.304688 85.769531 50 85.769531 C 22.695312 85.769531 0.558594 63.632812 0.558594 36.328125 C 0.558594 9.019531 22.695312 -13.117188 50 -13.117188 C 77.304688 -13.117188 99.441406 9.019531 99.441406 36.328125 " transform="matrix(1,0,0,1,210,10)"/>
</g>
</g>
<g clip-path="url(#id47)" clip-rule="nonzero">
<g clip-path="url(#id48)" clip-rule="nonzero">
<path style="fill:none;stroke-width:2;stroke-linecap:butt;stroke-linejoin:miter;stroke:rgb(0%,0%,0%);stroke-opacity:1;stroke-miterlimit:10;" d="M 149.441406 95.105469 C 149.441406 105.34375 141.140625 113.648438 130.902344 113.648438 C 120.660156 113.648438 112.359375 105.34375 112.359375 95.105469 C 112.359375 84.867188 120.660156 76.566406 130.902344 76.566406 C 141.140625 76.566406 149.441406 84.867188 149.441406 95.105469 " transform="matrix(1,0,0,1,210,10)"/>
</g>
</g>
<g clip-path="url(#id49)" clip-rule="nonzero">
<g clip-path="url(#id50)" clip-rule="nonzero">
<path style="fill:none;stroke-width:2;stroke-linecap:butt;stroke-linejoin:miter;stroke:rgb(36.8417%,50.6779%,70.9798%);stroke-opacity:1;stroke-miterlimit:10;" d="M 100 0 L 50 36.328125 L 111.804688 36.328125 " transform="matrix(1,0,0,1,210,10)"/>
<path style=" stroke:none;fill-rule:nonzero;fill:rgb(26.220434%,36.585873%,51.795113%);fill-opacity:0.5;" d="M 310 10 L 260 46.328125 L 321.804688 46.328125 "/>
</g>
</g>
<g clip-path="url(#id51)" clip-rule="nonzero">
<g clip-path="url(#id52)" clip-rule="nonzero">
<path style="fill:none;stroke-width:2;stroke-linecap:butt;stroke-linejoin:miter;stroke:rgb(0%,0%,0%);stroke-opacity:1;stroke-miterlimit:10;" d="M 118.542969 0 C 118.542969 10.238281 110.238281 18.542969 100 18.542969 C 89.761719 18.542969 81.457031 10.238281 81.457031 0 C 81.457031 -10.238281 89.761719 -18.542969 100 -18.542969 C 110.238281 -18.542969 118.542969 -10.238281 118.542969 0 " transform="matrix(1,0,0,1,210,10)"/>
</g>
</g>
<g clip-path="url(#id53)" clip-rule="nonzero">
<g clip-path="url(#id54)" clip-rule="nonzero">
<path style="fill:none;stroke-width:2;stroke-linecap:butt;stroke-linejoin:miter;stroke:rgb(0%,0%,0%);stroke-opacity:1;stroke-miterlimit:10;" d="M 124.164062 36.328125 C 124.164062 43.152344 118.628906 48.6875 111.804688 48.6875 C 104.976562 48.6875 99.441406 43.152344 99.441406 36.328125 C 99.441406 29.5 104.976562 23.964844 111.804688 23.964844 C 118.628906 23.964844 124.164062 29.5 124.164062 36.328125 " transform="matrix(1,0,0,1,210,10)"/>
</g>
</g>
<g clip-path="url(#id55)" clip-rule="nonzero">
<g clip-path="url(#id56)" clip-rule="nonzero">
<path style="fill:none;stroke-width:2;stroke-linecap:butt;stroke-linejoin:miter;stroke:rgb(88.0722%,61.1041%,14.2051%);stroke-opacity:1;stroke-miterlimit:10;" d="M 0 0 L 50 36.328125 L 100 0 " transform="matrix(1,0,0,1,210,10)"/>
<path style=" stroke:none;fill-rule:nonzero;fill:rgb(64.599945%,44.396697%,9.262145%);fill-opacity:0.5;" d="M 210 10 L 260 46.328125 L 310 10 "/>
</g>
</g>
<g clip-path="url(#id57)" clip-rule="nonzero">
<g clip-path="url(#id58)" clip-rule="nonzero">
<path style="fill:none;stroke-width:2;stroke-linecap:butt;stroke-linejoin:miter;stroke:rgb(0%,0%,0%);stroke-opacity:1;stroke-miterlimit:10;" d="M 49.441406 0 C 49.441406 27.304688 27.304688 49.441406 0 49.441406 C -27.304688 49.441406 -49.441406 27.304688 -49.441406 0 C -49.441406 -27.304688 -27.304688 -49.441406 0 -49.441406 C 27.304688 -49.441406 49.441406 -27.304688 49.441406 0 " transform="matrix(1,0,0,1,210,10)"/>
</g>
</g>
<g clip-path="url(#id59)" clip-rule="nonzero">
<g clip-path="url(#id60)" clip-rule="nonzero">
<path style="fill:none;stroke-width:2;stroke-linecap:butt;stroke-linejoin:miter;stroke:rgb(0%,0%,0%);stroke-opacity:1;stroke-miterlimit:10;" d="M 118.542969 0 C 118.542969 10.238281 110.238281 18.542969 100 18.542969 C 89.761719 18.542969 81.457031 10.238281 81.457031 0 C 81.457031 -10.238281 89.761719 -18.542969 100 -18.542969 C 110.238281 -18.542969 118.542969 -10.238281 118.542969 0 " transform="matrix(1,0,0,1,210,10)"/>
</g>
</g>
<g clip-path="url(#id61)" clip-rule="nonzero">
<g clip-path="url(#id62)" clip-rule="nonzero">
<path style="fill:none;stroke-width:2;stroke-linecap:butt;stroke-linejoin:miter;stroke:rgb(88.0722%,61.1041%,14.2051%);stroke-opacity:1;stroke-miterlimit:10;" d="M 100 120 L 50 156.328125 L 0 120 " transform="matrix(1,0,0,1,210,10)"/>
<path style=" stroke:none;fill-rule:nonzero;fill:rgb(64.599945%,44.396697%,9.262145%);fill-opacity:0.5;" d="M 310 130 L 260 166.328125 L 210 130 "/>
</g>
</g>
<g clip-path="url(#id63)" clip-rule="nonzero">
<g clip-path="url(#id64)" clip-rule="nonzero">
<path style="fill:none;stroke-width:2;stroke-linecap:butt;stroke-linejoin:miter;stroke:rgb(0%,0%,0%);stroke-opacity:1;stroke-miterlimit:10;" d="M 149.441406 120 C 149.441406 147.304688 127.304688 169.441406 100 169.441406 C 72.695312 169.441406 50.558594 147.304688 50.558594 120 C 50.558594 92.695312 72.695312 70.558594 100 70.558594 C 127.304688 70.558594 149.441406 92.695312 149.441406 120 " transform="matrix(1,0,0,1,210,10)"/>
</g>
</g>
<g clip-path="url(#id65)" clip-rule="nonzero">
<g clip-path="url(#id66)" clip-rule="nonzero">
<path style="fill:none;stroke-width:2;stroke-linecap:butt;stroke-linejoin:miter;stroke:rgb(0%,0%,0%);stroke-opacity:1;stroke-miterlimit:10;" d="M 18.542969 120 C 18.542969 130.238281 10.238281 138.542969 0 138.542969 C -10.238281 138.542969 -18.542969 130.238281 -18.542969 120 C -18.542969 109.761719 -10.238281 101.457031 0 101.457031 C 10.238281 101.457031 18.542969 109.761719 18.542969 120 " transform="matrix(1,0,0,1,210,10)"/>
</g>
</g>
<g clip-path="url(#id67)" clip-rule="nonzero">
<g clip-path="url(#id68)" clip-rule="nonzero">
<path style="fill:none;stroke-width:2;stroke-linecap:butt;stroke-linejoin:miter;stroke:rgb(36.8417%,50.6779%,70.9798%);stroke-opacity:1;stroke-miterlimit:10;" d="M 80.902344 178.777344 L 100 120 L 50 156.328125 " transform="matrix(1,0,0,1,210,10)"/>
<path style=" stroke:none;fill-rule:nonzero;fill:rgb(26.220434%,36.585873%,51.795113%);fill-opacity:0.5;" d="M 290.902344 188.777344 L 310 130 L 260 166.328125 "/>
</g>
</g>
<g clip-path="url(#id69)" clip-rule="nonzero">
<g clip-path="url(#id70)" clip-rule="nonzero">
<path style="fill:none;stroke-width:2;stroke-linecap:butt;stroke-linejoin:miter;stroke:rgb(0%,0%,0%);stroke-opacity:1;stroke-miterlimit:10;" d="M 99.441406 178.777344 C 99.441406 189.019531 91.140625 197.320312 80.902344 197.320312 C 70.660156 197.320312 62.359375 189.019531 62.359375 178.777344 C 62.359375 168.539062 70.660156 160.238281 80.902344 160.238281 C 91.140625 160.238281 99.441406 168.539062 99.441406 178.777344 " transform="matrix(1,0,0,1,210,10)"/>
</g>
</g>
<g clip-path="url(#id71)" clip-rule="nonzero">
<g clip-path="url(#id72)" clip-rule="nonzero">
<path style="fill:none;stroke-width:2;stroke-linecap:butt;stroke-linejoin:miter;stroke:rgb(0%,0%,0%);stroke-opacity:1;stroke-miterlimit:10;" d="M 62.359375 156.328125 C 62.359375 163.152344 56.828125 168.6875 50 168.6875 C 43.171875 168.6875 37.640625 163.152344 37.640625 156.328125 C 37.640625 149.5 43.171875 143.964844 50 143.964844 C 56.828125 143.964844 62.359375 149.5 62.359375 156.328125 " transform="matrix(1,0,0,1,210,10)"/>
</g>
</g>
<g clip-path="url(#id73)" clip-rule="nonzero">
<g clip-path="url(#id74)" clip-rule="nonzero">
<path style="fill:none;stroke-width:2;stroke-linecap:butt;stroke-linejoin:miter;stroke:rgb(88.0722%,61.1041%,14.2051%);stroke-opacity:1;stroke-miterlimit:10;" d="M 100 120 L 119.097656 178.777344 L 180.902344 178.777344 " transform="matrix(1,0,0,1,210,10)"/>
<path style=" stroke:none;fill-rule:nonzero;fill:rgb(64.599945%,44.396697%,9.262145%);fill-opacity:0.5;" d="M 310 130 L 329.097656 188.777344 L 390.902344 188.777344 "/>
</g>
</g>
<g clip-path="url(#id75)" clip-rule="nonzero">
<g clip-path="url(#id76)" clip-rule="nonzero">
<path style="fill:none;stroke-width:2;stroke-linecap:butt;stroke-linejoin:miter;stroke:rgb(0%,0%,0%);stroke-opacity:1;stroke-miterlimit:10;" d="M 149.441406 120 C 149.441406 147.304688 127.304688 169.441406 100 169.441406 C 72.695312 169.441406 50.558594 147.304688 50.558594 120 C 50.558594 92.695312 72.695312 70.558594 100 70.558594 C 127.304688 70.558594 149.441406 92.695312 149.441406 120 " transform="matrix(1,0,0,1,210,10)"/>
</g>
</g>
<g clip-path="url(#id77)" clip-rule="nonzero">
<g clip-path="url(#id78)" clip-rule="nonzero">
<path style="fill:none;stroke-width:2;stroke-linecap:butt;stroke-linejoin:miter;stroke:rgb(0%,0%,0%);stroke-opacity:1;stroke-miterlimit:10;" d="M 199.441406 178.777344 C 199.441406 189.019531 191.140625 197.320312 180.902344 197.320312 C 170.660156 197.320312 162.359375 189.019531 162.359375 178.777344 C 162.359375 168.539062 170.660156 160.238281 180.902344 160.238281 C 191.140625 160.238281 199.441406 168.539062 199.441406 178.777344 " transform="matrix(1,0,0,1,210,10)"/>
</g>
</g>
<g clip-path="url(#id79)" clip-rule="nonzero">
<g clip-path="url(#id80)" clip-rule="nonzero">
<path style="fill:none;stroke-width:2;stroke-linecap:butt;stroke-linejoin:miter;stroke:rgb(36.8417%,50.6779%,70.9798%);stroke-opacity:1;stroke-miterlimit:10;" d="M 80.902344 178.777344 L 100 120 L 119.097656 178.777344 " transform="matrix(1,0,0,1,210,10)"/>
<path style=" stroke:none;fill-rule:nonzero;fill:rgb(26.220434%,36.585873%,51.795113%);fill-opacity:0.5;" d="M 290.902344 188.777344 L 310 130 L 329.097656 188.777344 "/>
</g>
</g>
<g clip-path="url(#id81)" clip-rule="nonzero">
<g clip-path="url(#id82)" clip-rule="nonzero">
<path style="fill:none;stroke-width:2;stroke-linecap:butt;stroke-linejoin:miter;stroke:rgb(0%,0%,0%);stroke-opacity:1;stroke-miterlimit:10;" d="M 99.441406 178.777344 C 99.441406 189.019531 91.140625 197.320312 80.902344 197.320312 C 70.660156 197.320312 62.359375 189.019531 62.359375 178.777344 C 62.359375 168.539062 70.660156 160.238281 80.902344 160.238281 C 91.140625 160.238281 99.441406 168.539062 99.441406 178.777344 " transform="matrix(1,0,0,1,210,10)"/>
</g>
</g>
<g clip-path="url(#id83)" clip-rule="nonzero">
<g clip-path="url(#id84)" clip-rule="nonzero">
<path style="fill:none;stroke-width:2;stroke-linecap:butt;stroke-linejoin:miter;stroke:rgb(0%,0%,0%);stroke-opacity:1;stroke-miterlimit:10;" d="M 131.457031 178.777344 C 131.457031 185.605469 125.925781 191.140625 119.097656 191.140625 C 112.273438 191.140625 106.738281 185.605469 106.738281 178.777344 C 106.738281 171.953125 112.273438 166.417969 119.097656 166.417969 C 125.925781 166.417969 131.457031 171.953125 131.457031 178.777344 " transform="matrix(1,0,0,1,210,10)"/>
</g>
</g>
<path style="fill:none;stroke-width:2;stroke-linecap:butt;stroke-linejoin:miter;stroke:rgb(0%,0%,0%);stroke-opacity:1;stroke-miterlimit:10;" d="M 0 50 L 30 50 M 21.222656 45.207031 L 30 50 L 21.222656 54.792969 " transform="matrix(1,0,0,1,360,10)"/>
<path style="fill:none;stroke-width:2;stroke-linecap:butt;stroke-linejoin:miter;stroke:rgb(0%,0%,0%);stroke-opacity:1;stroke-miterlimit:10;" d="M 20 150 L 50 150 M 41.222656 145.207031 L 50 150 L 41.222656 154.792969 " transform="matrix(1,0,0,1,360,10)"/>
<g clip-path="url(#id85)" clip-rule="nonzero">
<g clip-path="url(#id86)" clip-rule="nonzero">
<path style="fill:none;stroke-width:2;stroke-linecap:butt;stroke-linejoin:miter;stroke:rgb(88.0722%,61.1041%,14.2051%);stroke-opacity:1;stroke-miterlimit:10;" d="M 100 72.652344 L 61.804688 72.652344 L 50 36.328125 " transform="matrix(1,0,0,1,410,10)"/>
<path style=" stroke:none;fill-rule:nonzero;fill:rgb(64.599945%,44.396697%,9.262145%);fill-opacity:0.5;" d="M 510 82.652344 L 471.804688 82.652344 L 460 46.328125 "/>
</g>
</g>
<g clip-path="url(#id87)" clip-rule="nonzero">
<g clip-path="url(#id88)" clip-rule="nonzero">
<path style="fill:none;stroke-width:2;stroke-linecap:butt;stroke-linejoin:miter;stroke:rgb(0%,0%,0%);stroke-opacity:1;stroke-miterlimit:10;" d="M 130.558594 72.652344 C 130.558594 89.53125 116.875 103.210938 100 103.210938 C 83.125 103.210938 69.441406 89.53125 69.441406 72.652344 C 69.441406 55.777344 83.125 42.097656 100 42.097656 C 116.875 42.097656 130.558594 55.777344 130.558594 72.652344 " transform="matrix(1,0,0,1,410,10)"/>
</g>
</g>
<g clip-path="url(#id89)" clip-rule="nonzero">
<g clip-path="url(#id90)" clip-rule="nonzero">
<path style="fill:none;stroke-width:2;stroke-linecap:butt;stroke-linejoin:miter;stroke:rgb(0%,0%,0%);stroke-opacity:1;stroke-miterlimit:10;" d="M 61.457031 36.328125 C 61.457031 42.65625 56.328125 47.785156 50 47.785156 C 43.671875 47.785156 38.542969 42.65625 38.542969 36.328125 C 38.542969 30 43.671875 24.867188 50 24.867188 C 56.328125 24.867188 61.457031 30 61.457031 36.328125 " transform="matrix(1,0,0,1,410,10)"/>
</g>
</g>
<g clip-path="url(#id91)" clip-rule="nonzero">
<g clip-path="url(#id92)" clip-rule="nonzero">
<path style="fill:none;stroke-width:2;stroke-linecap:butt;stroke-linejoin:miter;stroke:rgb(36.8417%,50.6779%,70.9798%);stroke-opacity:1;stroke-miterlimit:10;" d="M 69.097656 95.105469 L 100 72.652344 L 61.804688 72.652344 " transform="matrix(1,0,0,1,410,10)"/>
<path style=" stroke:none;fill-rule:nonzero;fill:rgb(26.220434%,36.585873%,51.795113%);fill-opacity:0.5;" d="M 479.097656 105.105469 L 510 82.652344 L 471.804688 82.652344 "/>
</g>
</g>
<g clip-path="url(#id93)" clip-rule="nonzero">
<g clip-path="url(#id94)" clip-rule="nonzero">
<path style="fill:none;stroke-width:2;stroke-linecap:butt;stroke-linejoin:miter;stroke:rgb(0%,0%,0%);stroke-opacity:1;stroke-miterlimit:10;" d="M 80.558594 95.105469 C 80.558594 101.433594 75.425781 106.566406 69.097656 106.566406 C 62.769531 106.566406 57.640625 101.433594 57.640625 95.105469 C 57.640625 88.777344 62.769531 83.648438 69.097656 83.648438 C 75.425781 83.648438 80.558594 88.777344 80.558594 95.105469 " transform="matrix(1,0,0,1,410,10)"/>
</g>
</g>
<g clip-path="url(#id95)" clip-rule="nonzero">
<g clip-path="url(#id96)" clip-rule="nonzero">
<path style="fill:none;stroke-width:2;stroke-linecap:butt;stroke-linejoin:miter;stroke:rgb(0%,0%,0%);stroke-opacity:1;stroke-miterlimit:10;" d="M 69.441406 72.652344 C 69.441406 76.875 66.023438 80.292969 61.804688 80.292969 C 57.585938 80.292969 54.164062 76.875 54.164062 72.652344 C 54.164062 68.433594 57.585938 65.015625 61.804688 65.015625 C 66.023438 65.015625 69.441406 68.433594 69.441406 72.652344 " transform="matrix(1,0,0,1,410,10)"/>
</g>
</g>
<g clip-path="url(#id97)" clip-rule="nonzero">
<g clip-path="url(#id98)" clip-rule="nonzero">
<path style="fill:none;stroke-width:2;stroke-linecap:butt;stroke-linejoin:miter;stroke:rgb(88.0722%,61.1041%,14.2051%);stroke-opacity:1;stroke-miterlimit:10;" d="M 130.902344 95.105469 L 100 72.652344 L 69.097656 95.105469 " transform="matrix(1,0,0,1,410,10)"/>
<path style=" stroke:none;fill-rule:nonzero;fill:rgb(64.599945%,44.396697%,9.262145%);fill-opacity:0.5;" d="M 540.902344 105.105469 L 510 82.652344 L 479.097656 105.105469 "/>
</g>
</g>
<g clip-path="url(#id99)" clip-rule="nonzero">
<g clip-path="url(#id100)" clip-rule="nonzero">
<path style="fill:none;stroke-width:2;stroke-linecap:butt;stroke-linejoin:miter;stroke:rgb(0%,0%,0%);stroke-opacity:1;stroke-miterlimit:10;" d="M 161.457031 95.105469 C 161.457031 111.980469 147.777344 125.664062 130.902344 125.664062 C 114.023438 125.664062 100.34375 111.980469 100.34375 95.105469 C 100.34375 78.230469 114.023438 64.546875 130.902344 64.546875 C 147.777344 64.546875 161.457031 78.230469 161.457031 95.105469 " transform="matrix(1,0,0,1,410,10)"/>
</g>
</g>
<g clip-path="url(#id101)" clip-rule="nonzero">
<g clip-path="url(#id102)" clip-rule="nonzero">
<path style="fill:none;stroke-width:2;stroke-linecap:butt;stroke-linejoin:miter;stroke:rgb(0%,0%,0%);stroke-opacity:1;stroke-miterlimit:10;" d="M 80.558594 95.105469 C 80.558594 101.433594 75.425781 106.566406 69.097656 106.566406 C 62.769531 106.566406 57.640625 101.433594 57.640625 95.105469 C 57.640625 88.777344 62.769531 83.648438 69.097656 83.648438 C 75.425781 83.648438 80.558594 88.777344 80.558594 95.105469 " transform="matrix(1,0,0,1,410,10)"/>
</g>
</g>
<g clip-path="url(#id103)" clip-rule="nonzero">
<g clip-path="url(#id104)" clip-rule="nonzero">
<path style="fill:none;stroke-width:2;stroke-linecap:butt;stroke-linejoin:miter;stroke:rgb(88.0722%,61.1041%,14.2051%);stroke-opacity:1;stroke-miterlimit:10;" d="M 30.902344 95.105469 L 61.804688 72.652344 L 50 36.328125 " transform="matrix(1,0,0,1,410,10)"/>
<path style=" stroke:none;fill-rule:nonzero;fill:rgb(64.599945%,44.396697%,9.262145%);fill-opacity:0.5;" d="M 440.902344 105.105469 L 471.804688 82.652344 L 460 46.328125 "/>
</g>
</g>
<g clip-path="url(#id105)" clip-rule="nonzero">
<g clip-path="url(#id106)" clip-rule="nonzero">
<path style="fill:none;stroke-width:2;stroke-linecap:butt;stroke-linejoin:miter;stroke:rgb(0%,0%,0%);stroke-opacity:1;stroke-miterlimit:10;" d="M 61.457031 95.105469 C 61.457031 111.980469 47.777344 125.664062 30.902344 125.664062 C 14.023438 125.664062 0.34375 111.980469 0.34375 95.105469 C 0.34375 78.230469 14.023438 64.546875 30.902344 64.546875 C 47.777344 64.546875 61.457031 78.230469 61.457031 95.105469 " transform="matrix(1,0,0,1,410,10)"/>
</g>
</g>
<g clip-path="url(#id107)" clip-rule="nonzero">
<g clip-path="url(#id108)" clip-rule="nonzero">
<path style="fill:none;stroke-width:2;stroke-linecap:butt;stroke-linejoin:miter;stroke:rgb(0%,0%,0%);stroke-opacity:1;stroke-miterlimit:10;" d="M 61.457031 36.328125 C 61.457031 42.65625 56.328125 47.785156 50 47.785156 C 43.671875 47.785156 38.542969 42.65625 38.542969 36.328125 C 38.542969 30 43.671875 24.867188 50 24.867188 C 56.328125 24.867188 61.457031 30 61.457031 36.328125 " transform="matrix(1,0,0,1,410,10)"/>
</g>
</g>
<g clip-path="url(#id109)" clip-rule="nonzero">
<g clip-path="url(#id110)" clip-rule="nonzero">
<path style="fill:none;stroke-width:2;stroke-linecap:butt;stroke-linejoin:miter;stroke:rgb(36.8417%,50.6779%,70.9798%);stroke-opacity:1;stroke-miterlimit:10;" d="M 69.097656 95.105469 L 30.902344 95.105469 L 61.804688 72.652344 " transform="matrix(1,0,0,1,410,10)"/>
<path style=" stroke:none;fill-rule:nonzero;fill:rgb(26.220434%,36.585873%,51.795113%);fill-opacity:0.5;" d="M 479.097656 105.105469 L 440.902344 105.105469 L 471.804688 82.652344 "/>
</g>
</g>
<g clip-path="url(#id111)" clip-rule="nonzero">
<g clip-path="url(#id112)" clip-rule="nonzero">
<path style="fill:none;stroke-width:2;stroke-linecap:butt;stroke-linejoin:miter;stroke:rgb(0%,0%,0%);stroke-opacity:1;stroke-miterlimit:10;" d="M 80.558594 95.105469 C 80.558594 101.433594 75.425781 106.566406 69.097656 106.566406 C 62.769531 106.566406 57.640625 101.433594 57.640625 95.105469 C 57.640625 88.777344 62.769531 83.648438 69.097656 83.648438 C 75.425781 83.648438 80.558594 88.777344 80.558594 95.105469 " transform="matrix(1,0,0,1,410,10)"/>
<path style="fill:none;stroke-width:2;stroke-linecap:butt;stroke-linejoin:miter;stroke:rgb(0%,0%,0%);stroke-opacity:1;stroke-miterlimit:10;" d="M 69.441406 72.652344 C 69.441406 76.875 66.023438 80.292969 61.804688 80.292969 C 57.585938 80.292969 54.164062 76.875 54.164062 72.652344 C 54.164062 68.433594 57.585938 65.015625 61.804688 65.015625 C 66.023438 65.015625 69.441406 68.433594 69.441406 72.652344 " transform="matrix(1,0,0,1,410,10)"/>
</g>
</g>
<g clip-path="url(#id113)" clip-rule="nonzero">
<g clip-path="url(#id114)" clip-rule="nonzero">
<path style="fill:none;stroke-width:2;stroke-linecap:butt;stroke-linejoin:miter;stroke:rgb(88.0722%,61.1041%,14.2051%);stroke-opacity:1;stroke-miterlimit:10;" d="M 19.097656 58.777344 L 30.902344 22.453125 L 0 0 " transform="matrix(1,0,0,1,410,10)"/>
<path style=" stroke:none;fill-rule:nonzero;fill:rgb(64.599945%,44.396697%,9.262145%);fill-opacity:0.5;" d="M 429.097656 68.777344 L 440.902344 32.453125 L 410 10 "/>
</g>
</g>
<g clip-path="url(#id115)" clip-rule="nonzero">
<g clip-path="url(#id116)" clip-rule="nonzero">
<path style="fill:none;stroke-width:2;stroke-linecap:butt;stroke-linejoin:miter;stroke:rgb(0%,0%,0%);stroke-opacity:1;stroke-miterlimit:10;" d="M 49.65625 58.777344 C 49.65625 75.65625 35.976562 89.335938 19.097656 89.335938 C 2.222656 89.335938 -11.457031 75.65625 -11.457031 58.777344 C -11.457031 41.902344 2.222656 28.222656 19.097656 28.222656 C 35.976562 28.222656 49.65625 41.902344 49.65625 58.777344 " transform="matrix(1,0,0,1,410,10)"/>
</g>
</g>
<g clip-path="url(#id117)" clip-rule="nonzero">
<g clip-path="url(#id118)" clip-rule="nonzero">
<path style="fill:none;stroke-width:2;stroke-linecap:butt;stroke-linejoin:miter;stroke:rgb(0%,0%,0%);stroke-opacity:1;stroke-miterlimit:10;" d="M 11.457031 0 C 11.457031 6.328125 6.328125 11.457031 0 11.457031 C -6.328125 11.457031 -11.457031 6.328125 -11.457031 0 C -11.457031 -6.328125 -6.328125 -11.457031 0 -11.457031 C 6.328125 -11.457031 11.457031 -6.328125 11.457031 0 " transform="matrix(1,0,0,1,410,10)"/>
</g>
</g>
<g clip-path="url(#id119)" clip-rule="nonzero">
<g clip-path="url(#id120)" clip-rule="nonzero">
<path style="fill:none;stroke-width:2;stroke-linecap:butt;stroke-linejoin:miter;stroke:rgb(36.8417%,50.6779%,70.9798%);stroke-opacity:1;stroke-miterlimit:10;" d="M 50 36.328125 L 19.097656 58.777344 L 30.902344 22.453125 " transform="matrix(1,0,0,1,410,10)"/>
<path style=" stroke:none;fill-rule:nonzero;fill:rgb(26.220434%,36.585873%,51.795113%);fill-opacity:0.5;" d="M 460 46.328125 L 429.097656 68.777344 L 440.902344 32.453125 "/>
</g>
</g>
<g clip-path="url(#id121)" clip-rule="nonzero">
<g clip-path="url(#id122)" clip-rule="nonzero">
<path style="fill:none;stroke-width:2;stroke-linecap:butt;stroke-linejoin:miter;stroke:rgb(0%,0%,0%);stroke-opacity:1;stroke-miterlimit:10;" d="M 61.457031 36.328125 C 61.457031 42.65625 56.328125 47.785156 50 47.785156 C 43.671875 47.785156 38.542969 42.65625 38.542969 36.328125 C 38.542969 30 43.671875 24.867188 50 24.867188 C 56.328125 24.867188 61.457031 30 61.457031 36.328125 " transform="matrix(1,0,0,1,410,10)"/>
<path style="fill:none;stroke-width:2;stroke-linecap:butt;stroke-linejoin:miter;stroke:rgb(0%,0%,0%);stroke-opacity:1;stroke-miterlimit:10;" d="M 38.542969 22.453125 C 38.542969 26.671875 35.121094 30.089844 30.902344 30.089844 C 26.683594 30.089844 23.261719 26.671875 23.261719 22.453125 C 23.261719 18.230469 26.683594 14.8125 30.902344 14.8125 C 35.121094 14.8125 38.542969 18.230469 38.542969 22.453125 " transform="matrix(1,0,0,1,410,10)"/>
</g>
</g>
<g clip-path="url(#id123)" clip-rule="nonzero">
<g clip-path="url(#id124)" clip-rule="nonzero">
<path style="fill:none;stroke-width:2;stroke-linecap:butt;stroke-linejoin:miter;stroke:rgb(88.0722%,61.1041%,14.2051%);stroke-opacity:1;stroke-miterlimit:10;" d="M 30.902344 95.105469 L 19.097656 58.777344 L 50 36.328125 " transform="matrix(1,0,0,1,410,10)"/>
<path style=" stroke:none;fill-rule:nonzero;fill:rgb(64.599945%,44.396697%,9.262145%);fill-opacity:0.5;" d="M 440.902344 105.105469 L 429.097656 68.777344 L 460 46.328125 "/>
</g>
</g>
<g clip-path="url(#id125)" clip-rule="nonzero">
<g clip-path="url(#id126)" clip-rule="nonzero">
<path style="fill:none;stroke-width:2;stroke-linecap:butt;stroke-linejoin:miter;stroke:rgb(0%,0%,0%);stroke-opacity:1;stroke-miterlimit:10;" d="M 61.457031 95.105469 C 61.457031 111.980469 47.777344 125.664062 30.902344 125.664062 C 14.023438 125.664062 0.34375 111.980469 0.34375 95.105469 C 0.34375 78.230469 14.023438 64.546875 30.902344 64.546875 C 47.777344 64.546875 61.457031 78.230469 61.457031 95.105469 " transform="matrix(1,0,0,1,410,10)"/>
</g>
</g>
<g clip-path="url(#id127)" clip-rule="nonzero">
<g clip-path="url(#id128)" clip-rule="nonzero">
<path style="fill:none;stroke-width:2;stroke-linecap:butt;stroke-linejoin:miter;stroke:rgb(0%,0%,0%);stroke-opacity:1;stroke-miterlimit:10;" d="M 61.457031 36.328125 C 61.457031 42.65625 56.328125 47.785156 50 47.785156 C 43.671875 47.785156 38.542969 42.65625 38.542969 36.328125 C 38.542969 30 43.671875 24.867188 50 24.867188 C 56.328125 24.867188 61.457031 30 61.457031 36.328125 " transform="matrix(1,0,0,1,410,10)"/>
</g>
</g>
<g clip-path="url(#id129)" clip-rule="nonzero">
<g clip-path="url(#id130)" clip-rule="nonzero">
<path style="fill:none;stroke-width:2;stroke-linecap:butt;stroke-linejoin:miter;stroke:rgb(88.0722%,61.1041%,14.2051%);stroke-opacity:1;stroke-miterlimit:10;" d="M 100 72.652344 L 88.195312 36.328125 L 50 36.328125 " transform="matrix(1,0,0,1,410,10)"/>
<path style=" stroke:none;fill-rule:nonzero;fill:rgb(64.599945%,44.396697%,9.262145%);fill-opacity:0.5;" d="M 510 82.652344 L 498.195312 46.328125 L 460 46.328125 "/>
</g>
</g>
<g clip-path="url(#id131)" clip-rule="nonzero">
<g clip-path="url(#id132)" clip-rule="nonzero">
<path style="fill:none;stroke-width:2;stroke-linecap:butt;stroke-linejoin:miter;stroke:rgb(0%,0%,0%);stroke-opacity:1;stroke-miterlimit:10;" d="M 130.558594 72.652344 C 130.558594 89.53125 116.875 103.210938 100 103.210938 C 83.125 103.210938 69.441406 89.53125 69.441406 72.652344 C 69.441406 55.777344 83.125 42.097656 100 42.097656 C 116.875 42.097656 130.558594 55.777344 130.558594 72.652344 " transform="matrix(1,0,0,1,410,10)"/>
</g>
</g>
<g clip-path="url(#id133)" clip-rule="nonzero">
<g clip-path="url(#id134)" clip-rule="nonzero">
<path style="fill:none;stroke-width:2;stroke-linecap:butt;stroke-linejoin:miter;stroke:rgb(0%,0%,0%);stroke-opacity:1;stroke-miterlimit:10;" d="M 61.457031 36.328125 C 61.457031 42.65625 56.328125 47.785156 50 47.785156 C 43.671875 47.785156 38.542969 42.65625 38.542969 36.328125 C 38.542969 30 43.671875 24.867188 50 24.867188 C 56.328125 24.867188 61.457031 30 61.457031 36.328125 " transform="matrix(1,0,0,1,410,10)"/>
</g>
</g>
<g clip-path="url(#id135)" clip-rule="nonzero">
<g clip-path="url(#id136)" clip-rule="nonzero">
<path style="fill:none;stroke-width:2;stroke-linecap:butt;stroke-linejoin:miter;stroke:rgb(36.8417%,50.6779%,70.9798%);stroke-opacity:1;stroke-miterlimit:10;" d="M 111.804688 36.328125 L 100 72.652344 L 88.195312 36.328125 " transform="matrix(1,0,0,1,410,10)"/>
<path style=" stroke:none;fill-rule:nonzero;fill:rgb(26.220434%,36.585873%,51.795113%);fill-opacity:0.5;" d="M 521.804688 46.328125 L 510 82.652344 L 498.195312 46.328125 "/>
</g>
</g>
<g clip-path="url(#id137)" clip-rule="nonzero">
<g clip-path="url(#id138)" clip-rule="nonzero">
<path style="fill:none;stroke-width:2;stroke-linecap:butt;stroke-linejoin:miter;stroke:rgb(0%,0%,0%);stroke-opacity:1;stroke-miterlimit:10;" d="M 123.261719 36.328125 C 123.261719 42.65625 118.132812 47.785156 111.804688 47.785156 C 105.476562 47.785156 100.34375 42.65625 100.34375 36.328125 C 100.34375 30 105.476562 24.867188 111.804688 24.867188 C 118.132812 24.867188 123.261719 30 123.261719 36.328125 " transform="matrix(1,0,0,1,410,10)"/>
<path style="fill:none;stroke-width:2;stroke-linecap:butt;stroke-linejoin:miter;stroke:rgb(0%,0%,0%);stroke-opacity:1;stroke-miterlimit:10;" d="M 95.835938 36.328125 C 95.835938 40.546875 92.414062 43.964844 88.195312 43.964844 C 83.976562 43.964844 80.558594 40.546875 80.558594 36.328125 C 80.558594 32.109375 83.976562 28.6875 88.195312 28.6875 C 92.414062 28.6875 95.835938 32.109375 95.835938 36.328125 " transform="matrix(1,0,0,1,410,10)"/>
</g>
</g>
<g clip-path="url(#id139)" clip-rule="nonzero">
<g clip-path="url(#id140)" clip-rule="nonzero">
<path style="fill:none;stroke-width:2;stroke-linecap:butt;stroke-linejoin:miter;stroke:rgb(88.0722%,61.1041%,14.2051%);stroke-opacity:1;stroke-miterlimit:10;" d="M 130.902344 95.105469 L 100 72.652344 L 111.804688 36.328125 " transform="matrix(1,0,0,1,410,10)"/>
<path style=" stroke:none;fill-rule:nonzero;fill:rgb(64.599945%,44.396697%,9.262145%);fill-opacity:0.5;" d="M 540.902344 105.105469 L 510 82.652344 L 521.804688 46.328125 "/>
</g>
</g>
<g clip-path="url(#id141)" clip-rule="nonzero">
<g clip-path="url(#id142)" clip-rule="nonzero">
<path style="fill:none;stroke-width:2;stroke-linecap:butt;stroke-linejoin:miter;stroke:rgb(0%,0%,0%);stroke-opacity:1;stroke-miterlimit:10;" d="M 161.457031 95.105469 C 161.457031 111.980469 147.777344 125.664062 130.902344 125.664062 C 114.023438 125.664062 100.34375 111.980469 100.34375 95.105469 C 100.34375 78.230469 114.023438 64.546875 130.902344 64.546875 C 147.777344 64.546875 161.457031 78.230469 161.457031 95.105469 " transform="matrix(1,0,0,1,410,10)"/>
</g>
</g>
<g clip-path="url(#id143)" clip-rule="nonzero">
<g clip-path="url(#id144)" clip-rule="nonzero">
<path style="fill:none;stroke-width:2;stroke-linecap:butt;stroke-linejoin:miter;stroke:rgb(0%,0%,0%);stroke-opacity:1;stroke-miterlimit:10;" d="M 123.261719 36.328125 C 123.261719 42.65625 118.132812 47.785156 111.804688 47.785156 C 105.476562 47.785156 100.34375 42.65625 100.34375 36.328125 C 100.34375 30 105.476562 24.867188 111.804688 24.867188 C 118.132812 24.867188 123.261719 30 123.261719 36.328125 " transform="matrix(1,0,0,1,410,10)"/>
</g>
</g>
<g clip-path="url(#id145)" clip-rule="nonzero">
<g clip-path="url(#id146)" clip-rule="nonzero">
<path style="fill:none;stroke-width:2;stroke-linecap:butt;stroke-linejoin:miter;stroke:rgb(88.0722%,61.1041%,14.2051%);stroke-opacity:1;stroke-miterlimit:10;" d="M 100 0 L 88.195312 36.328125 L 50 36.328125 " transform="matrix(1,0,0,1,410,10)"/>
<path style=" stroke:none;fill-rule:nonzero;fill:rgb(64.599945%,44.396697%,9.262145%);fill-opacity:0.5;" d="M 510 10 L 498.195312 46.328125 L 460 46.328125 "/>
</g>
</g>
<g clip-path="url(#id147)" clip-rule="nonzero">
<g clip-path="url(#id148)" clip-rule="nonzero">
<path style="fill:none;stroke-width:2;stroke-linecap:butt;stroke-linejoin:miter;stroke:rgb(0%,0%,0%);stroke-opacity:1;stroke-miterlimit:10;" d="M 130.558594 0 C 130.558594 16.875 116.875 30.558594 100 30.558594 C 83.125 30.558594 69.441406 16.875 69.441406 0 C 69.441406 -16.875 83.125 -30.558594 100 -30.558594 C 116.875 -30.558594 130.558594 -16.875 130.558594 0 " transform="matrix(1,0,0,1,410,10)"/>
</g>
</g>
<g clip-path="url(#id149)" clip-rule="nonzero">
<g clip-path="url(#id150)" clip-rule="nonzero">
<path style="fill:none;stroke-width:2;stroke-linecap:butt;stroke-linejoin:miter;stroke:rgb(0%,0%,0%);stroke-opacity:1;stroke-miterlimit:10;" d="M 61.457031 36.328125 C 61.457031 42.65625 56.328125 47.785156 50 47.785156 C 43.671875 47.785156 38.542969 42.65625 38.542969 36.328125 C 38.542969 30 43.671875 24.867188 50 24.867188 C 56.328125 24.867188 61.457031 30 61.457031 36.328125 " transform="matrix(1,0,0,1,410,10)"/>
</g>
</g>
<g clip-path="url(#id151)" clip-rule="nonzero">
<g clip-path="url(#id152)" clip-rule="nonzero">
<path style="fill:none;stroke-width:2;stroke-linecap:butt;stroke-linejoin:miter;stroke:rgb(36.8417%,50.6779%,70.9798%);stroke-opacity:1;stroke-miterlimit:10;" d="M 111.804688 36.328125 L 100 0 L 88.195312 36.328125 " transform="matrix(1,0,0,1,410,10)"/>
<path style=" stroke:none;fill-rule:nonzero;fill:rgb(26.220434%,36.585873%,51.795113%);fill-opacity:0.5;" d="M 521.804688 46.328125 L 510 10 L 498.195312 46.328125 "/>
</g>
</g>
<g clip-path="url(#id153)" clip-rule="nonzero">
<g clip-path="url(#id154)" clip-rule="nonzero">
<path style="fill:none;stroke-width:2;stroke-linecap:butt;stroke-linejoin:miter;stroke:rgb(0%,0%,0%);stroke-opacity:1;stroke-miterlimit:10;" d="M 123.261719 36.328125 C 123.261719 42.65625 118.132812 47.785156 111.804688 47.785156 C 105.476562 47.785156 100.34375 42.65625 100.34375 36.328125 C 100.34375 30 105.476562 24.867188 111.804688 24.867188 C 118.132812 24.867188 123.261719 30 123.261719 36.328125 " transform="matrix(1,0,0,1,410,10)"/>
<path style="fill:none;stroke-width:2;stroke-linecap:butt;stroke-linejoin:miter;stroke:rgb(0%,0%,0%);stroke-opacity:1;stroke-miterlimit:10;" d="M 95.835938 36.328125 C 95.835938 40.546875 92.414062 43.964844 88.195312 43.964844 C 83.976562 43.964844 80.558594 40.546875 80.558594 36.328125 C 80.558594 32.109375 83.976562 28.6875 88.195312 28.6875 C 92.414062 28.6875 95.835938 32.109375 95.835938 36.328125 " transform="matrix(1,0,0,1,410,10)"/>
</g>
</g>
<g clip-path="url(#id155)" clip-rule="nonzero">
<g clip-path="url(#id156)" clip-rule="nonzero">
<path style="fill:none;stroke-width:2;stroke-linecap:butt;stroke-linejoin:miter;stroke:rgb(88.0722%,61.1041%,14.2051%);stroke-opacity:1;stroke-miterlimit:10;" d="M 61.804688 0 L 30.902344 22.453125 L 0 0 " transform="matrix(1,0,0,1,410,10)"/>
<path style=" stroke:none;fill-rule:nonzero;fill:rgb(64.599945%,44.396697%,9.262145%);fill-opacity:0.5;" d="M 471.804688 10 L 440.902344 32.453125 L 410 10 "/>
</g>
</g>
<g clip-path="url(#id157)" clip-rule="nonzero">
<g clip-path="url(#id158)" clip-rule="nonzero">
<path style="fill:none;stroke-width:2;stroke-linecap:butt;stroke-linejoin:miter;stroke:rgb(0%,0%,0%);stroke-opacity:1;stroke-miterlimit:10;" d="M 92.359375 0 C 92.359375 16.875 78.679688 30.558594 61.804688 30.558594 C 44.925781 30.558594 31.246094 16.875 31.246094 0 C 31.246094 -16.875 44.925781 -30.558594 61.804688 -30.558594 C 78.679688 -30.558594 92.359375 -16.875 92.359375 0 " transform="matrix(1,0,0,1,410,10)"/>
</g>
</g>
<g clip-path="url(#id159)" clip-rule="nonzero">
<g clip-path="url(#id160)" clip-rule="nonzero">
<path style="fill:none;stroke-width:2;stroke-linecap:butt;stroke-linejoin:miter;stroke:rgb(0%,0%,0%);stroke-opacity:1;stroke-miterlimit:10;" d="M 11.457031 0 C 11.457031 6.328125 6.328125 11.457031 0 11.457031 C -6.328125 11.457031 -11.457031 6.328125 -11.457031 0 C -11.457031 -6.328125 -6.328125 -11.457031 0 -11.457031 C 6.328125 -11.457031 11.457031 -6.328125 11.457031 0 " transform="matrix(1,0,0,1,410,10)"/>
</g>
</g>
<g clip-path="url(#id161)" clip-rule="nonzero">
<g clip-path="url(#id162)" clip-rule="nonzero">
<path style="fill:none;stroke-width:2;stroke-linecap:butt;stroke-linejoin:miter;stroke:rgb(36.8417%,50.6779%,70.9798%);stroke-opacity:1;stroke-miterlimit:10;" d="M 50 36.328125 L 61.804688 0 L 30.902344 22.453125 " transform="matrix(1,0,0,1,410,10)"/>
<path style=" stroke:none;fill-rule:nonzero;fill:rgb(26.220434%,36.585873%,51.795113%);fill-opacity:0.5;" d="M 460 46.328125 L 471.804688 10 L 440.902344 32.453125 "/>
</g>
</g>
<g clip-path="url(#id163)" clip-rule="nonzero">
<g clip-path="url(#id164)" clip-rule="nonzero">
<path style="fill:none;stroke-width:2;stroke-linecap:butt;stroke-linejoin:miter;stroke:rgb(0%,0%,0%);stroke-opacity:1;stroke-miterlimit:10;" d="M 61.457031 36.328125 C 61.457031 42.65625 56.328125 47.785156 50 47.785156 C 43.671875 47.785156 38.542969 42.65625 38.542969 36.328125 C 38.542969 30 43.671875 24.867188 50 24.867188 C 56.328125 24.867188 61.457031 30 61.457031 36.328125 " transform="matrix(1,0,0,1,410,10)"/>
<path style="fill:none;stroke-width:2;stroke-linecap:butt;stroke-linejoin:miter;stroke:rgb(0%,0%,0%);stroke-opacity:1;stroke-miterlimit:10;" d="M 38.542969 22.453125 C 38.542969 26.671875 35.121094 30.089844 30.902344 30.089844 C 26.683594 30.089844 23.261719 26.671875 23.261719 22.453125 C 23.261719 18.230469 26.683594 14.8125 30.902344 14.8125 C 35.121094 14.8125 38.542969 18.230469 38.542969 22.453125 " transform="matrix(1,0,0,1,410,10)"/>
</g>
</g>
<g clip-path="url(#id165)" clip-rule="nonzero">
<g clip-path="url(#id166)" clip-rule="nonzero">
<path style="fill:none;stroke-width:2;stroke-linecap:butt;stroke-linejoin:miter;stroke:rgb(88.0722%,61.1041%,14.2051%);stroke-opacity:1;stroke-miterlimit:10;" d="M 100 0 L 61.804688 0 L 50 36.328125 " transform="matrix(1,0,0,1,410,10)"/>
<path style=" stroke:none;fill-rule:nonzero;fill:rgb(64.599945%,44.396697%,9.262145%);fill-opacity:0.5;" d="M 510 10 L 471.804688 10 L 460 46.328125 "/>
</g>
</g>
<g clip-path="url(#id167)" clip-rule="nonzero">
<g clip-path="url(#id168)" clip-rule="nonzero">
<path style="fill:none;stroke-width:2;stroke-linecap:butt;stroke-linejoin:miter;stroke:rgb(0%,0%,0%);stroke-opacity:1;stroke-miterlimit:10;" d="M 130.558594 0 C 130.558594 16.875 116.875 30.558594 100 30.558594 C 83.125 30.558594 69.441406 16.875 69.441406 0 C 69.441406 -16.875 83.125 -30.558594 100 -30.558594 C 116.875 -30.558594 130.558594 -16.875 130.558594 0 " transform="matrix(1,0,0,1,410,10)"/>
</g>
</g>
<g clip-path="url(#id169)" clip-rule="nonzero">
<g clip-path="url(#id170)" clip-rule="nonzero">
<path style="fill:none;stroke-width:2;stroke-linecap:butt;stroke-linejoin:miter;stroke:rgb(0%,0%,0%);stroke-opacity:1;stroke-miterlimit:10;" d="M 61.457031 36.328125 C 61.457031 42.65625 56.328125 47.785156 50 47.785156 C 43.671875 47.785156 38.542969 42.65625 38.542969 36.328125 C 38.542969 30 43.671875 24.867188 50 24.867188 C 56.328125 24.867188 61.457031 30 61.457031 36.328125 " transform="matrix(1,0,0,1,410,10)"/>
</g>
</g>
<g clip-path="url(#id171)" clip-rule="nonzero">
<g clip-path="url(#id172)" clip-rule="nonzero">
<path style="fill:none;stroke-width:2;stroke-linecap:butt;stroke-linejoin:miter;stroke:rgb(88.0722%,61.1041%,14.2051%);stroke-opacity:1;stroke-miterlimit:10;" d="M 38.195312 120 L 69.097656 142.453125 L 100 120 " transform="matrix(1,0,0,1,410,10)"/>
<path style=" stroke:none;fill-rule:nonzero;fill:rgb(64.599945%,44.396697%,9.262145%);fill-opacity:0.5;" d="M 448.195312 130 L 479.097656 152.453125 L 510 130 "/>
</g>
</g>
<g clip-path="url(#id173)" clip-rule="nonzero">
<g clip-path="url(#id174)" clip-rule="nonzero">
<path style="fill:none;stroke-width:2;stroke-linecap:butt;stroke-linejoin:miter;stroke:rgb(0%,0%,0%);stroke-opacity:1;stroke-miterlimit:10;" d="M 68.753906 120 C 68.753906 136.875 55.074219 150.558594 38.195312 150.558594 C 21.320312 150.558594 7.640625 136.875 7.640625 120 C 7.640625 103.125 21.320312 89.441406 38.195312 89.441406 C 55.074219 89.441406 68.753906 103.125 68.753906 120 " transform="matrix(1,0,0,1,410,10)"/>
</g>
</g>
<g clip-path="url(#id175)" clip-rule="nonzero">
<g clip-path="url(#id176)" clip-rule="nonzero">
<path style="fill:none;stroke-width:2;stroke-linecap:butt;stroke-linejoin:miter;stroke:rgb(0%,0%,0%);stroke-opacity:1;stroke-miterlimit:10;" d="M 111.457031 120 C 111.457031 126.328125 106.328125 131.457031 100 131.457031 C 93.671875 131.457031 88.542969 126.328125 88.542969 120 C 88.542969 113.671875 93.671875 108.542969 100 108.542969 C 106.328125 108.542969 111.457031 113.671875 111.457031 120 " transform="matrix(1,0,0,1,410,10)"/>
</g>
</g>
<g clip-path="url(#id177)" clip-rule="nonzero">
<g clip-path="url(#id178)" clip-rule="nonzero">
<path style="fill:none;stroke-width:2;stroke-linecap:butt;stroke-linejoin:miter;stroke:rgb(36.8417%,50.6779%,70.9798%);stroke-opacity:1;stroke-miterlimit:10;" d="M 50 156.328125 L 38.195312 120 L 69.097656 142.453125 " transform="matrix(1,0,0,1,410,10)"/>
<path style=" stroke:none;fill-rule:nonzero;fill:rgb(26.220434%,36.585873%,51.795113%);fill-opacity:0.5;" d="M 460 166.328125 L 448.195312 130 L 479.097656 152.453125 "/>
</g>
</g>
<g clip-path="url(#id179)" clip-rule="nonzero">
<g clip-path="url(#id180)" clip-rule="nonzero">
<path style="fill:none;stroke-width:2;stroke-linecap:butt;stroke-linejoin:miter;stroke:rgb(0%,0%,0%);stroke-opacity:1;stroke-miterlimit:10;" d="M 61.457031 156.328125 C 61.457031 162.65625 56.328125 167.785156 50 167.785156 C 43.671875 167.785156 38.542969 162.65625 38.542969 156.328125 C 38.542969 150 43.671875 144.867188 50 144.867188 C 56.328125 144.867188 61.457031 150 61.457031 156.328125 " transform="matrix(1,0,0,1,410,10)"/>
<path style="fill:none;stroke-width:2;stroke-linecap:butt;stroke-linejoin:miter;stroke:rgb(0%,0%,0%);stroke-opacity:1;stroke-miterlimit:10;" d="M 76.738281 142.453125 C 76.738281 146.671875 73.316406 150.089844 69.097656 150.089844 C 64.878906 150.089844 61.457031 146.671875 61.457031 142.453125 C 61.457031 138.230469 64.878906 134.8125 69.097656 134.8125 C 73.316406 134.8125 76.738281 138.230469 76.738281 142.453125 " transform="matrix(1,0,0,1,410,10)"/>
</g>
</g>
<g clip-path="url(#id181)" clip-rule="nonzero">
<g clip-path="url(#id182)" clip-rule="nonzero">
<path style="fill:none;stroke-width:2;stroke-linecap:butt;stroke-linejoin:miter;stroke:rgb(88.0722%,61.1041%,14.2051%);stroke-opacity:1;stroke-miterlimit:10;" d="M 0 120 L 38.195312 120 L 50 156.328125 " transform="matrix(1,0,0,1,410,10)"/>
<path style=" stroke:none;fill-rule:nonzero;fill:rgb(64.599945%,44.396697%,9.262145%);fill-opacity:0.5;" d="M 410 130 L 448.195312 130 L 460 166.328125 "/>
</g>
</g>
<g clip-path="url(#id183)" clip-rule="nonzero">
<g clip-path="url(#id184)" clip-rule="nonzero">
<path style="fill:none;stroke-width:2;stroke-linecap:butt;stroke-linejoin:miter;stroke:rgb(0%,0%,0%);stroke-opacity:1;stroke-miterlimit:10;" d="M 30.558594 120 C 30.558594 136.875 16.875 150.558594 0 150.558594 C -16.875 150.558594 -30.558594 136.875 -30.558594 120 C -30.558594 103.125 -16.875 89.441406 0 89.441406 C 16.875 89.441406 30.558594 103.125 30.558594 120 " transform="matrix(1,0,0,1,410,10)"/>
</g>
</g>
<g clip-path="url(#id185)" clip-rule="nonzero">
<g clip-path="url(#id186)" clip-rule="nonzero">
<path style="fill:none;stroke-width:2;stroke-linecap:butt;stroke-linejoin:miter;stroke:rgb(0%,0%,0%);stroke-opacity:1;stroke-miterlimit:10;" d="M 61.457031 156.328125 C 61.457031 162.65625 56.328125 167.785156 50 167.785156 C 43.671875 167.785156 38.542969 162.65625 38.542969 156.328125 C 38.542969 150 43.671875 144.867188 50 144.867188 C 56.328125 144.867188 61.457031 150 61.457031 156.328125 " transform="matrix(1,0,0,1,410,10)"/>
</g>
</g>
<g clip-path="url(#id187)" clip-rule="nonzero">
<g clip-path="url(#id188)" clip-rule="nonzero">
<path style="fill:none;stroke-width:2;stroke-linecap:butt;stroke-linejoin:miter;stroke:rgb(88.0722%,61.1041%,14.2051%);stroke-opacity:1;stroke-miterlimit:10;" d="M 80.902344 178.777344 L 69.097656 142.453125 L 100 120 " transform="matrix(1,0,0,1,410,10)"/>
<path style=" stroke:none;fill-rule:nonzero;fill:rgb(64.599945%,44.396697%,9.262145%);fill-opacity:0.5;" d="M 490.902344 188.777344 L 479.097656 152.453125 L 510 130 "/>
</g>
</g>
<g clip-path="url(#id189)" clip-rule="nonzero">
<g clip-path="url(#id190)" clip-rule="nonzero">
<path style="fill:none;stroke-width:2;stroke-linecap:butt;stroke-linejoin:miter;stroke:rgb(0%,0%,0%);stroke-opacity:1;stroke-miterlimit:10;" d="M 111.457031 178.777344 C 111.457031 195.65625 97.777344 209.335938 80.902344 209.335938 C 64.023438 209.335938 50.34375 195.65625 50.34375 178.777344 C 50.34375 161.902344 64.023438 148.222656 80.902344 148.222656 C 97.777344 148.222656 111.457031 161.902344 111.457031 178.777344 " transform="matrix(1,0,0,1,410,10)"/>
</g>
</g>
<g clip-path="url(#id191)" clip-rule="nonzero">
<g clip-path="url(#id192)" clip-rule="nonzero">
<path style="fill:none;stroke-width:2;stroke-linecap:butt;stroke-linejoin:miter;stroke:rgb(0%,0%,0%);stroke-opacity:1;stroke-miterlimit:10;" d="M 111.457031 120 C 111.457031 126.328125 106.328125 131.457031 100 131.457031 C 93.671875 131.457031 88.542969 126.328125 88.542969 120 C 88.542969 113.671875 93.671875 108.542969 100 108.542969 C 106.328125 108.542969 111.457031 113.671875 111.457031 120 " transform="matrix(1,0,0,1,410,10)"/>
</g>
</g>
<g clip-path="url(#id193)" clip-rule="nonzero">
<g clip-path="url(#id194)" clip-rule="nonzero">
<path style="fill:none;stroke-width:2;stroke-linecap:butt;stroke-linejoin:miter;stroke:rgb(36.8417%,50.6779%,70.9798%);stroke-opacity:1;stroke-miterlimit:10;" d="M 50 156.328125 L 80.902344 178.777344 L 69.097656 142.453125 " transform="matrix(1,0,0,1,410,10)"/>
<path style=" stroke:none;fill-rule:nonzero;fill:rgb(26.220434%,36.585873%,51.795113%);fill-opacity:0.5;" d="M 460 166.328125 L 490.902344 188.777344 L 479.097656 152.453125 "/>
</g>
</g>
<g clip-path="url(#id195)" clip-rule="nonzero">
<g clip-path="url(#id196)" clip-rule="nonzero">
<path style="fill:none;stroke-width:2;stroke-linecap:butt;stroke-linejoin:miter;stroke:rgb(0%,0%,0%);stroke-opacity:1;stroke-miterlimit:10;" d="M 61.457031 156.328125 C 61.457031 162.65625 56.328125 167.785156 50 167.785156 C 43.671875 167.785156 38.542969 162.65625 38.542969 156.328125 C 38.542969 150 43.671875 144.867188 50 144.867188 C 56.328125 144.867188 61.457031 150 61.457031 156.328125 " transform="matrix(1,0,0,1,410,10)"/>
<path style="fill:none;stroke-width:2;stroke-linecap:butt;stroke-linejoin:miter;stroke:rgb(0%,0%,0%);stroke-opacity:1;stroke-miterlimit:10;" d="M 76.738281 142.453125 C 76.738281 146.671875 73.316406 150.089844 69.097656 150.089844 C 64.878906 150.089844 61.457031 146.671875 61.457031 142.453125 C 61.457031 138.230469 64.878906 134.8125 69.097656 134.8125 C 73.316406 134.8125 76.738281 138.230469 76.738281 142.453125 " transform="matrix(1,0,0,1,410,10)"/>
</g>
</g>
<g clip-path="url(#id197)" clip-rule="nonzero">
<g clip-path="url(#id198)" clip-rule="nonzero">
<path style="fill:none;stroke-width:2;stroke-linecap:butt;stroke-linejoin:miter;stroke:rgb(88.0722%,61.1041%,14.2051%);stroke-opacity:1;stroke-miterlimit:10;" d="M 150 156.328125 L 111.804688 156.328125 L 100 120 " transform="matrix(1,0,0,1,410,10)"/>
<path style=" stroke:none;fill-rule:nonzero;fill:rgb(64.599945%,44.396697%,9.262145%);fill-opacity:0.5;" d="M 560 166.328125 L 521.804688 166.328125 L 510 130 "/>
</g>
</g>
<g clip-path="url(#id199)" clip-rule="nonzero">
<g clip-path="url(#id200)" clip-rule="nonzero">
<path style="fill:none;stroke-width:2;stroke-linecap:butt;stroke-linejoin:miter;stroke:rgb(0%,0%,0%);stroke-opacity:1;stroke-miterlimit:10;" d="M 180.558594 156.328125 C 180.558594 173.203125 166.875 186.882812 150 186.882812 C 133.125 186.882812 119.441406 173.203125 119.441406 156.328125 C 119.441406 139.449219 133.125 125.769531 150 125.769531 C 166.875 125.769531 180.558594 139.449219 180.558594 156.328125 " transform="matrix(1,0,0,1,410,10)"/>
</g>
</g>
<g clip-path="url(#id201)" clip-rule="nonzero">
<g clip-path="url(#id202)" clip-rule="nonzero">
<path style="fill:none;stroke-width:2;stroke-linecap:butt;stroke-linejoin:miter;stroke:rgb(0%,0%,0%);stroke-opacity:1;stroke-miterlimit:10;" d="M 111.457031 120 C 111.457031 126.328125 106.328125 131.457031 100 131.457031 C 93.671875 131.457031 88.542969 126.328125 88.542969 120 C 88.542969 113.671875 93.671875 108.542969 100 108.542969 C 106.328125 108.542969 111.457031 113.671875 111.457031 120 " transform="matrix(1,0,0,1,410,10)"/>
</g>
</g>
<g clip-path="url(#id203)" clip-rule="nonzero">
<g clip-path="url(#id204)" clip-rule="nonzero">
<path style="fill:none;stroke-width:2;stroke-linecap:butt;stroke-linejoin:miter;stroke:rgb(36.8417%,50.6779%,70.9798%);stroke-opacity:1;stroke-miterlimit:10;" d="M 119.097656 178.777344 L 150 156.328125 L 111.804688 156.328125 " transform="matrix(1,0,0,1,410,10)"/>
<path style=" stroke:none;fill-rule:nonzero;fill:rgb(26.220434%,36.585873%,51.795113%);fill-opacity:0.5;" d="M 529.097656 188.777344 L 560 166.328125 L 521.804688 166.328125 "/>
</g>
</g>
<g clip-path="url(#id205)" clip-rule="nonzero">
<g clip-path="url(#id206)" clip-rule="nonzero">
<path style="fill:none;stroke-width:2;stroke-linecap:butt;stroke-linejoin:miter;stroke:rgb(0%,0%,0%);stroke-opacity:1;stroke-miterlimit:10;" d="M 130.558594 178.777344 C 130.558594 185.105469 125.425781 190.238281 119.097656 190.238281 C 112.769531 190.238281 107.640625 185.105469 107.640625 178.777344 C 107.640625 172.449219 112.769531 167.320312 119.097656 167.320312 C 125.425781 167.320312 130.558594 172.449219 130.558594 178.777344 " transform="matrix(1,0,0,1,410,10)"/>
</g>
</g>
<g clip-path="url(#id207)" clip-rule="nonzero">
<g clip-path="url(#id208)" clip-rule="nonzero">
<path style="fill:none;stroke-width:2;stroke-linecap:butt;stroke-linejoin:miter;stroke:rgb(0%,0%,0%);stroke-opacity:1;stroke-miterlimit:10;" d="M 119.441406 156.328125 C 119.441406 160.546875 116.023438 163.964844 111.804688 163.964844 C 107.585938 163.964844 104.164062 160.546875 104.164062 156.328125 C 104.164062 152.109375 107.585938 148.6875 111.804688 148.6875 C 116.023438 148.6875 119.441406 152.109375 119.441406 156.328125 " transform="matrix(1,0,0,1,410,10)"/>
</g>
</g>
<g clip-path="url(#id209)" clip-rule="nonzero">
<g clip-path="url(#id210)" clip-rule="nonzero">
<path style="fill:none;stroke-width:2;stroke-linecap:butt;stroke-linejoin:miter;stroke:rgb(88.0722%,61.1041%,14.2051%);stroke-opacity:1;stroke-miterlimit:10;" d="M 180.902344 178.777344 L 150 156.328125 L 119.097656 178.777344 " transform="matrix(1,0,0,1,410,10)"/>
<path style=" stroke:none;fill-rule:nonzero;fill:rgb(64.599945%,44.396697%,9.262145%);fill-opacity:0.5;" d="M 590.902344 188.777344 L 560 166.328125 L 529.097656 188.777344 "/>
</g>
</g>
<g clip-path="url(#id211)" clip-rule="nonzero">
<g clip-path="url(#id212)" clip-rule="nonzero">
<path style="fill:none;stroke-width:2;stroke-linecap:butt;stroke-linejoin:miter;stroke:rgb(0%,0%,0%);stroke-opacity:1;stroke-miterlimit:10;" d="M 211.457031 178.777344 C 211.457031 195.65625 197.777344 209.335938 180.902344 209.335938 C 164.023438 209.335938 150.34375 195.65625 150.34375 178.777344 C 150.34375 161.902344 164.023438 148.222656 180.902344 148.222656 C 197.777344 148.222656 211.457031 161.902344 211.457031 178.777344 " transform="matrix(1,0,0,1,410,10)"/>
</g>
</g>
<g clip-path="url(#id213)" clip-rule="nonzero">
<g clip-path="url(#id214)" clip-rule="nonzero">
<path style="fill:none;stroke-width:2;stroke-linecap:butt;stroke-linejoin:miter;stroke:rgb(0%,0%,0%);stroke-opacity:1;stroke-miterlimit:10;" d="M 130.558594 178.777344 C 130.558594 185.105469 125.425781 190.238281 119.097656 190.238281 C 112.769531 190.238281 107.640625 185.105469 107.640625 178.777344 C 107.640625 172.449219 112.769531 167.320312 119.097656 167.320312 C 125.425781 167.320312 130.558594 172.449219 130.558594 178.777344 " transform="matrix(1,0,0,1,410,10)"/>
</g>
</g>
<g clip-path="url(#id215)" clip-rule="nonzero">
<g clip-path="url(#id216)" clip-rule="nonzero">
<path style="fill:none;stroke-width:2;stroke-linecap:butt;stroke-linejoin:miter;stroke:rgb(88.0722%,61.1041%,14.2051%);stroke-opacity:1;stroke-miterlimit:10;" d="M 80.902344 178.777344 L 111.804688 156.328125 L 100 120 " transform="matrix(1,0,0,1,410,10)"/>
<path style=" stroke:none;fill-rule:nonzero;fill:rgb(64.599945%,44.396697%,9.262145%);fill-opacity:0.5;" d="M 490.902344 188.777344 L 521.804688 166.328125 L 510 130 "/>
</g>
</g>
<g clip-path="url(#id217)" clip-rule="nonzero">
<g clip-path="url(#id218)" clip-rule="nonzero">
<path style="fill:none;stroke-width:2;stroke-linecap:butt;stroke-linejoin:miter;stroke:rgb(0%,0%,0%);stroke-opacity:1;stroke-miterlimit:10;" d="M 111.457031 178.777344 C 111.457031 195.65625 97.777344 209.335938 80.902344 209.335938 C 64.023438 209.335938 50.34375 195.65625 50.34375 178.777344 C 50.34375 161.902344 64.023438 148.222656 80.902344 148.222656 C 97.777344 148.222656 111.457031 161.902344 111.457031 178.777344 " transform="matrix(1,0,0,1,410,10)"/>
</g>
</g>
<g clip-path="url(#id219)" clip-rule="nonzero">
<g clip-path="url(#id220)" clip-rule="nonzero">
<path style="fill:none;stroke-width:2;stroke-linecap:butt;stroke-linejoin:miter;stroke:rgb(0%,0%,0%);stroke-opacity:1;stroke-miterlimit:10;" d="M 111.457031 120 C 111.457031 126.328125 106.328125 131.457031 100 131.457031 C 93.671875 131.457031 88.542969 126.328125 88.542969 120 C 88.542969 113.671875 93.671875 108.542969 100 108.542969 C 106.328125 108.542969 111.457031 113.671875 111.457031 120 " transform="matrix(1,0,0,1,410,10)"/>
</g>
</g>
<g clip-path="url(#id221)" clip-rule="nonzero">
<g clip-path="url(#id222)" clip-rule="nonzero">
<path style="fill:none;stroke-width:2;stroke-linecap:butt;stroke-linejoin:miter;stroke:rgb(36.8417%,50.6779%,70.9798%);stroke-opacity:1;stroke-miterlimit:10;" d="M 119.097656 178.777344 L 80.902344 178.777344 L 111.804688 156.328125 " transform="matrix(1,0,0,1,410,10)"/>
<path style=" stroke:none;fill-rule:nonzero;fill:rgb(26.220434%,36.585873%,51.795113%);fill-opacity:0.5;" d="M 529.097656 188.777344 L 490.902344 188.777344 L 521.804688 166.328125 "/>
</g>
</g>
<g clip-path="url(#id223)" clip-rule="nonzero">
<g clip-path="url(#id224)" clip-rule="nonzero">
<path style="fill:none;stroke-width:2;stroke-linecap:butt;stroke-linejoin:miter;stroke:rgb(0%,0%,0%);stroke-opacity:1;stroke-miterlimit:10;" d="M 130.558594 178.777344 C 130.558594 185.105469 125.425781 190.238281 119.097656 190.238281 C 112.769531 190.238281 107.640625 185.105469 107.640625 178.777344 C 107.640625 172.449219 112.769531 167.320312 119.097656 167.320312 C 125.425781 167.320312 130.558594 172.449219 130.558594 178.777344 " transform="matrix(1,0,0,1,410,10)"/>
<path style="fill:none;stroke-width:2;stroke-linecap:butt;stroke-linejoin:miter;stroke:rgb(0%,0%,0%);stroke-opacity:1;stroke-miterlimit:10;" d="M 119.441406 156.328125 C 119.441406 160.546875 116.023438 163.964844 111.804688 163.964844 C 107.585938 163.964844 104.164062 160.546875 104.164062 156.328125 C 104.164062 152.109375 107.585938 148.6875 111.804688 148.6875 C 116.023438 148.6875 119.441406 152.109375 119.441406 156.328125 " transform="matrix(1,0,0,1,410,10)"/>
</g>
</g>
</g>
</svg>
