<?xml version="1.0" encoding="UTF-8"?>
<svg xmlns="http://www.w3.org/2000/svg" xmlns:xlink="http://www.w3.org/1999/xlink" width="100pt" height="100pt" viewBox="0 0 100 100" version="1.1">
<defs>
<g>
<symbol overflow="visible" id="id1">
<path style="stroke:none;" d="M 0.40625 1.421875 L 0.40625 -5.640625 L 4.40625 -5.640625 L 4.40625 1.421875 Z M 0.84375 0.96875 L 3.953125 0.96875 L 3.953125 -5.1875 L 0.84375 -5.1875 Z M 0.84375 0.96875 "/>
</symbol>
<symbol overflow="visible" id="id2">
<path style="stroke:none;" d="M 2.546875 -5.3125 C 2.140625 -5.3125 1.832031 -5.109375 1.625 -4.703125 C 1.425781 -4.304688 1.328125 -3.707031 1.328125 -2.90625 C 1.328125 -2.113281 1.425781 -1.515625 1.625 -1.109375 C 1.832031 -0.710938 2.140625 -0.515625 2.546875 -0.515625 C 2.953125 -0.515625 3.253906 -0.710938 3.453125 -1.109375 C 3.660156 -1.515625 3.765625 -2.113281 3.765625 -2.90625 C 3.765625 -3.707031 3.660156 -4.304688 3.453125 -4.703125 C 3.253906 -5.109375 2.953125 -5.3125 2.546875 -5.3125 Z M 2.546875 -5.9375 C 3.203125 -5.9375 3.703125 -5.675781 4.046875 -5.15625 C 4.390625 -4.644531 4.5625 -3.894531 4.5625 -2.90625 C 4.5625 -1.925781 4.390625 -1.175781 4.046875 -0.65625 C 3.703125 -0.144531 3.203125 0.109375 2.546875 0.109375 C 1.890625 0.109375 1.390625 -0.144531 1.046875 -0.65625 C 0.703125 -1.175781 0.53125 -1.925781 0.53125 -2.90625 C 0.53125 -3.894531 0.703125 -4.644531 1.046875 -5.15625 C 1.390625 -5.675781 1.890625 -5.9375 2.546875 -5.9375 Z M 2.546875 -5.9375 "/>
</symbol>
<symbol overflow="visible" id="id3">
<path style="stroke:none;" d="M 0.9375 -1 L 1.765625 -1 L 1.765625 -0.328125 L 1.125 0.9375 L 0.625 0.9375 L 0.9375 -0.328125 Z M 0.9375 -1 "/>
</symbol>
<symbol overflow="visible" id="id4">
<path style="stroke:none;" d="M 1 -0.671875 L 2.28125 -0.671875 L 2.28125 -5.109375 L 0.875 -4.828125 L 0.875 -5.546875 L 2.28125 -5.828125 L 3.0625 -5.828125 L 3.0625 -0.671875 L 4.359375 -0.671875 L 4.359375 0 L 1 0 Z M 1 -0.671875 "/>
</symbol>
</g>
</defs>
<g id="id5">
<path style="fill:none;stroke-width:1;stroke-linecap:butt;stroke-linejoin:miter;stroke:rgb(0%,0%,0%);stroke-opacity:0.5;stroke-miterlimit:10;" d="M -1000 -1000 L -1000 1000 M -900 -1000 L -900 1000 M -800 -1000 L -800 1000 M -700 -1000 L -700 1000 M -600 -1000 L -600 1000 M -500 -1000 L -500 1000 M -400 -1000 L -400 1000 M -300 -1000 L -300 1000 M -200 -1000 L -200 1000 M -100 -1000 L -100 1000 M 0 -1000 L 0 1000 M 100 -1000 L 100 1000 M 200 -1000 L 200 1000 M 300 -1000 L 300 1000 M 400 -1000 L 400 1000 M 500 -1000 L 500 1000 M 600 -1000 L 600 1000 M 700 -1000 L 700 1000 M 800 -1000 L 800 1000 M 900 -1000 L 900 1000 M 1000 -1000 L 1000 1000 M -1000 -1000 L 1000 -1000 M -1000 -900 L 1000 -900 M -1000 -800 L 1000 -800 M -1000 -700 L 1000 -700 M -1000 -600 L 1000 -600 M -1000 -500 L 1000 -500 M -1000 -400 L 1000 -400 M -1000 -300 L 1000 -300 M -1000 -200 L 1000 -200 M -1000 -100 L 1000 -100 M -1000 0 L 1000 0 M -1000 100 L 1000 100 M -1000 200 L 1000 200 M -1000 300 L 1000 300 M -1000 400 L 1000 400 M -1000 500 L 1000 500 M -1000 600 L 1000 600 M -1000 700 L 1000 700 M -1000 800 L 1000 800 M -1000 900 L 1000 900 M -1000 1000 L 1000 1000 "/>
<path style="fill:none;stroke-width:1;stroke-linecap:butt;stroke-linejoin:miter;stroke:rgb(0%,0%,0%);stroke-opacity:0.2;stroke-dasharray:4,6;stroke-dashoffset:2;stroke-miterlimit:10;" d="M -990 -1000 L -990 1000 M -980 -1000 L -980 1000 M -970 -1000 L -970 1000 M -960 -1000 L -960 1000 M -950 -1000 L -950 1000 M -940 -1000 L -940 1000 M -930 -1000 L -930 1000 M -920 -1000 L -920 1000 M -910 -1000 L -910 1000 M -890 -1000 L -890 1000 M -880 -1000 L -880 1000 M -870 -1000 L -870 1000 M -860 -1000 L -860 1000 M -850 -1000 L -850 1000 M -840 -1000 L -840 1000 M -830 -1000 L -830 1000 M -820 -1000 L -820 1000 M -810 -1000 L -810 1000 M -790 -1000 L -790 1000 M -780 -1000 L -780 1000 M -770 -1000 L -770 1000 M -760 -1000 L -760 1000 M -750 -1000 L -750 1000 M -740 -1000 L -740 1000 M -730 -1000 L -730 1000 M -720 -1000 L -720 1000 M -710 -1000 L -710 1000 M -690 -1000 L -690 1000 M -680 -1000 L -680 1000 M -670 -1000 L -670 1000 M -660 -1000 L -660 1000 M -650 -1000 L -650 1000 M -640 -1000 L -640 1000 M -630 -1000 L -630 1000 M -620 -1000 L -620 1000 M -610 -1000 L -610 1000 M -590 -1000 L -590 1000 M -580 -1000 L -580 1000 M -570 -1000 L -570 1000 M -560 -1000 L -560 1000 M -550 -1000 L -550 1000 M -540 -1000 L -540 1000 M -530 -1000 L -530 1000 M -520 -1000 L -520 1000 M -510 -1000 L -510 1000 M -490 -1000 L -490 1000 M -480 -1000 L -480 1000 M -470 -1000 L -470 1000 M -460 -1000 L -460 1000 M -450 -1000 L -450 1000 M -440 -1000 L -440 1000 M -430 -1000 L -430 1000 M -420 -1000 L -420 1000 M -410 -1000 L -410 1000 M -390 -1000 L -390 1000 M -380 -1000 L -380 1000 M -370 -1000 L -370 1000 M -360 -1000 L -360 1000 M -350 -1000 L -350 1000 M -340 -1000 L -340 1000 M -330 -1000 L -330 1000 M -320 -1000 L -320 1000 M -310 -1000 L -310 1000 M -290 -1000 L -290 1000 M -280 -1000 L -280 1000 M -270 -1000 L -270 1000 M -260 -1000 L -260 1000 M -250 -1000 L -250 1000 M -240 -1000 L -240 1000 M -230 -1000 L -230 1000 M -220 -1000 L -220 1000 M -210 -1000 L -210 1000 M -190 -1000 L -190 1000 M -180 -1000 L -180 1000 M -170 -1000 L -170 1000 M -160 -1000 L -160 1000 M -150 -1000 L -150 1000 M -140 -1000 L -140 1000 M -130 -1000 L -130 1000 M -120 -1000 L -120 1000 M -110 -1000 L -110 1000 M -90 -1000 L -90 1000 M -80 -1000 L -80 1000 M -70 -1000 L -70 1000 M -60 -1000 L -60 1000 M -50 -1000 L -50 1000 M -40 -1000 L -40 1000 M -30 -1000 L -30 1000 M -20 -1000 L -20 1000 M -10 -1000 L -10 1000 M 10 -1000 L 10 1000 M 20 -1000 L 20 1000 M 30 -1000 L 30 1000 M 40 -1000 L 40 1000 M 50 -1000 L 50 1000 M 60 -1000 L 60 1000 M 70 -1000 L 70 1000 M 80 -1000 L 80 1000 M 90 -1000 L 90 1000 M 110 -1000 L 110 1000 M 120 -1000 L 120 1000 M 130 -1000 L 130 1000 M 140 -1000 L 140 1000 M 150 -1000 L 150 1000 M 160 -1000 L 160 1000 M 170 -1000 L 170 1000 M 180 -1000 L 180 1000 M 190 -1000 L 190 1000 M 210 -1000 L 210 1000 M 220 -1000 L 220 1000 M 230 -1000 L 230 1000 M 240 -1000 L 240 1000 M 250 -1000 L 250 1000 M 260 -1000 L 260 1000 M 270 -1000 L 270 1000 M 280 -1000 L 280 1000 M 290 -1000 L 290 1000 M 310 -1000 L 310 1000 M 320 -1000 L 320 1000 M 330 -1000 L 330 1000 M 340 -1000 L 340 1000 M 350 -1000 L 350 1000 M 360 -1000 L 360 1000 M 370 -1000 L 370 1000 M 380 -1000 L 380 1000 M 390 -1000 L 390 1000 M 410 -1000 L 410 1000 M 420 -1000 L 420 1000 M 430 -1000 L 430 1000 M 440 -1000 L 440 1000 M 450 -1000 L 450 1000 M 460 -1000 L 460 1000 M 470 -1000 L 470 1000 M 480 -1000 L 480 1000 M 490 -1000 L 490 1000 M 510 -1000 L 510 1000 M 520 -1000 L 520 1000 M 530 -1000 L 530 1000 M 540 -1000 L 540 1000 M 550 -1000 L 550 1000 M 560 -1000 L 560 1000 M 570 -1000 L 570 1000 M 580 -1000 L 580 1000 M 590 -1000 L 590 1000 M 610 -1000 L 610 1000 M 620 -1000 L 620 1000 M 630 -1000 L 630 1000 M 640 -1000 L 640 1000 M 650 -1000 L 650 1000 M 660 -1000 L 660 1000 M 670 -1000 L 670 1000 M 680 -1000 L 680 1000 M 690 -1000 L 690 1000 M 710 -1000 L 710 1000 M 720 -1000 L 720 1000 M 730 -1000 L 730 1000 M 740 -1000 L 740 1000 M 750 -1000 L 750 1000 M 760 -1000 L 760 1000 M 770 -1000 L 770 1000 M 780 -1000 L 780 1000 M 790 -1000 L 790 1000 M 810 -1000 L 810 1000 M 820 -1000 L 820 1000 M 830 -1000 L 830 1000 M 840 -1000 L 840 1000 M 850 -1000 L 850 1000 M 860 -1000 L 860 1000 M 870 -1000 L 870 1000 M 880 -1000 L 880 1000 M 890 -1000 L 890 1000 M 910 -1000 L 910 1000 M 920 -1000 L 920 1000 M 930 -1000 L 930 1000 M 940 -1000 L 940 1000 M 950 -1000 L 950 1000 M 960 -1000 L 960 1000 M 970 -1000 L 970 1000 M 980 -1000 L 980 1000 M 990 -1000 L 990 1000 M -1000 -990 L 1000 -990 M -1000 -980 L 1000 -980 M -1000 -970 L 1000 -970 M -1000 -960 L 1000 -960 M -1000 -950 L 1000 -950 M -1000 -940 L 1000 -940 M -1000 -930 L 1000 -930 M -1000 -920 L 1000 -920 M -1000 -910 L 1000 -910 M -1000 -890 L 1000 -890 M -1000 -880 L 1000 -880 M -1000 -870 L 1000 -870 M -1000 -860 L 1000 -860 M -1000 -850 L 1000 -850 M -1000 -840 L 1000 -840 M -1000 -830 L 1000 -830 M -1000 -820 L 1000 -820 M -1000 -810 L 1000 -810 M -1000 -790 L 1000 -790 M -1000 -780 L 1000 -780 M -1000 -770 L 1000 -770 M -1000 -760 L 1000 -760 M -1000 -750 L 1000 -750 M -1000 -740 L 1000 -740 M -1000 -730 L 1000 -730 M -1000 -720 L 1000 -720 M -1000 -710 L 1000 -710 M -1000 -690 L 1000 -690 M -1000 -680 L 1000 -680 M -1000 -670 L 1000 -670 M -1000 -660 L 1000 -660 M -1000 -650 L 1000 -650 M -1000 -640 L 1000 -640 M -1000 -630 L 1000 -630 M -1000 -620 L 1000 -620 M -1000 -610 L 1000 -610 M -1000 -590 L 1000 -590 M -1000 -580 L 1000 -580 M -1000 -570 L 1000 -570 M -1000 -560 L 1000 -560 M -1000 -550 L 1000 -550 M -1000 -540 L 1000 -540 M -1000 -530 L 1000 -530 M -1000 -520 L 1000 -520 M -1000 -510 L 1000 -510 M -1000 -490 L 1000 -490 M -1000 -480 L 1000 -480 M -1000 -470 L 1000 -470 M -1000 -460 L 1000 -460 M -1000 -450 L 1000 -450 M -1000 -440 L 1000 -440 M -1000 -430 L 1000 -430 M -1000 -420 L 1000 -420 M -1000 -410 L 1000 -410 M -1000 -390 L 1000 -390 M -1000 -380 L 1000 -380 M -1000 -370 L 1000 -370 M -1000 -360 L 1000 -360 M -1000 -350 L 1000 -350 M -1000 -340 L 1000 -340 M -1000 -330 L 1000 -330 M -1000 -320 L 1000 -320 M -1000 -310 L 1000 -310 M -1000 -290 L 1000 -290 M -1000 -280 L 1000 -280 M -1000 -270 L 1000 -270 M -1000 -260 L 1000 -260 M -1000 -250 L 1000 -250 M -1000 -240 L 1000 -240 M -1000 -230 L 1000 -230 M -1000 -220 L 1000 -220 M -1000 -210 L 1000 -210 M -1000 -190 L 1000 -190 M -1000 -180 L 1000 -180 M -1000 -170 L 1000 -170 M -1000 -160 L 1000 -160 M -1000 -150 L 1000 -150 M -1000 -140 L 1000 -140 M -1000 -130 L 1000 -130 M -1000 -120 L 1000 -120 M -1000 -110 L 1000 -110 M -1000 -90 L 1000 -90 M -1000 -80 L 1000 -80 M -1000 -70 L 1000 -70 M -1000 -60 L 1000 -60 M -1000 -50 L 1000 -50 M -1000 -40 L 1000 -40 M -1000 -30 L 1000 -30 M -1000 -20 L 1000 -20 M -1000 -10 L 1000 -10 M -1000 10 L 1000 10 M -1000 20 L 1000 20 M -1000 30 L 1000 30 M -1000 40 L 1000 40 M -1000 50 L 1000 50 M -1000 60 L 1000 60 M -1000 70 L 1000 70 M -1000 80 L 1000 80 M -1000 90 L 1000 90 M -1000 110 L 1000 110 M -1000 120 L 1000 120 M -1000 130 L 1000 130 M -1000 140 L 1000 140 M -1000 150 L 1000 150 M -1000 160 L 1000 160 M -1000 170 L 1000 170 M -1000 180 L 1000 180 M -1000 190 L 1000 190 M -1000 210 L 1000 210 M -1000 220 L 1000 220 M -1000 230 L 1000 230 M -1000 240 L 1000 240 M -1000 250 L 1000 250 M -1000 260 L 1000 260 M -1000 270 L 1000 270 M -1000 280 L 1000 280 M -1000 290 L 1000 290 M -1000 310 L 1000 310 M -1000 320 L 1000 320 M -1000 330 L 1000 330 M -1000 340 L 1000 340 M -1000 350 L 1000 350 M -1000 360 L 1000 360 M -1000 370 L 1000 370 M -1000 380 L 1000 380 M -1000 390 L 1000 390 M -1000 410 L 1000 410 M -1000 420 L 1000 420 M -1000 430 L 1000 430 M -1000 440 L 1000 440 M -1000 450 L 1000 450 M -1000 460 L 1000 460 M -1000 470 L 1000 470 M -1000 480 L 1000 480 M -1000 490 L 1000 490 M -1000 510 L 1000 510 M -1000 520 L 1000 520 M -1000 530 L 1000 530 M -1000 540 L 1000 540 M -1000 550 L 1000 550 M -1000 560 L 1000 560 M -1000 570 L 1000 570 M -1000 580 L 1000 580 M -1000 590 L 1000 590 M -1000 610 L 1000 610 M -1000 620 L 1000 620 M -1000 630 L 1000 630 M -1000 640 L 1000 640 M -1000 650 L 1000 650 M -1000 660 L 1000 660 M -1000 670 L 1000 670 M -1000 680 L 1000 680 M -1000 690 L 1000 690 M -1000 710 L 1000 710 M -1000 720 L 1000 720 M -1000 730 L 1000 730 M -1000 740 L 1000 740 M -1000 750 L 1000 750 M -1000 760 L 1000 760 M -1000 770 L 1000 770 M -1000 780 L 1000 780 M -1000 790 L 1000 790 M -1000 810 L 1000 810 M -1000 820 L 1000 820 M -1000 830 L 1000 830 M -1000 840 L 1000 840 M -1000 850 L 1000 850 M -1000 860 L 1000 860 M -1000 870 L 1000 870 M -1000 880 L 1000 880 M -1000 890 L 1000 890 M -1000 910 L 1000 910 M -1000 920 L 1000 920 M -1000 930 L 1000 930 M -1000 940 L 1000 940 M -1000 950 L 1000 950 M -1000 960 L 1000 960 M -1000 970 L 1000 970 M -1000 980 L 1000 980 M -1000 990 L 1000 990 "/>
<g style="fill:rgb(36.8417%,50.6779%,70.9798%);fill-opacity:1;">
  <use xlink:href="#id2" x="-5.832031" y="6.867188"/>
  <use xlink:href="#id3" x="-0.742188" y="6.867188"/>
  <use xlink:href="#id2" x="1.800781" y="6.867188"/>
</g>
<g style="fill:rgb(36.8417%,50.6779%,70.9798%);fill-opacity:1;">
  <use xlink:href="#id4" x="89.253906" y="6.867188"/>
  <use xlink:href="#id2" x="94.34375" y="6.867188"/>
  <use xlink:href="#id2" x="99.433594" y="6.867188"/>
  <use xlink:href="#id3" x="104.523438" y="6.867188"/>
  <use xlink:href="#id2" x="107.066406" y="6.867188"/>
</g>
<path style="fill:none;stroke-width:1;stroke-linecap:butt;stroke-linejoin:miter;stroke:rgb(88.0722%,61.1041%,14.2051%);stroke-opacity:1;stroke-miterlimit:10;" d="M 46.097656 46.875 L 45 50 L 46.097656 53.125 L 46.875 53.902344 L 50 55 L 53.125 53.902344 L 53.902344 53.125 L 55 50 L 53.902344 46.875 L 53.125 46.097656 L 50 45 L 46.875 46.097656 L 46.097656 46.875 "/>
<path style="fill:none;stroke-width:1;stroke-linecap:butt;stroke-linejoin:miter;stroke:rgb(56.0181%,69.1569%,19.4885%);stroke-opacity:1;stroke-miterlimit:10;" d="M 40.5 46.875 L 40 50 L 40.5 53.125 L 40.625 53.480469 L 42.195312 56.25 L 43.75 57.804688 L 46.519531 59.375 L 46.875 59.5 L 50 60 L 53.125 59.5 L 53.480469 59.375 L 56.25 57.804688 L 57.804688 56.25 L 59.375 53.480469 L 59.5 53.125 L 60 50 L 59.5 46.875 L 59.375 46.519531 L 57.804688 43.75 L 56.25 42.195312 L 53.480469 40.625 L 53.125 40.5 L 50 40 L 46.875 40.5 L 46.519531 40.625 L 43.75 42.195312 L 42.195312 43.75 L 40.625 46.519531 L 40.5 46.875 "/>
<path style="fill:none;stroke-width:1;stroke-linecap:butt;stroke-linejoin:miter;stroke:rgb(92.2526%,38.5626%,20.9179%);stroke-opacity:1;stroke-miterlimit:10;" d="M 36.363281 43.75 L 35.328125 46.875 L 35 50 L 35.328125 53.125 L 36.363281 56.25 L 37.5 58.289062 L 38.292969 59.375 L 40.625 61.707031 L 41.710938 62.5 L 43.75 63.636719 L 46.875 64.671875 L 50 65 L 53.125 64.671875 L 56.25 63.636719 L 58.289062 62.5 L 59.375 61.707031 L 61.707031 59.375 L 62.5 58.289062 L 63.636719 56.25 L 64.671875 53.125 L 65 50 L 64.671875 46.875 L 63.636719 43.75 L 62.5 41.710938 L 61.707031 40.625 L 59.375 38.292969 L 58.289062 37.5 L 56.25 36.363281 L 53.125 35.328125 L 50 35 L 46.875 35.328125 L 43.75 36.363281 L 41.710938 37.5 L 40.625 38.292969 L 38.292969 40.625 L 37.5 41.710938 L 36.363281 43.75 "/>
<path style="fill:none;stroke-width:1;stroke-linecap:butt;stroke-linejoin:miter;stroke:rgb(52.8488%,47.0624%,70.1351%);stroke-opacity:1;stroke-miterlimit:10;" d="M 31 43.75 L 30.246094 46.875 L 30 50 L 30.246094 53.125 L 31 56.25 L 31.25 56.960938 L 32.335938 59.375 L 34.375 62.484375 L 37.515625 65.625 L 40.625 67.664062 L 43.039062 68.75 L 43.75 69 L 46.875 69.753906 L 50 70 L 53.125 69.753906 L 56.25 69 L 56.960938 68.75 L 59.375 67.664062 L 62.484375 65.625 L 65.625 62.484375 L 67.664062 59.375 L 68.75 56.960938 L 69 56.25 L 69.753906 53.125 L 70 50 L 69.753906 46.875 L 69 43.75 L 68.75 43.039062 L 67.664062 40.625 L 65.625 37.515625 L 62.484375 34.375 L 59.375 32.335938 L 56.960938 31.25 L 56.25 31 L 53.125 30.246094 L 50 30 L 46.875 30.246094 L 43.75 31 L 43.039062 31.25 L 40.625 32.335938 L 37.515625 34.375 L 34.375 37.515625 L 32.335938 40.625 L 31.25 43.039062 L 31 43.75 "/>
<path style="fill:none;stroke-width:1;stroke-linecap:butt;stroke-linejoin:miter;stroke:rgb(77.2079%,43.1554%,10.2387%);stroke-opacity:1;stroke-miterlimit:10;" d="M 25 50 L 25.195312 53.125 L 25.796875 56.25 L 26.824219 59.375 L 28.125 62.101562 L 28.347656 62.5 L 30.484375 65.625 L 31.25 66.535156 L 33.464844 68.75 L 34.375 69.515625 L 37.5 71.652344 L 37.898438 71.875 L 40.625 73.175781 L 43.75 74.203125 L 46.875 74.804688 L 50 75 L 53.125 74.804688 L 56.25 74.203125 L 59.375 73.175781 L 62.101562 71.875 L 62.5 71.652344 L 65.625 69.515625 L 66.535156 68.75 L 68.75 66.535156 L 69.515625 65.625 L 71.652344 62.5 L 71.875 62.101562 L 73.175781 59.375 L 74.203125 56.25 L 74.804688 53.125 L 75 50 L 74.804688 46.875 L 74.203125 43.75 L 73.175781 40.625 L 71.875 37.898438 L 71.652344 37.5 L 69.515625 34.375 L 68.75 33.464844 L 66.535156 31.25 L 65.625 30.484375 L 62.5 28.347656 L 62.101562 28.125 L 59.375 26.824219 L 56.25 25.796875 L 53.125 25.195312 L 50 25 L 46.875 25.195312 L 43.75 25.796875 L 40.625 26.824219 L 37.898438 28.125 L 37.5 28.347656 L 34.375 30.484375 L 33.464844 31.25 L 31.25 33.464844 L 30.484375 34.375 L 28.347656 37.5 L 28.125 37.898438 L 26.824219 40.625 L 25.796875 43.75 L 25.195312 46.875 L 25 50 "/>
<path style="fill:none;stroke-width:1;stroke-linecap:butt;stroke-linejoin:miter;stroke:rgb(36.3898%,61.8501%,78.2349%);stroke-opacity:1;stroke-miterlimit:10;" d="M 21.5 40.625 L 20.660156 43.75 L 20.164062 46.875 L 20 50 L 20.164062 53.125 L 20.660156 56.25 L 21.5 59.375 L 21.875 60.4375 L 22.726562 62.5 L 24.390625 65.625 L 25 66.582031 L 26.582031 68.75 L 28.125 70.53125 L 29.46875 71.875 L 31.25 73.417969 L 33.417969 75 L 34.375 75.609375 L 37.5 77.273438 L 39.5625 78.125 L 40.625 78.5 L 43.75 79.339844 L 46.875 79.835938 L 50 80 L 53.125 79.835938 L 56.25 79.339844 L 59.375 78.5 L 60.4375 78.125 L 62.5 77.273438 L 65.625 75.609375 L 66.582031 75 L 68.75 73.417969 L 70.53125 71.875 L 71.875 70.53125 L 73.417969 68.75 L 75 66.582031 L 75.609375 65.625 L 77.273438 62.5 L 78.125 60.4375 L 78.5 59.375 L 79.339844 56.25 L 79.835938 53.125 L 80 50 L 79.835938 46.875 L 79.339844 43.75 L 78.5 40.625 L 78.125 39.5625 L 77.273438 37.5 L 75.609375 34.375 L 75 33.417969 L 73.417969 31.25 L 71.875 29.46875 L 70.53125 28.125 L 68.75 26.582031 L 66.582031 25 L 65.625 24.390625 L 62.5 22.726562 L 60.4375 21.875 L 59.375 21.5 L 56.25 20.660156 L 53.125 20.164062 L 50 20 L 46.875 20.164062 L 43.75 20.660156 L 40.625 21.5 L 39.5625 21.875 L 37.5 22.726562 L 34.375 24.390625 L 33.417969 25 L 31.25 26.582031 L 29.46875 28.125 L 28.125 29.46875 L 26.582031 31.25 L 25 33.417969 L 24.390625 34.375 L 22.726562 37.5 L 21.875 39.5625 L 21.5 40.625 "/>
<path style="fill:none;stroke-width:1;stroke-linecap:butt;stroke-linejoin:miter;stroke:rgb(100%,75%,0%);stroke-opacity:1;stroke-miterlimit:10;" d="M 15.5625 43.75 L 15.140625 46.875 L 15 50 L 15.140625 53.125 L 15.5625 56.25 L 15.625 56.585938 L 16.28125 59.375 L 17.308594 62.5 L 18.679688 65.625 L 18.75 65.761719 L 20.445312 68.75 L 21.875 70.832031 L 22.679688 71.875 L 25 74.496094 L 25.503906 75 L 28.125 77.320312 L 29.167969 78.125 L 31.25 79.554688 L 34.238281 81.25 L 34.375 81.320312 L 37.5 82.691406 L 40.625 83.71875 L 43.414062 84.375 L 43.75 84.4375 L 46.875 84.859375 L 50 85 L 53.125 84.859375 L 56.25 84.4375 L 56.585938 84.375 L 59.375 83.71875 L 62.5 82.691406 L 65.625 81.320312 L 65.761719 81.25 L 68.75 79.554688 L 70.832031 78.125 L 71.875 77.320312 L 74.496094 75 L 75 74.496094 L 77.320312 71.875 L 78.125 70.832031 L 79.554688 68.75 L 81.25 65.761719 L 81.320312 65.625 L 82.691406 62.5 L 83.71875 59.375 L 84.375 56.585938 L 84.4375 56.25 L 84.859375 53.125 L 85 50 L 84.859375 46.875 L 84.4375 43.75 L 84.375 43.414062 L 83.71875 40.625 L 82.691406 37.5 L 81.320312 34.375 L 81.25 34.238281 L 79.554688 31.25 L 78.125 29.167969 L 77.320312 28.125 L 75 25.503906 L 74.496094 25 L 71.875 22.679688 L 70.832031 21.875 L 68.75 20.445312 L 65.761719 18.75 L 65.625 18.679688 L 62.5 17.308594 L 59.375 16.28125 L 56.585938 15.625 L 56.25 15.5625 L 53.125 15.140625 L 50 15 L 46.875 15.140625 L 43.75 15.5625 L 43.414062 15.625 L 40.625 16.28125 L 37.5 17.308594 L 34.375 18.679688 L 34.238281 18.75 L 31.25 20.445312 L 29.167969 21.875 L 28.125 22.679688 L 25.503906 25 L 25 25.503906 L 22.679688 28.125 L 21.875 29.167969 L 20.445312 31.25 L 18.75 34.238281 L 18.679688 34.375 L 17.308594 37.5 L 16.28125 40.625 L 15.625 43.414062 L 15.5625 43.75 "/>
<path style="fill:none;stroke-width:1;stroke-linecap:butt;stroke-linejoin:miter;stroke:rgb(64.7624%,37.816%,61.4037%);stroke-opacity:1;stroke-miterlimit:10;" d="M 12.003906 37.5 L 11.113281 40.625 L 10.492188 43.75 L 10.121094 46.875 L 10 50 L 10.121094 53.125 L 10.492188 56.25 L 11.113281 59.375 L 12.003906 62.5 L 12.5 63.921875 L 13.179688 65.625 L 14.667969 68.75 L 15.625 70.453125 L 16.511719 71.875 L 18.75 74.96875 L 18.777344 75 L 21.554688 78.125 L 21.875 78.445312 L 25 81.222656 L 25.03125 81.25 L 28.125 83.488281 L 29.546875 84.375 L 31.25 85.332031 L 34.375 86.820312 L 36.078125 87.5 L 37.5 87.996094 L 40.625 88.886719 L 43.75 89.507812 L 46.875 89.878906 L 50 90 L 53.125 89.878906 L 56.25 89.507812 L 59.375 88.886719 L 62.5 87.996094 L 63.921875 87.5 L 65.625 86.820312 L 68.75 85.332031 L 70.453125 84.375 L 71.875 83.488281 L 74.96875 81.25 L 75 81.222656 L 78.125 78.445312 L 78.445312 78.125 L 81.222656 75 L 81.25 74.96875 L 83.488281 71.875 L 84.375 70.453125 L 85.332031 68.75 L 86.820312 65.625 L 87.5 63.921875 L 87.996094 62.5 L 88.886719 59.375 L 89.507812 56.25 L 89.878906 53.125 L 90 50 L 89.878906 46.875 L 89.507812 43.75 L 88.886719 40.625 L 87.996094 37.5 L 87.5 36.078125 L 86.820312 34.375 L 85.332031 31.25 L 84.375 29.546875 L 83.488281 28.125 L 81.25 25.03125 L 81.222656 25 L 78.445312 21.875 L 78.125 21.554688 L 75 18.777344 L 74.96875 18.75 L 71.875 16.511719 L 70.453125 15.625 L 68.75 14.667969 L 65.625 13.179688 L 63.921875 12.5 L 62.5 12.003906 L 59.375 11.113281 L 56.25 10.492188 L 53.125 10.121094 L 50 10 L 46.875 10.121094 L 43.75 10.492188 L 40.625 11.113281 L 37.5 12.003906 L 36.078125 12.5 L 34.375 13.179688 L 31.25 14.667969 L 29.546875 15.625 L 28.125 16.511719 L 25.03125 18.75 L 25 18.777344 L 21.875 21.554688 L 21.554688 21.875 L 18.777344 25 L 18.75 25.03125 L 16.511719 28.125 L 15.625 29.546875 L 14.667969 31.25 L 13.179688 34.375 L 12.5 36.078125 L 12.003906 37.5 "/>
<path style="fill:none;stroke-width:1;stroke-linecap:butt;stroke-linejoin:miter;stroke:rgb(57.1589%,58.6483%,0%);stroke-opacity:1;stroke-miterlimit:10;" d="M 5.984375 40.625 L 5.4375 43.75 L 5.105469 46.875 L 5 50 L 5.105469 53.125 L 5.4375 56.25 L 5.984375 59.375 L 6.25 60.53125 L 6.769531 62.5 L 7.796875 65.625 L 9.09375 68.75 L 9.375 69.355469 L 10.671875 71.875 L 12.5 74.875 L 12.582031 75 L 14.871094 78.125 L 15.625 79.042969 L 17.621094 81.25 L 18.75 82.378906 L 20.957031 84.375 L 21.875 85.128906 L 25 87.417969 L 25.125 87.5 L 28.125 89.328125 L 30.644531 90.625 L 31.25 90.90625 L 34.375 92.203125 L 37.5 93.230469 L 39.46875 93.75 L 40.625 94.015625 L 43.75 94.5625 L 46.875 94.894531 L 50 95 L 53.125 94.894531 L 56.25 94.5625 L 59.375 94.015625 L 60.53125 93.75 L 62.5 93.230469 L 65.625 92.203125 L 68.75 90.90625 L 69.355469 90.625 L 71.875 89.328125 L 74.875 87.5 L 75 87.417969 L 78.125 85.128906 L 79.042969 84.375 L 81.25 82.378906 L 82.378906 81.25 L 84.375 79.042969 L 85.128906 78.125 L 87.417969 75 L 87.5 74.875 L 89.328125 71.875 L 90.625 69.355469 L 90.90625 68.75 L 92.203125 65.625 L 93.230469 62.5 L 93.75 60.53125 L 94.015625 59.375 L 94.5625 56.25 L 94.894531 53.125 L 95 50 L 94.894531 46.875 L 94.5625 43.75 L 94.015625 40.625 L 93.75 39.46875 L 93.230469 37.5 L 92.203125 34.375 L 90.90625 31.25 L 90.625 30.644531 L 89.328125 28.125 L 87.5 25.125 L 87.417969 25 L 85.128906 21.875 L 84.375 20.957031 L 82.378906 18.75 L 81.25 17.621094 L 79.042969 15.625 L 78.125 14.871094 L 75 12.582031 L 74.875 12.5 L 71.875 10.671875 L 69.355469 9.375 L 68.75 9.09375 L 65.625 7.796875 L 62.5 6.769531 L 60.53125 6.25 L 59.375 5.984375 L 56.25 5.4375 L 53.125 5.105469 L 50 5 L 46.875 5.105469 L 43.75 5.4375 L 40.625 5.984375 L 39.46875 6.25 L 37.5 6.769531 L 34.375 7.796875 L 31.25 9.09375 L 30.644531 9.375 L 28.125 10.671875 L 25.125 12.5 L 25 12.582031 L 21.875 14.871094 L 20.957031 15.625 L 18.75 17.621094 L 17.621094 18.75 L 15.625 20.957031 L 14.871094 21.875 L 12.582031 25 L 12.5 25.125 L 10.671875 28.125 L 9.375 30.644531 L 9.09375 31.25 L 7.796875 34.375 L 6.769531 37.5 L 6.25 39.46875 L 5.984375 40.625 "/>
<path style="fill:none;stroke-width:1;stroke-linecap:butt;stroke-linejoin:miter;stroke:rgb(91.5%,33.25%,21.25%);stroke-opacity:1;stroke-miterlimit:10;" d="M 50 0 L 46.875 0.0976562 L 43.75 0.390625 L 40.625 0.886719 L 37.5 1.589844 L 34.375 2.503906 L 32.601562 3.125 L 31.25 3.648438 L 28.125 5.039062 L 25.796875 6.25 L 25 6.699219 L 21.875 8.660156 L 20.851562 9.375 L 18.75 10.96875 L 16.929688 12.5 L 15.625 13.691406 L 13.691406 15.625 L 12.5 16.929688 L 10.96875 18.75 L 9.375 20.851562 L 8.660156 21.875 L 6.699219 25 L 6.25 25.796875 L 5.039062 28.125 L 3.648438 31.25 L 3.125 32.601562 L 2.503906 34.375 L 1.589844 37.5 L 0.886719 40.625 L 0.390625 43.75 L 0.0976562 46.875 L 0 50 M 0 50 L 0.0976562 53.125 L 0.390625 56.25 L 0.886719 59.375 L 1.589844 62.5 L 2.503906 65.625 L 3.125 67.398438 L 3.648438 68.75 L 5.039062 71.875 L 6.25 74.203125 L 6.699219 75 L 8.660156 78.125 L 9.375 79.148438 L 10.96875 81.25 L 12.5 83.070312 L 13.691406 84.375 L 15.625 86.308594 L 16.929688 87.5 L 18.75 89.03125 L 20.851562 90.625 L 21.875 91.339844 L 25 93.300781 L 25.796875 93.75 L 28.125 94.960938 L 31.25 96.351562 L 32.601562 96.875 L 34.375 97.496094 L 37.5 98.410156 L 40.625 99.113281 L 43.75 99.609375 L 46.875 99.902344 L 50 100 M 50 0 L 53.125 0.0976562 L 56.25 0.390625 L 59.375 0.886719 L 62.5 1.589844 L 65.625 2.503906 L 67.398438 3.125 L 68.75 3.648438 L 71.875 5.039062 L 74.203125 6.25 L 75 6.699219 L 78.125 8.660156 L 79.148438 9.375 L 81.25 10.96875 L 83.070312 12.5 L 84.375 13.691406 L 86.308594 15.625 L 87.5 16.929688 L 89.03125 18.75 L 90.625 20.851562 L 91.339844 21.875 L 93.300781 25 L 93.75 25.796875 L 94.960938 28.125 L 96.351562 31.25 L 96.875 32.601562 L 97.496094 34.375 L 98.410156 37.5 L 99.113281 40.625 L 99.609375 43.75 L 99.902344 46.875 L 100 50 M 50 100 L 53.125 99.902344 L 56.25 99.609375 L 59.375 99.113281 L 62.5 98.410156 L 65.625 97.496094 L 67.398438 96.875 L 68.75 96.351562 L 71.875 94.960938 L 74.203125 93.75 L 75 93.300781 L 78.125 91.339844 L 79.148438 90.625 L 81.25 89.03125 L 83.070312 87.5 L 84.375 86.308594 L 86.308594 84.375 L 87.5 83.070312 L 89.03125 81.25 L 90.625 79.148438 L 91.339844 78.125 L 93.300781 75 L 93.75 74.203125 L 94.960938 71.875 L 96.351562 68.75 L 96.875 67.398438 L 97.496094 65.625 L 98.410156 62.5 L 99.113281 59.375 L 99.609375 56.25 L 99.902344 53.125 L 100 50 "/>
<path style="fill:none;stroke-width:1;stroke-linecap:butt;stroke-linejoin:miter;stroke:rgb(40.082223%,52.200666%,85%);stroke-opacity:1;stroke-miterlimit:10;" d="M 27.085938 0 L 25 1.011719 L 21.875 2.734375 L 21.230469 3.125 L 18.75 4.742188 L 16.671875 6.25 L 15.625 7.066406 L 12.925781 9.375 L 12.5 9.765625 L 9.765625 12.5 L 9.375 12.925781 L 7.066406 15.625 L 6.25 16.671875 L 4.742188 18.75 L 3.125 21.230469 L 2.734375 21.875 L 1.011719 25 L 0 27.085938 M 0 72.914062 L 1.011719 75 L 2.734375 78.125 L 3.125 78.769531 L 4.742188 81.25 L 6.25 83.328125 L 7.066406 84.375 L 9.375 87.074219 L 9.765625 87.5 L 12.5 90.234375 L 12.925781 90.625 L 15.625 92.933594 L 16.671875 93.75 L 18.75 95.257812 L 21.230469 96.875 L 21.875 97.265625 L 25 98.988281 L 27.085938 100 M 72.914062 0 L 75 1.011719 L 78.125 2.734375 L 78.769531 3.125 L 81.25 4.742188 L 83.328125 6.25 L 84.375 7.066406 L 87.074219 9.375 L 87.5 9.765625 L 90.234375 12.5 L 90.625 12.925781 L 92.933594 15.625 L 93.75 16.671875 L 95.257812 18.75 L 96.875 21.230469 L 97.265625 21.875 L 98.988281 25 L 100 27.085938 M 72.914062 100 L 75 98.988281 L 78.125 97.265625 L 78.769531 96.875 L 81.25 95.257812 L 83.328125 93.75 L 84.375 92.933594 L 87.074219 90.625 L 87.5 90.234375 L 90.234375 87.5 L 90.625 87.074219 L 92.933594 84.375 L 93.75 83.328125 L 95.257812 81.25 L 96.875 78.769531 L 97.265625 78.125 L 98.988281 75 L 100 72.914062 "/>
<path style="fill:none;stroke-width:1;stroke-linecap:butt;stroke-linejoin:miter;stroke:rgb(97.282889%,62.164445%,7.3362%);stroke-opacity:1;stroke-miterlimit:10;" d="M 0 16.835938 L 0.824219 15.625 L 3.125 12.546875 L 3.164062 12.5 L 5.84375 9.375 L 6.25 8.941406 L 8.941406 6.25 L 9.375 5.84375 L 12.5 3.164062 L 12.546875 3.125 L 15.625 0.824219 L 16.835938 0 M 0 83.164062 L 0.824219 84.375 L 3.125 87.453125 L 3.164062 87.5 L 5.84375 90.625 L 6.25 91.058594 L 8.941406 93.75 L 9.375 94.15625 L 12.5 96.835938 L 12.546875 96.875 L 15.625 99.175781 L 16.835938 100 M 83.164062 0 L 84.375 0.824219 L 87.453125 3.125 L 87.5 3.164062 L 90.625 5.84375 L 91.058594 6.25 L 93.75 8.941406 L 94.15625 9.375 L 96.835938 12.5 L 96.875 12.546875 L 99.175781 15.625 L 100 16.835938 M 83.164062 100 L 84.375 99.175781 L 87.453125 96.875 L 87.5 96.835938 L 90.625 94.15625 L 91.058594 93.75 L 93.75 91.058594 L 94.15625 90.625 L 96.835938 87.5 L 96.875 87.453125 L 99.175781 84.375 L 100 83.164062 "/>
<path style="fill:none;stroke-width:1;stroke-linecap:butt;stroke-linejoin:miter;stroke:rgb(73.678267%,35.8%,50.302666%);stroke-opacity:1;stroke-miterlimit:10;" d="M 0 8.46875 L 1.925781 6.25 L 3.125 4.96875 L 4.96875 3.125 L 6.25 1.925781 L 8.46875 0 M 0 91.53125 L 1.925781 93.75 L 3.125 95.03125 L 4.96875 96.875 L 6.25 98.074219 L 8.46875 100 M 91.53125 0 L 93.75 1.925781 L 95.03125 3.125 L 96.875 4.96875 L 98.074219 6.25 L 100 8.46875 M 91.53125 100 L 93.75 98.074219 L 95.03125 96.875 L 96.875 95.03125 L 98.074219 93.75 L 100 91.53125 "/>
<path style="fill:none;stroke-width:1;stroke-linecap:butt;stroke-linejoin:miter;stroke:rgb(28.026441%,71.5%,42.920893%);stroke-opacity:1;stroke-miterlimit:10;" d="M 0 1.011719 L 1.011719 0 M 0 98.988281 L 1.011719 100 M 98.988281 0 L 100 1.011719 M 98.988281 100 L 100 98.988281 "/>
</g>
</svg>
