<?xml version="1.0" encoding="UTF-8"?>
<svg xmlns="http://www.w3.org/2000/svg" xmlns:xlink="http://www.w3.org/1999/xlink" width="100pt" height="100pt" viewBox="0 0 100 100" version="1.1">
<g id="id1">
<path style="fill:none;stroke-width:1;stroke-linecap:butt;stroke-linejoin:miter;stroke:rgb(88.0722%,61.1041%,14.2051%);stroke-opacity:1;stroke-miterlimit:10;" d="M 46.878906 47.5 L 46 50 L 46.878906 52.5 L 47.5 53.121094 L 50 54 L 52.5 53.121094 L 53.121094 52.5 L 54 50 L 53.121094 47.5 L 52.5 46.878906 L 50 46 L 47.5 46.878906 L 46.878906 47.5 "/>
<path style="fill:none;stroke-width:1;stroke-linecap:butt;stroke-linejoin:miter;stroke:rgb(56.0181%,69.1569%,19.4885%);stroke-opacity:1;stroke-miterlimit:10;" d="M 39.089844 45 L 38.261719 47.5 L 38 50 L 38.261719 52.5 L 39.089844 55 L 40 56.632812 L 40.632812 57.5 L 42.5 59.367188 L 43.367188 60 L 45 60.910156 L 47.5 61.738281 L 50 62 L 52.5 61.738281 L 55 60.910156 L 56.632812 60 L 57.5 59.367188 L 59.367188 57.5 L 60 56.632812 L 60.910156 55 L 61.738281 52.5 L 62 50 L 61.738281 47.5 L 60.910156 45 L 60 43.367188 L 59.367188 42.5 L 57.5 40.632812 L 56.632812 40 L 55 39.089844 L 52.5 38.261719 L 50 38 L 47.5 38.261719 L 45 39.089844 L 43.367188 40 L 42.5 40.632812 L 40.632812 42.5 L 40 43.367188 L 39.089844 45 "/>
<path style="fill:none;stroke-width:1;stroke-linecap:butt;stroke-linejoin:miter;stroke:rgb(92.2526%,38.5626%,20.9179%);stroke-opacity:1;stroke-miterlimit:10;" d="M 30 50 L 30.15625 52.5 L 30.636719 55 L 31.457031 57.5 L 32.5 59.679688 L 32.679688 60 L 34.386719 62.5 L 35 63.230469 L 36.769531 65 L 37.5 65.613281 L 40 67.320312 L 40.320312 67.5 L 42.5 68.542969 L 45 69.363281 L 47.5 69.84375 L 50 70 L 52.5 69.84375 L 55 69.363281 L 57.5 68.542969 L 59.679688 67.5 L 60 67.320312 L 62.5 65.613281 L 63.230469 65 L 65 63.230469 L 65.613281 62.5 L 67.320312 60 L 67.5 59.679688 L 68.542969 57.5 L 69.363281 55 L 69.84375 52.5 L 70 50 L 69.84375 47.5 L 69.363281 45 L 68.542969 42.5 L 67.5 40.320312 L 67.320312 40 L 65.613281 37.5 L 65 36.769531 L 63.230469 35 L 62.5 34.386719 L 60 32.679688 L 59.679688 32.5 L 57.5 31.457031 L 55 30.636719 L 52.5 30.15625 L 50 30 L 47.5 30.15625 L 45 30.636719 L 42.5 31.457031 L 40.320312 32.5 L 40 32.679688 L 37.5 34.386719 L 36.769531 35 L 35 36.769531 L 34.386719 37.5 L 32.679688 40 L 32.5 40.320312 L 31.457031 42.5 L 30.636719 45 L 30.15625 47.5 L 30 50 "/>
<path style="fill:none;stroke-width:1;stroke-linecap:butt;stroke-linejoin:miter;stroke:rgb(52.8488%,47.0624%,70.1351%);stroke-opacity:1;stroke-miterlimit:10;" d="M 22.449219 45 L 22.113281 47.5 L 22 50 L 22.113281 52.5 L 22.449219 55 L 22.5 55.265625 L 23.023438 57.5 L 23.847656 60 L 24.945312 62.5 L 25 62.609375 L 26.355469 65 L 27.5 66.667969 L 28.144531 67.5 L 30 69.597656 L 30.402344 70 L 32.5 71.855469 L 33.332031 72.5 L 35 73.644531 L 37.390625 75 L 37.5 75.054688 L 40 76.152344 L 42.5 76.976562 L 44.734375 77.5 L 45 77.550781 L 47.5 77.886719 L 50 78 L 52.5 77.886719 L 55 77.550781 L 55.265625 77.5 L 57.5 76.976562 L 60 76.152344 L 62.5 75.054688 L 62.609375 75 L 65 73.644531 L 66.667969 72.5 L 67.5 71.855469 L 69.597656 70 L 70 69.597656 L 71.855469 67.5 L 72.5 66.667969 L 73.644531 65 L 75 62.609375 L 75.054688 62.5 L 76.152344 60 L 76.976562 57.5 L 77.5 55.265625 L 77.550781 55 L 77.886719 52.5 L 78 50 L 77.886719 47.5 L 77.550781 45 L 77.5 44.734375 L 76.976562 42.5 L 76.152344 40 L 75.054688 37.5 L 75 37.390625 L 73.644531 35 L 72.5 33.332031 L 71.855469 32.5 L 70 30.402344 L 69.597656 30 L 67.5 28.144531 L 66.667969 27.5 L 65 26.355469 L 62.609375 25 L 62.5 24.945312 L 60 23.847656 L 57.5 23.023438 L 55.265625 22.5 L 55 22.449219 L 52.5 22.113281 L 50 22 L 47.5 22.113281 L 45 22.449219 L 44.734375 22.5 L 42.5 23.023438 L 40 23.847656 L 37.5 24.945312 L 37.390625 25 L 35 26.355469 L 33.332031 27.5 L 32.5 28.144531 L 30.402344 30 L 30 30.402344 L 28.144531 32.5 L 27.5 33.332031 L 26.355469 35 L 25 37.390625 L 24.945312 37.5 L 23.847656 40 L 23.023438 42.5 L 22.5 44.734375 L 22.449219 45 "/>
<path style="fill:none;stroke-width:1;stroke-linecap:butt;stroke-linejoin:miter;stroke:rgb(77.2079%,43.1554%,10.2387%);stroke-opacity:1;stroke-miterlimit:10;" d="M 14.789062 42.5 L 14.347656 45 L 14.085938 47.5 L 14 50 L 14.085938 52.5 L 14.347656 55 L 14.789062 57.5 L 15 58.425781 L 15.417969 60 L 16.238281 62.5 L 17.273438 65 L 17.5 65.484375 L 18.539062 67.5 L 20 69.898438 L 20.066406 70 L 21.898438 72.5 L 22.5 73.234375 L 24.09375 75 L 25 75.90625 L 26.765625 77.5 L 27.5 78.101562 L 30 79.933594 L 30.101562 80 L 32.5 81.460938 L 34.515625 82.5 L 35 82.726562 L 37.5 83.761719 L 40 84.582031 L 41.574219 85 L 42.5 85.210938 L 45 85.652344 L 47.5 85.914062 L 50 86 L 52.5 85.914062 L 55 85.652344 L 57.5 85.210938 L 58.425781 85 L 60 84.582031 L 62.5 83.761719 L 65 82.726562 L 65.484375 82.5 L 67.5 81.460938 L 69.898438 80 L 70 79.933594 L 72.5 78.101562 L 73.234375 77.5 L 75 75.90625 L 75.90625 75 L 77.5 73.234375 L 78.101562 72.5 L 79.933594 70 L 80 69.898438 L 81.460938 67.5 L 82.5 65.484375 L 82.726562 65 L 83.761719 62.5 L 84.582031 60 L 85 58.425781 L 85.210938 57.5 L 85.652344 55 L 85.914062 52.5 L 86 50 L 85.914062 47.5 L 85.652344 45 L 85.210938 42.5 L 85 41.574219 L 84.582031 40 L 83.761719 37.5 L 82.726562 35 L 82.5 34.515625 L 81.460938 32.5 L 80 30.101562 L 79.933594 30 L 78.101562 27.5 L 77.5 26.765625 L 75.90625 25 L 75 24.09375 L 73.234375 22.5 L 72.5 21.898438 L 70 20.066406 L 69.898438 20 L 67.5 18.539062 L 65.484375 17.5 L 65 17.273438 L 62.5 16.238281 L 60 15.417969 L 58.425781 15 L 57.5 14.789062 L 55 14.347656 L 52.5 14.085938 L 50 14 L 47.5 14.085938 L 45 14.347656 L 42.5 14.789062 L 41.574219 15 L 40 15.417969 L 37.5 16.238281 L 35 17.273438 L 34.515625 17.5 L 32.5 18.539062 L 30.101562 20 L 30 20.066406 L 27.5 21.898438 L 26.765625 22.5 L 25 24.09375 L 24.09375 25 L 22.5 26.765625 L 21.898438 27.5 L 20.066406 30 L 20 30.101562 L 18.539062 32.5 L 17.5 34.515625 L 17.273438 35 L 16.238281 37.5 L 15.417969 40 L 15 41.574219 L 14.789062 42.5 "/>
</g>
</svg>
