<?xml version="1.0" encoding="UTF-8"?>
<svg xmlns="http://www.w3.org/2000/svg" xmlns:xlink="http://www.w3.org/1999/xlink" width="320pt" height="220pt" viewBox="0 0 320 220" version="1.1">
<g id="id1">
<path style="fill:none;stroke-width:1;stroke-linecap:butt;stroke-linejoin:miter;stroke:rgb(36.8417%,50.6779%,70.9798%);stroke-opacity:1;stroke-miterlimit:10;" d="M 32.074219 150 L 31.421875 160 L 32.683594 170 L 35.898438 180 L 41.183594 190 L 60 214.925781 L 72.089844 235 L 77.5 242.566406 L 82.148438 247.5 L 87.5 251.769531 L 93.132812 255 L 100 257.558594 L 107.5 258.929688 L 117.5 258.800781 L 127.5 256.828125 L 147.5 250.84375 L 160 249.5625 L 170 250.902344 L 200 258.84375 L 210 259.898438 L 220 259.515625 L 229.988281 257.5 L 240 253.617188 L 247.5 249.34375 L 262.5 238.53125 L 267.5 236.269531 L 270 236 L 275 237.351562 L 287.5 244.730469 L 293.964844 247.5 L 302.5 249.257812 L 310 248.964844 L 317.5 246.746094 L 325 241.90625 L 330.660156 235 L 333.726562 227.5 L 334.535156 222.5 L 334.484375 217.5 L 333.59375 212.5 L 331.828125 207.5 L 327.316406 200 L 314.898438 187.5 L 312.976562 185 L 312.03125 182.5 L 312.871094 177.5 L 321.402344 162.5 L 324.730469 152.5 L 325.238281 142.5 L 324.394531 137.5 L 322.5 131.953125 L 318.40625 125 L 312.5 118.78125 L 307.390625 115 L 295 107.550781 L 292.03125 105 L 288.496094 100 L 280.488281 82.5 L 274.808594 75 L 267.5 69.148438 L 262.5 66.660156 L 257.5 65.089844 L 247.5 64.226562 L 237.5 66.078125 L 228.238281 70 L 210.027344 80 L 182.5 92.523438 L 172.5 95.882812 L 165 96.699219 L 152.5 95.078125 L 147.5 93.421875 L 142.5 90.878906 L 137.5 87.015625 L 123.042969 72.5 L 117.5 68.566406 L 112.5 66.03125 L 107.5 64.34375 L 100 63.269531 L 92.5 63.890625 L 87.5 65.308594 L 82.5 67.65625 L 77.5 71.167969 L 73.617188 75 L 70 79.882812 L 66.132812 87.5 L 61.671875 100 L 57.929688 107.5 L 43.269531 125 L 37.5 133.933594 L 33.886719 142.5 L 32.074219 150 " transform="matrix(1,0,0,1,-20,-50)"/>
<path style="fill:none;stroke-width:1;stroke-linecap:butt;stroke-linejoin:miter;stroke:rgb(88.0722%,61.1041%,14.2051%);stroke-opacity:1;stroke-miterlimit:10;" d="M 47.339844 150 L 46.578125 155 L 46.890625 162.5 L 48.054688 167.5 L 50.074219 172.5 L 53.148438 177.5 L 57.660156 182.5 L 62.5 186.3125 L 76.191406 195 L 82.5 202.085938 L 84.0625 205 L 85.480469 210 L 85.996094 222.5 L 87.597656 230 L 91.902344 237.5 L 98.039062 242.5 L 102.5 244.328125 L 107.5 245.125 L 112.5 244.753906 L 117.5 243.1875 L 122.5 240.21875 L 125.574219 237.5 L 135 224.816406 L 140 220.417969 L 152.5 214.847656 L 157.5 213.238281 L 162.5 212.464844 L 167.5 213.402344 L 172.5 216.367188 L 190 232.511719 L 200 238.960938 L 205 240.917969 L 212.5 242.484375 L 219.90625 242.5 L 225 241.566406 L 232.5 238.453125 L 237.5 234.738281 L 242.5 228.527344 L 245.144531 222.5 L 246.183594 217.5 L 246.132812 210 L 244.449219 202.5 L 239.875 190 L 239.335938 185 L 241.457031 180 L 249.988281 170 L 253.125 165 L 255.222656 160 L 256.578125 152.5 L 255.761719 145 L 249.613281 130 L 248.851562 125 L 249.644531 122.5 L 252.035156 120 L 262.5 113.195312 L 267.5 107.40625 L 270.417969 100 L 270.824219 95 L 270.03125 90 L 267.5 84.488281 L 262.5 79.292969 L 259.421875 77.5 L 255 76.058594 L 247.5 76.035156 L 242.5 77.679688 L 235.957031 82.5 L 232.5 87.09375 L 227.5 96.53125 L 225 98.769531 L 208.363281 102.5 L 203.199219 105 L 200 107.324219 L 197.265625 110 L 193.761719 115 L 190.925781 122.5 L 190.109375 132.5 L 191.898438 147.5 L 191.5625 150 L 190.289062 152.5 L 187.5 154.308594 L 185 154.578125 L 182.5 153.921875 L 180 152.210938 L 167.824219 135 L 160 127.925781 L 152.5 124.101562 L 147.5 122.757812 L 142.5 122.238281 L 137.332031 122.5 L 130 124.21875 L 125 126.28125 L 113.601562 132.5 L 107.5 134.289062 L 102.5 133.886719 L 90 129.039062 L 83.894531 127.5 L 75 127.207031 L 67.5 128.660156 L 60 132.101562 L 55 136.109375 L 50.210938 142.5 L 47.339844 150 M 79.816406 87.5 L 78.761719 95 L 80.390625 102.5 L 85 109.796875 L 90 113.796875 L 92.648438 115 L 97.5 115.910156 L 103.628906 115 L 110 111.40625 L 115.0625 105 L 117.398438 97.5 L 117.0625 90 L 113.742188 82.5 L 111.632812 80 L 107.5 76.824219 L 100 74.382812 L 95 74.511719 L 90 76.039062 L 84.398438 80 L 82.328125 82.5 L 79.816406 87.5 M 274.992188 140 L 274.726562 147.5 L 277.5 154.246094 L 283.171875 160 L 290 163.09375 L 297.5 163.542969 L 301.742188 162.5 L 305 160.941406 L 309.242188 157.5 L 311.207031 155 L 314.125 147.5 L 313.824219 140 L 312.5 136.292969 L 310.09375 132.5 L 305 128.09375 L 297.5 125.445312 L 290 125.746094 L 282.5 129.105469 L 277.5 134.328125 L 274.992188 140 M 289.886719 215 L 288.914062 222.5 L 290.082031 227.5 L 292.5 231.839844 L 295 234.550781 L 300 237.714844 L 307.5 239.164062 L 314.691406 237.5 L 320 233.71875 L 323.898438 227.5 L 324.941406 220 L 322.671875 212.5 L 318.535156 207.5 L 312.5 204.105469 L 305 203.257812 L 298.847656 205 L 295.054688 207.5 L 292.65625 210 L 289.886719 215 " transform="matrix(1,0,0,1,-20,-50)"/>
<path style="fill:none;stroke-width:1;stroke-linecap:butt;stroke-linejoin:miter;stroke:rgb(56.0181%,69.1569%,19.4885%);stroke-opacity:1;stroke-miterlimit:10;" d="M 57.390625 147.5 L 55.863281 152.5 L 55.816406 160 L 57.5 166.410156 L 61.238281 172.5 L 63.976562 175 L 67.5 177.039062 L 72.5 178.417969 L 77.5 178.472656 L 85 177.089844 L 87.867188 177.5 L 93.765625 190 L 97.5 194.226562 L 102.566406 197.5 L 107.5 199.09375 L 119.894531 200 L 130 202.640625 L 137.5 202.859375 L 142.5 201.605469 L 147.5 198.855469 L 151.496094 195 L 154.550781 190 L 156.210938 185 L 156.859375 180 L 156.664062 175 L 154.59375 162.5 L 157.5 152.175781 L 157.992188 147.5 L 157.5 143.824219 L 155.96875 140 L 154.1875 137.5 L 150 134.21875 L 147.5 133.195312 L 142.5 132.59375 L 137.5 133.765625 L 135 135.136719 L 132.265625 137.5 L 129.09375 142.5 L 126.203125 155 L 125 157.25 L 120 161.761719 L 115 163.613281 L 97.5 165.597656 L 95 165.25 L 93.113281 162.5 L 88.765625 150 L 85.550781 145 L 80 140.261719 L 75 138.394531 L 70 138.195312 L 64.347656 140 L 60 143.488281 L 57.390625 147.5 M 86.734375 87.5 L 85.582031 92.5 L 86.542969 97.5 L 90 102.195312 L 92.5 103.816406 L 97.5 105.039062 L 102.5 104.109375 L 105.273438 102.5 L 107.5 100.269531 L 109.105469 97.5 L 110.054688 92.5 L 108.894531 87.5 L 107.332031 85 L 102.5 81.371094 L 97.5 80.433594 L 92.5 81.648438 L 90 83.257812 L 86.734375 87.5 M 94.972656 222.5 L 95.074219 227.5 L 97.5 232.847656 L 102.5 236.835938 L 107.5 237.980469 L 112.5 237.117188 L 117.5 233.726562 L 120 229.894531 L 121.164062 225 L 120.597656 220 L 118.074219 215 L 115 212.097656 L 110 210.234375 L 105 210.804688 L 100 213.664062 L 96.789062 217.5 L 94.972656 222.5 M 181.554688 187.5 L 180.378906 192.5 L 180.945312 197.5 L 181.867188 200 L 185 204.828125 L 191.929688 212.5 L 197.074219 222.5 L 201.683594 227.5 L 205.601562 230 L 210 231.746094 L 217.5 232.984375 L 225 231.945312 L 229.03125 230 L 232.5 226.960938 L 235.1875 222.5 L 236.261719 217.5 L 235.734375 212.5 L 233.539062 207.5 L 227.5 201.171875 L 215 193.015625 L 206.484375 182.5 L 200 179.035156 L 192.5 178.78125 L 188.867188 180 L 185.148438 182.5 L 181.554688 187.5 M 201.785156 120 L 201.316406 122.5 L 201.773438 127.5 L 205 133.28125 L 210 136.988281 L 218.742188 140 L 219.449219 142.5 L 217.660156 150 L 217.703125 155 L 219.324219 160 L 221.003906 162.5 L 225 165.757812 L 230 167.289062 L 235 166.898438 L 240 164.429688 L 242.5 161.945312 L 244.832031 157.5 L 245.441406 152.5 L 245 149.753906 L 242.75 145 L 240 142.074219 L 235 139.203125 L 227.5 136.890625 L 226.652344 135 L 228.4375 127.5 L 228.523438 122.5 L 227.5 118.585938 L 225.335938 115 L 222.558594 112.5 L 220 111.148438 L 217.5 110.421875 L 212.5 110.382812 L 207.5 112.335938 L 205 114.398438 L 201.785156 120 M 239.890625 90 L 238.972656 95 L 240 99.757812 L 241.65625 102.5 L 245 105.359375 L 250 106.953125 L 255 106.441406 L 260 103.511719 L 262.601562 100 L 263.902344 95 L 263.105469 90 L 260 85.359375 L 257.5 83.546875 L 252.5 82.0625 L 247.5 82.707031 L 242.5 85.925781 L 239.890625 90 M 284.582031 140 L 283.8125 145 L 285 149.578125 L 287.5 153.039062 L 292.5 155.980469 L 297.5 156.414062 L 301.910156 155 L 305.082031 152.5 L 307.5 148.496094 L 308.21875 145 L 307.441406 140 L 305 136.0625 L 300 132.804688 L 295 132.175781 L 290 133.707031 L 287.5 135.570312 L 284.582031 140 M 296.285156 217.5 L 295.625 222.5 L 297.203125 227.5 L 300 230.75 L 302.957031 232.5 L 307.5 233.390625 L 312.5 232.269531 L 315.769531 230 L 318.800781 225 L 319.214844 220 L 317.5 215.242188 L 315 212.394531 L 310.203125 210 L 307.5 209.671875 L 302.5 210.746094 L 299.746094 212.5 L 296.285156 217.5 " transform="matrix(1,0,0,1,-20,-50)"/>
<path style="fill:none;stroke-width:1;stroke-linecap:butt;stroke-linejoin:miter;stroke:rgb(92.2526%,38.5626%,20.9179%);stroke-opacity:1;stroke-miterlimit:10;" d="M 61.984375 150 L 61.273438 155 L 61.882812 160 L 63.105469 165 L 65 168.488281 L 67.5 170.84375 L 72.5 172.574219 L 77.5 171.605469 L 79.875 170 L 82.5 166.199219 L 83.296875 160 L 81.855469 152.5 L 79.460938 147.5 L 75 144.023438 L 70 143.375 L 65 145.605469 L 61.984375 150 M 89.90625 90 L 89.519531 92.5 L 90 95.277344 L 92.5 98.855469 L 95 100.285156 L 97.5 100.757812 L 101.242188 100 L 104.347656 97.5 L 105.640625 95 L 106.027344 92.5 L 105 88.511719 L 102.5 85.730469 L 100 84.546875 L 97.5 84.246094 L 94.316406 85 L 91.203125 87.5 L 89.90625 90 M 98.683594 177.5 L 97.839844 180 L 98.296875 185 L 100 187.875 L 102.5 189.941406 L 105 190.945312 L 110 190.878906 L 112.5 189.839844 L 115.367188 187.5 L 117.5 183.734375 L 117.554688 180 L 116.445312 177.5 L 114.261719 175 L 110 172.742188 L 105.683594 172.5 L 102.5 173.582031 L 100.550781 175 L 98.683594 177.5 M 99.6875 222.5 L 99.222656 225 L 100 228.875 L 102.5 232.035156 L 105 233.382812 L 107.5 233.828125 L 112.292969 232.5 L 114.835938 230 L 115.964844 227.5 L 116.261719 225 L 115 220.757812 L 112.5 218.140625 L 110 216.996094 L 107.5 216.699219 L 104.175781 217.5 L 101.042969 220 L 99.6875 222.5 M 124.605469 177.5 L 123.945312 182.5 L 125.054688 187.5 L 127.5 191.699219 L 131.691406 195 L 135 195.972656 L 140 195.441406 L 144.429688 192.5 L 146.21875 190 L 148.324219 182.5 L 148.273438 175 L 146.265625 170 L 142.5 166.398438 L 137.5 165.089844 L 132.5 166.4375 L 130 168.164062 L 127.5 171 L 124.605469 177.5 M 134.5625 145 L 135 149.988281 L 136.367188 152.5 L 139.230469 155 L 142.5 155.96875 L 147.09375 155 L 150 152.75 L 151.703125 150 L 152.335938 147.5 L 151.464844 142.5 L 150 140.359375 L 147.5 138.460938 L 145 137.621094 L 140 138.179688 L 137.5 139.746094 L 135.390625 142.5 L 134.5625 145 M 186.976562 190 L 186.507812 195 L 187.5 197.773438 L 190 200.730469 L 193.328125 202.5 L 197.5 203.03125 L 200.195312 202.5 L 203.308594 200 L 204.441406 197.5 L 204.777344 192.5 L 202.5 187.535156 L 200 185.46875 L 197.5 184.488281 L 192.5 184.734375 L 188.457031 187.5 L 186.976562 190 M 201.675781 210 L 201.109375 215 L 202.5 219.441406 L 205.023438 222.5 L 210 225.191406 L 217.5 226.964844 L 222.5 227.007812 L 227.5 224.757812 L 229.515625 222.5 L 230.667969 220 L 230.8125 215 L 228.019531 210 L 225 207.746094 L 220 205.734375 L 212.5 203.894531 L 207.5 204.164062 L 205 205.191406 L 202.816406 207.5 L 201.675781 210 M 206.601562 120 L 206.078125 125 L 207.5 128.34375 L 210 130.722656 L 212.5 131.796875 L 217.5 131.582031 L 220.214844 130 L 222.5 126.84375 L 223.144531 122.5 L 222.496094 120 L 220.878906 117.5 L 217.5 115.253906 L 212.5 114.976562 L 210 116.027344 L 206.601562 120 M 223.953125 150 L 223.417969 155 L 225 158.664062 L 227.5 160.945312 L 230 161.964844 L 235 161.65625 L 237.765625 160 L 240 156.886719 L 240.636719 152.5 L 239.96875 150 L 238.328125 147.5 L 235 145.265625 L 230 144.898438 L 227.5 145.890625 L 225.535156 147.5 L 223.953125 150 M 244.472656 90 L 243.5 92.5 L 243.980469 97.5 L 245.636719 100 L 247.5 101.445312 L 250 102.375 L 255 101.808594 L 257.5 100.089844 L 259.257812 97.5 L 259.761719 92.5 L 258.796875 90 L 255 86.613281 L 250 86.066406 L 246.742188 87.5 L 244.472656 90 M 289.175781 140 L 288.164062 142.5 L 288.617188 147.5 L 290.261719 150 L 292.5 151.652344 L 297.5 152.429688 L 300 151.605469 L 302.148438 150 L 303.796875 147.5 L 304.246094 142.5 L 302.5 138.984375 L 300 136.988281 L 295 136.148438 L 291.550781 137.5 L 289.175781 140 M 299.5625 220 L 300 224.644531 L 301.949219 227.5 L 305 229.320312 L 307.5 229.726562 L 310 229.347656 L 313.132812 227.5 L 314.925781 225 L 315.621094 222.5 L 315.515625 220 L 314.566406 217.5 L 312.5 215.148438 L 310 213.84375 L 307.5 213.460938 L 302.773438 215 L 300.507812 217.5 L 299.5625 220 " transform="matrix(1,0,0,1,-20,-50)"/>
<path style="fill:none;stroke-width:1;stroke-linecap:butt;stroke-linejoin:miter;stroke:rgb(52.8488%,47.0624%,70.1351%);stroke-opacity:1;stroke-miterlimit:10;" d="M 64.773438 152.5 L 66.855469 165 L 68.46875 167.5 L 72.5 169.359375 L 75 169.050781 L 77.5 167.5 L 79.046875 165 L 79.429688 162.5 L 77.5 151.433594 L 75 147.660156 L 72.5 146.503906 L 70 146.464844 L 67.535156 147.5 L 65.425781 150 L 64.773438 152.5 M 92.054688 92.5 L 92.609375 90 L 94.929688 87.5 L 97.5 86.753906 L 100.597656 87.5 L 102.5 89.269531 L 103.472656 92.5 L 102.5 95.644531 L 100.441406 97.5 L 97.5 98.160156 L 95 97.453125 L 92.652344 95 L 92.054688 92.5 M 101.207031 180 L 100.953125 182.5 L 101.808594 185 L 104.800781 187.5 L 109.222656 187.5 L 112.5 184.507812 L 113.085938 182.5 L 112.824219 180 L 110 176.578125 L 107.5 175.816406 L 105 176.128906 L 102.761719 177.5 L 101.207031 180 M 101.917969 225 L 102.5 227.964844 L 104.167969 230 L 107.5 231.199219 L 111.230469 230 L 113.105469 227.5 L 113.484375 225 L 112.5 222.144531 L 110 220.074219 L 107.5 219.601562 L 105 220.269531 L 102.683594 222.5 L 101.917969 225 M 129.777344 185 L 130.753906 175 L 132.5 171.617188 L 134.667969 170 L 137.5 169.355469 L 140.347656 170 L 142.5 171.644531 L 144.113281 175 L 144.222656 177.5 L 143.085938 187.5 L 141.785156 190 L 140 191.574219 L 137.5 192.472656 L 135 192.351562 L 131.351562 190 L 130.078125 187.5 L 129.777344 185 M 138.902344 142.5 L 137.679688 145 L 137.65625 147.5 L 140 151.144531 L 142.5 152.183594 L 145 152.054688 L 148.113281 150 L 149.285156 147.5 L 149.269531 145 L 147.5 141.914062 L 145 140.539062 L 142.5 140.421875 L 138.902344 142.5 M 189.441406 192.5 L 189.65625 195 L 191.152344 197.5 L 195 199.277344 L 197.5 198.9375 L 199.71875 197.5 L 201.160156 195 L 201.335938 192.5 L 200.398438 190 L 196.980469 187.5 L 195 187.289062 L 192.5 188.011719 L 190.355469 190 L 189.441406 192.5 M 204.6875 215 L 205.046875 212.5 L 206.667969 210 L 210 208.320312 L 212.5 208.296875 L 225 211.941406 L 227.5 214.945312 L 227.984375 217.5 L 227.410156 220 L 225.347656 222.5 L 222.5 223.660156 L 220 223.613281 L 215 221.824219 L 210 221.207031 L 207.5 220.050781 L 205.335938 217.5 L 204.6875 215 M 209.679688 120 L 208.71875 122.5 L 208.925781 125 L 210.464844 127.5 L 212.5 128.765625 L 215 129.101562 L 218.535156 127.5 L 220 125.210938 L 220.269531 122.5 L 219.308594 120 L 217.5 118.292969 L 213.785156 117.5 L 212.5 117.808594 L 209.679688 120 M 227.363281 150 L 226.289062 152.5 L 226.398438 155 L 227.777344 157.5 L 230 158.988281 L 232.5 159.347656 L 236.339844 157.5 L 237.714844 155 L 237.820312 152.5 L 236.742188 150 L 235 148.445312 L 232.5 147.664062 L 230 148.019531 L 227.363281 150 M 246.179688 92.5 L 245.996094 95 L 247.003906 97.5 L 250 99.644531 L 252.5 99.828125 L 255 98.8125 L 256.3125 97.5 L 257.324219 95 L 257.144531 92.5 L 255.597656 90 L 252.5 88.496094 L 250 88.679688 L 247.726562 90 L 246.179688 92.5 M 292.484375 140 L 290.828125 142.5 L 290.582031 145 L 291.527344 147.5 L 295 149.859375 L 297.5 149.855469 L 300 148.582031 L 301.902344 145 L 301.65625 142.5 L 300 140.003906 L 297.5 138.730469 L 295 138.726562 L 292.484375 140 M 302.121094 220 L 301.960938 222.5 L 303.019531 225 L 305 226.664062 L 307.5 227.273438 L 310 226.722656 L 312.097656 225 L 313.15625 222.5 L 312.5 218.828125 L 310 216.492188 L 307.5 215.9375 L 305 216.546875 L 303.648438 217.5 L 302.121094 220 " transform="matrix(1,0,0,1,-20,-50)"/>
<path style="fill:none;stroke-width:1;stroke-linecap:butt;stroke-linejoin:miter;stroke:rgb(77.2079%,43.1554%,10.2387%);stroke-opacity:1;stroke-miterlimit:10;" d="M 66.863281 152.5 L 67.726562 150 L 70 148.449219 L 72.5 148.535156 L 75 150.824219 L 75.40625 152.5 L 75 154.730469 L 73.527344 157.5 L 76.09375 160 L 77.203125 162.5 L 76.796875 165 L 75 166.882812 L 72.5 167.371094 L 70 166.175781 L 69.144531 165 L 68.695312 162.5 L 70.113281 157.5 L 67.527344 155 L 66.863281 152.5 M 94.605469 90 L 93.769531 92.5 L 95 95.332031 L 97.5 96.433594 L 100.835938 95 L 101.753906 92.5 L 100.917969 90 L 100 89.136719 L 97.5 88.460938 L 94.605469 90 M 103.285156 180 L 102.886719 182.5 L 104.292969 185 L 107.5 185.9375 L 110 184.621094 L 111.015625 182.5 L 110 179.105469 L 107.5 177.792969 L 105 178.246094 L 103.285156 180 M 104.933594 222.5 L 103.691406 225 L 104.242188 227.5 L 107.5 229.449219 L 110 228.726562 L 111.140625 227.5 L 111.695312 225 L 110.453125 222.5 L 107.5 221.40625 L 104.933594 222.5 M 132.347656 185 L 132.5 187.539062 L 134.660156 190 L 137.5 190.359375 L 140 188.796875 L 140.882812 185 L 139.859375 182.5 L 140 180.160156 L 141.652344 177.5 L 141.789062 175 L 140 172.308594 L 137.5 171.539062 L 135 172.355469 L 133.257812 175 L 133.335938 177.5 L 134.496094 180 L 132.347656 185 M 139.609375 145 L 140 148.34375 L 142.5 150.195312 L 145.050781 150 L 147.355469 147.5 L 147.363281 145 L 145 142.460938 L 141.875 142.5 L 139.609375 145 M 191.332031 192.5 L 191.667969 195 L 192.5 196.160156 L 195 197.308594 L 197.5 196.722656 L 199.046875 195 L 199.375 192.5 L 197.5 189.757812 L 195 189.164062 L 192.855469 190 L 191.332031 192.5 M 207.367188 212.5 L 206.75 215 L 207.5 217.152344 L 210 218.902344 L 212.5 218.890625 L 215 217.578125 L 220 221.304688 L 222.5 221.59375 L 225 220.1875 L 226.035156 217.5 L 225 214.644531 L 222.5 213.199219 L 220 213.371094 L 217.5 214.828125 L 212.5 210.695312 L 210 210.582031 L 207.367188 212.5 M 212.117188 120 L 210.523438 122.5 L 210.839844 125 L 212.5 126.78125 L 215 127.269531 L 217.5 125.949219 L 218.441406 122.5 L 217.5 120.589844 L 215 119.265625 L 212.117188 120 M 228.160156 152.5 L 228.3125 155 L 230 156.988281 L 231.382812 157.5 L 232.761719 157.5 L 235 156.304688 L 235.832031 155 L 235.984375 152.5 L 234.066406 150 L 232.5 149.496094 L 230.078125 150 L 228.160156 152.5 M 248.023438 92.5 L 247.757812 95 L 249.484375 97.5 L 252.5 98.0625 L 255 96.363281 L 255.578125 95 L 255.3125 92.5 L 252.5 90.234375 L 250 90.511719 L 248.023438 92.5 M 292.320312 145 L 292.683594 142.5 L 295 140.5 L 297.5 140.5 L 300 142.921875 L 300 145.660156 L 297.5 148.082031 L 293.875 147.5 L 292.320312 145 M 303.921875 220 L 303.683594 222.5 L 305.476562 225 L 307.5 225.589844 L 309.648438 225 L 311.441406 222.5 L 311.203125 220 L 310 218.460938 L 307.5 217.628906 L 305 218.5625 L 303.921875 220 " transform="matrix(1,0,0,1,-20,-50)"/>
<path style="fill:none;stroke-width:1;stroke-linecap:butt;stroke-linejoin:miter;stroke:rgb(36.3898%,61.8501%,78.2349%);stroke-opacity:1;stroke-miterlimit:10;" d="M 69.601562 150 L 68.199219 152.5 L 69.570312 155 L 72.5 155.109375 L 74.011719 152.5 L 72.597656 150 L 69.601562 150 M 70.140625 162.5 L 70.699219 165 L 72.5 166.066406 L 75.257812 165 L 75.804688 162.5 L 75 161.074219 L 72.5 160.253906 L 70.140625 162.5 M 94.953125 92.5 L 96.378906 90 L 97.5 89.648438 L 100 90.746094 L 100.570312 92.5 L 100 94.144531 L 97.5 95.242188 L 96.59375 95 L 94.953125 92.5 M 104.785156 180 L 104.160156 182.5 L 105 183.953125 L 107.5 184.660156 L 109.714844 182.5 L 109.089844 180 L 107.5 179.074219 L 104.785156 180 M 104.90625 225 L 107.5 222.621094 L 110 223.8125 L 110.476562 225 L 109.609375 227.5 L 107.5 228.246094 L 105.773438 227.5 L 104.90625 225 M 134.722656 175 L 137.5 172.886719 L 140 174.21875 L 140 177.472656 L 137.5 178.859375 L 135.085938 177.5 L 134.722656 175 M 133.902344 185 L 133.972656 187.5 L 135 188.65625 L 137.5 188.988281 L 139.222656 187.5 L 139.300781 185 L 137.5 183.304688 L 135 183.667969 L 133.902344 185 M 140.933594 145 L 140.953125 147.5 L 142.5 148.886719 L 145 148.628906 L 146.023438 147.5 L 146.042969 145 L 145 143.828125 L 142.5 143.570312 L 140.933594 145 M 192.601562 192.5 L 193.128906 195 L 195 196.046875 L 197.570312 195 L 198.09375 192.5 L 197.5 191.371094 L 195 190.40625 L 192.601562 192.5 M 209.09375 212.5 L 208.066406 215 L 210 217.476562 L 212.5 217.242188 L 213.925781 215 L 212.855469 212.5 L 210 211.984375 L 209.09375 212.5 M 211.761719 122.5 L 212.5 125.277344 L 215 126.039062 L 216.707031 125 L 217.199219 122.5 L 215 120.488281 L 212.5 121.25 L 211.761719 122.5 M 218.890625 217.5 L 220 215.144531 L 222.5 214.601562 L 223.433594 215 L 224.753906 217.5 L 222.5 220.257812 L 220 219.683594 L 218.890625 217.5 M 229.4375 152.5 L 230 155.4375 L 232.5 156.3125 L 234.480469 155 L 234.710938 152.5 L 232.5 150.726562 L 230 151.601562 L 229.4375 152.5 M 249.390625 92.5 L 248.992188 95 L 250 96.40625 L 252.5 96.832031 L 254.347656 95 L 253.949219 92.5 L 252.5 91.460938 L 249.390625 92.5 M 294.085938 142.5 L 293.535156 145 L 295 146.804688 L 297.5 146.804688 L 298.96875 145 L 298.414062 142.5 L 297.5 141.773438 L 295 141.777344 L 294.085938 142.5 M 304.902344 222.5 L 305.269531 220 L 307.5 218.804688 L 310 220.21875 L 310 223 L 307.5 224.414062 L 304.902344 222.5 " transform="matrix(1,0,0,1,-20,-50)"/>
</g>
</svg>
