<?xml version="1.0" encoding="UTF-8"?>
<svg xmlns="http://www.w3.org/2000/svg" xmlns:xlink="http://www.w3.org/1999/xlink" width="150pt" height="90pt" viewBox="0 0 150 90" version="1.1">
<defs>
<clipPath id="id1">
  <rect x="0" y="0" width="150" height="90"/>
</clipPath>
<g id="id2" clip-path="url(#id1)">
<path style="fill:none;stroke-width:1;stroke-linecap:butt;stroke-linejoin:miter;stroke:rgb(36.8417%,50.6779%,70.9798%);stroke-opacity:1;stroke-miterlimit:10;" d="M 10 20 L 60 20 M 27.234375 22.875 L 32.5 20 "/>
<path style="fill:none;stroke-width:1;stroke-linecap:butt;stroke-linejoin:miter;stroke:rgb(36.8417%,50.6779%,70.9798%);stroke-opacity:1;stroke-miterlimit:10;" d="M 60 20 L 60 70 M 57.125 37.234375 L 60 42.5 "/>
<path style="fill:none;stroke-width:1;stroke-linecap:butt;stroke-linejoin:miter;stroke:rgb(36.8417%,50.6779%,70.9798%);stroke-opacity:1;stroke-miterlimit:10;" d="M 60 70 L 10 70 M 42.765625 67.125 L 37.5 70 "/>
<path style="fill:none;stroke-width:1;stroke-linecap:butt;stroke-linejoin:miter;stroke:rgb(36.8417%,50.6779%,70.9798%);stroke-opacity:1;stroke-miterlimit:10;" d="M 10 70 L 10 20 M 12.875 52.765625 L 10 47.5 "/>
<path style="fill:none;stroke-width:1;stroke-linecap:butt;stroke-linejoin:miter;stroke:rgb(36.8417%,50.6779%,70.9798%);stroke-opacity:1;stroke-miterlimit:10;" d="M 10 20 L 60 20 L 60 70 L 10 70 Z M 10 20 "/>
<path style=" stroke:none;fill-rule:nonzero;fill:rgb(10.721896%,16.022803%,23.80084%);fill-opacity:0.1;" d="M 10 20 L 60 20 L 60 70 L 10 70 Z M 10 20 "/>
</g>
<clipPath id="id3">
  <rect x="0" y="0" width="150" height="90"/>
</clipPath>
<g id="id4" clip-path="url(#id3)">
<path style="fill:none;stroke-width:1;stroke-linecap:butt;stroke-linejoin:miter;stroke:rgb(36.8417%,50.6779%,70.9798%);stroke-opacity:1;stroke-miterlimit:10;" d="M 80 20 L 130 20 M 97.234375 22.875 L 102.5 20 "/>
<path style="fill:none;stroke-width:1;stroke-linecap:butt;stroke-linejoin:miter;stroke:rgb(36.8417%,50.6779%,70.9798%);stroke-opacity:1;stroke-miterlimit:10;" d="M 130 20 L 130 70 M 127.125 37.234375 L 130 42.5 "/>
<path style="fill:none;stroke-width:1;stroke-linecap:butt;stroke-linejoin:miter;stroke:rgb(36.8417%,50.6779%,70.9798%);stroke-opacity:1;stroke-miterlimit:10;" d="M 130 70 L 80 20 M 113.257812 49.1875 L 107.5 47.5 "/>
<path style="fill:none;stroke-width:1;stroke-linecap:butt;stroke-linejoin:miter;stroke:rgb(36.8417%,50.6779%,70.9798%);stroke-opacity:1;stroke-miterlimit:10;" d="M 80 20 L 130 20 L 130 70 Z M 80 20 "/>
<path style=" stroke:none;fill-rule:nonzero;fill:rgb(10.721896%,16.022803%,23.80084%);fill-opacity:0.1;" d="M 80 20 L 130 20 L 130 70 Z M 80 20 "/>
</g>
<clipPath id="id5">
  <rect x="0" y="0" width="150" height="90"/>
</clipPath>
<g id="id6" clip-path="url(#id5)">
<path style="fill:none;stroke-width:1;stroke-linecap:butt;stroke-linejoin:miter;stroke:rgb(88.0722%,61.1041%,14.2051%);stroke-opacity:1;stroke-miterlimit:10;" d="M 80 20 L 130 70 M 96.742188 40.8125 L 102.5 42.5 "/>
<path style="fill:none;stroke-width:1;stroke-linecap:butt;stroke-linejoin:miter;stroke:rgb(88.0722%,61.1041%,14.2051%);stroke-opacity:1;stroke-miterlimit:10;" d="M 130 70 L 80 70 M 112.765625 67.125 L 107.5 70 "/>
<path style="fill:none;stroke-width:1;stroke-linecap:butt;stroke-linejoin:miter;stroke:rgb(88.0722%,61.1041%,14.2051%);stroke-opacity:1;stroke-miterlimit:10;" d="M 80 70 L 80 20 M 82.875 52.765625 L 80 47.5 "/>
<path style="fill:none;stroke-width:1;stroke-linecap:butt;stroke-linejoin:miter;stroke:rgb(88.0722%,61.1041%,14.2051%);stroke-opacity:1;stroke-miterlimit:10;" d="M 80 20 L 130 70 L 80 70 Z M 80 20 "/>
<path style=" stroke:none;fill-rule:nonzero;fill:rgb(30.349258%,20.017275%,2.303803%);fill-opacity:0.1;" d="M 80 20 L 130 70 L 80 70 Z M 80 20 "/>
</g>
</defs>
<g id="id7">
<path style="fill:none;stroke-width:1;stroke-linecap:butt;stroke-linejoin:miter;stroke:rgb(0%,0%,0%);stroke-opacity:1;stroke-dasharray:2,4;stroke-miterlimit:10;" d="M 65 5 L 145 85 "/>
<path style="fill:none;stroke-width:1;stroke-linecap:butt;stroke-linejoin:miter;stroke:rgb(0%,0%,0%);stroke-opacity:1;stroke-miterlimit:10;" d="M 143.59375 80.203125 L 145 85 L 140.203125 83.59375 "/>
<use xlink:href="#id2"/>
<use xlink:href="#id4"/>
<use xlink:href="#id6"/>
</g>
</svg>
