<?xml version="1.0" encoding="UTF-8"?>
<svg xmlns="http://www.w3.org/2000/svg" xmlns:xlink="http://www.w3.org/1999/xlink" width="380pt" height="100pt" viewBox="0 0 380 100" version="1.1">
<defs>
<g>
<symbol overflow="visible" id="id1">
<path style="stroke:none;" d="M 0.59375 2.125 L 0.59375 -8.46875 L 6.59375 -8.46875 L 6.59375 2.125 Z M 1.265625 1.453125 L 5.9375 1.453125 L 5.9375 -7.78125 L 1.265625 -7.78125 Z M 1.265625 1.453125 "/>
</symbol>
<symbol overflow="visible" id="id2">
<path style="stroke:none;" d="M 3.671875 -5.8125 C 3.097656 -5.8125 2.640625 -5.582031 2.296875 -5.125 C 1.960938 -4.675781 1.796875 -4.0625 1.796875 -3.28125 C 1.796875 -2.488281 1.960938 -1.867188 2.296875 -1.421875 C 2.628906 -0.972656 3.085938 -0.75 3.671875 -0.75 C 4.242188 -0.75 4.695312 -0.972656 5.03125 -1.421875 C 5.375 -1.878906 5.546875 -2.5 5.546875 -3.28125 C 5.546875 -4.050781 5.375 -4.664062 5.03125 -5.125 C 4.695312 -5.582031 4.242188 -5.8125 3.671875 -5.8125 Z M 3.671875 -6.71875 C 4.609375 -6.71875 5.34375 -6.410156 5.875 -5.796875 C 6.414062 -5.191406 6.6875 -4.351562 6.6875 -3.28125 C 6.6875 -2.207031 6.414062 -1.363281 5.875 -0.75 C 5.34375 -0.132812 4.609375 0.171875 3.671875 0.171875 C 2.734375 0.171875 1.992188 -0.132812 1.453125 -0.75 C 0.921875 -1.363281 0.65625 -2.207031 0.65625 -3.28125 C 0.65625 -4.351562 0.921875 -5.191406 1.453125 -5.796875 C 1.992188 -6.410156 2.734375 -6.71875 3.671875 -6.71875 Z M 3.671875 -6.71875 "/>
</symbol>
<symbol overflow="visible" id="id3">
<path style="stroke:none;" d="M 6.59375 -3.96875 L 6.59375 0 L 5.515625 0 L 5.515625 -3.921875 C 5.515625 -4.546875 5.390625 -5.007812 5.140625 -5.3125 C 4.898438 -5.625 4.539062 -5.78125 4.0625 -5.78125 C 3.476562 -5.78125 3.015625 -5.59375 2.671875 -5.21875 C 2.335938 -4.851562 2.171875 -4.347656 2.171875 -3.703125 L 2.171875 0 L 1.09375 0 L 1.09375 -6.5625 L 2.171875 -6.5625 L 2.171875 -5.546875 C 2.429688 -5.941406 2.734375 -6.234375 3.078125 -6.421875 C 3.429688 -6.617188 3.835938 -6.71875 4.296875 -6.71875 C 5.046875 -6.71875 5.613281 -6.484375 6 -6.015625 C 6.394531 -5.554688 6.59375 -4.875 6.59375 -3.96875 Z M 6.59375 -3.96875 "/>
</symbol>
<symbol overflow="visible" id="id4">
<path style="stroke:none;" d=""/>
</symbol>
<symbol overflow="visible" id="id5">
<path style="stroke:none;" d="M 9.46875 -4.03125 L 9.46875 -3.5 L 7.171875 -1.203125 L 6.46875 -1.90625 L 7.828125 -3.265625 L 0.6875 -3.265625 L 0.6875 -4.265625 L 7.828125 -4.265625 L 6.46875 -5.625 L 7.171875 -6.328125 Z M 9.46875 -4.03125 "/>
</symbol>
<symbol overflow="visible" id="id6">
<path style="stroke:none;" d="M 4.9375 -5.5625 C 4.8125 -5.625 4.675781 -5.671875 4.53125 -5.703125 C 4.394531 -5.742188 4.238281 -5.765625 4.0625 -5.765625 C 3.457031 -5.765625 2.988281 -5.566406 2.65625 -5.171875 C 2.332031 -4.773438 2.171875 -4.203125 2.171875 -3.453125 L 2.171875 0 L 1.09375 0 L 1.09375 -6.5625 L 2.171875 -6.5625 L 2.171875 -5.546875 C 2.398438 -5.941406 2.695312 -6.234375 3.0625 -6.421875 C 3.425781 -6.617188 3.867188 -6.71875 4.390625 -6.71875 C 4.460938 -6.71875 4.539062 -6.710938 4.625 -6.703125 C 4.71875 -6.691406 4.816406 -6.675781 4.921875 -6.65625 Z M 4.9375 -5.5625 "/>
</symbol>
<symbol overflow="visible" id="id7">
<path style="stroke:none;" d="M 1.125 -6.5625 L 2.203125 -6.5625 L 2.203125 0 L 1.125 0 Z M 1.125 -9.125 L 2.203125 -9.125 L 2.203125 -7.75 L 1.125 -7.75 Z M 1.125 -9.125 "/>
</symbol>
<symbol overflow="visible" id="id8">
<path style="stroke:none;" d="M 5.453125 -3.359375 C 5.453125 -4.140625 5.289062 -4.742188 4.96875 -5.171875 C 4.644531 -5.597656 4.191406 -5.8125 3.609375 -5.8125 C 3.035156 -5.8125 2.585938 -5.597656 2.265625 -5.171875 C 1.941406 -4.742188 1.78125 -4.140625 1.78125 -3.359375 C 1.78125 -2.578125 1.941406 -1.972656 2.265625 -1.546875 C 2.585938 -1.117188 3.035156 -0.90625 3.609375 -0.90625 C 4.191406 -0.90625 4.644531 -1.117188 4.96875 -1.546875 C 5.289062 -1.972656 5.453125 -2.578125 5.453125 -3.359375 Z M 6.53125 -0.8125 C 6.53125 0.300781 6.28125 1.128906 5.78125 1.671875 C 5.289062 2.222656 4.53125 2.5 3.5 2.5 C 3.125 2.5 2.765625 2.46875 2.421875 2.40625 C 2.085938 2.351562 1.765625 2.269531 1.453125 2.15625 L 1.453125 1.109375 C 1.765625 1.273438 2.078125 1.398438 2.390625 1.484375 C 2.703125 1.566406 3.015625 1.609375 3.328125 1.609375 C 4.035156 1.609375 4.566406 1.421875 4.921875 1.046875 C 5.273438 0.679688 5.453125 0.125 5.453125 -0.625 L 5.453125 -1.15625 C 5.222656 -0.769531 4.9375 -0.476562 4.59375 -0.28125 C 4.25 -0.09375 3.832031 0 3.34375 0 C 2.539062 0 1.890625 -0.304688 1.390625 -0.921875 C 0.898438 -1.535156 0.65625 -2.347656 0.65625 -3.359375 C 0.65625 -4.367188 0.898438 -5.179688 1.390625 -5.796875 C 1.890625 -6.410156 2.539062 -6.71875 3.34375 -6.71875 C 3.832031 -6.71875 4.25 -6.617188 4.59375 -6.421875 C 4.9375 -6.234375 5.222656 -5.945312 5.453125 -5.5625 L 5.453125 -6.5625 L 6.53125 -6.5625 Z M 6.53125 -0.8125 "/>
</symbol>
<symbol overflow="visible" id="id9">
<path style="stroke:none;" d="M 6.59375 -3.96875 L 6.59375 0 L 5.515625 0 L 5.515625 -3.921875 C 5.515625 -4.546875 5.390625 -5.007812 5.140625 -5.3125 C 4.898438 -5.625 4.539062 -5.78125 4.0625 -5.78125 C 3.476562 -5.78125 3.015625 -5.59375 2.671875 -5.21875 C 2.335938 -4.851562 2.171875 -4.347656 2.171875 -3.703125 L 2.171875 0 L 1.09375 0 L 1.09375 -9.125 L 2.171875 -9.125 L 2.171875 -5.546875 C 2.429688 -5.941406 2.734375 -6.234375 3.078125 -6.421875 C 3.429688 -6.617188 3.835938 -6.71875 4.296875 -6.71875 C 5.046875 -6.71875 5.613281 -6.484375 6 -6.015625 C 6.394531 -5.554688 6.59375 -4.875 6.59375 -3.96875 Z M 6.59375 -3.96875 "/>
</symbol>
<symbol overflow="visible" id="id10">
<path style="stroke:none;" d="M 2.203125 -8.421875 L 2.203125 -6.5625 L 4.421875 -6.5625 L 4.421875 -5.71875 L 2.203125 -5.71875 L 2.203125 -2.15625 C 2.203125 -1.625 2.273438 -1.28125 2.421875 -1.125 C 2.566406 -0.976562 2.863281 -0.90625 3.3125 -0.90625 L 4.421875 -0.90625 L 4.421875 0 L 3.3125 0 C 2.476562 0 1.898438 -0.15625 1.578125 -0.46875 C 1.265625 -0.78125 1.109375 -1.34375 1.109375 -2.15625 L 1.109375 -5.71875 L 0.328125 -5.71875 L 0.328125 -6.5625 L 1.109375 -6.5625 L 1.109375 -8.421875 Z M 2.203125 -8.421875 "/>
</symbol>
</g>
<clipPath id="id11">
  <rect x="0" y="0" width="380" height="100"/>
</clipPath>
<g id="id12" clip-path="url(#id11)">
<path style="fill:none;stroke-width:1;stroke-linecap:butt;stroke-linejoin:miter;stroke:rgb(36.8417%,50.6779%,70.9798%);stroke-opacity:1;stroke-miterlimit:10;" d="M 70 40 L 110 40 M 82.734375 42.875 L 88 40 " transform="matrix(1,0,0,1,0,50)"/>
<path style="fill:none;stroke-width:1;stroke-linecap:butt;stroke-linejoin:miter;stroke:rgb(36.8417%,50.6779%,70.9798%);stroke-opacity:1;stroke-miterlimit:10;" d="M 110 40 L 110 -40 M 112.875 9.265625 L 110 4 " transform="matrix(1,0,0,1,0,50)"/>
<path style="fill:none;stroke-width:1;stroke-linecap:butt;stroke-linejoin:miter;stroke:rgb(36.8417%,50.6779%,70.9798%);stroke-opacity:1;stroke-miterlimit:10;" d="M 110 -40 L 30 -40 M 79.265625 -42.875 L 74 -40 " transform="matrix(1,0,0,1,0,50)"/>
<path style="fill:none;stroke-width:1;stroke-linecap:butt;stroke-linejoin:miter;stroke:rgb(36.8417%,50.6779%,70.9798%);stroke-opacity:1;stroke-miterlimit:10;" d="M 30 -40 L 30 0 M 27.125 -27.265625 L 30 -22 " transform="matrix(1,0,0,1,0,50)"/>
<path style="fill:none;stroke-width:1;stroke-linecap:butt;stroke-linejoin:miter;stroke:rgb(36.8417%,50.6779%,70.9798%);stroke-opacity:1;stroke-miterlimit:10;" d="M 30 0 L 70 0 M 42.734375 2.875 L 48 0 " transform="matrix(1,0,0,1,0,50)"/>
<path style="fill:none;stroke-width:1;stroke-linecap:butt;stroke-linejoin:miter;stroke:rgb(36.8417%,50.6779%,70.9798%);stroke-opacity:1;stroke-miterlimit:10;" d="M 70 0 L 70 40 M 67.125 12.734375 L 70 18 " transform="matrix(1,0,0,1,0,50)"/>
<path style="fill:none;stroke-width:1;stroke-linecap:butt;stroke-linejoin:miter;stroke:rgb(36.8417%,50.6779%,70.9798%);stroke-opacity:1;stroke-miterlimit:10;" d="M 70 40 L 110 40 L 110 -40 L 30 -40 L 30 0 L 70 0 Z M 70 40 " transform="matrix(1,0,0,1,0,50)"/>
<path style=" stroke:none;fill-rule:nonzero;fill:rgb(10.721896%,16.022803%,23.80084%);fill-opacity:0.1;" d="M 70 90 L 110 90 L 110 10 L 30 10 L 30 50 L 70 50 Z M 70 90 "/>
</g>
<clipPath id="id13">
  <rect x="0" y="0" width="380" height="100"/>
</clipPath>
<g id="id14" clip-path="url(#id13)">
<path style="fill:none;stroke-width:1;stroke-linecap:butt;stroke-linejoin:miter;stroke:rgb(36.8417%,50.6779%,70.9798%);stroke-opacity:1;stroke-miterlimit:10;" d="M 150 -40 L 150 0 M 147.125 -27.265625 L 150 -22 " transform="matrix(1,0,0,1,0,50)"/>
<path style="fill:none;stroke-width:1;stroke-linecap:butt;stroke-linejoin:miter;stroke:rgb(36.8417%,50.6779%,70.9798%);stroke-opacity:1;stroke-miterlimit:10;" d="M 150 0 L 190 0 M 162.734375 2.875 L 168 0 " transform="matrix(1,0,0,1,0,50)"/>
<path style="fill:none;stroke-width:1;stroke-linecap:butt;stroke-linejoin:miter;stroke:rgb(36.8417%,50.6779%,70.9798%);stroke-opacity:1;stroke-miterlimit:10;" d="M 190 0 L 230 0 M 202.734375 2.875 L 208 0 " transform="matrix(1,0,0,1,0,50)"/>
<path style="fill:none;stroke-width:1;stroke-linecap:butt;stroke-linejoin:miter;stroke:rgb(36.8417%,50.6779%,70.9798%);stroke-opacity:1;stroke-miterlimit:10;" d="M 230 0 L 230 -40 M 232.875 -12.734375 L 230 -18 " transform="matrix(1,0,0,1,0,50)"/>
<path style="fill:none;stroke-width:1;stroke-linecap:butt;stroke-linejoin:miter;stroke:rgb(36.8417%,50.6779%,70.9798%);stroke-opacity:1;stroke-miterlimit:10;" d="M 230 -40 L 150 -40 M 199.265625 -42.875 L 194 -40 " transform="matrix(1,0,0,1,0,50)"/>
<path style="fill:none;stroke-width:1;stroke-linecap:butt;stroke-linejoin:miter;stroke:rgb(36.8417%,50.6779%,70.9798%);stroke-opacity:1;stroke-miterlimit:10;" d="M 150 -40 L 150 0 L 230 0 L 230 -40 Z M 150 -40 " transform="matrix(1,0,0,1,0,50)"/>
<path style=" stroke:none;fill-rule:nonzero;fill:rgb(10.721896%,16.022803%,23.80084%);fill-opacity:0.1;" d="M 150 10 L 150 50 L 230 50 L 230 10 Z M 150 10 "/>
</g>
<clipPath id="id15">
  <rect x="0" y="0" width="380" height="100"/>
</clipPath>
<g id="id16" clip-path="url(#id15)">
<path style="fill:none;stroke-width:1;stroke-linecap:butt;stroke-linejoin:miter;stroke:rgb(88.0722%,61.1041%,14.2051%);stroke-opacity:1;stroke-miterlimit:10;" d="M 190 0 L 190 40 M 187.125 12.734375 L 190 18 " transform="matrix(1,0,0,1,0,50)"/>
<path style="fill:none;stroke-width:1;stroke-linecap:butt;stroke-linejoin:miter;stroke:rgb(88.0722%,61.1041%,14.2051%);stroke-opacity:1;stroke-miterlimit:10;" d="M 190 40 L 230 40 M 202.734375 42.875 L 208 40 " transform="matrix(1,0,0,1,0,50)"/>
<path style="fill:none;stroke-width:1;stroke-linecap:butt;stroke-linejoin:miter;stroke:rgb(88.0722%,61.1041%,14.2051%);stroke-opacity:1;stroke-miterlimit:10;" d="M 230 40 L 230 0 M 232.875 27.265625 L 230 22 " transform="matrix(1,0,0,1,0,50)"/>
<path style="fill:none;stroke-width:1;stroke-linecap:butt;stroke-linejoin:miter;stroke:rgb(88.0722%,61.1041%,14.2051%);stroke-opacity:1;stroke-miterlimit:10;" d="M 230 0 L 190 0 M 217.265625 -2.875 L 212 0 " transform="matrix(1,0,0,1,0,50)"/>
<path style="fill:none;stroke-width:1;stroke-linecap:butt;stroke-linejoin:miter;stroke:rgb(88.0722%,61.1041%,14.2051%);stroke-opacity:1;stroke-miterlimit:10;" d="M 190 0 L 190 40 L 230 40 L 230 0 Z M 190 0 " transform="matrix(1,0,0,1,0,50)"/>
<path style=" stroke:none;fill-rule:nonzero;fill:rgb(30.349258%,20.017275%,2.303803%);fill-opacity:0.1;" d="M 190 50 L 190 90 L 230 90 L 230 50 Z M 190 50 "/>
</g>
<clipPath id="id17">
  <rect x="0" y="0" width="380" height="100"/>
</clipPath>
<g id="id18" clip-path="url(#id17)">
<path style="fill:none;stroke-width:1;stroke-linecap:butt;stroke-linejoin:miter;stroke:rgb(0%,0%,0%);stroke-opacity:1;stroke-dasharray:2,4;stroke-miterlimit:10;" d="M 10 0 L 250 0 " transform="matrix(1,0,0,1,0,50)"/>
<path style="fill:none;stroke-width:1;stroke-linecap:butt;stroke-linejoin:miter;stroke:rgb(0%,0%,0%);stroke-opacity:1;stroke-miterlimit:10;" d="M 245.613281 -2.398438 L 250 0 L 245.613281 2.398438 " transform="matrix(1,0,0,1,0,50)"/>
<use xlink:href="#id12"/>
<use xlink:href="#id14"/>
<use xlink:href="#id16"/>
<path style="fill:none;stroke-width:1;stroke-linecap:butt;stroke-linejoin:miter;stroke:rgb(36.8417%,50.6779%,70.9798%);stroke-opacity:1;stroke-miterlimit:10;" d="M 72.5 40 C 72.5 43.332031 67.5 43.332031 67.5 40 C 67.5 36.667969 72.5 36.667969 72.5 40 " transform="matrix(1,0,0,1,0,50)"/>
<path style="fill:none;stroke-width:1;stroke-linecap:butt;stroke-linejoin:miter;stroke:rgb(36.8417%,50.6779%,70.9798%);stroke-opacity:1;stroke-miterlimit:10;" d="M 112.5 40 C 112.5 43.332031 107.5 43.332031 107.5 40 C 107.5 36.667969 112.5 36.667969 112.5 40 " transform="matrix(1,0,0,1,0,50)"/>
<path style="fill:none;stroke-width:1;stroke-linecap:butt;stroke-linejoin:miter;stroke:rgb(36.8417%,50.6779%,70.9798%);stroke-opacity:1;stroke-miterlimit:10;" d="M 112.5 -40 C 112.5 -36.667969 107.5 -36.667969 107.5 -40 C 107.5 -43.332031 112.5 -43.332031 112.5 -40 " transform="matrix(1,0,0,1,0,50)"/>
<path style="fill:none;stroke-width:1;stroke-linecap:butt;stroke-linejoin:miter;stroke:rgb(36.8417%,50.6779%,70.9798%);stroke-opacity:1;stroke-miterlimit:10;" d="M 32.5 -40 C 32.5 -36.667969 27.5 -36.667969 27.5 -40 C 27.5 -43.332031 32.5 -43.332031 32.5 -40 " transform="matrix(1,0,0,1,0,50)"/>
<path style="fill:none;stroke-width:1;stroke-linecap:butt;stroke-linejoin:miter;stroke:rgb(36.8417%,50.6779%,70.9798%);stroke-opacity:1;stroke-miterlimit:10;" d="M 32.5 0 C 32.5 3.332031 27.5 3.332031 27.5 0 C 27.5 -3.332031 32.5 -3.332031 32.5 0 " transform="matrix(1,0,0,1,0,50)"/>
<path style="fill:none;stroke-width:1;stroke-linecap:butt;stroke-linejoin:miter;stroke:rgb(36.8417%,50.6779%,70.9798%);stroke-opacity:1;stroke-miterlimit:10;" d="M 72.5 0 C 72.5 3.332031 67.5 3.332031 67.5 0 C 67.5 -3.332031 72.5 -3.332031 72.5 0 " transform="matrix(1,0,0,1,0,50)"/>
<path style="fill:none;stroke-width:1;stroke-linecap:butt;stroke-linejoin:miter;stroke:rgb(36.8417%,50.6779%,70.9798%);stroke-opacity:1;stroke-miterlimit:10;" d="M 152.5 -40 C 152.5 -36.667969 147.5 -36.667969 147.5 -40 C 147.5 -43.332031 152.5 -43.332031 152.5 -40 " transform="matrix(1,0,0,1,0,50)"/>
<path style="fill:none;stroke-width:1;stroke-linecap:butt;stroke-linejoin:miter;stroke:rgb(36.8417%,50.6779%,70.9798%);stroke-opacity:1;stroke-miterlimit:10;" d="M 152.5 0 C 152.5 3.332031 147.5 3.332031 147.5 0 C 147.5 -3.332031 152.5 -3.332031 152.5 0 " transform="matrix(1,0,0,1,0,50)"/>
<path style="fill:none;stroke-width:1;stroke-linecap:butt;stroke-linejoin:miter;stroke:rgb(36.8417%,50.6779%,70.9798%);stroke-opacity:1;stroke-miterlimit:10;" d="M 192.5 0 C 192.5 3.332031 187.5 3.332031 187.5 0 C 187.5 -3.332031 192.5 -3.332031 192.5 0 " transform="matrix(1,0,0,1,0,50)"/>
<path style="fill:none;stroke-width:1;stroke-linecap:butt;stroke-linejoin:miter;stroke:rgb(36.8417%,50.6779%,70.9798%);stroke-opacity:1;stroke-miterlimit:10;" d="M 232.5 0 C 232.5 3.332031 227.5 3.332031 227.5 0 C 227.5 -3.332031 232.5 -3.332031 232.5 0 " transform="matrix(1,0,0,1,0,50)"/>
<path style="fill:none;stroke-width:1;stroke-linecap:butt;stroke-linejoin:miter;stroke:rgb(36.8417%,50.6779%,70.9798%);stroke-opacity:1;stroke-miterlimit:10;" d="M 232.5 -40 C 232.5 -36.667969 227.5 -36.667969 227.5 -40 C 227.5 -43.332031 232.5 -43.332031 232.5 -40 " transform="matrix(1,0,0,1,0,50)"/>
<path style="fill:none;stroke-width:1;stroke-linecap:butt;stroke-linejoin:miter;stroke:rgb(36.8417%,50.6779%,70.9798%);stroke-opacity:1;stroke-miterlimit:10;" d="M 192.5 0 C 192.5 3.332031 187.5 3.332031 187.5 0 C 187.5 -3.332031 192.5 -3.332031 192.5 0 " transform="matrix(1,0,0,1,0,50)"/>
<path style="fill:none;stroke-width:1;stroke-linecap:butt;stroke-linejoin:miter;stroke:rgb(36.8417%,50.6779%,70.9798%);stroke-opacity:1;stroke-miterlimit:10;" d="M 192.5 40 C 192.5 43.332031 187.5 43.332031 187.5 40 C 187.5 36.667969 192.5 36.667969 192.5 40 " transform="matrix(1,0,0,1,0,50)"/>
<path style="fill:none;stroke-width:1;stroke-linecap:butt;stroke-linejoin:miter;stroke:rgb(36.8417%,50.6779%,70.9798%);stroke-opacity:1;stroke-miterlimit:10;" d="M 232.5 40 C 232.5 43.332031 227.5 43.332031 227.5 40 C 227.5 36.667969 232.5 36.667969 232.5 40 " transform="matrix(1,0,0,1,0,50)"/>
<path style="fill:none;stroke-width:1;stroke-linecap:butt;stroke-linejoin:miter;stroke:rgb(36.8417%,50.6779%,70.9798%);stroke-opacity:1;stroke-miterlimit:10;" d="M 232.5 0 C 232.5 3.332031 227.5 3.332031 227.5 0 C 227.5 -3.332031 232.5 -3.332031 232.5 0 " transform="matrix(1,0,0,1,0,50)"/>
</g>
</defs>
<g id="id19">
<use xlink:href="#id18"/>
<g style="fill:rgb(88.0722%,61.1041%,14.2051%);fill-opacity:1;">
  <use xlink:href="#id2" x="260" y="55.804688"/>
  <use xlink:href="#id3" x="267.341797" y="55.804688"/>
  <use xlink:href="#id4" x="274.947266" y="55.804688"/>
  <use xlink:href="#id5" x="278.761719" y="55.804688"/>
  <use xlink:href="#id4" x="288.816406" y="55.804688"/>
  <use xlink:href="#id2" x="292.630859" y="55.804688"/>
  <use xlink:href="#id3" x="299.972656" y="55.804688"/>
  <use xlink:href="#id4" x="307.578125" y="55.804688"/>
  <use xlink:href="#id5" x="311.392578" y="55.804688"/>
  <use xlink:href="#id4" x="321.447266" y="55.804688"/>
  <use xlink:href="#id6" x="325.261719" y="55.804688"/>
  <use xlink:href="#id7" x="330.195312" y="55.804688"/>
  <use xlink:href="#id8" x="333.529297" y="55.804688"/>
  <use xlink:href="#id9" x="341.146484" y="55.804688"/>
  <use xlink:href="#id10" x="348.751953" y="55.804688"/>
</g>
</g>
</svg>
