<?xml version="1.0" encoding="UTF-8"?>
<svg xmlns="http://www.w3.org/2000/svg" xmlns:xlink="http://www.w3.org/1999/xlink" width="380pt" height="100pt" viewBox="0 0 380 100" version="1.1">
<defs>
<g>
<symbol overflow="visible" id="id1">
<path style="stroke:none;" d="M 0.59375 2.125 L 0.59375 -8.46875 L 6.59375 -8.46875 L 6.59375 2.125 Z M 1.265625 1.453125 L 5.9375 1.453125 L 5.9375 -7.78125 L 1.265625 -7.78125 Z M 1.265625 1.453125 "/>
</symbol>
<symbol overflow="visible" id="id2">
<path style="stroke:none;" d="M 1.125 -9.125 L 2.203125 -9.125 L 2.203125 0 L 1.125 0 Z M 1.125 -9.125 "/>
</symbol>
<symbol overflow="visible" id="id3">
<path style="stroke:none;" d="M 6.75 -3.546875 L 6.75 -3.03125 L 1.78125 -3.03125 C 1.832031 -2.28125 2.054688 -1.710938 2.453125 -1.328125 C 2.859375 -0.941406 3.414062 -0.75 4.125 -0.75 C 4.539062 -0.75 4.941406 -0.796875 5.328125 -0.890625 C 5.722656 -0.992188 6.113281 -1.148438 6.5 -1.359375 L 6.5 -0.328125 C 6.101562 -0.171875 5.703125 -0.0507812 5.296875 0.03125 C 4.890625 0.125 4.476562 0.171875 4.0625 0.171875 C 3.019531 0.171875 2.191406 -0.128906 1.578125 -0.734375 C 0.960938 -1.347656 0.65625 -2.175781 0.65625 -3.21875 C 0.65625 -4.289062 0.945312 -5.140625 1.53125 -5.765625 C 2.113281 -6.398438 2.894531 -6.71875 3.875 -6.71875 C 4.757812 -6.71875 5.457031 -6.429688 5.96875 -5.859375 C 6.488281 -5.296875 6.75 -4.523438 6.75 -3.546875 Z M 5.671875 -3.875 C 5.660156 -4.457031 5.492188 -4.925781 5.171875 -5.28125 C 4.847656 -5.632812 4.421875 -5.8125 3.890625 -5.8125 C 3.285156 -5.8125 2.800781 -5.640625 2.4375 -5.296875 C 2.082031 -4.953125 1.878906 -4.472656 1.828125 -3.859375 Z M 5.671875 -3.875 "/>
</symbol>
<symbol overflow="visible" id="id4">
<path style="stroke:none;" d="M 4.453125 -9.125 L 4.453125 -8.21875 L 3.421875 -8.21875 C 3.035156 -8.21875 2.765625 -8.140625 2.609375 -7.984375 C 2.460938 -7.828125 2.390625 -7.546875 2.390625 -7.140625 L 2.390625 -6.5625 L 4.171875 -6.5625 L 4.171875 -5.71875 L 2.390625 -5.71875 L 2.390625 0 L 1.3125 0 L 1.3125 -5.71875 L 0.28125 -5.71875 L 0.28125 -6.5625 L 1.3125 -6.5625 L 1.3125 -7.015625 C 1.3125 -7.742188 1.476562 -8.273438 1.8125 -8.609375 C 2.15625 -8.953125 2.695312 -9.125 3.4375 -9.125 Z M 4.453125 -9.125 "/>
</symbol>
<symbol overflow="visible" id="id5">
<path style="stroke:none;" d="M 2.203125 -8.421875 L 2.203125 -6.5625 L 4.421875 -6.5625 L 4.421875 -5.71875 L 2.203125 -5.71875 L 2.203125 -2.15625 C 2.203125 -1.625 2.273438 -1.28125 2.421875 -1.125 C 2.566406 -0.976562 2.863281 -0.90625 3.3125 -0.90625 L 4.421875 -0.90625 L 4.421875 0 L 3.3125 0 C 2.476562 0 1.898438 -0.15625 1.578125 -0.46875 C 1.265625 -0.78125 1.109375 -1.34375 1.109375 -2.15625 L 1.109375 -5.71875 L 0.328125 -5.71875 L 0.328125 -6.5625 L 1.109375 -6.5625 L 1.109375 -8.421875 Z M 2.203125 -8.421875 "/>
</symbol>
<symbol overflow="visible" id="id6">
<path style="stroke:none;" d=""/>
</symbol>
<symbol overflow="visible" id="id7">
<path style="stroke:none;" d="M 9.46875 -4.03125 L 9.46875 -3.5 L 7.171875 -1.203125 L 6.46875 -1.90625 L 7.828125 -3.265625 L 0.6875 -3.265625 L 0.6875 -4.265625 L 7.828125 -4.265625 L 6.46875 -5.625 L 7.171875 -6.328125 Z M 9.46875 -4.03125 "/>
</symbol>
<symbol overflow="visible" id="id8">
<path style="stroke:none;" d="M 3.671875 -5.8125 C 3.097656 -5.8125 2.640625 -5.582031 2.296875 -5.125 C 1.960938 -4.675781 1.796875 -4.0625 1.796875 -3.28125 C 1.796875 -2.488281 1.960938 -1.867188 2.296875 -1.421875 C 2.628906 -0.972656 3.085938 -0.75 3.671875 -0.75 C 4.242188 -0.75 4.695312 -0.972656 5.03125 -1.421875 C 5.375 -1.878906 5.546875 -2.5 5.546875 -3.28125 C 5.546875 -4.050781 5.375 -4.664062 5.03125 -5.125 C 4.695312 -5.582031 4.242188 -5.8125 3.671875 -5.8125 Z M 3.671875 -6.71875 C 4.609375 -6.71875 5.34375 -6.410156 5.875 -5.796875 C 6.414062 -5.191406 6.6875 -4.351562 6.6875 -3.28125 C 6.6875 -2.207031 6.414062 -1.363281 5.875 -0.75 C 5.34375 -0.132812 4.609375 0.171875 3.671875 0.171875 C 2.734375 0.171875 1.992188 -0.132812 1.453125 -0.75 C 0.921875 -1.363281 0.65625 -2.207031 0.65625 -3.28125 C 0.65625 -4.351562 0.921875 -5.191406 1.453125 -5.796875 C 1.992188 -6.410156 2.734375 -6.71875 3.671875 -6.71875 Z M 3.671875 -6.71875 "/>
</symbol>
<symbol overflow="visible" id="id9">
<path style="stroke:none;" d="M 6.59375 -3.96875 L 6.59375 0 L 5.515625 0 L 5.515625 -3.921875 C 5.515625 -4.546875 5.390625 -5.007812 5.140625 -5.3125 C 4.898438 -5.625 4.539062 -5.78125 4.0625 -5.78125 C 3.476562 -5.78125 3.015625 -5.59375 2.671875 -5.21875 C 2.335938 -4.851562 2.171875 -4.347656 2.171875 -3.703125 L 2.171875 0 L 1.09375 0 L 1.09375 -6.5625 L 2.171875 -6.5625 L 2.171875 -5.546875 C 2.429688 -5.941406 2.734375 -6.234375 3.078125 -6.421875 C 3.429688 -6.617188 3.835938 -6.71875 4.296875 -6.71875 C 5.046875 -6.71875 5.613281 -6.484375 6 -6.015625 C 6.394531 -5.554688 6.59375 -4.875 6.59375 -3.96875 Z M 6.59375 -3.96875 "/>
</symbol>
</g>
<clipPath id="id10">
  <rect x="0" y="0" width="380" height="100"/>
</clipPath>
<g id="id11" clip-path="url(#id10)">
<path style="fill:none;stroke-width:1;stroke-linecap:butt;stroke-linejoin:miter;stroke:rgb(36.8417%,50.6779%,70.9798%);stroke-opacity:1;stroke-miterlimit:10;" d="M 70 0 L 110 0 M 82.734375 2.875 L 88 0 " transform="matrix(1,0,0,1,0,50)"/>
<path style="fill:none;stroke-width:1;stroke-linecap:butt;stroke-linejoin:miter;stroke:rgb(36.8417%,50.6779%,70.9798%);stroke-opacity:1;stroke-miterlimit:10;" d="M 110 0 L 110 40 M 107.125 12.734375 L 110 18 " transform="matrix(1,0,0,1,0,50)"/>
<path style="fill:none;stroke-width:1;stroke-linecap:butt;stroke-linejoin:miter;stroke:rgb(36.8417%,50.6779%,70.9798%);stroke-opacity:1;stroke-miterlimit:10;" d="M 110 40 L 30 40 M 79.265625 37.125 L 74 40 " transform="matrix(1,0,0,1,0,50)"/>
<path style="fill:none;stroke-width:1;stroke-linecap:butt;stroke-linejoin:miter;stroke:rgb(36.8417%,50.6779%,70.9798%);stroke-opacity:1;stroke-miterlimit:10;" d="M 30 40 L 30 -40 M 32.875 9.265625 L 30 4 " transform="matrix(1,0,0,1,0,50)"/>
<path style="fill:none;stroke-width:1;stroke-linecap:butt;stroke-linejoin:miter;stroke:rgb(36.8417%,50.6779%,70.9798%);stroke-opacity:1;stroke-miterlimit:10;" d="M 30 -40 L 70 -40 M 42.734375 -37.125 L 48 -40 " transform="matrix(1,0,0,1,0,50)"/>
<path style="fill:none;stroke-width:1;stroke-linecap:butt;stroke-linejoin:miter;stroke:rgb(36.8417%,50.6779%,70.9798%);stroke-opacity:1;stroke-miterlimit:10;" d="M 70 -40 L 70 0 M 67.125 -27.265625 L 70 -22 " transform="matrix(1,0,0,1,0,50)"/>
<path style="fill:none;stroke-width:1;stroke-linecap:butt;stroke-linejoin:miter;stroke:rgb(36.8417%,50.6779%,70.9798%);stroke-opacity:1;stroke-miterlimit:10;" d="M 70 0 L 110 0 L 110 40 L 30 40 L 30 -40 L 70 -40 Z M 70 0 " transform="matrix(1,0,0,1,0,50)"/>
<path style=" stroke:none;fill-rule:nonzero;fill:rgb(10.721896%,16.022803%,23.80084%);fill-opacity:0.1;" d="M 70 50 L 110 50 L 110 90 L 30 90 L 30 10 L 70 10 Z M 70 50 "/>
</g>
<clipPath id="id12">
  <rect x="0" y="0" width="380" height="100"/>
</clipPath>
<g id="id13" clip-path="url(#id12)">
<path style="fill:none;stroke-width:1;stroke-linecap:butt;stroke-linejoin:miter;stroke:rgb(36.8417%,50.6779%,70.9798%);stroke-opacity:1;stroke-miterlimit:10;" d="M 150 -40 L 190 -40 M 162.734375 -37.125 L 168 -40 " transform="matrix(1,0,0,1,0,50)"/>
<path style="fill:none;stroke-width:1;stroke-linecap:butt;stroke-linejoin:miter;stroke:rgb(36.8417%,50.6779%,70.9798%);stroke-opacity:1;stroke-miterlimit:10;" d="M 190 -40 L 190 0 M 187.125 -27.265625 L 190 -22 " transform="matrix(1,0,0,1,0,50)"/>
<path style="fill:none;stroke-width:1;stroke-linecap:butt;stroke-linejoin:miter;stroke:rgb(36.8417%,50.6779%,70.9798%);stroke-opacity:1;stroke-miterlimit:10;" d="M 190 0 L 150 0 M 177.265625 -2.875 L 172 0 " transform="matrix(1,0,0,1,0,50)"/>
<path style="fill:none;stroke-width:1;stroke-linecap:butt;stroke-linejoin:miter;stroke:rgb(36.8417%,50.6779%,70.9798%);stroke-opacity:1;stroke-miterlimit:10;" d="M 150 0 L 150 -40 M 152.875 -12.734375 L 150 -18 " transform="matrix(1,0,0,1,0,50)"/>
<path style="fill:none;stroke-width:1;stroke-linecap:butt;stroke-linejoin:miter;stroke:rgb(36.8417%,50.6779%,70.9798%);stroke-opacity:1;stroke-miterlimit:10;" d="M 150 -40 L 190 -40 L 190 0 L 150 0 Z M 150 -40 " transform="matrix(1,0,0,1,0,50)"/>
<path style=" stroke:none;fill-rule:nonzero;fill:rgb(10.721896%,16.022803%,23.80084%);fill-opacity:0.1;" d="M 150 10 L 190 10 L 190 50 L 150 50 Z M 150 10 "/>
</g>
<clipPath id="id14">
  <rect x="0" y="0" width="380" height="100"/>
</clipPath>
<g id="id15" clip-path="url(#id14)">
<path style="fill:none;stroke-width:1;stroke-linecap:butt;stroke-linejoin:miter;stroke:rgb(88.0722%,61.1041%,14.2051%);stroke-opacity:1;stroke-miterlimit:10;" d="M 150 0 L 190 0 M 162.734375 2.875 L 168 0 " transform="matrix(1,0,0,1,0,50)"/>
<path style="fill:none;stroke-width:1;stroke-linecap:butt;stroke-linejoin:miter;stroke:rgb(88.0722%,61.1041%,14.2051%);stroke-opacity:1;stroke-miterlimit:10;" d="M 190 0 L 230 0 M 202.734375 2.875 L 208 0 " transform="matrix(1,0,0,1,0,50)"/>
<path style="fill:none;stroke-width:1;stroke-linecap:butt;stroke-linejoin:miter;stroke:rgb(88.0722%,61.1041%,14.2051%);stroke-opacity:1;stroke-miterlimit:10;" d="M 230 0 L 230 40 M 227.125 12.734375 L 230 18 " transform="matrix(1,0,0,1,0,50)"/>
<path style="fill:none;stroke-width:1;stroke-linecap:butt;stroke-linejoin:miter;stroke:rgb(88.0722%,61.1041%,14.2051%);stroke-opacity:1;stroke-miterlimit:10;" d="M 230 40 L 150 40 M 199.265625 37.125 L 194 40 " transform="matrix(1,0,0,1,0,50)"/>
<path style="fill:none;stroke-width:1;stroke-linecap:butt;stroke-linejoin:miter;stroke:rgb(88.0722%,61.1041%,14.2051%);stroke-opacity:1;stroke-miterlimit:10;" d="M 150 40 L 150 0 M 152.875 27.265625 L 150 22 " transform="matrix(1,0,0,1,0,50)"/>
<path style="fill:none;stroke-width:1;stroke-linecap:butt;stroke-linejoin:miter;stroke:rgb(88.0722%,61.1041%,14.2051%);stroke-opacity:1;stroke-miterlimit:10;" d="M 150 0 L 230 0 L 230 40 L 150 40 Z M 150 0 " transform="matrix(1,0,0,1,0,50)"/>
<path style=" stroke:none;fill-rule:nonzero;fill:rgb(30.349258%,20.017275%,2.303803%);fill-opacity:0.1;" d="M 150 50 L 230 50 L 230 90 L 150 90 Z M 150 50 "/>
</g>
<clipPath id="id16">
  <rect x="0" y="0" width="380" height="100"/>
</clipPath>
<g id="id17" clip-path="url(#id16)">
<path style="fill:none;stroke-width:1;stroke-linecap:butt;stroke-linejoin:miter;stroke:rgb(0%,0%,0%);stroke-opacity:1;stroke-dasharray:2,4;stroke-miterlimit:10;" d="M 10 0 L 250 0 " transform="matrix(1,0,0,1,0,50)"/>
<path style="fill:none;stroke-width:1;stroke-linecap:butt;stroke-linejoin:miter;stroke:rgb(0%,0%,0%);stroke-opacity:1;stroke-miterlimit:10;" d="M 245.613281 -2.398438 L 250 0 L 245.613281 2.398438 " transform="matrix(1,0,0,1,0,50)"/>
<use xlink:href="#id11"/>
<use xlink:href="#id13"/>
<use xlink:href="#id15"/>
<path style="fill:none;stroke-width:1;stroke-linecap:butt;stroke-linejoin:miter;stroke:rgb(36.8417%,50.6779%,70.9798%);stroke-opacity:1;stroke-miterlimit:10;" d="M 72.5 0 C 72.5 3.332031 67.5 3.332031 67.5 0 C 67.5 -3.332031 72.5 -3.332031 72.5 0 " transform="matrix(1,0,0,1,0,50)"/>
<path style="fill:none;stroke-width:1;stroke-linecap:butt;stroke-linejoin:miter;stroke:rgb(36.8417%,50.6779%,70.9798%);stroke-opacity:1;stroke-miterlimit:10;" d="M 112.5 0 C 112.5 3.332031 107.5 3.332031 107.5 0 C 107.5 -3.332031 112.5 -3.332031 112.5 0 " transform="matrix(1,0,0,1,0,50)"/>
<path style="fill:none;stroke-width:1;stroke-linecap:butt;stroke-linejoin:miter;stroke:rgb(36.8417%,50.6779%,70.9798%);stroke-opacity:1;stroke-miterlimit:10;" d="M 112.5 40 C 112.5 43.332031 107.5 43.332031 107.5 40 C 107.5 36.667969 112.5 36.667969 112.5 40 " transform="matrix(1,0,0,1,0,50)"/>
<path style="fill:none;stroke-width:1;stroke-linecap:butt;stroke-linejoin:miter;stroke:rgb(36.8417%,50.6779%,70.9798%);stroke-opacity:1;stroke-miterlimit:10;" d="M 32.5 40 C 32.5 43.332031 27.5 43.332031 27.5 40 C 27.5 36.667969 32.5 36.667969 32.5 40 " transform="matrix(1,0,0,1,0,50)"/>
<path style="fill:none;stroke-width:1;stroke-linecap:butt;stroke-linejoin:miter;stroke:rgb(36.8417%,50.6779%,70.9798%);stroke-opacity:1;stroke-miterlimit:10;" d="M 32.5 -40 C 32.5 -36.667969 27.5 -36.667969 27.5 -40 C 27.5 -43.332031 32.5 -43.332031 32.5 -40 " transform="matrix(1,0,0,1,0,50)"/>
<path style="fill:none;stroke-width:1;stroke-linecap:butt;stroke-linejoin:miter;stroke:rgb(36.8417%,50.6779%,70.9798%);stroke-opacity:1;stroke-miterlimit:10;" d="M 72.5 -40 C 72.5 -36.667969 67.5 -36.667969 67.5 -40 C 67.5 -43.332031 72.5 -43.332031 72.5 -40 " transform="matrix(1,0,0,1,0,50)"/>
<path style="fill:none;stroke-width:1;stroke-linecap:butt;stroke-linejoin:miter;stroke:rgb(36.8417%,50.6779%,70.9798%);stroke-opacity:1;stroke-miterlimit:10;" d="M 152.5 -40 C 152.5 -36.667969 147.5 -36.667969 147.5 -40 C 147.5 -43.332031 152.5 -43.332031 152.5 -40 " transform="matrix(1,0,0,1,0,50)"/>
<path style="fill:none;stroke-width:1;stroke-linecap:butt;stroke-linejoin:miter;stroke:rgb(36.8417%,50.6779%,70.9798%);stroke-opacity:1;stroke-miterlimit:10;" d="M 192.5 -40 C 192.5 -36.667969 187.5 -36.667969 187.5 -40 C 187.5 -43.332031 192.5 -43.332031 192.5 -40 " transform="matrix(1,0,0,1,0,50)"/>
<path style="fill:none;stroke-width:1;stroke-linecap:butt;stroke-linejoin:miter;stroke:rgb(36.8417%,50.6779%,70.9798%);stroke-opacity:1;stroke-miterlimit:10;" d="M 192.5 0 C 192.5 3.332031 187.5 3.332031 187.5 0 C 187.5 -3.332031 192.5 -3.332031 192.5 0 " transform="matrix(1,0,0,1,0,50)"/>
<path style="fill:none;stroke-width:1;stroke-linecap:butt;stroke-linejoin:miter;stroke:rgb(36.8417%,50.6779%,70.9798%);stroke-opacity:1;stroke-miterlimit:10;" d="M 152.5 0 C 152.5 3.332031 147.5 3.332031 147.5 0 C 147.5 -3.332031 152.5 -3.332031 152.5 0 " transform="matrix(1,0,0,1,0,50)"/>
<path style="fill:none;stroke-width:1;stroke-linecap:butt;stroke-linejoin:miter;stroke:rgb(36.8417%,50.6779%,70.9798%);stroke-opacity:1;stroke-miterlimit:10;" d="M 152.5 0 C 152.5 3.332031 147.5 3.332031 147.5 0 C 147.5 -3.332031 152.5 -3.332031 152.5 0 " transform="matrix(1,0,0,1,0,50)"/>
<path style="fill:none;stroke-width:1;stroke-linecap:butt;stroke-linejoin:miter;stroke:rgb(36.8417%,50.6779%,70.9798%);stroke-opacity:1;stroke-miterlimit:10;" d="M 192.5 0 C 192.5 3.332031 187.5 3.332031 187.5 0 C 187.5 -3.332031 192.5 -3.332031 192.5 0 " transform="matrix(1,0,0,1,0,50)"/>
<path style="fill:none;stroke-width:1;stroke-linecap:butt;stroke-linejoin:miter;stroke:rgb(36.8417%,50.6779%,70.9798%);stroke-opacity:1;stroke-miterlimit:10;" d="M 232.5 0 C 232.5 3.332031 227.5 3.332031 227.5 0 C 227.5 -3.332031 232.5 -3.332031 232.5 0 " transform="matrix(1,0,0,1,0,50)"/>
<path style="fill:none;stroke-width:1;stroke-linecap:butt;stroke-linejoin:miter;stroke:rgb(36.8417%,50.6779%,70.9798%);stroke-opacity:1;stroke-miterlimit:10;" d="M 232.5 40 C 232.5 43.332031 227.5 43.332031 227.5 40 C 227.5 36.667969 232.5 36.667969 232.5 40 " transform="matrix(1,0,0,1,0,50)"/>
<path style="fill:none;stroke-width:1;stroke-linecap:butt;stroke-linejoin:miter;stroke:rgb(36.8417%,50.6779%,70.9798%);stroke-opacity:1;stroke-miterlimit:10;" d="M 152.5 40 C 152.5 43.332031 147.5 43.332031 147.5 40 C 147.5 36.667969 152.5 36.667969 152.5 40 " transform="matrix(1,0,0,1,0,50)"/>
</g>
</defs>
<g id="id18">
<use xlink:href="#id17"/>
<g style="fill:rgb(88.0722%,61.1041%,14.2051%);fill-opacity:1;">
  <use xlink:href="#id2" x="260" y="54.644531"/>
  <use xlink:href="#id3" x="263.333984" y="54.644531"/>
  <use xlink:href="#id4" x="270.716797" y="54.644531"/>
  <use xlink:href="#id5" x="274.941406" y="54.644531"/>
  <use xlink:href="#id6" x="279.646484" y="54.644531"/>
  <use xlink:href="#id7" x="283.460938" y="54.644531"/>
  <use xlink:href="#id6" x="293.515625" y="54.644531"/>
  <use xlink:href="#id8" x="297.330078" y="54.644531"/>
  <use xlink:href="#id9" x="304.671875" y="54.644531"/>
  <use xlink:href="#id6" x="312.277344" y="54.644531"/>
  <use xlink:href="#id7" x="316.091797" y="54.644531"/>
  <use xlink:href="#id6" x="326.146484" y="54.644531"/>
  <use xlink:href="#id8" x="329.960938" y="54.644531"/>
  <use xlink:href="#id9" x="337.302734" y="54.644531"/>
</g>
</g>
</svg>
