<?xml version="1.0" encoding="UTF-8"?>
<svg xmlns="http://www.w3.org/2000/svg" xmlns:xlink="http://www.w3.org/1999/xlink" width="220pt" height="220pt" viewBox="0 0 220 220" version="1.1">
<g id="surface4">
<path style=" stroke:none;fill-rule:nonzero;fill:rgb(36.8417%,50.6779%,70.9798%);fill-opacity:0.5;" d="M 10 10 L 26.453125 10 L 33.480469 42.84375 L 10 53.882812 Z M 10 10 "/>
<path style=" stroke:none;fill-rule:nonzero;fill:rgb(88.0722%,61.1041%,14.2051%);fill-opacity:0.5;" d="M 10 53.882812 L 10.132812 53.820312 L 29.738281 89.136719 L 22.070312 122.445312 L 10 118.484375 Z M 10 53.882812 "/>
<path style=" stroke:none;fill-rule:nonzero;fill:rgb(56.0181%,69.1569%,19.4885%);fill-opacity:0.5;" d="M 10.132812 53.820312 L 33.480469 42.84375 L 36.808594 58.414062 L 29.738281 89.136719 Z M 10.132812 53.820312 "/>
<path style=" stroke:none;fill-rule:nonzero;fill:rgb(92.2526%,38.5626%,20.9179%);fill-opacity:0.5;" d="M 22.070312 122.445312 L 36.808594 58.414062 L 52.660156 132.492188 Z M 22.070312 122.445312 "/>
<path style=" stroke:none;fill-rule:nonzero;fill:rgb(52.8488%,47.0624%,70.1351%);fill-opacity:0.5;" d="M 10 118.484375 L 52.660156 132.492188 L 57.507812 155.15625 L 40.734375 171.113281 L 10 120.085938 Z M 10 118.484375 "/>
<path style=" stroke:none;fill-rule:nonzero;fill:rgb(77.2079%,43.1554%,10.2387%);fill-opacity:0.5;" d="M 10 120.085938 L 40.734375 171.113281 L 10 200.351562 Z M 10 120.085938 "/>
<path style=" stroke:none;fill-rule:nonzero;fill:rgb(36.3898%,61.8501%,78.2349%);fill-opacity:0.5;" d="M 26.453125 10 L 81.246094 10 L 34.953125 49.726562 Z M 26.453125 10 "/>
<path style=" stroke:none;fill-rule:nonzero;fill:rgb(100%,75%,0%);fill-opacity:0.5;" d="M 34.953125 49.726562 L 62.636719 25.972656 L 64.644531 60.832031 L 41.558594 80.613281 Z M 34.953125 49.726562 "/>
<path style=" stroke:none;fill-rule:nonzero;fill:rgb(64.7624%,37.816%,61.4037%);fill-opacity:0.5;" d="M 62.636719 25.972656 L 81.246094 10 L 92.144531 10 L 99.074219 31.324219 L 64.644531 60.832031 Z M 62.636719 25.972656 "/>
<path style=" stroke:none;fill-rule:nonzero;fill:rgb(57.1589%,58.6483%,0%);fill-opacity:0.5;" d="M 41.558594 80.613281 L 48.671875 74.519531 L 88.964844 125.230469 L 76.789062 136.8125 L 47.589844 108.796875 Z M 41.558594 80.613281 "/>
<path style=" stroke:none;fill-rule:nonzero;fill:rgb(91.5%,33.25%,21.25%);fill-opacity:0.5;" d="M 47.589844 108.796875 L 76.789062 136.8125 L 57.507812 155.15625 Z M 47.589844 108.796875 "/>
<path style=" stroke:none;fill-rule:nonzero;fill:rgb(40.082223%,52.200666%,85%);fill-opacity:0.5;" d="M 48.671875 74.519531 L 99.074219 31.324219 L 103.9375 46.300781 L 80.453125 78.609375 L 49.230469 75.222656 Z M 48.671875 74.519531 "/>
<path style=" stroke:none;fill-rule:nonzero;fill:rgb(97.282889%,62.164445%,7.3362%);fill-opacity:0.5;" d="M 80.453125 78.609375 L 103.9375 46.300781 L 115.679688 82.433594 Z M 80.453125 78.609375 "/>
<path style=" stroke:none;fill-rule:nonzero;fill:rgb(73.678267%,35.8%,50.302666%);fill-opacity:0.5;" d="M 49.230469 75.222656 L 115.679688 82.433594 L 119.992188 95.710938 L 109.441406 105.75 L 49.238281 75.234375 Z M 49.230469 75.222656 "/>
<path style=" stroke:none;fill-rule:nonzero;fill:rgb(28.026441%,71.5%,42.920893%);fill-opacity:0.5;" d="M 49.238281 75.234375 L 109.441406 105.75 L 88.964844 125.230469 Z M 49.238281 75.234375 "/>
<path style=" stroke:none;fill-rule:nonzero;fill:rgb(36.8417%,50.6779%,70.9798%);fill-opacity:0.5;" d="M 10 200.351562 L 26.96875 184.207031 L 89.386719 208.828125 L 90.066406 210 L 10 210 Z M 10 200.351562 "/>
<path style=" stroke:none;fill-rule:nonzero;fill:rgb(88.0722%,61.1041%,14.2051%);fill-opacity:0.5;" d="M 26.96875 184.207031 L 58.082031 154.609375 L 89.386719 208.828125 Z M 26.96875 184.207031 "/>
<path style=" stroke:none;fill-rule:nonzero;fill:rgb(56.0181%,69.1569%,19.4885%);fill-opacity:0.5;" d="M 58.082031 154.609375 L 85.304688 128.710938 L 95.285156 150.132812 L 77.144531 187.621094 Z M 58.082031 154.609375 "/>
<path style=" stroke:none;fill-rule:nonzero;fill:rgb(92.2526%,38.5626%,20.9179%);fill-opacity:0.5;" d="M 85.304688 128.710938 L 119.992188 95.710938 L 120.644531 97.71875 L 95.285156 150.132812 Z M 85.304688 128.710938 "/>
<path style=" stroke:none;fill-rule:nonzero;fill:rgb(52.8488%,47.0624%,70.1351%);fill-opacity:0.5;" d="M 77.144531 187.621094 L 85.75 169.839844 L 104.628906 193.265625 L 81.523438 195.207031 Z M 77.144531 187.621094 "/>
<path style=" stroke:none;fill-rule:nonzero;fill:rgb(77.2079%,43.1554%,10.2387%);fill-opacity:0.5;" d="M 85.75 169.839844 L 91.8125 157.3125 L 148.730469 189.5625 L 104.628906 193.265625 Z M 85.75 169.839844 "/>
<path style=" stroke:none;fill-rule:nonzero;fill:rgb(36.3898%,61.8501%,78.2349%);fill-opacity:0.5;" d="M 91.8125 157.3125 L 100.332031 139.703125 L 146.15625 176.238281 L 150.441406 189.417969 L 148.730469 189.5625 Z M 91.8125 157.3125 "/>
<path style=" stroke:none;fill-rule:nonzero;fill:rgb(100%,75%,0%);fill-opacity:0.5;" d="M 100.332031 139.703125 L 120.644531 97.71875 L 146.15625 176.238281 Z M 100.332031 139.703125 "/>
<path style=" stroke:none;fill-rule:nonzero;fill:rgb(64.7624%,37.816%,61.4037%);fill-opacity:0.5;" d="M 81.523438 195.207031 L 150.441406 189.417969 L 157.128906 210 L 90.066406 210 Z M 81.523438 195.207031 "/>
<path style=" stroke:none;fill-rule:nonzero;fill:rgb(57.1589%,58.6483%,0%);fill-opacity:0.5;" d="M 92.144531 10 L 120.539062 10 L 126.109375 62.171875 L 113.84375 65.726562 L 109.460938 63.296875 Z M 92.144531 10 "/>
<path style=" stroke:none;fill-rule:nonzero;fill:rgb(91.5%,33.25%,21.25%);fill-opacity:0.5;" d="M 120.539062 10 L 156.917969 10 L 162.820312 22.398438 L 122.441406 27.820312 Z M 120.539062 10 "/>
<path style=" stroke:none;fill-rule:nonzero;fill:rgb(40.082223%,52.200666%,85%);fill-opacity:0.5;" d="M 122.441406 27.820312 L 137.023438 25.863281 L 144.128906 56.945312 L 126.109375 62.171875 Z M 122.441406 27.820312 "/>
<path style=" stroke:none;fill-rule:nonzero;fill:rgb(97.282889%,62.164445%,7.3362%);fill-opacity:0.5;" d="M 137.023438 25.863281 L 162.820312 22.398438 L 175 47.992188 L 144.128906 56.945312 Z M 137.023438 25.863281 "/>
<path style=" stroke:none;fill-rule:nonzero;fill:rgb(73.678267%,35.8%,50.302666%);fill-opacity:0.5;" d="M 113.84375 65.726562 L 150.402344 55.125 L 162.492188 92.695312 Z M 113.84375 65.726562 "/>
<path style=" stroke:none;fill-rule:nonzero;fill:rgb(28.026441%,71.5%,42.920893%);fill-opacity:0.5;" d="M 150.402344 55.125 L 154.375 53.972656 L 193.242188 109.746094 L 162.492188 92.695312 Z M 150.402344 55.125 "/>
<path style=" stroke:none;fill-rule:nonzero;fill:rgb(36.8417%,50.6779%,70.9798%);fill-opacity:0.5;" d="M 154.375 53.972656 L 175 47.992188 L 208.382812 118.136719 L 193.242188 109.746094 Z M 154.375 53.972656 "/>
<path style=" stroke:none;fill-rule:nonzero;fill:rgb(88.0722%,61.1041%,14.2051%);fill-opacity:0.5;" d="M 156.917969 10 L 201.71875 10 L 168.613281 34.574219 Z M 156.917969 10 "/>
<path style=" stroke:none;fill-rule:nonzero;fill:rgb(56.0181%,69.1569%,19.4885%);fill-opacity:0.5;" d="M 168.613281 34.574219 L 192.742188 16.664062 L 198.53125 67.8125 L 170.984375 39.558594 Z M 168.613281 34.574219 "/>
<path style=" stroke:none;fill-rule:nonzero;fill:rgb(92.2526%,38.5626%,20.9179%);fill-opacity:0.5;" d="M 192.742188 16.664062 L 201.71875 10 L 210 10 L 210 79.574219 L 198.53125 67.8125 Z M 192.742188 16.664062 "/>
<path style=" stroke:none;fill-rule:nonzero;fill:rgb(52.8488%,47.0624%,70.1351%);fill-opacity:0.5;" d="M 170.984375 39.558594 L 210 79.574219 L 210 119.035156 L 208.382812 118.136719 Z M 170.984375 39.558594 "/>
<path style=" stroke:none;fill-rule:nonzero;fill:rgb(77.2079%,43.1554%,10.2387%);fill-opacity:0.5;" d="M 109.460938 63.296875 L 149.539062 85.515625 L 132.449219 134.046875 Z M 109.460938 63.296875 "/>
<path style=" stroke:none;fill-rule:nonzero;fill:rgb(36.3898%,61.8501%,78.2349%);fill-opacity:0.5;" d="M 132.449219 134.046875 L 149.539062 85.515625 L 169.878906 96.792969 L 135.9375 144.78125 Z M 132.449219 134.046875 "/>
<path style=" stroke:none;fill-rule:nonzero;fill:rgb(100%,75%,0%);fill-opacity:0.5;" d="M 135.9375 144.78125 L 169.878906 96.792969 L 176.859375 100.664062 L 145.09375 172.957031 Z M 135.9375 144.78125 "/>
<path style=" stroke:none;fill-rule:nonzero;fill:rgb(64.7624%,37.816%,61.4037%);fill-opacity:0.5;" d="M 145.09375 172.957031 L 164.710938 128.308594 L 181.628906 147.445312 L 148.453125 183.304688 Z M 145.09375 172.957031 "/>
<path style=" stroke:none;fill-rule:nonzero;fill:rgb(57.1589%,58.6483%,0%);fill-opacity:0.5;" d="M 148.453125 183.304688 L 181.628906 147.445312 L 195.101562 162.6875 L 151.652344 193.148438 Z M 148.453125 183.304688 "/>
<path style=" stroke:none;fill-rule:nonzero;fill:rgb(91.5%,33.25%,21.25%);fill-opacity:0.5;" d="M 151.652344 193.148438 L 195.101562 162.6875 L 202.726562 171.3125 L 163.210938 210 L 157.128906 210 Z M 151.652344 193.148438 "/>
<path style=" stroke:none;fill-rule:nonzero;fill:rgb(40.082223%,52.200666%,85%);fill-opacity:0.5;" d="M 163.210938 210 L 202.726562 171.3125 L 210 179.542969 L 210 210 Z M 163.210938 210 "/>
<path style=" stroke:none;fill-rule:nonzero;fill:rgb(97.282889%,62.164445%,7.3362%);fill-opacity:0.5;" d="M 164.710938 128.308594 L 176.859375 100.664062 L 210 119.035156 L 210 127.972656 L 165.269531 128.933594 Z M 164.710938 128.308594 "/>
<path style=" stroke:none;fill-rule:nonzero;fill:rgb(73.678267%,35.8%,50.302666%);fill-opacity:0.5;" d="M 165.269531 128.933594 L 210 127.972656 L 210 179.542969 Z M 165.269531 128.933594 "/>
<path style="fill:none;stroke-width:0.5;stroke-linecap:butt;stroke-linejoin:miter;stroke:rgb(0%,0%,0%);stroke-opacity:1;stroke-miterlimit:10;" d="M 0 0 L 16.453125 0 M 0 43.882812 L 0 0 M 0 43.882812 L 0.132812 43.820312 M 0 108.484375 L 0 43.882812 M 0 108.484375 L 42.660156 122.492188 M 0 110.085938 L 0 108.484375 M 0 110.085938 L 30.734375 161.113281 M 0 190.351562 L 0 110.085938 M 0 190.351562 L 16.96875 174.207031 M 0 200 L 0 190.351562 M 0.132812 43.820312 L 19.738281 79.136719 M 0.132812 43.820312 L 23.480469 32.84375 M 12.070312 112.445312 L 0 108.484375 M 12.070312 112.445312 L 26.808594 48.414062 M 16.453125 0 L 23.480469 32.84375 M 16.453125 0 L 71.246094 0 M 16.96875 174.207031 L 48.082031 144.609375 M 16.96875 174.207031 L 79.386719 198.828125 M 19.738281 79.136719 L 0.132812 43.820312 M 19.738281 79.136719 L 12.070312 112.445312 M 23.480469 32.84375 L 0 43.882812 M 23.480469 32.84375 L 26.808594 48.414062 M 24.953125 39.726562 L 16.453125 0 M 24.953125 39.726562 L 52.636719 15.972656 M 26.808594 48.414062 L 19.738281 79.136719 M 26.808594 48.414062 L 42.660156 122.492188 M 30.734375 161.113281 L 0 110.085938 M 30.734375 161.113281 L 0 190.351562 M 31.558594 70.613281 L 24.953125 39.726562 M 31.558594 70.613281 L 38.671875 64.519531 M 37.589844 98.796875 L 31.558594 70.613281 M 37.589844 98.796875 L 66.789062 126.8125 M 38.671875 64.519531 L 78.964844 115.230469 M 38.671875 64.519531 L 89.074219 21.324219 M 39.230469 65.222656 L 38.671875 64.519531 M 39.230469 65.222656 L 105.679688 72.433594 M 39.238281 65.234375 L 39.230469 65.222656 M 39.238281 65.234375 L 99.441406 95.75 M 42.660156 122.492188 L 12.070312 112.445312 M 42.660156 122.492188 L 47.507812 145.15625 M 47.507812 145.15625 L 30.734375 161.113281 M 47.507812 145.15625 L 37.589844 98.796875 M 48.082031 144.609375 L 75.304688 118.710938 M 48.082031 144.609375 L 79.386719 198.828125 M 52.636719 15.972656 L 54.644531 50.832031 M 52.636719 15.972656 L 71.246094 0 M 54.644531 50.832031 L 31.558594 70.613281 M 54.644531 50.832031 L 52.636719 15.972656 M 66.789062 126.8125 L 37.589844 98.796875 M 66.789062 126.8125 L 47.507812 145.15625 M 67.144531 177.621094 L 48.082031 144.609375 M 67.144531 177.621094 L 75.75 159.839844 M 70.453125 68.609375 L 39.230469 65.222656 M 70.453125 68.609375 L 93.9375 36.300781 M 71.246094 0 L 24.953125 39.726562 M 71.246094 0 L 82.144531 0 M 71.523438 185.207031 L 67.144531 177.621094 M 71.523438 185.207031 L 140.441406 179.417969 M 75.304688 118.710938 L 85.285156 140.132812 M 75.304688 118.710938 L 109.992188 85.710938 M 75.75 159.839844 L 81.8125 147.3125 M 75.75 159.839844 L 94.628906 183.265625 M 78.964844 115.230469 L 39.238281 65.234375 M 78.964844 115.230469 L 66.789062 126.8125 M 79.386719 198.828125 L 16.96875 174.207031 M 79.386719 198.828125 L 80.066406 200 M 80.066406 200 L 0 200 M 80.066406 200 L 71.523438 185.207031 M 81.8125 147.3125 L 90.332031 129.703125 M 81.8125 147.3125 L 138.730469 179.5625 M 82.144531 0 L 89.074219 21.324219 M 82.144531 0 L 110.539062 0 M 85.285156 140.132812 L 67.144531 177.621094 M 85.285156 140.132812 L 75.304688 118.710938 M 89.074219 21.324219 L 54.644531 50.832031 M 89.074219 21.324219 L 93.9375 36.300781 M 90.332031 129.703125 L 110.644531 87.71875 M 90.332031 129.703125 L 136.15625 166.238281 M 93.9375 36.300781 L 70.453125 68.609375 M 93.9375 36.300781 L 105.679688 72.433594 M 94.628906 183.265625 L 71.523438 185.207031 M 94.628906 183.265625 L 75.75 159.839844 M 99.441406 95.75 L 39.238281 65.234375 M 99.441406 95.75 L 78.964844 115.230469 M 99.460938 53.296875 L 82.144531 0 M 99.460938 53.296875 L 139.539062 75.515625 M 103.84375 55.726562 L 99.460938 53.296875 M 103.84375 55.726562 L 140.402344 45.125 M 105.679688 72.433594 L 70.453125 68.609375 M 105.679688 72.433594 L 109.992188 85.710938 M 109.992188 85.710938 L 99.441406 95.75 M 109.992188 85.710938 L 110.644531 87.71875 M 110.539062 0 L 116.109375 52.171875 M 110.539062 0 L 146.917969 0 M 110.644531 87.71875 L 85.285156 140.132812 M 110.644531 87.71875 L 136.15625 166.238281 M 112.441406 17.820312 L 110.539062 0 M 112.441406 17.820312 L 127.023438 15.863281 M 116.109375 52.171875 L 103.84375 55.726562 M 116.109375 52.171875 L 112.441406 17.820312 M 122.449219 124.046875 L 99.460938 53.296875 M 122.449219 124.046875 L 139.539062 75.515625 M 125.9375 134.78125 L 122.449219 124.046875 M 125.9375 134.78125 L 159.878906 86.792969 M 127.023438 15.863281 L 134.128906 46.945312 M 127.023438 15.863281 L 152.820312 12.398438 M 134.128906 46.945312 L 116.109375 52.171875 M 134.128906 46.945312 L 127.023438 15.863281 M 135.09375 162.957031 L 125.9375 134.78125 M 135.09375 162.957031 L 154.710938 118.308594 M 136.15625 166.238281 L 90.332031 129.703125 M 136.15625 166.238281 L 140.441406 179.417969 M 138.453125 173.304688 L 135.09375 162.957031 M 138.453125 173.304688 L 171.628906 137.445312 M 138.730469 179.5625 L 81.8125 147.3125 M 138.730469 179.5625 L 94.628906 183.265625 M 139.539062 75.515625 L 122.449219 124.046875 M 139.539062 75.515625 L 159.878906 86.792969 M 140.402344 45.125 L 144.375 43.972656 M 140.402344 45.125 L 152.492188 82.695312 M 140.441406 179.417969 L 138.730469 179.5625 M 140.441406 179.417969 L 147.128906 200 M 141.652344 183.148438 L 138.453125 173.304688 M 141.652344 183.148438 L 185.101562 152.6875 M 144.375 43.972656 L 165 37.992188 M 144.375 43.972656 L 183.242188 99.746094 M 146.917969 0 L 152.820312 12.398438 M 146.917969 0 L 191.71875 0 M 147.128906 200 L 80.066406 200 M 147.128906 200 L 141.652344 183.148438 M 152.492188 82.695312 L 103.84375 55.726562 M 152.492188 82.695312 L 140.402344 45.125 M 152.820312 12.398438 L 112.441406 17.820312 M 152.820312 12.398438 L 165 37.992188 M 153.210938 200 L 147.128906 200 M 153.210938 200 L 192.726562 161.3125 M 154.710938 118.308594 L 166.859375 90.664062 M 154.710938 118.308594 L 171.628906 137.445312 M 155.269531 118.933594 L 154.710938 118.308594 M 155.269531 118.933594 L 200 117.972656 M 158.613281 24.574219 L 146.917969 0 M 158.613281 24.574219 L 182.742188 6.664062 M 159.878906 86.792969 L 125.9375 134.78125 M 159.878906 86.792969 L 166.859375 90.664062 M 160.984375 29.558594 L 158.613281 24.574219 M 160.984375 29.558594 L 200 69.574219 M 165 37.992188 L 134.128906 46.945312 M 165 37.992188 L 198.382812 108.136719 M 166.859375 90.664062 L 135.09375 162.957031 M 166.859375 90.664062 L 200 109.035156 M 171.628906 137.445312 L 138.453125 173.304688 M 171.628906 137.445312 L 185.101562 152.6875 M 182.742188 6.664062 L 188.53125 57.8125 M 182.742188 6.664062 L 191.71875 0 M 183.242188 99.746094 L 144.375 43.972656 M 183.242188 99.746094 L 152.492188 82.695312 M 185.101562 152.6875 L 141.652344 183.148438 M 185.101562 152.6875 L 192.726562 161.3125 M 188.53125 57.8125 L 160.984375 29.558594 M 188.53125 57.8125 L 182.742188 6.664062 M 191.71875 0 L 158.613281 24.574219 M 191.71875 0 L 200 0 M 192.726562 161.3125 L 153.210938 200 M 192.726562 161.3125 L 200 169.542969 M 198.382812 108.136719 L 160.984375 29.558594 M 198.382812 108.136719 L 183.242188 99.746094 M 200 69.574219 L 188.53125 57.8125 M 200 69.574219 L 200 109.035156 M 200 0 L 200 69.574219 M 200 109.035156 L 198.382812 108.136719 M 200 109.035156 L 200 117.972656 M 200 169.542969 L 155.269531 118.933594 M 200 169.542969 L 200 200 M 200 200 L 153.210938 200 M 200 117.972656 L 155.269531 118.933594 M 200 117.972656 L 200 169.542969 " transform="matrix(1,0,0,1,10,10)"/>
</g>
</svg>
