<?xml version="1.0" encoding="UTF-8"?>
<svg xmlns="http://www.w3.org/2000/svg" xmlns:xlink="http://www.w3.org/1999/xlink" width="220pt" height="220pt" viewBox="0 0 220 220" version="1.1">
<g id="id1">
<path style=" stroke:none;fill-rule:nonzero;fill:rgb(36.8417%,50.6779%,70.9798%);fill-opacity:0.5;" d="M 10 10 L 26.453125 10 L 33.480469 42.84375 L 10 53.882812 Z M 10 10 "/>
<path style=" stroke:none;fill-rule:nonzero;fill:rgb(88.0722%,61.1041%,14.2051%);fill-opacity:0.5;" d="M 10 53.882812 L 10.132812 53.820312 L 29.738281 89.136719 L 22.070312 122.445312 L 10 118.484375 Z M 10 53.882812 "/>
<path style=" stroke:none;fill-rule:nonzero;fill:rgb(56.0181%,69.1569%,19.4885%);fill-opacity:0.5;" d="M 10.132812 53.820312 L 33.480469 42.84375 L 36.808594 58.414062 L 29.738281 89.136719 Z M 10.132812 53.820312 "/>
<path style=" stroke:none;fill-rule:nonzero;fill:rgb(92.2526%,38.5626%,20.9179%);fill-opacity:0.5;" d="M 22.070312 122.445312 L 36.808594 58.414062 L 52.660156 132.492188 Z M 22.070312 122.445312 "/>
<path style=" stroke:none;fill-rule:nonzero;fill:rgb(52.8488%,47.0624%,70.1351%);fill-opacity:0.5;" d="M 10 118.484375 L 52.660156 132.492188 L 57.507812 155.15625 L 40.734375 171.113281 L 10 120.085938 Z M 10 118.484375 "/>
<path style=" stroke:none;fill-rule:nonzero;fill:rgb(77.2079%,43.1554%,10.2387%);fill-opacity:0.5;" d="M 10 120.085938 L 40.734375 171.113281 L 10 200.351562 Z M 10 120.085938 "/>
<path style=" stroke:none;fill-rule:nonzero;fill:rgb(36.3898%,61.8501%,78.2349%);fill-opacity:0.5;" d="M 26.453125 10 L 81.246094 10 L 34.953125 49.726562 Z M 26.453125 10 "/>
<path style=" stroke:none;fill-rule:nonzero;fill:rgb(100%,75%,0%);fill-opacity:0.5;" d="M 34.953125 49.726562 L 62.636719 25.972656 L 64.644531 60.832031 L 41.558594 80.613281 Z M 34.953125 49.726562 "/>
<path style=" stroke:none;fill-rule:nonzero;fill:rgb(64.7624%,37.816%,61.4037%);fill-opacity:0.5;" d="M 62.636719 25.972656 L 81.246094 10 L 92.144531 10 L 99.074219 31.324219 L 64.644531 60.832031 Z M 62.636719 25.972656 "/>
<path style=" stroke:none;fill-rule:nonzero;fill:rgb(57.1589%,58.6483%,0%);fill-opacity:0.5;" d="M 41.558594 80.613281 L 48.671875 74.519531 L 88.964844 125.230469 L 76.789062 136.8125 L 47.589844 108.796875 Z M 41.558594 80.613281 "/>
<path style=" stroke:none;fill-rule:nonzero;fill:rgb(91.5%,33.25%,21.25%);fill-opacity:0.5;" d="M 47.589844 108.796875 L 76.789062 136.8125 L 57.507812 155.15625 Z M 47.589844 108.796875 "/>
<path style=" stroke:none;fill-rule:nonzero;fill:rgb(40.082223%,52.200666%,85%);fill-opacity:0.5;" d="M 48.671875 74.519531 L 99.074219 31.324219 L 103.9375 46.300781 L 80.453125 78.609375 L 49.230469 75.222656 Z M 48.671875 74.519531 "/>
<path style=" stroke:none;fill-rule:nonzero;fill:rgb(97.282889%,62.164445%,7.3362%);fill-opacity:0.5;" d="M 80.453125 78.609375 L 103.9375 46.300781 L 115.679688 82.433594 Z M 80.453125 78.609375 "/>
<path style=" stroke:none;fill-rule:nonzero;fill:rgb(73.678267%,35.8%,50.302666%);fill-opacity:0.5;" d="M 49.230469 75.222656 L 115.679688 82.433594 L 119.992188 95.710938 L 109.441406 105.75 L 49.238281 75.234375 Z M 49.230469 75.222656 "/>
<path style=" stroke:none;fill-rule:nonzero;fill:rgb(28.026441%,71.5%,42.920893%);fill-opacity:0.5;" d="M 49.238281 75.234375 L 109.441406 105.75 L 88.964844 125.230469 Z M 49.238281 75.234375 "/>
<path style=" stroke:none;fill-rule:nonzero;fill:rgb(36.8417%,50.6779%,70.9798%);fill-opacity:0.5;" d="M 10 200.351562 L 26.96875 184.207031 L 89.386719 208.828125 L 90.066406 210 L 10 210 Z M 10 200.351562 "/>
<path style=" stroke:none;fill-rule:nonzero;fill:rgb(88.0722%,61.1041%,14.2051%);fill-opacity:0.5;" d="M 26.96875 184.207031 L 58.082031 154.609375 L 89.386719 208.828125 Z M 26.96875 184.207031 "/>
<path style=" stroke:none;fill-rule:nonzero;fill:rgb(56.0181%,69.1569%,19.4885%);fill-opacity:0.5;" d="M 58.082031 154.609375 L 85.304688 128.710938 L 95.285156 150.132812 L 77.144531 187.621094 Z M 58.082031 154.609375 "/>
<path style=" stroke:none;fill-rule:nonzero;fill:rgb(92.2526%,38.5626%,20.9179%);fill-opacity:0.5;" d="M 85.304688 128.710938 L 119.992188 95.710938 L 120.644531 97.71875 L 95.285156 150.132812 Z M 85.304688 128.710938 "/>
<path style=" stroke:none;fill-rule:nonzero;fill:rgb(52.8488%,47.0624%,70.1351%);fill-opacity:0.5;" d="M 77.144531 187.621094 L 85.75 169.839844 L 104.628906 193.265625 L 81.523438 195.207031 Z M 77.144531 187.621094 "/>
<path style=" stroke:none;fill-rule:nonzero;fill:rgb(77.2079%,43.1554%,10.2387%);fill-opacity:0.5;" d="M 85.75 169.839844 L 91.8125 157.3125 L 148.730469 189.5625 L 104.628906 193.265625 Z M 85.75 169.839844 "/>
<path style=" stroke:none;fill-rule:nonzero;fill:rgb(36.3898%,61.8501%,78.2349%);fill-opacity:0.5;" d="M 91.8125 157.3125 L 100.332031 139.703125 L 146.15625 176.238281 L 150.441406 189.417969 L 148.730469 189.5625 Z M 91.8125 157.3125 "/>
<path style=" stroke:none;fill-rule:nonzero;fill:rgb(100%,75%,0%);fill-opacity:0.5;" d="M 100.332031 139.703125 L 120.644531 97.71875 L 146.15625 176.238281 Z M 100.332031 139.703125 "/>
<path style=" stroke:none;fill-rule:nonzero;fill:rgb(64.7624%,37.816%,61.4037%);fill-opacity:0.5;" d="M 81.523438 195.207031 L 150.441406 189.417969 L 157.128906 210 L 90.066406 210 Z M 81.523438 195.207031 "/>
<path style=" stroke:none;fill-rule:nonzero;fill:rgb(57.1589%,58.6483%,0%);fill-opacity:0.5;" d="M 92.144531 10 L 111.957031 10 L 125.152344 37.726562 L 103.21875 44.089844 Z M 92.144531 10 "/>
<path style=" stroke:none;fill-rule:nonzero;fill:rgb(91.5%,33.25%,21.25%);fill-opacity:0.5;" d="M 103.21875 44.089844 L 125.152344 37.726562 L 147.308594 84.28125 L 109.460938 63.296875 Z M 103.21875 44.089844 "/>
<path style=" stroke:none;fill-rule:nonzero;fill:rgb(40.082223%,52.200666%,85%);fill-opacity:0.5;" d="M 111.957031 10 L 135.574219 10 L 153.8125 87.886719 L 147.308594 84.28125 Z M 111.957031 10 "/>
<path style=" stroke:none;fill-rule:nonzero;fill:rgb(97.282889%,62.164445%,7.3362%);fill-opacity:0.5;" d="M 135.574219 10 L 177.535156 10 L 141.789062 36.539062 Z M 135.574219 10 "/>
<path style=" stroke:none;fill-rule:nonzero;fill:rgb(73.678267%,35.8%,50.302666%);fill-opacity:0.5;" d="M 141.789062 36.539062 L 146.96875 32.691406 L 172.617188 46.082031 L 157.261719 89.796875 L 153.8125 87.886719 Z M 141.789062 36.539062 "/>
<path style=" stroke:none;fill-rule:nonzero;fill:rgb(28.026441%,71.5%,42.920893%);fill-opacity:0.5;" d="M 146.96875 32.691406 L 177.535156 10 L 185.292969 10 L 172.617188 46.082031 Z M 146.96875 32.691406 "/>
<path style=" stroke:none;fill-rule:nonzero;fill:rgb(36.8417%,50.6779%,70.9798%);fill-opacity:0.5;" d="M 157.261719 89.796875 L 185.292969 10 L 209.617188 10 L 160.359375 91.515625 Z M 157.261719 89.796875 "/>
<path style=" stroke:none;fill-rule:nonzero;fill:rgb(88.0722%,61.1041%,14.2051%);fill-opacity:0.5;" d="M 160.359375 91.515625 L 184.449219 51.652344 L 191.132812 55.125 L 197.902344 112.328125 Z M 160.359375 91.515625 "/>
<path style=" stroke:none;fill-rule:nonzero;fill:rgb(56.0181%,69.1569%,19.4885%);fill-opacity:0.5;" d="M 191.132812 55.125 L 210 64.929688 L 210 119.035156 L 197.902344 112.328125 Z M 191.132812 55.125 "/>
<path style=" stroke:none;fill-rule:nonzero;fill:rgb(92.2526%,38.5626%,20.9179%);fill-opacity:0.5;" d="M 184.449219 51.652344 L 209.617188 10 L 210 10 L 210 64.929688 Z M 184.449219 51.652344 "/>
<path style=" stroke:none;fill-rule:nonzero;fill:rgb(52.8488%,47.0624%,70.1351%);fill-opacity:0.5;" d="M 109.460938 63.296875 L 165.304688 94.253906 L 162.367188 102.59375 L 113.957031 77.132812 Z M 109.460938 63.296875 "/>
<path style=" stroke:none;fill-rule:nonzero;fill:rgb(77.2079%,43.1554%,10.2387%);fill-opacity:0.5;" d="M 113.957031 77.132812 L 127.339844 84.171875 L 144.5625 133.160156 L 133.269531 136.578125 Z M 113.957031 77.132812 "/>
<path style=" stroke:none;fill-rule:nonzero;fill:rgb(36.3898%,61.8501%,78.2349%);fill-opacity:0.5;" d="M 127.339844 84.171875 L 162.367188 102.59375 L 152.441406 130.773438 L 144.5625 133.160156 Z M 127.339844 84.171875 "/>
<path style=" stroke:none;fill-rule:nonzero;fill:rgb(100%,75%,0%);fill-opacity:0.5;" d="M 152.441406 130.773438 L 165.304688 94.253906 L 203.367188 115.359375 Z M 152.441406 130.773438 "/>
<path style=" stroke:none;fill-rule:nonzero;fill:rgb(64.7624%,37.816%,61.4037%);fill-opacity:0.5;" d="M 133.269531 136.578125 L 176.664062 123.441406 L 178.878906 133.039062 L 151.617188 155.273438 L 137.542969 149.722656 Z M 133.269531 136.578125 "/>
<path style=" stroke:none;fill-rule:nonzero;fill:rgb(57.1589%,58.6483%,0%);fill-opacity:0.5;" d="M 151.617188 155.273438 L 178.878906 133.039062 L 187.242188 169.320312 Z M 151.617188 155.273438 "/>
<path style=" stroke:none;fill-rule:nonzero;fill:rgb(91.5%,33.25%,21.25%);fill-opacity:0.5;" d="M 137.542969 149.722656 L 149.355469 154.382812 L 179.628906 210 L 157.128906 210 Z M 137.542969 149.722656 "/>
<path style=" stroke:none;fill-rule:nonzero;fill:rgb(40.082223%,52.200666%,85%);fill-opacity:0.5;" d="M 149.355469 154.382812 L 187.242188 169.320312 L 196.617188 210 L 179.628906 210 Z M 149.355469 154.382812 "/>
<path style=" stroke:none;fill-rule:nonzero;fill:rgb(97.282889%,62.164445%,7.3362%);fill-opacity:0.5;" d="M 176.664062 123.441406 L 181.957031 121.839844 L 207.851562 210 L 196.617188 210 Z M 176.664062 123.441406 "/>
<path style=" stroke:none;fill-rule:nonzero;fill:rgb(73.678267%,35.8%,50.302666%);fill-opacity:0.5;" d="M 181.957031 121.839844 L 186.386719 120.5 L 210 158.847656 L 210 210 L 207.851562 210 Z M 181.957031 121.839844 "/>
<path style=" stroke:none;fill-rule:nonzero;fill:rgb(28.026441%,71.5%,42.920893%);fill-opacity:0.5;" d="M 186.386719 120.5 L 203.367188 115.359375 L 210 119.035156 L 210 158.847656 Z M 186.386719 120.5 "/>
<path style="fill:none;stroke-width:0.5;stroke-linecap:butt;stroke-linejoin:miter;stroke:rgb(0%,0%,0%);stroke-opacity:1;stroke-miterlimit:10;" d="M 0 0 L 16.453125 0 M 0 43.882812 L 0 0 M 0 43.882812 L 0.132812 43.820312 M 0 108.484375 L 0 43.882812 M 0 108.484375 L 42.660156 122.492188 M 0 110.085938 L 0 108.484375 M 0 110.085938 L 30.734375 161.113281 M 0 190.351562 L 0 110.085938 M 0 190.351562 L 16.96875 174.207031 M 0 200 L 0 190.351562 M 0.132812 43.820312 L 19.738281 79.136719 M 0.132812 43.820312 L 23.480469 32.84375 M 12.070312 112.445312 L 0 108.484375 M 12.070312 112.445312 L 26.808594 48.414062 M 16.453125 0 L 23.480469 32.84375 M 16.453125 0 L 71.246094 0 M 16.96875 174.207031 L 48.082031 144.609375 M 16.96875 174.207031 L 79.386719 198.828125 M 19.738281 79.136719 L 0.132812 43.820312 M 19.738281 79.136719 L 12.070312 112.445312 M 23.480469 32.84375 L 0 43.882812 M 23.480469 32.84375 L 26.808594 48.414062 M 24.953125 39.726562 L 16.453125 0 M 24.953125 39.726562 L 52.636719 15.972656 M 26.808594 48.414062 L 19.738281 79.136719 M 26.808594 48.414062 L 42.660156 122.492188 M 30.734375 161.113281 L 0 110.085938 M 30.734375 161.113281 L 0 190.351562 M 31.558594 70.613281 L 24.953125 39.726562 M 31.558594 70.613281 L 38.671875 64.519531 M 37.589844 98.796875 L 31.558594 70.613281 M 37.589844 98.796875 L 66.789062 126.8125 M 38.671875 64.519531 L 78.964844 115.230469 M 38.671875 64.519531 L 89.074219 21.324219 M 39.230469 65.222656 L 38.671875 64.519531 M 39.230469 65.222656 L 105.679688 72.433594 M 39.238281 65.234375 L 39.230469 65.222656 M 39.238281 65.234375 L 99.441406 95.75 M 42.660156 122.492188 L 12.070312 112.445312 M 42.660156 122.492188 L 47.507812 145.15625 M 47.507812 145.15625 L 30.734375 161.113281 M 47.507812 145.15625 L 37.589844 98.796875 M 48.082031 144.609375 L 75.304688 118.710938 M 48.082031 144.609375 L 79.386719 198.828125 M 52.636719 15.972656 L 54.644531 50.832031 M 52.636719 15.972656 L 71.246094 0 M 54.644531 50.832031 L 31.558594 70.613281 M 54.644531 50.832031 L 52.636719 15.972656 M 66.789062 126.8125 L 37.589844 98.796875 M 66.789062 126.8125 L 47.507812 145.15625 M 67.144531 177.621094 L 48.082031 144.609375 M 67.144531 177.621094 L 75.75 159.839844 M 70.453125 68.609375 L 39.230469 65.222656 M 70.453125 68.609375 L 93.9375 36.300781 M 71.246094 0 L 24.953125 39.726562 M 71.246094 0 L 82.144531 0 M 71.523438 185.207031 L 67.144531 177.621094 M 71.523438 185.207031 L 140.441406 179.417969 M 75.304688 118.710938 L 85.285156 140.132812 M 75.304688 118.710938 L 109.992188 85.710938 M 75.75 159.839844 L 81.8125 147.3125 M 75.75 159.839844 L 94.628906 183.265625 M 78.964844 115.230469 L 39.238281 65.234375 M 78.964844 115.230469 L 66.789062 126.8125 M 79.386719 198.828125 L 16.96875 174.207031 M 79.386719 198.828125 L 80.066406 200 M 80.066406 200 L 0 200 M 80.066406 200 L 71.523438 185.207031 M 81.8125 147.3125 L 90.332031 129.703125 M 81.8125 147.3125 L 138.730469 179.5625 M 82.144531 0 L 89.074219 21.324219 M 82.144531 0 L 101.957031 0 M 85.285156 140.132812 L 67.144531 177.621094 M 85.285156 140.132812 L 75.304688 118.710938 M 89.074219 21.324219 L 54.644531 50.832031 M 89.074219 21.324219 L 93.9375 36.300781 M 90.332031 129.703125 L 110.644531 87.71875 M 90.332031 129.703125 L 136.15625 166.238281 M 93.21875 34.089844 L 82.144531 0 M 93.21875 34.089844 L 115.152344 27.726562 M 93.9375 36.300781 L 70.453125 68.609375 M 93.9375 36.300781 L 105.679688 72.433594 M 94.628906 183.265625 L 71.523438 185.207031 M 94.628906 183.265625 L 75.75 159.839844 M 99.441406 95.75 L 39.238281 65.234375 M 99.441406 95.75 L 78.964844 115.230469 M 99.460938 53.296875 L 93.21875 34.089844 M 99.460938 53.296875 L 155.304688 84.253906 M 101.957031 0 L 115.152344 27.726562 M 101.957031 0 L 125.574219 0 M 103.957031 67.132812 L 99.460938 53.296875 M 103.957031 67.132812 L 117.339844 74.171875 M 105.679688 72.433594 L 70.453125 68.609375 M 105.679688 72.433594 L 109.992188 85.710938 M 109.992188 85.710938 L 99.441406 95.75 M 109.992188 85.710938 L 110.644531 87.71875 M 110.644531 87.71875 L 85.285156 140.132812 M 110.644531 87.71875 L 136.15625 166.238281 M 115.152344 27.726562 L 93.21875 34.089844 M 115.152344 27.726562 L 137.308594 74.28125 M 117.339844 74.171875 L 134.5625 123.160156 M 117.339844 74.171875 L 152.367188 92.59375 M 123.269531 126.578125 L 103.957031 67.132812 M 123.269531 126.578125 L 166.664062 113.441406 M 125.574219 0 L 143.8125 77.886719 M 125.574219 0 L 167.535156 0 M 127.542969 139.722656 L 123.269531 126.578125 M 127.542969 139.722656 L 139.355469 144.382812 M 131.789062 26.539062 L 125.574219 0 M 131.789062 26.539062 L 136.96875 22.691406 M 134.5625 123.160156 L 117.339844 74.171875 M 134.5625 123.160156 L 123.269531 126.578125 M 136.15625 166.238281 L 90.332031 129.703125 M 136.15625 166.238281 L 140.441406 179.417969 M 136.96875 22.691406 L 162.617188 36.082031 M 136.96875 22.691406 L 167.535156 0 M 137.308594 74.28125 L 99.460938 53.296875 M 137.308594 74.28125 L 101.957031 0 M 138.730469 179.5625 L 81.8125 147.3125 M 138.730469 179.5625 L 94.628906 183.265625 M 139.355469 144.382812 L 169.628906 200 M 139.355469 144.382812 L 177.242188 159.320312 M 140.441406 179.417969 L 138.730469 179.5625 M 140.441406 179.417969 L 147.128906 200 M 141.617188 145.273438 L 127.542969 139.722656 M 141.617188 145.273438 L 168.878906 123.039062 M 142.441406 120.773438 L 134.5625 123.160156 M 142.441406 120.773438 L 155.304688 84.253906 M 143.8125 77.886719 L 131.789062 26.539062 M 143.8125 77.886719 L 137.308594 74.28125 M 147.128906 200 L 80.066406 200 M 147.128906 200 L 127.542969 139.722656 M 147.261719 79.796875 L 143.8125 77.886719 M 147.261719 79.796875 L 175.292969 0 M 150.359375 81.515625 L 147.261719 79.796875 M 150.359375 81.515625 L 174.449219 41.652344 M 152.367188 92.59375 L 103.957031 67.132812 M 152.367188 92.59375 L 142.441406 120.773438 M 155.304688 84.253906 L 152.367188 92.59375 M 155.304688 84.253906 L 193.367188 105.359375 M 162.617188 36.082031 L 136.96875 22.691406 M 162.617188 36.082031 L 147.261719 79.796875 M 166.664062 113.441406 L 168.878906 123.039062 M 166.664062 113.441406 L 171.957031 111.839844 M 167.535156 0 L 131.789062 26.539062 M 167.535156 0 L 175.292969 0 M 168.878906 123.039062 L 141.617188 145.273438 M 168.878906 123.039062 L 177.242188 159.320312 M 169.628906 200 L 139.355469 144.382812 M 169.628906 200 L 147.128906 200 M 171.957031 111.839844 L 176.386719 110.5 M 171.957031 111.839844 L 197.851562 200 M 174.449219 41.652344 L 181.132812 45.125 M 174.449219 41.652344 L 199.617188 0 M 175.292969 0 L 162.617188 36.082031 M 175.292969 0 L 199.617188 0 M 176.386719 110.5 L 193.367188 105.359375 M 176.386719 110.5 L 200 148.847656 M 177.242188 159.320312 L 141.617188 145.273438 M 177.242188 159.320312 L 186.617188 200 M 181.132812 45.125 L 187.902344 102.328125 M 181.132812 45.125 L 200 54.929688 M 186.617188 200 L 166.664062 113.441406 M 186.617188 200 L 169.628906 200 M 187.902344 102.328125 L 150.359375 81.515625 M 187.902344 102.328125 L 181.132812 45.125 M 193.367188 105.359375 L 142.441406 120.773438 M 193.367188 105.359375 L 200 109.035156 M 197.851562 200 L 171.957031 111.839844 M 197.851562 200 L 186.617188 200 M 199.617188 0 L 150.359375 81.515625 M 199.617188 0 L 200 0 M 200 148.847656 L 176.386719 110.5 M 200 148.847656 L 200 200 M 200 109.035156 L 187.902344 102.328125 M 200 109.035156 L 200 148.847656 M 200 0 L 200 54.929688 M 200 54.929688 L 174.449219 41.652344 M 200 54.929688 L 200 109.035156 M 200 200 L 197.851562 200 " transform="matrix(1,0,0,1,10,10)"/>
</g>
</svg>
