<?xml version="1.0" encoding="UTF-8"?>
<svg xmlns="http://www.w3.org/2000/svg" xmlns:xlink="http://www.w3.org/1999/xlink" width="500pt" height="360pt" viewBox="0 0 500 360" version="1.1">
<g id="id1">
<path style=" stroke:none;fill-rule:nonzero;fill:rgb(70.181167%,70.181167%,70.181167%);fill-opacity:1;" d="M 10 10 L 27.628906 10 L 39.035156 18.210938 L 20.144531 25.214844 Z M 10 10 "/>
<path style=" stroke:none;fill-rule:nonzero;fill:rgb(74.994869%,74.994869%,74.994869%);fill-opacity:1;" d="M 20.144531 25.214844 L 39.035156 18.210938 L 53.675781 28.753906 L 32.710938 44.066406 Z M 20.144531 25.214844 "/>
<path style=" stroke:none;fill-rule:nonzero;fill:rgb(77.772668%,77.772668%,77.772668%);fill-opacity:1;" d="M 32.710938 44.066406 L 53.675781 28.753906 L 54.542969 29.378906 L 60.179688 47.617188 L 38.453125 52.675781 Z M 32.710938 44.066406 "/>
<path style=" stroke:none;fill-rule:nonzero;fill:rgb(81.756942%,81.756942%,81.756942%);fill-opacity:1;" d="M 38.453125 52.675781 L 60.179688 47.617188 L 64.226562 60.726562 L 50.480469 70.71875 Z M 38.453125 52.675781 "/>
<path style=" stroke:none;fill-rule:nonzero;fill:rgb(66.206417%,66.206417%,66.206417%);fill-opacity:1;" d="M 50.480469 70.71875 L 64.226562 60.726562 L 81.855469 117.78125 Z M 50.480469 70.71875 "/>
<path style=" stroke:none;fill-rule:nonzero;fill:rgb(75.048159%,75.048159%,75.048159%);fill-opacity:1;" d="M 54.542969 29.378906 L 77.167969 45.664062 L 74.632812 78.214844 L 70.640625 81.484375 Z M 54.542969 29.378906 "/>
<path style=" stroke:none;fill-rule:nonzero;fill:rgb(80.340871%,80.340871%,80.340871%);fill-opacity:1;" d="M 74.632812 78.214844 L 77.167969 45.664062 L 96.957031 59.914062 Z M 74.632812 78.214844 "/>
<path style=" stroke:none;fill-rule:nonzero;fill:rgb(68.812158%,68.812158%,68.812158%);fill-opacity:1;" d="M 70.640625 81.484375 L 82.609375 71.675781 L 88.523438 101.480469 L 78.765625 107.785156 Z M 70.640625 81.484375 "/>
<path style=" stroke:none;fill-rule:nonzero;fill:rgb(69.933247%,69.933247%,69.933247%);fill-opacity:1;" d="M 82.609375 71.675781 L 96.957031 59.914062 L 97.125 60.03125 L 101.617188 93.015625 L 88.523438 101.480469 Z M 82.609375 71.675781 "/>
<path style=" stroke:none;fill-rule:nonzero;fill:rgb(84.741797%,84.741797%,84.741797%);fill-opacity:1;" d="M 78.765625 107.785156 L 101.617188 93.015625 L 104.007812 110.554688 L 81.257812 115.855469 Z M 78.765625 107.785156 "/>
<path style=" stroke:none;fill-rule:nonzero;fill:rgb(76.916669%,76.916669%,76.916669%);fill-opacity:1;" d="M 81.257812 115.855469 L 104.007812 110.554688 L 107.550781 136.574219 L 99.90625 144.855469 L 81.855469 117.78125 Z M 81.257812 115.855469 "/>
<path style=" stroke:none;fill-rule:nonzero;fill:rgb(60.129449%,60.129449%,60.129449%);fill-opacity:1;" d="M 97.125 60.03125 L 116.394531 73.90625 L 117.347656 93.464844 L 100.113281 81.96875 Z M 97.125 60.03125 "/>
<path style=" stroke:none;fill-rule:nonzero;fill:rgb(62.815361%,62.815361%,62.815361%);fill-opacity:1;" d="M 116.394531 73.90625 L 145.839844 95.105469 L 135.921875 105.851562 L 117.347656 93.464844 Z M 116.394531 73.90625 "/>
<path style=" stroke:none;fill-rule:nonzero;fill:rgb(70.901113%,70.901113%,70.901113%);fill-opacity:1;" d="M 100.113281 81.96875 L 135.921875 105.851562 L 133.734375 108.222656 L 103.15625 104.300781 Z M 100.113281 81.96875 "/>
<path style=" stroke:none;fill-rule:nonzero;fill:rgb(85.311814%,85.311814%,85.311814%);fill-opacity:1;" d="M 103.15625 104.300781 L 133.734375 108.222656 L 107.550781 136.574219 Z M 103.15625 104.300781 "/>
<path style=" stroke:none;fill-rule:nonzero;fill:rgb(72.848537%,72.848537%,72.848537%);fill-opacity:1;" d="M 27.628906 10 L 57.796875 10 L 62.960938 35.4375 Z M 27.628906 10 "/>
<path style=" stroke:none;fill-rule:nonzero;fill:rgb(60.662574%,60.662574%,60.662574%);fill-opacity:1;" d="M 57.796875 10 L 70.609375 10 L 72.714844 39.164062 L 63.65625 35.9375 L 62.960938 35.4375 Z M 57.796875 10 "/>
<path style=" stroke:none;fill-rule:nonzero;fill:rgb(85.842552%,85.842552%,85.842552%);fill-opacity:1;" d="M 70.609375 10 L 95 10 L 109.640625 31.960938 L 71.820312 26.746094 Z M 70.609375 10 "/>
<path style=" stroke:none;fill-rule:nonzero;fill:rgb(83.166901%,83.166901%,83.166901%);fill-opacity:1;" d="M 71.820312 26.746094 L 94.652344 29.894531 L 87.714844 44.507812 L 72.714844 39.164062 Z M 71.820312 26.746094 "/>
<path style=" stroke:none;fill-rule:nonzero;fill:rgb(72.432871%,72.432871%,72.432871%);fill-opacity:1;" d="M 87.714844 44.507812 L 94.652344 29.894531 L 109.640625 31.960938 L 127.4375 58.652344 Z M 87.714844 44.507812 "/>
<path style=" stroke:none;fill-rule:nonzero;fill:rgb(65.787303%,65.787303%,65.787303%);fill-opacity:1;" d="M 63.65625 35.9375 L 127.4375 58.652344 L 129.03125 61.046875 L 107.933594 67.816406 Z M 63.65625 35.9375 "/>
<path style=" stroke:none;fill-rule:nonzero;fill:rgb(71.114887%,71.114887%,71.114887%);fill-opacity:1;" d="M 107.933594 67.816406 L 129.03125 61.046875 L 149.265625 91.398438 L 145.839844 95.105469 Z M 107.933594 67.816406 "/>
<path style=" stroke:none;fill-rule:nonzero;fill:rgb(80.317771%,80.317771%,80.317771%);fill-opacity:1;" d="M 10 350 L 28.078125 322.886719 L 50.054688 338.753906 L 44.113281 350 Z M 10 350 "/>
<path style=" stroke:none;fill-rule:nonzero;fill:rgb(86.810286%,86.810286%,86.810286%);fill-opacity:1;" d="M 28.078125 322.886719 L 39.351562 305.976562 L 54.070312 331.152344 L 50.054688 338.753906 Z M 28.078125 322.886719 "/>
<path style=" stroke:none;fill-rule:nonzero;fill:rgb(69.221886%,69.221886%,69.221886%);fill-opacity:1;" d="M 39.351562 305.976562 L 53.683594 284.476562 L 73.839844 293.726562 L 72.230469 296.773438 L 40.714844 308.3125 Z M 39.351562 305.976562 "/>
<path style=" stroke:none;fill-rule:nonzero;fill:rgb(63.762718%,63.762718%,63.762718%);fill-opacity:1;" d="M 40.714844 308.3125 L 72.230469 296.773438 L 54.070312 331.152344 Z M 40.714844 308.3125 "/>
<path style=" stroke:none;fill-rule:nonzero;fill:rgb(68.002951%,68.002951%,68.002951%);fill-opacity:1;" d="M 44.113281 350 L 56.210938 327.101562 L 81.695312 338.40625 L 79.398438 350 Z M 44.113281 350 "/>
<path style=" stroke:none;fill-rule:nonzero;fill:rgb(75.242254%,75.242254%,75.242254%);fill-opacity:1;" d="M 56.210938 327.101562 L 67.269531 306.171875 L 74.4375 335.1875 Z M 56.210938 327.101562 "/>
<path style=" stroke:none;fill-rule:nonzero;fill:rgb(76.014291%,76.014291%,76.014291%);fill-opacity:1;" d="M 67.269531 306.171875 L 73.839844 293.726562 L 89.164062 300.757812 L 81.695312 338.40625 L 74.4375 335.1875 Z M 67.269531 306.171875 "/>
<path style=" stroke:none;fill-rule:nonzero;fill:rgb(75.313586%,75.313586%,75.313586%);fill-opacity:1;" d="M 79.398438 350 L 89.164062 300.757812 L 98.617188 305.097656 L 85.722656 350 Z M 79.398438 350 "/>
<path style=" stroke:none;fill-rule:nonzero;fill:rgb(72.467383%,72.467383%,72.467383%);fill-opacity:1;" d="M 85.722656 350 L 93.152344 324.132812 L 116.050781 318.425781 L 95 350 Z M 85.722656 350 "/>
<path style=" stroke:none;fill-rule:nonzero;fill:rgb(62.633482%,62.633482%,62.633482%);fill-opacity:1;" d="M 93.152344 324.132812 L 98.617188 305.097656 L 118.769531 314.347656 L 116.050781 318.425781 Z M 93.152344 324.132812 "/>
<path style=" stroke:none;fill-rule:nonzero;fill:rgb(60.969843%,60.969843%,60.969843%);fill-opacity:1;" d="M 53.683594 284.476562 L 68.347656 262.480469 L 83.871094 298.332031 Z M 53.683594 284.476562 "/>
<path style=" stroke:none;fill-rule:nonzero;fill:rgb(86.039059%,86.039059%,86.039059%);fill-opacity:1;" d="M 68.347656 262.480469 L 79.238281 246.144531 L 88.921875 273.175781 L 76.570312 281.46875 Z M 68.347656 262.480469 "/>
<path style=" stroke:none;fill-rule:nonzero;fill:rgb(71.633971%,71.633971%,71.633971%);fill-opacity:1;" d="M 76.570312 281.46875 L 88.921875 273.175781 L 100.703125 306.054688 L 83.871094 298.332031 Z M 76.570312 281.46875 "/>
<path style=" stroke:none;fill-rule:nonzero;fill:rgb(75.686776%,75.686776%,75.686776%);fill-opacity:1;" d="M 79.238281 246.144531 L 84.285156 238.574219 L 88.082031 241.777344 L 106.109375 285.355469 L 82.824219 256.164062 Z M 79.238281 246.144531 "/>
<path style=" stroke:none;fill-rule:nonzero;fill:rgb(62.361384%,62.361384%,62.361384%);fill-opacity:1;" d="M 82.824219 256.164062 L 106.109375 285.355469 L 109.726562 294.097656 L 105.542969 308.277344 L 100.703125 306.054688 Z M 82.824219 256.164062 "/>
<path style=" stroke:none;fill-rule:nonzero;fill:rgb(62.241297%,62.241297%,62.241297%);fill-opacity:1;" d="M 88.082031 241.777344 L 117.777344 266.808594 L 109.726562 294.097656 Z M 88.082031 241.777344 "/>
<path style=" stroke:none;fill-rule:nonzero;fill:rgb(61.835459%,61.835459%,61.835459%);fill-opacity:1;" d="M 84.285156 238.574219 L 85.246094 237.132812 L 86.320312 236.949219 L 123.871094 246.152344 L 117.777344 266.808594 Z M 84.285156 238.574219 "/>
<path style=" stroke:none;fill-rule:nonzero;fill:rgb(75.775928%,75.775928%,75.775928%);fill-opacity:1;" d="M 86.320312 236.949219 L 128.726562 229.703125 L 123.871094 246.152344 Z M 86.320312 236.949219 "/>
<path style=" stroke:none;fill-rule:nonzero;fill:rgb(83.39361%,83.39361%,83.39361%);fill-opacity:1;" d="M 105.542969 308.277344 L 107.566406 301.414062 L 142.882812 273.285156 L 146.242188 273.136719 L 118.769531 314.347656 Z M 105.542969 308.277344 "/>
<path style=" stroke:none;fill-rule:nonzero;fill:rgb(69.862649%,69.862649%,69.862649%);fill-opacity:1;" d="M 107.566406 301.414062 L 115.511719 274.492188 L 142.882812 273.285156 Z M 107.566406 301.414062 "/>
<path style=" stroke:none;fill-rule:nonzero;fill:rgb(66.110316%,66.110316%,66.110316%);fill-opacity:1;" d="M 115.511719 274.492188 L 122 252.496094 L 141.703125 273.335938 Z M 115.511719 274.492188 "/>
<path style=" stroke:none;fill-rule:nonzero;fill:rgb(85.311611%,85.311611%,85.311611%);fill-opacity:1;" d="M 122 252.496094 L 128.726562 229.703125 L 136.070312 228.449219 L 146.890625 272.167969 L 146.242188 273.136719 L 141.703125 273.335938 Z M 122 252.496094 "/>
<path style=" stroke:none;fill-rule:nonzero;fill:rgb(80.801412%,80.801412%,80.801412%);fill-opacity:1;" d="M 136.070312 228.449219 L 137.375 228.226562 L 164.484375 245.777344 L 146.890625 272.167969 Z M 136.070312 228.449219 "/>
<path style=" stroke:none;fill-rule:nonzero;fill:rgb(81.242868%,81.242868%,81.242868%);fill-opacity:1;" d="M 137.375 228.226562 L 163.371094 223.785156 L 169.292969 238.5625 L 164.484375 245.777344 Z M 137.375 228.226562 "/>
<path style=" stroke:none;fill-rule:nonzero;fill:rgb(72.445394%,72.445394%,72.445394%);fill-opacity:1;" d="M 85.246094 237.132812 L 116.566406 190.152344 L 103.617188 233.992188 Z M 85.246094 237.132812 "/>
<path style=" stroke:none;fill-rule:nonzero;fill:rgb(63.103289%,63.103289%,63.103289%);fill-opacity:1;" d="M 103.617188 233.992188 L 112.28125 204.65625 L 127.886719 216.15625 L 124.984375 230.34375 Z M 103.617188 233.992188 "/>
<path style=" stroke:none;fill-rule:nonzero;fill:rgb(73.247576%,73.247576%,73.247576%);fill-opacity:1;" d="M 112.28125 204.65625 L 116.566406 190.152344 L 122.511719 181.234375 L 133.402344 189.210938 L 127.886719 216.15625 Z M 112.28125 204.65625 "/>
<path style=" stroke:none;fill-rule:nonzero;fill:rgb(85.042877%,85.042877%,85.042877%);fill-opacity:1;" d="M 99.90625 144.855469 L 122.105469 120.8125 L 124.308594 126.3125 L 110.546875 160.820312 Z M 99.90625 144.855469 "/>
<path style=" stroke:none;fill-rule:nonzero;fill:rgb(87.562278%,87.562278%,87.562278%);fill-opacity:1;" d="M 110.546875 160.820312 L 121.046875 134.488281 L 135.164062 180.59375 L 133.402344 189.210938 L 122.511719 181.234375 L 123.335938 180 Z M 110.546875 160.820312 "/>
<path style=" stroke:none;fill-rule:nonzero;fill:rgb(76.182847%,76.182847%,76.182847%);fill-opacity:1;" d="M 121.046875 134.488281 L 124.308594 126.3125 L 138.847656 162.597656 L 135.164062 180.59375 Z M 121.046875 134.488281 "/>
<path style=" stroke:none;fill-rule:nonzero;fill:rgb(86.361712%,86.361712%,86.361712%);fill-opacity:1;" d="M 124.984375 230.34375 L 129.933594 206.15625 L 154.707031 225.265625 Z M 124.984375 230.34375 "/>
<path style=" stroke:none;fill-rule:nonzero;fill:rgb(89.663824%,89.663824%,89.663824%);fill-opacity:1;" d="M 129.933594 206.15625 L 138.847656 162.597656 L 154.234375 200.988281 L 136.675781 211.359375 Z M 129.933594 206.15625 "/>
<path style=" stroke:none;fill-rule:nonzero;fill:rgb(68.3503%,68.3503%,68.3503%);fill-opacity:1;" d="M 136.675781 211.359375 L 154.234375 200.988281 L 163.371094 223.785156 L 154.707031 225.265625 Z M 136.675781 211.359375 "/>
<path style=" stroke:none;fill-rule:nonzero;fill:rgb(68.01855%,68.01855%,68.01855%);fill-opacity:1;" d="M 122.105469 120.8125 L 123.894531 118.878906 L 178.34375 135.011719 L 184.769531 144.652344 L 125.953125 130.414062 Z M 122.105469 120.8125 "/>
<path style=" stroke:none;fill-rule:nonzero;fill:rgb(64.219907%,64.219907%,64.219907%);fill-opacity:1;" d="M 123.894531 118.878906 L 141.5 99.808594 L 151.105469 126.941406 Z M 123.894531 118.878906 "/>
<path style=" stroke:none;fill-rule:nonzero;fill:rgb(76.232813%,76.232813%,76.232813%);fill-opacity:1;" d="M 141.5 99.808594 L 149.265625 91.398438 L 178.34375 135.011719 L 151.105469 126.941406 Z M 141.5 99.808594 "/>
<path style=" stroke:none;fill-rule:nonzero;fill:rgb(87.758436%,87.758436%,87.758436%);fill-opacity:1;" d="M 125.953125 130.414062 L 126.433594 130.53125 L 158.457031 151.851562 L 158.792969 165.773438 L 140.710938 167.246094 Z M 125.953125 130.414062 "/>
<path style=" stroke:none;fill-rule:nonzero;fill:rgb(64.585866%,64.585866%,64.585866%);fill-opacity:1;" d="M 126.433594 130.53125 L 158.128906 138.203125 L 158.457031 151.851562 Z M 126.433594 130.53125 "/>
<path style=" stroke:none;fill-rule:nonzero;fill:rgb(84.859653%,84.859653%,84.859653%);fill-opacity:1;" d="M 158.128906 138.203125 L 178.929688 143.238281 L 158.671875 160.859375 Z M 158.128906 138.203125 "/>
<path style=" stroke:none;fill-rule:nonzero;fill:rgb(62.679158%,62.679158%,62.679158%);fill-opacity:1;" d="M 158.671875 160.859375 L 178.929688 143.238281 L 184.769531 144.652344 L 196.789062 162.683594 L 158.792969 165.773438 Z M 158.671875 160.859375 "/>
<path style=" stroke:none;fill-rule:nonzero;fill:rgb(60.814335%,60.814335%,60.814335%);fill-opacity:1;" d="M 140.710938 167.246094 L 155.164062 166.070312 L 164.71875 177.050781 L 147.628906 184.503906 Z M 140.710938 167.246094 "/>
<path style=" stroke:none;fill-rule:nonzero;fill:rgb(87.785777%,87.785777%,87.785777%);fill-opacity:1;" d="M 147.628906 184.503906 L 164.71875 177.050781 L 174.460938 188.242188 L 157.769531 209.808594 Z M 147.628906 184.503906 "/>
<path style=" stroke:none;fill-rule:nonzero;fill:rgb(86.045376%,86.045376%,86.045376%);fill-opacity:1;" d="M 157.769531 209.808594 L 164.246094 201.441406 L 187.765625 210.855469 L 169.292969 238.5625 Z M 157.769531 209.808594 "/>
<path style=" stroke:none;fill-rule:nonzero;fill:rgb(87.304814%,87.304814%,87.304814%);fill-opacity:1;" d="M 164.246094 201.441406 L 174.460938 188.242188 L 190.53125 206.707031 L 187.765625 210.855469 Z M 164.246094 201.441406 "/>
<path style=" stroke:none;fill-rule:nonzero;fill:rgb(87.46744%,87.46744%,87.46744%);fill-opacity:1;" d="M 155.164062 166.070312 L 187.953125 163.402344 L 180.519531 182.015625 L 171.652344 185.015625 Z M 155.164062 166.070312 "/>
<path style=" stroke:none;fill-rule:nonzero;fill:rgb(69.359266%,69.359266%,69.359266%);fill-opacity:1;" d="M 180.519531 182.015625 L 187.953125 163.402344 L 196.789062 162.683594 L 204.304688 173.957031 Z M 180.519531 182.015625 "/>
<path style=" stroke:none;fill-rule:nonzero;fill:rgb(86.376892%,86.376892%,86.376892%);fill-opacity:1;" d="M 171.652344 185.015625 L 204.304688 173.957031 L 208.335938 180 L 190.53125 206.707031 Z M 171.652344 185.015625 "/>
<path style=" stroke:none;fill-rule:nonzero;fill:rgb(61.2474%,61.2474%,61.2474%);fill-opacity:1;" d="M 123.335938 10 L 164.894531 10 L 165.414062 11.457031 L 133.570312 25.355469 Z M 123.335938 10 "/>
<path style=" stroke:none;fill-rule:nonzero;fill:rgb(61.319242%,61.319242%,61.319242%);fill-opacity:1;" d="M 133.570312 25.355469 L 165.414062 11.457031 L 167.753906 17.972656 L 144.988281 42.480469 Z M 133.570312 25.355469 "/>
<path style=" stroke:none;fill-rule:nonzero;fill:rgb(85.346341%,85.346341%,85.346341%);fill-opacity:1;" d="M 144.988281 42.480469 L 157.292969 29.230469 L 165.160156 67.277344 L 162.71875 69.074219 Z M 144.988281 42.480469 "/>
<path style=" stroke:none;fill-rule:nonzero;fill:rgb(61.91092%,61.91092%,61.91092%);fill-opacity:1;" d="M 157.292969 29.230469 L 167.753906 17.972656 L 181.191406 55.460938 L 165.160156 67.277344 Z M 157.292969 29.230469 "/>
<path style=" stroke:none;fill-rule:nonzero;fill:rgb(62.000845%,62.000845%,62.000845%);fill-opacity:1;" d="M 162.71875 69.074219 L 181.191406 55.460938 L 187.046875 71.785156 L 177.671875 91.503906 Z M 162.71875 69.074219 "/>
<path style=" stroke:none;fill-rule:nonzero;fill:rgb(89.234479%,89.234479%,89.234479%);fill-opacity:1;" d="M 164.894531 10 L 208.335938 10 L 208.390625 10.085938 L 174.335938 36.339844 Z M 164.894531 10 "/>
<path style=" stroke:none;fill-rule:nonzero;fill:rgb(76.065323%,76.065323%,76.065323%);fill-opacity:1;" d="M 174.335938 36.339844 L 175.015625 35.816406 L 205.269531 33.457031 L 187.046875 71.785156 Z M 174.335938 36.339844 "/>
<path style=" stroke:none;fill-rule:nonzero;fill:rgb(66.024241%,66.024241%,66.024241%);fill-opacity:1;" d="M 175.015625 35.816406 L 208.390625 10.085938 L 213.054688 17.078125 L 205.269531 33.457031 Z M 175.015625 35.816406 "/>
<path style=" stroke:none;fill-rule:nonzero;fill:rgb(71.347344%,71.347344%,71.347344%);fill-opacity:1;" d="M 177.671875 91.503906 L 183.753906 78.707031 L 207.675781 84.4375 L 193.539062 115.308594 Z M 177.671875 91.503906 "/>
<path style=" stroke:none;fill-rule:nonzero;fill:rgb(60.774053%,60.774053%,60.774053%);fill-opacity:1;" d="M 183.753906 78.707031 L 203.324219 37.550781 L 206.816406 45.421875 L 194.429688 81.265625 Z M 183.753906 78.707031 "/>
<path style=" stroke:none;fill-rule:nonzero;fill:rgb(75.475393%,75.475393%,75.475393%);fill-opacity:1;" d="M 194.429688 81.265625 L 206.816406 45.421875 L 216.035156 66.179688 L 207.675781 84.4375 Z M 194.429688 81.265625 "/>
<path style=" stroke:none;fill-rule:nonzero;fill:rgb(64.975818%,64.975818%,64.975818%);fill-opacity:1;" d="M 193.539062 115.308594 L 194.261719 113.730469 L 198.117188 111.507812 L 218.117188 126.152344 L 212.109375 143.15625 Z M 193.539062 115.308594 "/>
<path style=" stroke:none;fill-rule:nonzero;fill:rgb(72.243067%,72.243067%,72.243067%);fill-opacity:1;" d="M 198.117188 111.507812 L 228.40625 94.039062 L 228.992188 95.363281 L 218.117188 126.152344 Z M 198.117188 111.507812 "/>
<path style=" stroke:none;fill-rule:nonzero;fill:rgb(89.852708%,89.852708%,89.852708%);fill-opacity:1;" d="M 194.261719 113.730469 L 216.035156 66.179688 L 228.40625 94.039062 Z M 194.261719 113.730469 "/>
<path style=" stroke:none;fill-rule:nonzero;fill:rgb(69.08769%,69.08769%,69.08769%);fill-opacity:1;" d="M 212.109375 143.15625 L 228.9375 95.523438 L 230.636719 149.925781 L 217.148438 150.722656 Z M 212.109375 143.15625 "/>
<path style=" stroke:none;fill-rule:nonzero;fill:rgb(86.489227%,86.489227%,86.489227%);fill-opacity:1;" d="M 228.9375 95.523438 L 228.992188 95.363281 L 252.644531 148.625 L 230.636719 149.925781 Z M 228.9375 95.523438 "/>
<path style=" stroke:none;fill-rule:nonzero;fill:rgb(63.881296%,63.881296%,63.881296%);fill-opacity:1;" d="M 203.324219 37.550781 L 213.054688 17.078125 L 228.734375 40.601562 L 211.664062 56.335938 Z M 203.324219 37.550781 "/>
<path style=" stroke:none;fill-rule:nonzero;fill:rgb(87.846776%,87.846776%,87.846776%);fill-opacity:1;" d="M 211.664062 56.335938 L 228.734375 40.601562 L 232.605469 46.410156 L 218.640625 72.050781 Z M 211.664062 56.335938 "/>
<path style=" stroke:none;fill-rule:nonzero;fill:rgb(86.282724%,86.282724%,86.282724%);fill-opacity:1;" d="M 218.640625 72.050781 L 232.605469 46.410156 L 245.777344 66.164062 L 220.824219 76.96875 Z M 218.640625 72.050781 "/>
<path style=" stroke:none;fill-rule:nonzero;fill:rgb(86.827486%,86.827486%,86.827486%);fill-opacity:1;" d="M 220.824219 76.96875 L 245.777344 66.164062 L 247.425781 68.636719 L 227.824219 92.734375 Z M 220.824219 76.96875 "/>
<path style=" stroke:none;fill-rule:nonzero;fill:rgb(63.549947%,63.549947%,63.549947%);fill-opacity:1;" d="M 227.824219 92.734375 L 247.425781 68.636719 L 248.207031 69.804688 L 239.8125 119.726562 Z M 227.824219 92.734375 "/>
<path style=" stroke:none;fill-rule:nonzero;fill:rgb(80.094024%,80.094024%,80.094024%);fill-opacity:1;" d="M 239.8125 119.726562 L 245.042969 88.625 L 260.652344 121.640625 L 242.996094 126.898438 Z M 239.8125 119.726562 "/>
<path style=" stroke:none;fill-rule:nonzero;fill:rgb(61.913986%,61.913986%,61.913986%);fill-opacity:1;" d="M 245.042969 88.625 L 248.207031 69.804688 L 270.351562 103.027344 L 252.496094 104.390625 Z M 245.042969 88.625 "/>
<path style=" stroke:none;fill-rule:nonzero;fill:rgb(87.598664%,87.598664%,87.598664%);fill-opacity:1;" d="M 252.496094 104.390625 L 270.351562 103.027344 L 279.097656 116.148438 L 260.652344 121.640625 Z M 252.496094 104.390625 "/>
<path style=" stroke:none;fill-rule:nonzero;fill:rgb(70.743301%,70.743301%,70.743301%);fill-opacity:1;" d="M 242.996094 126.898438 L 250.175781 124.761719 L 284.816406 146.722656 L 252.644531 148.625 Z M 242.996094 126.898438 "/>
<path style=" stroke:none;fill-rule:nonzero;fill:rgb(88.591666%,88.591666%,88.591666%);fill-opacity:1;" d="M 250.175781 124.761719 L 279.097656 116.148438 L 287.019531 128.027344 L 251.105469 125.347656 Z M 250.175781 124.761719 "/>
<path style=" stroke:none;fill-rule:nonzero;fill:rgb(62.85885%,62.85885%,62.85885%);fill-opacity:1;" d="M 251.105469 125.347656 L 287.019531 128.027344 L 298.925781 145.886719 L 284.816406 146.722656 Z M 251.105469 125.347656 "/>
<path style=" stroke:none;fill-rule:nonzero;fill:rgb(87.989217%,87.989217%,87.989217%);fill-opacity:1;" d="M 217.148438 150.722656 L 223.980469 150.316406 L 247.597656 162.914062 L 230.304688 170.453125 Z M 217.148438 150.722656 "/>
<path style=" stroke:none;fill-rule:nonzero;fill:rgb(79.286067%,79.286067%,79.286067%);fill-opacity:1;" d="M 230.207031 189.691406 L 236.667969 180 L 230.304688 170.453125 L 235.804688 168.058594 L 249.957031 190.71875 L 238.707031 202.519531 Z M 230.207031 189.691406 "/>
<path style=" stroke:none;fill-rule:nonzero;fill:rgb(87.164743%,87.164743%,87.164743%);fill-opacity:1;" d="M 235.804688 168.058594 L 247.597656 162.914062 L 266.730469 173.117188 L 249.957031 190.71875 Z M 235.804688 168.058594 "/>
<path style=" stroke:none;fill-rule:nonzero;fill:rgb(69.474027%,69.474027%,69.474027%);fill-opacity:1;" d="M 238.707031 202.519531 L 261.875 178.214844 L 261.175781 203.421875 L 241.464844 206.679688 Z M 238.707031 202.519531 "/>
<path style=" stroke:none;fill-rule:nonzero;fill:rgb(88.895398%,88.895398%,88.895398%);fill-opacity:1;" d="M 261.175781 203.421875 L 261.875 178.214844 L 266.730469 173.117188 L 286.101562 183.453125 L 284.710938 199.53125 Z M 261.175781 203.421875 "/>
<path style=" stroke:none;fill-rule:nonzero;fill:rgb(71.198962%,71.198962%,71.198962%);fill-opacity:1;" d="M 223.980469 150.316406 L 249.183594 148.828125 L 286.710938 176.429688 L 286.101562 183.453125 Z M 223.980469 150.316406 "/>
<path style=" stroke:none;fill-rule:nonzero;fill:rgb(70.190422%,70.190422%,70.190422%);fill-opacity:1;" d="M 249.183594 148.828125 L 289.304688 146.457031 L 286.710938 176.429688 Z M 249.183594 148.828125 "/>
<path style=" stroke:none;fill-rule:nonzero;fill:rgb(78.047331%,78.047331%,78.047331%);fill-opacity:1;" d="M 284.710938 199.53125 L 287.019531 172.863281 L 314.222656 194.65625 Z M 284.710938 199.53125 "/>
<path style=" stroke:none;fill-rule:nonzero;fill:rgb(63.054046%,63.054046%,63.054046%);fill-opacity:1;" d="M 287.019531 172.863281 L 287.945312 162.152344 L 326.175781 186.761719 L 329.730469 192.09375 L 314.222656 194.65625 Z M 287.019531 172.863281 "/>
<path style=" stroke:none;fill-rule:nonzero;fill:rgb(63.027676%,63.027676%,63.027676%);fill-opacity:1;" d="M 287.945312 162.152344 L 289.304688 146.457031 L 298.925781 145.886719 L 326.175781 186.761719 Z M 287.945312 162.152344 "/>
<path style=" stroke:none;fill-rule:nonzero;fill:rgb(65.835901%,65.835901%,65.835901%);fill-opacity:1;" d="M 241.464844 206.679688 L 270.757812 201.839844 L 279.230469 215.5625 L 246.140625 213.734375 Z M 241.464844 206.679688 "/>
<path style=" stroke:none;fill-rule:nonzero;fill:rgb(83.078373%,83.078373%,83.078373%);fill-opacity:1;" d="M 270.757812 201.839844 L 309.078125 195.507812 L 312.1875 210.113281 L 272.363281 204.441406 Z M 270.757812 201.839844 "/>
<path style=" stroke:none;fill-rule:nonzero;fill:rgb(79.431127%,79.431127%,79.431127%);fill-opacity:1;" d="M 272.363281 204.441406 L 312.1875 210.113281 L 313.757812 217.472656 L 279.230469 215.5625 Z M 272.363281 204.441406 "/>
<path style=" stroke:none;fill-rule:nonzero;fill:rgb(75.948615%,75.948615%,75.948615%);fill-opacity:1;" d="M 309.078125 195.507812 L 329.730469 192.09375 L 331.859375 195.285156 L 326.351562 218.167969 L 313.757812 217.472656 Z M 309.078125 195.507812 "/>
<path style=" stroke:none;fill-rule:nonzero;fill:rgb(82.131945%,82.131945%,82.131945%);fill-opacity:1;" d="M 326.351562 218.167969 L 331.859375 195.285156 L 347.90625 219.359375 Z M 326.351562 218.167969 "/>
<path style=" stroke:none;fill-rule:nonzero;fill:rgb(71.463258%,71.463258%,71.463258%);fill-opacity:1;" d="M 246.140625 213.734375 L 269.175781 215.007812 L 266.449219 235.054688 L 257.160156 230.367188 Z M 246.140625 213.734375 "/>
<path style=" stroke:none;fill-rule:nonzero;fill:rgb(88.79642%,88.79642%,88.79642%);fill-opacity:1;" d="M 266.449219 235.054688 L 269.175781 215.007812 L 282.347656 215.734375 L 289.488281 227.292969 L 271.960938 237.835938 Z M 266.449219 235.054688 "/>
<path style=" stroke:none;fill-rule:nonzero;fill:rgb(68.909196%,68.909196%,68.909196%);fill-opacity:1;" d="M 271.960938 237.835938 L 289.488281 227.292969 L 306.886719 255.457031 Z M 271.960938 237.835938 "/>
<path style=" stroke:none;fill-rule:nonzero;fill:rgb(81.634231%,81.634231%,81.634231%);fill-opacity:1;" d="M 257.160156 230.367188 L 292.617188 248.257812 L 303.957031 276.695312 L 301.507812 277.261719 L 279.167969 243.75 L 272.578125 253.636719 Z M 257.160156 230.367188 "/>
<path style=" stroke:none;fill-rule:nonzero;fill:rgb(83.573782%,83.573782%,83.573782%);fill-opacity:1;" d="M 292.617188 248.257812 L 306.886719 255.457031 L 318.003906 273.453125 L 303.957031 276.695312 Z M 292.617188 248.257812 "/>
<path style=" stroke:none;fill-rule:nonzero;fill:rgb(78.147534%,78.147534%,78.147534%);fill-opacity:1;" d="M 282.347656 215.734375 L 347.90625 219.359375 L 350.152344 222.730469 L 292.617188 232.363281 Z M 282.347656 215.734375 "/>
<path style=" stroke:none;fill-rule:nonzero;fill:rgb(66.542988%,66.542988%,66.542988%);fill-opacity:1;" d="M 292.617188 232.363281 L 323.089844 227.261719 L 315.289062 269.054688 Z M 292.617188 232.363281 "/>
<path style=" stroke:none;fill-rule:nonzero;fill:rgb(89.611672%,89.611672%,89.611672%);fill-opacity:1;" d="M 315.289062 269.054688 L 323.089844 227.261719 L 329.410156 226.203125 L 334.304688 261.140625 L 327.417969 271.277344 L 318.003906 273.453125 Z M 315.289062 269.054688 "/>
<path style=" stroke:none;fill-rule:nonzero;fill:rgb(76.085634%,76.085634%,76.085634%);fill-opacity:1;" d="M 329.410156 226.203125 L 350.152344 222.730469 L 355.230469 230.34375 L 334.304688 261.140625 Z M 329.410156 226.203125 "/>
<path style=" stroke:none;fill-rule:nonzero;fill:rgb(65.19465%,65.19465%,65.19465%);fill-opacity:1;" d="M 327.417969 271.277344 L 332.53125 263.753906 L 368.519531 250.277344 L 375.167969 260.25 Z M 327.417969 271.277344 "/>
<path style=" stroke:none;fill-rule:nonzero;fill:rgb(61.733893%,61.733893%,61.733893%);fill-opacity:1;" d="M 332.53125 263.753906 L 355.230469 230.34375 L 368.519531 250.277344 Z M 332.53125 263.753906 "/>
<path style=" stroke:none;fill-rule:nonzero;fill:rgb(61.519403%,61.519403%,61.519403%);fill-opacity:1;" d="M 301.507812 277.261719 L 359.539062 263.859375 L 350.726562 278.4375 L 308.953125 288.429688 Z M 301.507812 277.261719 "/>
<path style=" stroke:none;fill-rule:nonzero;fill:rgb(74.259803%,74.259803%,74.259803%);fill-opacity:1;" d="M 350.726562 278.4375 L 359.539062 263.859375 L 375.167969 260.25 L 381.808594 270.210938 L 380.234375 271.375 Z M 350.726562 278.4375 "/>
<path style=" stroke:none;fill-rule:nonzero;fill:rgb(62.15907%,62.15907%,62.15907%);fill-opacity:1;" d="M 308.953125 288.429688 L 342.402344 280.429688 L 342.566406 299.21875 L 324.867188 312.300781 Z M 308.953125 288.429688 "/>
<path style=" stroke:none;fill-rule:nonzero;fill:rgb(77.712058%,77.712058%,77.712058%);fill-opacity:1;" d="M 342.402344 280.429688 L 380.234375 271.375 L 342.566406 299.21875 Z M 342.402344 280.429688 "/>
<path style=" stroke:none;fill-rule:nonzero;fill:rgb(71.079089%,71.079089%,71.079089%);fill-opacity:1;" d="M 324.867188 312.300781 L 381.808594 270.210938 L 382.046875 270.570312 L 333.695312 325.542969 Z M 324.867188 312.300781 "/>
<path style=" stroke:none;fill-rule:nonzero;fill:rgb(75.061912%,75.061912%,75.061912%);fill-opacity:1;" d="M 333.695312 325.542969 L 350.175781 306.804688 L 354.183594 319.539062 L 339.238281 333.855469 Z M 333.695312 325.542969 "/>
<path style=" stroke:none;fill-rule:nonzero;fill:rgb(73.445884%,73.445884%,73.445884%);fill-opacity:1;" d="M 350.175781 306.804688 L 357.566406 298.402344 L 378.042969 296.683594 L 354.183594 319.539062 Z M 350.175781 306.804688 "/>
<path style=" stroke:none;fill-rule:nonzero;fill:rgb(78.575317%,78.575317%,78.575317%);fill-opacity:1;" d="M 357.566406 298.402344 L 382.046875 270.570312 L 391.113281 284.167969 L 378.042969 296.683594 Z M 357.566406 298.402344 "/>
<path style=" stroke:none;fill-rule:nonzero;fill:rgb(77.016183%,77.016183%,77.016183%);fill-opacity:1;" d="M 339.238281 333.855469 L 348.332031 325.144531 L 354.761719 327.6875 L 366.546875 350 L 350 350 Z M 339.238281 333.855469 "/>
<path style=" stroke:none;fill-rule:nonzero;fill:rgb(76.743562%,76.743562%,76.743562%);fill-opacity:1;" d="M 354.761719 327.6875 L 411.207031 350 L 366.546875 350 Z M 354.761719 327.6875 "/>
<path style=" stroke:none;fill-rule:nonzero;fill:rgb(87.024412%,87.024412%,87.024412%);fill-opacity:1;" d="M 348.332031 325.144531 L 367.871094 306.429688 L 382.0625 318.085938 L 372.296875 334.621094 Z M 348.332031 325.144531 "/>
<path style=" stroke:none;fill-rule:nonzero;fill:rgb(77.953345%,77.953345%,77.953345%);fill-opacity:1;" d="M 367.871094 306.429688 L 391.113281 284.167969 L 396.933594 292.898438 L 382.0625 318.085938 Z M 367.871094 306.429688 "/>
<path style=" stroke:none;fill-rule:nonzero;fill:rgb(80.908288%,80.908288%,80.908288%);fill-opacity:1;" d="M 372.296875 334.621094 L 385.527344 312.21875 L 405.796875 347.859375 Z M 372.296875 334.621094 "/>
<path style=" stroke:none;fill-rule:nonzero;fill:rgb(67.952585%,67.952585%,67.952585%);fill-opacity:1;" d="M 385.527344 312.21875 L 396.933594 292.898438 L 409.675781 312.011719 L 400.636719 338.792969 Z M 385.527344 312.21875 "/>
<path style=" stroke:none;fill-rule:nonzero;fill:rgb(70.210581%,70.210581%,70.210581%);fill-opacity:1;" d="M 400.636719 338.792969 L 409.675781 312.011719 L 411.449219 314.675781 L 415.28125 350 L 411.207031 350 L 405.796875 347.859375 Z M 400.636719 338.792969 "/>
<path style=" stroke:none;fill-rule:nonzero;fill:rgb(87.963465%,87.963465%,87.963465%);fill-opacity:1;" d="M 411.449219 314.675781 L 435 350 L 415.28125 350 Z M 411.449219 314.675781 "/>
<path style=" stroke:none;fill-rule:nonzero;fill:rgb(75.636863%,75.636863%,75.636863%);fill-opacity:1;" d="M 123.335938 350 L 136.394531 330.410156 L 162.722656 329.25 L 157.050781 350 Z M 123.335938 350 "/>
<path style=" stroke:none;fill-rule:nonzero;fill:rgb(63.009205%,63.009205%,63.009205%);fill-opacity:1;" d="M 136.394531 330.410156 L 151.773438 307.339844 L 166.085938 316.953125 L 162.722656 329.25 Z M 136.394531 330.410156 "/>
<path style=" stroke:none;fill-rule:nonzero;fill:rgb(64.355172%,64.355172%,64.355172%);fill-opacity:1;" d="M 157.050781 350 L 164.222656 323.761719 L 177.207031 350 Z M 157.050781 350 "/>
<path style=" stroke:none;fill-rule:nonzero;fill:rgb(88.285901%,88.285901%,88.285901%);fill-opacity:1;" d="M 164.222656 323.761719 L 166.085938 316.953125 L 186.140625 330.429688 L 172.769531 341.03125 Z M 164.222656 323.761719 "/>
<path style=" stroke:none;fill-rule:nonzero;fill:rgb(74.301851%,74.301851%,74.301851%);fill-opacity:1;" d="M 172.769531 341.03125 L 186.140625 330.429688 L 210.480469 346.78125 L 208.335938 350 L 177.207031 350 Z M 172.769531 341.03125 "/>
<path style=" stroke:none;fill-rule:nonzero;fill:rgb(83.303534%,83.303534%,83.303534%);fill-opacity:1;" d="M 151.773438 307.339844 L 153.101562 305.347656 L 163.40625 304.027344 L 188.65625 331.347656 L 188.253906 331.847656 Z M 151.773438 307.339844 "/>
<path style=" stroke:none;fill-rule:nonzero;fill:rgb(84.92383%,84.92383%,84.92383%);fill-opacity:1;" d="M 163.40625 304.027344 L 184.203125 301.363281 L 203.015625 313.667969 L 188.65625 331.347656 Z M 163.40625 304.027344 "/>
<path style=" stroke:none;fill-rule:nonzero;fill:rgb(60.696195%,60.696195%,60.696195%);fill-opacity:1;" d="M 188.253906 331.847656 L 203.015625 313.667969 L 223.585938 327.121094 L 210.480469 346.78125 Z M 188.253906 331.847656 "/>
<path style=" stroke:none;fill-rule:nonzero;fill:rgb(72.601083%,72.601083%,72.601083%);fill-opacity:1;" d="M 184.203125 301.363281 L 224.828125 296.160156 L 210.726562 318.710938 Z M 184.203125 301.363281 "/>
<path style=" stroke:none;fill-rule:nonzero;fill:rgb(65.698811%,65.698811%,65.698811%);fill-opacity:1;" d="M 210.726562 318.710938 L 224.828125 296.160156 L 246.039062 293.445312 L 223.585938 327.121094 Z M 210.726562 318.710938 "/>
<path style=" stroke:none;fill-rule:nonzero;fill:rgb(73.609615%,73.609615%,73.609615%);fill-opacity:1;" d="M 153.101562 305.347656 L 157.5 298.75 L 209.820312 284.777344 L 193 300.238281 Z M 153.101562 305.347656 "/>
<path style=" stroke:none;fill-rule:nonzero;fill:rgb(60.984645%,60.984645%,60.984645%);fill-opacity:1;" d="M 157.5 298.75 L 165.316406 287.027344 L 194.851562 276.28125 L 215.652344 279.417969 L 209.820312 284.777344 Z M 157.5 298.75 "/>
<path style=" stroke:none;fill-rule:nonzero;fill:rgb(87.832579%,87.832579%,87.832579%);fill-opacity:1;" d="M 194.851562 276.28125 L 220.523438 266.941406 L 224.980469 270.84375 L 215.652344 279.417969 Z M 194.851562 276.28125 "/>
<path style=" stroke:none;fill-rule:nonzero;fill:rgb(85.947659%,85.947659%,85.947659%);fill-opacity:1;" d="M 193 300.238281 L 224.980469 270.84375 L 230.210938 275.425781 L 218.144531 297.019531 Z M 193 300.238281 "/>
<path style=" stroke:none;fill-rule:nonzero;fill:rgb(70.880766%,70.880766%,70.880766%);fill-opacity:1;" d="M 218.144531 297.019531 L 230.210938 275.425781 L 247.792969 290.816406 L 246.039062 293.445312 Z M 218.144531 297.019531 "/>
<path style=" stroke:none;fill-rule:nonzero;fill:rgb(83.205504%,83.205504%,83.205504%);fill-opacity:1;" d="M 165.316406 287.027344 L 171.492188 277.761719 L 211.214844 258.792969 L 220.523438 266.941406 Z M 165.316406 287.027344 "/>
<path style=" stroke:none;fill-rule:nonzero;fill:rgb(60.45097%,60.45097%,60.45097%);fill-opacity:1;" d="M 171.492188 277.761719 L 194.117188 243.824219 L 211.214844 258.792969 Z M 171.492188 277.761719 "/>
<path style=" stroke:none;fill-rule:nonzero;fill:rgb(74.651386%,74.651386%,74.651386%);fill-opacity:1;" d="M 194.117188 243.824219 L 196.398438 240.40625 L 224.304688 243.738281 L 226.867188 272.496094 Z M 194.117188 243.824219 "/>
<path style=" stroke:none;fill-rule:nonzero;fill:rgb(89.234213%,89.234213%,89.234213%);fill-opacity:1;" d="M 224.304688 243.738281 L 237.726562 245.34375 L 251.175781 260.136719 L 226.675781 270.339844 Z M 224.304688 243.738281 "/>
<path style=" stroke:none;fill-rule:nonzero;fill:rgb(89.142249%,89.142249%,89.142249%);fill-opacity:1;" d="M 226.675781 270.339844 L 251.175781 260.136719 L 261.027344 270.964844 L 247.792969 290.816406 L 226.867188 272.496094 Z M 226.675781 270.339844 "/>
<path style=" stroke:none;fill-rule:nonzero;fill:rgb(79.199326%,79.199326%,79.199326%);fill-opacity:1;" d="M 237.726562 245.34375 L 269.609375 249.15625 L 272.578125 253.636719 L 261.027344 270.964844 Z M 237.726562 245.34375 "/>
<path style=" stroke:none;fill-rule:nonzero;fill:rgb(84.969557%,84.969557%,84.969557%);fill-opacity:1;" d="M 196.398438 240.40625 L 201.316406 233.027344 L 226.273438 228.480469 L 223.625 243.660156 Z M 196.398438 240.40625 "/>
<path style=" stroke:none;fill-rule:nonzero;fill:rgb(81.459711%,81.459711%,81.459711%);fill-opacity:1;" d="M 201.316406 233.027344 L 230.207031 189.691406 L 232.445312 193.070312 L 226.273438 228.480469 Z M 201.316406 233.027344 "/>
<path style=" stroke:none;fill-rule:nonzero;fill:rgb(62.742546%,62.742546%,62.742546%);fill-opacity:1;" d="M 223.625 243.660156 L 226.597656 226.613281 L 267.777344 248.9375 Z M 223.625 243.660156 "/>
<path style=" stroke:none;fill-rule:nonzero;fill:rgb(80.740626%,80.740626%,80.740626%);fill-opacity:1;" d="M 226.597656 226.613281 L 232.445312 193.070312 L 239 202.960938 L 242.324219 235.136719 Z M 226.597656 226.613281 "/>
<path style=" stroke:none;fill-rule:nonzero;fill:rgb(69.135715%,69.135715%,69.135715%);fill-opacity:1;" d="M 239 202.960938 L 269.609375 249.15625 L 267.777344 248.9375 L 242.324219 235.136719 Z M 239 202.960938 "/>
<path style=" stroke:none;fill-rule:nonzero;fill:rgb(62.863378%,62.863378%,62.863378%);fill-opacity:1;" d="M 302.78125 109.167969 L 324.292969 109.167969 L 334.40625 114.75 L 319.046875 133.570312 Z M 302.78125 109.167969 "/>
<path style=" stroke:none;fill-rule:nonzero;fill:rgb(88.887698%,88.887698%,88.887698%);fill-opacity:1;" d="M 319.046875 133.570312 L 323.570312 128.027344 L 352.3125 135.253906 L 332.4375 153.652344 Z M 319.046875 133.570312 "/>
<path style=" stroke:none;fill-rule:nonzero;fill:rgb(74.876176%,74.876176%,74.876176%);fill-opacity:1;" d="M 323.570312 128.027344 L 334.40625 114.75 L 359.5 128.597656 L 352.3125 135.253906 Z M 323.570312 128.027344 "/>
<path style=" stroke:none;fill-rule:nonzero;fill:rgb(75.566131%,75.566131%,75.566131%);fill-opacity:1;" d="M 332.4375 153.652344 L 353.554688 134.101562 L 360.546875 165.835938 L 340.558594 165.835938 Z M 332.4375 153.652344 "/>
<path style=" stroke:none;fill-rule:nonzero;fill:rgb(70.163669%,70.163669%,70.163669%);fill-opacity:1;" d="M 353.554688 134.101562 L 356.734375 131.15625 L 385.066406 165.835938 L 360.546875 165.835938 Z M 353.554688 134.101562 "/>
<path style=" stroke:none;fill-rule:nonzero;fill:rgb(89.741178%,89.741178%,89.741178%);fill-opacity:1;" d="M 356.734375 131.15625 L 359.5 128.597656 L 392.128906 146.605469 L 399.320312 165.835938 L 385.066406 165.835938 Z M 356.734375 131.15625 "/>
<path style=" stroke:none;fill-rule:nonzero;fill:rgb(85.853828%,85.853828%,85.853828%);fill-opacity:1;" d="M 392.128906 146.605469 L 426.96875 165.835938 L 399.320312 165.835938 Z M 392.128906 146.605469 "/>
<path style=" stroke:none;fill-rule:nonzero;fill:rgb(69.947108%,69.947108%,69.947108%);fill-opacity:1;" d="M 324.292969 109.167969 L 370.480469 109.167969 L 371.222656 135.070312 Z M 324.292969 109.167969 "/>
<path style=" stroke:none;fill-rule:nonzero;fill:rgb(63.936753%,63.936753%,63.936753%);fill-opacity:1;" d="M 370.480469 109.167969 L 374.027344 109.167969 L 383.9375 117.492188 L 373.90625 136.550781 L 371.222656 135.070312 Z M 370.480469 109.167969 "/>
<path style=" stroke:none;fill-rule:nonzero;fill:rgb(88.175376%,88.175376%,88.175376%);fill-opacity:1;" d="M 373.90625 136.550781 L 383.9375 117.492188 L 405.835938 135.878906 L 403.789062 153.039062 Z M 373.90625 136.550781 "/>
<path style=" stroke:none;fill-rule:nonzero;fill:rgb(63.743963%,63.743963%,63.743963%);fill-opacity:1;" d="M 403.789062 153.039062 L 405.835938 135.878906 L 426.613281 153.320312 L 424.019531 164.207031 Z M 403.789062 153.039062 "/>
<path style=" stroke:none;fill-rule:nonzero;fill:rgb(82.387176%,82.387176%,82.387176%);fill-opacity:1;" d="M 374.027344 109.167969 L 403.324219 109.167969 L 409.816406 139.21875 Z M 374.027344 109.167969 "/>
<path style=" stroke:none;fill-rule:nonzero;fill:rgb(77.956007%,77.956007%,77.956007%);fill-opacity:1;" d="M 403.324219 109.167969 L 431.902344 109.167969 L 408.96875 135.277344 Z M 403.324219 109.167969 "/>
<path style=" stroke:none;fill-rule:nonzero;fill:rgb(62.744968%,62.744968%,62.744968%);fill-opacity:1;" d="M 408.96875 135.277344 L 431.902344 109.167969 L 437.117188 109.167969 L 426.613281 153.320312 L 409.816406 139.21875 Z M 408.96875 135.277344 "/>
<path style=" stroke:none;fill-rule:nonzero;fill:rgb(84.888142%,84.888142%,84.888142%);fill-opacity:1;" d="M 424.019531 164.207031 L 429.183594 142.503906 L 451.527344 152.988281 L 451.089844 165.835938 L 426.96875 165.835938 Z M 424.019531 164.207031 "/>
<path style=" stroke:none;fill-rule:nonzero;fill:rgb(60.822171%,60.822171%,60.822171%);fill-opacity:1;" d="M 429.183594 142.503906 L 432.707031 127.707031 L 451.960938 140.179688 L 451.527344 152.988281 Z M 429.183594 142.503906 "/>
<path style=" stroke:none;fill-rule:nonzero;fill:rgb(78.61809%,78.61809%,78.61809%);fill-opacity:1;" d="M 432.707031 127.707031 L 437.117188 109.167969 L 453.015625 109.167969 L 451.960938 140.179688 Z M 432.707031 127.707031 "/>
<path style=" stroke:none;fill-rule:nonzero;fill:rgb(87.757621%,87.757621%,87.757621%);fill-opacity:1;" d="M 451.089844 165.835938 L 453.015625 109.167969 L 459.351562 109.167969 L 461.390625 153.160156 L 452.820312 165.835938 Z M 451.089844 165.835938 "/>
<path style=" stroke:none;fill-rule:nonzero;fill:rgb(65.049316%,65.049316%,65.049316%);fill-opacity:1;" d="M 459.351562 109.167969 L 466.238281 109.164062 L 467.539062 144.070312 L 461.390625 153.160156 Z M 459.351562 109.167969 "/>
<path style=" stroke:none;fill-rule:nonzero;fill:rgb(82.066607%,82.066607%,82.066607%);fill-opacity:1;" d="M 466.238281 109.164062 L 473.011719 109.164062 L 478.066406 128.5 L 467.539062 144.070312 Z M 466.238281 109.164062 "/>
<path style=" stroke:none;fill-rule:nonzero;fill:rgb(77.873098%,77.873098%,77.873098%);fill-opacity:1;" d="M 452.820312 165.835938 L 462.707031 151.214844 L 485.082031 165.835938 Z M 452.820312 165.835938 "/>
<path style=" stroke:none;fill-rule:nonzero;fill:rgb(86.08433%,86.08433%,86.08433%);fill-opacity:1;" d="M 462.707031 151.214844 L 478.066406 128.5 L 487.824219 165.835938 L 485.082031 165.835938 Z M 462.707031 151.214844 "/>
<path style=" stroke:none;fill-rule:nonzero;fill:rgb(89.129047%,89.129047%,89.129047%);fill-opacity:1;" d="M 473.011719 109.164062 L 491.667969 109.164062 L 491.667969 130.28125 L 478.222656 129.089844 Z M 473.011719 109.164062 "/>
<path style=" stroke:none;fill-rule:nonzero;fill:rgb(79.750137%,79.750137%,79.750137%);fill-opacity:1;" d="M 478.222656 129.089844 L 491.667969 130.28125 L 491.667969 165.835938 L 487.824219 165.835938 Z M 478.222656 129.089844 "/>
<path style=" stroke:none;fill-rule:nonzero;fill:rgb(88.157199%,88.157199%,88.157199%);fill-opacity:1;" d="M 359.449219 194.167969 L 384.949219 194.167969 L 371.457031 212.183594 Z M 359.449219 194.167969 "/>
<path style=" stroke:none;fill-rule:nonzero;fill:rgb(64.660828%,64.660828%,64.660828%);fill-opacity:1;" d="M 371.457031 212.183594 L 384.949219 194.167969 L 388.175781 194.167969 L 404.539062 208 L 381.957031 218.980469 L 375.519531 218.277344 Z M 371.457031 212.183594 "/>
<path style=" stroke:none;fill-rule:nonzero;fill:rgb(68.38888%,68.38888%,68.38888%);fill-opacity:1;" d="M 388.175781 194.167969 L 433 194.167969 L 404.539062 208 Z M 388.175781 194.167969 "/>
<path style=" stroke:none;fill-rule:nonzero;fill:rgb(75.85355%,75.85355%,75.85355%);fill-opacity:1;" d="M 381.957031 218.980469 L 433 194.167969 L 442.257812 194.167969 L 444.515625 198.226562 L 408.085938 221.824219 Z M 381.957031 218.980469 "/>
<path style=" stroke:none;fill-rule:nonzero;fill:rgb(75.643735%,75.643735%,75.643735%);fill-opacity:1;" d="M 408.085938 221.824219 L 444.515625 198.226562 L 447.636719 203.839844 L 424.757812 223.640625 Z M 408.085938 221.824219 "/>
<path style=" stroke:none;fill-rule:nonzero;fill:rgb(77.238331%,77.238331%,77.238331%);fill-opacity:1;" d="M 424.757812 223.640625 L 447.636719 203.839844 L 460.839844 227.570312 Z M 424.757812 223.640625 "/>
<path style=" stroke:none;fill-rule:nonzero;fill:rgb(79.621628%,79.621628%,79.621628%);fill-opacity:1;" d="M 375.519531 218.277344 L 394.804688 220.378906 L 409.246094 230.761719 L 390.550781 240.824219 Z M 375.519531 218.277344 "/>
<path style=" stroke:none;fill-rule:nonzero;fill:rgb(84.62541%,84.62541%,84.62541%);fill-opacity:1;" d="M 390.550781 240.824219 L 409.246094 230.761719 L 410.59375 231.730469 L 411.714844 250.835938 L 397.222656 250.835938 Z M 390.550781 240.824219 "/>
<path style=" stroke:none;fill-rule:nonzero;fill:rgb(84.904628%,84.904628%,84.904628%);fill-opacity:1;" d="M 410.59375 231.730469 L 437.164062 250.835938 L 411.714844 250.835938 Z M 410.59375 231.730469 "/>
<path style=" stroke:none;fill-rule:nonzero;fill:rgb(67.699332%,67.699332%,67.699332%);fill-opacity:1;" d="M 394.804688 220.378906 L 456.824219 227.132812 L 424.621094 241.816406 Z M 394.804688 220.378906 "/>
<path style=" stroke:none;fill-rule:nonzero;fill:rgb(63.360955%,63.360955%,63.360955%);fill-opacity:1;" d="M 424.621094 241.816406 L 456.824219 227.132812 L 460.839844 227.570312 L 464.101562 233.4375 L 439.160156 250.835938 L 437.164062 250.835938 Z M 424.621094 241.816406 "/>
<path style=" stroke:none;fill-rule:nonzero;fill:rgb(86.599601%,86.599601%,86.599601%);fill-opacity:1;" d="M 439.160156 250.835938 L 464.101562 233.4375 L 473.78125 250.835938 Z M 439.160156 250.835938 "/>
<path style=" stroke:none;fill-rule:nonzero;fill:rgb(61.408305%,61.408305%,61.408305%);fill-opacity:1;" d="M 442.257812 194.167969 L 491.667969 194.164062 L 491.667969 212.8125 L 490.164062 213.679688 L 444.28125 197.804688 Z M 442.257812 194.167969 "/>
<path style=" stroke:none;fill-rule:nonzero;fill:rgb(88.965713%,88.965713%,88.965713%);fill-opacity:1;" d="M 444.28125 197.804688 L 490.164062 213.679688 L 462.09375 229.824219 Z M 444.28125 197.804688 "/>
<path style=" stroke:none;fill-rule:nonzero;fill:rgb(66.505042%,66.505042%,66.505042%);fill-opacity:1;" d="M 462.09375 229.824219 L 469.546875 225.535156 L 484.566406 250.835938 L 473.78125 250.835938 Z M 462.09375 229.824219 "/>
<path style=" stroke:none;fill-rule:nonzero;fill:rgb(65.016276%,65.016276%,65.016276%);fill-opacity:1;" d="M 469.546875 225.535156 L 491.667969 212.8125 L 491.667969 250.835938 L 484.566406 250.835938 Z M 469.546875 225.535156 "/>
<path style="fill:none;stroke-width:0.5;stroke-linecap:butt;stroke-linejoin:miter;stroke:rgb(0%,0%,0%);stroke-opacity:1;stroke-miterlimit:10;" d="M 0 0 L 17.628906 0 M 0 340 L 18.078125 312.886719 M 10.144531 15.214844 L 0 0 M 10.144531 15.214844 L 29.035156 8.210938 M 17.628906 0 L 29.035156 8.210938 M 17.628906 0 L 47.796875 0 M 18.078125 312.886719 L 29.351562 295.976562 M 18.078125 312.886719 L 40.054688 328.753906 M 22.710938 34.066406 L 10.144531 15.214844 M 22.710938 34.066406 L 43.675781 18.753906 M 28.453125 42.675781 L 22.710938 34.066406 M 28.453125 42.675781 L 50.179688 37.617188 M 29.035156 8.210938 L 10.144531 15.214844 M 29.035156 8.210938 L 43.675781 18.753906 M 29.351562 295.976562 L 43.683594 274.476562 M 29.351562 295.976562 L 44.070312 321.152344 M 30.714844 298.3125 L 29.351562 295.976562 M 30.714844 298.3125 L 62.230469 286.773438 M 34.113281 340 L 0 340 M 34.113281 340 L 46.210938 317.101562 M 40.054688 328.753906 L 18.078125 312.886719 M 40.054688 328.753906 L 34.113281 340 M 40.480469 60.71875 L 28.453125 42.675781 M 40.480469 60.71875 L 54.226562 50.726562 M 43.675781 18.753906 L 22.710938 34.066406 M 43.675781 18.753906 L 44.542969 19.378906 M 43.683594 274.476562 L 58.347656 252.480469 M 43.683594 274.476562 L 63.839844 283.726562 M 44.070312 321.152344 L 30.714844 298.3125 M 44.070312 321.152344 L 40.054688 328.753906 M 44.542969 19.378906 L 50.179688 37.617188 M 44.542969 19.378906 L 67.167969 35.664062 M 46.210938 317.101562 L 57.269531 296.171875 M 46.210938 317.101562 L 71.695312 328.40625 M 47.796875 0 L 52.960938 25.4375 M 47.796875 0 L 60.609375 0 M 50.179688 37.617188 L 28.453125 42.675781 M 50.179688 37.617188 L 54.226562 50.726562 M 52.960938 25.4375 L 17.628906 0 M 52.960938 25.4375 L 47.796875 0 M 53.65625 25.9375 L 52.960938 25.4375 M 53.65625 25.9375 L 117.4375 48.652344 M 54.226562 50.726562 L 40.480469 60.71875 M 54.226562 50.726562 L 71.855469 107.78125 M 57.269531 296.171875 L 63.839844 283.726562 M 57.269531 296.171875 L 64.4375 325.1875 M 58.347656 252.480469 L 69.238281 236.144531 M 58.347656 252.480469 L 73.871094 288.332031 M 60.609375 0 L 62.714844 29.164062 M 60.609375 0 L 85 0 M 60.640625 71.484375 L 44.542969 19.378906 M 60.640625 71.484375 L 72.609375 61.675781 M 61.820312 16.746094 L 60.609375 0 M 61.820312 16.746094 L 84.652344 19.894531 M 62.230469 286.773438 L 30.714844 298.3125 M 62.230469 286.773438 L 44.070312 321.152344 M 62.714844 29.164062 L 53.65625 25.9375 M 62.714844 29.164062 L 61.820312 16.746094 M 63.839844 283.726562 L 62.230469 286.773438 M 63.839844 283.726562 L 79.164062 290.757812 M 64.4375 325.1875 L 46.210938 317.101562 M 64.4375 325.1875 L 57.269531 296.171875 M 64.632812 68.214844 L 60.640625 71.484375 M 64.632812 68.214844 L 67.167969 35.664062 M 66.570312 271.46875 L 58.347656 252.480469 M 66.570312 271.46875 L 78.921875 263.175781 M 67.167969 35.664062 L 64.632812 68.214844 M 67.167969 35.664062 L 86.957031 49.914062 M 68.765625 97.785156 L 60.640625 71.484375 M 68.765625 97.785156 L 91.617188 83.015625 M 69.238281 236.144531 L 74.285156 228.574219 M 69.238281 236.144531 L 78.921875 263.175781 M 69.398438 340 L 34.113281 340 M 69.398438 340 L 79.164062 290.757812 M 71.257812 105.855469 L 68.765625 97.785156 M 71.257812 105.855469 L 94.007812 100.554688 M 71.695312 328.40625 L 64.4375 325.1875 M 71.695312 328.40625 L 69.398438 340 M 71.855469 107.78125 L 40.480469 60.71875 M 71.855469 107.78125 L 71.257812 105.855469 M 72.609375 61.675781 L 78.523438 91.480469 M 72.609375 61.675781 L 86.957031 49.914062 M 72.824219 246.164062 L 69.238281 236.144531 M 72.824219 246.164062 L 96.109375 275.355469 M 73.871094 288.332031 L 43.683594 274.476562 M 73.871094 288.332031 L 66.570312 271.46875 M 74.285156 228.574219 L 75.246094 227.132812 M 74.285156 228.574219 L 78.082031 231.777344 M 75.246094 227.132812 L 76.320312 226.949219 M 75.246094 227.132812 L 106.566406 180.152344 M 75.722656 340 L 69.398438 340 M 75.722656 340 L 83.152344 314.132812 M 76.320312 226.949219 L 113.871094 236.152344 M 76.320312 226.949219 L 118.726562 219.703125 M 77.714844 34.507812 L 62.714844 29.164062 M 77.714844 34.507812 L 84.652344 19.894531 M 78.082031 231.777344 L 96.109375 275.355469 M 78.082031 231.777344 L 107.777344 256.808594 M 78.523438 91.480469 L 68.765625 97.785156 M 78.523438 91.480469 L 72.609375 61.675781 M 78.921875 263.175781 L 66.570312 271.46875 M 78.921875 263.175781 L 90.703125 296.054688 M 79.164062 290.757812 L 71.695312 328.40625 M 79.164062 290.757812 L 88.617188 295.097656 M 83.152344 314.132812 L 88.617188 295.097656 M 83.152344 314.132812 L 106.050781 308.425781 M 84.652344 19.894531 L 77.714844 34.507812 M 84.652344 19.894531 L 99.640625 21.960938 M 85 0 L 99.640625 21.960938 M 85 340 L 75.722656 340 M 86.957031 49.914062 L 64.632812 68.214844 M 86.957031 49.914062 L 87.125 50.03125 M 87.125 50.03125 L 91.617188 83.015625 M 87.125 50.03125 L 106.394531 63.90625 M 88.617188 295.097656 L 75.722656 340 M 88.617188 295.097656 L 108.769531 304.347656 M 89.90625 134.855469 L 71.855469 107.78125 M 89.90625 134.855469 L 112.105469 110.8125 M 90.113281 71.96875 L 87.125 50.03125 M 90.113281 71.96875 L 125.921875 95.851562 M 90.703125 296.054688 L 72.824219 246.164062 M 90.703125 296.054688 L 73.871094 288.332031 M 91.617188 83.015625 L 78.523438 91.480469 M 91.617188 83.015625 L 94.007812 100.554688 M 93.15625 94.300781 L 90.113281 71.96875 M 93.15625 94.300781 L 123.734375 98.222656 M 93.617188 223.992188 L 75.246094 227.132812 M 93.617188 223.992188 L 102.28125 194.65625 M 94.007812 100.554688 L 71.257812 105.855469 M 94.007812 100.554688 L 97.550781 126.574219 M 95.542969 298.277344 L 90.703125 296.054688 M 95.542969 298.277344 L 97.566406 291.414062 M 96.109375 275.355469 L 72.824219 246.164062 M 96.109375 275.355469 L 99.726562 284.097656 M 97.550781 126.574219 L 89.90625 134.855469 M 97.550781 126.574219 L 93.15625 94.300781 M 97.566406 291.414062 L 105.511719 264.492188 M 97.566406 291.414062 L 132.882812 263.285156 M 97.933594 57.816406 L 53.65625 25.9375 M 97.933594 57.816406 L 119.03125 51.046875 M 99.640625 21.960938 L 61.820312 16.746094 M 99.640625 21.960938 L 117.4375 48.652344 M 99.726562 284.097656 L 78.082031 231.777344 M 99.726562 284.097656 L 95.542969 298.277344 M 100.546875 150.820312 L 89.90625 134.855469 M 100.546875 150.820312 L 111.046875 124.488281 M 102.28125 194.65625 L 106.566406 180.152344 M 102.28125 194.65625 L 117.886719 206.15625 M 105.511719 264.492188 L 112 242.496094 M 105.511719 264.492188 L 132.882812 263.285156 M 106.050781 308.425781 L 83.152344 314.132812 M 106.050781 308.425781 L 85 340 M 106.394531 63.90625 L 107.347656 83.464844 M 106.394531 63.90625 L 135.839844 85.105469 M 106.566406 180.152344 L 93.617188 223.992188 M 106.566406 180.152344 L 112.511719 171.234375 M 107.347656 83.464844 L 90.113281 71.96875 M 107.347656 83.464844 L 106.394531 63.90625 M 107.777344 256.808594 L 74.285156 228.574219 M 107.777344 256.808594 L 99.726562 284.097656 M 108.769531 304.347656 L 95.542969 298.277344 M 108.769531 304.347656 L 106.050781 308.425781 M 111.046875 124.488281 L 114.308594 116.3125 M 111.046875 124.488281 L 125.164062 170.59375 M 112 242.496094 L 118.726562 219.703125 M 112 242.496094 L 131.703125 263.335938 M 112.105469 110.8125 L 113.894531 108.878906 M 112.105469 110.8125 L 114.308594 116.3125 M 112.511719 171.234375 L 113.335938 170 M 112.511719 171.234375 L 123.402344 179.210938 M 113.335938 0 L 154.894531 0 M 113.335938 170 L 100.546875 150.820312 M 113.335938 340 L 126.394531 320.410156 M 113.871094 236.152344 L 76.320312 226.949219 M 113.871094 236.152344 L 107.777344 256.808594 M 113.894531 108.878906 L 131.5 89.808594 M 113.894531 108.878906 L 168.34375 125.011719 M 114.308594 116.3125 L 100.546875 150.820312 M 114.308594 116.3125 L 128.847656 152.597656 M 114.984375 220.34375 L 93.617188 223.992188 M 114.984375 220.34375 L 119.933594 196.15625 M 115.953125 120.414062 L 112.105469 110.8125 M 115.953125 120.414062 L 116.433594 120.53125 M 116.433594 120.53125 L 148.128906 128.203125 M 116.433594 120.53125 L 148.457031 141.851562 M 117.4375 48.652344 L 77.714844 34.507812 M 117.4375 48.652344 L 119.03125 51.046875 M 117.886719 206.15625 L 102.28125 194.65625 M 117.886719 206.15625 L 114.984375 220.34375 M 118.726562 219.703125 L 113.871094 236.152344 M 118.726562 219.703125 L 126.070312 218.449219 M 119.03125 51.046875 L 97.933594 57.816406 M 119.03125 51.046875 L 139.265625 81.398438 M 119.933594 196.15625 L 128.847656 152.597656 M 119.933594 196.15625 L 144.707031 215.265625 M 123.402344 179.210938 L 112.511719 171.234375 M 123.402344 179.210938 L 117.886719 206.15625 M 123.570312 15.355469 L 113.335938 0 M 123.570312 15.355469 L 155.414062 1.457031 M 123.734375 98.222656 L 93.15625 94.300781 M 123.734375 98.222656 L 97.550781 126.574219 M 125.164062 170.59375 L 111.046875 124.488281 M 125.164062 170.59375 L 123.402344 179.210938 M 125.921875 95.851562 L 107.347656 83.464844 M 125.921875 95.851562 L 123.734375 98.222656 M 126.070312 218.449219 L 127.375 218.226562 M 126.070312 218.449219 L 136.890625 262.167969 M 126.394531 320.410156 L 141.773438 297.339844 M 126.394531 320.410156 L 152.722656 319.25 M 126.675781 201.359375 L 119.933594 196.15625 M 126.675781 201.359375 L 144.234375 190.988281 M 127.375 218.226562 L 153.371094 213.785156 M 127.375 218.226562 L 154.484375 235.777344 M 128.847656 152.597656 L 125.164062 170.59375 M 128.847656 152.597656 L 144.234375 190.988281 M 130.710938 157.246094 L 115.953125 120.414062 M 130.710938 157.246094 L 145.164062 156.070312 M 131.5 89.808594 L 139.265625 81.398438 M 131.5 89.808594 L 141.105469 116.941406 M 131.703125 263.335938 L 105.511719 264.492188 M 131.703125 263.335938 L 112 242.496094 M 132.882812 263.285156 L 97.566406 291.414062 M 132.882812 263.285156 L 136.242188 263.136719 M 134.988281 32.480469 L 123.570312 15.355469 M 134.988281 32.480469 L 147.292969 19.230469 M 135.839844 85.105469 L 97.933594 57.816406 M 135.839844 85.105469 L 125.921875 95.851562 M 136.242188 263.136719 L 108.769531 304.347656 M 136.242188 263.136719 L 131.703125 263.335938 M 136.890625 262.167969 L 126.070312 218.449219 M 136.890625 262.167969 L 136.242188 263.136719 M 137.628906 174.503906 L 130.710938 157.246094 M 137.628906 174.503906 L 154.71875 167.050781 M 139.265625 81.398438 L 135.839844 85.105469 M 139.265625 81.398438 L 168.34375 125.011719 M 141.105469 116.941406 L 113.894531 108.878906 M 141.105469 116.941406 L 131.5 89.808594 M 141.773438 297.339844 L 143.101562 295.347656 M 141.773438 297.339844 L 156.085938 306.953125 M 143.101562 295.347656 L 147.5 288.75 M 143.101562 295.347656 L 153.40625 294.027344 M 144.234375 190.988281 L 126.675781 201.359375 M 144.234375 190.988281 L 153.371094 213.785156 M 144.707031 215.265625 L 114.984375 220.34375 M 144.707031 215.265625 L 126.675781 201.359375 M 145.164062 156.070312 L 154.71875 167.050781 M 145.164062 156.070312 L 177.953125 153.402344 M 147.050781 340 L 113.335938 340 M 147.050781 340 L 154.222656 313.761719 M 147.292969 19.230469 L 155.160156 57.277344 M 147.292969 19.230469 L 157.753906 7.972656 M 147.5 288.75 L 155.316406 277.027344 M 147.5 288.75 L 199.820312 274.777344 M 147.769531 199.808594 L 137.628906 174.503906 M 147.769531 199.808594 L 154.246094 191.441406 M 148.128906 128.203125 L 148.457031 141.851562 M 148.128906 128.203125 L 168.929688 133.238281 M 148.457031 141.851562 L 116.433594 120.53125 M 148.457031 141.851562 L 148.792969 155.773438 M 148.671875 150.859375 L 148.128906 128.203125 M 148.671875 150.859375 L 168.929688 133.238281 M 148.792969 155.773438 L 130.710938 157.246094 M 148.792969 155.773438 L 148.671875 150.859375 M 152.71875 59.074219 L 134.988281 32.480469 M 152.71875 59.074219 L 171.191406 45.460938 M 152.722656 319.25 L 126.394531 320.410156 M 152.722656 319.25 L 147.050781 340 M 153.371094 213.785156 L 144.707031 215.265625 M 153.371094 213.785156 L 159.292969 228.5625 M 153.40625 294.027344 L 174.203125 291.363281 M 153.40625 294.027344 L 178.65625 321.347656 M 154.222656 313.761719 L 156.085938 306.953125 M 154.222656 313.761719 L 167.207031 340 M 154.246094 191.441406 L 164.460938 178.242188 M 154.246094 191.441406 L 177.765625 200.855469 M 154.484375 235.777344 L 127.375 218.226562 M 154.484375 235.777344 L 136.890625 262.167969 M 154.71875 167.050781 L 137.628906 174.503906 M 154.71875 167.050781 L 164.460938 178.242188 M 154.894531 0 L 155.414062 1.457031 M 154.894531 0 L 198.335938 0 M 155.160156 57.277344 L 147.292969 19.230469 M 155.160156 57.277344 L 152.71875 59.074219 M 155.316406 277.027344 L 161.492188 267.761719 M 155.316406 277.027344 L 184.851562 266.28125 M 155.414062 1.457031 L 123.570312 15.355469 M 155.414062 1.457031 L 157.753906 7.972656 M 156.085938 306.953125 L 152.722656 319.25 M 156.085938 306.953125 L 176.140625 320.429688 M 157.753906 7.972656 L 134.988281 32.480469 M 157.753906 7.972656 L 171.191406 45.460938 M 159.292969 228.5625 L 147.769531 199.808594 M 159.292969 228.5625 L 154.484375 235.777344 M 161.492188 267.761719 L 184.117188 233.824219 M 161.492188 267.761719 L 201.214844 248.792969 M 161.652344 175.015625 L 145.164062 156.070312 M 161.652344 175.015625 L 194.304688 163.957031 M 162.769531 331.03125 L 154.222656 313.761719 M 162.769531 331.03125 L 176.140625 320.429688 M 164.335938 26.339844 L 154.894531 0 M 164.335938 26.339844 L 165.015625 25.816406 M 164.460938 178.242188 L 147.769531 199.808594 M 164.460938 178.242188 L 180.53125 196.707031 M 165.015625 25.816406 L 195.269531 23.457031 M 165.015625 25.816406 L 198.390625 0.0859375 M 167.207031 340 L 147.050781 340 M 167.207031 340 L 162.769531 331.03125 M 167.671875 81.503906 L 152.71875 59.074219 M 167.671875 81.503906 L 173.753906 68.707031 M 168.34375 125.011719 L 141.105469 116.941406 M 168.34375 125.011719 L 174.769531 134.652344 M 168.929688 133.238281 L 148.671875 150.859375 M 168.929688 133.238281 L 174.769531 134.652344 M 170.519531 172.015625 L 161.652344 175.015625 M 170.519531 172.015625 L 177.953125 153.402344 M 171.191406 45.460938 L 155.160156 57.277344 M 171.191406 45.460938 L 177.046875 61.785156 M 173.753906 68.707031 L 193.324219 27.550781 M 173.753906 68.707031 L 197.675781 74.4375 M 174.203125 291.363281 L 193.015625 303.667969 M 174.203125 291.363281 L 214.828125 286.160156 M 174.769531 134.652344 L 115.953125 120.414062 M 174.769531 134.652344 L 186.789062 152.683594 M 176.140625 320.429688 L 162.769531 331.03125 M 176.140625 320.429688 L 200.480469 336.78125 M 177.046875 61.785156 L 164.335938 26.339844 M 177.046875 61.785156 L 167.671875 81.503906 M 177.765625 200.855469 L 154.246094 191.441406 M 177.765625 200.855469 L 159.292969 228.5625 M 177.953125 153.402344 L 170.519531 172.015625 M 177.953125 153.402344 L 186.789062 152.683594 M 178.253906 321.847656 L 141.773438 297.339844 M 178.253906 321.847656 L 193.015625 303.667969 M 178.65625 321.347656 L 153.40625 294.027344 M 178.65625 321.347656 L 178.253906 321.847656 M 180.53125 196.707031 L 161.652344 175.015625 M 180.53125 196.707031 L 177.765625 200.855469 M 183 290.238281 L 143.101562 295.347656 M 183 290.238281 L 214.980469 260.84375 M 183.539062 105.308594 L 167.671875 81.503906 M 183.539062 105.308594 L 184.261719 103.730469 M 184.117188 233.824219 L 186.398438 230.40625 M 184.117188 233.824219 L 201.214844 248.792969 M 184.261719 103.730469 L 188.117188 101.507812 M 184.261719 103.730469 L 206.035156 56.179688 M 184.429688 71.265625 L 173.753906 68.707031 M 184.429688 71.265625 L 196.816406 35.421875 M 184.851562 266.28125 L 205.652344 269.417969 M 184.851562 266.28125 L 210.523438 256.941406 M 186.398438 230.40625 L 191.316406 223.027344 M 186.398438 230.40625 L 214.304688 233.738281 M 186.789062 152.683594 L 148.792969 155.773438 M 186.789062 152.683594 L 194.304688 163.957031 M 188.117188 101.507812 L 208.117188 116.152344 M 188.117188 101.507812 L 218.40625 84.039062 M 191.316406 223.027344 L 216.273438 218.480469 M 191.316406 223.027344 L 220.207031 179.691406 M 193.015625 303.667969 L 178.65625 321.347656 M 193.015625 303.667969 L 213.585938 317.121094 M 193.324219 27.550781 L 196.816406 35.421875 M 193.324219 27.550781 L 203.054688 7.078125 M 194.304688 163.957031 L 170.519531 172.015625 M 194.304688 163.957031 L 198.335938 170 M 195.269531 23.457031 L 165.015625 25.816406 M 195.269531 23.457031 L 177.046875 61.785156 M 196.816406 35.421875 L 184.429688 71.265625 M 196.816406 35.421875 L 206.035156 56.179688 M 197.675781 74.4375 L 183.539062 105.308594 M 197.675781 74.4375 L 184.429688 71.265625 M 198.335938 0 L 198.390625 0.0859375 M 198.335938 170 L 180.53125 196.707031 M 198.335938 340 L 167.207031 340 M 198.390625 0.0859375 L 164.335938 26.339844 M 198.390625 0.0859375 L 203.054688 7.078125 M 199.820312 274.777344 L 147.5 288.75 M 199.820312 274.777344 L 183 290.238281 M 200.480469 336.78125 L 178.253906 321.847656 M 200.480469 336.78125 L 198.335938 340 M 200.726562 308.710938 L 174.203125 291.363281 M 200.726562 308.710938 L 214.828125 286.160156 M 201.214844 248.792969 L 161.492188 267.761719 M 201.214844 248.792969 L 210.523438 256.941406 M 201.664062 46.335938 L 193.324219 27.550781 M 201.664062 46.335938 L 218.734375 30.601562 M 202.109375 133.15625 L 183.539062 105.308594 M 202.109375 133.15625 L 218.9375 85.523438 M 203.054688 7.078125 L 195.269531 23.457031 M 203.054688 7.078125 L 218.734375 30.601562 M 205.652344 269.417969 L 184.851562 266.28125 M 205.652344 269.417969 L 199.820312 274.777344 M 206.035156 56.179688 L 197.675781 74.4375 M 206.035156 56.179688 L 218.40625 84.039062 M 207.148438 140.722656 L 202.109375 133.15625 M 207.148438 140.722656 L 213.980469 140.316406 M 208.117188 116.152344 L 188.117188 101.507812 M 208.117188 116.152344 L 202.109375 133.15625 M 208.144531 287.019531 L 183 290.238281 M 208.144531 287.019531 L 220.210938 265.425781 M 208.640625 62.050781 L 201.664062 46.335938 M 208.640625 62.050781 L 222.605469 36.410156 M 210.523438 256.941406 L 155.316406 277.027344 M 210.523438 256.941406 L 214.980469 260.84375 M 210.824219 66.96875 L 208.640625 62.050781 M 210.824219 66.96875 L 235.777344 56.164062 M 213.585938 317.121094 L 200.480469 336.78125 M 213.585938 317.121094 L 200.726562 308.710938 M 213.625 233.660156 L 186.398438 230.40625 M 213.625 233.660156 L 216.597656 216.613281 M 213.980469 140.316406 L 237.597656 152.914062 M 213.980469 140.316406 L 239.183594 138.828125 M 214.304688 233.738281 L 216.867188 262.496094 M 214.304688 233.738281 L 227.726562 235.34375 M 214.828125 286.160156 L 200.726562 308.710938 M 214.828125 286.160156 L 236.039062 283.445312 M 214.980469 260.84375 L 205.652344 269.417969 M 214.980469 260.84375 L 220.210938 265.425781 M 216.273438 218.480469 L 191.316406 223.027344 M 216.273438 218.480469 L 213.625 233.660156 M 216.597656 216.613281 L 222.445312 183.070312 M 216.597656 216.613281 L 257.777344 238.9375 M 216.675781 260.339844 L 214.304688 233.738281 M 216.675781 260.339844 L 241.175781 250.136719 M 216.867188 262.496094 L 184.117188 233.824219 M 216.867188 262.496094 L 216.675781 260.339844 M 217.824219 82.734375 L 210.824219 66.96875 M 217.824219 82.734375 L 237.425781 58.636719 M 218.40625 84.039062 L 184.261719 103.730469 M 218.40625 84.039062 L 218.992188 85.363281 M 218.734375 30.601562 L 201.664062 46.335938 M 218.734375 30.601562 L 222.605469 36.410156 M 218.9375 85.523438 L 218.992188 85.363281 M 218.9375 85.523438 L 220.636719 139.925781 M 218.992188 85.363281 L 208.117188 116.152344 M 218.992188 85.363281 L 242.644531 138.625 M 220.207031 179.691406 L 222.445312 183.070312 M 220.207031 179.691406 L 226.667969 170 M 220.210938 265.425781 L 208.144531 287.019531 M 220.210938 265.425781 L 237.792969 280.816406 M 220.304688 160.453125 L 207.148438 140.722656 M 220.304688 160.453125 L 225.804688 158.058594 M 220.636719 139.925781 L 207.148438 140.722656 M 220.636719 139.925781 L 218.9375 85.523438 M 222.445312 183.070312 L 216.273438 218.480469 M 222.445312 183.070312 L 229 192.960938 M 222.605469 36.410156 L 208.640625 62.050781 M 222.605469 36.410156 L 235.777344 56.164062 M 225.804688 158.058594 L 237.597656 152.914062 M 225.804688 158.058594 L 239.957031 180.71875 M 226.667969 170 L 220.304688 160.453125 M 227.726562 235.34375 L 241.175781 250.136719 M 227.726562 235.34375 L 259.609375 239.15625 M 228.707031 192.519531 L 220.207031 179.691406 M 228.707031 192.519531 L 251.875 168.214844 M 229 192.960938 L 232.324219 225.136719 M 229 192.960938 L 259.609375 239.15625 M 229.8125 109.726562 L 217.824219 82.734375 M 229.8125 109.726562 L 235.042969 78.625 M 231.464844 196.679688 L 228.707031 192.519531 M 231.464844 196.679688 L 260.757812 191.839844 M 232.324219 225.136719 L 216.597656 216.613281 M 232.324219 225.136719 L 229 192.960938 M 232.996094 116.898438 L 229.8125 109.726562 M 232.996094 116.898438 L 240.175781 114.761719 M 235.042969 78.625 L 238.207031 59.804688 M 235.042969 78.625 L 250.652344 111.640625 M 235.777344 56.164062 L 210.824219 66.96875 M 235.777344 56.164062 L 237.425781 58.636719 M 236.039062 283.445312 L 208.144531 287.019531 M 236.039062 283.445312 L 213.585938 317.121094 M 236.140625 203.734375 L 231.464844 196.679688 M 236.140625 203.734375 L 259.175781 205.007812 M 237.425781 58.636719 L 217.824219 82.734375 M 237.425781 58.636719 L 238.207031 59.804688 M 237.597656 152.914062 L 220.304688 160.453125 M 237.597656 152.914062 L 256.730469 163.117188 M 237.792969 280.816406 L 216.867188 262.496094 M 237.792969 280.816406 L 236.039062 283.445312 M 238.207031 59.804688 L 229.8125 109.726562 M 238.207031 59.804688 L 260.351562 93.027344 M 239.183594 138.828125 L 276.710938 166.429688 M 239.183594 138.828125 L 279.304688 136.457031 M 239.957031 180.71875 L 225.804688 158.058594 M 239.957031 180.71875 L 228.707031 192.519531 M 240.175781 114.761719 L 269.097656 106.148438 M 240.175781 114.761719 L 274.816406 136.722656 M 241.105469 115.347656 L 240.175781 114.761719 M 241.105469 115.347656 L 277.019531 118.027344 M 241.175781 250.136719 L 216.675781 260.339844 M 241.175781 250.136719 L 251.027344 260.964844 M 242.496094 94.390625 L 235.042969 78.625 M 242.496094 94.390625 L 260.351562 93.027344 M 242.644531 138.625 L 220.636719 139.925781 M 242.644531 138.625 L 232.996094 116.898438 M 247.160156 220.367188 L 236.140625 203.734375 M 247.160156 220.367188 L 282.617188 238.257812 M 250.652344 111.640625 L 232.996094 116.898438 M 250.652344 111.640625 L 242.496094 94.390625 M 251.027344 260.964844 L 227.726562 235.34375 M 251.027344 260.964844 L 237.792969 280.816406 M 251.175781 193.421875 L 231.464844 196.679688 M 251.175781 193.421875 L 251.875 168.214844 M 251.875 168.214844 L 251.175781 193.421875 M 251.875 168.214844 L 256.730469 163.117188 M 256.449219 225.054688 L 247.160156 220.367188 M 256.449219 225.054688 L 259.175781 205.007812 M 256.730469 163.117188 L 239.957031 180.71875 M 256.730469 163.117188 L 276.101562 173.453125 M 257.777344 238.9375 L 213.625 233.660156 M 257.777344 238.9375 L 232.324219 225.136719 M 259.175781 205.007812 L 256.449219 225.054688 M 259.175781 205.007812 L 272.347656 205.734375 M 259.609375 239.15625 L 257.777344 238.9375 M 259.609375 239.15625 L 262.578125 243.636719 M 260.351562 93.027344 L 242.496094 94.390625 M 260.351562 93.027344 L 269.097656 106.148438 M 260.757812 191.839844 L 269.230469 205.5625 M 260.757812 191.839844 L 299.078125 185.507812 M 261.960938 227.835938 L 256.449219 225.054688 M 261.960938 227.835938 L 279.488281 217.292969 M 262.363281 194.441406 L 260.757812 191.839844 M 262.363281 194.441406 L 302.1875 200.113281 M 262.578125 243.636719 L 247.160156 220.367188 M 262.578125 243.636719 L 251.027344 260.964844 M 269.097656 106.148438 L 250.652344 111.640625 M 269.097656 106.148438 L 277.019531 118.027344 M 269.167969 233.75 L 262.578125 243.636719 M 269.230469 205.5625 L 236.140625 203.734375 M 269.230469 205.5625 L 262.363281 194.441406 M 272.347656 205.734375 L 279.488281 217.292969 M 272.347656 205.734375 L 337.90625 209.359375 M 274.710938 189.53125 L 251.175781 193.421875 M 274.710938 189.53125 L 277.019531 162.863281 M 274.816406 136.722656 L 241.105469 115.347656 M 274.816406 136.722656 L 242.644531 138.625 M 276.101562 173.453125 L 213.980469 140.316406 M 276.101562 173.453125 L 274.710938 189.53125 M 276.710938 166.429688 L 239.183594 138.828125 M 276.710938 166.429688 L 276.101562 173.453125 M 277.019531 118.027344 L 241.105469 115.347656 M 277.019531 118.027344 L 288.925781 135.886719 M 277.019531 162.863281 L 277.945312 152.152344 M 277.019531 162.863281 L 304.222656 184.65625 M 277.945312 152.152344 L 279.304688 136.457031 M 277.945312 152.152344 L 316.175781 176.761719 M 279.304688 136.457031 L 276.710938 166.429688 M 279.304688 136.457031 L 288.925781 135.886719 M 279.488281 217.292969 L 261.960938 227.835938 M 279.488281 217.292969 L 296.886719 245.457031 M 282.617188 238.257812 L 293.957031 266.695312 M 282.617188 238.257812 L 296.886719 245.457031 M 282.617188 222.363281 L 272.347656 205.734375 M 282.617188 222.363281 L 313.089844 217.261719 M 288.925781 135.886719 L 274.816406 136.722656 M 288.925781 135.886719 L 316.175781 176.761719 M 291.507812 267.261719 L 269.167969 233.75 M 291.507812 267.261719 L 349.539062 253.859375 M 292.78125 99.167969 L 314.292969 99.167969 M 293.957031 266.695312 L 282.617188 238.257812 M 293.957031 266.695312 L 291.507812 267.261719 M 296.886719 245.457031 L 261.960938 227.835938 M 296.886719 245.457031 L 308.003906 263.453125 M 298.953125 278.429688 L 291.507812 267.261719 M 298.953125 278.429688 L 332.402344 270.429688 M 299.078125 185.507812 L 302.1875 200.113281 M 299.078125 185.507812 L 319.730469 182.09375 M 302.1875 200.113281 L 262.363281 194.441406 M 302.1875 200.113281 L 303.757812 207.472656 M 303.757812 207.472656 L 269.230469 205.5625 M 303.757812 207.472656 L 299.078125 185.507812 M 304.222656 184.65625 L 274.710938 189.53125 M 304.222656 184.65625 L 277.019531 162.863281 M 305.289062 259.054688 L 282.617188 222.363281 M 305.289062 259.054688 L 313.089844 217.261719 M 308.003906 263.453125 L 293.957031 266.695312 M 308.003906 263.453125 L 305.289062 259.054688 M 309.046875 123.570312 L 292.78125 99.167969 M 309.046875 123.570312 L 313.570312 118.027344 M 313.089844 217.261719 L 305.289062 259.054688 M 313.089844 217.261719 L 319.410156 216.203125 M 313.570312 118.027344 L 324.40625 104.75 M 313.570312 118.027344 L 342.3125 125.253906 M 314.292969 99.167969 L 324.40625 104.75 M 314.292969 99.167969 L 360.480469 99.167969 M 314.867188 302.300781 L 298.953125 278.429688 M 314.867188 302.300781 L 371.808594 260.210938 M 316.175781 176.761719 L 277.945312 152.152344 M 316.175781 176.761719 L 319.730469 182.09375 M 316.351562 208.167969 L 303.757812 207.472656 M 316.351562 208.167969 L 321.859375 185.285156 M 317.417969 261.277344 L 308.003906 263.453125 M 317.417969 261.277344 L 322.53125 253.753906 M 319.410156 216.203125 L 324.304688 251.140625 M 319.410156 216.203125 L 340.152344 212.730469 M 319.730469 182.09375 L 304.222656 184.65625 M 319.730469 182.09375 L 321.859375 185.285156 M 321.859375 185.285156 L 316.351562 208.167969 M 321.859375 185.285156 L 337.90625 209.359375 M 322.4375 143.652344 L 309.046875 123.570312 M 322.4375 143.652344 L 343.554688 124.101562 M 322.53125 253.753906 L 345.230469 220.34375 M 322.53125 253.753906 L 358.519531 240.277344 M 323.695312 315.542969 L 314.867188 302.300781 M 323.695312 315.542969 L 340.175781 296.804688 M 324.304688 251.140625 L 317.417969 261.277344 M 324.304688 251.140625 L 319.410156 216.203125 M 324.40625 104.75 L 309.046875 123.570312 M 324.40625 104.75 L 349.5 118.597656 M 329.238281 323.855469 L 323.695312 315.542969 M 329.238281 323.855469 L 338.332031 315.144531 M 330.558594 155.835938 L 322.4375 143.652344 M 332.402344 270.429688 L 332.566406 289.21875 M 332.402344 270.429688 L 370.234375 261.375 M 332.566406 289.21875 L 314.867188 302.300781 M 332.566406 289.21875 L 332.402344 270.429688 M 337.90625 209.359375 L 316.351562 208.167969 M 337.90625 209.359375 L 340.152344 212.730469 M 338.332031 315.144531 L 344.761719 317.6875 M 338.332031 315.144531 L 357.871094 296.429688 M 340 340 L 329.238281 323.855469 M 340.152344 212.730469 L 282.617188 222.363281 M 340.152344 212.730469 L 345.230469 220.34375 M 340.175781 296.804688 L 344.183594 309.539062 M 340.175781 296.804688 L 347.566406 288.402344 M 340.726562 268.4375 L 298.953125 278.429688 M 340.726562 268.4375 L 349.539062 253.859375 M 342.3125 125.253906 L 313.570312 118.027344 M 342.3125 125.253906 L 322.4375 143.652344 M 343.554688 124.101562 L 346.734375 121.15625 M 343.554688 124.101562 L 350.546875 155.835938 M 344.183594 309.539062 L 329.238281 323.855469 M 344.183594 309.539062 L 340.175781 296.804688 M 344.761719 317.6875 L 356.546875 340 M 344.761719 317.6875 L 401.207031 340 M 345.230469 220.34375 L 324.304688 251.140625 M 345.230469 220.34375 L 358.519531 240.277344 M 346.734375 121.15625 L 349.5 118.597656 M 346.734375 121.15625 L 375.066406 155.835938 M 347.566406 288.402344 L 368.042969 286.683594 M 347.566406 288.402344 L 372.046875 260.570312 M 349.449219 184.167969 L 374.949219 184.167969 M 349.5 118.597656 L 342.3125 125.253906 M 349.5 118.597656 L 382.128906 136.605469 M 349.539062 253.859375 L 340.726562 268.4375 M 349.539062 253.859375 L 365.167969 250.25 M 350.546875 155.835938 L 330.558594 155.835938 M 350.546875 155.835938 L 343.554688 124.101562 M 356.546875 340 L 340 340 M 356.546875 340 L 344.761719 317.6875 M 357.871094 296.429688 L 372.0625 308.085938 M 357.871094 296.429688 L 381.113281 274.167969 M 358.519531 240.277344 L 322.53125 253.753906 M 358.519531 240.277344 L 365.167969 250.25 M 360.480469 99.167969 L 361.222656 125.070312 M 360.480469 99.167969 L 364.027344 99.167969 M 361.222656 125.070312 L 314.292969 99.167969 M 361.222656 125.070312 L 360.480469 99.167969 M 361.457031 202.183594 L 349.449219 184.167969 M 361.457031 202.183594 L 374.949219 184.167969 M 362.296875 324.621094 L 338.332031 315.144531 M 362.296875 324.621094 L 375.527344 302.21875 M 363.90625 126.550781 L 361.222656 125.070312 M 363.90625 126.550781 L 373.9375 107.492188 M 364.027344 99.167969 L 373.9375 107.492188 M 364.027344 99.167969 L 393.324219 99.167969 M 365.167969 250.25 L 317.417969 261.277344 M 365.167969 250.25 L 371.808594 260.210938 M 365.519531 208.277344 L 361.457031 202.183594 M 365.519531 208.277344 L 384.804688 210.378906 M 368.042969 286.683594 L 344.183594 309.539062 M 368.042969 286.683594 L 347.566406 288.402344 M 370.234375 261.375 L 332.566406 289.21875 M 370.234375 261.375 L 340.726562 268.4375 M 371.808594 260.210938 L 370.234375 261.375 M 371.808594 260.210938 L 372.046875 260.570312 M 371.957031 208.980469 L 365.519531 208.277344 M 371.957031 208.980469 L 423 184.167969 M 372.046875 260.570312 L 323.695312 315.542969 M 372.046875 260.570312 L 381.113281 274.167969 M 372.0625 308.085938 L 357.871094 296.429688 M 372.0625 308.085938 L 362.296875 324.621094 M 373.9375 107.492188 L 363.90625 126.550781 M 373.9375 107.492188 L 395.835938 125.878906 M 374.949219 184.167969 L 361.457031 202.183594 M 374.949219 184.167969 L 378.175781 184.167969 M 375.066406 155.835938 L 346.734375 121.15625 M 375.066406 155.835938 L 350.546875 155.835938 M 375.527344 302.21875 L 386.933594 282.898438 M 375.527344 302.21875 L 395.796875 337.859375 M 378.175781 184.167969 L 394.539062 198 M 378.175781 184.167969 L 423 184.167969 M 380.550781 230.824219 L 365.519531 208.277344 M 380.550781 230.824219 L 399.246094 220.761719 M 381.113281 274.167969 L 368.042969 286.683594 M 381.113281 274.167969 L 386.933594 282.898438 M 382.128906 136.605469 L 389.320312 155.835938 M 382.128906 136.605469 L 416.96875 155.835938 M 384.804688 210.378906 L 399.246094 220.761719 M 384.804688 210.378906 L 446.824219 217.132812 M 386.933594 282.898438 L 372.0625 308.085938 M 386.933594 282.898438 L 399.675781 302.011719 M 387.222656 240.835938 L 380.550781 230.824219 M 389.320312 155.835938 L 375.066406 155.835938 M 389.320312 155.835938 L 382.128906 136.605469 M 390.636719 328.792969 L 375.527344 302.21875 M 390.636719 328.792969 L 399.675781 302.011719 M 393.324219 99.167969 L 399.816406 129.21875 M 393.324219 99.167969 L 421.902344 99.167969 M 393.789062 143.039062 L 363.90625 126.550781 M 393.789062 143.039062 L 395.835938 125.878906 M 394.539062 198 L 371.957031 208.980469 M 394.539062 198 L 378.175781 184.167969 M 395.796875 337.859375 L 362.296875 324.621094 M 395.796875 337.859375 L 390.636719 328.792969 M 395.835938 125.878906 L 393.789062 143.039062 M 395.835938 125.878906 L 416.613281 143.320312 M 398.085938 211.824219 L 371.957031 208.980469 M 398.085938 211.824219 L 434.515625 188.226562 M 398.96875 125.277344 L 393.324219 99.167969 M 398.96875 125.277344 L 421.902344 99.167969 M 399.246094 220.761719 L 380.550781 230.824219 M 399.246094 220.761719 L 400.59375 221.730469 M 399.675781 302.011719 L 390.636719 328.792969 M 399.675781 302.011719 L 401.449219 304.675781 M 399.816406 129.21875 L 364.027344 99.167969 M 399.816406 129.21875 L 398.96875 125.277344 M 400.59375 221.730469 L 401.714844 240.835938 M 400.59375 221.730469 L 427.164062 240.835938 M 401.207031 340 L 356.546875 340 M 401.207031 340 L 395.796875 337.859375 M 401.449219 304.675781 L 405.28125 340 M 401.449219 304.675781 L 425 340 M 401.714844 240.835938 L 387.222656 240.835938 M 401.714844 240.835938 L 400.59375 221.730469 M 405.28125 340 L 401.207031 340 M 405.28125 340 L 401.449219 304.675781 M 414.019531 154.207031 L 393.789062 143.039062 M 414.019531 154.207031 L 419.183594 132.503906 M 414.621094 231.816406 L 384.804688 210.378906 M 414.621094 231.816406 L 446.824219 217.132812 M 414.757812 213.640625 L 398.085938 211.824219 M 414.757812 213.640625 L 437.636719 193.839844 M 416.613281 143.320312 L 399.816406 129.21875 M 416.613281 143.320312 L 414.019531 154.207031 M 416.96875 155.835938 L 389.320312 155.835938 M 416.96875 155.835938 L 414.019531 154.207031 M 419.183594 132.503906 L 422.707031 117.707031 M 419.183594 132.503906 L 441.527344 142.988281 M 421.902344 99.167969 L 398.96875 125.277344 M 421.902344 99.167969 L 427.117188 99.167969 M 422.707031 117.707031 L 427.117188 99.167969 M 422.707031 117.707031 L 441.960938 130.179688 M 423 184.167969 L 394.539062 198 M 423 184.167969 L 432.257812 184.167969 M 425 340 L 405.28125 340 M 427.117188 99.167969 L 416.613281 143.320312 M 427.117188 99.167969 L 443.015625 99.167969 M 427.164062 240.835938 L 401.714844 240.835938 M 427.164062 240.835938 L 414.621094 231.816406 M 429.160156 240.835938 L 427.164062 240.835938 M 429.160156 240.835938 L 454.101562 223.4375 M 432.257812 184.167969 L 434.515625 188.226562 M 432.257812 184.167969 L 481.667969 184.164062 M 434.28125 187.804688 L 432.257812 184.167969 M 434.28125 187.804688 L 480.164062 203.679688 M 434.515625 188.226562 L 398.085938 211.824219 M 434.515625 188.226562 L 437.636719 193.839844 M 437.636719 193.839844 L 414.757812 213.640625 M 437.636719 193.839844 L 450.839844 217.570312 M 441.089844 155.835938 L 416.96875 155.835938 M 441.089844 155.835938 L 443.015625 99.167969 M 441.527344 142.988281 L 419.183594 132.503906 M 441.527344 142.988281 L 441.089844 155.835938 M 441.960938 130.179688 L 422.707031 117.707031 M 441.960938 130.179688 L 441.527344 142.988281 M 442.820312 155.835938 L 441.089844 155.835938 M 442.820312 155.835938 L 452.707031 141.214844 M 443.015625 99.167969 L 441.960938 130.179688 M 443.015625 99.167969 L 449.351562 99.167969 M 446.824219 217.132812 L 414.621094 231.816406 M 446.824219 217.132812 L 450.839844 217.570312 M 449.351562 99.167969 L 451.390625 143.160156 M 449.351562 99.167969 L 456.238281 99.164062 M 450.839844 217.570312 L 414.757812 213.640625 M 450.839844 217.570312 L 454.101562 223.4375 M 451.390625 143.160156 L 442.820312 155.835938 M 451.390625 143.160156 L 449.351562 99.167969 M 452.09375 219.824219 L 434.28125 187.804688 M 452.09375 219.824219 L 459.546875 215.535156 M 452.707031 141.214844 L 468.066406 118.5 M 452.707031 141.214844 L 475.082031 155.835938 M 454.101562 223.4375 L 429.160156 240.835938 M 454.101562 223.4375 L 463.78125 240.835938 M 456.238281 99.164062 L 457.539062 134.070312 M 456.238281 99.164062 L 463.011719 99.164062 M 457.539062 134.070312 L 451.390625 143.160156 M 457.539062 134.070312 L 456.238281 99.164062 M 459.546875 215.535156 L 474.566406 240.835938 M 459.546875 215.535156 L 481.667969 202.8125 M 463.011719 99.164062 L 468.066406 118.5 M 463.011719 99.164062 L 481.667969 99.164062 M 463.78125 240.835938 L 429.160156 240.835938 M 463.78125 240.835938 L 452.09375 219.824219 M 468.066406 118.5 L 457.539062 134.070312 M 468.066406 118.5 L 477.824219 155.835938 M 468.222656 119.089844 L 463.011719 99.164062 M 468.222656 119.089844 L 481.667969 120.28125 M 474.566406 240.835938 L 459.546875 215.535156 M 474.566406 240.835938 L 463.78125 240.835938 M 475.082031 155.835938 L 442.820312 155.835938 M 475.082031 155.835938 L 452.707031 141.214844 M 477.824219 155.835938 L 468.222656 119.089844 M 477.824219 155.835938 L 475.082031 155.835938 M 480.164062 203.679688 L 434.28125 187.804688 M 480.164062 203.679688 L 452.09375 219.824219 M 481.667969 99.164062 L 481.667969 120.28125 M 481.667969 120.28125 L 468.222656 119.089844 M 481.667969 120.28125 L 481.667969 155.835938 M 481.667969 155.835938 L 477.824219 155.835938 M 481.667969 184.164062 L 481.667969 202.8125 M 481.667969 240.835938 L 474.566406 240.835938 M 481.667969 202.8125 L 480.164062 203.679688 M 481.667969 202.8125 L 481.667969 240.835938 " transform="matrix(1,0,0,1,10,10)"/>
</g>
</svg>
