<?xml version="1.0" encoding="UTF-8"?>
<svg xmlns="http://www.w3.org/2000/svg" xmlns:xlink="http://www.w3.org/1999/xlink" width="300pt" height="300pt" viewBox="0 0 300 300" version="1.1">
<g id="id1">
<path style="fill:none;stroke-width:1;stroke-linecap:butt;stroke-linejoin:miter;stroke:rgb(88.0722%,61.1041%,14.2051%);stroke-opacity:1;stroke-miterlimit:10;" d="M 205.761719 22.28125 L 245.890625 45.449219 M 126.378906 4.164062 L 264.375 83.832031 M 92.617188 12.382812 L 282.859375 122.21875 M 72.460938 28.457031 L 293.355469 155.988281 M 52.304688 44.53125 L 282.910156 177.675781 M 32.144531 60.605469 L 272.46875 199.359375 M 11.988281 76.683594 L 262.027344 221.042969 M 3.761719 99.644531 L 251.585938 242.726562 M 3.761719 127.355469 L 241.140625 264.410156 M 3.761719 155.070312 L 213.238281 276.011719 M 3.761719 182.78125 L 178.839844 283.863281 M 3.761719 210.496094 L 144.4375 291.714844 M 101.214844 294.472656 L 110.039062 299.566406 "/>
<path style="fill:none;stroke-width:1;stroke-linecap:butt;stroke-linejoin:miter;stroke:rgb(36.8417%,50.6779%,70.9798%);stroke-opacity:1;stroke-miterlimit:10;" d="M 296.238281 150 L 238.308594 270.289062 L 108.144531 300 L 3.761719 216.757812 L 3.761719 83.242188 L 108.144531 0 L 238.308594 29.710938 Z M 296.238281 150 "/>
</g>
</svg>
