<?xml version="1.0" encoding="UTF-8"?>
<svg xmlns="http://www.w3.org/2000/svg" xmlns:xlink="http://www.w3.org/1999/xlink" width="220pt" height="140pt" viewBox="0 0 220 140" version="1.1">
<g id="id1">
<path style="fill-rule:nonzero;fill:rgb(50.196078%,50.196078%,50.196078%);fill-opacity:1;stroke-width:0.2;stroke-linecap:butt;stroke-linejoin:miter;stroke:rgb(0%,0%,0%);stroke-opacity:1;stroke-miterlimit:10;" d="M 0 0 L 16 0 L 16 16 L 0 16 Z M 0 0 " transform="matrix(1,0,0,1,2,2)"/>
<path style="fill-rule:nonzero;fill:rgb(57.872284%,57.872284%,57.872284%);fill-opacity:1;stroke-width:0.2;stroke-linecap:butt;stroke-linejoin:miter;stroke:rgb(0%,0%,0%);stroke-opacity:1;stroke-miterlimit:10;" d="M 0 0 L 16 0 L 16 16 L 0 16 Z M 0 0 " transform="matrix(1,0,0,1,22,2)"/>
<path style="fill-rule:nonzero;fill:rgb(64.42727%,64.42727%,64.42727%);fill-opacity:1;stroke-width:0.2;stroke-linecap:butt;stroke-linejoin:miter;stroke:rgb(0%,0%,0%);stroke-opacity:1;stroke-miterlimit:10;" d="M 0 0 L 16 0 L 16 16 L 0 16 Z M 0 0 " transform="matrix(1,0,0,1,42,2)"/>
<path style="fill-rule:nonzero;fill:rgb(70.218223%,70.218223%,70.218223%);fill-opacity:1;stroke-width:0.2;stroke-linecap:butt;stroke-linejoin:miter;stroke:rgb(0%,0%,0%);stroke-opacity:1;stroke-miterlimit:10;" d="M 0 0 L 16 0 L 16 16 L 0 16 Z M 0 0 " transform="matrix(1,0,0,1,62,2)"/>
<path style="fill-rule:nonzero;fill:rgb(75.447265%,75.447265%,75.447265%);fill-opacity:1;stroke-width:0.2;stroke-linecap:butt;stroke-linejoin:miter;stroke:rgb(0%,0%,0%);stroke-opacity:1;stroke-miterlimit:10;" d="M 0 0 L 16 0 L 16 16 L 0 16 Z M 0 0 " transform="matrix(1,0,0,1,82,2)"/>
<path style="fill-rule:nonzero;fill:rgb(80.241588%,80.241588%,80.241588%);fill-opacity:1;stroke-width:0.2;stroke-linecap:butt;stroke-linejoin:miter;stroke:rgb(0%,0%,0%);stroke-opacity:1;stroke-miterlimit:10;" d="M 0 0 L 16 0 L 16 16 L 0 16 Z M 0 0 " transform="matrix(1,0,0,1,102,2)"/>
<path style="fill-rule:nonzero;fill:rgb(84.687209%,84.687209%,84.687209%);fill-opacity:1;stroke-width:0.2;stroke-linecap:butt;stroke-linejoin:miter;stroke:rgb(0%,0%,0%);stroke-opacity:1;stroke-miterlimit:10;" d="M 0 0 L 16 0 L 16 16 L 0 16 Z M 0 0 " transform="matrix(1,0,0,1,122,2)"/>
<path style="fill-rule:nonzero;fill:rgb(88.845424%,88.845424%,88.845424%);fill-opacity:1;stroke-width:0.2;stroke-linecap:butt;stroke-linejoin:miter;stroke:rgb(0%,0%,0%);stroke-opacity:1;stroke-miterlimit:10;" d="M 0 0 L 16 0 L 16 16 L 0 16 Z M 0 0 " transform="matrix(1,0,0,1,142,2)"/>
<path style="fill-rule:nonzero;fill:rgb(92.761688%,92.761688%,92.761688%);fill-opacity:1;stroke-width:0.2;stroke-linecap:butt;stroke-linejoin:miter;stroke:rgb(0%,0%,0%);stroke-opacity:1;stroke-miterlimit:10;" d="M 0 0 L 16 0 L 16 16 L 0 16 Z M 0 0 " transform="matrix(1,0,0,1,162,2)"/>
<path style="fill-rule:nonzero;fill:rgb(96.470782%,96.470782%,96.470782%);fill-opacity:1;stroke-width:0.2;stroke-linecap:butt;stroke-linejoin:miter;stroke:rgb(0%,0%,0%);stroke-opacity:1;stroke-miterlimit:10;" d="M 0 0 L 16 0 L 16 16 L 0 16 Z M 0 0 " transform="matrix(1,0,0,1,182,2)"/>
<path style="fill-rule:nonzero;fill:rgb(100%,100%,100%);fill-opacity:1;stroke-width:0.2;stroke-linecap:butt;stroke-linejoin:miter;stroke:rgb(0%,0%,0%);stroke-opacity:1;stroke-miterlimit:10;" d="M 0 0 L 16 0 L 16 16 L 0 16 Z M 0 0 " transform="matrix(1,0,0,1,202,2)"/>
<path style="fill-rule:nonzero;fill:rgb(50.196078%,0%,0%);fill-opacity:1;stroke-width:0.2;stroke-linecap:butt;stroke-linejoin:miter;stroke:rgb(0%,0%,0%);stroke-opacity:1;stroke-miterlimit:10;" d="M 0 0 L 16 0 L 16 16 L 0 16 Z M 0 0 " transform="matrix(1,0,0,1,2,22)"/>
<path style="fill-rule:nonzero;fill:rgb(57.872284%,34.919021%,34.919021%);fill-opacity:1;stroke-width:0.2;stroke-linecap:butt;stroke-linejoin:miter;stroke:rgb(0%,0%,0%);stroke-opacity:1;stroke-miterlimit:10;" d="M 0 0 L 16 0 L 16 16 L 0 16 Z M 0 0 " transform="matrix(1,0,0,1,22,22)"/>
<path style="fill-rule:nonzero;fill:rgb(64.42727%,48.45292%,48.45292%);fill-opacity:1;stroke-width:0.2;stroke-linecap:butt;stroke-linejoin:miter;stroke:rgb(0%,0%,0%);stroke-opacity:1;stroke-miterlimit:10;" d="M 0 0 L 16 0 L 16 16 L 0 16 Z M 0 0 " transform="matrix(1,0,0,1,42,22)"/>
<path style="fill-rule:nonzero;fill:rgb(70.218223%,58.383149%,58.383149%);fill-opacity:1;stroke-width:0.2;stroke-linecap:butt;stroke-linejoin:miter;stroke:rgb(0%,0%,0%);stroke-opacity:1;stroke-miterlimit:10;" d="M 0 0 L 16 0 L 16 16 L 0 16 Z M 0 0 " transform="matrix(1,0,0,1,62,22)"/>
<path style="fill-rule:nonzero;fill:rgb(75.447265%,66.518508%,66.518508%);fill-opacity:1;stroke-width:0.2;stroke-linecap:butt;stroke-linejoin:miter;stroke:rgb(0%,0%,0%);stroke-opacity:1;stroke-miterlimit:10;" d="M 0 0 L 16 0 L 16 16 L 0 16 Z M 0 0 " transform="matrix(1,0,0,1,82,22)"/>
<path style="fill-rule:nonzero;fill:rgb(80.241588%,73.535698%,73.535698%);fill-opacity:1;stroke-width:0.2;stroke-linecap:butt;stroke-linejoin:miter;stroke:rgb(0%,0%,0%);stroke-opacity:1;stroke-miterlimit:10;" d="M 0 0 L 16 0 L 16 16 L 0 16 Z M 0 0 " transform="matrix(1,0,0,1,102,22)"/>
<path style="fill-rule:nonzero;fill:rgb(84.687209%,79.773773%,79.773773%);fill-opacity:1;stroke-width:0.2;stroke-linecap:butt;stroke-linejoin:miter;stroke:rgb(0%,0%,0%);stroke-opacity:1;stroke-miterlimit:10;" d="M 0 0 L 16 0 L 16 16 L 0 16 Z M 0 0 " transform="matrix(1,0,0,1,122,22)"/>
<path style="fill-rule:nonzero;fill:rgb(88.845424%,85.430583%,85.430583%);fill-opacity:1;stroke-width:0.2;stroke-linecap:butt;stroke-linejoin:miter;stroke:rgb(0%,0%,0%);stroke-opacity:1;stroke-miterlimit:10;" d="M 0 0 L 16 0 L 16 16 L 0 16 Z M 0 0 " transform="matrix(1,0,0,1,142,22)"/>
<path style="fill-rule:nonzero;fill:rgb(92.761688%,90.633175%,90.633175%);fill-opacity:1;stroke-width:0.2;stroke-linecap:butt;stroke-linejoin:miter;stroke:rgb(0%,0%,0%);stroke-opacity:1;stroke-miterlimit:10;" d="M 0 0 L 16 0 L 16 16 L 0 16 Z M 0 0 " transform="matrix(1,0,0,1,162,22)"/>
<path style="fill-rule:nonzero;fill:rgb(96.470782%,95.468717%,95.468717%);fill-opacity:1;stroke-width:0.2;stroke-linecap:butt;stroke-linejoin:miter;stroke:rgb(0%,0%,0%);stroke-opacity:1;stroke-miterlimit:10;" d="M 0 0 L 16 0 L 16 16 L 0 16 Z M 0 0 " transform="matrix(1,0,0,1,182,22)"/>
<path style="fill-rule:nonzero;fill:rgb(100%,100%,100%);fill-opacity:1;stroke-width:0.2;stroke-linecap:butt;stroke-linejoin:miter;stroke:rgb(0%,0%,0%);stroke-opacity:1;stroke-miterlimit:10;" d="M 0 0 L 16 0 L 16 16 L 0 16 Z M 0 0 " transform="matrix(1,0,0,1,202,22)"/>
<path style="fill-rule:nonzero;fill:rgb(50.196078%,50.196078%,0%);fill-opacity:1;stroke-width:0.2;stroke-linecap:butt;stroke-linejoin:miter;stroke:rgb(0%,0%,0%);stroke-opacity:1;stroke-miterlimit:10;" d="M 0 0 L 16 0 L 16 16 L 0 16 Z M 0 0 " transform="matrix(1,0,0,1,2,42)"/>
<path style="fill-rule:nonzero;fill:rgb(57.872284%,57.872284%,34.919021%);fill-opacity:1;stroke-width:0.2;stroke-linecap:butt;stroke-linejoin:miter;stroke:rgb(0%,0%,0%);stroke-opacity:1;stroke-miterlimit:10;" d="M 0 0 L 16 0 L 16 16 L 0 16 Z M 0 0 " transform="matrix(1,0,0,1,22,42)"/>
<path style="fill-rule:nonzero;fill:rgb(64.42727%,64.42727%,48.45292%);fill-opacity:1;stroke-width:0.2;stroke-linecap:butt;stroke-linejoin:miter;stroke:rgb(0%,0%,0%);stroke-opacity:1;stroke-miterlimit:10;" d="M 0 0 L 16 0 L 16 16 L 0 16 Z M 0 0 " transform="matrix(1,0,0,1,42,42)"/>
<path style="fill-rule:nonzero;fill:rgb(70.218223%,70.218223%,58.383149%);fill-opacity:1;stroke-width:0.2;stroke-linecap:butt;stroke-linejoin:miter;stroke:rgb(0%,0%,0%);stroke-opacity:1;stroke-miterlimit:10;" d="M 0 0 L 16 0 L 16 16 L 0 16 Z M 0 0 " transform="matrix(1,0,0,1,62,42)"/>
<path style="fill-rule:nonzero;fill:rgb(75.447265%,75.447265%,66.518508%);fill-opacity:1;stroke-width:0.2;stroke-linecap:butt;stroke-linejoin:miter;stroke:rgb(0%,0%,0%);stroke-opacity:1;stroke-miterlimit:10;" d="M 0 0 L 16 0 L 16 16 L 0 16 Z M 0 0 " transform="matrix(1,0,0,1,82,42)"/>
<path style="fill-rule:nonzero;fill:rgb(80.241588%,80.241588%,73.535698%);fill-opacity:1;stroke-width:0.2;stroke-linecap:butt;stroke-linejoin:miter;stroke:rgb(0%,0%,0%);stroke-opacity:1;stroke-miterlimit:10;" d="M 0 0 L 16 0 L 16 16 L 0 16 Z M 0 0 " transform="matrix(1,0,0,1,102,42)"/>
<path style="fill-rule:nonzero;fill:rgb(84.687209%,84.687209%,79.773773%);fill-opacity:1;stroke-width:0.2;stroke-linecap:butt;stroke-linejoin:miter;stroke:rgb(0%,0%,0%);stroke-opacity:1;stroke-miterlimit:10;" d="M 0 0 L 16 0 L 16 16 L 0 16 Z M 0 0 " transform="matrix(1,0,0,1,122,42)"/>
<path style="fill-rule:nonzero;fill:rgb(88.845424%,88.845424%,85.430583%);fill-opacity:1;stroke-width:0.2;stroke-linecap:butt;stroke-linejoin:miter;stroke:rgb(0%,0%,0%);stroke-opacity:1;stroke-miterlimit:10;" d="M 0 0 L 16 0 L 16 16 L 0 16 Z M 0 0 " transform="matrix(1,0,0,1,142,42)"/>
<path style="fill-rule:nonzero;fill:rgb(92.761688%,92.761688%,90.633175%);fill-opacity:1;stroke-width:0.2;stroke-linecap:butt;stroke-linejoin:miter;stroke:rgb(0%,0%,0%);stroke-opacity:1;stroke-miterlimit:10;" d="M 0 0 L 16 0 L 16 16 L 0 16 Z M 0 0 " transform="matrix(1,0,0,1,162,42)"/>
<path style="fill-rule:nonzero;fill:rgb(96.470782%,96.470782%,95.468717%);fill-opacity:1;stroke-width:0.2;stroke-linecap:butt;stroke-linejoin:miter;stroke:rgb(0%,0%,0%);stroke-opacity:1;stroke-miterlimit:10;" d="M 0 0 L 16 0 L 16 16 L 0 16 Z M 0 0 " transform="matrix(1,0,0,1,182,42)"/>
<path style="fill-rule:nonzero;fill:rgb(100%,100%,100%);fill-opacity:1;stroke-width:0.2;stroke-linecap:butt;stroke-linejoin:miter;stroke:rgb(0%,0%,0%);stroke-opacity:1;stroke-miterlimit:10;" d="M 0 0 L 16 0 L 16 16 L 0 16 Z M 0 0 " transform="matrix(1,0,0,1,202,42)"/>
<path style="fill-rule:nonzero;fill:rgb(0%,50.196078%,0%);fill-opacity:1;stroke-width:0.2;stroke-linecap:butt;stroke-linejoin:miter;stroke:rgb(0%,0%,0%);stroke-opacity:1;stroke-miterlimit:10;" d="M 0 0 L 16 0 L 16 16 L 0 16 Z M 0 0 " transform="matrix(1,0,0,1,2,62)"/>
<path style="fill-rule:nonzero;fill:rgb(34.919021%,57.872284%,34.919021%);fill-opacity:1;stroke-width:0.2;stroke-linecap:butt;stroke-linejoin:miter;stroke:rgb(0%,0%,0%);stroke-opacity:1;stroke-miterlimit:10;" d="M 0 0 L 16 0 L 16 16 L 0 16 Z M 0 0 " transform="matrix(1,0,0,1,22,62)"/>
<path style="fill-rule:nonzero;fill:rgb(48.45292%,64.42727%,48.45292%);fill-opacity:1;stroke-width:0.2;stroke-linecap:butt;stroke-linejoin:miter;stroke:rgb(0%,0%,0%);stroke-opacity:1;stroke-miterlimit:10;" d="M 0 0 L 16 0 L 16 16 L 0 16 Z M 0 0 " transform="matrix(1,0,0,1,42,62)"/>
<path style="fill-rule:nonzero;fill:rgb(58.383149%,70.218223%,58.383149%);fill-opacity:1;stroke-width:0.2;stroke-linecap:butt;stroke-linejoin:miter;stroke:rgb(0%,0%,0%);stroke-opacity:1;stroke-miterlimit:10;" d="M 0 0 L 16 0 L 16 16 L 0 16 Z M 0 0 " transform="matrix(1,0,0,1,62,62)"/>
<path style="fill-rule:nonzero;fill:rgb(66.518508%,75.447265%,66.518508%);fill-opacity:1;stroke-width:0.2;stroke-linecap:butt;stroke-linejoin:miter;stroke:rgb(0%,0%,0%);stroke-opacity:1;stroke-miterlimit:10;" d="M 0 0 L 16 0 L 16 16 L 0 16 Z M 0 0 " transform="matrix(1,0,0,1,82,62)"/>
<path style="fill-rule:nonzero;fill:rgb(73.535698%,80.241588%,73.535698%);fill-opacity:1;stroke-width:0.2;stroke-linecap:butt;stroke-linejoin:miter;stroke:rgb(0%,0%,0%);stroke-opacity:1;stroke-miterlimit:10;" d="M 0 0 L 16 0 L 16 16 L 0 16 Z M 0 0 " transform="matrix(1,0,0,1,102,62)"/>
<path style="fill-rule:nonzero;fill:rgb(79.773773%,84.687209%,79.773773%);fill-opacity:1;stroke-width:0.2;stroke-linecap:butt;stroke-linejoin:miter;stroke:rgb(0%,0%,0%);stroke-opacity:1;stroke-miterlimit:10;" d="M 0 0 L 16 0 L 16 16 L 0 16 Z M 0 0 " transform="matrix(1,0,0,1,122,62)"/>
<path style="fill-rule:nonzero;fill:rgb(85.430583%,88.845424%,85.430583%);fill-opacity:1;stroke-width:0.2;stroke-linecap:butt;stroke-linejoin:miter;stroke:rgb(0%,0%,0%);stroke-opacity:1;stroke-miterlimit:10;" d="M 0 0 L 16 0 L 16 16 L 0 16 Z M 0 0 " transform="matrix(1,0,0,1,142,62)"/>
<path style="fill-rule:nonzero;fill:rgb(90.633175%,92.761688%,90.633175%);fill-opacity:1;stroke-width:0.2;stroke-linecap:butt;stroke-linejoin:miter;stroke:rgb(0%,0%,0%);stroke-opacity:1;stroke-miterlimit:10;" d="M 0 0 L 16 0 L 16 16 L 0 16 Z M 0 0 " transform="matrix(1,0,0,1,162,62)"/>
<path style="fill-rule:nonzero;fill:rgb(95.468717%,96.470782%,95.468717%);fill-opacity:1;stroke-width:0.2;stroke-linecap:butt;stroke-linejoin:miter;stroke:rgb(0%,0%,0%);stroke-opacity:1;stroke-miterlimit:10;" d="M 0 0 L 16 0 L 16 16 L 0 16 Z M 0 0 " transform="matrix(1,0,0,1,182,62)"/>
<path style="fill-rule:nonzero;fill:rgb(100%,100%,100%);fill-opacity:1;stroke-width:0.2;stroke-linecap:butt;stroke-linejoin:miter;stroke:rgb(0%,0%,0%);stroke-opacity:1;stroke-miterlimit:10;" d="M 0 0 L 16 0 L 16 16 L 0 16 Z M 0 0 " transform="matrix(1,0,0,1,202,62)"/>
<path style="fill-rule:nonzero;fill:rgb(0%,50.196078%,50.196078%);fill-opacity:1;stroke-width:0.2;stroke-linecap:butt;stroke-linejoin:miter;stroke:rgb(0%,0%,0%);stroke-opacity:1;stroke-miterlimit:10;" d="M 0 0 L 16 0 L 16 16 L 0 16 Z M 0 0 " transform="matrix(1,0,0,1,2,82)"/>
<path style="fill-rule:nonzero;fill:rgb(34.919021%,57.872284%,57.872284%);fill-opacity:1;stroke-width:0.2;stroke-linecap:butt;stroke-linejoin:miter;stroke:rgb(0%,0%,0%);stroke-opacity:1;stroke-miterlimit:10;" d="M 0 0 L 16 0 L 16 16 L 0 16 Z M 0 0 " transform="matrix(1,0,0,1,22,82)"/>
<path style="fill-rule:nonzero;fill:rgb(48.45292%,64.42727%,64.42727%);fill-opacity:1;stroke-width:0.2;stroke-linecap:butt;stroke-linejoin:miter;stroke:rgb(0%,0%,0%);stroke-opacity:1;stroke-miterlimit:10;" d="M 0 0 L 16 0 L 16 16 L 0 16 Z M 0 0 " transform="matrix(1,0,0,1,42,82)"/>
<path style="fill-rule:nonzero;fill:rgb(58.383149%,70.218223%,70.218223%);fill-opacity:1;stroke-width:0.2;stroke-linecap:butt;stroke-linejoin:miter;stroke:rgb(0%,0%,0%);stroke-opacity:1;stroke-miterlimit:10;" d="M 0 0 L 16 0 L 16 16 L 0 16 Z M 0 0 " transform="matrix(1,0,0,1,62,82)"/>
<path style="fill-rule:nonzero;fill:rgb(66.518508%,75.447265%,75.447265%);fill-opacity:1;stroke-width:0.2;stroke-linecap:butt;stroke-linejoin:miter;stroke:rgb(0%,0%,0%);stroke-opacity:1;stroke-miterlimit:10;" d="M 0 0 L 16 0 L 16 16 L 0 16 Z M 0 0 " transform="matrix(1,0,0,1,82,82)"/>
<path style="fill-rule:nonzero;fill:rgb(73.535698%,80.241588%,80.241588%);fill-opacity:1;stroke-width:0.2;stroke-linecap:butt;stroke-linejoin:miter;stroke:rgb(0%,0%,0%);stroke-opacity:1;stroke-miterlimit:10;" d="M 0 0 L 16 0 L 16 16 L 0 16 Z M 0 0 " transform="matrix(1,0,0,1,102,82)"/>
<path style="fill-rule:nonzero;fill:rgb(79.773773%,84.687209%,84.687209%);fill-opacity:1;stroke-width:0.2;stroke-linecap:butt;stroke-linejoin:miter;stroke:rgb(0%,0%,0%);stroke-opacity:1;stroke-miterlimit:10;" d="M 0 0 L 16 0 L 16 16 L 0 16 Z M 0 0 " transform="matrix(1,0,0,1,122,82)"/>
<path style="fill-rule:nonzero;fill:rgb(85.430583%,88.845424%,88.845424%);fill-opacity:1;stroke-width:0.2;stroke-linecap:butt;stroke-linejoin:miter;stroke:rgb(0%,0%,0%);stroke-opacity:1;stroke-miterlimit:10;" d="M 0 0 L 16 0 L 16 16 L 0 16 Z M 0 0 " transform="matrix(1,0,0,1,142,82)"/>
<path style="fill-rule:nonzero;fill:rgb(90.633175%,92.761688%,92.761688%);fill-opacity:1;stroke-width:0.2;stroke-linecap:butt;stroke-linejoin:miter;stroke:rgb(0%,0%,0%);stroke-opacity:1;stroke-miterlimit:10;" d="M 0 0 L 16 0 L 16 16 L 0 16 Z M 0 0 " transform="matrix(1,0,0,1,162,82)"/>
<path style="fill-rule:nonzero;fill:rgb(95.468717%,96.470782%,96.470782%);fill-opacity:1;stroke-width:0.2;stroke-linecap:butt;stroke-linejoin:miter;stroke:rgb(0%,0%,0%);stroke-opacity:1;stroke-miterlimit:10;" d="M 0 0 L 16 0 L 16 16 L 0 16 Z M 0 0 " transform="matrix(1,0,0,1,182,82)"/>
<path style="fill-rule:nonzero;fill:rgb(100%,100%,100%);fill-opacity:1;stroke-width:0.2;stroke-linecap:butt;stroke-linejoin:miter;stroke:rgb(0%,0%,0%);stroke-opacity:1;stroke-miterlimit:10;" d="M 0 0 L 16 0 L 16 16 L 0 16 Z M 0 0 " transform="matrix(1,0,0,1,202,82)"/>
<path style="fill-rule:nonzero;fill:rgb(0%,0%,50.196078%);fill-opacity:1;stroke-width:0.2;stroke-linecap:butt;stroke-linejoin:miter;stroke:rgb(0%,0%,0%);stroke-opacity:1;stroke-miterlimit:10;" d="M 0 0 L 16 0 L 16 16 L 0 16 Z M 0 0 " transform="matrix(1,0,0,1,2,102)"/>
<path style="fill-rule:nonzero;fill:rgb(34.919021%,34.919021%,57.872284%);fill-opacity:1;stroke-width:0.2;stroke-linecap:butt;stroke-linejoin:miter;stroke:rgb(0%,0%,0%);stroke-opacity:1;stroke-miterlimit:10;" d="M 0 0 L 16 0 L 16 16 L 0 16 Z M 0 0 " transform="matrix(1,0,0,1,22,102)"/>
<path style="fill-rule:nonzero;fill:rgb(48.45292%,48.45292%,64.42727%);fill-opacity:1;stroke-width:0.2;stroke-linecap:butt;stroke-linejoin:miter;stroke:rgb(0%,0%,0%);stroke-opacity:1;stroke-miterlimit:10;" d="M 0 0 L 16 0 L 16 16 L 0 16 Z M 0 0 " transform="matrix(1,0,0,1,42,102)"/>
<path style="fill-rule:nonzero;fill:rgb(58.383149%,58.383149%,70.218223%);fill-opacity:1;stroke-width:0.2;stroke-linecap:butt;stroke-linejoin:miter;stroke:rgb(0%,0%,0%);stroke-opacity:1;stroke-miterlimit:10;" d="M 0 0 L 16 0 L 16 16 L 0 16 Z M 0 0 " transform="matrix(1,0,0,1,62,102)"/>
<path style="fill-rule:nonzero;fill:rgb(66.518508%,66.518508%,75.447265%);fill-opacity:1;stroke-width:0.2;stroke-linecap:butt;stroke-linejoin:miter;stroke:rgb(0%,0%,0%);stroke-opacity:1;stroke-miterlimit:10;" d="M 0 0 L 16 0 L 16 16 L 0 16 Z M 0 0 " transform="matrix(1,0,0,1,82,102)"/>
<path style="fill-rule:nonzero;fill:rgb(73.535698%,73.535698%,80.241588%);fill-opacity:1;stroke-width:0.2;stroke-linecap:butt;stroke-linejoin:miter;stroke:rgb(0%,0%,0%);stroke-opacity:1;stroke-miterlimit:10;" d="M 0 0 L 16 0 L 16 16 L 0 16 Z M 0 0 " transform="matrix(1,0,0,1,102,102)"/>
<path style="fill-rule:nonzero;fill:rgb(79.773773%,79.773773%,84.687209%);fill-opacity:1;stroke-width:0.2;stroke-linecap:butt;stroke-linejoin:miter;stroke:rgb(0%,0%,0%);stroke-opacity:1;stroke-miterlimit:10;" d="M 0 0 L 16 0 L 16 16 L 0 16 Z M 0 0 " transform="matrix(1,0,0,1,122,102)"/>
<path style="fill-rule:nonzero;fill:rgb(85.430583%,85.430583%,88.845424%);fill-opacity:1;stroke-width:0.2;stroke-linecap:butt;stroke-linejoin:miter;stroke:rgb(0%,0%,0%);stroke-opacity:1;stroke-miterlimit:10;" d="M 0 0 L 16 0 L 16 16 L 0 16 Z M 0 0 " transform="matrix(1,0,0,1,142,102)"/>
<path style="fill-rule:nonzero;fill:rgb(90.633175%,90.633175%,92.761688%);fill-opacity:1;stroke-width:0.2;stroke-linecap:butt;stroke-linejoin:miter;stroke:rgb(0%,0%,0%);stroke-opacity:1;stroke-miterlimit:10;" d="M 0 0 L 16 0 L 16 16 L 0 16 Z M 0 0 " transform="matrix(1,0,0,1,162,102)"/>
<path style="fill-rule:nonzero;fill:rgb(95.468717%,95.468717%,96.470782%);fill-opacity:1;stroke-width:0.2;stroke-linecap:butt;stroke-linejoin:miter;stroke:rgb(0%,0%,0%);stroke-opacity:1;stroke-miterlimit:10;" d="M 0 0 L 16 0 L 16 16 L 0 16 Z M 0 0 " transform="matrix(1,0,0,1,182,102)"/>
<path style="fill-rule:nonzero;fill:rgb(100%,100%,100%);fill-opacity:1;stroke-width:0.2;stroke-linecap:butt;stroke-linejoin:miter;stroke:rgb(0%,0%,0%);stroke-opacity:1;stroke-miterlimit:10;" d="M 0 0 L 16 0 L 16 16 L 0 16 Z M 0 0 " transform="matrix(1,0,0,1,202,102)"/>
<path style="fill-rule:nonzero;fill:rgb(50.196078%,0%,50.196078%);fill-opacity:1;stroke-width:0.2;stroke-linecap:butt;stroke-linejoin:miter;stroke:rgb(0%,0%,0%);stroke-opacity:1;stroke-miterlimit:10;" d="M 0 0 L 16 0 L 16 16 L 0 16 Z M 0 0 " transform="matrix(1,0,0,1,2,122)"/>
<path style="fill-rule:nonzero;fill:rgb(57.872284%,34.919021%,57.872284%);fill-opacity:1;stroke-width:0.2;stroke-linecap:butt;stroke-linejoin:miter;stroke:rgb(0%,0%,0%);stroke-opacity:1;stroke-miterlimit:10;" d="M 0 0 L 16 0 L 16 16 L 0 16 Z M 0 0 " transform="matrix(1,0,0,1,22,122)"/>
<path style="fill-rule:nonzero;fill:rgb(64.42727%,48.45292%,64.42727%);fill-opacity:1;stroke-width:0.2;stroke-linecap:butt;stroke-linejoin:miter;stroke:rgb(0%,0%,0%);stroke-opacity:1;stroke-miterlimit:10;" d="M 0 0 L 16 0 L 16 16 L 0 16 Z M 0 0 " transform="matrix(1,0,0,1,42,122)"/>
<path style="fill-rule:nonzero;fill:rgb(70.218223%,58.383149%,70.218223%);fill-opacity:1;stroke-width:0.2;stroke-linecap:butt;stroke-linejoin:miter;stroke:rgb(0%,0%,0%);stroke-opacity:1;stroke-miterlimit:10;" d="M 0 0 L 16 0 L 16 16 L 0 16 Z M 0 0 " transform="matrix(1,0,0,1,62,122)"/>
<path style="fill-rule:nonzero;fill:rgb(75.447265%,66.518508%,75.447265%);fill-opacity:1;stroke-width:0.2;stroke-linecap:butt;stroke-linejoin:miter;stroke:rgb(0%,0%,0%);stroke-opacity:1;stroke-miterlimit:10;" d="M 0 0 L 16 0 L 16 16 L 0 16 Z M 0 0 " transform="matrix(1,0,0,1,82,122)"/>
<path style="fill-rule:nonzero;fill:rgb(80.241588%,73.535698%,80.241588%);fill-opacity:1;stroke-width:0.2;stroke-linecap:butt;stroke-linejoin:miter;stroke:rgb(0%,0%,0%);stroke-opacity:1;stroke-miterlimit:10;" d="M 0 0 L 16 0 L 16 16 L 0 16 Z M 0 0 " transform="matrix(1,0,0,1,102,122)"/>
<path style="fill-rule:nonzero;fill:rgb(84.687209%,79.773773%,84.687209%);fill-opacity:1;stroke-width:0.2;stroke-linecap:butt;stroke-linejoin:miter;stroke:rgb(0%,0%,0%);stroke-opacity:1;stroke-miterlimit:10;" d="M 0 0 L 16 0 L 16 16 L 0 16 Z M 0 0 " transform="matrix(1,0,0,1,122,122)"/>
<path style="fill-rule:nonzero;fill:rgb(88.845424%,85.430583%,88.845424%);fill-opacity:1;stroke-width:0.2;stroke-linecap:butt;stroke-linejoin:miter;stroke:rgb(0%,0%,0%);stroke-opacity:1;stroke-miterlimit:10;" d="M 0 0 L 16 0 L 16 16 L 0 16 Z M 0 0 " transform="matrix(1,0,0,1,142,122)"/>
<path style="fill-rule:nonzero;fill:rgb(92.761688%,90.633175%,92.761688%);fill-opacity:1;stroke-width:0.2;stroke-linecap:butt;stroke-linejoin:miter;stroke:rgb(0%,0%,0%);stroke-opacity:1;stroke-miterlimit:10;" d="M 0 0 L 16 0 L 16 16 L 0 16 Z M 0 0 " transform="matrix(1,0,0,1,162,122)"/>
<path style="fill-rule:nonzero;fill:rgb(96.470782%,95.468717%,96.470782%);fill-opacity:1;stroke-width:0.2;stroke-linecap:butt;stroke-linejoin:miter;stroke:rgb(0%,0%,0%);stroke-opacity:1;stroke-miterlimit:10;" d="M 0 0 L 16 0 L 16 16 L 0 16 Z M 0 0 " transform="matrix(1,0,0,1,182,122)"/>
<path style="fill-rule:nonzero;fill:rgb(100%,100%,100%);fill-opacity:1;stroke-width:0.2;stroke-linecap:butt;stroke-linejoin:miter;stroke:rgb(0%,0%,0%);stroke-opacity:1;stroke-miterlimit:10;" d="M 0 0 L 16 0 L 16 16 L 0 16 Z M 0 0 " transform="matrix(1,0,0,1,202,122)"/>
</g>
</svg>
