<?xml version="1.0" encoding="UTF-8"?>
<svg xmlns="http://www.w3.org/2000/svg" xmlns:xlink="http://www.w3.org/1999/xlink" width="550pt" height="700pt" viewBox="0 0 550 700" version="1.1">
<g id="id1">
<path style="fill-rule:nonzero;fill:rgb(50.196078%,50.196078%,50.196078%);fill-opacity:1;stroke-width:1;stroke-linecap:butt;stroke-linejoin:miter;stroke:rgb(0%,0%,0%);stroke-opacity:1;stroke-miterlimit:10;" d="M 0 0 L 40 0 L 40 40 L 0 40 Z M 0 0 " transform="matrix(1,0,0,1,5,5)"/>
<path style="fill-rule:nonzero;fill:rgb(47.803901%,47.803901%,47.803901%);fill-opacity:1;stroke-width:1;stroke-linecap:butt;stroke-linejoin:miter;stroke:rgb(0%,0%,0%);stroke-opacity:1;stroke-miterlimit:10;" d="M 0 0 L 40 0 L 40 40 L 0 40 Z M 0 0 " transform="matrix(1,0,0,1,55,5)"/>
<path style="fill-rule:nonzero;fill:rgb(45.251098%,45.251098%,45.251098%);fill-opacity:1;stroke-width:1;stroke-linecap:butt;stroke-linejoin:miter;stroke:rgb(0%,0%,0%);stroke-opacity:1;stroke-miterlimit:10;" d="M 0 0 L 40 0 L 40 40 L 0 40 Z M 0 0 " transform="matrix(1,0,0,1,105,5)"/>
<path style="fill-rule:nonzero;fill:rgb(42.50452%,42.50452%,42.50452%);fill-opacity:1;stroke-width:1;stroke-linecap:butt;stroke-linejoin:miter;stroke:rgb(0%,0%,0%);stroke-opacity:1;stroke-miterlimit:10;" d="M 0 0 L 40 0 L 40 40 L 0 40 Z M 0 0 " transform="matrix(1,0,0,1,155,5)"/>
<path style="fill-rule:nonzero;fill:rgb(39.518149%,39.518149%,39.518149%);fill-opacity:1;stroke-width:1;stroke-linecap:butt;stroke-linejoin:miter;stroke:rgb(0%,0%,0%);stroke-opacity:1;stroke-miterlimit:10;" d="M 0 0 L 40 0 L 40 40 L 0 40 Z M 0 0 " transform="matrix(1,0,0,1,205,5)"/>
<path style="fill-rule:nonzero;fill:rgb(36.224914%,36.224914%,36.224914%);fill-opacity:1;stroke-width:1;stroke-linecap:butt;stroke-linejoin:miter;stroke:rgb(0%,0%,0%);stroke-opacity:1;stroke-miterlimit:10;" d="M 0 0 L 40 0 L 40 40 L 0 40 Z M 0 0 " transform="matrix(1,0,0,1,255,5)"/>
<path style="fill-rule:nonzero;fill:rgb(32.520365%,32.520365%,32.520365%);fill-opacity:1;stroke-width:1;stroke-linecap:butt;stroke-linejoin:miter;stroke:rgb(0%,0%,0%);stroke-opacity:1;stroke-miterlimit:10;" d="M 0 0 L 40 0 L 40 40 L 0 40 Z M 0 0 " transform="matrix(1,0,0,1,305,5)"/>
<path style="fill-rule:nonzero;fill:rgb(28.225506%,28.225506%,28.225506%);fill-opacity:1;stroke-width:1;stroke-linecap:butt;stroke-linejoin:miter;stroke:rgb(0%,0%,0%);stroke-opacity:1;stroke-miterlimit:10;" d="M 0 0 L 40 0 L 40 40 L 0 40 Z M 0 0 " transform="matrix(1,0,0,1,355,5)"/>
<path style="fill-rule:nonzero;fill:rgb(22.983091%,22.983091%,22.983091%);fill-opacity:1;stroke-width:1;stroke-linecap:butt;stroke-linejoin:miter;stroke:rgb(0%,0%,0%);stroke-opacity:1;stroke-miterlimit:10;" d="M 0 0 L 40 0 L 40 40 L 0 40 Z M 0 0 " transform="matrix(1,0,0,1,405,5)"/>
<path style="fill-rule:nonzero;fill:rgb(15.838208%,15.838208%,15.838208%);fill-opacity:1;stroke-width:1;stroke-linecap:butt;stroke-linejoin:miter;stroke:rgb(0%,0%,0%);stroke-opacity:1;stroke-miterlimit:10;" d="M 0 0 L 40 0 L 40 40 L 0 40 Z M 0 0 " transform="matrix(1,0,0,1,455,5)"/>
<path style="fill-rule:nonzero;fill:rgb(0%,0%,0%);fill-opacity:1;stroke-width:1;stroke-linecap:butt;stroke-linejoin:miter;stroke:rgb(0%,0%,0%);stroke-opacity:1;stroke-miterlimit:10;" d="M 0 0 L 40 0 L 40 40 L 0 40 Z M 0 0 " transform="matrix(1,0,0,1,505,5)"/>
<path style="fill-rule:nonzero;fill:rgb(50.196078%,0%,0%);fill-opacity:1;stroke-width:1;stroke-linecap:butt;stroke-linejoin:miter;stroke:rgb(0%,0%,0%);stroke-opacity:1;stroke-miterlimit:10;" d="M 0 0 L 40 0 L 40 40 L 0 40 Z M 0 0 " transform="matrix(1,0,0,1,5,55)"/>
<path style="fill-rule:nonzero;fill:rgb(47.803901%,0%,0%);fill-opacity:1;stroke-width:1;stroke-linecap:butt;stroke-linejoin:miter;stroke:rgb(0%,0%,0%);stroke-opacity:1;stroke-miterlimit:10;" d="M 0 0 L 40 0 L 40 40 L 0 40 Z M 0 0 " transform="matrix(1,0,0,1,55,55)"/>
<path style="fill-rule:nonzero;fill:rgb(45.251098%,0%,0%);fill-opacity:1;stroke-width:1;stroke-linecap:butt;stroke-linejoin:miter;stroke:rgb(0%,0%,0%);stroke-opacity:1;stroke-miterlimit:10;" d="M 0 0 L 40 0 L 40 40 L 0 40 Z M 0 0 " transform="matrix(1,0,0,1,105,55)"/>
<path style="fill-rule:nonzero;fill:rgb(42.50452%,0%,0%);fill-opacity:1;stroke-width:1;stroke-linecap:butt;stroke-linejoin:miter;stroke:rgb(0%,0%,0%);stroke-opacity:1;stroke-miterlimit:10;" d="M 0 0 L 40 0 L 40 40 L 0 40 Z M 0 0 " transform="matrix(1,0,0,1,155,55)"/>
<path style="fill-rule:nonzero;fill:rgb(39.518149%,0%,0%);fill-opacity:1;stroke-width:1;stroke-linecap:butt;stroke-linejoin:miter;stroke:rgb(0%,0%,0%);stroke-opacity:1;stroke-miterlimit:10;" d="M 0 0 L 40 0 L 40 40 L 0 40 Z M 0 0 " transform="matrix(1,0,0,1,205,55)"/>
<path style="fill-rule:nonzero;fill:rgb(36.224914%,0%,0%);fill-opacity:1;stroke-width:1;stroke-linecap:butt;stroke-linejoin:miter;stroke:rgb(0%,0%,0%);stroke-opacity:1;stroke-miterlimit:10;" d="M 0 0 L 40 0 L 40 40 L 0 40 Z M 0 0 " transform="matrix(1,0,0,1,255,55)"/>
<path style="fill-rule:nonzero;fill:rgb(32.520365%,0%,0%);fill-opacity:1;stroke-width:1;stroke-linecap:butt;stroke-linejoin:miter;stroke:rgb(0%,0%,0%);stroke-opacity:1;stroke-miterlimit:10;" d="M 0 0 L 40 0 L 40 40 L 0 40 Z M 0 0 " transform="matrix(1,0,0,1,305,55)"/>
<path style="fill-rule:nonzero;fill:rgb(28.225506%,0%,0%);fill-opacity:1;stroke-width:1;stroke-linecap:butt;stroke-linejoin:miter;stroke:rgb(0%,0%,0%);stroke-opacity:1;stroke-miterlimit:10;" d="M 0 0 L 40 0 L 40 40 L 0 40 Z M 0 0 " transform="matrix(1,0,0,1,355,55)"/>
<path style="fill-rule:nonzero;fill:rgb(22.983091%,0%,0%);fill-opacity:1;stroke-width:1;stroke-linecap:butt;stroke-linejoin:miter;stroke:rgb(0%,0%,0%);stroke-opacity:1;stroke-miterlimit:10;" d="M 0 0 L 40 0 L 40 40 L 0 40 Z M 0 0 " transform="matrix(1,0,0,1,405,55)"/>
<path style="fill-rule:nonzero;fill:rgb(15.838208%,0%,0%);fill-opacity:1;stroke-width:1;stroke-linecap:butt;stroke-linejoin:miter;stroke:rgb(0%,0%,0%);stroke-opacity:1;stroke-miterlimit:10;" d="M 0 0 L 40 0 L 40 40 L 0 40 Z M 0 0 " transform="matrix(1,0,0,1,455,55)"/>
<path style="fill-rule:nonzero;fill:rgb(0%,0%,0%);fill-opacity:1;stroke-width:1;stroke-linecap:butt;stroke-linejoin:miter;stroke:rgb(0%,0%,0%);stroke-opacity:1;stroke-miterlimit:10;" d="M 0 0 L 40 0 L 40 40 L 0 40 Z M 0 0 " transform="matrix(1,0,0,1,505,55)"/>
<path style="fill-rule:nonzero;fill:rgb(50.196078%,50.196078%,0%);fill-opacity:1;stroke-width:1;stroke-linecap:butt;stroke-linejoin:miter;stroke:rgb(0%,0%,0%);stroke-opacity:1;stroke-miterlimit:10;" d="M 0 0 L 40 0 L 40 40 L 0 40 Z M 0 0 " transform="matrix(1,0,0,1,5,105)"/>
<path style="fill-rule:nonzero;fill:rgb(47.803901%,47.803901%,0%);fill-opacity:1;stroke-width:1;stroke-linecap:butt;stroke-linejoin:miter;stroke:rgb(0%,0%,0%);stroke-opacity:1;stroke-miterlimit:10;" d="M 0 0 L 40 0 L 40 40 L 0 40 Z M 0 0 " transform="matrix(1,0,0,1,55,105)"/>
<path style="fill-rule:nonzero;fill:rgb(45.251098%,45.251098%,0%);fill-opacity:1;stroke-width:1;stroke-linecap:butt;stroke-linejoin:miter;stroke:rgb(0%,0%,0%);stroke-opacity:1;stroke-miterlimit:10;" d="M 0 0 L 40 0 L 40 40 L 0 40 Z M 0 0 " transform="matrix(1,0,0,1,105,105)"/>
<path style="fill-rule:nonzero;fill:rgb(42.50452%,42.50452%,0%);fill-opacity:1;stroke-width:1;stroke-linecap:butt;stroke-linejoin:miter;stroke:rgb(0%,0%,0%);stroke-opacity:1;stroke-miterlimit:10;" d="M 0 0 L 40 0 L 40 40 L 0 40 Z M 0 0 " transform="matrix(1,0,0,1,155,105)"/>
<path style="fill-rule:nonzero;fill:rgb(39.518149%,39.518149%,0%);fill-opacity:1;stroke-width:1;stroke-linecap:butt;stroke-linejoin:miter;stroke:rgb(0%,0%,0%);stroke-opacity:1;stroke-miterlimit:10;" d="M 0 0 L 40 0 L 40 40 L 0 40 Z M 0 0 " transform="matrix(1,0,0,1,205,105)"/>
<path style="fill-rule:nonzero;fill:rgb(36.224914%,36.224914%,0%);fill-opacity:1;stroke-width:1;stroke-linecap:butt;stroke-linejoin:miter;stroke:rgb(0%,0%,0%);stroke-opacity:1;stroke-miterlimit:10;" d="M 0 0 L 40 0 L 40 40 L 0 40 Z M 0 0 " transform="matrix(1,0,0,1,255,105)"/>
<path style="fill-rule:nonzero;fill:rgb(32.520365%,32.520365%,0%);fill-opacity:1;stroke-width:1;stroke-linecap:butt;stroke-linejoin:miter;stroke:rgb(0%,0%,0%);stroke-opacity:1;stroke-miterlimit:10;" d="M 0 0 L 40 0 L 40 40 L 0 40 Z M 0 0 " transform="matrix(1,0,0,1,305,105)"/>
<path style="fill-rule:nonzero;fill:rgb(28.225506%,28.225506%,0%);fill-opacity:1;stroke-width:1;stroke-linecap:butt;stroke-linejoin:miter;stroke:rgb(0%,0%,0%);stroke-opacity:1;stroke-miterlimit:10;" d="M 0 0 L 40 0 L 40 40 L 0 40 Z M 0 0 " transform="matrix(1,0,0,1,355,105)"/>
<path style="fill-rule:nonzero;fill:rgb(22.983091%,22.983091%,0%);fill-opacity:1;stroke-width:1;stroke-linecap:butt;stroke-linejoin:miter;stroke:rgb(0%,0%,0%);stroke-opacity:1;stroke-miterlimit:10;" d="M 0 0 L 40 0 L 40 40 L 0 40 Z M 0 0 " transform="matrix(1,0,0,1,405,105)"/>
<path style="fill-rule:nonzero;fill:rgb(15.838208%,15.838208%,0%);fill-opacity:1;stroke-width:1;stroke-linecap:butt;stroke-linejoin:miter;stroke:rgb(0%,0%,0%);stroke-opacity:1;stroke-miterlimit:10;" d="M 0 0 L 40 0 L 40 40 L 0 40 Z M 0 0 " transform="matrix(1,0,0,1,455,105)"/>
<path style="fill-rule:nonzero;fill:rgb(0%,0%,0%);fill-opacity:1;stroke-width:1;stroke-linecap:butt;stroke-linejoin:miter;stroke:rgb(0%,0%,0%);stroke-opacity:1;stroke-miterlimit:10;" d="M 0 0 L 40 0 L 40 40 L 0 40 Z M 0 0 " transform="matrix(1,0,0,1,505,105)"/>
<path style="fill-rule:nonzero;fill:rgb(0%,50.196078%,0%);fill-opacity:1;stroke-width:1;stroke-linecap:butt;stroke-linejoin:miter;stroke:rgb(0%,0%,0%);stroke-opacity:1;stroke-miterlimit:10;" d="M 0 0 L 40 0 L 40 40 L 0 40 Z M 0 0 " transform="matrix(1,0,0,1,5,155)"/>
<path style="fill-rule:nonzero;fill:rgb(0%,47.803901%,0%);fill-opacity:1;stroke-width:1;stroke-linecap:butt;stroke-linejoin:miter;stroke:rgb(0%,0%,0%);stroke-opacity:1;stroke-miterlimit:10;" d="M 0 0 L 40 0 L 40 40 L 0 40 Z M 0 0 " transform="matrix(1,0,0,1,55,155)"/>
<path style="fill-rule:nonzero;fill:rgb(0%,45.251098%,0%);fill-opacity:1;stroke-width:1;stroke-linecap:butt;stroke-linejoin:miter;stroke:rgb(0%,0%,0%);stroke-opacity:1;stroke-miterlimit:10;" d="M 0 0 L 40 0 L 40 40 L 0 40 Z M 0 0 " transform="matrix(1,0,0,1,105,155)"/>
<path style="fill-rule:nonzero;fill:rgb(0%,42.50452%,0%);fill-opacity:1;stroke-width:1;stroke-linecap:butt;stroke-linejoin:miter;stroke:rgb(0%,0%,0%);stroke-opacity:1;stroke-miterlimit:10;" d="M 0 0 L 40 0 L 40 40 L 0 40 Z M 0 0 " transform="matrix(1,0,0,1,155,155)"/>
<path style="fill-rule:nonzero;fill:rgb(0%,39.518149%,0%);fill-opacity:1;stroke-width:1;stroke-linecap:butt;stroke-linejoin:miter;stroke:rgb(0%,0%,0%);stroke-opacity:1;stroke-miterlimit:10;" d="M 0 0 L 40 0 L 40 40 L 0 40 Z M 0 0 " transform="matrix(1,0,0,1,205,155)"/>
<path style="fill-rule:nonzero;fill:rgb(0%,36.224914%,0%);fill-opacity:1;stroke-width:1;stroke-linecap:butt;stroke-linejoin:miter;stroke:rgb(0%,0%,0%);stroke-opacity:1;stroke-miterlimit:10;" d="M 0 0 L 40 0 L 40 40 L 0 40 Z M 0 0 " transform="matrix(1,0,0,1,255,155)"/>
<path style="fill-rule:nonzero;fill:rgb(0%,32.520365%,0%);fill-opacity:1;stroke-width:1;stroke-linecap:butt;stroke-linejoin:miter;stroke:rgb(0%,0%,0%);stroke-opacity:1;stroke-miterlimit:10;" d="M 0 0 L 40 0 L 40 40 L 0 40 Z M 0 0 " transform="matrix(1,0,0,1,305,155)"/>
<path style="fill-rule:nonzero;fill:rgb(0%,28.225506%,0%);fill-opacity:1;stroke-width:1;stroke-linecap:butt;stroke-linejoin:miter;stroke:rgb(0%,0%,0%);stroke-opacity:1;stroke-miterlimit:10;" d="M 0 0 L 40 0 L 40 40 L 0 40 Z M 0 0 " transform="matrix(1,0,0,1,355,155)"/>
<path style="fill-rule:nonzero;fill:rgb(0%,22.983091%,0%);fill-opacity:1;stroke-width:1;stroke-linecap:butt;stroke-linejoin:miter;stroke:rgb(0%,0%,0%);stroke-opacity:1;stroke-miterlimit:10;" d="M 0 0 L 40 0 L 40 40 L 0 40 Z M 0 0 " transform="matrix(1,0,0,1,405,155)"/>
<path style="fill-rule:nonzero;fill:rgb(0%,15.838208%,0%);fill-opacity:1;stroke-width:1;stroke-linecap:butt;stroke-linejoin:miter;stroke:rgb(0%,0%,0%);stroke-opacity:1;stroke-miterlimit:10;" d="M 0 0 L 40 0 L 40 40 L 0 40 Z M 0 0 " transform="matrix(1,0,0,1,455,155)"/>
<path style="fill-rule:nonzero;fill:rgb(0%,0%,0%);fill-opacity:1;stroke-width:1;stroke-linecap:butt;stroke-linejoin:miter;stroke:rgb(0%,0%,0%);stroke-opacity:1;stroke-miterlimit:10;" d="M 0 0 L 40 0 L 40 40 L 0 40 Z M 0 0 " transform="matrix(1,0,0,1,505,155)"/>
<path style="fill-rule:nonzero;fill:rgb(0%,50.196078%,50.196078%);fill-opacity:1;stroke-width:1;stroke-linecap:butt;stroke-linejoin:miter;stroke:rgb(0%,0%,0%);stroke-opacity:1;stroke-miterlimit:10;" d="M 0 0 L 40 0 L 40 40 L 0 40 Z M 0 0 " transform="matrix(1,0,0,1,5,205)"/>
<path style="fill-rule:nonzero;fill:rgb(0%,47.803901%,47.803901%);fill-opacity:1;stroke-width:1;stroke-linecap:butt;stroke-linejoin:miter;stroke:rgb(0%,0%,0%);stroke-opacity:1;stroke-miterlimit:10;" d="M 0 0 L 40 0 L 40 40 L 0 40 Z M 0 0 " transform="matrix(1,0,0,1,55,205)"/>
<path style="fill-rule:nonzero;fill:rgb(0%,45.251098%,45.251098%);fill-opacity:1;stroke-width:1;stroke-linecap:butt;stroke-linejoin:miter;stroke:rgb(0%,0%,0%);stroke-opacity:1;stroke-miterlimit:10;" d="M 0 0 L 40 0 L 40 40 L 0 40 Z M 0 0 " transform="matrix(1,0,0,1,105,205)"/>
<path style="fill-rule:nonzero;fill:rgb(0%,42.50452%,42.50452%);fill-opacity:1;stroke-width:1;stroke-linecap:butt;stroke-linejoin:miter;stroke:rgb(0%,0%,0%);stroke-opacity:1;stroke-miterlimit:10;" d="M 0 0 L 40 0 L 40 40 L 0 40 Z M 0 0 " transform="matrix(1,0,0,1,155,205)"/>
<path style="fill-rule:nonzero;fill:rgb(0%,39.518149%,39.518149%);fill-opacity:1;stroke-width:1;stroke-linecap:butt;stroke-linejoin:miter;stroke:rgb(0%,0%,0%);stroke-opacity:1;stroke-miterlimit:10;" d="M 0 0 L 40 0 L 40 40 L 0 40 Z M 0 0 " transform="matrix(1,0,0,1,205,205)"/>
<path style="fill-rule:nonzero;fill:rgb(0%,36.224914%,36.224914%);fill-opacity:1;stroke-width:1;stroke-linecap:butt;stroke-linejoin:miter;stroke:rgb(0%,0%,0%);stroke-opacity:1;stroke-miterlimit:10;" d="M 0 0 L 40 0 L 40 40 L 0 40 Z M 0 0 " transform="matrix(1,0,0,1,255,205)"/>
<path style="fill-rule:nonzero;fill:rgb(0%,32.520365%,32.520365%);fill-opacity:1;stroke-width:1;stroke-linecap:butt;stroke-linejoin:miter;stroke:rgb(0%,0%,0%);stroke-opacity:1;stroke-miterlimit:10;" d="M 0 0 L 40 0 L 40 40 L 0 40 Z M 0 0 " transform="matrix(1,0,0,1,305,205)"/>
<path style="fill-rule:nonzero;fill:rgb(0%,28.225506%,28.225506%);fill-opacity:1;stroke-width:1;stroke-linecap:butt;stroke-linejoin:miter;stroke:rgb(0%,0%,0%);stroke-opacity:1;stroke-miterlimit:10;" d="M 0 0 L 40 0 L 40 40 L 0 40 Z M 0 0 " transform="matrix(1,0,0,1,355,205)"/>
<path style="fill-rule:nonzero;fill:rgb(0%,22.983091%,22.983091%);fill-opacity:1;stroke-width:1;stroke-linecap:butt;stroke-linejoin:miter;stroke:rgb(0%,0%,0%);stroke-opacity:1;stroke-miterlimit:10;" d="M 0 0 L 40 0 L 40 40 L 0 40 Z M 0 0 " transform="matrix(1,0,0,1,405,205)"/>
<path style="fill-rule:nonzero;fill:rgb(0%,15.838208%,15.838208%);fill-opacity:1;stroke-width:1;stroke-linecap:butt;stroke-linejoin:miter;stroke:rgb(0%,0%,0%);stroke-opacity:1;stroke-miterlimit:10;" d="M 0 0 L 40 0 L 40 40 L 0 40 Z M 0 0 " transform="matrix(1,0,0,1,455,205)"/>
<path style="fill-rule:nonzero;fill:rgb(0%,0%,0%);fill-opacity:1;stroke-width:1;stroke-linecap:butt;stroke-linejoin:miter;stroke:rgb(0%,0%,0%);stroke-opacity:1;stroke-miterlimit:10;" d="M 0 0 L 40 0 L 40 40 L 0 40 Z M 0 0 " transform="matrix(1,0,0,1,505,205)"/>
<path style="fill-rule:nonzero;fill:rgb(0%,0%,50.196078%);fill-opacity:1;stroke-width:1;stroke-linecap:butt;stroke-linejoin:miter;stroke:rgb(0%,0%,0%);stroke-opacity:1;stroke-miterlimit:10;" d="M 0 0 L 40 0 L 40 40 L 0 40 Z M 0 0 " transform="matrix(1,0,0,1,5,255)"/>
<path style="fill-rule:nonzero;fill:rgb(0%,0%,47.803901%);fill-opacity:1;stroke-width:1;stroke-linecap:butt;stroke-linejoin:miter;stroke:rgb(0%,0%,0%);stroke-opacity:1;stroke-miterlimit:10;" d="M 0 0 L 40 0 L 40 40 L 0 40 Z M 0 0 " transform="matrix(1,0,0,1,55,255)"/>
<path style="fill-rule:nonzero;fill:rgb(0%,0%,45.251098%);fill-opacity:1;stroke-width:1;stroke-linecap:butt;stroke-linejoin:miter;stroke:rgb(0%,0%,0%);stroke-opacity:1;stroke-miterlimit:10;" d="M 0 0 L 40 0 L 40 40 L 0 40 Z M 0 0 " transform="matrix(1,0,0,1,105,255)"/>
<path style="fill-rule:nonzero;fill:rgb(0%,0%,42.50452%);fill-opacity:1;stroke-width:1;stroke-linecap:butt;stroke-linejoin:miter;stroke:rgb(0%,0%,0%);stroke-opacity:1;stroke-miterlimit:10;" d="M 0 0 L 40 0 L 40 40 L 0 40 Z M 0 0 " transform="matrix(1,0,0,1,155,255)"/>
<path style="fill-rule:nonzero;fill:rgb(0%,0%,39.518149%);fill-opacity:1;stroke-width:1;stroke-linecap:butt;stroke-linejoin:miter;stroke:rgb(0%,0%,0%);stroke-opacity:1;stroke-miterlimit:10;" d="M 0 0 L 40 0 L 40 40 L 0 40 Z M 0 0 " transform="matrix(1,0,0,1,205,255)"/>
<path style="fill-rule:nonzero;fill:rgb(0%,0%,36.224914%);fill-opacity:1;stroke-width:1;stroke-linecap:butt;stroke-linejoin:miter;stroke:rgb(0%,0%,0%);stroke-opacity:1;stroke-miterlimit:10;" d="M 0 0 L 40 0 L 40 40 L 0 40 Z M 0 0 " transform="matrix(1,0,0,1,255,255)"/>
<path style="fill-rule:nonzero;fill:rgb(0%,0%,32.520365%);fill-opacity:1;stroke-width:1;stroke-linecap:butt;stroke-linejoin:miter;stroke:rgb(0%,0%,0%);stroke-opacity:1;stroke-miterlimit:10;" d="M 0 0 L 40 0 L 40 40 L 0 40 Z M 0 0 " transform="matrix(1,0,0,1,305,255)"/>
<path style="fill-rule:nonzero;fill:rgb(0%,0%,28.225506%);fill-opacity:1;stroke-width:1;stroke-linecap:butt;stroke-linejoin:miter;stroke:rgb(0%,0%,0%);stroke-opacity:1;stroke-miterlimit:10;" d="M 0 0 L 40 0 L 40 40 L 0 40 Z M 0 0 " transform="matrix(1,0,0,1,355,255)"/>
<path style="fill-rule:nonzero;fill:rgb(0%,0%,22.983091%);fill-opacity:1;stroke-width:1;stroke-linecap:butt;stroke-linejoin:miter;stroke:rgb(0%,0%,0%);stroke-opacity:1;stroke-miterlimit:10;" d="M 0 0 L 40 0 L 40 40 L 0 40 Z M 0 0 " transform="matrix(1,0,0,1,405,255)"/>
<path style="fill-rule:nonzero;fill:rgb(0%,0%,15.838208%);fill-opacity:1;stroke-width:1;stroke-linecap:butt;stroke-linejoin:miter;stroke:rgb(0%,0%,0%);stroke-opacity:1;stroke-miterlimit:10;" d="M 0 0 L 40 0 L 40 40 L 0 40 Z M 0 0 " transform="matrix(1,0,0,1,455,255)"/>
<path style="fill-rule:nonzero;fill:rgb(0%,0%,0%);fill-opacity:1;stroke-width:1;stroke-linecap:butt;stroke-linejoin:miter;stroke:rgb(0%,0%,0%);stroke-opacity:1;stroke-miterlimit:10;" d="M 0 0 L 40 0 L 40 40 L 0 40 Z M 0 0 " transform="matrix(1,0,0,1,505,255)"/>
<path style="fill-rule:nonzero;fill:rgb(50.196078%,0%,50.196078%);fill-opacity:1;stroke-width:1;stroke-linecap:butt;stroke-linejoin:miter;stroke:rgb(0%,0%,0%);stroke-opacity:1;stroke-miterlimit:10;" d="M 0 0 L 40 0 L 40 40 L 0 40 Z M 0 0 " transform="matrix(1,0,0,1,5,305)"/>
<path style="fill-rule:nonzero;fill:rgb(47.803901%,0%,47.803901%);fill-opacity:1;stroke-width:1;stroke-linecap:butt;stroke-linejoin:miter;stroke:rgb(0%,0%,0%);stroke-opacity:1;stroke-miterlimit:10;" d="M 0 0 L 40 0 L 40 40 L 0 40 Z M 0 0 " transform="matrix(1,0,0,1,55,305)"/>
<path style="fill-rule:nonzero;fill:rgb(45.251098%,0%,45.251098%);fill-opacity:1;stroke-width:1;stroke-linecap:butt;stroke-linejoin:miter;stroke:rgb(0%,0%,0%);stroke-opacity:1;stroke-miterlimit:10;" d="M 0 0 L 40 0 L 40 40 L 0 40 Z M 0 0 " transform="matrix(1,0,0,1,105,305)"/>
<path style="fill-rule:nonzero;fill:rgb(42.50452%,0%,42.50452%);fill-opacity:1;stroke-width:1;stroke-linecap:butt;stroke-linejoin:miter;stroke:rgb(0%,0%,0%);stroke-opacity:1;stroke-miterlimit:10;" d="M 0 0 L 40 0 L 40 40 L 0 40 Z M 0 0 " transform="matrix(1,0,0,1,155,305)"/>
<path style="fill-rule:nonzero;fill:rgb(39.518149%,0%,39.518149%);fill-opacity:1;stroke-width:1;stroke-linecap:butt;stroke-linejoin:miter;stroke:rgb(0%,0%,0%);stroke-opacity:1;stroke-miterlimit:10;" d="M 0 0 L 40 0 L 40 40 L 0 40 Z M 0 0 " transform="matrix(1,0,0,1,205,305)"/>
<path style="fill-rule:nonzero;fill:rgb(36.224914%,0%,36.224914%);fill-opacity:1;stroke-width:1;stroke-linecap:butt;stroke-linejoin:miter;stroke:rgb(0%,0%,0%);stroke-opacity:1;stroke-miterlimit:10;" d="M 0 0 L 40 0 L 40 40 L 0 40 Z M 0 0 " transform="matrix(1,0,0,1,255,305)"/>
<path style="fill-rule:nonzero;fill:rgb(32.520365%,0%,32.520365%);fill-opacity:1;stroke-width:1;stroke-linecap:butt;stroke-linejoin:miter;stroke:rgb(0%,0%,0%);stroke-opacity:1;stroke-miterlimit:10;" d="M 0 0 L 40 0 L 40 40 L 0 40 Z M 0 0 " transform="matrix(1,0,0,1,305,305)"/>
<path style="fill-rule:nonzero;fill:rgb(28.225506%,0%,28.225506%);fill-opacity:1;stroke-width:1;stroke-linecap:butt;stroke-linejoin:miter;stroke:rgb(0%,0%,0%);stroke-opacity:1;stroke-miterlimit:10;" d="M 0 0 L 40 0 L 40 40 L 0 40 Z M 0 0 " transform="matrix(1,0,0,1,355,305)"/>
<path style="fill-rule:nonzero;fill:rgb(22.983091%,0%,22.983091%);fill-opacity:1;stroke-width:1;stroke-linecap:butt;stroke-linejoin:miter;stroke:rgb(0%,0%,0%);stroke-opacity:1;stroke-miterlimit:10;" d="M 0 0 L 40 0 L 40 40 L 0 40 Z M 0 0 " transform="matrix(1,0,0,1,405,305)"/>
<path style="fill-rule:nonzero;fill:rgb(15.838208%,0%,15.838208%);fill-opacity:1;stroke-width:1;stroke-linecap:butt;stroke-linejoin:miter;stroke:rgb(0%,0%,0%);stroke-opacity:1;stroke-miterlimit:10;" d="M 0 0 L 40 0 L 40 40 L 0 40 Z M 0 0 " transform="matrix(1,0,0,1,455,305)"/>
<path style="fill-rule:nonzero;fill:rgb(0%,0%,0%);fill-opacity:1;stroke-width:1;stroke-linecap:butt;stroke-linejoin:miter;stroke:rgb(0%,0%,0%);stroke-opacity:1;stroke-miterlimit:10;" d="M 0 0 L 40 0 L 40 40 L 0 40 Z M 0 0 " transform="matrix(1,0,0,1,505,305)"/>
<path style="fill-rule:nonzero;fill:rgb(50.196078%,50.196078%,50.196078%);fill-opacity:1;stroke-width:1;stroke-linecap:butt;stroke-linejoin:miter;stroke:rgb(0%,0%,0%);stroke-opacity:1;stroke-miterlimit:10;" d="M 0 0 L 40 0 L 40 40 L 0 40 Z M 0 0 " transform="matrix(1,0,0,1,5,355)"/>
<path style="fill-rule:nonzero;fill:rgb(57.872284%,57.872284%,57.872284%);fill-opacity:1;stroke-width:1;stroke-linecap:butt;stroke-linejoin:miter;stroke:rgb(0%,0%,0%);stroke-opacity:1;stroke-miterlimit:10;" d="M 0 0 L 40 0 L 40 40 L 0 40 Z M 0 0 " transform="matrix(1,0,0,1,55,355)"/>
<path style="fill-rule:nonzero;fill:rgb(64.42727%,64.42727%,64.42727%);fill-opacity:1;stroke-width:1;stroke-linecap:butt;stroke-linejoin:miter;stroke:rgb(0%,0%,0%);stroke-opacity:1;stroke-miterlimit:10;" d="M 0 0 L 40 0 L 40 40 L 0 40 Z M 0 0 " transform="matrix(1,0,0,1,105,355)"/>
<path style="fill-rule:nonzero;fill:rgb(70.218223%,70.218223%,70.218223%);fill-opacity:1;stroke-width:1;stroke-linecap:butt;stroke-linejoin:miter;stroke:rgb(0%,0%,0%);stroke-opacity:1;stroke-miterlimit:10;" d="M 0 0 L 40 0 L 40 40 L 0 40 Z M 0 0 " transform="matrix(1,0,0,1,155,355)"/>
<path style="fill-rule:nonzero;fill:rgb(75.447265%,75.447265%,75.447265%);fill-opacity:1;stroke-width:1;stroke-linecap:butt;stroke-linejoin:miter;stroke:rgb(0%,0%,0%);stroke-opacity:1;stroke-miterlimit:10;" d="M 0 0 L 40 0 L 40 40 L 0 40 Z M 0 0 " transform="matrix(1,0,0,1,205,355)"/>
<path style="fill-rule:nonzero;fill:rgb(80.241588%,80.241588%,80.241588%);fill-opacity:1;stroke-width:1;stroke-linecap:butt;stroke-linejoin:miter;stroke:rgb(0%,0%,0%);stroke-opacity:1;stroke-miterlimit:10;" d="M 0 0 L 40 0 L 40 40 L 0 40 Z M 0 0 " transform="matrix(1,0,0,1,255,355)"/>
<path style="fill-rule:nonzero;fill:rgb(84.687209%,84.687209%,84.687209%);fill-opacity:1;stroke-width:1;stroke-linecap:butt;stroke-linejoin:miter;stroke:rgb(0%,0%,0%);stroke-opacity:1;stroke-miterlimit:10;" d="M 0 0 L 40 0 L 40 40 L 0 40 Z M 0 0 " transform="matrix(1,0,0,1,305,355)"/>
<path style="fill-rule:nonzero;fill:rgb(88.845424%,88.845424%,88.845424%);fill-opacity:1;stroke-width:1;stroke-linecap:butt;stroke-linejoin:miter;stroke:rgb(0%,0%,0%);stroke-opacity:1;stroke-miterlimit:10;" d="M 0 0 L 40 0 L 40 40 L 0 40 Z M 0 0 " transform="matrix(1,0,0,1,355,355)"/>
<path style="fill-rule:nonzero;fill:rgb(92.761688%,92.761688%,92.761688%);fill-opacity:1;stroke-width:1;stroke-linecap:butt;stroke-linejoin:miter;stroke:rgb(0%,0%,0%);stroke-opacity:1;stroke-miterlimit:10;" d="M 0 0 L 40 0 L 40 40 L 0 40 Z M 0 0 " transform="matrix(1,0,0,1,405,355)"/>
<path style="fill-rule:nonzero;fill:rgb(96.470782%,96.470782%,96.470782%);fill-opacity:1;stroke-width:1;stroke-linecap:butt;stroke-linejoin:miter;stroke:rgb(0%,0%,0%);stroke-opacity:1;stroke-miterlimit:10;" d="M 0 0 L 40 0 L 40 40 L 0 40 Z M 0 0 " transform="matrix(1,0,0,1,455,355)"/>
<path style="fill-rule:nonzero;fill:rgb(100%,100%,100%);fill-opacity:1;stroke-width:1;stroke-linecap:butt;stroke-linejoin:miter;stroke:rgb(0%,0%,0%);stroke-opacity:1;stroke-miterlimit:10;" d="M 0 0 L 40 0 L 40 40 L 0 40 Z M 0 0 " transform="matrix(1,0,0,1,505,355)"/>
<path style="fill-rule:nonzero;fill:rgb(50.196078%,0%,0%);fill-opacity:1;stroke-width:1;stroke-linecap:butt;stroke-linejoin:miter;stroke:rgb(0%,0%,0%);stroke-opacity:1;stroke-miterlimit:10;" d="M 0 0 L 40 0 L 40 40 L 0 40 Z M 0 0 " transform="matrix(1,0,0,1,5,405)"/>
<path style="fill-rule:nonzero;fill:rgb(57.872284%,34.919021%,34.919021%);fill-opacity:1;stroke-width:1;stroke-linecap:butt;stroke-linejoin:miter;stroke:rgb(0%,0%,0%);stroke-opacity:1;stroke-miterlimit:10;" d="M 0 0 L 40 0 L 40 40 L 0 40 Z M 0 0 " transform="matrix(1,0,0,1,55,405)"/>
<path style="fill-rule:nonzero;fill:rgb(64.42727%,48.45292%,48.45292%);fill-opacity:1;stroke-width:1;stroke-linecap:butt;stroke-linejoin:miter;stroke:rgb(0%,0%,0%);stroke-opacity:1;stroke-miterlimit:10;" d="M 0 0 L 40 0 L 40 40 L 0 40 Z M 0 0 " transform="matrix(1,0,0,1,105,405)"/>
<path style="fill-rule:nonzero;fill:rgb(70.218223%,58.383149%,58.383149%);fill-opacity:1;stroke-width:1;stroke-linecap:butt;stroke-linejoin:miter;stroke:rgb(0%,0%,0%);stroke-opacity:1;stroke-miterlimit:10;" d="M 0 0 L 40 0 L 40 40 L 0 40 Z M 0 0 " transform="matrix(1,0,0,1,155,405)"/>
<path style="fill-rule:nonzero;fill:rgb(75.447265%,66.518508%,66.518508%);fill-opacity:1;stroke-width:1;stroke-linecap:butt;stroke-linejoin:miter;stroke:rgb(0%,0%,0%);stroke-opacity:1;stroke-miterlimit:10;" d="M 0 0 L 40 0 L 40 40 L 0 40 Z M 0 0 " transform="matrix(1,0,0,1,205,405)"/>
<path style="fill-rule:nonzero;fill:rgb(80.241588%,73.535698%,73.535698%);fill-opacity:1;stroke-width:1;stroke-linecap:butt;stroke-linejoin:miter;stroke:rgb(0%,0%,0%);stroke-opacity:1;stroke-miterlimit:10;" d="M 0 0 L 40 0 L 40 40 L 0 40 Z M 0 0 " transform="matrix(1,0,0,1,255,405)"/>
<path style="fill-rule:nonzero;fill:rgb(84.687209%,79.773773%,79.773773%);fill-opacity:1;stroke-width:1;stroke-linecap:butt;stroke-linejoin:miter;stroke:rgb(0%,0%,0%);stroke-opacity:1;stroke-miterlimit:10;" d="M 0 0 L 40 0 L 40 40 L 0 40 Z M 0 0 " transform="matrix(1,0,0,1,305,405)"/>
<path style="fill-rule:nonzero;fill:rgb(88.845424%,85.430583%,85.430583%);fill-opacity:1;stroke-width:1;stroke-linecap:butt;stroke-linejoin:miter;stroke:rgb(0%,0%,0%);stroke-opacity:1;stroke-miterlimit:10;" d="M 0 0 L 40 0 L 40 40 L 0 40 Z M 0 0 " transform="matrix(1,0,0,1,355,405)"/>
<path style="fill-rule:nonzero;fill:rgb(92.761688%,90.633175%,90.633175%);fill-opacity:1;stroke-width:1;stroke-linecap:butt;stroke-linejoin:miter;stroke:rgb(0%,0%,0%);stroke-opacity:1;stroke-miterlimit:10;" d="M 0 0 L 40 0 L 40 40 L 0 40 Z M 0 0 " transform="matrix(1,0,0,1,405,405)"/>
<path style="fill-rule:nonzero;fill:rgb(96.470782%,95.468717%,95.468717%);fill-opacity:1;stroke-width:1;stroke-linecap:butt;stroke-linejoin:miter;stroke:rgb(0%,0%,0%);stroke-opacity:1;stroke-miterlimit:10;" d="M 0 0 L 40 0 L 40 40 L 0 40 Z M 0 0 " transform="matrix(1,0,0,1,455,405)"/>
<path style="fill-rule:nonzero;fill:rgb(100%,100%,100%);fill-opacity:1;stroke-width:1;stroke-linecap:butt;stroke-linejoin:miter;stroke:rgb(0%,0%,0%);stroke-opacity:1;stroke-miterlimit:10;" d="M 0 0 L 40 0 L 40 40 L 0 40 Z M 0 0 " transform="matrix(1,0,0,1,505,405)"/>
<path style="fill-rule:nonzero;fill:rgb(50.196078%,50.196078%,0%);fill-opacity:1;stroke-width:1;stroke-linecap:butt;stroke-linejoin:miter;stroke:rgb(0%,0%,0%);stroke-opacity:1;stroke-miterlimit:10;" d="M 0 0 L 40 0 L 40 40 L 0 40 Z M 0 0 " transform="matrix(1,0,0,1,5,455)"/>
<path style="fill-rule:nonzero;fill:rgb(57.872284%,57.872284%,34.919021%);fill-opacity:1;stroke-width:1;stroke-linecap:butt;stroke-linejoin:miter;stroke:rgb(0%,0%,0%);stroke-opacity:1;stroke-miterlimit:10;" d="M 0 0 L 40 0 L 40 40 L 0 40 Z M 0 0 " transform="matrix(1,0,0,1,55,455)"/>
<path style="fill-rule:nonzero;fill:rgb(64.42727%,64.42727%,48.45292%);fill-opacity:1;stroke-width:1;stroke-linecap:butt;stroke-linejoin:miter;stroke:rgb(0%,0%,0%);stroke-opacity:1;stroke-miterlimit:10;" d="M 0 0 L 40 0 L 40 40 L 0 40 Z M 0 0 " transform="matrix(1,0,0,1,105,455)"/>
<path style="fill-rule:nonzero;fill:rgb(70.218223%,70.218223%,58.383149%);fill-opacity:1;stroke-width:1;stroke-linecap:butt;stroke-linejoin:miter;stroke:rgb(0%,0%,0%);stroke-opacity:1;stroke-miterlimit:10;" d="M 0 0 L 40 0 L 40 40 L 0 40 Z M 0 0 " transform="matrix(1,0,0,1,155,455)"/>
<path style="fill-rule:nonzero;fill:rgb(75.447265%,75.447265%,66.518508%);fill-opacity:1;stroke-width:1;stroke-linecap:butt;stroke-linejoin:miter;stroke:rgb(0%,0%,0%);stroke-opacity:1;stroke-miterlimit:10;" d="M 0 0 L 40 0 L 40 40 L 0 40 Z M 0 0 " transform="matrix(1,0,0,1,205,455)"/>
<path style="fill-rule:nonzero;fill:rgb(80.241588%,80.241588%,73.535698%);fill-opacity:1;stroke-width:1;stroke-linecap:butt;stroke-linejoin:miter;stroke:rgb(0%,0%,0%);stroke-opacity:1;stroke-miterlimit:10;" d="M 0 0 L 40 0 L 40 40 L 0 40 Z M 0 0 " transform="matrix(1,0,0,1,255,455)"/>
<path style="fill-rule:nonzero;fill:rgb(84.687209%,84.687209%,79.773773%);fill-opacity:1;stroke-width:1;stroke-linecap:butt;stroke-linejoin:miter;stroke:rgb(0%,0%,0%);stroke-opacity:1;stroke-miterlimit:10;" d="M 0 0 L 40 0 L 40 40 L 0 40 Z M 0 0 " transform="matrix(1,0,0,1,305,455)"/>
<path style="fill-rule:nonzero;fill:rgb(88.845424%,88.845424%,85.430583%);fill-opacity:1;stroke-width:1;stroke-linecap:butt;stroke-linejoin:miter;stroke:rgb(0%,0%,0%);stroke-opacity:1;stroke-miterlimit:10;" d="M 0 0 L 40 0 L 40 40 L 0 40 Z M 0 0 " transform="matrix(1,0,0,1,355,455)"/>
<path style="fill-rule:nonzero;fill:rgb(92.761688%,92.761688%,90.633175%);fill-opacity:1;stroke-width:1;stroke-linecap:butt;stroke-linejoin:miter;stroke:rgb(0%,0%,0%);stroke-opacity:1;stroke-miterlimit:10;" d="M 0 0 L 40 0 L 40 40 L 0 40 Z M 0 0 " transform="matrix(1,0,0,1,405,455)"/>
<path style="fill-rule:nonzero;fill:rgb(96.470782%,96.470782%,95.468717%);fill-opacity:1;stroke-width:1;stroke-linecap:butt;stroke-linejoin:miter;stroke:rgb(0%,0%,0%);stroke-opacity:1;stroke-miterlimit:10;" d="M 0 0 L 40 0 L 40 40 L 0 40 Z M 0 0 " transform="matrix(1,0,0,1,455,455)"/>
<path style="fill-rule:nonzero;fill:rgb(100%,100%,100%);fill-opacity:1;stroke-width:1;stroke-linecap:butt;stroke-linejoin:miter;stroke:rgb(0%,0%,0%);stroke-opacity:1;stroke-miterlimit:10;" d="M 0 0 L 40 0 L 40 40 L 0 40 Z M 0 0 " transform="matrix(1,0,0,1,505,455)"/>
<path style="fill-rule:nonzero;fill:rgb(0%,50.196078%,0%);fill-opacity:1;stroke-width:1;stroke-linecap:butt;stroke-linejoin:miter;stroke:rgb(0%,0%,0%);stroke-opacity:1;stroke-miterlimit:10;" d="M 0 0 L 40 0 L 40 40 L 0 40 Z M 0 0 " transform="matrix(1,0,0,1,5,505)"/>
<path style="fill-rule:nonzero;fill:rgb(34.919021%,57.872284%,34.919021%);fill-opacity:1;stroke-width:1;stroke-linecap:butt;stroke-linejoin:miter;stroke:rgb(0%,0%,0%);stroke-opacity:1;stroke-miterlimit:10;" d="M 0 0 L 40 0 L 40 40 L 0 40 Z M 0 0 " transform="matrix(1,0,0,1,55,505)"/>
<path style="fill-rule:nonzero;fill:rgb(48.45292%,64.42727%,48.45292%);fill-opacity:1;stroke-width:1;stroke-linecap:butt;stroke-linejoin:miter;stroke:rgb(0%,0%,0%);stroke-opacity:1;stroke-miterlimit:10;" d="M 0 0 L 40 0 L 40 40 L 0 40 Z M 0 0 " transform="matrix(1,0,0,1,105,505)"/>
<path style="fill-rule:nonzero;fill:rgb(58.383149%,70.218223%,58.383149%);fill-opacity:1;stroke-width:1;stroke-linecap:butt;stroke-linejoin:miter;stroke:rgb(0%,0%,0%);stroke-opacity:1;stroke-miterlimit:10;" d="M 0 0 L 40 0 L 40 40 L 0 40 Z M 0 0 " transform="matrix(1,0,0,1,155,505)"/>
<path style="fill-rule:nonzero;fill:rgb(66.518508%,75.447265%,66.518508%);fill-opacity:1;stroke-width:1;stroke-linecap:butt;stroke-linejoin:miter;stroke:rgb(0%,0%,0%);stroke-opacity:1;stroke-miterlimit:10;" d="M 0 0 L 40 0 L 40 40 L 0 40 Z M 0 0 " transform="matrix(1,0,0,1,205,505)"/>
<path style="fill-rule:nonzero;fill:rgb(73.535698%,80.241588%,73.535698%);fill-opacity:1;stroke-width:1;stroke-linecap:butt;stroke-linejoin:miter;stroke:rgb(0%,0%,0%);stroke-opacity:1;stroke-miterlimit:10;" d="M 0 0 L 40 0 L 40 40 L 0 40 Z M 0 0 " transform="matrix(1,0,0,1,255,505)"/>
<path style="fill-rule:nonzero;fill:rgb(79.773773%,84.687209%,79.773773%);fill-opacity:1;stroke-width:1;stroke-linecap:butt;stroke-linejoin:miter;stroke:rgb(0%,0%,0%);stroke-opacity:1;stroke-miterlimit:10;" d="M 0 0 L 40 0 L 40 40 L 0 40 Z M 0 0 " transform="matrix(1,0,0,1,305,505)"/>
<path style="fill-rule:nonzero;fill:rgb(85.430583%,88.845424%,85.430583%);fill-opacity:1;stroke-width:1;stroke-linecap:butt;stroke-linejoin:miter;stroke:rgb(0%,0%,0%);stroke-opacity:1;stroke-miterlimit:10;" d="M 0 0 L 40 0 L 40 40 L 0 40 Z M 0 0 " transform="matrix(1,0,0,1,355,505)"/>
<path style="fill-rule:nonzero;fill:rgb(90.633175%,92.761688%,90.633175%);fill-opacity:1;stroke-width:1;stroke-linecap:butt;stroke-linejoin:miter;stroke:rgb(0%,0%,0%);stroke-opacity:1;stroke-miterlimit:10;" d="M 0 0 L 40 0 L 40 40 L 0 40 Z M 0 0 " transform="matrix(1,0,0,1,405,505)"/>
<path style="fill-rule:nonzero;fill:rgb(95.468717%,96.470782%,95.468717%);fill-opacity:1;stroke-width:1;stroke-linecap:butt;stroke-linejoin:miter;stroke:rgb(0%,0%,0%);stroke-opacity:1;stroke-miterlimit:10;" d="M 0 0 L 40 0 L 40 40 L 0 40 Z M 0 0 " transform="matrix(1,0,0,1,455,505)"/>
<path style="fill-rule:nonzero;fill:rgb(100%,100%,100%);fill-opacity:1;stroke-width:1;stroke-linecap:butt;stroke-linejoin:miter;stroke:rgb(0%,0%,0%);stroke-opacity:1;stroke-miterlimit:10;" d="M 0 0 L 40 0 L 40 40 L 0 40 Z M 0 0 " transform="matrix(1,0,0,1,505,505)"/>
<path style="fill-rule:nonzero;fill:rgb(0%,50.196078%,50.196078%);fill-opacity:1;stroke-width:1;stroke-linecap:butt;stroke-linejoin:miter;stroke:rgb(0%,0%,0%);stroke-opacity:1;stroke-miterlimit:10;" d="M 0 0 L 40 0 L 40 40 L 0 40 Z M 0 0 " transform="matrix(1,0,0,1,5,555)"/>
<path style="fill-rule:nonzero;fill:rgb(34.919021%,57.872284%,57.872284%);fill-opacity:1;stroke-width:1;stroke-linecap:butt;stroke-linejoin:miter;stroke:rgb(0%,0%,0%);stroke-opacity:1;stroke-miterlimit:10;" d="M 0 0 L 40 0 L 40 40 L 0 40 Z M 0 0 " transform="matrix(1,0,0,1,55,555)"/>
<path style="fill-rule:nonzero;fill:rgb(48.45292%,64.42727%,64.42727%);fill-opacity:1;stroke-width:1;stroke-linecap:butt;stroke-linejoin:miter;stroke:rgb(0%,0%,0%);stroke-opacity:1;stroke-miterlimit:10;" d="M 0 0 L 40 0 L 40 40 L 0 40 Z M 0 0 " transform="matrix(1,0,0,1,105,555)"/>
<path style="fill-rule:nonzero;fill:rgb(58.383149%,70.218223%,70.218223%);fill-opacity:1;stroke-width:1;stroke-linecap:butt;stroke-linejoin:miter;stroke:rgb(0%,0%,0%);stroke-opacity:1;stroke-miterlimit:10;" d="M 0 0 L 40 0 L 40 40 L 0 40 Z M 0 0 " transform="matrix(1,0,0,1,155,555)"/>
<path style="fill-rule:nonzero;fill:rgb(66.518508%,75.447265%,75.447265%);fill-opacity:1;stroke-width:1;stroke-linecap:butt;stroke-linejoin:miter;stroke:rgb(0%,0%,0%);stroke-opacity:1;stroke-miterlimit:10;" d="M 0 0 L 40 0 L 40 40 L 0 40 Z M 0 0 " transform="matrix(1,0,0,1,205,555)"/>
<path style="fill-rule:nonzero;fill:rgb(73.535698%,80.241588%,80.241588%);fill-opacity:1;stroke-width:1;stroke-linecap:butt;stroke-linejoin:miter;stroke:rgb(0%,0%,0%);stroke-opacity:1;stroke-miterlimit:10;" d="M 0 0 L 40 0 L 40 40 L 0 40 Z M 0 0 " transform="matrix(1,0,0,1,255,555)"/>
<path style="fill-rule:nonzero;fill:rgb(79.773773%,84.687209%,84.687209%);fill-opacity:1;stroke-width:1;stroke-linecap:butt;stroke-linejoin:miter;stroke:rgb(0%,0%,0%);stroke-opacity:1;stroke-miterlimit:10;" d="M 0 0 L 40 0 L 40 40 L 0 40 Z M 0 0 " transform="matrix(1,0,0,1,305,555)"/>
<path style="fill-rule:nonzero;fill:rgb(85.430583%,88.845424%,88.845424%);fill-opacity:1;stroke-width:1;stroke-linecap:butt;stroke-linejoin:miter;stroke:rgb(0%,0%,0%);stroke-opacity:1;stroke-miterlimit:10;" d="M 0 0 L 40 0 L 40 40 L 0 40 Z M 0 0 " transform="matrix(1,0,0,1,355,555)"/>
<path style="fill-rule:nonzero;fill:rgb(90.633175%,92.761688%,92.761688%);fill-opacity:1;stroke-width:1;stroke-linecap:butt;stroke-linejoin:miter;stroke:rgb(0%,0%,0%);stroke-opacity:1;stroke-miterlimit:10;" d="M 0 0 L 40 0 L 40 40 L 0 40 Z M 0 0 " transform="matrix(1,0,0,1,405,555)"/>
<path style="fill-rule:nonzero;fill:rgb(95.468717%,96.470782%,96.470782%);fill-opacity:1;stroke-width:1;stroke-linecap:butt;stroke-linejoin:miter;stroke:rgb(0%,0%,0%);stroke-opacity:1;stroke-miterlimit:10;" d="M 0 0 L 40 0 L 40 40 L 0 40 Z M 0 0 " transform="matrix(1,0,0,1,455,555)"/>
<path style="fill-rule:nonzero;fill:rgb(100%,100%,100%);fill-opacity:1;stroke-width:1;stroke-linecap:butt;stroke-linejoin:miter;stroke:rgb(0%,0%,0%);stroke-opacity:1;stroke-miterlimit:10;" d="M 0 0 L 40 0 L 40 40 L 0 40 Z M 0 0 " transform="matrix(1,0,0,1,505,555)"/>
<path style="fill-rule:nonzero;fill:rgb(0%,0%,50.196078%);fill-opacity:1;stroke-width:1;stroke-linecap:butt;stroke-linejoin:miter;stroke:rgb(0%,0%,0%);stroke-opacity:1;stroke-miterlimit:10;" d="M 0 0 L 40 0 L 40 40 L 0 40 Z M 0 0 " transform="matrix(1,0,0,1,5,605)"/>
<path style="fill-rule:nonzero;fill:rgb(34.919021%,34.919021%,57.872284%);fill-opacity:1;stroke-width:1;stroke-linecap:butt;stroke-linejoin:miter;stroke:rgb(0%,0%,0%);stroke-opacity:1;stroke-miterlimit:10;" d="M 0 0 L 40 0 L 40 40 L 0 40 Z M 0 0 " transform="matrix(1,0,0,1,55,605)"/>
<path style="fill-rule:nonzero;fill:rgb(48.45292%,48.45292%,64.42727%);fill-opacity:1;stroke-width:1;stroke-linecap:butt;stroke-linejoin:miter;stroke:rgb(0%,0%,0%);stroke-opacity:1;stroke-miterlimit:10;" d="M 0 0 L 40 0 L 40 40 L 0 40 Z M 0 0 " transform="matrix(1,0,0,1,105,605)"/>
<path style="fill-rule:nonzero;fill:rgb(58.383149%,58.383149%,70.218223%);fill-opacity:1;stroke-width:1;stroke-linecap:butt;stroke-linejoin:miter;stroke:rgb(0%,0%,0%);stroke-opacity:1;stroke-miterlimit:10;" d="M 0 0 L 40 0 L 40 40 L 0 40 Z M 0 0 " transform="matrix(1,0,0,1,155,605)"/>
<path style="fill-rule:nonzero;fill:rgb(66.518508%,66.518508%,75.447265%);fill-opacity:1;stroke-width:1;stroke-linecap:butt;stroke-linejoin:miter;stroke:rgb(0%,0%,0%);stroke-opacity:1;stroke-miterlimit:10;" d="M 0 0 L 40 0 L 40 40 L 0 40 Z M 0 0 " transform="matrix(1,0,0,1,205,605)"/>
<path style="fill-rule:nonzero;fill:rgb(73.535698%,73.535698%,80.241588%);fill-opacity:1;stroke-width:1;stroke-linecap:butt;stroke-linejoin:miter;stroke:rgb(0%,0%,0%);stroke-opacity:1;stroke-miterlimit:10;" d="M 0 0 L 40 0 L 40 40 L 0 40 Z M 0 0 " transform="matrix(1,0,0,1,255,605)"/>
<path style="fill-rule:nonzero;fill:rgb(79.773773%,79.773773%,84.687209%);fill-opacity:1;stroke-width:1;stroke-linecap:butt;stroke-linejoin:miter;stroke:rgb(0%,0%,0%);stroke-opacity:1;stroke-miterlimit:10;" d="M 0 0 L 40 0 L 40 40 L 0 40 Z M 0 0 " transform="matrix(1,0,0,1,305,605)"/>
<path style="fill-rule:nonzero;fill:rgb(85.430583%,85.430583%,88.845424%);fill-opacity:1;stroke-width:1;stroke-linecap:butt;stroke-linejoin:miter;stroke:rgb(0%,0%,0%);stroke-opacity:1;stroke-miterlimit:10;" d="M 0 0 L 40 0 L 40 40 L 0 40 Z M 0 0 " transform="matrix(1,0,0,1,355,605)"/>
<path style="fill-rule:nonzero;fill:rgb(90.633175%,90.633175%,92.761688%);fill-opacity:1;stroke-width:1;stroke-linecap:butt;stroke-linejoin:miter;stroke:rgb(0%,0%,0%);stroke-opacity:1;stroke-miterlimit:10;" d="M 0 0 L 40 0 L 40 40 L 0 40 Z M 0 0 " transform="matrix(1,0,0,1,405,605)"/>
<path style="fill-rule:nonzero;fill:rgb(95.468717%,95.468717%,96.470782%);fill-opacity:1;stroke-width:1;stroke-linecap:butt;stroke-linejoin:miter;stroke:rgb(0%,0%,0%);stroke-opacity:1;stroke-miterlimit:10;" d="M 0 0 L 40 0 L 40 40 L 0 40 Z M 0 0 " transform="matrix(1,0,0,1,455,605)"/>
<path style="fill-rule:nonzero;fill:rgb(100%,100%,100%);fill-opacity:1;stroke-width:1;stroke-linecap:butt;stroke-linejoin:miter;stroke:rgb(0%,0%,0%);stroke-opacity:1;stroke-miterlimit:10;" d="M 0 0 L 40 0 L 40 40 L 0 40 Z M 0 0 " transform="matrix(1,0,0,1,505,605)"/>
<path style="fill-rule:nonzero;fill:rgb(50.196078%,0%,50.196078%);fill-opacity:1;stroke-width:1;stroke-linecap:butt;stroke-linejoin:miter;stroke:rgb(0%,0%,0%);stroke-opacity:1;stroke-miterlimit:10;" d="M 0 0 L 40 0 L 40 40 L 0 40 Z M 0 0 " transform="matrix(1,0,0,1,5,655)"/>
<path style="fill-rule:nonzero;fill:rgb(57.872284%,34.919021%,57.872284%);fill-opacity:1;stroke-width:1;stroke-linecap:butt;stroke-linejoin:miter;stroke:rgb(0%,0%,0%);stroke-opacity:1;stroke-miterlimit:10;" d="M 0 0 L 40 0 L 40 40 L 0 40 Z M 0 0 " transform="matrix(1,0,0,1,55,655)"/>
<path style="fill-rule:nonzero;fill:rgb(64.42727%,48.45292%,64.42727%);fill-opacity:1;stroke-width:1;stroke-linecap:butt;stroke-linejoin:miter;stroke:rgb(0%,0%,0%);stroke-opacity:1;stroke-miterlimit:10;" d="M 0 0 L 40 0 L 40 40 L 0 40 Z M 0 0 " transform="matrix(1,0,0,1,105,655)"/>
<path style="fill-rule:nonzero;fill:rgb(70.218223%,58.383149%,70.218223%);fill-opacity:1;stroke-width:1;stroke-linecap:butt;stroke-linejoin:miter;stroke:rgb(0%,0%,0%);stroke-opacity:1;stroke-miterlimit:10;" d="M 0 0 L 40 0 L 40 40 L 0 40 Z M 0 0 " transform="matrix(1,0,0,1,155,655)"/>
<path style="fill-rule:nonzero;fill:rgb(75.447265%,66.518508%,75.447265%);fill-opacity:1;stroke-width:1;stroke-linecap:butt;stroke-linejoin:miter;stroke:rgb(0%,0%,0%);stroke-opacity:1;stroke-miterlimit:10;" d="M 0 0 L 40 0 L 40 40 L 0 40 Z M 0 0 " transform="matrix(1,0,0,1,205,655)"/>
<path style="fill-rule:nonzero;fill:rgb(80.241588%,73.535698%,80.241588%);fill-opacity:1;stroke-width:1;stroke-linecap:butt;stroke-linejoin:miter;stroke:rgb(0%,0%,0%);stroke-opacity:1;stroke-miterlimit:10;" d="M 0 0 L 40 0 L 40 40 L 0 40 Z M 0 0 " transform="matrix(1,0,0,1,255,655)"/>
<path style="fill-rule:nonzero;fill:rgb(84.687209%,79.773773%,84.687209%);fill-opacity:1;stroke-width:1;stroke-linecap:butt;stroke-linejoin:miter;stroke:rgb(0%,0%,0%);stroke-opacity:1;stroke-miterlimit:10;" d="M 0 0 L 40 0 L 40 40 L 0 40 Z M 0 0 " transform="matrix(1,0,0,1,305,655)"/>
<path style="fill-rule:nonzero;fill:rgb(88.845424%,85.430583%,88.845424%);fill-opacity:1;stroke-width:1;stroke-linecap:butt;stroke-linejoin:miter;stroke:rgb(0%,0%,0%);stroke-opacity:1;stroke-miterlimit:10;" d="M 0 0 L 40 0 L 40 40 L 0 40 Z M 0 0 " transform="matrix(1,0,0,1,355,655)"/>
<path style="fill-rule:nonzero;fill:rgb(92.761688%,90.633175%,92.761688%);fill-opacity:1;stroke-width:1;stroke-linecap:butt;stroke-linejoin:miter;stroke:rgb(0%,0%,0%);stroke-opacity:1;stroke-miterlimit:10;" d="M 0 0 L 40 0 L 40 40 L 0 40 Z M 0 0 " transform="matrix(1,0,0,1,405,655)"/>
<path style="fill-rule:nonzero;fill:rgb(96.470782%,95.468717%,96.470782%);fill-opacity:1;stroke-width:1;stroke-linecap:butt;stroke-linejoin:miter;stroke:rgb(0%,0%,0%);stroke-opacity:1;stroke-miterlimit:10;" d="M 0 0 L 40 0 L 40 40 L 0 40 Z M 0 0 " transform="matrix(1,0,0,1,455,655)"/>
<path style="fill-rule:nonzero;fill:rgb(100%,100%,100%);fill-opacity:1;stroke-width:1;stroke-linecap:butt;stroke-linejoin:miter;stroke:rgb(0%,0%,0%);stroke-opacity:1;stroke-miterlimit:10;" d="M 0 0 L 40 0 L 40 40 L 0 40 Z M 0 0 " transform="matrix(1,0,0,1,505,655)"/>
</g>
</svg>
