<?xml version="1.0" encoding="UTF-8"?>
<svg xmlns="http://www.w3.org/2000/svg" xmlns:xlink="http://www.w3.org/1999/xlink" width="220pt" height="140pt" viewBox="0 0 220 140" version="1.1">
<g id="id1">
<path style="fill-rule:nonzero;fill:rgb(0%,0%,0%);fill-opacity:1;stroke-width:0.2;stroke-linecap:butt;stroke-linejoin:miter;stroke:rgb(0%,0%,0%);stroke-opacity:1;stroke-miterlimit:10;" d="M 0 0 L 16 0 L 16 16 L 0 16 Z M 0 0 " transform="matrix(1,0,0,1,2,2)"/>
<path style="fill-rule:nonzero;fill:rgb(10%,10%,10%);fill-opacity:1;stroke-width:0.2;stroke-linecap:butt;stroke-linejoin:miter;stroke:rgb(0%,0%,0%);stroke-opacity:1;stroke-miterlimit:10;" d="M 0 0 L 16 0 L 16 16 L 0 16 Z M 0 0 " transform="matrix(1,0,0,1,22,2)"/>
<path style="fill-rule:nonzero;fill:rgb(20%,20%,20%);fill-opacity:1;stroke-width:0.2;stroke-linecap:butt;stroke-linejoin:miter;stroke:rgb(0%,0%,0%);stroke-opacity:1;stroke-miterlimit:10;" d="M 0 0 L 16 0 L 16 16 L 0 16 Z M 0 0 " transform="matrix(1,0,0,1,42,2)"/>
<path style="fill-rule:nonzero;fill:rgb(30%,30%,30%);fill-opacity:1;stroke-width:0.2;stroke-linecap:butt;stroke-linejoin:miter;stroke:rgb(0%,0%,0%);stroke-opacity:1;stroke-miterlimit:10;" d="M 0 0 L 16 0 L 16 16 L 0 16 Z M 0 0 " transform="matrix(1,0,0,1,62,2)"/>
<path style="fill-rule:nonzero;fill:rgb(40%,40%,40%);fill-opacity:1;stroke-width:0.2;stroke-linecap:butt;stroke-linejoin:miter;stroke:rgb(0%,0%,0%);stroke-opacity:1;stroke-miterlimit:10;" d="M 0 0 L 16 0 L 16 16 L 0 16 Z M 0 0 " transform="matrix(1,0,0,1,82,2)"/>
<path style="fill-rule:nonzero;fill:rgb(50%,50%,50%);fill-opacity:1;stroke-width:0.2;stroke-linecap:butt;stroke-linejoin:miter;stroke:rgb(0%,0%,0%);stroke-opacity:1;stroke-miterlimit:10;" d="M 0 0 L 16 0 L 16 16 L 0 16 Z M 0 0 " transform="matrix(1,0,0,1,102,2)"/>
<path style="fill-rule:nonzero;fill:rgb(60%,60%,60%);fill-opacity:1;stroke-width:0.2;stroke-linecap:butt;stroke-linejoin:miter;stroke:rgb(0%,0%,0%);stroke-opacity:1;stroke-miterlimit:10;" d="M 0 0 L 16 0 L 16 16 L 0 16 Z M 0 0 " transform="matrix(1,0,0,1,122,2)"/>
<path style="fill-rule:nonzero;fill:rgb(70%,70%,70%);fill-opacity:1;stroke-width:0.2;stroke-linecap:butt;stroke-linejoin:miter;stroke:rgb(0%,0%,0%);stroke-opacity:1;stroke-miterlimit:10;" d="M 0 0 L 16 0 L 16 16 L 0 16 Z M 0 0 " transform="matrix(1,0,0,1,142,2)"/>
<path style="fill-rule:nonzero;fill:rgb(80%,80%,80%);fill-opacity:1;stroke-width:0.2;stroke-linecap:butt;stroke-linejoin:miter;stroke:rgb(0%,0%,0%);stroke-opacity:1;stroke-miterlimit:10;" d="M 0 0 L 16 0 L 16 16 L 0 16 Z M 0 0 " transform="matrix(1,0,0,1,162,2)"/>
<path style="fill-rule:nonzero;fill:rgb(90%,90%,90%);fill-opacity:1;stroke-width:0.2;stroke-linecap:butt;stroke-linejoin:miter;stroke:rgb(0%,0%,0%);stroke-opacity:1;stroke-miterlimit:10;" d="M 0 0 L 16 0 L 16 16 L 0 16 Z M 0 0 " transform="matrix(1,0,0,1,182,2)"/>
<path style="fill-rule:nonzero;fill:rgb(100%,100%,100%);fill-opacity:1;stroke-width:0.2;stroke-linecap:butt;stroke-linejoin:miter;stroke:rgb(0%,0%,0%);stroke-opacity:1;stroke-miterlimit:10;" d="M 0 0 L 16 0 L 16 16 L 0 16 Z M 0 0 " transform="matrix(1,0,0,1,202,2)"/>
<path style="fill-rule:nonzero;fill:rgb(0%,0%,0%);fill-opacity:1;stroke-width:0.2;stroke-linecap:butt;stroke-linejoin:miter;stroke:rgb(0%,0%,0%);stroke-opacity:1;stroke-miterlimit:10;" d="M 0 0 L 16 0 L 16 16 L 0 16 Z M 0 0 " transform="matrix(1,0,0,1,2,22)"/>
<path style="fill-rule:nonzero;fill:rgb(10%,0%,0%);fill-opacity:1;stroke-width:0.2;stroke-linecap:butt;stroke-linejoin:miter;stroke:rgb(0%,0%,0%);stroke-opacity:1;stroke-miterlimit:10;" d="M 0 0 L 16 0 L 16 16 L 0 16 Z M 0 0 " transform="matrix(1,0,0,1,22,22)"/>
<path style="fill-rule:nonzero;fill:rgb(20%,0%,0%);fill-opacity:1;stroke-width:0.2;stroke-linecap:butt;stroke-linejoin:miter;stroke:rgb(0%,0%,0%);stroke-opacity:1;stroke-miterlimit:10;" d="M 0 0 L 16 0 L 16 16 L 0 16 Z M 0 0 " transform="matrix(1,0,0,1,42,22)"/>
<path style="fill-rule:nonzero;fill:rgb(30%,0%,0%);fill-opacity:1;stroke-width:0.2;stroke-linecap:butt;stroke-linejoin:miter;stroke:rgb(0%,0%,0%);stroke-opacity:1;stroke-miterlimit:10;" d="M 0 0 L 16 0 L 16 16 L 0 16 Z M 0 0 " transform="matrix(1,0,0,1,62,22)"/>
<path style="fill-rule:nonzero;fill:rgb(40%,0%,0%);fill-opacity:1;stroke-width:0.2;stroke-linecap:butt;stroke-linejoin:miter;stroke:rgb(0%,0%,0%);stroke-opacity:1;stroke-miterlimit:10;" d="M 0 0 L 16 0 L 16 16 L 0 16 Z M 0 0 " transform="matrix(1,0,0,1,82,22)"/>
<path style="fill-rule:nonzero;fill:rgb(50%,0%,0%);fill-opacity:1;stroke-width:0.2;stroke-linecap:butt;stroke-linejoin:miter;stroke:rgb(0%,0%,0%);stroke-opacity:1;stroke-miterlimit:10;" d="M 0 0 L 16 0 L 16 16 L 0 16 Z M 0 0 " transform="matrix(1,0,0,1,102,22)"/>
<path style="fill-rule:nonzero;fill:rgb(60%,0%,0%);fill-opacity:1;stroke-width:0.2;stroke-linecap:butt;stroke-linejoin:miter;stroke:rgb(0%,0%,0%);stroke-opacity:1;stroke-miterlimit:10;" d="M 0 0 L 16 0 L 16 16 L 0 16 Z M 0 0 " transform="matrix(1,0,0,1,122,22)"/>
<path style="fill-rule:nonzero;fill:rgb(70%,0%,0%);fill-opacity:1;stroke-width:0.2;stroke-linecap:butt;stroke-linejoin:miter;stroke:rgb(0%,0%,0%);stroke-opacity:1;stroke-miterlimit:10;" d="M 0 0 L 16 0 L 16 16 L 0 16 Z M 0 0 " transform="matrix(1,0,0,1,142,22)"/>
<path style="fill-rule:nonzero;fill:rgb(80%,0%,0%);fill-opacity:1;stroke-width:0.2;stroke-linecap:butt;stroke-linejoin:miter;stroke:rgb(0%,0%,0%);stroke-opacity:1;stroke-miterlimit:10;" d="M 0 0 L 16 0 L 16 16 L 0 16 Z M 0 0 " transform="matrix(1,0,0,1,162,22)"/>
<path style="fill-rule:nonzero;fill:rgb(90%,0%,0%);fill-opacity:1;stroke-width:0.2;stroke-linecap:butt;stroke-linejoin:miter;stroke:rgb(0%,0%,0%);stroke-opacity:1;stroke-miterlimit:10;" d="M 0 0 L 16 0 L 16 16 L 0 16 Z M 0 0 " transform="matrix(1,0,0,1,182,22)"/>
<path style="fill-rule:nonzero;fill:rgb(100%,0%,0%);fill-opacity:1;stroke-width:0.2;stroke-linecap:butt;stroke-linejoin:miter;stroke:rgb(0%,0%,0%);stroke-opacity:1;stroke-miterlimit:10;" d="M 0 0 L 16 0 L 16 16 L 0 16 Z M 0 0 " transform="matrix(1,0,0,1,202,22)"/>
<path style="fill-rule:nonzero;fill:rgb(0%,0%,0%);fill-opacity:1;stroke-width:0.2;stroke-linecap:butt;stroke-linejoin:miter;stroke:rgb(0%,0%,0%);stroke-opacity:1;stroke-miterlimit:10;" d="M 0 0 L 16 0 L 16 16 L 0 16 Z M 0 0 " transform="matrix(1,0,0,1,2,42)"/>
<path style="fill-rule:nonzero;fill:rgb(10%,10%,0%);fill-opacity:1;stroke-width:0.2;stroke-linecap:butt;stroke-linejoin:miter;stroke:rgb(0%,0%,0%);stroke-opacity:1;stroke-miterlimit:10;" d="M 0 0 L 16 0 L 16 16 L 0 16 Z M 0 0 " transform="matrix(1,0,0,1,22,42)"/>
<path style="fill-rule:nonzero;fill:rgb(20%,20%,0%);fill-opacity:1;stroke-width:0.2;stroke-linecap:butt;stroke-linejoin:miter;stroke:rgb(0%,0%,0%);stroke-opacity:1;stroke-miterlimit:10;" d="M 0 0 L 16 0 L 16 16 L 0 16 Z M 0 0 " transform="matrix(1,0,0,1,42,42)"/>
<path style="fill-rule:nonzero;fill:rgb(30%,30%,0%);fill-opacity:1;stroke-width:0.2;stroke-linecap:butt;stroke-linejoin:miter;stroke:rgb(0%,0%,0%);stroke-opacity:1;stroke-miterlimit:10;" d="M 0 0 L 16 0 L 16 16 L 0 16 Z M 0 0 " transform="matrix(1,0,0,1,62,42)"/>
<path style="fill-rule:nonzero;fill:rgb(40%,40%,0%);fill-opacity:1;stroke-width:0.2;stroke-linecap:butt;stroke-linejoin:miter;stroke:rgb(0%,0%,0%);stroke-opacity:1;stroke-miterlimit:10;" d="M 0 0 L 16 0 L 16 16 L 0 16 Z M 0 0 " transform="matrix(1,0,0,1,82,42)"/>
<path style="fill-rule:nonzero;fill:rgb(50%,50%,0%);fill-opacity:1;stroke-width:0.2;stroke-linecap:butt;stroke-linejoin:miter;stroke:rgb(0%,0%,0%);stroke-opacity:1;stroke-miterlimit:10;" d="M 0 0 L 16 0 L 16 16 L 0 16 Z M 0 0 " transform="matrix(1,0,0,1,102,42)"/>
<path style="fill-rule:nonzero;fill:rgb(60%,60%,0%);fill-opacity:1;stroke-width:0.2;stroke-linecap:butt;stroke-linejoin:miter;stroke:rgb(0%,0%,0%);stroke-opacity:1;stroke-miterlimit:10;" d="M 0 0 L 16 0 L 16 16 L 0 16 Z M 0 0 " transform="matrix(1,0,0,1,122,42)"/>
<path style="fill-rule:nonzero;fill:rgb(70%,70%,0%);fill-opacity:1;stroke-width:0.2;stroke-linecap:butt;stroke-linejoin:miter;stroke:rgb(0%,0%,0%);stroke-opacity:1;stroke-miterlimit:10;" d="M 0 0 L 16 0 L 16 16 L 0 16 Z M 0 0 " transform="matrix(1,0,0,1,142,42)"/>
<path style="fill-rule:nonzero;fill:rgb(80%,80%,0%);fill-opacity:1;stroke-width:0.2;stroke-linecap:butt;stroke-linejoin:miter;stroke:rgb(0%,0%,0%);stroke-opacity:1;stroke-miterlimit:10;" d="M 0 0 L 16 0 L 16 16 L 0 16 Z M 0 0 " transform="matrix(1,0,0,1,162,42)"/>
<path style="fill-rule:nonzero;fill:rgb(90%,90%,0%);fill-opacity:1;stroke-width:0.2;stroke-linecap:butt;stroke-linejoin:miter;stroke:rgb(0%,0%,0%);stroke-opacity:1;stroke-miterlimit:10;" d="M 0 0 L 16 0 L 16 16 L 0 16 Z M 0 0 " transform="matrix(1,0,0,1,182,42)"/>
<path style="fill-rule:nonzero;fill:rgb(100%,100%,0%);fill-opacity:1;stroke-width:0.2;stroke-linecap:butt;stroke-linejoin:miter;stroke:rgb(0%,0%,0%);stroke-opacity:1;stroke-miterlimit:10;" d="M 0 0 L 16 0 L 16 16 L 0 16 Z M 0 0 " transform="matrix(1,0,0,1,202,42)"/>
<path style="fill-rule:nonzero;fill:rgb(0%,0%,0%);fill-opacity:1;stroke-width:0.2;stroke-linecap:butt;stroke-linejoin:miter;stroke:rgb(0%,0%,0%);stroke-opacity:1;stroke-miterlimit:10;" d="M 0 0 L 16 0 L 16 16 L 0 16 Z M 0 0 " transform="matrix(1,0,0,1,2,62)"/>
<path style="fill-rule:nonzero;fill:rgb(0%,10%,0%);fill-opacity:1;stroke-width:0.2;stroke-linecap:butt;stroke-linejoin:miter;stroke:rgb(0%,0%,0%);stroke-opacity:1;stroke-miterlimit:10;" d="M 0 0 L 16 0 L 16 16 L 0 16 Z M 0 0 " transform="matrix(1,0,0,1,22,62)"/>
<path style="fill-rule:nonzero;fill:rgb(0%,20%,0%);fill-opacity:1;stroke-width:0.2;stroke-linecap:butt;stroke-linejoin:miter;stroke:rgb(0%,0%,0%);stroke-opacity:1;stroke-miterlimit:10;" d="M 0 0 L 16 0 L 16 16 L 0 16 Z M 0 0 " transform="matrix(1,0,0,1,42,62)"/>
<path style="fill-rule:nonzero;fill:rgb(0%,30%,0%);fill-opacity:1;stroke-width:0.2;stroke-linecap:butt;stroke-linejoin:miter;stroke:rgb(0%,0%,0%);stroke-opacity:1;stroke-miterlimit:10;" d="M 0 0 L 16 0 L 16 16 L 0 16 Z M 0 0 " transform="matrix(1,0,0,1,62,62)"/>
<path style="fill-rule:nonzero;fill:rgb(0%,40%,0%);fill-opacity:1;stroke-width:0.2;stroke-linecap:butt;stroke-linejoin:miter;stroke:rgb(0%,0%,0%);stroke-opacity:1;stroke-miterlimit:10;" d="M 0 0 L 16 0 L 16 16 L 0 16 Z M 0 0 " transform="matrix(1,0,0,1,82,62)"/>
<path style="fill-rule:nonzero;fill:rgb(0%,50%,0%);fill-opacity:1;stroke-width:0.2;stroke-linecap:butt;stroke-linejoin:miter;stroke:rgb(0%,0%,0%);stroke-opacity:1;stroke-miterlimit:10;" d="M 0 0 L 16 0 L 16 16 L 0 16 Z M 0 0 " transform="matrix(1,0,0,1,102,62)"/>
<path style="fill-rule:nonzero;fill:rgb(0%,60%,0%);fill-opacity:1;stroke-width:0.2;stroke-linecap:butt;stroke-linejoin:miter;stroke:rgb(0%,0%,0%);stroke-opacity:1;stroke-miterlimit:10;" d="M 0 0 L 16 0 L 16 16 L 0 16 Z M 0 0 " transform="matrix(1,0,0,1,122,62)"/>
<path style="fill-rule:nonzero;fill:rgb(0%,70%,0%);fill-opacity:1;stroke-width:0.2;stroke-linecap:butt;stroke-linejoin:miter;stroke:rgb(0%,0%,0%);stroke-opacity:1;stroke-miterlimit:10;" d="M 0 0 L 16 0 L 16 16 L 0 16 Z M 0 0 " transform="matrix(1,0,0,1,142,62)"/>
<path style="fill-rule:nonzero;fill:rgb(0%,80%,0%);fill-opacity:1;stroke-width:0.2;stroke-linecap:butt;stroke-linejoin:miter;stroke:rgb(0%,0%,0%);stroke-opacity:1;stroke-miterlimit:10;" d="M 0 0 L 16 0 L 16 16 L 0 16 Z M 0 0 " transform="matrix(1,0,0,1,162,62)"/>
<path style="fill-rule:nonzero;fill:rgb(0%,90%,0%);fill-opacity:1;stroke-width:0.2;stroke-linecap:butt;stroke-linejoin:miter;stroke:rgb(0%,0%,0%);stroke-opacity:1;stroke-miterlimit:10;" d="M 0 0 L 16 0 L 16 16 L 0 16 Z M 0 0 " transform="matrix(1,0,0,1,182,62)"/>
<path style="fill-rule:nonzero;fill:rgb(0%,100%,0%);fill-opacity:1;stroke-width:0.2;stroke-linecap:butt;stroke-linejoin:miter;stroke:rgb(0%,0%,0%);stroke-opacity:1;stroke-miterlimit:10;" d="M 0 0 L 16 0 L 16 16 L 0 16 Z M 0 0 " transform="matrix(1,0,0,1,202,62)"/>
<path style="fill-rule:nonzero;fill:rgb(0%,0%,0%);fill-opacity:1;stroke-width:0.2;stroke-linecap:butt;stroke-linejoin:miter;stroke:rgb(0%,0%,0%);stroke-opacity:1;stroke-miterlimit:10;" d="M 0 0 L 16 0 L 16 16 L 0 16 Z M 0 0 " transform="matrix(1,0,0,1,2,82)"/>
<path style="fill-rule:nonzero;fill:rgb(0%,10%,10%);fill-opacity:1;stroke-width:0.2;stroke-linecap:butt;stroke-linejoin:miter;stroke:rgb(0%,0%,0%);stroke-opacity:1;stroke-miterlimit:10;" d="M 0 0 L 16 0 L 16 16 L 0 16 Z M 0 0 " transform="matrix(1,0,0,1,22,82)"/>
<path style="fill-rule:nonzero;fill:rgb(0%,20%,20%);fill-opacity:1;stroke-width:0.2;stroke-linecap:butt;stroke-linejoin:miter;stroke:rgb(0%,0%,0%);stroke-opacity:1;stroke-miterlimit:10;" d="M 0 0 L 16 0 L 16 16 L 0 16 Z M 0 0 " transform="matrix(1,0,0,1,42,82)"/>
<path style="fill-rule:nonzero;fill:rgb(0%,30%,30%);fill-opacity:1;stroke-width:0.2;stroke-linecap:butt;stroke-linejoin:miter;stroke:rgb(0%,0%,0%);stroke-opacity:1;stroke-miterlimit:10;" d="M 0 0 L 16 0 L 16 16 L 0 16 Z M 0 0 " transform="matrix(1,0,0,1,62,82)"/>
<path style="fill-rule:nonzero;fill:rgb(0%,40%,40%);fill-opacity:1;stroke-width:0.2;stroke-linecap:butt;stroke-linejoin:miter;stroke:rgb(0%,0%,0%);stroke-opacity:1;stroke-miterlimit:10;" d="M 0 0 L 16 0 L 16 16 L 0 16 Z M 0 0 " transform="matrix(1,0,0,1,82,82)"/>
<path style="fill-rule:nonzero;fill:rgb(0%,50%,50%);fill-opacity:1;stroke-width:0.2;stroke-linecap:butt;stroke-linejoin:miter;stroke:rgb(0%,0%,0%);stroke-opacity:1;stroke-miterlimit:10;" d="M 0 0 L 16 0 L 16 16 L 0 16 Z M 0 0 " transform="matrix(1,0,0,1,102,82)"/>
<path style="fill-rule:nonzero;fill:rgb(0%,60%,60%);fill-opacity:1;stroke-width:0.2;stroke-linecap:butt;stroke-linejoin:miter;stroke:rgb(0%,0%,0%);stroke-opacity:1;stroke-miterlimit:10;" d="M 0 0 L 16 0 L 16 16 L 0 16 Z M 0 0 " transform="matrix(1,0,0,1,122,82)"/>
<path style="fill-rule:nonzero;fill:rgb(0%,70%,70%);fill-opacity:1;stroke-width:0.2;stroke-linecap:butt;stroke-linejoin:miter;stroke:rgb(0%,0%,0%);stroke-opacity:1;stroke-miterlimit:10;" d="M 0 0 L 16 0 L 16 16 L 0 16 Z M 0 0 " transform="matrix(1,0,0,1,142,82)"/>
<path style="fill-rule:nonzero;fill:rgb(0%,80%,80%);fill-opacity:1;stroke-width:0.2;stroke-linecap:butt;stroke-linejoin:miter;stroke:rgb(0%,0%,0%);stroke-opacity:1;stroke-miterlimit:10;" d="M 0 0 L 16 0 L 16 16 L 0 16 Z M 0 0 " transform="matrix(1,0,0,1,162,82)"/>
<path style="fill-rule:nonzero;fill:rgb(0%,90%,90%);fill-opacity:1;stroke-width:0.2;stroke-linecap:butt;stroke-linejoin:miter;stroke:rgb(0%,0%,0%);stroke-opacity:1;stroke-miterlimit:10;" d="M 0 0 L 16 0 L 16 16 L 0 16 Z M 0 0 " transform="matrix(1,0,0,1,182,82)"/>
<path style="fill-rule:nonzero;fill:rgb(0%,100%,100%);fill-opacity:1;stroke-width:0.2;stroke-linecap:butt;stroke-linejoin:miter;stroke:rgb(0%,0%,0%);stroke-opacity:1;stroke-miterlimit:10;" d="M 0 0 L 16 0 L 16 16 L 0 16 Z M 0 0 " transform="matrix(1,0,0,1,202,82)"/>
<path style="fill-rule:nonzero;fill:rgb(0%,0%,0%);fill-opacity:1;stroke-width:0.2;stroke-linecap:butt;stroke-linejoin:miter;stroke:rgb(0%,0%,0%);stroke-opacity:1;stroke-miterlimit:10;" d="M 0 0 L 16 0 L 16 16 L 0 16 Z M 0 0 " transform="matrix(1,0,0,1,2,102)"/>
<path style="fill-rule:nonzero;fill:rgb(0%,0%,10%);fill-opacity:1;stroke-width:0.2;stroke-linecap:butt;stroke-linejoin:miter;stroke:rgb(0%,0%,0%);stroke-opacity:1;stroke-miterlimit:10;" d="M 0 0 L 16 0 L 16 16 L 0 16 Z M 0 0 " transform="matrix(1,0,0,1,22,102)"/>
<path style="fill-rule:nonzero;fill:rgb(0%,0%,20%);fill-opacity:1;stroke-width:0.2;stroke-linecap:butt;stroke-linejoin:miter;stroke:rgb(0%,0%,0%);stroke-opacity:1;stroke-miterlimit:10;" d="M 0 0 L 16 0 L 16 16 L 0 16 Z M 0 0 " transform="matrix(1,0,0,1,42,102)"/>
<path style="fill-rule:nonzero;fill:rgb(0%,0%,30%);fill-opacity:1;stroke-width:0.2;stroke-linecap:butt;stroke-linejoin:miter;stroke:rgb(0%,0%,0%);stroke-opacity:1;stroke-miterlimit:10;" d="M 0 0 L 16 0 L 16 16 L 0 16 Z M 0 0 " transform="matrix(1,0,0,1,62,102)"/>
<path style="fill-rule:nonzero;fill:rgb(0%,0%,40%);fill-opacity:1;stroke-width:0.2;stroke-linecap:butt;stroke-linejoin:miter;stroke:rgb(0%,0%,0%);stroke-opacity:1;stroke-miterlimit:10;" d="M 0 0 L 16 0 L 16 16 L 0 16 Z M 0 0 " transform="matrix(1,0,0,1,82,102)"/>
<path style="fill-rule:nonzero;fill:rgb(0%,0%,50%);fill-opacity:1;stroke-width:0.2;stroke-linecap:butt;stroke-linejoin:miter;stroke:rgb(0%,0%,0%);stroke-opacity:1;stroke-miterlimit:10;" d="M 0 0 L 16 0 L 16 16 L 0 16 Z M 0 0 " transform="matrix(1,0,0,1,102,102)"/>
<path style="fill-rule:nonzero;fill:rgb(0%,0%,60%);fill-opacity:1;stroke-width:0.2;stroke-linecap:butt;stroke-linejoin:miter;stroke:rgb(0%,0%,0%);stroke-opacity:1;stroke-miterlimit:10;" d="M 0 0 L 16 0 L 16 16 L 0 16 Z M 0 0 " transform="matrix(1,0,0,1,122,102)"/>
<path style="fill-rule:nonzero;fill:rgb(0%,0%,70%);fill-opacity:1;stroke-width:0.2;stroke-linecap:butt;stroke-linejoin:miter;stroke:rgb(0%,0%,0%);stroke-opacity:1;stroke-miterlimit:10;" d="M 0 0 L 16 0 L 16 16 L 0 16 Z M 0 0 " transform="matrix(1,0,0,1,142,102)"/>
<path style="fill-rule:nonzero;fill:rgb(0%,0%,80%);fill-opacity:1;stroke-width:0.2;stroke-linecap:butt;stroke-linejoin:miter;stroke:rgb(0%,0%,0%);stroke-opacity:1;stroke-miterlimit:10;" d="M 0 0 L 16 0 L 16 16 L 0 16 Z M 0 0 " transform="matrix(1,0,0,1,162,102)"/>
<path style="fill-rule:nonzero;fill:rgb(0%,0%,90%);fill-opacity:1;stroke-width:0.2;stroke-linecap:butt;stroke-linejoin:miter;stroke:rgb(0%,0%,0%);stroke-opacity:1;stroke-miterlimit:10;" d="M 0 0 L 16 0 L 16 16 L 0 16 Z M 0 0 " transform="matrix(1,0,0,1,182,102)"/>
<path style="fill-rule:nonzero;fill:rgb(0%,0%,100%);fill-opacity:1;stroke-width:0.2;stroke-linecap:butt;stroke-linejoin:miter;stroke:rgb(0%,0%,0%);stroke-opacity:1;stroke-miterlimit:10;" d="M 0 0 L 16 0 L 16 16 L 0 16 Z M 0 0 " transform="matrix(1,0,0,1,202,102)"/>
<path style="fill-rule:nonzero;fill:rgb(0%,0%,0%);fill-opacity:1;stroke-width:0.2;stroke-linecap:butt;stroke-linejoin:miter;stroke:rgb(0%,0%,0%);stroke-opacity:1;stroke-miterlimit:10;" d="M 0 0 L 16 0 L 16 16 L 0 16 Z M 0 0 " transform="matrix(1,0,0,1,2,122)"/>
<path style="fill-rule:nonzero;fill:rgb(10%,0%,10%);fill-opacity:1;stroke-width:0.2;stroke-linecap:butt;stroke-linejoin:miter;stroke:rgb(0%,0%,0%);stroke-opacity:1;stroke-miterlimit:10;" d="M 0 0 L 16 0 L 16 16 L 0 16 Z M 0 0 " transform="matrix(1,0,0,1,22,122)"/>
<path style="fill-rule:nonzero;fill:rgb(20%,0%,20%);fill-opacity:1;stroke-width:0.2;stroke-linecap:butt;stroke-linejoin:miter;stroke:rgb(0%,0%,0%);stroke-opacity:1;stroke-miterlimit:10;" d="M 0 0 L 16 0 L 16 16 L 0 16 Z M 0 0 " transform="matrix(1,0,0,1,42,122)"/>
<path style="fill-rule:nonzero;fill:rgb(30%,0%,30%);fill-opacity:1;stroke-width:0.2;stroke-linecap:butt;stroke-linejoin:miter;stroke:rgb(0%,0%,0%);stroke-opacity:1;stroke-miterlimit:10;" d="M 0 0 L 16 0 L 16 16 L 0 16 Z M 0 0 " transform="matrix(1,0,0,1,62,122)"/>
<path style="fill-rule:nonzero;fill:rgb(40%,0%,40%);fill-opacity:1;stroke-width:0.2;stroke-linecap:butt;stroke-linejoin:miter;stroke:rgb(0%,0%,0%);stroke-opacity:1;stroke-miterlimit:10;" d="M 0 0 L 16 0 L 16 16 L 0 16 Z M 0 0 " transform="matrix(1,0,0,1,82,122)"/>
<path style="fill-rule:nonzero;fill:rgb(50%,0%,50%);fill-opacity:1;stroke-width:0.2;stroke-linecap:butt;stroke-linejoin:miter;stroke:rgb(0%,0%,0%);stroke-opacity:1;stroke-miterlimit:10;" d="M 0 0 L 16 0 L 16 16 L 0 16 Z M 0 0 " transform="matrix(1,0,0,1,102,122)"/>
<path style="fill-rule:nonzero;fill:rgb(60%,0%,60%);fill-opacity:1;stroke-width:0.2;stroke-linecap:butt;stroke-linejoin:miter;stroke:rgb(0%,0%,0%);stroke-opacity:1;stroke-miterlimit:10;" d="M 0 0 L 16 0 L 16 16 L 0 16 Z M 0 0 " transform="matrix(1,0,0,1,122,122)"/>
<path style="fill-rule:nonzero;fill:rgb(70%,0%,70%);fill-opacity:1;stroke-width:0.2;stroke-linecap:butt;stroke-linejoin:miter;stroke:rgb(0%,0%,0%);stroke-opacity:1;stroke-miterlimit:10;" d="M 0 0 L 16 0 L 16 16 L 0 16 Z M 0 0 " transform="matrix(1,0,0,1,142,122)"/>
<path style="fill-rule:nonzero;fill:rgb(80%,0%,80%);fill-opacity:1;stroke-width:0.2;stroke-linecap:butt;stroke-linejoin:miter;stroke:rgb(0%,0%,0%);stroke-opacity:1;stroke-miterlimit:10;" d="M 0 0 L 16 0 L 16 16 L 0 16 Z M 0 0 " transform="matrix(1,0,0,1,162,122)"/>
<path style="fill-rule:nonzero;fill:rgb(90%,0%,90%);fill-opacity:1;stroke-width:0.2;stroke-linecap:butt;stroke-linejoin:miter;stroke:rgb(0%,0%,0%);stroke-opacity:1;stroke-miterlimit:10;" d="M 0 0 L 16 0 L 16 16 L 0 16 Z M 0 0 " transform="matrix(1,0,0,1,182,122)"/>
<path style="fill-rule:nonzero;fill:rgb(100%,0%,100%);fill-opacity:1;stroke-width:0.2;stroke-linecap:butt;stroke-linejoin:miter;stroke:rgb(0%,0%,0%);stroke-opacity:1;stroke-miterlimit:10;" d="M 0 0 L 16 0 L 16 16 L 0 16 Z M 0 0 " transform="matrix(1,0,0,1,202,122)"/>
</g>
</svg>
