<?xml version="1.0" encoding="UTF-8"?>
<svg xmlns="http://www.w3.org/2000/svg" xmlns:xlink="http://www.w3.org/1999/xlink" width="220pt" height="140pt" viewBox="0 0 220 140" version="1.1">
<g id="id1">
<path style="fill-rule:nonzero;fill:rgb(50.196078%,50.196078%,50.196078%);fill-opacity:1;stroke-width:0.2;stroke-linecap:butt;stroke-linejoin:miter;stroke:rgb(0%,0%,0%);stroke-opacity:1;stroke-miterlimit:10;" d="M 0 0 L 16 0 L 16 16 L 0 16 Z M 0 0 " transform="matrix(1,0,0,1,2,2)"/>
<path style="fill-rule:nonzero;fill:rgb(50.196078%,50.196078%,50.196078%);fill-opacity:1;stroke-width:0.2;stroke-linecap:butt;stroke-linejoin:miter;stroke:rgb(0%,0%,0%);stroke-opacity:1;stroke-miterlimit:10;" d="M 0 0 L 16 0 L 16 16 L 0 16 Z M 0 0 " transform="matrix(1,0,0,1,22,2)"/>
<path style="fill-rule:nonzero;fill:rgb(50.196078%,50.196078%,50.196078%);fill-opacity:1;stroke-width:0.2;stroke-linecap:butt;stroke-linejoin:miter;stroke:rgb(0%,0%,0%);stroke-opacity:1;stroke-miterlimit:10;" d="M 0 0 L 16 0 L 16 16 L 0 16 Z M 0 0 " transform="matrix(1,0,0,1,42,2)"/>
<path style="fill-rule:nonzero;fill:rgb(50.196078%,50.196078%,50.196078%);fill-opacity:1;stroke-width:0.2;stroke-linecap:butt;stroke-linejoin:miter;stroke:rgb(0%,0%,0%);stroke-opacity:1;stroke-miterlimit:10;" d="M 0 0 L 16 0 L 16 16 L 0 16 Z M 0 0 " transform="matrix(1,0,0,1,62,2)"/>
<path style="fill-rule:nonzero;fill:rgb(50.196078%,50.196078%,50.196078%);fill-opacity:1;stroke-width:0.2;stroke-linecap:butt;stroke-linejoin:miter;stroke:rgb(0%,0%,0%);stroke-opacity:1;stroke-miterlimit:10;" d="M 0 0 L 16 0 L 16 16 L 0 16 Z M 0 0 " transform="matrix(1,0,0,1,82,2)"/>
<path style="fill-rule:nonzero;fill:rgb(50.196078%,50.196078%,50.196078%);fill-opacity:1;stroke-width:0.2;stroke-linecap:butt;stroke-linejoin:miter;stroke:rgb(0%,0%,0%);stroke-opacity:1;stroke-miterlimit:10;" d="M 0 0 L 16 0 L 16 16 L 0 16 Z M 0 0 " transform="matrix(1,0,0,1,102,2)"/>
<path style="fill-rule:nonzero;fill:rgb(50.196078%,50.196078%,50.196078%);fill-opacity:1;stroke-width:0.2;stroke-linecap:butt;stroke-linejoin:miter;stroke:rgb(0%,0%,0%);stroke-opacity:1;stroke-miterlimit:10;" d="M 0 0 L 16 0 L 16 16 L 0 16 Z M 0 0 " transform="matrix(1,0,0,1,122,2)"/>
<path style="fill-rule:nonzero;fill:rgb(50.196078%,50.196078%,50.196078%);fill-opacity:1;stroke-width:0.2;stroke-linecap:butt;stroke-linejoin:miter;stroke:rgb(0%,0%,0%);stroke-opacity:1;stroke-miterlimit:10;" d="M 0 0 L 16 0 L 16 16 L 0 16 Z M 0 0 " transform="matrix(1,0,0,1,142,2)"/>
<path style="fill-rule:nonzero;fill:rgb(50.196078%,50.196078%,50.196078%);fill-opacity:1;stroke-width:0.2;stroke-linecap:butt;stroke-linejoin:miter;stroke:rgb(0%,0%,0%);stroke-opacity:1;stroke-miterlimit:10;" d="M 0 0 L 16 0 L 16 16 L 0 16 Z M 0 0 " transform="matrix(1,0,0,1,162,2)"/>
<path style="fill-rule:nonzero;fill:rgb(50.196078%,50.196078%,50.196078%);fill-opacity:1;stroke-width:0.2;stroke-linecap:butt;stroke-linejoin:miter;stroke:rgb(0%,0%,0%);stroke-opacity:1;stroke-miterlimit:10;" d="M 0 0 L 16 0 L 16 16 L 0 16 Z M 0 0 " transform="matrix(1,0,0,1,182,2)"/>
<path style="fill-rule:nonzero;fill:rgb(50.196078%,50.196078%,50.196078%);fill-opacity:1;stroke-width:0.2;stroke-linecap:butt;stroke-linejoin:miter;stroke:rgb(0%,0%,0%);stroke-opacity:1;stroke-miterlimit:10;" d="M 0 0 L 16 0 L 16 16 L 0 16 Z M 0 0 " transform="matrix(1,0,0,1,202,2)"/>
<path style="fill-rule:nonzero;fill:rgb(50.196078%,0%,0%);fill-opacity:1;stroke-width:0.2;stroke-linecap:butt;stroke-linejoin:miter;stroke:rgb(0%,0%,0%);stroke-opacity:1;stroke-miterlimit:10;" d="M 0 0 L 16 0 L 16 16 L 0 16 Z M 0 0 " transform="matrix(1,0,0,1,2,22)"/>
<path style="fill-rule:nonzero;fill:rgb(50.196078%,5.019608%,0%);fill-opacity:1;stroke-width:0.2;stroke-linecap:butt;stroke-linejoin:miter;stroke:rgb(0%,0%,0%);stroke-opacity:1;stroke-miterlimit:10;" d="M 0 0 L 16 0 L 16 16 L 0 16 Z M 0 0 " transform="matrix(1,0,0,1,22,22)"/>
<path style="fill-rule:nonzero;fill:rgb(50.196078%,10.039216%,0%);fill-opacity:1;stroke-width:0.2;stroke-linecap:butt;stroke-linejoin:miter;stroke:rgb(0%,0%,0%);stroke-opacity:1;stroke-miterlimit:10;" d="M 0 0 L 16 0 L 16 16 L 0 16 Z M 0 0 " transform="matrix(1,0,0,1,42,22)"/>
<path style="fill-rule:nonzero;fill:rgb(50.196078%,15.058824%,0%);fill-opacity:1;stroke-width:0.2;stroke-linecap:butt;stroke-linejoin:miter;stroke:rgb(0%,0%,0%);stroke-opacity:1;stroke-miterlimit:10;" d="M 0 0 L 16 0 L 16 16 L 0 16 Z M 0 0 " transform="matrix(1,0,0,1,62,22)"/>
<path style="fill-rule:nonzero;fill:rgb(50.196078%,20.078431%,0%);fill-opacity:1;stroke-width:0.2;stroke-linecap:butt;stroke-linejoin:miter;stroke:rgb(0%,0%,0%);stroke-opacity:1;stroke-miterlimit:10;" d="M 0 0 L 16 0 L 16 16 L 0 16 Z M 0 0 " transform="matrix(1,0,0,1,82,22)"/>
<path style="fill-rule:nonzero;fill:rgb(50.196078%,25.098039%,0%);fill-opacity:1;stroke-width:0.2;stroke-linecap:butt;stroke-linejoin:miter;stroke:rgb(0%,0%,0%);stroke-opacity:1;stroke-miterlimit:10;" d="M 0 0 L 16 0 L 16 16 L 0 16 Z M 0 0 " transform="matrix(1,0,0,1,102,22)"/>
<path style="fill-rule:nonzero;fill:rgb(50.196078%,30.117647%,0%);fill-opacity:1;stroke-width:0.2;stroke-linecap:butt;stroke-linejoin:miter;stroke:rgb(0%,0%,0%);stroke-opacity:1;stroke-miterlimit:10;" d="M 0 0 L 16 0 L 16 16 L 0 16 Z M 0 0 " transform="matrix(1,0,0,1,122,22)"/>
<path style="fill-rule:nonzero;fill:rgb(50.196078%,35.137255%,0%);fill-opacity:1;stroke-width:0.2;stroke-linecap:butt;stroke-linejoin:miter;stroke:rgb(0%,0%,0%);stroke-opacity:1;stroke-miterlimit:10;" d="M 0 0 L 16 0 L 16 16 L 0 16 Z M 0 0 " transform="matrix(1,0,0,1,142,22)"/>
<path style="fill-rule:nonzero;fill:rgb(50.196078%,40.156863%,0%);fill-opacity:1;stroke-width:0.2;stroke-linecap:butt;stroke-linejoin:miter;stroke:rgb(0%,0%,0%);stroke-opacity:1;stroke-miterlimit:10;" d="M 0 0 L 16 0 L 16 16 L 0 16 Z M 0 0 " transform="matrix(1,0,0,1,162,22)"/>
<path style="fill-rule:nonzero;fill:rgb(50.196078%,45.176471%,0%);fill-opacity:1;stroke-width:0.2;stroke-linecap:butt;stroke-linejoin:miter;stroke:rgb(0%,0%,0%);stroke-opacity:1;stroke-miterlimit:10;" d="M 0 0 L 16 0 L 16 16 L 0 16 Z M 0 0 " transform="matrix(1,0,0,1,182,22)"/>
<path style="fill-rule:nonzero;fill:rgb(50.196078%,50.196078%,0%);fill-opacity:1;stroke-width:0.2;stroke-linecap:butt;stroke-linejoin:miter;stroke:rgb(0%,0%,0%);stroke-opacity:1;stroke-miterlimit:10;" d="M 0 0 L 16 0 L 16 16 L 0 16 Z M 0 0 " transform="matrix(1,0,0,1,202,22)"/>
<path style="fill-rule:nonzero;fill:rgb(50.196078%,50.196078%,0%);fill-opacity:1;stroke-width:0.2;stroke-linecap:butt;stroke-linejoin:miter;stroke:rgb(0%,0%,0%);stroke-opacity:1;stroke-miterlimit:10;" d="M 0 0 L 16 0 L 16 16 L 0 16 Z M 0 0 " transform="matrix(1,0,0,1,2,42)"/>
<path style="fill-rule:nonzero;fill:rgb(45.176471%,50.196078%,0%);fill-opacity:1;stroke-width:0.2;stroke-linecap:butt;stroke-linejoin:miter;stroke:rgb(0%,0%,0%);stroke-opacity:1;stroke-miterlimit:10;" d="M 0 0 L 16 0 L 16 16 L 0 16 Z M 0 0 " transform="matrix(1,0,0,1,22,42)"/>
<path style="fill-rule:nonzero;fill:rgb(40.156863%,50.196078%,0%);fill-opacity:1;stroke-width:0.2;stroke-linecap:butt;stroke-linejoin:miter;stroke:rgb(0%,0%,0%);stroke-opacity:1;stroke-miterlimit:10;" d="M 0 0 L 16 0 L 16 16 L 0 16 Z M 0 0 " transform="matrix(1,0,0,1,42,42)"/>
<path style="fill-rule:nonzero;fill:rgb(35.137255%,50.196078%,0%);fill-opacity:1;stroke-width:0.2;stroke-linecap:butt;stroke-linejoin:miter;stroke:rgb(0%,0%,0%);stroke-opacity:1;stroke-miterlimit:10;" d="M 0 0 L 16 0 L 16 16 L 0 16 Z M 0 0 " transform="matrix(1,0,0,1,62,42)"/>
<path style="fill-rule:nonzero;fill:rgb(30.117647%,50.196078%,0%);fill-opacity:1;stroke-width:0.2;stroke-linecap:butt;stroke-linejoin:miter;stroke:rgb(0%,0%,0%);stroke-opacity:1;stroke-miterlimit:10;" d="M 0 0 L 16 0 L 16 16 L 0 16 Z M 0 0 " transform="matrix(1,0,0,1,82,42)"/>
<path style="fill-rule:nonzero;fill:rgb(25.098039%,50.196078%,0%);fill-opacity:1;stroke-width:0.2;stroke-linecap:butt;stroke-linejoin:miter;stroke:rgb(0%,0%,0%);stroke-opacity:1;stroke-miterlimit:10;" d="M 0 0 L 16 0 L 16 16 L 0 16 Z M 0 0 " transform="matrix(1,0,0,1,102,42)"/>
<path style="fill-rule:nonzero;fill:rgb(20.078431%,50.196078%,0%);fill-opacity:1;stroke-width:0.2;stroke-linecap:butt;stroke-linejoin:miter;stroke:rgb(0%,0%,0%);stroke-opacity:1;stroke-miterlimit:10;" d="M 0 0 L 16 0 L 16 16 L 0 16 Z M 0 0 " transform="matrix(1,0,0,1,122,42)"/>
<path style="fill-rule:nonzero;fill:rgb(15.058824%,50.196078%,0%);fill-opacity:1;stroke-width:0.2;stroke-linecap:butt;stroke-linejoin:miter;stroke:rgb(0%,0%,0%);stroke-opacity:1;stroke-miterlimit:10;" d="M 0 0 L 16 0 L 16 16 L 0 16 Z M 0 0 " transform="matrix(1,0,0,1,142,42)"/>
<path style="fill-rule:nonzero;fill:rgb(10.039216%,50.196078%,0%);fill-opacity:1;stroke-width:0.2;stroke-linecap:butt;stroke-linejoin:miter;stroke:rgb(0%,0%,0%);stroke-opacity:1;stroke-miterlimit:10;" d="M 0 0 L 16 0 L 16 16 L 0 16 Z M 0 0 " transform="matrix(1,0,0,1,162,42)"/>
<path style="fill-rule:nonzero;fill:rgb(5.019608%,50.196078%,0%);fill-opacity:1;stroke-width:0.2;stroke-linecap:butt;stroke-linejoin:miter;stroke:rgb(0%,0%,0%);stroke-opacity:1;stroke-miterlimit:10;" d="M 0 0 L 16 0 L 16 16 L 0 16 Z M 0 0 " transform="matrix(1,0,0,1,182,42)"/>
<path style="fill-rule:nonzero;fill:rgb(0%,50.196078%,0%);fill-opacity:1;stroke-width:0.2;stroke-linecap:butt;stroke-linejoin:miter;stroke:rgb(0%,0%,0%);stroke-opacity:1;stroke-miterlimit:10;" d="M 0 0 L 16 0 L 16 16 L 0 16 Z M 0 0 " transform="matrix(1,0,0,1,202,42)"/>
<path style="fill-rule:nonzero;fill:rgb(0%,50.196078%,0%);fill-opacity:1;stroke-width:0.2;stroke-linecap:butt;stroke-linejoin:miter;stroke:rgb(0%,0%,0%);stroke-opacity:1;stroke-miterlimit:10;" d="M 0 0 L 16 0 L 16 16 L 0 16 Z M 0 0 " transform="matrix(1,0,0,1,2,62)"/>
<path style="fill-rule:nonzero;fill:rgb(0%,50.196078%,5.019608%);fill-opacity:1;stroke-width:0.2;stroke-linecap:butt;stroke-linejoin:miter;stroke:rgb(0%,0%,0%);stroke-opacity:1;stroke-miterlimit:10;" d="M 0 0 L 16 0 L 16 16 L 0 16 Z M 0 0 " transform="matrix(1,0,0,1,22,62)"/>
<path style="fill-rule:nonzero;fill:rgb(0%,50.196078%,10.039216%);fill-opacity:1;stroke-width:0.2;stroke-linecap:butt;stroke-linejoin:miter;stroke:rgb(0%,0%,0%);stroke-opacity:1;stroke-miterlimit:10;" d="M 0 0 L 16 0 L 16 16 L 0 16 Z M 0 0 " transform="matrix(1,0,0,1,42,62)"/>
<path style="fill-rule:nonzero;fill:rgb(0%,50.196078%,15.058824%);fill-opacity:1;stroke-width:0.2;stroke-linecap:butt;stroke-linejoin:miter;stroke:rgb(0%,0%,0%);stroke-opacity:1;stroke-miterlimit:10;" d="M 0 0 L 16 0 L 16 16 L 0 16 Z M 0 0 " transform="matrix(1,0,0,1,62,62)"/>
<path style="fill-rule:nonzero;fill:rgb(0%,50.196078%,20.078431%);fill-opacity:1;stroke-width:0.2;stroke-linecap:butt;stroke-linejoin:miter;stroke:rgb(0%,0%,0%);stroke-opacity:1;stroke-miterlimit:10;" d="M 0 0 L 16 0 L 16 16 L 0 16 Z M 0 0 " transform="matrix(1,0,0,1,82,62)"/>
<path style="fill-rule:nonzero;fill:rgb(0%,50.196078%,25.098039%);fill-opacity:1;stroke-width:0.2;stroke-linecap:butt;stroke-linejoin:miter;stroke:rgb(0%,0%,0%);stroke-opacity:1;stroke-miterlimit:10;" d="M 0 0 L 16 0 L 16 16 L 0 16 Z M 0 0 " transform="matrix(1,0,0,1,102,62)"/>
<path style="fill-rule:nonzero;fill:rgb(0%,50.196078%,30.117647%);fill-opacity:1;stroke-width:0.2;stroke-linecap:butt;stroke-linejoin:miter;stroke:rgb(0%,0%,0%);stroke-opacity:1;stroke-miterlimit:10;" d="M 0 0 L 16 0 L 16 16 L 0 16 Z M 0 0 " transform="matrix(1,0,0,1,122,62)"/>
<path style="fill-rule:nonzero;fill:rgb(0%,50.196078%,35.137255%);fill-opacity:1;stroke-width:0.2;stroke-linecap:butt;stroke-linejoin:miter;stroke:rgb(0%,0%,0%);stroke-opacity:1;stroke-miterlimit:10;" d="M 0 0 L 16 0 L 16 16 L 0 16 Z M 0 0 " transform="matrix(1,0,0,1,142,62)"/>
<path style="fill-rule:nonzero;fill:rgb(0%,50.196078%,40.156863%);fill-opacity:1;stroke-width:0.2;stroke-linecap:butt;stroke-linejoin:miter;stroke:rgb(0%,0%,0%);stroke-opacity:1;stroke-miterlimit:10;" d="M 0 0 L 16 0 L 16 16 L 0 16 Z M 0 0 " transform="matrix(1,0,0,1,162,62)"/>
<path style="fill-rule:nonzero;fill:rgb(0%,50.196078%,45.176471%);fill-opacity:1;stroke-width:0.2;stroke-linecap:butt;stroke-linejoin:miter;stroke:rgb(0%,0%,0%);stroke-opacity:1;stroke-miterlimit:10;" d="M 0 0 L 16 0 L 16 16 L 0 16 Z M 0 0 " transform="matrix(1,0,0,1,182,62)"/>
<path style="fill-rule:nonzero;fill:rgb(0%,50.196078%,50.196078%);fill-opacity:1;stroke-width:0.2;stroke-linecap:butt;stroke-linejoin:miter;stroke:rgb(0%,0%,0%);stroke-opacity:1;stroke-miterlimit:10;" d="M 0 0 L 16 0 L 16 16 L 0 16 Z M 0 0 " transform="matrix(1,0,0,1,202,62)"/>
<path style="fill-rule:nonzero;fill:rgb(0%,50.196078%,50.196078%);fill-opacity:1;stroke-width:0.2;stroke-linecap:butt;stroke-linejoin:miter;stroke:rgb(0%,0%,0%);stroke-opacity:1;stroke-miterlimit:10;" d="M 0 0 L 16 0 L 16 16 L 0 16 Z M 0 0 " transform="matrix(1,0,0,1,2,82)"/>
<path style="fill-rule:nonzero;fill:rgb(0%,45.176471%,50.196078%);fill-opacity:1;stroke-width:0.2;stroke-linecap:butt;stroke-linejoin:miter;stroke:rgb(0%,0%,0%);stroke-opacity:1;stroke-miterlimit:10;" d="M 0 0 L 16 0 L 16 16 L 0 16 Z M 0 0 " transform="matrix(1,0,0,1,22,82)"/>
<path style="fill-rule:nonzero;fill:rgb(0%,40.156863%,50.196078%);fill-opacity:1;stroke-width:0.2;stroke-linecap:butt;stroke-linejoin:miter;stroke:rgb(0%,0%,0%);stroke-opacity:1;stroke-miterlimit:10;" d="M 0 0 L 16 0 L 16 16 L 0 16 Z M 0 0 " transform="matrix(1,0,0,1,42,82)"/>
<path style="fill-rule:nonzero;fill:rgb(0%,35.137255%,50.196078%);fill-opacity:1;stroke-width:0.2;stroke-linecap:butt;stroke-linejoin:miter;stroke:rgb(0%,0%,0%);stroke-opacity:1;stroke-miterlimit:10;" d="M 0 0 L 16 0 L 16 16 L 0 16 Z M 0 0 " transform="matrix(1,0,0,1,62,82)"/>
<path style="fill-rule:nonzero;fill:rgb(0%,30.117647%,50.196078%);fill-opacity:1;stroke-width:0.2;stroke-linecap:butt;stroke-linejoin:miter;stroke:rgb(0%,0%,0%);stroke-opacity:1;stroke-miterlimit:10;" d="M 0 0 L 16 0 L 16 16 L 0 16 Z M 0 0 " transform="matrix(1,0,0,1,82,82)"/>
<path style="fill-rule:nonzero;fill:rgb(0%,25.098039%,50.196078%);fill-opacity:1;stroke-width:0.2;stroke-linecap:butt;stroke-linejoin:miter;stroke:rgb(0%,0%,0%);stroke-opacity:1;stroke-miterlimit:10;" d="M 0 0 L 16 0 L 16 16 L 0 16 Z M 0 0 " transform="matrix(1,0,0,1,102,82)"/>
<path style="fill-rule:nonzero;fill:rgb(0%,20.078431%,50.196078%);fill-opacity:1;stroke-width:0.2;stroke-linecap:butt;stroke-linejoin:miter;stroke:rgb(0%,0%,0%);stroke-opacity:1;stroke-miterlimit:10;" d="M 0 0 L 16 0 L 16 16 L 0 16 Z M 0 0 " transform="matrix(1,0,0,1,122,82)"/>
<path style="fill-rule:nonzero;fill:rgb(0%,15.058824%,50.196078%);fill-opacity:1;stroke-width:0.2;stroke-linecap:butt;stroke-linejoin:miter;stroke:rgb(0%,0%,0%);stroke-opacity:1;stroke-miterlimit:10;" d="M 0 0 L 16 0 L 16 16 L 0 16 Z M 0 0 " transform="matrix(1,0,0,1,142,82)"/>
<path style="fill-rule:nonzero;fill:rgb(0%,10.039216%,50.196078%);fill-opacity:1;stroke-width:0.2;stroke-linecap:butt;stroke-linejoin:miter;stroke:rgb(0%,0%,0%);stroke-opacity:1;stroke-miterlimit:10;" d="M 0 0 L 16 0 L 16 16 L 0 16 Z M 0 0 " transform="matrix(1,0,0,1,162,82)"/>
<path style="fill-rule:nonzero;fill:rgb(0%,5.019608%,50.196078%);fill-opacity:1;stroke-width:0.2;stroke-linecap:butt;stroke-linejoin:miter;stroke:rgb(0%,0%,0%);stroke-opacity:1;stroke-miterlimit:10;" d="M 0 0 L 16 0 L 16 16 L 0 16 Z M 0 0 " transform="matrix(1,0,0,1,182,82)"/>
<path style="fill-rule:nonzero;fill:rgb(0%,0%,50.196078%);fill-opacity:1;stroke-width:0.2;stroke-linecap:butt;stroke-linejoin:miter;stroke:rgb(0%,0%,0%);stroke-opacity:1;stroke-miterlimit:10;" d="M 0 0 L 16 0 L 16 16 L 0 16 Z M 0 0 " transform="matrix(1,0,0,1,202,82)"/>
<path style="fill-rule:nonzero;fill:rgb(0%,0%,50.196078%);fill-opacity:1;stroke-width:0.2;stroke-linecap:butt;stroke-linejoin:miter;stroke:rgb(0%,0%,0%);stroke-opacity:1;stroke-miterlimit:10;" d="M 0 0 L 16 0 L 16 16 L 0 16 Z M 0 0 " transform="matrix(1,0,0,1,2,102)"/>
<path style="fill-rule:nonzero;fill:rgb(5.019608%,0%,50.196078%);fill-opacity:1;stroke-width:0.2;stroke-linecap:butt;stroke-linejoin:miter;stroke:rgb(0%,0%,0%);stroke-opacity:1;stroke-miterlimit:10;" d="M 0 0 L 16 0 L 16 16 L 0 16 Z M 0 0 " transform="matrix(1,0,0,1,22,102)"/>
<path style="fill-rule:nonzero;fill:rgb(10.039216%,0%,50.196078%);fill-opacity:1;stroke-width:0.2;stroke-linecap:butt;stroke-linejoin:miter;stroke:rgb(0%,0%,0%);stroke-opacity:1;stroke-miterlimit:10;" d="M 0 0 L 16 0 L 16 16 L 0 16 Z M 0 0 " transform="matrix(1,0,0,1,42,102)"/>
<path style="fill-rule:nonzero;fill:rgb(15.058824%,0%,50.196078%);fill-opacity:1;stroke-width:0.2;stroke-linecap:butt;stroke-linejoin:miter;stroke:rgb(0%,0%,0%);stroke-opacity:1;stroke-miterlimit:10;" d="M 0 0 L 16 0 L 16 16 L 0 16 Z M 0 0 " transform="matrix(1,0,0,1,62,102)"/>
<path style="fill-rule:nonzero;fill:rgb(20.078431%,0%,50.196078%);fill-opacity:1;stroke-width:0.2;stroke-linecap:butt;stroke-linejoin:miter;stroke:rgb(0%,0%,0%);stroke-opacity:1;stroke-miterlimit:10;" d="M 0 0 L 16 0 L 16 16 L 0 16 Z M 0 0 " transform="matrix(1,0,0,1,82,102)"/>
<path style="fill-rule:nonzero;fill:rgb(25.098039%,0%,50.196078%);fill-opacity:1;stroke-width:0.2;stroke-linecap:butt;stroke-linejoin:miter;stroke:rgb(0%,0%,0%);stroke-opacity:1;stroke-miterlimit:10;" d="M 0 0 L 16 0 L 16 16 L 0 16 Z M 0 0 " transform="matrix(1,0,0,1,102,102)"/>
<path style="fill-rule:nonzero;fill:rgb(30.117647%,0%,50.196078%);fill-opacity:1;stroke-width:0.2;stroke-linecap:butt;stroke-linejoin:miter;stroke:rgb(0%,0%,0%);stroke-opacity:1;stroke-miterlimit:10;" d="M 0 0 L 16 0 L 16 16 L 0 16 Z M 0 0 " transform="matrix(1,0,0,1,122,102)"/>
<path style="fill-rule:nonzero;fill:rgb(35.137255%,0%,50.196078%);fill-opacity:1;stroke-width:0.2;stroke-linecap:butt;stroke-linejoin:miter;stroke:rgb(0%,0%,0%);stroke-opacity:1;stroke-miterlimit:10;" d="M 0 0 L 16 0 L 16 16 L 0 16 Z M 0 0 " transform="matrix(1,0,0,1,142,102)"/>
<path style="fill-rule:nonzero;fill:rgb(40.156863%,0%,50.196078%);fill-opacity:1;stroke-width:0.2;stroke-linecap:butt;stroke-linejoin:miter;stroke:rgb(0%,0%,0%);stroke-opacity:1;stroke-miterlimit:10;" d="M 0 0 L 16 0 L 16 16 L 0 16 Z M 0 0 " transform="matrix(1,0,0,1,162,102)"/>
<path style="fill-rule:nonzero;fill:rgb(45.176471%,0%,50.196078%);fill-opacity:1;stroke-width:0.2;stroke-linecap:butt;stroke-linejoin:miter;stroke:rgb(0%,0%,0%);stroke-opacity:1;stroke-miterlimit:10;" d="M 0 0 L 16 0 L 16 16 L 0 16 Z M 0 0 " transform="matrix(1,0,0,1,182,102)"/>
<path style="fill-rule:nonzero;fill:rgb(50.196078%,0%,50.196078%);fill-opacity:1;stroke-width:0.2;stroke-linecap:butt;stroke-linejoin:miter;stroke:rgb(0%,0%,0%);stroke-opacity:1;stroke-miterlimit:10;" d="M 0 0 L 16 0 L 16 16 L 0 16 Z M 0 0 " transform="matrix(1,0,0,1,202,102)"/>
<path style="fill-rule:nonzero;fill:rgb(50.196078%,0%,50.196078%);fill-opacity:1;stroke-width:0.2;stroke-linecap:butt;stroke-linejoin:miter;stroke:rgb(0%,0%,0%);stroke-opacity:1;stroke-miterlimit:10;" d="M 0 0 L 16 0 L 16 16 L 0 16 Z M 0 0 " transform="matrix(1,0,0,1,2,122)"/>
<path style="fill-rule:nonzero;fill:rgb(50.196078%,0%,45.176471%);fill-opacity:1;stroke-width:0.2;stroke-linecap:butt;stroke-linejoin:miter;stroke:rgb(0%,0%,0%);stroke-opacity:1;stroke-miterlimit:10;" d="M 0 0 L 16 0 L 16 16 L 0 16 Z M 0 0 " transform="matrix(1,0,0,1,22,122)"/>
<path style="fill-rule:nonzero;fill:rgb(50.196078%,0%,40.156863%);fill-opacity:1;stroke-width:0.2;stroke-linecap:butt;stroke-linejoin:miter;stroke:rgb(0%,0%,0%);stroke-opacity:1;stroke-miterlimit:10;" d="M 0 0 L 16 0 L 16 16 L 0 16 Z M 0 0 " transform="matrix(1,0,0,1,42,122)"/>
<path style="fill-rule:nonzero;fill:rgb(50.196078%,0%,35.137255%);fill-opacity:1;stroke-width:0.2;stroke-linecap:butt;stroke-linejoin:miter;stroke:rgb(0%,0%,0%);stroke-opacity:1;stroke-miterlimit:10;" d="M 0 0 L 16 0 L 16 16 L 0 16 Z M 0 0 " transform="matrix(1,0,0,1,62,122)"/>
<path style="fill-rule:nonzero;fill:rgb(50.196078%,0%,30.117647%);fill-opacity:1;stroke-width:0.2;stroke-linecap:butt;stroke-linejoin:miter;stroke:rgb(0%,0%,0%);stroke-opacity:1;stroke-miterlimit:10;" d="M 0 0 L 16 0 L 16 16 L 0 16 Z M 0 0 " transform="matrix(1,0,0,1,82,122)"/>
<path style="fill-rule:nonzero;fill:rgb(50.196078%,0%,25.098039%);fill-opacity:1;stroke-width:0.2;stroke-linecap:butt;stroke-linejoin:miter;stroke:rgb(0%,0%,0%);stroke-opacity:1;stroke-miterlimit:10;" d="M 0 0 L 16 0 L 16 16 L 0 16 Z M 0 0 " transform="matrix(1,0,0,1,102,122)"/>
<path style="fill-rule:nonzero;fill:rgb(50.196078%,0%,20.078431%);fill-opacity:1;stroke-width:0.2;stroke-linecap:butt;stroke-linejoin:miter;stroke:rgb(0%,0%,0%);stroke-opacity:1;stroke-miterlimit:10;" d="M 0 0 L 16 0 L 16 16 L 0 16 Z M 0 0 " transform="matrix(1,0,0,1,122,122)"/>
<path style="fill-rule:nonzero;fill:rgb(50.196078%,0%,15.058824%);fill-opacity:1;stroke-width:0.2;stroke-linecap:butt;stroke-linejoin:miter;stroke:rgb(0%,0%,0%);stroke-opacity:1;stroke-miterlimit:10;" d="M 0 0 L 16 0 L 16 16 L 0 16 Z M 0 0 " transform="matrix(1,0,0,1,142,122)"/>
<path style="fill-rule:nonzero;fill:rgb(50.196078%,0%,10.039216%);fill-opacity:1;stroke-width:0.2;stroke-linecap:butt;stroke-linejoin:miter;stroke:rgb(0%,0%,0%);stroke-opacity:1;stroke-miterlimit:10;" d="M 0 0 L 16 0 L 16 16 L 0 16 Z M 0 0 " transform="matrix(1,0,0,1,162,122)"/>
<path style="fill-rule:nonzero;fill:rgb(50.196078%,0%,5.019608%);fill-opacity:1;stroke-width:0.2;stroke-linecap:butt;stroke-linejoin:miter;stroke:rgb(0%,0%,0%);stroke-opacity:1;stroke-miterlimit:10;" d="M 0 0 L 16 0 L 16 16 L 0 16 Z M 0 0 " transform="matrix(1,0,0,1,182,122)"/>
<path style="fill-rule:nonzero;fill:rgb(50.196078%,0%,0%);fill-opacity:1;stroke-width:0.2;stroke-linecap:butt;stroke-linejoin:miter;stroke:rgb(0%,0%,0%);stroke-opacity:1;stroke-miterlimit:10;" d="M 0 0 L 16 0 L 16 16 L 0 16 Z M 0 0 " transform="matrix(1,0,0,1,202,122)"/>
</g>
</svg>
