<?xml version="1.0" encoding="UTF-8"?>
<svg xmlns="http://www.w3.org/2000/svg" xmlns:xlink="http://www.w3.org/1999/xlink" width="220pt" height="120pt" viewBox="0 0 220 120" version="1.1">
<g id="id1">
<path style="fill-rule:nonzero;fill:rgb(25.098039%,25.098039%,25.098039%);fill-opacity:1;stroke-width:0.2;stroke-linecap:butt;stroke-linejoin:miter;stroke:rgb(0%,0%,0%);stroke-opacity:1;stroke-miterlimit:10;" d="M 0 0 L 16 0 L 16 16 L 0 16 Z M 0 0 " transform="matrix(1,0,0,1,2,2)"/>
<path style="fill-rule:nonzero;fill:rgb(27.607843%,22.588235%,22.588235%);fill-opacity:1;stroke-width:0.2;stroke-linecap:butt;stroke-linejoin:miter;stroke:rgb(0%,0%,0%);stroke-opacity:1;stroke-miterlimit:10;" d="M 0 0 L 16 0 L 16 16 L 0 16 Z M 0 0 " transform="matrix(1,0,0,1,22,2)"/>
<path style="fill-rule:nonzero;fill:rgb(30.117647%,20.078431%,20.078431%);fill-opacity:1;stroke-width:0.2;stroke-linecap:butt;stroke-linejoin:miter;stroke:rgb(0%,0%,0%);stroke-opacity:1;stroke-miterlimit:10;" d="M 0 0 L 16 0 L 16 16 L 0 16 Z M 0 0 " transform="matrix(1,0,0,1,42,2)"/>
<path style="fill-rule:nonzero;fill:rgb(32.627451%,17.568627%,17.568627%);fill-opacity:1;stroke-width:0.2;stroke-linecap:butt;stroke-linejoin:miter;stroke:rgb(0%,0%,0%);stroke-opacity:1;stroke-miterlimit:10;" d="M 0 0 L 16 0 L 16 16 L 0 16 Z M 0 0 " transform="matrix(1,0,0,1,62,2)"/>
<path style="fill-rule:nonzero;fill:rgb(35.137255%,15.058824%,15.058824%);fill-opacity:1;stroke-width:0.2;stroke-linecap:butt;stroke-linejoin:miter;stroke:rgb(0%,0%,0%);stroke-opacity:1;stroke-miterlimit:10;" d="M 0 0 L 16 0 L 16 16 L 0 16 Z M 0 0 " transform="matrix(1,0,0,1,82,2)"/>
<path style="fill-rule:nonzero;fill:rgb(37.647059%,12.54902%,12.54902%);fill-opacity:1;stroke-width:0.2;stroke-linecap:butt;stroke-linejoin:miter;stroke:rgb(0%,0%,0%);stroke-opacity:1;stroke-miterlimit:10;" d="M 0 0 L 16 0 L 16 16 L 0 16 Z M 0 0 " transform="matrix(1,0,0,1,102,2)"/>
<path style="fill-rule:nonzero;fill:rgb(40.156863%,10.039216%,10.039216%);fill-opacity:1;stroke-width:0.2;stroke-linecap:butt;stroke-linejoin:miter;stroke:rgb(0%,0%,0%);stroke-opacity:1;stroke-miterlimit:10;" d="M 0 0 L 16 0 L 16 16 L 0 16 Z M 0 0 " transform="matrix(1,0,0,1,122,2)"/>
<path style="fill-rule:nonzero;fill:rgb(42.666667%,7.529412%,7.529412%);fill-opacity:1;stroke-width:0.2;stroke-linecap:butt;stroke-linejoin:miter;stroke:rgb(0%,0%,0%);stroke-opacity:1;stroke-miterlimit:10;" d="M 0 0 L 16 0 L 16 16 L 0 16 Z M 0 0 " transform="matrix(1,0,0,1,142,2)"/>
<path style="fill-rule:nonzero;fill:rgb(45.176471%,5.019608%,5.019608%);fill-opacity:1;stroke-width:0.2;stroke-linecap:butt;stroke-linejoin:miter;stroke:rgb(0%,0%,0%);stroke-opacity:1;stroke-miterlimit:10;" d="M 0 0 L 16 0 L 16 16 L 0 16 Z M 0 0 " transform="matrix(1,0,0,1,162,2)"/>
<path style="fill-rule:nonzero;fill:rgb(47.686275%,2.509804%,2.509804%);fill-opacity:1;stroke-width:0.2;stroke-linecap:butt;stroke-linejoin:miter;stroke:rgb(0%,0%,0%);stroke-opacity:1;stroke-miterlimit:10;" d="M 0 0 L 16 0 L 16 16 L 0 16 Z M 0 0 " transform="matrix(1,0,0,1,182,2)"/>
<path style="fill-rule:nonzero;fill:rgb(50.196078%,0%,0%);fill-opacity:1;stroke-width:0.2;stroke-linecap:butt;stroke-linejoin:miter;stroke:rgb(0%,0%,0%);stroke-opacity:1;stroke-miterlimit:10;" d="M 0 0 L 16 0 L 16 16 L 0 16 Z M 0 0 " transform="matrix(1,0,0,1,202,2)"/>
<path style="fill-rule:nonzero;fill:rgb(25.098039%,25.098039%,25.098039%);fill-opacity:1;stroke-width:0.2;stroke-linecap:butt;stroke-linejoin:miter;stroke:rgb(0%,0%,0%);stroke-opacity:1;stroke-miterlimit:10;" d="M 0 0 L 16 0 L 16 16 L 0 16 Z M 0 0 " transform="matrix(1,0,0,1,2,22)"/>
<path style="fill-rule:nonzero;fill:rgb(27.607843%,27.607843%,22.588235%);fill-opacity:1;stroke-width:0.2;stroke-linecap:butt;stroke-linejoin:miter;stroke:rgb(0%,0%,0%);stroke-opacity:1;stroke-miterlimit:10;" d="M 0 0 L 16 0 L 16 16 L 0 16 Z M 0 0 " transform="matrix(1,0,0,1,22,22)"/>
<path style="fill-rule:nonzero;fill:rgb(30.117647%,30.117647%,20.078431%);fill-opacity:1;stroke-width:0.2;stroke-linecap:butt;stroke-linejoin:miter;stroke:rgb(0%,0%,0%);stroke-opacity:1;stroke-miterlimit:10;" d="M 0 0 L 16 0 L 16 16 L 0 16 Z M 0 0 " transform="matrix(1,0,0,1,42,22)"/>
<path style="fill-rule:nonzero;fill:rgb(32.627451%,32.627451%,17.568627%);fill-opacity:1;stroke-width:0.2;stroke-linecap:butt;stroke-linejoin:miter;stroke:rgb(0%,0%,0%);stroke-opacity:1;stroke-miterlimit:10;" d="M 0 0 L 16 0 L 16 16 L 0 16 Z M 0 0 " transform="matrix(1,0,0,1,62,22)"/>
<path style="fill-rule:nonzero;fill:rgb(35.137255%,35.137255%,15.058824%);fill-opacity:1;stroke-width:0.2;stroke-linecap:butt;stroke-linejoin:miter;stroke:rgb(0%,0%,0%);stroke-opacity:1;stroke-miterlimit:10;" d="M 0 0 L 16 0 L 16 16 L 0 16 Z M 0 0 " transform="matrix(1,0,0,1,82,22)"/>
<path style="fill-rule:nonzero;fill:rgb(37.647059%,37.647059%,12.54902%);fill-opacity:1;stroke-width:0.2;stroke-linecap:butt;stroke-linejoin:miter;stroke:rgb(0%,0%,0%);stroke-opacity:1;stroke-miterlimit:10;" d="M 0 0 L 16 0 L 16 16 L 0 16 Z M 0 0 " transform="matrix(1,0,0,1,102,22)"/>
<path style="fill-rule:nonzero;fill:rgb(40.156863%,40.156863%,10.039216%);fill-opacity:1;stroke-width:0.2;stroke-linecap:butt;stroke-linejoin:miter;stroke:rgb(0%,0%,0%);stroke-opacity:1;stroke-miterlimit:10;" d="M 0 0 L 16 0 L 16 16 L 0 16 Z M 0 0 " transform="matrix(1,0,0,1,122,22)"/>
<path style="fill-rule:nonzero;fill:rgb(42.666667%,42.666667%,7.529412%);fill-opacity:1;stroke-width:0.2;stroke-linecap:butt;stroke-linejoin:miter;stroke:rgb(0%,0%,0%);stroke-opacity:1;stroke-miterlimit:10;" d="M 0 0 L 16 0 L 16 16 L 0 16 Z M 0 0 " transform="matrix(1,0,0,1,142,22)"/>
<path style="fill-rule:nonzero;fill:rgb(45.176471%,45.176471%,5.019608%);fill-opacity:1;stroke-width:0.2;stroke-linecap:butt;stroke-linejoin:miter;stroke:rgb(0%,0%,0%);stroke-opacity:1;stroke-miterlimit:10;" d="M 0 0 L 16 0 L 16 16 L 0 16 Z M 0 0 " transform="matrix(1,0,0,1,162,22)"/>
<path style="fill-rule:nonzero;fill:rgb(47.686275%,47.686275%,2.509804%);fill-opacity:1;stroke-width:0.2;stroke-linecap:butt;stroke-linejoin:miter;stroke:rgb(0%,0%,0%);stroke-opacity:1;stroke-miterlimit:10;" d="M 0 0 L 16 0 L 16 16 L 0 16 Z M 0 0 " transform="matrix(1,0,0,1,182,22)"/>
<path style="fill-rule:nonzero;fill:rgb(50.196078%,50.196078%,0%);fill-opacity:1;stroke-width:0.2;stroke-linecap:butt;stroke-linejoin:miter;stroke:rgb(0%,0%,0%);stroke-opacity:1;stroke-miterlimit:10;" d="M 0 0 L 16 0 L 16 16 L 0 16 Z M 0 0 " transform="matrix(1,0,0,1,202,22)"/>
<path style="fill-rule:nonzero;fill:rgb(25.098039%,25.098039%,25.098039%);fill-opacity:1;stroke-width:0.2;stroke-linecap:butt;stroke-linejoin:miter;stroke:rgb(0%,0%,0%);stroke-opacity:1;stroke-miterlimit:10;" d="M 0 0 L 16 0 L 16 16 L 0 16 Z M 0 0 " transform="matrix(1,0,0,1,2,42)"/>
<path style="fill-rule:nonzero;fill:rgb(22.588235%,27.607843%,22.588235%);fill-opacity:1;stroke-width:0.2;stroke-linecap:butt;stroke-linejoin:miter;stroke:rgb(0%,0%,0%);stroke-opacity:1;stroke-miterlimit:10;" d="M 0 0 L 16 0 L 16 16 L 0 16 Z M 0 0 " transform="matrix(1,0,0,1,22,42)"/>
<path style="fill-rule:nonzero;fill:rgb(20.078431%,30.117647%,20.078431%);fill-opacity:1;stroke-width:0.2;stroke-linecap:butt;stroke-linejoin:miter;stroke:rgb(0%,0%,0%);stroke-opacity:1;stroke-miterlimit:10;" d="M 0 0 L 16 0 L 16 16 L 0 16 Z M 0 0 " transform="matrix(1,0,0,1,42,42)"/>
<path style="fill-rule:nonzero;fill:rgb(17.568627%,32.627451%,17.568627%);fill-opacity:1;stroke-width:0.2;stroke-linecap:butt;stroke-linejoin:miter;stroke:rgb(0%,0%,0%);stroke-opacity:1;stroke-miterlimit:10;" d="M 0 0 L 16 0 L 16 16 L 0 16 Z M 0 0 " transform="matrix(1,0,0,1,62,42)"/>
<path style="fill-rule:nonzero;fill:rgb(15.058824%,35.137255%,15.058824%);fill-opacity:1;stroke-width:0.2;stroke-linecap:butt;stroke-linejoin:miter;stroke:rgb(0%,0%,0%);stroke-opacity:1;stroke-miterlimit:10;" d="M 0 0 L 16 0 L 16 16 L 0 16 Z M 0 0 " transform="matrix(1,0,0,1,82,42)"/>
<path style="fill-rule:nonzero;fill:rgb(12.54902%,37.647059%,12.54902%);fill-opacity:1;stroke-width:0.2;stroke-linecap:butt;stroke-linejoin:miter;stroke:rgb(0%,0%,0%);stroke-opacity:1;stroke-miterlimit:10;" d="M 0 0 L 16 0 L 16 16 L 0 16 Z M 0 0 " transform="matrix(1,0,0,1,102,42)"/>
<path style="fill-rule:nonzero;fill:rgb(10.039216%,40.156863%,10.039216%);fill-opacity:1;stroke-width:0.2;stroke-linecap:butt;stroke-linejoin:miter;stroke:rgb(0%,0%,0%);stroke-opacity:1;stroke-miterlimit:10;" d="M 0 0 L 16 0 L 16 16 L 0 16 Z M 0 0 " transform="matrix(1,0,0,1,122,42)"/>
<path style="fill-rule:nonzero;fill:rgb(7.529412%,42.666667%,7.529412%);fill-opacity:1;stroke-width:0.2;stroke-linecap:butt;stroke-linejoin:miter;stroke:rgb(0%,0%,0%);stroke-opacity:1;stroke-miterlimit:10;" d="M 0 0 L 16 0 L 16 16 L 0 16 Z M 0 0 " transform="matrix(1,0,0,1,142,42)"/>
<path style="fill-rule:nonzero;fill:rgb(5.019608%,45.176471%,5.019608%);fill-opacity:1;stroke-width:0.2;stroke-linecap:butt;stroke-linejoin:miter;stroke:rgb(0%,0%,0%);stroke-opacity:1;stroke-miterlimit:10;" d="M 0 0 L 16 0 L 16 16 L 0 16 Z M 0 0 " transform="matrix(1,0,0,1,162,42)"/>
<path style="fill-rule:nonzero;fill:rgb(2.509804%,47.686275%,2.509804%);fill-opacity:1;stroke-width:0.2;stroke-linecap:butt;stroke-linejoin:miter;stroke:rgb(0%,0%,0%);stroke-opacity:1;stroke-miterlimit:10;" d="M 0 0 L 16 0 L 16 16 L 0 16 Z M 0 0 " transform="matrix(1,0,0,1,182,42)"/>
<path style="fill-rule:nonzero;fill:rgb(0%,50.196078%,0%);fill-opacity:1;stroke-width:0.2;stroke-linecap:butt;stroke-linejoin:miter;stroke:rgb(0%,0%,0%);stroke-opacity:1;stroke-miterlimit:10;" d="M 0 0 L 16 0 L 16 16 L 0 16 Z M 0 0 " transform="matrix(1,0,0,1,202,42)"/>
<path style="fill-rule:nonzero;fill:rgb(25.098039%,25.098039%,25.098039%);fill-opacity:1;stroke-width:0.2;stroke-linecap:butt;stroke-linejoin:miter;stroke:rgb(0%,0%,0%);stroke-opacity:1;stroke-miterlimit:10;" d="M 0 0 L 16 0 L 16 16 L 0 16 Z M 0 0 " transform="matrix(1,0,0,1,2,62)"/>
<path style="fill-rule:nonzero;fill:rgb(22.588235%,27.607843%,27.607843%);fill-opacity:1;stroke-width:0.2;stroke-linecap:butt;stroke-linejoin:miter;stroke:rgb(0%,0%,0%);stroke-opacity:1;stroke-miterlimit:10;" d="M 0 0 L 16 0 L 16 16 L 0 16 Z M 0 0 " transform="matrix(1,0,0,1,22,62)"/>
<path style="fill-rule:nonzero;fill:rgb(20.078431%,30.117647%,30.117647%);fill-opacity:1;stroke-width:0.2;stroke-linecap:butt;stroke-linejoin:miter;stroke:rgb(0%,0%,0%);stroke-opacity:1;stroke-miterlimit:10;" d="M 0 0 L 16 0 L 16 16 L 0 16 Z M 0 0 " transform="matrix(1,0,0,1,42,62)"/>
<path style="fill-rule:nonzero;fill:rgb(17.568627%,32.627451%,32.627451%);fill-opacity:1;stroke-width:0.2;stroke-linecap:butt;stroke-linejoin:miter;stroke:rgb(0%,0%,0%);stroke-opacity:1;stroke-miterlimit:10;" d="M 0 0 L 16 0 L 16 16 L 0 16 Z M 0 0 " transform="matrix(1,0,0,1,62,62)"/>
<path style="fill-rule:nonzero;fill:rgb(15.058824%,35.137255%,35.137255%);fill-opacity:1;stroke-width:0.2;stroke-linecap:butt;stroke-linejoin:miter;stroke:rgb(0%,0%,0%);stroke-opacity:1;stroke-miterlimit:10;" d="M 0 0 L 16 0 L 16 16 L 0 16 Z M 0 0 " transform="matrix(1,0,0,1,82,62)"/>
<path style="fill-rule:nonzero;fill:rgb(12.54902%,37.647059%,37.647059%);fill-opacity:1;stroke-width:0.2;stroke-linecap:butt;stroke-linejoin:miter;stroke:rgb(0%,0%,0%);stroke-opacity:1;stroke-miterlimit:10;" d="M 0 0 L 16 0 L 16 16 L 0 16 Z M 0 0 " transform="matrix(1,0,0,1,102,62)"/>
<path style="fill-rule:nonzero;fill:rgb(10.039216%,40.156863%,40.156863%);fill-opacity:1;stroke-width:0.2;stroke-linecap:butt;stroke-linejoin:miter;stroke:rgb(0%,0%,0%);stroke-opacity:1;stroke-miterlimit:10;" d="M 0 0 L 16 0 L 16 16 L 0 16 Z M 0 0 " transform="matrix(1,0,0,1,122,62)"/>
<path style="fill-rule:nonzero;fill:rgb(7.529412%,42.666667%,42.666667%);fill-opacity:1;stroke-width:0.2;stroke-linecap:butt;stroke-linejoin:miter;stroke:rgb(0%,0%,0%);stroke-opacity:1;stroke-miterlimit:10;" d="M 0 0 L 16 0 L 16 16 L 0 16 Z M 0 0 " transform="matrix(1,0,0,1,142,62)"/>
<path style="fill-rule:nonzero;fill:rgb(5.019608%,45.176471%,45.176471%);fill-opacity:1;stroke-width:0.2;stroke-linecap:butt;stroke-linejoin:miter;stroke:rgb(0%,0%,0%);stroke-opacity:1;stroke-miterlimit:10;" d="M 0 0 L 16 0 L 16 16 L 0 16 Z M 0 0 " transform="matrix(1,0,0,1,162,62)"/>
<path style="fill-rule:nonzero;fill:rgb(2.509804%,47.686275%,47.686275%);fill-opacity:1;stroke-width:0.2;stroke-linecap:butt;stroke-linejoin:miter;stroke:rgb(0%,0%,0%);stroke-opacity:1;stroke-miterlimit:10;" d="M 0 0 L 16 0 L 16 16 L 0 16 Z M 0 0 " transform="matrix(1,0,0,1,182,62)"/>
<path style="fill-rule:nonzero;fill:rgb(0%,50.196078%,50.196078%);fill-opacity:1;stroke-width:0.2;stroke-linecap:butt;stroke-linejoin:miter;stroke:rgb(0%,0%,0%);stroke-opacity:1;stroke-miterlimit:10;" d="M 0 0 L 16 0 L 16 16 L 0 16 Z M 0 0 " transform="matrix(1,0,0,1,202,62)"/>
<path style="fill-rule:nonzero;fill:rgb(25.098039%,25.098039%,25.098039%);fill-opacity:1;stroke-width:0.2;stroke-linecap:butt;stroke-linejoin:miter;stroke:rgb(0%,0%,0%);stroke-opacity:1;stroke-miterlimit:10;" d="M 0 0 L 16 0 L 16 16 L 0 16 Z M 0 0 " transform="matrix(1,0,0,1,2,82)"/>
<path style="fill-rule:nonzero;fill:rgb(22.588235%,22.588235%,27.607843%);fill-opacity:1;stroke-width:0.2;stroke-linecap:butt;stroke-linejoin:miter;stroke:rgb(0%,0%,0%);stroke-opacity:1;stroke-miterlimit:10;" d="M 0 0 L 16 0 L 16 16 L 0 16 Z M 0 0 " transform="matrix(1,0,0,1,22,82)"/>
<path style="fill-rule:nonzero;fill:rgb(20.078431%,20.078431%,30.117647%);fill-opacity:1;stroke-width:0.2;stroke-linecap:butt;stroke-linejoin:miter;stroke:rgb(0%,0%,0%);stroke-opacity:1;stroke-miterlimit:10;" d="M 0 0 L 16 0 L 16 16 L 0 16 Z M 0 0 " transform="matrix(1,0,0,1,42,82)"/>
<path style="fill-rule:nonzero;fill:rgb(17.568627%,17.568627%,32.627451%);fill-opacity:1;stroke-width:0.2;stroke-linecap:butt;stroke-linejoin:miter;stroke:rgb(0%,0%,0%);stroke-opacity:1;stroke-miterlimit:10;" d="M 0 0 L 16 0 L 16 16 L 0 16 Z M 0 0 " transform="matrix(1,0,0,1,62,82)"/>
<path style="fill-rule:nonzero;fill:rgb(15.058824%,15.058824%,35.137255%);fill-opacity:1;stroke-width:0.2;stroke-linecap:butt;stroke-linejoin:miter;stroke:rgb(0%,0%,0%);stroke-opacity:1;stroke-miterlimit:10;" d="M 0 0 L 16 0 L 16 16 L 0 16 Z M 0 0 " transform="matrix(1,0,0,1,82,82)"/>
<path style="fill-rule:nonzero;fill:rgb(12.54902%,12.54902%,37.647059%);fill-opacity:1;stroke-width:0.2;stroke-linecap:butt;stroke-linejoin:miter;stroke:rgb(0%,0%,0%);stroke-opacity:1;stroke-miterlimit:10;" d="M 0 0 L 16 0 L 16 16 L 0 16 Z M 0 0 " transform="matrix(1,0,0,1,102,82)"/>
<path style="fill-rule:nonzero;fill:rgb(10.039216%,10.039216%,40.156863%);fill-opacity:1;stroke-width:0.2;stroke-linecap:butt;stroke-linejoin:miter;stroke:rgb(0%,0%,0%);stroke-opacity:1;stroke-miterlimit:10;" d="M 0 0 L 16 0 L 16 16 L 0 16 Z M 0 0 " transform="matrix(1,0,0,1,122,82)"/>
<path style="fill-rule:nonzero;fill:rgb(7.529412%,7.529412%,42.666667%);fill-opacity:1;stroke-width:0.2;stroke-linecap:butt;stroke-linejoin:miter;stroke:rgb(0%,0%,0%);stroke-opacity:1;stroke-miterlimit:10;" d="M 0 0 L 16 0 L 16 16 L 0 16 Z M 0 0 " transform="matrix(1,0,0,1,142,82)"/>
<path style="fill-rule:nonzero;fill:rgb(5.019608%,5.019608%,45.176471%);fill-opacity:1;stroke-width:0.2;stroke-linecap:butt;stroke-linejoin:miter;stroke:rgb(0%,0%,0%);stroke-opacity:1;stroke-miterlimit:10;" d="M 0 0 L 16 0 L 16 16 L 0 16 Z M 0 0 " transform="matrix(1,0,0,1,162,82)"/>
<path style="fill-rule:nonzero;fill:rgb(2.509804%,2.509804%,47.686275%);fill-opacity:1;stroke-width:0.2;stroke-linecap:butt;stroke-linejoin:miter;stroke:rgb(0%,0%,0%);stroke-opacity:1;stroke-miterlimit:10;" d="M 0 0 L 16 0 L 16 16 L 0 16 Z M 0 0 " transform="matrix(1,0,0,1,182,82)"/>
<path style="fill-rule:nonzero;fill:rgb(0%,0%,50.196078%);fill-opacity:1;stroke-width:0.2;stroke-linecap:butt;stroke-linejoin:miter;stroke:rgb(0%,0%,0%);stroke-opacity:1;stroke-miterlimit:10;" d="M 0 0 L 16 0 L 16 16 L 0 16 Z M 0 0 " transform="matrix(1,0,0,1,202,82)"/>
<path style="fill-rule:nonzero;fill:rgb(25.098039%,25.098039%,25.098039%);fill-opacity:1;stroke-width:0.2;stroke-linecap:butt;stroke-linejoin:miter;stroke:rgb(0%,0%,0%);stroke-opacity:1;stroke-miterlimit:10;" d="M 0 0 L 16 0 L 16 16 L 0 16 Z M 0 0 " transform="matrix(1,0,0,1,2,102)"/>
<path style="fill-rule:nonzero;fill:rgb(27.607843%,22.588235%,27.607843%);fill-opacity:1;stroke-width:0.2;stroke-linecap:butt;stroke-linejoin:miter;stroke:rgb(0%,0%,0%);stroke-opacity:1;stroke-miterlimit:10;" d="M 0 0 L 16 0 L 16 16 L 0 16 Z M 0 0 " transform="matrix(1,0,0,1,22,102)"/>
<path style="fill-rule:nonzero;fill:rgb(30.117647%,20.078431%,30.117647%);fill-opacity:1;stroke-width:0.2;stroke-linecap:butt;stroke-linejoin:miter;stroke:rgb(0%,0%,0%);stroke-opacity:1;stroke-miterlimit:10;" d="M 0 0 L 16 0 L 16 16 L 0 16 Z M 0 0 " transform="matrix(1,0,0,1,42,102)"/>
<path style="fill-rule:nonzero;fill:rgb(32.627451%,17.568627%,32.627451%);fill-opacity:1;stroke-width:0.2;stroke-linecap:butt;stroke-linejoin:miter;stroke:rgb(0%,0%,0%);stroke-opacity:1;stroke-miterlimit:10;" d="M 0 0 L 16 0 L 16 16 L 0 16 Z M 0 0 " transform="matrix(1,0,0,1,62,102)"/>
<path style="fill-rule:nonzero;fill:rgb(35.137255%,15.058824%,35.137255%);fill-opacity:1;stroke-width:0.2;stroke-linecap:butt;stroke-linejoin:miter;stroke:rgb(0%,0%,0%);stroke-opacity:1;stroke-miterlimit:10;" d="M 0 0 L 16 0 L 16 16 L 0 16 Z M 0 0 " transform="matrix(1,0,0,1,82,102)"/>
<path style="fill-rule:nonzero;fill:rgb(37.647059%,12.54902%,37.647059%);fill-opacity:1;stroke-width:0.2;stroke-linecap:butt;stroke-linejoin:miter;stroke:rgb(0%,0%,0%);stroke-opacity:1;stroke-miterlimit:10;" d="M 0 0 L 16 0 L 16 16 L 0 16 Z M 0 0 " transform="matrix(1,0,0,1,102,102)"/>
<path style="fill-rule:nonzero;fill:rgb(40.156863%,10.039216%,40.156863%);fill-opacity:1;stroke-width:0.2;stroke-linecap:butt;stroke-linejoin:miter;stroke:rgb(0%,0%,0%);stroke-opacity:1;stroke-miterlimit:10;" d="M 0 0 L 16 0 L 16 16 L 0 16 Z M 0 0 " transform="matrix(1,0,0,1,122,102)"/>
<path style="fill-rule:nonzero;fill:rgb(42.666667%,7.529412%,42.666667%);fill-opacity:1;stroke-width:0.2;stroke-linecap:butt;stroke-linejoin:miter;stroke:rgb(0%,0%,0%);stroke-opacity:1;stroke-miterlimit:10;" d="M 0 0 L 16 0 L 16 16 L 0 16 Z M 0 0 " transform="matrix(1,0,0,1,142,102)"/>
<path style="fill-rule:nonzero;fill:rgb(45.176471%,5.019608%,45.176471%);fill-opacity:1;stroke-width:0.2;stroke-linecap:butt;stroke-linejoin:miter;stroke:rgb(0%,0%,0%);stroke-opacity:1;stroke-miterlimit:10;" d="M 0 0 L 16 0 L 16 16 L 0 16 Z M 0 0 " transform="matrix(1,0,0,1,162,102)"/>
<path style="fill-rule:nonzero;fill:rgb(47.686275%,2.509804%,47.686275%);fill-opacity:1;stroke-width:0.2;stroke-linecap:butt;stroke-linejoin:miter;stroke:rgb(0%,0%,0%);stroke-opacity:1;stroke-miterlimit:10;" d="M 0 0 L 16 0 L 16 16 L 0 16 Z M 0 0 " transform="matrix(1,0,0,1,182,102)"/>
<path style="fill-rule:nonzero;fill:rgb(50.196078%,0%,50.196078%);fill-opacity:1;stroke-width:0.2;stroke-linecap:butt;stroke-linejoin:miter;stroke:rgb(0%,0%,0%);stroke-opacity:1;stroke-miterlimit:10;" d="M 0 0 L 16 0 L 16 16 L 0 16 Z M 0 0 " transform="matrix(1,0,0,1,202,102)"/>
</g>
</svg>
