<?xml version="1.0" encoding="UTF-8"?>
<svg xmlns="http://www.w3.org/2000/svg" xmlns:xlink="http://www.w3.org/1999/xlink" width="200pt" height="200pt" viewBox="0 0 200 200" version="1.1">
<g id="id1">
<path style="fill:none;stroke-width:1;stroke-linecap:butt;stroke-linejoin:miter;stroke:rgb(88.0722%,61.1041%,14.2051%);stroke-opacity:1;stroke-dasharray:1,1;stroke-miterlimit:10;" d="M 0 50 L 0 50 " transform="matrix(1,0,0,-1,100,100)"/>
<path style="fill:none;stroke-width:1;stroke-linecap:butt;stroke-linejoin:miter;stroke:rgb(36.8417%,50.6779%,70.9798%);stroke-opacity:1;stroke-miterlimit:10;" d="M 0 50 L 0 20 " transform="matrix(1,0,0,-1,100,100)"/>
<path style="fill:none;stroke-width:1;stroke-linecap:butt;stroke-linejoin:miter;stroke:rgb(36.8417%,50.6779%,70.9798%);stroke-opacity:1;stroke-dasharray:1,1;stroke-miterlimit:10;" d="M 0 20 L 0 20 " transform="matrix(1,0,0,-1,100,100)"/>
<path style="fill:none;stroke-width:1;stroke-linecap:butt;stroke-linejoin:miter;stroke:rgb(88.0722%,61.1041%,14.2051%);stroke-opacity:1;stroke-dasharray:1,1;stroke-miterlimit:10;" d="M 0 20 L -20 20 " transform="matrix(1,0,0,-1,100,100)"/>
<path style="fill:none;stroke-width:1;stroke-linecap:butt;stroke-linejoin:miter;stroke:rgb(88.0722%,61.1041%,14.2051%);stroke-opacity:1;stroke-dasharray:1,1;stroke-miterlimit:10;" d="M -20 20 L -20 20 " transform="matrix(1,0,0,-1,100,100)"/>
<path style="fill:none;stroke-width:1;stroke-linecap:butt;stroke-linejoin:miter;stroke:rgb(36.8417%,50.6779%,70.9798%);stroke-opacity:1;stroke-miterlimit:10;" d="M -20 20 L -20 50 " transform="matrix(1,0,0,-1,100,100)"/>
<path style="fill:none;stroke-width:1;stroke-linecap:butt;stroke-linejoin:miter;stroke:rgb(36.8417%,50.6779%,70.9798%);stroke-opacity:1;stroke-miterlimit:10;" d="M -20 50 L -20 80 " transform="matrix(1,0,0,-1,100,100)"/>
<path style="fill:none;stroke-width:1;stroke-linecap:butt;stroke-linejoin:miter;stroke:rgb(36.8417%,50.6779%,70.9798%);stroke-opacity:1;stroke-dasharray:1,1;stroke-miterlimit:10;" d="M -20 80 L -20 80 " transform="matrix(1,0,0,-1,100,100)"/>
<path style="fill:none;stroke-width:1;stroke-linecap:butt;stroke-linejoin:miter;stroke:rgb(88.0722%,61.1041%,14.2051%);stroke-opacity:1;stroke-dasharray:1,1;stroke-miterlimit:10;" d="M -20 80 L -40 50 " transform="matrix(1,0,0,-1,100,100)"/>
<path style="fill:none;stroke-width:1;stroke-linecap:butt;stroke-linejoin:miter;stroke:rgb(88.0722%,61.1041%,14.2051%);stroke-opacity:1;stroke-dasharray:1,1;stroke-miterlimit:10;" d="M -40 50 L -40 50 " transform="matrix(1,0,0,-1,100,100)"/>
<path style="fill:none;stroke-width:1;stroke-linecap:butt;stroke-linejoin:miter;stroke:rgb(36.8417%,50.6779%,70.9798%);stroke-opacity:1;stroke-miterlimit:10;" d="M -40 50 L -40 20 " transform="matrix(1,0,0,-1,100,100)"/>
<path style="fill:none;stroke-width:1;stroke-linecap:butt;stroke-linejoin:miter;stroke:rgb(36.8417%,50.6779%,70.9798%);stroke-opacity:1;stroke-dasharray:1,1;stroke-miterlimit:10;" d="M -40 20 L -40 20 " transform="matrix(1,0,0,-1,100,100)"/>
<path style="fill:none;stroke-width:1;stroke-linecap:butt;stroke-linejoin:miter;stroke:rgb(88.0722%,61.1041%,14.2051%);stroke-opacity:1;stroke-dasharray:1,1;stroke-miterlimit:10;" d="M -40 20 L -40 50 " transform="matrix(1,0,0,-1,100,100)"/>
<path style="fill:none;stroke-width:1;stroke-linecap:butt;stroke-linejoin:miter;stroke:rgb(88.0722%,61.1041%,14.2051%);stroke-opacity:1;stroke-dasharray:1,1;stroke-miterlimit:10;" d="M -40 50 L -40 50 " transform="matrix(1,0,0,-1,100,100)"/>
<path style="fill:none;stroke-width:1;stroke-linecap:butt;stroke-linejoin:miter;stroke:rgb(36.8417%,50.6779%,70.9798%);stroke-opacity:1;stroke-miterlimit:10;" d="M -40 50 L -40 80 " transform="matrix(1,0,0,-1,100,100)"/>
<path style="fill:none;stroke-width:1;stroke-linecap:butt;stroke-linejoin:miter;stroke:rgb(36.8417%,50.6779%,70.9798%);stroke-opacity:1;stroke-dasharray:1,1;stroke-miterlimit:10;" d="M -40 80 L -40 80 " transform="matrix(1,0,0,-1,100,100)"/>
<path style="fill:none;stroke-width:1;stroke-linecap:butt;stroke-linejoin:miter;stroke:rgb(88.0722%,61.1041%,14.2051%);stroke-opacity:1;stroke-dasharray:1,1;stroke-miterlimit:10;" d="M -40 80 L -60 80 " transform="matrix(1,0,0,-1,100,100)"/>
<path style="fill:none;stroke-width:1;stroke-linecap:butt;stroke-linejoin:miter;stroke:rgb(88.0722%,61.1041%,14.2051%);stroke-opacity:1;stroke-dasharray:1,1;stroke-miterlimit:10;" d="M -60 80 L -60 80 " transform="matrix(1,0,0,-1,100,100)"/>
<path style="fill:none;stroke-width:1;stroke-linecap:butt;stroke-linejoin:miter;stroke:rgb(36.8417%,50.6779%,70.9798%);stroke-opacity:1;stroke-miterlimit:10;" d="M -60 80 L -60 50 " transform="matrix(1,0,0,-1,100,100)"/>
<path style="fill:none;stroke-width:1;stroke-linecap:butt;stroke-linejoin:miter;stroke:rgb(36.8417%,50.6779%,70.9798%);stroke-opacity:1;stroke-dasharray:1,1;stroke-miterlimit:10;" d="M -60 50 L -60 50 " transform="matrix(1,0,0,-1,100,100)"/>
<path style="fill:none;stroke-width:1;stroke-linecap:butt;stroke-linejoin:miter;stroke:rgb(88.0722%,61.1041%,14.2051%);stroke-opacity:1;stroke-dasharray:1,1;stroke-miterlimit:10;" d="M -60 50 L -80 80 " transform="matrix(1,0,0,-1,100,100)"/>
<path style="fill:none;stroke-width:1;stroke-linecap:butt;stroke-linejoin:miter;stroke:rgb(88.0722%,61.1041%,14.2051%);stroke-opacity:1;stroke-dasharray:1,1;stroke-miterlimit:10;" d="M -80 80 L -80 80 " transform="matrix(1,0,0,-1,100,100)"/>
<path style="fill:none;stroke-width:1;stroke-linecap:butt;stroke-linejoin:miter;stroke:rgb(36.8417%,50.6779%,70.9798%);stroke-opacity:1;stroke-miterlimit:10;" d="M -80 80 L -80 20 " transform="matrix(1,0,0,-1,100,100)"/>
<path style="fill:none;stroke-width:1;stroke-linecap:butt;stroke-linejoin:miter;stroke:rgb(36.8417%,50.6779%,70.9798%);stroke-opacity:1;stroke-dasharray:1,1;stroke-miterlimit:10;" d="M -80 20 L -80 20 " transform="matrix(1,0,0,-1,100,100)"/>
<path style="fill:none;stroke-width:1;stroke-linecap:butt;stroke-linejoin:miter;stroke:rgb(88.0722%,61.1041%,14.2051%);stroke-opacity:1;stroke-dasharray:1,1;stroke-miterlimit:10;" d="M -80 20 L -80 -80 " transform="matrix(1,0,0,-1,100,100)"/>
<path style="fill:none;stroke-width:1;stroke-linecap:butt;stroke-linejoin:miter;stroke:rgb(88.0722%,61.1041%,14.2051%);stroke-opacity:1;stroke-dasharray:1,1;stroke-miterlimit:10;" d="M -80 -80 L -80 -80 " transform="matrix(1,0,0,-1,100,100)"/>
<path style="fill:none;stroke-width:1;stroke-linecap:butt;stroke-linejoin:miter;stroke:rgb(36.8417%,50.6779%,70.9798%);stroke-opacity:1;stroke-miterlimit:10;" d="M -80 -80 L -80 0 " transform="matrix(1,0,0,-1,100,100)"/>
<path style="fill:none;stroke-width:1;stroke-linecap:butt;stroke-linejoin:miter;stroke:rgb(36.8417%,50.6779%,70.9798%);stroke-opacity:1;stroke-miterlimit:10;" d="M -80 0 L 80 0 " transform="matrix(1,0,0,-1,100,100)"/>
<path style="fill:none;stroke-width:1;stroke-linecap:butt;stroke-linejoin:miter;stroke:rgb(36.8417%,50.6779%,70.9798%);stroke-opacity:1;stroke-miterlimit:10;" d="M 80 0 L 80 80 " transform="matrix(1,0,0,-1,100,100)"/>
</g>
</svg>
