<?xml version="1.0" encoding="UTF-8"?>
<svg xmlns="http://www.w3.org/2000/svg" xmlns:xlink="http://www.w3.org/1999/xlink" width="256pt" height="32pt" viewBox="0 0 256 32" version="1.1">
<g id="id1">
<path style=" stroke:none;fill-rule:nonzero;fill:rgb(49.803922%,78.823529%,49.803922%);fill-opacity:1;" d="M 0 -1 L 32 -1 L 32 31 L 0 31 Z M 0 -1 "/>
<path style=" stroke:none;fill-rule:nonzero;fill:rgb(74.509804%,68.235294%,83.137255%);fill-opacity:1;" d="M 32 -1 L 96 -1 L 96 31 L 32 31 Z M 32 -1 "/>
<path style=" stroke:none;fill-rule:nonzero;fill:rgb(99.215686%,75.294118%,52.54902%);fill-opacity:1;" d="M 64 -1 L 160 -1 L 160 31 L 64 31 Z M 64 -1 "/>
<path style=" stroke:none;fill-rule:nonzero;fill:rgb(100%,100%,60%);fill-opacity:1;" d="M 96 -1 L 224 -1 L 224 31 L 96 31 Z M 96 -1 "/>
<path style=" stroke:none;fill-rule:nonzero;fill:rgb(21.960784%,42.352941%,69.019608%);fill-opacity:1;" d="M 128 -1 L 288 -1 L 288 31 L 128 31 Z M 128 -1 "/>
<path style=" stroke:none;fill-rule:nonzero;fill:rgb(94.117647%,0.784314%,49.803922%);fill-opacity:1;" d="M 160 -1 L 352 -1 L 352 31 L 160 31 Z M 160 -1 "/>
<path style=" stroke:none;fill-rule:nonzero;fill:rgb(74.901961%,35.686275%,9.019608%);fill-opacity:1;" d="M 192 -1 L 416 -1 L 416 31 L 192 31 Z M 192 -1 "/>
<path style=" stroke:none;fill-rule:nonzero;fill:rgb(40%,40%,40%);fill-opacity:1;" d="M 224 -1 L 480 -1 L 480 31 L 224 31 Z M 224 -1 "/>
</g>
</svg>
