<?xml version="1.0" encoding="UTF-8"?>
<svg xmlns="http://www.w3.org/2000/svg" xmlns:xlink="http://www.w3.org/1999/xlink" width="256pt" height="32pt" viewBox="0 0 256 32" version="1.1">
<g id="id1">
<path style=" stroke:none;fill-rule:nonzero;fill:rgb(10.546875%,61.71875%,46.484375%);fill-opacity:1;" d="M 0 -1 L 32 -1 L 32 31 L 0 31 Z M 0 -1 "/>
<path style=" stroke:none;fill-rule:nonzero;fill:rgb(84.765625%,37.109375%,0.78125%);fill-opacity:1;" d="M 32 -1 L 96 -1 L 96 31 L 32 31 Z M 32 -1 "/>
<path style=" stroke:none;fill-rule:nonzero;fill:rgb(45.703125%,43.75%,69.921875%);fill-opacity:1;" d="M 64 -1 L 160 -1 L 160 31 L 64 31 Z M 64 -1 "/>
<path style=" stroke:none;fill-rule:nonzero;fill:rgb(90.234375%,16.015625%,53.90625%);fill-opacity:1;" d="M 96 -1 L 224 -1 L 224 31 L 96 31 Z M 96 -1 "/>
<path style=" stroke:none;fill-rule:nonzero;fill:rgb(39.84375%,64.84375%,11.71875%);fill-opacity:1;" d="M 128 -1 L 288 -1 L 288 31 L 128 31 Z M 128 -1 "/>
<path style=" stroke:none;fill-rule:nonzero;fill:rgb(89.84375%,66.796875%,0.78125%);fill-opacity:1;" d="M 160 -1 L 352 -1 L 352 31 L 160 31 Z M 160 -1 "/>
<path style=" stroke:none;fill-rule:nonzero;fill:rgb(64.84375%,46.09375%,11.328125%);fill-opacity:1;" d="M 192 -1 L 416 -1 L 416 31 L 192 31 Z M 192 -1 "/>
<path style=" stroke:none;fill-rule:nonzero;fill:rgb(39.84375%,39.84375%,39.84375%);fill-opacity:1;" d="M 224 -1 L 480 -1 L 480 31 L 224 31 Z M 224 -1 "/>
</g>
</svg>
