<?xml version="1.0" encoding="UTF-8"?>
<svg xmlns="http://www.w3.org/2000/svg" xmlns:xlink="http://www.w3.org/1999/xlink" width="384pt" height="32pt" viewBox="0 0 384 32" version="1.1">
<g id="id1">
<path style=" stroke:none;fill-rule:nonzero;fill:rgb(65.098039%,80.784314%,89.019608%);fill-opacity:1;" d="M 0 -1 L 32 -1 L 32 31 L 0 31 Z M 0 -1 "/>
<path style=" stroke:none;fill-rule:nonzero;fill:rgb(12.156863%,47.058824%,70.588235%);fill-opacity:1;" d="M 32 -1 L 96 -1 L 96 31 L 32 31 Z M 32 -1 "/>
<path style=" stroke:none;fill-rule:nonzero;fill:rgb(69.803922%,87.45098%,54.117647%);fill-opacity:1;" d="M 64 -1 L 160 -1 L 160 31 L 64 31 Z M 64 -1 "/>
<path style=" stroke:none;fill-rule:nonzero;fill:rgb(20%,62.745098%,17.254902%);fill-opacity:1;" d="M 96 -1 L 224 -1 L 224 31 L 96 31 Z M 96 -1 "/>
<path style=" stroke:none;fill-rule:nonzero;fill:rgb(98.431373%,60.392157%,60%);fill-opacity:1;" d="M 128 -1 L 288 -1 L 288 31 L 128 31 Z M 128 -1 "/>
<path style=" stroke:none;fill-rule:nonzero;fill:rgb(89.019608%,10.196078%,10.980392%);fill-opacity:1;" d="M 160 -1 L 352 -1 L 352 31 L 160 31 Z M 160 -1 "/>
<path style=" stroke:none;fill-rule:nonzero;fill:rgb(99.215686%,74.901961%,43.529412%);fill-opacity:1;" d="M 192 -1 L 416 -1 L 416 31 L 192 31 Z M 192 -1 "/>
<path style=" stroke:none;fill-rule:nonzero;fill:rgb(100%,49.803922%,0%);fill-opacity:1;" d="M 224 -1 L 480 -1 L 480 31 L 224 31 Z M 224 -1 "/>
<path style=" stroke:none;fill-rule:nonzero;fill:rgb(79.215686%,69.803922%,83.921569%);fill-opacity:1;" d="M 256 -1 L 544 -1 L 544 31 L 256 31 Z M 256 -1 "/>
<path style=" stroke:none;fill-rule:nonzero;fill:rgb(41.568627%,23.921569%,60.392157%);fill-opacity:1;" d="M 288 -1 L 608 -1 L 608 31 L 288 31 Z M 288 -1 "/>
<path style=" stroke:none;fill-rule:nonzero;fill:rgb(100%,100%,60%);fill-opacity:1;" d="M 320 -1 L 672 -1 L 672 31 L 320 31 Z M 320 -1 "/>
<path style=" stroke:none;fill-rule:nonzero;fill:rgb(69.411765%,34.901961%,15.686275%);fill-opacity:1;" d="M 352 -1 L 736 -1 L 736 31 L 352 31 Z M 352 -1 "/>
</g>
</svg>
