<?xml version="1.0" encoding="UTF-8"?>
<svg xmlns="http://www.w3.org/2000/svg" xmlns:xlink="http://www.w3.org/1999/xlink" width="384pt" height="32pt" viewBox="0 0 384 32" version="1.1">
<g id="id1">
<path style=" stroke:none;fill-rule:nonzero;fill:rgb(64.84375%,80.46875%,88.671875%);fill-opacity:1;" d="M 0 -1 L 32 -1 L 32 31 L 0 31 Z M 0 -1 "/>
<path style=" stroke:none;fill-rule:nonzero;fill:rgb(12.109375%,46.875%,70.3125%);fill-opacity:1;" d="M 32 -1 L 96 -1 L 96 31 L 32 31 Z M 32 -1 "/>
<path style=" stroke:none;fill-rule:nonzero;fill:rgb(69.53125%,87.109375%,53.90625%);fill-opacity:1;" d="M 64 -1 L 160 -1 L 160 31 L 64 31 Z M 64 -1 "/>
<path style=" stroke:none;fill-rule:nonzero;fill:rgb(19.921875%,62.5%,17.1875%);fill-opacity:1;" d="M 96 -1 L 224 -1 L 224 31 L 96 31 Z M 96 -1 "/>
<path style=" stroke:none;fill-rule:nonzero;fill:rgb(98.046875%,60.15625%,59.765625%);fill-opacity:1;" d="M 128 -1 L 288 -1 L 288 31 L 128 31 Z M 128 -1 "/>
<path style=" stroke:none;fill-rule:nonzero;fill:rgb(88.671875%,10.15625%,10.9375%);fill-opacity:1;" d="M 160 -1 L 352 -1 L 352 31 L 160 31 Z M 160 -1 "/>
<path style=" stroke:none;fill-rule:nonzero;fill:rgb(98.828125%,74.609375%,43.359375%);fill-opacity:1;" d="M 192 -1 L 416 -1 L 416 31 L 192 31 Z M 192 -1 "/>
<path style=" stroke:none;fill-rule:nonzero;fill:rgb(99.609375%,49.609375%,0%);fill-opacity:1;" d="M 224 -1 L 480 -1 L 480 31 L 224 31 Z M 224 -1 "/>
<path style=" stroke:none;fill-rule:nonzero;fill:rgb(78.90625%,69.53125%,83.59375%);fill-opacity:1;" d="M 256 -1 L 544 -1 L 544 31 L 256 31 Z M 256 -1 "/>
<path style=" stroke:none;fill-rule:nonzero;fill:rgb(41.40625%,23.828125%,60.15625%);fill-opacity:1;" d="M 288 -1 L 608 -1 L 608 31 L 288 31 Z M 288 -1 "/>
<path style=" stroke:none;fill-rule:nonzero;fill:rgb(99.609375%,99.609375%,59.765625%);fill-opacity:1;" d="M 320 -1 L 672 -1 L 672 31 L 320 31 Z M 320 -1 "/>
<path style=" stroke:none;fill-rule:nonzero;fill:rgb(69.140625%,34.765625%,15.625%);fill-opacity:1;" d="M 352 -1 L 736 -1 L 736 31 L 352 31 Z M 352 -1 "/>
</g>
</svg>
