<?xml version="1.0" encoding="UTF-8"?>
<svg xmlns="http://www.w3.org/2000/svg" xmlns:xlink="http://www.w3.org/1999/xlink" width="288pt" height="32pt" viewBox="0 0 288 32" version="1.1">
<g id="id1">
<path style=" stroke:none;fill-rule:nonzero;fill:rgb(98.046875%,70.3125%,67.96875%);fill-opacity:1;" d="M 0 -1 L 32 -1 L 32 31 L 0 31 Z M 0 -1 "/>
<path style=" stroke:none;fill-rule:nonzero;fill:rgb(69.921875%,80.078125%,88.671875%);fill-opacity:1;" d="M 32 -1 L 96 -1 L 96 31 L 32 31 Z M 32 -1 "/>
<path style=" stroke:none;fill-rule:nonzero;fill:rgb(79.6875%,91.796875%,76.953125%);fill-opacity:1;" d="M 64 -1 L 160 -1 L 160 31 L 64 31 Z M 64 -1 "/>
<path style=" stroke:none;fill-rule:nonzero;fill:rgb(86.71875%,79.296875%,89.0625%);fill-opacity:1;" d="M 96 -1 L 224 -1 L 224 31 L 96 31 Z M 96 -1 "/>
<path style=" stroke:none;fill-rule:nonzero;fill:rgb(99.21875%,84.765625%,64.84375%);fill-opacity:1;" d="M 128 -1 L 288 -1 L 288 31 L 128 31 Z M 128 -1 "/>
<path style=" stroke:none;fill-rule:nonzero;fill:rgb(99.609375%,99.609375%,79.6875%);fill-opacity:1;" d="M 160 -1 L 352 -1 L 352 31 L 160 31 Z M 160 -1 "/>
<path style=" stroke:none;fill-rule:nonzero;fill:rgb(89.453125%,84.375%,73.828125%);fill-opacity:1;" d="M 192 -1 L 416 -1 L 416 31 L 192 31 Z M 192 -1 "/>
<path style=" stroke:none;fill-rule:nonzero;fill:rgb(98.828125%,85.15625%,92.1875%);fill-opacity:1;" d="M 224 -1 L 480 -1 L 480 31 L 224 31 Z M 224 -1 "/>
<path style=" stroke:none;fill-rule:nonzero;fill:rgb(94.53125%,94.53125%,94.53125%);fill-opacity:1;" d="M 256 -1 L 544 -1 L 544 31 L 256 31 Z M 256 -1 "/>
</g>
</svg>
