<?xml version="1.0" encoding="UTF-8"?>
<svg xmlns="http://www.w3.org/2000/svg" xmlns:xlink="http://www.w3.org/1999/xlink" width="384pt" height="32pt" viewBox="0 0 384 32" version="1.1">
<g id="id1">
<path style=" stroke:none;fill-rule:nonzero;fill:rgb(55.078125%,82.421875%,77.734375%);fill-opacity:1;" d="M 0 -1 L 32 -1 L 32 31 L 0 31 Z M 0 -1 "/>
<path style=" stroke:none;fill-rule:nonzero;fill:rgb(99.609375%,99.609375%,69.921875%);fill-opacity:1;" d="M 32 -1 L 96 -1 L 96 31 L 32 31 Z M 32 -1 "/>
<path style=" stroke:none;fill-rule:nonzero;fill:rgb(74.21875%,72.65625%,85.15625%);fill-opacity:1;" d="M 64 -1 L 160 -1 L 160 31 L 64 31 Z M 64 -1 "/>
<path style=" stroke:none;fill-rule:nonzero;fill:rgb(98.046875%,50%,44.53125%);fill-opacity:1;" d="M 96 -1 L 224 -1 L 224 31 L 96 31 Z M 96 -1 "/>
<path style=" stroke:none;fill-rule:nonzero;fill:rgb(50%,69.140625%,82.421875%);fill-opacity:1;" d="M 128 -1 L 288 -1 L 288 31 L 128 31 Z M 128 -1 "/>
<path style=" stroke:none;fill-rule:nonzero;fill:rgb(98.828125%,70.3125%,38.28125%);fill-opacity:1;" d="M 160 -1 L 352 -1 L 352 31 L 160 31 Z M 160 -1 "/>
<path style=" stroke:none;fill-rule:nonzero;fill:rgb(69.921875%,86.71875%,41.015625%);fill-opacity:1;" d="M 192 -1 L 416 -1 L 416 31 L 192 31 Z M 192 -1 "/>
<path style=" stroke:none;fill-rule:nonzero;fill:rgb(98.4375%,80.078125%,89.453125%);fill-opacity:1;" d="M 224 -1 L 480 -1 L 480 31 L 224 31 Z M 224 -1 "/>
<path style=" stroke:none;fill-rule:nonzero;fill:rgb(84.765625%,84.765625%,84.765625%);fill-opacity:1;" d="M 256 -1 L 544 -1 L 544 31 L 256 31 Z M 256 -1 "/>
<path style=" stroke:none;fill-rule:nonzero;fill:rgb(73.4375%,50%,73.828125%);fill-opacity:1;" d="M 288 -1 L 608 -1 L 608 31 L 288 31 Z M 288 -1 "/>
<path style=" stroke:none;fill-rule:nonzero;fill:rgb(79.6875%,91.796875%,76.953125%);fill-opacity:1;" d="M 320 -1 L 672 -1 L 672 31 L 320 31 Z M 320 -1 "/>
<path style=" stroke:none;fill-rule:nonzero;fill:rgb(99.609375%,92.578125%,43.359375%);fill-opacity:1;" d="M 352 -1 L 736 -1 L 736 31 L 352 31 Z M 352 -1 "/>
</g>
</svg>
