<?xml version="1.0" encoding="UTF-8"?>
<svg xmlns="http://www.w3.org/2000/svg" xmlns:xlink="http://www.w3.org/1999/xlink" width="320pt" height="220pt" viewBox="0 0 320 220" version="1.1">
<defs>
<g>
<symbol overflow="visible" id="id1">
<path style="stroke:none;" d="M 0.40625 -1.421875 L 0.40625 5.640625 L 4.40625 5.640625 L 4.40625 -1.421875 Z M 0.84375 -0.96875 L 3.953125 -0.96875 L 3.953125 5.1875 L 0.84375 5.1875 Z M 0.84375 -0.96875 "/>
</symbol>
<symbol overflow="visible" id="id2">
<path style="stroke:none;" d="M 2.546875 5.3125 C 2.140625 5.3125 1.832031 5.109375 1.625 4.703125 C 1.425781 4.304688 1.328125 3.707031 1.328125 2.90625 C 1.328125 2.113281 1.425781 1.515625 1.625 1.109375 C 1.832031 0.710938 2.140625 0.515625 2.546875 0.515625 C 2.953125 0.515625 3.253906 0.710938 3.453125 1.109375 C 3.660156 1.515625 3.765625 2.113281 3.765625 2.90625 C 3.765625 3.707031 3.660156 4.304688 3.453125 4.703125 C 3.253906 5.109375 2.953125 5.3125 2.546875 5.3125 Z M 2.546875 5.9375 C 3.203125 5.9375 3.703125 5.675781 4.046875 5.15625 C 4.390625 4.644531 4.5625 3.894531 4.5625 2.90625 C 4.5625 1.925781 4.390625 1.175781 4.046875 0.65625 C 3.703125 0.144531 3.203125 -0.109375 2.546875 -0.109375 C 1.890625 -0.109375 1.390625 0.144531 1.046875 0.65625 C 0.703125 1.175781 0.53125 1.925781 0.53125 2.90625 C 0.53125 3.894531 0.703125 4.644531 1.046875 5.15625 C 1.390625 5.675781 1.890625 5.9375 2.546875 5.9375 Z M 2.546875 5.9375 "/>
</symbol>
<symbol overflow="visible" id="id3">
<path style="stroke:none;" d="M 0.9375 1 L 1.765625 1 L 1.765625 0.328125 L 1.125 -0.9375 L 0.625 -0.9375 L 0.9375 0.328125 Z M 0.9375 1 "/>
</symbol>
<symbol overflow="visible" id="id4">
<path style="stroke:none;" d="M 1 0.671875 L 2.28125 0.671875 L 2.28125 5.109375 L 0.875 4.828125 L 0.875 5.546875 L 2.28125 5.828125 L 3.0625 5.828125 L 3.0625 0.671875 L 4.359375 0.671875 L 4.359375 0 L 1 0 Z M 1 0.671875 "/>
</symbol>
<symbol overflow="visible" id="id5">
<path style="stroke:none;" d="M 1.53125 0.671875 L 4.296875 0.671875 L 4.296875 0 L 0.59375 0 L 0.59375 0.671875 C 0.882812 0.972656 1.289062 1.382812 1.8125 1.90625 C 2.332031 2.4375 2.65625 2.773438 2.78125 2.921875 C 3.039062 3.203125 3.21875 3.441406 3.3125 3.640625 C 3.414062 3.835938 3.46875 4.03125 3.46875 4.21875 C 3.46875 4.53125 3.359375 4.785156 3.140625 4.984375 C 2.921875 5.179688 2.640625 5.28125 2.296875 5.28125 C 2.046875 5.28125 1.78125 5.234375 1.5 5.140625 C 1.226562 5.054688 0.9375 4.925781 0.625 4.75 L 0.625 5.546875 C 0.945312 5.679688 1.242188 5.78125 1.515625 5.84375 C 1.796875 5.90625 2.050781 5.9375 2.28125 5.9375 C 2.882812 5.9375 3.363281 5.785156 3.71875 5.484375 C 4.082031 5.179688 4.265625 4.78125 4.265625 4.28125 C 4.265625 4.039062 4.21875 3.8125 4.125 3.59375 C 4.03125 3.375 3.867188 3.117188 3.640625 2.828125 C 3.566406 2.753906 3.351562 2.535156 3 2.171875 C 2.65625 1.816406 2.164062 1.316406 1.53125 0.671875 Z M 1.53125 0.671875 "/>
</symbol>
<symbol overflow="visible" id="id6">
<path style="stroke:none;" d="M 3.25 3.140625 C 3.625 3.066406 3.914062 2.898438 4.125 2.640625 C 4.34375 2.390625 4.453125 2.078125 4.453125 1.703125 C 4.453125 1.117188 4.253906 0.671875 3.859375 0.359375 C 3.460938 0.046875 2.898438 -0.109375 2.171875 -0.109375 C 1.921875 -0.109375 1.664062 -0.0820312 1.40625 -0.03125 C 1.15625 0.0078125 0.890625 0.078125 0.609375 0.171875 L 0.609375 0.9375 C 0.828125 0.8125 1.066406 0.710938 1.328125 0.640625 C 1.585938 0.578125 1.859375 0.546875 2.140625 0.546875 C 2.640625 0.546875 3.019531 0.644531 3.28125 0.84375 C 3.539062 1.039062 3.671875 1.328125 3.671875 1.703125 C 3.671875 2.046875 3.546875 2.3125 3.296875 2.5 C 3.054688 2.695312 2.722656 2.796875 2.296875 2.796875 L 1.625 2.796875 L 1.625 3.4375 L 2.328125 3.4375 C 2.710938 3.4375 3.007812 3.515625 3.21875 3.671875 C 3.425781 3.828125 3.53125 4.050781 3.53125 4.34375 C 3.53125 4.644531 3.421875 4.875 3.203125 5.03125 C 2.992188 5.195312 2.691406 5.28125 2.296875 5.28125 C 2.078125 5.28125 1.84375 5.253906 1.59375 5.203125 C 1.351562 5.160156 1.082031 5.085938 0.78125 4.984375 L 0.78125 5.6875 C 1.082031 5.769531 1.363281 5.832031 1.625 5.875 C 1.882812 5.914062 2.132812 5.9375 2.375 5.9375 C 2.96875 5.9375 3.4375 5.800781 3.78125 5.53125 C 4.132812 5.257812 4.3125 4.890625 4.3125 4.421875 C 4.3125 4.097656 4.21875 3.828125 4.03125 3.609375 C 3.851562 3.390625 3.59375 3.234375 3.25 3.140625 Z M 3.25 3.140625 "/>
</symbol>
</g>
<filter id="alpha" filterUnits="objectBoundingBox" x="0%" y="0%" width="100%" height="100%">
  <feColorMatrix type="matrix" in="SourceGraphic" values="0 0 0 0 1 0 0 0 0 1 0 0 0 0 1 0 0 0 1 0"/>
</filter>
<mask id="id7">
  <g filter="url(#alpha)">
<rect x="0" y="0" width="320" height="220" style="fill:rgb(0%,0%,0%);fill-opacity:0.5;stroke:none;"/>
  </g>
</mask>
<clipPath id="id8">
  <rect x="0" y="0" width="320" height="220"/>
</clipPath>
<g id="id9" clip-path="url(#id8)">
<path style="fill:none;stroke-width:1;stroke-linecap:butt;stroke-linejoin:miter;stroke:rgb(0%,0%,0%);stroke-opacity:0.2;stroke-dasharray:4,6;stroke-dashoffset:2;stroke-miterlimit:10;" d="M -1000 -1000 L -1000 1000 M -990 -1000 L -990 1000 M -980 -1000 L -980 1000 M -970 -1000 L -970 1000 M -960 -1000 L -960 1000 M -950 -1000 L -950 1000 M -940 -1000 L -940 1000 M -930 -1000 L -930 1000 M -920 -1000 L -920 1000 M -910 -1000 L -910 1000 M -900 -1000 L -900 1000 M -890 -1000 L -890 1000 M -880 -1000 L -880 1000 M -870 -1000 L -870 1000 M -860 -1000 L -860 1000 M -850 -1000 L -850 1000 M -840 -1000 L -840 1000 M -830 -1000 L -830 1000 M -820 -1000 L -820 1000 M -810 -1000 L -810 1000 M -800 -1000 L -800 1000 M -790 -1000 L -790 1000 M -780 -1000 L -780 1000 M -770 -1000 L -770 1000 M -760 -1000 L -760 1000 M -750 -1000 L -750 1000 M -740 -1000 L -740 1000 M -730 -1000 L -730 1000 M -720 -1000 L -720 1000 M -710 -1000 L -710 1000 M -700 -1000 L -700 1000 M -690 -1000 L -690 1000 M -680 -1000 L -680 1000 M -670 -1000 L -670 1000 M -660 -1000 L -660 1000 M -650 -1000 L -650 1000 M -640 -1000 L -640 1000 M -630 -1000 L -630 1000 M -620 -1000 L -620 1000 M -610 -1000 L -610 1000 M -600 -1000 L -600 1000 M -590 -1000 L -590 1000 M -580 -1000 L -580 1000 M -570 -1000 L -570 1000 M -560 -1000 L -560 1000 M -550 -1000 L -550 1000 M -540 -1000 L -540 1000 M -530 -1000 L -530 1000 M -520 -1000 L -520 1000 M -510 -1000 L -510 1000 M -500 -1000 L -500 1000 M -490 -1000 L -490 1000 M -480 -1000 L -480 1000 M -470 -1000 L -470 1000 M -460 -1000 L -460 1000 M -450 -1000 L -450 1000 M -440 -1000 L -440 1000 M -430 -1000 L -430 1000 M -420 -1000 L -420 1000 M -410 -1000 L -410 1000 M -400 -1000 L -400 1000 M -390 -1000 L -390 1000 M -380 -1000 L -380 1000 M -370 -1000 L -370 1000 M -360 -1000 L -360 1000 M -350 -1000 L -350 1000 M -340 -1000 L -340 1000 M -330 -1000 L -330 1000 M -320 -1000 L -320 1000 M -310 -1000 L -310 1000 M -300 -1000 L -300 1000 M -290 -1000 L -290 1000 M -280 -1000 L -280 1000 M -270 -1000 L -270 1000 M -260 -1000 L -260 1000 M -250 -1000 L -250 1000 M -240 -1000 L -240 1000 M -230 -1000 L -230 1000 M -220 -1000 L -220 1000 M -210 -1000 L -210 1000 M -200 -1000 L -200 1000 M -190 -1000 L -190 1000 M -180 -1000 L -180 1000 M -170 -1000 L -170 1000 M -160 -1000 L -160 1000 M -150 -1000 L -150 1000 M -140 -1000 L -140 1000 M -130 -1000 L -130 1000 M -120 -1000 L -120 1000 M -110 -1000 L -110 1000 M -100 -1000 L -100 1000 M -90 -1000 L -90 1000 M -80 -1000 L -80 1000 M -70 -1000 L -70 1000 M -60 -1000 L -60 1000 M -50 -1000 L -50 1000 M -40 -1000 L -40 1000 M -30 -1000 L -30 1000 M -20 -1000 L -20 1000 M -10 -1000 L -10 1000 M 0 -1000 L 0 1000 M 10 -1000 L 10 1000 M 20 -1000 L 20 1000 M 30 -1000 L 30 1000 M 40 -1000 L 40 1000 M 50 -1000 L 50 1000 M 60 -1000 L 60 1000 M 70 -1000 L 70 1000 M 80 -1000 L 80 1000 M 90 -1000 L 90 1000 M 100 -1000 L 100 1000 M 110 -1000 L 110 1000 M 120 -1000 L 120 1000 M 130 -1000 L 130 1000 M 140 -1000 L 140 1000 M 150 -1000 L 150 1000 M 160 -1000 L 160 1000 M 170 -1000 L 170 1000 M 180 -1000 L 180 1000 M 190 -1000 L 190 1000 M 200 -1000 L 200 1000 M 210 -1000 L 210 1000 M 220 -1000 L 220 1000 M 230 -1000 L 230 1000 M 240 -1000 L 240 1000 M 250 -1000 L 250 1000 M 260 -1000 L 260 1000 M 270 -1000 L 270 1000 M 280 -1000 L 280 1000 M 290 -1000 L 290 1000 M 300 -1000 L 300 1000 M 310 -1000 L 310 1000 M 320 -1000 L 320 1000 M 330 -1000 L 330 1000 M 340 -1000 L 340 1000 M 350 -1000 L 350 1000 M 360 -1000 L 360 1000 M 370 -1000 L 370 1000 M 380 -1000 L 380 1000 M 390 -1000 L 390 1000 M 400 -1000 L 400 1000 M 410 -1000 L 410 1000 M 420 -1000 L 420 1000 M 430 -1000 L 430 1000 M 440 -1000 L 440 1000 M 450 -1000 L 450 1000 M 460 -1000 L 460 1000 M 470 -1000 L 470 1000 M 480 -1000 L 480 1000 M 490 -1000 L 490 1000 M 500 -1000 L 500 1000 M 510 -1000 L 510 1000 M 520 -1000 L 520 1000 M 530 -1000 L 530 1000 M 540 -1000 L 540 1000 M 550 -1000 L 550 1000 M 560 -1000 L 560 1000 M 570 -1000 L 570 1000 M 580 -1000 L 580 1000 M 590 -1000 L 590 1000 M 600 -1000 L 600 1000 M 610 -1000 L 610 1000 M 620 -1000 L 620 1000 M 630 -1000 L 630 1000 M 640 -1000 L 640 1000 M 650 -1000 L 650 1000 M 660 -1000 L 660 1000 M 670 -1000 L 670 1000 M 680 -1000 L 680 1000 M 690 -1000 L 690 1000 M 700 -1000 L 700 1000 M 710 -1000 L 710 1000 M 720 -1000 L 720 1000 M 730 -1000 L 730 1000 M 740 -1000 L 740 1000 M 750 -1000 L 750 1000 M 760 -1000 L 760 1000 M 770 -1000 L 770 1000 M 780 -1000 L 780 1000 M 790 -1000 L 790 1000 M 800 -1000 L 800 1000 M 810 -1000 L 810 1000 M 820 -1000 L 820 1000 M 830 -1000 L 830 1000 M 840 -1000 L 840 1000 M 850 -1000 L 850 1000 M 860 -1000 L 860 1000 M 870 -1000 L 870 1000 M 880 -1000 L 880 1000 M 890 -1000 L 890 1000 M 900 -1000 L 900 1000 M 910 -1000 L 910 1000 M 920 -1000 L 920 1000 M 930 -1000 L 930 1000 M 940 -1000 L 940 1000 M 950 -1000 L 950 1000 M 960 -1000 L 960 1000 M 970 -1000 L 970 1000 M 980 -1000 L 980 1000 M 990 -1000 L 990 1000 M 1000 -1000 L 1000 1000 M -1000 -1000 L 1000 -1000 M -1000 -990 L 1000 -990 M -1000 -980 L 1000 -980 M -1000 -970 L 1000 -970 M -1000 -960 L 1000 -960 M -1000 -950 L 1000 -950 M -1000 -940 L 1000 -940 M -1000 -930 L 1000 -930 M -1000 -920 L 1000 -920 M -1000 -910 L 1000 -910 M -1000 -900 L 1000 -900 M -1000 -890 L 1000 -890 M -1000 -880 L 1000 -880 M -1000 -870 L 1000 -870 M -1000 -860 L 1000 -860 M -1000 -850 L 1000 -850 M -1000 -840 L 1000 -840 M -1000 -830 L 1000 -830 M -1000 -820 L 1000 -820 M -1000 -810 L 1000 -810 M -1000 -800 L 1000 -800 M -1000 -790 L 1000 -790 M -1000 -780 L 1000 -780 M -1000 -770 L 1000 -770 M -1000 -760 L 1000 -760 M -1000 -750 L 1000 -750 M -1000 -740 L 1000 -740 M -1000 -730 L 1000 -730 M -1000 -720 L 1000 -720 M -1000 -710 L 1000 -710 M -1000 -700 L 1000 -700 M -1000 -690 L 1000 -690 M -1000 -680 L 1000 -680 M -1000 -670 L 1000 -670 M -1000 -660 L 1000 -660 M -1000 -650 L 1000 -650 M -1000 -640 L 1000 -640 M -1000 -630 L 1000 -630 M -1000 -620 L 1000 -620 M -1000 -610 L 1000 -610 M -1000 -600 L 1000 -600 M -1000 -590 L 1000 -590 M -1000 -580 L 1000 -580 M -1000 -570 L 1000 -570 M -1000 -560 L 1000 -560 M -1000 -550 L 1000 -550 M -1000 -540 L 1000 -540 M -1000 -530 L 1000 -530 M -1000 -520 L 1000 -520 M -1000 -510 L 1000 -510 M -1000 -500 L 1000 -500 M -1000 -490 L 1000 -490 M -1000 -480 L 1000 -480 M -1000 -470 L 1000 -470 M -1000 -460 L 1000 -460 M -1000 -450 L 1000 -450 M -1000 -440 L 1000 -440 M -1000 -430 L 1000 -430 M -1000 -420 L 1000 -420 M -1000 -410 L 1000 -410 M -1000 -400 L 1000 -400 M -1000 -390 L 1000 -390 M -1000 -380 L 1000 -380 M -1000 -370 L 1000 -370 M -1000 -360 L 1000 -360 M -1000 -350 L 1000 -350 M -1000 -340 L 1000 -340 M -1000 -330 L 1000 -330 M -1000 -320 L 1000 -320 M -1000 -310 L 1000 -310 M -1000 -300 L 1000 -300 M -1000 -290 L 1000 -290 M -1000 -280 L 1000 -280 M -1000 -270 L 1000 -270 M -1000 -260 L 1000 -260 M -1000 -250 L 1000 -250 M -1000 -240 L 1000 -240 M -1000 -230 L 1000 -230 M -1000 -220 L 1000 -220 M -1000 -210 L 1000 -210 M -1000 -200 L 1000 -200 M -1000 -190 L 1000 -190 M -1000 -180 L 1000 -180 M -1000 -170 L 1000 -170 M -1000 -160 L 1000 -160 M -1000 -150 L 1000 -150 M -1000 -140 L 1000 -140 M -1000 -130 L 1000 -130 M -1000 -120 L 1000 -120 M -1000 -110 L 1000 -110 M -1000 -100 L 1000 -100 M -1000 -90 L 1000 -90 M -1000 -80 L 1000 -80 M -1000 -70 L 1000 -70 M -1000 -60 L 1000 -60 M -1000 -50 L 1000 -50 M -1000 -40 L 1000 -40 M -1000 -30 L 1000 -30 M -1000 -20 L 1000 -20 M -1000 -10 L 1000 -10 M -1000 0 L 1000 0 M -1000 10 L 1000 10 M -1000 20 L 1000 20 M -1000 30 L 1000 30 M -1000 40 L 1000 40 M -1000 50 L 1000 50 M -1000 60 L 1000 60 M -1000 70 L 1000 70 M -1000 80 L 1000 80 M -1000 90 L 1000 90 M -1000 100 L 1000 100 M -1000 110 L 1000 110 M -1000 120 L 1000 120 M -1000 130 L 1000 130 M -1000 140 L 1000 140 M -1000 150 L 1000 150 M -1000 160 L 1000 160 M -1000 170 L 1000 170 M -1000 180 L 1000 180 M -1000 190 L 1000 190 M -1000 200 L 1000 200 M -1000 210 L 1000 210 M -1000 220 L 1000 220 M -1000 230 L 1000 230 M -1000 240 L 1000 240 M -1000 250 L 1000 250 M -1000 260 L 1000 260 M -1000 270 L 1000 270 M -1000 280 L 1000 280 M -1000 290 L 1000 290 M -1000 300 L 1000 300 M -1000 310 L 1000 310 M -1000 320 L 1000 320 M -1000 330 L 1000 330 M -1000 340 L 1000 340 M -1000 350 L 1000 350 M -1000 360 L 1000 360 M -1000 370 L 1000 370 M -1000 380 L 1000 380 M -1000 390 L 1000 390 M -1000 400 L 1000 400 M -1000 410 L 1000 410 M -1000 420 L 1000 420 M -1000 430 L 1000 430 M -1000 440 L 1000 440 M -1000 450 L 1000 450 M -1000 460 L 1000 460 M -1000 470 L 1000 470 M -1000 480 L 1000 480 M -1000 490 L 1000 490 M -1000 500 L 1000 500 M -1000 510 L 1000 510 M -1000 520 L 1000 520 M -1000 530 L 1000 530 M -1000 540 L 1000 540 M -1000 550 L 1000 550 M -1000 560 L 1000 560 M -1000 570 L 1000 570 M -1000 580 L 1000 580 M -1000 590 L 1000 590 M -1000 600 L 1000 600 M -1000 610 L 1000 610 M -1000 620 L 1000 620 M -1000 630 L 1000 630 M -1000 640 L 1000 640 M -1000 650 L 1000 650 M -1000 660 L 1000 660 M -1000 670 L 1000 670 M -1000 680 L 1000 680 M -1000 690 L 1000 690 M -1000 700 L 1000 700 M -1000 710 L 1000 710 M -1000 720 L 1000 720 M -1000 730 L 1000 730 M -1000 740 L 1000 740 M -1000 750 L 1000 750 M -1000 760 L 1000 760 M -1000 770 L 1000 770 M -1000 780 L 1000 780 M -1000 790 L 1000 790 M -1000 800 L 1000 800 M -1000 810 L 1000 810 M -1000 820 L 1000 820 M -1000 830 L 1000 830 M -1000 840 L 1000 840 M -1000 850 L 1000 850 M -1000 860 L 1000 860 M -1000 870 L 1000 870 M -1000 880 L 1000 880 M -1000 890 L 1000 890 M -1000 900 L 1000 900 M -1000 910 L 1000 910 M -1000 920 L 1000 920 M -1000 930 L 1000 930 M -1000 940 L 1000 940 M -1000 950 L 1000 950 M -1000 960 L 1000 960 M -1000 970 L 1000 970 M -1000 980 L 1000 980 M -1000 990 L 1000 990 M -1000 1000 L 1000 1000 " transform="matrix(1,0,0,-1,0,220)"/>
</g>
<clipPath id="id10">
  <rect x="0" y="0" width="320" height="220"/>
</clipPath>
<g id="id11" clip-path="url(#id10)">
<path style="fill:none;stroke-width:1;stroke-linecap:butt;stroke-linejoin:miter;stroke:rgb(0%,0%,0%);stroke-opacity:0.5;stroke-miterlimit:10;" d="M -1000 -1000 L -1000 1000 M -900 -1000 L -900 1000 M -800 -1000 L -800 1000 M -700 -1000 L -700 1000 M -600 -1000 L -600 1000 M -500 -1000 L -500 1000 M -400 -1000 L -400 1000 M -300 -1000 L -300 1000 M -200 -1000 L -200 1000 M -100 -1000 L -100 1000 M 0 -1000 L 0 1000 M 100 -1000 L 100 1000 M 200 -1000 L 200 1000 M 300 -1000 L 300 1000 M 400 -1000 L 400 1000 M 500 -1000 L 500 1000 M 600 -1000 L 600 1000 M 700 -1000 L 700 1000 M 800 -1000 L 800 1000 M 900 -1000 L 900 1000 M 1000 -1000 L 1000 1000 M -1000 -1000 L 1000 -1000 M -1000 -900 L 1000 -900 M -1000 -800 L 1000 -800 M -1000 -700 L 1000 -700 M -1000 -600 L 1000 -600 M -1000 -500 L 1000 -500 M -1000 -400 L 1000 -400 M -1000 -300 L 1000 -300 M -1000 -200 L 1000 -200 M -1000 -100 L 1000 -100 M -1000 0 L 1000 0 M -1000 100 L 1000 100 M -1000 200 L 1000 200 M -1000 300 L 1000 300 M -1000 400 L 1000 400 M -1000 500 L 1000 500 M -1000 600 L 1000 600 M -1000 700 L 1000 700 M -1000 800 L 1000 800 M -1000 900 L 1000 900 M -1000 1000 L 1000 1000 " transform="matrix(1,0,0,-1,0,220)"/>
<path style="fill:none;stroke-width:1;stroke-linecap:butt;stroke-linejoin:miter;stroke:rgb(0%,0%,0%);stroke-opacity:0.2;stroke-dasharray:4,6;stroke-dashoffset:2;stroke-miterlimit:10;" d="M -990 -1000 L -990 1000 M -980 -1000 L -980 1000 M -970 -1000 L -970 1000 M -960 -1000 L -960 1000 M -950 -1000 L -950 1000 M -940 -1000 L -940 1000 M -930 -1000 L -930 1000 M -920 -1000 L -920 1000 M -910 -1000 L -910 1000 M -890 -1000 L -890 1000 M -880 -1000 L -880 1000 M -870 -1000 L -870 1000 M -860 -1000 L -860 1000 M -850 -1000 L -850 1000 M -840 -1000 L -840 1000 M -830 -1000 L -830 1000 M -820 -1000 L -820 1000 M -810 -1000 L -810 1000 M -790 -1000 L -790 1000 M -780 -1000 L -780 1000 M -770 -1000 L -770 1000 M -760 -1000 L -760 1000 M -750 -1000 L -750 1000 M -740 -1000 L -740 1000 M -730 -1000 L -730 1000 M -720 -1000 L -720 1000 M -710 -1000 L -710 1000 M -690 -1000 L -690 1000 M -680 -1000 L -680 1000 M -670 -1000 L -670 1000 M -660 -1000 L -660 1000 M -650 -1000 L -650 1000 M -640 -1000 L -640 1000 M -630 -1000 L -630 1000 M -620 -1000 L -620 1000 M -610 -1000 L -610 1000 M -590 -1000 L -590 1000 M -580 -1000 L -580 1000 M -570 -1000 L -570 1000 M -560 -1000 L -560 1000 M -550 -1000 L -550 1000 M -540 -1000 L -540 1000 M -530 -1000 L -530 1000 M -520 -1000 L -520 1000 M -510 -1000 L -510 1000 M -490 -1000 L -490 1000 M -480 -1000 L -480 1000 M -470 -1000 L -470 1000 M -460 -1000 L -460 1000 M -450 -1000 L -450 1000 M -440 -1000 L -440 1000 M -430 -1000 L -430 1000 M -420 -1000 L -420 1000 M -410 -1000 L -410 1000 M -390 -1000 L -390 1000 M -380 -1000 L -380 1000 M -370 -1000 L -370 1000 M -360 -1000 L -360 1000 M -350 -1000 L -350 1000 M -340 -1000 L -340 1000 M -330 -1000 L -330 1000 M -320 -1000 L -320 1000 M -310 -1000 L -310 1000 M -290 -1000 L -290 1000 M -280 -1000 L -280 1000 M -270 -1000 L -270 1000 M -260 -1000 L -260 1000 M -250 -1000 L -250 1000 M -240 -1000 L -240 1000 M -230 -1000 L -230 1000 M -220 -1000 L -220 1000 M -210 -1000 L -210 1000 M -190 -1000 L -190 1000 M -180 -1000 L -180 1000 M -170 -1000 L -170 1000 M -160 -1000 L -160 1000 M -150 -1000 L -150 1000 M -140 -1000 L -140 1000 M -130 -1000 L -130 1000 M -120 -1000 L -120 1000 M -110 -1000 L -110 1000 M -90 -1000 L -90 1000 M -80 -1000 L -80 1000 M -70 -1000 L -70 1000 M -60 -1000 L -60 1000 M -50 -1000 L -50 1000 M -40 -1000 L -40 1000 M -30 -1000 L -30 1000 M -20 -1000 L -20 1000 M -10 -1000 L -10 1000 M 10 -1000 L 10 1000 M 20 -1000 L 20 1000 M 30 -1000 L 30 1000 M 40 -1000 L 40 1000 M 50 -1000 L 50 1000 M 60 -1000 L 60 1000 M 70 -1000 L 70 1000 M 80 -1000 L 80 1000 M 90 -1000 L 90 1000 M 110 -1000 L 110 1000 M 120 -1000 L 120 1000 M 130 -1000 L 130 1000 M 140 -1000 L 140 1000 M 150 -1000 L 150 1000 M 160 -1000 L 160 1000 M 170 -1000 L 170 1000 M 180 -1000 L 180 1000 M 190 -1000 L 190 1000 M 210 -1000 L 210 1000 M 220 -1000 L 220 1000 M 230 -1000 L 230 1000 M 240 -1000 L 240 1000 M 250 -1000 L 250 1000 M 260 -1000 L 260 1000 M 270 -1000 L 270 1000 M 280 -1000 L 280 1000 M 290 -1000 L 290 1000 M 310 -1000 L 310 1000 M 320 -1000 L 320 1000 M 330 -1000 L 330 1000 M 340 -1000 L 340 1000 M 350 -1000 L 350 1000 M 360 -1000 L 360 1000 M 370 -1000 L 370 1000 M 380 -1000 L 380 1000 M 390 -1000 L 390 1000 M 410 -1000 L 410 1000 M 420 -1000 L 420 1000 M 430 -1000 L 430 1000 M 440 -1000 L 440 1000 M 450 -1000 L 450 1000 M 460 -1000 L 460 1000 M 470 -1000 L 470 1000 M 480 -1000 L 480 1000 M 490 -1000 L 490 1000 M 510 -1000 L 510 1000 M 520 -1000 L 520 1000 M 530 -1000 L 530 1000 M 540 -1000 L 540 1000 M 550 -1000 L 550 1000 M 560 -1000 L 560 1000 M 570 -1000 L 570 1000 M 580 -1000 L 580 1000 M 590 -1000 L 590 1000 M 610 -1000 L 610 1000 M 620 -1000 L 620 1000 M 630 -1000 L 630 1000 M 640 -1000 L 640 1000 M 650 -1000 L 650 1000 M 660 -1000 L 660 1000 M 670 -1000 L 670 1000 M 680 -1000 L 680 1000 M 690 -1000 L 690 1000 M 710 -1000 L 710 1000 M 720 -1000 L 720 1000 M 730 -1000 L 730 1000 M 740 -1000 L 740 1000 M 750 -1000 L 750 1000 M 760 -1000 L 760 1000 M 770 -1000 L 770 1000 M 780 -1000 L 780 1000 M 790 -1000 L 790 1000 M 810 -1000 L 810 1000 M 820 -1000 L 820 1000 M 830 -1000 L 830 1000 M 840 -1000 L 840 1000 M 850 -1000 L 850 1000 M 860 -1000 L 860 1000 M 870 -1000 L 870 1000 M 880 -1000 L 880 1000 M 890 -1000 L 890 1000 M 910 -1000 L 910 1000 M 920 -1000 L 920 1000 M 930 -1000 L 930 1000 M 940 -1000 L 940 1000 M 950 -1000 L 950 1000 M 960 -1000 L 960 1000 M 970 -1000 L 970 1000 M 980 -1000 L 980 1000 M 990 -1000 L 990 1000 M -1000 -990 L 1000 -990 M -1000 -980 L 1000 -980 M -1000 -970 L 1000 -970 M -1000 -960 L 1000 -960 M -1000 -950 L 1000 -950 M -1000 -940 L 1000 -940 M -1000 -930 L 1000 -930 M -1000 -920 L 1000 -920 M -1000 -910 L 1000 -910 M -1000 -890 L 1000 -890 M -1000 -880 L 1000 -880 M -1000 -870 L 1000 -870 M -1000 -860 L 1000 -860 M -1000 -850 L 1000 -850 M -1000 -840 L 1000 -840 M -1000 -830 L 1000 -830 M -1000 -820 L 1000 -820 M -1000 -810 L 1000 -810 M -1000 -790 L 1000 -790 M -1000 -780 L 1000 -780 M -1000 -770 L 1000 -770 M -1000 -760 L 1000 -760 M -1000 -750 L 1000 -750 M -1000 -740 L 1000 -740 M -1000 -730 L 1000 -730 M -1000 -720 L 1000 -720 M -1000 -710 L 1000 -710 M -1000 -690 L 1000 -690 M -1000 -680 L 1000 -680 M -1000 -670 L 1000 -670 M -1000 -660 L 1000 -660 M -1000 -650 L 1000 -650 M -1000 -640 L 1000 -640 M -1000 -630 L 1000 -630 M -1000 -620 L 1000 -620 M -1000 -610 L 1000 -610 M -1000 -590 L 1000 -590 M -1000 -580 L 1000 -580 M -1000 -570 L 1000 -570 M -1000 -560 L 1000 -560 M -1000 -550 L 1000 -550 M -1000 -540 L 1000 -540 M -1000 -530 L 1000 -530 M -1000 -520 L 1000 -520 M -1000 -510 L 1000 -510 M -1000 -490 L 1000 -490 M -1000 -480 L 1000 -480 M -1000 -470 L 1000 -470 M -1000 -460 L 1000 -460 M -1000 -450 L 1000 -450 M -1000 -440 L 1000 -440 M -1000 -430 L 1000 -430 M -1000 -420 L 1000 -420 M -1000 -410 L 1000 -410 M -1000 -390 L 1000 -390 M -1000 -380 L 1000 -380 M -1000 -370 L 1000 -370 M -1000 -360 L 1000 -360 M -1000 -350 L 1000 -350 M -1000 -340 L 1000 -340 M -1000 -330 L 1000 -330 M -1000 -320 L 1000 -320 M -1000 -310 L 1000 -310 M -1000 -290 L 1000 -290 M -1000 -280 L 1000 -280 M -1000 -270 L 1000 -270 M -1000 -260 L 1000 -260 M -1000 -250 L 1000 -250 M -1000 -240 L 1000 -240 M -1000 -230 L 1000 -230 M -1000 -220 L 1000 -220 M -1000 -210 L 1000 -210 M -1000 -190 L 1000 -190 M -1000 -180 L 1000 -180 M -1000 -170 L 1000 -170 M -1000 -160 L 1000 -160 M -1000 -150 L 1000 -150 M -1000 -140 L 1000 -140 M -1000 -130 L 1000 -130 M -1000 -120 L 1000 -120 M -1000 -110 L 1000 -110 M -1000 -90 L 1000 -90 M -1000 -80 L 1000 -80 M -1000 -70 L 1000 -70 M -1000 -60 L 1000 -60 M -1000 -50 L 1000 -50 M -1000 -40 L 1000 -40 M -1000 -30 L 1000 -30 M -1000 -20 L 1000 -20 M -1000 -10 L 1000 -10 M -1000 10 L 1000 10 M -1000 20 L 1000 20 M -1000 30 L 1000 30 M -1000 40 L 1000 40 M -1000 50 L 1000 50 M -1000 60 L 1000 60 M -1000 70 L 1000 70 M -1000 80 L 1000 80 M -1000 90 L 1000 90 M -1000 110 L 1000 110 M -1000 120 L 1000 120 M -1000 130 L 1000 130 M -1000 140 L 1000 140 M -1000 150 L 1000 150 M -1000 160 L 1000 160 M -1000 170 L 1000 170 M -1000 180 L 1000 180 M -1000 190 L 1000 190 M -1000 210 L 1000 210 M -1000 220 L 1000 220 M -1000 230 L 1000 230 M -1000 240 L 1000 240 M -1000 250 L 1000 250 M -1000 260 L 1000 260 M -1000 270 L 1000 270 M -1000 280 L 1000 280 M -1000 290 L 1000 290 M -1000 310 L 1000 310 M -1000 320 L 1000 320 M -1000 330 L 1000 330 M -1000 340 L 1000 340 M -1000 350 L 1000 350 M -1000 360 L 1000 360 M -1000 370 L 1000 370 M -1000 380 L 1000 380 M -1000 390 L 1000 390 M -1000 410 L 1000 410 M -1000 420 L 1000 420 M -1000 430 L 1000 430 M -1000 440 L 1000 440 M -1000 450 L 1000 450 M -1000 460 L 1000 460 M -1000 470 L 1000 470 M -1000 480 L 1000 480 M -1000 490 L 1000 490 M -1000 510 L 1000 510 M -1000 520 L 1000 520 M -1000 530 L 1000 530 M -1000 540 L 1000 540 M -1000 550 L 1000 550 M -1000 560 L 1000 560 M -1000 570 L 1000 570 M -1000 580 L 1000 580 M -1000 590 L 1000 590 M -1000 610 L 1000 610 M -1000 620 L 1000 620 M -1000 630 L 1000 630 M -1000 640 L 1000 640 M -1000 650 L 1000 650 M -1000 660 L 1000 660 M -1000 670 L 1000 670 M -1000 680 L 1000 680 M -1000 690 L 1000 690 M -1000 710 L 1000 710 M -1000 720 L 1000 720 M -1000 730 L 1000 730 M -1000 740 L 1000 740 M -1000 750 L 1000 750 M -1000 760 L 1000 760 M -1000 770 L 1000 770 M -1000 780 L 1000 780 M -1000 790 L 1000 790 M -1000 810 L 1000 810 M -1000 820 L 1000 820 M -1000 830 L 1000 830 M -1000 840 L 1000 840 M -1000 850 L 1000 850 M -1000 860 L 1000 860 M -1000 870 L 1000 870 M -1000 880 L 1000 880 M -1000 890 L 1000 890 M -1000 910 L 1000 910 M -1000 920 L 1000 920 M -1000 930 L 1000 930 M -1000 940 L 1000 940 M -1000 950 L 1000 950 M -1000 960 L 1000 960 M -1000 970 L 1000 970 M -1000 980 L 1000 980 M -1000 990 L 1000 990 " transform="matrix(1,0,0,-1,0,220)"/>
<g style="fill:rgb(36.8417%,50.6779%,70.9798%);fill-opacity:1;">
  <use xlink:href="#id2" x="-5.832031" y="213.132812"/>
  <use xlink:href="#id3" x="-0.742188" y="213.132812"/>
  <use xlink:href="#id2" x="1.800781" y="213.132812"/>
</g>
<g style="fill:rgb(36.8417%,50.6779%,70.9798%);fill-opacity:1;">
  <use xlink:href="#id2" x="-10.921875" y="113.132812"/>
  <use xlink:href="#id3" x="-5.832031" y="113.132812"/>
  <use xlink:href="#id4" x="-3.289062" y="113.132812"/>
  <use xlink:href="#id2" x="1.800781" y="113.132812"/>
  <use xlink:href="#id2" x="6.890625" y="113.132812"/>
</g>
<g style="fill:rgb(36.8417%,50.6779%,70.9798%);fill-opacity:1;">
  <use xlink:href="#id2" x="-10.921875" y="13.132812"/>
  <use xlink:href="#id3" x="-5.832031" y="13.132812"/>
  <use xlink:href="#id5" x="-3.289062" y="13.132812"/>
  <use xlink:href="#id2" x="1.800781" y="13.132812"/>
  <use xlink:href="#id2" x="6.890625" y="13.132812"/>
</g>
<g style="fill:rgb(36.8417%,50.6779%,70.9798%);fill-opacity:1;">
  <use xlink:href="#id4" x="89.253906" y="213.132812"/>
  <use xlink:href="#id2" x="94.34375" y="213.132812"/>
  <use xlink:href="#id2" x="99.433594" y="213.132812"/>
  <use xlink:href="#id3" x="104.523438" y="213.132812"/>
  <use xlink:href="#id2" x="107.066406" y="213.132812"/>
</g>
<g style="fill:rgb(36.8417%,50.6779%,70.9798%);fill-opacity:1;">
  <use xlink:href="#id4" x="84.164062" y="113.132812"/>
  <use xlink:href="#id2" x="89.253906" y="113.132812"/>
  <use xlink:href="#id2" x="94.34375" y="113.132812"/>
  <use xlink:href="#id3" x="99.433594" y="113.132812"/>
  <use xlink:href="#id4" x="101.976562" y="113.132812"/>
  <use xlink:href="#id2" x="107.066406" y="113.132812"/>
  <use xlink:href="#id2" x="112.15625" y="113.132812"/>
</g>
<g style="fill:rgb(36.8417%,50.6779%,70.9798%);fill-opacity:1;">
  <use xlink:href="#id4" x="84.164062" y="13.132812"/>
  <use xlink:href="#id2" x="89.253906" y="13.132812"/>
  <use xlink:href="#id2" x="94.34375" y="13.132812"/>
  <use xlink:href="#id3" x="99.433594" y="13.132812"/>
  <use xlink:href="#id5" x="101.976562" y="13.132812"/>
  <use xlink:href="#id2" x="107.066406" y="13.132812"/>
  <use xlink:href="#id2" x="112.15625" y="13.132812"/>
</g>
<g style="fill:rgb(36.8417%,50.6779%,70.9798%);fill-opacity:1;">
  <use xlink:href="#id5" x="189.109375" y="213.132812"/>
  <use xlink:href="#id2" x="194.199219" y="213.132812"/>
  <use xlink:href="#id2" x="199.289062" y="213.132812"/>
  <use xlink:href="#id3" x="204.378906" y="213.132812"/>
  <use xlink:href="#id2" x="206.921875" y="213.132812"/>
</g>
<g style="fill:rgb(36.8417%,50.6779%,70.9798%);fill-opacity:1;">
  <use xlink:href="#id5" x="184.015625" y="113.132812"/>
  <use xlink:href="#id2" x="189.105469" y="113.132812"/>
  <use xlink:href="#id2" x="194.195312" y="113.132812"/>
  <use xlink:href="#id3" x="199.285156" y="113.132812"/>
  <use xlink:href="#id4" x="201.828125" y="113.132812"/>
  <use xlink:href="#id2" x="206.917969" y="113.132812"/>
  <use xlink:href="#id2" x="212.007812" y="113.132812"/>
</g>
<g style="fill:rgb(36.8417%,50.6779%,70.9798%);fill-opacity:1;">
  <use xlink:href="#id5" x="184.015625" y="13.132812"/>
  <use xlink:href="#id2" x="189.105469" y="13.132812"/>
  <use xlink:href="#id2" x="194.195312" y="13.132812"/>
  <use xlink:href="#id3" x="199.285156" y="13.132812"/>
  <use xlink:href="#id5" x="201.828125" y="13.132812"/>
  <use xlink:href="#id2" x="206.917969" y="13.132812"/>
  <use xlink:href="#id2" x="212.007812" y="13.132812"/>
</g>
<g style="fill:rgb(36.8417%,50.6779%,70.9798%);fill-opacity:1;">
  <use xlink:href="#id6" x="289.117188" y="213.132812"/>
  <use xlink:href="#id2" x="294.207031" y="213.132812"/>
  <use xlink:href="#id2" x="299.296875" y="213.132812"/>
  <use xlink:href="#id3" x="304.386719" y="213.132812"/>
  <use xlink:href="#id2" x="306.929688" y="213.132812"/>
</g>
<g style="fill:rgb(36.8417%,50.6779%,70.9798%);fill-opacity:1;">
  <use xlink:href="#id6" x="284.03125" y="113.132812"/>
  <use xlink:href="#id2" x="289.121094" y="113.132812"/>
  <use xlink:href="#id2" x="294.210938" y="113.132812"/>
  <use xlink:href="#id3" x="299.300781" y="113.132812"/>
  <use xlink:href="#id4" x="301.84375" y="113.132812"/>
  <use xlink:href="#id2" x="306.933594" y="113.132812"/>
  <use xlink:href="#id2" x="312.023438" y="113.132812"/>
</g>
<g style="fill:rgb(36.8417%,50.6779%,70.9798%);fill-opacity:1;">
  <use xlink:href="#id6" x="284.03125" y="13.132812"/>
  <use xlink:href="#id2" x="289.121094" y="13.132812"/>
  <use xlink:href="#id2" x="294.210938" y="13.132812"/>
  <use xlink:href="#id3" x="299.300781" y="13.132812"/>
  <use xlink:href="#id5" x="301.84375" y="13.132812"/>
  <use xlink:href="#id2" x="306.933594" y="13.132812"/>
  <use xlink:href="#id2" x="312.023438" y="13.132812"/>
</g>
</g>
</defs>
<g id="id12">
<use xlink:href="#id9" mask="url(#id7)"/>
<use xlink:href="#id11"/>
</g>
</svg>
