<?xml version="1.0" encoding="UTF-8"?>
<svg xmlns="http://www.w3.org/2000/svg" xmlns:xlink="http://www.w3.org/1999/xlink" width="250pt" height="250pt" viewBox="0 0 250 250" version="1.1">
<defs>
<filter id="alpha" filterUnits="objectBoundingBox" x="0%" y="0%" width="100%" height="100%">
  <feColorMatrix type="matrix" in="SourceGraphic" values="0 0 0 0 1 0 0 0 0 1 0 0 0 0 1 0 0 0 1 0"/>
</filter>
<mask id="id1">
  <g filter="url(#alpha)">
<rect x="0" y="0" width="250" height="250" style="fill:rgb(0%,0%,0%);fill-opacity:0.5;stroke:none;"/>
  </g>
</mask>
<clipPath id="id2">
  <rect x="0" y="0" width="250" height="250"/>
</clipPath>
<g id="id3" clip-path="url(#id2)">
<path style="fill:none;stroke-width:1;stroke-linecap:butt;stroke-linejoin:miter;stroke:rgb(0%,0%,0%);stroke-opacity:0.2;stroke-dasharray:4,6;stroke-dashoffset:2;stroke-miterlimit:10;" d="M -1000 -1000 L -1000 1000 M -990 -1000 L -990 1000 M -980 -1000 L -980 1000 M -970 -1000 L -970 1000 M -960 -1000 L -960 1000 M -950 -1000 L -950 1000 M -940 -1000 L -940 1000 M -930 -1000 L -930 1000 M -920 -1000 L -920 1000 M -910 -1000 L -910 1000 M -900 -1000 L -900 1000 M -890 -1000 L -890 1000 M -880 -1000 L -880 1000 M -870 -1000 L -870 1000 M -860 -1000 L -860 1000 M -850 -1000 L -850 1000 M -840 -1000 L -840 1000 M -830 -1000 L -830 1000 M -820 -1000 L -820 1000 M -810 -1000 L -810 1000 M -800 -1000 L -800 1000 M -790 -1000 L -790 1000 M -780 -1000 L -780 1000 M -770 -1000 L -770 1000 M -760 -1000 L -760 1000 M -750 -1000 L -750 1000 M -740 -1000 L -740 1000 M -730 -1000 L -730 1000 M -720 -1000 L -720 1000 M -710 -1000 L -710 1000 M -700 -1000 L -700 1000 M -690 -1000 L -690 1000 M -680 -1000 L -680 1000 M -670 -1000 L -670 1000 M -660 -1000 L -660 1000 M -650 -1000 L -650 1000 M -640 -1000 L -640 1000 M -630 -1000 L -630 1000 M -620 -1000 L -620 1000 M -610 -1000 L -610 1000 M -600 -1000 L -600 1000 M -590 -1000 L -590 1000 M -580 -1000 L -580 1000 M -570 -1000 L -570 1000 M -560 -1000 L -560 1000 M -550 -1000 L -550 1000 M -540 -1000 L -540 1000 M -530 -1000 L -530 1000 M -520 -1000 L -520 1000 M -510 -1000 L -510 1000 M -500 -1000 L -500 1000 M -490 -1000 L -490 1000 M -480 -1000 L -480 1000 M -470 -1000 L -470 1000 M -460 -1000 L -460 1000 M -450 -1000 L -450 1000 M -440 -1000 L -440 1000 M -430 -1000 L -430 1000 M -420 -1000 L -420 1000 M -410 -1000 L -410 1000 M -400 -1000 L -400 1000 M -390 -1000 L -390 1000 M -380 -1000 L -380 1000 M -370 -1000 L -370 1000 M -360 -1000 L -360 1000 M -350 -1000 L -350 1000 M -340 -1000 L -340 1000 M -330 -1000 L -330 1000 M -320 -1000 L -320 1000 M -310 -1000 L -310 1000 M -300 -1000 L -300 1000 M -290 -1000 L -290 1000 M -280 -1000 L -280 1000 M -270 -1000 L -270 1000 M -260 -1000 L -260 1000 M -250 -1000 L -250 1000 M -240 -1000 L -240 1000 M -230 -1000 L -230 1000 M -220 -1000 L -220 1000 M -210 -1000 L -210 1000 M -200 -1000 L -200 1000 M -190 -1000 L -190 1000 M -180 -1000 L -180 1000 M -170 -1000 L -170 1000 M -160 -1000 L -160 1000 M -150 -1000 L -150 1000 M -140 -1000 L -140 1000 M -130 -1000 L -130 1000 M -120 -1000 L -120 1000 M -110 -1000 L -110 1000 M -100 -1000 L -100 1000 M -90 -1000 L -90 1000 M -80 -1000 L -80 1000 M -70 -1000 L -70 1000 M -60 -1000 L -60 1000 M -50 -1000 L -50 1000 M -40 -1000 L -40 1000 M -30 -1000 L -30 1000 M -20 -1000 L -20 1000 M -10 -1000 L -10 1000 M 0 -1000 L 0 1000 M 10 -1000 L 10 1000 M 20 -1000 L 20 1000 M 30 -1000 L 30 1000 M 40 -1000 L 40 1000 M 50 -1000 L 50 1000 M 60 -1000 L 60 1000 M 70 -1000 L 70 1000 M 80 -1000 L 80 1000 M 90 -1000 L 90 1000 M 100 -1000 L 100 1000 M 110 -1000 L 110 1000 M 120 -1000 L 120 1000 M 130 -1000 L 130 1000 M 140 -1000 L 140 1000 M 150 -1000 L 150 1000 M 160 -1000 L 160 1000 M 170 -1000 L 170 1000 M 180 -1000 L 180 1000 M 190 -1000 L 190 1000 M 200 -1000 L 200 1000 M 210 -1000 L 210 1000 M 220 -1000 L 220 1000 M 230 -1000 L 230 1000 M 240 -1000 L 240 1000 M 250 -1000 L 250 1000 M 260 -1000 L 260 1000 M 270 -1000 L 270 1000 M 280 -1000 L 280 1000 M 290 -1000 L 290 1000 M 300 -1000 L 300 1000 M 310 -1000 L 310 1000 M 320 -1000 L 320 1000 M 330 -1000 L 330 1000 M 340 -1000 L 340 1000 M 350 -1000 L 350 1000 M 360 -1000 L 360 1000 M 370 -1000 L 370 1000 M 380 -1000 L 380 1000 M 390 -1000 L 390 1000 M 400 -1000 L 400 1000 M 410 -1000 L 410 1000 M 420 -1000 L 420 1000 M 430 -1000 L 430 1000 M 440 -1000 L 440 1000 M 450 -1000 L 450 1000 M 460 -1000 L 460 1000 M 470 -1000 L 470 1000 M 480 -1000 L 480 1000 M 490 -1000 L 490 1000 M 500 -1000 L 500 1000 M 510 -1000 L 510 1000 M 520 -1000 L 520 1000 M 530 -1000 L 530 1000 M 540 -1000 L 540 1000 M 550 -1000 L 550 1000 M 560 -1000 L 560 1000 M 570 -1000 L 570 1000 M 580 -1000 L 580 1000 M 590 -1000 L 590 1000 M 600 -1000 L 600 1000 M 610 -1000 L 610 1000 M 620 -1000 L 620 1000 M 630 -1000 L 630 1000 M 640 -1000 L 640 1000 M 650 -1000 L 650 1000 M 660 -1000 L 660 1000 M 670 -1000 L 670 1000 M 680 -1000 L 680 1000 M 690 -1000 L 690 1000 M 700 -1000 L 700 1000 M 710 -1000 L 710 1000 M 720 -1000 L 720 1000 M 730 -1000 L 730 1000 M 740 -1000 L 740 1000 M 750 -1000 L 750 1000 M 760 -1000 L 760 1000 M 770 -1000 L 770 1000 M 780 -1000 L 780 1000 M 790 -1000 L 790 1000 M 800 -1000 L 800 1000 M 810 -1000 L 810 1000 M 820 -1000 L 820 1000 M 830 -1000 L 830 1000 M 840 -1000 L 840 1000 M 850 -1000 L 850 1000 M 860 -1000 L 860 1000 M 870 -1000 L 870 1000 M 880 -1000 L 880 1000 M 890 -1000 L 890 1000 M 900 -1000 L 900 1000 M 910 -1000 L 910 1000 M 920 -1000 L 920 1000 M 930 -1000 L 930 1000 M 940 -1000 L 940 1000 M 950 -1000 L 950 1000 M 960 -1000 L 960 1000 M 970 -1000 L 970 1000 M 980 -1000 L 980 1000 M 990 -1000 L 990 1000 M 1000 -1000 L 1000 1000 M -1000 -1000 L 1000 -1000 M -1000 -990 L 1000 -990 M -1000 -980 L 1000 -980 M -1000 -970 L 1000 -970 M -1000 -960 L 1000 -960 M -1000 -950 L 1000 -950 M -1000 -940 L 1000 -940 M -1000 -930 L 1000 -930 M -1000 -920 L 1000 -920 M -1000 -910 L 1000 -910 M -1000 -900 L 1000 -900 M -1000 -890 L 1000 -890 M -1000 -880 L 1000 -880 M -1000 -870 L 1000 -870 M -1000 -860 L 1000 -860 M -1000 -850 L 1000 -850 M -1000 -840 L 1000 -840 M -1000 -830 L 1000 -830 M -1000 -820 L 1000 -820 M -1000 -810 L 1000 -810 M -1000 -800 L 1000 -800 M -1000 -790 L 1000 -790 M -1000 -780 L 1000 -780 M -1000 -770 L 1000 -770 M -1000 -760 L 1000 -760 M -1000 -750 L 1000 -750 M -1000 -740 L 1000 -740 M -1000 -730 L 1000 -730 M -1000 -720 L 1000 -720 M -1000 -710 L 1000 -710 M -1000 -700 L 1000 -700 M -1000 -690 L 1000 -690 M -1000 -680 L 1000 -680 M -1000 -670 L 1000 -670 M -1000 -660 L 1000 -660 M -1000 -650 L 1000 -650 M -1000 -640 L 1000 -640 M -1000 -630 L 1000 -630 M -1000 -620 L 1000 -620 M -1000 -610 L 1000 -610 M -1000 -600 L 1000 -600 M -1000 -590 L 1000 -590 M -1000 -580 L 1000 -580 M -1000 -570 L 1000 -570 M -1000 -560 L 1000 -560 M -1000 -550 L 1000 -550 M -1000 -540 L 1000 -540 M -1000 -530 L 1000 -530 M -1000 -520 L 1000 -520 M -1000 -510 L 1000 -510 M -1000 -500 L 1000 -500 M -1000 -490 L 1000 -490 M -1000 -480 L 1000 -480 M -1000 -470 L 1000 -470 M -1000 -460 L 1000 -460 M -1000 -450 L 1000 -450 M -1000 -440 L 1000 -440 M -1000 -430 L 1000 -430 M -1000 -420 L 1000 -420 M -1000 -410 L 1000 -410 M -1000 -400 L 1000 -400 M -1000 -390 L 1000 -390 M -1000 -380 L 1000 -380 M -1000 -370 L 1000 -370 M -1000 -360 L 1000 -360 M -1000 -350 L 1000 -350 M -1000 -340 L 1000 -340 M -1000 -330 L 1000 -330 M -1000 -320 L 1000 -320 M -1000 -310 L 1000 -310 M -1000 -300 L 1000 -300 M -1000 -290 L 1000 -290 M -1000 -280 L 1000 -280 M -1000 -270 L 1000 -270 M -1000 -260 L 1000 -260 M -1000 -250 L 1000 -250 M -1000 -240 L 1000 -240 M -1000 -230 L 1000 -230 M -1000 -220 L 1000 -220 M -1000 -210 L 1000 -210 M -1000 -200 L 1000 -200 M -1000 -190 L 1000 -190 M -1000 -180 L 1000 -180 M -1000 -170 L 1000 -170 M -1000 -160 L 1000 -160 M -1000 -150 L 1000 -150 M -1000 -140 L 1000 -140 M -1000 -130 L 1000 -130 M -1000 -120 L 1000 -120 M -1000 -110 L 1000 -110 M -1000 -100 L 1000 -100 M -1000 -90 L 1000 -90 M -1000 -80 L 1000 -80 M -1000 -70 L 1000 -70 M -1000 -60 L 1000 -60 M -1000 -50 L 1000 -50 M -1000 -40 L 1000 -40 M -1000 -30 L 1000 -30 M -1000 -20 L 1000 -20 M -1000 -10 L 1000 -10 M -1000 0 L 1000 0 M -1000 10 L 1000 10 M -1000 20 L 1000 20 M -1000 30 L 1000 30 M -1000 40 L 1000 40 M -1000 50 L 1000 50 M -1000 60 L 1000 60 M -1000 70 L 1000 70 M -1000 80 L 1000 80 M -1000 90 L 1000 90 M -1000 100 L 1000 100 M -1000 110 L 1000 110 M -1000 120 L 1000 120 M -1000 130 L 1000 130 M -1000 140 L 1000 140 M -1000 150 L 1000 150 M -1000 160 L 1000 160 M -1000 170 L 1000 170 M -1000 180 L 1000 180 M -1000 190 L 1000 190 M -1000 200 L 1000 200 M -1000 210 L 1000 210 M -1000 220 L 1000 220 M -1000 230 L 1000 230 M -1000 240 L 1000 240 M -1000 250 L 1000 250 M -1000 260 L 1000 260 M -1000 270 L 1000 270 M -1000 280 L 1000 280 M -1000 290 L 1000 290 M -1000 300 L 1000 300 M -1000 310 L 1000 310 M -1000 320 L 1000 320 M -1000 330 L 1000 330 M -1000 340 L 1000 340 M -1000 350 L 1000 350 M -1000 360 L 1000 360 M -1000 370 L 1000 370 M -1000 380 L 1000 380 M -1000 390 L 1000 390 M -1000 400 L 1000 400 M -1000 410 L 1000 410 M -1000 420 L 1000 420 M -1000 430 L 1000 430 M -1000 440 L 1000 440 M -1000 450 L 1000 450 M -1000 460 L 1000 460 M -1000 470 L 1000 470 M -1000 480 L 1000 480 M -1000 490 L 1000 490 M -1000 500 L 1000 500 M -1000 510 L 1000 510 M -1000 520 L 1000 520 M -1000 530 L 1000 530 M -1000 540 L 1000 540 M -1000 550 L 1000 550 M -1000 560 L 1000 560 M -1000 570 L 1000 570 M -1000 580 L 1000 580 M -1000 590 L 1000 590 M -1000 600 L 1000 600 M -1000 610 L 1000 610 M -1000 620 L 1000 620 M -1000 630 L 1000 630 M -1000 640 L 1000 640 M -1000 650 L 1000 650 M -1000 660 L 1000 660 M -1000 670 L 1000 670 M -1000 680 L 1000 680 M -1000 690 L 1000 690 M -1000 700 L 1000 700 M -1000 710 L 1000 710 M -1000 720 L 1000 720 M -1000 730 L 1000 730 M -1000 740 L 1000 740 M -1000 750 L 1000 750 M -1000 760 L 1000 760 M -1000 770 L 1000 770 M -1000 780 L 1000 780 M -1000 790 L 1000 790 M -1000 800 L 1000 800 M -1000 810 L 1000 810 M -1000 820 L 1000 820 M -1000 830 L 1000 830 M -1000 840 L 1000 840 M -1000 850 L 1000 850 M -1000 860 L 1000 860 M -1000 870 L 1000 870 M -1000 880 L 1000 880 M -1000 890 L 1000 890 M -1000 900 L 1000 900 M -1000 910 L 1000 910 M -1000 920 L 1000 920 M -1000 930 L 1000 930 M -1000 940 L 1000 940 M -1000 950 L 1000 950 M -1000 960 L 1000 960 M -1000 970 L 1000 970 M -1000 980 L 1000 980 M -1000 990 L 1000 990 M -1000 1000 L 1000 1000 " transform="matrix(1,0,0,-1,0,250)"/>
</g>
</defs>
<g id="id4">
<use xlink:href="#id3" mask="url(#id1)"/>
<path style="fill:none;stroke-width:1;stroke-linecap:butt;stroke-linejoin:miter;stroke:rgb(0%,0%,0%);stroke-opacity:1;stroke-miterlimit:10;" d="M 100 0 C 100 55.226562 55.226562 100 0 100 C -55.226562 100 -100 55.226562 -100 0 C -100 -55.226562 -55.226562 -100 0 -100 C 55.226562 -100 100 -55.226562 100 0 " transform="matrix(1,0,0,-1,50,200)"/>
<path style="fill:none;stroke-width:1;stroke-linecap:butt;stroke-linejoin:miter;stroke:rgb(0%,0%,0%);stroke-opacity:1;stroke-miterlimit:10;" d="M 200 0 C 200 110.457031 110.457031 200 0 200 C -110.457031 200 -200 110.457031 -200 0 C -200 -110.457031 -110.457031 -200 0 -200 C 110.457031 -200 200 -110.457031 200 0 " transform="matrix(1,0,0,-1,50,200)"/>
<path style="fill:none;stroke-width:1;stroke-linecap:butt;stroke-linejoin:miter;stroke:rgb(0%,0%,0%);stroke-opacity:1;stroke-miterlimit:10;" d="M 300 0 C 300 165.683594 165.683594 300 0 300 C -165.683594 300 -300 165.683594 -300 0 C -300 -165.683594 -165.683594 -300 0 -300 C 165.683594 -300 300 -165.683594 300 0 " transform="matrix(1,0,0,-1,50,200)"/>
<path style="fill:none;stroke-width:1;stroke-linecap:butt;stroke-linejoin:miter;stroke:rgb(0%,0%,0%);stroke-opacity:1;stroke-miterlimit:10;" d="M 400 0 C 400 142.90625 323.761719 274.957031 200 346.410156 C 76.238281 417.863281 -76.238281 417.863281 -200 346.410156 C -323.761719 274.957031 -400 142.90625 -400 0 C -400 -142.90625 -323.761719 -274.957031 -200 -346.410156 C -76.238281 -417.863281 76.238281 -417.863281 200 -346.410156 C 323.761719 -274.957031 400 -142.90625 400 0 " transform="matrix(1,0,0,-1,50,200)"/>
<path style="fill:none;stroke-width:1;stroke-linecap:butt;stroke-linejoin:miter;stroke:rgb(0%,0%,0%);stroke-opacity:1;stroke-miterlimit:10;" d="M 500 0 C 500 178.632812 404.699219 343.695312 250 433.011719 C 95.300781 522.328125 -95.300781 522.328125 -250 433.011719 C -404.699219 343.695312 -500 178.632812 -500 0 C -500 -178.632812 -404.699219 -343.695312 -250 -433.011719 C -95.300781 -522.328125 95.300781 -522.328125 250 -433.011719 C 404.699219 -343.695312 500 -178.632812 500 0 " transform="matrix(1,0,0,-1,50,200)"/>
<path style="fill:none;stroke-width:1;stroke-linecap:butt;stroke-linejoin:miter;stroke:rgb(0%,0%,0%);stroke-opacity:1;stroke-miterlimit:10;" d="M 600 0 C 600 214.359375 485.640625 412.4375 300 519.617188 C 114.359375 626.792969 -114.359375 626.792969 -300 519.617188 C -485.640625 412.4375 -600 214.359375 -600 0 C -600 -214.359375 -485.640625 -412.4375 -300 -519.617188 C -114.359375 -626.792969 114.359375 -626.792969 300 -519.617188 C 485.640625 -412.4375 600 -214.359375 600 0 " transform="matrix(1,0,0,-1,50,200)"/>
<path style="fill:none;stroke-width:1;stroke-linecap:butt;stroke-linejoin:miter;stroke:rgb(0%,0%,0%);stroke-opacity:1;stroke-miterlimit:10;" d="M 700 0 C 700 250.085938 566.582031 481.175781 350 606.21875 C 133.417969 731.261719 -133.417969 731.261719 -350 606.21875 C -566.582031 481.175781 -700 250.085938 -700 0 C -700 -250.085938 -566.582031 -481.175781 -350 -606.21875 C -133.417969 -731.261719 133.417969 -731.261719 350 -606.21875 C 566.582031 -481.175781 700 -250.085938 700 0 " transform="matrix(1,0,0,-1,50,200)"/>
<path style="fill:none;stroke-width:1;stroke-linecap:butt;stroke-linejoin:miter;stroke:rgb(0%,0%,0%);stroke-opacity:1;stroke-miterlimit:10;" d="M 800 0 C 800 285.8125 647.519531 549.914062 400 692.820312 C 152.480469 835.726562 -152.480469 835.726562 -400 692.820312 C -647.519531 549.914062 -800 285.8125 -800 0 C -800 -285.8125 -647.519531 -549.914062 -400 -692.820312 C -152.480469 -835.726562 152.480469 -835.726562 400 -692.820312 C 647.519531 -549.914062 800 -285.8125 800 0 " transform="matrix(1,0,0,-1,50,200)"/>
<path style="fill:none;stroke-width:1;stroke-linecap:butt;stroke-linejoin:miter;stroke:rgb(0%,0%,0%);stroke-opacity:1;stroke-miterlimit:10;" d="M 900 0 C 900 321.539062 728.460938 618.652344 450 779.421875 C 171.539062 940.191406 -171.539062 940.191406 -450 779.421875 C -728.460938 618.652344 -900 321.539062 -900 0 C -900 -321.539062 -728.460938 -618.652344 -450 -779.421875 C -171.539062 -940.191406 171.539062 -940.191406 450 -779.421875 C 728.460938 -618.652344 900 -321.539062 900 0 " transform="matrix(1,0,0,-1,50,200)"/>
<path style="fill:none;stroke-width:1;stroke-linecap:butt;stroke-linejoin:miter;stroke:rgb(0%,0%,0%);stroke-opacity:1;stroke-miterlimit:10;" d="M 1000 0 C 1000 357.265625 809.402344 687.394531 500 866.027344 C 190.597656 1044.65625 -190.597656 1044.65625 -500 866.027344 C -809.402344 687.394531 -1000 357.265625 -1000 0 C -1000 -357.265625 -809.402344 -687.394531 -500 -866.027344 C -190.597656 -1044.65625 190.597656 -1044.65625 500 -866.027344 C 809.402344 -687.394531 1000 -357.265625 1000 0 " transform="matrix(1,0,0,-1,50,200)"/>
<path style="fill:none;stroke-width:1;stroke-linecap:butt;stroke-linejoin:miter;stroke:rgb(0%,0%,0%);stroke-opacity:1;stroke-miterlimit:10;" d="M 0 0 L 1000 0 " transform="matrix(1,0,0,-1,50,200)"/>
<path style="fill:none;stroke-width:1;stroke-linecap:butt;stroke-linejoin:miter;stroke:rgb(0%,0%,0%);stroke-opacity:1;stroke-miterlimit:10;" d="M 0 0 L 707.105469 707.105469 " transform="matrix(1,0,0,-1,50,200)"/>
<path style="fill:none;stroke-width:1;stroke-linecap:butt;stroke-linejoin:miter;stroke:rgb(0%,0%,0%);stroke-opacity:1;stroke-miterlimit:10;" d="M 0 0 L 0 1000 " transform="matrix(1,0,0,-1,50,200)"/>
<path style="fill:none;stroke-width:1;stroke-linecap:butt;stroke-linejoin:miter;stroke:rgb(0%,0%,0%);stroke-opacity:1;stroke-miterlimit:10;" d="M 0 0 L -707.105469 707.105469 " transform="matrix(1,0,0,-1,50,200)"/>
<path style="fill:none;stroke-width:1;stroke-linecap:butt;stroke-linejoin:miter;stroke:rgb(0%,0%,0%);stroke-opacity:1;stroke-miterlimit:10;" d="M 0 0 L -1000 0 " transform="matrix(1,0,0,-1,50,200)"/>
<path style="fill:none;stroke-width:1;stroke-linecap:butt;stroke-linejoin:miter;stroke:rgb(0%,0%,0%);stroke-opacity:1;stroke-miterlimit:10;" d="M 0 0 L -707.105469 -707.105469 " transform="matrix(1,0,0,-1,50,200)"/>
<path style="fill:none;stroke-width:1;stroke-linecap:butt;stroke-linejoin:miter;stroke:rgb(0%,0%,0%);stroke-opacity:1;stroke-miterlimit:10;" d="M 0 0 L 0 -1000 " transform="matrix(1,0,0,-1,50,200)"/>
<path style="fill:none;stroke-width:1;stroke-linecap:butt;stroke-linejoin:miter;stroke:rgb(0%,0%,0%);stroke-opacity:1;stroke-miterlimit:10;" d="M 0 0 L 707.105469 -707.105469 " transform="matrix(1,0,0,-1,50,200)"/>
<path style="fill:none;stroke-width:1;stroke-linecap:butt;stroke-linejoin:miter;stroke:rgb(0%,0%,0%);stroke-opacity:0.5;stroke-miterlimit:10;" d="M 25 0 C 25 13.808594 13.808594 25 0 25 C -13.808594 25 -25 13.808594 -25 0 C -25 -13.808594 -13.808594 -25 0 -25 C 13.808594 -25 25 -13.808594 25 0 " transform="matrix(1,0,0,-1,50,200)"/>
<path style="fill:none;stroke-width:1;stroke-linecap:butt;stroke-linejoin:miter;stroke:rgb(0%,0%,0%);stroke-opacity:0.5;stroke-miterlimit:10;" d="M 50 0 C 50 27.613281 27.613281 50 0 50 C -27.613281 50 -50 27.613281 -50 0 C -50 -27.613281 -27.613281 -50 0 -50 C 27.613281 -50 50 -27.613281 50 0 " transform="matrix(1,0,0,-1,50,200)"/>
<path style="fill:none;stroke-width:1;stroke-linecap:butt;stroke-linejoin:miter;stroke:rgb(0%,0%,0%);stroke-opacity:0.5;stroke-miterlimit:10;" d="M 75 0 C 75 41.421875 41.421875 75 0 75 C -41.421875 75 -75 41.421875 -75 0 C -75 -41.421875 -41.421875 -75 0 -75 C 41.421875 -75 75 -41.421875 75 0 " transform="matrix(1,0,0,-1,50,200)"/>
<path style="fill:none;stroke-width:1;stroke-linecap:butt;stroke-linejoin:miter;stroke:rgb(0%,0%,0%);stroke-opacity:0.5;stroke-miterlimit:10;" d="M 125 0 C 125 69.035156 69.035156 125 0 125 C -69.035156 125 -125 69.035156 -125 0 C -125 -69.035156 -69.035156 -125 0 -125 C 69.035156 -125 125 -69.035156 125 0 " transform="matrix(1,0,0,-1,50,200)"/>
<path style="fill:none;stroke-width:1;stroke-linecap:butt;stroke-linejoin:miter;stroke:rgb(0%,0%,0%);stroke-opacity:0.5;stroke-miterlimit:10;" d="M 150 0 C 150 82.84375 82.84375 150 0 150 C -82.84375 150 -150 82.84375 -150 0 C -150 -82.84375 -82.84375 -150 0 -150 C 82.84375 -150 150 -82.84375 150 0 " transform="matrix(1,0,0,-1,50,200)"/>
<path style="fill:none;stroke-width:1;stroke-linecap:butt;stroke-linejoin:miter;stroke:rgb(0%,0%,0%);stroke-opacity:0.5;stroke-miterlimit:10;" d="M 175 0 C 175 96.648438 96.648438 175 0 175 C -96.648438 175 -175 96.648438 -175 0 C -175 -96.648438 -96.648438 -175 0 -175 C 96.648438 -175 175 -96.648438 175 0 " transform="matrix(1,0,0,-1,50,200)"/>
<path style="fill:none;stroke-width:1;stroke-linecap:butt;stroke-linejoin:miter;stroke:rgb(0%,0%,0%);stroke-opacity:0.5;stroke-miterlimit:10;" d="M 225 0 C 225 124.265625 124.265625 225 0 225 C -124.265625 225 -225 124.265625 -225 0 C -225 -124.265625 -124.265625 -225 0 -225 C 124.265625 -225 225 -124.265625 225 0 " transform="matrix(1,0,0,-1,50,200)"/>
<path style="fill:none;stroke-width:1;stroke-linecap:butt;stroke-linejoin:miter;stroke:rgb(0%,0%,0%);stroke-opacity:0.5;stroke-miterlimit:10;" d="M 250 0 C 250 138.070312 138.070312 250 0 250 C -138.070312 250 -250 138.070312 -250 0 C -250 -138.070312 -138.070312 -250 0 -250 C 138.070312 -250 250 -138.070312 250 0 " transform="matrix(1,0,0,-1,50,200)"/>
<path style="fill:none;stroke-width:1;stroke-linecap:butt;stroke-linejoin:miter;stroke:rgb(0%,0%,0%);stroke-opacity:0.5;stroke-miterlimit:10;" d="M 275 0 C 275 151.878906 151.878906 275 0 275 C -151.878906 275 -275 151.878906 -275 0 C -275 -151.878906 -151.878906 -275 0 -275 C 151.878906 -275 275 -151.878906 275 0 " transform="matrix(1,0,0,-1,50,200)"/>
<path style="fill:none;stroke-width:1;stroke-linecap:butt;stroke-linejoin:miter;stroke:rgb(0%,0%,0%);stroke-opacity:0.5;stroke-miterlimit:10;" d="M 325 0 C 325 179.492188 179.492188 325 0 325 C -179.492188 325 -325 179.492188 -325 0 C -325 -179.492188 -179.492188 -325 0 -325 C 179.492188 -325 325 -179.492188 325 0 " transform="matrix(1,0,0,-1,50,200)"/>
<path style="fill:none;stroke-width:1;stroke-linecap:butt;stroke-linejoin:miter;stroke:rgb(0%,0%,0%);stroke-opacity:0.5;stroke-miterlimit:10;" d="M 350 0 C 350 193.300781 193.300781 350 0 350 C -193.300781 350 -350 193.300781 -350 0 C -350 -193.300781 -193.300781 -350 0 -350 C 193.300781 -350 350 -193.300781 350 0 " transform="matrix(1,0,0,-1,50,200)"/>
<path style="fill:none;stroke-width:1;stroke-linecap:butt;stroke-linejoin:miter;stroke:rgb(0%,0%,0%);stroke-opacity:0.5;stroke-miterlimit:10;" d="M 375 0 C 375 133.972656 303.527344 257.773438 187.5 324.757812 C 71.472656 391.746094 -71.472656 391.746094 -187.5 324.757812 C -303.527344 257.773438 -375 133.972656 -375 0 C -375 -133.972656 -303.527344 -257.773438 -187.5 -324.757812 C -71.472656 -391.746094 71.472656 -391.746094 187.5 -324.757812 C 303.527344 -257.773438 375 -133.972656 375 0 " transform="matrix(1,0,0,-1,50,200)"/>
<path style="fill:none;stroke-width:1;stroke-linecap:butt;stroke-linejoin:miter;stroke:rgb(0%,0%,0%);stroke-opacity:0.5;stroke-miterlimit:10;" d="M 425 0 C 425 151.835938 343.996094 292.140625 212.5 368.0625 C 81.003906 443.980469 -81.003906 443.980469 -212.5 368.0625 C -343.996094 292.140625 -425 151.835938 -425 0 C -425 -151.835938 -343.996094 -292.140625 -212.5 -368.0625 C -81.003906 -443.980469 81.003906 -443.980469 212.5 -368.0625 C 343.996094 -292.140625 425 -151.835938 425 0 " transform="matrix(1,0,0,-1,50,200)"/>
<path style="fill:none;stroke-width:1;stroke-linecap:butt;stroke-linejoin:miter;stroke:rgb(0%,0%,0%);stroke-opacity:0.5;stroke-miterlimit:10;" d="M 450 0 C 450 160.769531 364.230469 309.328125 225 389.710938 C 85.769531 470.097656 -85.769531 470.097656 -225 389.710938 C -364.230469 309.328125 -450 160.769531 -450 0 C -450 -160.769531 -364.230469 -309.328125 -225 -389.710938 C -85.769531 -470.097656 85.769531 -470.097656 225 -389.710938 C 364.230469 -309.328125 450 -160.769531 450 0 " transform="matrix(1,0,0,-1,50,200)"/>
<path style="fill:none;stroke-width:1;stroke-linecap:butt;stroke-linejoin:miter;stroke:rgb(0%,0%,0%);stroke-opacity:0.5;stroke-miterlimit:10;" d="M 475 0 C 475 169.699219 384.464844 326.511719 237.5 411.363281 C 90.535156 496.210938 -90.535156 496.210938 -237.5 411.363281 C -384.464844 326.511719 -475 169.699219 -475 0 C -475 -169.699219 -384.464844 -326.511719 -237.5 -411.363281 C -90.535156 -496.210938 90.535156 -496.210938 237.5 -411.363281 C 384.464844 -326.511719 475 -169.699219 475 0 " transform="matrix(1,0,0,-1,50,200)"/>
<path style="fill:none;stroke-width:1;stroke-linecap:butt;stroke-linejoin:miter;stroke:rgb(0%,0%,0%);stroke-opacity:0.5;stroke-miterlimit:10;" d="M 525 0 C 525 187.5625 424.9375 360.882812 262.5 454.664062 C 100.0625 548.445312 -100.0625 548.445312 -262.5 454.664062 C -424.9375 360.882812 -525 187.5625 -525 0 C -525 -187.5625 -424.9375 -360.882812 -262.5 -454.664062 C -100.0625 -548.445312 100.0625 -548.445312 262.5 -454.664062 C 424.9375 -360.882812 525 -187.5625 525 0 " transform="matrix(1,0,0,-1,50,200)"/>
<path style="fill:none;stroke-width:1;stroke-linecap:butt;stroke-linejoin:miter;stroke:rgb(0%,0%,0%);stroke-opacity:0.5;stroke-miterlimit:10;" d="M 550 0 C 550 196.496094 445.171875 378.066406 275 476.3125 C 104.828125 574.5625 -104.828125 574.5625 -275 476.3125 C -445.171875 378.066406 -550 196.496094 -550 0 C -550 -196.496094 -445.171875 -378.066406 -275 -476.3125 C -104.828125 -574.5625 104.828125 -574.5625 275 -476.3125 C 445.171875 -378.066406 550 -196.496094 550 0 " transform="matrix(1,0,0,-1,50,200)"/>
<path style="fill:none;stroke-width:1;stroke-linecap:butt;stroke-linejoin:miter;stroke:rgb(0%,0%,0%);stroke-opacity:0.5;stroke-miterlimit:10;" d="M 575 0 C 575 205.425781 465.40625 395.25 287.5 497.964844 C 109.59375 600.679688 -109.59375 600.679688 -287.5 497.964844 C -465.40625 395.25 -575 205.425781 -575 0 C -575 -205.425781 -465.40625 -395.25 -287.5 -497.964844 C -109.59375 -600.679688 109.59375 -600.679688 287.5 -497.964844 C 465.40625 -395.25 575 -205.425781 575 0 " transform="matrix(1,0,0,-1,50,200)"/>
<path style="fill:none;stroke-width:1;stroke-linecap:butt;stroke-linejoin:miter;stroke:rgb(0%,0%,0%);stroke-opacity:0.5;stroke-miterlimit:10;" d="M 625 0 C 625 223.289062 505.875 429.621094 312.5 541.265625 C 119.125 652.910156 -119.125 652.910156 -312.5 541.265625 C -505.875 429.621094 -625 223.289062 -625 0 C -625 -223.289062 -505.875 -429.621094 -312.5 -541.265625 C -119.125 -652.910156 119.125 -652.910156 312.5 -541.265625 C 505.875 -429.621094 625 -223.289062 625 0 " transform="matrix(1,0,0,-1,50,200)"/>
<path style="fill:none;stroke-width:1;stroke-linecap:butt;stroke-linejoin:miter;stroke:rgb(0%,0%,0%);stroke-opacity:0.5;stroke-miterlimit:10;" d="M 650 0 C 650 232.222656 526.109375 446.804688 325 562.917969 C 123.890625 679.027344 -123.890625 679.027344 -325 562.917969 C -526.109375 446.804688 -650 232.222656 -650 0 C -650 -232.222656 -526.109375 -446.804688 -325 -562.917969 C -123.890625 -679.027344 123.890625 -679.027344 325 -562.917969 C 526.109375 -446.804688 650 -232.222656 650 0 " transform="matrix(1,0,0,-1,50,200)"/>
<path style="fill:none;stroke-width:1;stroke-linecap:butt;stroke-linejoin:miter;stroke:rgb(0%,0%,0%);stroke-opacity:0.5;stroke-miterlimit:10;" d="M 675 0 C 675 241.152344 546.347656 463.988281 337.5 584.566406 C 128.652344 705.144531 -128.652344 705.144531 -337.5 584.566406 C -546.347656 463.988281 -675 241.152344 -675 0 C -675 -241.152344 -546.347656 -463.988281 -337.5 -584.566406 C -128.652344 -705.144531 128.652344 -705.144531 337.5 -584.566406 C 546.347656 -463.988281 675 -241.152344 675 0 " transform="matrix(1,0,0,-1,50,200)"/>
<path style="fill:none;stroke-width:1;stroke-linecap:butt;stroke-linejoin:miter;stroke:rgb(0%,0%,0%);stroke-opacity:0.5;stroke-miterlimit:10;" d="M 725 0 C 725 259.015625 586.816406 498.359375 362.5 627.867188 C 138.183594 757.378906 -138.183594 757.378906 -362.5 627.867188 C -586.816406 498.359375 -725 259.015625 -725 0 C -725 -259.015625 -586.816406 -498.359375 -362.5 -627.867188 C -138.183594 -757.378906 138.183594 -757.378906 362.5 -627.867188 C 586.816406 -498.359375 725 -259.015625 725 0 " transform="matrix(1,0,0,-1,50,200)"/>
<path style="fill:none;stroke-width:1;stroke-linecap:butt;stroke-linejoin:miter;stroke:rgb(0%,0%,0%);stroke-opacity:0.5;stroke-miterlimit:10;" d="M 750 0 C 750 267.949219 607.050781 515.542969 375 649.519531 C 142.949219 783.492188 -142.949219 783.492188 -375 649.519531 C -607.050781 515.542969 -750 267.949219 -750 0 C -750 -267.949219 -607.050781 -515.542969 -375 -649.519531 C -142.949219 -783.492188 142.949219 -783.492188 375 -649.519531 C 607.050781 -515.542969 750 -267.949219 750 0 " transform="matrix(1,0,0,-1,50,200)"/>
<path style="fill:none;stroke-width:1;stroke-linecap:butt;stroke-linejoin:miter;stroke:rgb(0%,0%,0%);stroke-opacity:0.5;stroke-miterlimit:10;" d="M 775 0 C 775 276.878906 627.285156 532.730469 387.5 671.167969 C 147.714844 809.609375 -147.714844 809.609375 -387.5 671.167969 C -627.285156 532.730469 -775 276.878906 -775 0 C -775 -276.878906 -627.285156 -532.730469 -387.5 -671.167969 C -147.714844 -809.609375 147.714844 -809.609375 387.5 -671.167969 C 627.285156 -532.730469 775 -276.878906 775 0 " transform="matrix(1,0,0,-1,50,200)"/>
<path style="fill:none;stroke-width:1;stroke-linecap:butt;stroke-linejoin:miter;stroke:rgb(0%,0%,0%);stroke-opacity:0.5;stroke-miterlimit:10;" d="M 825 0 C 825 294.742188 667.757812 567.097656 412.5 714.472656 C 157.242188 861.84375 -157.242188 861.84375 -412.5 714.472656 C -667.757812 567.097656 -825 294.742188 -825 0 C -825 -294.742188 -667.757812 -567.097656 -412.5 -714.472656 C -157.242188 -861.84375 157.242188 -861.84375 412.5 -714.472656 C 667.757812 -567.097656 825 -294.742188 825 0 " transform="matrix(1,0,0,-1,50,200)"/>
<path style="fill:none;stroke-width:1;stroke-linecap:butt;stroke-linejoin:miter;stroke:rgb(0%,0%,0%);stroke-opacity:0.5;stroke-miterlimit:10;" d="M 850 0 C 850 303.675781 687.992188 584.285156 425 736.121094 C 162.007812 887.960938 -162.007812 887.960938 -425 736.121094 C -687.992188 584.285156 -850 303.675781 -850 0 C -850 -303.675781 -687.992188 -584.285156 -425 -736.121094 C -162.007812 -887.960938 162.007812 -887.960938 425 -736.121094 C 687.992188 -584.285156 850 -303.675781 850 0 " transform="matrix(1,0,0,-1,50,200)"/>
<path style="fill:none;stroke-width:1;stroke-linecap:butt;stroke-linejoin:miter;stroke:rgb(0%,0%,0%);stroke-opacity:0.5;stroke-miterlimit:10;" d="M 875 0 C 875 312.605469 708.226562 601.46875 437.5 757.773438 C 166.773438 914.074219 -166.773438 914.074219 -437.5 757.773438 C -708.226562 601.46875 -875 312.605469 -875 0 C -875 -312.605469 -708.226562 -601.46875 -437.5 -757.773438 C -166.773438 -914.074219 166.773438 -914.074219 437.5 -757.773438 C 708.226562 -601.46875 875 -312.605469 875 0 " transform="matrix(1,0,0,-1,50,200)"/>
<path style="fill:none;stroke-width:1;stroke-linecap:butt;stroke-linejoin:miter;stroke:rgb(0%,0%,0%);stroke-opacity:0.5;stroke-miterlimit:10;" d="M 925 0 C 925 330.46875 748.695312 635.839844 462.5 801.074219 C 176.304688 966.308594 -176.304688 966.308594 -462.5 801.074219 C -748.695312 635.839844 -925 330.46875 -925 0 C -925 -330.46875 -748.695312 -635.839844 -462.5 -801.074219 C -176.304688 -966.308594 176.304688 -966.308594 462.5 -801.074219 C 748.695312 -635.839844 925 -330.46875 925 0 " transform="matrix(1,0,0,-1,50,200)"/>
<path style="fill:none;stroke-width:1;stroke-linecap:butt;stroke-linejoin:miter;stroke:rgb(0%,0%,0%);stroke-opacity:0.5;stroke-miterlimit:10;" d="M 950 0 C 950 339.402344 768.929688 653.023438 475 822.722656 C 181.070312 992.425781 -181.070312 992.425781 -475 822.722656 C -768.929688 653.023438 -950 339.402344 -950 0 C -950 -339.402344 -768.929688 -653.023438 -475 -822.722656 C -181.070312 -992.425781 181.070312 -992.425781 475 -822.722656 C 768.929688 -653.023438 950 -339.402344 950 0 " transform="matrix(1,0,0,-1,50,200)"/>
<path style="fill:none;stroke-width:1;stroke-linecap:butt;stroke-linejoin:miter;stroke:rgb(0%,0%,0%);stroke-opacity:0.5;stroke-miterlimit:10;" d="M 975 0 C 975 348.332031 789.167969 670.207031 487.5 844.375 C 185.832031 1018.542969 -185.832031 1018.542969 -487.5 844.375 C -789.167969 670.207031 -975 348.332031 -975 0 C -975 -348.332031 -789.167969 -670.207031 -487.5 -844.375 C -185.832031 -1018.542969 185.832031 -1018.542969 487.5 -844.375 C 789.167969 -670.207031 975 -348.332031 975 0 " transform="matrix(1,0,0,-1,50,200)"/>
<path style="fill:none;stroke-width:1;stroke-linecap:butt;stroke-linejoin:miter;stroke:rgb(0%,0%,0%);stroke-opacity:0.5;stroke-miterlimit:10;" d="M 0 0 L 965.925781 258.820312 " transform="matrix(1,0,0,-1,50,200)"/>
<path style="fill:none;stroke-width:1;stroke-linecap:butt;stroke-linejoin:miter;stroke:rgb(0%,0%,0%);stroke-opacity:0.5;stroke-miterlimit:10;" d="M 0 0 L 866.027344 500 " transform="matrix(1,0,0,-1,50,200)"/>
<path style="fill:none;stroke-width:1;stroke-linecap:butt;stroke-linejoin:miter;stroke:rgb(0%,0%,0%);stroke-opacity:0.5;stroke-miterlimit:10;" d="M 0 0 L 500 866.027344 " transform="matrix(1,0,0,-1,50,200)"/>
<path style="fill:none;stroke-width:1;stroke-linecap:butt;stroke-linejoin:miter;stroke:rgb(0%,0%,0%);stroke-opacity:0.5;stroke-miterlimit:10;" d="M 0 0 L 258.820312 965.925781 " transform="matrix(1,0,0,-1,50,200)"/>
<path style="fill:none;stroke-width:1;stroke-linecap:butt;stroke-linejoin:miter;stroke:rgb(0%,0%,0%);stroke-opacity:0.5;stroke-miterlimit:10;" d="M 0 0 L -258.820312 965.925781 " transform="matrix(1,0,0,-1,50,200)"/>
<path style="fill:none;stroke-width:1;stroke-linecap:butt;stroke-linejoin:miter;stroke:rgb(0%,0%,0%);stroke-opacity:0.5;stroke-miterlimit:10;" d="M 0 0 L -500 866.027344 " transform="matrix(1,0,0,-1,50,200)"/>
<path style="fill:none;stroke-width:1;stroke-linecap:butt;stroke-linejoin:miter;stroke:rgb(0%,0%,0%);stroke-opacity:0.5;stroke-miterlimit:10;" d="M 0 0 L -866.027344 500 " transform="matrix(1,0,0,-1,50,200)"/>
<path style="fill:none;stroke-width:1;stroke-linecap:butt;stroke-linejoin:miter;stroke:rgb(0%,0%,0%);stroke-opacity:0.5;stroke-miterlimit:10;" d="M 0 0 L -965.925781 258.820312 " transform="matrix(1,0,0,-1,50,200)"/>
<path style="fill:none;stroke-width:1;stroke-linecap:butt;stroke-linejoin:miter;stroke:rgb(0%,0%,0%);stroke-opacity:0.5;stroke-miterlimit:10;" d="M 0 0 L -965.925781 -258.820312 " transform="matrix(1,0,0,-1,50,200)"/>
<path style="fill:none;stroke-width:1;stroke-linecap:butt;stroke-linejoin:miter;stroke:rgb(0%,0%,0%);stroke-opacity:0.5;stroke-miterlimit:10;" d="M 0 0 L -866.027344 -500 " transform="matrix(1,0,0,-1,50,200)"/>
<path style="fill:none;stroke-width:1;stroke-linecap:butt;stroke-linejoin:miter;stroke:rgb(0%,0%,0%);stroke-opacity:0.5;stroke-miterlimit:10;" d="M 0 0 L -500 -866.027344 " transform="matrix(1,0,0,-1,50,200)"/>
<path style="fill:none;stroke-width:1;stroke-linecap:butt;stroke-linejoin:miter;stroke:rgb(0%,0%,0%);stroke-opacity:0.5;stroke-miterlimit:10;" d="M 0 0 L -258.820312 -965.925781 " transform="matrix(1,0,0,-1,50,200)"/>
<path style="fill:none;stroke-width:1;stroke-linecap:butt;stroke-linejoin:miter;stroke:rgb(0%,0%,0%);stroke-opacity:0.5;stroke-miterlimit:10;" d="M 0 0 L 258.820312 -965.925781 " transform="matrix(1,0,0,-1,50,200)"/>
<path style="fill:none;stroke-width:1;stroke-linecap:butt;stroke-linejoin:miter;stroke:rgb(0%,0%,0%);stroke-opacity:0.5;stroke-miterlimit:10;" d="M 0 0 L 500 -866.027344 " transform="matrix(1,0,0,-1,50,200)"/>
<path style="fill:none;stroke-width:1;stroke-linecap:butt;stroke-linejoin:miter;stroke:rgb(0%,0%,0%);stroke-opacity:0.5;stroke-miterlimit:10;" d="M 0 0 L 866.027344 -500 " transform="matrix(1,0,0,-1,50,200)"/>
<path style="fill:none;stroke-width:1;stroke-linecap:butt;stroke-linejoin:miter;stroke:rgb(0%,0%,0%);stroke-opacity:0.5;stroke-miterlimit:10;" d="M 0 0 L 965.925781 -258.820312 " transform="matrix(1,0,0,-1,50,200)"/>
</g>
</svg>
