<?xml version="1.0" encoding="UTF-8"?>
<svg xmlns="http://www.w3.org/2000/svg" xmlns:xlink="http://www.w3.org/1999/xlink" width="300pt" height="200pt" viewBox="0 0 300 200" version="1.1">
<defs>
<filter id="alpha" filterUnits="objectBoundingBox" x="0%" y="0%" width="100%" height="100%">
  <feColorMatrix type="matrix" in="SourceGraphic" values="0 0 0 0 1 0 0 0 0 1 0 0 0 0 1 0 0 0 1 0"/>
</filter>
<mask id="id1">
  <g filter="url(#alpha)">
<rect x="0" y="0" width="300" height="200" style="fill:rgb(0%,0%,0%);fill-opacity:0.5;stroke:none;"/>
  </g>
</mask>
<clipPath id="id2">
  <rect x="0" y="0" width="300" height="200"/>
</clipPath>
<g id="id3" clip-path="url(#id2)">
<path style="fill:none;stroke-width:1;stroke-linecap:butt;stroke-linejoin:miter;stroke:rgb(0%,0%,0%);stroke-opacity:0.2;stroke-dasharray:4,6;stroke-dashoffset:2;stroke-miterlimit:10;" d="M -1000 -1000 L -1000 1000 M -990 -1000 L -990 1000 M -980 -1000 L -980 1000 M -970 -1000 L -970 1000 M -960 -1000 L -960 1000 M -950 -1000 L -950 1000 M -940 -1000 L -940 1000 M -930 -1000 L -930 1000 M -920 -1000 L -920 1000 M -910 -1000 L -910 1000 M -900 -1000 L -900 1000 M -890 -1000 L -890 1000 M -880 -1000 L -880 1000 M -870 -1000 L -870 1000 M -860 -1000 L -860 1000 M -850 -1000 L -850 1000 M -840 -1000 L -840 1000 M -830 -1000 L -830 1000 M -820 -1000 L -820 1000 M -810 -1000 L -810 1000 M -800 -1000 L -800 1000 M -790 -1000 L -790 1000 M -780 -1000 L -780 1000 M -770 -1000 L -770 1000 M -760 -1000 L -760 1000 M -750 -1000 L -750 1000 M -740 -1000 L -740 1000 M -730 -1000 L -730 1000 M -720 -1000 L -720 1000 M -710 -1000 L -710 1000 M -700 -1000 L -700 1000 M -690 -1000 L -690 1000 M -680 -1000 L -680 1000 M -670 -1000 L -670 1000 M -660 -1000 L -660 1000 M -650 -1000 L -650 1000 M -640 -1000 L -640 1000 M -630 -1000 L -630 1000 M -620 -1000 L -620 1000 M -610 -1000 L -610 1000 M -600 -1000 L -600 1000 M -590 -1000 L -590 1000 M -580 -1000 L -580 1000 M -570 -1000 L -570 1000 M -560 -1000 L -560 1000 M -550 -1000 L -550 1000 M -540 -1000 L -540 1000 M -530 -1000 L -530 1000 M -520 -1000 L -520 1000 M -510 -1000 L -510 1000 M -500 -1000 L -500 1000 M -490 -1000 L -490 1000 M -480 -1000 L -480 1000 M -470 -1000 L -470 1000 M -460 -1000 L -460 1000 M -450 -1000 L -450 1000 M -440 -1000 L -440 1000 M -430 -1000 L -430 1000 M -420 -1000 L -420 1000 M -410 -1000 L -410 1000 M -400 -1000 L -400 1000 M -390 -1000 L -390 1000 M -380 -1000 L -380 1000 M -370 -1000 L -370 1000 M -360 -1000 L -360 1000 M -350 -1000 L -350 1000 M -340 -1000 L -340 1000 M -330 -1000 L -330 1000 M -320 -1000 L -320 1000 M -310 -1000 L -310 1000 M -300 -1000 L -300 1000 M -290 -1000 L -290 1000 M -280 -1000 L -280 1000 M -270 -1000 L -270 1000 M -260 -1000 L -260 1000 M -250 -1000 L -250 1000 M -240 -1000 L -240 1000 M -230 -1000 L -230 1000 M -220 -1000 L -220 1000 M -210 -1000 L -210 1000 M -200 -1000 L -200 1000 M -190 -1000 L -190 1000 M -180 -1000 L -180 1000 M -170 -1000 L -170 1000 M -160 -1000 L -160 1000 M -150 -1000 L -150 1000 M -140 -1000 L -140 1000 M -130 -1000 L -130 1000 M -120 -1000 L -120 1000 M -110 -1000 L -110 1000 M -100 -1000 L -100 1000 M -90 -1000 L -90 1000 M -80 -1000 L -80 1000 M -70 -1000 L -70 1000 M -60 -1000 L -60 1000 M -50 -1000 L -50 1000 M -40 -1000 L -40 1000 M -30 -1000 L -30 1000 M -20 -1000 L -20 1000 M -10 -1000 L -10 1000 M 0 -1000 L 0 1000 M 10 -1000 L 10 1000 M 20 -1000 L 20 1000 M 30 -1000 L 30 1000 M 40 -1000 L 40 1000 M 50 -1000 L 50 1000 M 60 -1000 L 60 1000 M 70 -1000 L 70 1000 M 80 -1000 L 80 1000 M 90 -1000 L 90 1000 M 100 -1000 L 100 1000 M 110 -1000 L 110 1000 M 120 -1000 L 120 1000 M 130 -1000 L 130 1000 M 140 -1000 L 140 1000 M 150 -1000 L 150 1000 M 160 -1000 L 160 1000 M 170 -1000 L 170 1000 M 180 -1000 L 180 1000 M 190 -1000 L 190 1000 M 200 -1000 L 200 1000 M 210 -1000 L 210 1000 M 220 -1000 L 220 1000 M 230 -1000 L 230 1000 M 240 -1000 L 240 1000 M 250 -1000 L 250 1000 M 260 -1000 L 260 1000 M 270 -1000 L 270 1000 M 280 -1000 L 280 1000 M 290 -1000 L 290 1000 M 300 -1000 L 300 1000 M 310 -1000 L 310 1000 M 320 -1000 L 320 1000 M 330 -1000 L 330 1000 M 340 -1000 L 340 1000 M 350 -1000 L 350 1000 M 360 -1000 L 360 1000 M 370 -1000 L 370 1000 M 380 -1000 L 380 1000 M 390 -1000 L 390 1000 M 400 -1000 L 400 1000 M 410 -1000 L 410 1000 M 420 -1000 L 420 1000 M 430 -1000 L 430 1000 M 440 -1000 L 440 1000 M 450 -1000 L 450 1000 M 460 -1000 L 460 1000 M 470 -1000 L 470 1000 M 480 -1000 L 480 1000 M 490 -1000 L 490 1000 M 500 -1000 L 500 1000 M 510 -1000 L 510 1000 M 520 -1000 L 520 1000 M 530 -1000 L 530 1000 M 540 -1000 L 540 1000 M 550 -1000 L 550 1000 M 560 -1000 L 560 1000 M 570 -1000 L 570 1000 M 580 -1000 L 580 1000 M 590 -1000 L 590 1000 M 600 -1000 L 600 1000 M 610 -1000 L 610 1000 M 620 -1000 L 620 1000 M 630 -1000 L 630 1000 M 640 -1000 L 640 1000 M 650 -1000 L 650 1000 M 660 -1000 L 660 1000 M 670 -1000 L 670 1000 M 680 -1000 L 680 1000 M 690 -1000 L 690 1000 M 700 -1000 L 700 1000 M 710 -1000 L 710 1000 M 720 -1000 L 720 1000 M 730 -1000 L 730 1000 M 740 -1000 L 740 1000 M 750 -1000 L 750 1000 M 760 -1000 L 760 1000 M 770 -1000 L 770 1000 M 780 -1000 L 780 1000 M 790 -1000 L 790 1000 M 800 -1000 L 800 1000 M 810 -1000 L 810 1000 M 820 -1000 L 820 1000 M 830 -1000 L 830 1000 M 840 -1000 L 840 1000 M 850 -1000 L 850 1000 M 860 -1000 L 860 1000 M 870 -1000 L 870 1000 M 880 -1000 L 880 1000 M 890 -1000 L 890 1000 M 900 -1000 L 900 1000 M 910 -1000 L 910 1000 M 920 -1000 L 920 1000 M 930 -1000 L 930 1000 M 940 -1000 L 940 1000 M 950 -1000 L 950 1000 M 960 -1000 L 960 1000 M 970 -1000 L 970 1000 M 980 -1000 L 980 1000 M 990 -1000 L 990 1000 M 1000 -1000 L 1000 1000 M -1000 -1000 L 1000 -1000 M -1000 -990 L 1000 -990 M -1000 -980 L 1000 -980 M -1000 -970 L 1000 -970 M -1000 -960 L 1000 -960 M -1000 -950 L 1000 -950 M -1000 -940 L 1000 -940 M -1000 -930 L 1000 -930 M -1000 -920 L 1000 -920 M -1000 -910 L 1000 -910 M -1000 -900 L 1000 -900 M -1000 -890 L 1000 -890 M -1000 -880 L 1000 -880 M -1000 -870 L 1000 -870 M -1000 -860 L 1000 -860 M -1000 -850 L 1000 -850 M -1000 -840 L 1000 -840 M -1000 -830 L 1000 -830 M -1000 -820 L 1000 -820 M -1000 -810 L 1000 -810 M -1000 -800 L 1000 -800 M -1000 -790 L 1000 -790 M -1000 -780 L 1000 -780 M -1000 -770 L 1000 -770 M -1000 -760 L 1000 -760 M -1000 -750 L 1000 -750 M -1000 -740 L 1000 -740 M -1000 -730 L 1000 -730 M -1000 -720 L 1000 -720 M -1000 -710 L 1000 -710 M -1000 -700 L 1000 -700 M -1000 -690 L 1000 -690 M -1000 -680 L 1000 -680 M -1000 -670 L 1000 -670 M -1000 -660 L 1000 -660 M -1000 -650 L 1000 -650 M -1000 -640 L 1000 -640 M -1000 -630 L 1000 -630 M -1000 -620 L 1000 -620 M -1000 -610 L 1000 -610 M -1000 -600 L 1000 -600 M -1000 -590 L 1000 -590 M -1000 -580 L 1000 -580 M -1000 -570 L 1000 -570 M -1000 -560 L 1000 -560 M -1000 -550 L 1000 -550 M -1000 -540 L 1000 -540 M -1000 -530 L 1000 -530 M -1000 -520 L 1000 -520 M -1000 -510 L 1000 -510 M -1000 -500 L 1000 -500 M -1000 -490 L 1000 -490 M -1000 -480 L 1000 -480 M -1000 -470 L 1000 -470 M -1000 -460 L 1000 -460 M -1000 -450 L 1000 -450 M -1000 -440 L 1000 -440 M -1000 -430 L 1000 -430 M -1000 -420 L 1000 -420 M -1000 -410 L 1000 -410 M -1000 -400 L 1000 -400 M -1000 -390 L 1000 -390 M -1000 -380 L 1000 -380 M -1000 -370 L 1000 -370 M -1000 -360 L 1000 -360 M -1000 -350 L 1000 -350 M -1000 -340 L 1000 -340 M -1000 -330 L 1000 -330 M -1000 -320 L 1000 -320 M -1000 -310 L 1000 -310 M -1000 -300 L 1000 -300 M -1000 -290 L 1000 -290 M -1000 -280 L 1000 -280 M -1000 -270 L 1000 -270 M -1000 -260 L 1000 -260 M -1000 -250 L 1000 -250 M -1000 -240 L 1000 -240 M -1000 -230 L 1000 -230 M -1000 -220 L 1000 -220 M -1000 -210 L 1000 -210 M -1000 -200 L 1000 -200 M -1000 -190 L 1000 -190 M -1000 -180 L 1000 -180 M -1000 -170 L 1000 -170 M -1000 -160 L 1000 -160 M -1000 -150 L 1000 -150 M -1000 -140 L 1000 -140 M -1000 -130 L 1000 -130 M -1000 -120 L 1000 -120 M -1000 -110 L 1000 -110 M -1000 -100 L 1000 -100 M -1000 -90 L 1000 -90 M -1000 -80 L 1000 -80 M -1000 -70 L 1000 -70 M -1000 -60 L 1000 -60 M -1000 -50 L 1000 -50 M -1000 -40 L 1000 -40 M -1000 -30 L 1000 -30 M -1000 -20 L 1000 -20 M -1000 -10 L 1000 -10 M -1000 0 L 1000 0 M -1000 10 L 1000 10 M -1000 20 L 1000 20 M -1000 30 L 1000 30 M -1000 40 L 1000 40 M -1000 50 L 1000 50 M -1000 60 L 1000 60 M -1000 70 L 1000 70 M -1000 80 L 1000 80 M -1000 90 L 1000 90 M -1000 100 L 1000 100 M -1000 110 L 1000 110 M -1000 120 L 1000 120 M -1000 130 L 1000 130 M -1000 140 L 1000 140 M -1000 150 L 1000 150 M -1000 160 L 1000 160 M -1000 170 L 1000 170 M -1000 180 L 1000 180 M -1000 190 L 1000 190 M -1000 200 L 1000 200 M -1000 210 L 1000 210 M -1000 220 L 1000 220 M -1000 230 L 1000 230 M -1000 240 L 1000 240 M -1000 250 L 1000 250 M -1000 260 L 1000 260 M -1000 270 L 1000 270 M -1000 280 L 1000 280 M -1000 290 L 1000 290 M -1000 300 L 1000 300 M -1000 310 L 1000 310 M -1000 320 L 1000 320 M -1000 330 L 1000 330 M -1000 340 L 1000 340 M -1000 350 L 1000 350 M -1000 360 L 1000 360 M -1000 370 L 1000 370 M -1000 380 L 1000 380 M -1000 390 L 1000 390 M -1000 400 L 1000 400 M -1000 410 L 1000 410 M -1000 420 L 1000 420 M -1000 430 L 1000 430 M -1000 440 L 1000 440 M -1000 450 L 1000 450 M -1000 460 L 1000 460 M -1000 470 L 1000 470 M -1000 480 L 1000 480 M -1000 490 L 1000 490 M -1000 500 L 1000 500 M -1000 510 L 1000 510 M -1000 520 L 1000 520 M -1000 530 L 1000 530 M -1000 540 L 1000 540 M -1000 550 L 1000 550 M -1000 560 L 1000 560 M -1000 570 L 1000 570 M -1000 580 L 1000 580 M -1000 590 L 1000 590 M -1000 600 L 1000 600 M -1000 610 L 1000 610 M -1000 620 L 1000 620 M -1000 630 L 1000 630 M -1000 640 L 1000 640 M -1000 650 L 1000 650 M -1000 660 L 1000 660 M -1000 670 L 1000 670 M -1000 680 L 1000 680 M -1000 690 L 1000 690 M -1000 700 L 1000 700 M -1000 710 L 1000 710 M -1000 720 L 1000 720 M -1000 730 L 1000 730 M -1000 740 L 1000 740 M -1000 750 L 1000 750 M -1000 760 L 1000 760 M -1000 770 L 1000 770 M -1000 780 L 1000 780 M -1000 790 L 1000 790 M -1000 800 L 1000 800 M -1000 810 L 1000 810 M -1000 820 L 1000 820 M -1000 830 L 1000 830 M -1000 840 L 1000 840 M -1000 850 L 1000 850 M -1000 860 L 1000 860 M -1000 870 L 1000 870 M -1000 880 L 1000 880 M -1000 890 L 1000 890 M -1000 900 L 1000 900 M -1000 910 L 1000 910 M -1000 920 L 1000 920 M -1000 930 L 1000 930 M -1000 940 L 1000 940 M -1000 950 L 1000 950 M -1000 960 L 1000 960 M -1000 970 L 1000 970 M -1000 980 L 1000 980 M -1000 990 L 1000 990 M -1000 1000 L 1000 1000 " transform="matrix(1,0,0,-1,0,200)"/>
</g>
</defs>
<g id="id4">
<use xlink:href="#id3" mask="url(#id1)"/>
<path style="fill:none;stroke-width:2;stroke-linecap:butt;stroke-linejoin:bevel;stroke:rgb(36.8417%,50.6779%,70.9798%);stroke-opacity:1;stroke-miterlimit:10;" d="M 283.726562 144.90625 L 275.910156 100.453125 L 282.945312 56.546875 Z M 283.726562 144.90625 " transform="matrix(1,0,0,-1,0,200)"/>
<path style=" stroke:none;fill-rule:nonzero;fill:rgb(88.0722%,61.1041%,14.2051%);fill-opacity:1;" d="M 286.726562 55.09375 C 286.726562 51.09375 280.726562 51.09375 280.726562 55.09375 C 280.726562 59.09375 286.726562 59.09375 286.726562 55.09375 "/>
<path style=" stroke:none;fill-rule:nonzero;fill:rgb(88.0722%,61.1041%,14.2051%);fill-opacity:1;" d="M 278.910156 99.546875 C 278.910156 95.546875 272.910156 95.546875 272.910156 99.546875 C 272.910156 103.546875 278.910156 103.546875 278.910156 99.546875 "/>
<path style=" stroke:none;fill-rule:nonzero;fill:rgb(88.0722%,61.1041%,14.2051%);fill-opacity:1;" d="M 285.945312 143.453125 C 285.945312 139.453125 279.945312 139.453125 279.945312 143.453125 C 279.945312 147.453125 285.945312 147.453125 285.945312 143.453125 "/>
<path style="fill:none;stroke-width:2;stroke-linecap:butt;stroke-linejoin:bevel;stroke:rgb(36.8417%,50.6779%,70.9798%);stroke-opacity:1;stroke-miterlimit:10;" d="M 275.910156 100.453125 L 241.378906 138.320312 L 233.675781 92.023438 Z M 275.910156 100.453125 " transform="matrix(1,0,0,-1,0,200)"/>
<path style=" stroke:none;fill-rule:nonzero;fill:rgb(88.0722%,61.1041%,14.2051%);fill-opacity:1;" d="M 278.910156 99.546875 C 278.910156 95.546875 272.910156 95.546875 272.910156 99.546875 C 272.910156 103.546875 278.910156 103.546875 278.910156 99.546875 "/>
<path style=" stroke:none;fill-rule:nonzero;fill:rgb(88.0722%,61.1041%,14.2051%);fill-opacity:1;" d="M 244.378906 61.679688 C 244.378906 57.679688 238.378906 57.679688 238.378906 61.679688 C 238.378906 65.679688 244.378906 65.679688 244.378906 61.679688 "/>
<path style=" stroke:none;fill-rule:nonzero;fill:rgb(88.0722%,61.1041%,14.2051%);fill-opacity:1;" d="M 236.675781 107.976562 C 236.675781 103.976562 230.675781 103.976562 230.675781 107.976562 C 230.675781 111.976562 236.675781 111.976562 236.675781 107.976562 "/>
<path style="fill:none;stroke-width:2;stroke-linecap:butt;stroke-linejoin:bevel;stroke:rgb(36.8417%,50.6779%,70.9798%);stroke-opacity:1;stroke-miterlimit:10;" d="M 283.726562 144.90625 L 265.804688 182.777344 L 241.378906 138.320312 Z M 283.726562 144.90625 " transform="matrix(1,0,0,-1,0,200)"/>
<path style=" stroke:none;fill-rule:nonzero;fill:rgb(88.0722%,61.1041%,14.2051%);fill-opacity:1;" d="M 286.726562 55.09375 C 286.726562 51.09375 280.726562 51.09375 280.726562 55.09375 C 280.726562 59.09375 286.726562 59.09375 286.726562 55.09375 "/>
<path style=" stroke:none;fill-rule:nonzero;fill:rgb(88.0722%,61.1041%,14.2051%);fill-opacity:1;" d="M 268.804688 17.222656 C 268.804688 13.222656 262.804688 13.222656 262.804688 17.222656 C 262.804688 21.222656 268.804688 21.222656 268.804688 17.222656 "/>
<path style=" stroke:none;fill-rule:nonzero;fill:rgb(88.0722%,61.1041%,14.2051%);fill-opacity:1;" d="M 244.378906 61.679688 C 244.378906 57.679688 238.378906 57.679688 238.378906 61.679688 C 238.378906 65.679688 244.378906 65.679688 244.378906 61.679688 "/>
<path style="fill:none;stroke-width:2;stroke-linecap:butt;stroke-linejoin:bevel;stroke:rgb(36.8417%,50.6779%,70.9798%);stroke-opacity:1;stroke-miterlimit:10;" d="M 265.804688 182.777344 L 212.546875 170.972656 L 241.378906 138.320312 Z M 265.804688 182.777344 " transform="matrix(1,0,0,-1,0,200)"/>
<path style=" stroke:none;fill-rule:nonzero;fill:rgb(88.0722%,61.1041%,14.2051%);fill-opacity:1;" d="M 268.804688 17.222656 C 268.804688 13.222656 262.804688 13.222656 262.804688 17.222656 C 262.804688 21.222656 268.804688 21.222656 268.804688 17.222656 "/>
<path style=" stroke:none;fill-rule:nonzero;fill:rgb(88.0722%,61.1041%,14.2051%);fill-opacity:1;" d="M 215.546875 29.027344 C 215.546875 25.027344 209.546875 25.027344 209.546875 29.027344 C 209.546875 33.027344 215.546875 33.027344 215.546875 29.027344 "/>
<path style=" stroke:none;fill-rule:nonzero;fill:rgb(88.0722%,61.1041%,14.2051%);fill-opacity:1;" d="M 244.378906 61.679688 C 244.378906 57.679688 238.378906 57.679688 238.378906 61.679688 C 238.378906 65.679688 244.378906 65.679688 244.378906 61.679688 "/>
<path style="fill:none;stroke-width:2;stroke-linecap:butt;stroke-linejoin:bevel;stroke:rgb(36.8417%,50.6779%,70.9798%);stroke-opacity:1;stroke-miterlimit:10;" d="M 282.945312 56.546875 L 275.910156 100.453125 L 241.777344 51.476562 Z M 282.945312 56.546875 " transform="matrix(1,0,0,-1,0,200)"/>
<path style=" stroke:none;fill-rule:nonzero;fill:rgb(88.0722%,61.1041%,14.2051%);fill-opacity:1;" d="M 285.945312 143.453125 C 285.945312 139.453125 279.945312 139.453125 279.945312 143.453125 C 279.945312 147.453125 285.945312 147.453125 285.945312 143.453125 "/>
<path style=" stroke:none;fill-rule:nonzero;fill:rgb(88.0722%,61.1041%,14.2051%);fill-opacity:1;" d="M 278.910156 99.546875 C 278.910156 95.546875 272.910156 95.546875 272.910156 99.546875 C 272.910156 103.546875 278.910156 103.546875 278.910156 99.546875 "/>
<path style=" stroke:none;fill-rule:nonzero;fill:rgb(88.0722%,61.1041%,14.2051%);fill-opacity:1;" d="M 244.777344 148.523438 C 244.777344 144.523438 238.777344 144.523438 238.777344 148.523438 C 238.777344 152.523438 244.777344 152.523438 244.777344 148.523438 "/>
<path style="fill:none;stroke-width:2;stroke-linecap:butt;stroke-linejoin:bevel;stroke:rgb(36.8417%,50.6779%,70.9798%);stroke-opacity:1;stroke-miterlimit:10;" d="M 283.726562 144.90625 L 241.378906 138.320312 L 275.910156 100.453125 Z M 283.726562 144.90625 " transform="matrix(1,0,0,-1,0,200)"/>
<path style=" stroke:none;fill-rule:nonzero;fill:rgb(88.0722%,61.1041%,14.2051%);fill-opacity:1;" d="M 286.726562 55.09375 C 286.726562 51.09375 280.726562 51.09375 280.726562 55.09375 C 280.726562 59.09375 286.726562 59.09375 286.726562 55.09375 "/>
<path style=" stroke:none;fill-rule:nonzero;fill:rgb(88.0722%,61.1041%,14.2051%);fill-opacity:1;" d="M 244.378906 61.679688 C 244.378906 57.679688 238.378906 57.679688 238.378906 61.679688 C 238.378906 65.679688 244.378906 65.679688 244.378906 61.679688 "/>
<path style=" stroke:none;fill-rule:nonzero;fill:rgb(88.0722%,61.1041%,14.2051%);fill-opacity:1;" d="M 278.910156 99.546875 C 278.910156 95.546875 272.910156 95.546875 272.910156 99.546875 C 272.910156 103.546875 278.910156 103.546875 278.910156 99.546875 "/>
<path style="fill:none;stroke-width:2;stroke-linecap:butt;stroke-linejoin:bevel;stroke:rgb(36.8417%,50.6779%,70.9798%);stroke-opacity:1;stroke-miterlimit:10;" d="M 282.945312 56.546875 L 241.777344 51.476562 L 272.152344 16.867188 Z M 282.945312 56.546875 " transform="matrix(1,0,0,-1,0,200)"/>
<path style=" stroke:none;fill-rule:nonzero;fill:rgb(88.0722%,61.1041%,14.2051%);fill-opacity:1;" d="M 285.945312 143.453125 C 285.945312 139.453125 279.945312 139.453125 279.945312 143.453125 C 279.945312 147.453125 285.945312 147.453125 285.945312 143.453125 "/>
<path style=" stroke:none;fill-rule:nonzero;fill:rgb(88.0722%,61.1041%,14.2051%);fill-opacity:1;" d="M 244.777344 148.523438 C 244.777344 144.523438 238.777344 144.523438 238.777344 148.523438 C 238.777344 152.523438 244.777344 152.523438 244.777344 148.523438 "/>
<path style=" stroke:none;fill-rule:nonzero;fill:rgb(88.0722%,61.1041%,14.2051%);fill-opacity:1;" d="M 275.152344 183.132812 C 275.152344 179.132812 269.152344 179.132812 269.152344 183.132812 C 269.152344 187.132812 275.152344 187.132812 275.152344 183.132812 "/>
<path style="fill:none;stroke-width:2;stroke-linecap:butt;stroke-linejoin:bevel;stroke:rgb(36.8417%,50.6779%,70.9798%);stroke-opacity:1;stroke-miterlimit:10;" d="M 272.152344 16.867188 L 241.777344 51.476562 L 219.09375 18.175781 Z M 272.152344 16.867188 " transform="matrix(1,0,0,-1,0,200)"/>
<path style=" stroke:none;fill-rule:nonzero;fill:rgb(88.0722%,61.1041%,14.2051%);fill-opacity:1;" d="M 275.152344 183.132812 C 275.152344 179.132812 269.152344 179.132812 269.152344 183.132812 C 269.152344 187.132812 275.152344 187.132812 275.152344 183.132812 "/>
<path style=" stroke:none;fill-rule:nonzero;fill:rgb(88.0722%,61.1041%,14.2051%);fill-opacity:1;" d="M 244.777344 148.523438 C 244.777344 144.523438 238.777344 144.523438 238.777344 148.523438 C 238.777344 152.523438 244.777344 152.523438 244.777344 148.523438 "/>
<path style=" stroke:none;fill-rule:nonzero;fill:rgb(88.0722%,61.1041%,14.2051%);fill-opacity:1;" d="M 222.09375 181.824219 C 222.09375 177.824219 216.09375 177.824219 216.09375 181.824219 C 216.09375 185.824219 222.09375 185.824219 222.09375 181.824219 "/>
<path style="fill:none;stroke-width:2;stroke-linecap:butt;stroke-linejoin:bevel;stroke:rgb(36.8417%,50.6779%,70.9798%);stroke-opacity:1;stroke-miterlimit:10;" d="M 275.910156 100.453125 L 233.675781 92.023438 L 241.777344 51.476562 Z M 275.910156 100.453125 " transform="matrix(1,0,0,-1,0,200)"/>
<path style=" stroke:none;fill-rule:nonzero;fill:rgb(88.0722%,61.1041%,14.2051%);fill-opacity:1;" d="M 278.910156 99.546875 C 278.910156 95.546875 272.910156 95.546875 272.910156 99.546875 C 272.910156 103.546875 278.910156 103.546875 278.910156 99.546875 "/>
<path style=" stroke:none;fill-rule:nonzero;fill:rgb(88.0722%,61.1041%,14.2051%);fill-opacity:1;" d="M 236.675781 107.976562 C 236.675781 103.976562 230.675781 103.976562 230.675781 107.976562 C 230.675781 111.976562 236.675781 111.976562 236.675781 107.976562 "/>
<path style=" stroke:none;fill-rule:nonzero;fill:rgb(88.0722%,61.1041%,14.2051%);fill-opacity:1;" d="M 244.777344 148.523438 C 244.777344 144.523438 238.777344 144.523438 238.777344 148.523438 C 238.777344 152.523438 244.777344 152.523438 244.777344 148.523438 "/>
<path style="fill:none;stroke-width:2;stroke-linecap:butt;stroke-linejoin:bevel;stroke:rgb(36.8417%,50.6779%,70.9798%);stroke-opacity:1;stroke-miterlimit:10;" d="M 241.777344 51.476562 L 233.675781 92.023438 L 190.691406 52.671875 Z M 241.777344 51.476562 " transform="matrix(1,0,0,-1,0,200)"/>
<path style=" stroke:none;fill-rule:nonzero;fill:rgb(88.0722%,61.1041%,14.2051%);fill-opacity:1;" d="M 244.777344 148.523438 C 244.777344 144.523438 238.777344 144.523438 238.777344 148.523438 C 238.777344 152.523438 244.777344 152.523438 244.777344 148.523438 "/>
<path style=" stroke:none;fill-rule:nonzero;fill:rgb(88.0722%,61.1041%,14.2051%);fill-opacity:1;" d="M 236.675781 107.976562 C 236.675781 103.976562 230.675781 103.976562 230.675781 107.976562 C 230.675781 111.976562 236.675781 111.976562 236.675781 107.976562 "/>
<path style=" stroke:none;fill-rule:nonzero;fill:rgb(88.0722%,61.1041%,14.2051%);fill-opacity:1;" d="M 193.691406 147.328125 C 193.691406 143.328125 187.691406 143.328125 187.691406 147.328125 C 187.691406 151.328125 193.691406 151.328125 193.691406 147.328125 "/>
<path style="fill:none;stroke-width:2;stroke-linecap:butt;stroke-linejoin:bevel;stroke:rgb(36.8417%,50.6779%,70.9798%);stroke-opacity:1;stroke-miterlimit:10;" d="M 241.777344 51.476562 L 190.691406 52.671875 L 219.09375 18.175781 Z M 241.777344 51.476562 " transform="matrix(1,0,0,-1,0,200)"/>
<path style=" stroke:none;fill-rule:nonzero;fill:rgb(88.0722%,61.1041%,14.2051%);fill-opacity:1;" d="M 244.777344 148.523438 C 244.777344 144.523438 238.777344 144.523438 238.777344 148.523438 C 238.777344 152.523438 244.777344 152.523438 244.777344 148.523438 "/>
<path style=" stroke:none;fill-rule:nonzero;fill:rgb(88.0722%,61.1041%,14.2051%);fill-opacity:1;" d="M 193.691406 147.328125 C 193.691406 143.328125 187.691406 143.328125 187.691406 147.328125 C 187.691406 151.328125 193.691406 151.328125 193.691406 147.328125 "/>
<path style=" stroke:none;fill-rule:nonzero;fill:rgb(88.0722%,61.1041%,14.2051%);fill-opacity:1;" d="M 222.09375 181.824219 C 222.09375 177.824219 216.09375 177.824219 216.09375 181.824219 C 216.09375 185.824219 222.09375 185.824219 222.09375 181.824219 "/>
<path style="fill:none;stroke-width:2;stroke-linecap:butt;stroke-linejoin:bevel;stroke:rgb(36.8417%,50.6779%,70.9798%);stroke-opacity:1;stroke-miterlimit:10;" d="M 219.09375 18.175781 L 190.691406 52.671875 L 171.1875 19.5 Z M 219.09375 18.175781 " transform="matrix(1,0,0,-1,0,200)"/>
<path style=" stroke:none;fill-rule:nonzero;fill:rgb(88.0722%,61.1041%,14.2051%);fill-opacity:1;" d="M 222.09375 181.824219 C 222.09375 177.824219 216.09375 177.824219 216.09375 181.824219 C 216.09375 185.824219 222.09375 185.824219 222.09375 181.824219 "/>
<path style=" stroke:none;fill-rule:nonzero;fill:rgb(88.0722%,61.1041%,14.2051%);fill-opacity:1;" d="M 193.691406 147.328125 C 193.691406 143.328125 187.691406 143.328125 187.691406 147.328125 C 187.691406 151.328125 193.691406 151.328125 193.691406 147.328125 "/>
<path style=" stroke:none;fill-rule:nonzero;fill:rgb(88.0722%,61.1041%,14.2051%);fill-opacity:1;" d="M 174.1875 180.5 C 174.1875 176.5 168.1875 176.5 168.1875 180.5 C 168.1875 184.5 174.1875 184.5 174.1875 180.5 "/>
<path style="fill:none;stroke-width:2;stroke-linecap:butt;stroke-linejoin:bevel;stroke:rgb(36.8417%,50.6779%,70.9798%);stroke-opacity:1;stroke-miterlimit:10;" d="M 265.804688 182.777344 L 172.417969 181.898438 L 212.546875 170.972656 Z M 265.804688 182.777344 " transform="matrix(1,0,0,-1,0,200)"/>
<path style=" stroke:none;fill-rule:nonzero;fill:rgb(88.0722%,61.1041%,14.2051%);fill-opacity:1;" d="M 268.804688 17.222656 C 268.804688 13.222656 262.804688 13.222656 262.804688 17.222656 C 262.804688 21.222656 268.804688 21.222656 268.804688 17.222656 "/>
<path style=" stroke:none;fill-rule:nonzero;fill:rgb(88.0722%,61.1041%,14.2051%);fill-opacity:1;" d="M 175.417969 18.101562 C 175.417969 14.101562 169.417969 14.101562 169.417969 18.101562 C 169.417969 22.101562 175.417969 22.101562 175.417969 18.101562 "/>
<path style=" stroke:none;fill-rule:nonzero;fill:rgb(88.0722%,61.1041%,14.2051%);fill-opacity:1;" d="M 215.546875 29.027344 C 215.546875 25.027344 209.546875 25.027344 209.546875 29.027344 C 209.546875 33.027344 215.546875 33.027344 215.546875 29.027344 "/>
<path style="fill:none;stroke-width:2;stroke-linecap:butt;stroke-linejoin:bevel;stroke:rgb(36.8417%,50.6779%,70.9798%);stroke-opacity:1;stroke-miterlimit:10;" d="M 119.597656 181.925781 L 26.820312 183.003906 L 74.84375 176.214844 Z M 119.597656 181.925781 " transform="matrix(1,0,0,-1,0,200)"/>
<path style=" stroke:none;fill-rule:nonzero;fill:rgb(88.0722%,61.1041%,14.2051%);fill-opacity:1;" d="M 122.597656 18.074219 C 122.597656 14.074219 116.597656 14.074219 116.597656 18.074219 C 116.597656 22.074219 122.597656 22.074219 122.597656 18.074219 "/>
<path style=" stroke:none;fill-rule:nonzero;fill:rgb(88.0722%,61.1041%,14.2051%);fill-opacity:1;" d="M 29.820312 16.996094 C 29.820312 12.996094 23.820312 12.996094 23.820312 16.996094 C 23.820312 20.996094 29.820312 20.996094 29.820312 16.996094 "/>
<path style=" stroke:none;fill-rule:nonzero;fill:rgb(88.0722%,61.1041%,14.2051%);fill-opacity:1;" d="M 77.84375 23.785156 C 77.84375 19.785156 71.84375 19.785156 71.84375 23.785156 C 71.84375 27.785156 77.84375 27.785156 77.84375 23.785156 "/>
<path style="fill:none;stroke-width:2;stroke-linecap:butt;stroke-linejoin:bevel;stroke:rgb(36.8417%,50.6779%,70.9798%);stroke-opacity:1;stroke-miterlimit:10;" d="M 145.253906 71.09375 L 102.453125 47.355469 L 127.625 20.9375 Z M 145.253906 71.09375 " transform="matrix(1,0,0,-1,0,200)"/>
<path style=" stroke:none;fill-rule:nonzero;fill:rgb(88.0722%,61.1041%,14.2051%);fill-opacity:1;" d="M 148.253906 128.90625 C 148.253906 124.90625 142.253906 124.90625 142.253906 128.90625 C 142.253906 132.90625 148.253906 132.90625 148.253906 128.90625 "/>
<path style=" stroke:none;fill-rule:nonzero;fill:rgb(88.0722%,61.1041%,14.2051%);fill-opacity:1;" d="M 105.453125 152.644531 C 105.453125 148.644531 99.453125 148.644531 99.453125 152.644531 C 99.453125 156.644531 105.453125 156.644531 105.453125 152.644531 "/>
<path style=" stroke:none;fill-rule:nonzero;fill:rgb(88.0722%,61.1041%,14.2051%);fill-opacity:1;" d="M 130.625 179.0625 C 130.625 175.0625 124.625 175.0625 124.625 179.0625 C 124.625 183.0625 130.625 183.0625 130.625 179.0625 "/>
<path style="fill:none;stroke-width:2;stroke-linecap:butt;stroke-linejoin:bevel;stroke:rgb(36.8417%,50.6779%,70.9798%);stroke-opacity:1;stroke-miterlimit:10;" d="M 145.253906 71.09375 L 96.996094 93.671875 L 102.453125 47.355469 Z M 145.253906 71.09375 " transform="matrix(1,0,0,-1,0,200)"/>
<path style=" stroke:none;fill-rule:nonzero;fill:rgb(88.0722%,61.1041%,14.2051%);fill-opacity:1;" d="M 148.253906 128.90625 C 148.253906 124.90625 142.253906 124.90625 142.253906 128.90625 C 142.253906 132.90625 148.253906 132.90625 148.253906 128.90625 "/>
<path style=" stroke:none;fill-rule:nonzero;fill:rgb(88.0722%,61.1041%,14.2051%);fill-opacity:1;" d="M 99.996094 106.328125 C 99.996094 102.328125 93.996094 102.328125 93.996094 106.328125 C 93.996094 110.328125 99.996094 110.328125 99.996094 106.328125 "/>
<path style=" stroke:none;fill-rule:nonzero;fill:rgb(88.0722%,61.1041%,14.2051%);fill-opacity:1;" d="M 105.453125 152.644531 C 105.453125 148.644531 99.453125 148.644531 99.453125 152.644531 C 99.453125 156.644531 105.453125 156.644531 105.453125 152.644531 "/>
<path style="fill:none;stroke-width:2;stroke-linecap:butt;stroke-linejoin:bevel;stroke:rgb(36.8417%,50.6779%,70.9798%);stroke-opacity:1;stroke-miterlimit:10;" d="M 127.625 20.9375 L 102.453125 47.355469 L 65.074219 18.351562 Z M 127.625 20.9375 " transform="matrix(1,0,0,-1,0,200)"/>
<path style=" stroke:none;fill-rule:nonzero;fill:rgb(88.0722%,61.1041%,14.2051%);fill-opacity:1;" d="M 130.625 179.0625 C 130.625 175.0625 124.625 175.0625 124.625 179.0625 C 124.625 183.0625 130.625 183.0625 130.625 179.0625 "/>
<path style=" stroke:none;fill-rule:nonzero;fill:rgb(88.0722%,61.1041%,14.2051%);fill-opacity:1;" d="M 105.453125 152.644531 C 105.453125 148.644531 99.453125 148.644531 99.453125 152.644531 C 99.453125 156.644531 105.453125 156.644531 105.453125 152.644531 "/>
<path style=" stroke:none;fill-rule:nonzero;fill:rgb(88.0722%,61.1041%,14.2051%);fill-opacity:1;" d="M 68.074219 181.648438 C 68.074219 177.648438 62.074219 177.648438 62.074219 181.648438 C 62.074219 185.648438 68.074219 185.648438 68.074219 181.648438 "/>
<path style="fill:none;stroke-width:2;stroke-linecap:butt;stroke-linejoin:bevel;stroke:rgb(36.8417%,50.6779%,70.9798%);stroke-opacity:1;stroke-miterlimit:10;" d="M 119.597656 181.925781 L 74.84375 176.214844 L 109.660156 136.554688 Z M 119.597656 181.925781 " transform="matrix(1,0,0,-1,0,200)"/>
<path style=" stroke:none;fill-rule:nonzero;fill:rgb(88.0722%,61.1041%,14.2051%);fill-opacity:1;" d="M 122.597656 18.074219 C 122.597656 14.074219 116.597656 14.074219 116.597656 18.074219 C 116.597656 22.074219 122.597656 22.074219 122.597656 18.074219 "/>
<path style=" stroke:none;fill-rule:nonzero;fill:rgb(88.0722%,61.1041%,14.2051%);fill-opacity:1;" d="M 77.84375 23.785156 C 77.84375 19.785156 71.84375 19.785156 71.84375 23.785156 C 71.84375 27.785156 77.84375 27.785156 77.84375 23.785156 "/>
<path style=" stroke:none;fill-rule:nonzero;fill:rgb(88.0722%,61.1041%,14.2051%);fill-opacity:1;" d="M 112.660156 63.445312 C 112.660156 59.445312 106.660156 59.445312 106.660156 63.445312 C 106.660156 67.445312 112.660156 67.445312 112.660156 63.445312 "/>
<path style="fill:none;stroke-width:2;stroke-linecap:butt;stroke-linejoin:bevel;stroke:rgb(36.8417%,50.6779%,70.9798%);stroke-opacity:1;stroke-miterlimit:10;" d="M 212.546875 170.972656 L 172.417969 181.898438 L 189.722656 128.304688 Z M 212.546875 170.972656 " transform="matrix(1,0,0,-1,0,200)"/>
<path style=" stroke:none;fill-rule:nonzero;fill:rgb(88.0722%,61.1041%,14.2051%);fill-opacity:1;" d="M 215.546875 29.027344 C 215.546875 25.027344 209.546875 25.027344 209.546875 29.027344 C 209.546875 33.027344 215.546875 33.027344 215.546875 29.027344 "/>
<path style=" stroke:none;fill-rule:nonzero;fill:rgb(88.0722%,61.1041%,14.2051%);fill-opacity:1;" d="M 175.417969 18.101562 C 175.417969 14.101562 169.417969 14.101562 169.417969 18.101562 C 169.417969 22.101562 175.417969 22.101562 175.417969 18.101562 "/>
<path style=" stroke:none;fill-rule:nonzero;fill:rgb(88.0722%,61.1041%,14.2051%);fill-opacity:1;" d="M 192.722656 71.695312 C 192.722656 67.695312 186.722656 67.695312 186.722656 71.695312 C 186.722656 75.695312 192.722656 75.695312 192.722656 71.695312 "/>
<path style="fill:none;stroke-width:2;stroke-linecap:butt;stroke-linejoin:bevel;stroke:rgb(36.8417%,50.6779%,70.9798%);stroke-opacity:1;stroke-miterlimit:10;" d="M 189.722656 128.304688 L 172.417969 181.898438 L 147.957031 152.429688 Z M 189.722656 128.304688 " transform="matrix(1,0,0,-1,0,200)"/>
<path style=" stroke:none;fill-rule:nonzero;fill:rgb(88.0722%,61.1041%,14.2051%);fill-opacity:1;" d="M 192.722656 71.695312 C 192.722656 67.695312 186.722656 67.695312 186.722656 71.695312 C 186.722656 75.695312 192.722656 75.695312 192.722656 71.695312 "/>
<path style=" stroke:none;fill-rule:nonzero;fill:rgb(88.0722%,61.1041%,14.2051%);fill-opacity:1;" d="M 175.417969 18.101562 C 175.417969 14.101562 169.417969 14.101562 169.417969 18.101562 C 169.417969 22.101562 175.417969 22.101562 175.417969 18.101562 "/>
<path style=" stroke:none;fill-rule:nonzero;fill:rgb(88.0722%,61.1041%,14.2051%);fill-opacity:1;" d="M 150.957031 47.570312 C 150.957031 43.570312 144.957031 43.570312 144.957031 47.570312 C 144.957031 51.570312 150.957031 51.570312 150.957031 47.570312 "/>
<path style="fill:none;stroke-width:2;stroke-linecap:butt;stroke-linejoin:bevel;stroke:rgb(36.8417%,50.6779%,70.9798%);stroke-opacity:1;stroke-miterlimit:10;" d="M 193.277344 89.230469 L 189.722656 128.304688 L 147.167969 111.503906 Z M 193.277344 89.230469 " transform="matrix(1,0,0,-1,0,200)"/>
<path style=" stroke:none;fill-rule:nonzero;fill:rgb(88.0722%,61.1041%,14.2051%);fill-opacity:1;" d="M 196.277344 110.769531 C 196.277344 106.769531 190.277344 106.769531 190.277344 110.769531 C 190.277344 114.769531 196.277344 114.769531 196.277344 110.769531 "/>
<path style=" stroke:none;fill-rule:nonzero;fill:rgb(88.0722%,61.1041%,14.2051%);fill-opacity:1;" d="M 192.722656 71.695312 C 192.722656 67.695312 186.722656 67.695312 186.722656 71.695312 C 186.722656 75.695312 192.722656 75.695312 192.722656 71.695312 "/>
<path style=" stroke:none;fill-rule:nonzero;fill:rgb(88.0722%,61.1041%,14.2051%);fill-opacity:1;" d="M 150.167969 88.496094 C 150.167969 84.496094 144.167969 84.496094 144.167969 88.496094 C 144.167969 92.496094 150.167969 92.496094 150.167969 88.496094 "/>
<path style="fill:none;stroke-width:2;stroke-linecap:butt;stroke-linejoin:bevel;stroke:rgb(36.8417%,50.6779%,70.9798%);stroke-opacity:1;stroke-miterlimit:10;" d="M 193.277344 89.230469 L 145.253906 71.09375 L 190.691406 52.671875 Z M 193.277344 89.230469 " transform="matrix(1,0,0,-1,0,200)"/>
<path style=" stroke:none;fill-rule:nonzero;fill:rgb(88.0722%,61.1041%,14.2051%);fill-opacity:1;" d="M 196.277344 110.769531 C 196.277344 106.769531 190.277344 106.769531 190.277344 110.769531 C 190.277344 114.769531 196.277344 114.769531 196.277344 110.769531 "/>
<path style=" stroke:none;fill-rule:nonzero;fill:rgb(88.0722%,61.1041%,14.2051%);fill-opacity:1;" d="M 148.253906 128.90625 C 148.253906 124.90625 142.253906 124.90625 142.253906 128.90625 C 142.253906 132.90625 148.253906 132.90625 148.253906 128.90625 "/>
<path style=" stroke:none;fill-rule:nonzero;fill:rgb(88.0722%,61.1041%,14.2051%);fill-opacity:1;" d="M 193.691406 147.328125 C 193.691406 143.328125 187.691406 143.328125 187.691406 147.328125 C 187.691406 151.328125 193.691406 151.328125 193.691406 147.328125 "/>
<path style="fill:none;stroke-width:2;stroke-linecap:butt;stroke-linejoin:bevel;stroke:rgb(36.8417%,50.6779%,70.9798%);stroke-opacity:1;stroke-miterlimit:10;" d="M 193.277344 89.230469 L 147.167969 111.503906 L 145.253906 71.09375 Z M 193.277344 89.230469 " transform="matrix(1,0,0,-1,0,200)"/>
<path style=" stroke:none;fill-rule:nonzero;fill:rgb(88.0722%,61.1041%,14.2051%);fill-opacity:1;" d="M 196.277344 110.769531 C 196.277344 106.769531 190.277344 106.769531 190.277344 110.769531 C 190.277344 114.769531 196.277344 114.769531 196.277344 110.769531 "/>
<path style=" stroke:none;fill-rule:nonzero;fill:rgb(88.0722%,61.1041%,14.2051%);fill-opacity:1;" d="M 150.167969 88.496094 C 150.167969 84.496094 144.167969 84.496094 144.167969 88.496094 C 144.167969 92.496094 150.167969 92.496094 150.167969 88.496094 "/>
<path style=" stroke:none;fill-rule:nonzero;fill:rgb(88.0722%,61.1041%,14.2051%);fill-opacity:1;" d="M 148.253906 128.90625 C 148.253906 124.90625 142.253906 124.90625 142.253906 128.90625 C 142.253906 132.90625 148.253906 132.90625 148.253906 128.90625 "/>
<path style="fill:none;stroke-width:2;stroke-linecap:butt;stroke-linejoin:bevel;stroke:rgb(36.8417%,50.6779%,70.9798%);stroke-opacity:1;stroke-miterlimit:10;" d="M 241.378906 138.320312 L 189.722656 128.304688 L 233.675781 92.023438 Z M 241.378906 138.320312 " transform="matrix(1,0,0,-1,0,200)"/>
<path style=" stroke:none;fill-rule:nonzero;fill:rgb(88.0722%,61.1041%,14.2051%);fill-opacity:1;" d="M 244.378906 61.679688 C 244.378906 57.679688 238.378906 57.679688 238.378906 61.679688 C 238.378906 65.679688 244.378906 65.679688 244.378906 61.679688 "/>
<path style=" stroke:none;fill-rule:nonzero;fill:rgb(88.0722%,61.1041%,14.2051%);fill-opacity:1;" d="M 192.722656 71.695312 C 192.722656 67.695312 186.722656 67.695312 186.722656 71.695312 C 186.722656 75.695312 192.722656 75.695312 192.722656 71.695312 "/>
<path style=" stroke:none;fill-rule:nonzero;fill:rgb(88.0722%,61.1041%,14.2051%);fill-opacity:1;" d="M 236.675781 107.976562 C 236.675781 103.976562 230.675781 103.976562 230.675781 107.976562 C 230.675781 111.976562 236.675781 111.976562 236.675781 107.976562 "/>
<path style="fill:none;stroke-width:2;stroke-linecap:butt;stroke-linejoin:bevel;stroke:rgb(36.8417%,50.6779%,70.9798%);stroke-opacity:1;stroke-miterlimit:10;" d="M 241.378906 138.320312 L 212.546875 170.972656 L 189.722656 128.304688 Z M 241.378906 138.320312 " transform="matrix(1,0,0,-1,0,200)"/>
<path style=" stroke:none;fill-rule:nonzero;fill:rgb(88.0722%,61.1041%,14.2051%);fill-opacity:1;" d="M 244.378906 61.679688 C 244.378906 57.679688 238.378906 57.679688 238.378906 61.679688 C 238.378906 65.679688 244.378906 65.679688 244.378906 61.679688 "/>
<path style=" stroke:none;fill-rule:nonzero;fill:rgb(88.0722%,61.1041%,14.2051%);fill-opacity:1;" d="M 215.546875 29.027344 C 215.546875 25.027344 209.546875 25.027344 209.546875 29.027344 C 209.546875 33.027344 215.546875 33.027344 215.546875 29.027344 "/>
<path style=" stroke:none;fill-rule:nonzero;fill:rgb(88.0722%,61.1041%,14.2051%);fill-opacity:1;" d="M 192.722656 71.695312 C 192.722656 67.695312 186.722656 67.695312 186.722656 71.695312 C 186.722656 75.695312 192.722656 75.695312 192.722656 71.695312 "/>
<path style="fill:none;stroke-width:2;stroke-linecap:butt;stroke-linejoin:bevel;stroke:rgb(36.8417%,50.6779%,70.9798%);stroke-opacity:1;stroke-miterlimit:10;" d="M 233.675781 92.023438 L 193.277344 89.230469 L 190.691406 52.671875 Z M 233.675781 92.023438 " transform="matrix(1,0,0,-1,0,200)"/>
<path style=" stroke:none;fill-rule:nonzero;fill:rgb(88.0722%,61.1041%,14.2051%);fill-opacity:1;" d="M 236.675781 107.976562 C 236.675781 103.976562 230.675781 103.976562 230.675781 107.976562 C 230.675781 111.976562 236.675781 111.976562 236.675781 107.976562 "/>
<path style=" stroke:none;fill-rule:nonzero;fill:rgb(88.0722%,61.1041%,14.2051%);fill-opacity:1;" d="M 196.277344 110.769531 C 196.277344 106.769531 190.277344 106.769531 190.277344 110.769531 C 190.277344 114.769531 196.277344 114.769531 196.277344 110.769531 "/>
<path style=" stroke:none;fill-rule:nonzero;fill:rgb(88.0722%,61.1041%,14.2051%);fill-opacity:1;" d="M 193.691406 147.328125 C 193.691406 143.328125 187.691406 143.328125 187.691406 147.328125 C 187.691406 151.328125 193.691406 151.328125 193.691406 147.328125 "/>
<path style="fill:none;stroke-width:2;stroke-linecap:butt;stroke-linejoin:bevel;stroke:rgb(36.8417%,50.6779%,70.9798%);stroke-opacity:1;stroke-miterlimit:10;" d="M 233.675781 92.023438 L 189.722656 128.304688 L 193.277344 89.230469 Z M 233.675781 92.023438 " transform="matrix(1,0,0,-1,0,200)"/>
<path style=" stroke:none;fill-rule:nonzero;fill:rgb(88.0722%,61.1041%,14.2051%);fill-opacity:1;" d="M 236.675781 107.976562 C 236.675781 103.976562 230.675781 103.976562 230.675781 107.976562 C 230.675781 111.976562 236.675781 111.976562 236.675781 107.976562 "/>
<path style=" stroke:none;fill-rule:nonzero;fill:rgb(88.0722%,61.1041%,14.2051%);fill-opacity:1;" d="M 192.722656 71.695312 C 192.722656 67.695312 186.722656 67.695312 186.722656 71.695312 C 186.722656 75.695312 192.722656 75.695312 192.722656 71.695312 "/>
<path style=" stroke:none;fill-rule:nonzero;fill:rgb(88.0722%,61.1041%,14.2051%);fill-opacity:1;" d="M 196.277344 110.769531 C 196.277344 106.769531 190.277344 106.769531 190.277344 110.769531 C 190.277344 114.769531 196.277344 114.769531 196.277344 110.769531 "/>
<path style="fill:none;stroke-width:2;stroke-linecap:butt;stroke-linejoin:bevel;stroke:rgb(36.8417%,50.6779%,70.9798%);stroke-opacity:1;stroke-miterlimit:10;" d="M 109.660156 136.554688 L 67.949219 129.453125 L 96.996094 93.671875 Z M 109.660156 136.554688 " transform="matrix(1,0,0,-1,0,200)"/>
<path style=" stroke:none;fill-rule:nonzero;fill:rgb(88.0722%,61.1041%,14.2051%);fill-opacity:1;" d="M 112.660156 63.445312 C 112.660156 59.445312 106.660156 59.445312 106.660156 63.445312 C 106.660156 67.445312 112.660156 67.445312 112.660156 63.445312 "/>
<path style=" stroke:none;fill-rule:nonzero;fill:rgb(88.0722%,61.1041%,14.2051%);fill-opacity:1;" d="M 70.949219 70.546875 C 70.949219 66.546875 64.949219 66.546875 64.949219 70.546875 C 64.949219 74.546875 70.949219 74.546875 70.949219 70.546875 "/>
<path style=" stroke:none;fill-rule:nonzero;fill:rgb(88.0722%,61.1041%,14.2051%);fill-opacity:1;" d="M 99.996094 106.328125 C 99.996094 102.328125 93.996094 102.328125 93.996094 106.328125 C 93.996094 110.328125 99.996094 110.328125 99.996094 106.328125 "/>
<path style="fill:none;stroke-width:2;stroke-linecap:butt;stroke-linejoin:bevel;stroke:rgb(36.8417%,50.6779%,70.9798%);stroke-opacity:1;stroke-miterlimit:10;" d="M 109.660156 136.554688 L 74.84375 176.214844 L 67.949219 129.453125 Z M 109.660156 136.554688 " transform="matrix(1,0,0,-1,0,200)"/>
<path style=" stroke:none;fill-rule:nonzero;fill:rgb(88.0722%,61.1041%,14.2051%);fill-opacity:1;" d="M 112.660156 63.445312 C 112.660156 59.445312 106.660156 59.445312 106.660156 63.445312 C 106.660156 67.445312 112.660156 67.445312 112.660156 63.445312 "/>
<path style=" stroke:none;fill-rule:nonzero;fill:rgb(88.0722%,61.1041%,14.2051%);fill-opacity:1;" d="M 77.84375 23.785156 C 77.84375 19.785156 71.84375 19.785156 71.84375 23.785156 C 71.84375 27.785156 77.84375 27.785156 77.84375 23.785156 "/>
<path style=" stroke:none;fill-rule:nonzero;fill:rgb(88.0722%,61.1041%,14.2051%);fill-opacity:1;" d="M 70.949219 70.546875 C 70.949219 66.546875 64.949219 66.546875 64.949219 70.546875 C 64.949219 74.546875 70.949219 74.546875 70.949219 70.546875 "/>
<path style="fill:none;stroke-width:2;stroke-linecap:butt;stroke-linejoin:bevel;stroke:rgb(36.8417%,50.6779%,70.9798%);stroke-opacity:1;stroke-miterlimit:10;" d="M 96.996094 93.671875 L 67.949219 129.453125 L 63.601562 63.558594 Z M 96.996094 93.671875 " transform="matrix(1,0,0,-1,0,200)"/>
<path style=" stroke:none;fill-rule:nonzero;fill:rgb(88.0722%,61.1041%,14.2051%);fill-opacity:1;" d="M 99.996094 106.328125 C 99.996094 102.328125 93.996094 102.328125 93.996094 106.328125 C 93.996094 110.328125 99.996094 110.328125 99.996094 106.328125 "/>
<path style=" stroke:none;fill-rule:nonzero;fill:rgb(88.0722%,61.1041%,14.2051%);fill-opacity:1;" d="M 70.949219 70.546875 C 70.949219 66.546875 64.949219 66.546875 64.949219 70.546875 C 64.949219 74.546875 70.949219 74.546875 70.949219 70.546875 "/>
<path style=" stroke:none;fill-rule:nonzero;fill:rgb(88.0722%,61.1041%,14.2051%);fill-opacity:1;" d="M 66.601562 136.441406 C 66.601562 132.441406 60.601562 132.441406 60.601562 136.441406 C 60.601562 140.441406 66.601562 140.441406 66.601562 136.441406 "/>
<path style="fill:none;stroke-width:2;stroke-linecap:butt;stroke-linejoin:bevel;stroke:rgb(36.8417%,50.6779%,70.9798%);stroke-opacity:1;stroke-miterlimit:10;" d="M 102.453125 47.355469 L 96.996094 93.671875 L 63.601562 63.558594 Z M 102.453125 47.355469 " transform="matrix(1,0,0,-1,0,200)"/>
<path style=" stroke:none;fill-rule:nonzero;fill:rgb(88.0722%,61.1041%,14.2051%);fill-opacity:1;" d="M 105.453125 152.644531 C 105.453125 148.644531 99.453125 148.644531 99.453125 152.644531 C 99.453125 156.644531 105.453125 156.644531 105.453125 152.644531 "/>
<path style=" stroke:none;fill-rule:nonzero;fill:rgb(88.0722%,61.1041%,14.2051%);fill-opacity:1;" d="M 99.996094 106.328125 C 99.996094 102.328125 93.996094 102.328125 93.996094 106.328125 C 93.996094 110.328125 99.996094 110.328125 99.996094 106.328125 "/>
<path style=" stroke:none;fill-rule:nonzero;fill:rgb(88.0722%,61.1041%,14.2051%);fill-opacity:1;" d="M 66.601562 136.441406 C 66.601562 132.441406 60.601562 132.441406 60.601562 136.441406 C 60.601562 140.441406 66.601562 140.441406 66.601562 136.441406 "/>
<path style="fill:none;stroke-width:2;stroke-linecap:butt;stroke-linejoin:bevel;stroke:rgb(36.8417%,50.6779%,70.9798%);stroke-opacity:1;stroke-miterlimit:10;" d="M 102.453125 47.355469 L 63.601562 63.558594 L 65.074219 18.351562 Z M 102.453125 47.355469 " transform="matrix(1,0,0,-1,0,200)"/>
<path style=" stroke:none;fill-rule:nonzero;fill:rgb(88.0722%,61.1041%,14.2051%);fill-opacity:1;" d="M 105.453125 152.644531 C 105.453125 148.644531 99.453125 148.644531 99.453125 152.644531 C 99.453125 156.644531 105.453125 156.644531 105.453125 152.644531 "/>
<path style=" stroke:none;fill-rule:nonzero;fill:rgb(88.0722%,61.1041%,14.2051%);fill-opacity:1;" d="M 66.601562 136.441406 C 66.601562 132.441406 60.601562 132.441406 60.601562 136.441406 C 60.601562 140.441406 66.601562 140.441406 66.601562 136.441406 "/>
<path style=" stroke:none;fill-rule:nonzero;fill:rgb(88.0722%,61.1041%,14.2051%);fill-opacity:1;" d="M 68.074219 181.648438 C 68.074219 177.648438 62.074219 177.648438 62.074219 181.648438 C 62.074219 185.648438 68.074219 185.648438 68.074219 181.648438 "/>
<path style="fill:none;stroke-width:2;stroke-linecap:butt;stroke-linejoin:bevel;stroke:rgb(36.8417%,50.6779%,70.9798%);stroke-opacity:1;stroke-miterlimit:10;" d="M 147.957031 152.429688 L 119.597656 181.925781 L 109.660156 136.554688 Z M 147.957031 152.429688 " transform="matrix(1,0,0,-1,0,200)"/>
<path style=" stroke:none;fill-rule:nonzero;fill:rgb(88.0722%,61.1041%,14.2051%);fill-opacity:1;" d="M 150.957031 47.570312 C 150.957031 43.570312 144.957031 43.570312 144.957031 47.570312 C 144.957031 51.570312 150.957031 51.570312 150.957031 47.570312 "/>
<path style=" stroke:none;fill-rule:nonzero;fill:rgb(88.0722%,61.1041%,14.2051%);fill-opacity:1;" d="M 122.597656 18.074219 C 122.597656 14.074219 116.597656 14.074219 116.597656 18.074219 C 116.597656 22.074219 122.597656 22.074219 122.597656 18.074219 "/>
<path style=" stroke:none;fill-rule:nonzero;fill:rgb(88.0722%,61.1041%,14.2051%);fill-opacity:1;" d="M 112.660156 63.445312 C 112.660156 59.445312 106.660156 59.445312 106.660156 63.445312 C 106.660156 67.445312 112.660156 67.445312 112.660156 63.445312 "/>
<path style="fill:none;stroke-width:2;stroke-linecap:butt;stroke-linejoin:bevel;stroke:rgb(36.8417%,50.6779%,70.9798%);stroke-opacity:1;stroke-miterlimit:10;" d="M 147.167969 111.503906 L 147.957031 152.429688 L 109.660156 136.554688 Z M 147.167969 111.503906 " transform="matrix(1,0,0,-1,0,200)"/>
<path style=" stroke:none;fill-rule:nonzero;fill:rgb(88.0722%,61.1041%,14.2051%);fill-opacity:1;" d="M 150.167969 88.496094 C 150.167969 84.496094 144.167969 84.496094 144.167969 88.496094 C 144.167969 92.496094 150.167969 92.496094 150.167969 88.496094 "/>
<path style=" stroke:none;fill-rule:nonzero;fill:rgb(88.0722%,61.1041%,14.2051%);fill-opacity:1;" d="M 150.957031 47.570312 C 150.957031 43.570312 144.957031 43.570312 144.957031 47.570312 C 144.957031 51.570312 150.957031 51.570312 150.957031 47.570312 "/>
<path style=" stroke:none;fill-rule:nonzero;fill:rgb(88.0722%,61.1041%,14.2051%);fill-opacity:1;" d="M 112.660156 63.445312 C 112.660156 59.445312 106.660156 59.445312 106.660156 63.445312 C 106.660156 67.445312 112.660156 67.445312 112.660156 63.445312 "/>
<path style="fill:none;stroke-width:2;stroke-linecap:butt;stroke-linejoin:bevel;stroke:rgb(36.8417%,50.6779%,70.9798%);stroke-opacity:1;stroke-miterlimit:10;" d="M 171.1875 19.5 L 145.253906 71.09375 L 127.625 20.9375 Z M 171.1875 19.5 " transform="matrix(1,0,0,-1,0,200)"/>
<path style=" stroke:none;fill-rule:nonzero;fill:rgb(88.0722%,61.1041%,14.2051%);fill-opacity:1;" d="M 174.1875 180.5 C 174.1875 176.5 168.1875 176.5 168.1875 180.5 C 168.1875 184.5 174.1875 184.5 174.1875 180.5 "/>
<path style=" stroke:none;fill-rule:nonzero;fill:rgb(88.0722%,61.1041%,14.2051%);fill-opacity:1;" d="M 148.253906 128.90625 C 148.253906 124.90625 142.253906 124.90625 142.253906 128.90625 C 142.253906 132.90625 148.253906 132.90625 148.253906 128.90625 "/>
<path style=" stroke:none;fill-rule:nonzero;fill:rgb(88.0722%,61.1041%,14.2051%);fill-opacity:1;" d="M 130.625 179.0625 C 130.625 175.0625 124.625 175.0625 124.625 179.0625 C 124.625 183.0625 130.625 183.0625 130.625 179.0625 "/>
<path style="fill:none;stroke-width:2;stroke-linecap:butt;stroke-linejoin:bevel;stroke:rgb(36.8417%,50.6779%,70.9798%);stroke-opacity:1;stroke-miterlimit:10;" d="M 190.691406 52.671875 L 145.253906 71.09375 L 171.1875 19.5 Z M 190.691406 52.671875 " transform="matrix(1,0,0,-1,0,200)"/>
<path style=" stroke:none;fill-rule:nonzero;fill:rgb(88.0722%,61.1041%,14.2051%);fill-opacity:1;" d="M 193.691406 147.328125 C 193.691406 143.328125 187.691406 143.328125 187.691406 147.328125 C 187.691406 151.328125 193.691406 151.328125 193.691406 147.328125 "/>
<path style=" stroke:none;fill-rule:nonzero;fill:rgb(88.0722%,61.1041%,14.2051%);fill-opacity:1;" d="M 148.253906 128.90625 C 148.253906 124.90625 142.253906 124.90625 142.253906 128.90625 C 142.253906 132.90625 148.253906 132.90625 148.253906 128.90625 "/>
<path style=" stroke:none;fill-rule:nonzero;fill:rgb(88.0722%,61.1041%,14.2051%);fill-opacity:1;" d="M 174.1875 180.5 C 174.1875 176.5 168.1875 176.5 168.1875 180.5 C 168.1875 184.5 174.1875 184.5 174.1875 180.5 "/>
<path style="fill:none;stroke-width:2;stroke-linecap:butt;stroke-linejoin:bevel;stroke:rgb(36.8417%,50.6779%,70.9798%);stroke-opacity:1;stroke-miterlimit:10;" d="M 189.722656 128.304688 L 147.957031 152.429688 L 147.167969 111.503906 Z M 189.722656 128.304688 " transform="matrix(1,0,0,-1,0,200)"/>
<path style=" stroke:none;fill-rule:nonzero;fill:rgb(88.0722%,61.1041%,14.2051%);fill-opacity:1;" d="M 192.722656 71.695312 C 192.722656 67.695312 186.722656 67.695312 186.722656 71.695312 C 186.722656 75.695312 192.722656 75.695312 192.722656 71.695312 "/>
<path style=" stroke:none;fill-rule:nonzero;fill:rgb(88.0722%,61.1041%,14.2051%);fill-opacity:1;" d="M 150.957031 47.570312 C 150.957031 43.570312 144.957031 43.570312 144.957031 47.570312 C 144.957031 51.570312 150.957031 51.570312 150.957031 47.570312 "/>
<path style=" stroke:none;fill-rule:nonzero;fill:rgb(88.0722%,61.1041%,14.2051%);fill-opacity:1;" d="M 150.167969 88.496094 C 150.167969 84.496094 144.167969 84.496094 144.167969 88.496094 C 144.167969 92.496094 150.167969 92.496094 150.167969 88.496094 "/>
<path style="fill:none;stroke-width:2;stroke-linecap:butt;stroke-linejoin:bevel;stroke:rgb(36.8417%,50.6779%,70.9798%);stroke-opacity:1;stroke-miterlimit:10;" d="M 172.417969 181.898438 L 119.597656 181.925781 L 147.957031 152.429688 Z M 172.417969 181.898438 " transform="matrix(1,0,0,-1,0,200)"/>
<path style=" stroke:none;fill-rule:nonzero;fill:rgb(88.0722%,61.1041%,14.2051%);fill-opacity:1;" d="M 175.417969 18.101562 C 175.417969 14.101562 169.417969 14.101562 169.417969 18.101562 C 169.417969 22.101562 175.417969 22.101562 175.417969 18.101562 "/>
<path style=" stroke:none;fill-rule:nonzero;fill:rgb(88.0722%,61.1041%,14.2051%);fill-opacity:1;" d="M 122.597656 18.074219 C 122.597656 14.074219 116.597656 14.074219 116.597656 18.074219 C 116.597656 22.074219 122.597656 22.074219 122.597656 18.074219 "/>
<path style=" stroke:none;fill-rule:nonzero;fill:rgb(88.0722%,61.1041%,14.2051%);fill-opacity:1;" d="M 150.957031 47.570312 C 150.957031 43.570312 144.957031 43.570312 144.957031 47.570312 C 144.957031 51.570312 150.957031 51.570312 150.957031 47.570312 "/>
<path style="fill:none;stroke-width:2;stroke-linecap:butt;stroke-linejoin:bevel;stroke:rgb(36.8417%,50.6779%,70.9798%);stroke-opacity:1;stroke-miterlimit:10;" d="M 74.84375 176.214844 L 26.820312 183.003906 L 23.527344 144.605469 Z M 74.84375 176.214844 " transform="matrix(1,0,0,-1,0,200)"/>
<path style=" stroke:none;fill-rule:nonzero;fill:rgb(88.0722%,61.1041%,14.2051%);fill-opacity:1;" d="M 77.84375 23.785156 C 77.84375 19.785156 71.84375 19.785156 71.84375 23.785156 C 71.84375 27.785156 77.84375 27.785156 77.84375 23.785156 "/>
<path style=" stroke:none;fill-rule:nonzero;fill:rgb(88.0722%,61.1041%,14.2051%);fill-opacity:1;" d="M 29.820312 16.996094 C 29.820312 12.996094 23.820312 12.996094 23.820312 16.996094 C 23.820312 20.996094 29.820312 20.996094 29.820312 16.996094 "/>
<path style=" stroke:none;fill-rule:nonzero;fill:rgb(88.0722%,61.1041%,14.2051%);fill-opacity:1;" d="M 26.527344 55.394531 C 26.527344 51.394531 20.527344 51.394531 20.527344 55.394531 C 20.527344 59.394531 26.527344 59.394531 26.527344 55.394531 "/>
<path style="fill:none;stroke-width:2;stroke-linecap:butt;stroke-linejoin:bevel;stroke:rgb(36.8417%,50.6779%,70.9798%);stroke-opacity:1;stroke-miterlimit:10;" d="M 74.84375 176.214844 L 23.527344 144.605469 L 67.949219 129.453125 Z M 74.84375 176.214844 " transform="matrix(1,0,0,-1,0,200)"/>
<path style=" stroke:none;fill-rule:nonzero;fill:rgb(88.0722%,61.1041%,14.2051%);fill-opacity:1;" d="M 77.84375 23.785156 C 77.84375 19.785156 71.84375 19.785156 71.84375 23.785156 C 71.84375 27.785156 77.84375 27.785156 77.84375 23.785156 "/>
<path style=" stroke:none;fill-rule:nonzero;fill:rgb(88.0722%,61.1041%,14.2051%);fill-opacity:1;" d="M 26.527344 55.394531 C 26.527344 51.394531 20.527344 51.394531 20.527344 55.394531 C 20.527344 59.394531 26.527344 59.394531 26.527344 55.394531 "/>
<path style=" stroke:none;fill-rule:nonzero;fill:rgb(88.0722%,61.1041%,14.2051%);fill-opacity:1;" d="M 70.949219 70.546875 C 70.949219 66.546875 64.949219 66.546875 64.949219 70.546875 C 64.949219 74.546875 70.949219 74.546875 70.949219 70.546875 "/>
<path style="fill:none;stroke-width:2;stroke-linecap:butt;stroke-linejoin:bevel;stroke:rgb(36.8417%,50.6779%,70.9798%);stroke-opacity:1;stroke-miterlimit:10;" d="M 67.949219 129.453125 L 28.28125 99.910156 L 63.601562 63.558594 Z M 67.949219 129.453125 " transform="matrix(1,0,0,-1,0,200)"/>
<path style=" stroke:none;fill-rule:nonzero;fill:rgb(88.0722%,61.1041%,14.2051%);fill-opacity:1;" d="M 70.949219 70.546875 C 70.949219 66.546875 64.949219 66.546875 64.949219 70.546875 C 64.949219 74.546875 70.949219 74.546875 70.949219 70.546875 "/>
<path style=" stroke:none;fill-rule:nonzero;fill:rgb(88.0722%,61.1041%,14.2051%);fill-opacity:1;" d="M 31.28125 100.089844 C 31.28125 96.089844 25.28125 96.089844 25.28125 100.089844 C 25.28125 104.089844 31.28125 104.089844 31.28125 100.089844 "/>
<path style=" stroke:none;fill-rule:nonzero;fill:rgb(88.0722%,61.1041%,14.2051%);fill-opacity:1;" d="M 66.601562 136.441406 C 66.601562 132.441406 60.601562 132.441406 60.601562 136.441406 C 60.601562 140.441406 66.601562 140.441406 66.601562 136.441406 "/>
<path style="fill:none;stroke-width:2;stroke-linecap:butt;stroke-linejoin:bevel;stroke:rgb(36.8417%,50.6779%,70.9798%);stroke-opacity:1;stroke-miterlimit:10;" d="M 67.949219 129.453125 L 23.527344 144.605469 L 28.28125 99.910156 Z M 67.949219 129.453125 " transform="matrix(1,0,0,-1,0,200)"/>
<path style=" stroke:none;fill-rule:nonzero;fill:rgb(88.0722%,61.1041%,14.2051%);fill-opacity:1;" d="M 70.949219 70.546875 C 70.949219 66.546875 64.949219 66.546875 64.949219 70.546875 C 64.949219 74.546875 70.949219 74.546875 70.949219 70.546875 "/>
<path style=" stroke:none;fill-rule:nonzero;fill:rgb(88.0722%,61.1041%,14.2051%);fill-opacity:1;" d="M 26.527344 55.394531 C 26.527344 51.394531 20.527344 51.394531 20.527344 55.394531 C 20.527344 59.394531 26.527344 59.394531 26.527344 55.394531 "/>
<path style=" stroke:none;fill-rule:nonzero;fill:rgb(88.0722%,61.1041%,14.2051%);fill-opacity:1;" d="M 31.28125 100.089844 C 31.28125 96.089844 25.28125 96.089844 25.28125 100.089844 C 25.28125 104.089844 31.28125 104.089844 31.28125 100.089844 "/>
<path style="fill:none;stroke-width:2;stroke-linecap:butt;stroke-linejoin:bevel;stroke:rgb(36.8417%,50.6779%,70.9798%);stroke-opacity:1;stroke-miterlimit:10;" d="M 63.601562 63.558594 L 28.28125 99.910156 L 21.03125 56.5625 Z M 63.601562 63.558594 " transform="matrix(1,0,0,-1,0,200)"/>
<path style=" stroke:none;fill-rule:nonzero;fill:rgb(88.0722%,61.1041%,14.2051%);fill-opacity:1;" d="M 66.601562 136.441406 C 66.601562 132.441406 60.601562 132.441406 60.601562 136.441406 C 60.601562 140.441406 66.601562 140.441406 66.601562 136.441406 "/>
<path style=" stroke:none;fill-rule:nonzero;fill:rgb(88.0722%,61.1041%,14.2051%);fill-opacity:1;" d="M 31.28125 100.089844 C 31.28125 96.089844 25.28125 96.089844 25.28125 100.089844 C 25.28125 104.089844 31.28125 104.089844 31.28125 100.089844 "/>
<path style=" stroke:none;fill-rule:nonzero;fill:rgb(88.0722%,61.1041%,14.2051%);fill-opacity:1;" d="M 24.03125 143.4375 C 24.03125 139.4375 18.03125 139.4375 18.03125 143.4375 C 18.03125 147.4375 24.03125 147.4375 24.03125 143.4375 "/>
<path style="fill:none;stroke-width:2;stroke-linecap:butt;stroke-linejoin:bevel;stroke:rgb(36.8417%,50.6779%,70.9798%);stroke-opacity:1;stroke-miterlimit:10;" d="M 63.601562 63.558594 L 21.03125 56.5625 L 65.074219 18.351562 Z M 63.601562 63.558594 " transform="matrix(1,0,0,-1,0,200)"/>
<path style=" stroke:none;fill-rule:nonzero;fill:rgb(88.0722%,61.1041%,14.2051%);fill-opacity:1;" d="M 66.601562 136.441406 C 66.601562 132.441406 60.601562 132.441406 60.601562 136.441406 C 60.601562 140.441406 66.601562 140.441406 66.601562 136.441406 "/>
<path style=" stroke:none;fill-rule:nonzero;fill:rgb(88.0722%,61.1041%,14.2051%);fill-opacity:1;" d="M 24.03125 143.4375 C 24.03125 139.4375 18.03125 139.4375 18.03125 143.4375 C 18.03125 147.4375 24.03125 147.4375 24.03125 143.4375 "/>
<path style=" stroke:none;fill-rule:nonzero;fill:rgb(88.0722%,61.1041%,14.2051%);fill-opacity:1;" d="M 68.074219 181.648438 C 68.074219 177.648438 62.074219 177.648438 62.074219 181.648438 C 62.074219 185.648438 68.074219 185.648438 68.074219 181.648438 "/>
<path style="fill:none;stroke-width:2;stroke-linecap:butt;stroke-linejoin:bevel;stroke:rgb(36.8417%,50.6779%,70.9798%);stroke-opacity:1;stroke-miterlimit:10;" d="M 65.074219 18.351562 L 21.03125 56.5625 L 19.207031 17.652344 Z M 65.074219 18.351562 " transform="matrix(1,0,0,-1,0,200)"/>
<path style=" stroke:none;fill-rule:nonzero;fill:rgb(88.0722%,61.1041%,14.2051%);fill-opacity:1;" d="M 68.074219 181.648438 C 68.074219 177.648438 62.074219 177.648438 62.074219 181.648438 C 62.074219 185.648438 68.074219 185.648438 68.074219 181.648438 "/>
<path style=" stroke:none;fill-rule:nonzero;fill:rgb(88.0722%,61.1041%,14.2051%);fill-opacity:1;" d="M 24.03125 143.4375 C 24.03125 139.4375 18.03125 139.4375 18.03125 143.4375 C 18.03125 147.4375 24.03125 147.4375 24.03125 143.4375 "/>
<path style=" stroke:none;fill-rule:nonzero;fill:rgb(88.0722%,61.1041%,14.2051%);fill-opacity:1;" d="M 22.207031 182.347656 C 22.207031 178.347656 16.207031 178.347656 16.207031 182.347656 C 16.207031 186.347656 22.207031 186.347656 22.207031 182.347656 "/>
<path style="fill:none;stroke-width:2;stroke-linecap:butt;stroke-linejoin:bevel;stroke:rgb(36.8417%,50.6779%,70.9798%);stroke-opacity:1;stroke-miterlimit:10;" d="M 28.28125 99.910156 L 23.527344 144.605469 L 21.03125 56.5625 Z M 28.28125 99.910156 " transform="matrix(1,0,0,-1,0,200)"/>
<path style=" stroke:none;fill-rule:nonzero;fill:rgb(88.0722%,61.1041%,14.2051%);fill-opacity:1;" d="M 31.28125 100.089844 C 31.28125 96.089844 25.28125 96.089844 25.28125 100.089844 C 25.28125 104.089844 31.28125 104.089844 31.28125 100.089844 "/>
<path style=" stroke:none;fill-rule:nonzero;fill:rgb(88.0722%,61.1041%,14.2051%);fill-opacity:1;" d="M 26.527344 55.394531 C 26.527344 51.394531 20.527344 51.394531 20.527344 55.394531 C 20.527344 59.394531 26.527344 59.394531 26.527344 55.394531 "/>
<path style=" stroke:none;fill-rule:nonzero;fill:rgb(88.0722%,61.1041%,14.2051%);fill-opacity:1;" d="M 24.03125 143.4375 C 24.03125 139.4375 18.03125 139.4375 18.03125 143.4375 C 18.03125 147.4375 24.03125 147.4375 24.03125 143.4375 "/>
<path style="fill:none;stroke-width:2;stroke-linecap:butt;stroke-linejoin:bevel;stroke:rgb(36.8417%,50.6779%,70.9798%);stroke-opacity:1;stroke-miterlimit:10;" d="M 147.167969 111.503906 L 96.996094 93.671875 L 145.253906 71.09375 Z M 147.167969 111.503906 " transform="matrix(1,0,0,-1,0,200)"/>
<path style=" stroke:none;fill-rule:nonzero;fill:rgb(88.0722%,61.1041%,14.2051%);fill-opacity:1;" d="M 150.167969 88.496094 C 150.167969 84.496094 144.167969 84.496094 144.167969 88.496094 C 144.167969 92.496094 150.167969 92.496094 150.167969 88.496094 "/>
<path style=" stroke:none;fill-rule:nonzero;fill:rgb(88.0722%,61.1041%,14.2051%);fill-opacity:1;" d="M 99.996094 106.328125 C 99.996094 102.328125 93.996094 102.328125 93.996094 106.328125 C 93.996094 110.328125 99.996094 110.328125 99.996094 106.328125 "/>
<path style=" stroke:none;fill-rule:nonzero;fill:rgb(88.0722%,61.1041%,14.2051%);fill-opacity:1;" d="M 148.253906 128.90625 C 148.253906 124.90625 142.253906 124.90625 142.253906 128.90625 C 142.253906 132.90625 148.253906 132.90625 148.253906 128.90625 "/>
<path style="fill:none;stroke-width:2;stroke-linecap:butt;stroke-linejoin:bevel;stroke:rgb(36.8417%,50.6779%,70.9798%);stroke-opacity:1;stroke-miterlimit:10;" d="M 147.167969 111.503906 L 109.660156 136.554688 L 96.996094 93.671875 Z M 147.167969 111.503906 " transform="matrix(1,0,0,-1,0,200)"/>
<path style=" stroke:none;fill-rule:nonzero;fill:rgb(88.0722%,61.1041%,14.2051%);fill-opacity:1;" d="M 150.167969 88.496094 C 150.167969 84.496094 144.167969 84.496094 144.167969 88.496094 C 144.167969 92.496094 150.167969 92.496094 150.167969 88.496094 "/>
<path style=" stroke:none;fill-rule:nonzero;fill:rgb(88.0722%,61.1041%,14.2051%);fill-opacity:1;" d="M 112.660156 63.445312 C 112.660156 59.445312 106.660156 59.445312 106.660156 63.445312 C 106.660156 67.445312 112.660156 67.445312 112.660156 63.445312 "/>
<path style=" stroke:none;fill-rule:nonzero;fill:rgb(88.0722%,61.1041%,14.2051%);fill-opacity:1;" d="M 99.996094 106.328125 C 99.996094 102.328125 93.996094 102.328125 93.996094 106.328125 C 93.996094 110.328125 99.996094 110.328125 99.996094 106.328125 "/>
</g>
</svg>
