<?xml version="1.0" encoding="UTF-8"?>
<svg xmlns="http://www.w3.org/2000/svg" xmlns:xlink="http://www.w3.org/1999/xlink" width="300pt" height="200pt" viewBox="0 0 300 200" version="1.1">
<defs>
<filter id="alpha" filterUnits="objectBoundingBox" x="0%" y="0%" width="100%" height="100%">
  <feColorMatrix type="matrix" in="SourceGraphic" values="0 0 0 0 1 0 0 0 0 1 0 0 0 0 1 0 0 0 1 0"/>
</filter>
<mask id="mask0">
  <g filter="url(#alpha)">
<rect x="0" y="0" width="300" height="200" style="fill:rgb(0%,0%,0%);fill-opacity:0.5;stroke:none;"/>
  </g>
</mask>
<clipPath id="clip1">
  <rect x="0" y="0" width="300" height="200"/>
</clipPath>
<g id="surface5" clip-path="url(#clip1)">
<path style="fill:none;stroke-width:1;stroke-linecap:butt;stroke-linejoin:miter;stroke:rgb(0%,0%,0%);stroke-opacity:0.2;stroke-dasharray:4,6;stroke-dashoffset:2;stroke-miterlimit:10;" d="M -1000 -1000 L -1000 1000 M -990 -1000 L -990 1000 M -980 -1000 L -980 1000 M -970 -1000 L -970 1000 M -960 -1000 L -960 1000 M -950 -1000 L -950 1000 M -940 -1000 L -940 1000 M -930 -1000 L -930 1000 M -920 -1000 L -920 1000 M -910 -1000 L -910 1000 M -900 -1000 L -900 1000 M -890 -1000 L -890 1000 M -880 -1000 L -880 1000 M -870 -1000 L -870 1000 M -860 -1000 L -860 1000 M -850 -1000 L -850 1000 M -840 -1000 L -840 1000 M -830 -1000 L -830 1000 M -820 -1000 L -820 1000 M -810 -1000 L -810 1000 M -800 -1000 L -800 1000 M -790 -1000 L -790 1000 M -780 -1000 L -780 1000 M -770 -1000 L -770 1000 M -760 -1000 L -760 1000 M -750 -1000 L -750 1000 M -740 -1000 L -740 1000 M -730 -1000 L -730 1000 M -720 -1000 L -720 1000 M -710 -1000 L -710 1000 M -700 -1000 L -700 1000 M -690 -1000 L -690 1000 M -680 -1000 L -680 1000 M -670 -1000 L -670 1000 M -660 -1000 L -660 1000 M -650 -1000 L -650 1000 M -640 -1000 L -640 1000 M -630 -1000 L -630 1000 M -620 -1000 L -620 1000 M -610 -1000 L -610 1000 M -600 -1000 L -600 1000 M -590 -1000 L -590 1000 M -580 -1000 L -580 1000 M -570 -1000 L -570 1000 M -560 -1000 L -560 1000 M -550 -1000 L -550 1000 M -540 -1000 L -540 1000 M -530 -1000 L -530 1000 M -520 -1000 L -520 1000 M -510 -1000 L -510 1000 M -500 -1000 L -500 1000 M -490 -1000 L -490 1000 M -480 -1000 L -480 1000 M -470 -1000 L -470 1000 M -460 -1000 L -460 1000 M -450 -1000 L -450 1000 M -440 -1000 L -440 1000 M -430 -1000 L -430 1000 M -420 -1000 L -420 1000 M -410 -1000 L -410 1000 M -400 -1000 L -400 1000 M -390 -1000 L -390 1000 M -380 -1000 L -380 1000 M -370 -1000 L -370 1000 M -360 -1000 L -360 1000 M -350 -1000 L -350 1000 M -340 -1000 L -340 1000 M -330 -1000 L -330 1000 M -320 -1000 L -320 1000 M -310 -1000 L -310 1000 M -300 -1000 L -300 1000 M -290 -1000 L -290 1000 M -280 -1000 L -280 1000 M -270 -1000 L -270 1000 M -260 -1000 L -260 1000 M -250 -1000 L -250 1000 M -240 -1000 L -240 1000 M -230 -1000 L -230 1000 M -220 -1000 L -220 1000 M -210 -1000 L -210 1000 M -200 -1000 L -200 1000 M -190 -1000 L -190 1000 M -180 -1000 L -180 1000 M -170 -1000 L -170 1000 M -160 -1000 L -160 1000 M -150 -1000 L -150 1000 M -140 -1000 L -140 1000 M -130 -1000 L -130 1000 M -120 -1000 L -120 1000 M -110 -1000 L -110 1000 M -100 -1000 L -100 1000 M -90 -1000 L -90 1000 M -80 -1000 L -80 1000 M -70 -1000 L -70 1000 M -60 -1000 L -60 1000 M -50 -1000 L -50 1000 M -40 -1000 L -40 1000 M -30 -1000 L -30 1000 M -20 -1000 L -20 1000 M -10 -1000 L -10 1000 M 0 -1000 L 0 1000 M 10 -1000 L 10 1000 M 20 -1000 L 20 1000 M 30 -1000 L 30 1000 M 40 -1000 L 40 1000 M 50 -1000 L 50 1000 M 60 -1000 L 60 1000 M 70 -1000 L 70 1000 M 80 -1000 L 80 1000 M 90 -1000 L 90 1000 M 100 -1000 L 100 1000 M 110 -1000 L 110 1000 M 120 -1000 L 120 1000 M 130 -1000 L 130 1000 M 140 -1000 L 140 1000 M 150 -1000 L 150 1000 M 160 -1000 L 160 1000 M 170 -1000 L 170 1000 M 180 -1000 L 180 1000 M 190 -1000 L 190 1000 M 200 -1000 L 200 1000 M 210 -1000 L 210 1000 M 220 -1000 L 220 1000 M 230 -1000 L 230 1000 M 240 -1000 L 240 1000 M 250 -1000 L 250 1000 M 260 -1000 L 260 1000 M 270 -1000 L 270 1000 M 280 -1000 L 280 1000 M 290 -1000 L 290 1000 M 300 -1000 L 300 1000 M 310 -1000 L 310 1000 M 320 -1000 L 320 1000 M 330 -1000 L 330 1000 M 340 -1000 L 340 1000 M 350 -1000 L 350 1000 M 360 -1000 L 360 1000 M 370 -1000 L 370 1000 M 380 -1000 L 380 1000 M 390 -1000 L 390 1000 M 400 -1000 L 400 1000 M 410 -1000 L 410 1000 M 420 -1000 L 420 1000 M 430 -1000 L 430 1000 M 440 -1000 L 440 1000 M 450 -1000 L 450 1000 M 460 -1000 L 460 1000 M 470 -1000 L 470 1000 M 480 -1000 L 480 1000 M 490 -1000 L 490 1000 M 500 -1000 L 500 1000 M 510 -1000 L 510 1000 M 520 -1000 L 520 1000 M 530 -1000 L 530 1000 M 540 -1000 L 540 1000 M 550 -1000 L 550 1000 M 560 -1000 L 560 1000 M 570 -1000 L 570 1000 M 580 -1000 L 580 1000 M 590 -1000 L 590 1000 M 600 -1000 L 600 1000 M 610 -1000 L 610 1000 M 620 -1000 L 620 1000 M 630 -1000 L 630 1000 M 640 -1000 L 640 1000 M 650 -1000 L 650 1000 M 660 -1000 L 660 1000 M 670 -1000 L 670 1000 M 680 -1000 L 680 1000 M 690 -1000 L 690 1000 M 700 -1000 L 700 1000 M 710 -1000 L 710 1000 M 720 -1000 L 720 1000 M 730 -1000 L 730 1000 M 740 -1000 L 740 1000 M 750 -1000 L 750 1000 M 760 -1000 L 760 1000 M 770 -1000 L 770 1000 M 780 -1000 L 780 1000 M 790 -1000 L 790 1000 M 800 -1000 L 800 1000 M 810 -1000 L 810 1000 M 820 -1000 L 820 1000 M 830 -1000 L 830 1000 M 840 -1000 L 840 1000 M 850 -1000 L 850 1000 M 860 -1000 L 860 1000 M 870 -1000 L 870 1000 M 880 -1000 L 880 1000 M 890 -1000 L 890 1000 M 900 -1000 L 900 1000 M 910 -1000 L 910 1000 M 920 -1000 L 920 1000 M 930 -1000 L 930 1000 M 940 -1000 L 940 1000 M 950 -1000 L 950 1000 M 960 -1000 L 960 1000 M 970 -1000 L 970 1000 M 980 -1000 L 980 1000 M 990 -1000 L 990 1000 M 1000 -1000 L 1000 1000 M -1000 -1000 L 1000 -1000 M -1000 -990 L 1000 -990 M -1000 -980 L 1000 -980 M -1000 -970 L 1000 -970 M -1000 -960 L 1000 -960 M -1000 -950 L 1000 -950 M -1000 -940 L 1000 -940 M -1000 -930 L 1000 -930 M -1000 -920 L 1000 -920 M -1000 -910 L 1000 -910 M -1000 -900 L 1000 -900 M -1000 -890 L 1000 -890 M -1000 -880 L 1000 -880 M -1000 -870 L 1000 -870 M -1000 -860 L 1000 -860 M -1000 -850 L 1000 -850 M -1000 -840 L 1000 -840 M -1000 -830 L 1000 -830 M -1000 -820 L 1000 -820 M -1000 -810 L 1000 -810 M -1000 -800 L 1000 -800 M -1000 -790 L 1000 -790 M -1000 -780 L 1000 -780 M -1000 -770 L 1000 -770 M -1000 -760 L 1000 -760 M -1000 -750 L 1000 -750 M -1000 -740 L 1000 -740 M -1000 -730 L 1000 -730 M -1000 -720 L 1000 -720 M -1000 -710 L 1000 -710 M -1000 -700 L 1000 -700 M -1000 -690 L 1000 -690 M -1000 -680 L 1000 -680 M -1000 -670 L 1000 -670 M -1000 -660 L 1000 -660 M -1000 -650 L 1000 -650 M -1000 -640 L 1000 -640 M -1000 -630 L 1000 -630 M -1000 -620 L 1000 -620 M -1000 -610 L 1000 -610 M -1000 -600 L 1000 -600 M -1000 -590 L 1000 -590 M -1000 -580 L 1000 -580 M -1000 -570 L 1000 -570 M -1000 -560 L 1000 -560 M -1000 -550 L 1000 -550 M -1000 -540 L 1000 -540 M -1000 -530 L 1000 -530 M -1000 -520 L 1000 -520 M -1000 -510 L 1000 -510 M -1000 -500 L 1000 -500 M -1000 -490 L 1000 -490 M -1000 -480 L 1000 -480 M -1000 -470 L 1000 -470 M -1000 -460 L 1000 -460 M -1000 -450 L 1000 -450 M -1000 -440 L 1000 -440 M -1000 -430 L 1000 -430 M -1000 -420 L 1000 -420 M -1000 -410 L 1000 -410 M -1000 -400 L 1000 -400 M -1000 -390 L 1000 -390 M -1000 -380 L 1000 -380 M -1000 -370 L 1000 -370 M -1000 -360 L 1000 -360 M -1000 -350 L 1000 -350 M -1000 -340 L 1000 -340 M -1000 -330 L 1000 -330 M -1000 -320 L 1000 -320 M -1000 -310 L 1000 -310 M -1000 -300 L 1000 -300 M -1000 -290 L 1000 -290 M -1000 -280 L 1000 -280 M -1000 -270 L 1000 -270 M -1000 -260 L 1000 -260 M -1000 -250 L 1000 -250 M -1000 -240 L 1000 -240 M -1000 -230 L 1000 -230 M -1000 -220 L 1000 -220 M -1000 -210 L 1000 -210 M -1000 -200 L 1000 -200 M -1000 -190 L 1000 -190 M -1000 -180 L 1000 -180 M -1000 -170 L 1000 -170 M -1000 -160 L 1000 -160 M -1000 -150 L 1000 -150 M -1000 -140 L 1000 -140 M -1000 -130 L 1000 -130 M -1000 -120 L 1000 -120 M -1000 -110 L 1000 -110 M -1000 -100 L 1000 -100 M -1000 -90 L 1000 -90 M -1000 -80 L 1000 -80 M -1000 -70 L 1000 -70 M -1000 -60 L 1000 -60 M -1000 -50 L 1000 -50 M -1000 -40 L 1000 -40 M -1000 -30 L 1000 -30 M -1000 -20 L 1000 -20 M -1000 -10 L 1000 -10 M -1000 0 L 1000 0 M -1000 10 L 1000 10 M -1000 20 L 1000 20 M -1000 30 L 1000 30 M -1000 40 L 1000 40 M -1000 50 L 1000 50 M -1000 60 L 1000 60 M -1000 70 L 1000 70 M -1000 80 L 1000 80 M -1000 90 L 1000 90 M -1000 100 L 1000 100 M -1000 110 L 1000 110 M -1000 120 L 1000 120 M -1000 130 L 1000 130 M -1000 140 L 1000 140 M -1000 150 L 1000 150 M -1000 160 L 1000 160 M -1000 170 L 1000 170 M -1000 180 L 1000 180 M -1000 190 L 1000 190 M -1000 200 L 1000 200 M -1000 210 L 1000 210 M -1000 220 L 1000 220 M -1000 230 L 1000 230 M -1000 240 L 1000 240 M -1000 250 L 1000 250 M -1000 260 L 1000 260 M -1000 270 L 1000 270 M -1000 280 L 1000 280 M -1000 290 L 1000 290 M -1000 300 L 1000 300 M -1000 310 L 1000 310 M -1000 320 L 1000 320 M -1000 330 L 1000 330 M -1000 340 L 1000 340 M -1000 350 L 1000 350 M -1000 360 L 1000 360 M -1000 370 L 1000 370 M -1000 380 L 1000 380 M -1000 390 L 1000 390 M -1000 400 L 1000 400 M -1000 410 L 1000 410 M -1000 420 L 1000 420 M -1000 430 L 1000 430 M -1000 440 L 1000 440 M -1000 450 L 1000 450 M -1000 460 L 1000 460 M -1000 470 L 1000 470 M -1000 480 L 1000 480 M -1000 490 L 1000 490 M -1000 500 L 1000 500 M -1000 510 L 1000 510 M -1000 520 L 1000 520 M -1000 530 L 1000 530 M -1000 540 L 1000 540 M -1000 550 L 1000 550 M -1000 560 L 1000 560 M -1000 570 L 1000 570 M -1000 580 L 1000 580 M -1000 590 L 1000 590 M -1000 600 L 1000 600 M -1000 610 L 1000 610 M -1000 620 L 1000 620 M -1000 630 L 1000 630 M -1000 640 L 1000 640 M -1000 650 L 1000 650 M -1000 660 L 1000 660 M -1000 670 L 1000 670 M -1000 680 L 1000 680 M -1000 690 L 1000 690 M -1000 700 L 1000 700 M -1000 710 L 1000 710 M -1000 720 L 1000 720 M -1000 730 L 1000 730 M -1000 740 L 1000 740 M -1000 750 L 1000 750 M -1000 760 L 1000 760 M -1000 770 L 1000 770 M -1000 780 L 1000 780 M -1000 790 L 1000 790 M -1000 800 L 1000 800 M -1000 810 L 1000 810 M -1000 820 L 1000 820 M -1000 830 L 1000 830 M -1000 840 L 1000 840 M -1000 850 L 1000 850 M -1000 860 L 1000 860 M -1000 870 L 1000 870 M -1000 880 L 1000 880 M -1000 890 L 1000 890 M -1000 900 L 1000 900 M -1000 910 L 1000 910 M -1000 920 L 1000 920 M -1000 930 L 1000 930 M -1000 940 L 1000 940 M -1000 950 L 1000 950 M -1000 960 L 1000 960 M -1000 970 L 1000 970 M -1000 980 L 1000 980 M -1000 990 L 1000 990 M -1000 1000 L 1000 1000 "/>
</g>
</defs>
<g id="surface1">
<use xlink:href="#surface5" mask="url(#mask0)"/>
<path style="fill:none;stroke-width:2;stroke-linecap:butt;stroke-linejoin:bevel;stroke:rgb(36.8417%,50.6779%,70.9798%);stroke-opacity:1;stroke-miterlimit:10;" d="M 287.71875 182.570312 L 278.730469 149.835938 L 276.894531 113.65625 Z M 287.71875 182.570312 "/>
<path style=" stroke:none;fill-rule:nonzero;fill:rgb(88.0722%,61.1041%,14.2051%);fill-opacity:1;" d="M 290.71875 182.570312 C 290.71875 186.570312 284.71875 186.570312 284.71875 182.570312 C 284.71875 178.570312 290.71875 178.570312 290.71875 182.570312 "/>
<path style=" stroke:none;fill-rule:nonzero;fill:rgb(88.0722%,61.1041%,14.2051%);fill-opacity:1;" d="M 281.730469 149.835938 C 281.730469 153.835938 275.730469 153.835938 275.730469 149.835938 C 275.730469 145.835938 281.730469 145.835938 281.730469 149.835938 "/>
<path style=" stroke:none;fill-rule:nonzero;fill:rgb(88.0722%,61.1041%,14.2051%);fill-opacity:1;" d="M 279.894531 113.65625 C 279.894531 117.65625 273.894531 117.65625 273.894531 113.65625 C 273.894531 109.65625 279.894531 109.65625 279.894531 113.65625 "/>
<path style="fill:none;stroke-width:2;stroke-linecap:butt;stroke-linejoin:bevel;stroke:rgb(36.8417%,50.6779%,70.9798%);stroke-opacity:1;stroke-miterlimit:10;" d="M 287.71875 182.570312 L 257.265625 184.617188 L 278.730469 149.835938 Z M 287.71875 182.570312 "/>
<path style=" stroke:none;fill-rule:nonzero;fill:rgb(88.0722%,61.1041%,14.2051%);fill-opacity:1;" d="M 290.71875 182.570312 C 290.71875 186.570312 284.71875 186.570312 284.71875 182.570312 C 284.71875 178.570312 290.71875 178.570312 290.71875 182.570312 "/>
<path style=" stroke:none;fill-rule:nonzero;fill:rgb(88.0722%,61.1041%,14.2051%);fill-opacity:1;" d="M 260.265625 184.617188 C 260.265625 188.617188 254.265625 188.617188 254.265625 184.617188 C 254.265625 180.617188 260.265625 180.617188 260.265625 184.617188 "/>
<path style=" stroke:none;fill-rule:nonzero;fill:rgb(88.0722%,61.1041%,14.2051%);fill-opacity:1;" d="M 281.730469 149.835938 C 281.730469 153.835938 275.730469 153.835938 275.730469 149.835938 C 275.730469 145.835938 281.730469 145.835938 281.730469 149.835938 "/>
<path style="fill:none;stroke-width:2;stroke-linecap:butt;stroke-linejoin:bevel;stroke:rgb(36.8417%,50.6779%,70.9798%);stroke-opacity:1;stroke-miterlimit:10;" d="M 234.753906 74.285156 L 233.851562 112.90625 L 194.980469 88.386719 Z M 234.753906 74.285156 "/>
<path style=" stroke:none;fill-rule:nonzero;fill:rgb(88.0722%,61.1041%,14.2051%);fill-opacity:1;" d="M 237.753906 74.285156 C 237.753906 78.285156 231.753906 78.285156 231.753906 74.285156 C 231.753906 70.285156 237.753906 70.285156 237.753906 74.285156 "/>
<path style=" stroke:none;fill-rule:nonzero;fill:rgb(88.0722%,61.1041%,14.2051%);fill-opacity:1;" d="M 236.851562 112.90625 C 236.851562 116.90625 230.851562 116.90625 230.851562 112.90625 C 230.851562 108.90625 236.851562 108.90625 236.851562 112.90625 "/>
<path style=" stroke:none;fill-rule:nonzero;fill:rgb(88.0722%,61.1041%,14.2051%);fill-opacity:1;" d="M 197.980469 88.386719 C 197.980469 92.386719 191.980469 92.386719 191.980469 88.386719 C 191.980469 84.386719 197.980469 84.386719 197.980469 88.386719 "/>
<path style="fill:none;stroke-width:2;stroke-linecap:butt;stroke-linejoin:bevel;stroke:rgb(36.8417%,50.6779%,70.9798%);stroke-opacity:1;stroke-miterlimit:10;" d="M 194.980469 88.386719 L 154.703125 116.148438 L 159.269531 74.402344 Z M 194.980469 88.386719 "/>
<path style=" stroke:none;fill-rule:nonzero;fill:rgb(88.0722%,61.1041%,14.2051%);fill-opacity:1;" d="M 197.980469 88.386719 C 197.980469 92.386719 191.980469 92.386719 191.980469 88.386719 C 191.980469 84.386719 197.980469 84.386719 197.980469 88.386719 "/>
<path style=" stroke:none;fill-rule:nonzero;fill:rgb(88.0722%,61.1041%,14.2051%);fill-opacity:1;" d="M 157.703125 116.148438 C 157.703125 120.148438 151.703125 120.148438 151.703125 116.148438 C 151.703125 112.148438 157.703125 112.148438 157.703125 116.148438 "/>
<path style=" stroke:none;fill-rule:nonzero;fill:rgb(88.0722%,61.1041%,14.2051%);fill-opacity:1;" d="M 162.269531 74.402344 C 162.269531 78.402344 156.269531 78.402344 156.269531 74.402344 C 156.269531 70.402344 162.269531 70.402344 162.269531 74.402344 "/>
<path style="fill:none;stroke-width:2;stroke-linecap:butt;stroke-linejoin:bevel;stroke:rgb(36.8417%,50.6779%,70.9798%);stroke-opacity:1;stroke-miterlimit:10;" d="M 177.558594 176.394531 L 132.351562 185.148438 L 144.402344 151.410156 Z M 177.558594 176.394531 "/>
<path style=" stroke:none;fill-rule:nonzero;fill:rgb(88.0722%,61.1041%,14.2051%);fill-opacity:1;" d="M 180.558594 176.394531 C 180.558594 180.394531 174.558594 180.394531 174.558594 176.394531 C 174.558594 172.394531 180.558594 172.394531 180.558594 176.394531 "/>
<path style=" stroke:none;fill-rule:nonzero;fill:rgb(88.0722%,61.1041%,14.2051%);fill-opacity:1;" d="M 135.351562 185.148438 C 135.351562 189.148438 129.351562 189.148438 129.351562 185.148438 C 129.351562 181.148438 135.351562 181.148438 135.351562 185.148438 "/>
<path style=" stroke:none;fill-rule:nonzero;fill:rgb(88.0722%,61.1041%,14.2051%);fill-opacity:1;" d="M 147.402344 151.410156 C 147.402344 155.410156 141.402344 155.410156 141.402344 151.410156 C 141.402344 147.410156 147.402344 147.410156 147.402344 151.410156 "/>
<path style="fill:none;stroke-width:2;stroke-linecap:butt;stroke-linejoin:bevel;stroke:rgb(36.8417%,50.6779%,70.9798%);stroke-opacity:1;stroke-miterlimit:10;" d="M 279.070312 70.636719 L 232.085938 40.769531 L 275.847656 22.714844 Z M 279.070312 70.636719 "/>
<path style=" stroke:none;fill-rule:nonzero;fill:rgb(88.0722%,61.1041%,14.2051%);fill-opacity:1;" d="M 282.070312 70.636719 C 282.070312 74.636719 276.070312 74.636719 276.070312 70.636719 C 276.070312 66.636719 282.070312 66.636719 282.070312 70.636719 "/>
<path style=" stroke:none;fill-rule:nonzero;fill:rgb(88.0722%,61.1041%,14.2051%);fill-opacity:1;" d="M 235.085938 40.769531 C 235.085938 44.769531 229.085938 44.769531 229.085938 40.769531 C 229.085938 36.769531 235.085938 36.769531 235.085938 40.769531 "/>
<path style=" stroke:none;fill-rule:nonzero;fill:rgb(88.0722%,61.1041%,14.2051%);fill-opacity:1;" d="M 278.847656 22.714844 C 278.847656 26.714844 272.847656 26.714844 272.847656 22.714844 C 272.847656 18.714844 278.847656 18.714844 278.847656 22.714844 "/>
<path style="fill:none;stroke-width:2;stroke-linecap:butt;stroke-linejoin:bevel;stroke:rgb(36.8417%,50.6779%,70.9798%);stroke-opacity:1;stroke-miterlimit:10;" d="M 279.070312 70.636719 L 276.894531 113.65625 L 234.753906 74.285156 Z M 279.070312 70.636719 "/>
<path style=" stroke:none;fill-rule:nonzero;fill:rgb(88.0722%,61.1041%,14.2051%);fill-opacity:1;" d="M 282.070312 70.636719 C 282.070312 74.636719 276.070312 74.636719 276.070312 70.636719 C 276.070312 66.636719 282.070312 66.636719 282.070312 70.636719 "/>
<path style=" stroke:none;fill-rule:nonzero;fill:rgb(88.0722%,61.1041%,14.2051%);fill-opacity:1;" d="M 279.894531 113.65625 C 279.894531 117.65625 273.894531 117.65625 273.894531 113.65625 C 273.894531 109.65625 279.894531 109.65625 279.894531 113.65625 "/>
<path style=" stroke:none;fill-rule:nonzero;fill:rgb(88.0722%,61.1041%,14.2051%);fill-opacity:1;" d="M 237.753906 74.285156 C 237.753906 78.285156 231.753906 78.285156 231.753906 74.285156 C 231.753906 70.285156 237.753906 70.285156 237.753906 74.285156 "/>
<path style="fill:none;stroke-width:2;stroke-linecap:butt;stroke-linejoin:bevel;stroke:rgb(36.8417%,50.6779%,70.9798%);stroke-opacity:1;stroke-miterlimit:10;" d="M 279.070312 70.636719 L 234.753906 74.285156 L 232.085938 40.769531 Z M 279.070312 70.636719 "/>
<path style=" stroke:none;fill-rule:nonzero;fill:rgb(88.0722%,61.1041%,14.2051%);fill-opacity:1;" d="M 282.070312 70.636719 C 282.070312 74.636719 276.070312 74.636719 276.070312 70.636719 C 276.070312 66.636719 282.070312 66.636719 282.070312 70.636719 "/>
<path style=" stroke:none;fill-rule:nonzero;fill:rgb(88.0722%,61.1041%,14.2051%);fill-opacity:1;" d="M 237.753906 74.285156 C 237.753906 78.285156 231.753906 78.285156 231.753906 74.285156 C 231.753906 70.285156 237.753906 70.285156 237.753906 74.285156 "/>
<path style=" stroke:none;fill-rule:nonzero;fill:rgb(88.0722%,61.1041%,14.2051%);fill-opacity:1;" d="M 235.085938 40.769531 C 235.085938 44.769531 229.085938 44.769531 229.085938 40.769531 C 229.085938 36.769531 235.085938 36.769531 235.085938 40.769531 "/>
<path style="fill:none;stroke-width:2;stroke-linecap:butt;stroke-linejoin:bevel;stroke:rgb(36.8417%,50.6779%,70.9798%);stroke-opacity:1;stroke-miterlimit:10;" d="M 234.753906 74.285156 L 194.980469 88.386719 L 232.085938 40.769531 Z M 234.753906 74.285156 "/>
<path style=" stroke:none;fill-rule:nonzero;fill:rgb(88.0722%,61.1041%,14.2051%);fill-opacity:1;" d="M 237.753906 74.285156 C 237.753906 78.285156 231.753906 78.285156 231.753906 74.285156 C 231.753906 70.285156 237.753906 70.285156 237.753906 74.285156 "/>
<path style=" stroke:none;fill-rule:nonzero;fill:rgb(88.0722%,61.1041%,14.2051%);fill-opacity:1;" d="M 197.980469 88.386719 C 197.980469 92.386719 191.980469 92.386719 191.980469 88.386719 C 191.980469 84.386719 197.980469 84.386719 197.980469 88.386719 "/>
<path style=" stroke:none;fill-rule:nonzero;fill:rgb(88.0722%,61.1041%,14.2051%);fill-opacity:1;" d="M 235.085938 40.769531 C 235.085938 44.769531 229.085938 44.769531 229.085938 40.769531 C 229.085938 36.769531 235.085938 36.769531 235.085938 40.769531 "/>
<path style="fill:none;stroke-width:2;stroke-linecap:butt;stroke-linejoin:bevel;stroke:rgb(36.8417%,50.6779%,70.9798%);stroke-opacity:1;stroke-miterlimit:10;" d="M 178.210938 27.890625 L 159.269531 74.402344 L 139.183594 36.914062 Z M 178.210938 27.890625 "/>
<path style=" stroke:none;fill-rule:nonzero;fill:rgb(88.0722%,61.1041%,14.2051%);fill-opacity:1;" d="M 181.210938 27.890625 C 181.210938 31.890625 175.210938 31.890625 175.210938 27.890625 C 175.210938 23.890625 181.210938 23.890625 181.210938 27.890625 "/>
<path style=" stroke:none;fill-rule:nonzero;fill:rgb(88.0722%,61.1041%,14.2051%);fill-opacity:1;" d="M 162.269531 74.402344 C 162.269531 78.402344 156.269531 78.402344 156.269531 74.402344 C 156.269531 70.402344 162.269531 70.402344 162.269531 74.402344 "/>
<path style=" stroke:none;fill-rule:nonzero;fill:rgb(88.0722%,61.1041%,14.2051%);fill-opacity:1;" d="M 142.183594 36.914062 C 142.183594 40.914062 136.183594 40.914062 136.183594 36.914062 C 136.183594 32.914062 142.183594 32.914062 142.183594 36.914062 "/>
<path style="fill:none;stroke-width:2;stroke-linecap:butt;stroke-linejoin:bevel;stroke:rgb(36.8417%,50.6779%,70.9798%);stroke-opacity:1;stroke-miterlimit:10;" d="M 139.183594 36.914062 L 94.796875 59.269531 L 104.398438 16.5625 Z M 139.183594 36.914062 "/>
<path style=" stroke:none;fill-rule:nonzero;fill:rgb(88.0722%,61.1041%,14.2051%);fill-opacity:1;" d="M 142.183594 36.914062 C 142.183594 40.914062 136.183594 40.914062 136.183594 36.914062 C 136.183594 32.914062 142.183594 32.914062 142.183594 36.914062 "/>
<path style=" stroke:none;fill-rule:nonzero;fill:rgb(88.0722%,61.1041%,14.2051%);fill-opacity:1;" d="M 97.796875 59.269531 C 97.796875 63.269531 91.796875 63.269531 91.796875 59.269531 C 91.796875 55.269531 97.796875 55.269531 97.796875 59.269531 "/>
<path style=" stroke:none;fill-rule:nonzero;fill:rgb(88.0722%,61.1041%,14.2051%);fill-opacity:1;" d="M 107.398438 16.5625 C 107.398438 20.5625 101.398438 20.5625 101.398438 16.5625 C 101.398438 12.5625 107.398438 12.5625 107.398438 16.5625 "/>
<path style="fill:none;stroke-width:2;stroke-linecap:butt;stroke-linejoin:bevel;stroke:rgb(36.8417%,50.6779%,70.9798%);stroke-opacity:1;stroke-miterlimit:10;" d="M 178.210938 27.890625 L 139.183594 36.914062 L 104.398438 16.5625 Z M 178.210938 27.890625 "/>
<path style=" stroke:none;fill-rule:nonzero;fill:rgb(88.0722%,61.1041%,14.2051%);fill-opacity:1;" d="M 181.210938 27.890625 C 181.210938 31.890625 175.210938 31.890625 175.210938 27.890625 C 175.210938 23.890625 181.210938 23.890625 181.210938 27.890625 "/>
<path style=" stroke:none;fill-rule:nonzero;fill:rgb(88.0722%,61.1041%,14.2051%);fill-opacity:1;" d="M 142.183594 36.914062 C 142.183594 40.914062 136.183594 40.914062 136.183594 36.914062 C 136.183594 32.914062 142.183594 32.914062 142.183594 36.914062 "/>
<path style=" stroke:none;fill-rule:nonzero;fill:rgb(88.0722%,61.1041%,14.2051%);fill-opacity:1;" d="M 107.398438 16.5625 C 107.398438 20.5625 101.398438 20.5625 101.398438 16.5625 C 101.398438 12.5625 107.398438 12.5625 107.398438 16.5625 "/>
<path style="fill:none;stroke-width:2;stroke-linecap:butt;stroke-linejoin:bevel;stroke:rgb(36.8417%,50.6779%,70.9798%);stroke-opacity:1;stroke-miterlimit:10;" d="M 216.511719 183.652344 L 177.558594 176.394531 L 197.433594 137.234375 Z M 216.511719 183.652344 "/>
<path style=" stroke:none;fill-rule:nonzero;fill:rgb(88.0722%,61.1041%,14.2051%);fill-opacity:1;" d="M 219.511719 183.652344 C 219.511719 187.652344 213.511719 187.652344 213.511719 183.652344 C 213.511719 179.652344 219.511719 179.652344 219.511719 183.652344 "/>
<path style=" stroke:none;fill-rule:nonzero;fill:rgb(88.0722%,61.1041%,14.2051%);fill-opacity:1;" d="M 180.558594 176.394531 C 180.558594 180.394531 174.558594 180.394531 174.558594 176.394531 C 174.558594 172.394531 180.558594 172.394531 180.558594 176.394531 "/>
<path style=" stroke:none;fill-rule:nonzero;fill:rgb(88.0722%,61.1041%,14.2051%);fill-opacity:1;" d="M 200.433594 137.234375 C 200.433594 141.234375 194.433594 141.234375 194.433594 137.234375 C 194.433594 133.234375 200.433594 133.234375 200.433594 137.234375 "/>
<path style="fill:none;stroke-width:2;stroke-linecap:butt;stroke-linejoin:bevel;stroke:rgb(36.8417%,50.6779%,70.9798%);stroke-opacity:1;stroke-miterlimit:10;" d="M 232.085938 40.769531 L 178.210938 27.890625 L 217.921875 13.324219 Z M 232.085938 40.769531 "/>
<path style=" stroke:none;fill-rule:nonzero;fill:rgb(88.0722%,61.1041%,14.2051%);fill-opacity:1;" d="M 235.085938 40.769531 C 235.085938 44.769531 229.085938 44.769531 229.085938 40.769531 C 229.085938 36.769531 235.085938 36.769531 235.085938 40.769531 "/>
<path style=" stroke:none;fill-rule:nonzero;fill:rgb(88.0722%,61.1041%,14.2051%);fill-opacity:1;" d="M 181.210938 27.890625 C 181.210938 31.890625 175.210938 31.890625 175.210938 27.890625 C 175.210938 23.890625 181.210938 23.890625 181.210938 27.890625 "/>
<path style=" stroke:none;fill-rule:nonzero;fill:rgb(88.0722%,61.1041%,14.2051%);fill-opacity:1;" d="M 220.921875 13.324219 C 220.921875 17.324219 214.921875 17.324219 214.921875 13.324219 C 214.921875 9.324219 220.921875 9.324219 220.921875 13.324219 "/>
<path style="fill:none;stroke-width:2;stroke-linecap:butt;stroke-linejoin:bevel;stroke:rgb(36.8417%,50.6779%,70.9798%);stroke-opacity:1;stroke-miterlimit:10;" d="M 194.980469 88.386719 L 159.269531 74.402344 L 178.210938 27.890625 Z M 194.980469 88.386719 "/>
<path style=" stroke:none;fill-rule:nonzero;fill:rgb(88.0722%,61.1041%,14.2051%);fill-opacity:1;" d="M 197.980469 88.386719 C 197.980469 92.386719 191.980469 92.386719 191.980469 88.386719 C 191.980469 84.386719 197.980469 84.386719 197.980469 88.386719 "/>
<path style=" stroke:none;fill-rule:nonzero;fill:rgb(88.0722%,61.1041%,14.2051%);fill-opacity:1;" d="M 162.269531 74.402344 C 162.269531 78.402344 156.269531 78.402344 156.269531 74.402344 C 156.269531 70.402344 162.269531 70.402344 162.269531 74.402344 "/>
<path style=" stroke:none;fill-rule:nonzero;fill:rgb(88.0722%,61.1041%,14.2051%);fill-opacity:1;" d="M 181.210938 27.890625 C 181.210938 31.890625 175.210938 31.890625 175.210938 27.890625 C 175.210938 23.890625 181.210938 23.890625 181.210938 27.890625 "/>
<path style="fill:none;stroke-width:2;stroke-linecap:butt;stroke-linejoin:bevel;stroke:rgb(36.8417%,50.6779%,70.9798%);stroke-opacity:1;stroke-miterlimit:10;" d="M 139.183594 36.914062 L 115.886719 90.917969 L 94.796875 59.269531 Z M 139.183594 36.914062 "/>
<path style=" stroke:none;fill-rule:nonzero;fill:rgb(88.0722%,61.1041%,14.2051%);fill-opacity:1;" d="M 142.183594 36.914062 C 142.183594 40.914062 136.183594 40.914062 136.183594 36.914062 C 136.183594 32.914062 142.183594 32.914062 142.183594 36.914062 "/>
<path style=" stroke:none;fill-rule:nonzero;fill:rgb(88.0722%,61.1041%,14.2051%);fill-opacity:1;" d="M 118.886719 90.917969 C 118.886719 94.917969 112.886719 94.917969 112.886719 90.917969 C 112.886719 86.917969 118.886719 86.917969 118.886719 90.917969 "/>
<path style=" stroke:none;fill-rule:nonzero;fill:rgb(88.0722%,61.1041%,14.2051%);fill-opacity:1;" d="M 97.796875 59.269531 C 97.796875 63.269531 91.796875 63.269531 91.796875 59.269531 C 91.796875 55.269531 97.796875 55.269531 97.796875 59.269531 "/>
<path style="fill:none;stroke-width:2;stroke-linecap:butt;stroke-linejoin:bevel;stroke:rgb(36.8417%,50.6779%,70.9798%);stroke-opacity:1;stroke-miterlimit:10;" d="M 94.796875 59.269531 L 66.742188 95.035156 L 60.847656 35.121094 Z M 94.796875 59.269531 "/>
<path style=" stroke:none;fill-rule:nonzero;fill:rgb(88.0722%,61.1041%,14.2051%);fill-opacity:1;" d="M 97.796875 59.269531 C 97.796875 63.269531 91.796875 63.269531 91.796875 59.269531 C 91.796875 55.269531 97.796875 55.269531 97.796875 59.269531 "/>
<path style=" stroke:none;fill-rule:nonzero;fill:rgb(88.0722%,61.1041%,14.2051%);fill-opacity:1;" d="M 69.742188 95.035156 C 69.742188 99.035156 63.742188 99.035156 63.742188 95.035156 C 63.742188 91.035156 69.742188 91.035156 69.742188 95.035156 "/>
<path style=" stroke:none;fill-rule:nonzero;fill:rgb(88.0722%,61.1041%,14.2051%);fill-opacity:1;" d="M 63.847656 35.121094 C 63.847656 39.121094 57.847656 39.121094 57.847656 35.121094 C 57.847656 31.121094 63.847656 31.121094 63.847656 35.121094 "/>
<path style="fill:none;stroke-width:2;stroke-linecap:butt;stroke-linejoin:bevel;stroke:rgb(36.8417%,50.6779%,70.9798%);stroke-opacity:1;stroke-miterlimit:10;" d="M 66.742188 95.035156 L 20.59375 48.140625 L 60.847656 35.121094 Z M 66.742188 95.035156 "/>
<path style=" stroke:none;fill-rule:nonzero;fill:rgb(88.0722%,61.1041%,14.2051%);fill-opacity:1;" d="M 69.742188 95.035156 C 69.742188 99.035156 63.742188 99.035156 63.742188 95.035156 C 63.742188 91.035156 69.742188 91.035156 69.742188 95.035156 "/>
<path style=" stroke:none;fill-rule:nonzero;fill:rgb(88.0722%,61.1041%,14.2051%);fill-opacity:1;" d="M 23.59375 48.140625 C 23.59375 52.140625 17.59375 52.140625 17.59375 48.140625 C 17.59375 44.140625 23.59375 44.140625 23.59375 48.140625 "/>
<path style=" stroke:none;fill-rule:nonzero;fill:rgb(88.0722%,61.1041%,14.2051%);fill-opacity:1;" d="M 63.847656 35.121094 C 63.847656 39.121094 57.847656 39.121094 57.847656 35.121094 C 57.847656 31.121094 63.847656 31.121094 63.847656 35.121094 "/>
<path style="fill:none;stroke-width:2;stroke-linecap:butt;stroke-linejoin:bevel;stroke:rgb(36.8417%,50.6779%,70.9798%);stroke-opacity:1;stroke-miterlimit:10;" d="M 66.742188 95.035156 L 22.917969 89.585938 L 20.59375 48.140625 Z M 66.742188 95.035156 "/>
<path style=" stroke:none;fill-rule:nonzero;fill:rgb(88.0722%,61.1041%,14.2051%);fill-opacity:1;" d="M 69.742188 95.035156 C 69.742188 99.035156 63.742188 99.035156 63.742188 95.035156 C 63.742188 91.035156 69.742188 91.035156 69.742188 95.035156 "/>
<path style=" stroke:none;fill-rule:nonzero;fill:rgb(88.0722%,61.1041%,14.2051%);fill-opacity:1;" d="M 25.917969 89.585938 C 25.917969 93.585938 19.917969 93.585938 19.917969 89.585938 C 19.917969 85.585938 25.917969 85.585938 25.917969 89.585938 "/>
<path style=" stroke:none;fill-rule:nonzero;fill:rgb(88.0722%,61.1041%,14.2051%);fill-opacity:1;" d="M 23.59375 48.140625 C 23.59375 52.140625 17.59375 52.140625 17.59375 48.140625 C 17.59375 44.140625 23.59375 44.140625 23.59375 48.140625 "/>
<path style="fill:none;stroke-width:2;stroke-linecap:butt;stroke-linejoin:bevel;stroke:rgb(36.8417%,50.6779%,70.9798%);stroke-opacity:1;stroke-miterlimit:10;" d="M 106.710938 129.902344 L 61.996094 139.210938 L 66.742188 95.035156 Z M 106.710938 129.902344 "/>
<path style=" stroke:none;fill-rule:nonzero;fill:rgb(88.0722%,61.1041%,14.2051%);fill-opacity:1;" d="M 109.710938 129.902344 C 109.710938 133.902344 103.710938 133.902344 103.710938 129.902344 C 103.710938 125.902344 109.710938 125.902344 109.710938 129.902344 "/>
<path style=" stroke:none;fill-rule:nonzero;fill:rgb(88.0722%,61.1041%,14.2051%);fill-opacity:1;" d="M 64.996094 139.210938 C 64.996094 143.210938 58.996094 143.210938 58.996094 139.210938 C 58.996094 135.210938 64.996094 135.210938 64.996094 139.210938 "/>
<path style=" stroke:none;fill-rule:nonzero;fill:rgb(88.0722%,61.1041%,14.2051%);fill-opacity:1;" d="M 69.742188 95.035156 C 69.742188 99.035156 63.742188 99.035156 63.742188 95.035156 C 63.742188 91.035156 69.742188 91.035156 69.742188 95.035156 "/>
<path style="fill:none;stroke-width:2;stroke-linecap:butt;stroke-linejoin:bevel;stroke:rgb(36.8417%,50.6779%,70.9798%);stroke-opacity:1;stroke-miterlimit:10;" d="M 106.710938 129.902344 L 96.070312 171.132812 L 61.996094 139.210938 Z M 106.710938 129.902344 "/>
<path style=" stroke:none;fill-rule:nonzero;fill:rgb(88.0722%,61.1041%,14.2051%);fill-opacity:1;" d="M 109.710938 129.902344 C 109.710938 133.902344 103.710938 133.902344 103.710938 129.902344 C 103.710938 125.902344 109.710938 125.902344 109.710938 129.902344 "/>
<path style=" stroke:none;fill-rule:nonzero;fill:rgb(88.0722%,61.1041%,14.2051%);fill-opacity:1;" d="M 99.070312 171.132812 C 99.070312 175.132812 93.070312 175.132812 93.070312 171.132812 C 93.070312 167.132812 99.070312 167.132812 99.070312 171.132812 "/>
<path style=" stroke:none;fill-rule:nonzero;fill:rgb(88.0722%,61.1041%,14.2051%);fill-opacity:1;" d="M 64.996094 139.210938 C 64.996094 143.210938 58.996094 143.210938 58.996094 139.210938 C 58.996094 135.210938 64.996094 135.210938 64.996094 139.210938 "/>
<path style="fill:none;stroke-width:2;stroke-linecap:butt;stroke-linejoin:bevel;stroke:rgb(36.8417%,50.6779%,70.9798%);stroke-opacity:1;stroke-miterlimit:10;" d="M 104.398438 16.5625 L 94.796875 59.269531 L 60.847656 35.121094 Z M 104.398438 16.5625 "/>
<path style=" stroke:none;fill-rule:nonzero;fill:rgb(88.0722%,61.1041%,14.2051%);fill-opacity:1;" d="M 107.398438 16.5625 C 107.398438 20.5625 101.398438 20.5625 101.398438 16.5625 C 101.398438 12.5625 107.398438 12.5625 107.398438 16.5625 "/>
<path style=" stroke:none;fill-rule:nonzero;fill:rgb(88.0722%,61.1041%,14.2051%);fill-opacity:1;" d="M 97.796875 59.269531 C 97.796875 63.269531 91.796875 63.269531 91.796875 59.269531 C 91.796875 55.269531 97.796875 55.269531 97.796875 59.269531 "/>
<path style=" stroke:none;fill-rule:nonzero;fill:rgb(88.0722%,61.1041%,14.2051%);fill-opacity:1;" d="M 63.847656 35.121094 C 63.847656 39.121094 57.847656 39.121094 57.847656 35.121094 C 57.847656 31.121094 63.847656 31.121094 63.847656 35.121094 "/>
<path style="fill:none;stroke-width:2;stroke-linecap:butt;stroke-linejoin:bevel;stroke:rgb(36.8417%,50.6779%,70.9798%);stroke-opacity:1;stroke-miterlimit:10;" d="M 104.398438 16.5625 L 60.847656 35.121094 L 25.175781 12.9375 Z M 104.398438 16.5625 "/>
<path style=" stroke:none;fill-rule:nonzero;fill:rgb(88.0722%,61.1041%,14.2051%);fill-opacity:1;" d="M 107.398438 16.5625 C 107.398438 20.5625 101.398438 20.5625 101.398438 16.5625 C 101.398438 12.5625 107.398438 12.5625 107.398438 16.5625 "/>
<path style=" stroke:none;fill-rule:nonzero;fill:rgb(88.0722%,61.1041%,14.2051%);fill-opacity:1;" d="M 63.847656 35.121094 C 63.847656 39.121094 57.847656 39.121094 57.847656 35.121094 C 57.847656 31.121094 63.847656 31.121094 63.847656 35.121094 "/>
<path style=" stroke:none;fill-rule:nonzero;fill:rgb(88.0722%,61.1041%,14.2051%);fill-opacity:1;" d="M 28.175781 12.9375 C 28.175781 16.9375 22.175781 16.9375 22.175781 12.9375 C 22.175781 8.9375 28.175781 8.9375 28.175781 12.9375 "/>
<path style="fill:none;stroke-width:2;stroke-linecap:butt;stroke-linejoin:bevel;stroke:rgb(36.8417%,50.6779%,70.9798%);stroke-opacity:1;stroke-miterlimit:10;" d="M 216.511719 183.652344 L 132.351562 185.148438 L 177.558594 176.394531 Z M 216.511719 183.652344 "/>
<path style=" stroke:none;fill-rule:nonzero;fill:rgb(88.0722%,61.1041%,14.2051%);fill-opacity:1;" d="M 219.511719 183.652344 C 219.511719 187.652344 213.511719 187.652344 213.511719 183.652344 C 213.511719 179.652344 219.511719 179.652344 219.511719 183.652344 "/>
<path style=" stroke:none;fill-rule:nonzero;fill:rgb(88.0722%,61.1041%,14.2051%);fill-opacity:1;" d="M 135.351562 185.148438 C 135.351562 189.148438 129.351562 189.148438 129.351562 185.148438 C 129.351562 181.148438 135.351562 181.148438 135.351562 185.148438 "/>
<path style=" stroke:none;fill-rule:nonzero;fill:rgb(88.0722%,61.1041%,14.2051%);fill-opacity:1;" d="M 180.558594 176.394531 C 180.558594 180.394531 174.558594 180.394531 174.558594 176.394531 C 174.558594 172.394531 180.558594 172.394531 180.558594 176.394531 "/>
<path style="fill:none;stroke-width:2;stroke-linecap:butt;stroke-linejoin:bevel;stroke:rgb(36.8417%,50.6779%,70.9798%);stroke-opacity:1;stroke-miterlimit:10;" d="M 257.265625 184.617188 L 216.511719 183.652344 L 238.15625 152.945312 Z M 257.265625 184.617188 "/>
<path style=" stroke:none;fill-rule:nonzero;fill:rgb(88.0722%,61.1041%,14.2051%);fill-opacity:1;" d="M 260.265625 184.617188 C 260.265625 188.617188 254.265625 188.617188 254.265625 184.617188 C 254.265625 180.617188 260.265625 180.617188 260.265625 184.617188 "/>
<path style=" stroke:none;fill-rule:nonzero;fill:rgb(88.0722%,61.1041%,14.2051%);fill-opacity:1;" d="M 219.511719 183.652344 C 219.511719 187.652344 213.511719 187.652344 213.511719 183.652344 C 213.511719 179.652344 219.511719 179.652344 219.511719 183.652344 "/>
<path style=" stroke:none;fill-rule:nonzero;fill:rgb(88.0722%,61.1041%,14.2051%);fill-opacity:1;" d="M 241.15625 152.945312 C 241.15625 156.945312 235.15625 156.945312 235.15625 152.945312 C 235.15625 148.945312 241.15625 148.945312 241.15625 152.945312 "/>
<path style="fill:none;stroke-width:2;stroke-linecap:butt;stroke-linejoin:bevel;stroke:rgb(36.8417%,50.6779%,70.9798%);stroke-opacity:1;stroke-miterlimit:10;" d="M 238.15625 152.945312 L 197.433594 137.234375 L 233.851562 112.90625 Z M 238.15625 152.945312 "/>
<path style=" stroke:none;fill-rule:nonzero;fill:rgb(88.0722%,61.1041%,14.2051%);fill-opacity:1;" d="M 241.15625 152.945312 C 241.15625 156.945312 235.15625 156.945312 235.15625 152.945312 C 235.15625 148.945312 241.15625 148.945312 241.15625 152.945312 "/>
<path style=" stroke:none;fill-rule:nonzero;fill:rgb(88.0722%,61.1041%,14.2051%);fill-opacity:1;" d="M 200.433594 137.234375 C 200.433594 141.234375 194.433594 141.234375 194.433594 137.234375 C 194.433594 133.234375 200.433594 133.234375 200.433594 137.234375 "/>
<path style=" stroke:none;fill-rule:nonzero;fill:rgb(88.0722%,61.1041%,14.2051%);fill-opacity:1;" d="M 236.851562 112.90625 C 236.851562 116.90625 230.851562 116.90625 230.851562 112.90625 C 230.851562 108.90625 236.851562 108.90625 236.851562 112.90625 "/>
<path style="fill:none;stroke-width:2;stroke-linecap:butt;stroke-linejoin:bevel;stroke:rgb(36.8417%,50.6779%,70.9798%);stroke-opacity:1;stroke-miterlimit:10;" d="M 278.730469 149.835938 L 257.265625 184.617188 L 238.15625 152.945312 Z M 278.730469 149.835938 "/>
<path style=" stroke:none;fill-rule:nonzero;fill:rgb(88.0722%,61.1041%,14.2051%);fill-opacity:1;" d="M 281.730469 149.835938 C 281.730469 153.835938 275.730469 153.835938 275.730469 149.835938 C 275.730469 145.835938 281.730469 145.835938 281.730469 149.835938 "/>
<path style=" stroke:none;fill-rule:nonzero;fill:rgb(88.0722%,61.1041%,14.2051%);fill-opacity:1;" d="M 260.265625 184.617188 C 260.265625 188.617188 254.265625 188.617188 254.265625 184.617188 C 254.265625 180.617188 260.265625 180.617188 260.265625 184.617188 "/>
<path style=" stroke:none;fill-rule:nonzero;fill:rgb(88.0722%,61.1041%,14.2051%);fill-opacity:1;" d="M 241.15625 152.945312 C 241.15625 156.945312 235.15625 156.945312 235.15625 152.945312 C 235.15625 148.945312 241.15625 148.945312 241.15625 152.945312 "/>
<path style="fill:none;stroke-width:2;stroke-linecap:butt;stroke-linejoin:bevel;stroke:rgb(36.8417%,50.6779%,70.9798%);stroke-opacity:1;stroke-miterlimit:10;" d="M 276.894531 113.65625 L 238.15625 152.945312 L 233.851562 112.90625 Z M 276.894531 113.65625 "/>
<path style=" stroke:none;fill-rule:nonzero;fill:rgb(88.0722%,61.1041%,14.2051%);fill-opacity:1;" d="M 279.894531 113.65625 C 279.894531 117.65625 273.894531 117.65625 273.894531 113.65625 C 273.894531 109.65625 279.894531 109.65625 279.894531 113.65625 "/>
<path style=" stroke:none;fill-rule:nonzero;fill:rgb(88.0722%,61.1041%,14.2051%);fill-opacity:1;" d="M 241.15625 152.945312 C 241.15625 156.945312 235.15625 156.945312 235.15625 152.945312 C 235.15625 148.945312 241.15625 148.945312 241.15625 152.945312 "/>
<path style=" stroke:none;fill-rule:nonzero;fill:rgb(88.0722%,61.1041%,14.2051%);fill-opacity:1;" d="M 236.851562 112.90625 C 236.851562 116.90625 230.851562 116.90625 230.851562 112.90625 C 230.851562 108.90625 236.851562 108.90625 236.851562 112.90625 "/>
<path style="fill:none;stroke-width:2;stroke-linecap:butt;stroke-linejoin:bevel;stroke:rgb(36.8417%,50.6779%,70.9798%);stroke-opacity:1;stroke-miterlimit:10;" d="M 278.730469 149.835938 L 238.15625 152.945312 L 276.894531 113.65625 Z M 278.730469 149.835938 "/>
<path style=" stroke:none;fill-rule:nonzero;fill:rgb(88.0722%,61.1041%,14.2051%);fill-opacity:1;" d="M 281.730469 149.835938 C 281.730469 153.835938 275.730469 153.835938 275.730469 149.835938 C 275.730469 145.835938 281.730469 145.835938 281.730469 149.835938 "/>
<path style=" stroke:none;fill-rule:nonzero;fill:rgb(88.0722%,61.1041%,14.2051%);fill-opacity:1;" d="M 241.15625 152.945312 C 241.15625 156.945312 235.15625 156.945312 235.15625 152.945312 C 235.15625 148.945312 241.15625 148.945312 241.15625 152.945312 "/>
<path style=" stroke:none;fill-rule:nonzero;fill:rgb(88.0722%,61.1041%,14.2051%);fill-opacity:1;" d="M 279.894531 113.65625 C 279.894531 117.65625 273.894531 117.65625 273.894531 113.65625 C 273.894531 109.65625 279.894531 109.65625 279.894531 113.65625 "/>
<path style="fill:none;stroke-width:2;stroke-linecap:butt;stroke-linejoin:bevel;stroke:rgb(36.8417%,50.6779%,70.9798%);stroke-opacity:1;stroke-miterlimit:10;" d="M 96.070312 171.132812 L 61.367188 182.613281 L 61.996094 139.210938 Z M 96.070312 171.132812 "/>
<path style=" stroke:none;fill-rule:nonzero;fill:rgb(88.0722%,61.1041%,14.2051%);fill-opacity:1;" d="M 99.070312 171.132812 C 99.070312 175.132812 93.070312 175.132812 93.070312 171.132812 C 93.070312 167.132812 99.070312 167.132812 99.070312 171.132812 "/>
<path style=" stroke:none;fill-rule:nonzero;fill:rgb(88.0722%,61.1041%,14.2051%);fill-opacity:1;" d="M 64.367188 182.613281 C 64.367188 186.613281 58.367188 186.613281 58.367188 182.613281 C 58.367188 178.613281 64.367188 178.613281 64.367188 182.613281 "/>
<path style=" stroke:none;fill-rule:nonzero;fill:rgb(88.0722%,61.1041%,14.2051%);fill-opacity:1;" d="M 64.996094 139.210938 C 64.996094 143.210938 58.996094 143.210938 58.996094 139.210938 C 58.996094 135.210938 64.996094 135.210938 64.996094 139.210938 "/>
<path style="fill:none;stroke-width:2;stroke-linecap:butt;stroke-linejoin:bevel;stroke:rgb(36.8417%,50.6779%,70.9798%);stroke-opacity:1;stroke-miterlimit:10;" d="M 61.367188 182.613281 L 20.816406 177.765625 L 61.996094 139.210938 Z M 61.367188 182.613281 "/>
<path style=" stroke:none;fill-rule:nonzero;fill:rgb(88.0722%,61.1041%,14.2051%);fill-opacity:1;" d="M 64.367188 182.613281 C 64.367188 186.613281 58.367188 186.613281 58.367188 182.613281 C 58.367188 178.613281 64.367188 178.613281 64.367188 182.613281 "/>
<path style=" stroke:none;fill-rule:nonzero;fill:rgb(88.0722%,61.1041%,14.2051%);fill-opacity:1;" d="M 23.816406 177.765625 C 23.816406 181.765625 17.816406 181.765625 17.816406 177.765625 C 17.816406 173.765625 23.816406 173.765625 23.816406 177.765625 "/>
<path style=" stroke:none;fill-rule:nonzero;fill:rgb(88.0722%,61.1041%,14.2051%);fill-opacity:1;" d="M 64.996094 139.210938 C 64.996094 143.210938 58.996094 143.210938 58.996094 139.210938 C 58.996094 135.210938 64.996094 135.210938 64.996094 139.210938 "/>
<path style="fill:none;stroke-width:2;stroke-linecap:butt;stroke-linejoin:bevel;stroke:rgb(36.8417%,50.6779%,70.9798%);stroke-opacity:1;stroke-miterlimit:10;" d="M 61.996094 139.210938 L 20.816406 177.765625 L 21.050781 134.175781 Z M 61.996094 139.210938 "/>
<path style=" stroke:none;fill-rule:nonzero;fill:rgb(88.0722%,61.1041%,14.2051%);fill-opacity:1;" d="M 64.996094 139.210938 C 64.996094 143.210938 58.996094 143.210938 58.996094 139.210938 C 58.996094 135.210938 64.996094 135.210938 64.996094 139.210938 "/>
<path style=" stroke:none;fill-rule:nonzero;fill:rgb(88.0722%,61.1041%,14.2051%);fill-opacity:1;" d="M 23.816406 177.765625 C 23.816406 181.765625 17.816406 181.765625 17.816406 177.765625 C 17.816406 173.765625 23.816406 173.765625 23.816406 177.765625 "/>
<path style=" stroke:none;fill-rule:nonzero;fill:rgb(88.0722%,61.1041%,14.2051%);fill-opacity:1;" d="M 24.050781 134.175781 C 24.050781 138.175781 18.050781 138.175781 18.050781 134.175781 C 18.050781 130.175781 24.050781 130.175781 24.050781 134.175781 "/>
<path style="fill:none;stroke-width:2;stroke-linecap:butt;stroke-linejoin:bevel;stroke:rgb(36.8417%,50.6779%,70.9798%);stroke-opacity:1;stroke-miterlimit:10;" d="M 115.886719 90.917969 L 66.742188 95.035156 L 94.796875 59.269531 Z M 115.886719 90.917969 "/>
<path style=" stroke:none;fill-rule:nonzero;fill:rgb(88.0722%,61.1041%,14.2051%);fill-opacity:1;" d="M 118.886719 90.917969 C 118.886719 94.917969 112.886719 94.917969 112.886719 90.917969 C 112.886719 86.917969 118.886719 86.917969 118.886719 90.917969 "/>
<path style=" stroke:none;fill-rule:nonzero;fill:rgb(88.0722%,61.1041%,14.2051%);fill-opacity:1;" d="M 69.742188 95.035156 C 69.742188 99.035156 63.742188 99.035156 63.742188 95.035156 C 63.742188 91.035156 69.742188 91.035156 69.742188 95.035156 "/>
<path style=" stroke:none;fill-rule:nonzero;fill:rgb(88.0722%,61.1041%,14.2051%);fill-opacity:1;" d="M 97.796875 59.269531 C 97.796875 63.269531 91.796875 63.269531 91.796875 59.269531 C 91.796875 55.269531 97.796875 55.269531 97.796875 59.269531 "/>
<path style="fill:none;stroke-width:2;stroke-linecap:butt;stroke-linejoin:bevel;stroke:rgb(36.8417%,50.6779%,70.9798%);stroke-opacity:1;stroke-miterlimit:10;" d="M 115.886719 90.917969 L 106.710938 129.902344 L 66.742188 95.035156 Z M 115.886719 90.917969 "/>
<path style=" stroke:none;fill-rule:nonzero;fill:rgb(88.0722%,61.1041%,14.2051%);fill-opacity:1;" d="M 118.886719 90.917969 C 118.886719 94.917969 112.886719 94.917969 112.886719 90.917969 C 112.886719 86.917969 118.886719 86.917969 118.886719 90.917969 "/>
<path style=" stroke:none;fill-rule:nonzero;fill:rgb(88.0722%,61.1041%,14.2051%);fill-opacity:1;" d="M 109.710938 129.902344 C 109.710938 133.902344 103.710938 133.902344 103.710938 129.902344 C 103.710938 125.902344 109.710938 125.902344 109.710938 129.902344 "/>
<path style=" stroke:none;fill-rule:nonzero;fill:rgb(88.0722%,61.1041%,14.2051%);fill-opacity:1;" d="M 69.742188 95.035156 C 69.742188 99.035156 63.742188 99.035156 63.742188 95.035156 C 63.742188 91.035156 69.742188 91.035156 69.742188 95.035156 "/>
<path style="fill:none;stroke-width:2;stroke-linecap:butt;stroke-linejoin:bevel;stroke:rgb(36.8417%,50.6779%,70.9798%);stroke-opacity:1;stroke-miterlimit:10;" d="M 154.703125 116.148438 L 144.402344 151.410156 L 106.710938 129.902344 Z M 154.703125 116.148438 "/>
<path style=" stroke:none;fill-rule:nonzero;fill:rgb(88.0722%,61.1041%,14.2051%);fill-opacity:1;" d="M 157.703125 116.148438 C 157.703125 120.148438 151.703125 120.148438 151.703125 116.148438 C 151.703125 112.148438 157.703125 112.148438 157.703125 116.148438 "/>
<path style=" stroke:none;fill-rule:nonzero;fill:rgb(88.0722%,61.1041%,14.2051%);fill-opacity:1;" d="M 147.402344 151.410156 C 147.402344 155.410156 141.402344 155.410156 141.402344 151.410156 C 141.402344 147.410156 147.402344 147.410156 147.402344 151.410156 "/>
<path style=" stroke:none;fill-rule:nonzero;fill:rgb(88.0722%,61.1041%,14.2051%);fill-opacity:1;" d="M 109.710938 129.902344 C 109.710938 133.902344 103.710938 133.902344 103.710938 129.902344 C 103.710938 125.902344 109.710938 125.902344 109.710938 129.902344 "/>
<path style="fill:none;stroke-width:2;stroke-linecap:butt;stroke-linejoin:bevel;stroke:rgb(36.8417%,50.6779%,70.9798%);stroke-opacity:1;stroke-miterlimit:10;" d="M 154.703125 116.148438 L 106.710938 129.902344 L 115.886719 90.917969 Z M 154.703125 116.148438 "/>
<path style=" stroke:none;fill-rule:nonzero;fill:rgb(88.0722%,61.1041%,14.2051%);fill-opacity:1;" d="M 157.703125 116.148438 C 157.703125 120.148438 151.703125 120.148438 151.703125 116.148438 C 151.703125 112.148438 157.703125 112.148438 157.703125 116.148438 "/>
<path style=" stroke:none;fill-rule:nonzero;fill:rgb(88.0722%,61.1041%,14.2051%);fill-opacity:1;" d="M 109.710938 129.902344 C 109.710938 133.902344 103.710938 133.902344 103.710938 129.902344 C 103.710938 125.902344 109.710938 125.902344 109.710938 129.902344 "/>
<path style=" stroke:none;fill-rule:nonzero;fill:rgb(88.0722%,61.1041%,14.2051%);fill-opacity:1;" d="M 118.886719 90.917969 C 118.886719 94.917969 112.886719 94.917969 112.886719 90.917969 C 112.886719 86.917969 118.886719 86.917969 118.886719 90.917969 "/>
<path style="fill:none;stroke-width:2;stroke-linecap:butt;stroke-linejoin:bevel;stroke:rgb(36.8417%,50.6779%,70.9798%);stroke-opacity:1;stroke-miterlimit:10;" d="M 159.269531 74.402344 L 154.703125 116.148438 L 115.886719 90.917969 Z M 159.269531 74.402344 "/>
<path style=" stroke:none;fill-rule:nonzero;fill:rgb(88.0722%,61.1041%,14.2051%);fill-opacity:1;" d="M 162.269531 74.402344 C 162.269531 78.402344 156.269531 78.402344 156.269531 74.402344 C 156.269531 70.402344 162.269531 70.402344 162.269531 74.402344 "/>
<path style=" stroke:none;fill-rule:nonzero;fill:rgb(88.0722%,61.1041%,14.2051%);fill-opacity:1;" d="M 157.703125 116.148438 C 157.703125 120.148438 151.703125 120.148438 151.703125 116.148438 C 151.703125 112.148438 157.703125 112.148438 157.703125 116.148438 "/>
<path style=" stroke:none;fill-rule:nonzero;fill:rgb(88.0722%,61.1041%,14.2051%);fill-opacity:1;" d="M 118.886719 90.917969 C 118.886719 94.917969 112.886719 94.917969 112.886719 90.917969 C 112.886719 86.917969 118.886719 86.917969 118.886719 90.917969 "/>
<path style="fill:none;stroke-width:2;stroke-linecap:butt;stroke-linejoin:bevel;stroke:rgb(36.8417%,50.6779%,70.9798%);stroke-opacity:1;stroke-miterlimit:10;" d="M 159.269531 74.402344 L 115.886719 90.917969 L 139.183594 36.914062 Z M 159.269531 74.402344 "/>
<path style=" stroke:none;fill-rule:nonzero;fill:rgb(88.0722%,61.1041%,14.2051%);fill-opacity:1;" d="M 162.269531 74.402344 C 162.269531 78.402344 156.269531 78.402344 156.269531 74.402344 C 156.269531 70.402344 162.269531 70.402344 162.269531 74.402344 "/>
<path style=" stroke:none;fill-rule:nonzero;fill:rgb(88.0722%,61.1041%,14.2051%);fill-opacity:1;" d="M 118.886719 90.917969 C 118.886719 94.917969 112.886719 94.917969 112.886719 90.917969 C 112.886719 86.917969 118.886719 86.917969 118.886719 90.917969 "/>
<path style=" stroke:none;fill-rule:nonzero;fill:rgb(88.0722%,61.1041%,14.2051%);fill-opacity:1;" d="M 142.183594 36.914062 C 142.183594 40.914062 136.183594 40.914062 136.183594 36.914062 C 136.183594 32.914062 142.183594 32.914062 142.183594 36.914062 "/>
<path style="fill:none;stroke-width:2;stroke-linecap:butt;stroke-linejoin:bevel;stroke:rgb(36.8417%,50.6779%,70.9798%);stroke-opacity:1;stroke-miterlimit:10;" d="M 132.351562 185.148438 L 61.367188 182.613281 L 96.070312 171.132812 Z M 132.351562 185.148438 "/>
<path style=" stroke:none;fill-rule:nonzero;fill:rgb(88.0722%,61.1041%,14.2051%);fill-opacity:1;" d="M 135.351562 185.148438 C 135.351562 189.148438 129.351562 189.148438 129.351562 185.148438 C 129.351562 181.148438 135.351562 181.148438 135.351562 185.148438 "/>
<path style=" stroke:none;fill-rule:nonzero;fill:rgb(88.0722%,61.1041%,14.2051%);fill-opacity:1;" d="M 64.367188 182.613281 C 64.367188 186.613281 58.367188 186.613281 58.367188 182.613281 C 58.367188 178.613281 64.367188 178.613281 64.367188 182.613281 "/>
<path style=" stroke:none;fill-rule:nonzero;fill:rgb(88.0722%,61.1041%,14.2051%);fill-opacity:1;" d="M 99.070312 171.132812 C 99.070312 175.132812 93.070312 175.132812 93.070312 171.132812 C 93.070312 167.132812 99.070312 167.132812 99.070312 171.132812 "/>
<path style="fill:none;stroke-width:2;stroke-linecap:butt;stroke-linejoin:bevel;stroke:rgb(36.8417%,50.6779%,70.9798%);stroke-opacity:1;stroke-miterlimit:10;" d="M 144.402344 151.410156 L 96.070312 171.132812 L 106.710938 129.902344 Z M 144.402344 151.410156 "/>
<path style=" stroke:none;fill-rule:nonzero;fill:rgb(88.0722%,61.1041%,14.2051%);fill-opacity:1;" d="M 147.402344 151.410156 C 147.402344 155.410156 141.402344 155.410156 141.402344 151.410156 C 141.402344 147.410156 147.402344 147.410156 147.402344 151.410156 "/>
<path style=" stroke:none;fill-rule:nonzero;fill:rgb(88.0722%,61.1041%,14.2051%);fill-opacity:1;" d="M 99.070312 171.132812 C 99.070312 175.132812 93.070312 175.132812 93.070312 171.132812 C 93.070312 167.132812 99.070312 167.132812 99.070312 171.132812 "/>
<path style=" stroke:none;fill-rule:nonzero;fill:rgb(88.0722%,61.1041%,14.2051%);fill-opacity:1;" d="M 109.710938 129.902344 C 109.710938 133.902344 103.710938 133.902344 103.710938 129.902344 C 103.710938 125.902344 109.710938 125.902344 109.710938 129.902344 "/>
<path style="fill:none;stroke-width:2;stroke-linecap:butt;stroke-linejoin:bevel;stroke:rgb(36.8417%,50.6779%,70.9798%);stroke-opacity:1;stroke-miterlimit:10;" d="M 197.433594 137.234375 L 154.703125 116.148438 L 194.980469 88.386719 Z M 197.433594 137.234375 "/>
<path style=" stroke:none;fill-rule:nonzero;fill:rgb(88.0722%,61.1041%,14.2051%);fill-opacity:1;" d="M 200.433594 137.234375 C 200.433594 141.234375 194.433594 141.234375 194.433594 137.234375 C 194.433594 133.234375 200.433594 133.234375 200.433594 137.234375 "/>
<path style=" stroke:none;fill-rule:nonzero;fill:rgb(88.0722%,61.1041%,14.2051%);fill-opacity:1;" d="M 157.703125 116.148438 C 157.703125 120.148438 151.703125 120.148438 151.703125 116.148438 C 151.703125 112.148438 157.703125 112.148438 157.703125 116.148438 "/>
<path style=" stroke:none;fill-rule:nonzero;fill:rgb(88.0722%,61.1041%,14.2051%);fill-opacity:1;" d="M 197.980469 88.386719 C 197.980469 92.386719 191.980469 92.386719 191.980469 88.386719 C 191.980469 84.386719 197.980469 84.386719 197.980469 88.386719 "/>
<path style="fill:none;stroke-width:2;stroke-linecap:butt;stroke-linejoin:bevel;stroke:rgb(36.8417%,50.6779%,70.9798%);stroke-opacity:1;stroke-miterlimit:10;" d="M 197.433594 137.234375 L 177.558594 176.394531 L 144.402344 151.410156 Z M 197.433594 137.234375 "/>
<path style=" stroke:none;fill-rule:nonzero;fill:rgb(88.0722%,61.1041%,14.2051%);fill-opacity:1;" d="M 200.433594 137.234375 C 200.433594 141.234375 194.433594 141.234375 194.433594 137.234375 C 194.433594 133.234375 200.433594 133.234375 200.433594 137.234375 "/>
<path style=" stroke:none;fill-rule:nonzero;fill:rgb(88.0722%,61.1041%,14.2051%);fill-opacity:1;" d="M 180.558594 176.394531 C 180.558594 180.394531 174.558594 180.394531 174.558594 176.394531 C 174.558594 172.394531 180.558594 172.394531 180.558594 176.394531 "/>
<path style=" stroke:none;fill-rule:nonzero;fill:rgb(88.0722%,61.1041%,14.2051%);fill-opacity:1;" d="M 147.402344 151.410156 C 147.402344 155.410156 141.402344 155.410156 141.402344 151.410156 C 141.402344 147.410156 147.402344 147.410156 147.402344 151.410156 "/>
<path style="fill:none;stroke-width:2;stroke-linecap:butt;stroke-linejoin:bevel;stroke:rgb(36.8417%,50.6779%,70.9798%);stroke-opacity:1;stroke-miterlimit:10;" d="M 197.433594 137.234375 L 144.402344 151.410156 L 154.703125 116.148438 Z M 197.433594 137.234375 "/>
<path style=" stroke:none;fill-rule:nonzero;fill:rgb(88.0722%,61.1041%,14.2051%);fill-opacity:1;" d="M 200.433594 137.234375 C 200.433594 141.234375 194.433594 141.234375 194.433594 137.234375 C 194.433594 133.234375 200.433594 133.234375 200.433594 137.234375 "/>
<path style=" stroke:none;fill-rule:nonzero;fill:rgb(88.0722%,61.1041%,14.2051%);fill-opacity:1;" d="M 147.402344 151.410156 C 147.402344 155.410156 141.402344 155.410156 141.402344 151.410156 C 141.402344 147.410156 147.402344 147.410156 147.402344 151.410156 "/>
<path style=" stroke:none;fill-rule:nonzero;fill:rgb(88.0722%,61.1041%,14.2051%);fill-opacity:1;" d="M 157.703125 116.148438 C 157.703125 120.148438 151.703125 120.148438 151.703125 116.148438 C 151.703125 112.148438 157.703125 112.148438 157.703125 116.148438 "/>
<path style="fill:none;stroke-width:2;stroke-linecap:butt;stroke-linejoin:bevel;stroke:rgb(36.8417%,50.6779%,70.9798%);stroke-opacity:1;stroke-miterlimit:10;" d="M 144.402344 151.410156 L 132.351562 185.148438 L 96.070312 171.132812 Z M 144.402344 151.410156 "/>
<path style=" stroke:none;fill-rule:nonzero;fill:rgb(88.0722%,61.1041%,14.2051%);fill-opacity:1;" d="M 147.402344 151.410156 C 147.402344 155.410156 141.402344 155.410156 141.402344 151.410156 C 141.402344 147.410156 147.402344 147.410156 147.402344 151.410156 "/>
<path style=" stroke:none;fill-rule:nonzero;fill:rgb(88.0722%,61.1041%,14.2051%);fill-opacity:1;" d="M 135.351562 185.148438 C 135.351562 189.148438 129.351562 189.148438 129.351562 185.148438 C 129.351562 181.148438 135.351562 181.148438 135.351562 185.148438 "/>
<path style=" stroke:none;fill-rule:nonzero;fill:rgb(88.0722%,61.1041%,14.2051%);fill-opacity:1;" d="M 99.070312 171.132812 C 99.070312 175.132812 93.070312 175.132812 93.070312 171.132812 C 93.070312 167.132812 99.070312 167.132812 99.070312 171.132812 "/>
<path style="fill:none;stroke-width:2;stroke-linecap:butt;stroke-linejoin:bevel;stroke:rgb(36.8417%,50.6779%,70.9798%);stroke-opacity:1;stroke-miterlimit:10;" d="M 238.15625 152.945312 L 216.511719 183.652344 L 197.433594 137.234375 Z M 238.15625 152.945312 "/>
<path style=" stroke:none;fill-rule:nonzero;fill:rgb(88.0722%,61.1041%,14.2051%);fill-opacity:1;" d="M 241.15625 152.945312 C 241.15625 156.945312 235.15625 156.945312 235.15625 152.945312 C 235.15625 148.945312 241.15625 148.945312 241.15625 152.945312 "/>
<path style=" stroke:none;fill-rule:nonzero;fill:rgb(88.0722%,61.1041%,14.2051%);fill-opacity:1;" d="M 219.511719 183.652344 C 219.511719 187.652344 213.511719 187.652344 213.511719 183.652344 C 213.511719 179.652344 219.511719 179.652344 219.511719 183.652344 "/>
<path style=" stroke:none;fill-rule:nonzero;fill:rgb(88.0722%,61.1041%,14.2051%);fill-opacity:1;" d="M 200.433594 137.234375 C 200.433594 141.234375 194.433594 141.234375 194.433594 137.234375 C 194.433594 133.234375 200.433594 133.234375 200.433594 137.234375 "/>
<path style="fill:none;stroke-width:2;stroke-linecap:butt;stroke-linejoin:bevel;stroke:rgb(36.8417%,50.6779%,70.9798%);stroke-opacity:1;stroke-miterlimit:10;" d="M 60.847656 35.121094 L 20.59375 48.140625 L 25.175781 12.9375 Z M 60.847656 35.121094 "/>
<path style=" stroke:none;fill-rule:nonzero;fill:rgb(88.0722%,61.1041%,14.2051%);fill-opacity:1;" d="M 63.847656 35.121094 C 63.847656 39.121094 57.847656 39.121094 57.847656 35.121094 C 57.847656 31.121094 63.847656 31.121094 63.847656 35.121094 "/>
<path style=" stroke:none;fill-rule:nonzero;fill:rgb(88.0722%,61.1041%,14.2051%);fill-opacity:1;" d="M 23.59375 48.140625 C 23.59375 52.140625 17.59375 52.140625 17.59375 48.140625 C 17.59375 44.140625 23.59375 44.140625 23.59375 48.140625 "/>
<path style=" stroke:none;fill-rule:nonzero;fill:rgb(88.0722%,61.1041%,14.2051%);fill-opacity:1;" d="M 28.175781 12.9375 C 28.175781 16.9375 22.175781 16.9375 22.175781 12.9375 C 22.175781 8.9375 28.175781 8.9375 28.175781 12.9375 "/>
<path style="fill:none;stroke-width:2;stroke-linecap:butt;stroke-linejoin:bevel;stroke:rgb(36.8417%,50.6779%,70.9798%);stroke-opacity:1;stroke-miterlimit:10;" d="M 66.742188 95.035156 L 21.050781 134.175781 L 22.917969 89.585938 Z M 66.742188 95.035156 "/>
<path style=" stroke:none;fill-rule:nonzero;fill:rgb(88.0722%,61.1041%,14.2051%);fill-opacity:1;" d="M 69.742188 95.035156 C 69.742188 99.035156 63.742188 99.035156 63.742188 95.035156 C 63.742188 91.035156 69.742188 91.035156 69.742188 95.035156 "/>
<path style=" stroke:none;fill-rule:nonzero;fill:rgb(88.0722%,61.1041%,14.2051%);fill-opacity:1;" d="M 24.050781 134.175781 C 24.050781 138.175781 18.050781 138.175781 18.050781 134.175781 C 18.050781 130.175781 24.050781 130.175781 24.050781 134.175781 "/>
<path style=" stroke:none;fill-rule:nonzero;fill:rgb(88.0722%,61.1041%,14.2051%);fill-opacity:1;" d="M 25.917969 89.585938 C 25.917969 93.585938 19.917969 93.585938 19.917969 89.585938 C 19.917969 85.585938 25.917969 85.585938 25.917969 89.585938 "/>
<path style="fill:none;stroke-width:2;stroke-linecap:butt;stroke-linejoin:bevel;stroke:rgb(36.8417%,50.6779%,70.9798%);stroke-opacity:1;stroke-miterlimit:10;" d="M 66.742188 95.035156 L 61.996094 139.210938 L 21.050781 134.175781 Z M 66.742188 95.035156 "/>
<path style=" stroke:none;fill-rule:nonzero;fill:rgb(88.0722%,61.1041%,14.2051%);fill-opacity:1;" d="M 69.742188 95.035156 C 69.742188 99.035156 63.742188 99.035156 63.742188 95.035156 C 63.742188 91.035156 69.742188 91.035156 69.742188 95.035156 "/>
<path style=" stroke:none;fill-rule:nonzero;fill:rgb(88.0722%,61.1041%,14.2051%);fill-opacity:1;" d="M 64.996094 139.210938 C 64.996094 143.210938 58.996094 143.210938 58.996094 139.210938 C 58.996094 135.210938 64.996094 135.210938 64.996094 139.210938 "/>
<path style=" stroke:none;fill-rule:nonzero;fill:rgb(88.0722%,61.1041%,14.2051%);fill-opacity:1;" d="M 24.050781 134.175781 C 24.050781 138.175781 18.050781 138.175781 18.050781 134.175781 C 18.050781 130.175781 24.050781 130.175781 24.050781 134.175781 "/>
<path style="fill:none;stroke-width:2;stroke-linecap:butt;stroke-linejoin:bevel;stroke:rgb(36.8417%,50.6779%,70.9798%);stroke-opacity:1;stroke-miterlimit:10;" d="M 276.894531 113.65625 L 233.851562 112.90625 L 234.753906 74.285156 Z M 276.894531 113.65625 "/>
<path style=" stroke:none;fill-rule:nonzero;fill:rgb(88.0722%,61.1041%,14.2051%);fill-opacity:1;" d="M 279.894531 113.65625 C 279.894531 117.65625 273.894531 117.65625 273.894531 113.65625 C 273.894531 109.65625 279.894531 109.65625 279.894531 113.65625 "/>
<path style=" stroke:none;fill-rule:nonzero;fill:rgb(88.0722%,61.1041%,14.2051%);fill-opacity:1;" d="M 236.851562 112.90625 C 236.851562 116.90625 230.851562 116.90625 230.851562 112.90625 C 230.851562 108.90625 236.851562 108.90625 236.851562 112.90625 "/>
<path style=" stroke:none;fill-rule:nonzero;fill:rgb(88.0722%,61.1041%,14.2051%);fill-opacity:1;" d="M 237.753906 74.285156 C 237.753906 78.285156 231.753906 78.285156 231.753906 74.285156 C 231.753906 70.285156 237.753906 70.285156 237.753906 74.285156 "/>
<path style="fill:none;stroke-width:2;stroke-linecap:butt;stroke-linejoin:bevel;stroke:rgb(36.8417%,50.6779%,70.9798%);stroke-opacity:1;stroke-miterlimit:10;" d="M 233.851562 112.90625 L 197.433594 137.234375 L 194.980469 88.386719 Z M 233.851562 112.90625 "/>
<path style=" stroke:none;fill-rule:nonzero;fill:rgb(88.0722%,61.1041%,14.2051%);fill-opacity:1;" d="M 236.851562 112.90625 C 236.851562 116.90625 230.851562 116.90625 230.851562 112.90625 C 230.851562 108.90625 236.851562 108.90625 236.851562 112.90625 "/>
<path style=" stroke:none;fill-rule:nonzero;fill:rgb(88.0722%,61.1041%,14.2051%);fill-opacity:1;" d="M 200.433594 137.234375 C 200.433594 141.234375 194.433594 141.234375 194.433594 137.234375 C 194.433594 133.234375 200.433594 133.234375 200.433594 137.234375 "/>
<path style=" stroke:none;fill-rule:nonzero;fill:rgb(88.0722%,61.1041%,14.2051%);fill-opacity:1;" d="M 197.980469 88.386719 C 197.980469 92.386719 191.980469 92.386719 191.980469 88.386719 C 191.980469 84.386719 197.980469 84.386719 197.980469 88.386719 "/>
<path style="fill:none;stroke-width:2;stroke-linecap:butt;stroke-linejoin:bevel;stroke:rgb(36.8417%,50.6779%,70.9798%);stroke-opacity:1;stroke-miterlimit:10;" d="M 232.085938 40.769531 L 194.980469 88.386719 L 178.210938 27.890625 Z M 232.085938 40.769531 "/>
<path style=" stroke:none;fill-rule:nonzero;fill:rgb(88.0722%,61.1041%,14.2051%);fill-opacity:1;" d="M 235.085938 40.769531 C 235.085938 44.769531 229.085938 44.769531 229.085938 40.769531 C 229.085938 36.769531 235.085938 36.769531 235.085938 40.769531 "/>
<path style=" stroke:none;fill-rule:nonzero;fill:rgb(88.0722%,61.1041%,14.2051%);fill-opacity:1;" d="M 197.980469 88.386719 C 197.980469 92.386719 191.980469 92.386719 191.980469 88.386719 C 191.980469 84.386719 197.980469 84.386719 197.980469 88.386719 "/>
<path style=" stroke:none;fill-rule:nonzero;fill:rgb(88.0722%,61.1041%,14.2051%);fill-opacity:1;" d="M 181.210938 27.890625 C 181.210938 31.890625 175.210938 31.890625 175.210938 27.890625 C 175.210938 23.890625 181.210938 23.890625 181.210938 27.890625 "/>
<path style="fill:none;stroke-width:2;stroke-linecap:butt;stroke-linejoin:bevel;stroke:rgb(36.8417%,50.6779%,70.9798%);stroke-opacity:1;stroke-miterlimit:10;" d="M 275.847656 22.714844 L 232.085938 40.769531 L 217.921875 13.324219 Z M 275.847656 22.714844 "/>
<path style=" stroke:none;fill-rule:nonzero;fill:rgb(88.0722%,61.1041%,14.2051%);fill-opacity:1;" d="M 278.847656 22.714844 C 278.847656 26.714844 272.847656 26.714844 272.847656 22.714844 C 272.847656 18.714844 278.847656 18.714844 278.847656 22.714844 "/>
<path style=" stroke:none;fill-rule:nonzero;fill:rgb(88.0722%,61.1041%,14.2051%);fill-opacity:1;" d="M 235.085938 40.769531 C 235.085938 44.769531 229.085938 44.769531 229.085938 40.769531 C 229.085938 36.769531 235.085938 36.769531 235.085938 40.769531 "/>
<path style=" stroke:none;fill-rule:nonzero;fill:rgb(88.0722%,61.1041%,14.2051%);fill-opacity:1;" d="M 220.921875 13.324219 C 220.921875 17.324219 214.921875 17.324219 214.921875 13.324219 C 214.921875 9.324219 220.921875 9.324219 220.921875 13.324219 "/>
<path style="fill:none;stroke-width:2;stroke-linecap:butt;stroke-linejoin:bevel;stroke:rgb(36.8417%,50.6779%,70.9798%);stroke-opacity:1;stroke-miterlimit:10;" d="M 217.921875 13.324219 L 178.210938 27.890625 L 104.398438 16.5625 Z M 217.921875 13.324219 "/>
<path style=" stroke:none;fill-rule:nonzero;fill:rgb(88.0722%,61.1041%,14.2051%);fill-opacity:1;" d="M 220.921875 13.324219 C 220.921875 17.324219 214.921875 17.324219 214.921875 13.324219 C 214.921875 9.324219 220.921875 9.324219 220.921875 13.324219 "/>
<path style=" stroke:none;fill-rule:nonzero;fill:rgb(88.0722%,61.1041%,14.2051%);fill-opacity:1;" d="M 181.210938 27.890625 C 181.210938 31.890625 175.210938 31.890625 175.210938 27.890625 C 175.210938 23.890625 181.210938 23.890625 181.210938 27.890625 "/>
<path style=" stroke:none;fill-rule:nonzero;fill:rgb(88.0722%,61.1041%,14.2051%);fill-opacity:1;" d="M 107.398438 16.5625 C 107.398438 20.5625 101.398438 20.5625 101.398438 16.5625 C 101.398438 12.5625 107.398438 12.5625 107.398438 16.5625 "/>
</g>
</svg>
