<?xml version="1.0" encoding="UTF-8"?>
<svg xmlns="http://www.w3.org/2000/svg" xmlns:xlink="http://www.w3.org/1999/xlink" width="300pt" height="150pt" viewBox="0 0 300 150" version="1.1">
<g id="id1">
<path style="fill:none;stroke-width:1;stroke-linecap:butt;stroke-linejoin:miter;stroke:rgb(88.0722%,61.1041%,14.2051%);stroke-opacity:1;stroke-miterlimit:10;" d="M 10 10 C 239.984375 239.039062 123.765625 -116.535156 290 75.664062 "/>
<path style="fill:none;stroke-width:1;stroke-linecap:butt;stroke-linejoin:miter;stroke:rgb(88.0722%,61.1041%,14.2051%);stroke-opacity:1;stroke-miterlimit:10;" d="M 10 60 C 239.984375 289.039062 123.765625 -66.535156 290 125.664062 "/>
<path style="fill:none;stroke-width:1;stroke-linecap:butt;stroke-linejoin:miter;stroke:rgb(36.8417%,50.6779%,70.9798%);stroke-opacity:1;stroke-miterlimit:10;" d="M 13 10 C 13 14 7 14 7 10 C 7 6 13 6 13 10 "/>
<path style="fill:none;stroke-width:1;stroke-linecap:butt;stroke-linejoin:miter;stroke:rgb(92.2526%,38.5626%,20.9179%);stroke-opacity:1;stroke-miterlimit:10;" d="M 13 60 C 13 64 7 64 7 60 C 7 56 13 56 13 60 "/>
<path style="fill:none;stroke-width:1;stroke-linecap:butt;stroke-linejoin:miter;stroke:rgb(0%,0%,0%);stroke-opacity:0.1;stroke-dasharray:1,1;stroke-miterlimit:10;" d="M 10 15 L 10 55 "/>
<path style="fill:none;stroke-width:1;stroke-linecap:butt;stroke-linejoin:miter;stroke:rgb(36.8417%,50.6779%,70.9798%);stroke-opacity:1;stroke-miterlimit:10;" d="M 30.464844 26.902344 C 30.464844 30.902344 24.464844 30.902344 24.464844 26.902344 C 24.464844 22.902344 30.464844 22.902344 30.464844 26.902344 "/>
<path style="fill:none;stroke-width:1;stroke-linecap:butt;stroke-linejoin:miter;stroke:rgb(92.2526%,38.5626%,20.9179%);stroke-opacity:1;stroke-miterlimit:10;" d="M 54.566406 98.347656 C 54.566406 102.347656 48.566406 102.347656 48.566406 98.347656 C 48.566406 94.347656 54.566406 94.347656 54.566406 98.347656 "/>
<path style="fill:none;stroke-width:1;stroke-linecap:butt;stroke-linejoin:miter;stroke:rgb(0%,0%,0%);stroke-opacity:0.1;stroke-dasharray:1,1;stroke-miterlimit:10;" d="M 29.875 34.046875 L 49.15625 91.203125 "/>
<path style="fill:none;stroke-width:1;stroke-linecap:butt;stroke-linejoin:miter;stroke:rgb(36.8417%,50.6779%,70.9798%);stroke-opacity:1;stroke-miterlimit:10;" d="M 48.503906 43.1875 C 48.503906 47.1875 42.503906 47.1875 42.503906 43.1875 C 42.503906 39.1875 48.503906 39.1875 48.503906 43.1875 "/>
<path style="fill:none;stroke-width:1;stroke-linecap:butt;stroke-linejoin:miter;stroke:rgb(92.2526%,38.5626%,20.9179%);stroke-opacity:1;stroke-miterlimit:10;" d="M 88.019531 123.121094 C 88.019531 127.121094 82.019531 127.121094 82.019531 123.121094 C 82.019531 119.121094 88.019531 119.121094 88.019531 123.121094 "/>
<path style="fill:none;stroke-width:1;stroke-linecap:butt;stroke-linejoin:miter;stroke:rgb(0%,0%,0%);stroke-opacity:0.1;stroke-dasharray:1,1;stroke-miterlimit:10;" d="M 49.453125 51.179688 L 81.066406 115.128906 "/>
<path style="fill:none;stroke-width:1;stroke-linecap:butt;stroke-linejoin:miter;stroke:rgb(36.8417%,50.6779%,70.9798%);stroke-opacity:1;stroke-miterlimit:10;" d="M 67.304688 58.585938 C 67.304688 62.585938 61.304688 62.585938 61.304688 58.585938 C 61.304688 54.585938 67.304688 54.585938 67.304688 58.585938 "/>
<path style="fill:none;stroke-width:1;stroke-linecap:butt;stroke-linejoin:miter;stroke:rgb(92.2526%,38.5626%,20.9179%);stroke-opacity:1;stroke-miterlimit:10;" d="M 114.476562 136.328125 C 114.476562 140.328125 108.476562 140.328125 108.476562 136.328125 C 108.476562 132.328125 114.476562 132.328125 114.476562 136.328125 "/>
<path style="fill:none;stroke-width:1;stroke-linecap:butt;stroke-linejoin:miter;stroke:rgb(0%,0%,0%);stroke-opacity:0.1;stroke-dasharray:1,1;stroke-miterlimit:10;" d="M 69.019531 66.359375 L 106.757812 128.554688 "/>
<path style="fill:none;stroke-width:1;stroke-linecap:butt;stroke-linejoin:miter;stroke:rgb(36.8417%,50.6779%,70.9798%);stroke-opacity:1;stroke-miterlimit:10;" d="M 87.164062 72.582031 C 87.164062 76.582031 81.164062 76.582031 81.164062 72.582031 C 81.164062 68.582031 87.164062 68.582031 87.164062 72.582031 "/>
<path style="fill:none;stroke-width:1;stroke-linecap:butt;stroke-linejoin:miter;stroke:rgb(92.2526%,38.5626%,20.9179%);stroke-opacity:1;stroke-miterlimit:10;" d="M 135.050781 139.988281 C 135.050781 143.988281 129.050781 143.988281 129.050781 139.988281 C 129.050781 135.988281 135.050781 135.988281 135.050781 139.988281 "/>
<path style="fill:none;stroke-width:1;stroke-linecap:butt;stroke-linejoin:miter;stroke:rgb(0%,0%,0%);stroke-opacity:0.1;stroke-dasharray:1,1;stroke-miterlimit:10;" d="M 88.953125 79.320312 L 127.261719 133.246094 "/>
<path style="fill:none;stroke-width:1;stroke-linecap:butt;stroke-linejoin:miter;stroke:rgb(36.8417%,50.6779%,70.9798%);stroke-opacity:1;stroke-miterlimit:10;" d="M 108.5625 84.046875 C 108.5625 88.046875 102.5625 88.046875 102.5625 84.046875 C 102.5625 80.046875 108.5625 80.046875 108.5625 84.046875 "/>
<path style="fill:none;stroke-width:1;stroke-linecap:butt;stroke-linejoin:miter;stroke:rgb(92.2526%,38.5626%,20.9179%);stroke-opacity:1;stroke-miterlimit:10;" d="M 150.867188 136.109375 C 150.867188 140.109375 144.867188 140.109375 144.867188 136.109375 C 144.867188 132.109375 150.867188 132.109375 150.867188 136.109375 "/>
<path style="fill:none;stroke-width:1;stroke-linecap:butt;stroke-linejoin:miter;stroke:rgb(0%,0%,0%);stroke-opacity:0.1;stroke-dasharray:1,1;stroke-miterlimit:10;" d="M 109.792969 89.253906 L 143.636719 130.902344 "/>
<path style="fill:none;stroke-width:1;stroke-linecap:butt;stroke-linejoin:miter;stroke:rgb(36.8417%,50.6779%,70.9798%);stroke-opacity:1;stroke-miterlimit:10;" d="M 132.007812 89.957031 C 132.007812 93.957031 126.007812 93.957031 126.007812 89.957031 C 126.007812 85.957031 132.007812 85.957031 132.007812 89.957031 "/>
<path style="fill:none;stroke-width:1;stroke-linecap:butt;stroke-linejoin:miter;stroke:rgb(92.2526%,38.5626%,20.9179%);stroke-opacity:1;stroke-miterlimit:10;" d="M 163.035156 126.703125 C 163.035156 130.703125 157.035156 130.703125 157.035156 126.703125 C 157.035156 122.703125 163.035156 122.703125 163.035156 126.703125 "/>
<path style="fill:none;stroke-width:1;stroke-linecap:butt;stroke-linejoin:miter;stroke:rgb(0%,0%,0%);stroke-opacity:0.1;stroke-dasharray:1,1;stroke-miterlimit:10;" d="M 132.109375 93.632812 L 156.933594 123.03125 "/>
<path style="fill:none;stroke-width:1;stroke-linecap:butt;stroke-linejoin:miter;stroke:rgb(36.8417%,50.6779%,70.9798%);stroke-opacity:1;stroke-miterlimit:10;" d="M 155.03125 83.652344 C 155.03125 87.652344 149.03125 87.652344 149.03125 83.652344 C 149.03125 79.652344 155.03125 79.652344 155.03125 83.652344 "/>
<path style="fill:none;stroke-width:1;stroke-linecap:butt;stroke-linejoin:miter;stroke:rgb(92.2526%,38.5626%,20.9179%);stroke-opacity:1;stroke-miterlimit:10;" d="M 172.679688 113.789062 C 172.679688 117.789062 166.679688 117.789062 166.679688 113.789062 C 166.679688 109.789062 172.679688 109.789062 172.679688 113.789062 "/>
<path style="fill:none;stroke-width:1;stroke-linecap:butt;stroke-linejoin:miter;stroke:rgb(0%,0%,0%);stroke-opacity:0.1;stroke-dasharray:1,1;stroke-miterlimit:10;" d="M 153.796875 86.667969 L 167.917969 110.777344 "/>
<path style="fill:none;stroke-width:1;stroke-linecap:butt;stroke-linejoin:miter;stroke:rgb(36.8417%,50.6779%,70.9798%);stroke-opacity:1;stroke-miterlimit:10;" d="M 171.355469 65.867188 C 171.355469 69.867188 165.355469 69.867188 165.355469 65.867188 C 165.355469 61.867188 171.355469 61.867188 171.355469 65.867188 "/>
<path style="fill:none;stroke-width:1;stroke-linecap:butt;stroke-linejoin:miter;stroke:rgb(92.2526%,38.5626%,20.9179%);stroke-opacity:1;stroke-miterlimit:10;" d="M 180.917969 99.378906 C 180.917969 103.378906 174.917969 103.378906 174.917969 99.378906 C 174.917969 95.378906 180.917969 95.378906 180.917969 99.378906 "/>
<path style="fill:none;stroke-width:1;stroke-linecap:butt;stroke-linejoin:miter;stroke:rgb(0%,0%,0%);stroke-opacity:0.1;stroke-dasharray:1,1;stroke-miterlimit:10;" d="M 169.3125 69.21875 L 176.960938 96.027344 "/>
<path style="fill:none;stroke-width:1;stroke-linecap:butt;stroke-linejoin:miter;stroke:rgb(36.8417%,50.6779%,70.9798%);stroke-opacity:1;stroke-miterlimit:10;" d="M 183.4375 44.78125 C 183.4375 48.78125 177.4375 48.78125 177.4375 44.78125 C 177.4375 40.78125 183.4375 40.78125 183.4375 44.78125 "/>
<path style="fill:none;stroke-width:1;stroke-linecap:butt;stroke-linejoin:miter;stroke:rgb(92.2526%,38.5626%,20.9179%);stroke-opacity:1;stroke-miterlimit:10;" d="M 188.863281 85.484375 C 188.863281 89.484375 182.863281 89.484375 182.863281 85.484375 C 182.863281 81.484375 188.863281 81.484375 188.863281 85.484375 "/>
<path style="fill:none;stroke-width:1;stroke-linecap:butt;stroke-linejoin:miter;stroke:rgb(0%,0%,0%);stroke-opacity:0.1;stroke-dasharray:1,1;stroke-miterlimit:10;" d="M 180.976562 48.851562 L 185.320312 81.414062 "/>
<path style="fill:none;stroke-width:1;stroke-linecap:butt;stroke-linejoin:miter;stroke:rgb(36.8417%,50.6779%,70.9798%);stroke-opacity:1;stroke-miterlimit:10;" d="M 197.03125 24.722656 C 197.03125 28.722656 191.03125 28.722656 191.03125 24.722656 C 191.03125 20.722656 197.03125 20.722656 197.03125 24.722656 "/>
<path style="fill:none;stroke-width:1;stroke-linecap:butt;stroke-linejoin:miter;stroke:rgb(92.2526%,38.5626%,20.9179%);stroke-opacity:1;stroke-miterlimit:10;" d="M 197.632812 74.113281 C 197.632812 78.113281 191.632812 78.113281 191.632812 74.113281 C 191.632812 70.113281 197.632812 70.113281 197.632812 74.113281 "/>
<path style="fill:none;stroke-width:1;stroke-linecap:butt;stroke-linejoin:miter;stroke:rgb(0%,0%,0%);stroke-opacity:0.1;stroke-dasharray:1,1;stroke-miterlimit:10;" d="M 194.089844 29.660156 L 194.574219 69.175781 "/>
<path style="fill:none;stroke-width:1;stroke-linecap:butt;stroke-linejoin:miter;stroke:rgb(36.8417%,50.6779%,70.9798%);stroke-opacity:1;stroke-miterlimit:10;" d="M 218.851562 16.421875 C 218.851562 20.421875 212.851562 20.421875 212.851562 16.421875 C 212.851562 12.421875 218.851562 12.421875 218.851562 16.421875 "/>
<path style="fill:none;stroke-width:1;stroke-linecap:butt;stroke-linejoin:miter;stroke:rgb(92.2526%,38.5626%,20.9179%);stroke-opacity:1;stroke-miterlimit:10;" d="M 208.347656 67.289062 C 208.347656 71.289062 202.347656 71.289062 202.347656 67.289062 C 202.347656 63.289062 208.347656 63.289062 208.347656 67.289062 "/>
<path style="fill:none;stroke-width:1;stroke-linecap:butt;stroke-linejoin:miter;stroke:rgb(0%,0%,0%);stroke-opacity:0.1;stroke-dasharray:1,1;stroke-miterlimit:10;" d="M 214.800781 21.507812 L 206.398438 62.203125 "/>
<path style="fill:none;stroke-width:1;stroke-linecap:butt;stroke-linejoin:miter;stroke:rgb(36.8417%,50.6779%,70.9798%);stroke-opacity:1;stroke-miterlimit:10;" d="M 241 25.917969 C 241 29.917969 235 29.917969 235 25.917969 C 235 21.917969 241 21.917969 241 25.917969 "/>
<path style="fill:none;stroke-width:1;stroke-linecap:butt;stroke-linejoin:miter;stroke:rgb(92.2526%,38.5626%,20.9179%);stroke-opacity:1;stroke-miterlimit:10;" d="M 222.125 67.019531 C 222.125 71.019531 216.125 71.019531 216.125 67.019531 C 216.125 63.019531 222.125 63.019531 222.125 67.019531 "/>
<path style="fill:none;stroke-width:1;stroke-linecap:butt;stroke-linejoin:miter;stroke:rgb(0%,0%,0%);stroke-opacity:0.1;stroke-dasharray:1,1;stroke-miterlimit:10;" d="M 236.113281 30.027344 L 221.011719 62.90625 "/>
<path style="fill:none;stroke-width:1;stroke-linecap:butt;stroke-linejoin:miter;stroke:rgb(36.8417%,50.6779%,70.9798%);stroke-opacity:1;stroke-miterlimit:10;" d="M 259.972656 41.070312 C 259.972656 45.070312 253.972656 45.070312 253.972656 41.070312 C 253.972656 37.070312 259.972656 37.070312 259.972656 41.070312 "/>
<path style="fill:none;stroke-width:1;stroke-linecap:butt;stroke-linejoin:miter;stroke:rgb(92.2526%,38.5626%,20.9179%);stroke-opacity:1;stroke-miterlimit:10;" d="M 240.078125 75.3125 C 240.078125 79.3125 234.078125 79.3125 234.078125 75.3125 C 234.078125 71.3125 240.078125 71.3125 240.078125 75.3125 "/>
<path style="fill:none;stroke-width:1;stroke-linecap:butt;stroke-linejoin:miter;stroke:rgb(0%,0%,0%);stroke-opacity:0.1;stroke-dasharray:1,1;stroke-miterlimit:10;" d="M 254.984375 44.496094 L 239.070312 71.890625 "/>
<path style="fill:none;stroke-width:1;stroke-linecap:butt;stroke-linejoin:miter;stroke:rgb(36.8417%,50.6779%,70.9798%);stroke-opacity:1;stroke-miterlimit:10;" d="M 277.238281 58.167969 C 277.238281 62.167969 271.238281 62.167969 271.238281 58.167969 C 271.238281 54.167969 277.238281 54.167969 277.238281 58.167969 "/>
<path style="fill:none;stroke-width:1;stroke-linecap:butt;stroke-linejoin:miter;stroke:rgb(92.2526%,38.5626%,20.9179%);stroke-opacity:1;stroke-miterlimit:10;" d="M 263.332031 94.191406 C 263.332031 98.191406 257.332031 98.191406 257.332031 94.191406 C 257.332031 90.191406 263.332031 90.191406 263.332031 94.191406 "/>
<path style="fill:none;stroke-width:1;stroke-linecap:butt;stroke-linejoin:miter;stroke:rgb(0%,0%,0%);stroke-opacity:0.1;stroke-dasharray:1,1;stroke-miterlimit:10;" d="M 272.847656 61.769531 L 261.722656 90.589844 "/>
<path style="fill:none;stroke-width:1;stroke-linecap:butt;stroke-linejoin:miter;stroke:rgb(36.8417%,50.6779%,70.9798%);stroke-opacity:1;stroke-miterlimit:10;" d="M 292.796875 75.425781 C 292.796875 79.425781 286.796875 79.425781 286.796875 75.425781 C 286.796875 71.425781 292.796875 71.425781 292.796875 75.425781 "/>
<path style="fill:none;stroke-width:1;stroke-linecap:butt;stroke-linejoin:miter;stroke:rgb(92.2526%,38.5626%,20.9179%);stroke-opacity:1;stroke-miterlimit:10;" d="M 293 125.664062 C 293 129.664062 287 129.664062 287 125.664062 C 287 121.664062 293 121.664062 293 125.664062 "/>
<path style="fill:none;stroke-width:1;stroke-linecap:butt;stroke-linejoin:miter;stroke:rgb(0%,0%,0%);stroke-opacity:0.1;stroke-dasharray:1,1;stroke-miterlimit:10;" d="M 289.816406 80.449219 L 289.980469 120.640625 "/>
</g>
</svg>
