<?xml version="1.0" encoding="UTF-8"?>
<svg xmlns="http://www.w3.org/2000/svg" xmlns:xlink="http://www.w3.org/1999/xlink" width="200pt" height="200pt" viewBox="0 0 200 200" version="1.1">
<g id="surface1">
<path style="fill:none;stroke-width:2;stroke-linecap:butt;stroke-linejoin:miter;stroke:rgb(88.0722%,61.1041%,14.2051%);stroke-opacity:1;stroke-miterlimit:10;" d="M 60 0 L 30 51.960938 L -30 51.960938 L -60 0 L -30 -51.960938 L 30 -51.960938 Z M 60 0 " transform="matrix(1,0,0,-1,100,100)"/>
<path style="fill:none;stroke-width:2;stroke-linecap:butt;stroke-linejoin:miter;stroke:rgb(92.2526%,38.5626%,20.9179%);stroke-opacity:0.2;stroke-miterlimit:10;" d="M 2 21 C 12.65625 20.46875 21.023438 11.671875 21.023438 1 C 21.023438 -9.671875 12.65625 -18.46875 2 -19 " transform="matrix(1,0,0,-1,100,100)"/>
<path style="fill:none;stroke-width:2;stroke-linecap:butt;stroke-linejoin:miter;stroke:rgb(92.2526%,38.5626%,20.9179%);stroke-opacity:1;stroke-miterlimit:10;" d="M 2 21 C 12.65625 20.46875 21.023438 11.671875 21.023438 1 C 21.023438 -9.671875 12.65625 -18.46875 2 -19 " transform="matrix(1,0,0,-1,100,100)"/>
<path style="fill:none;stroke-width:2;stroke-linecap:butt;stroke-linejoin:miter;stroke:rgb(56.0181%,69.1569%,19.4885%);stroke-opacity:0.2;stroke-miterlimit:10;" d="M 2 21 C -3.476562 21.273438 -8.828125 19.289062 -12.800781 15.507812 C -16.777344 11.730469 -19.023438 6.484375 -19.023438 1 C -19.023438 -4.484375 -16.777344 -9.730469 -12.800781 -13.507812 C -8.828125 -17.289062 -3.476562 -19.273438 2 -19 " transform="matrix(1,0,0,-1,100,100)"/>
<path style="fill:none;stroke-width:2;stroke-linecap:butt;stroke-linejoin:miter;stroke:rgb(56.0181%,69.1569%,19.4885%);stroke-opacity:1;stroke-miterlimit:10;" d="M 2 21 C -3.476562 21.273438 -8.828125 19.289062 -12.800781 15.507812 C -16.777344 11.730469 -19.023438 6.484375 -19.023438 1 C -19.023438 -4.484375 -16.777344 -9.730469 -12.800781 -13.507812 C -8.828125 -17.289062 -3.476562 -19.273438 2 -19 " transform="matrix(1,0,0,-1,100,100)"/>
<path style="fill:none;stroke-width:2;stroke-linecap:butt;stroke-linejoin:miter;stroke:rgb(52.8488%,47.0624%,70.1351%);stroke-opacity:0.2;stroke-miterlimit:10;" d="M 2 21 L 2 -19 " transform="matrix(1,0,0,-1,100,100)"/>
<path style="fill:none;stroke-width:2;stroke-linecap:butt;stroke-linejoin:miter;stroke:rgb(52.8488%,47.0624%,70.1351%);stroke-opacity:1;stroke-miterlimit:10;" d="M 2 21 L 2 -19 " transform="matrix(1,0,0,-1,100,100)"/>
<path style="fill:none;stroke-width:2;stroke-linecap:butt;stroke-linejoin:miter;stroke:rgb(92.2526%,38.5626%,20.9179%);stroke-opacity:0.2;stroke-miterlimit:10;" d="M -29 31 C -12.429688 47.570312 14.429688 47.570312 31 31 C 47.570312 14.429688 47.570312 -12.429688 31 -29 " transform="matrix(1,0,0,-1,100,100)"/>
<path style="fill:none;stroke-width:2;stroke-linecap:butt;stroke-linejoin:miter;stroke:rgb(92.2526%,38.5626%,20.9179%);stroke-opacity:1;stroke-miterlimit:10;" d="M -29 31 C -12.429688 47.570312 14.429688 47.570312 31 31 C 47.570312 14.429688 47.570312 -12.429688 31 -29 " transform="matrix(1,0,0,-1,100,100)"/>
<path style="fill:none;stroke-width:2;stroke-linecap:butt;stroke-linejoin:miter;stroke:rgb(56.0181%,69.1569%,19.4885%);stroke-opacity:0.2;stroke-miterlimit:10;" d="M -29 31 C -45.570312 14.429688 -45.570312 -12.429688 -29 -29 C -12.429688 -45.570312 14.429688 -45.570312 31 -29 " transform="matrix(1,0,0,-1,100,100)"/>
<path style="fill:none;stroke-width:2;stroke-linecap:butt;stroke-linejoin:miter;stroke:rgb(56.0181%,69.1569%,19.4885%);stroke-opacity:1;stroke-miterlimit:10;" d="M -29 31 C -45.570312 14.429688 -45.570312 -12.429688 -29 -29 C -12.429688 -45.570312 14.429688 -45.570312 31 -29 " transform="matrix(1,0,0,-1,100,100)"/>
<path style="fill:none;stroke-width:2;stroke-linecap:butt;stroke-linejoin:miter;stroke:rgb(52.8488%,47.0624%,70.1351%);stroke-opacity:0.2;stroke-miterlimit:10;" d="M -29 31 L 31 -29 " transform="matrix(1,0,0,-1,100,100)"/>
<path style="fill:none;stroke-width:2;stroke-linecap:butt;stroke-linejoin:miter;stroke:rgb(52.8488%,47.0624%,70.1351%);stroke-opacity:1;stroke-miterlimit:10;" d="M -29 31 L 31 -29 " transform="matrix(1,0,0,-1,100,100)"/>
<path style="fill:none;stroke-width:2;stroke-linecap:butt;stroke-linejoin:miter;stroke:rgb(92.2526%,38.5626%,20.9179%);stroke-opacity:0.2;stroke-miterlimit:10;" d="M -39 -20 C -28.34375 -20.53125 -19.976562 -29.328125 -19.976562 -40 C -19.976562 -50.671875 -28.34375 -59.46875 -39 -60 " transform="matrix(1,0,0,-1,100,100)"/>
<path style="fill:none;stroke-width:2;stroke-linecap:butt;stroke-linejoin:miter;stroke:rgb(92.2526%,38.5626%,20.9179%);stroke-opacity:1;stroke-miterlimit:10;" d="M -39 -20 C -31.617188 -20.371094 -25.035156 -24.777344 -21.886719 -31.464844 C -18.734375 -38.152344 -19.523438 -46.03125 -23.941406 -51.960938 " transform="matrix(1,0,0,-1,100,100)"/>
<path style="fill:none;stroke-width:2;stroke-linecap:butt;stroke-linejoin:miter;stroke:rgb(56.0181%,69.1569%,19.4885%);stroke-opacity:0.2;stroke-miterlimit:10;" d="M -39 -20 C -44.476562 -19.726562 -49.828125 -21.710938 -53.800781 -25.492188 C -57.777344 -29.269531 -60.023438 -34.515625 -60.023438 -40 C -60.023438 -45.484375 -57.777344 -50.730469 -53.800781 -54.507812 C -49.828125 -58.289062 -44.476562 -60.273438 -39 -60 " transform="matrix(1,0,0,-1,100,100)"/>
<path style="fill:none;stroke-width:2;stroke-linecap:butt;stroke-linejoin:miter;stroke:rgb(56.0181%,69.1569%,19.4885%);stroke-opacity:1;stroke-miterlimit:10;" d="M -39 -20 C -41.941406 -19.851562 -44.878906 -20.355469 -47.601562 -21.472656 " transform="matrix(1,0,0,-1,100,100)"/>
<path style="fill:none;stroke-width:2;stroke-linecap:butt;stroke-linejoin:miter;stroke:rgb(52.8488%,47.0624%,70.1351%);stroke-opacity:0.2;stroke-miterlimit:10;" d="M -39 -20 L -39 -60 " transform="matrix(1,0,0,-1,100,100)"/>
<path style="fill:none;stroke-width:2;stroke-linecap:butt;stroke-linejoin:miter;stroke:rgb(52.8488%,47.0624%,70.1351%);stroke-opacity:1;stroke-miterlimit:10;" d="M -39 -20 L -39 -36.375 " transform="matrix(1,0,0,-1,100,100)"/>
<path style="fill:none;stroke-width:2;stroke-linecap:butt;stroke-linejoin:miter;stroke:rgb(92.2526%,38.5626%,20.9179%);stroke-opacity:0.2;stroke-miterlimit:10;" d="M -70 -10 C -53.429688 6.570312 -26.570312 6.570312 -10 -10 C 6.570312 -26.570312 6.570312 -53.429688 -10 -70 " transform="matrix(1,0,0,-1,100,100)"/>
<path style="fill:none;stroke-width:2;stroke-linecap:butt;stroke-linejoin:miter;stroke:rgb(92.2526%,38.5626%,20.9179%);stroke-opacity:1;stroke-miterlimit:10;" d="M -58.851562 -1.992188 C -43.746094 5.5 -25.644531 3.335938 -12.730469 -7.5 C 0.183594 -18.335938 5.457031 -35.789062 0.707031 -51.960938 " transform="matrix(1,0,0,-1,100,100)"/>
<path style="fill:none;stroke-width:2;stroke-linecap:butt;stroke-linejoin:miter;stroke:rgb(56.0181%,69.1569%,19.4885%);stroke-opacity:0.2;stroke-miterlimit:10;" d="M -70 -10 C -86.570312 -26.570312 -86.570312 -53.429688 -70 -70 C -53.429688 -86.570312 -26.570312 -86.570312 -10 -70 " transform="matrix(1,0,0,-1,100,100)"/>
<path style="fill:none;stroke-width:2;stroke-linecap:butt;stroke-linejoin:miter;stroke:rgb(52.8488%,47.0624%,70.1351%);stroke-opacity:0.2;stroke-miterlimit:10;" d="M -70 -10 L -10 -70 " transform="matrix(1,0,0,-1,100,100)"/>
<path style="fill:none;stroke-width:2;stroke-linecap:butt;stroke-linejoin:miter;stroke:rgb(52.8488%,47.0624%,70.1351%);stroke-opacity:1;stroke-miterlimit:10;" d="M -32.679688 -47.320312 L -28.039062 -51.960938 " transform="matrix(1,0,0,-1,100,100)"/>
<path style="fill:none;stroke-width:2;stroke-linecap:butt;stroke-linejoin:miter;stroke:rgb(92.2526%,38.5626%,20.9179%);stroke-opacity:0.2;stroke-miterlimit:10;" d="M -39 60 C -28.34375 59.46875 -19.976562 50.671875 -19.976562 40 C -19.976562 29.328125 -28.34375 20.53125 -39 20 " transform="matrix(1,0,0,-1,100,100)"/>
<path style="fill:none;stroke-width:2;stroke-linecap:butt;stroke-linejoin:miter;stroke:rgb(92.2526%,38.5626%,20.9179%);stroke-opacity:1;stroke-miterlimit:10;" d="M -23.941406 51.960938 C -19.523438 46.03125 -18.734375 38.152344 -21.886719 31.464844 C -25.035156 24.777344 -31.617188 20.367188 -39 20 " transform="matrix(1,0,0,-1,100,100)"/>
<path style="fill:none;stroke-width:2;stroke-linecap:butt;stroke-linejoin:miter;stroke:rgb(56.0181%,69.1569%,19.4885%);stroke-opacity:0.2;stroke-miterlimit:10;" d="M -39 60 C -44.476562 60.273438 -49.828125 58.289062 -53.800781 54.507812 C -57.777344 50.730469 -60.023438 45.484375 -60.023438 40 C -60.023438 34.515625 -57.777344 29.269531 -53.800781 25.492188 C -49.828125 21.710938 -44.476562 19.726562 -39 20 " transform="matrix(1,0,0,-1,100,100)"/>
<path style="fill:none;stroke-width:2;stroke-linecap:butt;stroke-linejoin:miter;stroke:rgb(56.0181%,69.1569%,19.4885%);stroke-opacity:1;stroke-miterlimit:10;" d="M -47.597656 21.480469 C -44.875 20.363281 -41.941406 19.859375 -39 20.007812 " transform="matrix(1,0,0,-1,100,100)"/>
<path style="fill:none;stroke-width:2;stroke-linecap:butt;stroke-linejoin:miter;stroke:rgb(52.8488%,47.0624%,70.1351%);stroke-opacity:0.2;stroke-miterlimit:10;" d="M -39 60 L -39 20 " transform="matrix(1,0,0,-1,100,100)"/>
<path style="fill:none;stroke-width:2;stroke-linecap:butt;stroke-linejoin:miter;stroke:rgb(52.8488%,47.0624%,70.1351%);stroke-opacity:1;stroke-miterlimit:10;" d="M -39 36.375 L -39 20 " transform="matrix(1,0,0,-1,100,100)"/>
<path style="fill:none;stroke-width:2;stroke-linecap:butt;stroke-linejoin:miter;stroke:rgb(92.2526%,38.5626%,20.9179%);stroke-opacity:0.2;stroke-miterlimit:10;" d="M -70 70 C -53.429688 86.570312 -26.570312 86.570312 -10 70 C 6.570312 53.429688 6.570312 26.570312 -10 10 " transform="matrix(1,0,0,-1,100,100)"/>
<path style="fill:none;stroke-width:2;stroke-linecap:butt;stroke-linejoin:miter;stroke:rgb(92.2526%,38.5626%,20.9179%);stroke-opacity:1;stroke-miterlimit:10;" d="M 0.707031 51.960938 C 5.082031 37.070312 0.976562 20.976562 -10 10 " transform="matrix(1,0,0,-1,100,100)"/>
<path style="fill:none;stroke-width:2;stroke-linecap:butt;stroke-linejoin:miter;stroke:rgb(56.0181%,69.1569%,19.4885%);stroke-opacity:0.2;stroke-miterlimit:10;" d="M -70 70 C -86.570312 53.429688 -86.570312 26.570312 -70 10 C -53.429688 -6.570312 -26.570312 -6.570312 -10 10 " transform="matrix(1,0,0,-1,100,100)"/>
<path style="fill:none;stroke-width:2;stroke-linecap:butt;stroke-linejoin:miter;stroke:rgb(56.0181%,69.1569%,19.4885%);stroke-opacity:1;stroke-miterlimit:10;" d="M -58.851562 1.992188 C -42.535156 -6.101562 -22.878906 -2.878906 -10 10 " transform="matrix(1,0,0,-1,100,100)"/>
<path style="fill:none;stroke-width:2;stroke-linecap:butt;stroke-linejoin:miter;stroke:rgb(52.8488%,47.0624%,70.1351%);stroke-opacity:0.2;stroke-miterlimit:10;" d="M -70 70 L -10 10 " transform="matrix(1,0,0,-1,100,100)"/>
<path style="fill:none;stroke-width:2;stroke-linecap:butt;stroke-linejoin:miter;stroke:rgb(52.8488%,47.0624%,70.1351%);stroke-opacity:1;stroke-miterlimit:10;" d="M -38.039062 38.039062 L -10 10 " transform="matrix(1,0,0,-1,100,100)"/>
<path style="fill:none;stroke-width:2;stroke-linecap:butt;stroke-linejoin:miter;stroke:rgb(92.2526%,38.5626%,20.9179%);stroke-opacity:0.2;stroke-miterlimit:10;" d="M 41 60 C 51.65625 59.46875 60.023438 50.671875 60.023438 40 C 60.023438 29.328125 51.65625 20.53125 41 20 " transform="matrix(1,0,0,-1,100,100)"/>
<path style="fill:none;stroke-width:2;stroke-linecap:butt;stroke-linejoin:miter;stroke:rgb(92.2526%,38.5626%,20.9179%);stroke-opacity:1;stroke-miterlimit:10;" d="M 47.597656 21.480469 C 45.5 20.617188 43.265625 20.121094 41 20.007812 " transform="matrix(1,0,0,-1,100,100)"/>
<path style="fill:none;stroke-width:2;stroke-linecap:butt;stroke-linejoin:miter;stroke:rgb(56.0181%,69.1569%,19.4885%);stroke-opacity:0.2;stroke-miterlimit:10;" d="M 41 60 C 35.523438 60.273438 30.171875 58.289062 26.199219 54.507812 C 22.222656 50.730469 19.976562 45.484375 19.976562 40 C 19.976562 34.515625 22.222656 29.269531 26.199219 25.492188 C 30.171875 21.710938 35.523438 19.726562 41 20 " transform="matrix(1,0,0,-1,100,100)"/>
<path style="fill:none;stroke-width:2;stroke-linecap:butt;stroke-linejoin:miter;stroke:rgb(56.0181%,69.1569%,19.4885%);stroke-opacity:1;stroke-miterlimit:10;" d="M 23.941406 51.960938 C 19.308594 45.742188 18.683594 37.410156 22.335938 30.570312 C 25.984375 23.730469 33.257812 19.613281 41 20 " transform="matrix(1,0,0,-1,100,100)"/>
<path style="fill:none;stroke-width:2;stroke-linecap:butt;stroke-linejoin:miter;stroke:rgb(52.8488%,47.0624%,70.1351%);stroke-opacity:0.2;stroke-miterlimit:10;" d="M 41 60 L 41 20 " transform="matrix(1,0,0,-1,100,100)"/>
<path style="fill:none;stroke-width:2;stroke-linecap:butt;stroke-linejoin:miter;stroke:rgb(52.8488%,47.0624%,70.1351%);stroke-opacity:1;stroke-miterlimit:10;" d="M 41 32.910156 L 41 20 " transform="matrix(1,0,0,-1,100,100)"/>
<path style="fill:none;stroke-width:2;stroke-linecap:butt;stroke-linejoin:miter;stroke:rgb(92.2526%,38.5626%,20.9179%);stroke-opacity:0.2;stroke-miterlimit:10;" d="M 10 70 C 26.570312 86.570312 53.429688 86.570312 70 70 C 86.570312 53.429688 86.570312 26.570312 70 10 " transform="matrix(1,0,0,-1,100,100)"/>
<path style="fill:none;stroke-width:2;stroke-linecap:butt;stroke-linejoin:miter;stroke:rgb(56.0181%,69.1569%,19.4885%);stroke-opacity:0.2;stroke-miterlimit:10;" d="M 10 70 C -6.570312 53.429688 -6.570312 26.570312 10 10 C 26.570312 -6.570312 53.429688 -6.570312 70 10 " transform="matrix(1,0,0,-1,100,100)"/>
<path style="fill:none;stroke-width:2;stroke-linecap:butt;stroke-linejoin:miter;stroke:rgb(56.0181%,69.1569%,19.4885%);stroke-opacity:1;stroke-miterlimit:10;" d="M -0.707031 51.960938 C -5.457031 35.789062 -0.183594 18.335938 12.730469 7.5 C 25.644531 -3.335938 43.746094 -5.5 58.851562 1.992188 " transform="matrix(1,0,0,-1,100,100)"/>
<path style="fill:none;stroke-width:2;stroke-linecap:butt;stroke-linejoin:miter;stroke:rgb(52.8488%,47.0624%,70.1351%);stroke-opacity:0.2;stroke-miterlimit:10;" d="M 10 70 L 70 10 " transform="matrix(1,0,0,-1,100,100)"/>
<path style="fill:none;stroke-width:2;stroke-linecap:butt;stroke-linejoin:miter;stroke:rgb(52.8488%,47.0624%,70.1351%);stroke-opacity:1;stroke-miterlimit:10;" d="M 28.039062 51.960938 L 32.679688 47.320312 " transform="matrix(1,0,0,-1,100,100)"/>
<path style="fill:none;stroke-width:2;stroke-linecap:butt;stroke-linejoin:miter;stroke:rgb(92.2526%,38.5626%,20.9179%);stroke-opacity:0.2;stroke-miterlimit:10;" d="M 41 -20 C 51.65625 -20.53125 60.023438 -29.328125 60.023438 -40 C 60.023438 -50.671875 51.65625 -59.46875 41 -60 " transform="matrix(1,0,0,-1,100,100)"/>
<path style="fill:none;stroke-width:2;stroke-linecap:butt;stroke-linejoin:miter;stroke:rgb(92.2526%,38.5626%,20.9179%);stroke-opacity:1;stroke-miterlimit:10;" d="M 41 -20 C 43.269531 -20.113281 45.5 -20.613281 47.601562 -21.472656 " transform="matrix(1,0,0,-1,100,100)"/>
<path style="fill:none;stroke-width:2;stroke-linecap:butt;stroke-linejoin:miter;stroke:rgb(56.0181%,69.1569%,19.4885%);stroke-opacity:0.2;stroke-miterlimit:10;" d="M 41 -20 C 35.523438 -19.726562 30.171875 -21.710938 26.199219 -25.492188 C 22.222656 -29.269531 19.976562 -34.515625 19.976562 -40 C 19.976562 -45.484375 22.222656 -50.730469 26.199219 -54.507812 C 30.171875 -58.289062 35.523438 -60.273438 41 -60 " transform="matrix(1,0,0,-1,100,100)"/>
<path style="fill:none;stroke-width:2;stroke-linecap:butt;stroke-linejoin:miter;stroke:rgb(56.0181%,69.1569%,19.4885%);stroke-opacity:1;stroke-miterlimit:10;" d="M 41 -20 C 33.257812 -19.613281 25.984375 -23.730469 22.335938 -30.570312 C 18.683594 -37.410156 19.308594 -45.742188 23.941406 -51.960938 " transform="matrix(1,0,0,-1,100,100)"/>
<path style="fill:none;stroke-width:2;stroke-linecap:butt;stroke-linejoin:miter;stroke:rgb(52.8488%,47.0624%,70.1351%);stroke-opacity:0.2;stroke-miterlimit:10;" d="M 41 -20 L 41 -60 " transform="matrix(1,0,0,-1,100,100)"/>
<path style="fill:none;stroke-width:2;stroke-linecap:butt;stroke-linejoin:miter;stroke:rgb(52.8488%,47.0624%,70.1351%);stroke-opacity:1;stroke-miterlimit:10;" d="M 41 -20 L 41 -32.910156 " transform="matrix(1,0,0,-1,100,100)"/>
<path style="fill:none;stroke-width:2;stroke-linecap:butt;stroke-linejoin:miter;stroke:rgb(92.2526%,38.5626%,20.9179%);stroke-opacity:0.2;stroke-miterlimit:10;" d="M 10 -10 C 26.570312 6.570312 53.429688 6.570312 70 -10 C 86.570312 -26.570312 86.570312 -53.429688 70 -70 " transform="matrix(1,0,0,-1,100,100)"/>
<path style="fill:none;stroke-width:2;stroke-linecap:butt;stroke-linejoin:miter;stroke:rgb(92.2526%,38.5626%,20.9179%);stroke-opacity:1;stroke-miterlimit:10;" d="M 10 -10 C 22.878906 2.878906 42.535156 6.101562 58.851562 -1.992188 " transform="matrix(1,0,0,-1,100,100)"/>
<path style="fill:none;stroke-width:2;stroke-linecap:butt;stroke-linejoin:miter;stroke:rgb(56.0181%,69.1569%,19.4885%);stroke-opacity:0.2;stroke-miterlimit:10;" d="M 10 -10 C -6.570312 -26.570312 -6.570312 -53.429688 10 -70 C 26.570312 -86.570312 53.429688 -86.570312 70 -70 " transform="matrix(1,0,0,-1,100,100)"/>
<path style="fill:none;stroke-width:2;stroke-linecap:butt;stroke-linejoin:miter;stroke:rgb(56.0181%,69.1569%,19.4885%);stroke-opacity:1;stroke-miterlimit:10;" d="M 10 -10 C -0.976562 -20.976562 -5.082031 -37.070312 -0.707031 -51.960938 " transform="matrix(1,0,0,-1,100,100)"/>
<path style="fill:none;stroke-width:2;stroke-linecap:butt;stroke-linejoin:miter;stroke:rgb(52.8488%,47.0624%,70.1351%);stroke-opacity:0.2;stroke-miterlimit:10;" d="M 10 -10 L 70 -70 " transform="matrix(1,0,0,-1,100,100)"/>
<path style="fill:none;stroke-width:2;stroke-linecap:butt;stroke-linejoin:miter;stroke:rgb(52.8488%,47.0624%,70.1351%);stroke-opacity:1;stroke-miterlimit:10;" d="M 10 -10 L 38.039062 -38.039062 " transform="matrix(1,0,0,-1,100,100)"/>
</g>
</svg>
