<?xml version="1.0" encoding="UTF-8"?>
<svg xmlns="http://www.w3.org/2000/svg" xmlns:xlink="http://www.w3.org/1999/xlink" width="200pt" height="200pt" viewBox="0 0 200 200" version="1.1">
<g id="surface6">
<path style="fill:none;stroke-width:2;stroke-linecap:butt;stroke-linejoin:miter;stroke:rgb(88.0722%,61.1041%,14.2051%);stroke-opacity:1;stroke-miterlimit:10;" d="M 60 0 L 30 51.960938 L -30 51.960938 L -60 0 L -30 -51.960938 L 30 -51.960938 Z M 60 0 " transform="matrix(1,0,0,-1,100,100)"/>
<path style="fill:none;stroke-width:2;stroke-linecap:butt;stroke-linejoin:miter;stroke:rgb(92.2526%,38.5626%,20.9179%);stroke-opacity:0.2;stroke-miterlimit:10;" d="M 2 21 C 12.65625 20.46875 21.023438 11.671875 21.023438 1 C 21.023438 -9.671875 12.65625 -18.46875 2 -19 " transform="matrix(1,0,0,-1,100,100)"/>
<path style="fill:none;stroke-width:2;stroke-linecap:butt;stroke-linejoin:miter;stroke:rgb(56.0181%,69.1569%,19.4885%);stroke-opacity:0.2;stroke-miterlimit:10;" d="M 2 21 C -3.476562 21.273438 -8.828125 19.289062 -12.800781 15.507812 C -16.777344 11.730469 -19.023438 6.484375 -19.023438 1 C -19.023438 -4.484375 -16.777344 -9.730469 -12.800781 -13.507812 C -8.828125 -17.289062 -3.476562 -19.273438 2 -19 " transform="matrix(1,0,0,-1,100,100)"/>
<path style="fill:none;stroke-width:2;stroke-linecap:butt;stroke-linejoin:miter;stroke:rgb(52.8488%,47.0624%,70.1351%);stroke-opacity:0.2;stroke-miterlimit:10;" d="M 2 21 L 2 -19 " transform="matrix(1,0,0,-1,100,100)"/>
<path style="fill:none;stroke-width:2;stroke-linecap:butt;stroke-linejoin:miter;stroke:rgb(92.2526%,38.5626%,20.9179%);stroke-opacity:0.2;stroke-miterlimit:10;" d="M -29 31 C -12.429688 47.570312 14.429688 47.570312 31 31 C 47.570312 14.429688 47.570312 -12.429688 31 -29 " transform="matrix(1,0,0,-1,100,100)"/>
<path style="fill:none;stroke-width:2;stroke-linecap:butt;stroke-linejoin:miter;stroke:rgb(56.0181%,69.1569%,19.4885%);stroke-opacity:0.2;stroke-miterlimit:10;" d="M -29 31 C -45.570312 14.429688 -45.570312 -12.429688 -29 -29 C -12.429688 -45.570312 14.429688 -45.570312 31 -29 " transform="matrix(1,0,0,-1,100,100)"/>
<path style="fill:none;stroke-width:2;stroke-linecap:butt;stroke-linejoin:miter;stroke:rgb(52.8488%,47.0624%,70.1351%);stroke-opacity:0.2;stroke-miterlimit:10;" d="M -29 31 L 31 -29 " transform="matrix(1,0,0,-1,100,100)"/>
<path style="fill:none;stroke-width:2;stroke-linecap:butt;stroke-linejoin:miter;stroke:rgb(92.2526%,38.5626%,20.9179%);stroke-opacity:0.2;stroke-miterlimit:10;" d="M -39 -20 C -28.34375 -20.53125 -19.976562 -29.328125 -19.976562 -40 C -19.976562 -50.671875 -28.34375 -59.46875 -39 -60 " transform="matrix(1,0,0,-1,100,100)"/>
<path style="fill:none;stroke-width:2;stroke-linecap:butt;stroke-linejoin:miter;stroke:rgb(92.2526%,38.5626%,20.9179%);stroke-opacity:1;stroke-miterlimit:10;" d="M -23.941406 -51.960938 C -27.507812 -56.753906 -33.03125 -59.703125 -39 -60 " transform="matrix(1,0,0,-1,100,100)"/>
<path style="fill:none;stroke-width:2;stroke-linecap:butt;stroke-linejoin:miter;stroke:rgb(56.0181%,69.1569%,19.4885%);stroke-opacity:0.2;stroke-miterlimit:10;" d="M -39 -20 C -44.476562 -19.726562 -49.828125 -21.710938 -53.800781 -25.492188 C -57.777344 -29.269531 -60.023438 -34.515625 -60.023438 -40 C -60.023438 -45.484375 -57.777344 -50.730469 -53.800781 -54.507812 C -49.828125 -58.289062 -44.476562 -60.273438 -39 -60 " transform="matrix(1,0,0,-1,100,100)"/>
<path style="fill:none;stroke-width:2;stroke-linecap:butt;stroke-linejoin:miter;stroke:rgb(56.0181%,69.1569%,19.4885%);stroke-opacity:1;stroke-miterlimit:10;" d="M -47.597656 -21.480469 C -56.621094 -25.179688 -61.664062 -34.84375 -59.539062 -44.363281 C -57.414062 -53.878906 -48.738281 -60.480469 -39 -59.992188 " transform="matrix(1,0,0,-1,100,100)"/>
<path style="fill:none;stroke-width:2;stroke-linecap:butt;stroke-linejoin:miter;stroke:rgb(52.8488%,47.0624%,70.1351%);stroke-opacity:0.2;stroke-miterlimit:10;" d="M -39 -20 L -39 -60 " transform="matrix(1,0,0,-1,100,100)"/>
<path style="fill:none;stroke-width:2;stroke-linecap:butt;stroke-linejoin:miter;stroke:rgb(52.8488%,47.0624%,70.1351%);stroke-opacity:1;stroke-miterlimit:10;" d="M -39 -36.375 L -39 -60 " transform="matrix(1,0,0,-1,100,100)"/>
<path style="fill:none;stroke-width:2;stroke-linecap:butt;stroke-linejoin:miter;stroke:rgb(92.2526%,38.5626%,20.9179%);stroke-opacity:0.2;stroke-miterlimit:10;" d="M -70 -10 C -53.429688 6.570312 -26.570312 6.570312 -10 -10 C 6.570312 -26.570312 6.570312 -53.429688 -10 -70 " transform="matrix(1,0,0,-1,100,100)"/>
<path style="fill:none;stroke-width:2;stroke-linecap:butt;stroke-linejoin:miter;stroke:rgb(92.2526%,38.5626%,20.9179%);stroke-opacity:1;stroke-miterlimit:10;" d="M -70 -10 C -66.742188 -6.742188 -62.976562 -4.039062 -58.851562 -1.992188 M 0.707031 -51.960938 C -1.296875 -58.777344 -4.976562 -64.976562 -10 -70 " transform="matrix(1,0,0,-1,100,100)"/>
<path style="fill:none;stroke-width:2;stroke-linecap:butt;stroke-linejoin:miter;stroke:rgb(56.0181%,69.1569%,19.4885%);stroke-opacity:0.2;stroke-miterlimit:10;" d="M -70 -10 C -86.570312 -26.570312 -86.570312 -53.429688 -70 -70 C -53.429688 -86.570312 -26.570312 -86.570312 -10 -70 " transform="matrix(1,0,0,-1,100,100)"/>
<path style="fill:none;stroke-width:2;stroke-linecap:butt;stroke-linejoin:miter;stroke:rgb(56.0181%,69.1569%,19.4885%);stroke-opacity:1;stroke-miterlimit:10;" d="M -70 -10 C -86.570312 -26.570312 -86.570312 -53.429688 -70 -70 C -53.429688 -86.570312 -26.570312 -86.570312 -10 -70 " transform="matrix(1,0,0,-1,100,100)"/>
<path style="fill:none;stroke-width:2;stroke-linecap:butt;stroke-linejoin:miter;stroke:rgb(52.8488%,47.0624%,70.1351%);stroke-opacity:0.2;stroke-miterlimit:10;" d="M -70 -10 L -10 -70 " transform="matrix(1,0,0,-1,100,100)"/>
<path style="fill:none;stroke-width:2;stroke-linecap:butt;stroke-linejoin:miter;stroke:rgb(52.8488%,47.0624%,70.1351%);stroke-opacity:1;stroke-miterlimit:10;" d="M -70 -10 L -32.679688 -47.320312 M -28.039062 -51.960938 L -10 -70 " transform="matrix(1,0,0,-1,100,100)"/>
<path style="fill:none;stroke-width:2;stroke-linecap:butt;stroke-linejoin:miter;stroke:rgb(92.2526%,38.5626%,20.9179%);stroke-opacity:0.2;stroke-miterlimit:10;" d="M -39 60 C -28.34375 59.46875 -19.976562 50.671875 -19.976562 40 C -19.976562 29.328125 -28.34375 20.53125 -39 20 " transform="matrix(1,0,0,-1,100,100)"/>
<path style="fill:none;stroke-width:2;stroke-linecap:butt;stroke-linejoin:miter;stroke:rgb(92.2526%,38.5626%,20.9179%);stroke-opacity:1;stroke-miterlimit:10;" d="M -39 60 C -33.03125 59.703125 -27.507812 56.753906 -23.941406 51.960938 " transform="matrix(1,0,0,-1,100,100)"/>
<path style="fill:none;stroke-width:2;stroke-linecap:butt;stroke-linejoin:miter;stroke:rgb(56.0181%,69.1569%,19.4885%);stroke-opacity:0.2;stroke-miterlimit:10;" d="M -39 60 C -44.476562 60.273438 -49.828125 58.289062 -53.800781 54.507812 C -57.777344 50.730469 -60.023438 45.484375 -60.023438 40 C -60.023438 34.515625 -57.777344 29.269531 -53.800781 25.492188 C -49.828125 21.710938 -44.476562 19.726562 -39 20 " transform="matrix(1,0,0,-1,100,100)"/>
<path style="fill:none;stroke-width:2;stroke-linecap:butt;stroke-linejoin:miter;stroke:rgb(56.0181%,69.1569%,19.4885%);stroke-opacity:1;stroke-miterlimit:10;" d="M -39 60 C -48.742188 60.488281 -57.417969 53.882812 -59.542969 44.363281 C -61.667969 34.84375 -56.625 25.175781 -47.601562 21.472656 " transform="matrix(1,0,0,-1,100,100)"/>
<path style="fill:none;stroke-width:2;stroke-linecap:butt;stroke-linejoin:miter;stroke:rgb(52.8488%,47.0624%,70.1351%);stroke-opacity:0.2;stroke-miterlimit:10;" d="M -39 60 L -39 20 " transform="matrix(1,0,0,-1,100,100)"/>
<path style="fill:none;stroke-width:2;stroke-linecap:butt;stroke-linejoin:miter;stroke:rgb(52.8488%,47.0624%,70.1351%);stroke-opacity:1;stroke-miterlimit:10;" d="M -39 60 L -39 36.375 " transform="matrix(1,0,0,-1,100,100)"/>
<path style="fill:none;stroke-width:2;stroke-linecap:butt;stroke-linejoin:miter;stroke:rgb(92.2526%,38.5626%,20.9179%);stroke-opacity:0.2;stroke-miterlimit:10;" d="M -70 70 C -53.429688 86.570312 -26.570312 86.570312 -10 70 C 6.570312 53.429688 6.570312 26.570312 -10 10 " transform="matrix(1,0,0,-1,100,100)"/>
<path style="fill:none;stroke-width:2;stroke-linecap:butt;stroke-linejoin:miter;stroke:rgb(92.2526%,38.5626%,20.9179%);stroke-opacity:1;stroke-miterlimit:10;" d="M -70 70 C -59.410156 80.589844 -44.023438 84.8125 -29.511719 81.109375 C -15 77.40625 -3.515625 66.328125 0.707031 51.960938 " transform="matrix(1,0,0,-1,100,100)"/>
<path style="fill:none;stroke-width:2;stroke-linecap:butt;stroke-linejoin:miter;stroke:rgb(56.0181%,69.1569%,19.4885%);stroke-opacity:0.2;stroke-miterlimit:10;" d="M -70 70 C -86.570312 53.429688 -86.570312 26.570312 -70 10 C -53.429688 -6.570312 -26.570312 -6.570312 -10 10 " transform="matrix(1,0,0,-1,100,100)"/>
<path style="fill:none;stroke-width:2;stroke-linecap:butt;stroke-linejoin:miter;stroke:rgb(56.0181%,69.1569%,19.4885%);stroke-opacity:1;stroke-miterlimit:10;" d="M -70 70 C -79.660156 60.339844 -84.078125 46.617188 -81.867188 33.136719 C -79.65625 19.652344 -71.089844 8.0625 -58.851562 1.992188 " transform="matrix(1,0,0,-1,100,100)"/>
<path style="fill:none;stroke-width:2;stroke-linecap:butt;stroke-linejoin:miter;stroke:rgb(52.8488%,47.0624%,70.1351%);stroke-opacity:0.2;stroke-miterlimit:10;" d="M -70 70 L -10 10 " transform="matrix(1,0,0,-1,100,100)"/>
<path style="fill:none;stroke-width:2;stroke-linecap:butt;stroke-linejoin:miter;stroke:rgb(52.8488%,47.0624%,70.1351%);stroke-opacity:1;stroke-miterlimit:10;" d="M -70 70 L -38.039062 38.039062 " transform="matrix(1,0,0,-1,100,100)"/>
<path style="fill:none;stroke-width:2;stroke-linecap:butt;stroke-linejoin:miter;stroke:rgb(92.2526%,38.5626%,20.9179%);stroke-opacity:0.2;stroke-miterlimit:10;" d="M 41 60 C 51.65625 59.46875 60.023438 50.671875 60.023438 40 C 60.023438 29.328125 51.65625 20.53125 41 20 " transform="matrix(1,0,0,-1,100,100)"/>
<path style="fill:none;stroke-width:2;stroke-linecap:butt;stroke-linejoin:miter;stroke:rgb(92.2526%,38.5626%,20.9179%);stroke-opacity:1;stroke-miterlimit:10;" d="M 41 60 C 50.367188 59.53125 58.152344 52.625 59.738281 43.382812 C 61.320312 34.136719 56.277344 25.035156 47.601562 21.472656 " transform="matrix(1,0,0,-1,100,100)"/>
<path style="fill:none;stroke-width:2;stroke-linecap:butt;stroke-linejoin:miter;stroke:rgb(56.0181%,69.1569%,19.4885%);stroke-opacity:0.2;stroke-miterlimit:10;" d="M 41 60 C 35.523438 60.273438 30.171875 58.289062 26.199219 54.507812 C 22.222656 50.730469 19.976562 45.484375 19.976562 40 C 19.976562 34.515625 22.222656 29.269531 26.199219 25.492188 C 30.171875 21.710938 35.523438 19.726562 41 20 " transform="matrix(1,0,0,-1,100,100)"/>
<path style="fill:none;stroke-width:2;stroke-linecap:butt;stroke-linejoin:miter;stroke:rgb(56.0181%,69.1569%,19.4885%);stroke-opacity:1;stroke-miterlimit:10;" d="M 41 60 C 34.328125 60.332031 27.929688 57.320312 23.941406 51.960938 " transform="matrix(1,0,0,-1,100,100)"/>
<path style="fill:none;stroke-width:2;stroke-linecap:butt;stroke-linejoin:miter;stroke:rgb(52.8488%,47.0624%,70.1351%);stroke-opacity:0.2;stroke-miterlimit:10;" d="M 41 60 L 41 20 " transform="matrix(1,0,0,-1,100,100)"/>
<path style="fill:none;stroke-width:2;stroke-linecap:butt;stroke-linejoin:miter;stroke:rgb(52.8488%,47.0624%,70.1351%);stroke-opacity:1;stroke-miterlimit:10;" d="M 41 60 L 41 32.910156 " transform="matrix(1,0,0,-1,100,100)"/>
<path style="fill:none;stroke-width:2;stroke-linecap:butt;stroke-linejoin:miter;stroke:rgb(92.2526%,38.5626%,20.9179%);stroke-opacity:0.2;stroke-miterlimit:10;" d="M 10 70 C 26.570312 86.570312 53.429688 86.570312 70 70 C 86.570312 53.429688 86.570312 26.570312 70 10 " transform="matrix(1,0,0,-1,100,100)"/>
<path style="fill:none;stroke-width:2;stroke-linecap:butt;stroke-linejoin:miter;stroke:rgb(92.2526%,38.5626%,20.9179%);stroke-opacity:1;stroke-miterlimit:10;" d="M 10 70 C 26.570312 86.570312 53.429688 86.570312 70 70 C 86.570312 53.429688 86.570312 26.570312 70 10 " transform="matrix(1,0,0,-1,100,100)"/>
<path style="fill:none;stroke-width:2;stroke-linecap:butt;stroke-linejoin:miter;stroke:rgb(56.0181%,69.1569%,19.4885%);stroke-opacity:0.2;stroke-miterlimit:10;" d="M 10 70 C -6.570312 53.429688 -6.570312 26.570312 10 10 C 26.570312 -6.570312 53.429688 -6.570312 70 10 " transform="matrix(1,0,0,-1,100,100)"/>
<path style="fill:none;stroke-width:2;stroke-linecap:butt;stroke-linejoin:miter;stroke:rgb(56.0181%,69.1569%,19.4885%);stroke-opacity:1;stroke-miterlimit:10;" d="M 10 70 C 4.976562 64.976562 1.296875 58.777344 -0.707031 51.960938 M 58.851562 1.992188 C 62.976562 4.039062 66.742188 6.742188 70 10 " transform="matrix(1,0,0,-1,100,100)"/>
<path style="fill:none;stroke-width:2;stroke-linecap:butt;stroke-linejoin:miter;stroke:rgb(52.8488%,47.0624%,70.1351%);stroke-opacity:0.2;stroke-miterlimit:10;" d="M 10 70 L 70 10 " transform="matrix(1,0,0,-1,100,100)"/>
<path style="fill:none;stroke-width:2;stroke-linecap:butt;stroke-linejoin:miter;stroke:rgb(52.8488%,47.0624%,70.1351%);stroke-opacity:1;stroke-miterlimit:10;" d="M 10 70 L 28.039062 51.960938 M 32.679688 47.320312 L 70 10 " transform="matrix(1,0,0,-1,100,100)"/>
<path style="fill:none;stroke-width:2;stroke-linecap:butt;stroke-linejoin:miter;stroke:rgb(92.2526%,38.5626%,20.9179%);stroke-opacity:0.2;stroke-miterlimit:10;" d="M 41 -20 C 51.65625 -20.53125 60.023438 -29.328125 60.023438 -40 C 60.023438 -50.671875 51.65625 -59.46875 41 -60 " transform="matrix(1,0,0,-1,100,100)"/>
<path style="fill:none;stroke-width:2;stroke-linecap:butt;stroke-linejoin:miter;stroke:rgb(92.2526%,38.5626%,20.9179%);stroke-opacity:1;stroke-miterlimit:10;" d="M 47.597656 -21.480469 C 56.273438 -25.039062 61.3125 -34.140625 59.730469 -43.378906 C 58.148438 -52.621094 50.363281 -59.523438 41 -59.992188 " transform="matrix(1,0,0,-1,100,100)"/>
<path style="fill:none;stroke-width:2;stroke-linecap:butt;stroke-linejoin:miter;stroke:rgb(56.0181%,69.1569%,19.4885%);stroke-opacity:0.2;stroke-miterlimit:10;" d="M 41 -20 C 35.523438 -19.726562 30.171875 -21.710938 26.199219 -25.492188 C 22.222656 -29.269531 19.976562 -34.515625 19.976562 -40 C 19.976562 -45.484375 22.222656 -50.730469 26.199219 -54.507812 C 30.171875 -58.289062 35.523438 -60.273438 41 -60 " transform="matrix(1,0,0,-1,100,100)"/>
<path style="fill:none;stroke-width:2;stroke-linecap:butt;stroke-linejoin:miter;stroke:rgb(56.0181%,69.1569%,19.4885%);stroke-opacity:1;stroke-miterlimit:10;" d="M 23.941406 -51.960938 C 27.929688 -57.320312 34.328125 -60.332031 41 -60 " transform="matrix(1,0,0,-1,100,100)"/>
<path style="fill:none;stroke-width:2;stroke-linecap:butt;stroke-linejoin:miter;stroke:rgb(52.8488%,47.0624%,70.1351%);stroke-opacity:0.2;stroke-miterlimit:10;" d="M 41 -20 L 41 -60 " transform="matrix(1,0,0,-1,100,100)"/>
<path style="fill:none;stroke-width:2;stroke-linecap:butt;stroke-linejoin:miter;stroke:rgb(52.8488%,47.0624%,70.1351%);stroke-opacity:1;stroke-miterlimit:10;" d="M 41 -32.910156 L 41 -60 " transform="matrix(1,0,0,-1,100,100)"/>
<path style="fill:none;stroke-width:2;stroke-linecap:butt;stroke-linejoin:miter;stroke:rgb(92.2526%,38.5626%,20.9179%);stroke-opacity:0.2;stroke-miterlimit:10;" d="M 10 -10 C 26.570312 6.570312 53.429688 6.570312 70 -10 C 86.570312 -26.570312 86.570312 -53.429688 70 -70 " transform="matrix(1,0,0,-1,100,100)"/>
<path style="fill:none;stroke-width:2;stroke-linecap:butt;stroke-linejoin:miter;stroke:rgb(92.2526%,38.5626%,20.9179%);stroke-opacity:1;stroke-miterlimit:10;" d="M 58.851562 -1.992188 C 71.089844 -8.0625 79.65625 -19.652344 81.867188 -33.136719 C 84.078125 -46.617188 79.660156 -60.339844 70 -70 " transform="matrix(1,0,0,-1,100,100)"/>
<path style="fill:none;stroke-width:2;stroke-linecap:butt;stroke-linejoin:miter;stroke:rgb(56.0181%,69.1569%,19.4885%);stroke-opacity:0.2;stroke-miterlimit:10;" d="M 10 -10 C -6.570312 -26.570312 -6.570312 -53.429688 10 -70 C 26.570312 -86.570312 53.429688 -86.570312 70 -70 " transform="matrix(1,0,0,-1,100,100)"/>
<path style="fill:none;stroke-width:2;stroke-linecap:butt;stroke-linejoin:miter;stroke:rgb(56.0181%,69.1569%,19.4885%);stroke-opacity:1;stroke-miterlimit:10;" d="M -0.707031 -51.960938 C 3.515625 -66.328125 15 -77.40625 29.511719 -81.109375 C 44.023438 -84.8125 59.410156 -80.589844 70 -70 " transform="matrix(1,0,0,-1,100,100)"/>
<path style="fill:none;stroke-width:2;stroke-linecap:butt;stroke-linejoin:miter;stroke:rgb(52.8488%,47.0624%,70.1351%);stroke-opacity:0.2;stroke-miterlimit:10;" d="M 10 -10 L 70 -70 " transform="matrix(1,0,0,-1,100,100)"/>
<path style="fill:none;stroke-width:2;stroke-linecap:butt;stroke-linejoin:miter;stroke:rgb(52.8488%,47.0624%,70.1351%);stroke-opacity:1;stroke-miterlimit:10;" d="M 38.039062 -38.039062 L 70 -70 " transform="matrix(1,0,0,-1,100,100)"/>
</g>
</svg>
