<?xml version="1.0" encoding="UTF-8"?>
<svg xmlns="http://www.w3.org/2000/svg" xmlns:xlink="http://www.w3.org/1999/xlink" width="200pt" height="30pt" viewBox="0 0 200 30" version="1.1">
<defs>
<g>
<symbol overflow="visible" id="id1">
<path style="stroke:none;" d="M 1.5 5.296875 L 1.5 -21.15625 L 16.5 -21.15625 L 16.5 5.296875 Z M 3.171875 3.640625 L 14.828125 3.640625 L 14.828125 -19.46875 L 3.171875 -19.46875 Z M 3.171875 3.640625 "/>
</symbol>
<symbol overflow="visible" id="id2">
<path style="stroke:none;" d="M 2.9375 -21.875 L 5.90625 -21.875 L 5.90625 -12.90625 L 16.65625 -12.90625 L 16.65625 -21.875 L 19.609375 -21.875 L 19.609375 0 L 16.65625 0 L 16.65625 -10.421875 L 5.90625 -10.421875 L 5.90625 0 L 2.9375 0 Z M 2.9375 -21.875 "/>
</symbol>
<symbol overflow="visible" id="id3">
<path style="stroke:none;" d="M 16.859375 -8.875 L 16.859375 -7.5625 L 4.46875 -7.5625 C 4.582031 -5.707031 5.140625 -4.289062 6.140625 -3.3125 C 7.140625 -2.34375 8.535156 -1.859375 10.328125 -1.859375 C 11.359375 -1.859375 12.359375 -1.984375 13.328125 -2.234375 C 14.304688 -2.492188 15.273438 -2.878906 16.234375 -3.390625 L 16.234375 -0.828125 C 15.265625 -0.421875 14.269531 -0.113281 13.25 0.09375 C 12.238281 0.3125 11.210938 0.421875 10.171875 0.421875 C 7.546875 0.421875 5.46875 -0.335938 3.9375 -1.859375 C 2.414062 -3.378906 1.65625 -5.441406 1.65625 -8.046875 C 1.65625 -10.734375 2.378906 -12.863281 3.828125 -14.4375 C 5.273438 -16.007812 7.234375 -16.796875 9.703125 -16.796875 C 11.910156 -16.796875 13.65625 -16.085938 14.9375 -14.671875 C 16.21875 -13.253906 16.859375 -11.320312 16.859375 -8.875 Z M 14.171875 -9.671875 C 14.148438 -11.140625 13.734375 -12.3125 12.921875 -13.1875 C 12.117188 -14.070312 11.054688 -14.515625 9.734375 -14.515625 C 8.222656 -14.515625 7.015625 -14.085938 6.109375 -13.234375 C 5.210938 -12.390625 4.695312 -11.195312 4.5625 -9.65625 Z M 14.171875 -9.671875 "/>
</symbol>
<symbol overflow="visible" id="id4">
<path style="stroke:none;" d="M 2.828125 -22.796875 L 5.515625 -22.796875 L 5.515625 0 L 2.828125 0 Z M 2.828125 -22.796875 "/>
</symbol>
<symbol overflow="visible" id="id5">
<path style="stroke:none;" d="M 9.1875 -14.515625 C 7.738281 -14.515625 6.59375 -13.953125 5.75 -12.828125 C 4.914062 -11.703125 4.5 -10.15625 4.5 -8.1875 C 4.5 -6.226562 4.914062 -4.679688 5.75 -3.546875 C 6.582031 -2.421875 7.726562 -1.859375 9.1875 -1.859375 C 10.625 -1.859375 11.757812 -2.425781 12.59375 -3.5625 C 13.4375 -4.695312 13.859375 -6.238281 13.859375 -8.1875 C 13.859375 -10.132812 13.4375 -11.675781 12.59375 -12.8125 C 11.757812 -13.945312 10.625 -14.515625 9.1875 -14.515625 Z M 9.1875 -16.796875 C 11.53125 -16.796875 13.367188 -16.035156 14.703125 -14.515625 C 16.046875 -12.992188 16.71875 -10.882812 16.71875 -8.1875 C 16.71875 -5.5 16.046875 -3.390625 14.703125 -1.859375 C 13.367188 -0.335938 11.53125 0.421875 9.1875 0.421875 C 6.832031 0.421875 4.988281 -0.335938 3.65625 -1.859375 C 2.320312 -3.390625 1.65625 -5.5 1.65625 -8.1875 C 1.65625 -10.882812 2.320312 -12.992188 3.65625 -14.515625 C 4.988281 -16.035156 6.832031 -16.796875 9.1875 -16.796875 Z M 9.1875 -16.796875 "/>
</symbol>
<symbol overflow="visible" id="id6">
<path style="stroke:none;" d=""/>
</symbol>
<symbol overflow="visible" id="id7">
<path style="stroke:none;" d="M 1.265625 -16.40625 L 3.953125 -16.40625 L 7.328125 -3.609375 L 10.671875 -16.40625 L 13.859375 -16.40625 L 17.234375 -3.609375 L 20.578125 -16.40625 L 23.28125 -16.40625 L 18.984375 0 L 15.8125 0 L 12.28125 -13.453125 L 8.734375 0 L 5.546875 0 Z M 1.265625 -16.40625 "/>
</symbol>
<symbol overflow="visible" id="id8">
<path style="stroke:none;" d="M 12.328125 -13.890625 C 12.023438 -14.066406 11.695312 -14.195312 11.34375 -14.28125 C 10.988281 -14.363281 10.597656 -14.40625 10.171875 -14.40625 C 8.640625 -14.40625 7.46875 -13.90625 6.65625 -12.90625 C 5.84375 -11.914062 5.4375 -10.492188 5.4375 -8.640625 L 5.4375 0 L 2.71875 0 L 2.71875 -16.40625 L 5.4375 -16.40625 L 5.4375 -13.859375 C 6 -14.859375 6.734375 -15.597656 7.640625 -16.078125 C 8.554688 -16.554688 9.660156 -16.796875 10.953125 -16.796875 C 11.140625 -16.796875 11.34375 -16.785156 11.5625 -16.765625 C 11.789062 -16.742188 12.039062 -16.707031 12.3125 -16.65625 Z M 12.328125 -13.890625 "/>
</symbol>
<symbol overflow="visible" id="id9">
<path style="stroke:none;" d="M 13.625 -13.921875 L 13.625 -22.796875 L 16.3125 -22.796875 L 16.3125 0 L 13.625 0 L 13.625 -2.46875 C 13.0625 -1.488281 12.347656 -0.757812 11.484375 -0.28125 C 10.617188 0.1875 9.578125 0.421875 8.359375 0.421875 C 6.378906 0.421875 4.765625 -0.367188 3.515625 -1.953125 C 2.273438 -3.535156 1.65625 -5.613281 1.65625 -8.1875 C 1.65625 -10.769531 2.273438 -12.847656 3.515625 -14.421875 C 4.765625 -16.003906 6.378906 -16.796875 8.359375 -16.796875 C 9.578125 -16.796875 10.617188 -16.554688 11.484375 -16.078125 C 12.347656 -15.609375 13.0625 -14.890625 13.625 -13.921875 Z M 4.4375 -8.1875 C 4.4375 -6.207031 4.84375 -4.648438 5.65625 -3.515625 C 6.476562 -2.390625 7.601562 -1.828125 9.03125 -1.828125 C 10.445312 -1.828125 11.566406 -2.390625 12.390625 -3.515625 C 13.210938 -4.648438 13.625 -6.207031 13.625 -8.1875 C 13.625 -10.164062 13.210938 -11.71875 12.390625 -12.84375 C 11.566406 -13.976562 10.445312 -14.546875 9.03125 -14.546875 C 7.601562 -14.546875 6.476562 -13.976562 5.65625 -12.84375 C 4.84375 -11.71875 4.4375 -10.164062 4.4375 -8.1875 Z M 4.4375 -8.1875 "/>
</symbol>
<symbol overflow="visible" id="id10">
<path style="stroke:none;" d="M 4.53125 -3.71875 L 7.5 -3.71875 L 7.5 0 L 4.53125 0 Z M 4.53125 -21.875 L 7.5 -21.875 L 7.5 -12.28125 L 7.203125 -7.046875 L 4.828125 -7.046875 L 4.53125 -12.28125 Z M 4.53125 -21.875 "/>
</symbol>
</g>
<filter id="alpha" filterUnits="objectBoundingBox" x="0%" y="0%" width="100%" height="100%">
  <feColorMatrix type="matrix" in="SourceGraphic" values="0 0 0 0 1 0 0 0 0 1 0 0 0 0 1 0 0 0 1 0"/>
</filter>
<mask id="id11">
  <g filter="url(#alpha)">
<rect x="0" y="0" width="200" height="30" style="fill:rgb(0%,0%,0%);fill-opacity:0.5;stroke:none;"/>
  </g>
</mask>
<clipPath id="id12">
  <rect x="0" y="0" width="200" height="30"/>
</clipPath>
<g id="id13" clip-path="url(#id12)">
<path style="fill:none;stroke-width:1;stroke-linecap:butt;stroke-linejoin:miter;stroke:rgb(0%,0%,0%);stroke-opacity:0.2;stroke-dasharray:4,6;stroke-dashoffset:2;stroke-miterlimit:10;" d="M -1000 -1000 L -1000 1000 M -990 -1000 L -990 1000 M -980 -1000 L -980 1000 M -970 -1000 L -970 1000 M -960 -1000 L -960 1000 M -950 -1000 L -950 1000 M -940 -1000 L -940 1000 M -930 -1000 L -930 1000 M -920 -1000 L -920 1000 M -910 -1000 L -910 1000 M -900 -1000 L -900 1000 M -890 -1000 L -890 1000 M -880 -1000 L -880 1000 M -870 -1000 L -870 1000 M -860 -1000 L -860 1000 M -850 -1000 L -850 1000 M -840 -1000 L -840 1000 M -830 -1000 L -830 1000 M -820 -1000 L -820 1000 M -810 -1000 L -810 1000 M -800 -1000 L -800 1000 M -790 -1000 L -790 1000 M -780 -1000 L -780 1000 M -770 -1000 L -770 1000 M -760 -1000 L -760 1000 M -750 -1000 L -750 1000 M -740 -1000 L -740 1000 M -730 -1000 L -730 1000 M -720 -1000 L -720 1000 M -710 -1000 L -710 1000 M -700 -1000 L -700 1000 M -690 -1000 L -690 1000 M -680 -1000 L -680 1000 M -670 -1000 L -670 1000 M -660 -1000 L -660 1000 M -650 -1000 L -650 1000 M -640 -1000 L -640 1000 M -630 -1000 L -630 1000 M -620 -1000 L -620 1000 M -610 -1000 L -610 1000 M -600 -1000 L -600 1000 M -590 -1000 L -590 1000 M -580 -1000 L -580 1000 M -570 -1000 L -570 1000 M -560 -1000 L -560 1000 M -550 -1000 L -550 1000 M -540 -1000 L -540 1000 M -530 -1000 L -530 1000 M -520 -1000 L -520 1000 M -510 -1000 L -510 1000 M -500 -1000 L -500 1000 M -490 -1000 L -490 1000 M -480 -1000 L -480 1000 M -470 -1000 L -470 1000 M -460 -1000 L -460 1000 M -450 -1000 L -450 1000 M -440 -1000 L -440 1000 M -430 -1000 L -430 1000 M -420 -1000 L -420 1000 M -410 -1000 L -410 1000 M -400 -1000 L -400 1000 M -390 -1000 L -390 1000 M -380 -1000 L -380 1000 M -370 -1000 L -370 1000 M -360 -1000 L -360 1000 M -350 -1000 L -350 1000 M -340 -1000 L -340 1000 M -330 -1000 L -330 1000 M -320 -1000 L -320 1000 M -310 -1000 L -310 1000 M -300 -1000 L -300 1000 M -290 -1000 L -290 1000 M -280 -1000 L -280 1000 M -270 -1000 L -270 1000 M -260 -1000 L -260 1000 M -250 -1000 L -250 1000 M -240 -1000 L -240 1000 M -230 -1000 L -230 1000 M -220 -1000 L -220 1000 M -210 -1000 L -210 1000 M -200 -1000 L -200 1000 M -190 -1000 L -190 1000 M -180 -1000 L -180 1000 M -170 -1000 L -170 1000 M -160 -1000 L -160 1000 M -150 -1000 L -150 1000 M -140 -1000 L -140 1000 M -130 -1000 L -130 1000 M -120 -1000 L -120 1000 M -110 -1000 L -110 1000 M -100 -1000 L -100 1000 M -90 -1000 L -90 1000 M -80 -1000 L -80 1000 M -70 -1000 L -70 1000 M -60 -1000 L -60 1000 M -50 -1000 L -50 1000 M -40 -1000 L -40 1000 M -30 -1000 L -30 1000 M -20 -1000 L -20 1000 M -10 -1000 L -10 1000 M 0 -1000 L 0 1000 M 10 -1000 L 10 1000 M 20 -1000 L 20 1000 M 30 -1000 L 30 1000 M 40 -1000 L 40 1000 M 50 -1000 L 50 1000 M 60 -1000 L 60 1000 M 70 -1000 L 70 1000 M 80 -1000 L 80 1000 M 90 -1000 L 90 1000 M 100 -1000 L 100 1000 M 110 -1000 L 110 1000 M 120 -1000 L 120 1000 M 130 -1000 L 130 1000 M 140 -1000 L 140 1000 M 150 -1000 L 150 1000 M 160 -1000 L 160 1000 M 170 -1000 L 170 1000 M 180 -1000 L 180 1000 M 190 -1000 L 190 1000 M 200 -1000 L 200 1000 M 210 -1000 L 210 1000 M 220 -1000 L 220 1000 M 230 -1000 L 230 1000 M 240 -1000 L 240 1000 M 250 -1000 L 250 1000 M 260 -1000 L 260 1000 M 270 -1000 L 270 1000 M 280 -1000 L 280 1000 M 290 -1000 L 290 1000 M 300 -1000 L 300 1000 M 310 -1000 L 310 1000 M 320 -1000 L 320 1000 M 330 -1000 L 330 1000 M 340 -1000 L 340 1000 M 350 -1000 L 350 1000 M 360 -1000 L 360 1000 M 370 -1000 L 370 1000 M 380 -1000 L 380 1000 M 390 -1000 L 390 1000 M 400 -1000 L 400 1000 M 410 -1000 L 410 1000 M 420 -1000 L 420 1000 M 430 -1000 L 430 1000 M 440 -1000 L 440 1000 M 450 -1000 L 450 1000 M 460 -1000 L 460 1000 M 470 -1000 L 470 1000 M 480 -1000 L 480 1000 M 490 -1000 L 490 1000 M 500 -1000 L 500 1000 M 510 -1000 L 510 1000 M 520 -1000 L 520 1000 M 530 -1000 L 530 1000 M 540 -1000 L 540 1000 M 550 -1000 L 550 1000 M 560 -1000 L 560 1000 M 570 -1000 L 570 1000 M 580 -1000 L 580 1000 M 590 -1000 L 590 1000 M 600 -1000 L 600 1000 M 610 -1000 L 610 1000 M 620 -1000 L 620 1000 M 630 -1000 L 630 1000 M 640 -1000 L 640 1000 M 650 -1000 L 650 1000 M 660 -1000 L 660 1000 M 670 -1000 L 670 1000 M 680 -1000 L 680 1000 M 690 -1000 L 690 1000 M 700 -1000 L 700 1000 M 710 -1000 L 710 1000 M 720 -1000 L 720 1000 M 730 -1000 L 730 1000 M 740 -1000 L 740 1000 M 750 -1000 L 750 1000 M 760 -1000 L 760 1000 M 770 -1000 L 770 1000 M 780 -1000 L 780 1000 M 790 -1000 L 790 1000 M 800 -1000 L 800 1000 M 810 -1000 L 810 1000 M 820 -1000 L 820 1000 M 830 -1000 L 830 1000 M 840 -1000 L 840 1000 M 850 -1000 L 850 1000 M 860 -1000 L 860 1000 M 870 -1000 L 870 1000 M 880 -1000 L 880 1000 M 890 -1000 L 890 1000 M 900 -1000 L 900 1000 M 910 -1000 L 910 1000 M 920 -1000 L 920 1000 M 930 -1000 L 930 1000 M 940 -1000 L 940 1000 M 950 -1000 L 950 1000 M 960 -1000 L 960 1000 M 970 -1000 L 970 1000 M 980 -1000 L 980 1000 M 990 -1000 L 990 1000 M 1000 -1000 L 1000 1000 M -1000 -1000 L 1000 -1000 M -1000 -990 L 1000 -990 M -1000 -980 L 1000 -980 M -1000 -970 L 1000 -970 M -1000 -960 L 1000 -960 M -1000 -950 L 1000 -950 M -1000 -940 L 1000 -940 M -1000 -930 L 1000 -930 M -1000 -920 L 1000 -920 M -1000 -910 L 1000 -910 M -1000 -900 L 1000 -900 M -1000 -890 L 1000 -890 M -1000 -880 L 1000 -880 M -1000 -870 L 1000 -870 M -1000 -860 L 1000 -860 M -1000 -850 L 1000 -850 M -1000 -840 L 1000 -840 M -1000 -830 L 1000 -830 M -1000 -820 L 1000 -820 M -1000 -810 L 1000 -810 M -1000 -800 L 1000 -800 M -1000 -790 L 1000 -790 M -1000 -780 L 1000 -780 M -1000 -770 L 1000 -770 M -1000 -760 L 1000 -760 M -1000 -750 L 1000 -750 M -1000 -740 L 1000 -740 M -1000 -730 L 1000 -730 M -1000 -720 L 1000 -720 M -1000 -710 L 1000 -710 M -1000 -700 L 1000 -700 M -1000 -690 L 1000 -690 M -1000 -680 L 1000 -680 M -1000 -670 L 1000 -670 M -1000 -660 L 1000 -660 M -1000 -650 L 1000 -650 M -1000 -640 L 1000 -640 M -1000 -630 L 1000 -630 M -1000 -620 L 1000 -620 M -1000 -610 L 1000 -610 M -1000 -600 L 1000 -600 M -1000 -590 L 1000 -590 M -1000 -580 L 1000 -580 M -1000 -570 L 1000 -570 M -1000 -560 L 1000 -560 M -1000 -550 L 1000 -550 M -1000 -540 L 1000 -540 M -1000 -530 L 1000 -530 M -1000 -520 L 1000 -520 M -1000 -510 L 1000 -510 M -1000 -500 L 1000 -500 M -1000 -490 L 1000 -490 M -1000 -480 L 1000 -480 M -1000 -470 L 1000 -470 M -1000 -460 L 1000 -460 M -1000 -450 L 1000 -450 M -1000 -440 L 1000 -440 M -1000 -430 L 1000 -430 M -1000 -420 L 1000 -420 M -1000 -410 L 1000 -410 M -1000 -400 L 1000 -400 M -1000 -390 L 1000 -390 M -1000 -380 L 1000 -380 M -1000 -370 L 1000 -370 M -1000 -360 L 1000 -360 M -1000 -350 L 1000 -350 M -1000 -340 L 1000 -340 M -1000 -330 L 1000 -330 M -1000 -320 L 1000 -320 M -1000 -310 L 1000 -310 M -1000 -300 L 1000 -300 M -1000 -290 L 1000 -290 M -1000 -280 L 1000 -280 M -1000 -270 L 1000 -270 M -1000 -260 L 1000 -260 M -1000 -250 L 1000 -250 M -1000 -240 L 1000 -240 M -1000 -230 L 1000 -230 M -1000 -220 L 1000 -220 M -1000 -210 L 1000 -210 M -1000 -200 L 1000 -200 M -1000 -190 L 1000 -190 M -1000 -180 L 1000 -180 M -1000 -170 L 1000 -170 M -1000 -160 L 1000 -160 M -1000 -150 L 1000 -150 M -1000 -140 L 1000 -140 M -1000 -130 L 1000 -130 M -1000 -120 L 1000 -120 M -1000 -110 L 1000 -110 M -1000 -100 L 1000 -100 M -1000 -90 L 1000 -90 M -1000 -80 L 1000 -80 M -1000 -70 L 1000 -70 M -1000 -60 L 1000 -60 M -1000 -50 L 1000 -50 M -1000 -40 L 1000 -40 M -1000 -30 L 1000 -30 M -1000 -20 L 1000 -20 M -1000 -10 L 1000 -10 M -1000 0 L 1000 0 M -1000 10 L 1000 10 M -1000 20 L 1000 20 M -1000 30 L 1000 30 M -1000 40 L 1000 40 M -1000 50 L 1000 50 M -1000 60 L 1000 60 M -1000 70 L 1000 70 M -1000 80 L 1000 80 M -1000 90 L 1000 90 M -1000 100 L 1000 100 M -1000 110 L 1000 110 M -1000 120 L 1000 120 M -1000 130 L 1000 130 M -1000 140 L 1000 140 M -1000 150 L 1000 150 M -1000 160 L 1000 160 M -1000 170 L 1000 170 M -1000 180 L 1000 180 M -1000 190 L 1000 190 M -1000 200 L 1000 200 M -1000 210 L 1000 210 M -1000 220 L 1000 220 M -1000 230 L 1000 230 M -1000 240 L 1000 240 M -1000 250 L 1000 250 M -1000 260 L 1000 260 M -1000 270 L 1000 270 M -1000 280 L 1000 280 M -1000 290 L 1000 290 M -1000 300 L 1000 300 M -1000 310 L 1000 310 M -1000 320 L 1000 320 M -1000 330 L 1000 330 M -1000 340 L 1000 340 M -1000 350 L 1000 350 M -1000 360 L 1000 360 M -1000 370 L 1000 370 M -1000 380 L 1000 380 M -1000 390 L 1000 390 M -1000 400 L 1000 400 M -1000 410 L 1000 410 M -1000 420 L 1000 420 M -1000 430 L 1000 430 M -1000 440 L 1000 440 M -1000 450 L 1000 450 M -1000 460 L 1000 460 M -1000 470 L 1000 470 M -1000 480 L 1000 480 M -1000 490 L 1000 490 M -1000 500 L 1000 500 M -1000 510 L 1000 510 M -1000 520 L 1000 520 M -1000 530 L 1000 530 M -1000 540 L 1000 540 M -1000 550 L 1000 550 M -1000 560 L 1000 560 M -1000 570 L 1000 570 M -1000 580 L 1000 580 M -1000 590 L 1000 590 M -1000 600 L 1000 600 M -1000 610 L 1000 610 M -1000 620 L 1000 620 M -1000 630 L 1000 630 M -1000 640 L 1000 640 M -1000 650 L 1000 650 M -1000 660 L 1000 660 M -1000 670 L 1000 670 M -1000 680 L 1000 680 M -1000 690 L 1000 690 M -1000 700 L 1000 700 M -1000 710 L 1000 710 M -1000 720 L 1000 720 M -1000 730 L 1000 730 M -1000 740 L 1000 740 M -1000 750 L 1000 750 M -1000 760 L 1000 760 M -1000 770 L 1000 770 M -1000 780 L 1000 780 M -1000 790 L 1000 790 M -1000 800 L 1000 800 M -1000 810 L 1000 810 M -1000 820 L 1000 820 M -1000 830 L 1000 830 M -1000 840 L 1000 840 M -1000 850 L 1000 850 M -1000 860 L 1000 860 M -1000 870 L 1000 870 M -1000 880 L 1000 880 M -1000 890 L 1000 890 M -1000 900 L 1000 900 M -1000 910 L 1000 910 M -1000 920 L 1000 920 M -1000 930 L 1000 930 M -1000 940 L 1000 940 M -1000 950 L 1000 950 M -1000 960 L 1000 960 M -1000 970 L 1000 970 M -1000 980 L 1000 980 M -1000 990 L 1000 990 M -1000 1000 L 1000 1000 " transform="matrix(1,0,0,-1,0,30)"/>
</g>
</defs>
<g id="id14">
<use xlink:href="#id13" mask="url(#id11)"/>
<g style="fill:rgb(36.8417%,50.6779%,70.9798%);fill-opacity:1;">
  <use xlink:href="#id2" x="13.632812" y="26.609375"/>
  <use xlink:href="#id3" x="36.191406" y="26.609375"/>
  <use xlink:href="#id4" x="54.648438" y="26.609375"/>
  <use xlink:href="#id4" x="62.983398" y="26.609375"/>
  <use xlink:href="#id5" x="71.318359" y="26.609375"/>
  <use xlink:href="#id6" x="89.672852" y="26.609375"/>
  <use xlink:href="#id7" x="99.208984" y="26.609375"/>
  <use xlink:href="#id5" x="123.745117" y="26.609375"/>
  <use xlink:href="#id8" x="142.099609" y="26.609375"/>
  <use xlink:href="#id4" x="154.433594" y="26.609375"/>
  <use xlink:href="#id9" x="162.768555" y="26.609375"/>
  <use xlink:href="#id10" x="181.811523" y="26.609375"/>
</g>
</g>
</svg>
